<?xml version="1.0" encoding="UTF-8" standalone="no"?>
<!DOCTYPE svg PUBLIC "-//W3C//DTD SVG 1.1//EN"
 "http://www.w3.org/Graphics/SVG/1.1/DTD/svg11.dtd">
<!-- Generated by graphviz version 2.38.0 (20140413.2041)
 -->
<!-- Title: pnlSX_view::OnbtnChangeRefClkClick Pages: 1 -->
<svg width="326pt" height="66pt"
 viewBox="0.00 0.00 326.00 66.00" xmlns="http://www.w3.org/2000/svg" xmlns:xlink="http://www.w3.org/1999/xlink">
<g id="graph0" class="graph" transform="scale(1 1) rotate(0) translate(4 62)">
<title>pnlSX_view::OnbtnChangeRefClkClick</title>
<polygon fill="white" stroke="none" points="-4,4 -4,-62 322,-62 322,4 -4,4"/>
<!-- Node1 -->
<g id="node1" class="node"><title>Node1</title>
<polygon fill="#bfbfbf" stroke="black" points="0,-14 0,-44 150,-44 150,-14 0,-14"/>
<text text-anchor="start" x="8" y="-32" font-family="Helvetica,sans-Serif" font-size="10.00">pnlSX_view::OnbtnChangeRef</text>
<text text-anchor="middle" x="75" y="-21" font-family="Helvetica,sans-Serif" font-size="10.00">ClkClick</text>
</g>
<!-- Node2 -->
<g id="node2" class="node"><title>Node2</title>
<g id="a_node2"><a xlink:href="../../db/d6a/classpnlSX__view.html#a000023f8df07c01dd3e7f4afb1ccbb64" target="_top" xlink:title="pnlSX_view::pnlSX_view">
<polygon fill="white" stroke="black" points="189,-38.5 189,-57.5 315,-57.5 315,-38.5 189,-38.5"/>
<text text-anchor="middle" x="252" y="-45.5" font-family="Helvetica,sans-Serif" font-size="10.00">pnlSX_view::pnlSX_view</text>
</a>
</g>
</g>
<!-- Node1&#45;&gt;Node2 -->
<g id="edge1" class="edge"><title>Node1&#45;&gt;Node2</title>
<path fill="none" stroke="midnightblue" d="M160.217,-38.1436C169.852,-39.1896 179.54,-40.2415 188.813,-41.2482"/>
<polygon fill="midnightblue" stroke="midnightblue" points="160.535,-34.6576 150.216,-37.0577 159.78,-41.6167 160.535,-34.6576"/>
</g>
<!-- Node3 -->
<g id="node3" class="node"><title>Node3</title>
<g id="a_node3"><a xlink:href="../../db/d6a/classpnlSX__view.html#ae48a947a4a8cf872467dc8ef338911f1" target="_top" xlink:title="pnlSX_view::~pnlSX_view">
<polygon fill="white" stroke="black" points="186,-0.5 186,-19.5 318,-19.5 318,-0.5 186,-0.5"/>
<text text-anchor="middle" x="252" y="-7.5" font-family="Helvetica,sans-Serif" font-size="10.00">pnlSX_view::~pnlSX_view</text>
</a>
</g>
</g>
<!-- Node1&#45;&gt;Node3 -->
<g id="edge2" class="edge"><title>Node1&#45;&gt;Node3</title>
<path fill="none" stroke="midnightblue" d="M160.257,-19.8521C168.844,-18.9198 177.472,-17.983 185.811,-17.0776"/>
<polygon fill="midnightblue" stroke="midnightblue" points="159.78,-16.3833 150.216,-20.9423 160.535,-23.3424 159.78,-16.3833"/>
</g>
</g>
</svg>
