<?xml version="1.0" encoding="UTF-8" standalone="no"?>
<!DOCTYPE svg PUBLIC "-//W3C//DTD SVG 1.1//EN"
 "http://www.w3.org/Graphics/SVG/1.1/DTD/svg11.dtd">
<!-- Generated by graphviz version 2.38.0 (20140413.2041)
 -->
<!-- Title: pnlSX_view::OnDIV2PrescalerChange Pages: 1 -->
<svg width="327pt" height="66pt"
 viewBox="0.00 0.00 327.00 66.00" xmlns="http://www.w3.org/2000/svg" xmlns:xlink="http://www.w3.org/1999/xlink">
<g id="graph0" class="graph" transform="scale(1 1) rotate(0) translate(4 62)">
<title>pnlSX_view::OnDIV2PrescalerChange</title>
<polygon fill="white" stroke="none" points="-4,4 -4,-62 323,-62 323,4 -4,4"/>
<!-- Node1 -->
<g id="node1" class="node"><title>Node1</title>
<polygon fill="#bfbfbf" stroke="black" points="0,-14 0,-44 151,-44 151,-14 0,-14"/>
<text text-anchor="start" x="8" y="-32" font-family="Helvetica,sans-Serif" font-size="10.00">pnlSX_view::OnDIV2Prescaler</text>
<text text-anchor="middle" x="75.5" y="-21" font-family="Helvetica,sans-Serif" font-size="10.00">Change</text>
</g>
<!-- Node2 -->
<g id="node2" class="node"><title>Node2</title>
<g id="a_node2"><a xlink:href="../../db/d6a/classpnlSX__view.html#a000023f8df07c01dd3e7f4afb1ccbb64" target="_top" xlink:title="pnlSX_view::pnlSX_view">
<polygon fill="white" stroke="black" points="190,-38.5 190,-57.5 316,-57.5 316,-38.5 190,-38.5"/>
<text text-anchor="middle" x="253" y="-45.5" font-family="Helvetica,sans-Serif" font-size="10.00">pnlSX_view::pnlSX_view</text>
</a>
</g>
</g>
<!-- Node1&#45;&gt;Node2 -->
<g id="edge1" class="edge"><title>Node1&#45;&gt;Node2</title>
<path fill="none" stroke="midnightblue" d="M161.197,-38.1695C170.843,-39.2138 180.538,-40.2634 189.816,-41.2678"/>
<polygon fill="midnightblue" stroke="midnightblue" points="161.501,-34.682 151.182,-37.0853 160.747,-41.6413 161.501,-34.682"/>
</g>
<!-- Node3 -->
<g id="node3" class="node"><title>Node3</title>
<g id="a_node3"><a xlink:href="../../db/d6a/classpnlSX__view.html#ae48a947a4a8cf872467dc8ef338911f1" target="_top" xlink:title="pnlSX_view::~pnlSX_view">
<polygon fill="white" stroke="black" points="187,-0.5 187,-19.5 319,-19.5 319,-0.5 187,-0.5"/>
<text text-anchor="middle" x="253" y="-7.5" font-family="Helvetica,sans-Serif" font-size="10.00">pnlSX_view::~pnlSX_view</text>
</a>
</g>
</g>
<!-- Node1&#45;&gt;Node3 -->
<g id="edge2" class="edge"><title>Node1&#45;&gt;Node3</title>
<path fill="none" stroke="midnightblue" d="M161.237,-19.8262C169.834,-18.8955 178.469,-17.9606 186.813,-17.0573"/>
<polygon fill="midnightblue" stroke="midnightblue" points="160.747,-16.3587 151.182,-20.9147 161.501,-23.318 160.747,-16.3587"/>
</g>
</g>
</svg>
