<?xml version="1.0" encoding="UTF-8" standalone="no"?>
<!DOCTYPE svg PUBLIC "-//W3C//DTD SVG 1.1//EN"
 "http://www.w3.org/Graphics/SVG/1.1/DTD/svg11.dtd">
<!-- Generated by graphviz version 2.38.0 (20140413.2041)
 -->
<!-- Title: /home/erik/prefix/default/src/limesuite&#45;dev/src/lms7002_wxgui/lms7002_dlgVCOfrequencies.cpp Pages: 1 -->
<!--zoomable 330 -->
<svg id="main" version="1.1" xmlns="http://www.w3.org/2000/svg" xmlns:xlink="http://www.w3.org/1999/xlink" xml:space="preserve" onload="init(evt)">
<style type="text/css"><![CDATA[
.edge:hover path { stroke: red; }
.edge:hover polygon { stroke: red; fill: red; }
]]></style>
<script type="text/javascript"><![CDATA[
var edges = document.getElementsByTagName('g');
if (edges && edges.length) {
  for (var i=0;i<edges.length;i++) {
    if (edges[i].id.substr(0,4)=='edge') {
      edges[i].setAttribute('class','edge');
    }
  }
}
]]></script>
        <defs>
                <circle id="rim" cx="0" cy="0" r="7"/>
                <circle id="rim2" cx="0" cy="0" r="3.5"/>
                <g id="zoomPlus">
                        <use xlink:href="#rim" fill="#404040">
                                <set attributeName="fill" to="#808080" begin="zoomplus.mouseover" end="zoomplus.mouseout"/>
                        </use>
                        <path d="M-4,0h8M0,-4v8" fill="none" stroke="white" stroke-width="1.5" pointer-events="none"/>
                </g>
                <g id="zoomMin">
                        <use xlink:href="#rim" fill="#404040">
                                <set attributeName="fill" to="#808080" begin="zoomminus.mouseover" end="zoomminus.mouseout"/>
                        </use>
                        <path d="M-4,0h8" fill="none" stroke="white" stroke-width="1.5" pointer-events="none"/>
                </g>
                <g id="dirArrow">
                        <path fill="none" stroke="white" stroke-width="1.5" d="M0,-3.0v7 M-2.5,-0.5L0,-3.0L2.5,-0.5"/>
                </g>
               <g id="resetDef">
                       <use xlink:href="#rim2" fill="#404040">
                               <set attributeName="fill" to="#808080" begin="reset.mouseover" end="reset.mouseout"/>
                       </use>
               </g>
        </defs>

<script type="text/javascript">
var viewWidth = 3153;
var viewHeight = 330;
var sectionId = 'dynsection-0';
</script>
<script xlink:href="../../svgpan.js"/>
<svg id="graph" class="graph">
<g id="viewport">
<title>/home/erik/prefix/default/src/limesuite&#45;dev/src/lms7002_wxgui/lms7002_dlgVCOfrequencies.cpp</title>
<polygon fill="white" stroke="none" points="-4,4 -4,-326 3149.49,-326 3149.49,4 -4,4"/>
<!-- Node1 -->
<g id="node1" class="node"><title>Node1</title>
<polygon fill="#bfbfbf" stroke="black" points="652,-280.5 652,-321.5 888,-321.5 888,-280.5 652,-280.5"/>
<text text-anchor="start" x="660" y="-309.5" font-family="Helvetica,sans-Serif" font-size="10.00">/home/erik/prefix/default</text>
<text text-anchor="start" x="660" y="-298.5" font-family="Helvetica,sans-Serif" font-size="10.00">/src/limesuite&#45;dev/src</text>
<text text-anchor="middle" x="770" y="-287.5" font-family="Helvetica,sans-Serif" font-size="10.00">/lms7002_wxgui/lms7002_dlgVCOfrequencies.cpp</text>
</g>
<!-- Node2 -->
<g id="node2" class="node"><title>Node2</title>
<g id="a_node2"><a xlink:href="../../dc/d8a/lms7002__dlgVCOfrequencies_8h.html" target="_top" xlink:title="Subclass of dlgVCOfrequencies, which is generated by wxFormBuilder. ">
<polygon fill="white" stroke="black" points="694,-224.5 694,-243.5 846,-243.5 846,-224.5 694,-224.5"/>
<text text-anchor="middle" x="770" y="-231.5" font-family="Helvetica,sans-Serif" font-size="10.00">lms7002_dlgVCOfrequencies.h</text>
</a>
</g>
</g>
<!-- Node1&#45;&gt;Node2 -->
<g id="edge1" class="edge"><title>Node1&#45;&gt;Node2</title>
<path fill="none" stroke="midnightblue" d="M770,-280.498C770,-272.065 770,-262.235 770,-253.874"/>
<polygon fill="midnightblue" stroke="midnightblue" points="773.5,-253.652 770,-243.652 766.5,-253.653 773.5,-253.652"/>
</g>
<!-- Node33 -->
<g id="node33" class="node"><title>Node33</title>
<polygon fill="white" stroke="#bfbfbf" points="864,-224.5 864,-243.5 930,-243.5 930,-224.5 864,-224.5"/>
<text text-anchor="middle" x="897" y="-231.5" font-family="Helvetica,sans-Serif" font-size="10.00">wx/filedlg.h</text>
</g>
<!-- Node1&#45;&gt;Node33 -->
<g id="edge32" class="edge"><title>Node1&#45;&gt;Node33</title>
<path fill="none" stroke="midnightblue" d="M808.104,-280.498C828.325,-270.149 852.658,-257.695 870.751,-248.435"/>
<polygon fill="midnightblue" stroke="midnightblue" points="872.787,-251.324 880.094,-243.652 869.598,-245.093 872.787,-251.324"/>
</g>
<!-- Node34 -->
<g id="node34" class="node"><title>Node34</title>
<polygon fill="white" stroke="#bfbfbf" points="586,-56.5 586,-75.5 630,-75.5 630,-56.5 586,-56.5"/>
<text text-anchor="middle" x="608" y="-63.5" font-family="Helvetica,sans-Serif" font-size="10.00">vector</text>
</g>
<!-- Node1&#45;&gt;Node34 -->
<g id="edge33" class="edge"><title>Node1&#45;&gt;Node34</title>
<path fill="none" stroke="midnightblue" d="M730.371,-280.393C714.649,-271.082 697.399,-258.741 685,-244 663.463,-218.394 628.674,-125.036 614.411,-85.2063"/>
<polygon fill="midnightblue" stroke="midnightblue" points="617.678,-83.9457 611.032,-75.6943 611.082,-86.289 617.678,-83.9457"/>
</g>
<!-- Node35 -->
<g id="node35" class="node"><title>Node35</title>
<polygon fill="white" stroke="#bfbfbf" points="948,-224.5 948,-243.5 998,-243.5 998,-224.5 948,-224.5"/>
<text text-anchor="middle" x="973" y="-231.5" font-family="Helvetica,sans-Serif" font-size="10.00">fstream</text>
</g>
<!-- Node1&#45;&gt;Node35 -->
<g id="edge34" class="edge"><title>Node1&#45;&gt;Node35</title>
<path fill="none" stroke="midnightblue" d="M830.907,-280.498C865.904,-269.292 908.61,-255.617 938.013,-246.203"/>
<polygon fill="midnightblue" stroke="midnightblue" points="939.367,-249.444 947.823,-243.062 937.232,-242.778 939.367,-249.444"/>
</g>
<!-- Node36 -->
<g id="node36" class="node"><title>Node36</title>
<g id="a_node36"><a xlink:href="../../dc/d5e/lms7__device_8h.html" target="_top" xlink:title="lms7_device.h">
<polygon fill="white" stroke="black" points="558,-224.5 558,-243.5 638,-243.5 638,-224.5 558,-224.5"/>
<text text-anchor="middle" x="598" y="-231.5" font-family="Helvetica,sans-Serif" font-size="10.00">lms7_device.h</text>
</a>
</g>
</g>
<!-- Node1&#45;&gt;Node36 -->
<g id="edge35" class="edge"><title>Node1&#45;&gt;Node36</title>
<path fill="none" stroke="midnightblue" d="M718.394,-280.498C689.868,-269.718 655.297,-256.653 630.532,-247.294"/>
<polygon fill="midnightblue" stroke="midnightblue" points="631.487,-243.914 620.896,-243.652 629.013,-250.462 631.487,-243.914"/>
</g>
<!-- Node3 -->
<g id="node3" class="node"><title>Node3</title>
<g id="a_node3"><a xlink:href="../../d5/d07/LimeSuite_8h.html" target="_top" xlink:title="LMS API library. ">
<polygon fill="white" stroke="black" points="548.5,-168.5 548.5,-187.5 637.5,-187.5 637.5,-168.5 548.5,-168.5"/>
<text text-anchor="middle" x="593" y="-175.5" font-family="Helvetica,sans-Serif" font-size="10.00">lime/LimeSuite.h</text>
</a>
</g>
</g>
<!-- Node2&#45;&gt;Node3 -->
<g id="edge2" class="edge"><title>Node2&#45;&gt;Node3</title>
<path fill="none" stroke="midnightblue" d="M741.954,-224.444C711.918,-215.28 664.087,-200.688 630.757,-190.519"/>
<polygon fill="midnightblue" stroke="midnightblue" points="631.501,-187.087 620.915,-187.516 629.458,-193.782 631.501,-187.087"/>
</g>
<!-- Node6 -->
<g id="node6" class="node"><title>Node6</title>
<g id="a_node6"><a xlink:href="../../d0/d32/lms7002__wxgui_8h.html" target="_top" xlink:title="lms7002_wxgui.h">
<polygon fill="white" stroke="black" points="1832,-168.5 1832,-187.5 1924,-187.5 1924,-168.5 1832,-168.5"/>
<text text-anchor="middle" x="1878" y="-175.5" font-family="Helvetica,sans-Serif" font-size="10.00">lms7002_wxgui.h</text>
</a>
</g>
</g>
<!-- Node2&#45;&gt;Node6 -->
<g id="edge5" class="edge"><title>Node2&#45;&gt;Node6</title>
<path fill="none" stroke="midnightblue" d="M846.436,-224.683C849.326,-224.439 852.188,-224.21 855,-224 1223.04,-196.447 1666.93,-183.988 1821.6,-180.262"/>
<polygon fill="midnightblue" stroke="midnightblue" points="1821.89,-183.757 1831.8,-180.019 1821.72,-176.759 1821.89,-183.757"/>
</g>
<!-- Node4 -->
<g id="node4" class="node"><title>Node4</title>
<g id="a_node4"><a xlink:href="../../d1/d2e/LMS7002M__parameters_8h.html" target="_top" xlink:title="List of LMS7002M transceiver control parameters. ">
<polygon fill="white" stroke="black" points="686,-56.5 686,-75.5 814,-75.5 814,-56.5 686,-56.5"/>
<text text-anchor="middle" x="750" y="-63.5" font-family="Helvetica,sans-Serif" font-size="10.00">LMS7002M_parameters.h</text>
</a>
</g>
</g>
<!-- Node3&#45;&gt;Node4 -->
<g id="edge3" class="edge"><title>Node3&#45;&gt;Node4</title>
<path fill="none" stroke="midnightblue" d="M599.577,-168.475C610.252,-155.079 632.529,-128.89 656,-112 674.759,-98.5012 698.201,-87.2698 716.981,-79.4039"/>
<polygon fill="midnightblue" stroke="midnightblue" points="718.383,-82.6122 726.328,-75.6031 715.747,-76.1278 718.383,-82.6122"/>
</g>
<!-- Node5 -->
<g id="node5" class="node"><title>Node5</title>
<polygon fill="white" stroke="#bfbfbf" points="633.5,-0.5 633.5,-19.5 682.5,-19.5 682.5,-0.5 633.5,-0.5"/>
<text text-anchor="middle" x="658" y="-7.5" font-family="Helvetica,sans-Serif" font-size="10.00">stdint.h</text>
</g>
<!-- Node4&#45;&gt;Node5 -->
<g id="edge4" class="edge"><title>Node4&#45;&gt;Node5</title>
<path fill="none" stroke="midnightblue" d="M735.219,-56.324C720.733,-47.8215 698.427,-34.7288 681.507,-24.7975"/>
<polygon fill="midnightblue" stroke="midnightblue" points="683.141,-21.6981 672.745,-19.6545 679.597,-27.735 683.141,-21.6981"/>
</g>
<!-- Node7 -->
<g id="node7" class="node"><title>Node7</title>
<polygon fill="white" stroke="#bfbfbf" points="2538.5,-112.5 2538.5,-131.5 2609.5,-131.5 2609.5,-112.5 2538.5,-112.5"/>
<text text-anchor="middle" x="2574" y="-119.5" font-family="Helvetica,sans-Serif" font-size="10.00">wx/artprov.h</text>
</g>
<!-- Node6&#45;&gt;Node7 -->
<g id="edge6" class="edge"><title>Node6&#45;&gt;Node7</title>
<path fill="none" stroke="midnightblue" d="M1924.38,-175.837C2029.86,-172.754 2295.91,-162.501 2528.22,-131.92"/>
<polygon fill="midnightblue" stroke="midnightblue" points="2528.76,-135.379 2538.21,-130.589 2527.83,-128.44 2528.76,-135.379"/>
</g>
<!-- Node8 -->
<g id="node8" class="node"><title>Node8</title>
<polygon fill="white" stroke="#bfbfbf" points="2628,-112.5 2628,-131.5 2714,-131.5 2714,-112.5 2628,-112.5"/>
<text text-anchor="middle" x="2671" y="-119.5" font-family="Helvetica,sans-Serif" font-size="10.00">wx/xrc/xmlres.h</text>
</g>
<!-- Node6&#45;&gt;Node8 -->
<g id="edge7" class="edge"><title>Node6&#45;&gt;Node8</title>
<path fill="none" stroke="midnightblue" d="M1924.05,-175.919C2040.58,-172.812 2356.51,-162.064 2618,-132 2618.1,-131.988 2618.2,-131.977 2618.3,-131.965"/>
<polygon fill="midnightblue" stroke="midnightblue" points="2618.49,-135.47 2627.96,-130.707 2617.59,-128.529 2618.49,-135.47"/>
</g>
<!-- Node9 -->
<g id="node9" class="node"><title>Node9</title>
<polygon fill="white" stroke="#bfbfbf" points="2732.5,-112.5 2732.5,-131.5 2797.5,-131.5 2797.5,-112.5 2732.5,-112.5"/>
<text text-anchor="middle" x="2765" y="-119.5" font-family="Helvetica,sans-Serif" font-size="10.00">wx/string.h</text>
</g>
<!-- Node6&#45;&gt;Node9 -->
<g id="edge8" class="edge"><title>Node6&#45;&gt;Node9</title>
<path fill="none" stroke="midnightblue" d="M1924.03,-177.094C2050.21,-176.809 2412.2,-172.361 2722,-131.901"/>
<polygon fill="midnightblue" stroke="midnightblue" points="2722.62,-135.35 2732.07,-130.57 2721.7,-128.41 2722.62,-135.35"/>
</g>
<!-- Node10 -->
<g id="node10" class="node"><title>Node10</title>
<polygon fill="white" stroke="#bfbfbf" points="2816,-112.5 2816,-131.5 2884,-131.5 2884,-112.5 2816,-112.5"/>
<text text-anchor="middle" x="2850" y="-119.5" font-family="Helvetica,sans-Serif" font-size="10.00">wx/button.h</text>
</g>
<!-- Node6&#45;&gt;Node10 -->
<g id="edge9" class="edge"><title>Node6&#45;&gt;Node10</title>
<path fill="none" stroke="midnightblue" d="M1924.08,-177.257C2059.78,-177.479 2469.52,-174.318 2806,-132 2806.1,-131.987 2806.2,-131.974 2806.3,-131.961"/>
<polygon fill="midnightblue" stroke="midnightblue" points="2806.61,-135.455 2815.98,-130.496 2805.56,-128.534 2806.61,-135.455"/>
</g>
<!-- Node11 -->
<g id="node11" class="node"><title>Node11</title>
<polygon fill="white" stroke="#bfbfbf" points="2902,-112.5 2902,-131.5 2974,-131.5 2974,-112.5 2902,-112.5"/>
<text text-anchor="middle" x="2938" y="-119.5" font-family="Helvetica,sans-Serif" font-size="10.00">wx/gdicmn.h</text>
</g>
<!-- Node6&#45;&gt;Node11 -->
<g id="edge10" class="edge"><title>Node6&#45;&gt;Node11</title>
<path fill="none" stroke="midnightblue" d="M1924.24,-177.461C2066.98,-178.352 2513.41,-177.156 2891.68,-131.963"/>
<polygon fill="midnightblue" stroke="midnightblue" points="2892.22,-135.423 2901.73,-130.75 2891.38,-128.474 2892.22,-135.423"/>
</g>
<!-- Node12 -->
<g id="node12" class="node"><title>Node12</title>
<polygon fill="white" stroke="#bfbfbf" points="2992.5,-112.5 2992.5,-131.5 3049.5,-131.5 3049.5,-112.5 2992.5,-112.5"/>
<text text-anchor="middle" x="3021" y="-119.5" font-family="Helvetica,sans-Serif" font-size="10.00">wx/font.h</text>
</g>
<!-- Node6&#45;&gt;Node12 -->
<g id="edge11" class="edge"><title>Node6&#45;&gt;Node12</title>
<path fill="none" stroke="midnightblue" d="M1924.06,-176.302C2103.15,-173.41 2753.96,-161.181 2982.56,-131.701"/>
<polygon fill="midnightblue" stroke="midnightblue" points="2983.03,-135.17 2992.48,-130.375 2982.1,-128.232 2983.03,-135.17"/>
</g>
<!-- Node13 -->
<g id="node13" class="node"><title>Node13</title>
<polygon fill="white" stroke="#bfbfbf" points="760.5,-112.5 760.5,-131.5 827.5,-131.5 827.5,-112.5 760.5,-112.5"/>
<text text-anchor="middle" x="794" y="-119.5" font-family="Helvetica,sans-Serif" font-size="10.00">wx/colour.h</text>
</g>
<!-- Node6&#45;&gt;Node13 -->
<g id="edge12" class="edge"><title>Node6&#45;&gt;Node13</title>
<path fill="none" stroke="midnightblue" d="M1831.92,-176.04C1659.66,-172.294 1052.89,-157.649 838.077,-132.03"/>
<polygon fill="midnightblue" stroke="midnightblue" points="838.196,-128.518 827.842,-130.762 837.336,-135.465 838.196,-128.518"/>
</g>
<!-- Node14 -->
<g id="node14" class="node"><title>Node14</title>
<polygon fill="white" stroke="#bfbfbf" points="845.5,-112.5 845.5,-131.5 920.5,-131.5 920.5,-112.5 845.5,-112.5"/>
<text text-anchor="middle" x="883" y="-119.5" font-family="Helvetica,sans-Serif" font-size="10.00">wx/settings.h</text>
</g>
<!-- Node6&#45;&gt;Node14 -->
<g id="edge13" class="edge"><title>Node6&#45;&gt;Node14</title>
<path fill="none" stroke="midnightblue" d="M1831.93,-177.121C1695.7,-176.989 1282.79,-173.065 930.771,-131.891"/>
<polygon fill="midnightblue" stroke="midnightblue" points="930.979,-128.392 920.637,-130.694 930.157,-135.343 930.979,-128.392"/>
</g>
<!-- Node15 -->
<g id="node15" class="node"><title>Node15</title>
<polygon fill="white" stroke="#bfbfbf" points="939,-112.5 939,-131.5 1025,-131.5 1025,-112.5 939,-112.5"/>
<text text-anchor="middle" x="982" y="-119.5" font-family="Helvetica,sans-Serif" font-size="10.00">wx/combobox.h</text>
</g>
<!-- Node6&#45;&gt;Node15 -->
<g id="edge14" class="edge"><title>Node6&#45;&gt;Node15</title>
<path fill="none" stroke="midnightblue" d="M1831.64,-176.448C1705.39,-174.537 1344.78,-166.348 1035.14,-131.987"/>
<polygon fill="midnightblue" stroke="midnightblue" points="1035.4,-128.494 1025.07,-130.858 1034.62,-135.451 1035.4,-128.494"/>
</g>
<!-- Node16 -->
<g id="node16" class="node"><title>Node16</title>
<polygon fill="white" stroke="#bfbfbf" points="1043.5,-112.5 1043.5,-131.5 1118.5,-131.5 1118.5,-112.5 1043.5,-112.5"/>
<text text-anchor="middle" x="1081" y="-119.5" font-family="Helvetica,sans-Serif" font-size="10.00">wx/radiobut.h</text>
</g>
<!-- Node6&#45;&gt;Node16 -->
<g id="edge15" class="edge"><title>Node6&#45;&gt;Node16</title>
<path fill="none" stroke="midnightblue" d="M1831.65,-176.369C1715.07,-174.324 1400.11,-165.956 1128.63,-132.047"/>
<polygon fill="midnightblue" stroke="midnightblue" points="1128.95,-128.559 1118.59,-130.778 1128.07,-135.504 1128.95,-128.559"/>
</g>
<!-- Node17 -->
<g id="node17" class="node"><title>Node17</title>
<polygon fill="white" stroke="#bfbfbf" points="1136.5,-112.5 1136.5,-131.5 1219.5,-131.5 1219.5,-112.5 1136.5,-112.5"/>
<text text-anchor="middle" x="1178" y="-119.5" font-family="Helvetica,sans-Serif" font-size="10.00">wx/checkbox.h</text>
</g>
<!-- Node6&#45;&gt;Node17 -->
<g id="edge16" class="edge"><title>Node6&#45;&gt;Node17</title>
<path fill="none" stroke="midnightblue" d="M1831.81,-175.471C1726.75,-171.633 1461.7,-159.92 1229.67,-131.943"/>
<polygon fill="midnightblue" stroke="midnightblue" points="1230.04,-128.462 1219.69,-130.727 1229.2,-135.411 1230.04,-128.462"/>
</g>
<!-- Node18 -->
<g id="node18" class="node"><title>Node18</title>
<polygon fill="white" stroke="#bfbfbf" points="1238,-112.5 1238,-131.5 1300,-131.5 1300,-112.5 1238,-112.5"/>
<text text-anchor="middle" x="1269" y="-119.5" font-family="Helvetica,sans-Serif" font-size="10.00">wx/sizer.h</text>
</g>
<!-- Node6&#45;&gt;Node18 -->
<g id="edge17" class="edge"><title>Node6&#45;&gt;Node18</title>
<path fill="none" stroke="midnightblue" d="M1831.65,-175.57C1735.94,-172.135 1509.46,-161.519 1310.42,-132.011"/>
<polygon fill="midnightblue" stroke="midnightblue" points="1310.77,-128.525 1300.36,-130.5 1309.73,-135.447 1310.77,-128.525"/>
</g>
<!-- Node19 -->
<g id="node19" class="node"><title>Node19</title>
<polygon fill="white" stroke="#bfbfbf" points="1318,-112.5 1318,-131.5 1392,-131.5 1392,-112.5 1318,-112.5"/>
<text text-anchor="middle" x="1355" y="-119.5" font-family="Helvetica,sans-Serif" font-size="10.00">wx/stattext.h</text>
</g>
<!-- Node6&#45;&gt;Node19 -->
<g id="edge18" class="edge"><title>Node6&#45;&gt;Node19</title>
<path fill="none" stroke="midnightblue" d="M1831.77,-174.168C1748.12,-168.712 1565.91,-155.307 1402.35,-132.06"/>
<polygon fill="midnightblue" stroke="midnightblue" points="1402.5,-128.546 1392.1,-130.587 1401.5,-135.474 1402.5,-128.546"/>
</g>
<!-- Node20 -->
<g id="node20" class="node"><title>Node20</title>
<polygon fill="white" stroke="#bfbfbf" points="1410,-112.5 1410,-131.5 1474,-131.5 1474,-112.5 1410,-112.5"/>
<text text-anchor="middle" x="1442" y="-119.5" font-family="Helvetica,sans-Serif" font-size="10.00">wx/panel.h</text>
</g>
<!-- Node6&#45;&gt;Node20 -->
<g id="edge19" class="edge"><title>Node6&#45;&gt;Node20</title>
<path fill="none" stroke="midnightblue" d="M1831.87,-173.292C1759.81,-167.162 1615.99,-153.571 1484.42,-132.084"/>
<polygon fill="midnightblue" stroke="midnightblue" points="1484.61,-128.566 1474.17,-130.388 1483.46,-135.473 1484.61,-128.566"/>
</g>
<!-- Node21 -->
<g id="node21" class="node"><title>Node21</title>
<polygon fill="white" stroke="#bfbfbf" points="1492,-112.5 1492,-131.5 1562,-131.5 1562,-112.5 1492,-112.5"/>
<text text-anchor="middle" x="1527" y="-119.5" font-family="Helvetica,sans-Serif" font-size="10.00">wx/bitmap.h</text>
</g>
<!-- Node6&#45;&gt;Node21 -->
<g id="edge20" class="edge"><title>Node6&#45;&gt;Node21</title>
<path fill="none" stroke="midnightblue" d="M1831.84,-171.057C1773.66,-163.384 1670.34,-149.157 1572.13,-132.116"/>
<polygon fill="midnightblue" stroke="midnightblue" points="1572.48,-128.625 1562.03,-130.35 1571.28,-135.52 1572.48,-128.625"/>
</g>
<!-- Node22 -->
<g id="node22" class="node"><title>Node22</title>
<polygon fill="white" stroke="#bfbfbf" points="1580.5,-112.5 1580.5,-131.5 1647.5,-131.5 1647.5,-112.5 1580.5,-112.5"/>
<text text-anchor="middle" x="1614" y="-119.5" font-family="Helvetica,sans-Serif" font-size="10.00">wx/image.h</text>
</g>
<!-- Node6&#45;&gt;Node22 -->
<g id="edge21" class="edge"><title>Node6&#45;&gt;Node22</title>
<path fill="none" stroke="midnightblue" d="M1835,-168.43C1792.35,-159.899 1724.87,-146.311 1657.81,-132.362"/>
<polygon fill="midnightblue" stroke="midnightblue" points="1658.42,-128.915 1647.92,-130.302 1657,-135.768 1658.42,-128.915"/>
</g>
<!-- Node23 -->
<g id="node23" class="node"><title>Node23</title>
<polygon fill="white" stroke="#bfbfbf" points="1665.5,-112.5 1665.5,-131.5 1724.5,-131.5 1724.5,-112.5 1665.5,-112.5"/>
<text text-anchor="middle" x="1695" y="-119.5" font-family="Helvetica,sans-Serif" font-size="10.00">wx/icon.h</text>
</g>
<!-- Node6&#45;&gt;Node23 -->
<g id="edge22" class="edge"><title>Node6&#45;&gt;Node23</title>
<path fill="none" stroke="midnightblue" d="M1849,-168.444C1817.82,-159.241 1768.07,-144.562 1733.59,-134.388"/>
<polygon fill="midnightblue" stroke="midnightblue" points="1734.44,-130.99 1723.86,-131.516 1732.46,-137.704 1734.44,-130.99"/>
</g>
<!-- Node24 -->
<g id="node24" class="node"><title>Node24</title>
<polygon fill="white" stroke="#bfbfbf" points="1743,-112.5 1743,-131.5 1823,-131.5 1823,-112.5 1743,-112.5"/>
<text text-anchor="middle" x="1783" y="-119.5" font-family="Helvetica,sans-Serif" font-size="10.00">wx/notebook.h</text>
</g>
<!-- Node6&#45;&gt;Node24 -->
<g id="edge23" class="edge"><title>Node6&#45;&gt;Node24</title>
<path fill="none" stroke="midnightblue" d="M1862.74,-168.324C1847.78,-159.822 1824.75,-146.729 1807.27,-136.797"/>
<polygon fill="midnightblue" stroke="midnightblue" points="1808.65,-133.553 1798.23,-131.655 1805.19,-139.639 1808.65,-133.553"/>
</g>
<!-- Node25 -->
<g id="node25" class="node"><title>Node25</title>
<polygon fill="white" stroke="#bfbfbf" points="1841.5,-112.5 1841.5,-131.5 1914.5,-131.5 1914.5,-112.5 1841.5,-112.5"/>
<text text-anchor="middle" x="1878" y="-119.5" font-family="Helvetica,sans-Serif" font-size="10.00">wx/statbox.h</text>
</g>
<!-- Node6&#45;&gt;Node25 -->
<g id="edge24" class="edge"><title>Node6&#45;&gt;Node25</title>
<path fill="none" stroke="midnightblue" d="M1878,-168.083C1878,-161.006 1878,-150.861 1878,-141.986"/>
<polygon fill="midnightblue" stroke="midnightblue" points="1881.5,-141.751 1878,-131.751 1874.5,-141.751 1881.5,-141.751"/>
</g>
<!-- Node26 -->
<g id="node26" class="node"><title>Node26</title>
<polygon fill="white" stroke="#bfbfbf" points="1933,-112.5 1933,-131.5 2005,-131.5 2005,-112.5 1933,-112.5"/>
<text text-anchor="middle" x="1969" y="-119.5" font-family="Helvetica,sans-Serif" font-size="10.00">wx/spinctrl.h</text>
</g>
<!-- Node6&#45;&gt;Node26 -->
<g id="edge25" class="edge"><title>Node6&#45;&gt;Node26</title>
<path fill="none" stroke="midnightblue" d="M1892.62,-168.324C1906.95,-159.822 1929.01,-146.729 1945.75,-136.797"/>
<polygon fill="midnightblue" stroke="midnightblue" points="1947.6,-139.768 1954.42,-131.655 1944.03,-133.748 1947.6,-139.768"/>
</g>
<!-- Node27 -->
<g id="node27" class="node"><title>Node27</title>
<polygon fill="white" stroke="#bfbfbf" points="2023.5,-112.5 2023.5,-131.5 2100.5,-131.5 2100.5,-112.5 2023.5,-112.5"/>
<text text-anchor="middle" x="2062" y="-119.5" font-family="Helvetica,sans-Serif" font-size="10.00">wx/radiobox.h</text>
</g>
<!-- Node6&#45;&gt;Node27 -->
<g id="edge26" class="edge"><title>Node6&#45;&gt;Node27</title>
<path fill="none" stroke="midnightblue" d="M1907.16,-168.444C1938.51,-159.241 1988.53,-144.562 2023.2,-134.388"/>
<polygon fill="midnightblue" stroke="midnightblue" points="2024.37,-137.691 2032.98,-131.516 2022.4,-130.974 2024.37,-137.691"/>
</g>
<!-- Node28 -->
<g id="node28" class="node"><title>Node28</title>
<polygon fill="white" stroke="#bfbfbf" points="2118.5,-112.5 2118.5,-131.5 2189.5,-131.5 2189.5,-112.5 2118.5,-112.5"/>
<text text-anchor="middle" x="2154" y="-119.5" font-family="Helvetica,sans-Serif" font-size="10.00">wx/textctrl.h</text>
</g>
<!-- Node6&#45;&gt;Node28 -->
<g id="edge27" class="edge"><title>Node6&#45;&gt;Node28</title>
<path fill="none" stroke="midnightblue" d="M1922.3,-168.439C1966.72,-159.839 2037.36,-146.12 2108.15,-132.159"/>
<polygon fill="midnightblue" stroke="midnightblue" points="2109.01,-135.558 2118.14,-130.188 2107.65,-128.691 2109.01,-135.558"/>
</g>
<!-- Node29 -->
<g id="node29" class="node"><title>Node29</title>
<polygon fill="white" stroke="#bfbfbf" points="2207.5,-112.5 2207.5,-131.5 2276.5,-131.5 2276.5,-112.5 2207.5,-112.5"/>
<text text-anchor="middle" x="2242" y="-119.5" font-family="Helvetica,sans-Serif" font-size="10.00">wx/choice.h</text>
</g>
<!-- Node6&#45;&gt;Node29 -->
<g id="edge28" class="edge"><title>Node6&#45;&gt;Node29</title>
<path fill="none" stroke="midnightblue" d="M1924.24,-171.412C1984.64,-163.912 2093.87,-149.656 2197.45,-131.997"/>
<polygon fill="midnightblue" stroke="midnightblue" points="2198.19,-135.421 2207.45,-130.278 2197,-128.522 2198.19,-135.421"/>
</g>
<!-- Node30 -->
<g id="node30" class="node"><title>Node30</title>
<polygon fill="white" stroke="#bfbfbf" points="2294.5,-112.5 2294.5,-131.5 2361.5,-131.5 2361.5,-112.5 2294.5,-112.5"/>
<text text-anchor="middle" x="2328" y="-119.5" font-family="Helvetica,sans-Serif" font-size="10.00">wx/gauge.h</text>
</g>
<!-- Node6&#45;&gt;Node30 -->
<g id="edge29" class="edge"><title>Node6&#45;&gt;Node30</title>
<path fill="none" stroke="midnightblue" d="M1924.28,-173.343C1998.15,-167.187 2147.43,-153.443 2284.03,-132.007"/>
<polygon fill="midnightblue" stroke="midnightblue" points="2284.93,-135.407 2294.26,-130.383 2283.83,-128.494 2284.93,-135.407"/>
</g>
<!-- Node31 -->
<g id="node31" class="node"><title>Node31</title>
<polygon fill="white" stroke="#bfbfbf" points="2380,-112.5 2380,-131.5 2436,-131.5 2436,-112.5 2380,-112.5"/>
<text text-anchor="middle" x="2408" y="-119.5" font-family="Helvetica,sans-Serif" font-size="10.00">wx/grid.h</text>
</g>
<!-- Node6&#45;&gt;Node31 -->
<g id="edge30" class="edge"><title>Node6&#45;&gt;Node31</title>
<path fill="none" stroke="midnightblue" d="M1924.06,-174.963C2011.48,-170.616 2207.26,-158.578 2370,-132 2370.1,-131.984 2370.2,-131.967 2370.3,-131.95"/>
<polygon fill="midnightblue" stroke="midnightblue" points="2370.7,-135.438 2379.87,-130.131 2369.39,-128.561 2370.7,-135.438"/>
</g>
<!-- Node32 -->
<g id="node32" class="node"><title>Node32</title>
<polygon fill="white" stroke="#bfbfbf" points="2454,-112.5 2454,-131.5 2520,-131.5 2520,-112.5 2454,-112.5"/>
<text text-anchor="middle" x="2487" y="-119.5" font-family="Helvetica,sans-Serif" font-size="10.00">wx/dialog.h</text>
</g>
<!-- Node6&#45;&gt;Node32 -->
<g id="edge31" class="edge"><title>Node6&#45;&gt;Node32</title>
<path fill="none" stroke="midnightblue" d="M1924.16,-175.4C2019.49,-171.651 2245.1,-160.48 2443.57,-132.028"/>
<polygon fill="midnightblue" stroke="midnightblue" points="2444.21,-135.473 2453.6,-130.572 2443.2,-128.545 2444.21,-135.473"/>
</g>
<!-- Node36&#45;&gt;Node3 -->
<g id="edge44" class="edge"><title>Node36&#45;&gt;Node3</title>
<path fill="none" stroke="midnightblue" d="M597.174,-224.083C596.519,-217.006 595.58,-206.861 594.758,-197.986"/>
<polygon fill="midnightblue" stroke="midnightblue" points="598.217,-197.386 593.81,-187.751 591.247,-198.031 598.217,-197.386"/>
</g>
<!-- Node37 -->
<g id="node37" class="node"><title>Node37</title>
<g id="a_node37"><a xlink:href="../../d1/d7e/LMS7002M_8h.html" target="_top" xlink:title="LMS7002M transceiver configuration interface. ">
<polygon fill="white" stroke="black" points="3068,-112.5 3068,-131.5 3142,-131.5 3142,-112.5 3068,-112.5"/>
<text text-anchor="middle" x="3105" y="-119.5" font-family="Helvetica,sans-Serif" font-size="10.00">LMS7002M.h</text>
</a>
</g>
</g>
<!-- Node36&#45;&gt;Node37 -->
<g id="edge36" class="edge"><title>Node36&#45;&gt;Node37</title>
<path fill="none" stroke="midnightblue" d="M638.229,-228.209C652.927,-226.625 669.697,-225.011 685,-224 1238.69,-187.426 1378.53,-209.783 1933,-188 2430.38,-168.46 2559.92,-192.386 3057.95,-131.944"/>
<polygon fill="midnightblue" stroke="midnightblue" points="3058.41,-135.414 3067.92,-130.73 3057.57,-128.466 3058.41,-135.414"/>
</g>
<!-- Node43 -->
<g id="node43" class="node"><title>Node43</title>
<g id="a_node43"><a xlink:href="../../d2/dbf/Streamer_8h.html" target="_top" xlink:title="Streamer.h">
<polygon fill="white" stroke="black" points="465.5,-168.5 465.5,-187.5 530.5,-187.5 530.5,-168.5 465.5,-168.5"/>
<text text-anchor="middle" x="498" y="-175.5" font-family="Helvetica,sans-Serif" font-size="10.00">Streamer.h</text>
</a>
</g>
</g>
<!-- Node36&#45;&gt;Node43 -->
<g id="edge45" class="edge"><title>Node36&#45;&gt;Node43</title>
<path fill="none" stroke="midnightblue" d="M581.933,-224.324C566.042,-215.743 541.493,-202.486 523.042,-192.522"/>
<polygon fill="midnightblue" stroke="midnightblue" points="524.489,-189.326 514.027,-187.655 521.163,-195.486 524.489,-189.326"/>
</g>
<!-- Node54 -->
<g id="node54" class="node"><title>Node54</title>
<g id="a_node54"><a xlink:href="../../d3/d1e/IConnection_8h.html" target="_top" xlink:title="Interface class for connection types. ">
<polygon fill="white" stroke="black" points="665.5,-112.5 665.5,-131.5 742.5,-131.5 742.5,-112.5 665.5,-112.5"/>
<text text-anchor="middle" x="704" y="-119.5" font-family="Helvetica,sans-Serif" font-size="10.00">IConnection.h</text>
</a>
</g>
</g>
<!-- Node36&#45;&gt;Node54 -->
<g id="edge60" class="edge"><title>Node36&#45;&gt;Node54</title>
<path fill="none" stroke="midnightblue" d="M607.803,-224.28C617.677,-215.389 633.237,-201.081 646,-188 661.595,-172.016 678.496,-152.847 690.008,-139.484"/>
<polygon fill="midnightblue" stroke="midnightblue" points="692.884,-141.506 696.726,-131.633 687.565,-136.955 692.884,-141.506"/>
</g>
<!-- Node37&#45;&gt;Node4 -->
<g id="edge38" class="edge"><title>Node37&#45;&gt;Node4</title>
<path fill="none" stroke="midnightblue" d="M3067.93,-113.163C3064.92,-112.705 3061.91,-112.306 3059,-112 2573.17,-60.9006 1348.93,-99.752 861,-76 849.157,-75.4235 836.618,-74.6067 824.396,-73.6978"/>
<polygon fill="midnightblue" stroke="midnightblue" points="824.465,-70.1929 814.226,-72.9159 823.928,-77.1723 824.465,-70.1929"/>
</g>
<!-- Node37&#45;&gt;Node34 -->
<g id="edge43" class="edge"><title>Node37&#45;&gt;Node34</title>
<path fill="none" stroke="midnightblue" d="M3067.93,-113.159C3064.92,-112.701 3061.91,-112.305 3059,-112 2532.48,-56.957 1205.01,-114.299 677,-76 665.007,-75.1301 651.91,-73.5762 640.38,-72.0017"/>
<polygon fill="midnightblue" stroke="midnightblue" points="640.701,-68.5122 630.308,-70.5688 639.715,-75.4424 640.701,-68.5122"/>
</g>
<!-- Node38 -->
<g id="node38" class="node"><title>Node38</title>
<g id="a_node38"><a xlink:href="../../dd/d40/LimeSuiteConfig_8h.html" target="_top" xlink:title="Configuration constants and macros for lime suite library. ">
<polygon fill="white" stroke="black" points="1019.5,-0.5 1019.5,-19.5 1116.5,-19.5 1116.5,-0.5 1019.5,-0.5"/>
<text text-anchor="middle" x="1068" y="-7.5" font-family="Helvetica,sans-Serif" font-size="10.00">LimeSuiteConfig.h</text>
</a>
</g>
</g>
<!-- Node37&#45;&gt;Node38 -->
<g id="edge37" class="edge"><title>Node37&#45;&gt;Node38</title>
<path fill="none" stroke="midnightblue" d="M3115.66,-112.467C3131.2,-99.0604 3156.49,-72.8556 3140,-56 3103.85,-19.0514 1461.89,-12.1746 1127.19,-11.1559"/>
<polygon fill="midnightblue" stroke="midnightblue" points="1126.76,-7.65467 1116.75,-11.1247 1126.74,-14.6546 1126.76,-7.65467"/>
</g>
<!-- Node39 -->
<g id="node39" class="node"><title>Node39</title>
<polygon fill="white" stroke="#bfbfbf" points="3015,-56.5 3015,-75.5 3061,-75.5 3061,-56.5 3015,-56.5"/>
<text text-anchor="middle" x="3038" y="-63.5" font-family="Helvetica,sans-Serif" font-size="10.00">cstdint</text>
</g>
<!-- Node37&#45;&gt;Node39 -->
<g id="edge39" class="edge"><title>Node37&#45;&gt;Node39</title>
<path fill="none" stroke="midnightblue" d="M3094.24,-112.324C3084.23,-104.263 3069.11,-92.0765 3057.07,-82.3695"/>
<polygon fill="midnightblue" stroke="midnightblue" points="3058.94,-79.3841 3048.96,-75.8339 3054.55,-84.8343 3058.94,-79.3841"/>
</g>
<!-- Node40 -->
<g id="node40" class="node"><title>Node40</title>
<polygon fill="white" stroke="#bfbfbf" points="3079,-56.5 3079,-75.5 3131,-75.5 3131,-56.5 3079,-56.5"/>
<text text-anchor="middle" x="3105" y="-63.5" font-family="Helvetica,sans-Serif" font-size="10.00">sstream</text>
</g>
<!-- Node37&#45;&gt;Node40 -->
<g id="edge40" class="edge"><title>Node37&#45;&gt;Node40</title>
<path fill="none" stroke="midnightblue" d="M3105,-112.083C3105,-105.006 3105,-94.8611 3105,-85.9865"/>
<polygon fill="midnightblue" stroke="midnightblue" points="3108.5,-85.751 3105,-75.7511 3101.5,-85.7511 3108.5,-85.751"/>
</g>
<!-- Node41 -->
<g id="node41" class="node"><title>Node41</title>
<polygon fill="white" stroke="#bfbfbf" points="2945,-56.5 2945,-75.5 2997,-75.5 2997,-56.5 2945,-56.5"/>
<text text-anchor="middle" x="2971" y="-63.5" font-family="Helvetica,sans-Serif" font-size="10.00">stdarg.h</text>
</g>
<!-- Node37&#45;&gt;Node41 -->
<g id="edge41" class="edge"><title>Node37&#45;&gt;Node41</title>
<path fill="none" stroke="midnightblue" d="M3083.77,-112.444C3061.62,-103.517 3026.68,-89.4387 3001.56,-79.3168"/>
<polygon fill="midnightblue" stroke="midnightblue" points="3002.72,-76.0079 2992.13,-75.5164 3000.1,-82.5006 3002.72,-76.0079"/>
</g>
<!-- Node42 -->
<g id="node42" class="node"><title>Node42</title>
<polygon fill="white" stroke="#bfbfbf" points="1982.5,-56.5 1982.5,-75.5 2041.5,-75.5 2041.5,-56.5 1982.5,-56.5"/>
<text text-anchor="middle" x="2012" y="-63.5" font-family="Helvetica,sans-Serif" font-size="10.00">functional</text>
</g>
<!-- Node37&#45;&gt;Node42 -->
<g id="edge42" class="edge"><title>Node37&#45;&gt;Node42</title>
<path fill="none" stroke="midnightblue" d="M3067.92,-113.249C3064.91,-112.771 3061.91,-112.345 3059,-112 2668.53,-65.6772 2191.14,-65.4958 2051.88,-66.5634"/>
<polygon fill="midnightblue" stroke="midnightblue" points="2051.66,-63.065 2041.69,-66.6486 2051.72,-70.0648 2051.66,-63.065"/>
</g>
<!-- Node43&#45;&gt;Node34 -->
<g id="edge59" class="edge"><title>Node43&#45;&gt;Node34</title>
<path fill="none" stroke="midnightblue" d="M506.632,-168.368C525.106,-149.894 568.707,-106.293 592.256,-82.7436"/>
<polygon fill="midnightblue" stroke="midnightblue" points="594.812,-85.1374 599.409,-75.5914 589.863,-80.1876 594.812,-85.1374"/>
</g>
<!-- Node44 -->
<g id="node44" class="node"><title>Node44</title>
<g id="a_node44"><a xlink:href="../../d4/dbd/dataTypes_8h.html" target="_top" xlink:title="dataTypes.h">
<polygon fill="white" stroke="black" points="496.5,-56.5 496.5,-75.5 567.5,-75.5 567.5,-56.5 496.5,-56.5"/>
<text text-anchor="middle" x="532" y="-63.5" font-family="Helvetica,sans-Serif" font-size="10.00">dataTypes.h</text>
</a>
</g>
</g>
<!-- Node43&#45;&gt;Node44 -->
<g id="edge46" class="edge"><title>Node43&#45;&gt;Node44</title>
<path fill="none" stroke="midnightblue" d="M500.668,-168.368C506.18,-150.537 518.927,-109.295 526.352,-85.2717"/>
<polygon fill="midnightblue" stroke="midnightblue" points="529.735,-86.179 529.344,-75.5914 523.047,-84.1119 529.735,-86.179"/>
</g>
<!-- Node46 -->
<g id="node46" class="node"><title>Node46</title>
<g id="a_node46"><a xlink:href="../../d0/dd8/fifo_8h.html" target="_top" xlink:title="fifo.h">
<polygon fill="white" stroke="black" points="336,-112.5 336,-131.5 374,-131.5 374,-112.5 336,-112.5"/>
<text text-anchor="middle" x="355" y="-119.5" font-family="Helvetica,sans-Serif" font-size="10.00">fifo.h</text>
</a>
</g>
</g>
<!-- Node43&#45;&gt;Node46 -->
<g id="edge49" class="edge"><title>Node43&#45;&gt;Node46</title>
<path fill="none" stroke="midnightblue" d="M475.341,-168.444C450.62,-159.108 410.979,-144.139 384.003,-133.952"/>
<polygon fill="midnightblue" stroke="midnightblue" points="384.934,-130.563 374.343,-130.304 382.461,-137.111 384.934,-130.563"/>
</g>
<!-- Node44&#45;&gt;Node5 -->
<g id="edge48" class="edge"><title>Node44&#45;&gt;Node5</title>
<path fill="none" stroke="midnightblue" d="M551.965,-56.4435C572.609,-47.5961 605.063,-33.6875 628.632,-23.5865"/>
<polygon fill="midnightblue" stroke="midnightblue" points="630.316,-26.6727 638.128,-19.5164 627.558,-20.2387 630.316,-26.6727"/>
</g>
<!-- Node45 -->
<g id="node45" class="node"><title>Node45</title>
<polygon fill="white" stroke="#bfbfbf" points="507.5,-0.5 507.5,-19.5 556.5,-19.5 556.5,-0.5 507.5,-0.5"/>
<text text-anchor="middle" x="532" y="-7.5" font-family="Helvetica,sans-Serif" font-size="10.00">string.h</text>
</g>
<!-- Node44&#45;&gt;Node45 -->
<g id="edge47" class="edge"><title>Node44&#45;&gt;Node45</title>
<path fill="none" stroke="midnightblue" d="M532,-56.083C532,-49.0059 532,-38.8611 532,-29.9865"/>
<polygon fill="midnightblue" stroke="midnightblue" points="535.5,-29.751 532,-19.7511 528.5,-29.7511 535.5,-29.751"/>
</g>
<!-- Node46&#45;&gt;Node34 -->
<g id="edge53" class="edge"><title>Node46&#45;&gt;Node34</title>
<path fill="none" stroke="midnightblue" d="M374.024,-117.613C410.908,-110.942 494.885,-95.2556 575.823,-75.8843"/>
<polygon fill="midnightblue" stroke="midnightblue" points="576.777,-79.2547 585.675,-73.504 575.133,-72.4504 576.777,-79.2547"/>
</g>
<!-- Node46&#45;&gt;Node44 -->
<g id="edge56" class="edge"><title>Node46&#45;&gt;Node44</title>
<path fill="none" stroke="midnightblue" d="M374.279,-115.118C402.944,-106.373 457.366,-89.7697 494.165,-78.5429"/>
<polygon fill="midnightblue" stroke="midnightblue" points="495.497,-81.7957 504.041,-75.5299 493.455,-75.1004 495.497,-81.7957"/>
</g>
<!-- Node47 -->
<g id="node47" class="node"><title>Node47</title>
<polygon fill="white" stroke="#bfbfbf" points="0,-56.5 0,-75.5 44,-75.5 44,-56.5 0,-56.5"/>
<text text-anchor="middle" x="22" y="-63.5" font-family="Helvetica,sans-Serif" font-size="10.00">mutex</text>
</g>
<!-- Node46&#45;&gt;Node47 -->
<g id="edge50" class="edge"><title>Node46&#45;&gt;Node47</title>
<path fill="none" stroke="midnightblue" d="M335.757,-119.043C289.099,-114.107 166.136,-99.9587 54.3477,-76.0432"/>
<polygon fill="midnightblue" stroke="midnightblue" points="54.7741,-72.5543 44.259,-73.8511 53.2878,-79.3947 54.7741,-72.5543"/>
</g>
<!-- Node48 -->
<g id="node48" class="node"><title>Node48</title>
<polygon fill="white" stroke="#bfbfbf" points="62.5,-56.5 62.5,-75.5 157.5,-75.5 157.5,-56.5 62.5,-56.5"/>
<text text-anchor="middle" x="110" y="-63.5" font-family="Helvetica,sans-Serif" font-size="10.00">condition_variable</text>
</g>
<!-- Node46&#45;&gt;Node48 -->
<g id="edge51" class="edge"><title>Node46&#45;&gt;Node48</title>
<path fill="none" stroke="midnightblue" d="M335.775,-116.763C298.048,-108.447 213.273,-89.7622 159.013,-77.8028"/>
<polygon fill="midnightblue" stroke="midnightblue" points="159.441,-74.3134 148.922,-75.5788 157.935,-81.1493 159.441,-74.3134"/>
</g>
<!-- Node49 -->
<g id="node49" class="node"><title>Node49</title>
<polygon fill="white" stroke="#bfbfbf" points="176,-56.5 176,-75.5 222,-75.5 222,-56.5 176,-56.5"/>
<text text-anchor="middle" x="199" y="-63.5" font-family="Helvetica,sans-Serif" font-size="10.00">atomic</text>
</g>
<!-- Node46&#45;&gt;Node49 -->
<g id="edge52" class="edge"><title>Node46&#45;&gt;Node49</title>
<path fill="none" stroke="midnightblue" d="M335.871,-114.379C309.956,-105.408 263.311,-89.2616 231.76,-78.34"/>
<polygon fill="midnightblue" stroke="midnightblue" points="232.687,-74.957 222.092,-74.9933 230.397,-81.5719 232.687,-74.957"/>
</g>
<!-- Node50 -->
<g id="node50" class="node"><title>Node50</title>
<polygon fill="white" stroke="#bfbfbf" points="240,-56.5 240,-75.5 284,-75.5 284,-56.5 240,-56.5"/>
<text text-anchor="middle" x="262" y="-63.5" font-family="Helvetica,sans-Serif" font-size="10.00">thread</text>
</g>
<!-- Node46&#45;&gt;Node50 -->
<g id="edge54" class="edge"><title>Node46&#45;&gt;Node50</title>
<path fill="none" stroke="midnightblue" d="M340.058,-112.324C325.415,-103.822 302.866,-90.7288 285.762,-80.7975"/>
<polygon fill="midnightblue" stroke="midnightblue" points="287.31,-77.6491 276.905,-75.6545 283.795,-83.7027 287.31,-77.6491"/>
</g>
<!-- Node51 -->
<g id="node51" class="node"><title>Node51</title>
<polygon fill="white" stroke="#bfbfbf" points="302.5,-56.5 302.5,-75.5 345.5,-75.5 345.5,-56.5 302.5,-56.5"/>
<text text-anchor="middle" x="324" y="-63.5" font-family="Helvetica,sans-Serif" font-size="10.00">queue</text>
</g>
<!-- Node46&#45;&gt;Node51 -->
<g id="edge55" class="edge"><title>Node46&#45;&gt;Node51</title>
<path fill="none" stroke="midnightblue" d="M349.881,-112.083C345.592,-104.613 339.342,-93.7244 334.058,-84.5199"/>
<polygon fill="midnightblue" stroke="midnightblue" points="337.038,-82.6811 329.024,-75.7511 330.967,-86.1662 337.038,-82.6811"/>
</g>
<!-- Node52 -->
<g id="node52" class="node"><title>Node52</title>
<polygon fill="white" stroke="#bfbfbf" points="364,-56.5 364,-75.5 408,-75.5 408,-56.5 364,-56.5"/>
<text text-anchor="middle" x="386" y="-63.5" font-family="Helvetica,sans-Serif" font-size="10.00">cmath</text>
</g>
<!-- Node46&#45;&gt;Node52 -->
<g id="edge57" class="edge"><title>Node46&#45;&gt;Node52</title>
<path fill="none" stroke="midnightblue" d="M360.119,-112.083C364.408,-104.613 370.658,-93.7244 375.942,-84.5199"/>
<polygon fill="midnightblue" stroke="midnightblue" points="379.033,-86.1662 380.976,-75.7511 372.962,-82.6811 379.033,-86.1662"/>
</g>
<!-- Node53 -->
<g id="node53" class="node"><title>Node53</title>
<polygon fill="white" stroke="#bfbfbf" points="426,-56.5 426,-75.5 478,-75.5 478,-56.5 426,-56.5"/>
<text text-anchor="middle" x="452" y="-63.5" font-family="Helvetica,sans-Serif" font-size="10.00">assert.h</text>
</g>
<!-- Node46&#45;&gt;Node53 -->
<g id="edge58" class="edge"><title>Node46&#45;&gt;Node53</title>
<path fill="none" stroke="midnightblue" d="M370.585,-112.324C385.999,-103.743 409.812,-90.486 427.71,-80.5224"/>
<polygon fill="midnightblue" stroke="midnightblue" points="429.419,-83.5767 436.454,-75.6545 426.014,-77.4606 429.419,-83.5767"/>
</g>
<!-- Node54&#45;&gt;Node5 -->
<g id="edge69" class="edge"><title>Node54&#45;&gt;Node5</title>
<path fill="none" stroke="midnightblue" d="M697.922,-112.396C691.929,-103.595 682.843,-89.3552 677,-76 670.373,-60.8529 665.294,-42.7333 662.061,-29.4774"/>
<polygon fill="midnightblue" stroke="midnightblue" points="665.453,-28.6107 659.787,-19.6585 658.634,-30.1904 665.453,-28.6107"/>
</g>
<!-- Node54&#45;&gt;Node34 -->
<g id="edge66" class="edge"><title>Node54&#45;&gt;Node34</title>
<path fill="none" stroke="midnightblue" d="M688.576,-112.324C673.46,-103.822 650.185,-90.7288 632.529,-80.7975"/>
<polygon fill="midnightblue" stroke="midnightblue" points="633.817,-77.5066 623.386,-75.6545 630.386,-83.6077 633.817,-77.5066"/>
</g>
<!-- Node54&#45;&gt;Node38 -->
<g id="edge61" class="edge"><title>Node54&#45;&gt;Node38</title>
<path fill="none" stroke="midnightblue" d="M742.692,-113.373C745.5,-112.887 748.291,-112.423 751,-112 816.687,-101.742 997,-118.649 1048,-76 1061.42,-64.7737 1066.01,-44.7579 1067.49,-29.8937"/>
<polygon fill="midnightblue" stroke="midnightblue" points="1070.99,-29.9577 1068.11,-19.762 1064,-29.5288 1070.99,-29.9577"/>
</g>
<!-- Node54&#45;&gt;Node42 -->
<g id="edge68" class="edge"><title>Node54&#45;&gt;Node42</title>
<path fill="none" stroke="midnightblue" d="M742.657,-113.11C745.473,-112.685 748.276,-112.308 751,-112 996.031,-84.3333 1785.31,-70.526 1972.1,-67.5983"/>
<polygon fill="midnightblue" stroke="midnightblue" points="1972.35,-71.0951 1982.29,-67.4401 1972.24,-64.0959 1972.35,-71.0951"/>
</g>
<!-- Node55 -->
<g id="node55" class="node"><title>Node55</title>
<g id="a_node55"><a xlink:href="../../d1/d5d/ConnectionHandle_8h.html" target="_top" xlink:title="Represent a connection to a device. ">
<polygon fill="white" stroke="black" points="934.5,-56.5 934.5,-75.5 1039.5,-75.5 1039.5,-56.5 934.5,-56.5"/>
<text text-anchor="middle" x="987" y="-63.5" font-family="Helvetica,sans-Serif" font-size="10.00">ConnectionHandle.h</text>
</a>
</g>
</g>
<!-- Node54&#45;&gt;Node55 -->
<g id="edge62" class="edge"><title>Node54&#45;&gt;Node55</title>
<path fill="none" stroke="midnightblue" d="M742.728,-113.581C745.527,-113.046 748.307,-112.515 751,-112 813.154,-100.123 884.522,-86.5197 932.356,-77.4068"/>
<polygon fill="midnightblue" stroke="midnightblue" points="933.026,-80.8423 942.194,-75.5327 931.716,-73.9659 933.026,-80.8423"/>
</g>
<!-- Node56 -->
<g id="node56" class="node"><title>Node56</title>
<polygon fill="white" stroke="#bfbfbf" points="890.5,-0.5 890.5,-19.5 931.5,-19.5 931.5,-0.5 890.5,-0.5"/>
<text text-anchor="middle" x="911" y="-7.5" font-family="Helvetica,sans-Serif" font-size="10.00">string</text>
</g>
<!-- Node54&#45;&gt;Node56 -->
<g id="edge65" class="edge"><title>Node54&#45;&gt;Node56</title>
<path fill="none" stroke="midnightblue" d="M733.347,-112.396C758.051,-104.576 793.906,-91.8508 823,-76 849.134,-61.7618 876.243,-40.6027 893.343,-26.3286"/>
<polygon fill="midnightblue" stroke="midnightblue" points="895.954,-28.7034 901.315,-19.5649 891.426,-23.3657 895.954,-28.7034"/>
</g>
<!-- Node57 -->
<g id="node57" class="node"><title>Node57</title>
<polygon fill="white" stroke="#bfbfbf" points="870,-56.5 870,-75.5 916,-75.5 916,-56.5 870,-56.5"/>
<text text-anchor="middle" x="893" y="-63.5" font-family="Helvetica,sans-Serif" font-size="10.00">cstring</text>
</g>
<!-- Node54&#45;&gt;Node57 -->
<g id="edge67" class="edge"><title>Node54&#45;&gt;Node57</title>
<path fill="none" stroke="midnightblue" d="M733.948,-112.444C768.242,-102.645 824.263,-86.6391 859.847,-76.4723"/>
<polygon fill="midnightblue" stroke="midnightblue" points="861.093,-79.7565 869.746,-73.6439 859.17,-73.0258 861.093,-79.7565"/>
</g>
<!-- Node55&#45;&gt;Node38 -->
<g id="edge63" class="edge"><title>Node55&#45;&gt;Node38</title>
<path fill="none" stroke="midnightblue" d="M1000.01,-56.324C1012.53,-47.979 1031.68,-35.2122 1046.47,-25.3524"/>
<polygon fill="midnightblue" stroke="midnightblue" points="1048.64,-28.1137 1055.02,-19.6545 1044.76,-22.2894 1048.64,-28.1137"/>
</g>
<!-- Node55&#45;&gt;Node56 -->
<g id="edge64" class="edge"><title>Node55&#45;&gt;Node56</title>
<path fill="none" stroke="midnightblue" d="M974.789,-56.324C963.224,-48.1066 945.625,-35.6017 931.839,-25.8069"/>
<polygon fill="midnightblue" stroke="midnightblue" points="933.612,-22.7729 923.433,-19.8339 929.557,-28.4791 933.612,-22.7729"/>
</g>
</g>
</svg>
        <g id="navigator" transform="translate(0 0)" fill="#404254">
                <rect fill="#f2f5e9" fill-opacity="0.5" stroke="#606060" stroke-width=".5" x="0" y="0" width="60" height="60"/>
                <use id="zoomplus" xlink:href="#zoomPlus" x="17" y="9" onmousedown="handleZoom(evt,'in')"/>
                <use id="zoomminus" xlink:href="#zoomMin" x="42" y="9" onmousedown="handleZoom(evt,'out')"/>
                <use id="reset" xlink:href="#resetDef" x="30" y="36" onmousedown="handleReset()"/>
                <g id="arrowUp" xlink:href="#dirArrow" transform="translate(30 24)" onmousedown="handlePan(0,-1)">
                  <use xlink:href="#rim" fill="#404040">
                        <set attributeName="fill" to="#808080" begin="arrowUp.mouseover" end="arrowUp.mouseout"/>
                  </use>
                  <path fill="none" stroke="white" stroke-width="1.5" d="M0,-3.0v7 M-2.5,-0.5L0,-3.0L2.5,-0.5"/>
                </g>
                <g id="arrowRight" xlink:href="#dirArrow" transform="rotate(90) translate(36 -43)" onmousedown="handlePan(1,0)">
                  <use xlink:href="#rim" fill="#404040">
                        <set attributeName="fill" to="#808080" begin="arrowRight.mouseover" end="arrowRight.mouseout"/>
                  </use>
                  <path fill="none" stroke="white" stroke-width="1.5" d="M0,-3.0v7 M-2.5,-0.5L0,-3.0L2.5,-0.5"/>
                </g>
                <g id="arrowDown" xlink:href="#dirArrow" transform="rotate(180) translate(-30 -48)" onmousedown="handlePan(0,1)">
                  <use xlink:href="#rim" fill="#404040">
                        <set attributeName="fill" to="#808080" begin="arrowDown.mouseover" end="arrowDown.mouseout"/>
                  </use>
                  <path fill="none" stroke="white" stroke-width="1.5" d="M0,-3.0v7 M-2.5,-0.5L0,-3.0L2.5,-0.5"/>
                </g>
                <g id="arrowLeft" xlink:href="#dirArrow" transform="rotate(270) translate(-36 17)" onmousedown="handlePan(-1,0)">
                  <use xlink:href="#rim" fill="#404040">
                        <set attributeName="fill" to="#808080" begin="arrowLeft.mouseover" end="arrowLeft.mouseout"/>
                  </use>
                  <path fill="none" stroke="white" stroke-width="1.5" d="M0,-3.0v7 M-2.5,-0.5L0,-3.0L2.5,-0.5"/>
                </g>
        </g>
        <svg viewBox="0 0 15 15" width="100%" height="30px" preserveAspectRatio="xMaxYMin meet">
         <g id="arrow_out" transform="scale(0.3 0.3)">
          <a xlink:href="lms7002__dlgVCOfrequencies_8cpp__incl_org.svg" target="_base">
           <rect id="button" ry="5" rx="5" y="6" x="6" height="38" width="38"
                fill="#f2f5e9" fill-opacity="0.5" stroke="#606060" stroke-width="1.0"/>
           <path id="arrow"
             d="M 11.500037,31.436501 C 11.940474,20.09759 22.043105,11.32322 32.158766,21.979434 L 37.068811,17.246167 C 37.068811,17.246167 37.088388,32 37.088388,32 L 22.160133,31.978069 C 22.160133,31.978069 26.997745,27.140456 26.997745,27.140456 C 18.528582,18.264221 13.291696,25.230495 11.500037,31.436501 z"
             style="fill:#404040;"/>
          </a>
         </g>
        </svg>
</svg>
