<?xml version="1.0" encoding="UTF-8" standalone="no"?>
<!DOCTYPE svg PUBLIC "-//W3C//DTD SVG 1.1//EN"
 "http://www.w3.org/Graphics/SVG/1.1/DTD/svg11.dtd">
<!-- Generated by graphviz version 2.38.0 (20140413.2041)
 -->
<!-- Title: /home/erik/prefix/default/src/limesuite&#45;dev/src/lms7002_wxgui/lms7002_pnlLimeLightPAD_view.cpp Pages: 1 -->
<!--zoomable 296 -->
<svg id="main" version="1.1" xmlns="http://www.w3.org/2000/svg" xmlns:xlink="http://www.w3.org/1999/xlink" xml:space="preserve" onload="init(evt)">
<style type="text/css"><![CDATA[
.edge:hover path { stroke: red; }
.edge:hover polygon { stroke: red; fill: red; }
]]></style>
<script type="text/javascript"><![CDATA[
var edges = document.getElementsByTagName('g');
if (edges && edges.length) {
  for (var i=0;i<edges.length;i++) {
    if (edges[i].id.substr(0,4)=='edge') {
      edges[i].setAttribute('class','edge');
    }
  }
}
]]></script>
        <defs>
                <circle id="rim" cx="0" cy="0" r="7"/>
                <circle id="rim2" cx="0" cy="0" r="3.5"/>
                <g id="zoomPlus">
                        <use xlink:href="#rim" fill="#404040">
                                <set attributeName="fill" to="#808080" begin="zoomplus.mouseover" end="zoomplus.mouseout"/>
                        </use>
                        <path d="M-4,0h8M0,-4v8" fill="none" stroke="white" stroke-width="1.5" pointer-events="none"/>
                </g>
                <g id="zoomMin">
                        <use xlink:href="#rim" fill="#404040">
                                <set attributeName="fill" to="#808080" begin="zoomminus.mouseover" end="zoomminus.mouseout"/>
                        </use>
                        <path d="M-4,0h8" fill="none" stroke="white" stroke-width="1.5" pointer-events="none"/>
                </g>
                <g id="dirArrow">
                        <path fill="none" stroke="white" stroke-width="1.5" d="M0,-3.0v7 M-2.5,-0.5L0,-3.0L2.5,-0.5"/>
                </g>
               <g id="resetDef">
                       <use xlink:href="#rim2" fill="#404040">
                               <set attributeName="fill" to="#808080" begin="reset.mouseover" end="reset.mouseout"/>
                       </use>
               </g>
        </defs>

<script type="text/javascript">
var viewWidth = 2443;
var viewHeight = 296;
var sectionId = 'dynsection-0';
</script>
<script xlink:href="../../svgpan.js"/>
<svg id="graph" class="graph">
<g id="viewport">
<title>/home/erik/prefix/default/src/limesuite&#45;dev/src/lms7002_wxgui/lms7002_pnlLimeLightPAD_view.cpp</title>
<polygon fill="white" stroke="none" points="-4,4 -4,-292 2439,-292 2439,4 -4,4"/>
<!-- Node1 -->
<g id="node1" class="node"><title>Node1</title>
<polygon fill="#bfbfbf" stroke="black" points="1823.5,-235.5 1823.5,-287.5 2010.5,-287.5 2010.5,-235.5 1823.5,-235.5"/>
<text text-anchor="start" x="1831.5" y="-275.5" font-family="Helvetica,sans-Serif" font-size="10.00">/home/erik/prefix/default</text>
<text text-anchor="start" x="1831.5" y="-264.5" font-family="Helvetica,sans-Serif" font-size="10.00">/src/limesuite&#45;dev/src</text>
<text text-anchor="start" x="1831.5" y="-253.5" font-family="Helvetica,sans-Serif" font-size="10.00">/lms7002_wxgui/lms7002_pnlLimeLight</text>
<text text-anchor="middle" x="1917" y="-242.5" font-family="Helvetica,sans-Serif" font-size="10.00">PAD_view.cpp</text>
</g>
<!-- Node2 -->
<g id="node2" class="node"><title>Node2</title>
<g id="a_node2"><a xlink:href="../../df/d18/lms7002__pnlLimeLightPAD__view_8h.html" target="_top" xlink:title="Subclass of pnlLimeLightPAD_view, which is generated by wxFormBuilder. ">
<polygon fill="white" stroke="black" points="1707,-168.5 1707,-198.5 1841,-198.5 1841,-168.5 1707,-168.5"/>
<text text-anchor="start" x="1715" y="-186.5" font-family="Helvetica,sans-Serif" font-size="10.00">lms7002_pnlLimeLightPAD</text>
<text text-anchor="middle" x="1774" y="-175.5" font-family="Helvetica,sans-Serif" font-size="10.00">_view.h</text>
</a>
</g>
</g>
<!-- Node1&#45;&gt;Node2 -->
<g id="edge1" class="edge"><title>Node1&#45;&gt;Node2</title>
<path fill="none" stroke="midnightblue" d="M1869.78,-235.404C1850.24,-225.021 1827.96,-213.18 1809.81,-203.532"/>
<polygon fill="midnightblue" stroke="midnightblue" points="1811.2,-200.309 1800.73,-198.707 1807.92,-206.49 1811.2,-200.309"/>
</g>
<!-- Node30 -->
<g id="node30" class="node"><title>Node30</title>
<polygon fill="white" stroke="#bfbfbf" points="1957.5,-112.5 1957.5,-131.5 1992.5,-131.5 1992.5,-112.5 1957.5,-112.5"/>
<text text-anchor="middle" x="1975" y="-119.5" font-family="Helvetica,sans-Serif" font-size="10.00">map</text>
</g>
<!-- Node1&#45;&gt;Node30 -->
<g id="edge33" class="edge"><title>Node1&#45;&gt;Node30</title>
<path fill="none" stroke="midnightblue" d="M1954.95,-235.325C1966.5,-225.498 1977.77,-213.166 1984,-199 1992.08,-180.618 1987.48,-157.453 1982.36,-141.559"/>
<polygon fill="midnightblue" stroke="midnightblue" points="1985.55,-140.094 1978.88,-131.865 1978.97,-142.459 1985.55,-140.094"/>
</g>
<!-- Node34 -->
<g id="node34" class="node"><title>Node34</title>
<g id="a_node34"><a xlink:href="../../d8/d8c/lms7002__gui__utilities_8h.html" target="_top" xlink:title="lms7002_gui_utilities.h">
<polygon fill="white" stroke="black" points="1859,-174 1859,-193 1975,-193 1975,-174 1859,-174"/>
<text text-anchor="middle" x="1917" y="-181" font-family="Helvetica,sans-Serif" font-size="10.00">lms7002_gui_utilities.h</text>
</a>
</g>
</g>
<!-- Node1&#45;&gt;Node34 -->
<g id="edge34" class="edge"><title>Node1&#45;&gt;Node34</title>
<path fill="none" stroke="midnightblue" d="M1917,-235.193C1917,-224.765 1917,-212.896 1917,-203.266"/>
<polygon fill="midnightblue" stroke="midnightblue" points="1920.5,-203.209 1917,-193.209 1913.5,-203.209 1920.5,-203.209"/>
</g>
<!-- Node3 -->
<g id="node3" class="node"><title>Node3</title>
<g id="a_node3"><a xlink:href="../../d0/d32/lms7002__wxgui_8h.html" target="_top" xlink:title="lms7002_wxgui.h">
<polygon fill="white" stroke="black" points="1140,-112.5 1140,-131.5 1232,-131.5 1232,-112.5 1140,-112.5"/>
<text text-anchor="middle" x="1186" y="-119.5" font-family="Helvetica,sans-Serif" font-size="10.00">lms7002_wxgui.h</text>
</a>
</g>
</g>
<!-- Node2&#45;&gt;Node3 -->
<g id="edge2" class="edge"><title>Node2&#45;&gt;Node3</title>
<path fill="none" stroke="midnightblue" d="M1706.84,-175.704C1589.92,-163.873 1351.12,-139.708 1242.29,-128.696"/>
<polygon fill="midnightblue" stroke="midnightblue" points="1242.48,-125.197 1232.17,-127.672 1241.77,-132.161 1242.48,-125.197"/>
</g>
<!-- Node2&#45;&gt;Node30 -->
<g id="edge29" class="edge"><title>Node2&#45;&gt;Node30</title>
<path fill="none" stroke="midnightblue" d="M1824.41,-168.435C1856.99,-159.216 1900.51,-146.661 1947.54,-132.054"/>
<polygon fill="midnightblue" stroke="midnightblue" points="1948.81,-135.326 1957.31,-129.006 1946.72,-128.643 1948.81,-135.326"/>
</g>
<!-- Node31 -->
<g id="node31" class="node"><title>Node31</title>
<g id="a_node31"><a xlink:href="../../d5/d07/LimeSuite_8h.html" target="_top" xlink:title="LMS API library. ">
<polygon fill="white" stroke="black" points="1788.5,-112.5 1788.5,-131.5 1877.5,-131.5 1877.5,-112.5 1788.5,-112.5"/>
<text text-anchor="middle" x="1833" y="-119.5" font-family="Helvetica,sans-Serif" font-size="10.00">lime/LimeSuite.h</text>
</a>
</g>
</g>
<!-- Node2&#45;&gt;Node31 -->
<g id="edge30" class="edge"><title>Node2&#45;&gt;Node31</title>
<path fill="none" stroke="midnightblue" d="M1787.98,-168.399C1796.73,-159.575 1808.03,-148.183 1817.12,-139.018"/>
<polygon fill="midnightblue" stroke="midnightblue" points="1819.86,-141.223 1824.41,-131.658 1814.89,-136.294 1819.86,-141.223"/>
</g>
<!-- Node4 -->
<g id="node4" class="node"><title>Node4</title>
<polygon fill="white" stroke="#bfbfbf" points="2029.5,-56.5 2029.5,-75.5 2100.5,-75.5 2100.5,-56.5 2029.5,-56.5"/>
<text text-anchor="middle" x="2065" y="-63.5" font-family="Helvetica,sans-Serif" font-size="10.00">wx/artprov.h</text>
</g>
<!-- Node3&#45;&gt;Node4 -->
<g id="edge3" class="edge"><title>Node3&#45;&gt;Node4</title>
<path fill="none" stroke="midnightblue" d="M1232.32,-120.827C1357.61,-119.862 1713.73,-113.838 2019.28,-75.8862"/>
<polygon fill="midnightblue" stroke="midnightblue" points="2019.73,-79.3573 2029.21,-74.6386 2018.86,-72.4119 2019.73,-79.3573"/>
</g>
<!-- Node5 -->
<g id="node5" class="node"><title>Node5</title>
<polygon fill="white" stroke="#bfbfbf" points="2119,-56.5 2119,-75.5 2205,-75.5 2205,-56.5 2119,-56.5"/>
<text text-anchor="middle" x="2162" y="-63.5" font-family="Helvetica,sans-Serif" font-size="10.00">wx/xrc/xmlres.h</text>
</g>
<!-- Node3&#45;&gt;Node5 -->
<g id="edge4" class="edge"><title>Node3&#45;&gt;Node5</title>
<path fill="none" stroke="midnightblue" d="M1232.31,-120.75C1366.43,-119.601 1766.84,-113.16 2108.83,-75.9828"/>
<polygon fill="midnightblue" stroke="midnightblue" points="2109.37,-79.4444 2118.93,-74.8739 2108.61,-72.4862 2109.37,-79.4444"/>
</g>
<!-- Node6 -->
<g id="node6" class="node"><title>Node6</title>
<polygon fill="white" stroke="#bfbfbf" points="2223.5,-56.5 2223.5,-75.5 2288.5,-75.5 2288.5,-56.5 2223.5,-56.5"/>
<text text-anchor="middle" x="2256" y="-63.5" font-family="Helvetica,sans-Serif" font-size="10.00">wx/string.h</text>
</g>
<!-- Node3&#45;&gt;Node6 -->
<g id="edge5" class="edge"><title>Node3&#45;&gt;Node6</title>
<path fill="none" stroke="midnightblue" d="M1232.06,-120.009C1402.8,-116.18 2000.29,-101.347 2212.94,-75.8607"/>
<polygon fill="midnightblue" stroke="midnightblue" points="2213.58,-79.3077 2223.07,-74.5999 2212.72,-72.3612 2213.58,-79.3077"/>
</g>
<!-- Node7 -->
<g id="node7" class="node"><title>Node7</title>
<polygon fill="white" stroke="#bfbfbf" points="0,-56.5 0,-75.5 68,-75.5 68,-56.5 0,-56.5"/>
<text text-anchor="middle" x="34" y="-63.5" font-family="Helvetica,sans-Serif" font-size="10.00">wx/button.h</text>
</g>
<!-- Node3&#45;&gt;Node7 -->
<g id="edge6" class="edge"><title>Node3&#45;&gt;Node7</title>
<path fill="none" stroke="midnightblue" d="M1139.79,-120.147C960.134,-116.675 307.225,-102.564 78.1158,-75.8858"/>
<polygon fill="midnightblue" stroke="midnightblue" points="78.529,-72.4104 68.1818,-74.6876 77.6907,-79.36 78.529,-72.4104"/>
</g>
<!-- Node8 -->
<g id="node8" class="node"><title>Node8</title>
<polygon fill="white" stroke="#bfbfbf" points="86,-56.5 86,-75.5 158,-75.5 158,-56.5 86,-56.5"/>
<text text-anchor="middle" x="122" y="-63.5" font-family="Helvetica,sans-Serif" font-size="10.00">wx/gdicmn.h</text>
</g>
<!-- Node3&#45;&gt;Node8 -->
<g id="edge7" class="edge"><title>Node3&#45;&gt;Node8</title>
<path fill="none" stroke="midnightblue" d="M1139.84,-121.472C996.805,-122.403 548.317,-121.326 168.363,-75.9676"/>
<polygon fill="midnightblue" stroke="midnightblue" points="168.619,-72.4733 158.272,-74.7506 167.781,-79.4229 168.619,-72.4733"/>
</g>
<!-- Node9 -->
<g id="node9" class="node"><title>Node9</title>
<polygon fill="white" stroke="#bfbfbf" points="176.5,-56.5 176.5,-75.5 233.5,-75.5 233.5,-56.5 176.5,-56.5"/>
<text text-anchor="middle" x="205" y="-63.5" font-family="Helvetica,sans-Serif" font-size="10.00">wx/font.h</text>
</g>
<!-- Node3&#45;&gt;Node9 -->
<g id="edge8" class="edge"><title>Node3&#45;&gt;Node9</title>
<path fill="none" stroke="midnightblue" d="M1139.79,-119.966C978.144,-116.172 437.86,-101.934 243.665,-75.9297"/>
<polygon fill="midnightblue" stroke="midnightblue" points="243.965,-72.4377 233.578,-74.5225 242.998,-79.3706 243.965,-72.4377"/>
</g>
<!-- Node10 -->
<g id="node10" class="node"><title>Node10</title>
<polygon fill="white" stroke="#bfbfbf" points="251.5,-56.5 251.5,-75.5 318.5,-75.5 318.5,-56.5 251.5,-56.5"/>
<text text-anchor="middle" x="285" y="-63.5" font-family="Helvetica,sans-Serif" font-size="10.00">wx/colour.h</text>
</g>
<!-- Node3&#45;&gt;Node10 -->
<g id="edge9" class="edge"><title>Node3&#45;&gt;Node10</title>
<path fill="none" stroke="midnightblue" d="M1139.73,-121.07C1012.07,-120.731 644.057,-116.171 328.963,-75.8937"/>
<polygon fill="midnightblue" stroke="midnightblue" points="329.084,-72.3803 318.717,-74.5689 328.186,-79.3225 329.084,-72.3803"/>
</g>
<!-- Node11 -->
<g id="node11" class="node"><title>Node11</title>
<polygon fill="white" stroke="#bfbfbf" points="336.5,-56.5 336.5,-75.5 411.5,-75.5 411.5,-56.5 336.5,-56.5"/>
<text text-anchor="middle" x="374" y="-63.5" font-family="Helvetica,sans-Serif" font-size="10.00">wx/settings.h</text>
</g>
<!-- Node3&#45;&gt;Node11 -->
<g id="edge10" class="edge"><title>Node3&#45;&gt;Node11</title>
<path fill="none" stroke="midnightblue" d="M1139.67,-120.377C1021.65,-118.34 699.955,-109.975 421.928,-75.9298"/>
<polygon fill="midnightblue" stroke="midnightblue" points="421.996,-72.4115 411.641,-74.6558 421.135,-79.3584 421.996,-72.4115"/>
</g>
<!-- Node12 -->
<g id="node12" class="node"><title>Node12</title>
<polygon fill="white" stroke="#bfbfbf" points="430,-56.5 430,-75.5 516,-75.5 516,-56.5 430,-56.5"/>
<text text-anchor="middle" x="473" y="-63.5" font-family="Helvetica,sans-Serif" font-size="10.00">wx/combobox.h</text>
</g>
<!-- Node3&#45;&gt;Node12 -->
<g id="edge11" class="edge"><title>Node3&#45;&gt;Node12</title>
<path fill="none" stroke="midnightblue" d="M1139.84,-119.444C1032.06,-115.463 755.523,-103.243 526,-76 525.899,-75.988 525.797,-75.9759 525.696,-75.9637"/>
<polygon fill="midnightblue" stroke="midnightblue" points="526.421,-72.5294 516.046,-74.6805 525.498,-79.4683 526.421,-72.5294"/>
</g>
<!-- Node13 -->
<g id="node13" class="node"><title>Node13</title>
<polygon fill="white" stroke="#bfbfbf" points="534.5,-56.5 534.5,-75.5 609.5,-75.5 609.5,-56.5 534.5,-56.5"/>
<text text-anchor="middle" x="572" y="-63.5" font-family="Helvetica,sans-Serif" font-size="10.00">wx/radiobut.h</text>
</g>
<!-- Node3&#45;&gt;Node13 -->
<g id="edge12" class="edge"><title>Node3&#45;&gt;Node13</title>
<path fill="none" stroke="midnightblue" d="M1139.88,-119.062C1044.65,-114.687 819.187,-102.411 619.729,-75.9402"/>
<polygon fill="midnightblue" stroke="midnightblue" points="620.027,-72.4489 609.65,-74.5874 619.096,-79.3867 620.027,-72.4489"/>
</g>
<!-- Node14 -->
<g id="node14" class="node"><title>Node14</title>
<polygon fill="white" stroke="#bfbfbf" points="627.5,-56.5 627.5,-75.5 710.5,-75.5 710.5,-56.5 627.5,-56.5"/>
<text text-anchor="middle" x="669" y="-63.5" font-family="Helvetica,sans-Serif" font-size="10.00">wx/checkbox.h</text>
</g>
<!-- Node3&#45;&gt;Node14 -->
<g id="edge13" class="edge"><title>Node3&#45;&gt;Node14</title>
<path fill="none" stroke="midnightblue" d="M1139.89,-117.752C1057.79,-111.707 880.675,-97.4834 720.73,-75.9938"/>
<polygon fill="midnightblue" stroke="midnightblue" points="721.086,-72.5103 710.707,-74.6345 720.146,-79.4468 721.086,-72.5103"/>
</g>
<!-- Node15 -->
<g id="node15" class="node"><title>Node15</title>
<polygon fill="white" stroke="#bfbfbf" points="729,-56.5 729,-75.5 791,-75.5 791,-56.5 729,-56.5"/>
<text text-anchor="middle" x="760" y="-63.5" font-family="Helvetica,sans-Serif" font-size="10.00">wx/sizer.h</text>
</g>
<!-- Node3&#45;&gt;Node15 -->
<g id="edge14" class="edge"><title>Node3&#45;&gt;Node15</title>
<path fill="none" stroke="midnightblue" d="M1139.73,-117.192C1068.9,-111.016 929.205,-97.4675 801.348,-76.0764"/>
<polygon fill="midnightblue" stroke="midnightblue" points="801.825,-72.6074 791.381,-74.3886 800.656,-79.5091 801.825,-72.6074"/>
</g>
<!-- Node16 -->
<g id="node16" class="node"><title>Node16</title>
<polygon fill="white" stroke="#bfbfbf" points="809,-56.5 809,-75.5 883,-75.5 883,-56.5 809,-56.5"/>
<text text-anchor="middle" x="846" y="-63.5" font-family="Helvetica,sans-Serif" font-size="10.00">wx/stattext.h</text>
</g>
<!-- Node3&#45;&gt;Node16 -->
<g id="edge15" class="edge"><title>Node3&#45;&gt;Node16</title>
<path fill="none" stroke="midnightblue" d="M1139.82,-114.534C1083.82,-106.559 986.321,-92.2474 893.02,-76.1205"/>
<polygon fill="midnightblue" stroke="midnightblue" points="893.584,-72.6662 883.133,-74.4017 892.385,-79.5627 893.584,-72.6662"/>
</g>
<!-- Node17 -->
<g id="node17" class="node"><title>Node17</title>
<polygon fill="white" stroke="#bfbfbf" points="901,-56.5 901,-75.5 965,-75.5 965,-56.5 901,-56.5"/>
<text text-anchor="middle" x="933" y="-63.5" font-family="Helvetica,sans-Serif" font-size="10.00">wx/panel.h</text>
</g>
<!-- Node3&#45;&gt;Node17 -->
<g id="edge16" class="edge"><title>Node3&#45;&gt;Node17</title>
<path fill="none" stroke="midnightblue" d="M1145.34,-112.457C1104.73,-103.905 1040.26,-90.2754 975.239,-76.257"/>
<polygon fill="midnightblue" stroke="midnightblue" points="975.738,-72.784 965.224,-74.0957 974.261,-79.6265 975.738,-72.784"/>
</g>
<!-- Node18 -->
<g id="node18" class="node"><title>Node18</title>
<polygon fill="white" stroke="#bfbfbf" points="983,-56.5 983,-75.5 1053,-75.5 1053,-56.5 983,-56.5"/>
<text text-anchor="middle" x="1018" y="-63.5" font-family="Helvetica,sans-Serif" font-size="10.00">wx/bitmap.h</text>
</g>
<!-- Node3&#45;&gt;Node18 -->
<g id="edge17" class="edge"><title>Node3&#45;&gt;Node18</title>
<path fill="none" stroke="midnightblue" d="M1159.38,-112.444C1130.99,-103.32 1085.86,-88.8133 1054.25,-78.6509"/>
<polygon fill="midnightblue" stroke="midnightblue" points="1055.09,-75.2445 1044.5,-75.5164 1052.94,-81.9087 1055.09,-75.2445"/>
</g>
<!-- Node19 -->
<g id="node19" class="node"><title>Node19</title>
<polygon fill="white" stroke="#bfbfbf" points="1071.5,-56.5 1071.5,-75.5 1138.5,-75.5 1138.5,-56.5 1071.5,-56.5"/>
<text text-anchor="middle" x="1105" y="-63.5" font-family="Helvetica,sans-Serif" font-size="10.00">wx/image.h</text>
</g>
<!-- Node3&#45;&gt;Node19 -->
<g id="edge18" class="edge"><title>Node3&#45;&gt;Node19</title>
<path fill="none" stroke="midnightblue" d="M1172.99,-112.324C1160.47,-103.979 1141.32,-91.2122 1126.53,-81.3524"/>
<polygon fill="midnightblue" stroke="midnightblue" points="1128.24,-78.2894 1117.98,-75.6545 1124.36,-84.1137 1128.24,-78.2894"/>
</g>
<!-- Node20 -->
<g id="node20" class="node"><title>Node20</title>
<polygon fill="white" stroke="#bfbfbf" points="1156.5,-56.5 1156.5,-75.5 1215.5,-75.5 1215.5,-56.5 1156.5,-56.5"/>
<text text-anchor="middle" x="1186" y="-63.5" font-family="Helvetica,sans-Serif" font-size="10.00">wx/icon.h</text>
</g>
<!-- Node3&#45;&gt;Node20 -->
<g id="edge19" class="edge"><title>Node3&#45;&gt;Node20</title>
<path fill="none" stroke="midnightblue" d="M1186,-112.083C1186,-105.006 1186,-94.8611 1186,-85.9865"/>
<polygon fill="midnightblue" stroke="midnightblue" points="1189.5,-85.751 1186,-75.7511 1182.5,-85.7511 1189.5,-85.751"/>
</g>
<!-- Node21 -->
<g id="node21" class="node"><title>Node21</title>
<polygon fill="white" stroke="#bfbfbf" points="1234,-56.5 1234,-75.5 1314,-75.5 1314,-56.5 1234,-56.5"/>
<text text-anchor="middle" x="1274" y="-63.5" font-family="Helvetica,sans-Serif" font-size="10.00">wx/notebook.h</text>
</g>
<!-- Node3&#45;&gt;Node21 -->
<g id="edge20" class="edge"><title>Node3&#45;&gt;Node21</title>
<path fill="none" stroke="midnightblue" d="M1200.14,-112.324C1213.87,-103.9 1234.94,-90.9709 1251.06,-81.0741"/>
<polygon fill="midnightblue" stroke="midnightblue" points="1253.2,-83.8678 1259.9,-75.6545 1249.54,-77.9016 1253.2,-83.8678"/>
</g>
<!-- Node22 -->
<g id="node22" class="node"><title>Node22</title>
<polygon fill="white" stroke="#bfbfbf" points="1332.5,-56.5 1332.5,-75.5 1405.5,-75.5 1405.5,-56.5 1332.5,-56.5"/>
<text text-anchor="middle" x="1369" y="-63.5" font-family="Helvetica,sans-Serif" font-size="10.00">wx/statbox.h</text>
</g>
<!-- Node3&#45;&gt;Node22 -->
<g id="edge21" class="edge"><title>Node3&#45;&gt;Node22</title>
<path fill="none" stroke="midnightblue" d="M1215,-112.444C1246.18,-103.241 1295.93,-88.5617 1330.41,-78.3879"/>
<polygon fill="midnightblue" stroke="midnightblue" points="1331.54,-81.7036 1340.14,-75.5164 1329.56,-74.9898 1331.54,-81.7036"/>
</g>
<!-- Node23 -->
<g id="node23" class="node"><title>Node23</title>
<polygon fill="white" stroke="#bfbfbf" points="1424,-56.5 1424,-75.5 1496,-75.5 1496,-56.5 1424,-56.5"/>
<text text-anchor="middle" x="1460" y="-63.5" font-family="Helvetica,sans-Serif" font-size="10.00">wx/spinctrl.h</text>
</g>
<!-- Node3&#45;&gt;Node23 -->
<g id="edge22" class="edge"><title>Node3&#45;&gt;Node23</title>
<path fill="none" stroke="midnightblue" d="M1229.91,-112.417C1273.94,-103.8 1343.97,-90.0676 1413.8,-76.2327"/>
<polygon fill="midnightblue" stroke="midnightblue" points="1414.52,-79.6579 1423.65,-74.2803 1413.16,-72.7915 1414.52,-79.6579"/>
</g>
<!-- Node24 -->
<g id="node24" class="node"><title>Node24</title>
<polygon fill="white" stroke="#bfbfbf" points="1514.5,-56.5 1514.5,-75.5 1591.5,-75.5 1591.5,-56.5 1514.5,-56.5"/>
<text text-anchor="middle" x="1553" y="-63.5" font-family="Helvetica,sans-Serif" font-size="10.00">wx/radiobox.h</text>
</g>
<!-- Node3&#45;&gt;Node24 -->
<g id="edge23" class="edge"><title>Node3&#45;&gt;Node24</title>
<path fill="none" stroke="midnightblue" d="M1232.06,-115.167C1292.22,-107.402 1401.07,-92.8501 1504.28,-76.0528"/>
<polygon fill="midnightblue" stroke="midnightblue" points="1504.95,-79.4904 1514.25,-74.4204 1503.82,-72.5824 1504.95,-79.4904"/>
</g>
<!-- Node25 -->
<g id="node25" class="node"><title>Node25</title>
<polygon fill="white" stroke="#bfbfbf" points="1609.5,-56.5 1609.5,-75.5 1680.5,-75.5 1680.5,-56.5 1609.5,-56.5"/>
<text text-anchor="middle" x="1645" y="-63.5" font-family="Helvetica,sans-Serif" font-size="10.00">wx/textctrl.h</text>
</g>
<!-- Node3&#45;&gt;Node25 -->
<g id="edge24" class="edge"><title>Node3&#45;&gt;Node25</title>
<path fill="none" stroke="midnightblue" d="M1232.24,-117.411C1307.29,-111.275 1460.42,-97.4622 1599.07,-76.1879"/>
<polygon fill="midnightblue" stroke="midnightblue" points="1599.69,-79.635 1609.03,-74.6433 1598.61,-72.7177 1599.69,-79.635"/>
</g>
<!-- Node26 -->
<g id="node26" class="node"><title>Node26</title>
<polygon fill="white" stroke="#bfbfbf" points="1698.5,-56.5 1698.5,-75.5 1767.5,-75.5 1767.5,-56.5 1698.5,-56.5"/>
<text text-anchor="middle" x="1733" y="-63.5" font-family="Helvetica,sans-Serif" font-size="10.00">wx/choice.h</text>
</g>
<!-- Node3&#45;&gt;Node26 -->
<g id="edge25" class="edge"><title>Node3&#45;&gt;Node26</title>
<path fill="none" stroke="midnightblue" d="M1232.08,-118.698C1319.31,-113.949 1514.67,-101.438 1688.25,-76.1105"/>
<polygon fill="midnightblue" stroke="midnightblue" points="1688.95,-79.5449 1698.33,-74.6209 1687.92,-72.62 1688.95,-79.5449"/>
</g>
<!-- Node27 -->
<g id="node27" class="node"><title>Node27</title>
<polygon fill="white" stroke="#bfbfbf" points="1785.5,-56.5 1785.5,-75.5 1852.5,-75.5 1852.5,-56.5 1785.5,-56.5"/>
<text text-anchor="middle" x="1819" y="-63.5" font-family="Helvetica,sans-Serif" font-size="10.00">wx/gauge.h</text>
</g>
<!-- Node3&#45;&gt;Node27 -->
<g id="edge26" class="edge"><title>Node3&#45;&gt;Node27</title>
<path fill="none" stroke="midnightblue" d="M1232.21,-119.605C1330.48,-116.182 1567.55,-105.498 1774.98,-76.1236"/>
<polygon fill="midnightblue" stroke="midnightblue" points="1775.74,-79.5497 1785.14,-74.6653 1774.75,-72.6207 1775.74,-79.5497"/>
</g>
<!-- Node28 -->
<g id="node28" class="node"><title>Node28</title>
<polygon fill="white" stroke="#bfbfbf" points="1871,-56.5 1871,-75.5 1927,-75.5 1927,-56.5 1871,-56.5"/>
<text text-anchor="middle" x="1899" y="-63.5" font-family="Helvetica,sans-Serif" font-size="10.00">wx/grid.h</text>
</g>
<!-- Node3&#45;&gt;Node28 -->
<g id="edge27" class="edge"><title>Node3&#45;&gt;Node28</title>
<path fill="none" stroke="midnightblue" d="M1232.2,-120.657C1340.54,-119.268 1619.4,-112.296 1860.8,-75.9144"/>
<polygon fill="midnightblue" stroke="midnightblue" points="1861.46,-79.3543 1870.82,-74.3844 1860.4,-72.4346 1861.46,-79.3543"/>
</g>
<!-- Node29 -->
<g id="node29" class="node"><title>Node29</title>
<polygon fill="white" stroke="#bfbfbf" points="1945,-56.5 1945,-75.5 2011,-75.5 2011,-56.5 1945,-56.5"/>
<text text-anchor="middle" x="1978" y="-63.5" font-family="Helvetica,sans-Serif" font-size="10.00">wx/dialog.h</text>
</g>
<!-- Node3&#45;&gt;Node29 -->
<g id="edge28" class="edge"><title>Node3&#45;&gt;Node29</title>
<path fill="none" stroke="midnightblue" d="M1232.32,-120.65C1348.84,-119.25 1663.56,-112.255 1934.58,-75.9891"/>
<polygon fill="midnightblue" stroke="midnightblue" points="1935.17,-79.4416 1944.61,-74.6311 1934.23,-72.5049 1935.17,-79.4416"/>
</g>
<!-- Node32 -->
<g id="node32" class="node"><title>Node32</title>
<g id="a_node32"><a xlink:href="../../d1/d2e/LMS7002M__parameters_8h.html" target="_top" xlink:title="List of LMS7002M transceiver control parameters. ">
<polygon fill="white" stroke="black" points="2307,-56.5 2307,-75.5 2435,-75.5 2435,-56.5 2307,-56.5"/>
<text text-anchor="middle" x="2371" y="-63.5" font-family="Helvetica,sans-Serif" font-size="10.00">LMS7002M_parameters.h</text>
</a>
</g>
</g>
<!-- Node31&#45;&gt;Node32 -->
<g id="edge31" class="edge"><title>Node31&#45;&gt;Node32</title>
<path fill="none" stroke="midnightblue" d="M1877.78,-113.133C1880.56,-112.727 1883.32,-112.345 1886,-112 2065.11,-89.0061 2113.51,-95.0239 2296.94,-76.0723"/>
<polygon fill="midnightblue" stroke="midnightblue" points="2297.34,-79.5502 2306.92,-75.0308 2296.61,-72.5881 2297.34,-79.5502"/>
</g>
<!-- Node33 -->
<g id="node33" class="node"><title>Node33</title>
<polygon fill="white" stroke="#bfbfbf" points="2346.5,-0.5 2346.5,-19.5 2395.5,-19.5 2395.5,-0.5 2346.5,-0.5"/>
<text text-anchor="middle" x="2371" y="-7.5" font-family="Helvetica,sans-Serif" font-size="10.00">stdint.h</text>
</g>
<!-- Node32&#45;&gt;Node33 -->
<g id="edge32" class="edge"><title>Node32&#45;&gt;Node33</title>
<path fill="none" stroke="midnightblue" d="M2371,-56.083C2371,-49.0059 2371,-38.8611 2371,-29.9865"/>
<polygon fill="midnightblue" stroke="midnightblue" points="2374.5,-29.751 2371,-19.7511 2367.5,-29.7511 2374.5,-29.751"/>
</g>
<!-- Node34&#45;&gt;Node30 -->
<g id="edge35" class="edge"><title>Node34&#45;&gt;Node30</title>
<path fill="none" stroke="midnightblue" d="M1925.31,-173.975C1934.18,-164.873 1948.45,-150.241 1959.42,-138.983"/>
<polygon fill="midnightblue" stroke="midnightblue" points="1962.23,-141.113 1966.71,-131.509 1957.22,-136.227 1962.23,-141.113"/>
</g>
<!-- Node34&#45;&gt;Node31 -->
<g id="edge37" class="edge"><title>Node34&#45;&gt;Node31</title>
<path fill="none" stroke="midnightblue" d="M1904.96,-173.975C1891.49,-164.431 1869.43,-148.807 1853.28,-137.368"/>
<polygon fill="midnightblue" stroke="midnightblue" points="1855.2,-134.433 1845.01,-131.509 1851.15,-140.145 1855.2,-134.433"/>
</g>
<!-- Node35 -->
<g id="node35" class="node"><title>Node35</title>
<polygon fill="white" stroke="#bfbfbf" points="1895,-112.5 1895,-131.5 1939,-131.5 1939,-112.5 1895,-112.5"/>
<text text-anchor="middle" x="1917" y="-119.5" font-family="Helvetica,sans-Serif" font-size="10.00">vector</text>
</g>
<!-- Node34&#45;&gt;Node35 -->
<g id="edge36" class="edge"><title>Node34&#45;&gt;Node35</title>
<path fill="none" stroke="midnightblue" d="M1917,-173.975C1917,-165.58 1917,-152.481 1917,-141.663"/>
<polygon fill="midnightblue" stroke="midnightblue" points="1920.5,-141.509 1917,-131.509 1913.5,-141.509 1920.5,-141.509"/>
</g>
</g>
</svg>
        <g id="navigator" transform="translate(0 0)" fill="#404254">
                <rect fill="#f2f5e9" fill-opacity="0.5" stroke="#606060" stroke-width=".5" x="0" y="0" width="60" height="60"/>
                <use id="zoomplus" xlink:href="#zoomPlus" x="17" y="9" onmousedown="handleZoom(evt,'in')"/>
                <use id="zoomminus" xlink:href="#zoomMin" x="42" y="9" onmousedown="handleZoom(evt,'out')"/>
                <use id="reset" xlink:href="#resetDef" x="30" y="36" onmousedown="handleReset()"/>
                <g id="arrowUp" xlink:href="#dirArrow" transform="translate(30 24)" onmousedown="handlePan(0,-1)">
                  <use xlink:href="#rim" fill="#404040">
                        <set attributeName="fill" to="#808080" begin="arrowUp.mouseover" end="arrowUp.mouseout"/>
                  </use>
                  <path fill="none" stroke="white" stroke-width="1.5" d="M0,-3.0v7 M-2.5,-0.5L0,-3.0L2.5,-0.5"/>
                </g>
                <g id="arrowRight" xlink:href="#dirArrow" transform="rotate(90) translate(36 -43)" onmousedown="handlePan(1,0)">
                  <use xlink:href="#rim" fill="#404040">
                        <set attributeName="fill" to="#808080" begin="arrowRight.mouseover" end="arrowRight.mouseout"/>
                  </use>
                  <path fill="none" stroke="white" stroke-width="1.5" d="M0,-3.0v7 M-2.5,-0.5L0,-3.0L2.5,-0.5"/>
                </g>
                <g id="arrowDown" xlink:href="#dirArrow" transform="rotate(180) translate(-30 -48)" onmousedown="handlePan(0,1)">
                  <use xlink:href="#rim" fill="#404040">
                        <set attributeName="fill" to="#808080" begin="arrowDown.mouseover" end="arrowDown.mouseout"/>
                  </use>
                  <path fill="none" stroke="white" stroke-width="1.5" d="M0,-3.0v7 M-2.5,-0.5L0,-3.0L2.5,-0.5"/>
                </g>
                <g id="arrowLeft" xlink:href="#dirArrow" transform="rotate(270) translate(-36 17)" onmousedown="handlePan(-1,0)">
                  <use xlink:href="#rim" fill="#404040">
                        <set attributeName="fill" to="#808080" begin="arrowLeft.mouseover" end="arrowLeft.mouseout"/>
                  </use>
                  <path fill="none" stroke="white" stroke-width="1.5" d="M0,-3.0v7 M-2.5,-0.5L0,-3.0L2.5,-0.5"/>
                </g>
        </g>
        <svg viewBox="0 0 15 15" width="100%" height="30px" preserveAspectRatio="xMaxYMin meet">
         <g id="arrow_out" transform="scale(0.3 0.3)">
          <a xlink:href="lms7002__pnlLimeLightPAD__view_8cpp__incl_org.svg" target="_base">
           <rect id="button" ry="5" rx="5" y="6" x="6" height="38" width="38"
                fill="#f2f5e9" fill-opacity="0.5" stroke="#606060" stroke-width="1.0"/>
           <path id="arrow"
             d="M 11.500037,31.436501 C 11.940474,20.09759 22.043105,11.32322 32.158766,21.979434 L 37.068811,17.246167 C 37.068811,17.246167 37.088388,32 37.088388,32 L 22.160133,31.978069 C 22.160133,31.978069 26.997745,27.140456 26.997745,27.140456 C 18.528582,18.264221 13.291696,25.230495 11.500037,31.436501 z"
             style="fill:#404040;"/>
          </a>
         </g>
        </svg>
</svg>
