<?xml version="1.0" encoding="UTF-8" standalone="no"?>
<!DOCTYPE svg PUBLIC "-//W3C//DTD SVG 1.1//EN"
 "http://www.w3.org/Graphics/SVG/1.1/DTD/svg11.dtd">
<!-- Generated by graphviz version 2.38.0 (20140413.2041)
 -->
<!-- Title: pnlCalibrations_view::~pnlCalibrations_view Pages: 1 -->
<svg width="311pt" height="235pt"
 viewBox="0.00 0.00 311.00 235.00" xmlns="http://www.w3.org/2000/svg" xmlns:xlink="http://www.w3.org/1999/xlink">
<g id="graph0" class="graph" transform="scale(1 1) rotate(0) translate(4 231)">
<title>pnlCalibrations_view::~pnlCalibrations_view</title>
<polygon fill="white" stroke="none" points="-4,4 -4,-231 307,-231 307,4 -4,4"/>
<!-- Node1 -->
<g id="node1" class="node"><title>Node1</title>
<polygon fill="#bfbfbf" stroke="black" points="0,-98.5 0,-128.5 119,-128.5 119,-98.5 0,-98.5"/>
<text text-anchor="start" x="8" y="-116.5" font-family="Helvetica,sans-Serif" font-size="10.00">pnlCalibrations_view</text>
<text text-anchor="middle" x="59.5" y="-105.5" font-family="Helvetica,sans-Serif" font-size="10.00">::~pnlCalibrations_view</text>
</g>
<!-- Node2 -->
<g id="node2" class="node"><title>Node2</title>
<g id="a_node2"><a xlink:href="../../dc/d9f/classpnlCalibrations__view.html#ab89e1d91f6de9adf4b2321613348c594" target="_top" xlink:title="pnlCalibrations_view\l::OnbtnCalibrateAll">
<polygon fill="white" stroke="black" points="175.5,-196.5 175.5,-226.5 282.5,-226.5 282.5,-196.5 175.5,-196.5"/>
<text text-anchor="start" x="183.5" y="-214.5" font-family="Helvetica,sans-Serif" font-size="10.00">pnlCalibrations_view</text>
<text text-anchor="middle" x="229" y="-203.5" font-family="Helvetica,sans-Serif" font-size="10.00">::OnbtnCalibrateAll</text>
</a>
</g>
</g>
<!-- Node1&#45;&gt;Node2 -->
<g id="edge1" class="edge"><title>Node1&#45;&gt;Node2</title>
<path fill="none" stroke="midnightblue" d="M76.3395,-128.759C94.1865,-145.234 124.679,-171.289 155,-187.5 158.474,-189.358 162.119,-191.106 165.847,-192.746"/>
<polygon fill="midnightblue" stroke="midnightblue" points="164.66,-196.042 175.241,-196.598 167.316,-189.565 164.66,-196.042"/>
</g>
<!-- Node3 -->
<g id="node3" class="node"><title>Node3</title>
<g id="a_node3"><a xlink:href="../../dc/d9f/classpnlCalibrations__view.html#abb4165e1b98bbcfbb25a595c61759fec" target="_top" xlink:title="pnlCalibrations_view\l::OnbtnCalibrateRx">
<polygon fill="white" stroke="black" points="175.5,-147.5 175.5,-177.5 282.5,-177.5 282.5,-147.5 175.5,-147.5"/>
<text text-anchor="start" x="183.5" y="-165.5" font-family="Helvetica,sans-Serif" font-size="10.00">pnlCalibrations_view</text>
<text text-anchor="middle" x="229" y="-154.5" font-family="Helvetica,sans-Serif" font-size="10.00">::OnbtnCalibrateRx</text>
</a>
</g>
</g>
<!-- Node1&#45;&gt;Node3 -->
<g id="edge2" class="edge"><title>Node1&#45;&gt;Node3</title>
<path fill="none" stroke="midnightblue" d="M112.122,-128.601C129.398,-133.655 148.822,-139.338 166.759,-144.585"/>
<polygon fill="midnightblue" stroke="midnightblue" points="165.968,-148 176.548,-147.448 167.933,-141.281 165.968,-148"/>
</g>
<!-- Node4 -->
<g id="node4" class="node"><title>Node4</title>
<g id="a_node4"><a xlink:href="../../dc/d9f/classpnlCalibrations__view.html#ac5a3691621d62dd30e5b7be495854971" target="_top" xlink:title="pnlCalibrations_view\l::OnbtnCalibrateTx">
<polygon fill="white" stroke="black" points="175.5,-98.5 175.5,-128.5 282.5,-128.5 282.5,-98.5 175.5,-98.5"/>
<text text-anchor="start" x="183.5" y="-116.5" font-family="Helvetica,sans-Serif" font-size="10.00">pnlCalibrations_view</text>
<text text-anchor="middle" x="229" y="-105.5" font-family="Helvetica,sans-Serif" font-size="10.00">::OnbtnCalibrateTx</text>
</a>
</g>
</g>
<!-- Node1&#45;&gt;Node4 -->
<g id="edge3" class="edge"><title>Node1&#45;&gt;Node4</title>
<path fill="none" stroke="midnightblue" d="M119.083,-113.5C133.954,-113.5 149.991,-113.5 165.067,-113.5"/>
<polygon fill="midnightblue" stroke="midnightblue" points="165.325,-117 175.325,-113.5 165.325,-110 165.325,-117"/>
</g>
<!-- Node5 -->
<g id="node5" class="node"><title>Node5</title>
<g id="a_node5"><a xlink:href="../../dc/d9f/classpnlCalibrations__view.html#ac0f9116aa777f8d113b434fff93a669e" target="_top" xlink:title="pnlCalibrations_view\l::OnCalibrationMethodChange">
<polygon fill="white" stroke="black" points="155,-49.5 155,-79.5 303,-79.5 303,-49.5 155,-49.5"/>
<text text-anchor="start" x="163" y="-67.5" font-family="Helvetica,sans-Serif" font-size="10.00">pnlCalibrations_view</text>
<text text-anchor="middle" x="229" y="-56.5" font-family="Helvetica,sans-Serif" font-size="10.00">::OnCalibrationMethodChange</text>
</a>
</g>
</g>
<!-- Node1&#45;&gt;Node5 -->
<g id="edge4" class="edge"><title>Node1&#45;&gt;Node5</title>
<path fill="none" stroke="midnightblue" d="M112.122,-98.3986C129.398,-93.3449 148.822,-87.6624 166.759,-82.4152"/>
<polygon fill="midnightblue" stroke="midnightblue" points="167.933,-85.7186 176.548,-79.5516 165.968,-79.0001 167.933,-85.7186"/>
</g>
<!-- Node6 -->
<g id="node6" class="node"><title>Node6</title>
<g id="a_node6"><a xlink:href="../../dc/d9f/classpnlCalibrations__view.html#ac8379fad914d0c2582838dad806f292c" target="_top" xlink:title="pnlCalibrations_view\l::ParameterChangeHandler">
<polygon fill="white" stroke="black" points="161.5,-0.5 161.5,-30.5 296.5,-30.5 296.5,-0.5 161.5,-0.5"/>
<text text-anchor="start" x="169.5" y="-18.5" font-family="Helvetica,sans-Serif" font-size="10.00">pnlCalibrations_view</text>
<text text-anchor="middle" x="229" y="-7.5" font-family="Helvetica,sans-Serif" font-size="10.00">::ParameterChangeHandler</text>
</a>
</g>
</g>
<!-- Node1&#45;&gt;Node6 -->
<g id="edge5" class="edge"><title>Node1&#45;&gt;Node6</title>
<path fill="none" stroke="midnightblue" d="M76.7429,-98.2366C94.7,-82.0427 125.063,-56.6161 155,-40.5 158.955,-38.3708 163.127,-36.3704 167.39,-34.5017"/>
<polygon fill="midnightblue" stroke="midnightblue" points="168.905,-37.6633 176.821,-30.6221 166.242,-31.1896 168.905,-37.6633"/>
</g>
</g>
</svg>
