<?xml version="1.0" encoding="UTF-8" standalone="no"?>
<!DOCTYPE svg PUBLIC "-//W3C//DTD SVG 1.1//EN"
 "http://www.w3.org/Graphics/SVG/1.1/DTD/svg11.dtd">
<!-- Generated by graphviz version 2.38.0 (20140413.2041)
 -->
<!-- Title: OpenGLGraph::ShowMenu Pages: 1 -->
<svg width="701pt" height="28pt"
 viewBox="0.00 0.00 701.00 28.00" xmlns="http://www.w3.org/2000/svg" xmlns:xlink="http://www.w3.org/1999/xlink">
<g id="graph0" class="graph" transform="scale(1 1) rotate(0) translate(4 24)">
<title>OpenGLGraph::ShowMenu</title>
<polygon fill="white" stroke="none" points="-4,4 -4,-24 697,-24 697,4 -4,4"/>
<!-- Node1 -->
<g id="node1" class="node"><title>Node1</title>
<polygon fill="#bfbfbf" stroke="black" points="0,-0.5 0,-19.5 134,-19.5 134,-0.5 0,-0.5"/>
<text text-anchor="middle" x="67" y="-7.5" font-family="Helvetica,sans-Serif" font-size="10.00">OpenGLGraph::ShowMenu</text>
</g>
<!-- Node2 -->
<g id="node2" class="node"><title>Node2</title>
<g id="a_node2"><a xlink:href="../../d9/d73/classOpenGLGraph.html#aa3e90966ac655d6822e26f8ae4535354" target="_top" xlink:title="Handles mouse button releasing events. ">
<polygon fill="white" stroke="black" points="170,-0.5 170,-19.5 310,-19.5 310,-0.5 170,-0.5"/>
<text text-anchor="middle" x="240" y="-7.5" font-family="Helvetica,sans-Serif" font-size="10.00">OpenGLGraph::OnMouseUp</text>
</a>
</g>
</g>
<!-- Node1&#45;&gt;Node2 -->
<g id="edge1" class="edge"><title>Node1&#45;&gt;Node2</title>
<path fill="none" stroke="midnightblue" d="M144.126,-10C152.725,-10 161.451,-10 169.951,-10"/>
<polygon fill="midnightblue" stroke="midnightblue" points="144.113,-6.5001 134.113,-10 144.113,-13.5001 144.113,-6.5001"/>
</g>
<!-- Node3 -->
<g id="node3" class="node"><title>Node3</title>
<g id="a_node3"><a xlink:href="../../d9/d73/classOpenGLGraph.html#afbc9d59dcf612df7d7f3183c8e9520cc" target="_top" xlink:title="OpenGLGraph::mouseReleased">
<polygon fill="white" stroke="black" points="346,-0.5 346,-19.5 501,-19.5 501,-0.5 346,-0.5"/>
<text text-anchor="middle" x="423.5" y="-7.5" font-family="Helvetica,sans-Serif" font-size="10.00">OpenGLGraph::mouseReleased</text>
</a>
</g>
</g>
<!-- Node2&#45;&gt;Node3 -->
<g id="edge2" class="edge"><title>Node2&#45;&gt;Node3</title>
<path fill="none" stroke="midnightblue" d="M320.407,-10C328.9,-10 337.527,-10 345.985,-10"/>
<polygon fill="midnightblue" stroke="midnightblue" points="320.135,-6.5001 310.135,-10 320.135,-13.5001 320.135,-6.5001"/>
</g>
<!-- Node4 -->
<g id="node4" class="node"><title>Node4</title>
<g id="a_node4"><a xlink:href="../../d9/d73/classOpenGLGraph.html#ae8a4b37513a42fc6604a56ba03a24238" target="_top" xlink:title="OpenGLGraph::SetInfoMessage">
<polygon fill="white" stroke="black" points="537,-0.5 537,-19.5 693,-19.5 693,-0.5 537,-0.5"/>
<text text-anchor="middle" x="615" y="-7.5" font-family="Helvetica,sans-Serif" font-size="10.00">OpenGLGraph::SetInfoMessage</text>
</a>
</g>
</g>
<!-- Node3&#45;&gt;Node4 -->
<g id="edge3" class="edge"><title>Node3&#45;&gt;Node4</title>
<path fill="none" stroke="midnightblue" d="M511.074,-10C519.679,-10 528.375,-10 536.875,-10"/>
<polygon fill="midnightblue" stroke="midnightblue" points="511.031,-6.5001 501.031,-10 511.031,-13.5001 511.031,-6.5001"/>
</g>
</g>
</svg>
