<?xml version="1.0" encoding="UTF-8" standalone="no"?>
<!DOCTYPE svg PUBLIC "-//W3C//DTD SVG 1.1//EN"
 "http://www.w3.org/Graphics/SVG/1.1/DTD/svg11.dtd">
<!-- Generated by graphviz version 2.38.0 (20140413.2041)
 -->
<!-- Title: OpenGLGraph::AddMarkerAtValue Pages: 1 -->
<svg width="701pt" height="39pt"
 viewBox="0.00 0.00 701.00 39.00" xmlns="http://www.w3.org/2000/svg" xmlns:xlink="http://www.w3.org/1999/xlink">
<g id="graph0" class="graph" transform="scale(1 1) rotate(0) translate(4 35)">
<title>OpenGLGraph::AddMarkerAtValue</title>
<polygon fill="white" stroke="none" points="-4,4 -4,-35 697,-35 697,4 -4,4"/>
<!-- Node1 -->
<g id="node1" class="node"><title>Node1</title>
<polygon fill="#bfbfbf" stroke="black" points="0,-0.5 0,-30.5 142,-30.5 142,-0.5 0,-0.5"/>
<text text-anchor="start" x="8" y="-18.5" font-family="Helvetica,sans-Serif" font-size="10.00">OpenGLGraph::AddMarkerAt</text>
<text text-anchor="middle" x="71" y="-7.5" font-family="Helvetica,sans-Serif" font-size="10.00">Value</text>
</g>
<!-- Node2 -->
<g id="node2" class="node"><title>Node2</title>
<g id="a_node2"><a xlink:href="../../d9/d73/classOpenGLGraph.html#a5972df0a50c36fb6cc08a9957649ac7c" target="_top" xlink:title="OpenGLGraph::SearchPeak">
<polygon fill="white" stroke="black" points="178,-6 178,-25 316,-25 316,-6 178,-6"/>
<text text-anchor="middle" x="247" y="-13" font-family="Helvetica,sans-Serif" font-size="10.00">OpenGLGraph::SearchPeak</text>
</a>
</g>
</g>
<!-- Node1&#45;&gt;Node2 -->
<g id="edge1" class="edge"><title>Node1&#45;&gt;Node2</title>
<path fill="none" stroke="midnightblue" d="M152.063,-15.5C160.67,-15.5 169.369,-15.5 177.819,-15.5"/>
<polygon fill="midnightblue" stroke="midnightblue" points="152.02,-12.0001 142.02,-15.5 152.02,-19.0001 152.02,-12.0001"/>
</g>
<!-- Node3 -->
<g id="node3" class="node"><title>Node3</title>
<g id="a_node3"><a xlink:href="../../d9/d73/classOpenGLGraph.html#a1e462d1ec5cd0d438011cd73b5c3afc8" target="_top" xlink:title="OpenGLGraph::onSearchPeak">
<polygon fill="white" stroke="black" points="352,-6 352,-25 501,-25 501,-6 352,-6"/>
<text text-anchor="middle" x="426.5" y="-13" font-family="Helvetica,sans-Serif" font-size="10.00">OpenGLGraph::onSearchPeak</text>
</a>
</g>
</g>
<!-- Node2&#45;&gt;Node3 -->
<g id="edge2" class="edge"><title>Node2&#45;&gt;Node3</title>
<path fill="none" stroke="midnightblue" d="M326.399,-15.5C334.896,-15.5 343.522,-15.5 351.959,-15.5"/>
<polygon fill="midnightblue" stroke="midnightblue" points="326.119,-12.0001 316.118,-15.5 326.118,-19.0001 326.119,-12.0001"/>
</g>
<!-- Node4 -->
<g id="node4" class="node"><title>Node4</title>
<g id="a_node4"><a xlink:href="../../d9/d73/classOpenGLGraph.html#ae8a4b37513a42fc6604a56ba03a24238" target="_top" xlink:title="OpenGLGraph::SetInfoMessage">
<polygon fill="white" stroke="black" points="537,-6 537,-25 693,-25 693,-6 537,-6"/>
<text text-anchor="middle" x="615" y="-13" font-family="Helvetica,sans-Serif" font-size="10.00">OpenGLGraph::SetInfoMessage</text>
</a>
</g>
</g>
<!-- Node3&#45;&gt;Node4 -->
<g id="edge3" class="edge"><title>Node3&#45;&gt;Node4</title>
<path fill="none" stroke="midnightblue" d="M511.452,-15.5C519.907,-15.5 528.465,-15.5 536.843,-15.5"/>
<polygon fill="midnightblue" stroke="midnightblue" points="511.21,-12.0001 501.21,-15.5 511.21,-19.0001 511.21,-12.0001"/>
</g>
</g>
</svg>
