<?xml version="1.0" encoding="UTF-8" standalone="no"?>
<!DOCTYPE svg PUBLIC "-//W3C//DTD SVG 1.1//EN"
 "http://www.w3.org/Graphics/SVG/1.1/DTD/svg11.dtd">
<!-- Generated by graphviz version 2.38.0 (20140413.2041)
 -->
<!-- Title: OpenGLGraph::OnMouseUp Pages: 1 -->
<!--zoomable 148 -->
<svg id="main" version="1.1" xmlns="http://www.w3.org/2000/svg" xmlns:xlink="http://www.w3.org/1999/xlink" xml:space="preserve" onload="init(evt)">
<style type="text/css"><![CDATA[
.edge:hover path { stroke: red; }
.edge:hover polygon { stroke: red; fill: red; }
]]></style>
<script type="text/javascript"><![CDATA[
var edges = document.getElementsByTagName('g');
if (edges && edges.length) {
  for (var i=0;i<edges.length;i++) {
    if (edges[i].id.substr(0,4)=='edge') {
      edges[i].setAttribute('class','edge');
    }
  }
}
]]></script>
        <defs>
                <circle id="rim" cx="0" cy="0" r="7"/>
                <circle id="rim2" cx="0" cy="0" r="3.5"/>
                <g id="zoomPlus">
                        <use xlink:href="#rim" fill="#404040">
                                <set attributeName="fill" to="#808080" begin="zoomplus.mouseover" end="zoomplus.mouseout"/>
                        </use>
                        <path d="M-4,0h8M0,-4v8" fill="none" stroke="white" stroke-width="1.5" pointer-events="none"/>
                </g>
                <g id="zoomMin">
                        <use xlink:href="#rim" fill="#404040">
                                <set attributeName="fill" to="#808080" begin="zoomminus.mouseover" end="zoomminus.mouseout"/>
                        </use>
                        <path d="M-4,0h8" fill="none" stroke="white" stroke-width="1.5" pointer-events="none"/>
                </g>
                <g id="dirArrow">
                        <path fill="none" stroke="white" stroke-width="1.5" d="M0,-3.0v7 M-2.5,-0.5L0,-3.0L2.5,-0.5"/>
                </g>
               <g id="resetDef">
                       <use xlink:href="#rim2" fill="#404040">
                               <set attributeName="fill" to="#808080" begin="reset.mouseover" end="reset.mouseout"/>
                       </use>
               </g>
        </defs>

<script type="text/javascript">
var viewWidth = 730;
var viewHeight = 148;
var sectionId = 'dynsection-48';
</script>
<script xlink:href="../../svgpan.js"/>
<svg id="graph" class="graph">
<g id="viewport">
<title>OpenGLGraph::OnMouseUp</title>
<polygon fill="white" stroke="none" points="-4,4 -4,-143.5 726,-143.5 726,4 -4,4"/>
<!-- Node1 -->
<g id="node1" class="node"><title>Node1</title>
<polygon fill="#bfbfbf" stroke="black" points="0,-63 0,-82 140,-82 140,-63 0,-63"/>
<text text-anchor="middle" x="70" y="-70" font-family="Helvetica,sans-Serif" font-size="10.00">OpenGLGraph::OnMouseUp</text>
</g>
<!-- Node2 -->
<g id="node2" class="node"><title>Node2</title>
<g id="a_node2"><a xlink:href="../../d9/d73/classOpenGLGraph.html#a47295fe03e76d1768e64d9cb738f2d06" target="_top" xlink:title="Checks if pixel is inside data view. ">
<polygon fill="white" stroke="black" points="176,-120 176,-139 337,-139 337,-120 176,-120"/>
<text text-anchor="middle" x="256.5" y="-127" font-family="Helvetica,sans-Serif" font-size="10.00">OpenGLGraph::isInsideDataView</text>
</a>
</g>
</g>
<!-- Node1&#45;&gt;Node2 -->
<g id="edge1" class="edge"><title>Node1&#45;&gt;Node2</title>
<path fill="none" stroke="midnightblue" d="M94.9308,-82.0341C116.047,-90.2362 147.771,-102.048 176,-110.5 184.208,-112.957 192.966,-115.313 201.558,-117.477"/>
<polygon fill="midnightblue" stroke="midnightblue" points="200.98,-120.939 211.526,-119.925 202.649,-114.141 200.98,-120.939"/>
</g>
<!-- Node3 -->
<g id="node3" class="node"><title>Node3</title>
<g id="a_node3"><a xlink:href="../../d9/d73/classOpenGLGraph.html#a2dbaa869acf3cefe5a6e4d58e24e7605" target="_top" xlink:title="Resets displayed area to initial area. ">
<polygon fill="white" stroke="black" points="190,-82 190,-101 323,-101 323,-82 190,-82"/>
<text text-anchor="middle" x="256.5" y="-89" font-family="Helvetica,sans-Serif" font-size="10.00">OpenGLGraph::ResetView</text>
</a>
</g>
</g>
<!-- Node1&#45;&gt;Node3 -->
<g id="edge2" class="edge"><title>Node1&#45;&gt;Node3</title>
<path fill="none" stroke="midnightblue" d="M140.226,-79.629C153.054,-80.9501 166.518,-82.3365 179.534,-83.6769"/>
<polygon fill="midnightblue" stroke="midnightblue" points="179.551,-87.1971 189.857,-84.74 180.268,-80.2339 179.551,-87.1971"/>
</g>
<!-- Node7 -->
<g id="node7" class="node"><title>Node7</title>
<g id="a_node7"><a xlink:href="../../d9/d73/classOpenGLGraph.html#a8308817aa7c660707b68fbe97d0a03c7" target="_top" xlink:title="OpenGLGraph::ShowMenu">
<polygon fill="white" stroke="black" points="189.5,-44 189.5,-63 323.5,-63 323.5,-44 189.5,-44"/>
<text text-anchor="middle" x="256.5" y="-51" font-family="Helvetica,sans-Serif" font-size="10.00">OpenGLGraph::ShowMenu</text>
</a>
</g>
</g>
<!-- Node1&#45;&gt;Node7 -->
<g id="edge6" class="edge"><title>Node1&#45;&gt;Node7</title>
<path fill="none" stroke="midnightblue" d="M140.226,-65.371C152.893,-64.0666 166.179,-62.6984 179.043,-61.3737"/>
<polygon fill="midnightblue" stroke="midnightblue" points="179.66,-64.8287 189.249,-60.3226 178.943,-57.8655 179.66,-64.8287"/>
</g>
<!-- Node8 -->
<g id="node8" class="node"><title>Node8</title>
<g id="a_node8"><a xlink:href="../../d9/d73/classOpenGLGraph.html#a579660d0ad3573a723d0421534795309" target="_top" xlink:title="Zooms in area selected by window pixels. ">
<polygon fill="white" stroke="black" points="191,-6 191,-25 322,-25 322,-6 191,-6"/>
<text text-anchor="middle" x="256.5" y="-13" font-family="Helvetica,sans-Serif" font-size="10.00">OpenGLGraph::ZoomRect</text>
</a>
</g>
</g>
<!-- Node1&#45;&gt;Node8 -->
<g id="edge7" class="edge"><title>Node1&#45;&gt;Node8</title>
<path fill="none" stroke="midnightblue" d="M94.9308,-62.9659C116.047,-54.7638 147.771,-42.9521 176,-34.5 184.208,-32.0425 192.966,-29.6874 201.558,-27.523"/>
<polygon fill="midnightblue" stroke="midnightblue" points="202.649,-30.8592 211.526,-25.0752 200.98,-24.0612 202.649,-30.8592"/>
</g>
<!-- Node4 -->
<g id="node4" class="node"><title>Node4</title>
<g id="a_node4"><a xlink:href="../../d9/d73/classOpenGLGraph.html#a16dcd6f9fd24aed2b3c2b18ba0fa75ab" target="_top" xlink:title="Sets visible area. ">
<polygon fill="white" stroke="black" points="373,-66 373,-85 526,-85 526,-66 373,-66"/>
<text text-anchor="middle" x="449.5" y="-73" font-family="Helvetica,sans-Serif" font-size="10.00">OpenGLGraph::SetDisplayArea</text>
</a>
</g>
</g>
<!-- Node3&#45;&gt;Node4 -->
<g id="edge3" class="edge"><title>Node3&#45;&gt;Node4</title>
<path fill="none" stroke="midnightblue" d="M323.231,-85.9937C335.958,-84.9276 349.468,-83.7959 362.726,-82.6853"/>
<polygon fill="midnightblue" stroke="midnightblue" points="363.125,-86.1642 372.797,-81.8416 362.54,-79.1887 363.125,-86.1642"/>
</g>
<!-- Node5 -->
<g id="node5" class="node"><title>Node5</title>
<g id="a_node5"><a xlink:href="../../d3/dc3/structsRect.html#a4b8858359827610b4d8d0cec1a073fe9" target="_top" xlink:title="sRect::set">
<polygon fill="white" stroke="black" points="611,-85 611,-104 673,-104 673,-85 611,-85"/>
<text text-anchor="middle" x="642" y="-92" font-family="Helvetica,sans-Serif" font-size="10.00">sRect::set</text>
</a>
</g>
</g>
<!-- Node4&#45;&gt;Node5 -->
<g id="edge4" class="edge"><title>Node4&#45;&gt;Node5</title>
<path fill="none" stroke="midnightblue" d="M526.064,-83.0366C551.596,-85.5831 579.101,-88.3263 600.801,-90.4907"/>
<polygon fill="midnightblue" stroke="midnightblue" points="600.655,-93.9934 610.953,-91.5032 601.35,-87.028 600.655,-93.9934"/>
</g>
<!-- Node6 -->
<g id="node6" class="node"><title>Node6</title>
<g id="a_node6"><a xlink:href="../../d9/d73/classOpenGLGraph.html#a13a5c28c2a88a3e2bb788744aa2bdb66" target="_top" xlink:title="Signals that settings have changed and needs to be reevaluated. ">
<polygon fill="white" stroke="black" points="562,-47 562,-66 722,-66 722,-47 562,-47"/>
<text text-anchor="middle" x="642" y="-54" font-family="Helvetica,sans-Serif" font-size="10.00">OpenGLGraph::SettingsChanged</text>
</a>
</g>
</g>
<!-- Node4&#45;&gt;Node6 -->
<g id="edge5" class="edge"><title>Node4&#45;&gt;Node6</title>
<path fill="none" stroke="midnightblue" d="M526.064,-67.9634C534.501,-67.1219 543.154,-66.2589 551.741,-65.4025"/>
<polygon fill="midnightblue" stroke="midnightblue" points="552.172,-68.877 561.775,-64.4017 551.477,-61.9115 552.172,-68.877"/>
</g>
<!-- Node8&#45;&gt;Node4 -->
<g id="edge9" class="edge"><title>Node8&#45;&gt;Node4</title>
<path fill="none" stroke="midnightblue" d="M301.486,-25.0356C313.108,-27.8206 325.589,-31.0516 337,-34.5 363.709,-42.5715 393.326,-53.5617 415.319,-62.1318"/>
<polygon fill="midnightblue" stroke="midnightblue" points="414.263,-65.4772 424.85,-65.88 416.825,-58.9629 414.263,-65.4772"/>
</g>
<!-- Node9 -->
<g id="node9" class="node"><title>Node9</title>
<g id="a_node9"><a xlink:href="../../d9/d73/classOpenGLGraph.html#a40fe0d3ab4270c333e69d0710c06beae" target="_top" xlink:title="Calculates value pointed by pixel in data view. ">
<polygon fill="white" stroke="black" points="376,-0.5 376,-30.5 523,-30.5 523,-0.5 376,-0.5"/>
<text text-anchor="start" x="384" y="-18.5" font-family="Helvetica,sans-Serif" font-size="10.00">OpenGLGraph::dataViewPixel</text>
<text text-anchor="middle" x="449.5" y="-7.5" font-family="Helvetica,sans-Serif" font-size="10.00">ToValue</text>
</a>
</g>
</g>
<!-- Node8&#45;&gt;Node9 -->
<g id="edge8" class="edge"><title>Node8&#45;&gt;Node9</title>
<path fill="none" stroke="midnightblue" d="M322.164,-15.5C336.145,-15.5 351.114,-15.5 365.682,-15.5"/>
<polygon fill="midnightblue" stroke="midnightblue" points="365.687,-19.0001 375.687,-15.5 365.687,-12.0001 365.687,-19.0001"/>
</g>
</g>
</svg>
        <g id="navigator" transform="translate(0 0)" fill="#404254">
                <rect fill="#f2f5e9" fill-opacity="0.5" stroke="#606060" stroke-width=".5" x="0" y="0" width="60" height="60"/>
                <use id="zoomplus" xlink:href="#zoomPlus" x="17" y="9" onmousedown="handleZoom(evt,'in')"/>
                <use id="zoomminus" xlink:href="#zoomMin" x="42" y="9" onmousedown="handleZoom(evt,'out')"/>
                <use id="reset" xlink:href="#resetDef" x="30" y="36" onmousedown="handleReset()"/>
                <g id="arrowUp" xlink:href="#dirArrow" transform="translate(30 24)" onmousedown="handlePan(0,-1)">
                  <use xlink:href="#rim" fill="#404040">
                        <set attributeName="fill" to="#808080" begin="arrowUp.mouseover" end="arrowUp.mouseout"/>
                  </use>
                  <path fill="none" stroke="white" stroke-width="1.5" d="M0,-3.0v7 M-2.5,-0.5L0,-3.0L2.5,-0.5"/>
                </g>
                <g id="arrowRight" xlink:href="#dirArrow" transform="rotate(90) translate(36 -43)" onmousedown="handlePan(1,0)">
                  <use xlink:href="#rim" fill="#404040">
                        <set attributeName="fill" to="#808080" begin="arrowRight.mouseover" end="arrowRight.mouseout"/>
                  </use>
                  <path fill="none" stroke="white" stroke-width="1.5" d="M0,-3.0v7 M-2.5,-0.5L0,-3.0L2.5,-0.5"/>
                </g>
                <g id="arrowDown" xlink:href="#dirArrow" transform="rotate(180) translate(-30 -48)" onmousedown="handlePan(0,1)">
                  <use xlink:href="#rim" fill="#404040">
                        <set attributeName="fill" to="#808080" begin="arrowDown.mouseover" end="arrowDown.mouseout"/>
                  </use>
                  <path fill="none" stroke="white" stroke-width="1.5" d="M0,-3.0v7 M-2.5,-0.5L0,-3.0L2.5,-0.5"/>
                </g>
                <g id="arrowLeft" xlink:href="#dirArrow" transform="rotate(270) translate(-36 17)" onmousedown="handlePan(-1,0)">
                  <use xlink:href="#rim" fill="#404040">
                        <set attributeName="fill" to="#808080" begin="arrowLeft.mouseover" end="arrowLeft.mouseout"/>
                  </use>
                  <path fill="none" stroke="white" stroke-width="1.5" d="M0,-3.0v7 M-2.5,-0.5L0,-3.0L2.5,-0.5"/>
                </g>
        </g>
        <svg viewBox="0 0 15 15" width="100%" height="30px" preserveAspectRatio="xMaxYMin meet">
         <g id="arrow_out" transform="scale(0.3 0.3)">
          <a xlink:href="classOpenGLGraph_aa3e90966ac655d6822e26f8ae4535354_cgraph_org.svg" target="_base">
           <rect id="button" ry="5" rx="5" y="6" x="6" height="38" width="38"
                fill="#f2f5e9" fill-opacity="0.5" stroke="#606060" stroke-width="1.0"/>
           <path id="arrow"
             d="M 11.500037,31.436501 C 11.940474,20.09759 22.043105,11.32322 32.158766,21.979434 L 37.068811,17.246167 C 37.068811,17.246167 37.088388,32 37.088388,32 L 22.160133,31.978069 C 22.160133,31.978069 26.997745,27.140456 26.997745,27.140456 C 18.528582,18.264221 13.291696,25.230495 11.500037,31.436501 z"
             style="fill:#404040;"/>
          </a>
         </g>
        </svg>
</svg>
