<?xml version="1.0" encoding="UTF-8" standalone="no"?>
<!DOCTYPE svg PUBLIC "-//W3C//DTD SVG 1.1//EN"
 "http://www.w3.org/Graphics/SVG/1.1/DTD/svg11.dtd">
<!-- Generated by graphviz version 2.38.0 (20140413.2041)
 -->
<!-- Title: OpenGLGraph::SettingsChanged Pages: 1 -->
<svg width="1139pt" height="408pt"
 viewBox="0.00 0.00 1139.00 407.67" xmlns="http://www.w3.org/2000/svg" xmlns:xlink="http://www.w3.org/1999/xlink">
<g id="graph0" class="graph" transform="scale(1 1) rotate(0) translate(4 403.674)">
<title>OpenGLGraph::SettingsChanged</title>
<polygon fill="white" stroke="none" points="-4,4 -4,-403.674 1135,-403.674 1135,4 -4,4"/>
<!-- Node1 -->
<g id="node1" class="node"><title>Node1</title>
<polygon fill="#bfbfbf" stroke="black" points="0,-163 0,-182 160,-182 160,-163 0,-163"/>
<text text-anchor="middle" x="80" y="-170" font-family="Helvetica,sans-Serif" font-size="10.00">OpenGLGraph::SettingsChanged</text>
</g>
<!-- Node2 -->
<g id="node2" class="node"><title>Node2</title>
<g id="a_node2"><a xlink:href="../../d9/d73/classOpenGLGraph.html#a14351720e768aaae6207e88bc8abf331" target="_top" xlink:title="Calculates grid position and spacing values. ">
<polygon fill="white" stroke="black" points="200.5,-40 200.5,-59 344.5,-59 344.5,-40 200.5,-40"/>
<text text-anchor="middle" x="272.5" y="-47" font-family="Helvetica,sans-Serif" font-size="10.00">OpenGLGraph::CalculateGrid</text>
</a>
</g>
</g>
<!-- Node1&#45;&gt;Node2 -->
<g id="edge1" class="edge"><title>Node1&#45;&gt;Node2</title>
<path fill="none" stroke="midnightblue" d="M100.643,-156.365C122.977,-138.41 160.902,-109.087 196,-87.5 213.624,-76.6605 234.738,-66.2337 250.151,-59.0533"/>
<polygon fill="midnightblue" stroke="midnightblue" points="98.1818,-153.855 92.6161,-162.87 102.589,-159.293 98.1818,-153.855"/>
</g>
<!-- Node9 -->
<g id="node9" class="node"><title>Node9</title>
<g id="a_node9"><a xlink:href="../../d9/d73/classOpenGLGraph.html#aa6ae3622f1d0233c9a35acc498d215f9" target="_top" xlink:title="Moves visible data area by set amount of pixels. ">
<polygon fill="white" stroke="black" points="221.5,-344 221.5,-363 323.5,-363 323.5,-344 221.5,-344"/>
<text text-anchor="middle" x="272.5" y="-351" font-family="Helvetica,sans-Serif" font-size="10.00">OpenGLGraph::Pan</text>
</a>
</g>
</g>
<!-- Node1&#45;&gt;Node9 -->
<g id="edge8" class="edge"><title>Node1&#45;&gt;Node9</title>
<path fill="none" stroke="midnightblue" d="M98.7251,-189.341C137.786,-226.454 230.26,-314.316 261.207,-343.721"/>
<polygon fill="midnightblue" stroke="midnightblue" points="100.902,-186.582 91.2421,-182.231 96.0808,-191.657 100.902,-186.582"/>
</g>
<!-- Node12 -->
<g id="node12" class="node"><title>Node12</title>
<g id="a_node12"><a xlink:href="../../d9/d73/classOpenGLGraph.html#ae450f2077d0c0122f7606923a6f43cce" target="_top" xlink:title="Changes graph view size. ">
<polygon fill="white" stroke="black" points="214.5,-97 214.5,-116 330.5,-116 330.5,-97 214.5,-97"/>
<text text-anchor="middle" x="272.5" y="-104" font-family="Helvetica,sans-Serif" font-size="10.00">OpenGLGraph::Resize</text>
</a>
</g>
</g>
<!-- Node1&#45;&gt;Node12 -->
<g id="edge12" class="edge"><title>Node1&#45;&gt;Node12</title>
<path fill="none" stroke="midnightblue" d="M118.599,-159.474C155.562,-146.668 211.092,-127.429 244.075,-116.001"/>
<polygon fill="midnightblue" stroke="midnightblue" points="117.004,-156.322 108.7,-162.903 119.295,-162.936 117.004,-156.322"/>
</g>
<!-- Node15 -->
<g id="node15" class="node"><title>Node15</title>
<g id="a_node15"><a xlink:href="../../d9/d73/classOpenGLGraph.html#a16dcd6f9fd24aed2b3c2b18ba0fa75ab" target="_top" xlink:title="Sets visible area. ">
<polygon fill="white" stroke="black" points="196,-230 196,-249 349,-249 349,-230 196,-230"/>
<text text-anchor="middle" x="272.5" y="-237" font-family="Helvetica,sans-Serif" font-size="10.00">OpenGLGraph::SetDisplayArea</text>
</a>
</g>
</g>
<!-- Node1&#45;&gt;Node15 -->
<g id="edge17" class="edge"><title>Node1&#45;&gt;Node15</title>
<path fill="none" stroke="midnightblue" d="M117.728,-185.417C154.752,-198.439 211.037,-218.235 244.257,-229.918"/>
<polygon fill="midnightblue" stroke="midnightblue" points="118.889,-182.116 108.294,-182.099 116.566,-188.719 118.889,-182.116"/>
</g>
<!-- Node3 -->
<g id="node3" class="node"><title>Node3</title>
<g id="a_node3"><a xlink:href="../../d9/d73/classOpenGLGraph.html#ae3501103179479cd9e60e9654e4e557f" target="_top" xlink:title="Draw static elements (background colors, titles, grid) ">
<polygon fill="white" stroke="black" points="385.5,-21 385.5,-40 560.5,-40 560.5,-21 385.5,-21"/>
<text text-anchor="middle" x="473" y="-28" font-family="Helvetica,sans-Serif" font-size="10.00">OpenGLGraph::DrawStaticElements</text>
</a>
</g>
</g>
<!-- Node2&#45;&gt;Node3 -->
<g id="edge2" class="edge"><title>Node2&#45;&gt;Node3</title>
<path fill="none" stroke="midnightblue" d="M354.651,-41.7324C364.803,-40.7606 375.217,-39.7638 385.448,-38.7846"/>
<polygon fill="midnightblue" stroke="midnightblue" points="354.223,-38.2572 344.602,-42.6942 354.89,-45.2254 354.223,-38.2572"/>
</g>
<!-- Node4 -->
<g id="node4" class="node"><title>Node4</title>
<g id="a_node4"><a xlink:href="../../d9/d73/classOpenGLGraph.html#af2f1cb689fb6884d8509877ecdf29fb8" target="_top" xlink:title="Draw graph data series. ">
<polygon fill="white" stroke="black" points="618.5,-31 618.5,-50 726.5,-50 726.5,-31 618.5,-31"/>
<text text-anchor="middle" x="672.5" y="-38" font-family="Helvetica,sans-Serif" font-size="10.00">OpenGLGraph::Draw</text>
</a>
</g>
</g>
<!-- Node3&#45;&gt;Node4 -->
<g id="edge3" class="edge"><title>Node3&#45;&gt;Node4</title>
<path fill="none" stroke="midnightblue" d="M570.822,-35.4024C587.237,-36.2335 603.724,-37.0683 618.466,-37.8147"/>
<polygon fill="midnightblue" stroke="midnightblue" points="570.791,-31.8964 560.626,-34.8861 570.437,-38.8874 570.791,-31.8964"/>
</g>
<!-- Node5 -->
<g id="node5" class="node"><title>Node5</title>
<g id="a_node5"><a xlink:href="../../d5/d45/classfftviewer__frFFTviewer.html#aa01d7b5ad35c15051574834869accae0" target="_top" xlink:title="fftviewer_frFFTviewer\l::OnUpdatePlots">
<polygon fill="white" stroke="black" points="805.5,-0.5 805.5,-30.5 917.5,-30.5 917.5,-0.5 805.5,-0.5"/>
<text text-anchor="start" x="813.5" y="-18.5" font-family="Helvetica,sans-Serif" font-size="10.00">fftviewer_frFFTviewer</text>
<text text-anchor="middle" x="861.5" y="-7.5" font-family="Helvetica,sans-Serif" font-size="10.00">::OnUpdatePlots</text>
</a>
</g>
</g>
<!-- Node4&#45;&gt;Node5 -->
<g id="edge4" class="edge"><title>Node4&#45;&gt;Node5</title>
<path fill="none" stroke="midnightblue" d="M736.62,-32.0616C758.898,-29.0832 783.757,-25.7597 805.326,-22.8761"/>
<polygon fill="midnightblue" stroke="midnightblue" points="736.034,-28.6085 726.586,-33.4029 736.962,-35.5468 736.034,-28.6085"/>
</g>
<!-- Node7 -->
<g id="node7" class="node"><title>Node7</title>
<g id="a_node7"><a xlink:href="../../d9/d73/classOpenGLGraph.html#a3ec7e57bd2baa9fffbd14a0fb952e8a8" target="_top" xlink:title="OpenGLGraph::render">
<polygon fill="white" stroke="black" points="805.5,-50 805.5,-69 917.5,-69 917.5,-50 805.5,-50"/>
<text text-anchor="middle" x="861.5" y="-57" font-family="Helvetica,sans-Serif" font-size="10.00">OpenGLGraph::render</text>
</a>
</g>
</g>
<!-- Node4&#45;&gt;Node7 -->
<g id="edge6" class="edge"><title>Node4&#45;&gt;Node7</title>
<path fill="none" stroke="midnightblue" d="M736.62,-46.9132C758.898,-49.1768 783.757,-51.7026 805.326,-53.8941"/>
<polygon fill="midnightblue" stroke="midnightblue" points="736.889,-43.4227 726.586,-45.8938 736.181,-50.3868 736.889,-43.4227"/>
</g>
<!-- Node6 -->
<g id="node6" class="node"><title>Node6</title>
<g id="a_node6"><a xlink:href="../../d5/d45/classfftviewer__frFFTviewer.html#a4bcd0ebcddfbe4227a156a426db9d5b9" target="_top" xlink:title="Constructor. ">
<polygon fill="white" stroke="black" points="994,-60.5 994,-90.5 1112,-90.5 1112,-60.5 994,-60.5"/>
<text text-anchor="start" x="1002" y="-78.5" font-family="Helvetica,sans-Serif" font-size="10.00">fftviewer_frFFTviewer</text>
<text text-anchor="middle" x="1053" y="-67.5" font-family="Helvetica,sans-Serif" font-size="10.00">::fftviewer_frFFTviewer</text>
</a>
</g>
</g>
<!-- Node5&#45;&gt;Node6 -->
<g id="edge5" class="edge"><title>Node5&#45;&gt;Node6</title>
<path fill="none" stroke="midnightblue" d="M920.039,-33.7181C947.067,-42.2758 978.898,-52.3542 1004.53,-60.4683"/>
<polygon fill="midnightblue" stroke="midnightblue" points="920.909,-30.3224 910.319,-30.6405 918.796,-36.9959 920.909,-30.3224"/>
</g>
<!-- Node8 -->
<g id="node8" class="node"><title>Node8</title>
<g id="a_node8"><a xlink:href="../../d9/d73/classOpenGLGraph.html#ae8a4b37513a42fc6604a56ba03a24238" target="_top" xlink:title="OpenGLGraph::SetInfoMessage">
<polygon fill="white" stroke="black" points="975,-282 975,-301 1131,-301 1131,-282 975,-282"/>
<text text-anchor="middle" x="1053" y="-289" font-family="Helvetica,sans-Serif" font-size="10.00">OpenGLGraph::SetInfoMessage</text>
</a>
</g>
</g>
<!-- Node7&#45;&gt;Node8 -->
<g id="edge7" class="edge"><title>Node7&#45;&gt;Node8</title>
<path fill="none" stroke="midnightblue" d="M921.577,-72.8096C927.835,-75.7026 933.801,-79.2213 939,-83.5 1007.54,-139.906 1040.87,-249.205 1049.61,-281.984"/>
<polygon fill="midnightblue" stroke="midnightblue" points="922.838,-69.5437 912.257,-69.0029 920.191,-76.0241 922.838,-69.5437"/>
</g>
<!-- Node10 -->
<g id="node10" class="node"><title>Node10</title>
<g id="a_node10"><a xlink:href="../../d9/d73/classOpenGLGraph.html#a5badebff271f771d399b2bc049d0251b" target="_top" xlink:title="Handles mouse moving events. ">
<polygon fill="white" stroke="black" points="597,-377 597,-396 748,-396 748,-377 597,-377"/>
<text text-anchor="middle" x="672.5" y="-384" font-family="Helvetica,sans-Serif" font-size="10.00">OpenGLGraph::OnMouseMove</text>
</a>
</g>
</g>
<!-- Node9&#45;&gt;Node10 -->
<g id="edge9" class="edge"><title>Node9&#45;&gt;Node10</title>
<path fill="none" stroke="midnightblue" d="M304.215,-367.026C326.223,-375.953 356.831,-386.832 385,-391.5 456.163,-403.293 538.625,-400.123 596.757,-395.156"/>
<polygon fill="midnightblue" stroke="midnightblue" points="305.326,-363.697 294.748,-363.091 302.639,-370.161 305.326,-363.697"/>
</g>
<!-- Node11 -->
<g id="node11" class="node"><title>Node11</title>
<g id="a_node11"><a xlink:href="../../d9/d73/classOpenGLGraph.html#adef9f93fa0523da7c1c3302c8d347932" target="_top" xlink:title="OpenGLGraph::mouseMoved">
<polygon fill="white" stroke="black" points="790,-377 790,-396 933,-396 933,-377 790,-377"/>
<text text-anchor="middle" x="861.5" y="-384" font-family="Helvetica,sans-Serif" font-size="10.00">OpenGLGraph::mouseMoved</text>
</a>
</g>
</g>
<!-- Node10&#45;&gt;Node11 -->
<g id="edge10" class="edge"><title>Node10&#45;&gt;Node11</title>
<path fill="none" stroke="midnightblue" d="M758.273,-386.5C768.833,-386.5 779.541,-386.5 789.855,-386.5"/>
<polygon fill="midnightblue" stroke="midnightblue" points="758.214,-383 748.214,-386.5 758.214,-390 758.214,-383"/>
</g>
<!-- Node11&#45;&gt;Node8 -->
<g id="edge11" class="edge"><title>Node11&#45;&gt;Node8</title>
<path fill="none" stroke="midnightblue" d="M921.852,-373.96C927.742,-372.064 933.551,-369.919 939,-367.5 979.409,-349.563 1021.08,-317.278 1040.6,-301.178"/>
<polygon fill="midnightblue" stroke="midnightblue" points="920.5,-370.711 911.914,-376.918 922.497,-377.42 920.5,-370.711"/>
</g>
<!-- Node13 -->
<g id="node13" class="node"><title>Node13</title>
<g id="a_node13"><a xlink:href="../../d9/d73/classOpenGLGraph.html#acaad9aa036130e655da7e5be30e6efec" target="_top" xlink:title="OpenGLGraph::Initialize">
<polygon fill="white" stroke="black" points="412.5,-59 412.5,-78 533.5,-78 533.5,-59 412.5,-59"/>
<text text-anchor="middle" x="473" y="-66" font-family="Helvetica,sans-Serif" font-size="10.00">OpenGLGraph::Initialize</text>
</a>
</g>
</g>
<!-- Node12&#45;&gt;Node13 -->
<g id="edge13" class="edge"><title>Node12&#45;&gt;Node13</title>
<path fill="none" stroke="midnightblue" d="M333.517,-95.0106C361.84,-89.5886 395.242,-83.1942 422.146,-78.0439"/>
<polygon fill="midnightblue" stroke="midnightblue" points="332.497,-91.6422 323.334,-96.96 333.813,-98.5173 332.497,-91.6422"/>
</g>
<!-- Node14 -->
<g id="node14" class="node"><title>Node14</title>
<g id="a_node14"><a xlink:href="../../d9/d73/classOpenGLGraph.html#a8669101eb7694a7697012faed34da3ca" target="_top" xlink:title="OpenGLGraph::resized">
<polygon fill="white" stroke="black" points="614.5,-88 614.5,-107 730.5,-107 730.5,-88 614.5,-88"/>
<text text-anchor="middle" x="672.5" y="-95" font-family="Helvetica,sans-Serif" font-size="10.00">OpenGLGraph::resized</text>
</a>
</g>
</g>
<!-- Node12&#45;&gt;Node14 -->
<g id="edge15" class="edge"><title>Node12&#45;&gt;Node14</title>
<path fill="none" stroke="midnightblue" d="M340.569,-104.983C417.36,-103.247 541.85,-100.432 614.26,-98.7944"/>
<polygon fill="midnightblue" stroke="midnightblue" points="340.442,-101.485 330.524,-105.211 340.6,-108.483 340.442,-101.485"/>
</g>
<!-- Node13&#45;&gt;Node4 -->
<g id="edge14" class="edge"><title>Node13&#45;&gt;Node4</title>
<path fill="none" stroke="midnightblue" d="M543.532,-58.6422C568.156,-55.1513 595.444,-51.2827 618.473,-48.0177"/>
<polygon fill="midnightblue" stroke="midnightblue" points="542.934,-55.192 533.524,-60.0611 543.917,-62.1227 542.934,-55.192"/>
</g>
<!-- Node14&#45;&gt;Node8 -->
<g id="edge16" class="edge"><title>Node14&#45;&gt;Node8</title>
<path fill="none" stroke="midnightblue" d="M740.844,-99.7922C797.39,-104.438 878.419,-117.666 939,-154.5 993.269,-187.496 1033.37,-256.1 1046.96,-281.639"/>
<polygon fill="midnightblue" stroke="midnightblue" points="740.815,-96.2802 730.581,-99.0209 740.29,-103.261 740.815,-96.2802"/>
</g>
<!-- Node16 -->
<g id="node16" class="node"><title>Node16</title>
<g id="a_node16"><a xlink:href="../../d9/d73/classOpenGLGraph.html#a9a3ee0eac1e021ad97a17ab5e8f52d3c" target="_top" xlink:title="OpenGLGraph::Fit">
<polygon fill="white" stroke="black" points="425,-325 425,-344 521,-344 521,-325 425,-325"/>
<text text-anchor="middle" x="473" y="-332" font-family="Helvetica,sans-Serif" font-size="10.00">OpenGLGraph::Fit</text>
</a>
</g>
</g>
<!-- Node15&#45;&gt;Node16 -->
<g id="edge18" class="edge"><title>Node15&#45;&gt;Node16</title>
<path fill="none" stroke="midnightblue" d="M292.203,-255.613C313.339,-272.981 349.448,-300.189 385,-315.5 397.495,-320.881 411.681,-324.808 424.917,-327.644"/>
<polygon fill="midnightblue" stroke="midnightblue" points="294.275,-252.783 284.36,-249.051 289.783,-258.152 294.275,-252.783"/>
</g>
<!-- Node18 -->
<g id="node18" class="node"><title>Node18</title>
<g id="a_node18"><a xlink:href="../../d9/d73/classOpenGLGraph.html#a2dbaa869acf3cefe5a6e4d58e24e7605" target="_top" xlink:title="Resets displayed area to initial area. ">
<polygon fill="white" stroke="black" points="406.5,-287 406.5,-306 539.5,-306 539.5,-287 406.5,-287"/>
<text text-anchor="middle" x="473" y="-294" font-family="Helvetica,sans-Serif" font-size="10.00">OpenGLGraph::ResetView</text>
</a>
</g>
</g>
<!-- Node15&#45;&gt;Node18 -->
<g id="edge21" class="edge"><title>Node15&#45;&gt;Node18</title>
<path fill="none" stroke="midnightblue" d="M308.427,-252.543C330.245,-260.406 359.032,-270.265 385,-277.5 397.361,-280.944 410.852,-284.152 423.441,-286.915"/>
<polygon fill="midnightblue" stroke="midnightblue" points="309.522,-249.217 298.928,-249.088 307.129,-255.796 309.522,-249.217"/>
</g>
<!-- Node22 -->
<g id="node22" class="node"><title>Node22</title>
<g id="a_node22"><a xlink:href="../../d9/d73/classOpenGLGraph.html#a282b526993b3d03b772574797f844c85" target="_top" xlink:title="Sets initialy displayed data area, when resetting zoom it will be reset to this area. ">
<polygon fill="white" stroke="black" points="385,-211 385,-230 561,-230 561,-211 385,-211"/>
<text text-anchor="middle" x="473" y="-218" font-family="Helvetica,sans-Serif" font-size="10.00">OpenGLGraph::SetInitialDisplayArea</text>
</a>
</g>
</g>
<!-- Node15&#45;&gt;Node22 -->
<g id="edge27" class="edge"><title>Node15&#45;&gt;Node22</title>
<path fill="none" stroke="midnightblue" d="M359.097,-231.307C367.672,-230.486 376.385,-229.652 384.974,-228.83"/>
<polygon fill="midnightblue" stroke="midnightblue" points="358.732,-227.826 349.111,-232.263 359.399,-234.794 358.732,-227.826"/>
</g>
<!-- Node26 -->
<g id="node26" class="node"><title>Node26</title>
<g id="a_node26"><a xlink:href="../../d9/d73/classOpenGLGraph.html#afff3c6ec0cdcd16aab500d782aee1bae" target="_top" xlink:title="Changes X and Y axis center and span values. ">
<polygon fill="white" stroke="black" points="418,-363 418,-382 528,-382 528,-363 418,-363"/>
<text text-anchor="middle" x="473" y="-370" font-family="Helvetica,sans-Serif" font-size="10.00">OpenGLGraph::Zoom</text>
</a>
</g>
</g>
<!-- Node15&#45;&gt;Node26 -->
<g id="edge32" class="edge"><title>Node15&#45;&gt;Node26</title>
<path fill="none" stroke="midnightblue" d="M285.923,-257.714C304.402,-283.314 341.645,-329.49 385,-353.5 395.008,-359.043 406.5,-362.968 417.781,-365.749"/>
<polygon fill="midnightblue" stroke="midnightblue" points="288.609,-255.45 279.988,-249.292 282.888,-259.482 288.609,-255.45"/>
</g>
<!-- Node27 -->
<g id="node27" class="node"><title>Node27</title>
<g id="a_node27"><a xlink:href="../../d9/d73/classOpenGLGraph.html#a579660d0ad3573a723d0421534795309" target="_top" xlink:title="Zooms in area selected by window pixels. ">
<polygon fill="white" stroke="black" points="407.5,-249 407.5,-268 538.5,-268 538.5,-249 407.5,-249"/>
<text text-anchor="middle" x="473" y="-256" font-family="Helvetica,sans-Serif" font-size="10.00">OpenGLGraph::ZoomRect</text>
</a>
</g>
</g>
<!-- Node15&#45;&gt;Node27 -->
<g id="edge34" class="edge"><title>Node15&#45;&gt;Node27</title>
<path fill="none" stroke="midnightblue" d="M359.092,-247.693C375.25,-249.239 391.9,-250.833 407.286,-252.306"/>
<polygon fill="midnightblue" stroke="midnightblue" points="359.399,-244.206 349.111,-246.737 358.732,-251.174 359.399,-244.206"/>
</g>
<!-- Node28 -->
<g id="node28" class="node"><title>Node28</title>
<g id="a_node28"><a xlink:href="../../d9/d73/classOpenGLGraph.html#a049c984012fb0da5caf0888e5263517e" target="_top" xlink:title="Changes X axis center and span values. ">
<polygon fill="white" stroke="black" points="415,-173 415,-192 531,-192 531,-173 415,-173"/>
<text text-anchor="middle" x="473" y="-180" font-family="Helvetica,sans-Serif" font-size="10.00">OpenGLGraph::ZoomX</text>
</a>
</g>
</g>
<!-- Node15&#45;&gt;Node28 -->
<g id="edge36" class="edge"><title>Node15&#45;&gt;Node28</title>
<path fill="none" stroke="midnightblue" d="M308.427,-226.457C330.245,-218.594 359.032,-208.735 385,-201.5 397.361,-198.056 410.852,-194.848 423.441,-192.085"/>
<polygon fill="midnightblue" stroke="midnightblue" points="307.129,-223.204 298.928,-229.912 309.522,-229.783 307.129,-223.204"/>
</g>
<!-- Node29 -->
<g id="node29" class="node"><title>Node29</title>
<g id="a_node29"><a xlink:href="../../d9/d73/classOpenGLGraph.html#a446a0ea1b2953bd6735a99e7b87256cc" target="_top" xlink:title="Changes Y axis center and span values. ">
<polygon fill="white" stroke="black" points="415,-135 415,-154 531,-154 531,-135 415,-135"/>
<text text-anchor="middle" x="473" y="-142" font-family="Helvetica,sans-Serif" font-size="10.00">OpenGLGraph::ZoomY</text>
</a>
</g>
</g>
<!-- Node15&#45;&gt;Node29 -->
<g id="edge37" class="edge"><title>Node15&#45;&gt;Node29</title>
<path fill="none" stroke="midnightblue" d="M292.203,-223.387C313.339,-206.019 349.448,-178.811 385,-163.5 394.372,-159.464 404.694,-156.246 414.853,-153.693"/>
<polygon fill="midnightblue" stroke="midnightblue" points="289.783,-220.848 284.36,-229.949 294.275,-226.217 289.783,-220.848"/>
</g>
<!-- Node17 -->
<g id="node17" class="node"><title>Node17</title>
<g id="a_node17"><a xlink:href="../../d9/d73/classOpenGLGraph.html#a711c81a87978a539bd5cd593b51d0ec9" target="_top" xlink:title="OpenGLGraph::onFit">
<polygon fill="white" stroke="black" points="808,-339 808,-358 915,-358 915,-339 808,-339"/>
<text text-anchor="middle" x="861.5" y="-346" font-family="Helvetica,sans-Serif" font-size="10.00">OpenGLGraph::onFit</text>
</a>
</g>
</g>
<!-- Node16&#45;&gt;Node17 -->
<g id="edge19" class="edge"><title>Node16&#45;&gt;Node17</title>
<path fill="none" stroke="midnightblue" d="M531.169,-336.571C605.865,-339.276 735.635,-343.977 807.967,-346.597"/>
<polygon fill="midnightblue" stroke="midnightblue" points="531.126,-333.067 521.006,-336.203 530.873,-340.062 531.126,-333.067"/>
</g>
<!-- Node17&#45;&gt;Node8 -->
<g id="edge20" class="edge"><title>Node17&#45;&gt;Node8</title>
<path fill="none" stroke="midnightblue" d="M913.462,-336.454C922.019,-334.257 930.785,-331.897 939,-329.5 969.002,-320.745 1002.93,-309.098 1025.71,-301.016"/>
<polygon fill="midnightblue" stroke="midnightblue" points="912.397,-333.113 903.557,-338.952 914.109,-339.901 912.397,-333.113"/>
</g>
<!-- Node19 -->
<g id="node19" class="node"><title>Node19</title>
<g id="a_node19"><a xlink:href="../../d9/d73/classOpenGLGraph.html#aa3e90966ac655d6822e26f8ae4535354" target="_top" xlink:title="Handles mouse button releasing events. ">
<polygon fill="white" stroke="black" points="602.5,-263 602.5,-282 742.5,-282 742.5,-263 602.5,-263"/>
<text text-anchor="middle" x="672.5" y="-270" font-family="Helvetica,sans-Serif" font-size="10.00">OpenGLGraph::OnMouseUp</text>
</a>
</g>
</g>
<!-- Node18&#45;&gt;Node19 -->
<g id="edge22" class="edge"><title>Node18&#45;&gt;Node19</title>
<path fill="none" stroke="midnightblue" d="M549.8,-287.289C567.067,-285.191 585.325,-282.972 602.301,-280.909"/>
<polygon fill="midnightblue" stroke="midnightblue" points="549.269,-283.828 539.765,-288.508 550.114,-290.776 549.269,-283.828"/>
</g>
<!-- Node21 -->
<g id="node21" class="node"><title>Node21</title>
<g id="a_node21"><a xlink:href="../../d9/d73/classOpenGLGraph.html#a14f86f25c9d696e01b630dd046d20343" target="_top" xlink:title="OpenGLGraph::onReset">
<polygon fill="white" stroke="black" points="800.5,-301 800.5,-320 922.5,-320 922.5,-301 800.5,-301"/>
<text text-anchor="middle" x="861.5" y="-308" font-family="Helvetica,sans-Serif" font-size="10.00">OpenGLGraph::onReset</text>
</a>
</g>
</g>
<!-- Node18&#45;&gt;Node21 -->
<g id="edge25" class="edge"><title>Node18&#45;&gt;Node21</title>
<path fill="none" stroke="midnightblue" d="M549.662,-299.241C622.996,-301.897 732.776,-305.874 800.345,-308.321"/>
<polygon fill="midnightblue" stroke="midnightblue" points="549.685,-295.739 539.564,-298.875 549.431,-302.735 549.685,-295.739"/>
</g>
<!-- Node20 -->
<g id="node20" class="node"><title>Node20</title>
<g id="a_node20"><a xlink:href="../../d9/d73/classOpenGLGraph.html#afbc9d59dcf612df7d7f3183c8e9520cc" target="_top" xlink:title="OpenGLGraph::mouseReleased">
<polygon fill="white" stroke="black" points="784,-263 784,-282 939,-282 939,-263 784,-263"/>
<text text-anchor="middle" x="861.5" y="-270" font-family="Helvetica,sans-Serif" font-size="10.00">OpenGLGraph::mouseReleased</text>
</a>
</g>
</g>
<!-- Node19&#45;&gt;Node20 -->
<g id="edge23" class="edge"><title>Node19&#45;&gt;Node20</title>
<path fill="none" stroke="midnightblue" d="M752.783,-272.5C763.062,-272.5 773.577,-272.5 783.813,-272.5"/>
<polygon fill="midnightblue" stroke="midnightblue" points="752.601,-269 742.601,-272.5 752.601,-276 752.601,-269"/>
</g>
<!-- Node20&#45;&gt;Node8 -->
<g id="edge24" class="edge"><title>Node20&#45;&gt;Node8</title>
<path fill="none" stroke="midnightblue" d="M949.074,-281.18C957.679,-282.043 966.375,-282.915 974.875,-283.767"/>
<polygon fill="midnightblue" stroke="midnightblue" points="949.33,-277.688 939.031,-280.173 948.632,-284.654 949.33,-277.688"/>
</g>
<!-- Node21&#45;&gt;Node8 -->
<g id="edge26" class="edge"><title>Node21&#45;&gt;Node8</title>
<path fill="none" stroke="midnightblue" d="M933.005,-303.431C946.667,-302.061 961.05,-300.619 974.91,-299.229"/>
<polygon fill="midnightblue" stroke="midnightblue" points="932.32,-299.982 922.719,-304.462 933.019,-306.947 932.32,-299.982"/>
</g>
<!-- Node22&#45;&gt;Node6 -->
<g id="edge28" class="edge"><title>Node22&#45;&gt;Node6</title>
<path fill="none" stroke="midnightblue" d="M550.402,-207.21C554.089,-205.526 557.646,-203.631 561,-201.5 583.208,-187.388 574.493,-168.13 597,-154.5 630.561,-134.175 878.83,-98.7427 993.832,-83.1904"/>
<polygon fill="midnightblue" stroke="midnightblue" points="548.993,-204.005 541.016,-210.979 551.601,-210.501 548.993,-204.005"/>
</g>
<!-- Node23 -->
<g id="node23" class="node"><title>Node23</title>
<g id="a_node23"><a xlink:href="../../d5/d45/classfftviewer__frFFTviewer.html#a5d05e1c23d746034fd1c7d642e97855f" target="_top" xlink:title="fftviewer_frFFTviewer\l::OnFmtChange">
<polygon fill="white" stroke="black" points="616.5,-213.5 616.5,-243.5 728.5,-243.5 728.5,-213.5 616.5,-213.5"/>
<text text-anchor="start" x="624.5" y="-231.5" font-family="Helvetica,sans-Serif" font-size="10.00">fftviewer_frFFTviewer</text>
<text text-anchor="middle" x="672.5" y="-220.5" font-family="Helvetica,sans-Serif" font-size="10.00">::OnFmtChange</text>
</a>
</g>
</g>
<!-- Node22&#45;&gt;Node23 -->
<g id="edge29" class="edge"><title>Node22&#45;&gt;Node23</title>
<path fill="none" stroke="midnightblue" d="M571.322,-224.442C586.758,-225.067 602.24,-225.695 616.26,-226.262"/>
<polygon fill="midnightblue" stroke="midnightblue" points="571.335,-220.94 561.201,-224.032 571.051,-227.934 571.335,-220.94"/>
</g>
<!-- Node24 -->
<g id="node24" class="node"><title>Node24</title>
<g id="a_node24"><a xlink:href="../../d5/d45/classfftviewer__frFFTviewer.html#a59a6a02ad1a3ce13b1b78cd41817bba6" target="_top" xlink:title="fftviewer_frFFTviewer\l::SetNyquistFrequency">
<polygon fill="white" stroke="black" points="614,-164.5 614,-194.5 731,-194.5 731,-164.5 614,-164.5"/>
<text text-anchor="start" x="622" y="-182.5" font-family="Helvetica,sans-Serif" font-size="10.00">fftviewer_frFFTviewer</text>
<text text-anchor="middle" x="672.5" y="-171.5" font-family="Helvetica,sans-Serif" font-size="10.00">::SetNyquistFrequency</text>
</a>
</g>
</g>
<!-- Node22&#45;&gt;Node24 -->
<g id="edge30" class="edge"><title>Node22&#45;&gt;Node24</title>
<path fill="none" stroke="midnightblue" d="M529.624,-208.953C555.942,-203.489 587.346,-196.97 613.91,-191.455"/>
<polygon fill="midnightblue" stroke="midnightblue" points="528.887,-205.531 519.807,-210.991 530.31,-212.385 528.887,-205.531"/>
</g>
<!-- Node25 -->
<g id="node25" class="node"><title>Node25</title>
<g id="a_node25"><a xlink:href="../../d5/d45/classfftviewer__frFFTviewer.html#a6cbdad6867fdd2d774d3f63cf4af0f7a" target="_top" xlink:title="fftviewer_frFFTviewer\l::OnStreamChange">
<polygon fill="white" stroke="black" points="805.5,-164.5 805.5,-194.5 917.5,-194.5 917.5,-164.5 805.5,-164.5"/>
<text text-anchor="start" x="813.5" y="-182.5" font-family="Helvetica,sans-Serif" font-size="10.00">fftviewer_frFFTviewer</text>
<text text-anchor="middle" x="861.5" y="-171.5" font-family="Helvetica,sans-Serif" font-size="10.00">::OnStreamChange</text>
</a>
</g>
</g>
<!-- Node24&#45;&gt;Node25 -->
<g id="edge31" class="edge"><title>Node24&#45;&gt;Node25</title>
<path fill="none" stroke="midnightblue" d="M741.285,-179.5C762.317,-179.5 785.231,-179.5 805.299,-179.5"/>
<polygon fill="midnightblue" stroke="midnightblue" points="741.132,-176 731.132,-179.5 741.132,-183 741.132,-176"/>
</g>
<!-- Node26&#45;&gt;Node10 -->
<g id="edge33" class="edge"><title>Node26&#45;&gt;Node10</title>
<path fill="none" stroke="midnightblue" d="M538.364,-377.062C556.987,-378.383 577.476,-379.835 596.679,-381.196"/>
<polygon fill="midnightblue" stroke="midnightblue" points="538.451,-373.56 528.229,-376.344 537.956,-380.542 538.451,-373.56"/>
</g>
<!-- Node27&#45;&gt;Node19 -->
<g id="edge35" class="edge"><title>Node27&#45;&gt;Node19</title>
<path fill="none" stroke="midnightblue" d="M548.851,-263.806C566.384,-265.049 584.988,-266.367 602.264,-267.592"/>
<polygon fill="midnightblue" stroke="midnightblue" points="548.891,-260.3 538.669,-263.084 548.396,-267.283 548.891,-260.3"/>
</g>
</g>
</svg>
