<?xml version="1.0" encoding="UTF-8" standalone="no"?>
<!DOCTYPE svg PUBLIC "-//W3C//DTD SVG 1.1//EN"
 "http://www.w3.org/Graphics/SVG/1.1/DTD/svg11.dtd">
<!-- Generated by graphviz version 2.38.0 (20140413.2041)
 -->
<!-- Title: OpenGLGraph::middleClick Pages: 1 -->
<svg width="526pt" height="28pt"
 viewBox="0.00 0.00 526.00 28.00" xmlns="http://www.w3.org/2000/svg" xmlns:xlink="http://www.w3.org/1999/xlink">
<g id="graph0" class="graph" transform="scale(1 1) rotate(0) translate(4 24)">
<title>OpenGLGraph::middleClick</title>
<polygon fill="white" stroke="none" points="-4,4 -4,-24 522,-24 522,4 -4,4"/>
<!-- Node1 -->
<g id="node1" class="node"><title>Node1</title>
<polygon fill="#bfbfbf" stroke="black" points="0,-0.5 0,-19.5 136,-19.5 136,-0.5 0,-0.5"/>
<text text-anchor="middle" x="68" y="-7.5" font-family="Helvetica,sans-Serif" font-size="10.00">OpenGLGraph::middleClick</text>
</g>
<!-- Node2 -->
<g id="node2" class="node"><title>Node2</title>
<g id="a_node2"><a xlink:href="../../d9/d73/classOpenGLGraph.html#acf9180324973c4dda96a4c22f0618096" target="_top" xlink:title="Handles mouse button pressing events. ">
<polygon fill="white" stroke="black" points="172,-0.5 172,-19.5 324,-19.5 324,-0.5 172,-0.5"/>
<text text-anchor="middle" x="248" y="-7.5" font-family="Helvetica,sans-Serif" font-size="10.00">OpenGLGraph::OnMouseDown</text>
</a>
</g>
</g>
<!-- Node1&#45;&gt;Node2 -->
<g id="edge1" class="edge"><title>Node1&#45;&gt;Node2</title>
<path fill="none" stroke="midnightblue" d="M136.041,-10C144.47,-10 153.179,-10 161.84,-10"/>
<polygon fill="midnightblue" stroke="midnightblue" points="161.965,-13.5001 171.965,-10 161.965,-6.5001 161.965,-13.5001"/>
</g>
<!-- Node3 -->
<g id="node3" class="node"><title>Node3</title>
<g id="a_node3"><a xlink:href="../../d9/d73/classOpenGLGraph.html#a8ead815928a6aca3f922ffd3af2a109d" target="_top" xlink:title="Checks if mouse clicked on marker. ">
<polygon fill="white" stroke="black" points="360,-0.5 360,-19.5 518,-19.5 518,-0.5 360,-0.5"/>
<text text-anchor="middle" x="439" y="-7.5" font-family="Helvetica,sans-Serif" font-size="10.00">OpenGLGraph::clickedOnMarker</text>
</a>
</g>
</g>
<!-- Node2&#45;&gt;Node3 -->
<g id="edge2" class="edge"><title>Node2&#45;&gt;Node3</title>
<path fill="none" stroke="midnightblue" d="M324.241,-10C332.676,-10 341.324,-10 349.902,-10"/>
<polygon fill="midnightblue" stroke="midnightblue" points="349.922,-13.5001 359.922,-10 349.922,-6.5001 349.922,-13.5001"/>
</g>
</g>
</svg>
