<?xml version="1.0" encoding="UTF-8" standalone="no"?>
<!DOCTYPE svg PUBLIC "-//W3C//DTD SVG 1.1//EN"
 "http://www.w3.org/Graphics/SVG/1.1/DTD/svg11.dtd">
<!-- Generated by graphviz version 2.38.0 (20140413.2041)
 -->
<!-- Title: OpenGLGraph::RemoveMarker Pages: 1 -->
<svg width="550pt" height="28pt"
 viewBox="0.00 0.00 550.00 28.00" xmlns="http://www.w3.org/2000/svg" xmlns:xlink="http://www.w3.org/1999/xlink">
<g id="graph0" class="graph" transform="scale(1 1) rotate(0) translate(4 24)">
<title>OpenGLGraph::RemoveMarker</title>
<polygon fill="white" stroke="none" points="-4,4 -4,-24 546,-24 546,4 -4,4"/>
<!-- Node1 -->
<g id="node1" class="node"><title>Node1</title>
<polygon fill="#bfbfbf" stroke="black" points="0,-0.5 0,-19.5 152,-19.5 152,-0.5 0,-0.5"/>
<text text-anchor="middle" x="76" y="-7.5" font-family="Helvetica,sans-Serif" font-size="10.00">OpenGLGraph::RemoveMarker</text>
</g>
<!-- Node2 -->
<g id="node2" class="node"><title>Node2</title>
<g id="a_node2"><a xlink:href="../../d9/d73/classOpenGLGraph.html#a1149fbe7bdfd828784ff27149df05bb5" target="_top" xlink:title="OpenGLGraph::onRemoveMarker">
<polygon fill="white" stroke="black" points="188,-0.5 188,-19.5 350,-19.5 350,-0.5 188,-0.5"/>
<text text-anchor="middle" x="269" y="-7.5" font-family="Helvetica,sans-Serif" font-size="10.00">OpenGLGraph::onRemoveMarker</text>
</a>
</g>
</g>
<!-- Node1&#45;&gt;Node2 -->
<g id="edge1" class="edge"><title>Node1&#45;&gt;Node2</title>
<path fill="none" stroke="midnightblue" d="M162.442,-10C170.885,-10 179.433,-10 187.82,-10"/>
<polygon fill="midnightblue" stroke="midnightblue" points="162.214,-6.5001 152.214,-10 162.214,-13.5001 162.214,-6.5001"/>
</g>
<!-- Node3 -->
<g id="node3" class="node"><title>Node3</title>
<g id="a_node3"><a xlink:href="../../d9/d73/classOpenGLGraph.html#ae8a4b37513a42fc6604a56ba03a24238" target="_top" xlink:title="OpenGLGraph::SetInfoMessage">
<polygon fill="white" stroke="black" points="386,-0.5 386,-19.5 542,-19.5 542,-0.5 386,-0.5"/>
<text text-anchor="middle" x="464" y="-7.5" font-family="Helvetica,sans-Serif" font-size="10.00">OpenGLGraph::SetInfoMessage</text>
</a>
</g>
</g>
<!-- Node2&#45;&gt;Node3 -->
<g id="edge2" class="edge"><title>Node2&#45;&gt;Node3</title>
<path fill="none" stroke="midnightblue" d="M360.198,-10C368.778,-10 377.425,-10 385.865,-10"/>
<polygon fill="midnightblue" stroke="midnightblue" points="360.173,-6.5001 350.173,-10 360.173,-13.5001 360.173,-6.5001"/>
</g>
</g>
</svg>
