<?xml version="1.0" encoding="UTF-8" standalone="no"?>
<!DOCTYPE svg PUBLIC "-//W3C//DTD SVG 1.1//EN"
 "http://www.w3.org/Graphics/SVG/1.1/DTD/svg11.dtd">
<!-- Generated by graphviz version 2.38.0 (20140413.2041)
 -->
<!-- Title: OpenGLGraph::switchToDataView Pages: 1 -->
<svg width="870pt" height="78pt"
 viewBox="0.00 0.00 870.00 77.50" xmlns="http://www.w3.org/2000/svg" xmlns:xlink="http://www.w3.org/1999/xlink">
<g id="graph0" class="graph" transform="scale(1 1) rotate(0) translate(4 73.5)">
<title>OpenGLGraph::switchToDataView</title>
<polygon fill="white" stroke="none" points="-4,4 -4,-73.5 866,-73.5 866,4 -4,4"/>
<!-- Node1 -->
<g id="node1" class="node"><title>Node1</title>
<polygon fill="#bfbfbf" stroke="black" points="0,-22.5 0,-41.5 167,-41.5 167,-22.5 0,-22.5"/>
<text text-anchor="middle" x="83.5" y="-29.5" font-family="Helvetica,sans-Serif" font-size="10.00">OpenGLGraph::switchToDataView</text>
</g>
<!-- Node2 -->
<g id="node2" class="node"><title>Node2</title>
<g id="a_node2"><a xlink:href="../../d9/d73/classOpenGLGraph.html#af2f1cb689fb6884d8509877ecdf29fb8" target="_top" xlink:title="Draw graph data series. ">
<polygon fill="white" stroke="black" points="414,-22.5 414,-41.5 522,-41.5 522,-22.5 414,-22.5"/>
<text text-anchor="middle" x="468" y="-29.5" font-family="Helvetica,sans-Serif" font-size="10.00">OpenGLGraph::Draw</text>
</a>
</g>
</g>
<!-- Node1&#45;&gt;Node2 -->
<g id="edge1" class="edge"><title>Node1&#45;&gt;Node2</title>
<path fill="none" stroke="midnightblue" d="M177.298,-32C251.419,-32 352.667,-32 413.748,-32"/>
<polygon fill="midnightblue" stroke="midnightblue" points="177.026,-28.5001 167.026,-32 177.026,-35.5001 177.026,-28.5001"/>
</g>
<!-- Node7 -->
<g id="node7" class="node"><title>Node7</title>
<g id="a_node7"><a xlink:href="../../d9/d73/classOpenGLGraph.html#ae3501103179479cd9e60e9654e4e557f" target="_top" xlink:title="Draw static elements (background colors, titles, grid) ">
<polygon fill="white" stroke="black" points="203,-3.5 203,-22.5 378,-22.5 378,-3.5 203,-3.5"/>
<text text-anchor="middle" x="290.5" y="-10.5" font-family="Helvetica,sans-Serif" font-size="10.00">OpenGLGraph::DrawStaticElements</text>
</a>
</g>
</g>
<!-- Node1&#45;&gt;Node7 -->
<g id="edge6" class="edge"><title>Node1&#45;&gt;Node7</title>
<path fill="none" stroke="midnightblue" d="M177.482,-23.3821C185.885,-22.6033 194.374,-21.8166 202.721,-21.043"/>
<polygon fill="midnightblue" stroke="midnightblue" points="176.925,-19.9187 167.29,-24.3267 177.571,-26.8888 176.925,-19.9187"/>
</g>
<!-- Node3 -->
<g id="node3" class="node"><title>Node3</title>
<g id="a_node3"><a xlink:href="../../d5/d45/classfftviewer__frFFTviewer.html#aa01d7b5ad35c15051574834869accae0" target="_top" xlink:title="fftviewer_frFFTviewer\l::OnUpdatePlots">
<polygon fill="white" stroke="black" points="558,-39 558,-69 670,-69 670,-39 558,-39"/>
<text text-anchor="start" x="566" y="-57" font-family="Helvetica,sans-Serif" font-size="10.00">fftviewer_frFFTviewer</text>
<text text-anchor="middle" x="614" y="-46" font-family="Helvetica,sans-Serif" font-size="10.00">::OnUpdatePlots</text>
</a>
</g>
</g>
<!-- Node2&#45;&gt;Node3 -->
<g id="edge2" class="edge"><title>Node2&#45;&gt;Node3</title>
<path fill="none" stroke="midnightblue" d="M532.358,-41.6797C540.767,-42.9644 549.336,-44.2735 557.596,-45.5355"/>
<polygon fill="midnightblue" stroke="midnightblue" points="532.625,-38.18 522.211,-40.1295 531.568,-45.0997 532.625,-38.18"/>
</g>
<!-- Node5 -->
<g id="node5" class="node"><title>Node5</title>
<g id="a_node5"><a xlink:href="../../d9/d73/classOpenGLGraph.html#a3ec7e57bd2baa9fffbd14a0fb952e8a8" target="_top" xlink:title="OpenGLGraph::render">
<polygon fill="white" stroke="black" points="558,-0.5 558,-19.5 670,-19.5 670,-0.5 558,-0.5"/>
<text text-anchor="middle" x="614" y="-7.5" font-family="Helvetica,sans-Serif" font-size="10.00">OpenGLGraph::render</text>
</a>
</g>
</g>
<!-- Node2&#45;&gt;Node5 -->
<g id="edge4" class="edge"><title>Node2&#45;&gt;Node5</title>
<path fill="none" stroke="midnightblue" d="M532.358,-22.3203C540.767,-21.0356 549.336,-19.7265 557.596,-18.4645"/>
<polygon fill="midnightblue" stroke="midnightblue" points="531.568,-18.9003 522.211,-23.8705 532.625,-25.82 531.568,-18.9003"/>
</g>
<!-- Node4 -->
<g id="node4" class="node"><title>Node4</title>
<g id="a_node4"><a xlink:href="../../d5/d45/classfftviewer__frFFTviewer.html#a4bcd0ebcddfbe4227a156a426db9d5b9" target="_top" xlink:title="Constructor. ">
<polygon fill="white" stroke="black" points="725,-39 725,-69 843,-69 843,-39 725,-39"/>
<text text-anchor="start" x="733" y="-57" font-family="Helvetica,sans-Serif" font-size="10.00">fftviewer_frFFTviewer</text>
<text text-anchor="middle" x="784" y="-46" font-family="Helvetica,sans-Serif" font-size="10.00">::fftviewer_frFFTviewer</text>
</a>
</g>
</g>
<!-- Node3&#45;&gt;Node4 -->
<g id="edge3" class="edge"><title>Node3&#45;&gt;Node4</title>
<path fill="none" stroke="midnightblue" d="M680.094,-54C694.886,-54 710.503,-54 724.978,-54"/>
<polygon fill="midnightblue" stroke="midnightblue" points="680.01,-50.5001 670.009,-54 680.009,-57.5001 680.01,-50.5001"/>
</g>
<!-- Node6 -->
<g id="node6" class="node"><title>Node6</title>
<g id="a_node6"><a xlink:href="../../d9/d73/classOpenGLGraph.html#ae8a4b37513a42fc6604a56ba03a24238" target="_top" xlink:title="OpenGLGraph::SetInfoMessage">
<polygon fill="white" stroke="black" points="706,-0.5 706,-19.5 862,-19.5 862,-0.5 706,-0.5"/>
<text text-anchor="middle" x="784" y="-7.5" font-family="Helvetica,sans-Serif" font-size="10.00">OpenGLGraph::SetInfoMessage</text>
</a>
</g>
</g>
<!-- Node5&#45;&gt;Node6 -->
<g id="edge5" class="edge"><title>Node5&#45;&gt;Node6</title>
<path fill="none" stroke="midnightblue" d="M680.15,-10C688.592,-10 697.302,-10 705.914,-10"/>
<polygon fill="midnightblue" stroke="midnightblue" points="680.01,-6.5001 670.009,-10 680.009,-13.5001 680.01,-6.5001"/>
</g>
<!-- Node7&#45;&gt;Node2 -->
<g id="edge7" class="edge"><title>Node7&#45;&gt;Node2</title>
<path fill="none" stroke="midnightblue" d="M388.408,-23.4915C397.056,-24.4278 405.585,-25.351 413.652,-26.2244"/>
<polygon fill="midnightblue" stroke="midnightblue" points="388.54,-19.9854 378.222,-22.3887 387.787,-26.9448 388.54,-19.9854"/>
</g>
</g>
</svg>
