<?xml version="1.0" encoding="UTF-8" standalone="no"?>
<!DOCTYPE svg PUBLIC "-//W3C//DTD SVG 1.1//EN"
 "http://www.w3.org/Graphics/SVG/1.1/DTD/svg11.dtd">
<!-- Generated by graphviz version 2.38.0 (20140413.2041)
 -->
<!-- Title: OpenGLGraph::SetInitialDisplayArea Pages: 1 -->
<svg width="486pt" height="137pt"
 viewBox="0.00 0.00 486.00 137.00" xmlns="http://www.w3.org/2000/svg" xmlns:xlink="http://www.w3.org/1999/xlink">
<g id="graph0" class="graph" transform="scale(1 1) rotate(0) translate(4 133)">
<title>OpenGLGraph::SetInitialDisplayArea</title>
<polygon fill="white" stroke="none" points="-4,4 -4,-133 482,-133 482,4 -4,4"/>
<!-- Node1 -->
<g id="node1" class="node"><title>Node1</title>
<polygon fill="#bfbfbf" stroke="black" points="0,-55 0,-74 176,-74 176,-55 0,-55"/>
<text text-anchor="middle" x="88" y="-62" font-family="Helvetica,sans-Serif" font-size="10.00">OpenGLGraph::SetInitialDisplayArea</text>
</g>
<!-- Node2 -->
<g id="node2" class="node"><title>Node2</title>
<g id="a_node2"><a xlink:href="../../d5/d45/classfftviewer__frFFTviewer.html#a4bcd0ebcddfbe4227a156a426db9d5b9" target="_top" xlink:title="Constructor. ">
<polygon fill="white" stroke="black" points="212,-98.5 212,-128.5 330,-128.5 330,-98.5 212,-98.5"/>
<text text-anchor="start" x="220" y="-116.5" font-family="Helvetica,sans-Serif" font-size="10.00">fftviewer_frFFTviewer</text>
<text text-anchor="middle" x="271" y="-105.5" font-family="Helvetica,sans-Serif" font-size="10.00">::fftviewer_frFFTviewer</text>
</a>
</g>
</g>
<!-- Node1&#45;&gt;Node2 -->
<g id="edge1" class="edge"><title>Node1&#45;&gt;Node2</title>
<path fill="none" stroke="midnightblue" d="M134.027,-76.6896C158.374,-83.2808 188.654,-91.4782 214.455,-98.463"/>
<polygon fill="midnightblue" stroke="midnightblue" points="134.895,-73.2988 124.328,-74.064 133.066,-80.0556 134.895,-73.2988"/>
</g>
<!-- Node3 -->
<g id="node3" class="node"><title>Node3</title>
<g id="a_node3"><a xlink:href="../../d5/d45/classfftviewer__frFFTviewer.html#a5d05e1c23d746034fd1c7d642e97855f" target="_top" xlink:title="fftviewer_frFFTviewer\l::OnFmtChange">
<polygon fill="white" stroke="black" points="215,-49.5 215,-79.5 327,-79.5 327,-49.5 215,-49.5"/>
<text text-anchor="start" x="223" y="-67.5" font-family="Helvetica,sans-Serif" font-size="10.00">fftviewer_frFFTviewer</text>
<text text-anchor="middle" x="271" y="-56.5" font-family="Helvetica,sans-Serif" font-size="10.00">::OnFmtChange</text>
</a>
</g>
</g>
<!-- Node1&#45;&gt;Node3 -->
<g id="edge2" class="edge"><title>Node1&#45;&gt;Node3</title>
<path fill="none" stroke="midnightblue" d="M186.281,-64.5C196.076,-64.5 205.765,-64.5 214.885,-64.5"/>
<polygon fill="midnightblue" stroke="midnightblue" points="186.054,-61.0001 176.054,-64.5 186.054,-68.0001 186.054,-61.0001"/>
</g>
<!-- Node4 -->
<g id="node4" class="node"><title>Node4</title>
<g id="a_node4"><a xlink:href="../../d5/d45/classfftviewer__frFFTviewer.html#a59a6a02ad1a3ce13b1b78cd41817bba6" target="_top" xlink:title="fftviewer_frFFTviewer\l::SetNyquistFrequency">
<polygon fill="white" stroke="black" points="212.5,-0.5 212.5,-30.5 329.5,-30.5 329.5,-0.5 212.5,-0.5"/>
<text text-anchor="start" x="220.5" y="-18.5" font-family="Helvetica,sans-Serif" font-size="10.00">fftviewer_frFFTviewer</text>
<text text-anchor="middle" x="271" y="-7.5" font-family="Helvetica,sans-Serif" font-size="10.00">::SetNyquistFrequency</text>
</a>
</g>
</g>
<!-- Node1&#45;&gt;Node4 -->
<g id="edge3" class="edge"><title>Node1&#45;&gt;Node4</title>
<path fill="none" stroke="midnightblue" d="M134.027,-52.3104C158.374,-45.7192 188.654,-37.5218 214.455,-30.537"/>
<polygon fill="midnightblue" stroke="midnightblue" points="133.066,-48.9444 124.328,-54.936 134.895,-55.7012 133.066,-48.9444"/>
</g>
<!-- Node5 -->
<g id="node5" class="node"><title>Node5</title>
<g id="a_node5"><a xlink:href="../../d5/d45/classfftviewer__frFFTviewer.html#a6cbdad6867fdd2d774d3f63cf4af0f7a" target="_top" xlink:title="fftviewer_frFFTviewer\l::OnStreamChange">
<polygon fill="white" stroke="black" points="366,-0.5 366,-30.5 478,-30.5 478,-0.5 366,-0.5"/>
<text text-anchor="start" x="374" y="-18.5" font-family="Helvetica,sans-Serif" font-size="10.00">fftviewer_frFFTviewer</text>
<text text-anchor="middle" x="422" y="-7.5" font-family="Helvetica,sans-Serif" font-size="10.00">::OnStreamChange</text>
</a>
</g>
</g>
<!-- Node4&#45;&gt;Node5 -->
<g id="edge4" class="edge"><title>Node4&#45;&gt;Node5</title>
<path fill="none" stroke="midnightblue" d="M339.811,-15.5C348.577,-15.5 357.468,-15.5 365.992,-15.5"/>
<polygon fill="midnightblue" stroke="midnightblue" points="339.607,-12.0001 329.607,-15.5 339.607,-19.0001 339.607,-12.0001"/>
</g>
</g>
</svg>
