<?xml version="1.0" encoding="UTF-8" standalone="no"?>
<!DOCTYPE svg PUBLIC "-//W3C//DTD SVG 1.1//EN"
 "http://www.w3.org/Graphics/SVG/1.1/DTD/svg11.dtd">
<!-- Generated by graphviz version 2.38.0 (20140413.2041)
 -->
<!-- Title: OpenGLGraph::OpenGLGraph Pages: 1 -->
<!--zoomable 256 -->
<svg id="main" version="1.1" xmlns="http://www.w3.org/2000/svg" xmlns:xlink="http://www.w3.org/1999/xlink" xml:space="preserve" onload="init(evt)">
<style type="text/css"><![CDATA[
.edge:hover path { stroke: red; }
.edge:hover polygon { stroke: red; fill: red; }
]]></style>
<script type="text/javascript"><![CDATA[
var edges = document.getElementsByTagName('g');
if (edges && edges.length) {
  for (var i=0;i<edges.length;i++) {
    if (edges[i].id.substr(0,4)=='edge') {
      edges[i].setAttribute('class','edge');
    }
  }
}
]]></script>
        <defs>
                <circle id="rim" cx="0" cy="0" r="7"/>
                <circle id="rim2" cx="0" cy="0" r="3.5"/>
                <g id="zoomPlus">
                        <use xlink:href="#rim" fill="#404040">
                                <set attributeName="fill" to="#808080" begin="zoomplus.mouseover" end="zoomplus.mouseout"/>
                        </use>
                        <path d="M-4,0h8M0,-4v8" fill="none" stroke="white" stroke-width="1.5" pointer-events="none"/>
                </g>
                <g id="zoomMin">
                        <use xlink:href="#rim" fill="#404040">
                                <set attributeName="fill" to="#808080" begin="zoomminus.mouseover" end="zoomminus.mouseout"/>
                        </use>
                        <path d="M-4,0h8" fill="none" stroke="white" stroke-width="1.5" pointer-events="none"/>
                </g>
                <g id="dirArrow">
                        <path fill="none" stroke="white" stroke-width="1.5" d="M0,-3.0v7 M-2.5,-0.5L0,-3.0L2.5,-0.5"/>
                </g>
               <g id="resetDef">
                       <use xlink:href="#rim2" fill="#404040">
                               <set attributeName="fill" to="#808080" begin="reset.mouseover" end="reset.mouseout"/>
                       </use>
               </g>
        </defs>

<script type="text/javascript">
var viewWidth = 872;
var viewHeight = 256;
var sectionId = 'dynsection-2';
</script>
<script xlink:href="../../svgpan.js"/>
<svg id="graph" class="graph">
<g id="viewport">
<title>OpenGLGraph::OpenGLGraph</title>
<polygon fill="white" stroke="none" points="-4,4 -4,-252 868,-252 868,4 -4,4"/>
<!-- Node1 -->
<g id="node1" class="node"><title>Node1</title>
<polygon fill="#bfbfbf" stroke="black" points="0,-190.5 0,-209.5 147,-209.5 147,-190.5 0,-190.5"/>
<text text-anchor="middle" x="73.5" y="-197.5" font-family="Helvetica,sans-Serif" font-size="10.00">OpenGLGraph::OpenGLGraph</text>
</g>
<!-- Node2 -->
<g id="node2" class="node"><title>Node2</title>
<g id="a_node2"><a xlink:href="../../d4/d19/classdlgMarkers.html#a6f061381b56b0ed202f03600b4d6b59e" target="_top" xlink:title="dlgMarkers::AddDeltas">
<polygon fill="white" stroke="black" points="198.5,-228.5 198.5,-247.5 314.5,-247.5 314.5,-228.5 198.5,-228.5"/>
<text text-anchor="middle" x="256.5" y="-235.5" font-family="Helvetica,sans-Serif" font-size="10.00">dlgMarkers::AddDeltas</text>
</a>
</g>
</g>
<!-- Node1&#45;&gt;Node2 -->
<g id="edge1" class="edge"><title>Node1&#45;&gt;Node2</title>
<path fill="none" stroke="midnightblue" d="M120.174,-209.589C144.489,-214.694 174.58,-221.011 200.208,-226.392"/>
<polygon fill="midnightblue" stroke="midnightblue" points="199.649,-229.851 210.154,-228.48 201.087,-223 199.649,-229.851"/>
</g>
<!-- Node3 -->
<g id="node3" class="node"><title>Node3</title>
<g id="a_node3"><a xlink:href="../../d4/d19/classdlgMarkers.html#a48c4e3ecdb470ba087230b65e80e6648" target="_top" xlink:title="dlgMarkers::AddMarker">
<polygon fill="white" stroke="black" points="197.5,-190.5 197.5,-209.5 315.5,-209.5 315.5,-190.5 197.5,-190.5"/>
<text text-anchor="middle" x="256.5" y="-197.5" font-family="Helvetica,sans-Serif" font-size="10.00">dlgMarkers::AddMarker</text>
</a>
</g>
</g>
<!-- Node1&#45;&gt;Node3 -->
<g id="edge2" class="edge"><title>Node1&#45;&gt;Node3</title>
<path fill="none" stroke="midnightblue" d="M147.077,-200C160.27,-200 173.992,-200 187.06,-200"/>
<polygon fill="midnightblue" stroke="midnightblue" points="187.378,-203.5 197.378,-200 187.378,-196.5 187.378,-203.5"/>
</g>
<!-- Node7 -->
<g id="node7" class="node"><title>Node7</title>
<g id="a_node7"><a xlink:href="../../d9/d73/classOpenGLGraph.html#abc18a2f8685491e687b223a87833bc85" target="_top" xlink:title="OpenGLGraph::setupViewport">
<polygon fill="white" stroke="black" points="183,-114.5 183,-133.5 330,-133.5 330,-114.5 183,-114.5"/>
<text text-anchor="middle" x="256.5" y="-121.5" font-family="Helvetica,sans-Serif" font-size="10.00">OpenGLGraph::setupViewport</text>
</a>
</g>
</g>
<!-- Node1&#45;&gt;Node7 -->
<g id="edge6" class="edge"><title>Node1&#45;&gt;Node7</title>
<path fill="none" stroke="midnightblue" d="M97.4238,-190.375C129.248,-177.012 186.974,-152.773 223.165,-137.577"/>
<polygon fill="midnightblue" stroke="midnightblue" points="224.897,-140.646 232.762,-133.547 222.187,-134.192 224.897,-140.646"/>
</g>
<!-- Node4 -->
<g id="node4" class="node"><title>Node4</title>
<g id="a_node4"><a xlink:href="../../d4/d19/classdlgMarkers.html#a2a48a1c7799e811fe6f49402114f93f4" target="_top" xlink:title="dlgMarkers::OnMarkerChange">
<polygon fill="white" stroke="black" points="366,-228.5 366,-247.5 513,-247.5 513,-228.5 366,-228.5"/>
<text text-anchor="middle" x="439.5" y="-235.5" font-family="Helvetica,sans-Serif" font-size="10.00">dlgMarkers::OnMarkerChange</text>
</a>
</g>
</g>
<!-- Node3&#45;&gt;Node4 -->
<g id="edge3" class="edge"><title>Node3&#45;&gt;Node4</title>
<path fill="none" stroke="midnightblue" d="M303.174,-209.589C327.489,-214.694 357.58,-221.011 383.208,-226.392"/>
<polygon fill="midnightblue" stroke="midnightblue" points="382.649,-229.851 393.154,-228.48 384.087,-223 382.649,-229.851"/>
</g>
<!-- Node5 -->
<g id="node5" class="node"><title>Node5</title>
<g id="a_node5"><a xlink:href="../../d9/d73/classOpenGLGraph.html#a62881e80278d6ad4a7ab27e8b5094a5c" target="_top" xlink:title="OpenGLGraph::SetMarker">
<polygon fill="white" stroke="black" points="549,-228.5 549,-247.5 679,-247.5 679,-228.5 549,-228.5"/>
<text text-anchor="middle" x="614" y="-235.5" font-family="Helvetica,sans-Serif" font-size="10.00">OpenGLGraph::SetMarker</text>
</a>
</g>
</g>
<!-- Node4&#45;&gt;Node5 -->
<g id="edge4" class="edge"><title>Node4&#45;&gt;Node5</title>
<path fill="none" stroke="midnightblue" d="M513.156,-238C521.6,-238 530.223,-238 538.689,-238"/>
<polygon fill="midnightblue" stroke="midnightblue" points="538.916,-241.5 548.916,-238 538.916,-234.5 538.916,-241.5"/>
</g>
<!-- Node6 -->
<g id="node6" class="node"><title>Node6</title>
<g id="a_node6"><a xlink:href="../../d9/d73/classOpenGLGraph.html#aac36fd6026dc126d199c41aa85d254af" target="_top" xlink:title="change marker position ">
<polygon fill="white" stroke="black" points="715,-228.5 715,-247.5 864,-247.5 864,-228.5 715,-228.5"/>
<text text-anchor="middle" x="789.5" y="-235.5" font-family="Helvetica,sans-Serif" font-size="10.00">OpenGLGraph::ChangeMarker</text>
</a>
</g>
</g>
<!-- Node5&#45;&gt;Node6 -->
<g id="edge5" class="edge"><title>Node5&#45;&gt;Node6</title>
<path fill="none" stroke="midnightblue" d="M679.112,-238C687.507,-238 696.206,-238 704.864,-238"/>
<polygon fill="midnightblue" stroke="midnightblue" points="704.988,-241.5 714.988,-238 704.988,-234.5 704.988,-241.5"/>
</g>
<!-- Node8 -->
<g id="node8" class="node"><title>Node8</title>
<g id="a_node8"><a xlink:href="../../da/d33/glew_8h.html#a010231739bd67ff45cf803ea81631a47" target="_top" xlink:title="glClearColor">
<polygon fill="white" stroke="black" points="404,-190.5 404,-209.5 475,-209.5 475,-190.5 404,-190.5"/>
<text text-anchor="middle" x="439.5" y="-197.5" font-family="Helvetica,sans-Serif" font-size="10.00">glClearColor</text>
</a>
</g>
</g>
<!-- Node7&#45;&gt;Node8 -->
<g id="edge7" class="edge"><title>Node7&#45;&gt;Node8</title>
<path fill="none" stroke="midnightblue" d="M273.14,-133.677C293.763,-146.09 331.482,-167.611 366,-181 374.82,-184.421 384.477,-187.431 393.786,-189.988"/>
<polygon fill="midnightblue" stroke="midnightblue" points="393.132,-193.435 403.693,-192.583 394.906,-186.664 393.132,-193.435"/>
</g>
<!-- Node9 -->
<g id="node9" class="node"><title>Node9</title>
<g id="a_node9"><a xlink:href="../../da/d33/glew_8h.html#ac994527155720afcf882c1562a2c78a7" target="_top" xlink:title="glEnable">
<polygon fill="white" stroke="black" points="412.5,-152.5 412.5,-171.5 466.5,-171.5 466.5,-152.5 412.5,-152.5"/>
<text text-anchor="middle" x="439.5" y="-159.5" font-family="Helvetica,sans-Serif" font-size="10.00">glEnable</text>
</a>
</g>
</g>
<!-- Node7&#45;&gt;Node9 -->
<g id="edge8" class="edge"><title>Node7&#45;&gt;Node9</title>
<path fill="none" stroke="midnightblue" d="M303.174,-133.589C333.954,-140.051 373.988,-148.456 402.51,-154.444"/>
<polygon fill="midnightblue" stroke="midnightblue" points="401.953,-157.903 412.459,-156.533 403.391,-151.053 401.953,-157.903"/>
</g>
<!-- Node10 -->
<g id="node10" class="node"><title>Node10</title>
<g id="a_node10"><a xlink:href="../../da/d33/glew_8h.html#a0ae59c06d55c26345d297e5207068aad" target="_top" xlink:title="glViewport">
<polygon fill="white" stroke="black" points="408.5,-114.5 408.5,-133.5 470.5,-133.5 470.5,-114.5 408.5,-114.5"/>
<text text-anchor="middle" x="439.5" y="-121.5" font-family="Helvetica,sans-Serif" font-size="10.00">glViewport</text>
</a>
</g>
</g>
<!-- Node7&#45;&gt;Node10 -->
<g id="edge9" class="edge"><title>Node7&#45;&gt;Node10</title>
<path fill="none" stroke="midnightblue" d="M330.077,-124C353.36,-124 378.291,-124 398.37,-124"/>
<polygon fill="midnightblue" stroke="midnightblue" points="398.392,-127.5 408.392,-124 398.392,-120.5 398.392,-127.5"/>
</g>
<!-- Node11 -->
<g id="node11" class="node"><title>Node11</title>
<g id="a_node11"><a xlink:href="../../da/d33/glew_8h.html#a2b895ddd36cb9e8d8d76b786f65f04a8" target="_top" xlink:title="glMatrixMode">
<polygon fill="white" stroke="black" points="402,-76.5 402,-95.5 477,-95.5 477,-76.5 402,-76.5"/>
<text text-anchor="middle" x="439.5" y="-83.5" font-family="Helvetica,sans-Serif" font-size="10.00">glMatrixMode</text>
</a>
</g>
</g>
<!-- Node7&#45;&gt;Node11 -->
<g id="edge10" class="edge"><title>Node7&#45;&gt;Node11</title>
<path fill="none" stroke="midnightblue" d="M303.174,-114.411C330.29,-108.718 364.589,-101.517 391.871,-95.7896"/>
<polygon fill="midnightblue" stroke="midnightblue" points="392.886,-99.1528 401.954,-93.6727 391.448,-92.3021 392.886,-99.1528"/>
</g>
<!-- Node12 -->
<g id="node12" class="node"><title>Node12</title>
<g id="a_node12"><a xlink:href="../../da/d33/glew_8h.html#ad2f4e5d63593ca7af2a64041a6a52749" target="_top" xlink:title="glLoadIdentity">
<polygon fill="white" stroke="black" points="401,-38.5 401,-57.5 478,-57.5 478,-38.5 401,-38.5"/>
<text text-anchor="middle" x="439.5" y="-45.5" font-family="Helvetica,sans-Serif" font-size="10.00">glLoadIdentity</text>
</a>
</g>
</g>
<!-- Node7&#45;&gt;Node12 -->
<g id="edge11" class="edge"><title>Node7&#45;&gt;Node12</title>
<path fill="none" stroke="midnightblue" d="M273.14,-114.323C293.763,-101.91 331.482,-80.3887 366,-67 373.935,-63.9224 382.547,-61.1771 390.974,-58.7953"/>
<polygon fill="midnightblue" stroke="midnightblue" points="391.982,-62.1484 400.728,-56.168 390.162,-55.3892 391.982,-62.1484"/>
</g>
<!-- Node13 -->
<g id="node13" class="node"><title>Node13</title>
<g id="a_node13"><a xlink:href="../../da/d33/glew_8h.html#ac8b62764d1a3167241d46b6b0fdb510c" target="_top" xlink:title="glOrtho">
<polygon fill="white" stroke="black" points="415.5,-0.5 415.5,-19.5 463.5,-19.5 463.5,-0.5 415.5,-0.5"/>
<text text-anchor="middle" x="439.5" y="-7.5" font-family="Helvetica,sans-Serif" font-size="10.00">glOrtho</text>
</a>
</g>
</g>
<!-- Node7&#45;&gt;Node13 -->
<g id="edge12" class="edge"><title>Node7&#45;&gt;Node13</title>
<path fill="none" stroke="midnightblue" d="M265.699,-114.286C282.493,-95.0238 322.871,-51.8791 366,-29 378.154,-22.5527 392.636,-18.19 405.449,-15.2897"/>
<polygon fill="midnightblue" stroke="midnightblue" points="406.202,-18.7083 415.291,-13.2654 404.791,-11.8519 406.202,-18.7083"/>
</g>
</g>
</svg>
        <g id="navigator" transform="translate(0 0)" fill="#404254">
                <rect fill="#f2f5e9" fill-opacity="0.5" stroke="#606060" stroke-width=".5" x="0" y="0" width="60" height="60"/>
                <use id="zoomplus" xlink:href="#zoomPlus" x="17" y="9" onmousedown="handleZoom(evt,'in')"/>
                <use id="zoomminus" xlink:href="#zoomMin" x="42" y="9" onmousedown="handleZoom(evt,'out')"/>
                <use id="reset" xlink:href="#resetDef" x="30" y="36" onmousedown="handleReset()"/>
                <g id="arrowUp" xlink:href="#dirArrow" transform="translate(30 24)" onmousedown="handlePan(0,-1)">
                  <use xlink:href="#rim" fill="#404040">
                        <set attributeName="fill" to="#808080" begin="arrowUp.mouseover" end="arrowUp.mouseout"/>
                  </use>
                  <path fill="none" stroke="white" stroke-width="1.5" d="M0,-3.0v7 M-2.5,-0.5L0,-3.0L2.5,-0.5"/>
                </g>
                <g id="arrowRight" xlink:href="#dirArrow" transform="rotate(90) translate(36 -43)" onmousedown="handlePan(1,0)">
                  <use xlink:href="#rim" fill="#404040">
                        <set attributeName="fill" to="#808080" begin="arrowRight.mouseover" end="arrowRight.mouseout"/>
                  </use>
                  <path fill="none" stroke="white" stroke-width="1.5" d="M0,-3.0v7 M-2.5,-0.5L0,-3.0L2.5,-0.5"/>
                </g>
                <g id="arrowDown" xlink:href="#dirArrow" transform="rotate(180) translate(-30 -48)" onmousedown="handlePan(0,1)">
                  <use xlink:href="#rim" fill="#404040">
                        <set attributeName="fill" to="#808080" begin="arrowDown.mouseover" end="arrowDown.mouseout"/>
                  </use>
                  <path fill="none" stroke="white" stroke-width="1.5" d="M0,-3.0v7 M-2.5,-0.5L0,-3.0L2.5,-0.5"/>
                </g>
                <g id="arrowLeft" xlink:href="#dirArrow" transform="rotate(270) translate(-36 17)" onmousedown="handlePan(-1,0)">
                  <use xlink:href="#rim" fill="#404040">
                        <set attributeName="fill" to="#808080" begin="arrowLeft.mouseover" end="arrowLeft.mouseout"/>
                  </use>
                  <path fill="none" stroke="white" stroke-width="1.5" d="M0,-3.0v7 M-2.5,-0.5L0,-3.0L2.5,-0.5"/>
                </g>
        </g>
        <svg viewBox="0 0 15 15" width="100%" height="30px" preserveAspectRatio="xMaxYMin meet">
         <g id="arrow_out" transform="scale(0.3 0.3)">
          <a xlink:href="classOpenGLGraph_a136b7181977119be0e9f62fbe07aaf21_cgraph_org.svg" target="_base">
           <rect id="button" ry="5" rx="5" y="6" x="6" height="38" width="38"
                fill="#f2f5e9" fill-opacity="0.5" stroke="#606060" stroke-width="1.0"/>
           <path id="arrow"
             d="M 11.500037,31.436501 C 11.940474,20.09759 22.043105,11.32322 32.158766,21.979434 L 37.068811,17.246167 C 37.068811,17.246167 37.088388,32 37.088388,32 L 22.160133,31.978069 C 22.160133,31.978069 26.997745,27.140456 26.997745,27.140456 C 18.528582,18.264221 13.291696,25.230495 11.500037,31.436501 z"
             style="fill:#404040;"/>
          </a>
         </g>
        </svg>
</svg>
