<?xml version="1.0" encoding="UTF-8" standalone="no"?>
<!DOCTYPE svg PUBLIC "-//W3C//DTD SVG 1.1//EN"
 "http://www.w3.org/Graphics/SVG/1.1/DTD/svg11.dtd">
<!-- Generated by graphviz version 2.38.0 (20140413.2041)
 -->
<!-- Title: OpenGLGraph::onReset Pages: 1 -->
<svg width="684pt" height="66pt"
 viewBox="0.00 0.00 684.00 66.00" xmlns="http://www.w3.org/2000/svg" xmlns:xlink="http://www.w3.org/1999/xlink">
<g id="graph0" class="graph" transform="scale(1 1) rotate(0) translate(4 62)">
<title>OpenGLGraph::onReset</title>
<polygon fill="white" stroke="none" points="-4,4 -4,-62 680,-62 680,4 -4,4"/>
<!-- Node1 -->
<g id="node1" class="node"><title>Node1</title>
<polygon fill="#bfbfbf" stroke="black" points="0,-19.5 0,-38.5 122,-38.5 122,-19.5 0,-19.5"/>
<text text-anchor="middle" x="61" y="-26.5" font-family="Helvetica,sans-Serif" font-size="10.00">OpenGLGraph::onReset</text>
</g>
<!-- Node2 -->
<g id="node2" class="node"><title>Node2</title>
<g id="a_node2"><a xlink:href="../../d9/d73/classOpenGLGraph.html#a2dbaa869acf3cefe5a6e4d58e24e7605" target="_top" xlink:title="Resets displayed area to initial area. ">
<polygon fill="white" stroke="black" points="158,-19.5 158,-38.5 291,-38.5 291,-19.5 158,-19.5"/>
<text text-anchor="middle" x="224.5" y="-26.5" font-family="Helvetica,sans-Serif" font-size="10.00">OpenGLGraph::ResetView</text>
</a>
</g>
</g>
<!-- Node1&#45;&gt;Node2 -->
<g id="edge1" class="edge"><title>Node1&#45;&gt;Node2</title>
<path fill="none" stroke="midnightblue" d="M122.137,-29C130.516,-29 139.213,-29 147.833,-29"/>
<polygon fill="midnightblue" stroke="midnightblue" points="147.892,-32.5001 157.892,-29 147.892,-25.5001 147.892,-32.5001"/>
</g>
<!-- Node3 -->
<g id="node3" class="node"><title>Node3</title>
<g id="a_node3"><a xlink:href="../../d9/d73/classOpenGLGraph.html#a16dcd6f9fd24aed2b3c2b18ba0fa75ab" target="_top" xlink:title="Sets visible area. ">
<polygon fill="white" stroke="black" points="327,-19.5 327,-38.5 480,-38.5 480,-19.5 327,-19.5"/>
<text text-anchor="middle" x="403.5" y="-26.5" font-family="Helvetica,sans-Serif" font-size="10.00">OpenGLGraph::SetDisplayArea</text>
</a>
</g>
</g>
<!-- Node2&#45;&gt;Node3 -->
<g id="edge2" class="edge"><title>Node2&#45;&gt;Node3</title>
<path fill="none" stroke="midnightblue" d="M291.157,-29C299.501,-29 308.136,-29 316.736,-29"/>
<polygon fill="midnightblue" stroke="midnightblue" points="316.797,-32.5001 326.797,-29 316.797,-25.5001 316.797,-32.5001"/>
</g>
<!-- Node4 -->
<g id="node4" class="node"><title>Node4</title>
<g id="a_node4"><a xlink:href="../../d3/dc3/structsRect.html#a4b8858359827610b4d8d0cec1a073fe9" target="_top" xlink:title="sRect::set">
<polygon fill="white" stroke="black" points="565,-38.5 565,-57.5 627,-57.5 627,-38.5 565,-38.5"/>
<text text-anchor="middle" x="596" y="-45.5" font-family="Helvetica,sans-Serif" font-size="10.00">sRect::set</text>
</a>
</g>
</g>
<!-- Node3&#45;&gt;Node4 -->
<g id="edge3" class="edge"><title>Node3&#45;&gt;Node4</title>
<path fill="none" stroke="midnightblue" d="M480.064,-36.5366C505.596,-39.0831 533.101,-41.8263 554.801,-43.9907"/>
<polygon fill="midnightblue" stroke="midnightblue" points="554.655,-47.4934 564.953,-45.0032 555.35,-40.528 554.655,-47.4934"/>
</g>
<!-- Node5 -->
<g id="node5" class="node"><title>Node5</title>
<g id="a_node5"><a xlink:href="../../d9/d73/classOpenGLGraph.html#a13a5c28c2a88a3e2bb788744aa2bdb66" target="_top" xlink:title="Signals that settings have changed and needs to be reevaluated. ">
<polygon fill="white" stroke="black" points="516,-0.5 516,-19.5 676,-19.5 676,-0.5 516,-0.5"/>
<text text-anchor="middle" x="596" y="-7.5" font-family="Helvetica,sans-Serif" font-size="10.00">OpenGLGraph::SettingsChanged</text>
</a>
</g>
</g>
<!-- Node3&#45;&gt;Node5 -->
<g id="edge4" class="edge"><title>Node3&#45;&gt;Node5</title>
<path fill="none" stroke="midnightblue" d="M480.064,-21.4634C488.501,-20.6219 497.154,-19.7589 505.741,-18.9025"/>
<polygon fill="midnightblue" stroke="midnightblue" points="506.172,-22.377 515.775,-17.9017 505.477,-15.4115 506.172,-22.377"/>
</g>
</g>
</svg>
