<?xml version="1.0" encoding="UTF-8" standalone="no"?>
<!DOCTYPE svg PUBLIC "-//W3C//DTD SVG 1.1//EN"
 "http://www.w3.org/Graphics/SVG/1.1/DTD/svg11.dtd">
<!-- Generated by graphviz version 2.38.0 (20140413.2041)
 -->
<!-- Title: OpenGLGraph::ZoomRect Pages: 1 -->
<svg width="524pt" height="97pt"
 viewBox="0.00 0.00 524.00 96.50" xmlns="http://www.w3.org/2000/svg" xmlns:xlink="http://www.w3.org/1999/xlink">
<g id="graph0" class="graph" transform="scale(1 1) rotate(0) translate(4 92.5)">
<title>OpenGLGraph::ZoomRect</title>
<polygon fill="white" stroke="none" points="-4,4 -4,-92.5 520,-92.5 520,4 -4,4"/>
<!-- Node1 -->
<g id="node1" class="node"><title>Node1</title>
<polygon fill="#bfbfbf" stroke="black" points="0,-41.5 0,-60.5 131,-60.5 131,-41.5 0,-41.5"/>
<text text-anchor="middle" x="65.5" y="-48.5" font-family="Helvetica,sans-Serif" font-size="10.00">OpenGLGraph::ZoomRect</text>
</g>
<!-- Node2 -->
<g id="node2" class="node"><title>Node2</title>
<g id="a_node2"><a xlink:href="../../d9/d73/classOpenGLGraph.html#a40fe0d3ab4270c333e69d0710c06beae" target="_top" xlink:title="Calculates value pointed by pixel in data view. ">
<polygon fill="white" stroke="black" points="170,-58 170,-88 317,-88 317,-58 170,-58"/>
<text text-anchor="start" x="178" y="-76" font-family="Helvetica,sans-Serif" font-size="10.00">OpenGLGraph::dataViewPixel</text>
<text text-anchor="middle" x="243.5" y="-65" font-family="Helvetica,sans-Serif" font-size="10.00">ToValue</text>
</a>
</g>
</g>
<!-- Node1&#45;&gt;Node2 -->
<g id="edge1" class="edge"><title>Node1&#45;&gt;Node2</title>
<path fill="none" stroke="midnightblue" d="M131.037,-59.0671C140.429,-60.2412 150.207,-61.4634 159.897,-62.6746"/>
<polygon fill="midnightblue" stroke="midnightblue" points="159.587,-66.163 169.944,-63.9305 160.455,-59.217 159.587,-66.163"/>
</g>
<!-- Node3 -->
<g id="node3" class="node"><title>Node3</title>
<g id="a_node3"><a xlink:href="../../d9/d73/classOpenGLGraph.html#a16dcd6f9fd24aed2b3c2b18ba0fa75ab" target="_top" xlink:title="Sets visible area. ">
<polygon fill="white" stroke="black" points="167,-19.5 167,-38.5 320,-38.5 320,-19.5 167,-19.5"/>
<text text-anchor="middle" x="243.5" y="-26.5" font-family="Helvetica,sans-Serif" font-size="10.00">OpenGLGraph::SetDisplayArea</text>
</a>
</g>
</g>
<!-- Node1&#45;&gt;Node3 -->
<g id="edge2" class="edge"><title>Node1&#45;&gt;Node3</title>
<path fill="none" stroke="midnightblue" d="M131.037,-42.9329C139.428,-41.884 148.126,-40.7968 156.794,-39.7132"/>
<polygon fill="midnightblue" stroke="midnightblue" points="157.448,-43.1588 166.937,-38.4454 156.58,-36.2129 157.448,-43.1588"/>
</g>
<!-- Node4 -->
<g id="node4" class="node"><title>Node4</title>
<g id="a_node4"><a xlink:href="../../d3/dc3/structsRect.html#a4b8858359827610b4d8d0cec1a073fe9" target="_top" xlink:title="sRect::set">
<polygon fill="white" stroke="black" points="405,-38.5 405,-57.5 467,-57.5 467,-38.5 405,-38.5"/>
<text text-anchor="middle" x="436" y="-45.5" font-family="Helvetica,sans-Serif" font-size="10.00">sRect::set</text>
</a>
</g>
</g>
<!-- Node3&#45;&gt;Node4 -->
<g id="edge3" class="edge"><title>Node3&#45;&gt;Node4</title>
<path fill="none" stroke="midnightblue" d="M320.064,-36.5366C345.596,-39.0831 373.101,-41.8263 394.801,-43.9907"/>
<polygon fill="midnightblue" stroke="midnightblue" points="394.655,-47.4934 404.953,-45.0032 395.35,-40.528 394.655,-47.4934"/>
</g>
<!-- Node5 -->
<g id="node5" class="node"><title>Node5</title>
<g id="a_node5"><a xlink:href="../../d9/d73/classOpenGLGraph.html#a13a5c28c2a88a3e2bb788744aa2bdb66" target="_top" xlink:title="Signals that settings have changed and needs to be reevaluated. ">
<polygon fill="white" stroke="black" points="356,-0.5 356,-19.5 516,-19.5 516,-0.5 356,-0.5"/>
<text text-anchor="middle" x="436" y="-7.5" font-family="Helvetica,sans-Serif" font-size="10.00">OpenGLGraph::SettingsChanged</text>
</a>
</g>
</g>
<!-- Node3&#45;&gt;Node5 -->
<g id="edge4" class="edge"><title>Node3&#45;&gt;Node5</title>
<path fill="none" stroke="midnightblue" d="M320.064,-21.4634C328.501,-20.6219 337.154,-19.7589 345.741,-18.9025"/>
<polygon fill="midnightblue" stroke="midnightblue" points="346.172,-22.377 355.775,-17.9017 345.477,-15.4115 346.172,-22.377"/>
</g>
</g>
</svg>
