<?xml version="1.0" encoding="UTF-8" standalone="no"?>
<!DOCTYPE svg PUBLIC "-//W3C//DTD SVG 1.1//EN"
 "http://www.w3.org/Graphics/SVG/1.1/DTD/svg11.dtd">
<!-- Generated by graphviz version 2.38.0 (20140413.2041)
 -->
<!-- Title: OpenGLGraph::glRenderText Pages: 1 -->
<svg width="846pt" height="94pt"
 viewBox="0.00 0.00 846.00 93.50" xmlns="http://www.w3.org/2000/svg" xmlns:xlink="http://www.w3.org/1999/xlink">
<g id="graph0" class="graph" transform="scale(1 1) rotate(0) translate(4 89.5)">
<title>OpenGLGraph::glRenderText</title>
<polygon fill="white" stroke="none" points="-4,4 -4,-89.5 842,-89.5 842,4 -4,4"/>
<!-- Node1 -->
<g id="node1" class="node"><title>Node1</title>
<polygon fill="#bfbfbf" stroke="black" points="0,-38.5 0,-57.5 143,-57.5 143,-38.5 0,-38.5"/>
<text text-anchor="middle" x="71.5" y="-45.5" font-family="Helvetica,sans-Serif" font-size="10.00">OpenGLGraph::glRenderText</text>
</g>
<!-- Node2 -->
<g id="node2" class="node"><title>Node2</title>
<g id="a_node2"><a xlink:href="../../d9/d73/classOpenGLGraph.html#af2f1cb689fb6884d8509877ecdf29fb8" target="_top" xlink:title="Draw graph data series. ">
<polygon fill="white" stroke="black" points="390,-38.5 390,-57.5 498,-57.5 498,-38.5 390,-38.5"/>
<text text-anchor="middle" x="444" y="-45.5" font-family="Helvetica,sans-Serif" font-size="10.00">OpenGLGraph::Draw</text>
</a>
</g>
</g>
<!-- Node1&#45;&gt;Node2 -->
<g id="edge1" class="edge"><title>Node1&#45;&gt;Node2</title>
<path fill="none" stroke="midnightblue" d="M126.022,-59.4516C142.89,-62.5473 161.648,-65.4643 179,-67 256.475,-73.8568 276.652,-75.1643 354,-67 371.598,-65.1425 390.833,-61.2736 406.904,-57.5088"/>
<polygon fill="midnightblue" stroke="midnightblue" points="126.27,-55.9364 115.793,-57.5117 124.966,-62.8138 126.27,-55.9364"/>
</g>
<!-- Node7 -->
<g id="node7" class="node"><title>Node7</title>
<g id="a_node7"><a xlink:href="../../d9/d73/classOpenGLGraph.html#a3c2849fd8d51c34348516ee747ee82b4" target="_top" xlink:title="Draw data markers. ">
<polygon fill="white" stroke="black" points="195,-38.5 195,-57.5 338,-57.5 338,-38.5 195,-38.5"/>
<text text-anchor="middle" x="266.5" y="-45.5" font-family="Helvetica,sans-Serif" font-size="10.00">OpenGLGraph::DrawMarkers</text>
</a>
</g>
</g>
<!-- Node1&#45;&gt;Node7 -->
<g id="edge6" class="edge"><title>Node1&#45;&gt;Node7</title>
<path fill="none" stroke="midnightblue" d="M153.617,-48C167.28,-48 181.365,-48 194.738,-48"/>
<polygon fill="midnightblue" stroke="midnightblue" points="153.27,-44.5001 143.27,-48 153.27,-51.5001 153.27,-44.5001"/>
</g>
<!-- Node8 -->
<g id="node8" class="node"><title>Node8</title>
<g id="a_node8"><a xlink:href="../../d9/d73/classOpenGLGraph.html#ae3501103179479cd9e60e9654e4e557f" target="_top" xlink:title="Draw static elements (background colors, titles, grid) ">
<polygon fill="white" stroke="black" points="179,-0.5 179,-19.5 354,-19.5 354,-0.5 179,-0.5"/>
<text text-anchor="middle" x="266.5" y="-7.5" font-family="Helvetica,sans-Serif" font-size="10.00">OpenGLGraph::DrawStaticElements</text>
</a>
</g>
</g>
<!-- Node1&#45;&gt;Node8 -->
<g id="edge8" class="edge"><title>Node1&#45;&gt;Node8</title>
<path fill="none" stroke="midnightblue" d="M131.102,-36.4619C158.629,-31.042 191.048,-24.659 217.148,-19.5201"/>
<polygon fill="midnightblue" stroke="midnightblue" points="130.338,-33.045 121.202,-38.411 131.69,-39.9132 130.338,-33.045"/>
</g>
<!-- Node3 -->
<g id="node3" class="node"><title>Node3</title>
<g id="a_node3"><a xlink:href="../../d5/d45/classfftviewer__frFFTviewer.html#aa01d7b5ad35c15051574834869accae0" target="_top" xlink:title="fftviewer_frFFTviewer\l::OnUpdatePlots">
<polygon fill="white" stroke="black" points="534,-55 534,-85 646,-85 646,-55 534,-55"/>
<text text-anchor="start" x="542" y="-73" font-family="Helvetica,sans-Serif" font-size="10.00">fftviewer_frFFTviewer</text>
<text text-anchor="middle" x="590" y="-62" font-family="Helvetica,sans-Serif" font-size="10.00">::OnUpdatePlots</text>
</a>
</g>
</g>
<!-- Node2&#45;&gt;Node3 -->
<g id="edge2" class="edge"><title>Node2&#45;&gt;Node3</title>
<path fill="none" stroke="midnightblue" d="M508.358,-57.6797C516.767,-58.9644 525.336,-60.2735 533.596,-61.5355"/>
<polygon fill="midnightblue" stroke="midnightblue" points="508.625,-54.18 498.211,-56.1295 507.568,-61.0997 508.625,-54.18"/>
</g>
<!-- Node5 -->
<g id="node5" class="node"><title>Node5</title>
<g id="a_node5"><a xlink:href="../../d9/d73/classOpenGLGraph.html#a3ec7e57bd2baa9fffbd14a0fb952e8a8" target="_top" xlink:title="OpenGLGraph::render">
<polygon fill="white" stroke="black" points="534,-16.5 534,-35.5 646,-35.5 646,-16.5 534,-16.5"/>
<text text-anchor="middle" x="590" y="-23.5" font-family="Helvetica,sans-Serif" font-size="10.00">OpenGLGraph::render</text>
</a>
</g>
</g>
<!-- Node2&#45;&gt;Node5 -->
<g id="edge4" class="edge"><title>Node2&#45;&gt;Node5</title>
<path fill="none" stroke="midnightblue" d="M508.358,-38.3203C516.767,-37.0356 525.336,-35.7265 533.596,-34.4645"/>
<polygon fill="midnightblue" stroke="midnightblue" points="507.568,-34.9003 498.211,-39.8705 508.625,-41.82 507.568,-34.9003"/>
</g>
<!-- Node4 -->
<g id="node4" class="node"><title>Node4</title>
<g id="a_node4"><a xlink:href="../../d5/d45/classfftviewer__frFFTviewer.html#a4bcd0ebcddfbe4227a156a426db9d5b9" target="_top" xlink:title="Constructor. ">
<polygon fill="white" stroke="black" points="701,-55 701,-85 819,-85 819,-55 701,-55"/>
<text text-anchor="start" x="709" y="-73" font-family="Helvetica,sans-Serif" font-size="10.00">fftviewer_frFFTviewer</text>
<text text-anchor="middle" x="760" y="-62" font-family="Helvetica,sans-Serif" font-size="10.00">::fftviewer_frFFTviewer</text>
</a>
</g>
</g>
<!-- Node3&#45;&gt;Node4 -->
<g id="edge3" class="edge"><title>Node3&#45;&gt;Node4</title>
<path fill="none" stroke="midnightblue" d="M656.094,-70C670.886,-70 686.503,-70 700.978,-70"/>
<polygon fill="midnightblue" stroke="midnightblue" points="656.01,-66.5001 646.009,-70 656.009,-73.5001 656.01,-66.5001"/>
</g>
<!-- Node6 -->
<g id="node6" class="node"><title>Node6</title>
<g id="a_node6"><a xlink:href="../../d9/d73/classOpenGLGraph.html#ae8a4b37513a42fc6604a56ba03a24238" target="_top" xlink:title="OpenGLGraph::SetInfoMessage">
<polygon fill="white" stroke="black" points="682,-16.5 682,-35.5 838,-35.5 838,-16.5 682,-16.5"/>
<text text-anchor="middle" x="760" y="-23.5" font-family="Helvetica,sans-Serif" font-size="10.00">OpenGLGraph::SetInfoMessage</text>
</a>
</g>
</g>
<!-- Node5&#45;&gt;Node6 -->
<g id="edge5" class="edge"><title>Node5&#45;&gt;Node6</title>
<path fill="none" stroke="midnightblue" d="M656.15,-26C664.592,-26 673.302,-26 681.914,-26"/>
<polygon fill="midnightblue" stroke="midnightblue" points="656.01,-22.5001 646.009,-26 656.009,-29.5001 656.01,-22.5001"/>
</g>
<!-- Node7&#45;&gt;Node2 -->
<g id="edge7" class="edge"><title>Node7&#45;&gt;Node2</title>
<path fill="none" stroke="midnightblue" d="M348.31,-48C362.385,-48 376.699,-48 389.793,-48"/>
<polygon fill="midnightblue" stroke="midnightblue" points="348.124,-44.5001 338.124,-48 348.124,-51.5001 348.124,-44.5001"/>
</g>
<!-- Node8&#45;&gt;Node2 -->
<g id="edge9" class="edge"><title>Node8&#45;&gt;Node2</title>
<path fill="none" stroke="midnightblue" d="M321.778,-21.7526C346.594,-27.1258 375.611,-33.4086 399.032,-38.4799"/>
<polygon fill="midnightblue" stroke="midnightblue" points="322.3,-18.2846 311.786,-19.589 320.819,-25.126 322.3,-18.2846"/>
</g>
</g>
</svg>
