<?xml version="1.0" encoding="UTF-8" standalone="no"?>
<!DOCTYPE svg PUBLIC "-//W3C//DTD SVG 1.1//EN"
 "http://www.w3.org/Graphics/SVG/1.1/DTD/svg11.dtd">
<!-- Generated by graphviz version 2.38.0 (20140413.2041)
 -->
<!-- Title: lime::Streamer::RstRxIQGen Pages: 1 -->
<!--zoomable 127 -->
<svg id="main" version="1.1" xmlns="http://www.w3.org/2000/svg" xmlns:xlink="http://www.w3.org/1999/xlink" xml:space="preserve" onload="init(evt)">
<style type="text/css"><![CDATA[
.edge:hover path { stroke: red; }
.edge:hover polygon { stroke: red; fill: red; }
]]></style>
<script type="text/javascript"><![CDATA[
var edges = document.getElementsByTagName('g');
if (edges && edges.length) {
  for (var i=0;i<edges.length;i++) {
    if (edges[i].id.substr(0,4)=='edge') {
      edges[i].setAttribute('class','edge');
    }
  }
}
]]></script>
        <defs>
                <circle id="rim" cx="0" cy="0" r="7"/>
                <circle id="rim2" cx="0" cy="0" r="3.5"/>
                <g id="zoomPlus">
                        <use xlink:href="#rim" fill="#404040">
                                <set attributeName="fill" to="#808080" begin="zoomplus.mouseover" end="zoomplus.mouseout"/>
                        </use>
                        <path d="M-4,0h8M0,-4v8" fill="none" stroke="white" stroke-width="1.5" pointer-events="none"/>
                </g>
                <g id="zoomMin">
                        <use xlink:href="#rim" fill="#404040">
                                <set attributeName="fill" to="#808080" begin="zoomminus.mouseover" end="zoomminus.mouseout"/>
                        </use>
                        <path d="M-4,0h8" fill="none" stroke="white" stroke-width="1.5" pointer-events="none"/>
                </g>
                <g id="dirArrow">
                        <path fill="none" stroke="white" stroke-width="1.5" d="M0,-3.0v7 M-2.5,-0.5L0,-3.0L2.5,-0.5"/>
                </g>
               <g id="resetDef">
                       <use xlink:href="#rim2" fill="#404040">
                               <set attributeName="fill" to="#808080" begin="reset.mouseover" end="reset.mouseout"/>
                       </use>
               </g>
        </defs>

<script type="text/javascript">
var viewWidth = 1025;
var viewHeight = 127;
var sectionId = 'dynsection-15';
</script>
<script xlink:href="../../svgpan.js"/>
<svg id="graph" class="graph">
<g id="viewport">
<title>lime::Streamer::RstRxIQGen</title>
<polygon fill="white" stroke="none" points="-4,4 -4,-122.5 1021,-122.5 1021,4 -4,4"/>
<!-- Node1 -->
<g id="node1" class="node"><title>Node1</title>
<polygon fill="#bfbfbf" stroke="black" points="0,-44.5 0,-63.5 143,-63.5 143,-44.5 0,-44.5"/>
<text text-anchor="middle" x="71.5" y="-51.5" font-family="Helvetica,sans-Serif" font-size="10.00">lime::Streamer::RstRxIQGen</text>
</g>
<!-- Node2 -->
<g id="node2" class="node"><title>Node2</title>
<g id="a_node2"><a xlink:href="../../d9/d5d/classlime_1_1Streamer.html#a44a390ff3b22aabf1c112ba0f13a9e7f" target="_top" xlink:title="lime::Streamer::AlignQuadrature">
<polygon fill="white" stroke="black" points="179,-44.5 179,-63.5 335,-63.5 335,-44.5 179,-44.5"/>
<text text-anchor="middle" x="257" y="-51.5" font-family="Helvetica,sans-Serif" font-size="10.00">lime::Streamer::AlignQuadrature</text>
</a>
</g>
</g>
<!-- Node1&#45;&gt;Node2 -->
<g id="edge1" class="edge"><title>Node1&#45;&gt;Node2</title>
<path fill="none" stroke="midnightblue" d="M153.441,-54C161.918,-54 170.519,-54 178.95,-54"/>
<polygon fill="midnightblue" stroke="midnightblue" points="153.183,-50.5001 143.183,-54 153.183,-57.5001 153.183,-50.5001"/>
</g>
<!-- Node3 -->
<g id="node3" class="node"><title>Node3</title>
<g id="a_node3"><a xlink:href="../../d9/d5d/classlime_1_1Streamer.html#a05cbd39a0d43b90b7fc2543ec246e9bb" target="_top" xlink:title="lime::Streamer::AlignRxRF">
<polygon fill="white" stroke="black" points="371,-44.5 371,-63.5 505,-63.5 505,-44.5 371,-44.5"/>
<text text-anchor="middle" x="438" y="-51.5" font-family="Helvetica,sans-Serif" font-size="10.00">lime::Streamer::AlignRxRF</text>
</a>
</g>
</g>
<!-- Node2&#45;&gt;Node3 -->
<g id="edge2" class="edge"><title>Node2&#45;&gt;Node3</title>
<path fill="none" stroke="midnightblue" d="M345.321,-54C353.961,-54 362.628,-54 370.999,-54"/>
<polygon fill="midnightblue" stroke="midnightblue" points="345.211,-50.5001 335.211,-54 345.211,-57.5001 345.211,-50.5001"/>
</g>
<!-- Node4 -->
<g id="node4" class="node"><title>Node4</title>
<g id="a_node4"><a xlink:href="../../d9/d5d/classlime_1_1Streamer.html#a33a233f1c863b9710f3b685d5fb494f6" target="_top" xlink:title="lime::Streamer::UpdateThreads">
<polygon fill="white" stroke="black" points="541,-44.5 541,-63.5 694,-63.5 694,-44.5 541,-44.5"/>
<text text-anchor="middle" x="617.5" y="-51.5" font-family="Helvetica,sans-Serif" font-size="10.00">lime::Streamer::UpdateThreads</text>
</a>
</g>
</g>
<!-- Node3&#45;&gt;Node4 -->
<g id="edge3" class="edge"><title>Node3&#45;&gt;Node4</title>
<path fill="none" stroke="midnightblue" d="M515.299,-54C523.744,-54 532.343,-54 540.782,-54"/>
<polygon fill="midnightblue" stroke="midnightblue" points="515.094,-50.5001 505.094,-54 515.094,-57.5001 515.094,-50.5001"/>
</g>
<!-- Node5 -->
<g id="node5" class="node"><title>Node5</title>
<g id="a_node5"><a xlink:href="../../d7/db1/classlime_1_1StreamChannel.html#aa966ef896b18459801d87f9e6990d98e" target="_top" xlink:title="lime::StreamChannel\l::Start">
<polygon fill="white" stroke="black" points="747.5,-88 747.5,-118 855.5,-118 855.5,-88 747.5,-88"/>
<text text-anchor="start" x="755.5" y="-106" font-family="Helvetica,sans-Serif" font-size="10.00">lime::StreamChannel</text>
<text text-anchor="middle" x="801.5" y="-95" font-family="Helvetica,sans-Serif" font-size="10.00">::Start</text>
</a>
</g>
</g>
<!-- Node4&#45;&gt;Node5 -->
<g id="edge4" class="edge"><title>Node4&#45;&gt;Node5</title>
<path fill="none" stroke="midnightblue" d="M663.764,-66.1864C689.143,-73.0191 720.935,-81.5785 747.475,-88.724"/>
<polygon fill="midnightblue" stroke="midnightblue" points="664.59,-62.7842 654.023,-63.564 662.77,-69.5435 664.59,-62.7842"/>
</g>
<!-- Node6 -->
<g id="node6" class="node"><title>Node6</title>
<g id="a_node6"><a xlink:href="../../d7/db1/classlime_1_1StreamChannel.html#a05331d809d6ba661d28a9d8954715acc" target="_top" xlink:title="lime::StreamChannel\l::Stop">
<polygon fill="white" stroke="black" points="747.5,-39 747.5,-69 855.5,-69 855.5,-39 747.5,-39"/>
<text text-anchor="start" x="755.5" y="-57" font-family="Helvetica,sans-Serif" font-size="10.00">lime::StreamChannel</text>
<text text-anchor="middle" x="801.5" y="-46" font-family="Helvetica,sans-Serif" font-size="10.00">::Stop</text>
</a>
</g>
</g>
<!-- Node4&#45;&gt;Node6 -->
<g id="edge5" class="edge"><title>Node4&#45;&gt;Node6</title>
<path fill="none" stroke="midnightblue" d="M704.224,-54C718.912,-54 733.784,-54 747.303,-54"/>
<polygon fill="midnightblue" stroke="midnightblue" points="704.103,-50.5001 694.103,-54 704.103,-57.5001 704.103,-50.5001"/>
</g>
<!-- Node8 -->
<g id="node8" class="node"><title>Node8</title>
<g id="a_node8"><a xlink:href="../../d9/d5d/classlime_1_1Streamer.html#aaa946b5fe7814a97160d6efd015295e7" target="_top" xlink:title="lime::Streamer::SetupStream">
<polygon fill="white" stroke="black" points="730,-0.5 730,-19.5 873,-19.5 873,-0.5 730,-0.5"/>
<text text-anchor="middle" x="801.5" y="-7.5" font-family="Helvetica,sans-Serif" font-size="10.00">lime::Streamer::SetupStream</text>
</a>
</g>
</g>
<!-- Node4&#45;&gt;Node8 -->
<g id="edge7" class="edge"><title>Node4&#45;&gt;Node8</title>
<path fill="none" stroke="midnightblue" d="M668.008,-42.031C697.262,-34.9586 733.795,-26.1264 761.086,-19.5287"/>
<polygon fill="midnightblue" stroke="midnightblue" points="666.889,-38.7007 657.991,-44.4527 668.534,-45.5047 666.889,-38.7007"/>
</g>
<!-- Node7 -->
<g id="node7" class="node"><title>Node7</title>
<g id="a_node7"><a xlink:href="../../d7/db1/classlime_1_1StreamChannel.html#a9cc4412f3c3e407fa95c02b1a3f2b4db" target="_top" xlink:title="lime::StreamChannel\l::Close">
<polygon fill="white" stroke="black" points="909,-39 909,-69 1017,-69 1017,-39 909,-39"/>
<text text-anchor="start" x="917" y="-57" font-family="Helvetica,sans-Serif" font-size="10.00">lime::StreamChannel</text>
<text text-anchor="middle" x="963" y="-46" font-family="Helvetica,sans-Serif" font-size="10.00">::Close</text>
</a>
</g>
</g>
<!-- Node6&#45;&gt;Node7 -->
<g id="edge6" class="edge"><title>Node6&#45;&gt;Node7</title>
<path fill="none" stroke="midnightblue" d="M865.831,-54C880.082,-54 895.064,-54 908.849,-54"/>
<polygon fill="midnightblue" stroke="midnightblue" points="865.611,-50.5001 855.611,-54 865.611,-57.5001 865.611,-50.5001"/>
</g>
</g>
</svg>
        <g id="navigator" transform="translate(0 0)" fill="#404254">
                <rect fill="#f2f5e9" fill-opacity="0.5" stroke="#606060" stroke-width=".5" x="0" y="0" width="60" height="60"/>
                <use id="zoomplus" xlink:href="#zoomPlus" x="17" y="9" onmousedown="handleZoom(evt,'in')"/>
                <use id="zoomminus" xlink:href="#zoomMin" x="42" y="9" onmousedown="handleZoom(evt,'out')"/>
                <use id="reset" xlink:href="#resetDef" x="30" y="36" onmousedown="handleReset()"/>
                <g id="arrowUp" xlink:href="#dirArrow" transform="translate(30 24)" onmousedown="handlePan(0,-1)">
                  <use xlink:href="#rim" fill="#404040">
                        <set attributeName="fill" to="#808080" begin="arrowUp.mouseover" end="arrowUp.mouseout"/>
                  </use>
                  <path fill="none" stroke="white" stroke-width="1.5" d="M0,-3.0v7 M-2.5,-0.5L0,-3.0L2.5,-0.5"/>
                </g>
                <g id="arrowRight" xlink:href="#dirArrow" transform="rotate(90) translate(36 -43)" onmousedown="handlePan(1,0)">
                  <use xlink:href="#rim" fill="#404040">
                        <set attributeName="fill" to="#808080" begin="arrowRight.mouseover" end="arrowRight.mouseout"/>
                  </use>
                  <path fill="none" stroke="white" stroke-width="1.5" d="M0,-3.0v7 M-2.5,-0.5L0,-3.0L2.5,-0.5"/>
                </g>
                <g id="arrowDown" xlink:href="#dirArrow" transform="rotate(180) translate(-30 -48)" onmousedown="handlePan(0,1)">
                  <use xlink:href="#rim" fill="#404040">
                        <set attributeName="fill" to="#808080" begin="arrowDown.mouseover" end="arrowDown.mouseout"/>
                  </use>
                  <path fill="none" stroke="white" stroke-width="1.5" d="M0,-3.0v7 M-2.5,-0.5L0,-3.0L2.5,-0.5"/>
                </g>
                <g id="arrowLeft" xlink:href="#dirArrow" transform="rotate(270) translate(-36 17)" onmousedown="handlePan(-1,0)">
                  <use xlink:href="#rim" fill="#404040">
                        <set attributeName="fill" to="#808080" begin="arrowLeft.mouseover" end="arrowLeft.mouseout"/>
                  </use>
                  <path fill="none" stroke="white" stroke-width="1.5" d="M0,-3.0v7 M-2.5,-0.5L0,-3.0L2.5,-0.5"/>
                </g>
        </g>
        <svg viewBox="0 0 15 15" width="100%" height="30px" preserveAspectRatio="xMaxYMin meet">
         <g id="arrow_out" transform="scale(0.3 0.3)">
          <a xlink:href="classlime_1_1Streamer_a7dc600168a329a5c20e8ffb4ed444765_icgraph_org.svg" target="_base">
           <rect id="button" ry="5" rx="5" y="6" x="6" height="38" width="38"
                fill="#f2f5e9" fill-opacity="0.5" stroke="#606060" stroke-width="1.0"/>
           <path id="arrow"
             d="M 11.500037,31.436501 C 11.940474,20.09759 22.043105,11.32322 32.158766,21.979434 L 37.068811,17.246167 C 37.068811,17.246167 37.088388,32 37.088388,32 L 22.160133,31.978069 C 22.160133,31.978069 26.997745,27.140456 26.997745,27.140456 C 18.528582,18.264221 13.291696,25.230495 11.500037,31.436501 z"
             style="fill:#404040;"/>
          </a>
         </g>
        </svg>
</svg>
