<?xml version="1.0" encoding="UTF-8" standalone="no"?>
<!DOCTYPE svg PUBLIC "-//W3C//DTD SVG 1.1//EN"
 "http://www.w3.org/Graphics/SVG/1.1/DTD/svg11.dtd">
<!-- Generated by graphviz version 2.38.0 (20140413.2041)
 -->
<!-- Title: lime::Streamer::AlignRxTSP Pages: 1 -->
<!--zoomable 399 -->
<svg id="main" version="1.1" xmlns="http://www.w3.org/2000/svg" xmlns:xlink="http://www.w3.org/1999/xlink" xml:space="preserve" onload="init(evt)">
<style type="text/css"><![CDATA[
.edge:hover path { stroke: red; }
.edge:hover polygon { stroke: red; fill: red; }
]]></style>
<script type="text/javascript"><![CDATA[
var edges = document.getElementsByTagName('g');
if (edges && edges.length) {
  for (var i=0;i<edges.length;i++) {
    if (edges[i].id.substr(0,4)=='edge') {
      edges[i].setAttribute('class','edge');
    }
  }
}
]]></script>
        <defs>
                <circle id="rim" cx="0" cy="0" r="7"/>
                <circle id="rim2" cx="0" cy="0" r="3.5"/>
                <g id="zoomPlus">
                        <use xlink:href="#rim" fill="#404040">
                                <set attributeName="fill" to="#808080" begin="zoomplus.mouseover" end="zoomplus.mouseout"/>
                        </use>
                        <path d="M-4,0h8M0,-4v8" fill="none" stroke="white" stroke-width="1.5" pointer-events="none"/>
                </g>
                <g id="zoomMin">
                        <use xlink:href="#rim" fill="#404040">
                                <set attributeName="fill" to="#808080" begin="zoomminus.mouseover" end="zoomminus.mouseout"/>
                        </use>
                        <path d="M-4,0h8" fill="none" stroke="white" stroke-width="1.5" pointer-events="none"/>
                </g>
                <g id="dirArrow">
                        <path fill="none" stroke="white" stroke-width="1.5" d="M0,-3.0v7 M-2.5,-0.5L0,-3.0L2.5,-0.5"/>
                </g>
               <g id="resetDef">
                       <use xlink:href="#rim2" fill="#404040">
                               <set attributeName="fill" to="#808080" begin="reset.mouseover" end="reset.mouseout"/>
                       </use>
               </g>
        </defs>

<script type="text/javascript">
var viewWidth = 673;
var viewHeight = 399;
var sectionId = 'dynsection-6';
</script>
<script xlink:href="../../svgpan.js"/>
<svg id="graph" class="graph">
<g id="viewport">
<title>lime::Streamer::AlignRxTSP</title>
<polygon fill="white" stroke="none" points="-4,4 -4,-395 669,-395 669,4 -4,4"/>
<!-- Node1 -->
<g id="node1" class="node"><title>Node1</title>
<polygon fill="#bfbfbf" stroke="black" points="0,-175 0,-194 140,-194 140,-175 0,-175"/>
<text text-anchor="middle" x="70" y="-182" font-family="Helvetica,sans-Serif" font-size="10.00">lime::Streamer::AlignRxTSP</text>
</g>
<!-- Node2 -->
<g id="node2" class="node"><title>Node2</title>
<g id="a_node2"><a xlink:href="../../d2/de5/classlime_1_1IConnection.html#ae6bc7a7556e13862df14e98ccf4b9409" target="_top" xlink:title="lime::IConnection::\lAbortReading">
<polygon fill="white" stroke="black" points="196,-360.5 196,-390.5 295,-390.5 295,-360.5 196,-360.5"/>
<text text-anchor="start" x="204" y="-378.5" font-family="Helvetica,sans-Serif" font-size="10.00">lime::IConnection::</text>
<text text-anchor="middle" x="245.5" y="-367.5" font-family="Helvetica,sans-Serif" font-size="10.00">AbortReading</text>
</a>
</g>
</g>
<!-- Node1&#45;&gt;Node2 -->
<g id="edge1" class="edge"><title>Node1&#45;&gt;Node2</title>
<path fill="none" stroke="midnightblue" d="M74.506,-194.395C85.1377,-223.008 119.773,-306.655 176,-351.5 179.325,-354.152 182.964,-356.522 186.776,-358.638"/>
<polygon fill="midnightblue" stroke="midnightblue" points="185.4,-361.861 195.919,-363.128 188.486,-355.578 185.4,-361.861"/>
</g>
<!-- Node3 -->
<g id="node3" class="node"><title>Node3</title>
<g id="a_node3"><a xlink:href="../../d2/de5/classlime_1_1IConnection.html#a19573cf864645415907886dd71f8d020" target="_top" xlink:title="lime::IConnection::\lReadLMS7002MSPI">
<polygon fill="white" stroke="black" points="192.5,-311.5 192.5,-341.5 298.5,-341.5 298.5,-311.5 192.5,-311.5"/>
<text text-anchor="start" x="200.5" y="-329.5" font-family="Helvetica,sans-Serif" font-size="10.00">lime::IConnection::</text>
<text text-anchor="middle" x="245.5" y="-318.5" font-family="Helvetica,sans-Serif" font-size="10.00">ReadLMS7002MSPI</text>
</a>
</g>
</g>
<!-- Node1&#45;&gt;Node3 -->
<g id="edge2" class="edge"><title>Node1&#45;&gt;Node3</title>
<path fill="none" stroke="midnightblue" d="M77.1164,-194.251C91.5949,-216.574 130.209,-271.82 176,-302.5 178.277,-304.026 180.661,-305.465 183.119,-306.822"/>
<polygon fill="midnightblue" stroke="midnightblue" points="181.762,-310.057 192.273,-311.383 184.883,-303.791 181.762,-310.057"/>
</g>
<!-- Node4 -->
<g id="node4" class="node"><title>Node4</title>
<g id="a_node4"><a xlink:href="../../d2/de5/classlime_1_1IConnection.html#aaa0410a9c772fed64cd37bf8803f40a4" target="_top" xlink:title="lime::IConnection::\lReceiveData">
<polygon fill="white" stroke="black" points="196,-262.5 196,-292.5 295,-292.5 295,-262.5 196,-262.5"/>
<text text-anchor="start" x="204" y="-280.5" font-family="Helvetica,sans-Serif" font-size="10.00">lime::IConnection::</text>
<text text-anchor="middle" x="245.5" y="-269.5" font-family="Helvetica,sans-Serif" font-size="10.00">ReceiveData</text>
</a>
</g>
</g>
<!-- Node1&#45;&gt;Node4 -->
<g id="edge3" class="edge"><title>Node1&#45;&gt;Node4</title>
<path fill="none" stroke="midnightblue" d="M83.3277,-194.052C102.356,-208.453 140.413,-235.904 176,-253.5 179.583,-255.272 183.33,-256.973 187.144,-258.593"/>
<polygon fill="midnightblue" stroke="midnightblue" points="186.129,-261.958 196.713,-262.451 188.747,-255.466 186.129,-261.958"/>
</g>
<!-- Node5 -->
<g id="node5" class="node"><title>Node5</title>
<g id="a_node5"><a xlink:href="../../d2/de5/classlime_1_1IConnection.html#a9be4843aa2121bac2d49eb60d0f45781" target="_top" xlink:title="Read raw stream data from device streaming port. ">
<polygon fill="white" stroke="black" points="192.5,-213.5 192.5,-243.5 298.5,-243.5 298.5,-213.5 192.5,-213.5"/>
<text text-anchor="start" x="200.5" y="-231.5" font-family="Helvetica,sans-Serif" font-size="10.00">lime::IConnection::</text>
<text text-anchor="middle" x="245.5" y="-220.5" font-family="Helvetica,sans-Serif" font-size="10.00">ResetStreamBuffers</text>
</a>
</g>
</g>
<!-- Node1&#45;&gt;Node5 -->
<g id="edge4" class="edge"><title>Node1&#45;&gt;Node5</title>
<path fill="none" stroke="midnightblue" d="M108.647,-194.047C130.195,-199.512 157.771,-206.505 182.44,-212.761"/>
<polygon fill="midnightblue" stroke="midnightblue" points="181.894,-216.234 192.448,-215.299 183.615,-209.449 181.894,-216.234"/>
</g>
<!-- Node6 -->
<g id="node6" class="node"><title>Node6</title>
<g id="a_node6"><a xlink:href="../../db/dcf/classlime_1_1FPGA.html#ad04cb35a54c7eef0aacc9a1a019c4cfd" target="_top" xlink:title="lime::FPGA::StartStreaming">
<polygon fill="white" stroke="black" points="176,-175 176,-194 315,-194 315,-175 176,-175"/>
<text text-anchor="middle" x="245.5" y="-182" font-family="Helvetica,sans-Serif" font-size="10.00">lime::FPGA::StartStreaming</text>
</a>
</g>
</g>
<!-- Node1&#45;&gt;Node6 -->
<g id="edge5" class="edge"><title>Node1&#45;&gt;Node6</title>
<path fill="none" stroke="midnightblue" d="M140.07,-184.5C148.56,-184.5 157.287,-184.5 165.904,-184.5"/>
<polygon fill="midnightblue" stroke="midnightblue" points="165.951,-188 175.951,-184.5 165.951,-181 165.951,-188"/>
</g>
<!-- Node7 -->
<g id="node7" class="node"><title>Node7</title>
<g id="a_node7"><a xlink:href="../../db/dcf/classlime_1_1FPGA.html#acecc385c80d18f662c4ad5575c932456" target="_top" xlink:title="lime::FPGA::StopStreaming">
<polygon fill="white" stroke="black" points="176.5,-137 176.5,-156 314.5,-156 314.5,-137 176.5,-137"/>
<text text-anchor="middle" x="245.5" y="-144" font-family="Helvetica,sans-Serif" font-size="10.00">lime::FPGA::StopStreaming</text>
</a>
</g>
</g>
<!-- Node1&#45;&gt;Node7 -->
<g id="edge6" class="edge"><title>Node1&#45;&gt;Node7</title>
<path fill="none" stroke="midnightblue" d="M114.781,-174.911C137.986,-169.829 166.678,-163.545 191.173,-158.18"/>
<polygon fill="midnightblue" stroke="midnightblue" points="192.014,-161.579 201.033,-156.02 190.516,-154.741 192.014,-161.579"/>
</g>
<!-- Node8 -->
<g id="node8" class="node"><title>Node8</title>
<g id="a_node8"><a xlink:href="../../d5/d6c/namespacelime.html#a377f6c27785115833f62864ba9f37553" target="_top" xlink:title="Log a warning message with formatting. ">
<polygon fill="white" stroke="black" points="208.5,-99 208.5,-118 282.5,-118 282.5,-99 208.5,-99"/>
<text text-anchor="middle" x="245.5" y="-106" font-family="Helvetica,sans-Serif" font-size="10.00">lime::warning</text>
</a>
</g>
</g>
<!-- Node1&#45;&gt;Node8 -->
<g id="edge7" class="edge"><title>Node1&#45;&gt;Node8</title>
<path fill="none" stroke="midnightblue" d="M86.1176,-174.863C106.055,-162.493 142.537,-141.019 176,-127.5 183.241,-124.575 191.088,-121.934 198.799,-119.617"/>
<polygon fill="midnightblue" stroke="midnightblue" points="199.786,-122.975 208.437,-116.858 197.86,-116.246 199.786,-122.975"/>
</g>
<!-- Node10 -->
<g id="node10" class="node"><title>Node10</title>
<g id="a_node10"><a xlink:href="../../d2/de5/classlime_1_1IConnection.html#ad2f9f69f344e4c9acea10392f7fb500d" target="_top" xlink:title="lime::IConnection::\lWriteLMS7002MSPI">
<polygon fill="white" stroke="black" points="192.5,-49.5 192.5,-79.5 298.5,-79.5 298.5,-49.5 192.5,-49.5"/>
<text text-anchor="start" x="200.5" y="-67.5" font-family="Helvetica,sans-Serif" font-size="10.00">lime::IConnection::</text>
<text text-anchor="middle" x="245.5" y="-56.5" font-family="Helvetica,sans-Serif" font-size="10.00">WriteLMS7002MSPI</text>
</a>
</g>
</g>
<!-- Node1&#45;&gt;Node10 -->
<g id="edge9" class="edge"><title>Node1&#45;&gt;Node10</title>
<path fill="none" stroke="midnightblue" d="M79.3069,-174.816C95.9193,-155.987 135.161,-114.13 176,-89.5 179.379,-87.462 182.951,-85.5496 186.619,-83.7625"/>
<polygon fill="midnightblue" stroke="midnightblue" points="188.206,-86.886 195.877,-79.5781 185.323,-80.5073 188.206,-86.886"/>
</g>
<!-- Node11 -->
<g id="node11" class="node"><title>Node11</title>
<g id="a_node11"><a xlink:href="../../d2/de5/classlime_1_1IConnection.html#a039c7086b4261a12e5ee7a5f269e63ae" target="_top" xlink:title="Write a single device register. ">
<polygon fill="white" stroke="black" points="196,-0.5 196,-30.5 295,-30.5 295,-0.5 196,-0.5"/>
<text text-anchor="start" x="204" y="-18.5" font-family="Helvetica,sans-Serif" font-size="10.00">lime::IConnection::</text>
<text text-anchor="middle" x="245.5" y="-7.5" font-family="Helvetica,sans-Serif" font-size="10.00">WriteRegister</text>
</a>
</g>
</g>
<!-- Node1&#45;&gt;Node11 -->
<g id="edge10" class="edge"><title>Node1&#45;&gt;Node11</title>
<path fill="none" stroke="midnightblue" d="M75.3983,-174.823C87.6014,-149.023 124.416,-77.949 176,-39.5 179.353,-37.0008 182.988,-34.7462 186.775,-32.7148"/>
<polygon fill="midnightblue" stroke="midnightblue" points="188.327,-35.8523 195.828,-28.3699 185.298,-29.5415 188.327,-35.8523"/>
</g>
<!-- Node9 -->
<g id="node9" class="node"><title>Node9</title>
<g id="a_node9"><a xlink:href="../../d5/d6c/namespacelime.html#abec841ac666fc9321a10e1881cff2da0" target="_top" xlink:title="Log a message with formatting and specified logging level. ">
<polygon fill="white" stroke="black" points="374,-99 374,-118 427,-118 427,-99 374,-99"/>
<text text-anchor="middle" x="400.5" y="-106" font-family="Helvetica,sans-Serif" font-size="10.00">lime::log</text>
</a>
</g>
</g>
<!-- Node8&#45;&gt;Node9 -->
<g id="edge8" class="edge"><title>Node8&#45;&gt;Node9</title>
<path fill="none" stroke="midnightblue" d="M282.759,-108.5C307.083,-108.5 338.996,-108.5 363.307,-108.5"/>
<polygon fill="midnightblue" stroke="midnightblue" points="363.551,-112 373.551,-108.5 363.551,-105 363.551,-112"/>
</g>
<!-- Node12 -->
<g id="node12" class="node"><title>Node12</title>
<g id="a_node12"><a xlink:href="../../d2/de5/classlime_1_1IConnection.html#a29486e2fa70f0a6005083660d5871454" target="_top" xlink:title="Bulk write device registers. ">
<polygon fill="white" stroke="black" points="351,-0.5 351,-30.5 450,-30.5 450,-0.5 351,-0.5"/>
<text text-anchor="start" x="359" y="-18.5" font-family="Helvetica,sans-Serif" font-size="10.00">lime::IConnection::</text>
<text text-anchor="middle" x="400.5" y="-7.5" font-family="Helvetica,sans-Serif" font-size="10.00">WriteRegisters</text>
</a>
</g>
</g>
<!-- Node11&#45;&gt;Node12 -->
<g id="edge11" class="edge"><title>Node11&#45;&gt;Node12</title>
<path fill="none" stroke="midnightblue" d="M295.331,-15.5C309.755,-15.5 325.697,-15.5 340.68,-15.5"/>
<polygon fill="midnightblue" stroke="midnightblue" points="340.871,-19.0001 350.871,-15.5 340.871,-12.0001 340.871,-19.0001"/>
</g>
<!-- Node13 -->
<g id="node13" class="node"><title>Node13</title>
<g id="a_node13"><a xlink:href="../../d5/d6c/namespacelime.html#adc6af0cf8e0a70f3ef09fac1244f8c48" target="_top" xlink:title="lime::ReportError">
<polygon fill="white" stroke="black" points="486,-6 486,-25 577,-25 577,-6 486,-6"/>
<text text-anchor="middle" x="531.5" y="-13" font-family="Helvetica,sans-Serif" font-size="10.00">lime::ReportError</text>
</a>
</g>
</g>
<!-- Node12&#45;&gt;Node13 -->
<g id="edge12" class="edge"><title>Node12&#45;&gt;Node13</title>
<path fill="none" stroke="midnightblue" d="M450.269,-15.5C458.588,-15.5 467.279,-15.5 475.74,-15.5"/>
<polygon fill="midnightblue" stroke="midnightblue" points="475.908,-19.0001 485.908,-15.5 475.908,-12.0001 475.908,-19.0001"/>
</g>
<!-- Node14 -->
<g id="node14" class="node"><title>Node14</title>
<g id="a_node14"><a xlink:href="../../d9/df5/Logger_8cpp.html#ada38bf01d6d691de953ed69268ea6516" target="_top" xlink:title="errToStr">
<polygon fill="white" stroke="black" points="613,-6 613,-25 665,-25 665,-6 613,-6"/>
<text text-anchor="middle" x="639" y="-13" font-family="Helvetica,sans-Serif" font-size="10.00">errToStr</text>
</a>
</g>
</g>
<!-- Node13&#45;&gt;Node14 -->
<g id="edge13" class="edge"><title>Node13&#45;&gt;Node14</title>
<path fill="none" stroke="midnightblue" d="M577.241,-15.5C585.676,-15.5 594.39,-15.5 602.494,-15.5"/>
<polygon fill="midnightblue" stroke="midnightblue" points="602.722,-19.0001 612.722,-15.5 602.722,-12.0001 602.722,-19.0001"/>
</g>
</g>
</svg>
        <g id="navigator" transform="translate(0 0)" fill="#404254">
                <rect fill="#f2f5e9" fill-opacity="0.5" stroke="#606060" stroke-width=".5" x="0" y="0" width="60" height="60"/>
                <use id="zoomplus" xlink:href="#zoomPlus" x="17" y="9" onmousedown="handleZoom(evt,'in')"/>
                <use id="zoomminus" xlink:href="#zoomMin" x="42" y="9" onmousedown="handleZoom(evt,'out')"/>
                <use id="reset" xlink:href="#resetDef" x="30" y="36" onmousedown="handleReset()"/>
                <g id="arrowUp" xlink:href="#dirArrow" transform="translate(30 24)" onmousedown="handlePan(0,-1)">
                  <use xlink:href="#rim" fill="#404040">
                        <set attributeName="fill" to="#808080" begin="arrowUp.mouseover" end="arrowUp.mouseout"/>
                  </use>
                  <path fill="none" stroke="white" stroke-width="1.5" d="M0,-3.0v7 M-2.5,-0.5L0,-3.0L2.5,-0.5"/>
                </g>
                <g id="arrowRight" xlink:href="#dirArrow" transform="rotate(90) translate(36 -43)" onmousedown="handlePan(1,0)">
                  <use xlink:href="#rim" fill="#404040">
                        <set attributeName="fill" to="#808080" begin="arrowRight.mouseover" end="arrowRight.mouseout"/>
                  </use>
                  <path fill="none" stroke="white" stroke-width="1.5" d="M0,-3.0v7 M-2.5,-0.5L0,-3.0L2.5,-0.5"/>
                </g>
                <g id="arrowDown" xlink:href="#dirArrow" transform="rotate(180) translate(-30 -48)" onmousedown="handlePan(0,1)">
                  <use xlink:href="#rim" fill="#404040">
                        <set attributeName="fill" to="#808080" begin="arrowDown.mouseover" end="arrowDown.mouseout"/>
                  </use>
                  <path fill="none" stroke="white" stroke-width="1.5" d="M0,-3.0v7 M-2.5,-0.5L0,-3.0L2.5,-0.5"/>
                </g>
                <g id="arrowLeft" xlink:href="#dirArrow" transform="rotate(270) translate(-36 17)" onmousedown="handlePan(-1,0)">
                  <use xlink:href="#rim" fill="#404040">
                        <set attributeName="fill" to="#808080" begin="arrowLeft.mouseover" end="arrowLeft.mouseout"/>
                  </use>
                  <path fill="none" stroke="white" stroke-width="1.5" d="M0,-3.0v7 M-2.5,-0.5L0,-3.0L2.5,-0.5"/>
                </g>
        </g>
        <svg viewBox="0 0 15 15" width="100%" height="30px" preserveAspectRatio="xMaxYMin meet">
         <g id="arrow_out" transform="scale(0.3 0.3)">
          <a xlink:href="classlime_1_1Streamer_af72084cb1bf47cd49edb8395eea1f04b_cgraph_org.svg" target="_base">
           <rect id="button" ry="5" rx="5" y="6" x="6" height="38" width="38"
                fill="#f2f5e9" fill-opacity="0.5" stroke="#606060" stroke-width="1.0"/>
           <path id="arrow"
             d="M 11.500037,31.436501 C 11.940474,20.09759 22.043105,11.32322 32.158766,21.979434 L 37.068811,17.246167 C 37.068811,17.246167 37.088388,32 37.088388,32 L 22.160133,31.978069 C 22.160133,31.978069 26.997745,27.140456 26.997745,27.140456 C 18.528582,18.264221 13.291696,25.230495 11.500037,31.436501 z"
             style="fill:#404040;"/>
          </a>
         </g>
        </svg>
</svg>
