<?xml version="1.0" encoding="UTF-8" standalone="no"?>
<!DOCTYPE svg PUBLIC "-//W3C//DTD SVG 1.1//EN"
 "http://www.w3.org/Graphics/SVG/1.1/DTD/svg11.dtd">
<!-- Generated by graphviz version 2.38.0 (20140413.2041)
 -->
<!-- Title: lime::Streamer::AlignRxRF Pages: 1 -->
<svg width="654pt" height="127pt"
 viewBox="0.00 0.00 654.00 126.50" xmlns="http://www.w3.org/2000/svg" xmlns:xlink="http://www.w3.org/1999/xlink">
<g id="graph0" class="graph" transform="scale(1 1) rotate(0) translate(4 122.5)">
<title>lime::Streamer::AlignRxRF</title>
<polygon fill="white" stroke="none" points="-4,4 -4,-122.5 650,-122.5 650,4 -4,4"/>
<!-- Node1 -->
<g id="node1" class="node"><title>Node1</title>
<polygon fill="#bfbfbf" stroke="black" points="0,-44.5 0,-63.5 134,-63.5 134,-44.5 0,-44.5"/>
<text text-anchor="middle" x="67" y="-51.5" font-family="Helvetica,sans-Serif" font-size="10.00">lime::Streamer::AlignRxRF</text>
</g>
<!-- Node2 -->
<g id="node2" class="node"><title>Node2</title>
<g id="a_node2"><a xlink:href="../../d9/d5d/classlime_1_1Streamer.html#a33a233f1c863b9710f3b685d5fb494f6" target="_top" xlink:title="lime::Streamer::UpdateThreads">
<polygon fill="white" stroke="black" points="170,-44.5 170,-63.5 323,-63.5 323,-44.5 170,-44.5"/>
<text text-anchor="middle" x="246.5" y="-51.5" font-family="Helvetica,sans-Serif" font-size="10.00">lime::Streamer::UpdateThreads</text>
</a>
</g>
</g>
<!-- Node1&#45;&gt;Node2 -->
<g id="edge1" class="edge"><title>Node1&#45;&gt;Node2</title>
<path fill="none" stroke="midnightblue" d="M144.299,-54C152.744,-54 161.343,-54 169.782,-54"/>
<polygon fill="midnightblue" stroke="midnightblue" points="144.094,-50.5001 134.094,-54 144.094,-57.5001 144.094,-50.5001"/>
</g>
<!-- Node3 -->
<g id="node3" class="node"><title>Node3</title>
<g id="a_node3"><a xlink:href="../../d7/db1/classlime_1_1StreamChannel.html#aa966ef896b18459801d87f9e6990d98e" target="_top" xlink:title="lime::StreamChannel\l::Start">
<polygon fill="white" stroke="black" points="376.5,-88 376.5,-118 484.5,-118 484.5,-88 376.5,-88"/>
<text text-anchor="start" x="384.5" y="-106" font-family="Helvetica,sans-Serif" font-size="10.00">lime::StreamChannel</text>
<text text-anchor="middle" x="430.5" y="-95" font-family="Helvetica,sans-Serif" font-size="10.00">::Start</text>
</a>
</g>
</g>
<!-- Node2&#45;&gt;Node3 -->
<g id="edge2" class="edge"><title>Node2&#45;&gt;Node3</title>
<path fill="none" stroke="midnightblue" d="M292.764,-66.1864C318.143,-73.0191 349.935,-81.5785 376.475,-88.724"/>
<polygon fill="midnightblue" stroke="midnightblue" points="293.59,-62.7842 283.023,-63.564 291.77,-69.5435 293.59,-62.7842"/>
</g>
<!-- Node4 -->
<g id="node4" class="node"><title>Node4</title>
<g id="a_node4"><a xlink:href="../../d7/db1/classlime_1_1StreamChannel.html#a05331d809d6ba661d28a9d8954715acc" target="_top" xlink:title="lime::StreamChannel\l::Stop">
<polygon fill="white" stroke="black" points="376.5,-39 376.5,-69 484.5,-69 484.5,-39 376.5,-39"/>
<text text-anchor="start" x="384.5" y="-57" font-family="Helvetica,sans-Serif" font-size="10.00">lime::StreamChannel</text>
<text text-anchor="middle" x="430.5" y="-46" font-family="Helvetica,sans-Serif" font-size="10.00">::Stop</text>
</a>
</g>
</g>
<!-- Node2&#45;&gt;Node4 -->
<g id="edge3" class="edge"><title>Node2&#45;&gt;Node4</title>
<path fill="none" stroke="midnightblue" d="M333.224,-54C347.912,-54 362.784,-54 376.303,-54"/>
<polygon fill="midnightblue" stroke="midnightblue" points="333.103,-50.5001 323.103,-54 333.103,-57.5001 333.103,-50.5001"/>
</g>
<!-- Node6 -->
<g id="node6" class="node"><title>Node6</title>
<g id="a_node6"><a xlink:href="../../d9/d5d/classlime_1_1Streamer.html#aaa946b5fe7814a97160d6efd015295e7" target="_top" xlink:title="lime::Streamer::SetupStream">
<polygon fill="white" stroke="black" points="359,-0.5 359,-19.5 502,-19.5 502,-0.5 359,-0.5"/>
<text text-anchor="middle" x="430.5" y="-7.5" font-family="Helvetica,sans-Serif" font-size="10.00">lime::Streamer::SetupStream</text>
</a>
</g>
</g>
<!-- Node2&#45;&gt;Node6 -->
<g id="edge5" class="edge"><title>Node2&#45;&gt;Node6</title>
<path fill="none" stroke="midnightblue" d="M297.008,-42.031C326.262,-34.9586 362.795,-26.1264 390.086,-19.5287"/>
<polygon fill="midnightblue" stroke="midnightblue" points="295.889,-38.7007 286.991,-44.4527 297.534,-45.5047 295.889,-38.7007"/>
</g>
<!-- Node5 -->
<g id="node5" class="node"><title>Node5</title>
<g id="a_node5"><a xlink:href="../../d7/db1/classlime_1_1StreamChannel.html#a9cc4412f3c3e407fa95c02b1a3f2b4db" target="_top" xlink:title="lime::StreamChannel\l::Close">
<polygon fill="white" stroke="black" points="538,-39 538,-69 646,-69 646,-39 538,-39"/>
<text text-anchor="start" x="546" y="-57" font-family="Helvetica,sans-Serif" font-size="10.00">lime::StreamChannel</text>
<text text-anchor="middle" x="592" y="-46" font-family="Helvetica,sans-Serif" font-size="10.00">::Close</text>
</a>
</g>
</g>
<!-- Node4&#45;&gt;Node5 -->
<g id="edge4" class="edge"><title>Node4&#45;&gt;Node5</title>
<path fill="none" stroke="midnightblue" d="M494.831,-54C509.082,-54 524.064,-54 537.849,-54"/>
<polygon fill="midnightblue" stroke="midnightblue" points="494.611,-50.5001 484.611,-54 494.611,-57.5001 494.611,-50.5001"/>
</g>
</g>
</svg>
