<?xml version="1.0" encoding="UTF-8" standalone="no"?>
<!DOCTYPE svg PUBLIC "-//W3C//DTD SVG 1.1//EN"
 "http://www.w3.org/Graphics/SVG/1.1/DTD/svg11.dtd">
<!-- Generated by graphviz version 2.38.0 (20140413.2041)
 -->
<!-- Title: LMS7002_WXGUI::value2index Pages: 1 -->
<svg width="1335pt" height="603pt"
 viewBox="0.00 0.00 1335.00 603.00" xmlns="http://www.w3.org/2000/svg" xmlns:xlink="http://www.w3.org/1999/xlink">
<g id="graph0" class="graph" transform="scale(1 1) rotate(0) translate(4 599)">
<title>LMS7002_WXGUI::value2index</title>
<polygon fill="white" stroke="none" points="-4,4 -4,-599 1331,-599 1331,4 -4,4"/>
<!-- Node1 -->
<g id="node1" class="node"><title>Node1</title>
<polygon fill="#bfbfbf" stroke="black" points="0,-349 0,-368 155,-368 155,-349 0,-349"/>
<text text-anchor="middle" x="77.5" y="-356" font-family="Helvetica,sans-Serif" font-size="10.00">LMS7002_WXGUI::value2index</text>
</g>
<!-- Node2 -->
<g id="node2" class="node"><title>Node2</title>
<g id="a_node2"><a xlink:href="../../d8/d4e/classlms7002__pnlGains__view.html#aa85e48397b6c7cc8d9371055f006bcbb" target="_top" xlink:title="lms7002_pnlGains_view\l::UpdateGUI">
<polygon fill="white" stroke="black" points="194.5,-441.5 194.5,-471.5 316.5,-471.5 316.5,-441.5 194.5,-441.5"/>
<text text-anchor="start" x="202.5" y="-459.5" font-family="Helvetica,sans-Serif" font-size="10.00">lms7002_pnlGains_view</text>
<text text-anchor="middle" x="255.5" y="-448.5" font-family="Helvetica,sans-Serif" font-size="10.00">::UpdateGUI</text>
</a>
</g>
</g>
<!-- Node1&#45;&gt;Node2 -->
<g id="edge1" class="edge"><title>Node1&#45;&gt;Node2</title>
<path fill="none" stroke="midnightblue" d="M99.7753,-374.158C121.838,-389.944 157.703,-414.363 191,-431.5 197.847,-435.024 205.311,-438.371 212.637,-441.402"/>
<polygon fill="midnightblue" stroke="midnightblue" points="101.64,-371.187 91.4848,-368.166 97.5396,-376.86 101.64,-371.187"/>
</g>
<!-- Node21 -->
<g id="node21" class="node"><title>Node21</title>
<g id="a_node21"><a xlink:href="../../dd/d9e/classlms7002__pnlTRF__view.html#a4e01cb4fe4320b5f63648681360cc84d" target="_top" xlink:title="lms7002_pnlTRF_view\l::UpdateGUI">
<polygon fill="white" stroke="black" points="197.5,-392.5 197.5,-422.5 313.5,-422.5 313.5,-392.5 197.5,-392.5"/>
<text text-anchor="start" x="205.5" y="-410.5" font-family="Helvetica,sans-Serif" font-size="10.00">lms7002_pnlTRF_view</text>
<text text-anchor="middle" x="255.5" y="-399.5" font-family="Helvetica,sans-Serif" font-size="10.00">::UpdateGUI</text>
</a>
</g>
</g>
<!-- Node1&#45;&gt;Node21 -->
<g id="edge21" class="edge"><title>Node1&#45;&gt;Node21</title>
<path fill="none" stroke="midnightblue" d="M122.599,-370.778C146.219,-377.354 175.513,-385.509 200.49,-392.463"/>
<polygon fill="midnightblue" stroke="midnightblue" points="123.425,-367.374 112.852,-368.064 121.547,-374.118 123.425,-367.374"/>
</g>
<!-- Node22 -->
<g id="node22" class="node"><title>Node22</title>
<g id="a_node22"><a xlink:href="../../da/d66/classlms7002__pnlRFE__view.html#a1747c3b95364eda9b2a7461d31aeab04" target="_top" xlink:title="lms7002_pnlRFE_view\l::UpdateGUI">
<polygon fill="white" stroke="black" points="197,-343.5 197,-373.5 314,-373.5 314,-343.5 197,-343.5"/>
<text text-anchor="start" x="205" y="-361.5" font-family="Helvetica,sans-Serif" font-size="10.00">lms7002_pnlRFE_view</text>
<text text-anchor="middle" x="255.5" y="-350.5" font-family="Helvetica,sans-Serif" font-size="10.00">::UpdateGUI</text>
</a>
</g>
</g>
<!-- Node1&#45;&gt;Node22 -->
<g id="edge23" class="edge"><title>Node1&#45;&gt;Node22</title>
<path fill="none" stroke="midnightblue" d="M165.395,-358.5C176.073,-358.5 186.773,-358.5 196.865,-358.5"/>
<polygon fill="midnightblue" stroke="midnightblue" points="165.184,-355 155.184,-358.5 165.184,-362 165.184,-355"/>
</g>
<!-- Node23 -->
<g id="node23" class="node"><title>Node23</title>
<g id="a_node23"><a xlink:href="../../df/d5f/classlms7002__pnlTxTSP__view.html#af5aedf568953bcab213b8a2dfe1870b1" target="_top" xlink:title="lms7002_pnlTxTSP_view\l::UpdateGUI">
<polygon fill="white" stroke="black" points="191.5,-294.5 191.5,-324.5 319.5,-324.5 319.5,-294.5 191.5,-294.5"/>
<text text-anchor="start" x="199.5" y="-312.5" font-family="Helvetica,sans-Serif" font-size="10.00">lms7002_pnlTxTSP_view</text>
<text text-anchor="middle" x="255.5" y="-301.5" font-family="Helvetica,sans-Serif" font-size="10.00">::UpdateGUI</text>
</a>
</g>
</g>
<!-- Node1&#45;&gt;Node23 -->
<g id="edge25" class="edge"><title>Node1&#45;&gt;Node23</title>
<path fill="none" stroke="midnightblue" d="M122.599,-346.222C146.219,-339.646 175.513,-331.491 200.49,-324.537"/>
<polygon fill="midnightblue" stroke="midnightblue" points="121.547,-342.882 112.852,-348.936 123.425,-349.626 121.547,-342.882"/>
</g>
<!-- Node28 -->
<g id="node28" class="node"><title>Node28</title>
<g id="a_node28"><a xlink:href="../../df/d64/classlms7002__pnlRxTSP__view.html#a4e800390b694e30eb492a4de0f209c19" target="_top" xlink:title="lms7002_pnlRxTSP_view\l::UpdateGUI">
<polygon fill="white" stroke="black" points="191,-123.5 191,-153.5 320,-153.5 320,-123.5 191,-123.5"/>
<text text-anchor="start" x="199" y="-141.5" font-family="Helvetica,sans-Serif" font-size="10.00">lms7002_pnlRxTSP_view</text>
<text text-anchor="middle" x="255.5" y="-130.5" font-family="Helvetica,sans-Serif" font-size="10.00">::UpdateGUI</text>
</a>
</g>
</g>
<!-- Node1&#45;&gt;Node28 -->
<g id="edge31" class="edge"><title>Node1&#45;&gt;Node28</title>
<path fill="none" stroke="midnightblue" d="M92.6747,-340.782C126.383,-298.647 210.858,-193.052 242.384,-153.645"/>
<polygon fill="midnightblue" stroke="midnightblue" points="89.8035,-338.768 86.2896,-348.763 95.2696,-343.141 89.8035,-338.768"/>
</g>
<!-- Node3 -->
<g id="node3" class="node"><title>Node3</title>
<g id="a_node3"><a xlink:href="../../d8/d3c/classlms7002__mainPanel.html#abb8c5306cebfa58d153414b6c1b50db9" target="_top" xlink:title="lms7002_mainPanel::\lUpdateVisiblePanel">
<polygon fill="white" stroke="black" points="365.5,-392.5 365.5,-422.5 475.5,-422.5 475.5,-392.5 365.5,-392.5"/>
<text text-anchor="start" x="373.5" y="-410.5" font-family="Helvetica,sans-Serif" font-size="10.00">lms7002_mainPanel::</text>
<text text-anchor="middle" x="420.5" y="-399.5" font-family="Helvetica,sans-Serif" font-size="10.00">UpdateVisiblePanel</text>
</a>
</g>
</g>
<!-- Node2&#45;&gt;Node3 -->
<g id="edge2" class="edge"><title>Node2&#45;&gt;Node3</title>
<path fill="none" stroke="midnightblue" d="M316.753,-438.387C334.082,-433.178 352.789,-427.554 369.43,-422.552"/>
<polygon fill="midnightblue" stroke="midnightblue" points="315.304,-435.168 306.735,-441.399 317.32,-441.871 315.304,-435.168"/>
</g>
<!-- Node4 -->
<g id="node4" class="node"><title>Node4</title>
<g id="a_node4"><a xlink:href="../../d8/d3c/classlms7002__mainPanel.html#a44397c4b4ab5cfedcaf684f284955586" target="_top" xlink:title="lms7002_mainPanel::\lOnDownloadAll">
<polygon fill="white" stroke="black" points="552.5,-564.5 552.5,-594.5 662.5,-594.5 662.5,-564.5 552.5,-564.5"/>
<text text-anchor="start" x="560.5" y="-582.5" font-family="Helvetica,sans-Serif" font-size="10.00">lms7002_mainPanel::</text>
<text text-anchor="middle" x="607.5" y="-571.5" font-family="Helvetica,sans-Serif" font-size="10.00">OnDownloadAll</text>
</a>
</g>
</g>
<!-- Node3&#45;&gt;Node4 -->
<g id="edge3" class="edge"><title>Node3&#45;&gt;Node4</title>
<path fill="none" stroke="midnightblue" d="M431.558,-431.83C446.332,-464.575 476.998,-522.41 521,-554.5 530.247,-561.243 541.292,-566.177 552.323,-569.784"/>
<polygon fill="midnightblue" stroke="midnightblue" points="434.703,-430.287 427.486,-422.53 428.29,-433.094 434.703,-430.287"/>
</g>
<!-- Node5 -->
<g id="node5" class="node"><title>Node5</title>
<g id="a_node5"><a xlink:href="../../d8/d3c/classlms7002__mainPanel.html#a43c4592235060266a985096ea4f3ecfb" target="_top" xlink:title="lms7002_mainPanel::\lOnEnableMIMOchecked">
<polygon fill="white" stroke="black" points="546,-515.5 546,-545.5 669,-545.5 669,-515.5 546,-515.5"/>
<text text-anchor="start" x="554" y="-533.5" font-family="Helvetica,sans-Serif" font-size="10.00">lms7002_mainPanel::</text>
<text text-anchor="middle" x="607.5" y="-522.5" font-family="Helvetica,sans-Serif" font-size="10.00">OnEnableMIMOchecked</text>
</a>
</g>
</g>
<!-- Node3&#45;&gt;Node5 -->
<g id="edge4" class="edge"><title>Node3&#45;&gt;Node5</title>
<path fill="none" stroke="midnightblue" d="M439.309,-430.753C457.533,-453.014 487.818,-486.007 521,-505.5 528.601,-509.965 537.056,-513.681 545.607,-516.76"/>
<polygon fill="midnightblue" stroke="midnightblue" points="441.918,-428.413 432.934,-422.798 436.456,-432.79 441.918,-428.413"/>
</g>
<!-- Node6 -->
<g id="node6" class="node"><title>Node6</title>
<g id="a_node6"><a xlink:href="../../d8/d3c/classlms7002__mainPanel.html#a4de4742979a2f25a74dc4543b34a2ce2" target="_top" xlink:title="lms7002_mainPanel::\lOnLmsDeviceSelect">
<polygon fill="white" stroke="black" points="552.5,-466.5 552.5,-496.5 662.5,-496.5 662.5,-466.5 552.5,-466.5"/>
<text text-anchor="start" x="560.5" y="-484.5" font-family="Helvetica,sans-Serif" font-size="10.00">lms7002_mainPanel::</text>
<text text-anchor="middle" x="607.5" y="-473.5" font-family="Helvetica,sans-Serif" font-size="10.00">OnLmsDeviceSelect</text>
</a>
</g>
</g>
<!-- Node3&#45;&gt;Node6 -->
<g id="edge5" class="edge"><title>Node3&#45;&gt;Node6</title>
<path fill="none" stroke="midnightblue" d="M457.784,-427.257C476.348,-436.876 499.508,-448.138 521,-456.5 530.945,-460.369 541.74,-463.969 552.205,-467.163"/>
<polygon fill="midnightblue" stroke="midnightblue" points="459.281,-424.09 448.799,-422.544 456.029,-430.289 459.281,-424.09"/>
</g>
<!-- Node7 -->
<g id="node7" class="node"><title>Node7</title>
<g id="a_node7"><a xlink:href="../../d8/d3c/classlms7002__mainPanel.html#a6102ca7439ecabfba330dae9de95b419" target="_top" xlink:title="lms7002_mainPanel::\lOnnotebook_modulesPageChanged">
<polygon fill="white" stroke="black" points="521,-417.5 521,-447.5 694,-447.5 694,-417.5 521,-417.5"/>
<text text-anchor="start" x="529" y="-435.5" font-family="Helvetica,sans-Serif" font-size="10.00">lms7002_mainPanel::</text>
<text text-anchor="middle" x="607.5" y="-424.5" font-family="Helvetica,sans-Serif" font-size="10.00">Onnotebook_modulesPageChanged</text>
</a>
</g>
</g>
<!-- Node3&#45;&gt;Node7 -->
<g id="edge6" class="edge"><title>Node3&#45;&gt;Node7</title>
<path fill="none" stroke="midnightblue" d="M485.701,-416.176C497.016,-417.705 508.956,-419.318 520.749,-420.912"/>
<polygon fill="midnightblue" stroke="midnightblue" points="485.886,-412.669 475.507,-414.798 484.948,-419.606 485.886,-412.669"/>
</g>
<!-- Node10 -->
<g id="node10" class="node"><title>Node10</title>
<g id="a_node10"><a xlink:href="../../d8/d3c/classlms7002__mainPanel.html#aa95a38c6fd2f0a119c940e0fe3a45e1a" target="_top" xlink:title="lms7002_mainPanel::\lOnSwitchToChannelA">
<polygon fill="white" stroke="black" points="551,-368.5 551,-398.5 664,-398.5 664,-368.5 551,-368.5"/>
<text text-anchor="start" x="559" y="-386.5" font-family="Helvetica,sans-Serif" font-size="10.00">lms7002_mainPanel::</text>
<text text-anchor="middle" x="607.5" y="-375.5" font-family="Helvetica,sans-Serif" font-size="10.00">OnSwitchToChannelA</text>
</a>
</g>
</g>
<!-- Node3&#45;&gt;Node10 -->
<g id="edge9" class="edge"><title>Node3&#45;&gt;Node10</title>
<path fill="none" stroke="midnightblue" d="M485.427,-399.207C506.704,-396.446 530.218,-393.396 550.819,-390.723"/>
<polygon fill="midnightblue" stroke="midnightblue" points="484.974,-395.736 475.507,-400.494 485.874,-402.678 484.974,-395.736"/>
</g>
<!-- Node11 -->
<g id="node11" class="node"><title>Node11</title>
<g id="a_node11"><a xlink:href="../../d8/d3c/classlms7002__mainPanel.html#a28dc31b61c070c31433142620232788c" target="_top" xlink:title="lms7002_mainPanel::\lOnSwitchToChannelB">
<polygon fill="white" stroke="black" points="551,-319.5 551,-349.5 664,-349.5 664,-319.5 551,-319.5"/>
<text text-anchor="start" x="559" y="-337.5" font-family="Helvetica,sans-Serif" font-size="10.00">lms7002_mainPanel::</text>
<text text-anchor="middle" x="607.5" y="-326.5" font-family="Helvetica,sans-Serif" font-size="10.00">OnSwitchToChannelB</text>
</a>
</g>
</g>
<!-- Node3&#45;&gt;Node11 -->
<g id="edge10" class="edge"><title>Node3&#45;&gt;Node11</title>
<path fill="none" stroke="midnightblue" d="M472.679,-388.461C476.898,-386.557 481.054,-384.562 485,-382.5 502.043,-373.594 503.528,-366.531 521,-358.5 530.386,-354.186 540.715,-350.486 550.851,-347.375"/>
<polygon fill="midnightblue" stroke="midnightblue" points="471.189,-385.292 463.399,-392.473 473.967,-391.717 471.189,-385.292"/>
</g>
<!-- Node12 -->
<g id="node12" class="node"><title>Node12</title>
<g id="a_node12"><a xlink:href="../../d8/d3c/classlms7002__mainPanel.html#a3acbef587578b6d24d5e8a9b8f79cbd8" target="_top" xlink:title="lms7002_mainPanel::\lOnUploadAll">
<polygon fill="white" stroke="black" points="552.5,-270.5 552.5,-300.5 662.5,-300.5 662.5,-270.5 552.5,-270.5"/>
<text text-anchor="start" x="560.5" y="-288.5" font-family="Helvetica,sans-Serif" font-size="10.00">lms7002_mainPanel::</text>
<text text-anchor="middle" x="607.5" y="-277.5" font-family="Helvetica,sans-Serif" font-size="10.00">OnUploadAll</text>
</a>
</g>
</g>
<!-- Node3&#45;&gt;Node12 -->
<g id="edge11" class="edge"><title>Node3&#45;&gt;Node12</title>
<path fill="none" stroke="midnightblue" d="M479.598,-386.919C481.49,-385.536 483.3,-384.064 485,-382.5 511.62,-358.005 493.173,-332.615 521,-309.5 529.895,-302.112 540.916,-296.992 552.055,-293.447"/>
<polygon fill="midnightblue" stroke="midnightblue" points="477.444,-384.139 470.852,-392.434 481.177,-390.06 477.444,-384.139"/>
</g>
<!-- Node13 -->
<g id="node13" class="node"><title>Node13</title>
<g id="a_node13"><a xlink:href="../../d8/d3c/classlms7002__mainPanel.html#a262803ea9a5a7a2c0e400d8ea921d66c" target="_top" xlink:title="lms7002_mainPanel::\lUpdateGUI">
<polygon fill="white" stroke="black" points="552.5,-221.5 552.5,-251.5 662.5,-251.5 662.5,-221.5 552.5,-221.5"/>
<text text-anchor="start" x="560.5" y="-239.5" font-family="Helvetica,sans-Serif" font-size="10.00">lms7002_mainPanel::</text>
<text text-anchor="middle" x="607.5" y="-228.5" font-family="Helvetica,sans-Serif" font-size="10.00">UpdateGUI</text>
</a>
</g>
</g>
<!-- Node3&#45;&gt;Node13 -->
<g id="edge12" class="edge"><title>Node3&#45;&gt;Node13</title>
<path fill="none" stroke="midnightblue" d="M481.147,-386.262C482.501,-385.075 483.79,-383.822 485,-382.5 523.176,-340.803 480.76,-300.209 521,-260.5 529.56,-252.053 540.841,-246.526 552.39,-242.923"/>
<polygon fill="midnightblue" stroke="midnightblue" points="478.789,-383.65 472.775,-392.372 482.916,-389.304 478.789,-383.65"/>
</g>
<!-- Node8 -->
<g id="node8" class="node"><title>Node8</title>
<g id="a_node8"><a xlink:href="../../d8/d3c/classlms7002__mainPanel.html#aff2ae64c885239df71be67c69f9a2c81" target="_top" xlink:title="lms7002_mainPanel::\lOnLoadDefault">
<polygon fill="white" stroke="black" points="730,-392.5 730,-422.5 840,-422.5 840,-392.5 730,-392.5"/>
<text text-anchor="start" x="738" y="-410.5" font-family="Helvetica,sans-Serif" font-size="10.00">lms7002_mainPanel::</text>
<text text-anchor="middle" x="785" y="-399.5" font-family="Helvetica,sans-Serif" font-size="10.00">OnLoadDefault</text>
</a>
</g>
</g>
<!-- Node7&#45;&gt;Node8 -->
<g id="edge7" class="edge"><title>Node7&#45;&gt;Node8</title>
<path fill="none" stroke="midnightblue" d="M704.179,-418.871C712.999,-417.614 721.712,-416.373 729.957,-415.198"/>
<polygon fill="midnightblue" stroke="midnightblue" points="703.6,-415.418 694.194,-420.293 704.587,-422.348 703.6,-415.418"/>
</g>
<!-- Node9 -->
<g id="node9" class="node"><title>Node9</title>
<g id="a_node9"><a xlink:href="../../d8/d3c/classlms7002__mainPanel.html#ab702fe2f9725c2e7aade97270472ac9e" target="_top" xlink:title="lms7002_mainPanel::\lOnResetChip">
<polygon fill="white" stroke="black" points="730,-441.5 730,-471.5 840,-471.5 840,-441.5 730,-441.5"/>
<text text-anchor="start" x="738" y="-459.5" font-family="Helvetica,sans-Serif" font-size="10.00">lms7002_mainPanel::</text>
<text text-anchor="middle" x="785" y="-448.5" font-family="Helvetica,sans-Serif" font-size="10.00">OnResetChip</text>
</a>
</g>
</g>
<!-- Node7&#45;&gt;Node9 -->
<g id="edge8" class="edge"><title>Node7&#45;&gt;Node9</title>
<path fill="none" stroke="midnightblue" d="M704.179,-445.584C712.999,-446.791 721.712,-447.982 729.957,-449.11"/>
<polygon fill="midnightblue" stroke="midnightblue" points="704.576,-442.106 694.194,-444.219 703.627,-449.041 704.576,-442.106"/>
</g>
<!-- Node14 -->
<g id="node14" class="node"><title>Node14</title>
<g id="a_node14"><a xlink:href="../../d8/d3c/classlms7002__mainPanel.html#a38ef18df694e067998a0bbad1813a031" target="_top" xlink:title="lms7002_mainPanel::\lInitialize">
<polygon fill="white" stroke="black" points="730,-270.5 730,-300.5 840,-300.5 840,-270.5 730,-270.5"/>
<text text-anchor="start" x="738" y="-288.5" font-family="Helvetica,sans-Serif" font-size="10.00">lms7002_mainPanel::</text>
<text text-anchor="middle" x="785" y="-277.5" font-family="Helvetica,sans-Serif" font-size="10.00">Initialize</text>
</a>
</g>
</g>
<!-- Node13&#45;&gt;Node14 -->
<g id="edge13" class="edge"><title>Node13&#45;&gt;Node14</title>
<path fill="none" stroke="midnightblue" d="M672.329,-254.321C691.278,-259.612 711.838,-265.352 730.091,-270.448"/>
<polygon fill="midnightblue" stroke="midnightblue" points="673.161,-250.92 662.588,-251.601 671.278,-257.662 673.161,-250.92"/>
</g>
<!-- Node19 -->
<g id="node19" class="node"><title>Node19</title>
<g id="a_node19"><a xlink:href="../../d8/d3c/classlms7002__mainPanel.html#a7a90f8fb05946924fa257e8323bfdf45" target="_top" xlink:title="lms7002_mainPanel::\lOnNewProject">
<polygon fill="white" stroke="black" points="730,-221.5 730,-251.5 840,-251.5 840,-221.5 730,-221.5"/>
<text text-anchor="start" x="738" y="-239.5" font-family="Helvetica,sans-Serif" font-size="10.00">lms7002_mainPanel::</text>
<text text-anchor="middle" x="785" y="-228.5" font-family="Helvetica,sans-Serif" font-size="10.00">OnNewProject</text>
</a>
</g>
</g>
<!-- Node13&#45;&gt;Node19 -->
<g id="edge19" class="edge"><title>Node13&#45;&gt;Node19</title>
<path fill="none" stroke="midnightblue" d="M672.802,-236.5C691.515,-236.5 711.763,-236.5 729.789,-236.5"/>
<polygon fill="midnightblue" stroke="midnightblue" points="672.588,-233 662.588,-236.5 672.588,-240 672.588,-233"/>
</g>
<!-- Node20 -->
<g id="node20" class="node"><title>Node20</title>
<g id="a_node20"><a xlink:href="../../d8/d3c/classlms7002__mainPanel.html#a6b98c7113ae45b9d23f5ccf747c56797" target="_top" xlink:title="lms7002_mainPanel::\lOnOpenProject">
<polygon fill="white" stroke="black" points="730,-172.5 730,-202.5 840,-202.5 840,-172.5 730,-172.5"/>
<text text-anchor="start" x="738" y="-190.5" font-family="Helvetica,sans-Serif" font-size="10.00">lms7002_mainPanel::</text>
<text text-anchor="middle" x="785" y="-179.5" font-family="Helvetica,sans-Serif" font-size="10.00">OnOpenProject</text>
</a>
</g>
</g>
<!-- Node13&#45;&gt;Node20 -->
<g id="edge20" class="edge"><title>Node13&#45;&gt;Node20</title>
<path fill="none" stroke="midnightblue" d="M672.329,-218.679C691.278,-213.388 711.838,-207.648 730.091,-202.552"/>
<polygon fill="midnightblue" stroke="midnightblue" points="671.278,-215.338 662.588,-221.399 673.161,-222.08 671.278,-215.338"/>
</g>
<!-- Node15 -->
<g id="node15" class="node"><title>Node15</title>
<g id="a_node15"><a xlink:href="../../d1/df3/classLMS7SuiteAppFrame.html#aeaeb613a8c9139f0e60b02f1f612ed5d" target="_top" xlink:title="LMS7SuiteAppFrame::\lUpdateConnections">
<polygon fill="white" stroke="black" points="876,-270.5 876,-300.5 992,-300.5 992,-270.5 876,-270.5"/>
<text text-anchor="start" x="884" y="-288.5" font-family="Helvetica,sans-Serif" font-size="10.00">LMS7SuiteAppFrame::</text>
<text text-anchor="middle" x="934" y="-277.5" font-family="Helvetica,sans-Serif" font-size="10.00">UpdateConnections</text>
</a>
</g>
</g>
<!-- Node14&#45;&gt;Node15 -->
<g id="edge14" class="edge"><title>Node14&#45;&gt;Node15</title>
<path fill="none" stroke="midnightblue" d="M850.532,-285.5C858.996,-285.5 867.62,-285.5 875.947,-285.5"/>
<polygon fill="midnightblue" stroke="midnightblue" points="850.32,-282 840.32,-285.5 850.32,-289 850.32,-282"/>
</g>
<!-- Node16 -->
<g id="node16" class="node"><title>Node16</title>
<g id="a_node16"><a xlink:href="../../d1/df3/classLMS7SuiteAppFrame.html#ad380f4e547c66fcfffdec0da53fe5b3e" target="_top" xlink:title="Constructor. ">
<polygon fill="white" stroke="black" points="1199,-292.5 1199,-322.5 1315,-322.5 1315,-292.5 1199,-292.5"/>
<text text-anchor="start" x="1207" y="-310.5" font-family="Helvetica,sans-Serif" font-size="10.00">LMS7SuiteAppFrame::</text>
<text text-anchor="middle" x="1257" y="-299.5" font-family="Helvetica,sans-Serif" font-size="10.00">LMS7SuiteAppFrame</text>
</a>
</g>
</g>
<!-- Node15&#45;&gt;Node16 -->
<g id="edge15" class="edge"><title>Node15&#45;&gt;Node16</title>
<path fill="none" stroke="midnightblue" d="M1002.23,-290.108C1060.51,-294.102 1143.9,-299.817 1198.97,-303.592"/>
<polygon fill="midnightblue" stroke="midnightblue" points="1002.23,-286.6 992.018,-289.408 1001.76,-293.583 1002.23,-286.6"/>
</g>
<!-- Node17 -->
<g id="node17" class="node"><title>Node17</title>
<g id="a_node17"><a xlink:href="../../d1/df3/classLMS7SuiteAppFrame.html#a819f017d3e706c433d9b7f4f9bc1f9c3" target="_top" xlink:title="LMS7SuiteAppFrame::\lOnControlBoardConnect">
<polygon fill="white" stroke="black" points="1028,-248.5 1028,-278.5 1151,-278.5 1151,-248.5 1028,-248.5"/>
<text text-anchor="start" x="1036" y="-266.5" font-family="Helvetica,sans-Serif" font-size="10.00">LMS7SuiteAppFrame::</text>
<text text-anchor="middle" x="1089.5" y="-255.5" font-family="Helvetica,sans-Serif" font-size="10.00">OnControlBoardConnect</text>
</a>
</g>
</g>
<!-- Node15&#45;&gt;Node17 -->
<g id="edge16" class="edge"><title>Node15&#45;&gt;Node17</title>
<path fill="none" stroke="midnightblue" d="M1002.14,-275.878C1010.73,-274.647 1019.48,-273.392 1027.95,-272.178"/>
<polygon fill="midnightblue" stroke="midnightblue" points="1001.56,-272.425 992.158,-277.308 1002.55,-279.354 1001.56,-272.425"/>
</g>
<!-- Node17&#45;&gt;Node16 -->
<g id="edge17" class="edge"><title>Node17&#45;&gt;Node16</title>
<path fill="none" stroke="midnightblue" d="M1156.68,-281.094C1170.85,-284.863 1185.71,-288.812 1199.48,-292.474"/>
<polygon fill="midnightblue" stroke="midnightblue" points="1157.56,-277.706 1146.99,-278.519 1155.76,-284.471 1157.56,-277.706"/>
</g>
<!-- Node18 -->
<g id="node18" class="node"><title>Node18</title>
<g id="a_node18"><a xlink:href="../../d1/df3/classLMS7SuiteAppFrame.html#a08626f72855857180d80ab271f481d08" target="_top" xlink:title="LMS7SuiteAppFrame::\lOnShowConnectionSettings">
<polygon fill="white" stroke="black" points="1187,-243.5 1187,-273.5 1327,-273.5 1327,-243.5 1187,-243.5"/>
<text text-anchor="start" x="1195" y="-261.5" font-family="Helvetica,sans-Serif" font-size="10.00">LMS7SuiteAppFrame::</text>
<text text-anchor="middle" x="1257" y="-250.5" font-family="Helvetica,sans-Serif" font-size="10.00">OnShowConnectionSettings</text>
</a>
</g>
</g>
<!-- Node17&#45;&gt;Node18 -->
<g id="edge18" class="edge"><title>Node17&#45;&gt;Node18</title>
<path fill="none" stroke="midnightblue" d="M1161.4,-261.358C1169.86,-261.102 1178.49,-260.842 1186.93,-260.587"/>
<polygon fill="midnightblue" stroke="midnightblue" points="1161.08,-257.866 1151.19,-261.667 1161.29,-264.863 1161.08,-257.866"/>
</g>
<!-- Node21&#45;&gt;Node3 -->
<g id="edge22" class="edge"><title>Node21&#45;&gt;Node3</title>
<path fill="none" stroke="midnightblue" d="M323.91,-407.5C337.686,-407.5 352.017,-407.5 365.262,-407.5"/>
<polygon fill="midnightblue" stroke="midnightblue" points="323.51,-404 313.509,-407.5 323.509,-411 323.51,-404"/>
</g>
<!-- Node22&#45;&gt;Node3 -->
<g id="edge24" class="edge"><title>Node22&#45;&gt;Node3</title>
<path fill="none" stroke="midnightblue" d="M316.753,-376.613C334.082,-381.822 352.789,-387.446 369.43,-392.448"/>
<polygon fill="midnightblue" stroke="midnightblue" points="317.32,-373.129 306.735,-373.601 315.304,-379.832 317.32,-373.129"/>
</g>
<!-- Node23&#45;&gt;Node3 -->
<g id="edge30" class="edge"><title>Node23&#45;&gt;Node3</title>
<path fill="none" stroke="midnightblue" d="M314.264,-329.546C316.249,-330.794 318.169,-332.111 320,-333.5 341.525,-349.838 334.587,-366.015 356,-382.5 360.976,-386.331 366.613,-389.647 372.424,-392.497"/>
<polygon fill="midnightblue" stroke="midnightblue" points="315.656,-326.315 305.216,-324.512 312.253,-332.432 315.656,-326.315"/>
</g>
<!-- Node24 -->
<g id="node24" class="node"><title>Node24</title>
<g id="a_node24"><a xlink:href="../../df/d5f/classlms7002__pnlTxTSP__view.html#a3e06b0516f68b60615ba3b4ff1b64153" target="_top" xlink:title="lms7002_pnlTxTSP_view\l::onbtnGFIR1Coef">
<polygon fill="white" stroke="black" points="356.5,-196.5 356.5,-226.5 484.5,-226.5 484.5,-196.5 356.5,-196.5"/>
<text text-anchor="start" x="364.5" y="-214.5" font-family="Helvetica,sans-Serif" font-size="10.00">lms7002_pnlTxTSP_view</text>
<text text-anchor="middle" x="420.5" y="-203.5" font-family="Helvetica,sans-Serif" font-size="10.00">::onbtnGFIR1Coef</text>
</a>
</g>
</g>
<!-- Node23&#45;&gt;Node24 -->
<g id="edge26" class="edge"><title>Node23&#45;&gt;Node24</title>
<path fill="none" stroke="midnightblue" d="M281.554,-287.775C300.913,-271.779 328.895,-250.322 356,-235.5 361.894,-232.277 368.311,-229.299 374.727,-226.618"/>
<polygon fill="midnightblue" stroke="midnightblue" points="279.23,-285.156 273.813,-294.261 283.726,-290.521 279.23,-285.156"/>
</g>
<!-- Node25 -->
<g id="node25" class="node"><title>Node25</title>
<g id="a_node25"><a xlink:href="../../df/d5f/classlms7002__pnlTxTSP__view.html#a6326c7ce611d17130beadd1ea66fac04" target="_top" xlink:title="lms7002_pnlTxTSP_view\l::onbtnGFIR2Coef">
<polygon fill="white" stroke="black" points="356.5,-343.5 356.5,-373.5 484.5,-373.5 484.5,-343.5 356.5,-343.5"/>
<text text-anchor="start" x="364.5" y="-361.5" font-family="Helvetica,sans-Serif" font-size="10.00">lms7002_pnlTxTSP_view</text>
<text text-anchor="middle" x="420.5" y="-350.5" font-family="Helvetica,sans-Serif" font-size="10.00">::onbtnGFIR2Coef</text>
</a>
</g>
</g>
<!-- Node23&#45;&gt;Node25 -->
<g id="edge27" class="edge"><title>Node23&#45;&gt;Node25</title>
<path fill="none" stroke="midnightblue" d="M316.753,-327.613C334.082,-332.822 352.789,-338.446 369.43,-343.448"/>
<polygon fill="midnightblue" stroke="midnightblue" points="317.32,-324.129 306.735,-324.601 315.304,-330.832 317.32,-324.129"/>
</g>
<!-- Node26 -->
<g id="node26" class="node"><title>Node26</title>
<g id="a_node26"><a xlink:href="../../df/d5f/classlms7002__pnlTxTSP__view.html#ae7ca31c0b5e960d5dea7822cf8161438" target="_top" xlink:title="lms7002_pnlTxTSP_view\l::onbtnGFIR3Coef">
<polygon fill="white" stroke="black" points="356.5,-294.5 356.5,-324.5 484.5,-324.5 484.5,-294.5 356.5,-294.5"/>
<text text-anchor="start" x="364.5" y="-312.5" font-family="Helvetica,sans-Serif" font-size="10.00">lms7002_pnlTxTSP_view</text>
<text text-anchor="middle" x="420.5" y="-301.5" font-family="Helvetica,sans-Serif" font-size="10.00">::onbtnGFIR3Coef</text>
</a>
</g>
</g>
<!-- Node23&#45;&gt;Node26 -->
<g id="edge28" class="edge"><title>Node23&#45;&gt;Node26</title>
<path fill="none" stroke="midnightblue" d="M329.546,-309.5C338.499,-309.5 347.589,-309.5 356.379,-309.5"/>
<polygon fill="midnightblue" stroke="midnightblue" points="329.52,-306 319.52,-309.5 329.52,-313 329.52,-306"/>
</g>
<!-- Node27 -->
<g id="node27" class="node"><title>Node27</title>
<g id="a_node27"><a xlink:href="../../df/d5f/classlms7002__pnlTxTSP__view.html#ab65a709233861b4e20d226c2a0f298f7" target="_top" xlink:title="lms7002_pnlTxTSP_view\l::OnbtnUploadNCOClick">
<polygon fill="white" stroke="black" points="356.5,-245.5 356.5,-275.5 484.5,-275.5 484.5,-245.5 356.5,-245.5"/>
<text text-anchor="start" x="364.5" y="-263.5" font-family="Helvetica,sans-Serif" font-size="10.00">lms7002_pnlTxTSP_view</text>
<text text-anchor="middle" x="420.5" y="-252.5" font-family="Helvetica,sans-Serif" font-size="10.00">::OnbtnUploadNCOClick</text>
</a>
</g>
</g>
<!-- Node23&#45;&gt;Node27 -->
<g id="edge29" class="edge"><title>Node23&#45;&gt;Node27</title>
<path fill="none" stroke="midnightblue" d="M316.753,-291.387C334.082,-286.178 352.789,-280.554 369.43,-275.552"/>
<polygon fill="midnightblue" stroke="midnightblue" points="315.304,-288.168 306.735,-294.399 317.32,-294.871 315.304,-288.168"/>
</g>
<!-- Node28&#45;&gt;Node3 -->
<g id="edge36" class="edge"><title>Node28&#45;&gt;Node3</title>
<path fill="none" stroke="midnightblue" d="M267.688,-163.026C280.732,-191.888 302.709,-241.352 320,-284.5 337.261,-327.572 323.569,-349.314 356,-382.5 359.726,-386.313 364.105,-389.558 368.791,-392.317"/>
<polygon fill="midnightblue" stroke="midnightblue" points="270.786,-161.384 263.469,-153.721 264.411,-164.274 270.786,-161.384"/>
</g>
<!-- Node29 -->
<g id="node29" class="node"><title>Node29</title>
<g id="a_node29"><a xlink:href="../../df/d64/classlms7002__pnlRxTSP__view.html#a4f9993eadcbf100d41ec805ba0a4a384" target="_top" xlink:title="lms7002_pnlRxTSP_view\l::onbtnGFIR1Coef">
<polygon fill="white" stroke="black" points="356,-0.5 356,-30.5 485,-30.5 485,-0.5 356,-0.5"/>
<text text-anchor="start" x="364" y="-18.5" font-family="Helvetica,sans-Serif" font-size="10.00">lms7002_pnlRxTSP_view</text>
<text text-anchor="middle" x="420.5" y="-7.5" font-family="Helvetica,sans-Serif" font-size="10.00">::onbtnGFIR1Coef</text>
</a>
</g>
</g>
<!-- Node28&#45;&gt;Node29 -->
<g id="edge32" class="edge"><title>Node28&#45;&gt;Node29</title>
<path fill="none" stroke="midnightblue" d="M274.596,-115.55C293.037,-93.4714 323.481,-60.4408 356,-39.5 361.153,-36.182 366.832,-33.2217 372.611,-30.6107"/>
<polygon fill="midnightblue" stroke="midnightblue" points="271.771,-113.476 268.137,-123.428 277.184,-117.914 271.771,-113.476"/>
</g>
<!-- Node30 -->
<g id="node30" class="node"><title>Node30</title>
<g id="a_node30"><a xlink:href="../../df/d64/classlms7002__pnlRxTSP__view.html#a7a2aa039e3f41facc28795dd98482fef" target="_top" xlink:title="lms7002_pnlRxTSP_view\l::onbtnGFIR2Coef">
<polygon fill="white" stroke="black" points="356,-147.5 356,-177.5 485,-177.5 485,-147.5 356,-147.5"/>
<text text-anchor="start" x="364" y="-165.5" font-family="Helvetica,sans-Serif" font-size="10.00">lms7002_pnlRxTSP_view</text>
<text text-anchor="middle" x="420.5" y="-154.5" font-family="Helvetica,sans-Serif" font-size="10.00">::onbtnGFIR2Coef</text>
</a>
</g>
</g>
<!-- Node28&#45;&gt;Node30 -->
<g id="edge33" class="edge"><title>Node28&#45;&gt;Node30</title>
<path fill="none" stroke="midnightblue" d="M330.409,-149.382C338.953,-150.64 347.609,-151.915 355.998,-153.15"/>
<polygon fill="midnightblue" stroke="midnightblue" points="330.857,-145.911 320.454,-147.917 329.838,-152.836 330.857,-145.911"/>
</g>
<!-- Node31 -->
<g id="node31" class="node"><title>Node31</title>
<g id="a_node31"><a xlink:href="../../df/d64/classlms7002__pnlRxTSP__view.html#ab6eb405deb9b67960ff91d5e28b19f73" target="_top" xlink:title="lms7002_pnlRxTSP_view\l::onbtnGFIR3Coef">
<polygon fill="white" stroke="black" points="356,-98.5 356,-128.5 485,-128.5 485,-98.5 356,-98.5"/>
<text text-anchor="start" x="364" y="-116.5" font-family="Helvetica,sans-Serif" font-size="10.00">lms7002_pnlRxTSP_view</text>
<text text-anchor="middle" x="420.5" y="-105.5" font-family="Helvetica,sans-Serif" font-size="10.00">::onbtnGFIR3Coef</text>
</a>
</g>
</g>
<!-- Node28&#45;&gt;Node31 -->
<g id="edge34" class="edge"><title>Node28&#45;&gt;Node31</title>
<path fill="none" stroke="midnightblue" d="M330.409,-127.164C338.953,-125.854 347.609,-124.526 355.998,-123.24"/>
<polygon fill="midnightblue" stroke="midnightblue" points="329.808,-123.715 320.454,-128.691 330.869,-130.635 329.808,-123.715"/>
</g>
<!-- Node32 -->
<g id="node32" class="node"><title>Node32</title>
<g id="a_node32"><a xlink:href="../../df/d64/classlms7002__pnlRxTSP__view.html#a009505fe644e44d48ec06d4699a4238c" target="_top" xlink:title="lms7002_pnlRxTSP_view\l::OnbtnUploadNCOClick">
<polygon fill="white" stroke="black" points="356,-49.5 356,-79.5 485,-79.5 485,-49.5 356,-49.5"/>
<text text-anchor="start" x="364" y="-67.5" font-family="Helvetica,sans-Serif" font-size="10.00">lms7002_pnlRxTSP_view</text>
<text text-anchor="middle" x="420.5" y="-56.5" font-family="Helvetica,sans-Serif" font-size="10.00">::OnbtnUploadNCOClick</text>
</a>
</g>
</g>
<!-- Node28&#45;&gt;Node32 -->
<g id="edge35" class="edge"><title>Node28&#45;&gt;Node32</title>
<path fill="none" stroke="midnightblue" d="M293.43,-118.788C311.987,-109.181 334.949,-97.7373 356,-88.5 363.015,-85.4218 370.561,-82.3595 377.917,-79.5035"/>
<polygon fill="midnightblue" stroke="midnightblue" points="291.681,-115.753 284.433,-123.481 294.918,-121.96 291.681,-115.753"/>
</g>
</g>
</svg>
