<?xml version="1.0" encoding="UTF-8" standalone="no"?>
<!DOCTYPE svg PUBLIC "-//W3C//DTD SVG 1.1//EN"
 "http://www.w3.org/Graphics/SVG/1.1/DTD/svg11.dtd">
<!-- Generated by graphviz version 2.38.0 (20140413.2041)
 -->
<!-- Title: LMS7002_WXGUI::UpdateTooltips Pages: 1 -->
<svg width="405pt" height="872pt"
 viewBox="0.00 0.00 405.00 872.00" xmlns="http://www.w3.org/2000/svg" xmlns:xlink="http://www.w3.org/1999/xlink">
<g id="graph0" class="graph" transform="scale(1 1) rotate(0) translate(4 868)">
<title>LMS7002_WXGUI::UpdateTooltips</title>
<polygon fill="white" stroke="none" points="-4,4 -4,-868 401,-868 401,4 -4,4"/>
<!-- Node1 -->
<g id="node1" class="node"><title>Node1</title>
<polygon fill="#bfbfbf" stroke="black" points="0,-422 0,-441 170,-441 170,-422 0,-422"/>
<text text-anchor="middle" x="85" y="-429" font-family="Helvetica,sans-Serif" font-size="10.00">LMS7002_WXGUI::UpdateTooltips</text>
</g>
<!-- Node2 -->
<g id="node2" class="node"><title>Node2</title>
<g id="a_node2"><a xlink:href="../../d1/d6d/classlms7002__pnlAFE__view.html#a0546d84fef95693a9a6595de493dc310" target="_top" xlink:title="lms7002_pnlAFE_view\l::lms7002_pnlAFE_view">
<polygon fill="white" stroke="black" points="240.5,-833.5 240.5,-863.5 362.5,-863.5 362.5,-833.5 240.5,-833.5"/>
<text text-anchor="start" x="248.5" y="-851.5" font-family="Helvetica,sans-Serif" font-size="10.00">lms7002_pnlAFE_view</text>
<text text-anchor="middle" x="301.5" y="-840.5" font-family="Helvetica,sans-Serif" font-size="10.00">::lms7002_pnlAFE_view</text>
</a>
</g>
</g>
<!-- Node1&#45;&gt;Node2 -->
<g id="edge1" class="edge"><title>Node1&#45;&gt;Node2</title>
<path fill="none" stroke="midnightblue" d="M85.7088,-451.528C85.9173,-515.88 95.664,-719.299 206,-824.5 215.433,-833.494 227.741,-839.249 240.341,-842.9"/>
<polygon fill="midnightblue" stroke="midnightblue" points="89.2103,-451.202 85.7588,-441.185 82.2104,-451.168 89.2103,-451.202"/>
</g>
<!-- Node3 -->
<g id="node3" class="node"><title>Node3</title>
<g id="a_node3"><a xlink:href="../../db/dcf/classlms7002__pnlBIAS__view.html#a84b26b01ec8be9106a4f8f33334a53b9" target="_top" xlink:title="lms7002_pnlBIAS_view\l::lms7002_pnlBIAS_view">
<polygon fill="white" stroke="black" points="238.5,-784.5 238.5,-814.5 364.5,-814.5 364.5,-784.5 238.5,-784.5"/>
<text text-anchor="start" x="246.5" y="-802.5" font-family="Helvetica,sans-Serif" font-size="10.00">lms7002_pnlBIAS_view</text>
<text text-anchor="middle" x="301.5" y="-791.5" font-family="Helvetica,sans-Serif" font-size="10.00">::lms7002_pnlBIAS_view</text>
</a>
</g>
</g>
<!-- Node1&#45;&gt;Node3 -->
<g id="edge2" class="edge"><title>Node1&#45;&gt;Node3</title>
<path fill="none" stroke="midnightblue" d="M86.7032,-451.344C89.9025,-510.208 107.647,-685.345 206,-775.5 214.984,-783.735 226.39,-789.237 238.144,-792.891"/>
<polygon fill="midnightblue" stroke="midnightblue" points="90.1917,-451.01 86.2376,-441.181 83.199,-451.331 90.1917,-451.01"/>
</g>
<!-- Node4 -->
<g id="node4" class="node"><title>Node4</title>
<g id="a_node4"><a xlink:href="../../d0/d87/classlms7002__pnlBIST__view.html#a42df1bd89db32a7309933e845818c327" target="_top" xlink:title="lms7002_pnlBIST_view\l::lms7002_pnlBIST_view">
<polygon fill="white" stroke="black" points="239,-735.5 239,-765.5 364,-765.5 364,-735.5 239,-735.5"/>
<text text-anchor="start" x="247" y="-753.5" font-family="Helvetica,sans-Serif" font-size="10.00">lms7002_pnlBIST_view</text>
<text text-anchor="middle" x="301.5" y="-742.5" font-family="Helvetica,sans-Serif" font-size="10.00">::lms7002_pnlBIST_view</text>
</a>
</g>
</g>
<!-- Node1&#45;&gt;Node4 -->
<g id="edge3" class="edge"><title>Node1&#45;&gt;Node4</title>
<path fill="none" stroke="midnightblue" d="M87.9936,-451.3C94.433,-504.434 119.577,-651.222 206,-726.5 215.318,-734.616 227.006,-740.055 238.954,-743.684"/>
<polygon fill="midnightblue" stroke="midnightblue" points="91.4518,-450.731 86.8613,-441.182 84.4952,-451.509 91.4518,-450.731"/>
</g>
<!-- Node5 -->
<g id="node5" class="node"><title>Node5</title>
<g id="a_node5"><a xlink:href="../../da/dd0/classlms7002__pnlCalibrations__view.html#a2c8d619a3340dc48f424bb9ec105af7d" target="_top" xlink:title="lms7002_pnlCalibrations\l_view::lms7002_pnlCalibrations_view">
<polygon fill="white" stroke="black" points="211.5,-686.5 211.5,-716.5 391.5,-716.5 391.5,-686.5 211.5,-686.5"/>
<text text-anchor="start" x="219.5" y="-704.5" font-family="Helvetica,sans-Serif" font-size="10.00">lms7002_pnlCalibrations</text>
<text text-anchor="middle" x="301.5" y="-693.5" font-family="Helvetica,sans-Serif" font-size="10.00">_view::lms7002_pnlCalibrations_view</text>
</a>
</g>
</g>
<!-- Node1&#45;&gt;Node5 -->
<g id="edge4" class="edge"><title>Node1&#45;&gt;Node5</title>
<path fill="none" stroke="midnightblue" d="M89.71,-451.091C99.6262,-497.87 131.246,-616.698 206,-677.5 210.202,-680.918 214.83,-683.856 219.712,-686.382"/>
<polygon fill="midnightblue" stroke="midnightblue" points="93.0955,-450.174 87.6878,-441.063 86.2336,-451.557 93.0955,-450.174"/>
</g>
<!-- Node6 -->
<g id="node6" class="node"><title>Node6</title>
<g id="a_node6"><a xlink:href="../../de/dd4/classlms7002__pnlCDS__view.html#a6de609dabe6454963d650d5a8c1a3cd9" target="_top" xlink:title="lms7002_pnlCDS_view\l::lms7002_pnlCDS_view">
<polygon fill="white" stroke="black" points="239,-637.5 239,-667.5 364,-667.5 364,-637.5 239,-637.5"/>
<text text-anchor="start" x="247" y="-655.5" font-family="Helvetica,sans-Serif" font-size="10.00">lms7002_pnlCDS_view</text>
<text text-anchor="middle" x="301.5" y="-644.5" font-family="Helvetica,sans-Serif" font-size="10.00">::lms7002_pnlCDS_view</text>
</a>
</g>
</g>
<!-- Node1&#45;&gt;Node6 -->
<g id="edge5" class="edge"><title>Node1&#45;&gt;Node6</title>
<path fill="none" stroke="midnightblue" d="M92.0836,-450.633C105.71,-490.288 142.56,-581.64 206,-628.5 215.667,-635.641 227.241,-640.666 238.92,-644.201"/>
<polygon fill="midnightblue" stroke="midnightblue" points="95.3923,-449.491 88.9188,-441.104 88.7491,-451.698 95.3923,-449.491"/>
</g>
<!-- Node7 -->
<g id="node7" class="node"><title>Node7</title>
<g id="a_node7"><a xlink:href="../../df/dc6/classlms7002__pnlCLKGEN__view.html#a47d6d45870984dcf6acd1990d4df5fef" target="_top" xlink:title="lms7002_pnlCLKGEN_view\l::lms7002_pnlCLKGEN_view">
<polygon fill="white" stroke="black" points="229.5,-588.5 229.5,-618.5 373.5,-618.5 373.5,-588.5 229.5,-588.5"/>
<text text-anchor="start" x="237.5" y="-606.5" font-family="Helvetica,sans-Serif" font-size="10.00">lms7002_pnlCLKGEN_view</text>
<text text-anchor="middle" x="301.5" y="-595.5" font-family="Helvetica,sans-Serif" font-size="10.00">::lms7002_pnlCLKGEN_view</text>
</a>
</g>
</g>
<!-- Node1&#45;&gt;Node7 -->
<g id="edge6" class="edge"><title>Node1&#45;&gt;Node7</title>
<path fill="none" stroke="midnightblue" d="M95.9018,-450.344C113.586,-482.092 153.7,-546.044 206,-579.5 213.13,-584.061 221.079,-587.756 229.256,-590.749"/>
<polygon fill="midnightblue" stroke="midnightblue" points="98.8096,-448.365 90.9613,-441.248 92.6583,-451.706 98.8096,-448.365"/>
</g>
<!-- Node8 -->
<g id="node8" class="node"><title>Node8</title>
<g id="a_node8"><a xlink:href="../../d8/d4e/classlms7002__pnlGains__view.html#a0f0980599c2e8faebae670a7bc7b7b04" target="_top" xlink:title="lms7002_pnlGains_view\l::lms7002_pnlGains_view">
<polygon fill="white" stroke="black" points="237.5,-539.5 237.5,-569.5 365.5,-569.5 365.5,-539.5 237.5,-539.5"/>
<text text-anchor="start" x="245.5" y="-557.5" font-family="Helvetica,sans-Serif" font-size="10.00">lms7002_pnlGains_view</text>
<text text-anchor="middle" x="301.5" y="-546.5" font-family="Helvetica,sans-Serif" font-size="10.00">::lms7002_pnlGains_view</text>
</a>
</g>
</g>
<!-- Node1&#45;&gt;Node8 -->
<g id="edge7" class="edge"><title>Node1&#45;&gt;Node8</title>
<path fill="none" stroke="midnightblue" d="M101.611,-448.37C123.037,-470.513 163.736,-509.071 206,-530.5 215.738,-535.437 226.568,-539.41 237.321,-542.591"/>
<polygon fill="midnightblue" stroke="midnightblue" points="104.048,-445.854 94.6219,-441.018 98.9747,-450.677 104.048,-445.854"/>
</g>
<!-- Node9 -->
<g id="node9" class="node"><title>Node9</title>
<g id="a_node9"><a xlink:href="../../d0/db2/classlms7002__pnlLDO__view.html#a64e5f40dd722edadd475cddfab9cdf00" target="_top" xlink:title="lms7002_pnlLDO_view\l::lms7002_pnlLDO_view">
<polygon fill="white" stroke="black" points="240,-490.5 240,-520.5 363,-520.5 363,-490.5 240,-490.5"/>
<text text-anchor="start" x="248" y="-508.5" font-family="Helvetica,sans-Serif" font-size="10.00">lms7002_pnlLDO_view</text>
<text text-anchor="middle" x="301.5" y="-497.5" font-family="Helvetica,sans-Serif" font-size="10.00">::lms7002_pnlLDO_view</text>
</a>
</g>
</g>
<!-- Node1&#45;&gt;Node9 -->
<g id="edge8" class="edge"><title>Node1&#45;&gt;Node9</title>
<path fill="none" stroke="midnightblue" d="M115.73,-445.318C139.736,-456.125 174.573,-471.024 206,-481.5 216.839,-485.113 228.533,-488.489 239.876,-491.503"/>
<polygon fill="midnightblue" stroke="midnightblue" points="117.014,-442.057 106.461,-441.106 114.118,-448.429 117.014,-442.057"/>
</g>
<!-- Node10 -->
<g id="node10" class="node"><title>Node10</title>
<g id="a_node10"><a xlink:href="../../dc/d49/classlms7002__pnlLimeLightPAD__view.html#ab73cd20f06a2032f647bf261217f9455" target="_top" xlink:title="lms7002_pnlLimeLightPAD\l_view::lms7002_pnlLimeLightPAD_view">
<polygon fill="white" stroke="black" points="206,-441.5 206,-471.5 397,-471.5 397,-441.5 206,-441.5"/>
<text text-anchor="start" x="214" y="-459.5" font-family="Helvetica,sans-Serif" font-size="10.00">lms7002_pnlLimeLightPAD</text>
<text text-anchor="middle" x="301.5" y="-448.5" font-family="Helvetica,sans-Serif" font-size="10.00">_view::lms7002_pnlLimeLightPAD_view</text>
</a>
</g>
</g>
<!-- Node1&#45;&gt;Node10 -->
<g id="edge9" class="edge"><title>Node1&#45;&gt;Node10</title>
<path fill="none" stroke="midnightblue" d="M177.701,-442.188C186.982,-443.269 196.423,-444.37 205.735,-445.455"/>
<polygon fill="midnightblue" stroke="midnightblue" points="178.043,-438.704 167.705,-441.023 177.233,-445.657 178.043,-438.704"/>
</g>
<!-- Node11 -->
<g id="node11" class="node"><title>Node11</title>
<g id="a_node11"><a xlink:href="../../d5/d55/classlms7002__pnlR3__view.html#a703fbd25b7293045f44bcb15c2ee3a54" target="_top" xlink:title="lms7002_pnlR3_view\l::lms7002_pnlR3_view">
<polygon fill="white" stroke="black" points="243.5,-392.5 243.5,-422.5 359.5,-422.5 359.5,-392.5 243.5,-392.5"/>
<text text-anchor="start" x="251.5" y="-410.5" font-family="Helvetica,sans-Serif" font-size="10.00">lms7002_pnlR3_view</text>
<text text-anchor="middle" x="301.5" y="-399.5" font-family="Helvetica,sans-Serif" font-size="10.00">::lms7002_pnlR3_view</text>
</a>
</g>
</g>
<!-- Node1&#45;&gt;Node11 -->
<g id="edge10" class="edge"><title>Node1&#45;&gt;Node11</title>
<path fill="none" stroke="midnightblue" d="M180.303,-420.949C201.79,-418.544 223.981,-416.062 243.358,-413.894"/>
<polygon fill="midnightblue" stroke="midnightblue" points="179.709,-417.493 170.16,-422.083 180.488,-424.45 179.709,-417.493"/>
</g>
<!-- Node12 -->
<g id="node12" class="node"><title>Node12</title>
<g id="a_node12"><a xlink:href="../../d9/d08/classlms7002__pnlRBB__view.html#a6c08372c26d9d830780177c04fc9bd2b" target="_top" xlink:title="lms7002_pnlRBB_view\l::lms7002_pnlRBB_view">
<polygon fill="white" stroke="black" points="239.5,-343.5 239.5,-373.5 363.5,-373.5 363.5,-343.5 239.5,-343.5"/>
<text text-anchor="start" x="247.5" y="-361.5" font-family="Helvetica,sans-Serif" font-size="10.00">lms7002_pnlRBB_view</text>
<text text-anchor="middle" x="301.5" y="-350.5" font-family="Helvetica,sans-Serif" font-size="10.00">::lms7002_pnlRBB_view</text>
</a>
</g>
</g>
<!-- Node1&#45;&gt;Node12 -->
<g id="edge11" class="edge"><title>Node1&#45;&gt;Node12</title>
<path fill="none" stroke="midnightblue" d="M117.124,-417.835C141.124,-407.597 175.295,-393.661 206,-383.5 216.714,-379.955 228.239,-376.564 239.429,-373.488"/>
<polygon fill="midnightblue" stroke="midnightblue" points="115.623,-414.671 107.819,-421.837 118.388,-421.101 115.623,-414.671"/>
</g>
<!-- Node13 -->
<g id="node13" class="node"><title>Node13</title>
<g id="a_node13"><a xlink:href="../../da/d66/classlms7002__pnlRFE__view.html#a26e4adb21283f612627de489523f9440" target="_top" xlink:title="lms7002_pnlRFE_view\l::lms7002_pnlRFE_view">
<polygon fill="white" stroke="black" points="240,-294.5 240,-324.5 363,-324.5 363,-294.5 240,-294.5"/>
<text text-anchor="start" x="248" y="-312.5" font-family="Helvetica,sans-Serif" font-size="10.00">lms7002_pnlRFE_view</text>
<text text-anchor="middle" x="301.5" y="-301.5" font-family="Helvetica,sans-Serif" font-size="10.00">::lms7002_pnlRFE_view</text>
</a>
</g>
</g>
<!-- Node1&#45;&gt;Node13 -->
<g id="edge12" class="edge"><title>Node1&#45;&gt;Node13</title>
<path fill="none" stroke="midnightblue" d="M102.042,-414.716C123.668,-393.055 164.291,-355.645 206,-334.5 216.444,-329.205 228.123,-324.948 239.613,-321.555"/>
<polygon fill="midnightblue" stroke="midnightblue" points="99.4743,-412.336 94.968,-421.925 104.47,-417.239 99.4743,-412.336"/>
</g>
<!-- Node14 -->
<g id="node14" class="node"><title>Node14</title>
<g id="a_node14"><a xlink:href="../../df/d64/classlms7002__pnlRxTSP__view.html#a097d521cd7c886fed60c70a76073f722" target="_top" xlink:title="lms7002_pnlRxTSP_view\l::lms7002_pnlRxTSP_view">
<polygon fill="white" stroke="black" points="234,-245.5 234,-275.5 369,-275.5 369,-245.5 234,-245.5"/>
<text text-anchor="start" x="242" y="-263.5" font-family="Helvetica,sans-Serif" font-size="10.00">lms7002_pnlRxTSP_view</text>
<text text-anchor="middle" x="301.5" y="-252.5" font-family="Helvetica,sans-Serif" font-size="10.00">::lms7002_pnlRxTSP_view</text>
</a>
</g>
</g>
<!-- Node1&#45;&gt;Node14 -->
<g id="edge13" class="edge"><title>Node1&#45;&gt;Node14</title>
<path fill="none" stroke="midnightblue" d="M96.0042,-412.967C113.842,-381.732 154.179,-318.769 206,-285.5 214.426,-280.091 223.987,-275.847 233.713,-272.519"/>
<polygon fill="midnightblue" stroke="midnightblue" points="92.8282,-411.476 91.0173,-421.915 98.9427,-414.884 92.8282,-411.476"/>
</g>
<!-- Node15 -->
<g id="node15" class="node"><title>Node15</title>
<g id="a_node15"><a xlink:href="../../d5/d03/classlms7002__pnlSX__view.html#a96201e726d58413f1991c329c65e84dd" target="_top" xlink:title="lms7002_pnlSX_view\l::lms7002_pnlSX_view">
<polygon fill="white" stroke="black" points="243.5,-196.5 243.5,-226.5 359.5,-226.5 359.5,-196.5 243.5,-196.5"/>
<text text-anchor="start" x="251.5" y="-214.5" font-family="Helvetica,sans-Serif" font-size="10.00">lms7002_pnlSX_view</text>
<text text-anchor="middle" x="301.5" y="-203.5" font-family="Helvetica,sans-Serif" font-size="10.00">::lms7002_pnlSX_view</text>
</a>
</g>
</g>
<!-- Node1&#45;&gt;Node15 -->
<g id="edge14" class="edge"><title>Node1&#45;&gt;Node15</title>
<path fill="none" stroke="midnightblue" d="M92.3726,-412.059C106.33,-372.608 143.447,-282.965 206,-236.5 216.899,-228.404 230.214,-222.927 243.372,-219.222"/>
<polygon fill="midnightblue" stroke="midnightblue" points="89.0434,-410.978 89.1158,-421.572 95.6661,-413.245 89.0434,-410.978"/>
</g>
<!-- Node16 -->
<g id="node16" class="node"><title>Node16</title>
<g id="a_node16"><a xlink:href="../../d5/d6a/classlms7002__pnlTBB__view.html#afd02dc66c333d5802081f30160441a8e" target="_top" xlink:title="lms7002_pnlTBB_view\l::lms7002_pnlTBB_view">
<polygon fill="white" stroke="black" points="240.5,-147.5 240.5,-177.5 362.5,-177.5 362.5,-147.5 240.5,-147.5"/>
<text text-anchor="start" x="248.5" y="-165.5" font-family="Helvetica,sans-Serif" font-size="10.00">lms7002_pnlTBB_view</text>
<text text-anchor="middle" x="301.5" y="-154.5" font-family="Helvetica,sans-Serif" font-size="10.00">::lms7002_pnlTBB_view</text>
</a>
</g>
</g>
<!-- Node1&#45;&gt;Node16 -->
<g id="edge15" class="edge"><title>Node1&#45;&gt;Node16</title>
<path fill="none" stroke="midnightblue" d="M89.8694,-411.795C100.06,-365.277 132.108,-248.012 206,-187.5 215.847,-179.436 228.036,-173.951 240.348,-170.226"/>
<polygon fill="midnightblue" stroke="midnightblue" points="86.4008,-411.283 87.7831,-421.787 93.2531,-412.714 86.4008,-411.283"/>
</g>
<!-- Node17 -->
<g id="node17" class="node"><title>Node17</title>
<g id="a_node17"><a xlink:href="../../dd/d9e/classlms7002__pnlTRF__view.html#a87c12e357ef034e682829ab581be3db9" target="_top" xlink:title="lms7002_pnlTRF_view\l::lms7002_pnlTRF_view">
<polygon fill="white" stroke="black" points="240.5,-98.5 240.5,-128.5 362.5,-128.5 362.5,-98.5 240.5,-98.5"/>
<text text-anchor="start" x="248.5" y="-116.5" font-family="Helvetica,sans-Serif" font-size="10.00">lms7002_pnlTRF_view</text>
<text text-anchor="middle" x="301.5" y="-105.5" font-family="Helvetica,sans-Serif" font-size="10.00">::lms7002_pnlTRF_view</text>
</a>
</g>
</g>
<!-- Node1&#45;&gt;Node17 -->
<g id="edge16" class="edge"><title>Node1&#45;&gt;Node17</title>
<path fill="none" stroke="midnightblue" d="M88.0788,-411.877C94.7318,-359.211 120.362,-213.664 206,-138.5 215.694,-129.992 227.96,-124.332 240.418,-120.58"/>
<polygon fill="midnightblue" stroke="midnightblue" points="84.5914,-411.566 86.9046,-421.906 91.5439,-412.381 84.5914,-411.566"/>
</g>
<!-- Node18 -->
<g id="node18" class="node"><title>Node18</title>
<g id="a_node18"><a xlink:href="../../df/d5f/classlms7002__pnlTxTSP__view.html#ad7b1463bd38222062fbf4ee88f62b863" target="_top" xlink:title="lms7002_pnlTxTSP_view\l::lms7002_pnlTxTSP_view">
<polygon fill="white" stroke="black" points="234.5,-49.5 234.5,-79.5 368.5,-79.5 368.5,-49.5 234.5,-49.5"/>
<text text-anchor="start" x="242.5" y="-67.5" font-family="Helvetica,sans-Serif" font-size="10.00">lms7002_pnlTxTSP_view</text>
<text text-anchor="middle" x="301.5" y="-56.5" font-family="Helvetica,sans-Serif" font-size="10.00">::lms7002_pnlTxTSP_view</text>
</a>
</g>
</g>
<!-- Node1&#45;&gt;Node18 -->
<g id="edge17" class="edge"><title>Node1&#45;&gt;Node18</title>
<path fill="none" stroke="midnightblue" d="M86.7844,-411.814C90.2101,-353.409 108.52,-179.583 206,-89.5 213.977,-82.1286 223.871,-76.8803 234.226,-73.1544"/>
<polygon fill="midnightblue" stroke="midnightblue" points="83.2841,-411.734 86.2786,-421.897 90.2753,-412.085 83.2841,-411.734"/>
</g>
<!-- Node19 -->
<g id="node19" class="node"><title>Node19</title>
<g id="a_node19"><a xlink:href="../../dd/d9e/classlms7002__pnlXBUF__view.html#aeafbf34cc669d08b8d690ff0ac2dc383" target="_top" xlink:title="lms7002_pnlXBUF_view\l::lms7002_pnlXBUF_view">
<polygon fill="white" stroke="black" points="236.5,-0.5 236.5,-30.5 366.5,-30.5 366.5,-0.5 236.5,-0.5"/>
<text text-anchor="start" x="244.5" y="-18.5" font-family="Helvetica,sans-Serif" font-size="10.00">lms7002_pnlXBUF_view</text>
<text text-anchor="middle" x="301.5" y="-7.5" font-family="Helvetica,sans-Serif" font-size="10.00">::lms7002_pnlXBUF_view</text>
</a>
</g>
</g>
<!-- Node1&#45;&gt;Node19 -->
<g id="edge18" class="edge"><title>Node1&#45;&gt;Node19</title>
<path fill="none" stroke="midnightblue" d="M85.7873,-411.616C86.2342,-347.718 96.6228,-145.676 206,-40.5 214.441,-32.3836 225.196,-26.8263 236.406,-23.0382"/>
<polygon fill="midnightblue" stroke="midnightblue" points="82.2875,-411.889 85.798,-421.885 89.2875,-411.882 82.2875,-411.889"/>
</g>
</g>
</svg>
