<?xml version="1.0" encoding="UTF-8" standalone="no"?>
<!DOCTYPE svg PUBLIC "-//W3C//DTD SVG 1.1//EN"
 "http://www.w3.org/Graphics/SVG/1.1/DTD/svg11.dtd">
<!-- Generated by graphviz version 2.38.0 (20140413.2041)
 -->
<!-- Title: /home/erik/prefix/default/src/limesuite&#45;dev/src/GFIR/gfir_lms.c Pages: 1 -->
<svg width="210pt" height="162pt"
 viewBox="0.00 0.00 209.50 162.00" xmlns="http://www.w3.org/2000/svg" xmlns:xlink="http://www.w3.org/1999/xlink">
<g id="graph0" class="graph" transform="scale(1 1) rotate(0) translate(4 158)">
<title>/home/erik/prefix/default/src/limesuite&#45;dev/src/GFIR/gfir_lms.c</title>
<polygon fill="white" stroke="none" points="-4,4 -4,-158 205.5,-158 205.5,4 -4,4"/>
<!-- Node1 -->
<g id="node1" class="node"><title>Node1</title>
<polygon fill="#bfbfbf" stroke="black" points="22,-112.5 22,-153.5 144,-153.5 144,-112.5 22,-112.5"/>
<text text-anchor="start" x="30" y="-141.5" font-family="Helvetica,sans-Serif" font-size="10.00">/home/erik/prefix/default</text>
<text text-anchor="start" x="30" y="-130.5" font-family="Helvetica,sans-Serif" font-size="10.00">/src/limesuite&#45;dev/src</text>
<text text-anchor="middle" x="83" y="-119.5" font-family="Helvetica,sans-Serif" font-size="10.00">/GFIR/gfir_lms.c</text>
</g>
<!-- Node2 -->
<g id="node2" class="node"><title>Node2</title>
<polygon fill="white" stroke="#bfbfbf" points="0,-0.5 0,-19.5 48,-19.5 48,-0.5 0,-0.5"/>
<text text-anchor="middle" x="24" y="-7.5" font-family="Helvetica,sans-Serif" font-size="10.00">stdlib.h</text>
</g>
<!-- Node1&#45;&gt;Node2 -->
<g id="edge1" class="edge"><title>Node1&#45;&gt;Node2</title>
<path fill="none" stroke="midnightblue" d="M51.3338,-112.461C39.1534,-103.089 26.5943,-90.6846 20,-76 13.4868,-61.4961 15.3362,-43.3131 18.3261,-29.8694"/>
<polygon fill="midnightblue" stroke="midnightblue" points="21.7956,-30.437 20.9474,-19.8762 15.0246,-28.6609 21.7956,-30.437"/>
</g>
<!-- Node3 -->
<g id="node3" class="node"><title>Node3</title>
<polygon fill="white" stroke="#bfbfbf" points="29,-56.5 29,-75.5 75,-75.5 75,-56.5 29,-56.5"/>
<text text-anchor="middle" x="52" y="-63.5" font-family="Helvetica,sans-Serif" font-size="10.00">stdio.h</text>
</g>
<!-- Node1&#45;&gt;Node3 -->
<g id="edge2" class="edge"><title>Node1&#45;&gt;Node3</title>
<path fill="none" stroke="midnightblue" d="M73.699,-112.498C69.4945,-103.682 64.5614,-93.3385 60.4622,-84.7432"/>
<polygon fill="midnightblue" stroke="midnightblue" points="63.5905,-83.1719 56.1266,-75.6525 57.2722,-86.1852 63.5905,-83.1719"/>
</g>
<!-- Node4 -->
<g id="node4" class="node"><title>Node4</title>
<g id="a_node4"><a xlink:href="../../d2/d1f/lms_8h.html" target="_top" xlink:title="lms.h">
<polygon fill="white" stroke="black" points="93.5,-56.5 93.5,-75.5 134.5,-75.5 134.5,-56.5 93.5,-56.5"/>
<text text-anchor="middle" x="114" y="-63.5" font-family="Helvetica,sans-Serif" font-size="10.00">lms.h</text>
</a>
</g>
</g>
<!-- Node1&#45;&gt;Node4 -->
<g id="edge3" class="edge"><title>Node1&#45;&gt;Node4</title>
<path fill="none" stroke="midnightblue" d="M92.301,-112.498C96.5055,-103.682 101.439,-93.3385 105.538,-84.7432"/>
<polygon fill="midnightblue" stroke="midnightblue" points="108.728,-86.1852 109.873,-75.6525 102.41,-83.1719 108.728,-86.1852"/>
</g>
<!-- Node6 -->
<g id="node6" class="node"><title>Node6</title>
<g id="a_node6"><a xlink:href="../../da/d93/dfilter_8h.html" target="_top" xlink:title="dfilter.h">
<polygon fill="white" stroke="black" points="152.5,-56.5 152.5,-75.5 201.5,-75.5 201.5,-56.5 152.5,-56.5"/>
<text text-anchor="middle" x="177" y="-63.5" font-family="Helvetica,sans-Serif" font-size="10.00">dfilter.h</text>
</a>
</g>
</g>
<!-- Node1&#45;&gt;Node6 -->
<g id="edge6" class="edge"><title>Node1&#45;&gt;Node6</title>
<path fill="none" stroke="midnightblue" d="M111.203,-112.498C125.615,-102.532 142.85,-90.6142 156.065,-81.4764"/>
<polygon fill="midnightblue" stroke="midnightblue" points="158.253,-84.2189 164.487,-75.6525 154.271,-78.4613 158.253,-84.2189"/>
</g>
<!-- Node4&#45;&gt;Node2 -->
<g id="edge4" class="edge"><title>Node4&#45;&gt;Node2</title>
<path fill="none" stroke="midnightblue" d="M99.5399,-56.324C85.5004,-47.9002 63.9515,-34.9709 47.4569,-25.0741"/>
<polygon fill="midnightblue" stroke="midnightblue" points="48.7999,-21.7983 38.4242,-19.6545 45.1984,-27.8007 48.7999,-21.7983"/>
</g>
<!-- Node5 -->
<g id="node5" class="node"><title>Node5</title>
<polygon fill="white" stroke="#bfbfbf" points="90.5,-0.5 90.5,-19.5 137.5,-19.5 137.5,-0.5 90.5,-0.5"/>
<text text-anchor="middle" x="114" y="-7.5" font-family="Helvetica,sans-Serif" font-size="10.00">math.h</text>
</g>
<!-- Node4&#45;&gt;Node5 -->
<g id="edge5" class="edge"><title>Node4&#45;&gt;Node5</title>
<path fill="none" stroke="midnightblue" d="M114,-56.083C114,-49.0059 114,-38.8611 114,-29.9865"/>
<polygon fill="midnightblue" stroke="midnightblue" points="117.5,-29.751 114,-19.7511 110.5,-29.7511 117.5,-29.751"/>
</g>
</g>
</svg>
