<?xml version="1.0" encoding="UTF-8" standalone="no"?>
<!DOCTYPE svg PUBLIC "-//W3C//DTD SVG 1.1//EN"
 "http://www.w3.org/Graphics/SVG/1.1/DTD/svg11.dtd">
<!-- Generated by graphviz version 2.38.0 (20140413.2041)
 -->
<!-- Title: pnlBoardControls Pages: 1 -->
<svg width="480pt" height="828pt"
 viewBox="0.00 0.00 480.00 828.00" xmlns="http://www.w3.org/2000/svg" xmlns:xlink="http://www.w3.org/1999/xlink">
<g id="graph0" class="graph" transform="scale(1 1) rotate(0) translate(4 824)">
<title>pnlBoardControls</title>
<polygon fill="white" stroke="none" points="-4,4 -4,-824 476,-824 476,4 -4,4"/>
<!-- Node1 -->
<g id="node1" class="node"><title>Node1</title>
<polygon fill="#bfbfbf" stroke="black" points="73,-0.5 73,-310.5 224,-310.5 224,-0.5 73,-0.5"/>
<text text-anchor="middle" x="148.5" y="-298.5" font-family="Helvetica,sans-Serif" font-size="10.00">pnlBoardControls</text>
<polyline fill="none" stroke="black" points="73,-291.5 224,-291.5 "/>
<text text-anchor="start" x="81" y="-279.5" font-family="Helvetica,sans-Serif" font-size="10.00">+ lmsControl</text>
<text text-anchor="start" x="81" y="-268.5" font-family="Helvetica,sans-Serif" font-size="10.00"># pnlCustomControls</text>
<text text-anchor="start" x="81" y="-257.5" font-family="Helvetica,sans-Serif" font-size="10.00"># pnlReadControls</text>
<text text-anchor="start" x="81" y="-246.5" font-family="Helvetica,sans-Serif" font-size="10.00"># spinCustomChannelRd</text>
<text text-anchor="start" x="81" y="-235.5" font-family="Helvetica,sans-Serif" font-size="10.00"># txtCustomValueRd</text>
<text text-anchor="start" x="81" y="-224.5" font-family="Helvetica,sans-Serif" font-size="10.00"># txtCustomUnitsRd</text>
<text text-anchor="start" x="81" y="-213.5" font-family="Helvetica,sans-Serif" font-size="10.00"># txtCustomPowerOf10Rd</text>
<text text-anchor="start" x="81" y="-202.5" font-family="Helvetica,sans-Serif" font-size="10.00"># spinCustomChannelWr</text>
<text text-anchor="start" x="81" y="-191.5" font-family="Helvetica,sans-Serif" font-size="10.00"># spinCustomValueWr</text>
<text text-anchor="start" x="81" y="-180.5" font-family="Helvetica,sans-Serif" font-size="10.00"># cmbCustomUnitsWr</text>
<text text-anchor="start" x="81" y="-169.5" font-family="Helvetica,sans-Serif" font-size="10.00"># cmbCustomPowerOf10Wr</text>
<text text-anchor="start" x="81" y="-158.5" font-family="Helvetica,sans-Serif" font-size="10.00">and 9 more...</text>
<polyline fill="none" stroke="black" points="73,-151.5 224,-151.5 "/>
<text text-anchor="start" x="81" y="-139.5" font-family="Helvetica,sans-Serif" font-size="10.00">+ pnlBoardControls()</text>
<text text-anchor="start" x="81" y="-128.5" font-family="Helvetica,sans-Serif" font-size="10.00">+ ~pnlBoardControls()</text>
<text text-anchor="start" x="81" y="-117.5" font-family="Helvetica,sans-Serif" font-size="10.00">+ UpdatePanel()</text>
<text text-anchor="start" x="81" y="-106.5" font-family="Helvetica,sans-Serif" font-size="10.00">+ Initialize()</text>
<text text-anchor="start" x="81" y="-95.5" font-family="Helvetica,sans-Serif" font-size="10.00">+ SetupControls()</text>
<text text-anchor="start" x="81" y="-84.5" font-family="Helvetica,sans-Serif" font-size="10.00">+ OnSetDACvalues()</text>
<text text-anchor="start" x="81" y="-73.5" font-family="Helvetica,sans-Serif" font-size="10.00">+ OnSetDACvaluesENTER()</text>
<text text-anchor="start" x="81" y="-62.5" font-family="Helvetica,sans-Serif" font-size="10.00"># OnCustomRead()</text>
<text text-anchor="start" x="81" y="-51.5" font-family="Helvetica,sans-Serif" font-size="10.00"># OnCustomWrite()</text>
<text text-anchor="start" x="81" y="-40.5" font-family="Helvetica,sans-Serif" font-size="10.00"># getBoardParams()</text>
<text text-anchor="start" x="81" y="-29.5" font-family="Helvetica,sans-Serif" font-size="10.00"># OnUserChangedBoardType()</text>
<text text-anchor="start" x="81" y="-18.5" font-family="Helvetica,sans-Serif" font-size="10.00"># OnReadAll()</text>
<text text-anchor="start" x="81" y="-7.5" font-family="Helvetica,sans-Serif" font-size="10.00"># OnWriteAll()</text>
</g>
<!-- Node2 -->
<g id="node2" class="node"><title>Node2</title>
<polygon fill="white" stroke="#bfbfbf" points="0,-364 0,-421 57,-421 57,-364 0,-364"/>
<text text-anchor="middle" x="28.5" y="-409" font-family="Helvetica,sans-Serif" font-size="10.00">wxFrame</text>
<polyline fill="none" stroke="#bfbfbf" points="0,-402 57,-402 "/>
<text text-anchor="middle" x="28.5" y="-390" font-family="Helvetica,sans-Serif" font-size="10.00"> </text>
<polyline fill="none" stroke="#bfbfbf" points="0,-383 57,-383 "/>
<text text-anchor="middle" x="28.5" y="-371" font-family="Helvetica,sans-Serif" font-size="10.00"> </text>
</g>
<!-- Node2&#45;&gt;Node1 -->
<g id="edge1" class="edge"><title>Node2&#45;&gt;Node1</title>
<path fill="none" stroke="midnightblue" d="M47.3027,-354.678C54.6127,-340.363 63.5003,-322.958 72.9398,-304.472"/>
<polygon fill="none" stroke="midnightblue" points="44.1675,-353.122 42.7368,-363.62 50.4018,-356.305 44.1675,-353.122"/>
</g>
<!-- Node3 -->
<g id="node3" class="node"><title>Node3</title>
<polygon fill="white" stroke="#bfbfbf" points="75,-358.5 75,-426.5 222,-426.5 222,-358.5 75,-358.5"/>
<text text-anchor="start" x="83" y="-414.5" font-family="Helvetica,sans-Serif" font-size="10.00">std::vector&lt; pnlBoardControls</text>
<text text-anchor="middle" x="148.5" y="-403.5" font-family="Helvetica,sans-Serif" font-size="10.00">::ADC_DAC &gt;</text>
<polyline fill="none" stroke="#bfbfbf" points="75,-396.5 222,-396.5 "/>
<text text-anchor="middle" x="148.5" y="-384.5" font-family="Helvetica,sans-Serif" font-size="10.00"> </text>
<polyline fill="none" stroke="#bfbfbf" points="75,-377.5 222,-377.5 "/>
<text text-anchor="middle" x="148.5" y="-365.5" font-family="Helvetica,sans-Serif" font-size="10.00"> </text>
</g>
<!-- Node3&#45;&gt;Node1 -->
<g id="edge2" class="edge"><title>Node3&#45;&gt;Node1</title>
<path fill="none" stroke="#404040" d="M148.5,-358.329C148.5,-348.061 148.5,-335.977 148.5,-322.911"/>
<polygon fill="none" stroke="#404040" points="148.5,-322.66 144.5,-316.66 148.5,-310.66 152.5,-316.66 148.5,-322.66"/>
<text text-anchor="middle" x="182" y="-332" font-family="Helvetica,sans-Serif" font-size="10.00"> #mParameters</text>
</g>
<!-- Node4 -->
<g id="node4" class="node"><title>Node4</title>
<g id="a_node4"><a xlink:href="../../d8/d13/structpnlBoardControls_1_1ADC__DAC.html" target="_top" xlink:title="{pnlBoardControls::ADC_DAC\n|+ writable\l+ value\l+ channel\l+ powerOf10\l+ minValue\l+ maxValue\l|}">
<polygon fill="white" stroke="black" points="30.5,-485.5 30.5,-597.5 176.5,-597.5 176.5,-485.5 30.5,-485.5"/>
<text text-anchor="middle" x="103.5" y="-585.5" font-family="Helvetica,sans-Serif" font-size="10.00">pnlBoardControls::ADC_DAC</text>
<polyline fill="none" stroke="black" points="30.5,-578.5 176.5,-578.5 "/>
<text text-anchor="start" x="38.5" y="-566.5" font-family="Helvetica,sans-Serif" font-size="10.00">+ writable</text>
<text text-anchor="start" x="38.5" y="-555.5" font-family="Helvetica,sans-Serif" font-size="10.00">+ value</text>
<text text-anchor="start" x="38.5" y="-544.5" font-family="Helvetica,sans-Serif" font-size="10.00">+ channel</text>
<text text-anchor="start" x="38.5" y="-533.5" font-family="Helvetica,sans-Serif" font-size="10.00">+ powerOf10</text>
<text text-anchor="start" x="38.5" y="-522.5" font-family="Helvetica,sans-Serif" font-size="10.00">+ minValue</text>
<text text-anchor="start" x="38.5" y="-511.5" font-family="Helvetica,sans-Serif" font-size="10.00">+ maxValue</text>
<polyline fill="none" stroke="black" points="30.5,-504.5 176.5,-504.5 "/>
<text text-anchor="middle" x="103.5" y="-492.5" font-family="Helvetica,sans-Serif" font-size="10.00"> </text>
</a>
</g>
</g>
<!-- Node4&#45;&gt;Node3 -->
<g id="edge3" class="edge"><title>Node4&#45;&gt;Node3</title>
<path fill="none" stroke="#404040" d="M97.6524,-485.262C97.953,-471.754 99.7845,-457.575 104.5,-445 105.528,-442.259 106.772,-439.565 108.18,-436.933"/>
<polygon fill="none" stroke="#404040" points="108.353,-436.658 108.176,-429.45 114.762,-426.513 114.939,-433.722 108.353,-436.658"/>
<text text-anchor="middle" x="129" y="-453.5" font-family="Helvetica,sans-Serif" font-size="10.00"> +elements</text>
</g>
<!-- Node5 -->
<g id="node5" class="node"><title>Node5</title>
<g id="a_node5"><a xlink:title="STL class. ">
<polygon fill="white" stroke="#bfbfbf" points="73.5,-656.5 73.5,-713.5 133.5,-713.5 133.5,-656.5 73.5,-656.5"/>
<text text-anchor="middle" x="103.5" y="-701.5" font-family="Helvetica,sans-Serif" font-size="10.00">std::string</text>
<polyline fill="none" stroke="#bfbfbf" points="73.5,-694.5 133.5,-694.5 "/>
<text text-anchor="middle" x="103.5" y="-682.5" font-family="Helvetica,sans-Serif" font-size="10.00"> </text>
<polyline fill="none" stroke="#bfbfbf" points="73.5,-675.5 133.5,-675.5 "/>
<text text-anchor="middle" x="103.5" y="-663.5" font-family="Helvetica,sans-Serif" font-size="10.00"> </text>
</a>
</g>
</g>
<!-- Node5&#45;&gt;Node4 -->
<g id="edge4" class="edge"><title>Node5&#45;&gt;Node4</title>
<path fill="none" stroke="#404040" d="M103.5,-656.381C103.5,-643.051 103.5,-626.416 103.5,-610.014"/>
<polygon fill="none" stroke="#404040" points="103.5,-609.575 99.5,-603.575 103.5,-597.575 107.5,-603.575 103.5,-609.575"/>
<text text-anchor="middle" x="119" y="-630" font-family="Helvetica,sans-Serif" font-size="10.00"> +units</text>
<text text-anchor="middle" x="119" y="-619" font-family="Helvetica,sans-Serif" font-size="10.00">+name</text>
</g>
<!-- Node6 -->
<g id="node6" class="node"><title>Node6</title>
<g id="a_node6"><a xlink:title="STL class. ">
<polygon fill="white" stroke="#bfbfbf" points="56,-751.5 56,-819.5 151,-819.5 151,-751.5 56,-751.5"/>
<text text-anchor="start" x="64" y="-807.5" font-family="Helvetica,sans-Serif" font-size="10.00">std::basic_string&lt;</text>
<text text-anchor="middle" x="103.5" y="-796.5" font-family="Helvetica,sans-Serif" font-size="10.00"> char &gt;</text>
<polyline fill="none" stroke="#bfbfbf" points="56,-789.5 151,-789.5 "/>
<text text-anchor="middle" x="103.5" y="-777.5" font-family="Helvetica,sans-Serif" font-size="10.00"> </text>
<polyline fill="none" stroke="#bfbfbf" points="56,-770.5 151,-770.5 "/>
<text text-anchor="middle" x="103.5" y="-758.5" font-family="Helvetica,sans-Serif" font-size="10.00"> </text>
</a>
</g>
</g>
<!-- Node6&#45;&gt;Node5 -->
<g id="edge5" class="edge"><title>Node6&#45;&gt;Node5</title>
<path fill="none" stroke="midnightblue" d="M103.5,-741.375C103.5,-731.94 103.5,-722.201 103.5,-713.571"/>
<polygon fill="none" stroke="midnightblue" points="100,-741.427 103.5,-751.427 107,-741.427 100,-741.427"/>
</g>
<!-- Node7 -->
<g id="node7" class="node"><title>Node7</title>
<g id="a_node7"><a xlink:title="STL class. ">
<polygon fill="white" stroke="#bfbfbf" points="206,-513 206,-570 293,-570 293,-513 206,-513"/>
<text text-anchor="middle" x="249.5" y="-558" font-family="Helvetica,sans-Serif" font-size="10.00">std::vector&lt; T &gt;</text>
<polyline fill="none" stroke="#bfbfbf" points="206,-551 293,-551 "/>
<text text-anchor="middle" x="249.5" y="-539" font-family="Helvetica,sans-Serif" font-size="10.00"> </text>
<polyline fill="none" stroke="#bfbfbf" points="206,-532 293,-532 "/>
<text text-anchor="middle" x="249.5" y="-520" font-family="Helvetica,sans-Serif" font-size="10.00"> </text>
</a>
</g>
</g>
<!-- Node7&#45;&gt;Node3 -->
<g id="edge6" class="edge"><title>Node7&#45;&gt;Node3</title>
<path fill="none" stroke="orange" d="M217.074,-505.165C207.036,-493.436 196.31,-480.036 187.5,-467 178.926,-454.313 170.766,-439.531 164.147,-426.564"/>
<polygon fill="orange" stroke="orange" points="214.679,-507.744 223.882,-512.993 219.961,-503.15 214.679,-507.744"/>
<text text-anchor="start" x="187.5" y="-459" font-family="Helvetica,sans-Serif" font-size="10.00"> &lt; pnlBoardControls</text>
<text text-anchor="middle" x="231.5" y="-448" font-family="Helvetica,sans-Serif" font-size="10.00">::ADC_DAC &gt;</text>
</g>
<!-- Node9 -->
<g id="node9" class="node"><title>Node9</title>
<polygon fill="white" stroke="#bfbfbf" points="240,-358.5 240,-426.5 387,-426.5 387,-358.5 240,-358.5"/>
<text text-anchor="start" x="248" y="-414.5" font-family="Helvetica,sans-Serif" font-size="10.00">std::vector&lt; pnlBoardControls</text>
<text text-anchor="middle" x="313.5" y="-403.5" font-family="Helvetica,sans-Serif" font-size="10.00">::Param_GUI * &gt;</text>
<polyline fill="none" stroke="#bfbfbf" points="240,-396.5 387,-396.5 "/>
<text text-anchor="middle" x="313.5" y="-384.5" font-family="Helvetica,sans-Serif" font-size="10.00"> </text>
<polyline fill="none" stroke="#bfbfbf" points="240,-377.5 387,-377.5 "/>
<text text-anchor="middle" x="313.5" y="-365.5" font-family="Helvetica,sans-Serif" font-size="10.00"> </text>
</g>
<!-- Node7&#45;&gt;Node9 -->
<g id="edge10" class="edge"><title>Node7&#45;&gt;Node9</title>
<path fill="none" stroke="orange" d="M263.461,-503.189C270.337,-485.413 278.969,-463.945 287.5,-445 290.214,-438.973 293.257,-432.63 296.279,-426.535"/>
<polygon fill="orange" stroke="orange" points="260.147,-502.056 259.833,-512.646 266.683,-504.563 260.147,-502.056"/>
<text text-anchor="start" x="287.5" y="-459" font-family="Helvetica,sans-Serif" font-size="10.00"> &lt; pnlBoardControls</text>
<text text-anchor="middle" x="331.5" y="-448" font-family="Helvetica,sans-Serif" font-size="10.00">::Param_GUI * &gt;</text>
</g>
<!-- Node8 -->
<g id="node8" class="node"><title>Node8</title>
<polygon fill="white" stroke="#bfbfbf" points="235,-656.5 235,-713.5 264,-713.5 264,-656.5 235,-656.5"/>
<text text-anchor="middle" x="249.5" y="-701.5" font-family="Helvetica,sans-Serif" font-size="10.00">T</text>
<polyline fill="none" stroke="#bfbfbf" points="235,-694.5 264,-694.5 "/>
<text text-anchor="middle" x="249.5" y="-682.5" font-family="Helvetica,sans-Serif" font-size="10.00"> </text>
<polyline fill="none" stroke="#bfbfbf" points="235,-675.5 264,-675.5 "/>
<text text-anchor="middle" x="249.5" y="-663.5" font-family="Helvetica,sans-Serif" font-size="10.00"> </text>
</g>
<!-- Node8&#45;&gt;Node7 -->
<g id="edge7" class="edge"><title>Node8&#45;&gt;Node7</title>
<path fill="none" stroke="#404040" d="M249.5,-656.381C249.5,-635.247 249.5,-605.809 249.5,-582.158"/>
<polygon fill="none" stroke="#404040" points="249.5,-582.049 245.5,-576.049 249.5,-570.049 253.5,-576.049 249.5,-582.049"/>
<text text-anchor="middle" x="274" y="-624.5" font-family="Helvetica,sans-Serif" font-size="10.00"> +elements</text>
</g>
<!-- Node9&#45;&gt;Node1 -->
<g id="edge8" class="edge"><title>Node9&#45;&gt;Node1</title>
<path fill="none" stroke="#404040" d="M290.209,-358.329C274.539,-336.01 252.844,-305.111 231.136,-274.194"/>
<polygon fill="none" stroke="#404040" points="230.991,-273.987 224.27,-271.376 224.096,-264.166 230.817,-266.778 230.991,-273.987"/>
<text text-anchor="middle" x="311.5" y="-332" font-family="Helvetica,sans-Serif" font-size="10.00"> #mGUI_widgets</text>
</g>
<!-- Node10 -->
<g id="node10" class="node"><title>Node10</title>
<g id="a_node10"><a xlink:href="../../df/d1f/classpnlBoardControls_1_1Param__GUI.html" target="_top" xlink:title="{pnlBoardControls::Param_GUI\n|+ title\l+ units\l+ powerOf10\l+ rValue\l+ wValue\l|+ Param_GUI()\l+ ~Param_GUI()\l}">
<polygon fill="white" stroke="black" points="323,-485.5 323,-597.5 472,-597.5 472,-485.5 323,-485.5"/>
<text text-anchor="middle" x="397.5" y="-585.5" font-family="Helvetica,sans-Serif" font-size="10.00">pnlBoardControls::Param_GUI</text>
<polyline fill="none" stroke="black" points="323,-578.5 472,-578.5 "/>
<text text-anchor="start" x="331" y="-566.5" font-family="Helvetica,sans-Serif" font-size="10.00">+ title</text>
<text text-anchor="start" x="331" y="-555.5" font-family="Helvetica,sans-Serif" font-size="10.00">+ units</text>
<text text-anchor="start" x="331" y="-544.5" font-family="Helvetica,sans-Serif" font-size="10.00">+ powerOf10</text>
<text text-anchor="start" x="331" y="-533.5" font-family="Helvetica,sans-Serif" font-size="10.00">+ rValue</text>
<text text-anchor="start" x="331" y="-522.5" font-family="Helvetica,sans-Serif" font-size="10.00">+ wValue</text>
<polyline fill="none" stroke="black" points="323,-515.5 472,-515.5 "/>
<text text-anchor="start" x="331" y="-503.5" font-family="Helvetica,sans-Serif" font-size="10.00">+ Param_GUI()</text>
<text text-anchor="start" x="331" y="-492.5" font-family="Helvetica,sans-Serif" font-size="10.00">+ ~Param_GUI()</text>
</a>
</g>
</g>
<!-- Node10&#45;&gt;Node9 -->
<g id="edge9" class="edge"><title>Node10&#45;&gt;Node9</title>
<path fill="none" stroke="#404040" d="M391.084,-485.08C387.822,-471.29 382.906,-457.024 375.5,-445 373.545,-441.826 371.326,-438.755 368.918,-435.799"/>
<polygon fill="none" stroke="#404040" points="368.768,-435.636 361.769,-433.899 360.68,-426.771 367.679,-428.507 368.768,-435.636"/>
<text text-anchor="middle" x="411" y="-453.5" font-family="Helvetica,sans-Serif" font-size="10.00"> +elements</text>
</g>
</g>
</svg>
