<?xml version="1.0" encoding="UTF-8" standalone="no"?>
<!DOCTYPE svg PUBLIC "-//W3C//DTD SVG 1.1//EN"
 "http://www.w3.org/Graphics/SVG/1.1/DTD/svg11.dtd">
<!-- Generated by graphviz version 2.38.0 (20140413.2041)
 -->
<!-- Title: lime::FPGA::DetectRefClk Pages: 1 -->
<svg width="505pt" height="104pt"
 viewBox="0.00 0.00 505.00 104.00" xmlns="http://www.w3.org/2000/svg" xmlns:xlink="http://www.w3.org/1999/xlink">
<g id="graph0" class="graph" transform="scale(1 1) rotate(0) translate(4 100)">
<title>lime::FPGA::DetectRefClk</title>
<polygon fill="white" stroke="none" points="-4,4 -4,-100 501,-100 501,4 -4,4"/>
<!-- Node1 -->
<g id="node1" class="node"><title>Node1</title>
<polygon fill="#bfbfbf" stroke="black" points="0,-19.5 0,-38.5 134,-38.5 134,-19.5 0,-19.5"/>
<text text-anchor="middle" x="67" y="-26.5" font-family="Helvetica,sans-Serif" font-size="10.00">lime::FPGA::DetectRefClk</text>
</g>
<!-- Node2 -->
<g id="node2" class="node"><title>Node2</title>
<g id="a_node2"><a xlink:href="../../d5/d6c/namespacelime.html#ab9de5f0d548dc93d20d3a0173e752fbd" target="_top" xlink:title="Log a debug message with formatting. ">
<polygon fill="white" stroke="black" points="170,-38.5 170,-57.5 237,-57.5 237,-38.5 170,-38.5"/>
<text text-anchor="middle" x="203.5" y="-45.5" font-family="Helvetica,sans-Serif" font-size="10.00">lime::debug</text>
</a>
</g>
</g>
<!-- Node1&#45;&gt;Node2 -->
<g id="edge1" class="edge"><title>Node1&#45;&gt;Node2</title>
<path fill="none" stroke="midnightblue" d="M134.068,-38.333C142.85,-39.5736 151.658,-40.8179 159.895,-41.9814"/>
<polygon fill="midnightblue" stroke="midnightblue" points="159.585,-45.4723 169.976,-43.4056 160.564,-38.5411 159.585,-45.4723"/>
</g>
<!-- Node7 -->
<g id="node7" class="node"><title>Node7</title>
<g id="a_node7"><a xlink:href="../../d5/d6c/namespacelime.html#af0395b1ab55d42fb76210f0cd9a44a6f" target="_top" xlink:title="Log an information message with formatting. ">
<polygon fill="white" stroke="black" points="175.5,-0.5 175.5,-19.5 231.5,-19.5 231.5,-0.5 175.5,-0.5"/>
<text text-anchor="middle" x="203.5" y="-7.5" font-family="Helvetica,sans-Serif" font-size="10.00">lime::info</text>
</a>
</g>
</g>
<!-- Node1&#45;&gt;Node7 -->
<g id="edge6" class="edge"><title>Node1&#45;&gt;Node7</title>
<path fill="none" stroke="midnightblue" d="M134.068,-19.667C144.801,-18.1508 155.575,-16.6289 165.294,-15.2558"/>
<polygon fill="midnightblue" stroke="midnightblue" points="165.963,-18.6961 175.375,-13.8317 164.984,-11.765 165.963,-18.6961"/>
</g>
<!-- Node3 -->
<g id="node3" class="node"><title>Node3</title>
<g id="a_node3"><a xlink:href="../../d5/d6c/namespacelime.html#a6e854173a1d66443d7c96d8eabef993b" target="_top" xlink:title="lime::GetLastErrorMessage">
<polygon fill="white" stroke="black" points="273,-76.5 273,-95.5 409,-95.5 409,-76.5 273,-76.5"/>
<text text-anchor="middle" x="341" y="-83.5" font-family="Helvetica,sans-Serif" font-size="10.00">lime::GetLastErrorMessage</text>
</a>
</g>
</g>
<!-- Node2&#45;&gt;Node3 -->
<g id="edge2" class="edge"><title>Node2&#45;&gt;Node3</title>
<path fill="none" stroke="midnightblue" d="M237.301,-57.1987C255.042,-62.1742 277.187,-68.3845 296.366,-73.7632"/>
<polygon fill="midnightblue" stroke="midnightblue" points="295.513,-77.1588 306.086,-76.4891 297.403,-70.4188 295.513,-77.1588"/>
</g>
<!-- Node4 -->
<g id="node4" class="node"><title>Node4</title>
<g id="a_node4"><a xlink:href="../../d5/d6c/namespacelime.html#abec841ac666fc9321a10e1881cff2da0" target="_top" xlink:title="Log a message with formatting and specified logging level. ">
<polygon fill="white" stroke="black" points="314.5,-0.5 314.5,-19.5 367.5,-19.5 367.5,-0.5 314.5,-0.5"/>
<text text-anchor="middle" x="341" y="-7.5" font-family="Helvetica,sans-Serif" font-size="10.00">lime::log</text>
</a>
</g>
</g>
<!-- Node2&#45;&gt;Node4 -->
<g id="edge3" class="edge"><title>Node2&#45;&gt;Node4</title>
<path fill="none" stroke="midnightblue" d="M237.301,-38.8013C257.628,-33.1006 283.736,-25.7789 304.541,-19.9443"/>
<polygon fill="midnightblue" stroke="midnightblue" points="305.596,-23.2835 314.279,-17.2132 303.706,-16.5435 305.596,-23.2835"/>
</g>
<!-- Node5 -->
<g id="node5" class="node"><title>Node5</title>
<g id="a_node5"><a xlink:href="../../d5/d6c/namespacelime.html#adc6af0cf8e0a70f3ef09fac1244f8c48" target="_top" xlink:title="lime::ReportError">
<polygon fill="white" stroke="black" points="295.5,-38.5 295.5,-57.5 386.5,-57.5 386.5,-38.5 295.5,-38.5"/>
<text text-anchor="middle" x="341" y="-45.5" font-family="Helvetica,sans-Serif" font-size="10.00">lime::ReportError</text>
</a>
</g>
</g>
<!-- Node2&#45;&gt;Node5 -->
<g id="edge4" class="edge"><title>Node2&#45;&gt;Node5</title>
<path fill="none" stroke="midnightblue" d="M237.301,-48C251.628,-48 268.828,-48 285.018,-48"/>
<polygon fill="midnightblue" stroke="midnightblue" points="285.471,-51.5001 295.471,-48 285.471,-44.5001 285.471,-51.5001"/>
</g>
<!-- Node6 -->
<g id="node6" class="node"><title>Node6</title>
<g id="a_node6"><a xlink:href="../../d9/df5/Logger_8cpp.html#ada38bf01d6d691de953ed69268ea6516" target="_top" xlink:title="errToStr">
<polygon fill="white" stroke="black" points="445,-38.5 445,-57.5 497,-57.5 497,-38.5 445,-38.5"/>
<text text-anchor="middle" x="471" y="-45.5" font-family="Helvetica,sans-Serif" font-size="10.00">errToStr</text>
</a>
</g>
</g>
<!-- Node5&#45;&gt;Node6 -->
<g id="edge5" class="edge"><title>Node5&#45;&gt;Node6</title>
<path fill="none" stroke="midnightblue" d="M386.768,-48C402.431,-48 419.789,-48 434.582,-48"/>
<polygon fill="midnightblue" stroke="midnightblue" points="434.84,-51.5001 444.84,-48 434.84,-44.5001 434.84,-51.5001"/>
</g>
<!-- Node7&#45;&gt;Node4 -->
<g id="edge7" class="edge"><title>Node7&#45;&gt;Node4</title>
<path fill="none" stroke="midnightblue" d="M231.595,-10C252.397,-10 281.312,-10 304.049,-10"/>
<polygon fill="midnightblue" stroke="midnightblue" points="304.329,-13.5001 314.329,-10 304.329,-6.5001 304.329,-13.5001"/>
</g>
</g>
</svg>
