<?xml version="1.0" encoding="UTF-8" standalone="no"?>
<!DOCTYPE svg PUBLIC "-//W3C//DTD SVG 1.1//EN"
 "http://www.w3.org/Graphics/SVG/1.1/DTD/svg11.dtd">
<!-- Generated by graphviz version 2.38.0 (20140413.2041)
 -->
<!-- Title: lime::FPGA::StartStreaming Pages: 1 -->
<svg width="1197pt" height="224pt"
 viewBox="0.00 0.00 1197.00 224.00" xmlns="http://www.w3.org/2000/svg" xmlns:xlink="http://www.w3.org/1999/xlink">
<g id="graph0" class="graph" transform="scale(1 1) rotate(0) translate(4 220)">
<title>lime::FPGA::StartStreaming</title>
<polygon fill="white" stroke="none" points="-4,4 -4,-220 1193,-220 1193,4 -4,4"/>
<!-- Node1 -->
<g id="node1" class="node"><title>Node1</title>
<polygon fill="#bfbfbf" stroke="black" points="0,-72 0,-91 139,-91 139,-72 0,-72"/>
<text text-anchor="middle" x="69.5" y="-79" font-family="Helvetica,sans-Serif" font-size="10.00">lime::FPGA::StartStreaming</text>
</g>
<!-- Node2 -->
<g id="node2" class="node"><title>Node2</title>
<g id="a_node2"><a xlink:href="../../d9/d5d/classlime_1_1Streamer.html#af72084cb1bf47cd49edb8395eea1f04b" target="_top" xlink:title="lime::Streamer::AlignRxTSP">
<polygon fill="white" stroke="black" points="359,-47 359,-66 499,-66 499,-47 359,-47"/>
<text text-anchor="middle" x="429" y="-54" font-family="Helvetica,sans-Serif" font-size="10.00">lime::Streamer::AlignRxTSP</text>
</a>
</g>
</g>
<!-- Node1&#45;&gt;Node2 -->
<g id="edge1" class="edge"><title>Node1&#45;&gt;Node2</title>
<path fill="none" stroke="midnightblue" d="M149.241,-75.9937C211.917,-71.6107 298.783,-65.5362 358.812,-61.3383"/>
<polygon fill="midnightblue" stroke="midnightblue" points="148.738,-72.5202 139.007,-76.7093 149.226,-79.5031 148.738,-72.5202"/>
</g>
<!-- Node4 -->
<g id="node4" class="node"><title>Node4</title>
<g id="a_node4"><a xlink:href="../../d9/d5d/classlime_1_1Streamer.html#a33a233f1c863b9710f3b685d5fb494f6" target="_top" xlink:title="lime::Streamer::UpdateThreads">
<polygon fill="white" stroke="black" points="713,-142 713,-161 866,-161 866,-142 713,-142"/>
<text text-anchor="middle" x="789.5" y="-149" font-family="Helvetica,sans-Serif" font-size="10.00">lime::Streamer::UpdateThreads</text>
</a>
</g>
</g>
<!-- Node1&#45;&gt;Node4 -->
<g id="edge14" class="edge"><title>Node1&#45;&gt;Node4</title>
<path fill="none" stroke="midnightblue" d="M97.1576,-95.7212C117.829,-106.129 147.497,-119.737 175,-127.5 362.472,-180.415 594.927,-170.012 712.605,-159.726"/>
<polygon fill="midnightblue" stroke="midnightblue" points="98.5525,-92.5032 88.0574,-91.053 95.3575,-98.7315 98.5525,-92.5032"/>
</g>
<!-- Node9 -->
<g id="node9" class="node"><title>Node9</title>
<g id="a_node9"><a xlink:href="../../d9/d5d/classlime_1_1Streamer.html#ace46b832a3e2e6ea6ae23c6672bca45f" target="_top" xlink:title="lime::Streamer::GetPhase\lOffset">
<polygon fill="white" stroke="black" points="180,-88.5 180,-118.5 310,-118.5 310,-88.5 180,-88.5"/>
<text text-anchor="start" x="188" y="-106.5" font-family="Helvetica,sans-Serif" font-size="10.00">lime::Streamer::GetPhase</text>
<text text-anchor="middle" x="245" y="-95.5" font-family="Helvetica,sans-Serif" font-size="10.00">Offset</text>
</a>
</g>
</g>
<!-- Node1&#45;&gt;Node9 -->
<g id="edge8" class="edge"><title>Node1&#45;&gt;Node9</title>
<path fill="none" stroke="midnightblue" d="M149.252,-91.4859C159.505,-92.7859 169.907,-94.1049 179.88,-95.3695"/>
<polygon fill="midnightblue" stroke="midnightblue" points="149.433,-87.9808 139.072,-90.195 148.552,-94.9252 149.433,-87.9808"/>
</g>
<!-- Node11 -->
<g id="node11" class="node"><title>Node11</title>
<g id="a_node11"><a xlink:href="../../d5/ddc/classlime_1_1FPGA__Mini.html#aaad1bc75afbc99d7e579f98cbab3bb3b" target="_top" xlink:title="lime::FPGA_Mini::ReadRaw\lStreamData">
<polygon fill="white" stroke="black" points="175,-0.5 175,-30.5 315,-30.5 315,-0.5 175,-0.5"/>
<text text-anchor="start" x="183" y="-18.5" font-family="Helvetica,sans-Serif" font-size="10.00">lime::FPGA_Mini::ReadRaw</text>
<text text-anchor="middle" x="245" y="-7.5" font-family="Helvetica,sans-Serif" font-size="10.00">StreamData</text>
</a>
</g>
</g>
<!-- Node1&#45;&gt;Node11 -->
<g id="edge12" class="edge"><title>Node1&#45;&gt;Node11</title>
<path fill="none" stroke="midnightblue" d="M105.31,-68.2582C133.908,-57.3793 174.426,-41.9661 204.287,-30.6071"/>
<polygon fill="midnightblue" stroke="midnightblue" points="103.831,-65.0762 95.7284,-71.903 106.319,-71.6188 103.831,-65.0762"/>
</g>
<!-- Node3 -->
<g id="node3" class="node"><title>Node3</title>
<g id="a_node3"><a xlink:href="../../d9/d5d/classlime_1_1Streamer.html#a05cbd39a0d43b90b7fc2543ec246e9bb" target="_top" xlink:title="lime::Streamer::AlignRxRF">
<polygon fill="white" stroke="black" points="543,-104 543,-123 677,-123 677,-104 543,-104"/>
<text text-anchor="middle" x="610" y="-111" font-family="Helvetica,sans-Serif" font-size="10.00">lime::Streamer::AlignRxRF</text>
</a>
</g>
</g>
<!-- Node2&#45;&gt;Node3 -->
<g id="edge2" class="edge"><title>Node2&#45;&gt;Node3</title>
<path fill="none" stroke="midnightblue" d="M470.363,-68.991C482.179,-72.6719 495.114,-76.7251 507,-80.5 531.48,-88.2747 559.207,-97.2567 579.568,-103.885"/>
<polygon fill="midnightblue" stroke="midnightblue" points="471.337,-65.6286 460.748,-66.0009 469.258,-72.3128 471.337,-65.6286"/>
</g>
<!-- Node3&#45;&gt;Node4 -->
<g id="edge3" class="edge"><title>Node3&#45;&gt;Node4</title>
<path fill="none" stroke="midnightblue" d="M665.897,-125.253C690.995,-130.626 720.343,-136.909 744.031,-141.98"/>
<polygon fill="midnightblue" stroke="midnightblue" points="666.302,-121.76 655.791,-123.089 664.836,-128.605 666.302,-121.76"/>
</g>
<!-- Node5 -->
<g id="node5" class="node"><title>Node5</title>
<g id="a_node5"><a xlink:href="../../d7/db1/classlime_1_1StreamChannel.html#aa966ef896b18459801d87f9e6990d98e" target="_top" xlink:title="lime::StreamChannel\l::Start">
<polygon fill="white" stroke="black" points="919.5,-185.5 919.5,-215.5 1027.5,-215.5 1027.5,-185.5 919.5,-185.5"/>
<text text-anchor="start" x="927.5" y="-203.5" font-family="Helvetica,sans-Serif" font-size="10.00">lime::StreamChannel</text>
<text text-anchor="middle" x="973.5" y="-192.5" font-family="Helvetica,sans-Serif" font-size="10.00">::Start</text>
</a>
</g>
</g>
<!-- Node4&#45;&gt;Node5 -->
<g id="edge4" class="edge"><title>Node4&#45;&gt;Node5</title>
<path fill="none" stroke="midnightblue" d="M835.764,-163.686C861.143,-170.519 892.935,-179.079 919.475,-186.224"/>
<polygon fill="midnightblue" stroke="midnightblue" points="836.59,-160.284 826.023,-161.064 834.77,-167.043 836.59,-160.284"/>
</g>
<!-- Node6 -->
<g id="node6" class="node"><title>Node6</title>
<g id="a_node6"><a xlink:href="../../d7/db1/classlime_1_1StreamChannel.html#a05331d809d6ba661d28a9d8954715acc" target="_top" xlink:title="lime::StreamChannel\l::Stop">
<polygon fill="white" stroke="black" points="919.5,-136.5 919.5,-166.5 1027.5,-166.5 1027.5,-136.5 919.5,-136.5"/>
<text text-anchor="start" x="927.5" y="-154.5" font-family="Helvetica,sans-Serif" font-size="10.00">lime::StreamChannel</text>
<text text-anchor="middle" x="973.5" y="-143.5" font-family="Helvetica,sans-Serif" font-size="10.00">::Stop</text>
</a>
</g>
</g>
<!-- Node4&#45;&gt;Node6 -->
<g id="edge5" class="edge"><title>Node4&#45;&gt;Node6</title>
<path fill="none" stroke="midnightblue" d="M876.224,-151.5C890.912,-151.5 905.784,-151.5 919.303,-151.5"/>
<polygon fill="midnightblue" stroke="midnightblue" points="876.103,-148 866.103,-151.5 876.103,-155 876.103,-148"/>
</g>
<!-- Node8 -->
<g id="node8" class="node"><title>Node8</title>
<g id="a_node8"><a xlink:href="../../d9/d5d/classlime_1_1Streamer.html#aaa946b5fe7814a97160d6efd015295e7" target="_top" xlink:title="lime::Streamer::SetupStream">
<polygon fill="white" stroke="black" points="902,-98 902,-117 1045,-117 1045,-98 902,-98"/>
<text text-anchor="middle" x="973.5" y="-105" font-family="Helvetica,sans-Serif" font-size="10.00">lime::Streamer::SetupStream</text>
</a>
</g>
</g>
<!-- Node4&#45;&gt;Node8 -->
<g id="edge7" class="edge"><title>Node4&#45;&gt;Node8</title>
<path fill="none" stroke="midnightblue" d="M840.008,-139.531C869.262,-132.459 905.795,-123.626 933.086,-117.029"/>
<polygon fill="midnightblue" stroke="midnightblue" points="838.889,-136.201 829.991,-141.953 840.534,-143.005 838.889,-136.201"/>
</g>
<!-- Node7 -->
<g id="node7" class="node"><title>Node7</title>
<g id="a_node7"><a xlink:href="../../d7/db1/classlime_1_1StreamChannel.html#a9cc4412f3c3e407fa95c02b1a3f2b4db" target="_top" xlink:title="lime::StreamChannel\l::Close">
<polygon fill="white" stroke="black" points="1081,-136.5 1081,-166.5 1189,-166.5 1189,-136.5 1081,-136.5"/>
<text text-anchor="start" x="1089" y="-154.5" font-family="Helvetica,sans-Serif" font-size="10.00">lime::StreamChannel</text>
<text text-anchor="middle" x="1135" y="-143.5" font-family="Helvetica,sans-Serif" font-size="10.00">::Close</text>
</a>
</g>
</g>
<!-- Node6&#45;&gt;Node7 -->
<g id="edge6" class="edge"><title>Node6&#45;&gt;Node7</title>
<path fill="none" stroke="midnightblue" d="M1037.83,-151.5C1052.08,-151.5 1067.06,-151.5 1080.85,-151.5"/>
<polygon fill="midnightblue" stroke="midnightblue" points="1037.61,-148 1027.61,-151.5 1037.61,-155 1037.61,-148"/>
</g>
<!-- Node9&#45;&gt;Node3 -->
<g id="edge9" class="edge"><title>Node9&#45;&gt;Node3</title>
<path fill="none" stroke="midnightblue" d="M320.297,-105.547C385.679,-107.348 479.987,-109.946 542.82,-111.677"/>
<polygon fill="midnightblue" stroke="midnightblue" points="320.154,-102.042 310.062,-105.265 319.961,-109.039 320.154,-102.042"/>
</g>
<!-- Node10 -->
<g id="node10" class="node"><title>Node10</title>
<g id="a_node10"><a xlink:href="../../d9/d5d/classlime_1_1Streamer.html#a44a390ff3b22aabf1c112ba0f13a9e7f" target="_top" xlink:title="lime::Streamer::AlignQuadrature">
<polygon fill="white" stroke="black" points="351,-123 351,-142 507,-142 507,-123 351,-123"/>
<text text-anchor="middle" x="429" y="-130" font-family="Helvetica,sans-Serif" font-size="10.00">lime::Streamer::AlignQuadrature</text>
</a>
</g>
</g>
<!-- Node9&#45;&gt;Node10 -->
<g id="edge10" class="edge"><title>Node9&#45;&gt;Node10</title>
<path fill="none" stroke="midnightblue" d="M320.061,-115.301C336.134,-117.862 352.938,-120.54 368.37,-122.999"/>
<polygon fill="midnightblue" stroke="midnightblue" points="320.593,-111.842 310.166,-113.724 319.491,-118.754 320.593,-111.842"/>
</g>
<!-- Node10&#45;&gt;Node3 -->
<g id="edge11" class="edge"><title>Node10&#45;&gt;Node3</title>
<path fill="none" stroke="midnightblue" d="M517.321,-123.231C525.961,-122.314 534.628,-121.394 542.999,-120.506"/>
<polygon fill="midnightblue" stroke="midnightblue" points="516.786,-119.768 507.211,-124.304 517.524,-126.729 516.786,-119.768"/>
</g>
<!-- Node12 -->
<g id="node12" class="node"><title>Node12</title>
<g id="a_node12"><a xlink:href="../../d5/ddc/classlime_1_1FPGA__Mini.html#aedd77aff9db5e1c37979e0bc8988a50b" target="_top" xlink:title="lime::FPGA_Mini::~FPGA_Mini">
<polygon fill="white" stroke="black" points="352.5,-6 352.5,-25 505.5,-25 505.5,-6 352.5,-6"/>
<text text-anchor="middle" x="429" y="-13" font-family="Helvetica,sans-Serif" font-size="10.00">lime::FPGA_Mini::~FPGA_Mini</text>
</a>
</g>
</g>
<!-- Node11&#45;&gt;Node12 -->
<g id="edge13" class="edge"><title>Node11&#45;&gt;Node12</title>
<path fill="none" stroke="midnightblue" d="M325.153,-15.5C334.163,-15.5 343.331,-15.5 352.295,-15.5"/>
<polygon fill="midnightblue" stroke="midnightblue" points="325.066,-12.0001 315.066,-15.5 325.066,-19.0001 325.066,-12.0001"/>
</g>
</g>
</svg>
