<?xml version="1.0" encoding="UTF-8" standalone="no"?>
<!DOCTYPE svg PUBLIC "-//W3C//DTD SVG 1.1//EN"
 "http://www.w3.org/Graphics/SVG/1.1/DTD/svg11.dtd">
<!-- Generated by graphviz version 2.38.0 (20140413.2041)
 -->
<!-- Title: lime::FPGA::StopStreaming Pages: 1 -->
<svg width="1200pt" height="307pt"
 viewBox="0.00 0.00 1200.00 307.00" xmlns="http://www.w3.org/2000/svg" xmlns:xlink="http://www.w3.org/1999/xlink">
<g id="graph0" class="graph" transform="scale(1 1) rotate(0) translate(4 303)">
<title>lime::FPGA::StopStreaming</title>
<polygon fill="white" stroke="none" points="-4,4 -4,-303 1196,-303 1196,4 -4,4"/>
<!-- Node1 -->
<g id="node1" class="node"><title>Node1</title>
<polygon fill="#bfbfbf" stroke="black" points="0,-143 0,-162 138,-162 138,-143 0,-143"/>
<text text-anchor="middle" x="69" y="-150" font-family="Helvetica,sans-Serif" font-size="10.00">lime::FPGA::StopStreaming</text>
</g>
<!-- Node2 -->
<g id="node2" class="node"><title>Node2</title>
<g id="a_node2"><a xlink:href="../../d9/d5d/classlime_1_1Streamer.html#a44a390ff3b22aabf1c112ba0f13a9e7f" target="_top" xlink:title="lime::Streamer::AlignQuadrature">
<polygon fill="white" stroke="black" points="354,-111 354,-130 510,-130 510,-111 354,-111"/>
<text text-anchor="middle" x="432" y="-118" font-family="Helvetica,sans-Serif" font-size="10.00">lime::Streamer::AlignQuadrature</text>
</a>
</g>
</g>
<!-- Node1&#45;&gt;Node2 -->
<g id="edge1" class="edge"><title>Node1&#45;&gt;Node2</title>
<path fill="none" stroke="midnightblue" d="M86.4452,-135.725C105.533,-117.569 138.907,-89.711 174,-78.5 234.965,-59.0242 255.01,-67.1725 318,-78.5 352.194,-84.6492 389.556,-100.483 411.6,-110.857"/>
<polygon fill="midnightblue" stroke="midnightblue" points="83.8776,-133.341 79.1761,-142.835 88.7723,-138.345 83.8776,-133.341"/>
</g>
<!-- Node3 -->
<g id="node3" class="node"><title>Node3</title>
<g id="a_node3"><a xlink:href="../../d9/d5d/classlime_1_1Streamer.html#a05cbd39a0d43b90b7fc2543ec246e9bb" target="_top" xlink:title="lime::Streamer::AlignRxRF">
<polygon fill="white" stroke="black" points="546,-187 546,-206 680,-206 680,-187 546,-187"/>
<text text-anchor="middle" x="613" y="-194" font-family="Helvetica,sans-Serif" font-size="10.00">lime::Streamer::AlignRxRF</text>
</a>
</g>
</g>
<!-- Node1&#45;&gt;Node3 -->
<g id="edge8" class="edge"><title>Node1&#45;&gt;Node3</title>
<path fill="none" stroke="midnightblue" d="M114.208,-164.565C132.565,-169.086 154.173,-173.782 174,-176.5 305.035,-194.46 459.964,-197.254 545.992,-197.195"/>
<polygon fill="midnightblue" stroke="midnightblue" points="114.928,-161.137 104.376,-162.084 113.216,-167.924 114.928,-161.137"/>
</g>
<!-- Node4 -->
<g id="node4" class="node"><title>Node4</title>
<g id="a_node4"><a xlink:href="../../d9/d5d/classlime_1_1Streamer.html#a33a233f1c863b9710f3b685d5fb494f6" target="_top" xlink:title="lime::Streamer::UpdateThreads">
<polygon fill="white" stroke="black" points="716,-225 716,-244 869,-244 869,-225 716,-225"/>
<text text-anchor="middle" x="792.5" y="-232" font-family="Helvetica,sans-Serif" font-size="10.00">lime::Streamer::UpdateThreads</text>
</a>
</g>
</g>
<!-- Node1&#45;&gt;Node4 -->
<g id="edge17" class="edge"><title>Node1&#45;&gt;Node4</title>
<path fill="none" stroke="midnightblue" d="M85.133,-169.423C103.848,-189.088 137.707,-220.725 174,-235.5 378.79,-318.871 654.412,-267.255 753.804,-244.045"/>
<polygon fill="midnightblue" stroke="midnightblue" points="87.6605,-167.001 78.2929,-162.052 82.5293,-171.763 87.6605,-167.001"/>
</g>
<!-- Node9 -->
<g id="node9" class="node"><title>Node9</title>
<g id="a_node9"><a xlink:href="../../d9/d5d/classlime_1_1Streamer.html#af72084cb1bf47cd49edb8395eea1f04b" target="_top" xlink:title="lime::Streamer::AlignRxTSP">
<polygon fill="white" stroke="black" points="362,-225 362,-244 502,-244 502,-225 362,-225"/>
<text text-anchor="middle" x="432" y="-232" font-family="Helvetica,sans-Serif" font-size="10.00">lime::Streamer::AlignRxTSP</text>
</a>
</g>
</g>
<!-- Node1&#45;&gt;Node9 -->
<g id="edge9" class="edge"><title>Node1&#45;&gt;Node9</title>
<path fill="none" stroke="midnightblue" d="M91.4112,-167.965C111.633,-181.687 143.351,-200.988 174,-210.5 235.63,-229.627 309.242,-234.83 361.857,-235.721"/>
<polygon fill="midnightblue" stroke="midnightblue" points="93.1848,-164.936 82.9741,-162.108 89.193,-170.686 93.1848,-164.936"/>
</g>
<!-- Node10 -->
<g id="node10" class="node"><title>Node10</title>
<g id="a_node10"><a xlink:href="../../d9/d5d/classlime_1_1Streamer.html#a3b515dd1d151c18ddb8050e14eca1928" target="_top" xlink:title="lime::Streamer::GetHardware\lTimestamp">
<polygon fill="white" stroke="black" points="174,-88.5 174,-118.5 318,-118.5 318,-88.5 174,-88.5"/>
<text text-anchor="start" x="182" y="-106.5" font-family="Helvetica,sans-Serif" font-size="10.00">lime::Streamer::GetHardware</text>
<text text-anchor="middle" x="246" y="-95.5" font-family="Helvetica,sans-Serif" font-size="10.00">Timestamp</text>
</a>
</g>
</g>
<!-- Node1&#45;&gt;Node10 -->
<g id="edge11" class="edge"><title>Node1&#45;&gt;Node10</title>
<path fill="none" stroke="midnightblue" d="M113.848,-140.222C137.335,-133.646 166.462,-125.491 191.297,-118.537"/>
<polygon fill="midnightblue" stroke="midnightblue" points="112.843,-136.869 104.157,-142.936 114.731,-143.61 112.843,-136.869"/>
</g>
<!-- Node11 -->
<g id="node11" class="node"><title>Node11</title>
<g id="a_node11"><a xlink:href="../../d9/d5d/classlime_1_1Streamer.html#ace46b832a3e2e6ea6ae23c6672bca45f" target="_top" xlink:title="lime::Streamer::GetPhase\lOffset">
<polygon fill="white" stroke="black" points="181,-137.5 181,-167.5 311,-167.5 311,-137.5 181,-137.5"/>
<text text-anchor="start" x="189" y="-155.5" font-family="Helvetica,sans-Serif" font-size="10.00">lime::Streamer::GetPhase</text>
<text text-anchor="middle" x="246" y="-144.5" font-family="Helvetica,sans-Serif" font-size="10.00">Offset</text>
</a>
</g>
</g>
<!-- Node1&#45;&gt;Node11 -->
<g id="edge12" class="edge"><title>Node1&#45;&gt;Node11</title>
<path fill="none" stroke="midnightblue" d="M148.442,-152.5C159.247,-152.5 170.239,-152.5 180.749,-152.5"/>
<polygon fill="midnightblue" stroke="midnightblue" points="148.161,-149 138.161,-152.5 148.161,-156 148.161,-149"/>
</g>
<!-- Node12 -->
<g id="node12" class="node"><title>Node12</title>
<g id="a_node12"><a xlink:href="../../d5/ddc/classlime_1_1FPGA__Mini.html#aaad1bc75afbc99d7e579f98cbab3bb3b" target="_top" xlink:title="lime::FPGA_Mini::ReadRaw\lStreamData">
<polygon fill="white" stroke="black" points="176,-0.5 176,-30.5 316,-30.5 316,-0.5 176,-0.5"/>
<text text-anchor="start" x="184" y="-18.5" font-family="Helvetica,sans-Serif" font-size="10.00">lime::FPGA_Mini::ReadRaw</text>
<text text-anchor="middle" x="246" y="-7.5" font-family="Helvetica,sans-Serif" font-size="10.00">StreamData</text>
</a>
</g>
</g>
<!-- Node1&#45;&gt;Node12 -->
<g id="edge15" class="edge"><title>Node1&#45;&gt;Node12</title>
<path fill="none" stroke="midnightblue" d="M83.2282,-135.053C101.491,-111.957 136.454,-71.1698 174,-45.5 182.395,-39.7601 192.064,-34.7843 201.509,-30.6246"/>
<polygon fill="midnightblue" stroke="midnightblue" points="80.4485,-132.926 77.0758,-142.97 85.9757,-137.221 80.4485,-132.926"/>
</g>
<!-- Node2&#45;&gt;Node3 -->
<g id="edge2" class="edge"><title>Node2&#45;&gt;Node3</title>
<path fill="none" stroke="midnightblue" d="M477.582,-132.99C488.323,-136.383 499.674,-140.294 510,-144.5 541.11,-157.172 575.597,-175.775 595.445,-186.955"/>
<polygon fill="midnightblue" stroke="midnightblue" points="478.525,-129.618 467.938,-130.026 476.468,-136.309 478.525,-129.618"/>
</g>
<!-- Node3&#45;&gt;Node4 -->
<g id="edge3" class="edge"><title>Node3&#45;&gt;Node4</title>
<path fill="none" stroke="midnightblue" d="M668.897,-208.253C693.995,-213.626 723.343,-219.909 747.031,-224.98"/>
<polygon fill="midnightblue" stroke="midnightblue" points="669.302,-204.76 658.791,-206.089 667.836,-211.605 669.302,-204.76"/>
</g>
<!-- Node5 -->
<g id="node5" class="node"><title>Node5</title>
<g id="a_node5"><a xlink:href="../../d7/db1/classlime_1_1StreamChannel.html#aa966ef896b18459801d87f9e6990d98e" target="_top" xlink:title="lime::StreamChannel\l::Start">
<polygon fill="white" stroke="black" points="922.5,-268.5 922.5,-298.5 1030.5,-298.5 1030.5,-268.5 922.5,-268.5"/>
<text text-anchor="start" x="930.5" y="-286.5" font-family="Helvetica,sans-Serif" font-size="10.00">lime::StreamChannel</text>
<text text-anchor="middle" x="976.5" y="-275.5" font-family="Helvetica,sans-Serif" font-size="10.00">::Start</text>
</a>
</g>
</g>
<!-- Node4&#45;&gt;Node5 -->
<g id="edge4" class="edge"><title>Node4&#45;&gt;Node5</title>
<path fill="none" stroke="midnightblue" d="M838.764,-246.686C864.143,-253.519 895.935,-262.079 922.475,-269.224"/>
<polygon fill="midnightblue" stroke="midnightblue" points="839.59,-243.284 829.023,-244.064 837.77,-250.043 839.59,-243.284"/>
</g>
<!-- Node6 -->
<g id="node6" class="node"><title>Node6</title>
<g id="a_node6"><a xlink:href="../../d7/db1/classlime_1_1StreamChannel.html#a05331d809d6ba661d28a9d8954715acc" target="_top" xlink:title="lime::StreamChannel\l::Stop">
<polygon fill="white" stroke="black" points="922.5,-219.5 922.5,-249.5 1030.5,-249.5 1030.5,-219.5 922.5,-219.5"/>
<text text-anchor="start" x="930.5" y="-237.5" font-family="Helvetica,sans-Serif" font-size="10.00">lime::StreamChannel</text>
<text text-anchor="middle" x="976.5" y="-226.5" font-family="Helvetica,sans-Serif" font-size="10.00">::Stop</text>
</a>
</g>
</g>
<!-- Node4&#45;&gt;Node6 -->
<g id="edge5" class="edge"><title>Node4&#45;&gt;Node6</title>
<path fill="none" stroke="midnightblue" d="M879.224,-234.5C893.912,-234.5 908.784,-234.5 922.303,-234.5"/>
<polygon fill="midnightblue" stroke="midnightblue" points="879.103,-231 869.103,-234.5 879.103,-238 879.103,-231"/>
</g>
<!-- Node8 -->
<g id="node8" class="node"><title>Node8</title>
<g id="a_node8"><a xlink:href="../../d9/d5d/classlime_1_1Streamer.html#aaa946b5fe7814a97160d6efd015295e7" target="_top" xlink:title="lime::Streamer::SetupStream">
<polygon fill="white" stroke="black" points="905,-181 905,-200 1048,-200 1048,-181 905,-181"/>
<text text-anchor="middle" x="976.5" y="-188" font-family="Helvetica,sans-Serif" font-size="10.00">lime::Streamer::SetupStream</text>
</a>
</g>
</g>
<!-- Node4&#45;&gt;Node8 -->
<g id="edge7" class="edge"><title>Node4&#45;&gt;Node8</title>
<path fill="none" stroke="midnightblue" d="M843.008,-222.531C872.262,-215.459 908.795,-206.626 936.086,-200.029"/>
<polygon fill="midnightblue" stroke="midnightblue" points="841.889,-219.201 832.991,-224.953 843.534,-226.005 841.889,-219.201"/>
</g>
<!-- Node7 -->
<g id="node7" class="node"><title>Node7</title>
<g id="a_node7"><a xlink:href="../../d7/db1/classlime_1_1StreamChannel.html#a9cc4412f3c3e407fa95c02b1a3f2b4db" target="_top" xlink:title="lime::StreamChannel\l::Close">
<polygon fill="white" stroke="black" points="1084,-219.5 1084,-249.5 1192,-249.5 1192,-219.5 1084,-219.5"/>
<text text-anchor="start" x="1092" y="-237.5" font-family="Helvetica,sans-Serif" font-size="10.00">lime::StreamChannel</text>
<text text-anchor="middle" x="1138" y="-226.5" font-family="Helvetica,sans-Serif" font-size="10.00">::Close</text>
</a>
</g>
</g>
<!-- Node6&#45;&gt;Node7 -->
<g id="edge6" class="edge"><title>Node6&#45;&gt;Node7</title>
<path fill="none" stroke="midnightblue" d="M1040.83,-234.5C1055.08,-234.5 1070.06,-234.5 1083.85,-234.5"/>
<polygon fill="midnightblue" stroke="midnightblue" points="1040.61,-231 1030.61,-234.5 1040.61,-238 1040.61,-231"/>
</g>
<!-- Node9&#45;&gt;Node3 -->
<g id="edge10" class="edge"><title>Node9&#45;&gt;Node3</title>
<path fill="none" stroke="midnightblue" d="M488.024,-222.819C513.408,-217.43 543.161,-211.114 567.156,-206.02"/>
<polygon fill="midnightblue" stroke="midnightblue" points="487.224,-219.411 478.169,-224.911 488.678,-226.258 487.224,-219.411"/>
</g>
<!-- Node11&#45;&gt;Node2 -->
<g id="edge14" class="edge"><title>Node11&#45;&gt;Node2</title>
<path fill="none" stroke="midnightblue" d="M321.204,-139.595C339.616,-136.393 359.017,-133.019 376.302,-130.013"/>
<polygon fill="midnightblue" stroke="midnightblue" points="320.348,-136.191 311.096,-141.353 321.548,-143.088 320.348,-136.191"/>
</g>
<!-- Node11&#45;&gt;Node3 -->
<g id="edge13" class="edge"><title>Node11&#45;&gt;Node3</title>
<path fill="none" stroke="midnightblue" d="M321.031,-160.488C373.759,-166.289 446.281,-174.494 510,-182.5 521.616,-183.96 533.966,-185.589 545.913,-187.205"/>
<polygon fill="midnightblue" stroke="midnightblue" points="321.413,-157.009 311.091,-159.397 320.649,-163.967 321.413,-157.009"/>
</g>
<!-- Node13 -->
<g id="node13" class="node"><title>Node13</title>
<g id="a_node13"><a xlink:href="../../d5/ddc/classlime_1_1FPGA__Mini.html#aedd77aff9db5e1c37979e0bc8988a50b" target="_top" xlink:title="lime::FPGA_Mini::~FPGA_Mini">
<polygon fill="white" stroke="black" points="355.5,-6 355.5,-25 508.5,-25 508.5,-6 355.5,-6"/>
<text text-anchor="middle" x="432" y="-13" font-family="Helvetica,sans-Serif" font-size="10.00">lime::FPGA_Mini::~FPGA_Mini</text>
</a>
</g>
</g>
<!-- Node12&#45;&gt;Node13 -->
<g id="edge16" class="edge"><title>Node12&#45;&gt;Node13</title>
<path fill="none" stroke="midnightblue" d="M326.085,-15.5C335.811,-15.5 345.734,-15.5 355.407,-15.5"/>
<polygon fill="midnightblue" stroke="midnightblue" points="326.038,-12.0001 316.038,-15.5 326.038,-19.0001 326.038,-12.0001"/>
</g>
</g>
</svg>
