<?xml version="1.0" encoding="UTF-8" standalone="no"?>
<!DOCTYPE svg PUBLIC "-//W3C//DTD SVG 1.1//EN"
 "http://www.w3.org/Graphics/SVG/1.1/DTD/svg11.dtd">
<!-- Generated by graphviz version 2.38.0 (20140413.2041)
 -->
<!-- Title: lime::LMS7_Device::Synchronize Pages: 1 -->
<!--zoomable 650 -->
<svg id="main" version="1.1" xmlns="http://www.w3.org/2000/svg" xmlns:xlink="http://www.w3.org/1999/xlink" xml:space="preserve" onload="init(evt)">
<style type="text/css"><![CDATA[
.edge:hover path { stroke: red; }
.edge:hover polygon { stroke: red; fill: red; }
]]></style>
<script type="text/javascript"><![CDATA[
var edges = document.getElementsByTagName('g');
if (edges && edges.length) {
  for (var i=0;i<edges.length;i++) {
    if (edges[i].id.substr(0,4)=='edge') {
      edges[i].setAttribute('class','edge');
    }
  }
}
]]></script>
        <defs>
                <circle id="rim" cx="0" cy="0" r="7"/>
                <circle id="rim2" cx="0" cy="0" r="3.5"/>
                <g id="zoomPlus">
                        <use xlink:href="#rim" fill="#404040">
                                <set attributeName="fill" to="#808080" begin="zoomplus.mouseover" end="zoomplus.mouseout"/>
                        </use>
                        <path d="M-4,0h8M0,-4v8" fill="none" stroke="white" stroke-width="1.5" pointer-events="none"/>
                </g>
                <g id="zoomMin">
                        <use xlink:href="#rim" fill="#404040">
                                <set attributeName="fill" to="#808080" begin="zoomminus.mouseover" end="zoomminus.mouseout"/>
                        </use>
                        <path d="M-4,0h8" fill="none" stroke="white" stroke-width="1.5" pointer-events="none"/>
                </g>
                <g id="dirArrow">
                        <path fill="none" stroke="white" stroke-width="1.5" d="M0,-3.0v7 M-2.5,-0.5L0,-3.0L2.5,-0.5"/>
                </g>
               <g id="resetDef">
                       <use xlink:href="#rim2" fill="#404040">
                               <set attributeName="fill" to="#808080" begin="reset.mouseover" end="reset.mouseout"/>
                       </use>
               </g>
        </defs>

<script type="text/javascript">
var viewWidth = 1408;
var viewHeight = 650;
var sectionId = 'dynsection-101';
</script>
<script xlink:href="../../svgpan.js"/>
<svg id="graph" class="graph">
<g id="viewport">
<title>lime::LMS7_Device::Synchronize</title>
<polygon fill="white" stroke="none" points="-4,4 -4,-645.5 1404,-645.5 1404,4 -4,4"/>
<!-- Node1 -->
<g id="node1" class="node"><title>Node1</title>
<polygon fill="#bfbfbf" stroke="black" points="0,-474.5 0,-504.5 108,-504.5 108,-474.5 0,-474.5"/>
<text text-anchor="start" x="8" y="-492.5" font-family="Helvetica,sans-Serif" font-size="10.00">lime::LMS7_Device::</text>
<text text-anchor="middle" x="54" y="-481.5" font-family="Helvetica,sans-Serif" font-size="10.00">Synchronize</text>
</g>
<!-- Node2 -->
<g id="node2" class="node"><title>Node2</title>
<g id="a_node2"><a xlink:href="../../df/de1/lms7__api_8cpp.html#a2ccb0cffc848f216211007df824b3c65" target="_top" xlink:title="LMS_Synchronize">
<polygon fill="white" stroke="black" points="144,-480 144,-499 240,-499 240,-480 144,-480"/>
<text text-anchor="middle" x="192" y="-487" font-family="Helvetica,sans-Serif" font-size="10.00">LMS_Synchronize</text>
</a>
</g>
</g>
<!-- Node1&#45;&gt;Node2 -->
<g id="edge1" class="edge"><title>Node1&#45;&gt;Node2</title>
<path fill="none" stroke="midnightblue" d="M118.393,-489.5C127.007,-489.5 135.719,-489.5 143.975,-489.5"/>
<polygon fill="midnightblue" stroke="midnightblue" points="118.36,-486 108.36,-489.5 118.36,-493 118.36,-486"/>
</g>
<!-- Node3 -->
<g id="node3" class="node"><title>Node3</title>
<g id="a_node3"><a xlink:href="../../db/d92/LimeSuite_8cc.html#a8264622f1c2c5bfc25727870d85ee938" target="_top" xlink:title="DEFUN_DLD">
<polygon fill="white" stroke="black" points="296.5,-622 296.5,-641 373.5,-641 373.5,-622 296.5,-622"/>
<text text-anchor="middle" x="335" y="-629" font-family="Helvetica,sans-Serif" font-size="10.00">DEFUN_DLD</text>
</a>
</g>
</g>
<!-- Node2&#45;&gt;Node3 -->
<g id="edge2" class="edge"><title>Node2&#45;&gt;Node3</title>
<path fill="none" stroke="midnightblue" d="M200.98,-508.551C213.224,-535.53 239.16,-584.675 276,-612.5 282.003,-617.034 289.138,-620.515 296.315,-623.177"/>
<polygon fill="midnightblue" stroke="midnightblue" points="204.05,-506.837 196.834,-499.08 197.638,-509.645 204.05,-506.837"/>
</g>
<!-- Node4 -->
<g id="node4" class="node"><title>Node4</title>
<g id="a_node4"><a xlink:href="../../d5/d6a/classlms7002__pnlTBB__view.html#a0a3923122ca545d188709c9443130c72" target="_top" xlink:title="lms7002_pnlTBB_view\l::OnbtnTuneFilter">
<polygon fill="white" stroke="black" points="277,-572.5 277,-602.5 393,-602.5 393,-572.5 277,-572.5"/>
<text text-anchor="start" x="285" y="-590.5" font-family="Helvetica,sans-Serif" font-size="10.00">lms7002_pnlTBB_view</text>
<text text-anchor="middle" x="335" y="-579.5" font-family="Helvetica,sans-Serif" font-size="10.00">::OnbtnTuneFilter</text>
</a>
</g>
</g>
<!-- Node2&#45;&gt;Node4 -->
<g id="edge3" class="edge"><title>Node2&#45;&gt;Node4</title>
<path fill="none" stroke="midnightblue" d="M208.78,-506.566C224.56,-522.864 250.14,-547.279 276,-563.5 281.17,-566.743 286.853,-569.715 292.578,-572.381"/>
<polygon fill="midnightblue" stroke="midnightblue" points="211.289,-504.125 201.862,-499.289 206.215,-508.948 211.289,-504.125"/>
</g>
<!-- Node5 -->
<g id="node5" class="node"><title>Node5</title>
<g id="a_node5"><a xlink:href="../../d9/d08/classlms7002__pnlRBB__view.html#a94ddb128eafecd0e6c8e11d6d6a2f5b9" target="_top" xlink:title="lms7002_pnlRBB_view\l::OnbtnTuneFilter">
<polygon fill="white" stroke="black" points="276,-523.5 276,-553.5 394,-553.5 394,-523.5 276,-523.5"/>
<text text-anchor="start" x="284" y="-541.5" font-family="Helvetica,sans-Serif" font-size="10.00">lms7002_pnlRBB_view</text>
<text text-anchor="middle" x="335" y="-530.5" font-family="Helvetica,sans-Serif" font-size="10.00">::OnbtnTuneFilter</text>
</a>
</g>
</g>
<!-- Node2&#45;&gt;Node5 -->
<g id="edge4" class="edge"><title>Node2&#45;&gt;Node5</title>
<path fill="none" stroke="midnightblue" d="M230.116,-502.399C248.716,-508.862 271.346,-516.727 290.73,-523.463"/>
<polygon fill="midnightblue" stroke="midnightblue" points="231.116,-499.041 220.521,-499.064 228.818,-505.653 231.116,-499.041"/>
</g>
<!-- Node6 -->
<g id="node6" class="node"><title>Node6</title>
<g id="a_node6"><a xlink:href="../../d5/d6a/classlms7002__pnlTBB__view.html#a3b29ddea657517b7330fe6168a1a32a1" target="_top" xlink:title="lms7002_pnlTBB_view\l::OnbtnTuneTxGain">
<polygon fill="white" stroke="black" points="277,-474.5 277,-504.5 393,-504.5 393,-474.5 277,-474.5"/>
<text text-anchor="start" x="285" y="-492.5" font-family="Helvetica,sans-Serif" font-size="10.00">lms7002_pnlTBB_view</text>
<text text-anchor="middle" x="335" y="-481.5" font-family="Helvetica,sans-Serif" font-size="10.00">::OnbtnTuneTxGain</text>
</a>
</g>
</g>
<!-- Node2&#45;&gt;Node6 -->
<g id="edge5" class="edge"><title>Node2&#45;&gt;Node6</title>
<path fill="none" stroke="midnightblue" d="M250.392,-489.5C259.088,-489.5 268.06,-489.5 276.753,-489.5"/>
<polygon fill="midnightblue" stroke="midnightblue" points="250.343,-486 240.343,-489.5 250.343,-493 250.343,-486"/>
</g>
<!-- Node7 -->
<g id="node7" class="node"><title>Node7</title>
<g id="a_node7"><a xlink:href="../../d8/d3c/classlms7002__mainPanel.html#a44397c4b4ab5cfedcaf684f284955586" target="_top" xlink:title="lms7002_mainPanel::\lOnDownloadAll">
<polygon fill="white" stroke="black" points="625.5,-441.5 625.5,-471.5 735.5,-471.5 735.5,-441.5 625.5,-441.5"/>
<text text-anchor="start" x="633.5" y="-459.5" font-family="Helvetica,sans-Serif" font-size="10.00">lms7002_mainPanel::</text>
<text text-anchor="middle" x="680.5" y="-448.5" font-family="Helvetica,sans-Serif" font-size="10.00">OnDownloadAll</text>
</a>
</g>
</g>
<!-- Node2&#45;&gt;Node7 -->
<g id="edge6" class="edge"><title>Node2&#45;&gt;Node7</title>
<path fill="none" stroke="midnightblue" d="M229.059,-476.867C243.471,-472.402 260.339,-467.897 276,-465.5 399.807,-446.549 547.443,-449.675 625.27,-453.287"/>
<polygon fill="midnightblue" stroke="midnightblue" points="227.973,-473.54 219.519,-479.925 230.11,-480.206 227.973,-473.54"/>
</g>
<!-- Node8 -->
<g id="node8" class="node"><title>Node8</title>
<g id="a_node8"><a xlink:href="../../d8/d3c/classlms7002__mainPanel.html#a3acbef587578b6d24d5e8a9b8f79cbd8" target="_top" xlink:title="lms7002_mainPanel::\lOnUploadAll">
<polygon fill="white" stroke="black" points="625.5,-392.5 625.5,-422.5 735.5,-422.5 735.5,-392.5 625.5,-392.5"/>
<text text-anchor="start" x="633.5" y="-410.5" font-family="Helvetica,sans-Serif" font-size="10.00">lms7002_mainPanel::</text>
<text text-anchor="middle" x="680.5" y="-399.5" font-family="Helvetica,sans-Serif" font-size="10.00">OnUploadAll</text>
</a>
</g>
</g>
<!-- Node2&#45;&gt;Node8 -->
<g id="edge7" class="edge"><title>Node2&#45;&gt;Node8</title>
<path fill="none" stroke="midnightblue" d="M217.324,-475.007C233.414,-466.128 255.289,-455.375 276,-449.5 397.455,-415.048 546.651,-408.251 625.193,-407.272"/>
<polygon fill="midnightblue" stroke="midnightblue" points="215.546,-471.991 208.571,-479.966 218.997,-478.082 215.546,-471.991"/>
</g>
<!-- Node9 -->
<g id="node9" class="node"><title>Node9</title>
<g id="a_node9"><a xlink:href="../../d5/d55/classlms7002__pnlR3__view.html#a1ef4dc35f280d8e3999104436d286365" target="_top" xlink:title="lms7002_pnlR3_view\l::UpdateGUI">
<polygon fill="white" stroke="black" points="280,-147.5 280,-177.5 390,-177.5 390,-147.5 280,-147.5"/>
<text text-anchor="start" x="288" y="-165.5" font-family="Helvetica,sans-Serif" font-size="10.00">lms7002_pnlR3_view</text>
<text text-anchor="middle" x="335" y="-154.5" font-family="Helvetica,sans-Serif" font-size="10.00">::UpdateGUI</text>
</a>
</g>
</g>
<!-- Node2&#45;&gt;Node9 -->
<g id="edge8" class="edge"><title>Node2&#45;&gt;Node9</title>
<path fill="none" stroke="midnightblue" d="M201.24,-470.39C226.816,-411.076 304.502,-230.91 327.512,-177.547"/>
<polygon fill="midnightblue" stroke="midnightblue" points="197.965,-469.145 197.22,-479.714 204.393,-471.917 197.965,-469.145"/>
</g>
<!-- Node10 -->
<g id="node10" class="node"><title>Node10</title>
<g id="a_node10"><a xlink:href="../../d5/d55/classlms7002__pnlR3__view.html#a44dfc19844a4dccd37b119e782d74ab7" target="_top" xlink:title="lms7002_pnlR3_view\l::OnCalibrateAnalogRSSI">
<polygon fill="white" stroke="black" points="430,-0.5 430,-30.5 558,-30.5 558,-0.5 430,-0.5"/>
<text text-anchor="start" x="438" y="-18.5" font-family="Helvetica,sans-Serif" font-size="10.00">lms7002_pnlR3_view</text>
<text text-anchor="middle" x="494" y="-7.5" font-family="Helvetica,sans-Serif" font-size="10.00">::OnCalibrateAnalogRSSI</text>
</a>
</g>
</g>
<!-- Node9&#45;&gt;Node10 -->
<g id="edge9" class="edge"><title>Node9&#45;&gt;Node10</title>
<path fill="none" stroke="midnightblue" d="M348.81,-138.547C364.58,-111.129 393.777,-66.5325 430,-39.5 434.502,-36.1399 439.531,-33.1961 444.731,-30.6306"/>
<polygon fill="midnightblue" stroke="midnightblue" points="345.643,-137.038 343.802,-147.472 351.748,-140.463 345.643,-137.038"/>
</g>
<!-- Node12 -->
<g id="node12" class="node"><title>Node12</title>
<g id="a_node12"><a xlink:href="../../d5/d55/classlms7002__pnlR3__view.html#a0b35a2caef9d41d4b718c8621c17380f" target="_top" xlink:title="lms7002_pnlR3_view\l::OnDCCMPCFGRead">
<polygon fill="white" stroke="black" points="435.5,-98.5 435.5,-128.5 552.5,-128.5 552.5,-98.5 435.5,-98.5"/>
<text text-anchor="start" x="443.5" y="-116.5" font-family="Helvetica,sans-Serif" font-size="10.00">lms7002_pnlR3_view</text>
<text text-anchor="middle" x="494" y="-105.5" font-family="Helvetica,sans-Serif" font-size="10.00">::OnDCCMPCFGRead</text>
</a>
</g>
</g>
<!-- Node9&#45;&gt;Node12 -->
<g id="edge11" class="edge"><title>Node9&#45;&gt;Node12</title>
<path fill="none" stroke="midnightblue" d="M394.035,-144.387C410.726,-139.178 428.744,-133.554 444.774,-128.552"/>
<polygon fill="midnightblue" stroke="midnightblue" points="392.889,-141.078 384.386,-147.399 394.975,-147.76 392.889,-141.078"/>
</g>
<!-- Node13 -->
<g id="node13" class="node"><title>Node13</title>
<g id="a_node13"><a xlink:href="../../d5/d55/classlms7002__pnlR3__view.html#ace8e8ff3673a651c65b7543e70f07b15" target="_top" xlink:title="lms7002_pnlR3_view\l::OnReadDC">
<polygon fill="white" stroke="black" points="439,-196.5 439,-226.5 549,-226.5 549,-196.5 439,-196.5"/>
<text text-anchor="start" x="447" y="-214.5" font-family="Helvetica,sans-Serif" font-size="10.00">lms7002_pnlR3_view</text>
<text text-anchor="middle" x="494" y="-203.5" font-family="Helvetica,sans-Serif" font-size="10.00">::OnReadDC</text>
</a>
</g>
</g>
<!-- Node9&#45;&gt;Node13 -->
<g id="edge12" class="edge"><title>Node9&#45;&gt;Node13</title>
<path fill="none" stroke="midnightblue" d="M394.035,-180.613C410.726,-185.822 428.744,-191.446 444.774,-196.448"/>
<polygon fill="midnightblue" stroke="midnightblue" points="394.975,-177.24 384.386,-177.601 392.889,-183.922 394.975,-177.24"/>
</g>
<!-- Node14 -->
<g id="node14" class="node"><title>Node14</title>
<g id="a_node14"><a xlink:href="../../d5/d55/classlms7002__pnlR3__view.html#a538ae670f5a9f2dbcedf330e0ddece19" target="_top" xlink:title="lms7002_pnlR3_view\l::OnReadDCCMP">
<polygon fill="white" stroke="black" points="439,-49.5 439,-79.5 549,-79.5 549,-49.5 439,-49.5"/>
<text text-anchor="start" x="447" y="-67.5" font-family="Helvetica,sans-Serif" font-size="10.00">lms7002_pnlR3_view</text>
<text text-anchor="middle" x="494" y="-56.5" font-family="Helvetica,sans-Serif" font-size="10.00">::OnReadDCCMP</text>
</a>
</g>
</g>
<!-- Node9&#45;&gt;Node14 -->
<g id="edge14" class="edge"><title>Node9&#45;&gt;Node14</title>
<path fill="none" stroke="midnightblue" d="M359.638,-140.56C377.825,-124.54 404.143,-103.149 430,-88.5 435.703,-85.2692 441.925,-82.3034 448.167,-79.6414"/>
<polygon fill="midnightblue" stroke="midnightblue" points="357.003,-138.222 351.886,-147.5 361.671,-143.438 357.003,-138.222"/>
</g>
<!-- Node15 -->
<g id="node15" class="node"><title>Node15</title>
<g id="a_node15"><a xlink:href="../../d5/d55/classlms7002__pnlR3__view.html#a0e59e56a0312e1112d92646af826394c" target="_top" xlink:title="lms7002_pnlR3_view\l::OnReadRSSICMP">
<polygon fill="white" stroke="black" points="439,-147.5 439,-177.5 549,-177.5 549,-147.5 439,-147.5"/>
<text text-anchor="start" x="447" y="-165.5" font-family="Helvetica,sans-Serif" font-size="10.00">lms7002_pnlR3_view</text>
<text text-anchor="middle" x="494" y="-154.5" font-family="Helvetica,sans-Serif" font-size="10.00">::OnReadRSSICMP</text>
</a>
</g>
</g>
<!-- Node9&#45;&gt;Node15 -->
<g id="edge16" class="edge"><title>Node9&#45;&gt;Node15</title>
<path fill="none" stroke="midnightblue" d="M400.19,-162.5C413.034,-162.5 426.407,-162.5 438.87,-162.5"/>
<polygon fill="midnightblue" stroke="midnightblue" points="400.031,-159 390.03,-162.5 400.03,-166 400.031,-159"/>
</g>
<!-- Node16 -->
<g id="node16" class="node"><title>Node16</title>
<g id="a_node16"><a xlink:href="../../d8/d3c/classlms7002__mainPanel.html#abb8c5306cebfa58d153414b6c1b50db9" target="_top" xlink:title="lms7002_mainPanel::\lUpdateVisiblePanel">
<polygon fill="white" stroke="black" points="439,-245.5 439,-275.5 549,-275.5 549,-245.5 439,-245.5"/>
<text text-anchor="start" x="447" y="-263.5" font-family="Helvetica,sans-Serif" font-size="10.00">lms7002_mainPanel::</text>
<text text-anchor="middle" x="494" y="-252.5" font-family="Helvetica,sans-Serif" font-size="10.00">UpdateVisiblePanel</text>
</a>
</g>
</g>
<!-- Node9&#45;&gt;Node16 -->
<g id="edge18" class="edge"><title>Node9&#45;&gt;Node16</title>
<path fill="none" stroke="midnightblue" d="M360.414,-184.592C378.627,-200.267 404.64,-221.012 430,-235.5 436.335,-239.119 443.296,-242.451 450.21,-245.424"/>
<polygon fill="midnightblue" stroke="midnightblue" points="362.458,-181.731 352.625,-177.788 357.853,-187.003 362.458,-181.731"/>
</g>
<!-- Node11 -->
<g id="node11" class="node"><title>Node11</title>
<g id="a_node11"><a xlink:href="../../d5/d55/classlms7002__pnlR3__view.html#a703fbd25b7293045f44bcb15c2ee3a54" target="_top" xlink:title="lms7002_pnlR3_view\l::lms7002_pnlR3_view">
<polygon fill="white" stroke="black" points="622.5,-49.5 622.5,-79.5 738.5,-79.5 738.5,-49.5 622.5,-49.5"/>
<text text-anchor="start" x="630.5" y="-67.5" font-family="Helvetica,sans-Serif" font-size="10.00">lms7002_pnlR3_view</text>
<text text-anchor="middle" x="680.5" y="-56.5" font-family="Helvetica,sans-Serif" font-size="10.00">::lms7002_pnlR3_view</text>
</a>
</g>
</g>
<!-- Node10&#45;&gt;Node11 -->
<g id="edge10" class="edge"><title>Node10&#45;&gt;Node11</title>
<path fill="none" stroke="midnightblue" d="M561.356,-33.1229C581.541,-38.4837 603.526,-44.3225 622.997,-49.4938"/>
<polygon fill="midnightblue" stroke="midnightblue" points="562.173,-29.7188 551.61,-30.5346 560.376,-36.4843 562.173,-29.7188"/>
</g>
<!-- Node13&#45;&gt;Node11 -->
<g id="edge13" class="edge"><title>Node13&#45;&gt;Node11</title>
<path fill="none" stroke="midnightblue" d="M553.484,-190.618C555.071,-189.325 556.583,-187.954 558,-186.5 590.386,-153.27 559.929,-120 594,-88.5 601.924,-81.1736 611.908,-76.0594 622.232,-72.4954"/>
<polygon fill="midnightblue" stroke="midnightblue" points="551.254,-187.904 545.002,-196.457 555.224,-193.67 551.254,-187.904"/>
</g>
<!-- Node14&#45;&gt;Node11 -->
<g id="edge15" class="edge"><title>Node14&#45;&gt;Node11</title>
<path fill="none" stroke="midnightblue" d="M559.529,-64.5C579.977,-64.5 602.429,-64.5 622.324,-64.5"/>
<polygon fill="midnightblue" stroke="midnightblue" points="559.358,-61.0001 549.358,-64.5 559.358,-68.0001 559.358,-61.0001"/>
</g>
<!-- Node15&#45;&gt;Node11 -->
<g id="edge17" class="edge"><title>Node15&#45;&gt;Node11</title>
<path fill="none" stroke="midnightblue" d="M550.675,-142.53C553.228,-140.962 555.686,-139.287 558,-137.5 579.39,-120.986 571.779,-103.879 594,-88.5 602.494,-82.6214 612.398,-78.1759 622.393,-74.8161"/>
<polygon fill="midnightblue" stroke="midnightblue" points="548.783,-139.577 541.705,-147.461 552.154,-145.711 548.783,-139.577"/>
</g>
<!-- Node16&#45;&gt;Node7 -->
<g id="edge19" class="edge"><title>Node16&#45;&gt;Node7</title>
<path fill="none" stroke="midnightblue" d="M502.458,-285.153C515.088,-322.676 544.283,-393.827 594,-432.5 603.127,-439.6 614.245,-444.599 625.403,-448.12"/>
<polygon fill="midnightblue" stroke="midnightblue" points="505.746,-283.949 499.331,-275.517 499.088,-286.109 505.746,-283.949"/>
</g>
<!-- Node16&#45;&gt;Node8 -->
<g id="edge27" class="edge"><title>Node16&#45;&gt;Node8</title>
<path fill="none" stroke="midnightblue" d="M508.257,-284.396C524.798,-312.033 555.634,-356.99 594,-382.5 603.401,-388.751 614.393,-393.47 625.304,-397.022"/>
<polygon fill="midnightblue" stroke="midnightblue" points="511.269,-282.613 503.206,-275.741 505.224,-286.142 511.269,-282.613"/>
</g>
<!-- Node17 -->
<g id="node17" class="node"><title>Node17</title>
<g id="a_node17"><a xlink:href="../../d8/d3c/classlms7002__mainPanel.html#a43c4592235060266a985096ea4f3ecfb" target="_top" xlink:title="lms7002_mainPanel::\lOnEnableMIMOchecked">
<polygon fill="white" stroke="black" points="619,-343.5 619,-373.5 742,-373.5 742,-343.5 619,-343.5"/>
<text text-anchor="start" x="627" y="-361.5" font-family="Helvetica,sans-Serif" font-size="10.00">lms7002_mainPanel::</text>
<text text-anchor="middle" x="680.5" y="-350.5" font-family="Helvetica,sans-Serif" font-size="10.00">OnEnableMIMOchecked</text>
</a>
</g>
</g>
<!-- Node16&#45;&gt;Node17 -->
<g id="edge20" class="edge"><title>Node16&#45;&gt;Node17</title>
<path fill="none" stroke="midnightblue" d="M519.295,-282.228C538.419,-298.347 566.373,-319.815 594,-333.5 601.761,-337.344 610.217,-340.703 618.694,-343.604"/>
<polygon fill="midnightblue" stroke="midnightblue" points="521.535,-279.539 511.666,-275.686 516.978,-284.853 521.535,-279.539"/>
</g>
<!-- Node18 -->
<g id="node18" class="node"><title>Node18</title>
<g id="a_node18"><a xlink:href="../../d8/d3c/classlms7002__mainPanel.html#a4de4742979a2f25a74dc4543b34a2ce2" target="_top" xlink:title="lms7002_mainPanel::\lOnLmsDeviceSelect">
<polygon fill="white" stroke="black" points="625.5,-294.5 625.5,-324.5 735.5,-324.5 735.5,-294.5 625.5,-294.5"/>
<text text-anchor="start" x="633.5" y="-312.5" font-family="Helvetica,sans-Serif" font-size="10.00">lms7002_mainPanel::</text>
<text text-anchor="middle" x="680.5" y="-301.5" font-family="Helvetica,sans-Serif" font-size="10.00">OnLmsDeviceSelect</text>
</a>
</g>
</g>
<!-- Node16&#45;&gt;Node18 -->
<g id="edge21" class="edge"><title>Node16&#45;&gt;Node18</title>
<path fill="none" stroke="midnightblue" d="M559.086,-277.52C580.647,-283.246 604.479,-289.576 625.212,-295.082"/>
<polygon fill="midnightblue" stroke="midnightblue" points="559.922,-274.121 549.358,-274.937 558.125,-280.886 559.922,-274.121"/>
</g>
<!-- Node19 -->
<g id="node19" class="node"><title>Node19</title>
<g id="a_node19"><a xlink:href="../../d8/d3c/classlms7002__mainPanel.html#a6102ca7439ecabfba330dae9de95b419" target="_top" xlink:title="lms7002_mainPanel::\lOnnotebook_modulesPageChanged">
<polygon fill="white" stroke="black" points="594,-245.5 594,-275.5 767,-275.5 767,-245.5 594,-245.5"/>
<text text-anchor="start" x="602" y="-263.5" font-family="Helvetica,sans-Serif" font-size="10.00">lms7002_mainPanel::</text>
<text text-anchor="middle" x="680.5" y="-252.5" font-family="Helvetica,sans-Serif" font-size="10.00">Onnotebook_modulesPageChanged</text>
</a>
</g>
</g>
<!-- Node16&#45;&gt;Node19 -->
<g id="edge22" class="edge"><title>Node16&#45;&gt;Node19</title>
<path fill="none" stroke="midnightblue" d="M559.698,-260.5C570.689,-260.5 582.256,-260.5 593.689,-260.5"/>
<polygon fill="midnightblue" stroke="midnightblue" points="559.358,-257 549.358,-260.5 559.358,-264 559.358,-257"/>
</g>
<!-- Node22 -->
<g id="node22" class="node"><title>Node22</title>
<g id="a_node22"><a xlink:href="../../d8/d3c/classlms7002__mainPanel.html#aa95a38c6fd2f0a119c940e0fe3a45e1a" target="_top" xlink:title="lms7002_mainPanel::\lOnSwitchToChannelA">
<polygon fill="white" stroke="black" points="624,-196.5 624,-226.5 737,-226.5 737,-196.5 624,-196.5"/>
<text text-anchor="start" x="632" y="-214.5" font-family="Helvetica,sans-Serif" font-size="10.00">lms7002_mainPanel::</text>
<text text-anchor="middle" x="680.5" y="-203.5" font-family="Helvetica,sans-Serif" font-size="10.00">OnSwitchToChannelA</text>
</a>
</g>
</g>
<!-- Node16&#45;&gt;Node22 -->
<g id="edge25" class="edge"><title>Node16&#45;&gt;Node22</title>
<path fill="none" stroke="midnightblue" d="M559.196,-243.451C580.286,-237.85 603.538,-231.674 623.933,-226.258"/>
<polygon fill="midnightblue" stroke="midnightblue" points="558.125,-240.114 549.358,-246.063 559.922,-246.879 558.125,-240.114"/>
</g>
<!-- Node23 -->
<g id="node23" class="node"><title>Node23</title>
<g id="a_node23"><a xlink:href="../../d8/d3c/classlms7002__mainPanel.html#a28dc31b61c070c31433142620232788c" target="_top" xlink:title="lms7002_mainPanel::\lOnSwitchToChannelB">
<polygon fill="white" stroke="black" points="624,-147.5 624,-177.5 737,-177.5 737,-147.5 624,-147.5"/>
<text text-anchor="start" x="632" y="-165.5" font-family="Helvetica,sans-Serif" font-size="10.00">lms7002_mainPanel::</text>
<text text-anchor="middle" x="680.5" y="-154.5" font-family="Helvetica,sans-Serif" font-size="10.00">OnSwitchToChannelB</text>
</a>
</g>
</g>
<!-- Node16&#45;&gt;Node23 -->
<g id="edge26" class="edge"><title>Node16&#45;&gt;Node23</title>
<path fill="none" stroke="midnightblue" d="M550.675,-240.53C553.228,-238.962 555.686,-237.287 558,-235.5 579.39,-218.986 571.779,-201.879 594,-186.5 602.874,-180.358 613.288,-175.781 623.736,-172.371"/>
<polygon fill="midnightblue" stroke="midnightblue" points="548.783,-237.577 541.705,-245.461 552.154,-243.711 548.783,-237.577"/>
</g>
<!-- Node24 -->
<g id="node24" class="node"><title>Node24</title>
<g id="a_node24"><a xlink:href="../../d8/d3c/classlms7002__mainPanel.html#a262803ea9a5a7a2c0e400d8ea921d66c" target="_top" xlink:title="lms7002_mainPanel::\lUpdateGUI">
<polygon fill="white" stroke="black" points="625.5,-98.5 625.5,-128.5 735.5,-128.5 735.5,-98.5 625.5,-98.5"/>
<text text-anchor="start" x="633.5" y="-116.5" font-family="Helvetica,sans-Serif" font-size="10.00">lms7002_mainPanel::</text>
<text text-anchor="middle" x="680.5" y="-105.5" font-family="Helvetica,sans-Serif" font-size="10.00">UpdateGUI</text>
</a>
</g>
</g>
<!-- Node16&#45;&gt;Node24 -->
<g id="edge28" class="edge"><title>Node16&#45;&gt;Node24</title>
<path fill="none" stroke="midnightblue" d="M553.484,-239.618C555.071,-238.325 556.583,-236.954 558,-235.5 590.386,-202.27 559.929,-169 594,-137.5 602.717,-129.441 613.925,-124.059 625.337,-120.472"/>
<polygon fill="midnightblue" stroke="midnightblue" points="551.254,-236.904 545.002,-245.457 555.224,-242.67 551.254,-236.904"/>
</g>
<!-- Node20 -->
<g id="node20" class="node"><title>Node20</title>
<g id="a_node20"><a xlink:href="../../d8/d3c/classlms7002__mainPanel.html#aff2ae64c885239df71be67c69f9a2c81" target="_top" xlink:title="lms7002_mainPanel::\lOnLoadDefault">
<polygon fill="white" stroke="black" points="803,-220.5 803,-250.5 913,-250.5 913,-220.5 803,-220.5"/>
<text text-anchor="start" x="811" y="-238.5" font-family="Helvetica,sans-Serif" font-size="10.00">lms7002_mainPanel::</text>
<text text-anchor="middle" x="858" y="-227.5" font-family="Helvetica,sans-Serif" font-size="10.00">OnLoadDefault</text>
</a>
</g>
</g>
<!-- Node19&#45;&gt;Node20 -->
<g id="edge23" class="edge"><title>Node19&#45;&gt;Node20</title>
<path fill="none" stroke="midnightblue" d="M777.179,-246.871C785.999,-245.614 794.712,-244.373 802.957,-243.198"/>
<polygon fill="midnightblue" stroke="midnightblue" points="776.6,-243.418 767.194,-248.293 777.587,-250.348 776.6,-243.418"/>
</g>
<!-- Node21 -->
<g id="node21" class="node"><title>Node21</title>
<g id="a_node21"><a xlink:href="../../d8/d3c/classlms7002__mainPanel.html#ab702fe2f9725c2e7aade97270472ac9e" target="_top" xlink:title="lms7002_mainPanel::\lOnResetChip">
<polygon fill="white" stroke="black" points="803,-269.5 803,-299.5 913,-299.5 913,-269.5 803,-269.5"/>
<text text-anchor="start" x="811" y="-287.5" font-family="Helvetica,sans-Serif" font-size="10.00">lms7002_mainPanel::</text>
<text text-anchor="middle" x="858" y="-276.5" font-family="Helvetica,sans-Serif" font-size="10.00">OnResetChip</text>
</a>
</g>
</g>
<!-- Node19&#45;&gt;Node21 -->
<g id="edge24" class="edge"><title>Node19&#45;&gt;Node21</title>
<path fill="none" stroke="midnightblue" d="M777.179,-273.584C785.999,-274.791 794.712,-275.982 802.957,-277.11"/>
<polygon fill="midnightblue" stroke="midnightblue" points="777.576,-270.106 767.194,-272.219 776.627,-277.041 777.576,-270.106"/>
</g>
<!-- Node25 -->
<g id="node25" class="node"><title>Node25</title>
<g id="a_node25"><a xlink:href="../../d8/d3c/classlms7002__mainPanel.html#a38ef18df694e067998a0bbad1813a031" target="_top" xlink:title="lms7002_mainPanel::\lInitialize">
<polygon fill="white" stroke="black" points="803,-49.5 803,-79.5 913,-79.5 913,-49.5 803,-49.5"/>
<text text-anchor="start" x="811" y="-67.5" font-family="Helvetica,sans-Serif" font-size="10.00">lms7002_mainPanel::</text>
<text text-anchor="middle" x="858" y="-56.5" font-family="Helvetica,sans-Serif" font-size="10.00">Initialize</text>
</a>
</g>
</g>
<!-- Node24&#45;&gt;Node25 -->
<g id="edge29" class="edge"><title>Node24&#45;&gt;Node25</title>
<path fill="none" stroke="midnightblue" d="M745.329,-95.6788C764.278,-90.3882 784.838,-84.6478 803.091,-79.5516"/>
<polygon fill="midnightblue" stroke="midnightblue" points="744.278,-92.3382 735.588,-98.3986 746.161,-99.0804 744.278,-92.3382"/>
</g>
<!-- Node30 -->
<g id="node30" class="node"><title>Node30</title>
<g id="a_node30"><a xlink:href="../../d8/d3c/classlms7002__mainPanel.html#a7a90f8fb05946924fa257e8323bfdf45" target="_top" xlink:title="lms7002_mainPanel::\lOnNewProject">
<polygon fill="white" stroke="black" points="803,-147.5 803,-177.5 913,-177.5 913,-147.5 803,-147.5"/>
<text text-anchor="start" x="811" y="-165.5" font-family="Helvetica,sans-Serif" font-size="10.00">lms7002_mainPanel::</text>
<text text-anchor="middle" x="858" y="-154.5" font-family="Helvetica,sans-Serif" font-size="10.00">OnNewProject</text>
</a>
</g>
</g>
<!-- Node24&#45;&gt;Node30 -->
<g id="edge35" class="edge"><title>Node24&#45;&gt;Node30</title>
<path fill="none" stroke="midnightblue" d="M745.329,-131.321C764.278,-136.612 784.838,-142.352 803.091,-147.448"/>
<polygon fill="midnightblue" stroke="midnightblue" points="746.161,-127.92 735.588,-128.601 744.278,-134.662 746.161,-127.92"/>
</g>
<!-- Node31 -->
<g id="node31" class="node"><title>Node31</title>
<g id="a_node31"><a xlink:href="../../d8/d3c/classlms7002__mainPanel.html#a6b98c7113ae45b9d23f5ccf747c56797" target="_top" xlink:title="lms7002_mainPanel::\lOnOpenProject">
<polygon fill="white" stroke="black" points="803,-98.5 803,-128.5 913,-128.5 913,-98.5 803,-98.5"/>
<text text-anchor="start" x="811" y="-116.5" font-family="Helvetica,sans-Serif" font-size="10.00">lms7002_mainPanel::</text>
<text text-anchor="middle" x="858" y="-105.5" font-family="Helvetica,sans-Serif" font-size="10.00">OnOpenProject</text>
</a>
</g>
</g>
<!-- Node24&#45;&gt;Node31 -->
<g id="edge36" class="edge"><title>Node24&#45;&gt;Node31</title>
<path fill="none" stroke="midnightblue" d="M745.802,-113.5C764.515,-113.5 784.763,-113.5 802.789,-113.5"/>
<polygon fill="midnightblue" stroke="midnightblue" points="745.588,-110 735.588,-113.5 745.588,-117 745.588,-110"/>
</g>
<!-- Node26 -->
<g id="node26" class="node"><title>Node26</title>
<g id="a_node26"><a xlink:href="../../d1/df3/classLMS7SuiteAppFrame.html#aeaeb613a8c9139f0e60b02f1f612ed5d" target="_top" xlink:title="LMS7SuiteAppFrame::\lUpdateConnections">
<polygon fill="white" stroke="black" points="949,-49.5 949,-79.5 1065,-79.5 1065,-49.5 949,-49.5"/>
<text text-anchor="start" x="957" y="-67.5" font-family="Helvetica,sans-Serif" font-size="10.00">LMS7SuiteAppFrame::</text>
<text text-anchor="middle" x="1007" y="-56.5" font-family="Helvetica,sans-Serif" font-size="10.00">UpdateConnections</text>
</a>
</g>
</g>
<!-- Node25&#45;&gt;Node26 -->
<g id="edge30" class="edge"><title>Node25&#45;&gt;Node26</title>
<path fill="none" stroke="midnightblue" d="M923.532,-64.5C931.996,-64.5 940.62,-64.5 948.947,-64.5"/>
<polygon fill="midnightblue" stroke="midnightblue" points="923.32,-61.0001 913.32,-64.5 923.32,-68.0001 923.32,-61.0001"/>
</g>
<!-- Node27 -->
<g id="node27" class="node"><title>Node27</title>
<g id="a_node27"><a xlink:href="../../d1/df3/classLMS7SuiteAppFrame.html#ad380f4e547c66fcfffdec0da53fe5b3e" target="_top" xlink:title="Constructor. ">
<polygon fill="white" stroke="black" points="1272,-71.5 1272,-101.5 1388,-101.5 1388,-71.5 1272,-71.5"/>
<text text-anchor="start" x="1280" y="-89.5" font-family="Helvetica,sans-Serif" font-size="10.00">LMS7SuiteAppFrame::</text>
<text text-anchor="middle" x="1330" y="-78.5" font-family="Helvetica,sans-Serif" font-size="10.00">LMS7SuiteAppFrame</text>
</a>
</g>
</g>
<!-- Node26&#45;&gt;Node27 -->
<g id="edge31" class="edge"><title>Node26&#45;&gt;Node27</title>
<path fill="none" stroke="midnightblue" d="M1075.23,-69.1078C1133.51,-73.1017 1216.9,-78.8174 1271.97,-82.5916"/>
<polygon fill="midnightblue" stroke="midnightblue" points="1075.23,-65.5998 1065.02,-68.4078 1074.76,-72.5835 1075.23,-65.5998"/>
</g>
<!-- Node28 -->
<g id="node28" class="node"><title>Node28</title>
<g id="a_node28"><a xlink:href="../../d1/df3/classLMS7SuiteAppFrame.html#a819f017d3e706c433d9b7f4f9bc1f9c3" target="_top" xlink:title="LMS7SuiteAppFrame::\lOnControlBoardConnect">
<polygon fill="white" stroke="black" points="1101,-27.5 1101,-57.5 1224,-57.5 1224,-27.5 1101,-27.5"/>
<text text-anchor="start" x="1109" y="-45.5" font-family="Helvetica,sans-Serif" font-size="10.00">LMS7SuiteAppFrame::</text>
<text text-anchor="middle" x="1162.5" y="-34.5" font-family="Helvetica,sans-Serif" font-size="10.00">OnControlBoardConnect</text>
</a>
</g>
</g>
<!-- Node26&#45;&gt;Node28 -->
<g id="edge32" class="edge"><title>Node26&#45;&gt;Node28</title>
<path fill="none" stroke="midnightblue" d="M1075.14,-54.8776C1083.73,-53.6467 1092.48,-52.3924 1100.95,-51.1777"/>
<polygon fill="midnightblue" stroke="midnightblue" points="1074.56,-51.4246 1065.16,-56.308 1075.55,-58.3538 1074.56,-51.4246"/>
</g>
<!-- Node28&#45;&gt;Node27 -->
<g id="edge33" class="edge"><title>Node28&#45;&gt;Node27</title>
<path fill="none" stroke="midnightblue" d="M1229.68,-60.0941C1243.85,-63.8632 1258.71,-67.8122 1272.48,-71.4738"/>
<polygon fill="midnightblue" stroke="midnightblue" points="1230.56,-56.7062 1219.99,-57.5192 1228.76,-63.4712 1230.56,-56.7062"/>
</g>
<!-- Node29 -->
<g id="node29" class="node"><title>Node29</title>
<g id="a_node29"><a xlink:href="../../d1/df3/classLMS7SuiteAppFrame.html#a08626f72855857180d80ab271f481d08" target="_top" xlink:title="LMS7SuiteAppFrame::\lOnShowConnectionSettings">
<polygon fill="white" stroke="black" points="1260,-22.5 1260,-52.5 1400,-52.5 1400,-22.5 1260,-22.5"/>
<text text-anchor="start" x="1268" y="-40.5" font-family="Helvetica,sans-Serif" font-size="10.00">LMS7SuiteAppFrame::</text>
<text text-anchor="middle" x="1330" y="-29.5" font-family="Helvetica,sans-Serif" font-size="10.00">OnShowConnectionSettings</text>
</a>
</g>
</g>
<!-- Node28&#45;&gt;Node29 -->
<g id="edge34" class="edge"><title>Node28&#45;&gt;Node29</title>
<path fill="none" stroke="midnightblue" d="M1234.4,-40.358C1242.86,-40.1024 1251.49,-39.8417 1259.93,-39.5868"/>
<polygon fill="midnightblue" stroke="midnightblue" points="1234.08,-36.8661 1224.19,-40.6666 1234.29,-43.8629 1234.08,-36.8661"/>
</g>
</g>
</svg>
        <g id="navigator" transform="translate(0 0)" fill="#404254">
                <rect fill="#f2f5e9" fill-opacity="0.5" stroke="#606060" stroke-width=".5" x="0" y="0" width="60" height="60"/>
                <use id="zoomplus" xlink:href="#zoomPlus" x="17" y="9" onmousedown="handleZoom(evt,'in')"/>
                <use id="zoomminus" xlink:href="#zoomMin" x="42" y="9" onmousedown="handleZoom(evt,'out')"/>
                <use id="reset" xlink:href="#resetDef" x="30" y="36" onmousedown="handleReset()"/>
                <g id="arrowUp" xlink:href="#dirArrow" transform="translate(30 24)" onmousedown="handlePan(0,-1)">
                  <use xlink:href="#rim" fill="#404040">
                        <set attributeName="fill" to="#808080" begin="arrowUp.mouseover" end="arrowUp.mouseout"/>
                  </use>
                  <path fill="none" stroke="white" stroke-width="1.5" d="M0,-3.0v7 M-2.5,-0.5L0,-3.0L2.5,-0.5"/>
                </g>
                <g id="arrowRight" xlink:href="#dirArrow" transform="rotate(90) translate(36 -43)" onmousedown="handlePan(1,0)">
                  <use xlink:href="#rim" fill="#404040">
                        <set attributeName="fill" to="#808080" begin="arrowRight.mouseover" end="arrowRight.mouseout"/>
                  </use>
                  <path fill="none" stroke="white" stroke-width="1.5" d="M0,-3.0v7 M-2.5,-0.5L0,-3.0L2.5,-0.5"/>
                </g>
                <g id="arrowDown" xlink:href="#dirArrow" transform="rotate(180) translate(-30 -48)" onmousedown="handlePan(0,1)">
                  <use xlink:href="#rim" fill="#404040">
                        <set attributeName="fill" to="#808080" begin="arrowDown.mouseover" end="arrowDown.mouseout"/>
                  </use>
                  <path fill="none" stroke="white" stroke-width="1.5" d="M0,-3.0v7 M-2.5,-0.5L0,-3.0L2.5,-0.5"/>
                </g>
                <g id="arrowLeft" xlink:href="#dirArrow" transform="rotate(270) translate(-36 17)" onmousedown="handlePan(-1,0)">
                  <use xlink:href="#rim" fill="#404040">
                        <set attributeName="fill" to="#808080" begin="arrowLeft.mouseover" end="arrowLeft.mouseout"/>
                  </use>
                  <path fill="none" stroke="white" stroke-width="1.5" d="M0,-3.0v7 M-2.5,-0.5L0,-3.0L2.5,-0.5"/>
                </g>
        </g>
        <svg viewBox="0 0 15 15" width="100%" height="30px" preserveAspectRatio="xMaxYMin meet">
         <g id="arrow_out" transform="scale(0.3 0.3)">
          <a xlink:href="classlime_1_1LMS7__Device_aa1cb84b31acb31de7b8999a04e9812aa_icgraph_org.svg" target="_base">
           <rect id="button" ry="5" rx="5" y="6" x="6" height="38" width="38"
                fill="#f2f5e9" fill-opacity="0.5" stroke="#606060" stroke-width="1.0"/>
           <path id="arrow"
             d="M 11.500037,31.436501 C 11.940474,20.09759 22.043105,11.32322 32.158766,21.979434 L 37.068811,17.246167 C 37.068811,17.246167 37.088388,32 37.088388,32 L 22.160133,31.978069 C 22.160133,31.978069 26.997745,27.140456 26.997745,27.140456 C 18.528582,18.264221 13.291696,25.230495 11.500037,31.436501 z"
             style="fill:#404040;"/>
          </a>
         </g>
        </svg>
</svg>
