<?xml version="1.0" encoding="UTF-8" standalone="no"?>
<!DOCTYPE svg PUBLIC "-//W3C//DTD SVG 1.1//EN"
 "http://www.w3.org/Graphics/SVG/1.1/DTD/svg11.dtd">
<!-- Generated by graphviz version 2.38.0 (20140413.2041)
 -->
<!-- Title: lime::LMS7_Device::Calibrate Pages: 1 -->
<!--zoomable 214 -->
<svg id="main" version="1.1" xmlns="http://www.w3.org/2000/svg" xmlns:xlink="http://www.w3.org/1999/xlink" xml:space="preserve" onload="init(evt)">
<style type="text/css"><![CDATA[
.edge:hover path { stroke: red; }
.edge:hover polygon { stroke: red; fill: red; }
]]></style>
<script type="text/javascript"><![CDATA[
var edges = document.getElementsByTagName('g');
if (edges && edges.length) {
  for (var i=0;i<edges.length;i++) {
    if (edges[i].id.substr(0,4)=='edge') {
      edges[i].setAttribute('class','edge');
    }
  }
}
]]></script>
        <defs>
                <circle id="rim" cx="0" cy="0" r="7"/>
                <circle id="rim2" cx="0" cy="0" r="3.5"/>
                <g id="zoomPlus">
                        <use xlink:href="#rim" fill="#404040">
                                <set attributeName="fill" to="#808080" begin="zoomplus.mouseover" end="zoomplus.mouseout"/>
                        </use>
                        <path d="M-4,0h8M0,-4v8" fill="none" stroke="white" stroke-width="1.5" pointer-events="none"/>
                </g>
                <g id="zoomMin">
                        <use xlink:href="#rim" fill="#404040">
                                <set attributeName="fill" to="#808080" begin="zoomminus.mouseover" end="zoomminus.mouseout"/>
                        </use>
                        <path d="M-4,0h8" fill="none" stroke="white" stroke-width="1.5" pointer-events="none"/>
                </g>
                <g id="dirArrow">
                        <path fill="none" stroke="white" stroke-width="1.5" d="M0,-3.0v7 M-2.5,-0.5L0,-3.0L2.5,-0.5"/>
                </g>
               <g id="resetDef">
                       <use xlink:href="#rim2" fill="#404040">
                               <set attributeName="fill" to="#808080" begin="reset.mouseover" end="reset.mouseout"/>
                       </use>
               </g>
        </defs>

<script type="text/javascript">
var viewWidth = 516;
var viewHeight = 214;
var sectionId = 'dynsection-5';
</script>
<script xlink:href="../../svgpan.js"/>
<svg id="graph" class="graph">
<g id="viewport">
<title>lime::LMS7_Device::Calibrate</title>
<polygon fill="white" stroke="none" points="-4,4 -4,-209.5 512,-209.5 512,4 -4,4"/>
<!-- Node1 -->
<g id="node1" class="node"><title>Node1</title>
<polygon fill="#bfbfbf" stroke="black" points="0,-79.5 0,-109.5 108,-109.5 108,-79.5 0,-79.5"/>
<text text-anchor="start" x="8" y="-97.5" font-family="Helvetica,sans-Serif" font-size="10.00">lime::LMS7_Device::</text>
<text text-anchor="middle" x="54" y="-86.5" font-family="Helvetica,sans-Serif" font-size="10.00">Calibrate</text>
</g>
<!-- Node2 -->
<g id="node2" class="node"><title>Node2</title>
<g id="a_node2"><a xlink:href="../../df/de1/lms7__api_8cpp.html#a30253e6e7221c70d726b6bb06c69e43e" target="_top" xlink:title="LMS_Calibrate">
<polygon fill="white" stroke="black" points="167.5,-104 167.5,-123 248.5,-123 248.5,-104 167.5,-104"/>
<text text-anchor="middle" x="208" y="-111" font-family="Helvetica,sans-Serif" font-size="10.00">LMS_Calibrate</text>
</a>
</g>
</g>
<!-- Node1&#45;&gt;Node2 -->
<g id="edge1" class="edge"><title>Node1&#45;&gt;Node2</title>
<path fill="none" stroke="midnightblue" d="M118.303,-102.413C134.805,-104.476 152.13,-106.641 167.045,-108.506"/>
<polygon fill="midnightblue" stroke="midnightblue" points="118.519,-98.9127 108.162,-101.145 117.651,-105.859 118.519,-98.9127"/>
</g>
<!-- Node9 -->
<g id="node9" class="node"><title>Node9</title>
<g id="a_node9"><a xlink:href="../../d9/d90/classSoapyLMS7.html#a3ed334e7d2f7c168515f4b9ee6f46545" target="_top" xlink:title="SoapyLMS7::writeSetting">
<polygon fill="white" stroke="black" points="144,-66 144,-85 272,-85 272,-66 144,-66"/>
<text text-anchor="middle" x="208" y="-73" font-family="Helvetica,sans-Serif" font-size="10.00">SoapyLMS7::writeSetting</text>
</a>
</g>
</g>
<!-- Node1&#45;&gt;Node9 -->
<g id="edge8" class="edge"><title>Node1&#45;&gt;Node9</title>
<path fill="none" stroke="midnightblue" d="M118.35,-86.5812C126.814,-85.5233 135.493,-84.4384 143.952,-83.3811"/>
<polygon fill="midnightblue" stroke="midnightblue" points="117.651,-83.1413 108.162,-87.8547 118.519,-90.0873 117.651,-83.1413"/>
</g>
<!-- Node3 -->
<g id="node3" class="node"><title>Node3</title>
<g id="a_node3"><a xlink:href="../../d0/d43/LimeUtilCalSweep_8cpp.html#aa1ddf17da91809067879ee6cf16f04d1" target="_top" xlink:title="deviceCalSweep">
<polygon fill="white" stroke="black" points="326,-186 326,-205 416,-205 416,-186 326,-186"/>
<text text-anchor="middle" x="371" y="-193" font-family="Helvetica,sans-Serif" font-size="10.00">deviceCalSweep</text>
</a>
</g>
</g>
<!-- Node2&#45;&gt;Node3 -->
<g id="edge2" class="edge"><title>Node2&#45;&gt;Node3</title>
<path fill="none" stroke="midnightblue" d="M229.595,-128.945C248.992,-142.912 279.282,-163.258 308,-176.5 315.872,-180.13 324.618,-183.295 332.999,-185.947"/>
<polygon fill="midnightblue" stroke="midnightblue" points="231.633,-126.1 221.494,-123.026 227.503,-131.752 231.633,-126.1"/>
</g>
<!-- Node5 -->
<g id="node5" class="node"><title>Node5</title>
<g id="a_node5"><a xlink:href="../../d1/d1f/singleRX_8cpp.html#a3c04138a5bfe5d72780bb7e82a18e627" target="_top" xlink:title="main">
<polygon fill="white" stroke="black" points="352,-148 352,-167 390,-167 390,-148 352,-148"/>
<text text-anchor="middle" x="371" y="-155" font-family="Helvetica,sans-Serif" font-size="10.00">main</text>
</a>
</g>
</g>
<!-- Node2&#45;&gt;Node5 -->
<g id="edge4" class="edge"><title>Node2&#45;&gt;Node5</title>
<path fill="none" stroke="midnightblue" d="M253.62,-125.694C285.931,-134.525 327.937,-146.005 351.632,-152.48"/>
<polygon fill="midnightblue" stroke="midnightblue" points="254.504,-122.307 243.935,-123.047 252.658,-129.06 254.504,-122.307"/>
</g>
<!-- Node6 -->
<g id="node6" class="node"><title>Node6</title>
<g id="a_node6"><a xlink:href="../../da/dd0/classlms7002__pnlCalibrations__view.html#ae3b090e81fe2c5165051d0de1ef70147" target="_top" xlink:title="lms7002_pnlCalibrations\l_view::OnbtnCalibrateAll">
<polygon fill="white" stroke="black" points="308.5,-98.5 308.5,-128.5 433.5,-128.5 433.5,-98.5 308.5,-98.5"/>
<text text-anchor="start" x="316.5" y="-116.5" font-family="Helvetica,sans-Serif" font-size="10.00">lms7002_pnlCalibrations</text>
<text text-anchor="middle" x="371" y="-105.5" font-family="Helvetica,sans-Serif" font-size="10.00">_view::OnbtnCalibrateAll</text>
</a>
</g>
</g>
<!-- Node2&#45;&gt;Node6 -->
<g id="edge5" class="edge"><title>Node2&#45;&gt;Node6</title>
<path fill="none" stroke="midnightblue" d="M258.811,-113.5C274.495,-113.5 292.007,-113.5 308.41,-113.5"/>
<polygon fill="midnightblue" stroke="midnightblue" points="258.798,-110 248.798,-113.5 258.798,-117 258.798,-110"/>
</g>
<!-- Node7 -->
<g id="node7" class="node"><title>Node7</title>
<g id="a_node7"><a xlink:href="../../da/dd0/classlms7002__pnlCalibrations__view.html#a5e1f35ed3deee842da3ceb80c907285f" target="_top" xlink:title="lms7002_pnlCalibrations\l_view::OnbtnCalibrateRx">
<polygon fill="white" stroke="black" points="308,-49.5 308,-79.5 434,-79.5 434,-49.5 308,-49.5"/>
<text text-anchor="start" x="316" y="-67.5" font-family="Helvetica,sans-Serif" font-size="10.00">lms7002_pnlCalibrations</text>
<text text-anchor="middle" x="371" y="-56.5" font-family="Helvetica,sans-Serif" font-size="10.00">_view::OnbtnCalibrateRx</text>
</a>
</g>
</g>
<!-- Node2&#45;&gt;Node7 -->
<g id="edge6" class="edge"><title>Node2&#45;&gt;Node7</title>
<path fill="none" stroke="midnightblue" d="M250.372,-101.049C257.584,-98.8716 265.011,-96.6236 272,-94.5 287.918,-89.6632 305.281,-84.3577 320.911,-79.571"/>
<polygon fill="midnightblue" stroke="midnightblue" points="249.297,-97.7179 240.734,-103.957 251.319,-104.42 249.297,-97.7179"/>
</g>
<!-- Node8 -->
<g id="node8" class="node"><title>Node8</title>
<g id="a_node8"><a xlink:href="../../da/dd0/classlms7002__pnlCalibrations__view.html#a66789914ffb16b2eb0f508cdac365210" target="_top" xlink:title="lms7002_pnlCalibrations\l_view::OnbtnCalibrateTx">
<polygon fill="white" stroke="black" points="308.5,-0.5 308.5,-30.5 433.5,-30.5 433.5,-0.5 308.5,-0.5"/>
<text text-anchor="start" x="316.5" y="-18.5" font-family="Helvetica,sans-Serif" font-size="10.00">lms7002_pnlCalibrations</text>
<text text-anchor="middle" x="371" y="-7.5" font-family="Helvetica,sans-Serif" font-size="10.00">_view::OnbtnCalibrateTx</text>
</a>
</g>
</g>
<!-- Node2&#45;&gt;Node8 -->
<g id="edge7" class="edge"><title>Node2&#45;&gt;Node8</title>
<path fill="none" stroke="midnightblue" d="M258.201,-102.395C263.101,-100.214 267.805,-97.6091 272,-94.5 295.173,-77.324 285.627,-58.7052 308,-40.5 312.681,-36.6909 318.019,-33.3978 323.553,-30.5681"/>
<polygon fill="midnightblue" stroke="midnightblue" points="256.694,-99.2245 248.623,-106.088 259.213,-105.756 256.694,-99.2245"/>
</g>
<!-- Node4 -->
<g id="node4" class="node"><title>Node4</title>
<g id="a_node4"><a xlink:href="../../d5/db6/LimeUtil_8cpp.html#a0ddf1224851353fc92bfbff6f499fa97" target="_top" xlink:title="main">
<polygon fill="white" stroke="black" points="470,-186 470,-205 508,-205 508,-186 470,-186"/>
<text text-anchor="middle" x="489" y="-193" font-family="Helvetica,sans-Serif" font-size="10.00">main</text>
</a>
</g>
</g>
<!-- Node3&#45;&gt;Node4 -->
<g id="edge3" class="edge"><title>Node3&#45;&gt;Node4</title>
<path fill="none" stroke="midnightblue" d="M426.412,-195.5C442.125,-195.5 458.191,-195.5 469.972,-195.5"/>
<polygon fill="midnightblue" stroke="midnightblue" points="426.186,-192 416.186,-195.5 426.186,-199 426.186,-192"/>
</g>
</g>
</svg>
        <g id="navigator" transform="translate(0 0)" fill="#404254">
                <rect fill="#f2f5e9" fill-opacity="0.5" stroke="#606060" stroke-width=".5" x="0" y="0" width="60" height="60"/>
                <use id="zoomplus" xlink:href="#zoomPlus" x="17" y="9" onmousedown="handleZoom(evt,'in')"/>
                <use id="zoomminus" xlink:href="#zoomMin" x="42" y="9" onmousedown="handleZoom(evt,'out')"/>
                <use id="reset" xlink:href="#resetDef" x="30" y="36" onmousedown="handleReset()"/>
                <g id="arrowUp" xlink:href="#dirArrow" transform="translate(30 24)" onmousedown="handlePan(0,-1)">
                  <use xlink:href="#rim" fill="#404040">
                        <set attributeName="fill" to="#808080" begin="arrowUp.mouseover" end="arrowUp.mouseout"/>
                  </use>
                  <path fill="none" stroke="white" stroke-width="1.5" d="M0,-3.0v7 M-2.5,-0.5L0,-3.0L2.5,-0.5"/>
                </g>
                <g id="arrowRight" xlink:href="#dirArrow" transform="rotate(90) translate(36 -43)" onmousedown="handlePan(1,0)">
                  <use xlink:href="#rim" fill="#404040">
                        <set attributeName="fill" to="#808080" begin="arrowRight.mouseover" end="arrowRight.mouseout"/>
                  </use>
                  <path fill="none" stroke="white" stroke-width="1.5" d="M0,-3.0v7 M-2.5,-0.5L0,-3.0L2.5,-0.5"/>
                </g>
                <g id="arrowDown" xlink:href="#dirArrow" transform="rotate(180) translate(-30 -48)" onmousedown="handlePan(0,1)">
                  <use xlink:href="#rim" fill="#404040">
                        <set attributeName="fill" to="#808080" begin="arrowDown.mouseover" end="arrowDown.mouseout"/>
                  </use>
                  <path fill="none" stroke="white" stroke-width="1.5" d="M0,-3.0v7 M-2.5,-0.5L0,-3.0L2.5,-0.5"/>
                </g>
                <g id="arrowLeft" xlink:href="#dirArrow" transform="rotate(270) translate(-36 17)" onmousedown="handlePan(-1,0)">
                  <use xlink:href="#rim" fill="#404040">
                        <set attributeName="fill" to="#808080" begin="arrowLeft.mouseover" end="arrowLeft.mouseout"/>
                  </use>
                  <path fill="none" stroke="white" stroke-width="1.5" d="M0,-3.0v7 M-2.5,-0.5L0,-3.0L2.5,-0.5"/>
                </g>
        </g>
        <svg viewBox="0 0 15 15" width="100%" height="30px" preserveAspectRatio="xMaxYMin meet">
         <g id="arrow_out" transform="scale(0.3 0.3)">
          <a xlink:href="classlime_1_1LMS7__Device_a0686d1e959e189bda8174aab28e79077_icgraph_org.svg" target="_base">
           <rect id="button" ry="5" rx="5" y="6" x="6" height="38" width="38"
                fill="#f2f5e9" fill-opacity="0.5" stroke="#606060" stroke-width="1.0"/>
           <path id="arrow"
             d="M 11.500037,31.436501 C 11.940474,20.09759 22.043105,11.32322 32.158766,21.979434 L 37.068811,17.246167 C 37.068811,17.246167 37.088388,32 37.088388,32 L 22.160133,31.978069 C 22.160133,31.978069 26.997745,27.140456 26.997745,27.140456 C 18.528582,18.264221 13.291696,25.230495 11.500037,31.436501 z"
             style="fill:#404040;"/>
          </a>
         </g>
        </svg>
</svg>
