<?xml version="1.0" encoding="UTF-8" standalone="no"?>
<!DOCTYPE svg PUBLIC "-//W3C//DTD SVG 1.1//EN"
 "http://www.w3.org/Graphics/SVG/1.1/DTD/svg11.dtd">
<!-- Generated by graphviz version 2.38.0 (20140413.2041)
 -->
<!-- Title: lime::LMS7_Device::GetGFIRCoef Pages: 1 -->
<svg width="855pt" height="747pt"
 viewBox="0.00 0.00 855.00 747.00" xmlns="http://www.w3.org/2000/svg" xmlns:xlink="http://www.w3.org/1999/xlink">
<g id="graph0" class="graph" transform="scale(1 1) rotate(0) translate(4 743)">
<title>lime::LMS7_Device::GetGFIRCoef</title>
<polygon fill="white" stroke="none" points="-4,4 -4,-743 851,-743 851,4 -4,4"/>
<!-- Node1 -->
<g id="node1" class="node"><title>Node1</title>
<polygon fill="#bfbfbf" stroke="black" points="0,-283 0,-313 108,-313 108,-283 0,-283"/>
<text text-anchor="start" x="8" y="-301" font-family="Helvetica,sans-Serif" font-size="10.00">lime::LMS7_Device::</text>
<text text-anchor="middle" x="54" y="-290" font-family="Helvetica,sans-Serif" font-size="10.00">GetGFIRCoef</text>
</g>
<!-- Node2 -->
<g id="node2" class="node"><title>Node2</title>
<g id="a_node2"><a xlink:href="../../db/d1d/classlime_1_1LMS7002M.html#acb36929cf79d0d088d1722145afebcf7" target="_top" xlink:title="Returns currently loaded FIR coefficients. ">
<polygon fill="white" stroke="black" points="144,-560.5 144,-579.5 332,-579.5 332,-560.5 144,-560.5"/>
<text text-anchor="middle" x="238" y="-567.5" font-family="Helvetica,sans-Serif" font-size="10.00">lime::LMS7002M::GetGFIRCoefficients</text>
</a>
</g>
</g>
<!-- Node1&#45;&gt;Node2 -->
<g id="edge1" class="edge"><title>Node1&#45;&gt;Node2</title>
<path fill="none" stroke="midnightblue" d="M65.0444,-313.011C96.198,-359.571 191.119,-501.431 224.904,-551.922"/>
<polygon fill="midnightblue" stroke="midnightblue" points="222.17,-554.131 230.64,-560.496 227.988,-550.238 222.17,-554.131"/>
</g>
<!-- Node13 -->
<g id="node13" class="node"><title>Node13</title>
<g id="a_node13"><a xlink:href="../../d4/d67/lms_8c.html#a0e01e477b1f10e0a63e54de2dd2f8240" target="_top" xlink:title="lms">
<polygon fill="white" stroke="black" points="414.5,-266.5 414.5,-285.5 446.5,-285.5 446.5,-266.5 414.5,-266.5"/>
<text text-anchor="middle" x="430.5" y="-273.5" font-family="Helvetica,sans-Serif" font-size="10.00">lms</text>
</a>
</g>
</g>
<!-- Node1&#45;&gt;Node13 -->
<g id="edge13" class="edge"><title>Node1&#45;&gt;Node13</title>
<path fill="none" stroke="midnightblue" d="M108.259,-294.871C190.195,-290.058 344.01,-281.022 404.323,-277.479"/>
<polygon fill="midnightblue" stroke="midnightblue" points="404.681,-280.964 414.459,-276.884 404.271,-273.976 404.681,-280.964"/>
</g>
<!-- Node33 -->
<g id="node33" class="node"><title>Node33</title>
<g id="a_node33"><a xlink:href="../../d3/d22/classlime_1_1LMS7__Device.html#a4ac84063a505d3686527f8ffc28bb9d7" target="_top" xlink:title="lime::LMS7_Device::\lSelectChannel">
<polygon fill="white" stroke="black" points="184,-239 184,-269 292,-269 292,-239 184,-239"/>
<text text-anchor="start" x="192" y="-257" font-family="Helvetica,sans-Serif" font-size="10.00">lime::LMS7_Device::</text>
<text text-anchor="middle" x="238" y="-246" font-family="Helvetica,sans-Serif" font-size="10.00">SelectChannel</text>
</a>
</g>
</g>
<!-- Node1&#45;&gt;Node33 -->
<g id="edge36" class="edge"><title>Node1&#45;&gt;Node33</title>
<path fill="none" stroke="midnightblue" d="M108.131,-285.155C128.692,-280.184 152.392,-274.455 173.817,-269.275"/>
<polygon fill="midnightblue" stroke="midnightblue" points="174.905,-272.613 183.803,-266.861 173.26,-265.809 174.905,-272.613"/>
</g>
<!-- Node3 -->
<g id="node3" class="node"><title>Node3</title>
<g id="a_node3"><a xlink:href="../../db/d1d/classlime_1_1LMS7002M.html#a770393845fa2d4aab5e74c33c31247e9" target="_top" xlink:title="Returns given parameter value from chip register. ">
<polygon fill="white" stroke="black" points="374.5,-577 374.5,-607 486.5,-607 486.5,-577 374.5,-577"/>
<text text-anchor="start" x="382.5" y="-595" font-family="Helvetica,sans-Serif" font-size="10.00">lime::LMS7002M::Get</text>
<text text-anchor="middle" x="430.5" y="-584" font-family="Helvetica,sans-Serif" font-size="10.00">_SPI_Reg_bits</text>
</a>
</g>
</g>
<!-- Node2&#45;&gt;Node3 -->
<g id="edge2" class="edge"><title>Node2&#45;&gt;Node3</title>
<path fill="none" stroke="midnightblue" d="M321.448,-579.522C335.711,-581.169 350.365,-582.861 364.097,-584.447"/>
<polygon fill="midnightblue" stroke="midnightblue" points="364.062,-587.966 374.398,-585.636 364.865,-581.012 364.062,-587.966"/>
</g>
<!-- Node4 -->
<g id="node4" class="node"><title>Node4</title>
<g id="a_node4"><a xlink:href="../../da/de5/classlime_1_1LMS7002M__RegistersMap.html#af728e4d3d45fc8d2a32d6112c77d60b0" target="_top" xlink:title="lime::LMS7002M_Registers\lMap::GetValue">
<polygon fill="white" stroke="black" points="529,-533 529,-563 666,-563 666,-533 529,-533"/>
<text text-anchor="start" x="537" y="-551" font-family="Helvetica,sans-Serif" font-size="10.00">lime::LMS7002M_Registers</text>
<text text-anchor="middle" x="597.5" y="-540" font-family="Helvetica,sans-Serif" font-size="10.00">Map::GetValue</text>
</a>
</g>
</g>
<!-- Node2&#45;&gt;Node4 -->
<g id="edge3" class="edge"><title>Node2&#45;&gt;Node4</title>
<path fill="none" stroke="midnightblue" d="M332.462,-564.248C390.501,-560.677 464.208,-556.141 518.989,-552.77"/>
<polygon fill="midnightblue" stroke="midnightblue" points="519.223,-556.262 528.989,-552.154 518.793,-549.275 519.223,-556.262"/>
</g>
<!-- Node5 -->
<g id="node5" class="node"><title>Node5</title>
<g id="a_node5"><a xlink:href="../../d2/de5/classlime_1_1IConnection.html#abf1c25c85e31e262ded3e33e65cc58e3" target="_top" xlink:title="lime::IConnection::\lIsOpen">
<polygon fill="white" stroke="black" points="381,-489 381,-519 480,-519 480,-489 381,-489"/>
<text text-anchor="start" x="389" y="-507" font-family="Helvetica,sans-Serif" font-size="10.00">lime::IConnection::</text>
<text text-anchor="middle" x="430.5" y="-496" font-family="Helvetica,sans-Serif" font-size="10.00">IsOpen</text>
</a>
</g>
</g>
<!-- Node2&#45;&gt;Node5 -->
<g id="edge4" class="edge"><title>Node2&#45;&gt;Node5</title>
<path fill="none" stroke="midnightblue" d="M266.7,-560.403C295.281,-550.501 340.578,-534.808 376.144,-522.486"/>
<polygon fill="midnightblue" stroke="midnightblue" points="377.592,-525.688 385.895,-519.107 375.301,-519.074 377.592,-525.688"/>
</g>
<!-- Node6 -->
<g id="node6" class="node"><title>Node6</title>
<g id="a_node6"><a xlink:href="../../d5/d6c/namespacelime.html#adc6af0cf8e0a70f3ef09fac1244f8c48" target="_top" xlink:title="lime::ReportError">
<polygon fill="white" stroke="black" points="385,-697.5 385,-716.5 476,-716.5 476,-697.5 385,-697.5"/>
<text text-anchor="middle" x="430.5" y="-704.5" font-family="Helvetica,sans-Serif" font-size="10.00">lime::ReportError</text>
</a>
</g>
</g>
<!-- Node2&#45;&gt;Node6 -->
<g id="edge5" class="edge"><title>Node2&#45;&gt;Node6</title>
<path fill="none" stroke="midnightblue" d="M251.656,-579.76C274.585,-597.364 324.643,-635.445 368,-666 380.415,-674.749 394.496,-684.172 406.049,-691.776"/>
<polygon fill="midnightblue" stroke="midnightblue" points="404.409,-694.885 414.692,-697.436 408.244,-689.029 404.409,-694.885"/>
</g>
<!-- Node8 -->
<g id="node8" class="node"><title>Node8</title>
<g id="a_node8"><a xlink:href="../../db/d1d/classlime_1_1LMS7002M.html#a61f634f3d5f245993d78f16921d57cac" target="_top" xlink:title="Batches multiple register reads into least amount of transactions. ">
<polygon fill="white" stroke="black" points="374,-626 374,-656 487,-656 487,-626 374,-626"/>
<text text-anchor="start" x="382" y="-644" font-family="Helvetica,sans-Serif" font-size="10.00">lime::LMS7002M::SPI</text>
<text text-anchor="middle" x="430.5" y="-633" font-family="Helvetica,sans-Serif" font-size="10.00">_read_batch</text>
</a>
</g>
</g>
<!-- Node2&#45;&gt;Node8 -->
<g id="edge7" class="edge"><title>Node2&#45;&gt;Node8</title>
<path fill="none" stroke="midnightblue" d="M264.692,-579.575C293.965,-590.486 342.513,-608.579 379.354,-622.311"/>
<polygon fill="midnightblue" stroke="midnightblue" points="378.336,-625.666 388.929,-625.879 380.781,-619.107 378.336,-625.666"/>
</g>
<!-- Node7 -->
<g id="node7" class="node"><title>Node7</title>
<g id="a_node7"><a xlink:href="../../d9/df5/Logger_8cpp.html#ada38bf01d6d691de953ed69268ea6516" target="_top" xlink:title="errToStr">
<polygon fill="white" stroke="black" points="571.5,-719.5 571.5,-738.5 623.5,-738.5 623.5,-719.5 571.5,-719.5"/>
<text text-anchor="middle" x="597.5" y="-726.5" font-family="Helvetica,sans-Serif" font-size="10.00">errToStr</text>
</a>
</g>
</g>
<!-- Node6&#45;&gt;Node7 -->
<g id="edge6" class="edge"><title>Node6&#45;&gt;Node7</title>
<path fill="none" stroke="midnightblue" d="M476.151,-712.954C502.875,-716.517 536.362,-720.982 561.224,-724.296"/>
<polygon fill="midnightblue" stroke="midnightblue" points="560.931,-727.788 571.305,-725.641 561.856,-720.85 560.931,-727.788"/>
</g>
<!-- Node8&#45;&gt;Node4 -->
<g id="edge10" class="edge"><title>Node8&#45;&gt;Node4</title>
<path fill="none" stroke="midnightblue" d="M477.874,-625.935C483.194,-623.338 488.365,-620.37 493,-617 513.438,-602.143 508.434,-587.679 529,-573 531.645,-571.112 534.448,-569.35 537.351,-567.708"/>
<polygon fill="midnightblue" stroke="midnightblue" points="538.989,-570.801 546.3,-563.133 535.803,-564.569 538.989,-570.801"/>
</g>
<!-- Node9 -->
<g id="node9" class="node"><title>Node9</title>
<g id="a_node9"><a xlink:href="../../d5/d6c/namespacelime.html#ae9d8b86234e3827271197852facdc649" target="_top" xlink:title="Log an error message with formatting. ">
<polygon fill="white" stroke="black" points="567.5,-631.5 567.5,-650.5 627.5,-650.5 627.5,-631.5 567.5,-631.5"/>
<text text-anchor="middle" x="597.5" y="-638.5" font-family="Helvetica,sans-Serif" font-size="10.00">lime::error</text>
</a>
</g>
</g>
<!-- Node8&#45;&gt;Node9 -->
<g id="edge8" class="edge"><title>Node8&#45;&gt;Node9</title>
<path fill="none" stroke="midnightblue" d="M487.361,-641C510.236,-641 536.17,-641 557.017,-641"/>
<polygon fill="midnightblue" stroke="midnightblue" points="557.108,-644.5 567.108,-641 557.108,-637.5 557.108,-644.5"/>
</g>
<!-- Node11 -->
<g id="node11" class="node"><title>Node11</title>
<g id="a_node11"><a xlink:href="../../d2/de5/classlime_1_1IConnection.html#a19573cf864645415907886dd71f8d020" target="_top" xlink:title="lime::IConnection::\lReadLMS7002MSPI">
<polygon fill="white" stroke="black" points="544.5,-582 544.5,-612 650.5,-612 650.5,-582 544.5,-582"/>
<text text-anchor="start" x="552.5" y="-600" font-family="Helvetica,sans-Serif" font-size="10.00">lime::IConnection::</text>
<text text-anchor="middle" x="597.5" y="-589" font-family="Helvetica,sans-Serif" font-size="10.00">ReadLMS7002MSPI</text>
</a>
</g>
</g>
<!-- Node8&#45;&gt;Node11 -->
<g id="edge11" class="edge"><title>Node8&#45;&gt;Node11</title>
<path fill="none" stroke="midnightblue" d="M487.361,-626.104C502.47,-622.075 518.914,-617.69 534.344,-613.575"/>
<polygon fill="midnightblue" stroke="midnightblue" points="535.554,-616.875 544.314,-610.916 533.75,-610.111 535.554,-616.875"/>
</g>
<!-- Node12 -->
<g id="node12" class="node"><title>Node12</title>
<g id="a_node12"><a xlink:href="../../da/de5/classlime_1_1LMS7002M__RegistersMap.html#a97f5d0ffbaa6c0e67f2ccccb9475a540" target="_top" xlink:title="lime::LMS7002M_Registers\lMap::SetValue">
<polygon fill="white" stroke="black" points="529,-670 529,-700 666,-700 666,-670 529,-670"/>
<text text-anchor="start" x="537" y="-688" font-family="Helvetica,sans-Serif" font-size="10.00">lime::LMS7002M_Registers</text>
<text text-anchor="middle" x="597.5" y="-677" font-family="Helvetica,sans-Serif" font-size="10.00">Map::SetValue</text>
</a>
</g>
</g>
<!-- Node8&#45;&gt;Node12 -->
<g id="edge12" class="edge"><title>Node8&#45;&gt;Node12</title>
<path fill="none" stroke="midnightblue" d="M487.361,-655.896C501.187,-659.583 516.13,-663.568 530.392,-667.371"/>
<polygon fill="midnightblue" stroke="midnightblue" points="529.57,-670.774 540.135,-669.969 531.374,-664.011 529.57,-670.774"/>
</g>
<!-- Node10 -->
<g id="node10" class="node"><title>Node10</title>
<g id="a_node10"><a xlink:href="../../d5/d6c/namespacelime.html#abec841ac666fc9321a10e1881cff2da0" target="_top" xlink:title="Log a message with formatting and specified logging level. ">
<polygon fill="white" stroke="black" points="708,-631.5 708,-650.5 761,-650.5 761,-631.5 708,-631.5"/>
<text text-anchor="middle" x="734.5" y="-638.5" font-family="Helvetica,sans-Serif" font-size="10.00">lime::log</text>
</a>
</g>
</g>
<!-- Node9&#45;&gt;Node10 -->
<g id="edge9" class="edge"><title>Node9&#45;&gt;Node10</title>
<path fill="none" stroke="midnightblue" d="M627.793,-641C648.319,-641 675.873,-641 697.703,-641"/>
<polygon fill="midnightblue" stroke="midnightblue" points="697.904,-644.5 707.904,-641 697.904,-637.5 697.904,-644.5"/>
</g>
<!-- Node14 -->
<g id="node14" class="node"><title>Node14</title>
<g id="a_node14"><a xlink:href="../../d4/d67/lms_8c.html#a433227191fe883dcb8aa15d291bb29a1" target="_top" xlink:title="Case1F">
<polygon fill="white" stroke="black" points="572,-304.5 572,-323.5 623,-323.5 623,-304.5 572,-304.5"/>
<text text-anchor="middle" x="597.5" y="-311.5" font-family="Helvetica,sans-Serif" font-size="10.00">Case1F</text>
</a>
</g>
</g>
<!-- Node13&#45;&gt;Node14 -->
<g id="edge14" class="edge"><title>Node13&#45;&gt;Node14</title>
<path fill="none" stroke="midnightblue" d="M446.727,-279.507C472.722,-285.494 526.289,-297.83 561.807,-306.01"/>
<polygon fill="midnightblue" stroke="midnightblue" points="561.223,-309.467 571.753,-308.301 562.794,-302.646 561.223,-309.467"/>
</g>
<!-- Node15 -->
<g id="node15" class="node"><title>Node15</title>
<g id="a_node15"><a xlink:href="../../d4/d67/lms_8c.html#ace0cd8bf61cb9b86b98f0cef03b5a9d9" target="_top" xlink:title="Case2F">
<polygon fill="white" stroke="black" points="572,-266.5 572,-285.5 623,-285.5 623,-266.5 572,-266.5"/>
<text text-anchor="middle" x="597.5" y="-273.5" font-family="Helvetica,sans-Serif" font-size="10.00">Case2F</text>
</a>
</g>
</g>
<!-- Node13&#45;&gt;Node15 -->
<g id="edge15" class="edge"><title>Node13&#45;&gt;Node15</title>
<path fill="none" stroke="midnightblue" d="M446.727,-276C472.611,-276 525.83,-276 561.348,-276"/>
<polygon fill="midnightblue" stroke="midnightblue" points="561.753,-279.5 571.753,-276 561.753,-272.5 561.753,-279.5"/>
</g>
<!-- Node16 -->
<g id="node16" class="node"><title>Node16</title>
<g id="a_node16"><a xlink:href="../../d4/d67/lms_8c.html#a5f53b53ccc591e3643c4af2aee2e7f32" target="_top" xlink:title="Case3F">
<polygon fill="white" stroke="black" points="572,-228.5 572,-247.5 623,-247.5 623,-228.5 572,-228.5"/>
<text text-anchor="middle" x="597.5" y="-235.5" font-family="Helvetica,sans-Serif" font-size="10.00">Case3F</text>
</a>
</g>
</g>
<!-- Node13&#45;&gt;Node16 -->
<g id="edge16" class="edge"><title>Node13&#45;&gt;Node16</title>
<path fill="none" stroke="midnightblue" d="M446.727,-272.493C472.722,-266.506 526.289,-254.17 561.807,-245.99"/>
<polygon fill="midnightblue" stroke="midnightblue" points="562.794,-249.354 571.753,-243.699 561.223,-242.533 562.794,-249.354"/>
</g>
<!-- Node17 -->
<g id="node17" class="node"><title>Node17</title>
<g id="a_node17"><a xlink:href="../../d4/d67/lms_8c.html#a5086763d5b258349bc13d6be7e7d0665" target="_top" xlink:title="Case4F">
<polygon fill="white" stroke="black" points="572,-190.5 572,-209.5 623,-209.5 623,-190.5 572,-190.5"/>
<text text-anchor="middle" x="597.5" y="-197.5" font-family="Helvetica,sans-Serif" font-size="10.00">Case4F</text>
</a>
</g>
</g>
<!-- Node13&#45;&gt;Node17 -->
<g id="edge17" class="edge"><title>Node13&#45;&gt;Node17</title>
<path fill="none" stroke="midnightblue" d="M446.529,-273.245C459.547,-270.378 478.512,-265.018 493,-256 512.479,-243.876 509.283,-230.732 529,-219 539.013,-213.042 550.973,-208.884 562.025,-206.012"/>
<polygon fill="midnightblue" stroke="midnightblue" points="562.895,-209.403 571.837,-203.721 561.303,-202.586 562.895,-209.403"/>
</g>
<!-- Node18 -->
<g id="node18" class="node"><title>Node18</title>
<g id="a_node18"><a xlink:href="../../db/de5/recipes_8c.html#aee25e218394217a134e805ea09fb0fe9" target="_top" xlink:title="free_ivector">
<polygon fill="white" stroke="black" points="563.5,-152.5 563.5,-171.5 631.5,-171.5 631.5,-152.5 563.5,-152.5"/>
<text text-anchor="middle" x="597.5" y="-159.5" font-family="Helvetica,sans-Serif" font-size="10.00">free_ivector</text>
</a>
</g>
</g>
<!-- Node13&#45;&gt;Node18 -->
<g id="edge18" class="edge"><title>Node13&#45;&gt;Node18</title>
<path fill="none" stroke="midnightblue" d="M446.549,-274.469C460.121,-272.374 479.903,-267.46 493,-256 520.826,-231.652 500.692,-204.786 529,-181 535.975,-175.139 544.64,-171.081 553.412,-168.273"/>
<polygon fill="midnightblue" stroke="midnightblue" points="554.537,-171.594 563.275,-165.604 552.708,-164.837 554.537,-171.594"/>
</g>
<!-- Node19 -->
<g id="node19" class="node"><title>Node19</title>
<g id="a_node19"><a xlink:href="../../db/de5/recipes_8c.html#a3e0d121b098c19c0bdc2429e5b9f1625" target="_top" xlink:title="free_matrix">
<polygon fill="white" stroke="black" points="565,-114.5 565,-133.5 630,-133.5 630,-114.5 565,-114.5"/>
<text text-anchor="middle" x="597.5" y="-121.5" font-family="Helvetica,sans-Serif" font-size="10.00">free_matrix</text>
</a>
</g>
</g>
<!-- Node13&#45;&gt;Node19 -->
<g id="edge19" class="edge"><title>Node13&#45;&gt;Node19</title>
<path fill="none" stroke="midnightblue" d="M446.669,-274.915C460.516,-273.131 480.652,-268.422 493,-256 530.159,-218.617 491.1,-179.631 529,-143 536.082,-136.155 545.428,-131.739 554.901,-128.901"/>
<polygon fill="midnightblue" stroke="midnightblue" points="555.857,-132.27 564.729,-126.477 554.182,-125.473 555.857,-132.27"/>
</g>
<!-- Node20 -->
<g id="node20" class="node"><title>Node20</title>
<g id="a_node20"><a xlink:href="../../db/de5/recipes_8c.html#a8214a52d888e820222c0382648329c0c" target="_top" xlink:title="free_vector">
<polygon fill="white" stroke="black" points="702,-427.5 702,-446.5 767,-446.5 767,-427.5 702,-427.5"/>
<text text-anchor="middle" x="734.5" y="-434.5" font-family="Helvetica,sans-Serif" font-size="10.00">free_vector</text>
</a>
</g>
</g>
<!-- Node13&#45;&gt;Node20 -->
<g id="edge20" class="edge"><title>Node13&#45;&gt;Node20</title>
<path fill="none" stroke="midnightblue" d="M435.406,-285.785C446.073,-311.091 478.327,-378.822 529,-409 579.06,-438.813 648.024,-442.051 691.686,-440.444"/>
<polygon fill="midnightblue" stroke="midnightblue" points="692.121,-443.928 701.945,-439.96 691.791,-436.936 692.121,-443.928"/>
</g>
<!-- Node21 -->
<g id="node21" class="node"><title>Node21</title>
<g id="a_node21"><a xlink:href="../../d4/d67/lms_8c.html#ad1d6c875ff429888b51dd1155f0311ad" target="_top" xlink:title="ivector">
<polygon fill="white" stroke="black" points="574.5,-38.5 574.5,-57.5 620.5,-57.5 620.5,-38.5 574.5,-38.5"/>
<text text-anchor="middle" x="597.5" y="-45.5" font-family="Helvetica,sans-Serif" font-size="10.00">ivector</text>
</a>
</g>
</g>
<!-- Node13&#45;&gt;Node21 -->
<g id="edge21" class="edge"><title>Node13&#45;&gt;Node21</title>
<path fill="none" stroke="midnightblue" d="M446.75,-275.274C460.856,-273.751 481.346,-269.225 493,-256 549.532,-191.843 471.195,-130.013 529,-67 537.937,-57.2579 551.438,-52.362 564.023,-49.9538"/>
<polygon fill="midnightblue" stroke="midnightblue" points="564.866,-53.368 574.258,-48.4643 563.858,-46.441 564.866,-53.368"/>
</g>
<!-- Node22 -->
<g id="node22" class="node"><title>Node22</title>
<g id="a_node22"><a xlink:href="../../db/de5/recipes_8c.html#a66ff65ad0355ec1f4a7722bcdafc8cd3" target="_top" xlink:title="lubksb">
<polygon fill="white" stroke="black" points="575,-0.5 575,-19.5 620,-19.5 620,-0.5 575,-0.5"/>
<text text-anchor="middle" x="597.5" y="-7.5" font-family="Helvetica,sans-Serif" font-size="10.00">lubksb</text>
</a>
</g>
</g>
<!-- Node13&#45;&gt;Node22 -->
<g id="edge22" class="edge"><title>Node13&#45;&gt;Node22</title>
<path fill="none" stroke="midnightblue" d="M446.573,-275.382C460.753,-273.946 481.48,-269.489 493,-256 559.339,-178.323 461.12,-105.334 529,-29 538.001,-18.8784 551.927,-13.9658 564.798,-11.6464"/>
<polygon fill="midnightblue" stroke="midnightblue" points="565.341,-15.1049 574.78,-10.2921 564.4,-8.16841 565.341,-15.1049"/>
</g>
<!-- Node23 -->
<g id="node23" class="node"><title>Node23</title>
<g id="a_node23"><a xlink:href="../../db/de5/recipes_8c.html#a623fec796d9d53e5e4a4d30226547da7" target="_top" xlink:title="ludcmp">
<polygon fill="white" stroke="black" points="573.5,-494.5 573.5,-513.5 621.5,-513.5 621.5,-494.5 573.5,-494.5"/>
<text text-anchor="middle" x="597.5" y="-501.5" font-family="Helvetica,sans-Serif" font-size="10.00">ludcmp</text>
</a>
</g>
</g>
<!-- Node13&#45;&gt;Node23 -->
<g id="edge23" class="edge"><title>Node13&#45;&gt;Node23</title>
<path fill="none" stroke="midnightblue" d="M433.07,-285.611C438.993,-318.71 463.096,-428.999 529,-485 538.543,-493.109 551.316,-497.769 563.182,-500.443"/>
<polygon fill="midnightblue" stroke="midnightblue" points="562.801,-503.932 573.272,-502.317 564.079,-497.05 562.801,-503.932"/>
</g>
<!-- Node26 -->
<g id="node26" class="node"><title>Node26</title>
<g id="a_node26"><a xlink:href="../../d4/d67/lms_8c.html#a37bcb1539d76b53344102435e2ab9c91" target="_top" xlink:title="matrix">
<polygon fill="white" stroke="black" points="575.5,-456.5 575.5,-475.5 619.5,-475.5 619.5,-456.5 575.5,-456.5"/>
<text text-anchor="middle" x="597.5" y="-463.5" font-family="Helvetica,sans-Serif" font-size="10.00">matrix</text>
</a>
</g>
</g>
<!-- Node13&#45;&gt;Node26 -->
<g id="edge28" class="edge"><title>Node13&#45;&gt;Node26</title>
<path fill="none" stroke="midnightblue" d="M434.572,-285.822C443.948,-314.228 474.898,-397.286 529,-442 539.411,-450.604 553.135,-456.227 565.489,-459.85"/>
<polygon fill="midnightblue" stroke="midnightblue" points="564.881,-463.309 575.44,-462.444 566.647,-456.535 564.881,-463.309"/>
</g>
<!-- Node27 -->
<g id="node27" class="node"><title>Node27</title>
<g id="a_node27"><a xlink:href="../../d8/d91/rounding_8c.html#aa8d7512cdf5bfbf811cef6a8a091c679" target="_top" xlink:title="round2csd">
<polygon fill="white" stroke="black" points="566.5,-380.5 566.5,-399.5 628.5,-399.5 628.5,-380.5 566.5,-380.5"/>
<text text-anchor="middle" x="597.5" y="-387.5" font-family="Helvetica,sans-Serif" font-size="10.00">round2csd</text>
</a>
</g>
</g>
<!-- Node13&#45;&gt;Node27 -->
<g id="edge29" class="edge"><title>Node13&#45;&gt;Node27</title>
<path fill="none" stroke="midnightblue" d="M438.67,-285.688C453.407,-304.902 489.084,-347.965 529,-371 537.363,-375.826 547.023,-379.486 556.374,-382.238"/>
<polygon fill="midnightblue" stroke="midnightblue" points="555.759,-385.696 566.323,-384.881 557.557,-378.931 555.759,-385.696"/>
</g>
<!-- Node31 -->
<g id="node31" class="node"><title>Node31</title>
<g id="a_node31"><a xlink:href="../../d8/d91/rounding_8c.html#aca2670cc0fbf948a6b9cb670047c9d5b" target="_top" xlink:title="round2int">
<polygon fill="white" stroke="black" points="569.5,-76.5 569.5,-95.5 625.5,-95.5 625.5,-76.5 569.5,-76.5"/>
<text text-anchor="middle" x="597.5" y="-83.5" font-family="Helvetica,sans-Serif" font-size="10.00">round2int</text>
</a>
</g>
</g>
<!-- Node13&#45;&gt;Node31 -->
<g id="edge33" class="edge"><title>Node13&#45;&gt;Node31</title>
<path fill="none" stroke="midnightblue" d="M446.616,-275.153C460.624,-273.542 481.047,-268.955 493,-256 539.785,-205.295 481.209,-154.759 529,-105 536.942,-96.7314 548.174,-91.9751 559.203,-89.2659"/>
<polygon fill="midnightblue" stroke="midnightblue" points="560.033,-92.6699 569.173,-87.3114 558.686,-85.8006 560.033,-92.6699"/>
</g>
<!-- Node32 -->
<g id="node32" class="node"><title>Node32</title>
<g id="a_node32"><a xlink:href="../../d4/d67/lms_8c.html#ac81ca32708341eb34b25d515d00bc748" target="_top" xlink:title="vector">
<polygon fill="white" stroke="black" points="575.5,-342.5 575.5,-361.5 619.5,-361.5 619.5,-342.5 575.5,-342.5"/>
<text text-anchor="middle" x="597.5" y="-349.5" font-family="Helvetica,sans-Serif" font-size="10.00">vector</text>
</a>
</g>
</g>
<!-- Node13&#45;&gt;Node32 -->
<g id="edge35" class="edge"><title>Node13&#45;&gt;Node32</title>
<path fill="none" stroke="midnightblue" d="M445.437,-285.692C463.841,-298.122 497.599,-319.661 529,-333 540.613,-337.933 553.886,-341.986 565.572,-345.063"/>
<polygon fill="midnightblue" stroke="midnightblue" points="564.801,-348.478 575.351,-347.513 566.502,-341.688 564.801,-348.478"/>
</g>
<!-- Node23&#45;&gt;Node20 -->
<g id="edge24" class="edge"><title>Node23&#45;&gt;Node20</title>
<path fill="none" stroke="midnightblue" d="M621.707,-499.544C635.068,-496.476 651.943,-491.726 666,-485 683.663,-476.549 701.634,-463.507 714.588,-453.15"/>
<polygon fill="midnightblue" stroke="midnightblue" points="716.809,-455.854 722.322,-446.807 712.37,-450.442 716.809,-455.854"/>
</g>
<!-- Node24 -->
<g id="node24" class="node"><title>Node24</title>
<g id="a_node24"><a xlink:href="../../db/de5/recipes_8c.html#a208e98f19b2f252315399d02c0594a46" target="_top" xlink:title="nrerror">
<polygon fill="white" stroke="black" points="803,-494.5 803,-513.5 847,-513.5 847,-494.5 803,-494.5"/>
<text text-anchor="middle" x="825" y="-501.5" font-family="Helvetica,sans-Serif" font-size="10.00">nrerror</text>
</a>
</g>
</g>
<!-- Node23&#45;&gt;Node24 -->
<g id="edge25" class="edge"><title>Node23&#45;&gt;Node24</title>
<path fill="none" stroke="midnightblue" d="M621.783,-504C662.516,-504 746.729,-504 792.582,-504"/>
<polygon fill="midnightblue" stroke="midnightblue" points="792.828,-507.5 802.828,-504 792.828,-500.5 792.828,-507.5"/>
</g>
<!-- Node25 -->
<g id="node25" class="node"><title>Node25</title>
<g id="a_node25"><a xlink:href="../../db/de5/recipes_8c.html#a5e6092211a5f7e2d6ae9282379d3c604" target="_top" xlink:title="vector">
<polygon fill="white" stroke="black" points="712.5,-475.5 712.5,-494.5 756.5,-494.5 756.5,-475.5 712.5,-475.5"/>
<text text-anchor="middle" x="734.5" y="-482.5" font-family="Helvetica,sans-Serif" font-size="10.00">vector</text>
</a>
</g>
</g>
<!-- Node23&#45;&gt;Node25 -->
<g id="edge26" class="edge"><title>Node23&#45;&gt;Node25</title>
<path fill="none" stroke="midnightblue" d="M621.707,-500.734C644.003,-497.596 677.842,-492.833 702.45,-489.37"/>
<polygon fill="midnightblue" stroke="midnightblue" points="702.956,-492.833 712.37,-487.974 701.98,-485.902 702.956,-492.833"/>
</g>
<!-- Node25&#45;&gt;Node24 -->
<g id="edge27" class="edge"><title>Node25&#45;&gt;Node24</title>
<path fill="none" stroke="midnightblue" d="M756.923,-489.599C767.685,-491.91 780.928,-494.753 792.796,-497.301"/>
<polygon fill="midnightblue" stroke="midnightblue" points="792.262,-500.766 802.774,-499.443 793.731,-493.922 792.262,-500.766"/>
</g>
<!-- Node28 -->
<g id="node28" class="node"><title>Node28</title>
<g id="a_node28"><a xlink:href="../../d8/d91/rounding_8c.html#a2cff6b77e73872659c44b0c99f6bd97f" target="_top" xlink:title="csd2int">
<polygon fill="white" stroke="black" points="710.5,-346.5 710.5,-365.5 758.5,-365.5 758.5,-346.5 710.5,-346.5"/>
<text text-anchor="middle" x="734.5" y="-353.5" font-family="Helvetica,sans-Serif" font-size="10.00">csd2int</text>
</a>
</g>
</g>
<!-- Node27&#45;&gt;Node28 -->
<g id="edge30" class="edge"><title>Node27&#45;&gt;Node28</title>
<path fill="none" stroke="midnightblue" d="M628.797,-382.37C650.138,-376.995 678.695,-369.803 700.594,-364.287"/>
<polygon fill="midnightblue" stroke="midnightblue" points="701.6,-367.643 710.442,-361.807 699.89,-360.855 701.6,-367.643"/>
</g>
<!-- Node29 -->
<g id="node29" class="node"><title>Node29</title>
<g id="a_node29"><a xlink:href="../../db/d82/wglew_8h.html#a500a82aecba06f4550f6849b8099ca21" target="_top" xlink:title="int">
<polygon fill="white" stroke="black" points="720,-194.5 720,-213.5 749,-213.5 749,-194.5 720,-194.5"/>
<text text-anchor="middle" x="734.5" y="-201.5" font-family="Helvetica,sans-Serif" font-size="10.00">int</text>
</a>
</g>
</g>
<!-- Node27&#45;&gt;Node29 -->
<g id="edge31" class="edge"><title>Node27&#45;&gt;Node29</title>
<path fill="none" stroke="midnightblue" d="M628.564,-387.43C641.401,-384.957 655.754,-380.179 666,-371 710.154,-331.443 725.929,-258.896 731.143,-223.908"/>
<polygon fill="midnightblue" stroke="midnightblue" points="734.667,-223.962 732.532,-213.585 727.73,-223.029 734.667,-223.962"/>
</g>
<!-- Node30 -->
<g id="node30" class="node"><title>Node30</title>
<g id="a_node30"><a xlink:href="../../d8/d91/rounding_8c.html#ab3a64ec72c5600bc114621e93309c8c3" target="_top" xlink:title="int2csd">
<polygon fill="white" stroke="black" points="710.5,-384.5 710.5,-403.5 758.5,-403.5 758.5,-384.5 710.5,-384.5"/>
<text text-anchor="middle" x="734.5" y="-391.5" font-family="Helvetica,sans-Serif" font-size="10.00">int2csd</text>
</a>
</g>
</g>
<!-- Node27&#45;&gt;Node30 -->
<g id="edge32" class="edge"><title>Node27&#45;&gt;Node30</title>
<path fill="none" stroke="midnightblue" d="M628.797,-390.898C650.041,-391.527 678.436,-392.368 700.296,-393.016"/>
<polygon fill="midnightblue" stroke="midnightblue" points="700.343,-396.519 710.442,-393.317 700.551,-389.522 700.343,-396.519"/>
</g>
<!-- Node31&#45;&gt;Node29 -->
<g id="edge34" class="edge"><title>Node31&#45;&gt;Node29</title>
<path fill="none" stroke="midnightblue" d="M625.698,-89.2339C638.825,-91.8424 654.238,-96.5426 666,-105 694.854,-125.746 715.257,-162.891 725.639,-185.309"/>
<polygon fill="midnightblue" stroke="midnightblue" points="722.445,-186.739 729.699,-194.461 728.843,-183.9 722.445,-186.739"/>
</g>
<!-- Node33&#45;&gt;Node13 -->
<g id="edge37" class="edge"><title>Node33&#45;&gt;Node13</title>
<path fill="none" stroke="midnightblue" d="M292.065,-260.128C328.609,-264.349 375.534,-269.768 404.021,-273.058"/>
<polygon fill="midnightblue" stroke="midnightblue" points="403.987,-276.577 414.323,-274.247 404.79,-269.623 403.987,-276.577"/>
</g>
<!-- Node34 -->
<g id="node34" class="node"><title>Node34</title>
<g id="a_node34"><a xlink:href="../../db/d1d/classlime_1_1LMS7002M.html#afaf3843f7acef055ebbe0c0576ec8fee" target="_top" xlink:title="Change given parameter value. ">
<polygon fill="white" stroke="black" points="368,-217 368,-247 493,-247 493,-217 368,-217"/>
<text text-anchor="start" x="376" y="-235" font-family="Helvetica,sans-Serif" font-size="10.00">lime::LMS7002M::Modify</text>
<text text-anchor="middle" x="430.5" y="-224" font-family="Helvetica,sans-Serif" font-size="10.00">_SPI_Reg_bits</text>
</a>
</g>
</g>
<!-- Node33&#45;&gt;Node34 -->
<g id="edge38" class="edge"><title>Node33&#45;&gt;Node34</title>
<path fill="none" stroke="midnightblue" d="M292.065,-247.872C312.404,-245.523 335.958,-242.803 357.76,-240.285"/>
<polygon fill="midnightblue" stroke="midnightblue" points="358.434,-243.73 367.967,-239.106 357.631,-236.777 358.434,-243.73"/>
</g>
</g>
</svg>
