<?xml version="1.0" encoding="UTF-8" standalone="no"?>
<!DOCTYPE svg PUBLIC "-//W3C//DTD SVG 1.1//EN"
 "http://www.w3.org/Graphics/SVG/1.1/DTD/svg11.dtd">
<!-- Generated by graphviz version 2.38.0 (20140413.2041)
 -->
<!-- Title: lime::LMS7_Device::MCU_AGCStart Pages: 1 -->
<!--zoomable 218 -->
<svg id="main" version="1.1" xmlns="http://www.w3.org/2000/svg" xmlns:xlink="http://www.w3.org/1999/xlink" xml:space="preserve" onload="init(evt)">
<style type="text/css"><![CDATA[
.edge:hover path { stroke: red; }
.edge:hover polygon { stroke: red; fill: red; }
]]></style>
<script type="text/javascript"><![CDATA[
var edges = document.getElementsByTagName('g');
if (edges && edges.length) {
  for (var i=0;i<edges.length;i++) {
    if (edges[i].id.substr(0,4)=='edge') {
      edges[i].setAttribute('class','edge');
    }
  }
}
]]></script>
        <defs>
                <circle id="rim" cx="0" cy="0" r="7"/>
                <circle id="rim2" cx="0" cy="0" r="3.5"/>
                <g id="zoomPlus">
                        <use xlink:href="#rim" fill="#404040">
                                <set attributeName="fill" to="#808080" begin="zoomplus.mouseover" end="zoomplus.mouseout"/>
                        </use>
                        <path d="M-4,0h8M0,-4v8" fill="none" stroke="white" stroke-width="1.5" pointer-events="none"/>
                </g>
                <g id="zoomMin">
                        <use xlink:href="#rim" fill="#404040">
                                <set attributeName="fill" to="#808080" begin="zoomminus.mouseover" end="zoomminus.mouseout"/>
                        </use>
                        <path d="M-4,0h8" fill="none" stroke="white" stroke-width="1.5" pointer-events="none"/>
                </g>
                <g id="dirArrow">
                        <path fill="none" stroke="white" stroke-width="1.5" d="M0,-3.0v7 M-2.5,-0.5L0,-3.0L2.5,-0.5"/>
                </g>
               <g id="resetDef">
                       <use xlink:href="#rim2" fill="#404040">
                               <set attributeName="fill" to="#808080" begin="reset.mouseover" end="reset.mouseout"/>
                       </use>
               </g>
        </defs>

<script type="text/javascript">
var viewWidth = 698;
var viewHeight = 218;
var sectionId = 'dynsection-56';
</script>
<script xlink:href="../../svgpan.js"/>
<svg id="graph" class="graph">
<g id="viewport">
<title>lime::LMS7_Device::MCU_AGCStart</title>
<polygon fill="white" stroke="none" points="-4,4 -4,-214 694,-214 694,4 -4,4"/>
<!-- Node1 -->
<g id="node1" class="node"><title>Node1</title>
<polygon fill="#bfbfbf" stroke="black" points="0,-90 0,-120 108,-120 108,-90 0,-90"/>
<text text-anchor="start" x="8" y="-108" font-family="Helvetica,sans-Serif" font-size="10.00">lime::LMS7_Device::</text>
<text text-anchor="middle" x="54" y="-97" font-family="Helvetica,sans-Serif" font-size="10.00">MCU_AGCStart</text>
</g>
<!-- Node2 -->
<g id="node2" class="node"><title>Node2</title>
<g id="a_node2"><a xlink:href="../../d5/d6c/namespacelime.html#ab9de5f0d548dc93d20d3a0173e752fbd" target="_top" xlink:title="Log a debug message with formatting. ">
<polygon fill="white" stroke="black" points="363,-152.5 363,-171.5 430,-171.5 430,-152.5 363,-152.5"/>
<text text-anchor="middle" x="396.5" y="-159.5" font-family="Helvetica,sans-Serif" font-size="10.00">lime::debug</text>
</a>
</g>
</g>
<!-- Node1&#45;&gt;Node2 -->
<g id="edge1" class="edge"><title>Node1&#45;&gt;Node2</title>
<path fill="none" stroke="midnightblue" d="M83.8314,-120.174C100.859,-128.399 123.109,-137.899 144,-143 215.683,-160.502 301.969,-163.195 352.574,-162.992"/>
<polygon fill="midnightblue" stroke="midnightblue" points="352.841,-166.49 362.812,-162.909 352.784,-159.49 352.841,-166.49"/>
</g>
<!-- Node7 -->
<g id="node7" class="node"><title>Node7</title>
<g id="a_node7"><a xlink:href="../../d5/d6c/namespacelime.html#af0395b1ab55d42fb76210f0cd9a44a6f" target="_top" xlink:title="Log an information message with formatting. ">
<polygon fill="white" stroke="black" points="368.5,-190.5 368.5,-209.5 424.5,-209.5 424.5,-190.5 368.5,-190.5"/>
<text text-anchor="middle" x="396.5" y="-197.5" font-family="Helvetica,sans-Serif" font-size="10.00">lime::info</text>
</a>
</g>
</g>
<!-- Node1&#45;&gt;Node7 -->
<g id="edge6" class="edge"><title>Node1&#45;&gt;Node7</title>
<path fill="none" stroke="midnightblue" d="M71.6787,-120.026C88.6046,-134.357 116.206,-155.296 144,-166 216.358,-193.867 308.083,-199.488 358.354,-200.279"/>
<polygon fill="midnightblue" stroke="midnightblue" points="358.396,-203.779 368.431,-200.381 358.467,-196.78 358.396,-203.779"/>
</g>
<!-- Node8 -->
<g id="node8" class="node"><title>Node8</title>
<g id="a_node8"><a xlink:href="../../d8/d9c/classlime_1_1MCU__BD.html#a725c7209bf1f88302539353da14f1fcc" target="_top" xlink:title="Upload program code from memory into MCU. ">
<polygon fill="white" stroke="black" points="158,-114.5 158,-133.5 313,-133.5 313,-114.5 158,-114.5"/>
<text text-anchor="middle" x="235.5" y="-121.5" font-family="Helvetica,sans-Serif" font-size="10.00">lime::MCU_BD::Program_MCU</text>
</a>
</g>
</g>
<!-- Node1&#45;&gt;Node8 -->
<g id="edge8" class="edge"><title>Node1&#45;&gt;Node8</title>
<path fill="none" stroke="midnightblue" d="M108.37,-110.649C120.723,-111.957 134.182,-113.381 147.558,-114.797"/>
<polygon fill="midnightblue" stroke="midnightblue" points="147.439,-118.304 157.751,-115.876 148.175,-111.343 147.439,-118.304"/>
</g>
<!-- Node9 -->
<g id="node9" class="node"><title>Node9</title>
<g id="a_node9"><a xlink:href="../../d8/d9c/classlime_1_1MCU__BD.html#a97b9d0dfe2cf9eb1430ec24b5c7e3e9d" target="_top" xlink:title="lime::MCU_BD::ReadMCUProgramID">
<polygon fill="white" stroke="black" points="144,-76.5 144,-95.5 327,-95.5 327,-76.5 144,-76.5"/>
<text text-anchor="middle" x="235.5" y="-83.5" font-family="Helvetica,sans-Serif" font-size="10.00">lime::MCU_BD::ReadMCUProgramID</text>
</a>
</g>
</g>
<!-- Node1&#45;&gt;Node9 -->
<g id="edge9" class="edge"><title>Node1&#45;&gt;Node9</title>
<path fill="none" stroke="midnightblue" d="M108.37,-99.3508C116.704,-98.4686 125.543,-97.5331 134.519,-96.5829"/>
<polygon fill="midnightblue" stroke="midnightblue" points="135.118,-100.039 144.694,-95.506 134.381,-93.0781 135.118,-100.039"/>
</g>
<!-- Node10 -->
<g id="node10" class="node"><title>Node10</title>
<g id="a_node10"><a xlink:href="../../d8/d9c/classlime_1_1MCU__BD.html#ac52855dc71d1134c32cdc8b22197f57a" target="_top" xlink:title="Starts algorithm in MCU. ">
<polygon fill="white" stroke="black" points="159.5,-38.5 159.5,-57.5 311.5,-57.5 311.5,-38.5 159.5,-38.5"/>
<text text-anchor="middle" x="235.5" y="-45.5" font-family="Helvetica,sans-Serif" font-size="10.00">lime::MCU_BD::RunProcedure</text>
</a>
</g>
</g>
<!-- Node1&#45;&gt;Node10 -->
<g id="edge10" class="edge"><title>Node1&#45;&gt;Node10</title>
<path fill="none" stroke="midnightblue" d="M86.1463,-89.916C102.975,-82.2251 124.29,-73.2102 144,-67 152.455,-64.3359 161.473,-61.9371 170.418,-59.8131"/>
<polygon fill="midnightblue" stroke="midnightblue" points="171.477,-63.1618 180.453,-57.5323 169.926,-56.3359 171.477,-63.1618"/>
</g>
<!-- Node11 -->
<g id="node11" class="node"><title>Node11</title>
<g id="a_node11"><a xlink:href="../../d8/d9c/classlime_1_1MCU__BD.html#ad4bff788d7e2763b110940935f42361b" target="_top" xlink:title="lime::MCU_BD::SetParameter">
<polygon fill="white" stroke="black" points="161,-0.5 161,-19.5 310,-19.5 310,-0.5 161,-0.5"/>
<text text-anchor="middle" x="235.5" y="-7.5" font-family="Helvetica,sans-Serif" font-size="10.00">lime::MCU_BD::SetParameter</text>
</a>
</g>
</g>
<!-- Node1&#45;&gt;Node11 -->
<g id="edge11" class="edge"><title>Node1&#45;&gt;Node11</title>
<path fill="none" stroke="midnightblue" d="M68.173,-89.8817C84.2676,-72.4169 113.183,-44.1475 144,-29 148.953,-26.5656 154.207,-24.4423 159.593,-22.5906"/>
<polygon fill="midnightblue" stroke="midnightblue" points="160.883,-25.8547 169.392,-19.5422 158.804,-19.1706 160.883,-25.8547"/>
</g>
<!-- Node3 -->
<g id="node3" class="node"><title>Node3</title>
<g id="a_node3"><a xlink:href="../../d5/d6c/namespacelime.html#a6e854173a1d66443d7c96d8eabef993b" target="_top" xlink:title="lime::GetLastErrorMessage">
<polygon fill="white" stroke="black" points="466,-152.5 466,-171.5 602,-171.5 602,-152.5 466,-152.5"/>
<text text-anchor="middle" x="534" y="-159.5" font-family="Helvetica,sans-Serif" font-size="10.00">lime::GetLastErrorMessage</text>
</a>
</g>
</g>
<!-- Node2&#45;&gt;Node3 -->
<g id="edge2" class="edge"><title>Node2&#45;&gt;Node3</title>
<path fill="none" stroke="midnightblue" d="M430.301,-162C438.154,-162 446.87,-162 455.809,-162"/>
<polygon fill="midnightblue" stroke="midnightblue" points="455.963,-165.5 465.963,-162 455.963,-158.5 455.963,-165.5"/>
</g>
<!-- Node4 -->
<g id="node4" class="node"><title>Node4</title>
<g id="a_node4"><a xlink:href="../../d5/d6c/namespacelime.html#abec841ac666fc9321a10e1881cff2da0" target="_top" xlink:title="Log a message with formatting and specified logging level. ">
<polygon fill="white" stroke="black" points="507.5,-190.5 507.5,-209.5 560.5,-209.5 560.5,-190.5 507.5,-190.5"/>
<text text-anchor="middle" x="534" y="-197.5" font-family="Helvetica,sans-Serif" font-size="10.00">lime::log</text>
</a>
</g>
</g>
<!-- Node2&#45;&gt;Node4 -->
<g id="edge3" class="edge"><title>Node2&#45;&gt;Node4</title>
<path fill="none" stroke="midnightblue" d="M430.301,-171.199C450.628,-176.899 476.736,-184.221 497.541,-190.056"/>
<polygon fill="midnightblue" stroke="midnightblue" points="496.706,-193.457 507.279,-192.787 498.596,-186.717 496.706,-193.457"/>
</g>
<!-- Node5 -->
<g id="node5" class="node"><title>Node5</title>
<g id="a_node5"><a xlink:href="../../d5/d6c/namespacelime.html#adc6af0cf8e0a70f3ef09fac1244f8c48" target="_top" xlink:title="lime::ReportError">
<polygon fill="white" stroke="black" points="488.5,-114.5 488.5,-133.5 579.5,-133.5 579.5,-114.5 488.5,-114.5"/>
<text text-anchor="middle" x="534" y="-121.5" font-family="Helvetica,sans-Serif" font-size="10.00">lime::ReportError</text>
</a>
</g>
</g>
<!-- Node2&#45;&gt;Node5 -->
<g id="edge4" class="edge"><title>Node2&#45;&gt;Node5</title>
<path fill="none" stroke="midnightblue" d="M430.301,-152.801C448.042,-147.826 470.187,-141.615 489.366,-136.237"/>
<polygon fill="midnightblue" stroke="midnightblue" points="490.403,-139.581 499.086,-133.511 488.513,-132.841 490.403,-139.581"/>
</g>
<!-- Node6 -->
<g id="node6" class="node"><title>Node6</title>
<g id="a_node6"><a xlink:href="../../d9/df5/Logger_8cpp.html#ada38bf01d6d691de953ed69268ea6516" target="_top" xlink:title="errToStr">
<polygon fill="white" stroke="black" points="638,-114.5 638,-133.5 690,-133.5 690,-114.5 638,-114.5"/>
<text text-anchor="middle" x="664" y="-121.5" font-family="Helvetica,sans-Serif" font-size="10.00">errToStr</text>
</a>
</g>
</g>
<!-- Node5&#45;&gt;Node6 -->
<g id="edge5" class="edge"><title>Node5&#45;&gt;Node6</title>
<path fill="none" stroke="midnightblue" d="M579.768,-124C595.431,-124 612.789,-124 627.582,-124"/>
<polygon fill="midnightblue" stroke="midnightblue" points="627.84,-127.5 637.84,-124 627.84,-120.5 627.84,-127.5"/>
</g>
<!-- Node7&#45;&gt;Node4 -->
<g id="edge7" class="edge"><title>Node7&#45;&gt;Node4</title>
<path fill="none" stroke="midnightblue" d="M424.595,-200C445.397,-200 474.312,-200 497.049,-200"/>
<polygon fill="midnightblue" stroke="midnightblue" points="497.329,-203.5 507.329,-200 497.329,-196.5 497.329,-203.5"/>
</g>
<!-- Node11&#45;&gt;Node2 -->
<g id="edge13" class="edge"><title>Node11&#45;&gt;Node2</title>
<path fill="none" stroke="midnightblue" d="M310.152,-19.4415C316.171,-21.9687 321.892,-25.1082 327,-29 364.738,-57.7521 383.497,-113.187 391.147,-142.588"/>
<polygon fill="midnightblue" stroke="midnightblue" points="387.787,-143.583 393.552,-152.472 394.589,-141.928 387.787,-143.583"/>
</g>
<!-- Node12 -->
<g id="node12" class="node"><title>Node12</title>
<g id="a_node12"><a xlink:href="../../db/d82/wglew_8h.html#a500a82aecba06f4550f6849b8099ca21" target="_top" xlink:title="int">
<polygon fill="white" stroke="black" points="382,-0.5 382,-19.5 411,-19.5 411,-0.5 382,-0.5"/>
<text text-anchor="middle" x="396.5" y="-7.5" font-family="Helvetica,sans-Serif" font-size="10.00">int</text>
</a>
</g>
</g>
<!-- Node11&#45;&gt;Node12 -->
<g id="edge12" class="edge"><title>Node11&#45;&gt;Node12</title>
<path fill="none" stroke="midnightblue" d="M310.414,-10C332.554,-10 355.274,-10 371.661,-10"/>
<polygon fill="midnightblue" stroke="midnightblue" points="371.909,-13.5001 381.909,-10 371.909,-6.5001 371.909,-13.5001"/>
</g>
</g>
</svg>
        <g id="navigator" transform="translate(0 0)" fill="#404254">
                <rect fill="#f2f5e9" fill-opacity="0.5" stroke="#606060" stroke-width=".5" x="0" y="0" width="60" height="60"/>
                <use id="zoomplus" xlink:href="#zoomPlus" x="17" y="9" onmousedown="handleZoom(evt,'in')"/>
                <use id="zoomminus" xlink:href="#zoomMin" x="42" y="9" onmousedown="handleZoom(evt,'out')"/>
                <use id="reset" xlink:href="#resetDef" x="30" y="36" onmousedown="handleReset()"/>
                <g id="arrowUp" xlink:href="#dirArrow" transform="translate(30 24)" onmousedown="handlePan(0,-1)">
                  <use xlink:href="#rim" fill="#404040">
                        <set attributeName="fill" to="#808080" begin="arrowUp.mouseover" end="arrowUp.mouseout"/>
                  </use>
                  <path fill="none" stroke="white" stroke-width="1.5" d="M0,-3.0v7 M-2.5,-0.5L0,-3.0L2.5,-0.5"/>
                </g>
                <g id="arrowRight" xlink:href="#dirArrow" transform="rotate(90) translate(36 -43)" onmousedown="handlePan(1,0)">
                  <use xlink:href="#rim" fill="#404040">
                        <set attributeName="fill" to="#808080" begin="arrowRight.mouseover" end="arrowRight.mouseout"/>
                  </use>
                  <path fill="none" stroke="white" stroke-width="1.5" d="M0,-3.0v7 M-2.5,-0.5L0,-3.0L2.5,-0.5"/>
                </g>
                <g id="arrowDown" xlink:href="#dirArrow" transform="rotate(180) translate(-30 -48)" onmousedown="handlePan(0,1)">
                  <use xlink:href="#rim" fill="#404040">
                        <set attributeName="fill" to="#808080" begin="arrowDown.mouseover" end="arrowDown.mouseout"/>
                  </use>
                  <path fill="none" stroke="white" stroke-width="1.5" d="M0,-3.0v7 M-2.5,-0.5L0,-3.0L2.5,-0.5"/>
                </g>
                <g id="arrowLeft" xlink:href="#dirArrow" transform="rotate(270) translate(-36 17)" onmousedown="handlePan(-1,0)">
                  <use xlink:href="#rim" fill="#404040">
                        <set attributeName="fill" to="#808080" begin="arrowLeft.mouseover" end="arrowLeft.mouseout"/>
                  </use>
                  <path fill="none" stroke="white" stroke-width="1.5" d="M0,-3.0v7 M-2.5,-0.5L0,-3.0L2.5,-0.5"/>
                </g>
        </g>
        <svg viewBox="0 0 15 15" width="100%" height="30px" preserveAspectRatio="xMaxYMin meet">
         <g id="arrow_out" transform="scale(0.3 0.3)">
          <a xlink:href="classlime_1_1LMS7__Device_a70242eef5ae99ec50bb737c8cff52a48_cgraph_org.svg" target="_base">
           <rect id="button" ry="5" rx="5" y="6" x="6" height="38" width="38"
                fill="#f2f5e9" fill-opacity="0.5" stroke="#606060" stroke-width="1.0"/>
           <path id="arrow"
             d="M 11.500037,31.436501 C 11.940474,20.09759 22.043105,11.32322 32.158766,21.979434 L 37.068811,17.246167 C 37.068811,17.246167 37.088388,32 37.088388,32 L 22.160133,31.978069 C 22.160133,31.978069 26.997745,27.140456 26.997745,27.140456 C 18.528582,18.264221 13.291696,25.230495 11.500037,31.436501 z"
             style="fill:#404040;"/>
          </a>
         </g>
        </svg>
</svg>
