<?xml version="1.0" encoding="UTF-8" standalone="no"?>
<!DOCTYPE svg PUBLIC "-//W3C//DTD SVG 1.1//EN"
 "http://www.w3.org/Graphics/SVG/1.1/DTD/svg11.dtd">
<!-- Generated by graphviz version 2.38.0 (20140413.2041)
 -->
<!-- Title: lime::LMS7_Device::DestroyStream Pages: 1 -->
<svg width="712pt" height="127pt"
 viewBox="0.00 0.00 712.00 126.50" xmlns="http://www.w3.org/2000/svg" xmlns:xlink="http://www.w3.org/1999/xlink">
<g id="graph0" class="graph" transform="scale(1 1) rotate(0) translate(4 122.5)">
<title>lime::LMS7_Device::DestroyStream</title>
<polygon fill="white" stroke="none" points="-4,4 -4,-122.5 708,-122.5 708,4 -4,4"/>
<!-- Node1 -->
<g id="node1" class="node"><title>Node1</title>
<polygon fill="#bfbfbf" stroke="black" points="0,-49.5 0,-79.5 108,-79.5 108,-49.5 0,-49.5"/>
<text text-anchor="start" x="8" y="-67.5" font-family="Helvetica,sans-Serif" font-size="10.00">lime::LMS7_Device::</text>
<text text-anchor="middle" x="54" y="-56.5" font-family="Helvetica,sans-Serif" font-size="10.00">DestroyStream</text>
</g>
<!-- Node2 -->
<g id="node2" class="node"><title>Node2</title>
<g id="a_node2"><a xlink:href="../../df/de1/lms7__api_8cpp.html#aec228383d063d7eaa75b8aa6498daff9" target="_top" xlink:title="LMS_DestroyStream">
<polygon fill="white" stroke="black" points="144,-55 144,-74 252,-74 252,-55 144,-55"/>
<text text-anchor="middle" x="198" y="-62" font-family="Helvetica,sans-Serif" font-size="10.00">LMS_DestroyStream</text>
</a>
</g>
</g>
<!-- Node1&#45;&gt;Node2 -->
<g id="edge1" class="edge"><title>Node1&#45;&gt;Node2</title>
<path fill="none" stroke="midnightblue" d="M118.517,-64.5C126.996,-64.5 135.618,-64.5 143.894,-64.5"/>
<polygon fill="midnightblue" stroke="midnightblue" points="118.28,-61.0001 108.28,-64.5 118.28,-68.0001 118.28,-61.0001"/>
</g>
<!-- Node3 -->
<g id="node3" class="node"><title>Node3</title>
<g id="a_node3"><a xlink:href="../../d4/d20/basicRX_8cpp.html#a3c04138a5bfe5d72780bb7e82a18e627" target="_top" xlink:title="main">
<polygon fill="white" stroke="black" points="325,-93 325,-112 363,-112 363,-93 325,-93"/>
<text text-anchor="middle" x="344" y="-100" font-family="Helvetica,sans-Serif" font-size="10.00">main</text>
</a>
</g>
</g>
<!-- Node2&#45;&gt;Node3 -->
<g id="edge2" class="edge"><title>Node2&#45;&gt;Node3</title>
<path fill="none" stroke="midnightblue" d="M245.011,-76.6418C272.054,-83.7781 304.747,-92.4054 324.698,-97.6704"/>
<polygon fill="midnightblue" stroke="midnightblue" points="245.899,-73.2565 235.337,-74.089 244.113,-80.0248 245.899,-73.2565"/>
</g>
<!-- Node4 -->
<g id="node4" class="node"><title>Node4</title>
<g id="a_node4"><a xlink:href="../../db/d92/LimeSuite_8cc.html#ae9fa7397859788c89a68774cf5b4e1f6" target="_top" xlink:title="StopStream">
<polygon fill="white" stroke="black" points="310,-55 310,-74 378,-74 378,-55 310,-55"/>
<text text-anchor="middle" x="344" y="-62" font-family="Helvetica,sans-Serif" font-size="10.00">StopStream</text>
</a>
</g>
</g>
<!-- Node2&#45;&gt;Node4 -->
<g id="edge3" class="edge"><title>Node2&#45;&gt;Node4</title>
<path fill="none" stroke="midnightblue" d="M262.265,-64.5C278.589,-64.5 295.52,-64.5 309.636,-64.5"/>
<polygon fill="midnightblue" stroke="midnightblue" points="262.211,-61.0001 252.211,-64.5 262.211,-68.0001 262.211,-61.0001"/>
</g>
<!-- Node9 -->
<g id="node9" class="node"><title>Node9</title>
<g id="a_node9"><a xlink:href="../../d5/d45/classfftviewer__frFFTviewer.html#a597151cc127f6b465e183b700ca1e41c" target="_top" xlink:title="fftviewer_frFFTviewer\l::StreamingLoop">
<polygon fill="white" stroke="black" points="288,-3.5 288,-33.5 400,-33.5 400,-3.5 288,-3.5"/>
<text text-anchor="start" x="296" y="-21.5" font-family="Helvetica,sans-Serif" font-size="10.00">fftviewer_frFFTviewer</text>
<text text-anchor="middle" x="344" y="-10.5" font-family="Helvetica,sans-Serif" font-size="10.00">::StreamingLoop</text>
</a>
</g>
</g>
<!-- Node2&#45;&gt;Node9 -->
<g id="edge8" class="edge"><title>Node2&#45;&gt;Node9</title>
<path fill="none" stroke="midnightblue" d="M238.829,-51.7769C256.513,-46.1278 277.456,-39.4376 295.91,-33.5427"/>
<polygon fill="midnightblue" stroke="midnightblue" points="237.298,-48.5917 228.837,-54.9688 239.428,-55.2598 237.298,-48.5917"/>
</g>
<!-- Node5 -->
<g id="node5" class="node"><title>Node5</title>
<g id="a_node5"><a xlink:href="../../db/d92/LimeSuite_8cc.html#a410a6c47d4cbc9c0e993e2da170c0651" target="_top" xlink:title="DEFUN_DLD">
<polygon fill="white" stroke="black" points="453.5,-93 453.5,-112 530.5,-112 530.5,-93 453.5,-93"/>
<text text-anchor="middle" x="492" y="-100" font-family="Helvetica,sans-Serif" font-size="10.00">DEFUN_DLD</text>
</a>
</g>
</g>
<!-- Node4&#45;&gt;Node5 -->
<g id="edge4" class="edge"><title>Node4&#45;&gt;Node5</title>
<path fill="none" stroke="midnightblue" d="M387.827,-75.6468C408.963,-81.1479 434.194,-87.7148 454.414,-92.9777"/>
<polygon fill="midnightblue" stroke="midnightblue" points="388.689,-72.2545 378.13,-73.1228 386.926,-79.0288 388.689,-72.2545"/>
</g>
<!-- Node6 -->
<g id="node6" class="node"><title>Node6</title>
<g id="a_node6"><a xlink:href="../../db/d92/LimeSuite_8cc.html#a600901608dd432caf717ac1d4f09c6aa" target="_top" xlink:title="FreeResources">
<polygon fill="white" stroke="black" points="450.5,-55 450.5,-74 533.5,-74 533.5,-55 450.5,-55"/>
<text text-anchor="middle" x="492" y="-62" font-family="Helvetica,sans-Serif" font-size="10.00">FreeResources</text>
</a>
</g>
</g>
<!-- Node4&#45;&gt;Node6 -->
<g id="edge5" class="edge"><title>Node4&#45;&gt;Node6</title>
<path fill="none" stroke="midnightblue" d="M388.354,-64.5C408.017,-64.5 431.136,-64.5 450.451,-64.5"/>
<polygon fill="midnightblue" stroke="midnightblue" points="388.13,-61.0001 378.13,-64.5 388.13,-68.0001 388.13,-61.0001"/>
</g>
<!-- Node7 -->
<g id="node7" class="node"><title>Node7</title>
<g id="a_node7"><a xlink:href="../../db/d92/LimeSuite_8cc.html#a8264622f1c2c5bfc25727870d85ee938" target="_top" xlink:title="DEFUN_DLD">
<polygon fill="white" stroke="black" points="605.5,-99 605.5,-118 682.5,-118 682.5,-99 605.5,-99"/>
<text text-anchor="middle" x="644" y="-106" font-family="Helvetica,sans-Serif" font-size="10.00">DEFUN_DLD</text>
</a>
</g>
</g>
<!-- Node6&#45;&gt;Node7 -->
<g id="edge6" class="edge"><title>Node6&#45;&gt;Node7</title>
<path fill="none" stroke="midnightblue" d="M535.391,-76.9347C559.225,-83.926 588.515,-92.5177 610.516,-98.9713"/>
<polygon fill="midnightblue" stroke="midnightblue" points="536.129,-73.5037 525.548,-74.0473 534.158,-80.2206 536.129,-73.5037"/>
</g>
<!-- Node8 -->
<g id="node8" class="node"><title>Node8</title>
<g id="a_node8"><a xlink:href="../../d6/d8b/classResourceDeallocator.html#abd5270f9c3ae0e00ad42437e6b7f3bbe" target="_top" xlink:title="ResourceDeallocator\l::~ResourceDeallocator">
<polygon fill="white" stroke="black" points="584,-49.5 584,-79.5 704,-79.5 704,-49.5 584,-49.5"/>
<text text-anchor="start" x="592" y="-67.5" font-family="Helvetica,sans-Serif" font-size="10.00">ResourceDeallocator</text>
<text text-anchor="middle" x="644" y="-56.5" font-family="Helvetica,sans-Serif" font-size="10.00">::~ResourceDeallocator</text>
</a>
</g>
</g>
<!-- Node6&#45;&gt;Node8 -->
<g id="edge7" class="edge"><title>Node6&#45;&gt;Node8</title>
<path fill="none" stroke="midnightblue" d="M543.663,-64.5C556.551,-64.5 570.513,-64.5 583.785,-64.5"/>
<polygon fill="midnightblue" stroke="midnightblue" points="543.592,-61.0001 533.592,-64.5 543.592,-68.0001 543.592,-61.0001"/>
</g>
<!-- Node10 -->
<g id="node10" class="node"><title>Node10</title>
<g id="a_node10"><a xlink:href="../../d5/d45/classfftviewer__frFFTviewer.html#a85fc31baba337dae5f523ef9702709f4" target="_top" xlink:title="fftviewer_frFFTviewer\l::StartStreaming">
<polygon fill="white" stroke="black" points="436,-2.5 436,-32.5 548,-32.5 548,-2.5 436,-2.5"/>
<text text-anchor="start" x="444" y="-20.5" font-family="Helvetica,sans-Serif" font-size="10.00">fftviewer_frFFTviewer</text>
<text text-anchor="middle" x="492" y="-9.5" font-family="Helvetica,sans-Serif" font-size="10.00">::StartStreaming</text>
</a>
</g>
</g>
<!-- Node9&#45;&gt;Node10 -->
<g id="edge9" class="edge"><title>Node9&#45;&gt;Node10</title>
<path fill="none" stroke="midnightblue" d="M410.41,-18.052C418.865,-17.9941 427.457,-17.9352 435.726,-17.8786"/>
<polygon fill="midnightblue" stroke="midnightblue" points="410.172,-14.5534 400.196,-18.1219 410.22,-21.5533 410.172,-14.5534"/>
</g>
<!-- Node11 -->
<g id="node11" class="node"><title>Node11</title>
<g id="a_node11"><a xlink:href="../../d5/d45/classfftviewer__frFFTviewer.html#ab4c28bb34659ce6fc1774bec2c5d13b8" target="_top" xlink:title="fftviewer_frFFTviewer\l::OnbtnStartStop">
<polygon fill="white" stroke="black" points="588,-0.5 588,-30.5 700,-30.5 700,-0.5 588,-0.5"/>
<text text-anchor="start" x="596" y="-18.5" font-family="Helvetica,sans-Serif" font-size="10.00">fftviewer_frFFTviewer</text>
<text text-anchor="middle" x="644" y="-7.5" font-family="Helvetica,sans-Serif" font-size="10.00">::OnbtnStartStop</text>
</a>
</g>
</g>
<!-- Node10&#45;&gt;Node11 -->
<g id="edge10" class="edge"><title>Node10&#45;&gt;Node11</title>
<path fill="none" stroke="midnightblue" d="M558.169,-16.6311C568.032,-16.4996 578.126,-16.365 587.753,-16.2366"/>
<polygon fill="midnightblue" stroke="midnightblue" points="557.955,-13.1335 548.003,-16.7666 558.049,-20.1329 557.955,-13.1335"/>
</g>
</g>
</svg>
