<?xml version="1.0" encoding="UTF-8" standalone="no"?>
<!DOCTYPE svg PUBLIC "-//W3C//DTD SVG 1.1//EN"
 "http://www.w3.org/Graphics/SVG/1.1/DTD/svg11.dtd">
<!-- Generated by graphviz version 2.38.0 (20140413.2041)
 -->
<!-- Title: lime::LMS7_Device::GetNCOPhase Pages: 1 -->
<!--zoomable 455 -->
<svg id="main" version="1.1" xmlns="http://www.w3.org/2000/svg" xmlns:xlink="http://www.w3.org/1999/xlink" xml:space="preserve" onload="init(evt)">
<style type="text/css"><![CDATA[
.edge:hover path { stroke: red; }
.edge:hover polygon { stroke: red; fill: red; }
]]></style>
<script type="text/javascript"><![CDATA[
var edges = document.getElementsByTagName('g');
if (edges && edges.length) {
  for (var i=0;i<edges.length;i++) {
    if (edges[i].id.substr(0,4)=='edge') {
      edges[i].setAttribute('class','edge');
    }
  }
}
]]></script>
        <defs>
                <circle id="rim" cx="0" cy="0" r="7"/>
                <circle id="rim2" cx="0" cy="0" r="3.5"/>
                <g id="zoomPlus">
                        <use xlink:href="#rim" fill="#404040">
                                <set attributeName="fill" to="#808080" begin="zoomplus.mouseover" end="zoomplus.mouseout"/>
                        </use>
                        <path d="M-4,0h8M0,-4v8" fill="none" stroke="white" stroke-width="1.5" pointer-events="none"/>
                </g>
                <g id="zoomMin">
                        <use xlink:href="#rim" fill="#404040">
                                <set attributeName="fill" to="#808080" begin="zoomminus.mouseover" end="zoomminus.mouseout"/>
                        </use>
                        <path d="M-4,0h8" fill="none" stroke="white" stroke-width="1.5" pointer-events="none"/>
                </g>
                <g id="dirArrow">
                        <path fill="none" stroke="white" stroke-width="1.5" d="M0,-3.0v7 M-2.5,-0.5L0,-3.0L2.5,-0.5"/>
                </g>
               <g id="resetDef">
                       <use xlink:href="#rim2" fill="#404040">
                               <set attributeName="fill" to="#808080" begin="reset.mouseover" end="reset.mouseout"/>
                       </use>
               </g>
        </defs>

<script type="text/javascript">
var viewWidth = 1603;
var viewHeight = 455;
var sectionId = 'dynsection-39';
</script>
<script xlink:href="../../svgpan.js"/>
<svg id="graph" class="graph">
<g id="viewport">
<title>lime::LMS7_Device::GetNCOPhase</title>
<polygon fill="white" stroke="none" points="-4,4 -4,-451 1599,-451 1599,4 -4,4"/>
<!-- Node1 -->
<g id="node1" class="node"><title>Node1</title>
<polygon fill="#bfbfbf" stroke="black" points="0,-250.5 0,-280.5 108,-280.5 108,-250.5 0,-250.5"/>
<text text-anchor="start" x="8" y="-268.5" font-family="Helvetica,sans-Serif" font-size="10.00">lime::LMS7_Device::</text>
<text text-anchor="middle" x="54" y="-257.5" font-family="Helvetica,sans-Serif" font-size="10.00">GetNCOPhase</text>
</g>
<!-- Node2 -->
<g id="node2" class="node"><title>Node2</title>
<g id="a_node2"><a xlink:href="../../df/de1/lms7__api_8cpp.html#a7c4442adb41c97eaf877ddf5fedfb26e" target="_top" xlink:title="LMS_GetNCOPhase">
<polygon fill="white" stroke="black" points="144,-256 144,-275 252,-275 252,-256 144,-256"/>
<text text-anchor="middle" x="198" y="-263" font-family="Helvetica,sans-Serif" font-size="10.00">LMS_GetNCOPhase</text>
</a>
</g>
</g>
<!-- Node1&#45;&gt;Node2 -->
<g id="edge1" class="edge"><title>Node1&#45;&gt;Node2</title>
<path fill="none" stroke="midnightblue" d="M118.517,-265.5C126.996,-265.5 135.618,-265.5 143.894,-265.5"/>
<polygon fill="midnightblue" stroke="midnightblue" points="118.28,-262 108.28,-265.5 118.28,-269 118.28,-262"/>
</g>
<!-- Node3 -->
<g id="node3" class="node"><title>Node3</title>
<g id="a_node3"><a xlink:href="../../df/d5f/classlms7002__pnlTxTSP__view.html#ab401f93273eb70bacb1e80ed38d11f4c" target="_top" xlink:title="lms7002_pnlTxTSP_view\l::UpdateNCOinputs">
<polygon fill="white" stroke="black" points="288.5,-287.5 288.5,-317.5 416.5,-317.5 416.5,-287.5 288.5,-287.5"/>
<text text-anchor="start" x="296.5" y="-305.5" font-family="Helvetica,sans-Serif" font-size="10.00">lms7002_pnlTxTSP_view</text>
<text text-anchor="middle" x="352.5" y="-294.5" font-family="Helvetica,sans-Serif" font-size="10.00">::UpdateNCOinputs</text>
</a>
</g>
</g>
<!-- Node2&#45;&gt;Node3 -->
<g id="edge2" class="edge"><title>Node2&#45;&gt;Node3</title>
<path fill="none" stroke="midnightblue" d="M248.098,-277.412C261.306,-280.617 275.765,-284.125 289.574,-287.475"/>
<polygon fill="midnightblue" stroke="midnightblue" points="248.816,-273.985 238.273,-275.028 247.165,-280.788 248.816,-273.985"/>
</g>
<!-- Node28 -->
<g id="node28" class="node"><title>Node28</title>
<g id="a_node28"><a xlink:href="../../df/d64/classlms7002__pnlRxTSP__view.html#a4d9db62a7d1d8d262ef3afa67b59ee23" target="_top" xlink:title="lms7002_pnlRxTSP_view\l::UpdateNCOinputs">
<polygon fill="white" stroke="black" points="288,-214.5 288,-244.5 417,-244.5 417,-214.5 288,-214.5"/>
<text text-anchor="start" x="296" y="-232.5" font-family="Helvetica,sans-Serif" font-size="10.00">lms7002_pnlRxTSP_view</text>
<text text-anchor="middle" x="352.5" y="-221.5" font-family="Helvetica,sans-Serif" font-size="10.00">::UpdateNCOinputs</text>
</a>
</g>
</g>
<!-- Node2&#45;&gt;Node28 -->
<g id="edge28" class="edge"><title>Node2&#45;&gt;Node28</title>
<path fill="none" stroke="midnightblue" d="M249.498,-253.579C261.76,-250.685 275.029,-247.552 287.813,-244.534"/>
<polygon fill="midnightblue" stroke="midnightblue" points="248.395,-250.243 239.467,-255.947 250.003,-257.056 248.395,-250.243"/>
</g>
<!-- Node4 -->
<g id="node4" class="node"><title>Node4</title>
<g id="a_node4"><a xlink:href="../../df/d5f/classlms7002__pnlTxTSP__view.html#af39e2c0515df4b15869c334e7e994f1f" target="_top" xlink:title="lms7002_pnlTxTSP_view\l::ParameterChangeHandler">
<polygon fill="white" stroke="black" points="453,-336.5 453,-366.5 588,-366.5 588,-336.5 453,-336.5"/>
<text text-anchor="start" x="461" y="-354.5" font-family="Helvetica,sans-Serif" font-size="10.00">lms7002_pnlTxTSP_view</text>
<text text-anchor="middle" x="520.5" y="-343.5" font-family="Helvetica,sans-Serif" font-size="10.00">::ParameterChangeHandler</text>
</a>
</g>
</g>
<!-- Node3&#45;&gt;Node4 -->
<g id="edge3" class="edge"><title>Node3&#45;&gt;Node4</title>
<path fill="none" stroke="midnightblue" d="M414.368,-320.467C432.154,-325.717 451.402,-331.399 468.509,-336.448"/>
<polygon fill="midnightblue" stroke="midnightblue" points="415.242,-317.076 404.66,-317.601 413.26,-323.789 415.242,-317.076"/>
</g>
<!-- Node5 -->
<g id="node5" class="node"><title>Node5</title>
<g id="a_node5"><a xlink:href="../../df/d5f/classlms7002__pnlTxTSP__view.html#af5aedf568953bcab213b8a2dfe1870b1" target="_top" xlink:title="lms7002_pnlTxTSP_view\l::UpdateGUI">
<polygon fill="white" stroke="black" points="456.5,-287.5 456.5,-317.5 584.5,-317.5 584.5,-287.5 456.5,-287.5"/>
<text text-anchor="start" x="464.5" y="-305.5" font-family="Helvetica,sans-Serif" font-size="10.00">lms7002_pnlTxTSP_view</text>
<text text-anchor="middle" x="520.5" y="-294.5" font-family="Helvetica,sans-Serif" font-size="10.00">::UpdateGUI</text>
</a>
</g>
</g>
<!-- Node3&#45;&gt;Node5 -->
<g id="edge4" class="edge"><title>Node3&#45;&gt;Node5</title>
<path fill="none" stroke="midnightblue" d="M426.907,-302.5C436.759,-302.5 446.793,-302.5 456.445,-302.5"/>
<polygon fill="midnightblue" stroke="midnightblue" points="426.731,-299 416.731,-302.5 426.731,-306 426.731,-299"/>
</g>
<!-- Node6 -->
<g id="node6" class="node"><title>Node6</title>
<g id="a_node6"><a xlink:href="../../df/d5f/classlms7002__pnlTxTSP__view.html#a3e06b0516f68b60615ba3b4ff1b64153" target="_top" xlink:title="lms7002_pnlTxTSP_view\l::onbtnGFIR1Coef">
<polygon fill="white" stroke="black" points="624.5,-416.5 624.5,-446.5 752.5,-446.5 752.5,-416.5 624.5,-416.5"/>
<text text-anchor="start" x="632.5" y="-434.5" font-family="Helvetica,sans-Serif" font-size="10.00">lms7002_pnlTxTSP_view</text>
<text text-anchor="middle" x="688.5" y="-423.5" font-family="Helvetica,sans-Serif" font-size="10.00">::onbtnGFIR1Coef</text>
</a>
</g>
</g>
<!-- Node5&#45;&gt;Node6 -->
<g id="edge5" class="edge"><title>Node5&#45;&gt;Node6</title>
<path fill="none" stroke="midnightblue" d="M584.018,-323.141C585.4,-324.206 586.731,-325.324 588,-326.5 616.604,-352.995 595.779,-379.597 624,-406.5 628.03,-410.342 632.721,-413.616 637.694,-416.402"/>
<polygon fill="midnightblue" stroke="midnightblue" points="585.895,-320.186 575.617,-317.614 582.048,-326.034 585.895,-320.186"/>
</g>
<!-- Node7 -->
<g id="node7" class="node"><title>Node7</title>
<g id="a_node7"><a xlink:href="../../df/d5f/classlms7002__pnlTxTSP__view.html#a6326c7ce611d17130beadd1ea66fac04" target="_top" xlink:title="lms7002_pnlTxTSP_view\l::onbtnGFIR2Coef">
<polygon fill="white" stroke="black" points="624.5,-367.5 624.5,-397.5 752.5,-397.5 752.5,-367.5 624.5,-367.5"/>
<text text-anchor="start" x="632.5" y="-385.5" font-family="Helvetica,sans-Serif" font-size="10.00">lms7002_pnlTxTSP_view</text>
<text text-anchor="middle" x="688.5" y="-374.5" font-family="Helvetica,sans-Serif" font-size="10.00">::onbtnGFIR2Coef</text>
</a>
</g>
</g>
<!-- Node5&#45;&gt;Node7 -->
<g id="edge6" class="edge"><title>Node5&#45;&gt;Node7</title>
<path fill="none" stroke="midnightblue" d="M579.067,-321.743C582.141,-323.243 585.138,-324.829 588,-326.5 606.232,-337.149 605.922,-346.59 624,-357.5 630.086,-361.173 636.808,-364.498 643.532,-367.435"/>
<polygon fill="midnightblue" stroke="midnightblue" points="580.236,-318.43 569.681,-317.503 577.354,-324.81 580.236,-318.43"/>
</g>
<!-- Node8 -->
<g id="node8" class="node"><title>Node8</title>
<g id="a_node8"><a xlink:href="../../df/d5f/classlms7002__pnlTxTSP__view.html#ae7ca31c0b5e960d5dea7822cf8161438" target="_top" xlink:title="lms7002_pnlTxTSP_view\l::onbtnGFIR3Coef">
<polygon fill="white" stroke="black" points="624.5,-318.5 624.5,-348.5 752.5,-348.5 752.5,-318.5 624.5,-318.5"/>
<text text-anchor="start" x="632.5" y="-336.5" font-family="Helvetica,sans-Serif" font-size="10.00">lms7002_pnlTxTSP_view</text>
<text text-anchor="middle" x="688.5" y="-325.5" font-family="Helvetica,sans-Serif" font-size="10.00">::onbtnGFIR3Coef</text>
</a>
</g>
</g>
<!-- Node5&#45;&gt;Node8 -->
<g id="edge7" class="edge"><title>Node5&#45;&gt;Node8</title>
<path fill="none" stroke="midnightblue" d="M594.596,-316.151C604.548,-318.009 614.691,-319.903 624.445,-321.725"/>
<polygon fill="midnightblue" stroke="midnightblue" points="595.204,-312.703 584.731,-314.308 593.919,-319.585 595.204,-312.703"/>
</g>
<!-- Node9 -->
<g id="node9" class="node"><title>Node9</title>
<g id="a_node9"><a xlink:href="../../df/d5f/classlms7002__pnlTxTSP__view.html#ab65a709233861b4e20d226c2a0f298f7" target="_top" xlink:title="lms7002_pnlTxTSP_view\l::OnbtnUploadNCOClick">
<polygon fill="white" stroke="black" points="624.5,-269.5 624.5,-299.5 752.5,-299.5 752.5,-269.5 624.5,-269.5"/>
<text text-anchor="start" x="632.5" y="-287.5" font-family="Helvetica,sans-Serif" font-size="10.00">lms7002_pnlTxTSP_view</text>
<text text-anchor="middle" x="688.5" y="-276.5" font-family="Helvetica,sans-Serif" font-size="10.00">::OnbtnUploadNCOClick</text>
</a>
</g>
</g>
<!-- Node5&#45;&gt;Node9 -->
<g id="edge8" class="edge"><title>Node5&#45;&gt;Node9</title>
<path fill="none" stroke="midnightblue" d="M594.907,-294.54C604.759,-293.472 614.793,-292.384 624.445,-291.337"/>
<polygon fill="midnightblue" stroke="midnightblue" points="594.295,-291.086 584.731,-295.644 595.05,-298.045 594.295,-291.086"/>
</g>
<!-- Node10 -->
<g id="node10" class="node"><title>Node10</title>
<g id="a_node10"><a xlink:href="../../d8/d3c/classlms7002__mainPanel.html#abb8c5306cebfa58d153414b6c1b50db9" target="_top" xlink:title="lms7002_mainPanel::\lUpdateVisiblePanel">
<polygon fill="white" stroke="black" points="633.5,-220.5 633.5,-250.5 743.5,-250.5 743.5,-220.5 633.5,-220.5"/>
<text text-anchor="start" x="641.5" y="-238.5" font-family="Helvetica,sans-Serif" font-size="10.00">lms7002_mainPanel::</text>
<text text-anchor="middle" x="688.5" y="-227.5" font-family="Helvetica,sans-Serif" font-size="10.00">UpdateVisiblePanel</text>
</a>
</g>
</g>
<!-- Node5&#45;&gt;Node10 -->
<g id="edge9" class="edge"><title>Node5&#45;&gt;Node10</title>
<path fill="none" stroke="midnightblue" d="M566.103,-283.379C584.036,-275.799 604.942,-267.096 624,-259.5 631.445,-256.533 639.414,-253.448 647.106,-250.519"/>
<polygon fill="midnightblue" stroke="midnightblue" points="564.318,-280.335 556.477,-287.461 567.05,-286.779 564.318,-280.335"/>
</g>
<!-- Node11 -->
<g id="node11" class="node"><title>Node11</title>
<g id="a_node11"><a xlink:href="../../d8/d3c/classlms7002__mainPanel.html#a44397c4b4ab5cfedcaf684f284955586" target="_top" xlink:title="lms7002_mainPanel::\lOnDownloadAll">
<polygon fill="white" stroke="black" points="820.5,-392.5 820.5,-422.5 930.5,-422.5 930.5,-392.5 820.5,-392.5"/>
<text text-anchor="start" x="828.5" y="-410.5" font-family="Helvetica,sans-Serif" font-size="10.00">lms7002_mainPanel::</text>
<text text-anchor="middle" x="875.5" y="-399.5" font-family="Helvetica,sans-Serif" font-size="10.00">OnDownloadAll</text>
</a>
</g>
</g>
<!-- Node10&#45;&gt;Node11 -->
<g id="edge10" class="edge"><title>Node10&#45;&gt;Node11</title>
<path fill="none" stroke="midnightblue" d="M750.172,-256.698C751.155,-257.594 752.099,-258.527 753,-259.5 791.705,-301.29 748.718,-342.228 789,-382.5 797.531,-391.029 808.801,-396.681 820.348,-400.418"/>
<polygon fill="midnightblue" stroke="midnightblue" points="752.086,-253.757 741.992,-250.538 747.876,-259.35 752.086,-253.757"/>
</g>
<!-- Node12 -->
<g id="node12" class="node"><title>Node12</title>
<g id="a_node12"><a xlink:href="../../d8/d3c/classlms7002__mainPanel.html#a43c4592235060266a985096ea4f3ecfb" target="_top" xlink:title="lms7002_mainPanel::\lOnEnableMIMOchecked">
<polygon fill="white" stroke="black" points="814,-343.5 814,-373.5 937,-373.5 937,-343.5 814,-343.5"/>
<text text-anchor="start" x="822" y="-361.5" font-family="Helvetica,sans-Serif" font-size="10.00">lms7002_mainPanel::</text>
<text text-anchor="middle" x="875.5" y="-350.5" font-family="Helvetica,sans-Serif" font-size="10.00">OnEnableMIMOchecked</text>
</a>
</g>
</g>
<!-- Node10&#45;&gt;Node12 -->
<g id="edge11" class="edge"><title>Node10&#45;&gt;Node12</title>
<path fill="none" stroke="midnightblue" d="M748.962,-256.142C750.363,-257.207 751.713,-258.326 753,-259.5 780.017,-284.153 761.056,-309.903 789,-333.5 796.208,-339.586 804.835,-344.192 813.796,-347.676"/>
<polygon fill="midnightblue" stroke="midnightblue" points="750.743,-253.125 740.453,-250.602 746.924,-258.991 750.743,-253.125"/>
</g>
<!-- Node13 -->
<g id="node13" class="node"><title>Node13</title>
<g id="a_node13"><a xlink:href="../../d8/d3c/classlms7002__mainPanel.html#a4de4742979a2f25a74dc4543b34a2ce2" target="_top" xlink:title="lms7002_mainPanel::\lOnLmsDeviceSelect">
<polygon fill="white" stroke="black" points="820.5,-294.5 820.5,-324.5 930.5,-324.5 930.5,-294.5 820.5,-294.5"/>
<text text-anchor="start" x="828.5" y="-312.5" font-family="Helvetica,sans-Serif" font-size="10.00">lms7002_mainPanel::</text>
<text text-anchor="middle" x="875.5" y="-301.5" font-family="Helvetica,sans-Serif" font-size="10.00">OnLmsDeviceSelect</text>
</a>
</g>
</g>
<!-- Node10&#45;&gt;Node13 -->
<g id="edge12" class="edge"><title>Node10&#45;&gt;Node13</title>
<path fill="none" stroke="midnightblue" d="M742.824,-254.536C746.31,-256.122 749.731,-257.781 753,-259.5 770.241,-268.567 771.424,-276.102 789,-284.5 798.768,-289.167 809.587,-293.151 820.151,-296.477"/>
<polygon fill="midnightblue" stroke="midnightblue" points="744.071,-251.263 733.503,-250.513 741.297,-257.689 744.071,-251.263"/>
</g>
<!-- Node14 -->
<g id="node14" class="node"><title>Node14</title>
<g id="a_node14"><a xlink:href="../../d8/d3c/classlms7002__mainPanel.html#a6102ca7439ecabfba330dae9de95b419" target="_top" xlink:title="lms7002_mainPanel::\lOnnotebook_modulesPageChanged">
<polygon fill="white" stroke="black" points="789,-245.5 789,-275.5 962,-275.5 962,-245.5 789,-245.5"/>
<text text-anchor="start" x="797" y="-263.5" font-family="Helvetica,sans-Serif" font-size="10.00">lms7002_mainPanel::</text>
<text text-anchor="middle" x="875.5" y="-252.5" font-family="Helvetica,sans-Serif" font-size="10.00">Onnotebook_modulesPageChanged</text>
</a>
</g>
</g>
<!-- Node10&#45;&gt;Node14 -->
<g id="edge13" class="edge"><title>Node10&#45;&gt;Node14</title>
<path fill="none" stroke="midnightblue" d="M753.701,-244.176C765.016,-245.705 776.956,-247.318 788.749,-248.912"/>
<polygon fill="midnightblue" stroke="midnightblue" points="753.886,-240.669 743.507,-242.798 752.948,-247.606 753.886,-240.669"/>
</g>
<!-- Node17 -->
<g id="node17" class="node"><title>Node17</title>
<g id="a_node17"><a xlink:href="../../d8/d3c/classlms7002__mainPanel.html#aa95a38c6fd2f0a119c940e0fe3a45e1a" target="_top" xlink:title="lms7002_mainPanel::\lOnSwitchToChannelA">
<polygon fill="white" stroke="black" points="819,-196.5 819,-226.5 932,-226.5 932,-196.5 819,-196.5"/>
<text text-anchor="start" x="827" y="-214.5" font-family="Helvetica,sans-Serif" font-size="10.00">lms7002_mainPanel::</text>
<text text-anchor="middle" x="875.5" y="-203.5" font-family="Helvetica,sans-Serif" font-size="10.00">OnSwitchToChannelA</text>
</a>
</g>
</g>
<!-- Node10&#45;&gt;Node17 -->
<g id="edge16" class="edge"><title>Node10&#45;&gt;Node17</title>
<path fill="none" stroke="midnightblue" d="M753.427,-227.207C774.704,-224.446 798.218,-221.396 818.819,-218.723"/>
<polygon fill="midnightblue" stroke="midnightblue" points="752.974,-223.736 743.507,-228.494 753.874,-230.678 752.974,-223.736"/>
</g>
<!-- Node18 -->
<g id="node18" class="node"><title>Node18</title>
<g id="a_node18"><a xlink:href="../../d8/d3c/classlms7002__mainPanel.html#a28dc31b61c070c31433142620232788c" target="_top" xlink:title="lms7002_mainPanel::\lOnSwitchToChannelB">
<polygon fill="white" stroke="black" points="819,-147.5 819,-177.5 932,-177.5 932,-147.5 819,-147.5"/>
<text text-anchor="start" x="827" y="-165.5" font-family="Helvetica,sans-Serif" font-size="10.00">lms7002_mainPanel::</text>
<text text-anchor="middle" x="875.5" y="-154.5" font-family="Helvetica,sans-Serif" font-size="10.00">OnSwitchToChannelB</text>
</a>
</g>
</g>
<!-- Node10&#45;&gt;Node18 -->
<g id="edge17" class="edge"><title>Node10&#45;&gt;Node18</title>
<path fill="none" stroke="midnightblue" d="M740.679,-216.461C744.898,-214.557 749.054,-212.562 753,-210.5 770.043,-201.594 771.528,-194.531 789,-186.5 798.386,-182.186 808.715,-178.486 818.851,-175.375"/>
<polygon fill="midnightblue" stroke="midnightblue" points="739.189,-213.292 731.399,-220.473 741.967,-219.717 739.189,-213.292"/>
</g>
<!-- Node19 -->
<g id="node19" class="node"><title>Node19</title>
<g id="a_node19"><a xlink:href="../../d8/d3c/classlms7002__mainPanel.html#a3acbef587578b6d24d5e8a9b8f79cbd8" target="_top" xlink:title="lms7002_mainPanel::\lOnUploadAll">
<polygon fill="white" stroke="black" points="820.5,-98.5 820.5,-128.5 930.5,-128.5 930.5,-98.5 820.5,-98.5"/>
<text text-anchor="start" x="828.5" y="-116.5" font-family="Helvetica,sans-Serif" font-size="10.00">lms7002_mainPanel::</text>
<text text-anchor="middle" x="875.5" y="-105.5" font-family="Helvetica,sans-Serif" font-size="10.00">OnUploadAll</text>
</a>
</g>
</g>
<!-- Node10&#45;&gt;Node19 -->
<g id="edge18" class="edge"><title>Node10&#45;&gt;Node19</title>
<path fill="none" stroke="midnightblue" d="M747.598,-214.919C749.49,-213.536 751.3,-212.064 753,-210.5 779.62,-186.005 761.173,-160.615 789,-137.5 797.895,-130.112 808.916,-124.992 820.055,-121.447"/>
<polygon fill="midnightblue" stroke="midnightblue" points="745.444,-212.139 738.852,-220.434 749.177,-218.06 745.444,-212.139"/>
</g>
<!-- Node20 -->
<g id="node20" class="node"><title>Node20</title>
<g id="a_node20"><a xlink:href="../../d8/d3c/classlms7002__mainPanel.html#a262803ea9a5a7a2c0e400d8ea921d66c" target="_top" xlink:title="lms7002_mainPanel::\lUpdateGUI">
<polygon fill="white" stroke="black" points="820.5,-49.5 820.5,-79.5 930.5,-79.5 930.5,-49.5 820.5,-49.5"/>
<text text-anchor="start" x="828.5" y="-67.5" font-family="Helvetica,sans-Serif" font-size="10.00">lms7002_mainPanel::</text>
<text text-anchor="middle" x="875.5" y="-56.5" font-family="Helvetica,sans-Serif" font-size="10.00">UpdateGUI</text>
</a>
</g>
</g>
<!-- Node10&#45;&gt;Node20 -->
<g id="edge19" class="edge"><title>Node10&#45;&gt;Node20</title>
<path fill="none" stroke="midnightblue" d="M749.147,-214.262C750.501,-213.075 751.79,-211.822 753,-210.5 791.176,-168.803 748.76,-128.209 789,-88.5 797.56,-80.0533 808.841,-74.5257 820.39,-70.9226"/>
<polygon fill="midnightblue" stroke="midnightblue" points="746.789,-211.65 740.775,-220.372 750.916,-217.304 746.789,-211.65"/>
</g>
<!-- Node15 -->
<g id="node15" class="node"><title>Node15</title>
<g id="a_node15"><a xlink:href="../../d8/d3c/classlms7002__mainPanel.html#aff2ae64c885239df71be67c69f9a2c81" target="_top" xlink:title="lms7002_mainPanel::\lOnLoadDefault">
<polygon fill="white" stroke="black" points="998,-269.5 998,-299.5 1108,-299.5 1108,-269.5 998,-269.5"/>
<text text-anchor="start" x="1006" y="-287.5" font-family="Helvetica,sans-Serif" font-size="10.00">lms7002_mainPanel::</text>
<text text-anchor="middle" x="1053" y="-276.5" font-family="Helvetica,sans-Serif" font-size="10.00">OnLoadDefault</text>
</a>
</g>
</g>
<!-- Node14&#45;&gt;Node15 -->
<g id="edge14" class="edge"><title>Node14&#45;&gt;Node15</title>
<path fill="none" stroke="midnightblue" d="M972.179,-273.584C980.999,-274.791 989.712,-275.982 997.957,-277.11"/>
<polygon fill="midnightblue" stroke="midnightblue" points="972.576,-270.106 962.194,-272.219 971.627,-277.041 972.576,-270.106"/>
</g>
<!-- Node16 -->
<g id="node16" class="node"><title>Node16</title>
<g id="a_node16"><a xlink:href="../../d8/d3c/classlms7002__mainPanel.html#ab702fe2f9725c2e7aade97270472ac9e" target="_top" xlink:title="lms7002_mainPanel::\lOnResetChip">
<polygon fill="white" stroke="black" points="998,-220.5 998,-250.5 1108,-250.5 1108,-220.5 998,-220.5"/>
<text text-anchor="start" x="1006" y="-238.5" font-family="Helvetica,sans-Serif" font-size="10.00">lms7002_mainPanel::</text>
<text text-anchor="middle" x="1053" y="-227.5" font-family="Helvetica,sans-Serif" font-size="10.00">OnResetChip</text>
</a>
</g>
</g>
<!-- Node14&#45;&gt;Node16 -->
<g id="edge15" class="edge"><title>Node14&#45;&gt;Node16</title>
<path fill="none" stroke="midnightblue" d="M972.179,-246.871C980.999,-245.614 989.712,-244.373 997.957,-243.198"/>
<polygon fill="midnightblue" stroke="midnightblue" points="971.6,-243.418 962.194,-248.293 972.587,-250.348 971.6,-243.418"/>
</g>
<!-- Node21 -->
<g id="node21" class="node"><title>Node21</title>
<g id="a_node21"><a xlink:href="../../d8/d3c/classlms7002__mainPanel.html#a38ef18df694e067998a0bbad1813a031" target="_top" xlink:title="lms7002_mainPanel::\lInitialize">
<polygon fill="white" stroke="black" points="998,-98.5 998,-128.5 1108,-128.5 1108,-98.5 998,-98.5"/>
<text text-anchor="start" x="1006" y="-116.5" font-family="Helvetica,sans-Serif" font-size="10.00">lms7002_mainPanel::</text>
<text text-anchor="middle" x="1053" y="-105.5" font-family="Helvetica,sans-Serif" font-size="10.00">Initialize</text>
</a>
</g>
</g>
<!-- Node20&#45;&gt;Node21 -->
<g id="edge20" class="edge"><title>Node20&#45;&gt;Node21</title>
<path fill="none" stroke="midnightblue" d="M940.329,-82.3212C959.278,-87.6118 979.838,-93.3522 998.091,-98.4484"/>
<polygon fill="midnightblue" stroke="midnightblue" points="941.161,-78.9196 930.588,-79.6014 939.278,-85.6618 941.161,-78.9196"/>
</g>
<!-- Node26 -->
<g id="node26" class="node"><title>Node26</title>
<g id="a_node26"><a xlink:href="../../d8/d3c/classlms7002__mainPanel.html#a7a90f8fb05946924fa257e8323bfdf45" target="_top" xlink:title="lms7002_mainPanel::\lOnNewProject">
<polygon fill="white" stroke="black" points="998,-49.5 998,-79.5 1108,-79.5 1108,-49.5 998,-49.5"/>
<text text-anchor="start" x="1006" y="-67.5" font-family="Helvetica,sans-Serif" font-size="10.00">lms7002_mainPanel::</text>
<text text-anchor="middle" x="1053" y="-56.5" font-family="Helvetica,sans-Serif" font-size="10.00">OnNewProject</text>
</a>
</g>
</g>
<!-- Node20&#45;&gt;Node26 -->
<g id="edge26" class="edge"><title>Node20&#45;&gt;Node26</title>
<path fill="none" stroke="midnightblue" d="M940.802,-64.5C959.515,-64.5 979.763,-64.5 997.789,-64.5"/>
<polygon fill="midnightblue" stroke="midnightblue" points="940.588,-61.0001 930.588,-64.5 940.588,-68.0001 940.588,-61.0001"/>
</g>
<!-- Node27 -->
<g id="node27" class="node"><title>Node27</title>
<g id="a_node27"><a xlink:href="../../d8/d3c/classlms7002__mainPanel.html#a6b98c7113ae45b9d23f5ccf747c56797" target="_top" xlink:title="lms7002_mainPanel::\lOnOpenProject">
<polygon fill="white" stroke="black" points="998,-0.5 998,-30.5 1108,-30.5 1108,-0.5 998,-0.5"/>
<text text-anchor="start" x="1006" y="-18.5" font-family="Helvetica,sans-Serif" font-size="10.00">lms7002_mainPanel::</text>
<text text-anchor="middle" x="1053" y="-7.5" font-family="Helvetica,sans-Serif" font-size="10.00">OnOpenProject</text>
</a>
</g>
</g>
<!-- Node20&#45;&gt;Node27 -->
<g id="edge27" class="edge"><title>Node20&#45;&gt;Node27</title>
<path fill="none" stroke="midnightblue" d="M940.329,-46.6788C959.278,-41.3882 979.838,-35.6478 998.091,-30.5516"/>
<polygon fill="midnightblue" stroke="midnightblue" points="939.278,-43.3382 930.588,-49.3986 941.161,-50.0804 939.278,-43.3382"/>
</g>
<!-- Node22 -->
<g id="node22" class="node"><title>Node22</title>
<g id="a_node22"><a xlink:href="../../d1/df3/classLMS7SuiteAppFrame.html#aeaeb613a8c9139f0e60b02f1f612ed5d" target="_top" xlink:title="LMS7SuiteAppFrame::\lUpdateConnections">
<polygon fill="white" stroke="black" points="1144,-98.5 1144,-128.5 1260,-128.5 1260,-98.5 1144,-98.5"/>
<text text-anchor="start" x="1152" y="-116.5" font-family="Helvetica,sans-Serif" font-size="10.00">LMS7SuiteAppFrame::</text>
<text text-anchor="middle" x="1202" y="-105.5" font-family="Helvetica,sans-Serif" font-size="10.00">UpdateConnections</text>
</a>
</g>
</g>
<!-- Node21&#45;&gt;Node22 -->
<g id="edge21" class="edge"><title>Node21&#45;&gt;Node22</title>
<path fill="none" stroke="midnightblue" d="M1118.53,-113.5C1127,-113.5 1135.62,-113.5 1143.95,-113.5"/>
<polygon fill="midnightblue" stroke="midnightblue" points="1118.32,-110 1108.32,-113.5 1118.32,-117 1118.32,-110"/>
</g>
<!-- Node23 -->
<g id="node23" class="node"><title>Node23</title>
<g id="a_node23"><a xlink:href="../../d1/df3/classLMS7SuiteAppFrame.html#ad380f4e547c66fcfffdec0da53fe5b3e" target="_top" xlink:title="Constructor. ">
<polygon fill="white" stroke="black" points="1467,-120.5 1467,-150.5 1583,-150.5 1583,-120.5 1467,-120.5"/>
<text text-anchor="start" x="1475" y="-138.5" font-family="Helvetica,sans-Serif" font-size="10.00">LMS7SuiteAppFrame::</text>
<text text-anchor="middle" x="1525" y="-127.5" font-family="Helvetica,sans-Serif" font-size="10.00">LMS7SuiteAppFrame</text>
</a>
</g>
</g>
<!-- Node22&#45;&gt;Node23 -->
<g id="edge22" class="edge"><title>Node22&#45;&gt;Node23</title>
<path fill="none" stroke="midnightblue" d="M1270.23,-118.108C1328.51,-122.102 1411.9,-127.817 1466.97,-131.592"/>
<polygon fill="midnightblue" stroke="midnightblue" points="1270.23,-114.6 1260.02,-117.408 1269.76,-121.583 1270.23,-114.6"/>
</g>
<!-- Node24 -->
<g id="node24" class="node"><title>Node24</title>
<g id="a_node24"><a xlink:href="../../d1/df3/classLMS7SuiteAppFrame.html#a819f017d3e706c433d9b7f4f9bc1f9c3" target="_top" xlink:title="LMS7SuiteAppFrame::\lOnControlBoardConnect">
<polygon fill="white" stroke="black" points="1296,-76.5 1296,-106.5 1419,-106.5 1419,-76.5 1296,-76.5"/>
<text text-anchor="start" x="1304" y="-94.5" font-family="Helvetica,sans-Serif" font-size="10.00">LMS7SuiteAppFrame::</text>
<text text-anchor="middle" x="1357.5" y="-83.5" font-family="Helvetica,sans-Serif" font-size="10.00">OnControlBoardConnect</text>
</a>
</g>
</g>
<!-- Node22&#45;&gt;Node24 -->
<g id="edge23" class="edge"><title>Node22&#45;&gt;Node24</title>
<path fill="none" stroke="midnightblue" d="M1270.14,-103.878C1278.73,-102.647 1287.48,-101.392 1295.95,-100.178"/>
<polygon fill="midnightblue" stroke="midnightblue" points="1269.56,-100.425 1260.16,-105.308 1270.55,-107.354 1269.56,-100.425"/>
</g>
<!-- Node24&#45;&gt;Node23 -->
<g id="edge24" class="edge"><title>Node24&#45;&gt;Node23</title>
<path fill="none" stroke="midnightblue" d="M1424.68,-109.094C1438.85,-112.863 1453.71,-116.812 1467.48,-120.474"/>
<polygon fill="midnightblue" stroke="midnightblue" points="1425.56,-105.706 1414.99,-106.519 1423.76,-112.471 1425.56,-105.706"/>
</g>
<!-- Node25 -->
<g id="node25" class="node"><title>Node25</title>
<g id="a_node25"><a xlink:href="../../d1/df3/classLMS7SuiteAppFrame.html#a08626f72855857180d80ab271f481d08" target="_top" xlink:title="LMS7SuiteAppFrame::\lOnShowConnectionSettings">
<polygon fill="white" stroke="black" points="1455,-71.5 1455,-101.5 1595,-101.5 1595,-71.5 1455,-71.5"/>
<text text-anchor="start" x="1463" y="-89.5" font-family="Helvetica,sans-Serif" font-size="10.00">LMS7SuiteAppFrame::</text>
<text text-anchor="middle" x="1525" y="-78.5" font-family="Helvetica,sans-Serif" font-size="10.00">OnShowConnectionSettings</text>
</a>
</g>
</g>
<!-- Node24&#45;&gt;Node25 -->
<g id="edge25" class="edge"><title>Node24&#45;&gt;Node25</title>
<path fill="none" stroke="midnightblue" d="M1429.4,-89.358C1437.86,-89.1024 1446.49,-88.8417 1454.93,-88.5868"/>
<polygon fill="midnightblue" stroke="midnightblue" points="1429.08,-85.8661 1419.19,-89.6666 1429.29,-92.8629 1429.08,-85.8661"/>
</g>
<!-- Node29 -->
<g id="node29" class="node"><title>Node29</title>
<g id="a_node29"><a xlink:href="../../df/d64/classlms7002__pnlRxTSP__view.html#ac6d013bd264e4eb32228c36818a6b111" target="_top" xlink:title="lms7002_pnlRxTSP_view\l::ParameterChangeHandler">
<polygon fill="white" stroke="black" points="453,-214.5 453,-244.5 588,-244.5 588,-214.5 453,-214.5"/>
<text text-anchor="start" x="461" y="-232.5" font-family="Helvetica,sans-Serif" font-size="10.00">lms7002_pnlRxTSP_view</text>
<text text-anchor="middle" x="520.5" y="-221.5" font-family="Helvetica,sans-Serif" font-size="10.00">::ParameterChangeHandler</text>
</a>
</g>
</g>
<!-- Node28&#45;&gt;Node29 -->
<g id="edge29" class="edge"><title>Node28&#45;&gt;Node29</title>
<path fill="none" stroke="midnightblue" d="M427.466,-229.5C435.949,-229.5 444.56,-229.5 452.938,-229.5"/>
<polygon fill="midnightblue" stroke="midnightblue" points="427.205,-226 417.205,-229.5 427.205,-233 427.205,-226"/>
</g>
<!-- Node30 -->
<g id="node30" class="node"><title>Node30</title>
<g id="a_node30"><a xlink:href="../../df/d64/classlms7002__pnlRxTSP__view.html#a4e800390b694e30eb492a4de0f209c19" target="_top" xlink:title="lms7002_pnlRxTSP_view\l::UpdateGUI">
<polygon fill="white" stroke="black" points="456,-153.5 456,-183.5 585,-183.5 585,-153.5 456,-153.5"/>
<text text-anchor="start" x="464" y="-171.5" font-family="Helvetica,sans-Serif" font-size="10.00">lms7002_pnlRxTSP_view</text>
<text text-anchor="middle" x="520.5" y="-160.5" font-family="Helvetica,sans-Serif" font-size="10.00">::UpdateGUI</text>
</a>
</g>
</g>
<!-- Node28&#45;&gt;Node30 -->
<g id="edge30" class="edge"><title>Node28&#45;&gt;Node30</title>
<path fill="none" stroke="midnightblue" d="M404.139,-210.892C428.025,-202.114 456.151,-191.779 478.651,-183.511"/>
<polygon fill="midnightblue" stroke="midnightblue" points="402.713,-207.687 394.534,-214.421 405.127,-214.257 402.713,-207.687"/>
</g>
<!-- Node30&#45;&gt;Node10 -->
<g id="edge35" class="edge"><title>Node30&#45;&gt;Node10</title>
<path fill="none" stroke="midnightblue" d="M567.479,-187.498C585.131,-194.75 605.48,-203.06 624,-210.5 632.026,-213.724 640.638,-217.142 648.849,-220.382"/>
<polygon fill="midnightblue" stroke="midnightblue" points="568.558,-184.158 557.978,-183.59 565.895,-190.631 568.558,-184.158"/>
</g>
<!-- Node31 -->
<g id="node31" class="node"><title>Node31</title>
<g id="a_node31"><a xlink:href="../../df/d64/classlms7002__pnlRxTSP__view.html#a4f9993eadcbf100d41ec805ba0a4a384" target="_top" xlink:title="lms7002_pnlRxTSP_view\l::onbtnGFIR1Coef">
<polygon fill="white" stroke="black" points="624,-171.5 624,-201.5 753,-201.5 753,-171.5 624,-171.5"/>
<text text-anchor="start" x="632" y="-189.5" font-family="Helvetica,sans-Serif" font-size="10.00">lms7002_pnlRxTSP_view</text>
<text text-anchor="middle" x="688.5" y="-178.5" font-family="Helvetica,sans-Serif" font-size="10.00">::onbtnGFIR1Coef</text>
</a>
</g>
</g>
<!-- Node30&#45;&gt;Node31 -->
<g id="edge31" class="edge"><title>Node30&#45;&gt;Node31</title>
<path fill="none" stroke="midnightblue" d="M595.444,-176.518C604.96,-177.55 614.636,-178.599 623.965,-179.611"/>
<polygon fill="midnightblue" stroke="midnightblue" points="595.524,-173.006 585.205,-175.408 594.77,-179.965 595.524,-173.006"/>
</g>
<!-- Node32 -->
<g id="node32" class="node"><title>Node32</title>
<g id="a_node32"><a xlink:href="../../df/d64/classlms7002__pnlRxTSP__view.html#a7a2aa039e3f41facc28795dd98482fef" target="_top" xlink:title="lms7002_pnlRxTSP_view\l::onbtnGFIR2Coef">
<polygon fill="white" stroke="black" points="624,-122.5 624,-152.5 753,-152.5 753,-122.5 624,-122.5"/>
<text text-anchor="start" x="632" y="-140.5" font-family="Helvetica,sans-Serif" font-size="10.00">lms7002_pnlRxTSP_view</text>
<text text-anchor="middle" x="688.5" y="-129.5" font-family="Helvetica,sans-Serif" font-size="10.00">::onbtnGFIR2Coef</text>
</a>
</g>
</g>
<!-- Node30&#45;&gt;Node32 -->
<g id="edge32" class="edge"><title>Node30&#45;&gt;Node32</title>
<path fill="none" stroke="midnightblue" d="M595.14,-154.748C604.754,-152.953 614.537,-151.126 623.965,-149.365"/>
<polygon fill="midnightblue" stroke="midnightblue" points="594.393,-151.327 585.205,-156.603 595.678,-158.208 594.393,-151.327"/>
</g>
<!-- Node33 -->
<g id="node33" class="node"><title>Node33</title>
<g id="a_node33"><a xlink:href="../../df/d64/classlms7002__pnlRxTSP__view.html#ab6eb405deb9b67960ff91d5e28b19f73" target="_top" xlink:title="lms7002_pnlRxTSP_view\l::onbtnGFIR3Coef">
<polygon fill="white" stroke="black" points="624,-73.5 624,-103.5 753,-103.5 753,-73.5 624,-73.5"/>
<text text-anchor="start" x="632" y="-91.5" font-family="Helvetica,sans-Serif" font-size="10.00">lms7002_pnlRxTSP_view</text>
<text text-anchor="middle" x="688.5" y="-80.5" font-family="Helvetica,sans-Serif" font-size="10.00">::onbtnGFIR3Coef</text>
</a>
</g>
</g>
<!-- Node30&#45;&gt;Node33 -->
<g id="edge33" class="edge"><title>Node30&#45;&gt;Node33</title>
<path fill="none" stroke="midnightblue" d="M555.57,-148.336C575.229,-137.097 600.617,-123.244 624,-112.5 630.747,-109.4 638.019,-106.372 645.148,-103.569"/>
<polygon fill="midnightblue" stroke="midnightblue" points="553.605,-145.429 546.691,-153.457 557.103,-151.493 553.605,-145.429"/>
</g>
<!-- Node34 -->
<g id="node34" class="node"><title>Node34</title>
<g id="a_node34"><a xlink:href="../../df/d64/classlms7002__pnlRxTSP__view.html#a009505fe644e44d48ec06d4699a4238c" target="_top" xlink:title="lms7002_pnlRxTSP_view\l::OnbtnUploadNCOClick">
<polygon fill="white" stroke="black" points="624,-24.5 624,-54.5 753,-54.5 753,-24.5 624,-24.5"/>
<text text-anchor="start" x="632" y="-42.5" font-family="Helvetica,sans-Serif" font-size="10.00">lms7002_pnlRxTSP_view</text>
<text text-anchor="middle" x="688.5" y="-31.5" font-family="Helvetica,sans-Serif" font-size="10.00">::OnbtnUploadNCOClick</text>
</a>
</g>
</g>
<!-- Node30&#45;&gt;Node34 -->
<g id="edge34" class="edge"><title>Node30&#45;&gt;Node34</title>
<path fill="none" stroke="midnightblue" d="M539.12,-145.219C557.907,-121.787 589.636,-85.9847 624,-63.5 629.128,-60.1445 634.793,-57.162 640.565,-54.5393"/>
<polygon fill="midnightblue" stroke="midnightblue" points="536.238,-143.222 532.803,-153.245 541.738,-147.551 536.238,-143.222"/>
</g>
</g>
</svg>
        <g id="navigator" transform="translate(0 0)" fill="#404254">
                <rect fill="#f2f5e9" fill-opacity="0.5" stroke="#606060" stroke-width=".5" x="0" y="0" width="60" height="60"/>
                <use id="zoomplus" xlink:href="#zoomPlus" x="17" y="9" onmousedown="handleZoom(evt,'in')"/>
                <use id="zoomminus" xlink:href="#zoomMin" x="42" y="9" onmousedown="handleZoom(evt,'out')"/>
                <use id="reset" xlink:href="#resetDef" x="30" y="36" onmousedown="handleReset()"/>
                <g id="arrowUp" xlink:href="#dirArrow" transform="translate(30 24)" onmousedown="handlePan(0,-1)">
                  <use xlink:href="#rim" fill="#404040">
                        <set attributeName="fill" to="#808080" begin="arrowUp.mouseover" end="arrowUp.mouseout"/>
                  </use>
                  <path fill="none" stroke="white" stroke-width="1.5" d="M0,-3.0v7 M-2.5,-0.5L0,-3.0L2.5,-0.5"/>
                </g>
                <g id="arrowRight" xlink:href="#dirArrow" transform="rotate(90) translate(36 -43)" onmousedown="handlePan(1,0)">
                  <use xlink:href="#rim" fill="#404040">
                        <set attributeName="fill" to="#808080" begin="arrowRight.mouseover" end="arrowRight.mouseout"/>
                  </use>
                  <path fill="none" stroke="white" stroke-width="1.5" d="M0,-3.0v7 M-2.5,-0.5L0,-3.0L2.5,-0.5"/>
                </g>
                <g id="arrowDown" xlink:href="#dirArrow" transform="rotate(180) translate(-30 -48)" onmousedown="handlePan(0,1)">
                  <use xlink:href="#rim" fill="#404040">
                        <set attributeName="fill" to="#808080" begin="arrowDown.mouseover" end="arrowDown.mouseout"/>
                  </use>
                  <path fill="none" stroke="white" stroke-width="1.5" d="M0,-3.0v7 M-2.5,-0.5L0,-3.0L2.5,-0.5"/>
                </g>
                <g id="arrowLeft" xlink:href="#dirArrow" transform="rotate(270) translate(-36 17)" onmousedown="handlePan(-1,0)">
                  <use xlink:href="#rim" fill="#404040">
                        <set attributeName="fill" to="#808080" begin="arrowLeft.mouseover" end="arrowLeft.mouseout"/>
                  </use>
                  <path fill="none" stroke="white" stroke-width="1.5" d="M0,-3.0v7 M-2.5,-0.5L0,-3.0L2.5,-0.5"/>
                </g>
        </g>
        <svg viewBox="0 0 15 15" width="100%" height="30px" preserveAspectRatio="xMaxYMin meet">
         <g id="arrow_out" transform="scale(0.3 0.3)">
          <a xlink:href="classlime_1_1LMS7__Device_a5d2dbfc35e5324985be6c6847128c356_icgraph_org.svg" target="_base">
           <rect id="button" ry="5" rx="5" y="6" x="6" height="38" width="38"
                fill="#f2f5e9" fill-opacity="0.5" stroke="#606060" stroke-width="1.0"/>
           <path id="arrow"
             d="M 11.500037,31.436501 C 11.940474,20.09759 22.043105,11.32322 32.158766,21.979434 L 37.068811,17.246167 C 37.068811,17.246167 37.088388,32 37.088388,32 L 22.160133,31.978069 C 22.160133,31.978069 26.997745,27.140456 26.997745,27.140456 C 18.528582,18.264221 13.291696,25.230495 11.500037,31.436501 z"
             style="fill:#404040;"/>
          </a>
         </g>
        </svg>
</svg>
