<?xml version="1.0" encoding="UTF-8" standalone="no"?>
<!DOCTYPE svg PUBLIC "-//W3C//DTD SVG 1.1//EN"
 "http://www.w3.org/Graphics/SVG/1.1/DTD/svg11.dtd">
<!-- Generated by graphviz version 2.38.0 (20140413.2041)
 -->
<!-- Title: lime::LMS7_Device::SelectChannel Pages: 1 -->
<svg width="562pt" height="522pt"
 viewBox="0.00 0.00 562.00 522.00" xmlns="http://www.w3.org/2000/svg" xmlns:xlink="http://www.w3.org/1999/xlink">
<g id="graph0" class="graph" transform="scale(1 1) rotate(0) translate(4 518)">
<title>lime::LMS7_Device::SelectChannel</title>
<polygon fill="white" stroke="none" points="-4,4 -4,-518 558,-518 558,4 -4,4"/>
<!-- Node1 -->
<g id="node1" class="node"><title>Node1</title>
<polygon fill="#bfbfbf" stroke="black" points="0,-220 0,-250 108,-250 108,-220 0,-220"/>
<text text-anchor="start" x="8" y="-238" font-family="Helvetica,sans-Serif" font-size="10.00">lime::LMS7_Device::</text>
<text text-anchor="middle" x="54" y="-227" font-family="Helvetica,sans-Serif" font-size="10.00">SelectChannel</text>
</g>
<!-- Node2 -->
<g id="node2" class="node"><title>Node2</title>
<g id="a_node2"><a xlink:href="../../d4/d67/lms_8c.html#a0e01e477b1f10e0a63e54de2dd2f8240" target="_top" xlink:title="lms">
<polygon fill="white" stroke="black" points="190.5,-247.5 190.5,-266.5 222.5,-266.5 222.5,-247.5 190.5,-247.5"/>
<text text-anchor="middle" x="206.5" y="-254.5" font-family="Helvetica,sans-Serif" font-size="10.00">lms</text>
</a>
</g>
</g>
<!-- Node1&#45;&gt;Node2 -->
<g id="edge1" class="edge"><title>Node1&#45;&gt;Node2</title>
<path fill="none" stroke="midnightblue" d="M108.061,-242.756C132.624,-246.347 160.652,-250.444 180.322,-253.32"/>
<polygon fill="midnightblue" stroke="midnightblue" points="179.914,-256.797 190.315,-254.78 180.927,-249.871 179.914,-256.797"/>
</g>
<!-- Node22 -->
<g id="node22" class="node"><title>Node22</title>
<g id="a_node22"><a xlink:href="../../db/d1d/classlime_1_1LMS7002M.html#afaf3843f7acef055ebbe0c0576ec8fee" target="_top" xlink:title="Change given parameter value. ">
<polygon fill="white" stroke="black" points="144,-198 144,-228 269,-228 269,-198 144,-198"/>
<text text-anchor="start" x="152" y="-216" font-family="Helvetica,sans-Serif" font-size="10.00">lime::LMS7002M::Modify</text>
<text text-anchor="middle" x="206.5" y="-205" font-family="Helvetica,sans-Serif" font-size="10.00">_SPI_Reg_bits</text>
</a>
</g>
</g>
<!-- Node1&#45;&gt;Node22 -->
<g id="edge24" class="edge"><title>Node1&#45;&gt;Node22</title>
<path fill="none" stroke="midnightblue" d="M108.061,-227.244C116.394,-226.025 125.126,-224.749 133.795,-223.482"/>
<polygon fill="midnightblue" stroke="midnightblue" points="134.527,-226.912 143.915,-222.002 133.514,-219.986 134.527,-226.912"/>
</g>
<!-- Node3 -->
<g id="node3" class="node"><title>Node3</title>
<g id="a_node3"><a xlink:href="../../d4/d67/lms_8c.html#a433227191fe883dcb8aa15d291bb29a1" target="_top" xlink:title="Case1F">
<polygon fill="white" stroke="black" points="313.5,-494.5 313.5,-513.5 364.5,-513.5 364.5,-494.5 313.5,-494.5"/>
<text text-anchor="middle" x="339" y="-501.5" font-family="Helvetica,sans-Serif" font-size="10.00">Case1F</text>
</a>
</g>
</g>
<!-- Node2&#45;&gt;Node3 -->
<g id="edge2" class="edge"><title>Node2&#45;&gt;Node3</title>
<path fill="none" stroke="midnightblue" d="M209.374,-266.867C216.291,-300.957 243.249,-415.474 305,-485 306.015,-486.143 307.116,-487.235 308.279,-488.275"/>
<polygon fill="midnightblue" stroke="midnightblue" points="306.473,-491.291 316.604,-494.391 310.618,-485.649 306.473,-491.291"/>
</g>
<!-- Node4 -->
<g id="node4" class="node"><title>Node4</title>
<g id="a_node4"><a xlink:href="../../d4/d67/lms_8c.html#ace0cd8bf61cb9b86b98f0cef03b5a9d9" target="_top" xlink:title="Case2F">
<polygon fill="white" stroke="black" points="313.5,-456.5 313.5,-475.5 364.5,-475.5 364.5,-456.5 313.5,-456.5"/>
<text text-anchor="middle" x="339" y="-463.5" font-family="Helvetica,sans-Serif" font-size="10.00">Case2F</text>
</a>
</g>
</g>
<!-- Node2&#45;&gt;Node4 -->
<g id="edge3" class="edge"><title>Node2&#45;&gt;Node4</title>
<path fill="none" stroke="midnightblue" d="M210.345,-266.866C219.497,-297.139 250.779,-390.096 305,-447 306.191,-448.25 307.483,-449.443 308.843,-450.578"/>
<polygon fill="midnightblue" stroke="midnightblue" points="306.949,-453.525 317.139,-456.424 310.981,-447.803 306.949,-453.525"/>
</g>
<!-- Node5 -->
<g id="node5" class="node"><title>Node5</title>
<g id="a_node5"><a xlink:href="../../d4/d67/lms_8c.html#a5f53b53ccc591e3643c4af2aee2e7f32" target="_top" xlink:title="Case3F">
<polygon fill="white" stroke="black" points="313.5,-418.5 313.5,-437.5 364.5,-437.5 364.5,-418.5 313.5,-418.5"/>
<text text-anchor="middle" x="339" y="-425.5" font-family="Helvetica,sans-Serif" font-size="10.00">Case3F</text>
</a>
</g>
</g>
<!-- Node2&#45;&gt;Node5 -->
<g id="edge4" class="edge"><title>Node2&#45;&gt;Node5</title>
<path fill="none" stroke="midnightblue" d="M211.686,-266.653C223.269,-292.478 258.024,-364.224 305,-409 306.283,-410.223 307.659,-411.398 309.095,-412.522"/>
<polygon fill="midnightblue" stroke="midnightblue" points="307.495,-415.666 317.737,-418.377 311.421,-409.87 307.495,-415.666"/>
</g>
<!-- Node6 -->
<g id="node6" class="node"><title>Node6</title>
<g id="a_node6"><a xlink:href="../../d4/d67/lms_8c.html#a5086763d5b258349bc13d6be7e7d0665" target="_top" xlink:title="Case4F">
<polygon fill="white" stroke="black" points="313.5,-380.5 313.5,-399.5 364.5,-399.5 364.5,-380.5 313.5,-380.5"/>
<text text-anchor="middle" x="339" y="-387.5" font-family="Helvetica,sans-Serif" font-size="10.00">Case4F</text>
</a>
</g>
</g>
<!-- Node2&#45;&gt;Node6 -->
<g id="edge5" class="edge"><title>Node2&#45;&gt;Node6</title>
<path fill="none" stroke="midnightblue" d="M213.918,-266.515C228.327,-287.373 265.123,-337.898 305,-371 306.564,-372.298 308.229,-373.559 309.947,-374.772"/>
<polygon fill="midnightblue" stroke="midnightblue" points="308.456,-377.972 318.769,-380.398 312.219,-372.07 308.456,-377.972"/>
</g>
<!-- Node7 -->
<g id="node7" class="node"><title>Node7</title>
<g id="a_node7"><a xlink:href="../../db/de5/recipes_8c.html#aee25e218394217a134e805ea09fb0fe9" target="_top" xlink:title="free_ivector">
<polygon fill="white" stroke="black" points="305,-342.5 305,-361.5 373,-361.5 373,-342.5 305,-342.5"/>
<text text-anchor="middle" x="339" y="-349.5" font-family="Helvetica,sans-Serif" font-size="10.00">free_ivector</text>
</a>
</g>
</g>
<!-- Node2&#45;&gt;Node7 -->
<g id="edge6" class="edge"><title>Node2&#45;&gt;Node7</title>
<path fill="none" stroke="midnightblue" d="M218.814,-266.667C236.593,-281.66 272.414,-311.075 305,-333 307.112,-334.421 309.335,-335.844 311.588,-337.237"/>
<polygon fill="midnightblue" stroke="midnightblue" points="309.869,-340.287 320.254,-342.388 313.446,-334.27 309.869,-340.287"/>
</g>
<!-- Node8 -->
<g id="node8" class="node"><title>Node8</title>
<g id="a_node8"><a xlink:href="../../db/de5/recipes_8c.html#a3e0d121b098c19c0bdc2429e5b9f1625" target="_top" xlink:title="free_matrix">
<polygon fill="white" stroke="black" points="306.5,-304.5 306.5,-323.5 371.5,-323.5 371.5,-304.5 306.5,-304.5"/>
<text text-anchor="middle" x="339" y="-311.5" font-family="Helvetica,sans-Serif" font-size="10.00">free_matrix</text>
</a>
</g>
</g>
<!-- Node2&#45;&gt;Node8 -->
<g id="edge7" class="edge"><title>Node2&#45;&gt;Node8</title>
<path fill="none" stroke="midnightblue" d="M222.725,-263.65C243.205,-272.595 280.115,-288.717 306.659,-300.311"/>
<polygon fill="midnightblue" stroke="midnightblue" points="305.354,-303.56 315.919,-304.355 308.156,-297.145 305.354,-303.56"/>
</g>
<!-- Node9 -->
<g id="node9" class="node"><title>Node9</title>
<g id="a_node9"><a xlink:href="../../db/de5/recipes_8c.html#a8214a52d888e820222c0382648329c0c" target="_top" xlink:title="free_vector">
<polygon fill="white" stroke="black" points="409,-247.5 409,-266.5 474,-266.5 474,-247.5 409,-247.5"/>
<text text-anchor="middle" x="441.5" y="-254.5" font-family="Helvetica,sans-Serif" font-size="10.00">free_vector</text>
</a>
</g>
</g>
<!-- Node2&#45;&gt;Node9 -->
<g id="edge8" class="edge"><title>Node2&#45;&gt;Node9</title>
<path fill="none" stroke="midnightblue" d="M222.788,-257C258.001,-257 345.841,-257 398.557,-257"/>
<polygon fill="midnightblue" stroke="midnightblue" points="398.606,-260.5 408.606,-257 398.606,-253.5 398.606,-260.5"/>
</g>
<!-- Node10 -->
<g id="node10" class="node"><title>Node10</title>
<g id="a_node10"><a xlink:href="../../d4/d67/lms_8c.html#ad1d6c875ff429888b51dd1155f0311ad" target="_top" xlink:title="ivector">
<polygon fill="white" stroke="black" points="316,-228.5 316,-247.5 362,-247.5 362,-228.5 316,-228.5"/>
<text text-anchor="middle" x="339" y="-235.5" font-family="Helvetica,sans-Serif" font-size="10.00">ivector</text>
</a>
</g>
</g>
<!-- Node2&#45;&gt;Node10 -->
<g id="edge9" class="edge"><title>Node2&#45;&gt;Node10</title>
<path fill="none" stroke="midnightblue" d="M222.725,-254.783C243.025,-251.828 279.469,-246.522 305.958,-242.665"/>
<polygon fill="midnightblue" stroke="midnightblue" points="306.528,-246.119 315.919,-241.215 305.519,-239.192 306.528,-246.119"/>
</g>
<!-- Node11 -->
<g id="node11" class="node"><title>Node11</title>
<g id="a_node11"><a xlink:href="../../db/de5/recipes_8c.html#a66ff65ad0355ec1f4a7722bcdafc8cd3" target="_top" xlink:title="lubksb">
<polygon fill="white" stroke="black" points="316.5,-190.5 316.5,-209.5 361.5,-209.5 361.5,-190.5 316.5,-190.5"/>
<text text-anchor="middle" x="339" y="-197.5" font-family="Helvetica,sans-Serif" font-size="10.00">lubksb</text>
</a>
</g>
</g>
<!-- Node2&#45;&gt;Node11 -->
<g id="edge10" class="edge"><title>Node2&#45;&gt;Node11</title>
<path fill="none" stroke="midnightblue" d="M222.686,-252.88C235.304,-249.264 253.613,-243.566 269,-237 277.465,-233.388 296.283,-223.243 312.131,-214.489"/>
<polygon fill="midnightblue" stroke="midnightblue" points="313.975,-217.469 321.019,-209.554 310.577,-211.348 313.975,-217.469"/>
</g>
<!-- Node12 -->
<g id="node12" class="node"><title>Node12</title>
<g id="a_node12"><a xlink:href="../../db/de5/recipes_8c.html#a623fec796d9d53e5e4a4d30226547da7" target="_top" xlink:title="ludcmp">
<polygon fill="white" stroke="black" points="315,-152.5 315,-171.5 363,-171.5 363,-152.5 315,-152.5"/>
<text text-anchor="middle" x="339" y="-159.5" font-family="Helvetica,sans-Serif" font-size="10.00">ludcmp</text>
</a>
</g>
</g>
<!-- Node2&#45;&gt;Node12 -->
<g id="edge11" class="edge"><title>Node2&#45;&gt;Node12</title>
<path fill="none" stroke="midnightblue" d="M222.75,-254.987C236.087,-252.585 255.397,-247.491 269,-237 292.43,-218.931 283.572,-201.404 305,-181 306.284,-179.778 307.66,-178.603 309.097,-177.479"/>
<polygon fill="midnightblue" stroke="midnightblue" points="311.423,-180.131 317.74,-171.626 307.497,-174.335 311.423,-180.131"/>
</g>
<!-- Node15 -->
<g id="node15" class="node"><title>Node15</title>
<g id="a_node15"><a xlink:href="../../d4/d67/lms_8c.html#a37bcb1539d76b53344102435e2ab9c91" target="_top" xlink:title="matrix">
<polygon fill="white" stroke="black" points="317,-114.5 317,-133.5 361,-133.5 361,-114.5 317,-114.5"/>
<text text-anchor="middle" x="339" y="-121.5" font-family="Helvetica,sans-Serif" font-size="10.00">matrix</text>
</a>
</g>
</g>
<!-- Node2&#45;&gt;Node15 -->
<g id="edge16" class="edge"><title>Node2&#45;&gt;Node15</title>
<path fill="none" stroke="midnightblue" d="M222.508,-255.751C236.242,-253.851 256.301,-249.063 269,-237 301.435,-206.189 275.939,-177.012 305,-143 306.122,-141.687 307.359,-140.444 308.675,-139.271"/>
<polygon fill="midnightblue" stroke="midnightblue" points="310.83,-142.031 316.839,-133.305 306.7,-136.379 310.83,-142.031"/>
</g>
<!-- Node16 -->
<g id="node16" class="node"><title>Node16</title>
<g id="a_node16"><a xlink:href="../../d8/d91/rounding_8c.html#aa8d7512cdf5bfbf811cef6a8a091c679" target="_top" xlink:title="round2csd">
<polygon fill="white" stroke="black" points="308,-76.5 308,-95.5 370,-95.5 370,-76.5 308,-76.5"/>
<text text-anchor="middle" x="339" y="-83.5" font-family="Helvetica,sans-Serif" font-size="10.00">round2csd</text>
</a>
</g>
</g>
<!-- Node2&#45;&gt;Node16 -->
<g id="edge17" class="edge"><title>Node2&#45;&gt;Node16</title>
<path fill="none" stroke="midnightblue" d="M222.523,-256.065C236.464,-254.392 256.839,-249.761 269,-237 310.951,-192.978 267.846,-153.139 305,-105 305.795,-103.97 306.663,-102.985 307.588,-102.046"/>
<polygon fill="midnightblue" stroke="midnightblue" points="309.894,-104.684 315.531,-95.7135 305.53,-99.2114 309.894,-104.684"/>
</g>
<!-- Node20 -->
<g id="node20" class="node"><title>Node20</title>
<g id="a_node20"><a xlink:href="../../d8/d91/rounding_8c.html#aca2670cc0fbf948a6b9cb670047c9d5b" target="_top" xlink:title="round2int">
<polygon fill="white" stroke="black" points="311,-38.5 311,-57.5 367,-57.5 367,-38.5 311,-38.5"/>
<text text-anchor="middle" x="339" y="-45.5" font-family="Helvetica,sans-Serif" font-size="10.00">round2int</text>
</a>
</g>
</g>
<!-- Node2&#45;&gt;Node20 -->
<g id="edge21" class="edge"><title>Node2&#45;&gt;Node20</title>
<path fill="none" stroke="midnightblue" d="M222.69,-256.22C236.752,-254.659 257.212,-250.106 269,-237 320.649,-179.58 259.591,-129.471 305,-67 305.765,-65.9472 306.608,-64.944 307.512,-63.9889"/>
<polygon fill="midnightblue" stroke="midnightblue" points="309.824,-66.6195 315.362,-57.587 305.4,-61.1947 309.824,-66.6195"/>
</g>
<!-- Node21 -->
<g id="node21" class="node"><title>Node21</title>
<g id="a_node21"><a xlink:href="../../d4/d67/lms_8c.html#ac81ca32708341eb34b25d515d00bc748" target="_top" xlink:title="vector">
<polygon fill="white" stroke="black" points="317,-0.5 317,-19.5 361,-19.5 361,-0.5 317,-0.5"/>
<text text-anchor="middle" x="339" y="-7.5" font-family="Helvetica,sans-Serif" font-size="10.00">vector</text>
</a>
</g>
</g>
<!-- Node2&#45;&gt;Node21 -->
<g id="edge23" class="edge"><title>Node2&#45;&gt;Node21</title>
<path fill="none" stroke="midnightblue" d="M222.531,-256.346C236.68,-254.884 257.385,-250.408 269,-237 330.43,-166.089 251.263,-105.905 305,-29 306.136,-27.3743 307.459,-25.8687 308.909,-24.4773"/>
<polygon fill="midnightblue" stroke="midnightblue" points="311.05,-27.2467 316.949,-18.446 306.85,-21.6472 311.05,-27.2467"/>
</g>
<!-- Node12&#45;&gt;Node9 -->
<g id="edge12" class="edge"><title>Node12&#45;&gt;Node9</title>
<path fill="none" stroke="midnightblue" d="M359.186,-171.656C363.9,-174.397 368.797,-177.577 373,-181 394.243,-198.301 414.546,-222.569 427.236,-238.991"/>
<polygon fill="midnightblue" stroke="midnightblue" points="424.633,-241.352 433.46,-247.212 430.214,-237.127 424.633,-241.352"/>
</g>
<!-- Node13 -->
<g id="node13" class="node"><title>Node13</title>
<g id="a_node13"><a xlink:href="../../db/de5/recipes_8c.html#a208e98f19b2f252315399d02c0594a46" target="_top" xlink:title="nrerror">
<polygon fill="white" stroke="black" points="510,-171.5 510,-190.5 554,-190.5 554,-171.5 510,-171.5"/>
<text text-anchor="middle" x="532" y="-178.5" font-family="Helvetica,sans-Serif" font-size="10.00">nrerror</text>
</a>
</g>
</g>
<!-- Node12&#45;&gt;Node13 -->
<g id="edge13" class="edge"><title>Node12&#45;&gt;Node13</title>
<path fill="none" stroke="midnightblue" d="M363.306,-170.1C376.528,-174.267 393.486,-178.903 409,-181 439.534,-185.127 474.761,-184.564 499.488,-183.308"/>
<polygon fill="midnightblue" stroke="midnightblue" points="499.944,-186.788 509.726,-182.718 499.541,-179.799 499.944,-186.788"/>
</g>
<!-- Node14 -->
<g id="node14" class="node"><title>Node14</title>
<g id="a_node14"><a xlink:href="../../db/de5/recipes_8c.html#a5e6092211a5f7e2d6ae9282379d3c604" target="_top" xlink:title="vector">
<polygon fill="white" stroke="black" points="419.5,-152.5 419.5,-171.5 463.5,-171.5 463.5,-152.5 419.5,-152.5"/>
<text text-anchor="middle" x="441.5" y="-159.5" font-family="Helvetica,sans-Serif" font-size="10.00">vector</text>
</a>
</g>
</g>
<!-- Node12&#45;&gt;Node14 -->
<g id="edge14" class="edge"><title>Node12&#45;&gt;Node14</title>
<path fill="none" stroke="midnightblue" d="M363.057,-162C376.673,-162 394.102,-162 408.977,-162"/>
<polygon fill="midnightblue" stroke="midnightblue" points="409.265,-165.5 419.265,-162 409.265,-158.5 409.265,-165.5"/>
</g>
<!-- Node14&#45;&gt;Node13 -->
<g id="edge15" class="edge"><title>Node14&#45;&gt;Node13</title>
<path fill="none" stroke="midnightblue" d="M463.923,-166.599C474.685,-168.91 487.928,-171.753 499.796,-174.301"/>
<polygon fill="midnightblue" stroke="midnightblue" points="499.262,-177.766 509.774,-176.443 500.731,-170.922 499.262,-177.766"/>
</g>
<!-- Node17 -->
<g id="node17" class="node"><title>Node17</title>
<g id="a_node17"><a xlink:href="../../d8/d91/rounding_8c.html#a2cff6b77e73872659c44b0c99f6bd97f" target="_top" xlink:title="csd2int">
<polygon fill="white" stroke="black" points="417.5,-114.5 417.5,-133.5 465.5,-133.5 465.5,-114.5 417.5,-114.5"/>
<text text-anchor="middle" x="441.5" y="-121.5" font-family="Helvetica,sans-Serif" font-size="10.00">csd2int</text>
</a>
</g>
</g>
<!-- Node16&#45;&gt;Node17 -->
<g id="edge18" class="edge"><title>Node16&#45;&gt;Node17</title>
<path fill="none" stroke="midnightblue" d="M365.36,-95.589C378.181,-100.437 393.894,-106.378 407.631,-111.572"/>
<polygon fill="midnightblue" stroke="midnightblue" points="406.623,-114.933 417.214,-115.195 409.099,-108.385 406.623,-114.933"/>
</g>
<!-- Node18 -->
<g id="node18" class="node"><title>Node18</title>
<g id="a_node18"><a xlink:href="../../db/d82/wglew_8h.html#a500a82aecba06f4550f6849b8099ca21" target="_top" xlink:title="int">
<polygon fill="white" stroke="black" points="427,-38.5 427,-57.5 456,-57.5 456,-38.5 427,-38.5"/>
<text text-anchor="middle" x="441.5" y="-45.5" font-family="Helvetica,sans-Serif" font-size="10.00">int</text>
</a>
</g>
</g>
<!-- Node16&#45;&gt;Node18 -->
<g id="edge19" class="edge"><title>Node16&#45;&gt;Node18</title>
<path fill="none" stroke="midnightblue" d="M365.36,-76.411C381.388,-70.3509 401.934,-62.582 417.49,-56.7003"/>
<polygon fill="midnightblue" stroke="midnightblue" points="418.778,-59.9552 426.894,-53.1446 416.302,-53.4076 418.778,-59.9552"/>
</g>
<!-- Node19 -->
<g id="node19" class="node"><title>Node19</title>
<g id="a_node19"><a xlink:href="../../d8/d91/rounding_8c.html#ab3a64ec72c5600bc114621e93309c8c3" target="_top" xlink:title="int2csd">
<polygon fill="white" stroke="black" points="417.5,-76.5 417.5,-95.5 465.5,-95.5 465.5,-76.5 417.5,-76.5"/>
<text text-anchor="middle" x="441.5" y="-83.5" font-family="Helvetica,sans-Serif" font-size="10.00">int2csd</text>
</a>
</g>
</g>
<!-- Node16&#45;&gt;Node19 -->
<g id="edge20" class="edge"><title>Node16&#45;&gt;Node19</title>
<path fill="none" stroke="midnightblue" d="M370.153,-86C381.87,-86 395.331,-86 407.321,-86"/>
<polygon fill="midnightblue" stroke="midnightblue" points="407.398,-89.5001 417.398,-86 407.398,-82.5001 407.398,-89.5001"/>
</g>
<!-- Node20&#45;&gt;Node18 -->
<g id="edge22" class="edge"><title>Node20&#45;&gt;Node18</title>
<path fill="none" stroke="midnightblue" d="M367.197,-48C382.576,-48 401.634,-48 416.462,-48"/>
<polygon fill="midnightblue" stroke="midnightblue" points="416.846,-51.5001 426.846,-48 416.846,-44.5001 416.846,-51.5001"/>
</g>
</g>
</svg>
