<?xml version="1.0" encoding="UTF-8" standalone="no"?>
<!DOCTYPE svg PUBLIC "-//W3C//DTD SVG 1.1//EN"
 "http://www.w3.org/Graphics/SVG/1.1/DTD/svg11.dtd">
<!-- Generated by graphviz version 2.38.0 (20140413.2041)
 -->
<!-- Title: lime::LMS7_Device::GetGainRange Pages: 1 -->
<svg width="364pt" height="104pt"
 viewBox="0.00 0.00 364.00 104.00" xmlns="http://www.w3.org/2000/svg" xmlns:xlink="http://www.w3.org/1999/xlink">
<g id="graph0" class="graph" transform="scale(1 1) rotate(0) translate(4 100)">
<title>lime::LMS7_Device::GetGainRange</title>
<polygon fill="white" stroke="none" points="-4,4 -4,-100 360,-100 360,4 -4,4"/>
<!-- Node1 -->
<g id="node1" class="node"><title>Node1</title>
<polygon fill="#bfbfbf" stroke="black" points="0,-33 0,-63 108,-63 108,-33 0,-33"/>
<text text-anchor="start" x="8" y="-51" font-family="Helvetica,sans-Serif" font-size="10.00">lime::LMS7_Device::</text>
<text text-anchor="middle" x="54" y="-40" font-family="Helvetica,sans-Serif" font-size="10.00">GetGainRange</text>
</g>
<!-- Node2 -->
<g id="node2" class="node"><title>Node2</title>
<g id="a_node2"><a xlink:href="../../d9/d90/classSoapyLMS7.html#aec20c5a7ba0d60958cfcf053de416edc" target="_top" xlink:title="SoapyLMS7::getGainRange">
<polygon fill="white" stroke="black" points="144,-76.5 144,-95.5 282,-95.5 282,-76.5 144,-76.5"/>
<text text-anchor="middle" x="213" y="-83.5" font-family="Helvetica,sans-Serif" font-size="10.00">SoapyLMS7::getGainRange</text>
</a>
</g>
</g>
<!-- Node1&#45;&gt;Node2 -->
<g id="edge1" class="edge"><title>Node1&#45;&gt;Node2</title>
<path fill="none" stroke="midnightblue" d="M117.912,-63.2271C136.271,-67.6707 155.815,-72.4011 172.306,-76.3926"/>
<polygon fill="midnightblue" stroke="midnightblue" points="118.696,-59.8158 108.153,-60.8651 117.049,-66.6194 118.696,-59.8158"/>
</g>
<!-- Node3 -->
<g id="node3" class="node"><title>Node3</title>
<g id="a_node3"><a xlink:href="../../df/de1/lms7__api_8cpp.html#a8f560ebdc5a13f2337926acbe13a4120" target="_top" xlink:title="LMS_GetNormalizedGain">
<polygon fill="white" stroke="black" points="149,-38.5 149,-57.5 277,-57.5 277,-38.5 149,-38.5"/>
<text text-anchor="middle" x="213" y="-45.5" font-family="Helvetica,sans-Serif" font-size="10.00">LMS_GetNormalizedGain</text>
</a>
</g>
</g>
<!-- Node1&#45;&gt;Node3 -->
<g id="edge2" class="edge"><title>Node1&#45;&gt;Node3</title>
<path fill="none" stroke="midnightblue" d="M118.448,-48C128.473,-48 138.838,-48 148.856,-48"/>
<polygon fill="midnightblue" stroke="midnightblue" points="118.153,-44.5001 108.153,-48 118.153,-51.5001 118.153,-44.5001"/>
</g>
<!-- Node5 -->
<g id="node5" class="node"><title>Node5</title>
<g id="a_node5"><a xlink:href="../../df/de1/lms7__api_8cpp.html#ad56e10da5335c7c8f74e31dd85d1e288" target="_top" xlink:title="LMS_SetNormalizedGain">
<polygon fill="white" stroke="black" points="149.5,-0.5 149.5,-19.5 276.5,-19.5 276.5,-0.5 149.5,-0.5"/>
<text text-anchor="middle" x="213" y="-7.5" font-family="Helvetica,sans-Serif" font-size="10.00">LMS_SetNormalizedGain</text>
</a>
</g>
</g>
<!-- Node1&#45;&gt;Node5 -->
<g id="edge4" class="edge"><title>Node1&#45;&gt;Node5</title>
<path fill="none" stroke="midnightblue" d="M117.912,-32.7729C136.271,-28.3293 155.815,-23.5989 172.306,-19.6074"/>
<polygon fill="midnightblue" stroke="midnightblue" points="117.049,-29.3806 108.153,-35.1349 118.696,-36.1842 117.049,-29.3806"/>
</g>
<!-- Node4 -->
<g id="node4" class="node"><title>Node4</title>
<g id="a_node4"><a xlink:href="../../d1/d1f/singleRX_8cpp.html#a3c04138a5bfe5d72780bb7e82a18e627" target="_top" xlink:title="main">
<polygon fill="white" stroke="black" points="318,-38.5 318,-57.5 356,-57.5 356,-38.5 318,-38.5"/>
<text text-anchor="middle" x="337" y="-45.5" font-family="Helvetica,sans-Serif" font-size="10.00">main</text>
</a>
</g>
</g>
<!-- Node3&#45;&gt;Node4 -->
<g id="edge3" class="edge"><title>Node3&#45;&gt;Node4</title>
<path fill="none" stroke="midnightblue" d="M287.271,-48C298.668,-48 309.469,-48 317.992,-48"/>
<polygon fill="midnightblue" stroke="midnightblue" points="287.144,-44.5001 277.144,-48 287.144,-51.5001 287.144,-44.5001"/>
</g>
<!-- Node6 -->
<g id="node6" class="node"><title>Node6</title>
<g id="a_node6"><a xlink:href="../../d2/db0/basicTX_8cpp.html#a3c04138a5bfe5d72780bb7e82a18e627" target="_top" xlink:title="main">
<polygon fill="white" stroke="black" points="318,-0.5 318,-19.5 356,-19.5 356,-0.5 318,-0.5"/>
<text text-anchor="middle" x="337" y="-7.5" font-family="Helvetica,sans-Serif" font-size="10.00">main</text>
</a>
</g>
</g>
<!-- Node5&#45;&gt;Node6 -->
<g id="edge5" class="edge"><title>Node5&#45;&gt;Node6</title>
<path fill="none" stroke="midnightblue" d="M286.96,-10C298.413,-10 309.281,-10 317.862,-10"/>
<polygon fill="midnightblue" stroke="midnightblue" points="286.787,-6.5001 276.787,-10 286.787,-13.5001 286.787,-6.5001"/>
</g>
</g>
</svg>
