<?xml version="1.0" encoding="UTF-8" standalone="no"?>
<!DOCTYPE svg PUBLIC "-//W3C//DTD SVG 1.1//EN"
 "http://www.w3.org/Graphics/SVG/1.1/DTD/svg11.dtd">
<!-- Generated by graphviz version 2.38.0 (20140413.2041)
 -->
<!-- Title: lime::LMS7_Device::GetPath Pages: 1 -->
<svg width="351pt" height="66pt"
 viewBox="0.00 0.00 351.00 66.00" xmlns="http://www.w3.org/2000/svg" xmlns:xlink="http://www.w3.org/1999/xlink">
<g id="graph0" class="graph" transform="scale(1 1) rotate(0) translate(4 62)">
<title>lime::LMS7_Device::GetPath</title>
<polygon fill="white" stroke="none" points="-4,4 -4,-62 347,-62 347,4 -4,4"/>
<!-- Node1 -->
<g id="node1" class="node"><title>Node1</title>
<polygon fill="#bfbfbf" stroke="black" points="0,-14 0,-44 108,-44 108,-14 0,-14"/>
<text text-anchor="start" x="8" y="-32" font-family="Helvetica,sans-Serif" font-size="10.00">lime::LMS7_Device::</text>
<text text-anchor="middle" x="54" y="-21" font-family="Helvetica,sans-Serif" font-size="10.00">GetPath</text>
</g>
<!-- Node2 -->
<g id="node2" class="node"><title>Node2</title>
<g id="a_node2"><a xlink:href="../../d9/d90/classSoapyLMS7.html#a190a811cd4c25c6e2e52e9bc4af5c526" target="_top" xlink:title="SoapyLMS7::getAntenna">
<polygon fill="white" stroke="black" points="144,-38.5 144,-57.5 269,-57.5 269,-38.5 144,-38.5"/>
<text text-anchor="middle" x="206.5" y="-45.5" font-family="Helvetica,sans-Serif" font-size="10.00">SoapyLMS7::getAntenna</text>
</a>
</g>
</g>
<!-- Node1&#45;&gt;Node2 -->
<g id="edge1" class="edge"><title>Node1&#45;&gt;Node2</title>
<path fill="none" stroke="midnightblue" d="M117.999,-36.9533C126.573,-38.0358 135.366,-39.1459 143.915,-40.2252"/>
<polygon fill="midnightblue" stroke="midnightblue" points="118.42,-33.4789 108.061,-35.6987 117.544,-40.4237 118.42,-33.4789"/>
</g>
<!-- Node3 -->
<g id="node3" class="node"><title>Node3</title>
<g id="a_node3"><a xlink:href="../../df/de1/lms7__api_8cpp.html#a619495ec9963b6c399dc4ab7ec0ac929" target="_top" xlink:title="LMS_GetAntenna">
<polygon fill="white" stroke="black" points="159.5,-0.5 159.5,-19.5 253.5,-19.5 253.5,-0.5 159.5,-0.5"/>
<text text-anchor="middle" x="206.5" y="-7.5" font-family="Helvetica,sans-Serif" font-size="10.00">LMS_GetAntenna</text>
</a>
</g>
</g>
<!-- Node1&#45;&gt;Node3 -->
<g id="edge2" class="edge"><title>Node1&#45;&gt;Node3</title>
<path fill="none" stroke="midnightblue" d="M118.035,-21.042C131.911,-19.2903 146.355,-17.4668 159.414,-15.8182"/>
<polygon fill="midnightblue" stroke="midnightblue" points="117.544,-17.5763 108.061,-22.3013 118.42,-24.5211 117.544,-17.5763"/>
</g>
<!-- Node4 -->
<g id="node4" class="node"><title>Node4</title>
<g id="a_node4"><a xlink:href="../../d1/d1f/singleRX_8cpp.html#a3c04138a5bfe5d72780bb7e82a18e627" target="_top" xlink:title="main">
<polygon fill="white" stroke="black" points="305,-0.5 305,-19.5 343,-19.5 343,-0.5 305,-0.5"/>
<text text-anchor="middle" x="324" y="-7.5" font-family="Helvetica,sans-Serif" font-size="10.00">main</text>
</a>
</g>
</g>
<!-- Node3&#45;&gt;Node4 -->
<g id="edge3" class="edge"><title>Node3&#45;&gt;Node4</title>
<path fill="none" stroke="midnightblue" d="M264.023,-10C278.866,-10 293.816,-10 304.951,-10"/>
<polygon fill="midnightblue" stroke="midnightblue" points="263.813,-6.5001 253.813,-10 263.813,-13.5001 263.813,-6.5001"/>
</g>
</g>
</svg>
