<?xml version="1.0" encoding="UTF-8" standalone="no"?>
<!DOCTYPE svg PUBLIC "-//W3C//DTD SVG 1.1//EN"
 "http://www.w3.org/Graphics/SVG/1.1/DTD/svg11.dtd">
<!-- Generated by graphviz version 2.38.0 (20140413.2041)
 -->
<!-- Title: lime::LMS7_Device::GetRate Pages: 1 -->
<svg width="1339pt" height="435pt"
 viewBox="0.00 0.00 1339.00 434.50" xmlns="http://www.w3.org/2000/svg" xmlns:xlink="http://www.w3.org/1999/xlink">
<g id="graph0" class="graph" transform="scale(1 1) rotate(0) translate(4 430.5)">
<title>lime::LMS7_Device::GetRate</title>
<polygon fill="white" stroke="none" points="-4,4 -4,-430.5 1335,-430.5 1335,4 -4,4"/>
<!-- Node1 -->
<g id="node1" class="node"><title>Node1</title>
<polygon fill="#bfbfbf" stroke="black" points="0,-202 0,-232 108,-232 108,-202 0,-202"/>
<text text-anchor="start" x="8" y="-220" font-family="Helvetica,sans-Serif" font-size="10.00">lime::LMS7_Device::</text>
<text text-anchor="middle" x="54" y="-209" font-family="Helvetica,sans-Serif" font-size="10.00">GetRate</text>
</g>
<!-- Node2 -->
<g id="node2" class="node"><title>Node2</title>
<g id="a_node2"><a xlink:href="../../d2/d1f/classlime_1_1LMS7__qLimeSDR.html#adfa866da4d840cee5e24e16aa4480f5c" target="_top" xlink:title="lime::LMS7_qLimeSDR\l::GetRate">
<polygon fill="white" stroke="black" points="156,-284 156,-314 275,-314 275,-284 156,-284"/>
<text text-anchor="start" x="164" y="-302" font-family="Helvetica,sans-Serif" font-size="10.00">lime::LMS7_qLimeSDR</text>
<text text-anchor="middle" x="215.5" y="-291" font-family="Helvetica,sans-Serif" font-size="10.00">::GetRate</text>
</a>
</g>
</g>
<!-- Node1&#45;&gt;Node2 -->
<g id="edge1" class="edge"><title>Node1&#45;&gt;Node2</title>
<path fill="none" stroke="midnightblue" d="M83.7847,-237.828C100.748,-249.483 122.949,-263.696 144,-274 151.348,-277.597 159.349,-280.938 167.237,-283.93"/>
<polygon fill="midnightblue" stroke="midnightblue" points="85.6305,-234.849 75.4256,-232.001 81.6273,-240.591 85.6305,-234.849"/>
</g>
<!-- Node3 -->
<g id="node3" class="node"><title>Node3</title>
<g id="a_node3"><a xlink:href="../../d9/d90/classSoapyLMS7.html#a52534328b845b4b16b750fab2ff016aa" target="_top" xlink:title="SoapyLMS7::getSampleRate">
<polygon fill="white" stroke="black" points="144,-245.5 144,-264.5 287,-264.5 287,-245.5 144,-245.5"/>
<text text-anchor="middle" x="215.5" y="-252.5" font-family="Helvetica,sans-Serif" font-size="10.00">SoapyLMS7::getSampleRate</text>
</a>
</g>
</g>
<!-- Node1&#45;&gt;Node3 -->
<g id="edge2" class="edge"><title>Node1&#45;&gt;Node3</title>
<path fill="none" stroke="midnightblue" d="M117.927,-231.992C136.979,-236.531 157.373,-241.39 174.488,-245.467"/>
<polygon fill="midnightblue" stroke="midnightblue" points="118.65,-228.566 108.111,-229.653 117.028,-235.376 118.65,-228.566"/>
</g>
<!-- Node4 -->
<g id="node4" class="node"><title>Node4</title>
<g id="a_node4"><a xlink:href="../../df/de1/lms7__api_8cpp.html#a558a76ff122d71bfe6af57262ea8ed0f" target="_top" xlink:title="LMS_GetSampleRate">
<polygon fill="white" stroke="black" points="159.5,-207.5 159.5,-226.5 271.5,-226.5 271.5,-207.5 159.5,-207.5"/>
<text text-anchor="middle" x="215.5" y="-214.5" font-family="Helvetica,sans-Serif" font-size="10.00">LMS_GetSampleRate</text>
</a>
</g>
</g>
<!-- Node1&#45;&gt;Node4 -->
<g id="edge3" class="edge"><title>Node1&#45;&gt;Node4</title>
<path fill="none" stroke="midnightblue" d="M118.347,-217C131.937,-217 146.192,-217 159.438,-217"/>
<polygon fill="midnightblue" stroke="midnightblue" points="118.111,-213.5 108.111,-217 118.111,-220.5 118.111,-213.5"/>
</g>
<!-- Node19 -->
<g id="node19" class="node"><title>Node19</title>
<g id="a_node19"><a xlink:href="../../d1/db7/classlime_1_1LMS7__LimeSDR__mini.html#ac7f853abcf5aca54d8e0ef6507a5e637" target="_top" xlink:title="lime::LMS7_LimeSDR\l_mini::SetFrequency">
<polygon fill="white" stroke="black" points="158.5,-156 158.5,-186 272.5,-186 272.5,-156 158.5,-156"/>
<text text-anchor="start" x="166.5" y="-174" font-family="Helvetica,sans-Serif" font-size="10.00">lime::LMS7_LimeSDR</text>
<text text-anchor="middle" x="215.5" y="-163" font-family="Helvetica,sans-Serif" font-size="10.00">_mini::SetFrequency</text>
</a>
</g>
</g>
<!-- Node1&#45;&gt;Node19 -->
<g id="edge21" class="edge"><title>Node1&#45;&gt;Node19</title>
<path fill="none" stroke="midnightblue" d="M116.953,-199.133C131.985,-194.798 147.906,-190.206 162.429,-186.017"/>
<polygon fill="midnightblue" stroke="midnightblue" points="115.865,-195.804 107.226,-201.938 117.805,-202.53 115.865,-195.804"/>
</g>
<!-- Node21 -->
<g id="node21" class="node"><title>Node21</title>
<g id="a_node21"><a xlink:href="../../d3/d22/classlime_1_1LMS7__Device.html#aba236365361e938ff19f3b93302e38ce" target="_top" xlink:title="lime::LMS7_Device::\lSetFrequency">
<polygon fill="white" stroke="black" points="161.5,-89 161.5,-119 269.5,-119 269.5,-89 161.5,-89"/>
<text text-anchor="start" x="169.5" y="-107" font-family="Helvetica,sans-Serif" font-size="10.00">lime::LMS7_Device::</text>
<text text-anchor="middle" x="215.5" y="-96" font-family="Helvetica,sans-Serif" font-size="10.00">SetFrequency</text>
</a>
</g>
</g>
<!-- Node1&#45;&gt;Node21 -->
<g id="edge23" class="edge"><title>Node1&#45;&gt;Node21</title>
<path fill="none" stroke="midnightblue" d="M80.517,-195.112C97.9347,-180.558 121.791,-161.368 144,-146 157.824,-136.434 173.883,-126.763 187.179,-119.116"/>
<polygon fill="midnightblue" stroke="midnightblue" points="77.9138,-192.728 72.5191,-201.847 82.4227,-198.083 77.9138,-192.728"/>
</g>
<!-- Node5 -->
<g id="node5" class="node"><title>Node5</title>
<g id="a_node5"><a xlink:href="../../d5/d92/classpnlQSpark.html#a240f40e2967cfd78e5609101c28b3463" target="_top" xlink:title="pnlQSpark::Initialize">
<polygon fill="white" stroke="black" points="338.5,-289.5 338.5,-308.5 442.5,-308.5 442.5,-289.5 338.5,-289.5"/>
<text text-anchor="middle" x="390.5" y="-296.5" font-family="Helvetica,sans-Serif" font-size="10.00">pnlQSpark::Initialize</text>
</a>
</g>
</g>
<!-- Node4&#45;&gt;Node5 -->
<g id="edge4" class="edge"><title>Node4&#45;&gt;Node5</title>
<path fill="none" stroke="midnightblue" d="M276.945,-230.49C280.451,-232.123 283.834,-233.952 287,-236 308.215,-249.723 301.888,-266.118 323,-280 328.919,-283.892 335.642,-287 342.484,-289.477"/>
<polygon fill="midnightblue" stroke="midnightblue" points="278.023,-227.15 267.441,-226.611 275.377,-233.631 278.023,-227.15"/>
</g>
<!-- Node16 -->
<g id="node16" class="node"><title>Node16</title>
<g id="a_node16"><a xlink:href="../../d1/d1f/singleRX_8cpp.html#a3c04138a5bfe5d72780bb7e82a18e627" target="_top" xlink:title="main">
<polygon fill="white" stroke="black" points="371.5,-251.5 371.5,-270.5 409.5,-270.5 409.5,-251.5 371.5,-251.5"/>
<text text-anchor="middle" x="390.5" y="-258.5" font-family="Helvetica,sans-Serif" font-size="10.00">main</text>
</a>
</g>
</g>
<!-- Node4&#45;&gt;Node16 -->
<g id="edge18" class="edge"><title>Node4&#45;&gt;Node16</title>
<path fill="none" stroke="midnightblue" d="M264.17,-229.124C299.566,-238.127 345.91,-249.913 371.155,-256.334"/>
<polygon fill="midnightblue" stroke="midnightblue" points="264.593,-225.62 254.038,-226.547 262.867,-232.404 264.593,-225.62"/>
</g>
<!-- Node17 -->
<g id="node17" class="node"><title>Node17</title>
<g id="a_node17"><a xlink:href="../../d5/d45/classfftviewer__frFFTviewer.html#a59a6a02ad1a3ce13b1b78cd41817bba6" target="_top" xlink:title="fftviewer_frFFTviewer\l::SetNyquistFrequency">
<polygon fill="white" stroke="black" points="332,-202 332,-232 449,-232 449,-202 332,-202"/>
<text text-anchor="start" x="340" y="-220" font-family="Helvetica,sans-Serif" font-size="10.00">fftviewer_frFFTviewer</text>
<text text-anchor="middle" x="390.5" y="-209" font-family="Helvetica,sans-Serif" font-size="10.00">::SetNyquistFrequency</text>
</a>
</g>
</g>
<!-- Node4&#45;&gt;Node17 -->
<g id="edge19" class="edge"><title>Node4&#45;&gt;Node17</title>
<path fill="none" stroke="midnightblue" d="M281.793,-217C298.244,-217 315.785,-217 331.832,-217"/>
<polygon fill="midnightblue" stroke="midnightblue" points="281.714,-213.5 271.714,-217 281.714,-220.5 281.714,-213.5"/>
</g>
<!-- Node6 -->
<g id="node6" class="node"><title>Node6</title>
<g id="a_node6"><a xlink:href="../../df/d93/classpnlBoardControls.html#a9b3b02be9d2210cbb83e313bde4af24e" target="_top" xlink:title="pnlBoardControls::SetupControls">
<polygon fill="white" stroke="black" points="494,-289.5 494,-308.5 654,-308.5 654,-289.5 494,-289.5"/>
<text text-anchor="middle" x="574" y="-296.5" font-family="Helvetica,sans-Serif" font-size="10.00">pnlBoardControls::SetupControls</text>
</a>
</g>
</g>
<!-- Node5&#45;&gt;Node6 -->
<g id="edge5" class="edge"><title>Node5&#45;&gt;Node6</title>
<path fill="none" stroke="midnightblue" d="M452.873,-299C466.034,-299 480.12,-299 493.845,-299"/>
<polygon fill="midnightblue" stroke="midnightblue" points="452.541,-295.5 442.541,-299 452.541,-302.5 452.541,-295.5"/>
</g>
<!-- Node7 -->
<g id="node7" class="node"><title>Node7</title>
<g id="a_node7"><a xlink:href="../../df/d93/classpnlBoardControls.html#ad4e318fad186d4b2d50fcbf20e0b88be" target="_top" xlink:title="pnlBoardControls::Initialize">
<polygon fill="white" stroke="black" points="690,-352.5 690,-371.5 824,-371.5 824,-352.5 690,-352.5"/>
<text text-anchor="middle" x="757" y="-359.5" font-family="Helvetica,sans-Serif" font-size="10.00">pnlBoardControls::Initialize</text>
</a>
</g>
</g>
<!-- Node6&#45;&gt;Node7 -->
<g id="edge6" class="edge"><title>Node6&#45;&gt;Node7</title>
<path fill="none" stroke="midnightblue" d="M612.226,-311.957C646.81,-323.995 697.511,-341.642 728.548,-352.445"/>
<polygon fill="midnightblue" stroke="midnightblue" points="613.085,-308.55 602.49,-308.568 610.784,-315.161 613.085,-308.55"/>
</g>
<!-- Node11 -->
<g id="node11" class="node"><title>Node11</title>
<g id="a_node11"><a xlink:href="../../d1/df3/classLMS7SuiteAppFrame.html#a819f017d3e706c433d9b7f4f9bc1f9c3" target="_top" xlink:title="LMS7SuiteAppFrame::\lOnControlBoardConnect">
<polygon fill="white" stroke="black" points="1032,-303 1032,-333 1155,-333 1155,-303 1032,-303"/>
<text text-anchor="start" x="1040" y="-321" font-family="Helvetica,sans-Serif" font-size="10.00">LMS7SuiteAppFrame::</text>
<text text-anchor="middle" x="1093.5" y="-310" font-family="Helvetica,sans-Serif" font-size="10.00">OnControlBoardConnect</text>
</a>
</g>
</g>
<!-- Node6&#45;&gt;Node11 -->
<g id="edge13" class="edge"><title>Node6&#45;&gt;Node11</title>
<path fill="none" stroke="midnightblue" d="M664.439,-302.284C769.595,-306.145 941.255,-312.447 1031.95,-315.777"/>
<polygon fill="midnightblue" stroke="midnightblue" points="664.282,-298.776 654.16,-301.906 664.025,-305.771 664.282,-298.776"/>
</g>
<!-- Node13 -->
<g id="node13" class="node"><title>Node13</title>
<g id="a_node13"><a xlink:href="../../df/d93/classpnlBoardControls.html#a51e925b6e13e8d7540a102ac4fce8ca0" target="_top" xlink:title="pnlBoardControls::OnUser\lChangedBoardType">
<polygon fill="white" stroke="black" points="691.5,-221 691.5,-251 822.5,-251 822.5,-221 691.5,-221"/>
<text text-anchor="start" x="699.5" y="-239" font-family="Helvetica,sans-Serif" font-size="10.00">pnlBoardControls::OnUser</text>
<text text-anchor="middle" x="757" y="-228" font-family="Helvetica,sans-Serif" font-size="10.00">ChangedBoardType</text>
</a>
</g>
</g>
<!-- Node6&#45;&gt;Node13 -->
<g id="edge14" class="edge"><title>Node6&#45;&gt;Node13</title>
<path fill="none" stroke="midnightblue" d="M612.3,-286.017C641.482,-275.86 682.106,-261.72 712.718,-251.065"/>
<polygon fill="midnightblue" stroke="midnightblue" points="610.784,-282.839 602.49,-289.432 613.085,-289.45 610.784,-282.839"/>
</g>
<!-- Node14 -->
<g id="node14" class="node"><title>Node14</title>
<g id="a_node14"><a xlink:href="../../df/d93/classpnlBoardControls.html#a8f1a27f7a4201cd55658f48bdf41ae20" target="_top" xlink:title="pnlBoardControls::pnlBoard\lControls">
<polygon fill="white" stroke="black" points="860,-259 860,-289 996,-289 996,-259 860,-259"/>
<text text-anchor="start" x="868" y="-277" font-family="Helvetica,sans-Serif" font-size="10.00">pnlBoardControls::pnlBoard</text>
<text text-anchor="middle" x="928" y="-266" font-family="Helvetica,sans-Serif" font-size="10.00">Controls</text>
</a>
</g>
</g>
<!-- Node6&#45;&gt;Node14 -->
<g id="edge17" class="edge"><title>Node6&#45;&gt;Node14</title>
<path fill="none" stroke="midnightblue" d="M664.42,-292.649C725.279,-288.327 804.531,-282.698 859.982,-278.76"/>
<polygon fill="midnightblue" stroke="midnightblue" points="664.161,-289.159 654.435,-293.358 664.657,-296.141 664.161,-289.159"/>
</g>
<!-- Node8 -->
<g id="node8" class="node"><title>Node8</title>
<g id="a_node8"><a xlink:href="../../d1/df3/classLMS7SuiteAppFrame.html#a09672f8ba8960dff6646f0faaec54e1d" target="_top" xlink:title="LMS7SuiteAppFrame::\lOnShowBoardControls">
<polygon fill="white" stroke="black" points="870,-396 870,-426 986,-426 986,-396 870,-396"/>
<text text-anchor="start" x="878" y="-414" font-family="Helvetica,sans-Serif" font-size="10.00">LMS7SuiteAppFrame::</text>
<text text-anchor="middle" x="928" y="-403" font-family="Helvetica,sans-Serif" font-size="10.00">OnShowBoardControls</text>
</a>
</g>
</g>
<!-- Node7&#45;&gt;Node8 -->
<g id="edge7" class="edge"><title>Node7&#45;&gt;Node8</title>
<path fill="none" stroke="midnightblue" d="M800.649,-374.366C823.277,-380.926 851.261,-389.04 875.138,-395.963"/>
<polygon fill="midnightblue" stroke="midnightblue" points="801.565,-370.987 790.986,-371.564 799.616,-377.71 801.565,-370.987"/>
</g>
<!-- Node9 -->
<g id="node9" class="node"><title>Node9</title>
<g id="a_node9"><a xlink:href="../../d1/df3/classLMS7SuiteAppFrame.html#aeaeb613a8c9139f0e60b02f1f612ed5d" target="_top" xlink:title="LMS7SuiteAppFrame::\lUpdateConnections">
<polygon fill="white" stroke="black" points="870,-347 870,-377 986,-377 986,-347 870,-347"/>
<text text-anchor="start" x="878" y="-365" font-family="Helvetica,sans-Serif" font-size="10.00">LMS7SuiteAppFrame::</text>
<text text-anchor="middle" x="928" y="-354" font-family="Helvetica,sans-Serif" font-size="10.00">UpdateConnections</text>
</a>
</g>
</g>
<!-- Node7&#45;&gt;Node9 -->
<g id="edge8" class="edge"><title>Node7&#45;&gt;Node9</title>
<path fill="none" stroke="midnightblue" d="M834.654,-362C846.515,-362 858.585,-362 869.916,-362"/>
<polygon fill="midnightblue" stroke="midnightblue" points="834.308,-358.5 824.308,-362 834.308,-365.5 834.308,-358.5"/>
</g>
<!-- Node10 -->
<g id="node10" class="node"><title>Node10</title>
<g id="a_node10"><a xlink:href="../../d1/df3/classLMS7SuiteAppFrame.html#ad380f4e547c66fcfffdec0da53fe5b3e" target="_top" xlink:title="Constructor. ">
<polygon fill="white" stroke="black" points="1203,-347 1203,-377 1319,-377 1319,-347 1203,-347"/>
<text text-anchor="start" x="1211" y="-365" font-family="Helvetica,sans-Serif" font-size="10.00">LMS7SuiteAppFrame::</text>
<text text-anchor="middle" x="1261" y="-354" font-family="Helvetica,sans-Serif" font-size="10.00">LMS7SuiteAppFrame</text>
</a>
</g>
</g>
<!-- Node9&#45;&gt;Node10 -->
<g id="edge9" class="edge"><title>Node9&#45;&gt;Node10</title>
<path fill="none" stroke="midnightblue" d="M996.534,-362C1057.28,-362 1145.55,-362 1202.87,-362"/>
<polygon fill="midnightblue" stroke="midnightblue" points="996.278,-358.5 986.278,-362 996.278,-365.5 996.278,-358.5"/>
</g>
<!-- Node9&#45;&gt;Node11 -->
<g id="edge10" class="edge"><title>Node9&#45;&gt;Node11</title>
<path fill="none" stroke="midnightblue" d="M994.782,-344.297C1008.67,-340.561 1023.19,-336.653 1036.66,-333.026"/>
<polygon fill="midnightblue" stroke="midnightblue" points="993.557,-341.002 984.81,-346.981 995.376,-347.762 993.557,-341.002"/>
</g>
<!-- Node11&#45;&gt;Node10 -->
<g id="edge11" class="edge"><title>Node11&#45;&gt;Node10</title>
<path fill="none" stroke="midnightblue" d="M1160.68,-335.594C1174.85,-339.363 1189.71,-343.312 1203.48,-346.974"/>
<polygon fill="midnightblue" stroke="midnightblue" points="1161.56,-332.206 1150.99,-333.019 1159.76,-338.971 1161.56,-332.206"/>
</g>
<!-- Node12 -->
<g id="node12" class="node"><title>Node12</title>
<g id="a_node12"><a xlink:href="../../d1/df3/classLMS7SuiteAppFrame.html#a08626f72855857180d80ab271f481d08" target="_top" xlink:title="LMS7SuiteAppFrame::\lOnShowConnectionSettings">
<polygon fill="white" stroke="black" points="1191,-298 1191,-328 1331,-328 1331,-298 1191,-298"/>
<text text-anchor="start" x="1199" y="-316" font-family="Helvetica,sans-Serif" font-size="10.00">LMS7SuiteAppFrame::</text>
<text text-anchor="middle" x="1261" y="-305" font-family="Helvetica,sans-Serif" font-size="10.00">OnShowConnectionSettings</text>
</a>
</g>
</g>
<!-- Node11&#45;&gt;Node12 -->
<g id="edge12" class="edge"><title>Node11&#45;&gt;Node12</title>
<path fill="none" stroke="midnightblue" d="M1165.4,-315.858C1173.86,-315.602 1182.49,-315.342 1190.93,-315.087"/>
<polygon fill="midnightblue" stroke="midnightblue" points="1165.08,-312.366 1155.19,-316.167 1165.29,-319.363 1165.08,-312.366"/>
</g>
<!-- Node13&#45;&gt;Node14 -->
<g id="edge15" class="edge"><title>Node13&#45;&gt;Node14</title>
<path fill="none" stroke="midnightblue" d="M832.675,-252.791C841.799,-254.842 851.078,-256.929 860.078,-258.952"/>
<polygon fill="midnightblue" stroke="midnightblue" points="833.381,-249.362 822.856,-250.583 831.845,-256.192 833.381,-249.362"/>
</g>
<!-- Node15 -->
<g id="node15" class="node"><title>Node15</title>
<g id="a_node15"><a xlink:href="../../df/d93/classpnlBoardControls.html#a1b0e1d30fd18cb7bd50f27600095f4ab" target="_top" xlink:title="pnlBoardControls::\l~pnlBoardControls">
<polygon fill="white" stroke="black" points="879,-210 879,-240 977,-240 977,-210 879,-210"/>
<text text-anchor="start" x="887" y="-228" font-family="Helvetica,sans-Serif" font-size="10.00">pnlBoardControls::</text>
<text text-anchor="middle" x="928" y="-217" font-family="Helvetica,sans-Serif" font-size="10.00">~pnlBoardControls</text>
</a>
</g>
</g>
<!-- Node13&#45;&gt;Node15 -->
<g id="edge16" class="edge"><title>Node13&#45;&gt;Node15</title>
<path fill="none" stroke="midnightblue" d="M833,-231.118C848.565,-230.105 864.566,-229.064 878.854,-228.134"/>
<polygon fill="midnightblue" stroke="midnightblue" points="832.608,-227.636 822.856,-231.779 833.063,-234.622 832.608,-227.636"/>
</g>
<!-- Node18 -->
<g id="node18" class="node"><title>Node18</title>
<g id="a_node18"><a xlink:href="../../d5/d45/classfftviewer__frFFTviewer.html#a6cbdad6867fdd2d774d3f63cf4af0f7a" target="_top" xlink:title="fftviewer_frFFTviewer\l::OnStreamChange">
<polygon fill="white" stroke="black" points="518,-202 518,-232 630,-232 630,-202 518,-202"/>
<text text-anchor="start" x="526" y="-220" font-family="Helvetica,sans-Serif" font-size="10.00">fftviewer_frFFTviewer</text>
<text text-anchor="middle" x="574" y="-209" font-family="Helvetica,sans-Serif" font-size="10.00">::OnStreamChange</text>
</a>
</g>
</g>
<!-- Node17&#45;&gt;Node18 -->
<g id="edge20" class="edge"><title>Node17&#45;&gt;Node18</title>
<path fill="none" stroke="midnightblue" d="M459.422,-217C478.728,-217 499.508,-217 517.949,-217"/>
<polygon fill="midnightblue" stroke="midnightblue" points="459.177,-213.5 449.177,-217 459.177,-220.5 459.177,-213.5"/>
</g>
<!-- Node20 -->
<g id="node20" class="node"><title>Node20</title>
<g id="a_node20"><a xlink:href="../../d1/db7/classlime_1_1LMS7__LimeSDR__mini.html#a849ef012f59369225ed0712b50143283" target="_top" xlink:title="lime::LMS7_LimeSDR\l_mini::Init">
<polygon fill="white" stroke="black" points="333.5,-153 333.5,-183 447.5,-183 447.5,-153 333.5,-153"/>
<text text-anchor="start" x="341.5" y="-171" font-family="Helvetica,sans-Serif" font-size="10.00">lime::LMS7_LimeSDR</text>
<text text-anchor="middle" x="390.5" y="-160" font-family="Helvetica,sans-Serif" font-size="10.00">_mini::Init</text>
</a>
</g>
</g>
<!-- Node19&#45;&gt;Node20 -->
<g id="edge22" class="edge"><title>Node19&#45;&gt;Node20</title>
<path fill="none" stroke="midnightblue" d="M282.874,-169.849C299.521,-169.56 317.221,-169.253 333.318,-168.974"/>
<polygon fill="midnightblue" stroke="midnightblue" points="282.606,-166.353 272.668,-170.026 282.727,-173.352 282.606,-166.353"/>
</g>
<!-- Node22 -->
<g id="node22" class="node"><title>Node22</title>
<g id="a_node22"><a xlink:href="../../d9/d90/classSoapyLMS7.html#aa2d331dee34ff0078633d8bbf0c3233a" target="_top" xlink:title="SoapyLMS7::setFrequency">
<polygon fill="white" stroke="black" points="323,-114.5 323,-133.5 458,-133.5 458,-114.5 323,-114.5"/>
<text text-anchor="middle" x="390.5" y="-121.5" font-family="Helvetica,sans-Serif" font-size="10.00">SoapyLMS7::setFrequency</text>
</a>
</g>
</g>
<!-- Node21&#45;&gt;Node22 -->
<g id="edge24" class="edge"><title>Node21&#45;&gt;Node22</title>
<path fill="none" stroke="midnightblue" d="M279.85,-111.324C293.872,-112.945 308.771,-114.667 322.918,-116.303"/>
<polygon fill="midnightblue" stroke="midnightblue" points="280.153,-107.836 269.817,-110.164 279.349,-114.789 280.153,-107.836"/>
</g>
<!-- Node23 -->
<g id="node23" class="node"><title>Node23</title>
<g id="a_node23"><a xlink:href="../../df/de1/lms7__api_8cpp.html#a2c59e97985e0dfccf935c8bd78d5248d" target="_top" xlink:title="LMS_SetLOFrequency">
<polygon fill="white" stroke="black" points="332.5,-76.5 332.5,-95.5 448.5,-95.5 448.5,-76.5 332.5,-76.5"/>
<text text-anchor="middle" x="390.5" y="-83.5" font-family="Helvetica,sans-Serif" font-size="10.00">LMS_SetLOFrequency</text>
</a>
</g>
</g>
<!-- Node21&#45;&gt;Node23 -->
<g id="edge25" class="edge"><title>Node21&#45;&gt;Node23</title>
<path fill="none" stroke="midnightblue" d="M279.789,-97.415C297.026,-95.6216 315.589,-93.6901 332.456,-91.9352"/>
<polygon fill="midnightblue" stroke="midnightblue" points="279.401,-93.9364 269.817,-98.4525 280.126,-100.899 279.401,-93.9364"/>
</g>
<!-- Node27 -->
<g id="node27" class="node"><title>Node27</title>
<g id="a_node27"><a xlink:href="../../d3/d22/classlime_1_1LMS7__Device.html#a3f9708aee4fd2fbf553b19ace615309f" target="_top" xlink:title="lime::LMS7_Device::Init">
<polygon fill="white" stroke="black" points="329.5,-38.5 329.5,-57.5 451.5,-57.5 451.5,-38.5 329.5,-38.5"/>
<text text-anchor="middle" x="390.5" y="-45.5" font-family="Helvetica,sans-Serif" font-size="10.00">lime::LMS7_Device::Init</text>
</a>
</g>
</g>
<!-- Node21&#45;&gt;Node27 -->
<g id="edge29" class="edge"><title>Node21&#45;&gt;Node27</title>
<path fill="none" stroke="midnightblue" d="M267.522,-85.6225C285.039,-79.4871 304.813,-72.7524 323,-67 333.189,-63.7773 344.331,-60.499 354.532,-57.5932"/>
<polygon fill="midnightblue" stroke="midnightblue" points="266.317,-82.3362 258.048,-88.9594 268.642,-88.9388 266.317,-82.3362"/>
</g>
<!-- Node24 -->
<g id="node24" class="node"><title>Node24</title>
<g id="a_node24"><a xlink:href="../../d0/d43/LimeUtilCalSweep_8cpp.html#aa1ddf17da91809067879ee6cf16f04d1" target="_top" xlink:title="deviceCalSweep">
<polygon fill="white" stroke="black" points="529,-114.5 529,-133.5 619,-133.5 619,-114.5 529,-114.5"/>
<text text-anchor="middle" x="574" y="-121.5" font-family="Helvetica,sans-Serif" font-size="10.00">deviceCalSweep</text>
</a>
</g>
</g>
<!-- Node23&#45;&gt;Node24 -->
<g id="edge26" class="edge"><title>Node23&#45;&gt;Node24</title>
<path fill="none" stroke="midnightblue" d="M447.101,-97.641C473.325,-103.131 504.18,-109.591 528.781,-114.742"/>
<polygon fill="midnightblue" stroke="midnightblue" points="447.805,-94.2126 437.3,-95.589 446.371,-101.064 447.805,-94.2126"/>
</g>
<!-- Node26 -->
<g id="node26" class="node"><title>Node26</title>
<g id="a_node26"><a xlink:href="../../d4/d20/basicRX_8cpp.html#a3c04138a5bfe5d72780bb7e82a18e627" target="_top" xlink:title="main">
<polygon fill="white" stroke="black" points="738,-76.5 738,-95.5 776,-95.5 776,-76.5 738,-76.5"/>
<text text-anchor="middle" x="757" y="-83.5" font-family="Helvetica,sans-Serif" font-size="10.00">main</text>
</a>
</g>
</g>
<!-- Node23&#45;&gt;Node26 -->
<g id="edge28" class="edge"><title>Node23&#45;&gt;Node26</title>
<path fill="none" stroke="midnightblue" d="M459.025,-86C544.837,-86 687.835,-86 737.969,-86"/>
<polygon fill="midnightblue" stroke="midnightblue" points="458.854,-82.5001 448.854,-86 458.854,-89.5001 458.854,-82.5001"/>
</g>
<!-- Node25 -->
<g id="node25" class="node"><title>Node25</title>
<g id="a_node25"><a xlink:href="../../d5/db6/LimeUtil_8cpp.html#a0ddf1224851353fc92bfbff6f499fa97" target="_top" xlink:title="main">
<polygon fill="white" stroke="black" points="738,-114.5 738,-133.5 776,-133.5 776,-114.5 738,-114.5"/>
<text text-anchor="middle" x="757" y="-121.5" font-family="Helvetica,sans-Serif" font-size="10.00">main</text>
</a>
</g>
</g>
<!-- Node24&#45;&gt;Node25 -->
<g id="edge27" class="edge"><title>Node24&#45;&gt;Node25</title>
<path fill="none" stroke="midnightblue" d="M629.404,-124C666.299,-124 712.767,-124 737.882,-124"/>
<polygon fill="midnightblue" stroke="midnightblue" points="629.278,-120.5 619.278,-124 629.278,-127.5 629.278,-120.5"/>
</g>
<!-- Node28 -->
<g id="node28" class="node"><title>Node28</title>
<g id="a_node28"><a xlink:href="../../df/de1/lms7__api_8cpp.html#a804769c6df1bb5c86829f6211c0c56aa" target="_top" xlink:title="LMS_Init">
<polygon fill="white" stroke="black" points="546,-38.5 546,-57.5 602,-57.5 602,-38.5 546,-38.5"/>
<text text-anchor="middle" x="574" y="-45.5" font-family="Helvetica,sans-Serif" font-size="10.00">LMS_Init</text>
</a>
</g>
</g>
<!-- Node27&#45;&gt;Node28 -->
<g id="edge30" class="edge"><title>Node27&#45;&gt;Node28</title>
<path fill="none" stroke="midnightblue" d="M461.908,-48C491.225,-48 523.528,-48 545.706,-48"/>
<polygon fill="midnightblue" stroke="midnightblue" points="461.685,-44.5001 451.685,-48 461.685,-51.5001 461.685,-44.5001"/>
</g>
<!-- Node30 -->
<g id="node30" class="node"><title>Node30</title>
<g id="a_node30"><a xlink:href="../../d4/d8f/pll__sweep_8cpp.html#a3c04138a5bfe5d72780bb7e82a18e627" target="_top" xlink:title="main">
<polygon fill="white" stroke="black" points="555,-0.5 555,-19.5 593,-19.5 593,-0.5 555,-0.5"/>
<text text-anchor="middle" x="574" y="-7.5" font-family="Helvetica,sans-Serif" font-size="10.00">main</text>
</a>
</g>
</g>
<!-- Node27&#45;&gt;Node30 -->
<g id="edge33" class="edge"><title>Node27&#45;&gt;Node30</title>
<path fill="none" stroke="midnightblue" d="M447.388,-36.2989C484.086,-28.6156 529.753,-19.0545 554.672,-13.8374"/>
<polygon fill="midnightblue" stroke="midnightblue" points="446.371,-32.936 437.3,-38.411 447.805,-39.7874 446.371,-32.936"/>
</g>
<!-- Node28&#45;&gt;Node26 -->
<g id="edge31" class="edge"><title>Node28&#45;&gt;Node26</title>
<path fill="none" stroke="midnightblue" d="M612.336,-55.8385C650.628,-63.8776 708.593,-76.0471 737.807,-82.1804"/>
<polygon fill="midnightblue" stroke="midnightblue" points="612.603,-52.3184 602.098,-53.689 611.165,-59.169 612.603,-52.3184"/>
</g>
<!-- Node29 -->
<g id="node29" class="node"><title>Node29</title>
<g id="a_node29"><a xlink:href="../../d8/d3c/classlms7002__mainPanel.html#aff2ae64c885239df71be67c69f9a2c81" target="_top" xlink:title="lms7002_mainPanel::\lOnLoadDefault">
<polygon fill="white" stroke="black" points="702,-27 702,-57 812,-57 812,-27 702,-27"/>
<text text-anchor="start" x="710" y="-45" font-family="Helvetica,sans-Serif" font-size="10.00">lms7002_mainPanel::</text>
<text text-anchor="middle" x="757" y="-34" font-family="Helvetica,sans-Serif" font-size="10.00">OnLoadDefault</text>
</a>
</g>
</g>
<!-- Node28&#45;&gt;Node29 -->
<g id="edge32" class="edge"><title>Node28&#45;&gt;Node29</title>
<path fill="none" stroke="midnightblue" d="M612.217,-46.7663C638.031,-45.9106 672.827,-44.7571 701.723,-43.7992"/>
<polygon fill="midnightblue" stroke="midnightblue" points="611.976,-43.2723 602.098,-47.1017 612.208,-50.2684 611.976,-43.2723"/>
</g>
</g>
</svg>
