<?xml version="1.0" encoding="UTF-8" standalone="no"?>
<!DOCTYPE svg PUBLIC "-//W3C//DTD SVG 1.1//EN"
 "http://www.w3.org/Graphics/SVG/1.1/DTD/svg11.dtd">
<!-- Generated by graphviz version 2.38.0 (20140413.2041)
 -->
<!-- Title: lime::LMS7_Device::Program Pages: 1 -->
<!--zoomable 186 -->
<svg id="main" version="1.1" xmlns="http://www.w3.org/2000/svg" xmlns:xlink="http://www.w3.org/1999/xlink" xml:space="preserve" onload="init(evt)">
<style type="text/css"><![CDATA[
.edge:hover path { stroke: red; }
.edge:hover polygon { stroke: red; fill: red; }
]]></style>
<script type="text/javascript"><![CDATA[
var edges = document.getElementsByTagName('g');
if (edges && edges.length) {
  for (var i=0;i<edges.length;i++) {
    if (edges[i].id.substr(0,4)=='edge') {
      edges[i].setAttribute('class','edge');
    }
  }
}
]]></script>
        <defs>
                <circle id="rim" cx="0" cy="0" r="7"/>
                <circle id="rim2" cx="0" cy="0" r="3.5"/>
                <g id="zoomPlus">
                        <use xlink:href="#rim" fill="#404040">
                                <set attributeName="fill" to="#808080" begin="zoomplus.mouseover" end="zoomplus.mouseout"/>
                        </use>
                        <path d="M-4,0h8M0,-4v8" fill="none" stroke="white" stroke-width="1.5" pointer-events="none"/>
                </g>
                <g id="zoomMin">
                        <use xlink:href="#rim" fill="#404040">
                                <set attributeName="fill" to="#808080" begin="zoomminus.mouseover" end="zoomminus.mouseout"/>
                        </use>
                        <path d="M-4,0h8" fill="none" stroke="white" stroke-width="1.5" pointer-events="none"/>
                </g>
                <g id="dirArrow">
                        <path fill="none" stroke="white" stroke-width="1.5" d="M0,-3.0v7 M-2.5,-0.5L0,-3.0L2.5,-0.5"/>
                </g>
               <g id="resetDef">
                       <use xlink:href="#rim2" fill="#404040">
                               <set attributeName="fill" to="#808080" begin="reset.mouseover" end="reset.mouseout"/>
                       </use>
               </g>
        </defs>

<script type="text/javascript">
var viewWidth = 960;
var viewHeight = 186;
var sectionId = 'dynsection-61';
</script>
<script xlink:href="../../svgpan.js"/>
<svg id="graph" class="graph">
<g id="viewport">
<title>lime::LMS7_Device::Program</title>
<polygon fill="white" stroke="none" points="-4,4 -4,-182 956,-182 956,4 -4,4"/>
<!-- Node1 -->
<g id="node1" class="node"><title>Node1</title>
<polygon fill="#bfbfbf" stroke="black" points="0,-51.5 0,-81.5 108,-81.5 108,-51.5 0,-51.5"/>
<text text-anchor="start" x="8" y="-69.5" font-family="Helvetica,sans-Serif" font-size="10.00">lime::LMS7_Device::</text>
<text text-anchor="middle" x="54" y="-58.5" font-family="Helvetica,sans-Serif" font-size="10.00">Program</text>
</g>
<!-- Node2 -->
<g id="node2" class="node"><title>Node2</title>
<g id="a_node2"><a xlink:href="../../df/de1/lms7__api_8cpp.html#a1f9be91569904f87e02b61153f8f24c3" target="_top" xlink:title="LMS_Program">
<polygon fill="white" stroke="black" points="161.5,-79 161.5,-98 240.5,-98 240.5,-79 161.5,-79"/>
<text text-anchor="middle" x="201" y="-86" font-family="Helvetica,sans-Serif" font-size="10.00">LMS_Program</text>
</a>
</g>
</g>
<!-- Node1&#45;&gt;Node2 -->
<g id="edge1" class="edge"><title>Node1&#45;&gt;Node2</title>
<path fill="none" stroke="midnightblue" d="M118.224,-76.0926C132.909,-78.3207 148.112,-80.6273 161.366,-82.6383"/>
<polygon fill="midnightblue" stroke="midnightblue" points="118.581,-72.6068 108.169,-74.5671 117.531,-79.5276 118.581,-72.6068"/>
</g>
<!-- Node10 -->
<g id="node10" class="node"><title>Node10</title>
<g id="a_node10"><a xlink:href="../../d8/ddb/classlime_1_1LMS7__LimeSDR.html#a17a78b09e4404807075bbf6dc957f524" target="_top" xlink:title="lime::LMS7_LimeSDR\l::Program">
<polygon fill="white" stroke="black" points="144,-29.5 144,-59.5 258,-59.5 258,-29.5 144,-29.5"/>
<text text-anchor="start" x="152" y="-47.5" font-family="Helvetica,sans-Serif" font-size="10.00">lime::LMS7_LimeSDR</text>
<text text-anchor="middle" x="201" y="-36.5" font-family="Helvetica,sans-Serif" font-size="10.00">::Program</text>
</a>
</g>
</g>
<!-- Node1&#45;&gt;Node10 -->
<g id="edge10" class="edge"><title>Node1&#45;&gt;Node10</title>
<path fill="none" stroke="midnightblue" d="M118.13,-56.9216C126.71,-55.6198 135.469,-54.291 143.913,-53.0097"/>
<polygon fill="midnightblue" stroke="midnightblue" points="117.531,-53.4724 108.169,-58.4329 118.581,-60.3932 117.531,-53.4724"/>
</g>
<!-- Node3 -->
<g id="node3" class="node"><title>Node3</title>
<g id="a_node3"><a xlink:href="../../db/d33/classLMS__Programing__wxgui.html#a60df7bf68dc5716a6d6967b1f30e27c8" target="_top" xlink:title="LMS_Programing_wxgui\l::DoProgramming">
<polygon fill="white" stroke="black" points="308,-147.5 308,-177.5 430,-177.5 430,-147.5 308,-147.5"/>
<text text-anchor="start" x="316" y="-165.5" font-family="Helvetica,sans-Serif" font-size="10.00">LMS_Programing_wxgui</text>
<text text-anchor="middle" x="369" y="-154.5" font-family="Helvetica,sans-Serif" font-size="10.00">::DoProgramming</text>
</a>
</g>
</g>
<!-- Node2&#45;&gt;Node3 -->
<g id="edge2" class="edge"><title>Node2&#45;&gt;Node3</title>
<path fill="none" stroke="midnightblue" d="M226.292,-103.306C244.493,-114 270.247,-128.297 294,-138.5 301.446,-141.698 309.466,-144.716 317.383,-147.462"/>
<polygon fill="midnightblue" stroke="midnightblue" points="227.897,-100.188 217.513,-98.0832 224.318,-106.204 227.897,-100.188"/>
</g>
<!-- Node7 -->
<g id="node7" class="node"><title>Node7</title>
<g id="a_node7"><a xlink:href="../../d8/d95/classlms7002__pnlMCU__BD__view.html#ab50695b77d5ea40bc6273d8f71cd8d18" target="_top" xlink:title="lms7002_pnlMCU_BD_view\l::OnbtnStartProgrammingClick">
<polygon fill="white" stroke="black" points="294,-98.5 294,-128.5 444,-128.5 444,-98.5 294,-98.5"/>
<text text-anchor="start" x="302" y="-116.5" font-family="Helvetica,sans-Serif" font-size="10.00">lms7002_pnlMCU_BD_view</text>
<text text-anchor="middle" x="369" y="-105.5" font-family="Helvetica,sans-Serif" font-size="10.00">::OnbtnStartProgrammingClick</text>
</a>
</g>
</g>
<!-- Node2&#45;&gt;Node7 -->
<g id="edge7" class="edge"><title>Node2&#45;&gt;Node7</title>
<path fill="none" stroke="midnightblue" d="M250.541,-95.8105C264.091,-97.8511 279.131,-100.116 293.8,-102.325"/>
<polygon fill="midnightblue" stroke="midnightblue" points="250.911,-92.3267 240.501,-94.2983 249.868,-99.2486 250.911,-92.3267"/>
</g>
<!-- Node8 -->
<g id="node8" class="node"><title>Node8</title>
<g id="a_node8"><a xlink:href="../../d8/d95/classlms7002__pnlMCU__BD__view.html#a16925e18324fc1e24f468321eb87aa45" target="_top" xlink:title="lms7002_pnlMCU_BD_view\l::OnchkResetClick">
<polygon fill="white" stroke="black" points="299,-49.5 299,-79.5 439,-79.5 439,-49.5 299,-49.5"/>
<text text-anchor="start" x="307" y="-67.5" font-family="Helvetica,sans-Serif" font-size="10.00">lms7002_pnlMCU_BD_view</text>
<text text-anchor="middle" x="369" y="-56.5" font-family="Helvetica,sans-Serif" font-size="10.00">::OnchkResetClick</text>
</a>
</g>
</g>
<!-- Node2&#45;&gt;Node8 -->
<g id="edge8" class="edge"><title>Node2&#45;&gt;Node8</title>
<path fill="none" stroke="midnightblue" d="M250.609,-81.4722C265.678,-79.2935 282.585,-76.8491 298.773,-74.5087"/>
<polygon fill="midnightblue" stroke="midnightblue" points="249.897,-78.0386 240.501,-82.9336 250.899,-84.9666 249.897,-78.0386"/>
</g>
<!-- Node9 -->
<g id="node9" class="node"><title>Node9</title>
<g id="a_node9"><a xlink:href="../../d5/d55/classlms7002__pnlR3__view.html#a1d78d0797a17b61f68e80d110d01d793" target="_top" xlink:title="lms7002_pnlR3_view\l::ParameterChangeHandler">
<polygon fill="white" stroke="black" points="301.5,-0.5 301.5,-30.5 436.5,-30.5 436.5,-0.5 301.5,-0.5"/>
<text text-anchor="start" x="309.5" y="-18.5" font-family="Helvetica,sans-Serif" font-size="10.00">lms7002_pnlR3_view</text>
<text text-anchor="middle" x="369" y="-7.5" font-family="Helvetica,sans-Serif" font-size="10.00">::ParameterChangeHandler</text>
</a>
</g>
</g>
<!-- Node2&#45;&gt;Node9 -->
<g id="edge9" class="edge"><title>Node2&#45;&gt;Node9</title>
<path fill="none" stroke="midnightblue" d="M245.65,-75.389C249.913,-73.6074 254.099,-71.6444 258,-69.5 276.005,-59.6029 275.989,-50.3854 294,-40.5 300.776,-36.781 308.203,-33.4787 315.656,-30.5919"/>
<polygon fill="midnightblue" stroke="midnightblue" points="244.351,-72.1387 236.277,-78.9994 246.867,-78.6709 244.351,-72.1387"/>
</g>
<!-- Node4 -->
<g id="node4" class="node"><title>Node4</title>
<g id="a_node4"><a xlink:href="../../db/d33/classLMS__Programing__wxgui.html#a19e7fd119068f89e511792ac90b80572" target="_top" xlink:title="LMS_Programing_wxgui\l::OnbtnStartProgrammingClick">
<polygon fill="white" stroke="black" points="480,-147.5 480,-177.5 630,-177.5 630,-147.5 480,-147.5"/>
<text text-anchor="start" x="488" y="-165.5" font-family="Helvetica,sans-Serif" font-size="10.00">LMS_Programing_wxgui</text>
<text text-anchor="middle" x="555" y="-154.5" font-family="Helvetica,sans-Serif" font-size="10.00">::OnbtnStartProgrammingClick</text>
</a>
</g>
</g>
<!-- Node3&#45;&gt;Node4 -->
<g id="edge3" class="edge"><title>Node3&#45;&gt;Node4</title>
<path fill="none" stroke="midnightblue" d="M440.433,-162.5C453.319,-162.5 466.803,-162.5 479.794,-162.5"/>
<polygon fill="midnightblue" stroke="midnightblue" points="440.249,-159 430.248,-162.5 440.248,-166 440.249,-159"/>
</g>
<!-- Node5 -->
<g id="node5" class="node"><title>Node5</title>
<g id="a_node5"><a xlink:href="../../db/d33/classLMS__Programing__wxgui.html#a9a42815a49ad27193b6d1ac2c4b99f44" target="_top" xlink:title="LMS_Programing_wxgui\l::LMS_Programing_wxgui">
<polygon fill="white" stroke="black" points="824,-147.5 824,-177.5 952,-177.5 952,-147.5 824,-147.5"/>
<text text-anchor="start" x="832" y="-165.5" font-family="Helvetica,sans-Serif" font-size="10.00">LMS_Programing_wxgui</text>
<text text-anchor="middle" x="888" y="-154.5" font-family="Helvetica,sans-Serif" font-size="10.00">::LMS_Programing_wxgui</text>
</a>
</g>
</g>
<!-- Node4&#45;&gt;Node5 -->
<g id="edge4" class="edge"><title>Node4&#45;&gt;Node5</title>
<path fill="none" stroke="midnightblue" d="M640.384,-165.036C649.035,-165.225 657.693,-165.387 666,-165.5 720.217,-166.239 733.784,-166.321 788,-165.5 799.606,-165.324 811.974,-165.033 823.896,-164.698"/>
<polygon fill="midnightblue" stroke="midnightblue" points="640.331,-161.534 630.253,-164.801 640.169,-168.532 640.331,-161.534"/>
</g>
<!-- Node6 -->
<g id="node6" class="node"><title>Node6</title>
<g id="a_node6"><a xlink:href="../../db/d33/classLMS__Programing__wxgui.html#ad8cce5235c464cca222634b82be854ec" target="_top" xlink:title="LMS_Programing_wxgui\l::OnProgramingFinished">
<polygon fill="white" stroke="black" points="666,-125.5 666,-155.5 788,-155.5 788,-125.5 666,-125.5"/>
<text text-anchor="start" x="674" y="-143.5" font-family="Helvetica,sans-Serif" font-size="10.00">LMS_Programing_wxgui</text>
<text text-anchor="middle" x="727" y="-132.5" font-family="Helvetica,sans-Serif" font-size="10.00">::OnProgramingFinished</text>
</a>
</g>
</g>
<!-- Node4&#45;&gt;Node6 -->
<g id="edge5" class="edge"><title>Node4&#45;&gt;Node6</title>
<path fill="none" stroke="midnightblue" d="M640.235,-151.599C648.916,-150.476 657.608,-149.351 665.949,-148.271"/>
<polygon fill="midnightblue" stroke="midnightblue" points="639.538,-148.16 630.07,-152.914 640.436,-155.102 639.538,-148.16"/>
</g>
<!-- Node6&#45;&gt;Node5 -->
<g id="edge6" class="edge"><title>Node6&#45;&gt;Node5</title>
<path fill="none" stroke="midnightblue" d="M798.097,-150.199C806.682,-151.387 815.416,-152.595 823.89,-153.768"/>
<polygon fill="midnightblue" stroke="midnightblue" points="798.496,-146.721 788.111,-148.817 797.537,-153.655 798.496,-146.721"/>
</g>
</g>
</svg>
        <g id="navigator" transform="translate(0 0)" fill="#404254">
                <rect fill="#f2f5e9" fill-opacity="0.5" stroke="#606060" stroke-width=".5" x="0" y="0" width="60" height="60"/>
                <use id="zoomplus" xlink:href="#zoomPlus" x="17" y="9" onmousedown="handleZoom(evt,'in')"/>
                <use id="zoomminus" xlink:href="#zoomMin" x="42" y="9" onmousedown="handleZoom(evt,'out')"/>
                <use id="reset" xlink:href="#resetDef" x="30" y="36" onmousedown="handleReset()"/>
                <g id="arrowUp" xlink:href="#dirArrow" transform="translate(30 24)" onmousedown="handlePan(0,-1)">
                  <use xlink:href="#rim" fill="#404040">
                        <set attributeName="fill" to="#808080" begin="arrowUp.mouseover" end="arrowUp.mouseout"/>
                  </use>
                  <path fill="none" stroke="white" stroke-width="1.5" d="M0,-3.0v7 M-2.5,-0.5L0,-3.0L2.5,-0.5"/>
                </g>
                <g id="arrowRight" xlink:href="#dirArrow" transform="rotate(90) translate(36 -43)" onmousedown="handlePan(1,0)">
                  <use xlink:href="#rim" fill="#404040">
                        <set attributeName="fill" to="#808080" begin="arrowRight.mouseover" end="arrowRight.mouseout"/>
                  </use>
                  <path fill="none" stroke="white" stroke-width="1.5" d="M0,-3.0v7 M-2.5,-0.5L0,-3.0L2.5,-0.5"/>
                </g>
                <g id="arrowDown" xlink:href="#dirArrow" transform="rotate(180) translate(-30 -48)" onmousedown="handlePan(0,1)">
                  <use xlink:href="#rim" fill="#404040">
                        <set attributeName="fill" to="#808080" begin="arrowDown.mouseover" end="arrowDown.mouseout"/>
                  </use>
                  <path fill="none" stroke="white" stroke-width="1.5" d="M0,-3.0v7 M-2.5,-0.5L0,-3.0L2.5,-0.5"/>
                </g>
                <g id="arrowLeft" xlink:href="#dirArrow" transform="rotate(270) translate(-36 17)" onmousedown="handlePan(-1,0)">
                  <use xlink:href="#rim" fill="#404040">
                        <set attributeName="fill" to="#808080" begin="arrowLeft.mouseover" end="arrowLeft.mouseout"/>
                  </use>
                  <path fill="none" stroke="white" stroke-width="1.5" d="M0,-3.0v7 M-2.5,-0.5L0,-3.0L2.5,-0.5"/>
                </g>
        </g>
        <svg viewBox="0 0 15 15" width="100%" height="30px" preserveAspectRatio="xMaxYMin meet">
         <g id="arrow_out" transform="scale(0.3 0.3)">
          <a xlink:href="classlime_1_1LMS7__Device_ae5b3dcdfed80de7f5969fccc36b9c88b_icgraph_org.svg" target="_base">
           <rect id="button" ry="5" rx="5" y="6" x="6" height="38" width="38"
                fill="#f2f5e9" fill-opacity="0.5" stroke="#606060" stroke-width="1.0"/>
           <path id="arrow"
             d="M 11.500037,31.436501 C 11.940474,20.09759 22.043105,11.32322 32.158766,21.979434 L 37.068811,17.246167 C 37.068811,17.246167 37.088388,32 37.088388,32 L 22.160133,31.978069 C 22.160133,31.978069 26.997745,27.140456 26.997745,27.140456 C 18.528582,18.264221 13.291696,25.230495 11.500037,31.436501 z"
             style="fill:#404040;"/>
          </a>
         </g>
        </svg>
</svg>
