<?xml version="1.0" encoding="UTF-8" standalone="no"?>
<!DOCTYPE svg PUBLIC "-//W3C//DTD SVG 1.1//EN"
 "http://www.w3.org/Graphics/SVG/1.1/DTD/svg11.dtd">
<!-- Generated by graphviz version 2.38.0 (20140413.2041)
 -->
<!-- Title: lime::LMS7_Device::CreateDevice Pages: 1 -->
<svg width="467pt" height="154pt"
 viewBox="0.00 0.00 467.00 153.50" xmlns="http://www.w3.org/2000/svg" xmlns:xlink="http://www.w3.org/1999/xlink">
<g id="graph0" class="graph" transform="scale(1 1) rotate(0) translate(4 149.5)">
<title>lime::LMS7_Device::CreateDevice</title>
<polygon fill="white" stroke="none" points="-4,4 -4,-149.5 463,-149.5 463,4 -4,4"/>
<!-- Node1 -->
<g id="node1" class="node"><title>Node1</title>
<polygon fill="#bfbfbf" stroke="black" points="0,-44.5 0,-74.5 108,-74.5 108,-44.5 0,-44.5"/>
<text text-anchor="start" x="8" y="-62.5" font-family="Helvetica,sans-Serif" font-size="10.00">lime::LMS7_Device::</text>
<text text-anchor="middle" x="54" y="-51.5" font-family="Helvetica,sans-Serif" font-size="10.00">CreateDevice</text>
</g>
<!-- Node2 -->
<g id="node2" class="node"><title>Node2</title>
<g id="a_node2"><a xlink:href="../../df/de1/lms7__api_8cpp.html#abd4183e72a6b36d5ed36b4f2fb3841aa" target="_top" xlink:title="LMS_Open">
<polygon fill="white" stroke="black" points="169,-88 169,-107 234,-107 234,-88 169,-88"/>
<text text-anchor="middle" x="201.5" y="-95" font-family="Helvetica,sans-Serif" font-size="10.00">LMS_Open</text>
</a>
</g>
</g>
<!-- Node1&#45;&gt;Node2 -->
<g id="edge1" class="edge"><title>Node1&#45;&gt;Node2</title>
<path fill="none" stroke="midnightblue" d="M118.477,-76.0781C135.865,-80.6193 153.971,-85.3482 168.735,-89.204"/>
<polygon fill="midnightblue" stroke="midnightblue" points="118.913,-72.5746 108.353,-73.434 117.144,-79.3474 118.913,-72.5746"/>
</g>
<!-- Node7 -->
<g id="node7" class="node"><title>Node7</title>
<g id="a_node7"><a xlink:href="../../d4/d8f/pll__sweep_8cpp.html#a3c04138a5bfe5d72780bb7e82a18e627" target="_top" xlink:title="main">
<polygon fill="white" stroke="black" points="182.5,-50 182.5,-69 220.5,-69 220.5,-50 182.5,-50"/>
<text text-anchor="middle" x="201.5" y="-57" font-family="Helvetica,sans-Serif" font-size="10.00">main</text>
</a>
</g>
</g>
<!-- Node1&#45;&gt;Node7 -->
<g id="edge6" class="edge"><title>Node1&#45;&gt;Node7</title>
<path fill="none" stroke="midnightblue" d="M118.535,-59.5C141.73,-59.5 166.195,-59.5 182.293,-59.5"/>
<polygon fill="midnightblue" stroke="midnightblue" points="118.353,-56.0001 108.353,-59.5 118.353,-63.0001 118.353,-56.0001"/>
</g>
<!-- Node8 -->
<g id="node8" class="node"><title>Node8</title>
<g id="a_node8"><a xlink:href="../../d6/db6/classdlgConnectionSettings.html#a52a3142de26673fdbcf16c56b2c34cae" target="_top" xlink:title="dlgConnectionSettings\l::OnConnect">
<polygon fill="white" stroke="black" points="144,-0.5 144,-30.5 259,-30.5 259,-0.5 144,-0.5"/>
<text text-anchor="start" x="152" y="-18.5" font-family="Helvetica,sans-Serif" font-size="10.00">dlgConnectionSettings</text>
<text text-anchor="middle" x="201.5" y="-7.5" font-family="Helvetica,sans-Serif" font-size="10.00">::OnConnect</text>
</a>
</g>
</g>
<!-- Node1&#45;&gt;Node8 -->
<g id="edge7" class="edge"><title>Node1&#45;&gt;Node8</title>
<path fill="none" stroke="midnightblue" d="M114.565,-41.4871C126.524,-37.8708 138.974,-34.1059 150.564,-30.6009"/>
<polygon fill="midnightblue" stroke="midnightblue" points="113.225,-38.2359 104.666,-44.4808 115.251,-44.9363 113.225,-38.2359"/>
</g>
<!-- Node3 -->
<g id="node3" class="node"><title>Node3</title>
<g id="a_node3"><a xlink:href="../../db/d92/LimeSuite_8cc.html#a8264622f1c2c5bfc25727870d85ee938" target="_top" xlink:title="DEFUN_DLD">
<polygon fill="white" stroke="black" points="301.5,-126 301.5,-145 378.5,-145 378.5,-126 301.5,-126"/>
<text text-anchor="middle" x="340" y="-133" font-family="Helvetica,sans-Serif" font-size="10.00">DEFUN_DLD</text>
</a>
</g>
</g>
<!-- Node2&#45;&gt;Node3 -->
<g id="edge2" class="edge"><title>Node2&#45;&gt;Node3</title>
<path fill="none" stroke="midnightblue" d="M243.955,-109.04C263.366,-114.444 286.214,-120.805 304.643,-125.936"/>
<polygon fill="midnightblue" stroke="midnightblue" points="244.731,-105.624 234.159,-106.313 242.854,-112.367 244.731,-105.624"/>
</g>
<!-- Node4 -->
<g id="node4" class="node"><title>Node4</title>
<g id="a_node4"><a xlink:href="../../d0/d43/LimeUtilCalSweep_8cpp.html#aa1ddf17da91809067879ee6cf16f04d1" target="_top" xlink:title="deviceCalSweep">
<polygon fill="white" stroke="black" points="295,-88 295,-107 385,-107 385,-88 295,-88"/>
<text text-anchor="middle" x="340" y="-95" font-family="Helvetica,sans-Serif" font-size="10.00">deviceCalSweep</text>
</a>
</g>
</g>
<!-- Node2&#45;&gt;Node4 -->
<g id="edge3" class="edge"><title>Node2&#45;&gt;Node4</title>
<path fill="none" stroke="midnightblue" d="M244.304,-97.5C260.315,-97.5 278.623,-97.5 294.847,-97.5"/>
<polygon fill="midnightblue" stroke="midnightblue" points="244.159,-94.0001 234.159,-97.5 244.159,-101 244.159,-94.0001"/>
</g>
<!-- Node6 -->
<g id="node6" class="node"><title>Node6</title>
<g id="a_node6"><a xlink:href="../../d4/d20/basicRX_8cpp.html#a3c04138a5bfe5d72780bb7e82a18e627" target="_top" xlink:title="main">
<polygon fill="white" stroke="black" points="321,-50 321,-69 359,-69 359,-50 321,-50"/>
<text text-anchor="middle" x="340" y="-57" font-family="Helvetica,sans-Serif" font-size="10.00">main</text>
</a>
</g>
</g>
<!-- Node2&#45;&gt;Node6 -->
<g id="edge5" class="edge"><title>Node2&#45;&gt;Node6</title>
<path fill="none" stroke="midnightblue" d="M244.03,-85.9384C269.722,-78.7862 301.412,-69.9641 320.909,-64.5363"/>
<polygon fill="midnightblue" stroke="midnightblue" points="242.854,-82.6328 234.159,-88.6865 244.731,-89.3763 242.854,-82.6328"/>
</g>
<!-- Node5 -->
<g id="node5" class="node"><title>Node5</title>
<g id="a_node5"><a xlink:href="../../d5/db6/LimeUtil_8cpp.html#a0ddf1224851353fc92bfbff6f499fa97" target="_top" xlink:title="main">
<polygon fill="white" stroke="black" points="421,-88 421,-107 459,-107 459,-88 421,-88"/>
<text text-anchor="middle" x="440" y="-95" font-family="Helvetica,sans-Serif" font-size="10.00">main</text>
</a>
</g>
</g>
<!-- Node4&#45;&gt;Node5 -->
<g id="edge4" class="edge"><title>Node4&#45;&gt;Node5</title>
<path fill="none" stroke="midnightblue" d="M395.195,-97.5C404.442,-97.5 413.44,-97.5 420.85,-97.5"/>
<polygon fill="midnightblue" stroke="midnightblue" points="395.126,-94.0001 385.126,-97.5 395.126,-101 395.126,-94.0001"/>
</g>
</g>
</svg>
