<?xml version="1.0" encoding="UTF-8" standalone="no"?>
<!DOCTYPE svg PUBLIC "-//W3C//DTD SVG 1.1//EN"
 "http://www.w3.org/Graphics/SVG/1.1/DTD/svg11.dtd">
<!-- Generated by graphviz version 2.38.0 (20140413.2041)
 -->
<!-- Title: lime::LMS7_Device::GetProgramModes Pages: 1 -->
<svg width="921pt" height="115pt"
 viewBox="0.00 0.00 921.00 115.00" xmlns="http://www.w3.org/2000/svg" xmlns:xlink="http://www.w3.org/1999/xlink">
<g id="graph0" class="graph" transform="scale(1 1) rotate(0) translate(4 111)">
<title>lime::LMS7_Device::GetProgramModes</title>
<polygon fill="white" stroke="none" points="-4,4 -4,-111 917,-111 917,4 -4,4"/>
<!-- Node1 -->
<g id="node1" class="node"><title>Node1</title>
<polygon fill="#bfbfbf" stroke="black" points="0,-51.5 0,-81.5 108,-81.5 108,-51.5 0,-51.5"/>
<text text-anchor="start" x="8" y="-69.5" font-family="Helvetica,sans-Serif" font-size="10.00">lime::LMS7_Device::</text>
<text text-anchor="middle" x="54" y="-58.5" font-family="Helvetica,sans-Serif" font-size="10.00">GetProgramModes</text>
</g>
<!-- Node2 -->
<g id="node2" class="node"><title>Node2</title>
<g id="a_node2"><a xlink:href="../../df/de1/lms7__api_8cpp.html#a10bb9c9c3d45543be59d29908bde7ba9" target="_top" xlink:title="LMS_GetProgramModes">
<polygon fill="white" stroke="black" points="144,-57 144,-76 268,-76 268,-57 144,-57"/>
<text text-anchor="middle" x="206" y="-64" font-family="Helvetica,sans-Serif" font-size="10.00">LMS_GetProgramModes</text>
</a>
</g>
</g>
<!-- Node1&#45;&gt;Node2 -->
<g id="edge1" class="edge"><title>Node1&#45;&gt;Node2</title>
<path fill="none" stroke="midnightblue" d="M118.469,-66.5C126.906,-66.5 135.542,-66.5 143.937,-66.5"/>
<polygon fill="midnightblue" stroke="midnightblue" points="118.307,-63.0001 108.307,-66.5 118.307,-70.0001 118.307,-63.0001"/>
</g>
<!-- Node3 -->
<g id="node3" class="node"><title>Node3</title>
<g id="a_node3"><a xlink:href="../../db/d33/classLMS__Programing__wxgui.html#ab57b7eef0ed213db50d9d122e0d74227" target="_top" xlink:title="LMS_Programing_wxgui\l::SetConnection">
<polygon fill="white" stroke="black" points="304,-51.5 304,-81.5 426,-81.5 426,-51.5 304,-51.5"/>
<text text-anchor="start" x="312" y="-69.5" font-family="Helvetica,sans-Serif" font-size="10.00">LMS_Programing_wxgui</text>
<text text-anchor="middle" x="365" y="-58.5" font-family="Helvetica,sans-Serif" font-size="10.00">::SetConnection</text>
</a>
</g>
</g>
<!-- Node2&#45;&gt;Node3 -->
<g id="edge2" class="edge"><title>Node2&#45;&gt;Node3</title>
<path fill="none" stroke="midnightblue" d="M278.413,-66.5C286.895,-66.5 295.487,-66.5 303.791,-66.5"/>
<polygon fill="midnightblue" stroke="midnightblue" points="278.15,-63.0001 268.15,-66.5 278.15,-70.0001 278.15,-63.0001"/>
</g>
<!-- Node4 -->
<g id="node4" class="node"><title>Node4</title>
<g id="a_node4"><a xlink:href="../../d1/df3/classLMS7SuiteAppFrame.html#a9aba26731989c63cf7da0ffb7128b734" target="_top" xlink:title="LMS7SuiteAppFrame::\lOnShowPrograming">
<polygon fill="white" stroke="black" points="462,-76.5 462,-106.5 578,-106.5 578,-76.5 462,-76.5"/>
<text text-anchor="start" x="470" y="-94.5" font-family="Helvetica,sans-Serif" font-size="10.00">LMS7SuiteAppFrame::</text>
<text text-anchor="middle" x="520" y="-83.5" font-family="Helvetica,sans-Serif" font-size="10.00">OnShowPrograming</text>
</a>
</g>
</g>
<!-- Node3&#45;&gt;Node4 -->
<g id="edge3" class="edge"><title>Node3&#45;&gt;Node4</title>
<path fill="none" stroke="midnightblue" d="M436.022,-77.9415C444.599,-79.3429 453.284,-80.7622 461.644,-82.1281"/>
<polygon fill="midnightblue" stroke="midnightblue" points="436.464,-74.4674 426.031,-76.3089 435.335,-81.3758 436.464,-74.4674"/>
</g>
<!-- Node5 -->
<g id="node5" class="node"><title>Node5</title>
<g id="a_node5"><a xlink:href="../../d1/df3/classLMS7SuiteAppFrame.html#aeaeb613a8c9139f0e60b02f1f612ed5d" target="_top" xlink:title="LMS7SuiteAppFrame::\lUpdateConnections">
<polygon fill="white" stroke="black" points="462,-27.5 462,-57.5 578,-57.5 578,-27.5 462,-27.5"/>
<text text-anchor="start" x="470" y="-45.5" font-family="Helvetica,sans-Serif" font-size="10.00">LMS7SuiteAppFrame::</text>
<text text-anchor="middle" x="520" y="-34.5" font-family="Helvetica,sans-Serif" font-size="10.00">UpdateConnections</text>
</a>
</g>
</g>
<!-- Node3&#45;&gt;Node5 -->
<g id="edge4" class="edge"><title>Node3&#45;&gt;Node5</title>
<path fill="none" stroke="midnightblue" d="M436.022,-55.5161C444.599,-54.1708 453.284,-52.8083 461.644,-51.497"/>
<polygon fill="midnightblue" stroke="midnightblue" points="435.367,-52.076 426.031,-57.0834 436.452,-58.9914 435.367,-52.076"/>
</g>
<!-- Node6 -->
<g id="node6" class="node"><title>Node6</title>
<g id="a_node6"><a xlink:href="../../d1/df3/classLMS7SuiteAppFrame.html#ad380f4e547c66fcfffdec0da53fe5b3e" target="_top" xlink:title="Constructor. ">
<polygon fill="white" stroke="black" points="785,-49.5 785,-79.5 901,-79.5 901,-49.5 785,-49.5"/>
<text text-anchor="start" x="793" y="-67.5" font-family="Helvetica,sans-Serif" font-size="10.00">LMS7SuiteAppFrame::</text>
<text text-anchor="middle" x="843" y="-56.5" font-family="Helvetica,sans-Serif" font-size="10.00">LMS7SuiteAppFrame</text>
</a>
</g>
</g>
<!-- Node5&#45;&gt;Node6 -->
<g id="edge5" class="edge"><title>Node5&#45;&gt;Node6</title>
<path fill="none" stroke="midnightblue" d="M588.232,-47.1078C646.507,-51.1017 729.904,-56.8174 784.973,-60.5916"/>
<polygon fill="midnightblue" stroke="midnightblue" points="588.234,-43.5998 578.018,-46.4078 587.756,-50.5835 588.234,-43.5998"/>
</g>
<!-- Node7 -->
<g id="node7" class="node"><title>Node7</title>
<g id="a_node7"><a xlink:href="../../d1/df3/classLMS7SuiteAppFrame.html#a819f017d3e706c433d9b7f4f9bc1f9c3" target="_top" xlink:title="LMS7SuiteAppFrame::\lOnControlBoardConnect">
<polygon fill="white" stroke="black" points="614,-5.5 614,-35.5 737,-35.5 737,-5.5 614,-5.5"/>
<text text-anchor="start" x="622" y="-23.5" font-family="Helvetica,sans-Serif" font-size="10.00">LMS7SuiteAppFrame::</text>
<text text-anchor="middle" x="675.5" y="-12.5" font-family="Helvetica,sans-Serif" font-size="10.00">OnControlBoardConnect</text>
</a>
</g>
</g>
<!-- Node5&#45;&gt;Node7 -->
<g id="edge6" class="edge"><title>Node5&#45;&gt;Node7</title>
<path fill="none" stroke="midnightblue" d="M588.138,-32.8776C596.727,-31.6467 605.478,-30.3924 613.953,-29.1777"/>
<polygon fill="midnightblue" stroke="midnightblue" points="587.56,-29.4246 578.158,-34.308 588.553,-36.3538 587.56,-29.4246"/>
</g>
<!-- Node7&#45;&gt;Node6 -->
<g id="edge7" class="edge"><title>Node7&#45;&gt;Node6</title>
<path fill="none" stroke="midnightblue" d="M742.678,-38.0941C756.855,-41.8632 771.709,-45.8122 785.481,-49.4738"/>
<polygon fill="midnightblue" stroke="midnightblue" points="743.556,-34.7062 732.993,-35.5192 741.758,-41.4712 743.556,-34.7062"/>
</g>
<!-- Node8 -->
<g id="node8" class="node"><title>Node8</title>
<g id="a_node8"><a xlink:href="../../d1/df3/classLMS7SuiteAppFrame.html#a08626f72855857180d80ab271f481d08" target="_top" xlink:title="LMS7SuiteAppFrame::\lOnShowConnectionSettings">
<polygon fill="white" stroke="black" points="773,-0.5 773,-30.5 913,-30.5 913,-0.5 773,-0.5"/>
<text text-anchor="start" x="781" y="-18.5" font-family="Helvetica,sans-Serif" font-size="10.00">LMS7SuiteAppFrame::</text>
<text text-anchor="middle" x="843" y="-7.5" font-family="Helvetica,sans-Serif" font-size="10.00">OnShowConnectionSettings</text>
</a>
</g>
</g>
<!-- Node7&#45;&gt;Node8 -->
<g id="edge8" class="edge"><title>Node7&#45;&gt;Node8</title>
<path fill="none" stroke="midnightblue" d="M747.399,-18.358C755.86,-18.1024 764.49,-17.8417 772.925,-17.5868"/>
<polygon fill="midnightblue" stroke="midnightblue" points="747.076,-14.8661 737.186,-18.6666 747.287,-21.8629 747.076,-14.8661"/>
</g>
</g>
</svg>
