<?xml version="1.0" encoding="UTF-8" standalone="no"?>
<!DOCTYPE svg PUBLIC "-//W3C//DTD SVG 1.1//EN"
 "http://www.w3.org/Graphics/SVG/1.1/DTD/svg11.dtd">
<!-- Generated by graphviz version 2.38.0 (20140413.2041)
 -->
<!-- Title: lime::ConnectionRegistry::moduleNames Pages: 1 -->
<svg width="485pt" height="252pt"
 viewBox="0.00 0.00 485.00 251.50" xmlns="http://www.w3.org/2000/svg" xmlns:xlink="http://www.w3.org/1999/xlink">
<g id="graph0" class="graph" transform="scale(1 1) rotate(0) translate(4 247.5)">
<title>lime::ConnectionRegistry::moduleNames</title>
<polygon fill="white" stroke="none" points="-4,4 -4,-247.5 481,-247.5 481,4 -4,4"/>
<!-- Node1 -->
<g id="node1" class="node"><title>Node1</title>
<polygon fill="#bfbfbf" stroke="black" points="0,-101.5 0,-131.5 127,-131.5 127,-101.5 0,-101.5"/>
<text text-anchor="start" x="8" y="-119.5" font-family="Helvetica,sans-Serif" font-size="10.00">lime::ConnectionRegistry</text>
<text text-anchor="middle" x="63.5" y="-108.5" font-family="Helvetica,sans-Serif" font-size="10.00">::moduleNames</text>
</g>
<!-- Node2 -->
<g id="node2" class="node"><title>Node2</title>
<g id="a_node2"><a xlink:href="../../d3/d58/ConnectionRegistry_8cpp.html#aa70d3b52e1cb50a0736b9cf791464ee1" target="_top" xlink:title="__loadAllConnections">
<polygon fill="white" stroke="black" points="163,-126 163,-145 274,-145 274,-126 163,-126"/>
<text text-anchor="middle" x="218.5" y="-133" font-family="Helvetica,sans-Serif" font-size="10.00">__loadAllConnections</text>
</a>
</g>
</g>
<!-- Node1&#45;&gt;Node2 -->
<g id="edge1" class="edge"><title>Node1&#45;&gt;Node2</title>
<path fill="none" stroke="midnightblue" d="M127.172,-124.283C135.504,-125.317 144.061,-126.38 152.432,-127.42"/>
<polygon fill="midnightblue" stroke="midnightblue" points="152.167,-130.914 162.522,-128.673 153.029,-123.967 152.167,-130.914"/>
</g>
<!-- Node9 -->
<g id="node9" class="node"><title>Node9</title>
<g id="a_node9"><a xlink:href="../../d3/d58/ConnectionRegistry_8cpp.html#a7b6ff8fe9f005ea107c52866c40462fc" target="_top" xlink:title="registryMutex">
<polygon fill="white" stroke="black" points="180.5,-88 180.5,-107 256.5,-107 256.5,-88 180.5,-88"/>
<text text-anchor="middle" x="218.5" y="-95" font-family="Helvetica,sans-Serif" font-size="10.00">registryMutex</text>
</a>
</g>
</g>
<!-- Node1&#45;&gt;Node9 -->
<g id="edge8" class="edge"><title>Node1&#45;&gt;Node9</title>
<path fill="none" stroke="midnightblue" d="M127.172,-108.717C141.509,-106.937 156.515,-105.073 170.086,-103.388"/>
<polygon fill="midnightblue" stroke="midnightblue" points="170.658,-106.844 180.15,-102.138 169.795,-99.8974 170.658,-106.844"/>
</g>
<!-- Node3 -->
<g id="node3" class="node"><title>Node3</title>
<g id="a_node3"><a xlink:href="../../d6/d7b/BuiltinConnections_8in_8cpp.html#aafab0a44fc1f7320af30da07cb979574" target="_top" xlink:title="make a static&#45;initialized entry in the registry ">
<polygon fill="white" stroke="black" points="310,-224 310,-243 477,-243 477,-224 310,-224"/>
<text text-anchor="middle" x="393.5" y="-231" font-family="Helvetica,sans-Serif" font-size="10.00">__loadConnectionEVB7COMEntry</text>
</a>
</g>
</g>
<!-- Node2&#45;&gt;Node3 -->
<g id="edge2" class="edge"><title>Node2&#45;&gt;Node3</title>
<path fill="none" stroke="midnightblue" d="M227.638,-145.218C242.295,-162.059 274.892,-196.578 310,-214.5 314.627,-216.862 319.549,-218.934 324.596,-220.751"/>
<polygon fill="midnightblue" stroke="midnightblue" points="323.819,-224.179 334.411,-223.94 325.982,-217.521 323.819,-224.179"/>
</g>
<!-- Node4 -->
<g id="node4" class="node"><title>Node4</title>
<g id="a_node4"><a xlink:href="../../d6/d7b/BuiltinConnections_8in_8cpp.html#abbfa4cb1eee49942395e8844101b99e1" target="_top" xlink:title="make a static&#45;initialized entry in the registry ">
<polygon fill="white" stroke="black" points="320.5,-186 320.5,-205 466.5,-205 466.5,-186 320.5,-186"/>
<text text-anchor="middle" x="393.5" y="-193" font-family="Helvetica,sans-Serif" font-size="10.00">__loadConnectionFT601Entry</text>
</a>
</g>
</g>
<!-- Node2&#45;&gt;Node4 -->
<g id="edge3" class="edge"><title>Node2&#45;&gt;Node4</title>
<path fill="none" stroke="midnightblue" d="M237.782,-145.089C255.759,-154.202 284.181,-167.775 310,-176.5 317.622,-179.076 325.757,-181.419 333.837,-183.511"/>
<polygon fill="midnightblue" stroke="midnightblue" points="333.079,-186.929 343.627,-185.937 334.763,-180.134 333.079,-186.929"/>
</g>
<!-- Node5 -->
<g id="node5" class="node"><title>Node5</title>
<g id="a_node5"><a xlink:href="../../d6/d7b/BuiltinConnections_8in_8cpp.html#a52c35dd464a2d8bd7fad6625cf30265c" target="_top" xlink:title="make a static&#45;initialized entry in the registry ">
<polygon fill="white" stroke="black" points="325.5,-148 325.5,-167 461.5,-167 461.5,-148 325.5,-148"/>
<text text-anchor="middle" x="393.5" y="-155" font-family="Helvetica,sans-Serif" font-size="10.00">__loadConnectionFX3Entry</text>
</a>
</g>
</g>
<!-- Node2&#45;&gt;Node5 -->
<g id="edge4" class="edge"><title>Node2&#45;&gt;Node5</title>
<path fill="none" stroke="midnightblue" d="M274.238,-142.461C287.302,-144.122 301.488,-145.926 315.35,-147.689"/>
<polygon fill="midnightblue" stroke="midnightblue" points="315.004,-151.173 325.366,-148.963 315.888,-144.229 315.004,-151.173"/>
</g>
<!-- Node6 -->
<g id="node6" class="node"><title>Node6</title>
<g id="a_node6"><a xlink:href="../../d6/d7b/BuiltinConnections_8in_8cpp.html#a4029c016de66cd0c9aa695c4212f0029" target="_top" xlink:title="make a static&#45;initialized entry in the registry ">
<polygon fill="white" stroke="black" points="320,-98.5 320,-128.5 467,-128.5 467,-98.5 320,-98.5"/>
<text text-anchor="start" x="328" y="-116.5" font-family="Helvetica,sans-Serif" font-size="10.00">__loadConnectionNovenaRF7</text>
<text text-anchor="middle" x="393.5" y="-105.5" font-family="Helvetica,sans-Serif" font-size="10.00">Entry</text>
</a>
</g>
</g>
<!-- Node2&#45;&gt;Node6 -->
<g id="edge5" class="edge"><title>Node2&#45;&gt;Node6</title>
<path fill="none" stroke="midnightblue" d="M274.238,-128.539C285.529,-127.103 297.659,-125.561 309.693,-124.03"/>
<polygon fill="midnightblue" stroke="midnightblue" points="310.281,-127.484 319.759,-122.75 309.397,-120.54 310.281,-127.484"/>
</g>
<!-- Node7 -->
<g id="node7" class="node"><title>Node7</title>
<g id="a_node7"><a xlink:href="../../d6/d7b/BuiltinConnections_8in_8cpp.html#a86c8aaa38f814e66a6501109b0419128" target="_top" xlink:title="make a static&#45;initialized entry in the registry ">
<polygon fill="white" stroke="black" points="325,-49.5 325,-79.5 462,-79.5 462,-49.5 325,-49.5"/>
<text text-anchor="start" x="333" y="-67.5" font-family="Helvetica,sans-Serif" font-size="10.00">__loadConnectionSTREAM</text>
<text text-anchor="middle" x="393.5" y="-56.5" font-family="Helvetica,sans-Serif" font-size="10.00">_UNITEEntry</text>
</a>
</g>
</g>
<!-- Node2&#45;&gt;Node7 -->
<g id="edge6" class="edge"><title>Node2&#45;&gt;Node7</title>
<path fill="none" stroke="midnightblue" d="M252.186,-125.943C259.547,-123.292 267.19,-120.128 274,-116.5 291.652,-107.097 292.158,-98.5375 310,-89.5 314.475,-87.2334 319.192,-85.1318 324.011,-83.1908"/>
<polygon fill="midnightblue" stroke="midnightblue" points="325.251,-86.4639 333.368,-79.655 322.776,-79.9158 325.251,-86.4639"/>
</g>
<!-- Node8 -->
<g id="node8" class="node"><title>Node8</title>
<g id="a_node8"><a xlink:href="../../d6/d7b/BuiltinConnections_8in_8cpp.html#af9ac641bc1febe4c158ee95b289bb04c" target="_top" xlink:title="make a static&#45;initialized entry in the registry ">
<polygon fill="white" stroke="black" points="329,-0.5 329,-30.5 458,-30.5 458,-0.5 329,-0.5"/>
<text text-anchor="start" x="337" y="-18.5" font-family="Helvetica,sans-Serif" font-size="10.00">__loadConnectionXillybus</text>
<text text-anchor="middle" x="393.5" y="-7.5" font-family="Helvetica,sans-Serif" font-size="10.00">Entry</text>
</a>
</g>
</g>
<!-- Node2&#45;&gt;Node8 -->
<g id="edge7" class="edge"><title>Node2&#45;&gt;Node8</title>
<path fill="none" stroke="midnightblue" d="M259.116,-125.954C264.515,-123.483 269.677,-120.384 274,-116.5 301.803,-91.5215 281.688,-64.9003 310,-40.5 313.038,-37.8818 316.344,-35.5378 319.828,-33.4393"/>
<polygon fill="midnightblue" stroke="midnightblue" points="321.588,-36.4681 328.806,-28.7123 318.327,-30.2741 321.588,-36.4681"/>
</g>
</g>
</svg>
