<?xml version="1.0" encoding="UTF-8" standalone="no"?>
<!DOCTYPE svg PUBLIC "-//W3C//DTD SVG 1.1//EN"
 "http://www.w3.org/Graphics/SVG/1.1/DTD/svg11.dtd">
<!-- Generated by graphviz version 2.38.0 (20140413.2041)
 -->
<!-- Title: /home/erik/prefix/default/src/limesuite&#45;dev/src/ConnectionNovenaRF7/ConnectionNovenaRF7.h Pages: 1 -->
<svg width="796pt" height="150pt"
 viewBox="0.00 0.00 795.50 150.00" xmlns="http://www.w3.org/2000/svg" xmlns:xlink="http://www.w3.org/1999/xlink">
<g id="graph0" class="graph" transform="scale(1 1) rotate(0) translate(4 146)">
<title>/home/erik/prefix/default/src/limesuite&#45;dev/src/ConnectionNovenaRF7/ConnectionNovenaRF7.h</title>
<polygon fill="white" stroke="none" points="-4,4 -4,-146 791.5,-146 791.5,4 -4,4"/>
<!-- Node1 -->
<g id="node1" class="node"><title>Node1</title>
<polygon fill="#bfbfbf" stroke="black" points="288,-89.5 288,-141.5 462,-141.5 462,-89.5 288,-89.5"/>
<text text-anchor="start" x="296" y="-129.5" font-family="Helvetica,sans-Serif" font-size="10.00">/home/erik/prefix/default</text>
<text text-anchor="start" x="296" y="-118.5" font-family="Helvetica,sans-Serif" font-size="10.00">/src/limesuite&#45;dev/src</text>
<text text-anchor="start" x="296" y="-107.5" font-family="Helvetica,sans-Serif" font-size="10.00">/ConnectionNovenaRF7/Connection</text>
<text text-anchor="middle" x="375" y="-96.5" font-family="Helvetica,sans-Serif" font-size="10.00">NovenaRF7.h</text>
</g>
<!-- Node2 -->
<g id="node2" class="node"><title>Node2</title>
<g id="a_node2"><a xlink:href="../../d4/d5e/ConnectionNovenaRF7_8cpp.html" target="_top" xlink:title="NovenaRF connection over SPI&#45;DEV linux. ">
<polygon fill="white" stroke="black" points="0,-0.5 0,-52.5 174,-52.5 174,-0.5 0,-0.5"/>
<text text-anchor="start" x="8" y="-40.5" font-family="Helvetica,sans-Serif" font-size="10.00">/home/erik/prefix/default</text>
<text text-anchor="start" x="8" y="-29.5" font-family="Helvetica,sans-Serif" font-size="10.00">/src/limesuite&#45;dev/src</text>
<text text-anchor="start" x="8" y="-18.5" font-family="Helvetica,sans-Serif" font-size="10.00">/ConnectionNovenaRF7/Connection</text>
<text text-anchor="middle" x="87" y="-7.5" font-family="Helvetica,sans-Serif" font-size="10.00">NovenaRF7.cpp</text>
</a>
</g>
</g>
<!-- Node1&#45;&gt;Node2 -->
<g id="edge1" class="edge"><title>Node1&#45;&gt;Node2</title>
<path fill="none" stroke="midnightblue" d="M282.503,-86.5581C246.283,-75.6166 205.056,-63.1627 169.828,-52.5211"/>
<polygon fill="midnightblue" stroke="midnightblue" points="281.5,-89.9113 292.085,-89.4527 283.524,-83.2104 281.5,-89.9113"/>
</g>
<!-- Node3 -->
<g id="node3" class="node"><title>Node3</title>
<g id="a_node3"><a xlink:href="../../dd/df4/ConnectionNovenaRF7__streaming_8cpp.html" target="_top" xlink:title="/home/erik/prefix/default\l/src/limesuite&#45;dev/src\l/ConnectionNovenaRF7/Connection\lNovenaRF7_streaming.cpp">
<polygon fill="white" stroke="black" points="192,-0.5 192,-52.5 366,-52.5 366,-0.5 192,-0.5"/>
<text text-anchor="start" x="200" y="-40.5" font-family="Helvetica,sans-Serif" font-size="10.00">/home/erik/prefix/default</text>
<text text-anchor="start" x="200" y="-29.5" font-family="Helvetica,sans-Serif" font-size="10.00">/src/limesuite&#45;dev/src</text>
<text text-anchor="start" x="200" y="-18.5" font-family="Helvetica,sans-Serif" font-size="10.00">/ConnectionNovenaRF7/Connection</text>
<text text-anchor="middle" x="279" y="-7.5" font-family="Helvetica,sans-Serif" font-size="10.00">NovenaRF7_streaming.cpp</text>
</a>
</g>
</g>
<!-- Node1&#45;&gt;Node3 -->
<g id="edge2" class="edge"><title>Node1&#45;&gt;Node3</title>
<path fill="none" stroke="midnightblue" d="M339.539,-82.3631C328.702,-72.542 316.948,-61.8899 306.705,-52.6075"/>
<polygon fill="midnightblue" stroke="midnightblue" points="337.473,-85.2142 347.233,-89.336 342.173,-80.0273 337.473,-85.2142"/>
</g>
<!-- Node4 -->
<g id="node4" class="node"><title>Node4</title>
<g id="a_node4"><a xlink:href="../../d0/dee/ConnectionNovenaRF7Entry_8cpp.html" target="_top" xlink:title="NovenaRF connection over SPI&#45;DEV linux. ">
<polygon fill="white" stroke="black" points="384,-0.5 384,-52.5 558,-52.5 558,-0.5 384,-0.5"/>
<text text-anchor="start" x="392" y="-40.5" font-family="Helvetica,sans-Serif" font-size="10.00">/home/erik/prefix/default</text>
<text text-anchor="start" x="392" y="-29.5" font-family="Helvetica,sans-Serif" font-size="10.00">/src/limesuite&#45;dev/src</text>
<text text-anchor="start" x="392" y="-18.5" font-family="Helvetica,sans-Serif" font-size="10.00">/ConnectionNovenaRF7/Connection</text>
<text text-anchor="middle" x="471" y="-7.5" font-family="Helvetica,sans-Serif" font-size="10.00">NovenaRF7Entry.cpp</text>
</a>
</g>
</g>
<!-- Node1&#45;&gt;Node4 -->
<g id="edge3" class="edge"><title>Node1&#45;&gt;Node4</title>
<path fill="none" stroke="midnightblue" d="M410.461,-82.3631C421.298,-72.542 433.052,-61.8899 443.295,-52.6075"/>
<polygon fill="midnightblue" stroke="midnightblue" points="407.827,-80.0273 402.767,-89.336 412.527,-85.2142 407.827,-80.0273"/>
</g>
<!-- Node5 -->
<g id="node5" class="node"><title>Node5</title>
<g id="a_node5"><a xlink:href="../../d8/dc5/StreamChannel_8cpp.html" target="_top" xlink:title="/home/erik/prefix/default\l/src/limesuite&#45;dev/src\l/ConnectionNovenaRF7/StreamChannel.cpp">
<polygon fill="white" stroke="black" points="576.5,-6 576.5,-47 787.5,-47 787.5,-6 576.5,-6"/>
<text text-anchor="start" x="584.5" y="-35" font-family="Helvetica,sans-Serif" font-size="10.00">/home/erik/prefix/default</text>
<text text-anchor="start" x="584.5" y="-24" font-family="Helvetica,sans-Serif" font-size="10.00">/src/limesuite&#45;dev/src</text>
<text text-anchor="middle" x="682" y="-13" font-family="Helvetica,sans-Serif" font-size="10.00">/ConnectionNovenaRF7/StreamChannel.cpp</text>
</a>
</g>
</g>
<!-- Node1&#45;&gt;Node5 -->
<g id="edge4" class="edge"><title>Node1&#45;&gt;Node5</title>
<path fill="none" stroke="midnightblue" d="M471.822,-87.0619C517.727,-74.053 571.499,-58.8145 613.163,-47.0076"/>
<polygon fill="midnightblue" stroke="midnightblue" points="470.82,-83.708 462.153,-89.802 472.728,-90.4428 470.82,-83.708"/>
</g>
</g>
</svg>
