<?xml version="1.0" encoding="UTF-8" standalone="no"?>
<!DOCTYPE svg PUBLIC "-//W3C//DTD SVG 1.1//EN"
 "http://www.w3.org/Graphics/SVG/1.1/DTD/svg11.dtd">
<!-- Generated by graphviz version 2.38.0 (20140413.2041)
 -->
<!-- Title: computeGoertzel Pages: 1 -->
<svg width="449pt" height="166pt"
 viewBox="0.00 0.00 449.00 165.50" xmlns="http://www.w3.org/2000/svg" xmlns:xlink="http://www.w3.org/1999/xlink">
<g id="graph0" class="graph" transform="scale(1 1) rotate(0) translate(4 161.5)">
<title>computeGoertzel</title>
<polygon fill="white" stroke="none" points="-4,4 -4,-161.5 445,-161.5 445,4 -4,4"/>
<!-- Node1 -->
<g id="node1" class="node"><title>Node1</title>
<polygon fill="#bfbfbf" stroke="black" points="0,-72 0,-91 91,-91 91,-72 0,-72"/>
<text text-anchor="middle" x="45.5" y="-79" font-family="Helvetica,sans-Serif" font-size="10.00">computeGoertzel</text>
</g>
<!-- Node2 -->
<g id="node2" class="node"><title>Node2</title>
<g id="a_node2"><a xlink:href="../../de/dc9/goert_8cpp.html#acf6bcd38a1a8ae4c9f63731c2cac8a9e" target="_top" xlink:title="c64to48">
<polygon fill="white" stroke="black" points="151,-138 151,-157 202,-157 202,-138 151,-138"/>
<text text-anchor="middle" x="176.5" y="-145" font-family="Helvetica,sans-Serif" font-size="10.00">c64to48</text>
</a>
</g>
</g>
<!-- Node1&#45;&gt;Node2 -->
<g id="edge1" class="edge"><title>Node1&#45;&gt;Node2</title>
<path fill="none" stroke="midnightblue" d="M61.2526,-91.0502C77.1142,-101.093 103.258,-117.004 127,-128.5 131.446,-130.653 136.203,-132.752 140.936,-134.722"/>
<polygon fill="midnightblue" stroke="midnightblue" points="139.924,-138.088 150.509,-138.562 142.53,-131.591 139.924,-138.088"/>
</g>
<!-- Node3 -->
<g id="node3" class="node"><title>Node3</title>
<g id="a_node3"><a xlink:href="../../d2/de5/classlime_1_1IConnection.html#a791c33a7557f750c82ffc001f0fcb5ff" target="_top" xlink:title="Read a single device register. ">
<polygon fill="white" stroke="black" points="127,-88.5 127,-118.5 226,-118.5 226,-88.5 127,-88.5"/>
<text text-anchor="start" x="135" y="-106.5" font-family="Helvetica,sans-Serif" font-size="10.00">lime::IConnection::</text>
<text text-anchor="middle" x="176.5" y="-95.5" font-family="Helvetica,sans-Serif" font-size="10.00">ReadRegister</text>
</a>
</g>
</g>
<!-- Node1&#45;&gt;Node3 -->
<g id="edge2" class="edge"><title>Node1&#45;&gt;Node3</title>
<path fill="none" stroke="midnightblue" d="M91.2559,-89.1328C99.5199,-90.5421 108.262,-92.0331 116.865,-93.5002"/>
<polygon fill="midnightblue" stroke="midnightblue" points="116.415,-96.974 126.861,-95.205 117.592,-90.0736 116.415,-96.974"/>
</g>
<!-- Node4 -->
<g id="node4" class="node"><title>Node4</title>
<g id="a_node4"><a xlink:href="../../d5/d6c/namespacelime.html#adc6af0cf8e0a70f3ef09fac1244f8c48" target="_top" xlink:title="lime::ReportError">
<polygon fill="white" stroke="black" points="262,-28 262,-47 353,-47 353,-28 262,-28"/>
<text text-anchor="middle" x="307.5" y="-35" font-family="Helvetica,sans-Serif" font-size="10.00">lime::ReportError</text>
</a>
</g>
</g>
<!-- Node1&#45;&gt;Node4 -->
<g id="edge3" class="edge"><title>Node1&#45;&gt;Node4</title>
<path fill="none" stroke="midnightblue" d="M91.1956,-73.9361C135.698,-66.4049 204.079,-54.8327 251.8,-46.7569"/>
<polygon fill="midnightblue" stroke="midnightblue" points="252.678,-50.1583 261.953,-45.0387 251.51,-43.2564 252.678,-50.1583"/>
</g>
<!-- Node6 -->
<g id="node6" class="node"><title>Node6</title>
<g id="a_node6"><a xlink:href="../../d2/de5/classlime_1_1IConnection.html#a29486e2fa70f0a6005083660d5871454" target="_top" xlink:title="Bulk write device registers. ">
<polygon fill="white" stroke="black" points="127,-0.5 127,-30.5 226,-30.5 226,-0.5 127,-0.5"/>
<text text-anchor="start" x="135" y="-18.5" font-family="Helvetica,sans-Serif" font-size="10.00">lime::IConnection::</text>
<text text-anchor="middle" x="176.5" y="-7.5" font-family="Helvetica,sans-Serif" font-size="10.00">WriteRegisters</text>
</a>
</g>
</g>
<!-- Node1&#45;&gt;Node6 -->
<g id="edge5" class="edge"><title>Node1&#45;&gt;Node6</title>
<path fill="none" stroke="midnightblue" d="M65.2577,-71.903C83.888,-62.3713 113.008,-47.4726 136.642,-35.3808"/>
<polygon fill="midnightblue" stroke="midnightblue" points="138.418,-38.4037 145.726,-30.733 135.23,-32.172 138.418,-38.4037"/>
</g>
<!-- Node5 -->
<g id="node5" class="node"><title>Node5</title>
<g id="a_node5"><a xlink:href="../../d9/df5/Logger_8cpp.html#ada38bf01d6d691de953ed69268ea6516" target="_top" xlink:title="errToStr">
<polygon fill="white" stroke="black" points="389,-28 389,-47 441,-47 441,-28 389,-28"/>
<text text-anchor="middle" x="415" y="-35" font-family="Helvetica,sans-Serif" font-size="10.00">errToStr</text>
</a>
</g>
</g>
<!-- Node4&#45;&gt;Node5 -->
<g id="edge4" class="edge"><title>Node4&#45;&gt;Node5</title>
<path fill="none" stroke="midnightblue" d="M353.241,-37.5C361.676,-37.5 370.39,-37.5 378.494,-37.5"/>
<polygon fill="midnightblue" stroke="midnightblue" points="378.722,-41.0001 388.722,-37.5 378.722,-34.0001 378.722,-41.0001"/>
</g>
<!-- Node6&#45;&gt;Node4 -->
<g id="edge6" class="edge"><title>Node6&#45;&gt;Node4</title>
<path fill="none" stroke="midnightblue" d="M226.269,-23.8173C234.68,-25.2516 243.47,-26.7507 252.019,-28.2087"/>
<polygon fill="midnightblue" stroke="midnightblue" points="251.462,-31.6641 261.908,-29.8952 252.639,-24.7637 251.462,-31.6641"/>
</g>
</g>
</svg>
