<?xml version="1.0" encoding="UTF-8" standalone="no"?>
<!DOCTYPE svg PUBLIC "-//W3C//DTD SVG 1.1//EN"
 "http://www.w3.org/Graphics/SVG/1.1/DTD/svg11.dtd">
<!-- Generated by graphviz version 2.38.0 (20140413.2041)
 -->
<!-- Title: CalculateGoertzelBin Pages: 1 -->
<!--zoomable 291 -->
<svg id="main" version="1.1" xmlns="http://www.w3.org/2000/svg" xmlns:xlink="http://www.w3.org/1999/xlink" xml:space="preserve" onload="init(evt)">
<style type="text/css"><![CDATA[
.edge:hover path { stroke: red; }
.edge:hover polygon { stroke: red; fill: red; }
]]></style>
<script type="text/javascript"><![CDATA[
var edges = document.getElementsByTagName('g');
if (edges && edges.length) {
  for (var i=0;i<edges.length;i++) {
    if (edges[i].id.substr(0,4)=='edge') {
      edges[i].setAttribute('class','edge');
    }
  }
}
]]></script>
        <defs>
                <circle id="rim" cx="0" cy="0" r="7"/>
                <circle id="rim2" cx="0" cy="0" r="3.5"/>
                <g id="zoomPlus">
                        <use xlink:href="#rim" fill="#404040">
                                <set attributeName="fill" to="#808080" begin="zoomplus.mouseover" end="zoomplus.mouseout"/>
                        </use>
                        <path d="M-4,0h8M0,-4v8" fill="none" stroke="white" stroke-width="1.5" pointer-events="none"/>
                </g>
                <g id="zoomMin">
                        <use xlink:href="#rim" fill="#404040">
                                <set attributeName="fill" to="#808080" begin="zoomminus.mouseover" end="zoomminus.mouseout"/>
                        </use>
                        <path d="M-4,0h8" fill="none" stroke="white" stroke-width="1.5" pointer-events="none"/>
                </g>
                <g id="dirArrow">
                        <path fill="none" stroke="white" stroke-width="1.5" d="M0,-3.0v7 M-2.5,-0.5L0,-3.0L2.5,-0.5"/>
                </g>
               <g id="resetDef">
                       <use xlink:href="#rim2" fill="#404040">
                               <set attributeName="fill" to="#808080" begin="reset.mouseover" end="reset.mouseout"/>
                       </use>
               </g>
        </defs>

<script type="text/javascript">
var viewWidth = 605;
var viewHeight = 291;
var sectionId = 'dynsection-3';
</script>
<script xlink:href="../../svgpan.js"/>
<svg id="graph" class="graph">
<g id="viewport">
<title>CalculateGoertzelBin</title>
<polygon fill="white" stroke="none" points="-4,4 -4,-287 601,-287 601,4 -4,4"/>
<!-- Node1 -->
<g id="node1" class="node"><title>Node1</title>
<polygon fill="#bfbfbf" stroke="black" points="0,-88 0,-107 109,-107 109,-88 0,-88"/>
<text text-anchor="middle" x="54.5" y="-95" font-family="Helvetica,sans-Serif" font-size="10.00">CalculateGoertzelBin</text>
</g>
<!-- Node2 -->
<g id="node2" class="node"><title>Node2</title>
<g id="a_node2"><a xlink:href="../../de/dc9/goert_8cpp.html#a3b4bbb3ef316422c243fcdc5887c8ec7" target="_top" xlink:title="computeGoertzel">
<polygon fill="white" stroke="black" points="150.5,-170 150.5,-189 241.5,-189 241.5,-170 150.5,-170"/>
<text text-anchor="middle" x="196" y="-177" font-family="Helvetica,sans-Serif" font-size="10.00">computeGoertzel</text>
</a>
</g>
</g>
<!-- Node1&#45;&gt;Node2 -->
<g id="edge1" class="edge"><title>Node1&#45;&gt;Node2</title>
<path fill="none" stroke="midnightblue" d="M71.7754,-107.067C95.9256,-121.263 141.451,-148.023 169.893,-164.742"/>
<polygon fill="midnightblue" stroke="midnightblue" points="168.434,-167.944 178.828,-169.994 171.981,-161.909 168.434,-167.944"/>
</g>
<!-- Node4 -->
<g id="node4" class="node"><title>Node4</title>
<g id="a_node4"><a xlink:href="../../d5/d6c/namespacelime.html#adc6af0cf8e0a70f3ef09fac1244f8c48" target="_top" xlink:title="lime::ReportError">
<polygon fill="white" stroke="black" points="418,-88 418,-107 509,-107 509,-88 418,-88"/>
<text text-anchor="middle" x="463.5" y="-95" font-family="Helvetica,sans-Serif" font-size="10.00">lime::ReportError</text>
</a>
</g>
</g>
<!-- Node1&#45;&gt;Node4 -->
<g id="edge12" class="edge"><title>Node1&#45;&gt;Node4</title>
<path fill="none" stroke="midnightblue" d="M109.127,-97.5C186.698,-97.5 329.464,-97.5 407.691,-97.5"/>
<polygon fill="midnightblue" stroke="midnightblue" points="407.826,-101 417.826,-97.5 407.826,-94.0001 407.826,-101"/>
</g>
<!-- Node8 -->
<g id="node8" class="node"><title>Node8</title>
<g id="a_node8"><a xlink:href="../../de/dc9/goert_8cpp.html#aadc26df93e0f6e0ad65a93324e77af14" target="_top" xlink:title="Retrieves Goertzel computed I and Q values for the k&#45;th bin from the FPGA. ">
<polygon fill="white" stroke="black" points="145,-50 145,-69 247,-69 247,-50 145,-50"/>
<text text-anchor="middle" x="196" y="-57" font-family="Helvetica,sans-Serif" font-size="10.00">readGoertzelValues</text>
</a>
</g>
</g>
<!-- Node1&#45;&gt;Node8 -->
<g id="edge8" class="edge"><title>Node1&#45;&gt;Node8</title>
<path fill="none" stroke="midnightblue" d="M90.7017,-87.911C108.71,-83.0056 130.828,-76.9804 150.056,-71.7429"/>
<polygon fill="midnightblue" stroke="midnightblue" points="151.081,-75.0912 159.81,-69.0859 149.241,-68.3373 151.081,-75.0912"/>
</g>
<!-- Node3 -->
<g id="node3" class="node"><title>Node3</title>
<g id="a_node3"><a xlink:href="../../d2/de5/classlime_1_1IConnection.html#a29486e2fa70f0a6005083660d5871454" target="_top" xlink:title="Bulk write device registers. ">
<polygon fill="white" stroke="black" points="283,-252.5 283,-282.5 382,-282.5 382,-252.5 283,-252.5"/>
<text text-anchor="start" x="291" y="-270.5" font-family="Helvetica,sans-Serif" font-size="10.00">lime::IConnection::</text>
<text text-anchor="middle" x="332.5" y="-259.5" font-family="Helvetica,sans-Serif" font-size="10.00">WriteRegisters</text>
</a>
</g>
</g>
<!-- Node2&#45;&gt;Node3 -->
<g id="edge2" class="edge"><title>Node2&#45;&gt;Node3</title>
<path fill="none" stroke="midnightblue" d="M210.89,-189.114C227.799,-200.76 257.286,-220.885 283,-237.5 287.782,-240.59 292.862,-243.805 297.866,-246.933"/>
<polygon fill="midnightblue" stroke="midnightblue" points="296.367,-250.122 306.709,-252.425 300.06,-244.176 296.367,-250.122"/>
</g>
<!-- Node2&#45;&gt;Node4 -->
<g id="edge5" class="edge"><title>Node2&#45;&gt;Node4</title>
<path fill="none" stroke="midnightblue" d="M216.562,-189.111C251.684,-204.908 326.902,-231.998 382,-204.5 418.746,-186.162 443.111,-142.179 454.685,-116.678"/>
<polygon fill="midnightblue" stroke="midnightblue" points="457.981,-117.873 458.739,-107.305 451.556,-115.094 457.981,-117.873"/>
</g>
<!-- Node6 -->
<g id="node6" class="node"><title>Node6</title>
<g id="a_node6"><a xlink:href="../../d2/de5/classlime_1_1IConnection.html#a791c33a7557f750c82ffc001f0fcb5ff" target="_top" xlink:title="Read a single device register. ">
<polygon fill="white" stroke="black" points="283,-164.5 283,-194.5 382,-194.5 382,-164.5 283,-164.5"/>
<text text-anchor="start" x="291" y="-182.5" font-family="Helvetica,sans-Serif" font-size="10.00">lime::IConnection::</text>
<text text-anchor="middle" x="332.5" y="-171.5" font-family="Helvetica,sans-Serif" font-size="10.00">ReadRegister</text>
</a>
</g>
</g>
<!-- Node2&#45;&gt;Node6 -->
<g id="edge6" class="edge"><title>Node2&#45;&gt;Node6</title>
<path fill="none" stroke="midnightblue" d="M241.787,-179.5C251.645,-179.5 262.23,-179.5 272.551,-179.5"/>
<polygon fill="midnightblue" stroke="midnightblue" points="272.746,-183 282.746,-179.5 272.746,-176 272.746,-183"/>
</g>
<!-- Node7 -->
<g id="node7" class="node"><title>Node7</title>
<g id="a_node7"><a xlink:href="../../de/dc9/goert_8cpp.html#acf6bcd38a1a8ae4c9f63731c2cac8a9e" target="_top" xlink:title="c64to48">
<polygon fill="white" stroke="black" points="307,-126 307,-145 358,-145 358,-126 307,-126"/>
<text text-anchor="middle" x="332.5" y="-133" font-family="Helvetica,sans-Serif" font-size="10.00">c64to48</text>
</a>
</g>
</g>
<!-- Node2&#45;&gt;Node7 -->
<g id="edge7" class="edge"><title>Node2&#45;&gt;Node7</title>
<path fill="none" stroke="midnightblue" d="M226.184,-169.953C247.088,-163.114 275.309,-153.882 297.276,-146.696"/>
<polygon fill="midnightblue" stroke="midnightblue" points="298.463,-149.99 306.88,-143.554 296.287,-143.337 298.463,-149.99"/>
</g>
<!-- Node3&#45;&gt;Node4 -->
<g id="edge3" class="edge"><title>Node3&#45;&gt;Node4</title>
<path fill="none" stroke="midnightblue" d="M363.191,-252.366C369.857,-248.127 376.559,-243.119 382,-237.5 417.611,-200.727 443.373,-145.196 455.221,-116.368"/>
<polygon fill="midnightblue" stroke="midnightblue" points="458.488,-117.624 458.949,-107.039 451.988,-115.026 458.488,-117.624"/>
</g>
<!-- Node5 -->
<g id="node5" class="node"><title>Node5</title>
<g id="a_node5"><a xlink:href="../../d9/df5/Logger_8cpp.html#ada38bf01d6d691de953ed69268ea6516" target="_top" xlink:title="errToStr">
<polygon fill="white" stroke="black" points="545,-88 545,-107 597,-107 597,-88 545,-88"/>
<text text-anchor="middle" x="571" y="-95" font-family="Helvetica,sans-Serif" font-size="10.00">errToStr</text>
</a>
</g>
</g>
<!-- Node4&#45;&gt;Node5 -->
<g id="edge4" class="edge"><title>Node4&#45;&gt;Node5</title>
<path fill="none" stroke="midnightblue" d="M509.241,-97.5C517.676,-97.5 526.39,-97.5 534.494,-97.5"/>
<polygon fill="midnightblue" stroke="midnightblue" points="534.722,-101 544.722,-97.5 534.722,-94.0001 534.722,-101"/>
</g>
<!-- Node8&#45;&gt;Node4 -->
<g id="edge11" class="edge"><title>Node8&#45;&gt;Node4</title>
<path fill="none" stroke="midnightblue" d="M247.335,-65.4343C284.583,-69.9705 336.531,-76.6001 382,-83.5 390.367,-84.7696 399.206,-86.2078 407.842,-87.667"/>
<polygon fill="midnightblue" stroke="midnightblue" points="407.4,-91.1421 417.847,-89.3808 408.582,-84.2426 407.4,-91.1421"/>
</g>
<!-- Node9 -->
<g id="node9" class="node"><title>Node9</title>
<g id="a_node9"><a xlink:href="../../d2/de5/classlime_1_1IConnection.html#a302d984e7818367621e9afb67a75993b" target="_top" xlink:title="Bulk read device registers. ">
<polygon fill="white" stroke="black" points="283,-0.5 283,-30.5 382,-30.5 382,-0.5 283,-0.5"/>
<text text-anchor="start" x="291" y="-18.5" font-family="Helvetica,sans-Serif" font-size="10.00">lime::IConnection::</text>
<text text-anchor="middle" x="332.5" y="-7.5" font-family="Helvetica,sans-Serif" font-size="10.00">ReadRegisters</text>
</a>
</g>
</g>
<!-- Node8&#45;&gt;Node9 -->
<g id="edge9" class="edge"><title>Node8&#45;&gt;Node9</title>
<path fill="none" stroke="midnightblue" d="M226.184,-49.9527C240.652,-45.2199 258.623,-39.3408 275.601,-33.7868"/>
<polygon fill="midnightblue" stroke="midnightblue" points="277.032,-37.0012 285.448,-30.5654 274.855,-30.3481 277.032,-37.0012"/>
</g>
<!-- Node9&#45;&gt;Node4 -->
<g id="edge10" class="edge"><title>Node9&#45;&gt;Node4</title>
<path fill="none" stroke="midnightblue" d="M358.231,-30.6687C365.872,-35.3893 374.301,-40.6327 382,-45.5 401.28,-57.6884 422.996,-71.7352 439.011,-82.1546"/>
<polygon fill="midnightblue" stroke="midnightblue" points="437.43,-85.302 447.719,-87.8288 441.251,-79.4371 437.43,-85.302"/>
</g>
</g>
</svg>
        <g id="navigator" transform="translate(0 0)" fill="#404254">
                <rect fill="#f2f5e9" fill-opacity="0.5" stroke="#606060" stroke-width=".5" x="0" y="0" width="60" height="60"/>
                <use id="zoomplus" xlink:href="#zoomPlus" x="17" y="9" onmousedown="handleZoom(evt,'in')"/>
                <use id="zoomminus" xlink:href="#zoomMin" x="42" y="9" onmousedown="handleZoom(evt,'out')"/>
                <use id="reset" xlink:href="#resetDef" x="30" y="36" onmousedown="handleReset()"/>
                <g id="arrowUp" xlink:href="#dirArrow" transform="translate(30 24)" onmousedown="handlePan(0,-1)">
                  <use xlink:href="#rim" fill="#404040">
                        <set attributeName="fill" to="#808080" begin="arrowUp.mouseover" end="arrowUp.mouseout"/>
                  </use>
                  <path fill="none" stroke="white" stroke-width="1.5" d="M0,-3.0v7 M-2.5,-0.5L0,-3.0L2.5,-0.5"/>
                </g>
                <g id="arrowRight" xlink:href="#dirArrow" transform="rotate(90) translate(36 -43)" onmousedown="handlePan(1,0)">
                  <use xlink:href="#rim" fill="#404040">
                        <set attributeName="fill" to="#808080" begin="arrowRight.mouseover" end="arrowRight.mouseout"/>
                  </use>
                  <path fill="none" stroke="white" stroke-width="1.5" d="M0,-3.0v7 M-2.5,-0.5L0,-3.0L2.5,-0.5"/>
                </g>
                <g id="arrowDown" xlink:href="#dirArrow" transform="rotate(180) translate(-30 -48)" onmousedown="handlePan(0,1)">
                  <use xlink:href="#rim" fill="#404040">
                        <set attributeName="fill" to="#808080" begin="arrowDown.mouseover" end="arrowDown.mouseout"/>
                  </use>
                  <path fill="none" stroke="white" stroke-width="1.5" d="M0,-3.0v7 M-2.5,-0.5L0,-3.0L2.5,-0.5"/>
                </g>
                <g id="arrowLeft" xlink:href="#dirArrow" transform="rotate(270) translate(-36 17)" onmousedown="handlePan(-1,0)">
                  <use xlink:href="#rim" fill="#404040">
                        <set attributeName="fill" to="#808080" begin="arrowLeft.mouseover" end="arrowLeft.mouseout"/>
                  </use>
                  <path fill="none" stroke="white" stroke-width="1.5" d="M0,-3.0v7 M-2.5,-0.5L0,-3.0L2.5,-0.5"/>
                </g>
        </g>
        <svg viewBox="0 0 15 15" width="100%" height="30px" preserveAspectRatio="xMaxYMin meet">
         <g id="arrow_out" transform="scale(0.3 0.3)">
          <a xlink:href="goert_8cpp_a1ecbf6493590009e690af407f2e1cbdd_cgraph_org.svg" target="_base">
           <rect id="button" ry="5" rx="5" y="6" x="6" height="38" width="38"
                fill="#f2f5e9" fill-opacity="0.5" stroke="#606060" stroke-width="1.0"/>
           <path id="arrow"
             d="M 11.500037,31.436501 C 11.940474,20.09759 22.043105,11.32322 32.158766,21.979434 L 37.068811,17.246167 C 37.068811,17.246167 37.088388,32 37.088388,32 L 22.160133,31.978069 C 22.160133,31.978069 26.997745,27.140456 26.997745,27.140456 C 18.528582,18.264221 13.291696,25.230495 11.500037,31.436501 z"
             style="fill:#404040;"/>
          </a>
         </g>
        </svg>
</svg>
