<?xml version="1.0" encoding="UTF-8" standalone="no"?>
<!DOCTYPE svg PUBLIC "-//W3C//DTD SVG 1.1//EN"
 "http://www.w3.org/Graphics/SVG/1.1/DTD/svg11.dtd">
<!-- Generated by graphviz version 2.38.0 (20140413.2041)
 -->
<!-- Title: /home/erik/prefix/default/src/limesuite&#45;dev/src/lms7002_wxgui/lms7002_pnlRFE_view.cpp Pages: 1 -->
<svg width="2714pt" height="285pt"
 viewBox="0.00 0.00 2714.00 285.00" xmlns="http://www.w3.org/2000/svg" xmlns:xlink="http://www.w3.org/1999/xlink">
<g id="graph0" class="graph" transform="scale(1 1) rotate(0) translate(4 281)">
<title>/home/erik/prefix/default/src/limesuite&#45;dev/src/lms7002_wxgui/lms7002_pnlRFE_view.cpp</title>
<polygon fill="white" stroke="none" points="-4,4 -4,-281 2710,-281 2710,4 -4,4"/>
<!-- Node1 -->
<g id="node1" class="node"><title>Node1</title>
<polygon fill="#bfbfbf" stroke="black" points="2329.5,-224.5 2329.5,-276.5 2494.5,-276.5 2494.5,-224.5 2329.5,-224.5"/>
<text text-anchor="start" x="2337.5" y="-264.5" font-family="Helvetica,sans-Serif" font-size="10.00">/home/erik/prefix/default</text>
<text text-anchor="start" x="2337.5" y="-253.5" font-family="Helvetica,sans-Serif" font-size="10.00">/src/limesuite&#45;dev/src</text>
<text text-anchor="start" x="2337.5" y="-242.5" font-family="Helvetica,sans-Serif" font-size="10.00">/lms7002_wxgui/lms7002_pnlRFE</text>
<text text-anchor="middle" x="2412" y="-231.5" font-family="Helvetica,sans-Serif" font-size="10.00">_view.cpp</text>
</g>
<!-- Node2 -->
<g id="node2" class="node"><title>Node2</title>
<g id="a_node2"><a xlink:href="../../d4/d7b/lms7002__pnlRFE__view_8h.html" target="_top" xlink:title="Subclass of pnlRFE_view, which is generated by wxFormBuilder. ">
<polygon fill="white" stroke="black" points="2172.5,-168.5 2172.5,-187.5 2297.5,-187.5 2297.5,-168.5 2172.5,-168.5"/>
<text text-anchor="middle" x="2235" y="-175.5" font-family="Helvetica,sans-Serif" font-size="10.00">lms7002_pnlRFE_view.h</text>
</a>
</g>
</g>
<!-- Node1&#45;&gt;Node2 -->
<g id="edge1" class="edge"><title>Node1&#45;&gt;Node2</title>
<path fill="none" stroke="midnightblue" d="M2349.1,-224.446C2320.88,-213.207 2288.86,-200.455 2265.94,-191.325"/>
<polygon fill="midnightblue" stroke="midnightblue" points="2266.99,-187.976 2256.41,-187.527 2264.4,-194.479 2266.99,-187.976"/>
</g>
<!-- Node30 -->
<g id="node30" class="node"><title>Node30</title>
<polygon fill="white" stroke="#bfbfbf" points="2394.5,-112.5 2394.5,-131.5 2429.5,-131.5 2429.5,-112.5 2394.5,-112.5"/>
<text text-anchor="middle" x="2412" y="-119.5" font-family="Helvetica,sans-Serif" font-size="10.00">map</text>
</g>
<!-- Node1&#45;&gt;Node30 -->
<g id="edge37" class="edge"><title>Node1&#45;&gt;Node30</title>
<path fill="none" stroke="midnightblue" d="M2370.23,-224.268C2350.72,-209.065 2333.97,-188.69 2345,-168 2353.49,-152.075 2370.39,-140.784 2385.1,-133.495"/>
<polygon fill="midnightblue" stroke="midnightblue" points="2386.69,-136.614 2394.33,-129.274 2383.78,-130.248 2386.69,-136.614"/>
</g>
<!-- Node34 -->
<g id="node34" class="node"><title>Node34</title>
<g id="a_node34"><a xlink:href="../../d1/d2e/LMS7002M__parameters_8h.html" target="_top" xlink:title="List of LMS7002M transceiver control parameters. ">
<polygon fill="white" stroke="black" points="2486,-56.5 2486,-75.5 2614,-75.5 2614,-56.5 2486,-56.5"/>
<text text-anchor="middle" x="2550" y="-63.5" font-family="Helvetica,sans-Serif" font-size="10.00">LMS7002M_parameters.h</text>
</a>
</g>
</g>
<!-- Node1&#45;&gt;Node34 -->
<g id="edge49" class="edge"><title>Node1&#45;&gt;Node34</title>
<path fill="none" stroke="midnightblue" d="M2454.91,-224.486C2469.34,-214.522 2484.65,-202.062 2496,-188 2521.56,-156.351 2537.57,-110.692 2545.03,-85.4783"/>
<polygon fill="midnightblue" stroke="midnightblue" points="2548.43,-86.3147 2547.79,-75.7397 2541.7,-84.41 2548.43,-86.3147"/>
</g>
<!-- Node36 -->
<g id="node36" class="node"><title>Node36</title>
<polygon fill="white" stroke="#bfbfbf" points="2564,-168.5 2564,-187.5 2636,-187.5 2636,-168.5 2564,-168.5"/>
<text text-anchor="middle" x="2600" y="-175.5" font-family="Helvetica,sans-Serif" font-size="10.00">wx/msgdlg.h</text>
</g>
<!-- Node1&#45;&gt;Node36 -->
<g id="edge36" class="edge"><title>Node1&#45;&gt;Node36</title>
<path fill="none" stroke="midnightblue" d="M2478.81,-224.446C2509.05,-213.106 2543.4,-200.226 2567.79,-191.081"/>
<polygon fill="midnightblue" stroke="midnightblue" points="2569.13,-194.315 2577.26,-187.527 2566.67,-187.761 2569.13,-194.315"/>
</g>
<!-- Node37 -->
<g id="node37" class="node"><title>Node37</title>
<polygon fill="white" stroke="#bfbfbf" points="2456,-112.5 2456,-131.5 2500,-131.5 2500,-112.5 2456,-112.5"/>
<text text-anchor="middle" x="2478" y="-119.5" font-family="Helvetica,sans-Serif" font-size="10.00">vector</text>
</g>
<!-- Node1&#45;&gt;Node37 -->
<g id="edge38" class="edge"><title>Node1&#45;&gt;Node37</title>
<path fill="none" stroke="midnightblue" d="M2449.95,-224.325C2461.5,-214.498 2472.77,-202.166 2479,-188 2485.39,-173.47 2484.45,-155.29 2482.32,-141.854"/>
<polygon fill="midnightblue" stroke="midnightblue" points="2485.72,-141.014 2480.37,-131.867 2478.85,-142.352 2485.72,-141.014"/>
</g>
<!-- Node38 -->
<g id="node38" class="node"><title>Node38</title>
<polygon fill="white" stroke="#bfbfbf" points="2654,-168.5 2654,-187.5 2706,-187.5 2706,-168.5 2654,-168.5"/>
<text text-anchor="middle" x="2680" y="-175.5" font-family="Helvetica,sans-Serif" font-size="10.00">assert.h</text>
</g>
<!-- Node1&#45;&gt;Node38 -->
<g id="edge39" class="edge"><title>Node1&#45;&gt;Node38</title>
<path fill="none" stroke="midnightblue" d="M2494.6,-227.772C2544.5,-214.644 2605.62,-198.566 2643.69,-188.551"/>
<polygon fill="midnightblue" stroke="midnightblue" points="2645.01,-191.823 2653.79,-185.894 2643.23,-185.053 2645.01,-191.823"/>
</g>
<!-- Node39 -->
<g id="node39" class="node"><title>Node39</title>
<g id="a_node39"><a xlink:href="../../d8/d8c/lms7002__gui__utilities_8h.html" target="_top" xlink:title="lms7002_gui_utilities.h">
<polygon fill="white" stroke="black" points="2354,-168.5 2354,-187.5 2470,-187.5 2470,-168.5 2354,-168.5"/>
<text text-anchor="middle" x="2412" y="-175.5" font-family="Helvetica,sans-Serif" font-size="10.00">lms7002_gui_utilities.h</text>
</a>
</g>
</g>
<!-- Node1&#45;&gt;Node39 -->
<g id="edge40" class="edge"><title>Node1&#45;&gt;Node39</title>
<path fill="none" stroke="midnightblue" d="M2412,-224.446C2412,-215.73 2412,-206.104 2412,-197.964"/>
<polygon fill="midnightblue" stroke="midnightblue" points="2415.5,-197.695 2412,-187.695 2408.5,-197.696 2415.5,-197.695"/>
</g>
<!-- Node40 -->
<g id="node40" class="node"><title>Node40</title>
<g id="a_node40"><a xlink:href="../../dd/d0f/numericSlider_8h.html" target="_top" xlink:title="numericSlider.h">
<polygon fill="white" stroke="black" points="1091,-168.5 1091,-187.5 1175,-187.5 1175,-168.5 1091,-168.5"/>
<text text-anchor="middle" x="1133" y="-175.5" font-family="Helvetica,sans-Serif" font-size="10.00">numericSlider.h</text>
</a>
</g>
</g>
<!-- Node1&#45;&gt;Node40 -->
<g id="edge44" class="edge"><title>Node1&#45;&gt;Node40</title>
<path fill="none" stroke="midnightblue" d="M2329.07,-244.929C2086.52,-231.559 1383.15,-192.789 1185.32,-181.884"/>
<polygon fill="midnightblue" stroke="midnightblue" points="1185.37,-178.382 1175.19,-181.326 1184.99,-185.371 1185.37,-178.382"/>
</g>
<!-- Node42 -->
<g id="node42" class="node"><title>Node42</title>
<g id="a_node42"><a xlink:href="../../dc/dad/lms7suiteEvents_8h.html" target="_top" xlink:title="lms7suiteEvents.h">
<polygon fill="white" stroke="black" points="1611,-168.5 1611,-187.5 1709,-187.5 1709,-168.5 1611,-168.5"/>
<text text-anchor="middle" x="1660" y="-175.5" font-family="Helvetica,sans-Serif" font-size="10.00">lms7suiteEvents.h</text>
</a>
</g>
</g>
<!-- Node1&#45;&gt;Node42 -->
<g id="edge47" class="edge"><title>Node1&#45;&gt;Node42</title>
<path fill="none" stroke="midnightblue" d="M2329.37,-241.754C2176.35,-227.408 1852.35,-197.033 1719.12,-184.542"/>
<polygon fill="midnightblue" stroke="midnightblue" points="1719.38,-181.052 1709.1,-183.603 1718.73,-188.021 1719.38,-181.052"/>
</g>
<!-- Node3 -->
<g id="node3" class="node"><title>Node3</title>
<g id="a_node3"><a xlink:href="../../d0/d32/lms7002__wxgui_8h.html" target="_top" xlink:title="lms7002_wxgui.h">
<polygon fill="white" stroke="black" points="1178,-112.5 1178,-131.5 1270,-131.5 1270,-112.5 1178,-112.5"/>
<text text-anchor="middle" x="1224" y="-119.5" font-family="Helvetica,sans-Serif" font-size="10.00">lms7002_wxgui.h</text>
</a>
</g>
</g>
<!-- Node2&#45;&gt;Node3 -->
<g id="edge2" class="edge"><title>Node2&#45;&gt;Node3</title>
<path fill="none" stroke="midnightblue" d="M2172.14,-173.642C1988.57,-163.837 1455.22,-135.35 1280.3,-126.007"/>
<polygon fill="midnightblue" stroke="midnightblue" points="1280.45,-122.51 1270.27,-125.472 1280.07,-129.5 1280.45,-122.51"/>
</g>
<!-- Node2&#45;&gt;Node30 -->
<g id="edge29" class="edge"><title>Node2&#45;&gt;Node30</title>
<path fill="none" stroke="midnightblue" d="M2264.4,-168.467C2292.8,-160.158 2337.27,-146.989 2384.77,-132.004"/>
<polygon fill="midnightblue" stroke="midnightblue" points="2385.83,-135.339 2394.31,-128.983 2383.72,-128.666 2385.83,-135.339"/>
</g>
<!-- Node31 -->
<g id="node31" class="node"><title>Node31</title>
<g id="a_node31"><a xlink:href="../../d5/d07/LimeSuite_8h.html" target="_top" xlink:title="LMS API library. ">
<polygon fill="white" stroke="black" points="2287.5,-112.5 2287.5,-131.5 2376.5,-131.5 2376.5,-112.5 2287.5,-112.5"/>
<text text-anchor="middle" x="2332" y="-119.5" font-family="Helvetica,sans-Serif" font-size="10.00">lime/LimeSuite.h</text>
</a>
</g>
</g>
<!-- Node2&#45;&gt;Node31 -->
<g id="edge30" class="edge"><title>Node2&#45;&gt;Node31</title>
<path fill="none" stroke="midnightblue" d="M2250.58,-168.324C2266,-159.743 2289.81,-146.486 2307.71,-136.522"/>
<polygon fill="midnightblue" stroke="midnightblue" points="2309.42,-139.577 2316.45,-131.655 2306.01,-133.461 2309.42,-139.577"/>
</g>
<!-- Node4 -->
<g id="node4" class="node"><title>Node4</title>
<polygon fill="white" stroke="#bfbfbf" points="955.5,-56.5 955.5,-75.5 1026.5,-75.5 1026.5,-56.5 955.5,-56.5"/>
<text text-anchor="middle" x="991" y="-63.5" font-family="Helvetica,sans-Serif" font-size="10.00">wx/artprov.h</text>
</g>
<!-- Node3&#45;&gt;Node4 -->
<g id="edge3" class="edge"><title>Node3&#45;&gt;Node4</title>
<path fill="none" stroke="midnightblue" d="M1187.08,-112.444C1146.25,-102.98 1080.43,-87.7262 1036.46,-77.535"/>
<polygon fill="midnightblue" stroke="midnightblue" points="1037.13,-74.099 1026.6,-75.2508 1035.55,-80.9183 1037.13,-74.099"/>
</g>
<!-- Node5 -->
<g id="node5" class="node"><title>Node5</title>
<polygon fill="white" stroke="#bfbfbf" points="1045,-56.5 1045,-75.5 1131,-75.5 1131,-56.5 1045,-56.5"/>
<text text-anchor="middle" x="1088" y="-63.5" font-family="Helvetica,sans-Serif" font-size="10.00">wx/xrc/xmlres.h</text>
</g>
<!-- Node3&#45;&gt;Node5 -->
<g id="edge4" class="edge"><title>Node3&#45;&gt;Node5</title>
<path fill="none" stroke="midnightblue" d="M1202.45,-112.444C1179.97,-103.517 1144.51,-89.4387 1119.02,-79.3168"/>
<polygon fill="midnightblue" stroke="midnightblue" points="1120.03,-75.9539 1109.45,-75.5164 1117.45,-82.4598 1120.03,-75.9539"/>
</g>
<!-- Node6 -->
<g id="node6" class="node"><title>Node6</title>
<polygon fill="white" stroke="#bfbfbf" points="1149.5,-56.5 1149.5,-75.5 1214.5,-75.5 1214.5,-56.5 1149.5,-56.5"/>
<text text-anchor="middle" x="1182" y="-63.5" font-family="Helvetica,sans-Serif" font-size="10.00">wx/string.h</text>
</g>
<!-- Node3&#45;&gt;Node6 -->
<g id="edge5" class="edge"><title>Node3&#45;&gt;Node6</title>
<path fill="none" stroke="midnightblue" d="M1217.06,-112.083C1211.07,-104.377 1202.25,-93.0333 1194.95,-83.6531"/>
<polygon fill="midnightblue" stroke="midnightblue" points="1197.71,-81.4958 1188.81,-75.7511 1192.18,-85.7934 1197.71,-81.4958"/>
</g>
<!-- Node7 -->
<g id="node7" class="node"><title>Node7</title>
<polygon fill="white" stroke="#bfbfbf" points="1233,-56.5 1233,-75.5 1301,-75.5 1301,-56.5 1233,-56.5"/>
<text text-anchor="middle" x="1267" y="-63.5" font-family="Helvetica,sans-Serif" font-size="10.00">wx/button.h</text>
</g>
<!-- Node3&#45;&gt;Node7 -->
<g id="edge6" class="edge"><title>Node3&#45;&gt;Node7</title>
<path fill="none" stroke="midnightblue" d="M1231.1,-112.083C1237.24,-104.377 1246.27,-93.0333 1253.74,-83.6531"/>
<polygon fill="midnightblue" stroke="midnightblue" points="1256.54,-85.7542 1260.03,-75.7511 1251.06,-81.3936 1256.54,-85.7542"/>
</g>
<!-- Node8 -->
<g id="node8" class="node"><title>Node8</title>
<polygon fill="white" stroke="#bfbfbf" points="1319,-56.5 1319,-75.5 1391,-75.5 1391,-56.5 1319,-56.5"/>
<text text-anchor="middle" x="1355" y="-63.5" font-family="Helvetica,sans-Serif" font-size="10.00">wx/gdicmn.h</text>
</g>
<!-- Node3&#45;&gt;Node8 -->
<g id="edge7" class="edge"><title>Node3&#45;&gt;Node8</title>
<path fill="none" stroke="midnightblue" d="M1244.76,-112.444C1266.32,-103.557 1300.26,-89.5632 1324.79,-79.4514"/>
<polygon fill="midnightblue" stroke="midnightblue" points="1326.43,-82.5634 1334.34,-75.5164 1323.76,-76.0917 1326.43,-82.5634"/>
</g>
<!-- Node9 -->
<g id="node9" class="node"><title>Node9</title>
<polygon fill="white" stroke="#bfbfbf" points="1409.5,-56.5 1409.5,-75.5 1466.5,-75.5 1466.5,-56.5 1409.5,-56.5"/>
<text text-anchor="middle" x="1438" y="-63.5" font-family="Helvetica,sans-Serif" font-size="10.00">wx/font.h</text>
</g>
<!-- Node3&#45;&gt;Node9 -->
<g id="edge8" class="edge"><title>Node3&#45;&gt;Node9</title>
<path fill="none" stroke="midnightblue" d="M1257.91,-112.444C1296.48,-102.711 1359.32,-86.8536 1399.65,-76.6778"/>
<polygon fill="midnightblue" stroke="midnightblue" points="1400.55,-80.0607 1409.39,-74.2203 1398.83,-73.2734 1400.55,-80.0607"/>
</g>
<!-- Node10 -->
<g id="node10" class="node"><title>Node10</title>
<polygon fill="white" stroke="#bfbfbf" points="1484.5,-56.5 1484.5,-75.5 1551.5,-75.5 1551.5,-56.5 1484.5,-56.5"/>
<text text-anchor="middle" x="1518" y="-63.5" font-family="Helvetica,sans-Serif" font-size="10.00">wx/colour.h</text>
</g>
<!-- Node3&#45;&gt;Node10 -->
<g id="edge9" class="edge"><title>Node3&#45;&gt;Node10</title>
<path fill="none" stroke="midnightblue" d="M1270.34,-113.106C1318.69,-104.775 1396.98,-91.0303 1474.3,-76.0902"/>
<polygon fill="midnightblue" stroke="midnightblue" points="1475.07,-79.5074 1484.22,-74.167 1473.73,-72.6355 1475.07,-79.5074"/>
</g>
<!-- Node11 -->
<g id="node11" class="node"><title>Node11</title>
<polygon fill="white" stroke="#bfbfbf" points="1569.5,-56.5 1569.5,-75.5 1644.5,-75.5 1644.5,-56.5 1569.5,-56.5"/>
<text text-anchor="middle" x="1607" y="-63.5" font-family="Helvetica,sans-Serif" font-size="10.00">wx/settings.h</text>
</g>
<!-- Node3&#45;&gt;Node11 -->
<g id="edge10" class="edge"><title>Node3&#45;&gt;Node11</title>
<path fill="none" stroke="midnightblue" d="M1270.04,-115.662C1332.99,-108.183 1449.65,-93.6698 1559.41,-76.0144"/>
<polygon fill="midnightblue" stroke="midnightblue" points="1560.01,-79.462 1569.32,-74.4073 1558.89,-72.5521 1560.01,-79.462"/>
</g>
<!-- Node12 -->
<g id="node12" class="node"><title>Node12</title>
<polygon fill="white" stroke="#bfbfbf" points="1663,-56.5 1663,-75.5 1749,-75.5 1749,-56.5 1663,-56.5"/>
<text text-anchor="middle" x="1706" y="-63.5" font-family="Helvetica,sans-Serif" font-size="10.00">wx/combobox.h</text>
</g>
<!-- Node3&#45;&gt;Node12 -->
<g id="edge11" class="edge"><title>Node3&#45;&gt;Node12</title>
<path fill="none" stroke="midnightblue" d="M1270.14,-117.131C1348.86,-110.314 1514.07,-95.0622 1653,-76 1653.1,-75.9861 1653.2,-75.9722 1653.3,-75.9582"/>
<polygon fill="midnightblue" stroke="midnightblue" points="1653.55,-79.4597 1662.94,-74.5485 1652.54,-72.5335 1653.55,-79.4597"/>
</g>
<!-- Node13 -->
<g id="node13" class="node"><title>Node13</title>
<polygon fill="white" stroke="#bfbfbf" points="1767.5,-56.5 1767.5,-75.5 1842.5,-75.5 1842.5,-56.5 1767.5,-56.5"/>
<text text-anchor="middle" x="1805" y="-63.5" font-family="Helvetica,sans-Serif" font-size="10.00">wx/radiobut.h</text>
</g>
<!-- Node3&#45;&gt;Node13 -->
<g id="edge12" class="edge"><title>Node3&#45;&gt;Node13</title>
<path fill="none" stroke="midnightblue" d="M1270.25,-118.743C1361.43,-113.938 1570.96,-101.14 1757.36,-75.9359"/>
<polygon fill="midnightblue" stroke="midnightblue" points="1757.91,-79.3935 1767.35,-74.5711 1756.97,-72.4581 1757.91,-79.3935"/>
</g>
<!-- Node14 -->
<g id="node14" class="node"><title>Node14</title>
<polygon fill="white" stroke="#bfbfbf" points="1860.5,-56.5 1860.5,-75.5 1943.5,-75.5 1943.5,-56.5 1860.5,-56.5"/>
<text text-anchor="middle" x="1902" y="-63.5" font-family="Helvetica,sans-Serif" font-size="10.00">wx/checkbox.h</text>
</g>
<!-- Node3&#45;&gt;Node14 -->
<g id="edge13" class="edge"><title>Node3&#45;&gt;Node14</title>
<path fill="none" stroke="midnightblue" d="M1270.18,-119.316C1372.67,-115.227 1627.06,-103.142 1850.37,-75.9418"/>
<polygon fill="midnightblue" stroke="midnightblue" points="1850.81,-79.4141 1860.3,-74.7187 1849.95,-72.4665 1850.81,-79.4141"/>
</g>
<!-- Node15 -->
<g id="node15" class="node"><title>Node15</title>
<polygon fill="white" stroke="#bfbfbf" points="1962,-56.5 1962,-75.5 2024,-75.5 2024,-56.5 1962,-56.5"/>
<text text-anchor="middle" x="1993" y="-63.5" font-family="Helvetica,sans-Serif" font-size="10.00">wx/sizer.h</text>
</g>
<!-- Node3&#45;&gt;Node15 -->
<g id="edge14" class="edge"><title>Node3&#45;&gt;Node15</title>
<path fill="none" stroke="midnightblue" d="M1270.24,-120.612C1384.31,-119.126 1688.31,-111.954 1951.61,-75.7898"/>
<polygon fill="midnightblue" stroke="midnightblue" points="1952.33,-79.2244 1961.75,-74.3803 1951.36,-72.2911 1952.33,-79.2244"/>
</g>
<!-- Node16 -->
<g id="node16" class="node"><title>Node16</title>
<polygon fill="white" stroke="#bfbfbf" points="2042,-56.5 2042,-75.5 2116,-75.5 2116,-56.5 2042,-56.5"/>
<text text-anchor="middle" x="2079" y="-63.5" font-family="Helvetica,sans-Serif" font-size="10.00">wx/stattext.h</text>
</g>
<!-- Node3&#45;&gt;Node16 -->
<g id="edge15" class="edge"><title>Node3&#45;&gt;Node16</title>
<path fill="none" stroke="midnightblue" d="M1270.26,-120.651C1392.9,-119.251 1736.58,-112.243 2031.87,-75.9586"/>
<polygon fill="midnightblue" stroke="midnightblue" points="2032.42,-79.4172 2041.91,-74.7108 2031.56,-72.4706 2032.42,-79.4172"/>
</g>
<!-- Node17 -->
<g id="node17" class="node"><title>Node17</title>
<polygon fill="white" stroke="#bfbfbf" points="0,-56.5 0,-75.5 64,-75.5 64,-56.5 0,-56.5"/>
<text text-anchor="middle" x="32" y="-63.5" font-family="Helvetica,sans-Serif" font-size="10.00">wx/panel.h</text>
</g>
<!-- Node3&#45;&gt;Node17 -->
<g id="edge16" class="edge"><title>Node3&#45;&gt;Node17</title>
<path fill="none" stroke="midnightblue" d="M1177.91,-113.12C1174.57,-112.693 1171.23,-112.312 1168,-112 686.631,-65.5935 557.917,-135.486 74.1719,-75.8857"/>
<polygon fill="midnightblue" stroke="midnightblue" points="74.488,-72.3981 64.1323,-74.6365 73.6236,-79.3446 74.488,-72.3981"/>
</g>
<!-- Node18 -->
<g id="node18" class="node"><title>Node18</title>
<polygon fill="white" stroke="#bfbfbf" points="2134,-56.5 2134,-75.5 2204,-75.5 2204,-56.5 2134,-56.5"/>
<text text-anchor="middle" x="2169" y="-63.5" font-family="Helvetica,sans-Serif" font-size="10.00">wx/bitmap.h</text>
</g>
<!-- Node3&#45;&gt;Node18 -->
<g id="edge17" class="edge"><title>Node3&#45;&gt;Node18</title>
<path fill="none" stroke="midnightblue" d="M1270.16,-121.161C1401.97,-121.097 1791.38,-117.259 2123.24,-76.0291"/>
<polygon fill="midnightblue" stroke="midnightblue" points="2124.05,-79.455 2133.54,-74.7356 2123.18,-72.5096 2124.05,-79.455"/>
</g>
<!-- Node19 -->
<g id="node19" class="node"><title>Node19</title>
<polygon fill="white" stroke="#bfbfbf" points="2222.5,-56.5 2222.5,-75.5 2289.5,-75.5 2289.5,-56.5 2222.5,-56.5"/>
<text text-anchor="middle" x="2256" y="-63.5" font-family="Helvetica,sans-Serif" font-size="10.00">wx/image.h</text>
</g>
<!-- Node3&#45;&gt;Node19 -->
<g id="edge18" class="edge"><title>Node3&#45;&gt;Node19</title>
<path fill="none" stroke="midnightblue" d="M1270.07,-121.528C1410.25,-122.577 1843.99,-121.715 2212.23,-75.8567"/>
<polygon fill="midnightblue" stroke="midnightblue" points="2212.8,-79.3128 2222.29,-74.5913 2211.93,-72.3676 2212.8,-79.3128"/>
</g>
<!-- Node20 -->
<g id="node20" class="node"><title>Node20</title>
<polygon fill="white" stroke="#bfbfbf" points="82.5,-56.5 82.5,-75.5 141.5,-75.5 141.5,-56.5 82.5,-56.5"/>
<text text-anchor="middle" x="112" y="-63.5" font-family="Helvetica,sans-Serif" font-size="10.00">wx/icon.h</text>
</g>
<!-- Node3&#45;&gt;Node20 -->
<g id="edge19" class="edge"><title>Node3&#45;&gt;Node20</title>
<path fill="none" stroke="midnightblue" d="M1177.91,-113.129C1174.56,-112.7 1171.23,-112.316 1168,-112 721.156,-68.3539 601.155,-134.144 151.706,-75.7837"/>
<polygon fill="midnightblue" stroke="midnightblue" points="152.074,-72.302 141.703,-74.4715 151.163,-79.2426 152.074,-72.302"/>
</g>
<!-- Node21 -->
<g id="node21" class="node"><title>Node21</title>
<polygon fill="white" stroke="#bfbfbf" points="160,-56.5 160,-75.5 240,-75.5 240,-56.5 160,-56.5"/>
<text text-anchor="middle" x="200" y="-63.5" font-family="Helvetica,sans-Serif" font-size="10.00">wx/notebook.h</text>
</g>
<!-- Node3&#45;&gt;Node21 -->
<g id="edge20" class="edge"><title>Node3&#45;&gt;Node21</title>
<path fill="none" stroke="midnightblue" d="M1177.91,-113.143C1174.56,-112.711 1171.23,-112.322 1168,-112 764.531,-71.8227 656.996,-120.243 250.019,-75.9331"/>
<polygon fill="midnightblue" stroke="midnightblue" points="250.366,-72.4502 240.043,-74.8349 249.6,-79.4082 250.366,-72.4502"/>
</g>
<!-- Node22 -->
<g id="node22" class="node"><title>Node22</title>
<polygon fill="white" stroke="#bfbfbf" points="258.5,-56.5 258.5,-75.5 331.5,-75.5 331.5,-56.5 258.5,-56.5"/>
<text text-anchor="middle" x="295" y="-63.5" font-family="Helvetica,sans-Serif" font-size="10.00">wx/statbox.h</text>
</g>
<!-- Node3&#45;&gt;Node22 -->
<g id="edge21" class="edge"><title>Node3&#45;&gt;Node22</title>
<path fill="none" stroke="midnightblue" d="M1177.91,-113.159C1174.56,-112.723 1171.23,-112.329 1168,-112 805.293,-75.0849 708.08,-118.642 341.668,-75.8612"/>
<polygon fill="midnightblue" stroke="midnightblue" points="341.922,-72.3669 331.58,-74.6696 341.101,-79.3186 341.922,-72.3669"/>
</g>
<!-- Node23 -->
<g id="node23" class="node"><title>Node23</title>
<polygon fill="white" stroke="#bfbfbf" points="350,-56.5 350,-75.5 422,-75.5 422,-56.5 350,-56.5"/>
<text text-anchor="middle" x="386" y="-63.5" font-family="Helvetica,sans-Serif" font-size="10.00">wx/spinctrl.h</text>
</g>
<!-- Node3&#45;&gt;Node23 -->
<g id="edge22" class="edge"><title>Node3&#45;&gt;Node23</title>
<path fill="none" stroke="midnightblue" d="M1177.91,-113.179C1174.56,-112.738 1171.23,-112.338 1168,-112 845.173,-78.2784 758.24,-115.49 432.476,-75.9884"/>
<polygon fill="midnightblue" stroke="midnightblue" points="432.626,-72.4806 422.274,-74.7358 431.773,-79.4284 432.626,-72.4806"/>
</g>
<!-- Node24 -->
<g id="node24" class="node"><title>Node24</title>
<polygon fill="white" stroke="#bfbfbf" points="440.5,-56.5 440.5,-75.5 517.5,-75.5 517.5,-56.5 440.5,-56.5"/>
<text text-anchor="middle" x="479" y="-63.5" font-family="Helvetica,sans-Serif" font-size="10.00">wx/radiobox.h</text>
</g>
<!-- Node3&#45;&gt;Node24 -->
<g id="edge23" class="edge"><title>Node3&#45;&gt;Node24</title>
<path fill="none" stroke="midnightblue" d="M1177.91,-113.205C1174.56,-112.758 1171.23,-112.349 1168,-112 887.203,-81.6453 811.405,-110.264 527.84,-76.0697"/>
<polygon fill="midnightblue" stroke="midnightblue" points="528.015,-72.5652 517.664,-74.8266 527.166,-79.5135 528.015,-72.5652"/>
</g>
<!-- Node25 -->
<g id="node25" class="node"><title>Node25</title>
<polygon fill="white" stroke="#bfbfbf" points="535.5,-56.5 535.5,-75.5 606.5,-75.5 606.5,-56.5 535.5,-56.5"/>
<text text-anchor="middle" x="571" y="-63.5" font-family="Helvetica,sans-Serif" font-size="10.00">wx/textctrl.h</text>
</g>
<!-- Node3&#45;&gt;Node25 -->
<g id="edge24" class="edge"><title>Node3&#45;&gt;Node25</title>
<path fill="none" stroke="midnightblue" d="M1177.9,-113.238C1174.56,-112.783 1171.23,-112.364 1168,-112 926.596,-84.8052 860.898,-108.1 617.188,-76.132"/>
<polygon fill="midnightblue" stroke="midnightblue" points="617.324,-72.6194 606.95,-74.7705 616.401,-79.5583 617.324,-72.6194"/>
</g>
<!-- Node26 -->
<g id="node26" class="node"><title>Node26</title>
<polygon fill="white" stroke="#bfbfbf" points="624.5,-56.5 624.5,-75.5 693.5,-75.5 693.5,-56.5 624.5,-56.5"/>
<text text-anchor="middle" x="659" y="-63.5" font-family="Helvetica,sans-Serif" font-size="10.00">wx/choice.h</text>
</g>
<!-- Node3&#45;&gt;Node26 -->
<g id="edge25" class="edge"><title>Node3&#45;&gt;Node26</title>
<path fill="none" stroke="midnightblue" d="M1177.9,-113.283C1174.55,-112.817 1171.23,-112.383 1168,-112 964.945,-87.8812 909.373,-104.792 703.58,-76.06"/>
<polygon fill="midnightblue" stroke="midnightblue" points="704.058,-72.5927 693.666,-74.6569 703.077,-79.5237 704.058,-72.5927"/>
</g>
<!-- Node27 -->
<g id="node27" class="node"><title>Node27</title>
<polygon fill="white" stroke="#bfbfbf" points="711.5,-56.5 711.5,-75.5 778.5,-75.5 778.5,-56.5 711.5,-56.5"/>
<text text-anchor="middle" x="745" y="-63.5" font-family="Helvetica,sans-Serif" font-size="10.00">wx/gauge.h</text>
</g>
<!-- Node3&#45;&gt;Node27 -->
<g id="edge26" class="edge"><title>Node3&#45;&gt;Node27</title>
<path fill="none" stroke="midnightblue" d="M1177.89,-113.346C1174.55,-112.866 1171.22,-112.411 1168,-112 1002.92,-90.9381 957.451,-101.014 788.705,-75.9341"/>
<polygon fill="midnightblue" stroke="midnightblue" points="789.146,-72.4611 778.736,-74.4333 788.104,-79.3831 789.146,-72.4611"/>
</g>
<!-- Node28 -->
<g id="node28" class="node"><title>Node28</title>
<polygon fill="white" stroke="#bfbfbf" points="797,-56.5 797,-75.5 853,-75.5 853,-56.5 797,-56.5"/>
<text text-anchor="middle" x="825" y="-63.5" font-family="Helvetica,sans-Serif" font-size="10.00">wx/grid.h</text>
</g>
<!-- Node3&#45;&gt;Node28 -->
<g id="edge27" class="edge"><title>Node3&#45;&gt;Node28</title>
<path fill="none" stroke="midnightblue" d="M1177.88,-113.429C1174.54,-112.93 1171.22,-112.448 1168,-112 1035.55,-93.5735 998.501,-99.9091 863.126,-76.0088"/>
<polygon fill="midnightblue" stroke="midnightblue" points="863.667,-72.55 853.207,-74.235 862.434,-79.4407 863.667,-72.55"/>
</g>
<!-- Node29 -->
<g id="node29" class="node"><title>Node29</title>
<polygon fill="white" stroke="#bfbfbf" points="871,-56.5 871,-75.5 937,-75.5 937,-56.5 871,-56.5"/>
<text text-anchor="middle" x="904" y="-63.5" font-family="Helvetica,sans-Serif" font-size="10.00">wx/dialog.h</text>
</g>
<!-- Node3&#45;&gt;Node29 -->
<g id="edge28" class="edge"><title>Node3&#45;&gt;Node29</title>
<path fill="none" stroke="midnightblue" d="M1177.7,-113.536C1109.2,-102.489 985.485,-82.5232 947.641,-76.1101"/>
<polygon fill="midnightblue" stroke="midnightblue" points="947.893,-72.6011 937.44,-74.3252 946.687,-79.4964 947.893,-72.6011"/>
</g>
<!-- Node32 -->
<g id="node32" class="node"><title>Node32</title>
<polygon fill="white" stroke="#bfbfbf" points="2409.5,-0.5 2409.5,-19.5 2458.5,-19.5 2458.5,-0.5 2409.5,-0.5"/>
<text text-anchor="middle" x="2434" y="-7.5" font-family="Helvetica,sans-Serif" font-size="10.00">stdint.h</text>
</g>
<!-- Node31&#45;&gt;Node32 -->
<g id="edge31" class="edge"><title>Node31&#45;&gt;Node32</title>
<path fill="none" stroke="midnightblue" d="M2330.07,-112.089C2327.68,-98.6372 2325.26,-72.9238 2337,-56 2351.34,-35.3279 2377.69,-23.9313 2399.31,-17.7831"/>
<polygon fill="midnightblue" stroke="midnightblue" points="2400.35,-21.1292 2409.15,-15.2409 2398.6,-14.3514 2400.35,-21.1292"/>
</g>
<!-- Node33 -->
<g id="node33" class="node"><title>Node33</title>
<polygon fill="white" stroke="#bfbfbf" points="2346,-56.5 2346,-75.5 2394,-75.5 2394,-56.5 2346,-56.5"/>
<text text-anchor="middle" x="2370" y="-63.5" font-family="Helvetica,sans-Serif" font-size="10.00">stdlib.h</text>
</g>
<!-- Node31&#45;&gt;Node33 -->
<g id="edge32" class="edge"><title>Node31&#45;&gt;Node33</title>
<path fill="none" stroke="midnightblue" d="M2338.27,-112.083C2343.64,-104.455 2351.52,-93.2645 2358.08,-83.9408"/>
<polygon fill="midnightblue" stroke="midnightblue" points="2360.95,-85.9434 2363.84,-75.7511 2355.22,-81.9149 2360.95,-85.9434"/>
</g>
<!-- Node31&#45;&gt;Node34 -->
<g id="edge33" class="edge"><title>Node31&#45;&gt;Node34</title>
<path fill="none" stroke="midnightblue" d="M2366.54,-112.444C2404.25,-103.102 2464.74,-88.1194 2505.86,-77.9326"/>
<polygon fill="midnightblue" stroke="midnightblue" points="2506.75,-81.3182 2515.62,-75.5164 2505.07,-74.5236 2506.75,-81.3182"/>
</g>
<!-- Node35 -->
<g id="node35" class="node"><title>Node35</title>
<polygon fill="white" stroke="#bfbfbf" points="2412,-56.5 2412,-75.5 2468,-75.5 2468,-56.5 2412,-56.5"/>
<text text-anchor="middle" x="2440" y="-63.5" font-family="Helvetica,sans-Serif" font-size="10.00">stdbool.h</text>
</g>
<!-- Node31&#45;&gt;Node35 -->
<g id="edge35" class="edge"><title>Node31&#45;&gt;Node35</title>
<path fill="none" stroke="midnightblue" d="M2349.35,-112.324C2366.67,-103.664 2393.52,-90.2424 2413.5,-80.249"/>
<polygon fill="midnightblue" stroke="midnightblue" points="2415.31,-83.2572 2422.69,-75.6545 2412.18,-76.9962 2415.31,-83.2572"/>
</g>
<!-- Node34&#45;&gt;Node32 -->
<g id="edge34" class="edge"><title>Node34&#45;&gt;Node32</title>
<path fill="none" stroke="midnightblue" d="M2531.62,-56.4435C2512.78,-47.6751 2483.27,-33.9355 2461.62,-23.8579"/>
<polygon fill="midnightblue" stroke="midnightblue" points="2462.84,-20.5637 2452.29,-19.5164 2459.88,-26.9098 2462.84,-20.5637"/>
</g>
<!-- Node39&#45;&gt;Node30 -->
<g id="edge41" class="edge"><title>Node39&#45;&gt;Node30</title>
<path fill="none" stroke="midnightblue" d="M2412,-168.083C2412,-161.006 2412,-150.861 2412,-141.986"/>
<polygon fill="midnightblue" stroke="midnightblue" points="2415.5,-141.751 2412,-131.751 2408.5,-141.751 2415.5,-141.751"/>
</g>
<!-- Node39&#45;&gt;Node31 -->
<g id="edge43" class="edge"><title>Node39&#45;&gt;Node31</title>
<path fill="none" stroke="midnightblue" d="M2399.15,-168.324C2386.78,-159.979 2367.87,-147.212 2353.26,-137.352"/>
<polygon fill="midnightblue" stroke="midnightblue" points="2355.07,-134.348 2344.82,-131.655 2351.15,-140.15 2355.07,-134.348"/>
</g>
<!-- Node39&#45;&gt;Node37 -->
<g id="edge42" class="edge"><title>Node39&#45;&gt;Node37</title>
<path fill="none" stroke="midnightblue" d="M2422.6,-168.324C2432.46,-160.263 2447.35,-148.077 2459.22,-138.369"/>
<polygon fill="midnightblue" stroke="midnightblue" points="2461.68,-140.875 2467.2,-131.834 2457.25,-135.457 2461.68,-140.875"/>
</g>
<!-- Node40&#45;&gt;Node17 -->
<g id="edge46" class="edge"><title>Node40&#45;&gt;Node17</title>
<path fill="none" stroke="midnightblue" d="M1090.86,-174.823C948.737,-167.094 474.08,-138.129 74.185,-76.0118"/>
<polygon fill="midnightblue" stroke="midnightblue" points="74.5798,-72.5311 64.1593,-74.445 73.499,-79.4472 74.5798,-72.5311"/>
</g>
<!-- Node41 -->
<g id="node41" class="node"><title>Node41</title>
<polygon fill="white" stroke="#bfbfbf" points="1106.5,-112.5 1106.5,-131.5 1159.5,-131.5 1159.5,-112.5 1106.5,-112.5"/>
<text text-anchor="middle" x="1133" y="-119.5" font-family="Helvetica,sans-Serif" font-size="10.00">wx/wx.h</text>
</g>
<!-- Node40&#45;&gt;Node41 -->
<g id="edge45" class="edge"><title>Node40&#45;&gt;Node41</title>
<path fill="none" stroke="midnightblue" d="M1133,-168.083C1133,-161.006 1133,-150.861 1133,-141.986"/>
<polygon fill="midnightblue" stroke="midnightblue" points="1136.5,-141.751 1133,-131.751 1129.5,-141.751 1136.5,-141.751"/>
</g>
<!-- Node42&#45;&gt;Node41 -->
<g id="edge48" class="edge"><title>Node42&#45;&gt;Node41</title>
<path fill="none" stroke="midnightblue" d="M1610.89,-174.998C1523.88,-170.907 1336.84,-159.675 1169.61,-131.828"/>
<polygon fill="midnightblue" stroke="midnightblue" points="1170.08,-128.359 1159.64,-130.144 1168.92,-135.261 1170.08,-128.359"/>
</g>
</g>
</svg>
