<?xml version="1.0" encoding="UTF-8" standalone="no"?>
<!DOCTYPE svg PUBLIC "-//W3C//DTD SVG 1.1//EN"
 "http://www.w3.org/Graphics/SVG/1.1/DTD/svg11.dtd">
<!-- Generated by graphviz version 2.38.0 (20140413.2041)
 -->
<!-- Title: __loadConnectionXillybusEntry Pages: 1 -->
<!--zoomable 653 -->
<svg id="main" version="1.1" xmlns="http://www.w3.org/2000/svg" xmlns:xlink="http://www.w3.org/1999/xlink" xml:space="preserve" onload="init(evt)">
<style type="text/css"><![CDATA[
.edge:hover path { stroke: red; }
.edge:hover polygon { stroke: red; fill: red; }
]]></style>
<script type="text/javascript"><![CDATA[
var edges = document.getElementsByTagName('g');
if (edges && edges.length) {
  for (var i=0;i<edges.length;i++) {
    if (edges[i].id.substr(0,4)=='edge') {
      edges[i].setAttribute('class','edge');
    }
  }
}
]]></script>
        <defs>
                <circle id="rim" cx="0" cy="0" r="7"/>
                <circle id="rim2" cx="0" cy="0" r="3.5"/>
                <g id="zoomPlus">
                        <use xlink:href="#rim" fill="#404040">
                                <set attributeName="fill" to="#808080" begin="zoomplus.mouseover" end="zoomplus.mouseout"/>
                        </use>
                        <path d="M-4,0h8M0,-4v8" fill="none" stroke="white" stroke-width="1.5" pointer-events="none"/>
                </g>
                <g id="zoomMin">
                        <use xlink:href="#rim" fill="#404040">
                                <set attributeName="fill" to="#808080" begin="zoomminus.mouseover" end="zoomminus.mouseout"/>
                        </use>
                        <path d="M-4,0h8" fill="none" stroke="white" stroke-width="1.5" pointer-events="none"/>
                </g>
                <g id="dirArrow">
                        <path fill="none" stroke="white" stroke-width="1.5" d="M0,-3.0v7 M-2.5,-0.5L0,-3.0L2.5,-0.5"/>
                </g>
               <g id="resetDef">
                       <use xlink:href="#rim2" fill="#404040">
                               <set attributeName="fill" to="#808080" begin="reset.mouseover" end="reset.mouseout"/>
                       </use>
               </g>
        </defs>

<script type="text/javascript">
var viewWidth = 1000;
var viewHeight = 653;
var sectionId = 'dynsection-7';
</script>
<script xlink:href="../../svgpan.js"/>
<svg id="graph" class="graph">
<g id="viewport">
<title>__loadConnectionXillybusEntry</title>
<polygon fill="white" stroke="none" points="-4,4 -4,-649.249 996,-649.249 996,4 -4,4"/>
<!-- Node1 -->
<g id="node1" class="node"><title>Node1</title>
<polygon fill="#bfbfbf" stroke="black" points="0,-296.903 0,-326.903 129,-326.903 129,-296.903 0,-296.903"/>
<text text-anchor="start" x="8" y="-314.903" font-family="Helvetica,sans-Serif" font-size="10.00">__loadConnectionXillybus</text>
<text text-anchor="middle" x="64.5" y="-303.903" font-family="Helvetica,sans-Serif" font-size="10.00">Entry</text>
</g>
<!-- Node2 -->
<g id="node2" class="node"><title>Node2</title>
<g id="a_node2"><a xlink:href="../../d3/d58/ConnectionRegistry_8cpp.html#aa70d3b52e1cb50a0736b9cf791464ee1" target="_top" xlink:title="__loadAllConnections">
<polygon fill="white" stroke="black" points="165,-302.403 165,-321.403 276,-321.403 276,-302.403 165,-302.403"/>
<text text-anchor="middle" x="220.5" y="-309.403" font-family="Helvetica,sans-Serif" font-size="10.00">__loadAllConnections</text>
</a>
</g>
</g>
<!-- Node1&#45;&gt;Node2 -->
<g id="edge1" class="edge"><title>Node1&#45;&gt;Node2</title>
<path fill="none" stroke="midnightblue" d="M139.173,-311.903C147.86,-311.903 156.604,-311.903 164.962,-311.903"/>
<polygon fill="midnightblue" stroke="midnightblue" points="139.027,-308.404 129.027,-311.903 139.027,-315.404 139.027,-308.404"/>
</g>
<!-- Node3 -->
<g id="node3" class="node"><title>Node3</title>
<g id="a_node3"><a xlink:href="../../df/d74/classlime_1_1ConnectionRegistry.html#acdc063f9df6336a9ea341fa9eddffab3" target="_top" xlink:title="lime::ConnectionRegistry\l::findConnections">
<polygon fill="white" stroke="black" points="312,-296.903 312,-326.903 439,-326.903 439,-296.903 312,-296.903"/>
<text text-anchor="start" x="320" y="-314.903" font-family="Helvetica,sans-Serif" font-size="10.00">lime::ConnectionRegistry</text>
<text text-anchor="middle" x="375.5" y="-303.903" font-family="Helvetica,sans-Serif" font-size="10.00">::findConnections</text>
</a>
</g>
</g>
<!-- Node2&#45;&gt;Node3 -->
<g id="edge2" class="edge"><title>Node2&#45;&gt;Node3</title>
<path fill="none" stroke="midnightblue" d="M286.419,-311.903C294.811,-311.903 303.394,-311.903 311.75,-311.903"/>
<polygon fill="midnightblue" stroke="midnightblue" points="286.304,-308.404 276.304,-311.903 286.304,-315.404 286.304,-308.404"/>
</g>
<!-- Node24 -->
<g id="node24" class="node"><title>Node24</title>
<g id="a_node24"><a xlink:href="../../df/d74/classlime_1_1ConnectionRegistry.html#a225378efe92275fc2ed267b89da8297e" target="_top" xlink:title="lime::ConnectionRegistry\l::makeConnection">
<polygon fill="white" stroke="black" points="312,-165.903 312,-195.903 439,-195.903 439,-165.903 312,-165.903"/>
<text text-anchor="start" x="320" y="-183.903" font-family="Helvetica,sans-Serif" font-size="10.00">lime::ConnectionRegistry</text>
<text text-anchor="middle" x="375.5" y="-172.903" font-family="Helvetica,sans-Serif" font-size="10.00">::makeConnection</text>
</a>
</g>
</g>
<!-- Node2&#45;&gt;Node24 -->
<g id="edge29" class="edge"><title>Node2&#45;&gt;Node24</title>
<path fill="none" stroke="midnightblue" d="M240.665,-295.494C270.588,-269.874 327.968,-220.745 356.9,-195.973"/>
<polygon fill="midnightblue" stroke="midnightblue" points="238.32,-292.895 233,-302.057 242.872,-298.212 238.32,-292.895"/>
</g>
<!-- Node28 -->
<g id="node28" class="node"><title>Node28</title>
<g id="a_node28"><a xlink:href="../../df/d74/classlime_1_1ConnectionRegistry.html#a45a52caee56ade240c82d640eb5b561a" target="_top" xlink:title="Get a list of available registry entry modules by name. ">
<polygon fill="white" stroke="black" points="312,-462.903 312,-492.903 439,-492.903 439,-462.903 312,-462.903"/>
<text text-anchor="start" x="320" y="-480.903" font-family="Helvetica,sans-Serif" font-size="10.00">lime::ConnectionRegistry</text>
<text text-anchor="middle" x="375.5" y="-469.903" font-family="Helvetica,sans-Serif" font-size="10.00">::moduleNames</text>
</a>
</g>
</g>
<!-- Node2&#45;&gt;Node28 -->
<g id="edge42" class="edge"><title>Node2&#45;&gt;Node28</title>
<path fill="none" stroke="midnightblue" d="M237.473,-329.233C267.547,-361.863 332.103,-431.905 360.551,-462.769"/>
<polygon fill="midnightblue" stroke="midnightblue" points="239.964,-326.772 230.613,-321.79 234.816,-331.516 239.964,-326.772"/>
</g>
<!-- Node4 -->
<g id="node4" class="node"><title>Node4</title>
<g id="a_node4"><a xlink:href="../../d5/db6/LimeUtil_8cpp.html#ab1aeb903814aa2802ec78b2c3b24ec77" target="_top" xlink:title="findDevices">
<polygon fill="white" stroke="black" points="826.5,-416.403 826.5,-435.403 894.5,-435.403 894.5,-416.403 826.5,-416.403"/>
<text text-anchor="middle" x="860.5" y="-423.403" font-family="Helvetica,sans-Serif" font-size="10.00">findDevices</text>
</a>
</g>
</g>
<!-- Node3&#45;&gt;Node4 -->
<g id="edge3" class="edge"><title>Node3&#45;&gt;Node4</title>
<path fill="none" stroke="midnightblue" d="M384.91,-336.716C398.035,-370.993 426.986,-431.475 475,-456.903 598.396,-522.254 775.843,-460.591 837.445,-435.459"/>
<polygon fill="midnightblue" stroke="midnightblue" points="388.072,-335.171 381.342,-326.988 381.5,-337.581 388.072,-335.171"/>
</g>
<!-- Node6 -->
<g id="node6" class="node"><title>Node6</title>
<g id="a_node6"><a xlink:href="../../d5/db6/LimeUtil_8cpp.html#aec5a85bb4545eacb820dfe150006f902" target="_top" xlink:title="programUpdate">
<polygon fill="white" stroke="black" points="504,-89.4035 504,-108.403 587,-108.403 587,-89.4035 504,-89.4035"/>
<text text-anchor="middle" x="545.5" y="-96.4035" font-family="Helvetica,sans-Serif" font-size="10.00">programUpdate</text>
</a>
</g>
</g>
<!-- Node3&#45;&gt;Node6 -->
<g id="edge5" class="edge"><title>Node3&#45;&gt;Node6</title>
<path fill="none" stroke="midnightblue" d="M391.753,-287.964C405.047,-266.614 424.426,-234.282 439,-204.903 457.596,-167.416 443.613,-145.58 475,-117.903 483.069,-110.789 493.56,-106.31 503.935,-103.499"/>
<polygon fill="midnightblue" stroke="midnightblue" points="388.637,-286.345 386.287,-296.675 394.567,-290.065 388.637,-286.345"/>
</g>
<!-- Node7 -->
<g id="node7" class="node"><title>Node7</title>
<g id="a_node7"><a xlink:href="../../d5/db6/LimeUtil_8cpp.html#aab17faf99f8cb52141ebee3343ce89b4" target="_top" xlink:title="programGateware">
<polygon fill="white" stroke="black" points="498.5,-51.4035 498.5,-70.4035 592.5,-70.4035 592.5,-51.4035 498.5,-51.4035"/>
<text text-anchor="middle" x="545.5" y="-58.4035" font-family="Helvetica,sans-Serif" font-size="10.00">programGateware</text>
</a>
</g>
</g>
<!-- Node3&#45;&gt;Node7 -->
<g id="edge7" class="edge"><title>Node3&#45;&gt;Node7</title>
<path fill="none" stroke="midnightblue" d="M392.809,-287.978C406.62,-266.868 426.166,-234.879 439,-204.903 461.755,-151.756 433.844,-120.506 475,-79.9035 481.411,-73.5784 489.714,-69.3082 498.337,-66.4374"/>
<polygon fill="midnightblue" stroke="midnightblue" points="389.705,-286.326 387.095,-296.594 395.539,-290.195 389.705,-286.326"/>
</g>
<!-- Node8 -->
<g id="node8" class="node"><title>Node8</title>
<g id="a_node8"><a xlink:href="../../d5/db6/LimeUtil_8cpp.html#a58234cff879cec97078e37a8ae35d8ee" target="_top" xlink:title="programFirmware">
<polygon fill="white" stroke="black" points="499.5,-302.403 499.5,-321.403 591.5,-321.403 591.5,-302.403 499.5,-302.403"/>
<text text-anchor="middle" x="545.5" y="-309.403" font-family="Helvetica,sans-Serif" font-size="10.00">programFirmware</text>
</a>
</g>
</g>
<!-- Node3&#45;&gt;Node8 -->
<g id="edge9" class="edge"><title>Node3&#45;&gt;Node8</title>
<path fill="none" stroke="midnightblue" d="M449.529,-311.903C466.514,-311.903 484.108,-311.903 499.469,-311.903"/>
<polygon fill="midnightblue" stroke="midnightblue" points="449.057,-308.404 439.057,-311.903 449.057,-315.404 449.057,-308.404"/>
</g>
<!-- Node9 -->
<g id="node9" class="node"><title>Node9</title>
<g id="a_node9"><a xlink:href="../../da/d1f/LimeUtilTiming_8cpp.html#adc431603a1f6f423afd766250034b745" target="_top" xlink:title="deviceTestTiming">
<polygon fill="white" stroke="black" points="498.5,-127.403 498.5,-146.403 592.5,-146.403 592.5,-127.403 498.5,-127.403"/>
<text text-anchor="middle" x="545.5" y="-134.403" font-family="Helvetica,sans-Serif" font-size="10.00">deviceTestTiming</text>
</a>
</g>
</g>
<!-- Node3&#45;&gt;Node9 -->
<g id="edge11" class="edge"><title>Node3&#45;&gt;Node9</title>
<path fill="none" stroke="midnightblue" d="M390.281,-288.027C414.375,-246.606 462.764,-164.961 475,-155.903 481.837,-150.843 489.945,-147.13 498.167,-144.406"/>
<polygon fill="midnightblue" stroke="midnightblue" points="387.248,-286.28 385.257,-296.686 393.303,-289.793 387.248,-286.28"/>
</g>
<!-- Node10 -->
<g id="node10" class="node"><title>Node10</title>
<g id="a_node10"><a xlink:href="../../da/dc9/Registration_8cpp.html#a1a36014b1338ca8e2194b9d1c901c349" target="_top" xlink:title="findIConnection">
<polygon fill="white" stroke="black" points="503,-428.403 503,-447.403 588,-447.403 588,-428.403 503,-428.403"/>
<text text-anchor="middle" x="545.5" y="-435.403" font-family="Helvetica,sans-Serif" font-size="10.00">findIConnection</text>
</a>
</g>
</g>
<!-- Node3&#45;&gt;Node10 -->
<g id="edge13" class="edge"><title>Node3&#45;&gt;Node10</title>
<path fill="none" stroke="midnightblue" d="M393.787,-335.411C411.763,-358.345 441.871,-392.777 475,-413.903 484.579,-420.012 495.898,-424.774 506.589,-428.387"/>
<polygon fill="midnightblue" stroke="midnightblue" points="396.377,-333.036 387.511,-327.236 390.824,-337.299 396.377,-333.036"/>
</g>
<!-- Node12 -->
<g id="node12" class="node"><title>Node12</title>
<g id="a_node12"><a xlink:href="../../df/de1/lms7__api_8cpp.html#a3ffae35743c28a5cb809b38d7ae0b31a" target="_top" xlink:title="LMS_GetDeviceList">
<polygon fill="white" stroke="black" points="493.5,-513.403 493.5,-532.403 597.5,-532.403 597.5,-513.403 493.5,-513.403"/>
<text text-anchor="middle" x="545.5" y="-520.403" font-family="Helvetica,sans-Serif" font-size="10.00">LMS_GetDeviceList</text>
</a>
</g>
</g>
<!-- Node3&#45;&gt;Node12 -->
<g id="edge15" class="edge"><title>Node3&#45;&gt;Node12</title>
<path fill="none" stroke="midnightblue" d="M384.612,-336.67C398.017,-374.209 428.066,-445.798 475,-489.903 486.096,-500.331 501.092,-508.016 514.314,-513.332"/>
<polygon fill="midnightblue" stroke="midnightblue" points="387.855,-335.338 381.273,-327.036 381.241,-337.631 387.855,-335.338"/>
</g>
<!-- Node17 -->
<g id="node17" class="node"><title>Node17</title>
<g id="a_node17"><a xlink:href="../../df/de1/lms7__api_8cpp.html#abd4183e72a6b36d5ed36b4f2fb3841aa" target="_top" xlink:title="LMS_Open">
<polygon fill="white" stroke="black" points="677,-261.403 677,-280.403 742,-280.403 742,-261.403 677,-261.403"/>
<text text-anchor="middle" x="709.5" y="-268.403" font-family="Helvetica,sans-Serif" font-size="10.00">LMS_Open</text>
</a>
</g>
</g>
<!-- Node3&#45;&gt;Node17 -->
<g id="edge20" class="edge"><title>Node3&#45;&gt;Node17</title>
<path fill="none" stroke="midnightblue" d="M399.589,-333.955C418.273,-350.179 446.14,-370.909 475,-379.903 534.829,-398.549 559.131,-406.229 616,-379.903 661.496,-358.842 692.786,-303.153 703.962,-280.596"/>
<polygon fill="midnightblue" stroke="midnightblue" points="401.712,-331.158 391.925,-327.101 397.046,-336.376 401.712,-331.158"/>
</g>
<!-- Node20 -->
<g id="node20" class="node"><title>Node20</title>
<g id="a_node20"><a xlink:href="../../d3/d22/classlime_1_1LMS7__Device.html#a49bc5e1f4dd610633474c5906d2e28a4" target="_top" xlink:title="lime::LMS7_Device::\lGetDeviceList">
<polygon fill="white" stroke="black" points="491.5,-340.903 491.5,-370.903 599.5,-370.903 599.5,-340.903 491.5,-340.903"/>
<text text-anchor="start" x="499.5" y="-358.903" font-family="Helvetica,sans-Serif" font-size="10.00">lime::LMS7_Device::</text>
<text text-anchor="middle" x="545.5" y="-347.903" font-family="Helvetica,sans-Serif" font-size="10.00">GetDeviceList</text>
</a>
</g>
</g>
<!-- Node3&#45;&gt;Node20 -->
<g id="edge25" class="edge"><title>Node3&#45;&gt;Node20</title>
<path fill="none" stroke="midnightblue" d="M443.604,-329.478C459.485,-333.638 476.206,-338.017 491.369,-341.988"/>
<polygon fill="midnightblue" stroke="midnightblue" points="444.407,-326.071 433.846,-326.923 442.633,-332.842 444.407,-326.071"/>
</g>
<!-- Node22 -->
<g id="node22" class="node"><title>Node22</title>
<g id="a_node22"><a xlink:href="../../dd/d0b/mcu__program_2host__src_2main_8cpp.html#a3c04138a5bfe5d72780bb7e82a18e627" target="_top" xlink:title="main">
<polygon fill="white" stroke="black" points="526.5,-264.403 526.5,-283.403 564.5,-283.403 564.5,-264.403 526.5,-264.403"/>
<text text-anchor="middle" x="545.5" y="-271.403" font-family="Helvetica,sans-Serif" font-size="10.00">main</text>
</a>
</g>
</g>
<!-- Node3&#45;&gt;Node22 -->
<g id="edge27" class="edge"><title>Node3&#45;&gt;Node22</title>
<path fill="none" stroke="midnightblue" d="M449.035,-295.497C477.517,-289.054 507.791,-282.207 526.426,-277.992"/>
<polygon fill="midnightblue" stroke="midnightblue" points="448.038,-292.134 439.057,-297.754 449.583,-298.961 448.038,-292.134"/>
</g>
<!-- Node23 -->
<g id="node23" class="node"><title>Node23</title>
<g id="a_node23"><a xlink:href="../../d5/dba/classStreamingFixture.html#a5551dd297bc4cda9a9e677b2d2fffd61" target="_top" xlink:title="StreamingFixture::Streaming\lFixture">
<polygon fill="white" stroke="black" points="475,-214.903 475,-244.903 616,-244.903 616,-214.903 475,-214.903"/>
<text text-anchor="start" x="483" y="-232.903" font-family="Helvetica,sans-Serif" font-size="10.00">StreamingFixture::Streaming</text>
<text text-anchor="middle" x="545.5" y="-221.903" font-family="Helvetica,sans-Serif" font-size="10.00">Fixture</text>
</a>
</g>
</g>
<!-- Node3&#45;&gt;Node23 -->
<g id="edge28" class="edge"><title>Node3&#45;&gt;Node23</title>
<path fill="none" stroke="midnightblue" d="M408.271,-291.566C427.198,-279.95 451.952,-265.612 475,-254.903 482.559,-251.391 490.76,-248.051 498.789,-245.022"/>
<polygon fill="midnightblue" stroke="midnightblue" points="406.398,-288.609 399.746,-296.855 410.089,-294.557 406.398,-288.609"/>
</g>
<!-- Node5 -->
<g id="node5" class="node"><title>Node5</title>
<g id="a_node5"><a xlink:href="../../d5/db6/LimeUtil_8cpp.html#a0ddf1224851353fc92bfbff6f499fa97" target="_top" xlink:title="main">
<polygon fill="white" stroke="black" points="954,-195.403 954,-214.403 992,-214.403 992,-195.403 954,-195.403"/>
<text text-anchor="middle" x="973" y="-202.403" font-family="Helvetica,sans-Serif" font-size="10.00">main</text>
</a>
</g>
</g>
<!-- Node4&#45;&gt;Node5 -->
<g id="edge4" class="edge"><title>Node4&#45;&gt;Node5</title>
<path fill="none" stroke="midnightblue" d="M890.764,-411.054C900.634,-404.784 910.927,-396.654 918,-386.903 958.832,-330.61 969.039,-243.474 971.366,-214.579"/>
<polygon fill="midnightblue" stroke="midnightblue" points="888.75,-408.178 881.924,-416.281 892.313,-414.204 888.75,-408.178"/>
</g>
<!-- Node6&#45;&gt;Node5 -->
<g id="edge6" class="edge"><title>Node6&#45;&gt;Node5</title>
<path fill="none" stroke="midnightblue" d="M597.65,-100.623C671.297,-104.705 810.194,-118.472 918,-164.903 935.144,-172.288 951.952,-186.067 962.147,-195.362"/>
<polygon fill="midnightblue" stroke="midnightblue" points="597.436,-97.1074 587.269,-100.088 597.076,-104.098 597.436,-97.1074"/>
</g>
<!-- Node7&#45;&gt;Node5 -->
<g id="edge8" class="edge"><title>Node7&#45;&gt;Node5</title>
<path fill="none" stroke="midnightblue" d="M602.584,-57.7326C679.813,-56.0763 820.408,-63.0459 918,-125.903 944.537,-142.996 961.429,-178.233 968.375,-195.266"/>
<polygon fill="midnightblue" stroke="midnightblue" points="602.476,-54.2342 592.575,-58.0036 602.666,-61.2316 602.476,-54.2342"/>
</g>
<!-- Node8&#45;&gt;Node5 -->
<g id="edge10" class="edge"><title>Node8&#45;&gt;Node5</title>
<path fill="none" stroke="midnightblue" d="M600.718,-323.163C677.229,-336.021 818.618,-348.399 918,-289.903 947.23,-272.699 963.169,-232.756 969.176,-214.418"/>
<polygon fill="midnightblue" stroke="midnightblue" points="601.268,-319.706 590.815,-321.434 600.064,-326.601 601.268,-319.706"/>
</g>
<!-- Node9&#45;&gt;Node5 -->
<g id="edge12" class="edge"><title>Node9&#45;&gt;Node5</title>
<path fill="none" stroke="midnightblue" d="M602.78,-141.815C647.455,-146.068 711.423,-152.944 767,-161.903 836.469,-173.102 918.042,-191.938 953.731,-200.468"/>
<polygon fill="midnightblue" stroke="midnightblue" points="602.988,-138.32 592.705,-140.87 602.334,-145.289 602.988,-138.32"/>
</g>
<!-- Node11 -->
<g id="node11" class="node"><title>Node11</title>
<g id="a_node11"><a xlink:href="../../da/dc9/Registration_8cpp.html#acd1bbddd8bc17adedce4f57d47ab8b54" target="_top" xlink:title="makeIConnection">
<polygon fill="white" stroke="black" points="663,-418.403 663,-437.403 756,-437.403 756,-418.403 663,-418.403"/>
<text text-anchor="middle" x="709.5" y="-425.403" font-family="Helvetica,sans-Serif" font-size="10.00">makeIConnection</text>
</a>
</g>
</g>
<!-- Node10&#45;&gt;Node11 -->
<g id="edge14" class="edge"><title>Node10&#45;&gt;Node11</title>
<path fill="none" stroke="midnightblue" d="M598.451,-434.697C619.197,-433.416 642.873,-431.955 662.936,-430.716"/>
<polygon fill="midnightblue" stroke="midnightblue" points="597.984,-431.219 588.219,-435.328 598.416,-438.205 597.984,-431.219"/>
</g>
<!-- Node13 -->
<g id="node13" class="node"><title>Node13</title>
<g id="a_node13"><a xlink:href="../../db/d92/LimeSuite_8cc.html#acdb100f1d59f9528e315c81b3a748ff4" target="_top" xlink:title="DEFUN_DLD">
<polygon fill="white" stroke="black" points="671,-532.403 671,-551.403 748,-551.403 748,-532.403 671,-532.403"/>
<text text-anchor="middle" x="709.5" y="-539.403" font-family="Helvetica,sans-Serif" font-size="10.00">DEFUN_DLD</text>
</a>
</g>
</g>
<!-- Node12&#45;&gt;Node13 -->
<g id="edge16" class="edge"><title>Node12&#45;&gt;Node13</title>
<path fill="none" stroke="midnightblue" d="M607.976,-530.114C629.158,-532.598 652.233,-535.304 670.927,-537.497"/>
<polygon fill="midnightblue" stroke="midnightblue" points="608.097,-526.604 597.758,-528.915 607.282,-533.556 608.097,-526.604"/>
</g>
<!-- Node14 -->
<g id="node14" class="node"><title>Node14</title>
<g id="a_node14"><a xlink:href="../../d6/db6/classdlgConnectionSettings.html#a70240fad10aa2566feb0e24212af73e2" target="_top" xlink:title="dlgConnectionSettings\l::GetDeviceList">
<polygon fill="white" stroke="black" points="652,-570.903 652,-600.903 767,-600.903 767,-570.903 652,-570.903"/>
<text text-anchor="start" x="660" y="-588.903" font-family="Helvetica,sans-Serif" font-size="10.00">dlgConnectionSettings</text>
<text text-anchor="middle" x="709.5" y="-577.903" font-family="Helvetica,sans-Serif" font-size="10.00">::GetDeviceList</text>
</a>
</g>
</g>
<!-- Node12&#45;&gt;Node14 -->
<g id="edge17" class="edge"><title>Node12&#45;&gt;Node14</title>
<path fill="none" stroke="midnightblue" d="M580.571,-536.153C606.637,-546.29 642.602,-560.276 669.761,-570.838"/>
<polygon fill="midnightblue" stroke="midnightblue" points="581.693,-532.834 571.104,-532.472 579.156,-539.358 581.693,-532.834"/>
</g>
<!-- Node16 -->
<g id="node16" class="node"><title>Node16</title>
<g id="a_node16"><a xlink:href="../../d4/d20/basicRX_8cpp.html#a3c04138a5bfe5d72780bb7e82a18e627" target="_top" xlink:title="main">
<polygon fill="white" stroke="black" points="841.5,-358.403 841.5,-377.403 879.5,-377.403 879.5,-358.403 841.5,-358.403"/>
<text text-anchor="middle" x="860.5" y="-365.403" font-family="Helvetica,sans-Serif" font-size="10.00">main</text>
</a>
</g>
</g>
<!-- Node12&#45;&gt;Node16 -->
<g id="edge19" class="edge"><title>Node12&#45;&gt;Node16</title>
<path fill="none" stroke="midnightblue" d="M606.091,-511.008C652.686,-499.749 717.621,-479.605 767,-446.903 786.941,-433.697 785.036,-422.694 803,-406.903 815.712,-395.73 831.706,-384.952 843.429,-377.57"/>
<polygon fill="midnightblue" stroke="midnightblue" points="605.078,-507.651 596.144,-513.345 606.679,-514.465 605.078,-507.651"/>
</g>
<!-- Node15 -->
<g id="node15" class="node"><title>Node15</title>
<g id="a_node15"><a xlink:href="../../d6/db6/classdlgConnectionSettings.html#a12d3ed0997324c7b6b50d886c574193f" target="_top" xlink:title="dlgConnectionSettings\l::OnDisconnect">
<polygon fill="white" stroke="black" points="803,-570.903 803,-600.903 918,-600.903 918,-570.903 803,-570.903"/>
<text text-anchor="start" x="811" y="-588.903" font-family="Helvetica,sans-Serif" font-size="10.00">dlgConnectionSettings</text>
<text text-anchor="middle" x="860.5" y="-577.903" font-family="Helvetica,sans-Serif" font-size="10.00">::OnDisconnect</text>
</a>
</g>
</g>
<!-- Node14&#45;&gt;Node15 -->
<g id="edge18" class="edge"><title>Node14&#45;&gt;Node15</title>
<path fill="none" stroke="midnightblue" d="M777.508,-585.903C785.99,-585.903 794.604,-585.903 802.902,-585.903"/>
<polygon fill="midnightblue" stroke="midnightblue" points="777.256,-582.404 767.256,-585.903 777.256,-589.404 777.256,-582.404"/>
</g>
<!-- Node17&#45;&gt;Node16 -->
<g id="edge24" class="edge"><title>Node17&#45;&gt;Node16</title>
<path fill="none" stroke="midnightblue" d="M733.798,-286.071C764.818,-306.265 818.777,-341.393 844.729,-358.287"/>
<polygon fill="midnightblue" stroke="midnightblue" points="735.622,-283.081 725.331,-280.559 731.802,-288.948 735.622,-283.081"/>
</g>
<!-- Node18 -->
<g id="node18" class="node"><title>Node18</title>
<g id="a_node18"><a xlink:href="../../db/d92/LimeSuite_8cc.html#a8264622f1c2c5bfc25727870d85ee938" target="_top" xlink:title="DEFUN_DLD">
<polygon fill="white" stroke="black" points="822,-223.403 822,-242.403 899,-242.403 899,-223.403 822,-223.403"/>
<text text-anchor="middle" x="860.5" y="-230.403" font-family="Helvetica,sans-Serif" font-size="10.00">DEFUN_DLD</text>
</a>
</g>
</g>
<!-- Node17&#45;&gt;Node18 -->
<g id="edge21" class="edge"><title>Node17&#45;&gt;Node18</title>
<path fill="none" stroke="midnightblue" d="M751.841,-260.36C773.871,-254.742 800.759,-247.884 822.153,-242.428"/>
<polygon fill="midnightblue" stroke="midnightblue" points="750.924,-256.982 742.099,-262.845 752.654,-263.765 750.924,-256.982"/>
</g>
<!-- Node19 -->
<g id="node19" class="node"><title>Node19</title>
<g id="a_node19"><a xlink:href="../../d0/d43/LimeUtilCalSweep_8cpp.html#aa1ddf17da91809067879ee6cf16f04d1" target="_top" xlink:title="deviceCalSweep">
<polygon fill="white" stroke="black" points="815.5,-261.403 815.5,-280.403 905.5,-280.403 905.5,-261.403 815.5,-261.403"/>
<text text-anchor="middle" x="860.5" y="-268.403" font-family="Helvetica,sans-Serif" font-size="10.00">deviceCalSweep</text>
</a>
</g>
</g>
<!-- Node17&#45;&gt;Node19 -->
<g id="edge22" class="edge"><title>Node17&#45;&gt;Node19</title>
<path fill="none" stroke="midnightblue" d="M752.271,-270.903C771.895,-270.903 795.3,-270.903 815.23,-270.903"/>
<polygon fill="midnightblue" stroke="midnightblue" points="752.099,-267.404 742.099,-270.903 752.099,-274.404 752.099,-267.404"/>
</g>
<!-- Node19&#45;&gt;Node5 -->
<g id="edge23" class="edge"><title>Node19&#45;&gt;Node5</title>
<path fill="none" stroke="midnightblue" d="M906.474,-257.609C910.463,-255.887 914.363,-253.987 918,-251.903 935.901,-241.647 953.292,-224.929 963.308,-214.443"/>
<polygon fill="midnightblue" stroke="midnightblue" points="905.108,-254.386 897.087,-261.308 907.673,-260.898 905.108,-254.386"/>
</g>
<!-- Node21 -->
<g id="node21" class="node"><title>Node21</title>
<g id="a_node21"><a xlink:href="../../d6/db6/classdlgConnectionSettings.html#a52a3142de26673fdbcf16c56b2c34cae" target="_top" xlink:title="dlgConnectionSettings\l::OnConnect">
<polygon fill="white" stroke="black" points="652,-210.903 652,-240.903 767,-240.903 767,-210.903 652,-210.903"/>
<text text-anchor="start" x="660" y="-228.903" font-family="Helvetica,sans-Serif" font-size="10.00">dlgConnectionSettings</text>
<text text-anchor="middle" x="709.5" y="-217.903" font-family="Helvetica,sans-Serif" font-size="10.00">::OnConnect</text>
</a>
</g>
</g>
<!-- Node20&#45;&gt;Node21 -->
<g id="edge26" class="edge"><title>Node20&#45;&gt;Node21</title>
<path fill="none" stroke="midnightblue" d="M608.219,-336.986C610.979,-335.14 613.595,-333.119 616,-330.903 644.383,-304.765 624.767,-279.238 652,-251.903 656.192,-247.696 661.19,-244.097 666.455,-241.038"/>
<polygon fill="midnightblue" stroke="midnightblue" points="606.46,-333.959 599.57,-342.007 609.975,-340.013 606.46,-333.959"/>
</g>
<!-- Node24&#45;&gt;Node6 -->
<g id="edge32" class="edge"><title>Node24&#45;&gt;Node6</title>
<path fill="none" stroke="midnightblue" d="M404.445,-159.783C423.49,-146.226 449.742,-129.121 475,-117.903 484.031,-113.893 494.107,-110.548 503.723,-107.84"/>
<polygon fill="midnightblue" stroke="midnightblue" points="402.279,-157.03 396.231,-165.729 406.384,-162.7 402.279,-157.03"/>
</g>
<!-- Node24&#45;&gt;Node7 -->
<g id="edge33" class="edge"><title>Node24&#45;&gt;Node7</title>
<path fill="none" stroke="midnightblue" d="M393.257,-157.553C411.014,-134.49 441.131,-99.8572 475,-79.9035 482.113,-75.7129 490.178,-72.4202 498.231,-69.8409"/>
<polygon fill="midnightblue" stroke="midnightblue" points="390.289,-155.675 387.074,-165.771 395.883,-159.884 390.289,-155.675"/>
</g>
<!-- Node24&#45;&gt;Node8 -->
<g id="edge34" class="edge"><title>Node24&#45;&gt;Node8</title>
<path fill="none" stroke="midnightblue" d="M391.325,-204.83C408.402,-230.403 438.81,-270.307 475,-292.903 482.321,-297.475 490.745,-300.962 499.145,-303.618"/>
<polygon fill="midnightblue" stroke="midnightblue" points="394.04,-202.585 385.65,-196.115 388.174,-206.405 394.04,-202.585"/>
</g>
<!-- Node24&#45;&gt;Node9 -->
<g id="edge35" class="edge"><title>Node24&#45;&gt;Node9</title>
<path fill="none" stroke="midnightblue" d="M443.813,-163.274C465.798,-157.516 489.373,-151.342 508.18,-146.416"/>
<polygon fill="midnightblue" stroke="midnightblue" points="442.633,-159.965 433.846,-165.884 444.407,-166.736 442.633,-159.965"/>
</g>
<!-- Node24&#45;&gt;Node22 -->
<g id="edge40" class="edge"><title>Node24&#45;&gt;Node22</title>
<path fill="none" stroke="midnightblue" d="M400.637,-202.672C419.646,-218.812 447.45,-240.288 475,-253.903 491.546,-262.081 512.006,-267.461 526.43,-270.561"/>
<polygon fill="midnightblue" stroke="midnightblue" points="402.91,-200.01 393.055,-196.12 398.333,-205.306 402.91,-200.01"/>
</g>
<!-- Node24&#45;&gt;Node23 -->
<g id="edge41" class="edge"><title>Node24&#45;&gt;Node23</title>
<path fill="none" stroke="midnightblue" d="M438.101,-198.87C456.101,-204.121 475.582,-209.802 492.895,-214.852"/>
<polygon fill="midnightblue" stroke="midnightblue" points="438.856,-195.445 428.276,-196.005 436.896,-202.165 438.856,-195.445"/>
</g>
<!-- Node25 -->
<g id="node25" class="node"><title>Node25</title>
<g id="a_node25"><a xlink:href="../../d5/db6/LimeUtil_8cpp.html#a723b95f4b25f8a3d4ac673e2fae27525" target="_top" xlink:title="makeDevice">
<polygon fill="white" stroke="black" points="825,-14.4035 825,-33.4035 896,-33.4035 896,-14.4035 825,-14.4035"/>
<text text-anchor="middle" x="860.5" y="-21.4035" font-family="Helvetica,sans-Serif" font-size="10.00">makeDevice</text>
</a>
</g>
</g>
<!-- Node24&#45;&gt;Node25 -->
<g id="edge30" class="edge"><title>Node24&#45;&gt;Node25</title>
<path fill="none" stroke="midnightblue" d="M385.796,-156.384C399.66,-123.677 429.144,-66.9867 475,-41.9035 589.912,20.9538 754.252,-1.88787 824.974,-16.0477"/>
<polygon fill="midnightblue" stroke="midnightblue" points="382.531,-155.121 381.994,-165.703 389.012,-157.766 382.531,-155.121"/>
</g>
<!-- Node26 -->
<g id="node26" class="node"><title>Node26</title>
<g id="a_node26"><a xlink:href="../../d3/d22/classlime_1_1LMS7__Device.html#adf7928b645e888bff44422a915fa430b" target="_top" xlink:title="lime::LMS7_Device::\lCreateDevice">
<polygon fill="white" stroke="black" points="491.5,-165.903 491.5,-195.903 599.5,-195.903 599.5,-165.903 491.5,-165.903"/>
<text text-anchor="start" x="499.5" y="-183.903" font-family="Helvetica,sans-Serif" font-size="10.00">lime::LMS7_Device::</text>
<text text-anchor="middle" x="545.5" y="-172.903" font-family="Helvetica,sans-Serif" font-size="10.00">CreateDevice</text>
</a>
</g>
</g>
<!-- Node24&#45;&gt;Node26 -->
<g id="edge36" class="edge"><title>Node24&#45;&gt;Node26</title>
<path fill="none" stroke="midnightblue" d="M449.238,-180.903C463.357,-180.903 477.908,-180.903 491.257,-180.903"/>
<polygon fill="midnightblue" stroke="midnightblue" points="449.057,-177.404 439.057,-180.903 449.057,-184.404 449.057,-177.404"/>
</g>
<!-- Node25&#45;&gt;Node5 -->
<g id="edge31" class="edge"><title>Node25&#45;&gt;Node5</title>
<path fill="none" stroke="midnightblue" d="M904.442,-38.2192C909.452,-41.18 914.142,-44.7098 918,-48.9035 958.36,-92.7755 968.783,-168.34 971.273,-195.134"/>
<polygon fill="midnightblue" stroke="midnightblue" points="905.684,-34.9233 895.187,-33.4838 902.495,-41.1548 905.684,-34.9233"/>
</g>
<!-- Node26&#45;&gt;Node17 -->
<g id="edge37" class="edge"><title>Node26&#45;&gt;Node17</title>
<path fill="none" stroke="midnightblue" d="M608.626,-200.248C611.182,-201.698 613.653,-203.248 616,-204.903 636.93,-219.666 631.244,-234.898 652,-249.903 659.378,-255.237 668.267,-259.371 676.787,-262.505"/>
<polygon fill="midnightblue" stroke="midnightblue" points="610.17,-197.107 599.67,-195.694 606.997,-203.347 610.17,-197.107"/>
</g>
<!-- Node26&#45;&gt;Node21 -->
<g id="edge39" class="edge"><title>Node26&#45;&gt;Node21</title>
<path fill="none" stroke="midnightblue" d="M609.591,-198.429C624.332,-202.524 639.906,-206.85 654.225,-210.827"/>
<polygon fill="midnightblue" stroke="midnightblue" points="610.117,-194.942 599.545,-195.638 608.243,-201.687 610.117,-194.942"/>
</g>
<!-- Node27 -->
<g id="node27" class="node"><title>Node27</title>
<g id="a_node27"><a xlink:href="../../d4/d8f/pll__sweep_8cpp.html#a3c04138a5bfe5d72780bb7e82a18e627" target="_top" xlink:title="main">
<polygon fill="white" stroke="black" points="690.5,-171.403 690.5,-190.403 728.5,-190.403 728.5,-171.403 690.5,-171.403"/>
<text text-anchor="middle" x="709.5" y="-178.403" font-family="Helvetica,sans-Serif" font-size="10.00">main</text>
</a>
</g>
</g>
<!-- Node26&#45;&gt;Node27 -->
<g id="edge38" class="edge"><title>Node26&#45;&gt;Node27</title>
<path fill="none" stroke="midnightblue" d="M609.659,-180.903C638.705,-180.903 670.973,-180.903 690.495,-180.903"/>
<polygon fill="midnightblue" stroke="midnightblue" points="609.545,-177.404 599.545,-180.903 609.545,-184.404 609.545,-177.404"/>
</g>
<!-- Node29 -->
<g id="node29" class="node"><title>Node29</title>
<g id="a_node29"><a xlink:href="../../d5/db6/LimeUtil_8cpp.html#a66eb714e8ab3741938794494ccb095fc" target="_top" xlink:title="printInfo">
<polygon fill="white" stroke="black" points="683.5,-620.403 683.5,-639.403 735.5,-639.403 735.5,-620.403 683.5,-620.403"/>
<text text-anchor="middle" x="709.5" y="-627.403" font-family="Helvetica,sans-Serif" font-size="10.00">printInfo</text>
</a>
</g>
</g>
<!-- Node28&#45;&gt;Node29 -->
<g id="edge43" class="edge"><title>Node28&#45;&gt;Node29</title>
<path fill="none" stroke="midnightblue" d="M405.156,-498.816C424.314,-512.213 450.422,-529.372 475,-541.903 550.077,-580.182 572.939,-580.729 652,-609.903 662.25,-613.686 673.597,-617.73 683.416,-621.185"/>
<polygon fill="midnightblue" stroke="midnightblue" points="407.058,-495.875 396.873,-492.956 403.015,-501.589 407.058,-495.875"/>
</g>
<!-- Node29&#45;&gt;Node5 -->
<g id="edge44" class="edge"><title>Node29&#45;&gt;Node5</title>
<path fill="none" stroke="midnightblue" d="M745.42,-638.261C791.531,-647.012 872.221,-654.043 918,-609.903 976.852,-553.159 973.502,-270.264 972.251,-214.469"/>
<polygon fill="midnightblue" stroke="midnightblue" points="746.077,-634.823 735.581,-636.267 744.687,-641.683 746.077,-634.823"/>
</g>
</g>
</svg>
        <g id="navigator" transform="translate(0 0)" fill="#404254">
                <rect fill="#f2f5e9" fill-opacity="0.5" stroke="#606060" stroke-width=".5" x="0" y="0" width="60" height="60"/>
                <use id="zoomplus" xlink:href="#zoomPlus" x="17" y="9" onmousedown="handleZoom(evt,'in')"/>
                <use id="zoomminus" xlink:href="#zoomMin" x="42" y="9" onmousedown="handleZoom(evt,'out')"/>
                <use id="reset" xlink:href="#resetDef" x="30" y="36" onmousedown="handleReset()"/>
                <g id="arrowUp" xlink:href="#dirArrow" transform="translate(30 24)" onmousedown="handlePan(0,-1)">
                  <use xlink:href="#rim" fill="#404040">
                        <set attributeName="fill" to="#808080" begin="arrowUp.mouseover" end="arrowUp.mouseout"/>
                  </use>
                  <path fill="none" stroke="white" stroke-width="1.5" d="M0,-3.0v7 M-2.5,-0.5L0,-3.0L2.5,-0.5"/>
                </g>
                <g id="arrowRight" xlink:href="#dirArrow" transform="rotate(90) translate(36 -43)" onmousedown="handlePan(1,0)">
                  <use xlink:href="#rim" fill="#404040">
                        <set attributeName="fill" to="#808080" begin="arrowRight.mouseover" end="arrowRight.mouseout"/>
                  </use>
                  <path fill="none" stroke="white" stroke-width="1.5" d="M0,-3.0v7 M-2.5,-0.5L0,-3.0L2.5,-0.5"/>
                </g>
                <g id="arrowDown" xlink:href="#dirArrow" transform="rotate(180) translate(-30 -48)" onmousedown="handlePan(0,1)">
                  <use xlink:href="#rim" fill="#404040">
                        <set attributeName="fill" to="#808080" begin="arrowDown.mouseover" end="arrowDown.mouseout"/>
                  </use>
                  <path fill="none" stroke="white" stroke-width="1.5" d="M0,-3.0v7 M-2.5,-0.5L0,-3.0L2.5,-0.5"/>
                </g>
                <g id="arrowLeft" xlink:href="#dirArrow" transform="rotate(270) translate(-36 17)" onmousedown="handlePan(-1,0)">
                  <use xlink:href="#rim" fill="#404040">
                        <set attributeName="fill" to="#808080" begin="arrowLeft.mouseover" end="arrowLeft.mouseout"/>
                  </use>
                  <path fill="none" stroke="white" stroke-width="1.5" d="M0,-3.0v7 M-2.5,-0.5L0,-3.0L2.5,-0.5"/>
                </g>
        </g>
        <svg viewBox="0 0 15 15" width="100%" height="30px" preserveAspectRatio="xMaxYMin meet">
         <g id="arrow_out" transform="scale(0.3 0.3)">
          <a xlink:href="BuiltinConnections_8in_8cpp_af9ac641bc1febe4c158ee95b289bb04c_icgraph_org.svg" target="_base">
           <rect id="button" ry="5" rx="5" y="6" x="6" height="38" width="38"
                fill="#f2f5e9" fill-opacity="0.5" stroke="#606060" stroke-width="1.0"/>
           <path id="arrow"
             d="M 11.500037,31.436501 C 11.940474,20.09759 22.043105,11.32322 32.158766,21.979434 L 37.068811,17.246167 C 37.068811,17.246167 37.088388,32 37.088388,32 L 22.160133,31.978069 C 22.160133,31.978069 26.997745,27.140456 26.997745,27.140456 C 18.528582,18.264221 13.291696,25.230495 11.500037,31.436501 z"
             style="fill:#404040;"/>
          </a>
         </g>
        </svg>
</svg>
