<?xml version="1.0" encoding="UTF-8" standalone="no"?>
<!DOCTYPE svg PUBLIC "-//W3C//DTD SVG 1.1//EN"
 "http://www.w3.org/Graphics/SVG/1.1/DTD/svg11.dtd">
<!-- Generated by graphviz version 2.38.0 (20140413.2041)
 -->
<!-- Title: /home/erik/prefix/default/src/limesuite&#45;dev/src/lms7002_wxgui/lms7002_mainPanel.h Pages: 1 -->
<svg width="489pt" height="128pt"
 viewBox="0.00 0.00 489.00 128.00" xmlns="http://www.w3.org/2000/svg" xmlns:xlink="http://www.w3.org/1999/xlink">
<g id="graph0" class="graph" transform="scale(1 1) rotate(0) translate(4 124)">
<title>/home/erik/prefix/default/src/limesuite&#45;dev/src/lms7002_wxgui/lms7002_mainPanel.h</title>
<polygon fill="white" stroke="none" points="-4,4 -4,-124 485,-124 485,4 -4,4"/>
<!-- Node1 -->
<g id="node1" class="node"><title>Node1</title>
<polygon fill="#bfbfbf" stroke="black" points="183.5,-78.5 183.5,-119.5 369.5,-119.5 369.5,-78.5 183.5,-78.5"/>
<text text-anchor="start" x="191.5" y="-107.5" font-family="Helvetica,sans-Serif" font-size="10.00">/home/erik/prefix/default</text>
<text text-anchor="start" x="191.5" y="-96.5" font-family="Helvetica,sans-Serif" font-size="10.00">/src/limesuite&#45;dev/src</text>
<text text-anchor="middle" x="276.5" y="-85.5" font-family="Helvetica,sans-Serif" font-size="10.00">/lms7002_wxgui/lms7002_mainPanel.h</text>
</g>
<!-- Node2 -->
<g id="node2" class="node"><title>Node2</title>
<g id="a_node2"><a xlink:href="../../d7/d08/lms7002__mainPanel_8cpp.html" target="_top" xlink:title="/home/erik/prefix/default\l/src/limesuite&#45;dev/src\l/lms7002_wxgui/lms7002_mainPanel.cpp">
<polygon fill="white" stroke="black" points="0,-0.5 0,-41.5 197,-41.5 197,-0.5 0,-0.5"/>
<text text-anchor="start" x="8" y="-29.5" font-family="Helvetica,sans-Serif" font-size="10.00">/home/erik/prefix/default</text>
<text text-anchor="start" x="8" y="-18.5" font-family="Helvetica,sans-Serif" font-size="10.00">/src/limesuite&#45;dev/src</text>
<text text-anchor="middle" x="98.5" y="-7.5" font-family="Helvetica,sans-Serif" font-size="10.00">/lms7002_wxgui/lms7002_mainPanel.cpp</text>
</a>
</g>
</g>
<!-- Node1&#45;&gt;Node2 -->
<g id="edge1" class="edge"><title>Node1&#45;&gt;Node2</title>
<path fill="none" stroke="midnightblue" d="M221.388,-74.4689C196.616,-63.8921 167.726,-51.5572 144.184,-41.5056"/>
<polygon fill="midnightblue" stroke="midnightblue" points="220.089,-77.7202 230.661,-78.4281 222.838,-71.2825 220.089,-77.7202"/>
</g>
<!-- Node3 -->
<g id="node3" class="node"><title>Node3</title>
<g id="a_node3"><a xlink:href="../../d5/d17/lms7suiteApp__gui_8cpp.html" target="_top" xlink:title="/home/erik/prefix/default\l/src/limesuite&#45;dev/src\l/lms7suiteApp_gui.cpp">
<polygon fill="white" stroke="black" points="215.5,-0.5 215.5,-41.5 337.5,-41.5 337.5,-0.5 215.5,-0.5"/>
<text text-anchor="start" x="223.5" y="-29.5" font-family="Helvetica,sans-Serif" font-size="10.00">/home/erik/prefix/default</text>
<text text-anchor="start" x="223.5" y="-18.5" font-family="Helvetica,sans-Serif" font-size="10.00">/src/limesuite&#45;dev/src</text>
<text text-anchor="middle" x="276.5" y="-7.5" font-family="Helvetica,sans-Serif" font-size="10.00">/lms7suiteApp_gui.cpp</text>
</a>
</g>
</g>
<!-- Node1&#45;&gt;Node3 -->
<g id="edge2" class="edge"><title>Node1&#45;&gt;Node3</title>
<path fill="none" stroke="midnightblue" d="M276.5,-68.2965C276.5,-59.3009 276.5,-49.6532 276.5,-41.5056"/>
<polygon fill="midnightblue" stroke="midnightblue" points="273,-68.4281 276.5,-78.4281 280,-68.4281 273,-68.4281"/>
</g>
<!-- Node4 -->
<g id="node4" class="node"><title>Node4</title>
<g id="a_node4"><a xlink:href="../../db/db0/lms7suiteAppFrame_8cpp.html" target="_top" xlink:title="/home/erik/prefix/default\l/src/limesuite&#45;dev/src\l/lms7suiteAppFrame.cpp">
<polygon fill="white" stroke="black" points="356,-0.5 356,-41.5 481,-41.5 481,-0.5 356,-0.5"/>
<text text-anchor="start" x="364" y="-29.5" font-family="Helvetica,sans-Serif" font-size="10.00">/home/erik/prefix/default</text>
<text text-anchor="start" x="364" y="-18.5" font-family="Helvetica,sans-Serif" font-size="10.00">/src/limesuite&#45;dev/src</text>
<text text-anchor="middle" x="418.5" y="-7.5" font-family="Helvetica,sans-Serif" font-size="10.00">/lms7suiteAppFrame.cpp</text>
</a>
</g>
</g>
<!-- Node1&#45;&gt;Node4 -->
<g id="edge3" class="edge"><title>Node1&#45;&gt;Node4</title>
<path fill="none" stroke="midnightblue" d="M322.04,-73.6266C341.443,-63.2416 363.771,-51.2915 382.055,-41.5056"/>
<polygon fill="midnightblue" stroke="midnightblue" points="320.234,-70.6235 313.069,-78.4281 323.537,-76.7951 320.234,-70.6235"/>
</g>
</g>
</svg>
