<?xml version="1.0" encoding="UTF-8" standalone="no"?>
<!DOCTYPE svg PUBLIC "-//W3C//DTD SVG 1.1//EN"
 "http://www.w3.org/Graphics/SVG/1.1/DTD/svg11.dtd">
<!-- Generated by graphviz version 2.38.0 (20140413.2041)
 -->
<!-- Title: pnlLimeLightPAD_view::onbtnReadVerRevMask Pages: 1 -->
<svg width="301pt" height="88pt"
 viewBox="0.00 0.00 301.00 88.00" xmlns="http://www.w3.org/2000/svg" xmlns:xlink="http://www.w3.org/1999/xlink">
<g id="graph0" class="graph" transform="scale(1 1) rotate(0) translate(4 84)">
<title>pnlLimeLightPAD_view::onbtnReadVerRevMask</title>
<polygon fill="white" stroke="none" points="-4,4 -4,-84 297,-84 297,4 -4,4"/>
<!-- Node1 -->
<g id="node1" class="node"><title>Node1</title>
<polygon fill="#bfbfbf" stroke="black" points="0,-24.5 0,-54.5 127,-54.5 127,-24.5 0,-24.5"/>
<text text-anchor="start" x="8" y="-42.5" font-family="Helvetica,sans-Serif" font-size="10.00">pnlLimeLightPAD_view</text>
<text text-anchor="middle" x="63.5" y="-31.5" font-family="Helvetica,sans-Serif" font-size="10.00">::onbtnReadVerRevMask</text>
</g>
<!-- Node2 -->
<g id="node2" class="node"><title>Node2</title>
<g id="a_node2"><a xlink:href="../../db/d70/classpnlLimeLightPAD__view.html#a4b95aee7ca8de75bf9cf76b2bcdccb05" target="_top" xlink:title="pnlLimeLightPAD_view\l::pnlLimeLightPAD_view">
<polygon fill="white" stroke="black" points="166,-49.5 166,-79.5 290,-79.5 290,-49.5 166,-49.5"/>
<text text-anchor="start" x="174" y="-67.5" font-family="Helvetica,sans-Serif" font-size="10.00">pnlLimeLightPAD_view</text>
<text text-anchor="middle" x="228" y="-56.5" font-family="Helvetica,sans-Serif" font-size="10.00">::pnlLimeLightPAD_view</text>
</a>
</g>
</g>
<!-- Node1&#45;&gt;Node2 -->
<g id="edge1" class="edge"><title>Node1&#45;&gt;Node2</title>
<path fill="none" stroke="midnightblue" d="M137.239,-50.6906C146.828,-52.1659 156.577,-53.6657 165.944,-55.1067"/>
<polygon fill="midnightblue" stroke="midnightblue" points="137.743,-47.227 127.327,-49.1657 136.678,-54.1456 137.743,-47.227"/>
</g>
<!-- Node3 -->
<g id="node3" class="node"><title>Node3</title>
<g id="a_node3"><a xlink:href="../../db/d70/classpnlLimeLightPAD__view.html#a514bc000e4f4d2284e9735e1aba3ac35" target="_top" xlink:title="pnlLimeLightPAD_view\l::~pnlLimeLightPAD_view">
<polygon fill="white" stroke="black" points="163,-0.5 163,-30.5 293,-30.5 293,-0.5 163,-0.5"/>
<text text-anchor="start" x="171" y="-18.5" font-family="Helvetica,sans-Serif" font-size="10.00">pnlLimeLightPAD_view</text>
<text text-anchor="middle" x="228" y="-7.5" font-family="Helvetica,sans-Serif" font-size="10.00">::~pnlLimeLightPAD_view</text>
</a>
</g>
</g>
<!-- Node1&#45;&gt;Node3 -->
<g id="edge2" class="edge"><title>Node1&#45;&gt;Node3</title>
<path fill="none" stroke="midnightblue" d="M137.303,-28.7476C145.871,-27.4822 154.565,-26.1981 162.999,-24.9525"/>
<polygon fill="midnightblue" stroke="midnightblue" points="136.708,-25.2974 127.327,-30.221 137.731,-32.2223 136.708,-25.2974"/>
</g>
</g>
</svg>
