<?xml version="1.0" encoding="UTF-8" standalone="no"?>
<!DOCTYPE svg PUBLIC "-//W3C//DTD SVG 1.1//EN"
 "http://www.w3.org/Graphics/SVG/1.1/DTD/svg11.dtd">
<!-- Generated by graphviz version 2.38.0 (20140413.2041)
 -->
<!-- Title: pnlLimeLightPAD_view::pnlLimeLightPAD_view Pages: 1 -->
<svg width="303pt" height="88pt"
 viewBox="0.00 0.00 303.00 88.00" xmlns="http://www.w3.org/2000/svg" xmlns:xlink="http://www.w3.org/1999/xlink">
<g id="graph0" class="graph" transform="scale(1 1) rotate(0) translate(4 84)">
<title>pnlLimeLightPAD_view::pnlLimeLightPAD_view</title>
<polygon fill="white" stroke="none" points="-4,4 -4,-84 299,-84 299,4 -4,4"/>
<!-- Node1 -->
<g id="node1" class="node"><title>Node1</title>
<polygon fill="#bfbfbf" stroke="black" points="0,-24.5 0,-54.5 124,-54.5 124,-24.5 0,-24.5"/>
<text text-anchor="start" x="8" y="-42.5" font-family="Helvetica,sans-Serif" font-size="10.00">pnlLimeLightPAD_view</text>
<text text-anchor="middle" x="62" y="-31.5" font-family="Helvetica,sans-Serif" font-size="10.00">::pnlLimeLightPAD_view</text>
</g>
<!-- Node2 -->
<g id="node2" class="node"><title>Node2</title>
<g id="a_node2"><a xlink:href="../../db/d70/classpnlLimeLightPAD__view.html#a8e6047bfb1481524f39821672da55aa4" target="_top" xlink:title="pnlLimeLightPAD_view\l::onbtnReadVerRevMask">
<polygon fill="white" stroke="black" points="164,-49.5 164,-79.5 291,-79.5 291,-49.5 164,-49.5"/>
<text text-anchor="start" x="172" y="-67.5" font-family="Helvetica,sans-Serif" font-size="10.00">pnlLimeLightPAD_view</text>
<text text-anchor="middle" x="227.5" y="-56.5" font-family="Helvetica,sans-Serif" font-size="10.00">::onbtnReadVerRevMask</text>
</a>
</g>
</g>
<!-- Node1&#45;&gt;Node2 -->
<g id="edge1" class="edge"><title>Node1&#45;&gt;Node2</title>
<path fill="none" stroke="midnightblue" d="M124.347,-48.8802C133.964,-50.3507 143.983,-51.8827 153.825,-53.3876"/>
<polygon fill="midnightblue" stroke="midnightblue" points="153.578,-56.8905 163.992,-54.9423 154.636,-49.9709 153.578,-56.8905"/>
</g>
<!-- Node3 -->
<g id="node3" class="node"><title>Node3</title>
<g id="a_node3"><a xlink:href="../../db/d70/classpnlLimeLightPAD__view.html#a6f579e77265ce83855afb33e30429b37" target="_top" xlink:title="pnlLimeLightPAD_view\l::ParameterChangeHandler">
<polygon fill="white" stroke="black" points="160,-0.5 160,-30.5 295,-30.5 295,-0.5 160,-0.5"/>
<text text-anchor="start" x="168" y="-18.5" font-family="Helvetica,sans-Serif" font-size="10.00">pnlLimeLightPAD_view</text>
<text text-anchor="middle" x="227.5" y="-7.5" font-family="Helvetica,sans-Serif" font-size="10.00">::ParameterChangeHandler</text>
</a>
</g>
</g>
<!-- Node1&#45;&gt;Node3 -->
<g id="edge2" class="edge"><title>Node1&#45;&gt;Node3</title>
<path fill="none" stroke="midnightblue" d="M124.347,-30.495C132.683,-29.2713 141.322,-28.0032 149.885,-26.7462"/>
<polygon fill="midnightblue" stroke="midnightblue" points="150.495,-30.1943 159.88,-25.279 149.478,-23.2685 150.495,-30.1943"/>
</g>
</g>
</svg>
