<?xml version="1.0" encoding="UTF-8" standalone="no"?>
<!DOCTYPE svg PUBLIC "-//W3C//DTD SVG 1.1//EN"
 "http://www.w3.org/Graphics/SVG/1.1/DTD/svg11.dtd">
<!-- Generated by graphviz version 2.38.0 (20140413.2041)
 -->
<!-- Title: pnlLimeLightPAD_view::ParameterChangeHandler Pages: 1 -->
<svg width="309pt" height="88pt"
 viewBox="0.00 0.00 309.00 88.00" xmlns="http://www.w3.org/2000/svg" xmlns:xlink="http://www.w3.org/1999/xlink">
<g id="graph0" class="graph" transform="scale(1 1) rotate(0) translate(4 84)">
<title>pnlLimeLightPAD_view::ParameterChangeHandler</title>
<polygon fill="white" stroke="none" points="-4,4 -4,-84 305,-84 305,4 -4,4"/>
<!-- Node1 -->
<g id="node1" class="node"><title>Node1</title>
<polygon fill="#bfbfbf" stroke="black" points="0,-24.5 0,-54.5 135,-54.5 135,-24.5 0,-24.5"/>
<text text-anchor="start" x="8" y="-42.5" font-family="Helvetica,sans-Serif" font-size="10.00">pnlLimeLightPAD_view</text>
<text text-anchor="middle" x="67.5" y="-31.5" font-family="Helvetica,sans-Serif" font-size="10.00">::ParameterChangeHandler</text>
</g>
<!-- Node2 -->
<g id="node2" class="node"><title>Node2</title>
<g id="a_node2"><a xlink:href="../../db/d70/classpnlLimeLightPAD__view.html#a4b95aee7ca8de75bf9cf76b2bcdccb05" target="_top" xlink:title="pnlLimeLightPAD_view\l::pnlLimeLightPAD_view">
<polygon fill="white" stroke="black" points="174,-49.5 174,-79.5 298,-79.5 298,-49.5 174,-49.5"/>
<text text-anchor="start" x="182" y="-67.5" font-family="Helvetica,sans-Serif" font-size="10.00">pnlLimeLightPAD_view</text>
<text text-anchor="middle" x="236" y="-56.5" font-family="Helvetica,sans-Serif" font-size="10.00">::pnlLimeLightPAD_view</text>
</a>
</g>
</g>
<!-- Node1&#45;&gt;Node2 -->
<g id="edge1" class="edge"><title>Node1&#45;&gt;Node2</title>
<path fill="none" stroke="midnightblue" d="M145.215,-51.0187C154.826,-52.4618 164.554,-53.9225 173.882,-55.3232"/>
<polygon fill="midnightblue" stroke="midnightblue" points="145.671,-47.5481 135.263,-49.5244 144.632,-54.4706 145.671,-47.5481"/>
</g>
<!-- Node3 -->
<g id="node3" class="node"><title>Node3</title>
<g id="a_node3"><a xlink:href="../../db/d70/classpnlLimeLightPAD__view.html#a514bc000e4f4d2284e9735e1aba3ac35" target="_top" xlink:title="pnlLimeLightPAD_view\l::~pnlLimeLightPAD_view">
<polygon fill="white" stroke="black" points="171,-0.5 171,-30.5 301,-30.5 301,-0.5 171,-0.5"/>
<text text-anchor="start" x="179" y="-18.5" font-family="Helvetica,sans-Serif" font-size="10.00">pnlLimeLightPAD_view</text>
<text text-anchor="middle" x="236" y="-7.5" font-family="Helvetica,sans-Serif" font-size="10.00">::~pnlLimeLightPAD_view</text>
</a>
</g>
</g>
<!-- Node1&#45;&gt;Node3 -->
<g id="edge2" class="edge"><title>Node1&#45;&gt;Node3</title>
<path fill="none" stroke="midnightblue" d="M145.273,-28.4337C153.855,-27.1966 162.529,-25.9462 170.928,-24.7356"/>
<polygon fill="midnightblue" stroke="midnightblue" points="144.661,-24.9856 135.263,-29.8766 145.66,-31.914 144.661,-24.9856"/>
</g>
</g>
</svg>
