<?xml version="1.0" encoding="UTF-8" standalone="no"?>
<!DOCTYPE svg PUBLIC "-//W3C//DTD SVG 1.1//EN"
 "http://www.w3.org/Graphics/SVG/1.1/DTD/svg11.dtd">
<!-- Generated by graphviz version 2.38.0 (20140413.2041)
 -->
<!-- Title: /home/erik/prefix/default/src/limesuite&#45;dev/src/FPGA_common/FPGA_Mini.h Pages: 1 -->
<svg width="1076pt" height="330pt"
 viewBox="0.00 0.00 1075.50 330.00" xmlns="http://www.w3.org/2000/svg" xmlns:xlink="http://www.w3.org/1999/xlink">
<g id="graph0" class="graph" transform="scale(1 1) rotate(0) translate(4 326)">
<title>/home/erik/prefix/default/src/limesuite&#45;dev/src/FPGA_common/FPGA_Mini.h</title>
<polygon fill="white" stroke="none" points="-4,4 -4,-326 1071.5,-326 1071.5,4 -4,4"/>
<!-- Node1 -->
<g id="node1" class="node"><title>Node1</title>
<polygon fill="#bfbfbf" stroke="black" points="353,-280.5 353,-321.5 504,-321.5 504,-280.5 353,-280.5"/>
<text text-anchor="start" x="361" y="-309.5" font-family="Helvetica,sans-Serif" font-size="10.00">/home/erik/prefix/default</text>
<text text-anchor="start" x="361" y="-298.5" font-family="Helvetica,sans-Serif" font-size="10.00">/src/limesuite&#45;dev/src</text>
<text text-anchor="middle" x="428.5" y="-287.5" font-family="Helvetica,sans-Serif" font-size="10.00">/FPGA_common/FPGA_Mini.h</text>
</g>
<!-- Node2 -->
<g id="node2" class="node"><title>Node2</title>
<g id="a_node2"><a xlink:href="../../dc/dda/FPGA__common_8h.html" target="_top" xlink:title="Common functions used to work with FPGA. ">
<polygon fill="white" stroke="black" points="381,-224.5 381,-243.5 476,-243.5 476,-224.5 381,-224.5"/>
<text text-anchor="middle" x="428.5" y="-231.5" font-family="Helvetica,sans-Serif" font-size="10.00">FPGA_common.h</text>
</a>
</g>
</g>
<!-- Node1&#45;&gt;Node2 -->
<g id="edge1" class="edge"><title>Node1&#45;&gt;Node2</title>
<path fill="none" stroke="midnightblue" d="M428.5,-280.498C428.5,-272.065 428.5,-262.235 428.5,-253.874"/>
<polygon fill="midnightblue" stroke="midnightblue" points="432,-253.652 428.5,-243.652 425,-253.653 432,-253.652"/>
</g>
<!-- Node3 -->
<g id="node3" class="node"><title>Node3</title>
<g id="a_node3"><a xlink:href="../../d3/d1e/IConnection_8h.html" target="_top" xlink:title="Interface class for connection types. ">
<polygon fill="white" stroke="black" points="217,-112.5 217,-131.5 294,-131.5 294,-112.5 217,-112.5"/>
<text text-anchor="middle" x="255.5" y="-119.5" font-family="Helvetica,sans-Serif" font-size="10.00">IConnection.h</text>
</a>
</g>
</g>
<!-- Node2&#45;&gt;Node3 -->
<g id="edge2" class="edge"><title>Node2&#45;&gt;Node3</title>
<path fill="none" stroke="midnightblue" d="M414.925,-224.368C385.238,-205.492 314.296,-160.385 277.89,-137.237"/>
<polygon fill="midnightblue" stroke="midnightblue" points="279.329,-134.004 269.012,-131.591 275.573,-139.911 279.329,-134.004"/>
</g>
<!-- Node10 -->
<g id="node10" class="node"><title>Node10</title>
<polygon fill="white" stroke="#bfbfbf" points="385,-0.5 385,-19.5 434,-19.5 434,-0.5 385,-0.5"/>
<text text-anchor="middle" x="409.5" y="-7.5" font-family="Helvetica,sans-Serif" font-size="10.00">stdint.h</text>
</g>
<!-- Node2&#45;&gt;Node10 -->
<g id="edge12" class="edge"><title>Node2&#45;&gt;Node10</title>
<path fill="none" stroke="midnightblue" d="M427.755,-224.297C424.96,-191.633 415.052,-75.8661 411.122,-29.9573"/>
<polygon fill="midnightblue" stroke="midnightblue" points="414.6,-29.5488 410.26,-19.8837 407.626,-30.1458 414.6,-29.5488"/>
</g>
<!-- Node11 -->
<g id="node11" class="node"><title>Node11</title>
<g id="a_node11"><a xlink:href="../../d4/dbd/dataTypes_8h.html" target="_top" xlink:title="dataTypes.h">
<polygon fill="white" stroke="black" points="500,-56.5 500,-75.5 571,-75.5 571,-56.5 500,-56.5"/>
<text text-anchor="middle" x="535.5" y="-63.5" font-family="Helvetica,sans-Serif" font-size="10.00">dataTypes.h</text>
</a>
</g>
</g>
<!-- Node2&#45;&gt;Node11 -->
<g id="edge13" class="edge"><title>Node2&#45;&gt;Node11</title>
<path fill="none" stroke="midnightblue" d="M434.253,-224.075C451.314,-197.606 501.847,-119.209 524.407,-84.2097"/>
<polygon fill="midnightblue" stroke="midnightblue" points="527.501,-85.8696 529.977,-75.5681 521.618,-82.0771 527.501,-85.8696"/>
</g>
<!-- Node13 -->
<g id="node13" class="node"><title>Node13</title>
<g id="a_node13"><a xlink:href="../../d2/dbf/Streamer_8h.html" target="_top" xlink:title="Streamer.h">
<polygon fill="white" stroke="black" points="489,-168.5 489,-187.5 554,-187.5 554,-168.5 489,-168.5"/>
<text text-anchor="middle" x="521.5" y="-175.5" font-family="Helvetica,sans-Serif" font-size="10.00">Streamer.h</text>
</a>
</g>
</g>
<!-- Node2&#45;&gt;Node13 -->
<g id="edge16" class="edge"><title>Node2&#45;&gt;Node13</title>
<path fill="none" stroke="midnightblue" d="M443.442,-224.324C458.085,-215.822 480.634,-202.729 497.738,-192.797"/>
<polygon fill="midnightblue" stroke="midnightblue" points="499.705,-195.703 506.595,-187.655 496.19,-189.649 499.705,-195.703"/>
</g>
<!-- Node4 -->
<g id="node4" class="node"><title>Node4</title>
<g id="a_node4"><a xlink:href="../../dd/d40/LimeSuiteConfig_8h.html" target="_top" xlink:title="Configuration constants and macros for lime suite library. ">
<polygon fill="white" stroke="black" points="0,-0.5 0,-19.5 97,-19.5 97,-0.5 0,-0.5"/>
<text text-anchor="middle" x="48.5" y="-7.5" font-family="Helvetica,sans-Serif" font-size="10.00">LimeSuiteConfig.h</text>
</a>
</g>
</g>
<!-- Node3&#45;&gt;Node4 -->
<g id="edge3" class="edge"><title>Node3&#45;&gt;Node4</title>
<path fill="none" stroke="midnightblue" d="M216.642,-118.231C162.649,-113.483 69.2128,-101.699 48.5,-76 38.1169,-63.1171 39.6277,-43.6686 42.814,-29.4017"/>
<polygon fill="midnightblue" stroke="midnightblue" points="46.2072,-30.2609 45.408,-19.6962 39.4445,-28.4534 46.2072,-30.2609"/>
</g>
<!-- Node5 -->
<g id="node5" class="node"><title>Node5</title>
<g id="a_node5"><a xlink:href="../../d1/d5d/ConnectionHandle_8h.html" target="_top" xlink:title="Represent a connection to a device. ">
<polygon fill="white" stroke="black" points="58,-56.5 58,-75.5 163,-75.5 163,-56.5 58,-56.5"/>
<text text-anchor="middle" x="110.5" y="-63.5" font-family="Helvetica,sans-Serif" font-size="10.00">ConnectionHandle.h</text>
</a>
</g>
</g>
<!-- Node3&#45;&gt;Node5 -->
<g id="edge4" class="edge"><title>Node3&#45;&gt;Node5</title>
<path fill="none" stroke="midnightblue" d="M232.524,-112.444C208.343,-103.438 170.082,-89.1891 142.854,-79.049"/>
<polygon fill="midnightblue" stroke="midnightblue" points="143.961,-75.7265 133.368,-75.5164 141.518,-82.2864 143.961,-75.7265"/>
</g>
<!-- Node6 -->
<g id="node6" class="node"><title>Node6</title>
<polygon fill="white" stroke="#bfbfbf" points="152,-0.5 152,-19.5 193,-19.5 193,-0.5 152,-0.5"/>
<text text-anchor="middle" x="172.5" y="-7.5" font-family="Helvetica,sans-Serif" font-size="10.00">string</text>
</g>
<!-- Node3&#45;&gt;Node6 -->
<g id="edge7" class="edge"><title>Node3&#45;&gt;Node6</title>
<path fill="none" stroke="midnightblue" d="M247.145,-112.355C238.771,-103.521 225.695,-89.2577 215.5,-76 203.553,-60.4642 191.36,-41.7005 183.024,-28.3349"/>
<polygon fill="midnightblue" stroke="midnightblue" points="185.918,-26.3597 177.694,-19.6801 179.957,-30.0303 185.918,-26.3597"/>
</g>
<!-- Node7 -->
<g id="node7" class="node"><title>Node7</title>
<polygon fill="white" stroke="#bfbfbf" points="437.5,-56.5 437.5,-75.5 481.5,-75.5 481.5,-56.5 437.5,-56.5"/>
<text text-anchor="middle" x="459.5" y="-63.5" font-family="Helvetica,sans-Serif" font-size="10.00">vector</text>
</g>
<!-- Node3&#45;&gt;Node7 -->
<g id="edge8" class="edge"><title>Node3&#45;&gt;Node7</title>
<path fill="none" stroke="midnightblue" d="M287.824,-112.444C326.026,-102.331 389.206,-85.6072 427.337,-75.5136"/>
<polygon fill="midnightblue" stroke="midnightblue" points="428.615,-78.796 437.387,-72.8536 426.824,-72.0291 428.615,-78.796"/>
</g>
<!-- Node8 -->
<g id="node8" class="node"><title>Node8</title>
<polygon fill="white" stroke="#bfbfbf" points="257.5,-56.5 257.5,-75.5 303.5,-75.5 303.5,-56.5 257.5,-56.5"/>
<text text-anchor="middle" x="280.5" y="-63.5" font-family="Helvetica,sans-Serif" font-size="10.00">cstring</text>
</g>
<!-- Node3&#45;&gt;Node8 -->
<g id="edge9" class="edge"><title>Node3&#45;&gt;Node8</title>
<path fill="none" stroke="midnightblue" d="M259.628,-112.083C263.014,-104.77 267.916,-94.1814 272.119,-85.1034"/>
<polygon fill="midnightblue" stroke="midnightblue" points="275.423,-86.2962 276.449,-75.7511 269.071,-83.3553 275.423,-86.2962"/>
</g>
<!-- Node9 -->
<g id="node9" class="node"><title>Node9</title>
<polygon fill="white" stroke="#bfbfbf" points="322,-56.5 322,-75.5 381,-75.5 381,-56.5 322,-56.5"/>
<text text-anchor="middle" x="351.5" y="-63.5" font-family="Helvetica,sans-Serif" font-size="10.00">functional</text>
</g>
<!-- Node3&#45;&gt;Node9 -->
<g id="edge10" class="edge"><title>Node3&#45;&gt;Node9</title>
<path fill="none" stroke="midnightblue" d="M270.924,-112.324C286.04,-103.822 309.315,-90.7288 326.971,-80.7975"/>
<polygon fill="midnightblue" stroke="midnightblue" points="329.114,-83.6077 336.114,-75.6545 325.683,-77.5066 329.114,-83.6077"/>
</g>
<!-- Node3&#45;&gt;Node10 -->
<g id="edge11" class="edge"><title>Node3&#45;&gt;Node10</title>
<path fill="none" stroke="midnightblue" d="M251.155,-112.415C245.015,-98.9371 235.876,-72.6364 248.5,-56 263.735,-35.9228 332.403,-22.3754 374.989,-15.7387"/>
<polygon fill="midnightblue" stroke="midnightblue" points="375.58,-19.1893 384.947,-14.2383 374.537,-12.2674 375.58,-19.1893"/>
</g>
<!-- Node5&#45;&gt;Node4 -->
<g id="edge5" class="edge"><title>Node5&#45;&gt;Node4</title>
<path fill="none" stroke="midnightblue" d="M100.539,-56.324C91.3734,-48.3414 77.5628,-36.3128 66.4718,-26.6529"/>
<polygon fill="midnightblue" stroke="midnightblue" points="68.4822,-23.7624 58.6426,-19.8339 63.8847,-29.041 68.4822,-23.7624"/>
</g>
<!-- Node5&#45;&gt;Node6 -->
<g id="edge6" class="edge"><title>Node5&#45;&gt;Node6</title>
<path fill="none" stroke="midnightblue" d="M120.461,-56.324C129.627,-48.3414 143.437,-36.3128 154.528,-26.6529"/>
<polygon fill="midnightblue" stroke="midnightblue" points="157.115,-29.041 162.357,-19.8339 152.518,-23.7624 157.115,-29.041"/>
</g>
<!-- Node11&#45;&gt;Node10 -->
<g id="edge15" class="edge"><title>Node11&#45;&gt;Node10</title>
<path fill="none" stroke="midnightblue" d="M515.535,-56.4435C494.891,-47.5961 462.437,-33.6875 438.868,-23.5865"/>
<polygon fill="midnightblue" stroke="midnightblue" points="439.942,-20.2387 429.372,-19.5164 437.184,-26.6727 439.942,-20.2387"/>
</g>
<!-- Node12 -->
<g id="node12" class="node"><title>Node12</title>
<polygon fill="white" stroke="#bfbfbf" points="511,-0.5 511,-19.5 560,-19.5 560,-0.5 511,-0.5"/>
<text text-anchor="middle" x="535.5" y="-7.5" font-family="Helvetica,sans-Serif" font-size="10.00">string.h</text>
</g>
<!-- Node11&#45;&gt;Node12 -->
<g id="edge14" class="edge"><title>Node11&#45;&gt;Node12</title>
<path fill="none" stroke="midnightblue" d="M535.5,-56.083C535.5,-49.0059 535.5,-38.8611 535.5,-29.9865"/>
<polygon fill="midnightblue" stroke="midnightblue" points="539,-29.751 535.5,-19.7511 532,-29.7511 539,-29.751"/>
</g>
<!-- Node13&#45;&gt;Node7 -->
<g id="edge28" class="edge"><title>Node13&#45;&gt;Node7</title>
<path fill="none" stroke="midnightblue" d="M516.635,-168.368C506.448,-150.296 482.709,-108.176 469.255,-84.3074"/>
<polygon fill="midnightblue" stroke="midnightblue" points="472.302,-82.5844 464.342,-75.5914 466.204,-86.0215 472.302,-82.5844"/>
</g>
<!-- Node13&#45;&gt;Node11 -->
<g id="edge17" class="edge"><title>Node13&#45;&gt;Node11</title>
<path fill="none" stroke="midnightblue" d="M522.599,-168.368C524.858,-150.617 530.07,-109.666 533.133,-85.5974"/>
<polygon fill="midnightblue" stroke="midnightblue" points="536.616,-85.9533 534.407,-75.5914 529.672,-85.0695 536.616,-85.9533"/>
</g>
<!-- Node14 -->
<g id="node14" class="node"><title>Node14</title>
<g id="a_node14"><a xlink:href="../../d0/dd8/fifo_8h.html" target="_top" xlink:title="fifo.h">
<polygon fill="white" stroke="black" points="706.5,-112.5 706.5,-131.5 744.5,-131.5 744.5,-112.5 706.5,-112.5"/>
<text text-anchor="middle" x="725.5" y="-119.5" font-family="Helvetica,sans-Serif" font-size="10.00">fifo.h</text>
</a>
</g>
</g>
<!-- Node13&#45;&gt;Node14 -->
<g id="edge18" class="edge"><title>Node13&#45;&gt;Node14</title>
<path fill="none" stroke="midnightblue" d="M553.824,-168.444C593.156,-158.032 658.964,-140.612 696.653,-130.636"/>
<polygon fill="midnightblue" stroke="midnightblue" points="697.721,-133.974 706.492,-128.032 695.929,-127.207 697.721,-133.974"/>
</g>
<!-- Node14&#45;&gt;Node7 -->
<g id="edge22" class="edge"><title>Node14&#45;&gt;Node7</title>
<path fill="none" stroke="midnightblue" d="M706.486,-117.978C667.827,-111.705 577.135,-96.3233 491.643,-76.0991"/>
<polygon fill="midnightblue" stroke="midnightblue" points="492.325,-72.6635 481.785,-73.7395 490.695,-79.4712 492.325,-72.6635"/>
</g>
<!-- Node14&#45;&gt;Node11 -->
<g id="edge25" class="edge"><title>Node14&#45;&gt;Node11</title>
<path fill="none" stroke="midnightblue" d="M706.236,-115.525C675.709,-106.849 615.574,-89.7578 575.447,-78.3534"/>
<polygon fill="midnightblue" stroke="midnightblue" points="576.283,-74.9524 565.707,-75.5851 574.369,-81.6857 576.283,-74.9524"/>
</g>
<!-- Node15 -->
<g id="node15" class="node"><title>Node15</title>
<polygon fill="white" stroke="#bfbfbf" points="659.5,-56.5 659.5,-75.5 703.5,-75.5 703.5,-56.5 659.5,-56.5"/>
<text text-anchor="middle" x="681.5" y="-63.5" font-family="Helvetica,sans-Serif" font-size="10.00">mutex</text>
</g>
<!-- Node14&#45;&gt;Node15 -->
<g id="edge19" class="edge"><title>Node14&#45;&gt;Node15</title>
<path fill="none" stroke="midnightblue" d="M718.234,-112.083C711.955,-104.377 702.712,-93.0333 695.069,-83.6531"/>
<polygon fill="midnightblue" stroke="midnightblue" points="697.661,-81.2926 688.631,-75.7511 692.234,-85.7143 697.661,-81.2926"/>
</g>
<!-- Node16 -->
<g id="node16" class="node"><title>Node16</title>
<polygon fill="white" stroke="#bfbfbf" points="722,-56.5 722,-75.5 817,-75.5 817,-56.5 722,-56.5"/>
<text text-anchor="middle" x="769.5" y="-63.5" font-family="Helvetica,sans-Serif" font-size="10.00">condition_variable</text>
</g>
<!-- Node14&#45;&gt;Node16 -->
<g id="edge20" class="edge"><title>Node14&#45;&gt;Node16</title>
<path fill="none" stroke="midnightblue" d="M732.766,-112.083C739.045,-104.377 748.288,-93.0333 755.931,-83.6531"/>
<polygon fill="midnightblue" stroke="midnightblue" points="758.766,-85.7143 762.369,-75.7511 753.339,-81.2926 758.766,-85.7143"/>
</g>
<!-- Node17 -->
<g id="node17" class="node"><title>Node17</title>
<polygon fill="white" stroke="#bfbfbf" points="835.5,-56.5 835.5,-75.5 881.5,-75.5 881.5,-56.5 835.5,-56.5"/>
<text text-anchor="middle" x="858.5" y="-63.5" font-family="Helvetica,sans-Serif" font-size="10.00">atomic</text>
</g>
<!-- Node14&#45;&gt;Node17 -->
<g id="edge21" class="edge"><title>Node14&#45;&gt;Node17</title>
<path fill="none" stroke="midnightblue" d="M744.556,-113.263C766.338,-104.419 802.291,-89.8218 827.986,-79.3891"/>
<polygon fill="midnightblue" stroke="midnightblue" points="829.332,-82.6201 837.281,-75.6152 826.699,-76.1343 829.332,-82.6201"/>
</g>
<!-- Node18 -->
<g id="node18" class="node"><title>Node18</title>
<polygon fill="white" stroke="#bfbfbf" points="899.5,-56.5 899.5,-75.5 943.5,-75.5 943.5,-56.5 899.5,-56.5"/>
<text text-anchor="middle" x="921.5" y="-63.5" font-family="Helvetica,sans-Serif" font-size="10.00">thread</text>
</g>
<!-- Node14&#45;&gt;Node18 -->
<g id="edge23" class="edge"><title>Node14&#45;&gt;Node18</title>
<path fill="none" stroke="midnightblue" d="M744.834,-115.837C774.053,-108.01 831.434,-92.5492 889.753,-76.1774"/>
<polygon fill="midnightblue" stroke="midnightblue" points="890.819,-79.5136 899.497,-73.4359 888.923,-72.7752 890.819,-79.5136"/>
</g>
<!-- Node19 -->
<g id="node19" class="node"><title>Node19</title>
<polygon fill="white" stroke="#bfbfbf" points="962,-56.5 962,-75.5 1005,-75.5 1005,-56.5 962,-56.5"/>
<text text-anchor="middle" x="983.5" y="-63.5" font-family="Helvetica,sans-Serif" font-size="10.00">queue</text>
</g>
<!-- Node14&#45;&gt;Node19 -->
<g id="edge24" class="edge"><title>Node14&#45;&gt;Node19</title>
<path fill="none" stroke="midnightblue" d="M744.756,-117.765C782.55,-111.293 869.248,-95.8415 952.068,-75.9221"/>
<polygon fill="midnightblue" stroke="midnightblue" points="952.994,-79.299 961.884,-73.5353 951.34,-72.4972 952.994,-79.299"/>
</g>
<!-- Node20 -->
<g id="node20" class="node"><title>Node20</title>
<polygon fill="white" stroke="#bfbfbf" points="1023.5,-56.5 1023.5,-75.5 1067.5,-75.5 1067.5,-56.5 1023.5,-56.5"/>
<text text-anchor="middle" x="1045.5" y="-63.5" font-family="Helvetica,sans-Serif" font-size="10.00">cmath</text>
</g>
<!-- Node14&#45;&gt;Node20 -->
<g id="edge26" class="edge"><title>Node14&#45;&gt;Node20</title>
<path fill="none" stroke="midnightblue" d="M744.593,-118.886C789.702,-113.71 906.508,-99.2568 1013.27,-76.034"/>
<polygon fill="midnightblue" stroke="midnightblue" points="1014.23,-79.4071 1023.24,-73.8334 1012.72,-72.5717 1014.23,-79.4071"/>
</g>
<!-- Node21 -->
<g id="node21" class="node"><title>Node21</title>
<polygon fill="white" stroke="#bfbfbf" points="589.5,-56.5 589.5,-75.5 641.5,-75.5 641.5,-56.5 589.5,-56.5"/>
<text text-anchor="middle" x="615.5" y="-63.5" font-family="Helvetica,sans-Serif" font-size="10.00">assert.h</text>
</g>
<!-- Node14&#45;&gt;Node21 -->
<g id="edge27" class="edge"><title>Node14&#45;&gt;Node21</title>
<path fill="none" stroke="midnightblue" d="M707.827,-112.324C690.106,-103.625 662.597,-90.1202 642.212,-80.113"/>
<polygon fill="midnightblue" stroke="midnightblue" points="643.649,-76.9195 633.13,-75.6545 640.564,-83.2031 643.649,-76.9195"/>
</g>
</g>
</svg>
