<?xml version="1.0" encoding="UTF-8" standalone="no"?>
<!DOCTYPE svg PUBLIC "-//W3C//DTD SVG 1.1//EN"
 "http://www.w3.org/Graphics/SVG/1.1/DTD/svg11.dtd">
<!-- Generated by graphviz version 2.38.0 (20140413.2041)
 -->
<!-- Title: /home/erik/prefix/default/src/limesuite&#45;dev/src/myriad7/myriad7_wxgui.h Pages: 1 -->
<svg width="327pt" height="218pt"
 viewBox="0.00 0.00 326.50 218.00" xmlns="http://www.w3.org/2000/svg" xmlns:xlink="http://www.w3.org/1999/xlink">
<g id="graph0" class="graph" transform="scale(1 1) rotate(0) translate(4 214)">
<title>/home/erik/prefix/default/src/limesuite&#45;dev/src/myriad7/myriad7_wxgui.h</title>
<polygon fill="white" stroke="none" points="-4,4 -4,-214 322.5,-214 322.5,4 -4,4"/>
<!-- Node1 -->
<g id="node1" class="node"><title>Node1</title>
<polygon fill="#bfbfbf" stroke="black" points="14,-168.5 14,-209.5 145,-209.5 145,-168.5 14,-168.5"/>
<text text-anchor="start" x="22" y="-197.5" font-family="Helvetica,sans-Serif" font-size="10.00">/home/erik/prefix/default</text>
<text text-anchor="start" x="22" y="-186.5" font-family="Helvetica,sans-Serif" font-size="10.00">/src/limesuite&#45;dev/src</text>
<text text-anchor="middle" x="79.5" y="-175.5" font-family="Helvetica,sans-Serif" font-size="10.00">/myriad7/myriad7_wxgui.h</text>
</g>
<!-- Node2 -->
<g id="node2" class="node"><title>Node2</title>
<polygon fill="white" stroke="#bfbfbf" points="0,-112.5 0,-131.5 65,-131.5 65,-112.5 0,-112.5"/>
<text text-anchor="middle" x="32.5" y="-119.5" font-family="Helvetica,sans-Serif" font-size="10.00">wx/frame.h</text>
</g>
<!-- Node1&#45;&gt;Node2 -->
<g id="edge1" class="edge"><title>Node1&#45;&gt;Node2</title>
<path fill="none" stroke="midnightblue" d="M65.3985,-168.498C58.8161,-159.395 51.0558,-148.662 44.7259,-139.908"/>
<polygon fill="midnightblue" stroke="midnightblue" points="47.4521,-137.705 38.7564,-131.652 41.7797,-141.807 47.4521,-137.705"/>
</g>
<!-- Node3 -->
<g id="node3" class="node"><title>Node3</title>
<g id="a_node3"><a xlink:href="../../d5/d07/LimeSuite_8h.html" target="_top" xlink:title="LMS API library. ">
<polygon fill="white" stroke="black" points="83,-112.5 83,-131.5 172,-131.5 172,-112.5 83,-112.5"/>
<text text-anchor="middle" x="127.5" y="-119.5" font-family="Helvetica,sans-Serif" font-size="10.00">lime/LimeSuite.h</text>
</a>
</g>
</g>
<!-- Node1&#45;&gt;Node3 -->
<g id="edge2" class="edge"><title>Node1&#45;&gt;Node3</title>
<path fill="none" stroke="midnightblue" d="M93.9016,-168.498C100.624,-159.395 108.549,-148.662 115.014,-139.908"/>
<polygon fill="midnightblue" stroke="midnightblue" points="117.986,-141.776 121.11,-131.652 112.354,-137.618 117.986,-141.776"/>
</g>
<!-- Node4 -->
<g id="node4" class="node"><title>Node4</title>
<polygon fill="white" stroke="#bfbfbf" points="77,-0.5 77,-19.5 126,-19.5 126,-0.5 77,-0.5"/>
<text text-anchor="middle" x="101.5" y="-7.5" font-family="Helvetica,sans-Serif" font-size="10.00">stdint.h</text>
</g>
<!-- Node3&#45;&gt;Node4 -->
<g id="edge3" class="edge"><title>Node3&#45;&gt;Node4</title>
<path fill="none" stroke="midnightblue" d="M93.3155,-112.493C74.5067,-105.877 52.7574,-94.5958 41.5,-76 29.4454,-56.0872 52.6981,-36.9683 73.6749,-24.6837"/>
<polygon fill="midnightblue" stroke="midnightblue" points="75.6491,-27.592 82.7162,-19.6985 72.2691,-21.462 75.6491,-27.592"/>
</g>
<!-- Node5 -->
<g id="node5" class="node"><title>Node5</title>
<polygon fill="white" stroke="#bfbfbf" points="50.5,-56.5 50.5,-75.5 98.5,-75.5 98.5,-56.5 50.5,-56.5"/>
<text text-anchor="middle" x="74.5" y="-63.5" font-family="Helvetica,sans-Serif" font-size="10.00">stdlib.h</text>
</g>
<!-- Node3&#45;&gt;Node5 -->
<g id="edge4" class="edge"><title>Node3&#45;&gt;Node5</title>
<path fill="none" stroke="midnightblue" d="M118.748,-112.083C111.03,-104.22 99.5953,-92.5688 90.2835,-83.0813"/>
<polygon fill="midnightblue" stroke="midnightblue" points="92.5916,-80.4363 83.089,-75.7511 87.5958,-85.3396 92.5916,-80.4363"/>
</g>
<!-- Node6 -->
<g id="node6" class="node"><title>Node6</title>
<g id="a_node6"><a xlink:href="../../d1/d2e/LMS7002M__parameters_8h.html" target="_top" xlink:title="List of LMS7002M transceiver control parameters. ">
<polygon fill="white" stroke="black" points="116.5,-56.5 116.5,-75.5 244.5,-75.5 244.5,-56.5 116.5,-56.5"/>
<text text-anchor="middle" x="180.5" y="-63.5" font-family="Helvetica,sans-Serif" font-size="10.00">LMS7002M_parameters.h</text>
</a>
</g>
</g>
<!-- Node3&#45;&gt;Node6 -->
<g id="edge5" class="edge"><title>Node3&#45;&gt;Node6</title>
<path fill="none" stroke="midnightblue" d="M136.252,-112.083C143.97,-104.22 155.405,-92.5688 164.717,-83.0813"/>
<polygon fill="midnightblue" stroke="midnightblue" points="167.404,-85.3396 171.911,-75.7511 162.408,-80.4363 167.404,-85.3396"/>
</g>
<!-- Node7 -->
<g id="node7" class="node"><title>Node7</title>
<polygon fill="white" stroke="#bfbfbf" points="262.5,-56.5 262.5,-75.5 318.5,-75.5 318.5,-56.5 262.5,-56.5"/>
<text text-anchor="middle" x="290.5" y="-63.5" font-family="Helvetica,sans-Serif" font-size="10.00">stdbool.h</text>
</g>
<!-- Node3&#45;&gt;Node7 -->
<g id="edge7" class="edge"><title>Node3&#45;&gt;Node7</title>
<path fill="none" stroke="midnightblue" d="M153.328,-112.444C180.749,-103.359 224.277,-88.9388 254.932,-78.7831"/>
<polygon fill="midnightblue" stroke="midnightblue" points="256.401,-81.9837 264.793,-75.5164 254.2,-75.3389 256.401,-81.9837"/>
</g>
<!-- Node6&#45;&gt;Node4 -->
<g id="edge6" class="edge"><title>Node6&#45;&gt;Node4</title>
<path fill="none" stroke="midnightblue" d="M167.807,-56.324C155.599,-47.979 136.922,-35.2122 122.497,-25.3524"/>
<polygon fill="midnightblue" stroke="midnightblue" points="124.392,-22.4082 114.161,-19.6545 120.442,-28.1871 124.392,-22.4082"/>
</g>
</g>
</svg>
