<?xml version="1.0" encoding="UTF-8" standalone="no"?>
<!DOCTYPE svg PUBLIC "-//W3C//DTD SVG 1.1//EN"
 "http://www.w3.org/Graphics/SVG/1.1/DTD/svg11.dtd">
<!-- Generated by graphviz version 2.38.0 (20140413.2041)
 -->
<!-- Title: /home/erik/prefix/default/src/limesuite&#45;dev/src/lms7002_wxgui/pnlBoardControls.h Pages: 1 -->
<!--zoomable 218 -->
<svg id="main" version="1.1" xmlns="http://www.w3.org/2000/svg" xmlns:xlink="http://www.w3.org/1999/xlink" xml:space="preserve" onload="init(evt)">
<style type="text/css"><![CDATA[
.edge:hover path { stroke: red; }
.edge:hover polygon { stroke: red; fill: red; }
]]></style>
<script type="text/javascript"><![CDATA[
var edges = document.getElementsByTagName('g');
if (edges && edges.length) {
  for (var i=0;i<edges.length;i++) {
    if (edges[i].id.substr(0,4)=='edge') {
      edges[i].setAttribute('class','edge');
    }
  }
}
]]></script>
        <defs>
                <circle id="rim" cx="0" cy="0" r="7"/>
                <circle id="rim2" cx="0" cy="0" r="3.5"/>
                <g id="zoomPlus">
                        <use xlink:href="#rim" fill="#404040">
                                <set attributeName="fill" to="#808080" begin="zoomplus.mouseover" end="zoomplus.mouseout"/>
                        </use>
                        <path d="M-4,0h8M0,-4v8" fill="none" stroke="white" stroke-width="1.5" pointer-events="none"/>
                </g>
                <g id="zoomMin">
                        <use xlink:href="#rim" fill="#404040">
                                <set attributeName="fill" to="#808080" begin="zoomminus.mouseover" end="zoomminus.mouseout"/>
                        </use>
                        <path d="M-4,0h8" fill="none" stroke="white" stroke-width="1.5" pointer-events="none"/>
                </g>
                <g id="dirArrow">
                        <path fill="none" stroke="white" stroke-width="1.5" d="M0,-3.0v7 M-2.5,-0.5L0,-3.0L2.5,-0.5"/>
                </g>
               <g id="resetDef">
                       <use xlink:href="#rim2" fill="#404040">
                               <set attributeName="fill" to="#808080" begin="reset.mouseover" end="reset.mouseout"/>
                       </use>
               </g>
        </defs>

<script type="text/javascript">
var viewWidth = 1490;
var viewHeight = 218;
var sectionId = 'dynsection-0';
</script>
<script xlink:href="../../svgpan.js"/>
<svg id="graph" class="graph">
<g id="viewport">
<title>/home/erik/prefix/default/src/limesuite&#45;dev/src/lms7002_wxgui/pnlBoardControls.h</title>
<polygon fill="white" stroke="none" points="-4,4 -4,-214 1486,-214 1486,4 -4,4"/>
<!-- Node1 -->
<g id="node1" class="node"><title>Node1</title>
<polygon fill="#bfbfbf" stroke="black" points="703,-168.5 703,-209.5 876,-209.5 876,-168.5 703,-168.5"/>
<text text-anchor="start" x="711" y="-197.5" font-family="Helvetica,sans-Serif" font-size="10.00">/home/erik/prefix/default</text>
<text text-anchor="start" x="711" y="-186.5" font-family="Helvetica,sans-Serif" font-size="10.00">/src/limesuite&#45;dev/src</text>
<text text-anchor="middle" x="789.5" y="-175.5" font-family="Helvetica,sans-Serif" font-size="10.00">/lms7002_wxgui/pnlBoardControls.h</text>
</g>
<!-- Node2 -->
<g id="node2" class="node"><title>Node2</title>
<polygon fill="white" stroke="#bfbfbf" points="0,-112.5 0,-131.5 71,-131.5 71,-112.5 0,-112.5"/>
<text text-anchor="middle" x="35.5" y="-119.5" font-family="Helvetica,sans-Serif" font-size="10.00">wx/artprov.h</text>
</g>
<!-- Node1&#45;&gt;Node2 -->
<g id="edge1" class="edge"><title>Node1&#45;&gt;Node2</title>
<path fill="none" stroke="midnightblue" d="M702.922,-184.474C570.947,-178.364 311.438,-163.467 81.5296,-131.973"/>
<polygon fill="midnightblue" stroke="midnightblue" points="81.6815,-128.461 71.2962,-130.557 80.7222,-135.395 81.6815,-128.461"/>
</g>
<!-- Node3 -->
<g id="node3" class="node"><title>Node3</title>
<polygon fill="white" stroke="#bfbfbf" points="89.5,-112.5 89.5,-131.5 175.5,-131.5 175.5,-112.5 89.5,-112.5"/>
<text text-anchor="middle" x="132.5" y="-119.5" font-family="Helvetica,sans-Serif" font-size="10.00">wx/xrc/xmlres.h</text>
</g>
<!-- Node1&#45;&gt;Node3 -->
<g id="edge2" class="edge"><title>Node1&#45;&gt;Node3</title>
<path fill="none" stroke="midnightblue" d="M702.847,-182.144C587.243,-173.846 376,-156.994 185.78,-132.073"/>
<polygon fill="midnightblue" stroke="midnightblue" points="185.962,-128.567 175.59,-130.728 185.046,-135.507 185.962,-128.567"/>
</g>
<!-- Node4 -->
<g id="node4" class="node"><title>Node4</title>
<polygon fill="white" stroke="#bfbfbf" points="194,-112.5 194,-131.5 259,-131.5 259,-112.5 194,-112.5"/>
<text text-anchor="middle" x="226.5" y="-119.5" font-family="Helvetica,sans-Serif" font-size="10.00">wx/string.h</text>
</g>
<!-- Node1&#45;&gt;Node4 -->
<g id="edge3" class="edge"><title>Node1&#45;&gt;Node4</title>
<path fill="none" stroke="midnightblue" d="M702.938,-181.469C601.387,-173.182 427.826,-157.069 269.385,-131.988"/>
<polygon fill="midnightblue" stroke="midnightblue" points="269.881,-128.522 259.454,-130.4 268.776,-135.435 269.881,-128.522"/>
</g>
<!-- Node5 -->
<g id="node5" class="node"><title>Node5</title>
<polygon fill="white" stroke="#bfbfbf" points="277.5,-112.5 277.5,-131.5 345.5,-131.5 345.5,-112.5 277.5,-112.5"/>
<text text-anchor="middle" x="311.5" y="-119.5" font-family="Helvetica,sans-Serif" font-size="10.00">wx/button.h</text>
</g>
<!-- Node1&#45;&gt;Node5 -->
<g id="edge4" class="edge"><title>Node1&#45;&gt;Node5</title>
<path fill="none" stroke="midnightblue" d="M702.956,-178.879C617.278,-169.389 482.174,-153.187 355.955,-132.136"/>
<polygon fill="midnightblue" stroke="midnightblue" points="356.164,-128.622 345.722,-130.415 355.003,-135.525 356.164,-128.622"/>
</g>
<!-- Node6 -->
<g id="node6" class="node"><title>Node6</title>
<polygon fill="white" stroke="#bfbfbf" points="363.5,-112.5 363.5,-131.5 435.5,-131.5 435.5,-112.5 363.5,-112.5"/>
<text text-anchor="middle" x="399.5" y="-119.5" font-family="Helvetica,sans-Serif" font-size="10.00">wx/gdicmn.h</text>
</g>
<!-- Node1&#45;&gt;Node6 -->
<g id="edge5" class="edge"><title>Node1&#45;&gt;Node6</title>
<path fill="none" stroke="midnightblue" d="M702.777,-174.665C633.141,-163.769 532.904,-147.661 445.5,-132 445.4,-131.982 445.3,-131.964 445.199,-131.946"/>
<polygon fill="midnightblue" stroke="midnightblue" points="446.108,-128.555 435.639,-130.183 444.839,-135.439 446.108,-128.555"/>
</g>
<!-- Node7 -->
<g id="node7" class="node"><title>Node7</title>
<polygon fill="white" stroke="#bfbfbf" points="454,-112.5 454,-131.5 511,-131.5 511,-112.5 454,-112.5"/>
<text text-anchor="middle" x="482.5" y="-119.5" font-family="Helvetica,sans-Serif" font-size="10.00">wx/font.h</text>
</g>
<!-- Node1&#45;&gt;Node7 -->
<g id="edge6" class="edge"><title>Node1&#45;&gt;Node7</title>
<path fill="none" stroke="midnightblue" d="M702.752,-170.567C652.456,-160.311 587.673,-146.85 520.969,-132.057"/>
<polygon fill="midnightblue" stroke="midnightblue" points="521.636,-128.62 511.115,-129.865 520.116,-135.453 521.636,-128.62"/>
</g>
<!-- Node8 -->
<g id="node8" class="node"><title>Node8</title>
<polygon fill="white" stroke="#bfbfbf" points="529,-112.5 529,-131.5 596,-131.5 596,-112.5 529,-112.5"/>
<text text-anchor="middle" x="562.5" y="-119.5" font-family="Helvetica,sans-Serif" font-size="10.00">wx/colour.h</text>
</g>
<!-- Node1&#45;&gt;Node8 -->
<g id="edge7" class="edge"><title>Node1&#45;&gt;Node8</title>
<path fill="none" stroke="midnightblue" d="M721.393,-168.498C682.455,-157.348 634.984,-143.755 602.123,-134.346"/>
<polygon fill="midnightblue" stroke="midnightblue" points="602.996,-130.955 592.419,-131.567 601.069,-137.685 602.996,-130.955"/>
</g>
<!-- Node9 -->
<g id="node9" class="node"><title>Node9</title>
<polygon fill="white" stroke="#bfbfbf" points="614,-112.5 614,-131.5 689,-131.5 689,-112.5 614,-112.5"/>
<text text-anchor="middle" x="651.5" y="-119.5" font-family="Helvetica,sans-Serif" font-size="10.00">wx/settings.h</text>
</g>
<!-- Node1&#45;&gt;Node9 -->
<g id="edge8" class="edge"><title>Node1&#45;&gt;Node9</title>
<path fill="none" stroke="midnightblue" d="M748.095,-168.498C725.717,-157.957 698.701,-145.233 678.938,-135.923"/>
<polygon fill="midnightblue" stroke="midnightblue" points="680.408,-132.747 669.87,-131.652 677.425,-139.08 680.408,-132.747"/>
</g>
<!-- Node10 -->
<g id="node10" class="node"><title>Node10</title>
<polygon fill="white" stroke="#bfbfbf" points="707.5,-112.5 707.5,-131.5 781.5,-131.5 781.5,-112.5 707.5,-112.5"/>
<text text-anchor="middle" x="744.5" y="-119.5" font-family="Helvetica,sans-Serif" font-size="10.00">wx/stattext.h</text>
</g>
<!-- Node1&#45;&gt;Node10 -->
<g id="edge9" class="edge"><title>Node1&#45;&gt;Node10</title>
<path fill="none" stroke="midnightblue" d="M775.999,-168.498C769.696,-159.395 762.266,-148.662 756.206,-139.908"/>
<polygon fill="midnightblue" stroke="midnightblue" points="759.06,-137.882 750.49,-131.652 753.305,-141.867 759.06,-137.882"/>
</g>
<!-- Node11 -->
<g id="node11" class="node"><title>Node11</title>
<polygon fill="white" stroke="#bfbfbf" points="800,-112.5 800,-131.5 869,-131.5 869,-112.5 800,-112.5"/>
<text text-anchor="middle" x="834.5" y="-119.5" font-family="Helvetica,sans-Serif" font-size="10.00">wx/choice.h</text>
</g>
<!-- Node1&#45;&gt;Node11 -->
<g id="edge10" class="edge"><title>Node1&#45;&gt;Node11</title>
<path fill="none" stroke="midnightblue" d="M803.001,-168.498C809.304,-159.395 816.734,-148.662 822.794,-139.908"/>
<polygon fill="midnightblue" stroke="midnightblue" points="825.695,-141.867 828.51,-131.652 819.94,-137.882 825.695,-141.867"/>
</g>
<!-- Node12 -->
<g id="node12" class="node"><title>Node12</title>
<polygon fill="white" stroke="#bfbfbf" points="887.5,-112.5 887.5,-131.5 949.5,-131.5 949.5,-112.5 887.5,-112.5"/>
<text text-anchor="middle" x="918.5" y="-119.5" font-family="Helvetica,sans-Serif" font-size="10.00">wx/sizer.h</text>
</g>
<!-- Node1&#45;&gt;Node12 -->
<g id="edge11" class="edge"><title>Node1&#45;&gt;Node12</title>
<path fill="none" stroke="midnightblue" d="M828.204,-168.498C848.933,-158.053 873.918,-145.464 892.346,-136.178"/>
<polygon fill="midnightblue" stroke="midnightblue" points="893.973,-139.278 901.328,-131.652 890.823,-133.027 893.973,-139.278"/>
</g>
<!-- Node13 -->
<g id="node13" class="node"><title>Node13</title>
<polygon fill="white" stroke="#bfbfbf" points="968,-112.5 968,-131.5 1041,-131.5 1041,-112.5 968,-112.5"/>
<text text-anchor="middle" x="1004.5" y="-119.5" font-family="Helvetica,sans-Serif" font-size="10.00">wx/statbox.h</text>
</g>
<!-- Node1&#45;&gt;Node13 -->
<g id="edge12" class="edge"><title>Node1&#45;&gt;Node13</title>
<path fill="none" stroke="midnightblue" d="M854.007,-168.498C890.727,-157.396 935.46,-143.872 966.569,-134.468"/>
<polygon fill="midnightblue" stroke="midnightblue" points="967.604,-137.811 976.163,-131.567 965.578,-131.111 967.604,-137.811"/>
</g>
<!-- Node14 -->
<g id="node14" class="node"><title>Node14</title>
<polygon fill="white" stroke="#bfbfbf" points="1059,-112.5 1059,-131.5 1124,-131.5 1124,-112.5 1059,-112.5"/>
<text text-anchor="middle" x="1091.5" y="-119.5" font-family="Helvetica,sans-Serif" font-size="10.00">wx/frame.h</text>
</g>
<!-- Node1&#45;&gt;Node14 -->
<g id="edge13" class="edge"><title>Node1&#45;&gt;Node14</title>
<path fill="none" stroke="midnightblue" d="M876.225,-169.5C924.445,-159.188 985.813,-146.023 1048.72,-132.38"/>
<polygon fill="midnightblue" stroke="midnightblue" points="1049.8,-135.727 1058.83,-130.186 1048.31,-128.887 1049.8,-135.727"/>
</g>
<!-- Node15 -->
<g id="node15" class="node"><title>Node15</title>
<polygon fill="white" stroke="#bfbfbf" points="1142.5,-112.5 1142.5,-131.5 1214.5,-131.5 1214.5,-112.5 1142.5,-112.5"/>
<text text-anchor="middle" x="1178.5" y="-119.5" font-family="Helvetica,sans-Serif" font-size="10.00">wx/spinctrl.h</text>
</g>
<!-- Node1&#45;&gt;Node15 -->
<g id="edge14" class="edge"><title>Node1&#45;&gt;Node15</title>
<path fill="none" stroke="midnightblue" d="M876.241,-174.765C943.506,-164.295 1039.31,-148.937 1132.31,-132.168"/>
<polygon fill="midnightblue" stroke="midnightblue" points="1132.96,-135.608 1142.17,-130.382 1131.71,-128.72 1132.96,-135.608"/>
</g>
<!-- Node16 -->
<g id="node16" class="node"><title>Node16</title>
<g id="a_node16"><a xlink:href="../../d5/d07/LimeSuite_8h.html" target="_top" xlink:title="LMS API library. ">
<polygon fill="white" stroke="black" points="1233,-112.5 1233,-131.5 1322,-131.5 1322,-112.5 1233,-112.5"/>
<text text-anchor="middle" x="1277.5" y="-119.5" font-family="Helvetica,sans-Serif" font-size="10.00">lime/LimeSuite.h</text>
</a>
</g>
</g>
<!-- Node1&#45;&gt;Node16 -->
<g id="edge15" class="edge"><title>Node1&#45;&gt;Node16</title>
<path fill="none" stroke="midnightblue" d="M876.09,-177.779C961.47,-167.483 1095.93,-150.687 1222.47,-132.105"/>
<polygon fill="midnightblue" stroke="midnightblue" points="1223.35,-135.514 1232.73,-130.592 1222.33,-128.589 1223.35,-135.514"/>
</g>
<!-- Node17 -->
<g id="node17" class="node"><title>Node17</title>
<polygon fill="white" stroke="#bfbfbf" points="1160,-0.5 1160,-19.5 1209,-19.5 1209,-0.5 1160,-0.5"/>
<text text-anchor="middle" x="1184.5" y="-7.5" font-family="Helvetica,sans-Serif" font-size="10.00">stdint.h</text>
</g>
<!-- Node1&#45;&gt;Node17 -->
<g id="edge23" class="edge"><title>Node1&#45;&gt;Node17</title>
<path fill="none" stroke="midnightblue" d="M876.156,-185.288C1021.52,-179.838 1301.62,-165.125 1331.5,-132 1354.12,-106.918 1351.59,-83.1561 1331.5,-56 1305.9,-21.3861 1254.19,-12.5268 1219.45,-10.7086"/>
<polygon fill="midnightblue" stroke="midnightblue" points="1219.37,-7.20389 1209.26,-10.3496 1219.13,-14.1996 1219.37,-7.20389"/>
</g>
<!-- Node21 -->
<g id="node21" class="node"><title>Node21</title>
<polygon fill="white" stroke="#bfbfbf" points="1378.5,-112.5 1378.5,-131.5 1422.5,-131.5 1422.5,-112.5 1378.5,-112.5"/>
<text text-anchor="middle" x="1400.5" y="-119.5" font-family="Helvetica,sans-Serif" font-size="10.00">vector</text>
</g>
<!-- Node1&#45;&gt;Node21 -->
<g id="edge21" class="edge"><title>Node1&#45;&gt;Node21</title>
<path fill="none" stroke="midnightblue" d="M876.245,-183.558C989.279,-176.855 1192.77,-161.66 1364.5,-132 1365.75,-131.784 1367.02,-131.548 1368.3,-131.297"/>
<polygon fill="midnightblue" stroke="midnightblue" points="1369.13,-134.699 1378.14,-129.134 1367.62,-127.862 1369.13,-134.699"/>
</g>
<!-- Node22 -->
<g id="node22" class="node"><title>Node22</title>
<polygon fill="white" stroke="#bfbfbf" points="1441,-112.5 1441,-131.5 1482,-131.5 1482,-112.5 1441,-112.5"/>
<text text-anchor="middle" x="1461.5" y="-119.5" font-family="Helvetica,sans-Serif" font-size="10.00">string</text>
</g>
<!-- Node1&#45;&gt;Node22 -->
<g id="edge22" class="edge"><title>Node1&#45;&gt;Node22</title>
<path fill="none" stroke="midnightblue" d="M876.2,-186.048C998.286,-182.054 1227.68,-169.99 1431.01,-131.663"/>
<polygon fill="midnightblue" stroke="midnightblue" points="1431.82,-135.073 1440.98,-129.759 1430.5,-128.197 1431.82,-135.073"/>
</g>
<!-- Node16&#45;&gt;Node17 -->
<g id="edge16" class="edge"><title>Node16&#45;&gt;Node17</title>
<path fill="none" stroke="midnightblue" d="M1232.94,-113.09C1166.4,-101.177 1048.49,-79.6302 1045.5,-76 1014.49,-38.3916 1098.83,-21.3375 1149.46,-14.6686"/>
<polygon fill="midnightblue" stroke="midnightblue" points="1150.2,-18.103 1159.7,-13.3995 1149.34,-11.1561 1150.2,-18.103"/>
</g>
<!-- Node18 -->
<g id="node18" class="node"><title>Node18</title>
<polygon fill="white" stroke="#bfbfbf" points="1054.5,-56.5 1054.5,-75.5 1102.5,-75.5 1102.5,-56.5 1054.5,-56.5"/>
<text text-anchor="middle" x="1078.5" y="-63.5" font-family="Helvetica,sans-Serif" font-size="10.00">stdlib.h</text>
</g>
<!-- Node16&#45;&gt;Node18 -->
<g id="edge17" class="edge"><title>Node16&#45;&gt;Node18</title>
<path fill="none" stroke="midnightblue" d="M1245.98,-112.471C1214.54,-103.961 1164.61,-90.4344 1112.42,-76.2466"/>
<polygon fill="midnightblue" stroke="midnightblue" points="1113.22,-72.8372 1102.65,-73.5908 1111.38,-79.5919 1113.22,-72.8372"/>
</g>
<!-- Node19 -->
<g id="node19" class="node"><title>Node19</title>
<g id="a_node19"><a xlink:href="../../d1/d2e/LMS7002M__parameters_8h.html" target="_top" xlink:title="List of LMS7002M transceiver control parameters. ">
<polygon fill="white" stroke="black" points="1120.5,-56.5 1120.5,-75.5 1248.5,-75.5 1248.5,-56.5 1120.5,-56.5"/>
<text text-anchor="middle" x="1184.5" y="-63.5" font-family="Helvetica,sans-Serif" font-size="10.00">LMS7002M_parameters.h</text>
</a>
</g>
</g>
<!-- Node16&#45;&gt;Node19 -->
<g id="edge18" class="edge"><title>Node16&#45;&gt;Node19</title>
<path fill="none" stroke="midnightblue" d="M1262.56,-112.324C1247.91,-103.822 1225.37,-90.7288 1208.26,-80.7975"/>
<polygon fill="midnightblue" stroke="midnightblue" points="1209.81,-77.6491 1199.4,-75.6545 1206.3,-83.7027 1209.81,-77.6491"/>
</g>
<!-- Node20 -->
<g id="node20" class="node"><title>Node20</title>
<polygon fill="white" stroke="#bfbfbf" points="1266.5,-56.5 1266.5,-75.5 1322.5,-75.5 1322.5,-56.5 1266.5,-56.5"/>
<text text-anchor="middle" x="1294.5" y="-63.5" font-family="Helvetica,sans-Serif" font-size="10.00">stdbool.h</text>
</g>
<!-- Node16&#45;&gt;Node20 -->
<g id="edge20" class="edge"><title>Node16&#45;&gt;Node20</title>
<path fill="none" stroke="midnightblue" d="M1280.31,-112.083C1282.58,-104.849 1285.87,-94.4087 1288.71,-85.3968"/>
<polygon fill="midnightblue" stroke="midnightblue" points="1292.08,-86.3406 1291.75,-75.7511 1285.4,-84.2385 1292.08,-86.3406"/>
</g>
<!-- Node19&#45;&gt;Node17 -->
<g id="edge19" class="edge"><title>Node19&#45;&gt;Node17</title>
<path fill="none" stroke="midnightblue" d="M1184.5,-56.083C1184.5,-49.0059 1184.5,-38.8611 1184.5,-29.9865"/>
<polygon fill="midnightblue" stroke="midnightblue" points="1188,-29.751 1184.5,-19.7511 1181,-29.7511 1188,-29.751"/>
</g>
</g>
</svg>
        <g id="navigator" transform="translate(0 0)" fill="#404254">
                <rect fill="#f2f5e9" fill-opacity="0.5" stroke="#606060" stroke-width=".5" x="0" y="0" width="60" height="60"/>
                <use id="zoomplus" xlink:href="#zoomPlus" x="17" y="9" onmousedown="handleZoom(evt,'in')"/>
                <use id="zoomminus" xlink:href="#zoomMin" x="42" y="9" onmousedown="handleZoom(evt,'out')"/>
                <use id="reset" xlink:href="#resetDef" x="30" y="36" onmousedown="handleReset()"/>
                <g id="arrowUp" xlink:href="#dirArrow" transform="translate(30 24)" onmousedown="handlePan(0,-1)">
                  <use xlink:href="#rim" fill="#404040">
                        <set attributeName="fill" to="#808080" begin="arrowUp.mouseover" end="arrowUp.mouseout"/>
                  </use>
                  <path fill="none" stroke="white" stroke-width="1.5" d="M0,-3.0v7 M-2.5,-0.5L0,-3.0L2.5,-0.5"/>
                </g>
                <g id="arrowRight" xlink:href="#dirArrow" transform="rotate(90) translate(36 -43)" onmousedown="handlePan(1,0)">
                  <use xlink:href="#rim" fill="#404040">
                        <set attributeName="fill" to="#808080" begin="arrowRight.mouseover" end="arrowRight.mouseout"/>
                  </use>
                  <path fill="none" stroke="white" stroke-width="1.5" d="M0,-3.0v7 M-2.5,-0.5L0,-3.0L2.5,-0.5"/>
                </g>
                <g id="arrowDown" xlink:href="#dirArrow" transform="rotate(180) translate(-30 -48)" onmousedown="handlePan(0,1)">
                  <use xlink:href="#rim" fill="#404040">
                        <set attributeName="fill" to="#808080" begin="arrowDown.mouseover" end="arrowDown.mouseout"/>
                  </use>
                  <path fill="none" stroke="white" stroke-width="1.5" d="M0,-3.0v7 M-2.5,-0.5L0,-3.0L2.5,-0.5"/>
                </g>
                <g id="arrowLeft" xlink:href="#dirArrow" transform="rotate(270) translate(-36 17)" onmousedown="handlePan(-1,0)">
                  <use xlink:href="#rim" fill="#404040">
                        <set attributeName="fill" to="#808080" begin="arrowLeft.mouseover" end="arrowLeft.mouseout"/>
                  </use>
                  <path fill="none" stroke="white" stroke-width="1.5" d="M0,-3.0v7 M-2.5,-0.5L0,-3.0L2.5,-0.5"/>
                </g>
        </g>
        <svg viewBox="0 0 15 15" width="100%" height="30px" preserveAspectRatio="xMaxYMin meet">
         <g id="arrow_out" transform="scale(0.3 0.3)">
          <a xlink:href="pnlBoardControls_8h__incl_org.svg" target="_base">
           <rect id="button" ry="5" rx="5" y="6" x="6" height="38" width="38"
                fill="#f2f5e9" fill-opacity="0.5" stroke="#606060" stroke-width="1.0"/>
           <path id="arrow"
             d="M 11.500037,31.436501 C 11.940474,20.09759 22.043105,11.32322 32.158766,21.979434 L 37.068811,17.246167 C 37.068811,17.246167 37.088388,32 37.088388,32 L 22.160133,31.978069 C 22.160133,31.978069 26.997745,27.140456 26.997745,27.140456 C 18.528582,18.264221 13.291696,25.230495 11.500037,31.436501 z"
             style="fill:#404040;"/>
          </a>
         </g>
        </svg>
</svg>
