<?xml version="1.0" encoding="UTF-8" standalone="no"?>
<!DOCTYPE svg PUBLIC "-//W3C//DTD SVG 1.1//EN"
 "http://www.w3.org/Graphics/SVG/1.1/DTD/svg11.dtd">
<!-- Generated by graphviz version 2.38.0 (20140413.2041)
 -->
<!-- Title: /home/erik/prefix/default/src/limesuite&#45;dev/src/ConnectionEVB7COM/ConnectionEVB7COM.h Pages: 1 -->
<svg width="707pt" height="228pt"
 viewBox="0.00 0.00 706.50 228.00" xmlns="http://www.w3.org/2000/svg" xmlns:xlink="http://www.w3.org/1999/xlink">
<g id="graph0" class="graph" transform="scale(1 1) rotate(0) translate(4 224)">
<title>/home/erik/prefix/default/src/limesuite&#45;dev/src/ConnectionEVB7COM/ConnectionEVB7COM.h</title>
<polygon fill="white" stroke="none" points="-4,4 -4,-224 702.5,-224 702.5,4 -4,4"/>
<!-- Node1 -->
<g id="node1" class="node"><title>Node1</title>
<polygon fill="#bfbfbf" stroke="black" points="198.5,-178.5 198.5,-219.5 425.5,-219.5 425.5,-178.5 198.5,-178.5"/>
<text text-anchor="start" x="206.5" y="-207.5" font-family="Helvetica,sans-Serif" font-size="10.00">/home/erik/prefix/default</text>
<text text-anchor="start" x="206.5" y="-196.5" font-family="Helvetica,sans-Serif" font-size="10.00">/src/limesuite&#45;dev/src</text>
<text text-anchor="middle" x="312" y="-185.5" font-family="Helvetica,sans-Serif" font-size="10.00">/ConnectionEVB7COM/ConnectionEVB7COM.h</text>
</g>
<!-- Node2 -->
<g id="node2" class="node"><title>Node2</title>
<g id="a_node2"><a xlink:href="../../d3/db6/ConnectionEVB7COM_8cpp.html" target="_top" xlink:title="Implementation of EVB7 connection of serial COM port. ">
<polygon fill="white" stroke="black" points="-1.42109e-14,-89.5 -1.42109e-14,-141.5 196,-141.5 196,-89.5 -1.42109e-14,-89.5"/>
<text text-anchor="start" x="8" y="-129.5" font-family="Helvetica,sans-Serif" font-size="10.00">/home/erik/prefix/default</text>
<text text-anchor="start" x="8" y="-118.5" font-family="Helvetica,sans-Serif" font-size="10.00">/src/limesuite&#45;dev/src</text>
<text text-anchor="start" x="8" y="-107.5" font-family="Helvetica,sans-Serif" font-size="10.00">/ConnectionEVB7COM/ConnectionEVB7</text>
<text text-anchor="middle" x="98" y="-96.5" font-family="Helvetica,sans-Serif" font-size="10.00">COM.cpp</text>
</a>
</g>
</g>
<!-- Node1&#45;&gt;Node2 -->
<g id="edge1" class="edge"><title>Node1&#45;&gt;Node2</title>
<path fill="none" stroke="midnightblue" d="M251.309,-174.886C224.01,-164.49 191.728,-152.195 163.845,-141.576"/>
<polygon fill="midnightblue" stroke="midnightblue" points="250.151,-178.19 260.742,-178.479 252.642,-171.649 250.151,-178.19"/>
</g>
<!-- Node3 -->
<g id="node3" class="node"><title>Node3</title>
<g id="a_node3"><a xlink:href="../../df/d11/ConnectionEVB7COMEntry_8cpp.html" target="_top" xlink:title="/home/erik/prefix/default\l/src/limesuite&#45;dev/src\l/ConnectionEVB7COM/ConnectionEVB7\lCOMEntry.cpp">
<polygon fill="white" stroke="black" points="214,-89.5 214,-141.5 410,-141.5 410,-89.5 214,-89.5"/>
<text text-anchor="start" x="222" y="-129.5" font-family="Helvetica,sans-Serif" font-size="10.00">/home/erik/prefix/default</text>
<text text-anchor="start" x="222" y="-118.5" font-family="Helvetica,sans-Serif" font-size="10.00">/src/limesuite&#45;dev/src</text>
<text text-anchor="start" x="222" y="-107.5" font-family="Helvetica,sans-Serif" font-size="10.00">/ConnectionEVB7COM/ConnectionEVB7</text>
<text text-anchor="middle" x="312" y="-96.5" font-family="Helvetica,sans-Serif" font-size="10.00">COMEntry.cpp</text>
</a>
</g>
</g>
<!-- Node1&#45;&gt;Node3 -->
<g id="edge2" class="edge"><title>Node1&#45;&gt;Node3</title>
<path fill="none" stroke="midnightblue" d="M312,-168.121C312,-159.413 312,-149.989 312,-141.607"/>
<polygon fill="midnightblue" stroke="midnightblue" points="308.5,-168.271 312,-178.271 315.5,-168.271 308.5,-168.271"/>
</g>
<!-- Node4 -->
<g id="node4" class="node"><title>Node4</title>
<g id="a_node4"><a xlink:href="../../d6/d62/ConnectionSTREAM__UNITE_8h.html" target="_top" xlink:title="Implementation of STREAM+UNITE board combination connection. ">
<polygon fill="white" stroke="black" points="428.5,-89.5 428.5,-141.5 583.5,-141.5 583.5,-89.5 428.5,-89.5"/>
<text text-anchor="start" x="436.5" y="-129.5" font-family="Helvetica,sans-Serif" font-size="10.00">/home/erik/prefix/default</text>
<text text-anchor="start" x="436.5" y="-118.5" font-family="Helvetica,sans-Serif" font-size="10.00">/src/limesuite&#45;dev/src</text>
<text text-anchor="start" x="436.5" y="-107.5" font-family="Helvetica,sans-Serif" font-size="10.00">/ConnectionSTREAM_UNITE</text>
<text text-anchor="middle" x="506" y="-96.5" font-family="Helvetica,sans-Serif" font-size="10.00">/ConnectionSTREAM_UNITE.h</text>
</a>
</g>
</g>
<!-- Node1&#45;&gt;Node4 -->
<g id="edge3" class="edge"><title>Node1&#45;&gt;Node4</title>
<path fill="none" stroke="midnightblue" d="M367.994,-174.477C392.533,-164.168 421.363,-152.056 446.309,-141.576"/>
<polygon fill="midnightblue" stroke="midnightblue" points="366.332,-171.379 358.468,-178.479 369.043,-177.832 366.332,-171.379"/>
</g>
<!-- Node5 -->
<g id="node5" class="node"><title>Node5</title>
<g id="a_node5"><a xlink:href="../../d1/d2f/ConnectionSTREAM__UNITE_8cpp.html" target="_top" xlink:title="Implementation of STREAM+UNITE board connection. ">
<polygon fill="white" stroke="black" points="325,-0.5 325,-52.5 491,-52.5 491,-0.5 325,-0.5"/>
<text text-anchor="start" x="333" y="-40.5" font-family="Helvetica,sans-Serif" font-size="10.00">/home/erik/prefix/default</text>
<text text-anchor="start" x="333" y="-29.5" font-family="Helvetica,sans-Serif" font-size="10.00">/src/limesuite&#45;dev/src</text>
<text text-anchor="start" x="333" y="-18.5" font-family="Helvetica,sans-Serif" font-size="10.00">/ConnectionSTREAM_UNITE</text>
<text text-anchor="middle" x="408" y="-7.5" font-family="Helvetica,sans-Serif" font-size="10.00">/ConnectionSTREAM_UNITE.cpp</text>
</a>
</g>
</g>
<!-- Node4&#45;&gt;Node5 -->
<g id="edge4" class="edge"><title>Node4&#45;&gt;Node5</title>
<path fill="none" stroke="midnightblue" d="M470.122,-82.6489C458.97,-72.749 446.84,-61.9801 436.282,-52.6075"/>
<polygon fill="midnightblue" stroke="midnightblue" points="467.852,-85.3145 477.654,-89.336 472.5,-80.0796 467.852,-85.3145"/>
</g>
<!-- Node6 -->
<g id="node6" class="node"><title>Node6</title>
<g id="a_node6"><a xlink:href="../../d4/d6c/ConnectionSTREAM__UNITEEntry_8cpp.html" target="_top" xlink:title="/home/erik/prefix/default\l/src/limesuite&#45;dev/src\l/ConnectionSTREAM_UNITE\l/ConnectionSTREAM_UNITEEntry.cpp">
<polygon fill="white" stroke="black" points="509.5,-0.5 509.5,-52.5 698.5,-52.5 698.5,-0.5 509.5,-0.5"/>
<text text-anchor="start" x="517.5" y="-40.5" font-family="Helvetica,sans-Serif" font-size="10.00">/home/erik/prefix/default</text>
<text text-anchor="start" x="517.5" y="-29.5" font-family="Helvetica,sans-Serif" font-size="10.00">/src/limesuite&#45;dev/src</text>
<text text-anchor="start" x="517.5" y="-18.5" font-family="Helvetica,sans-Serif" font-size="10.00">/ConnectionSTREAM_UNITE</text>
<text text-anchor="middle" x="604" y="-7.5" font-family="Helvetica,sans-Serif" font-size="10.00">/ConnectionSTREAM_UNITEEntry.cpp</text>
</a>
</g>
</g>
<!-- Node4&#45;&gt;Node6 -->
<g id="edge5" class="edge"><title>Node4&#45;&gt;Node6</title>
<path fill="none" stroke="midnightblue" d="M541.878,-82.6489C553.03,-72.749 565.16,-61.9801 575.718,-52.6075"/>
<polygon fill="midnightblue" stroke="midnightblue" points="539.5,-80.0796 534.346,-89.336 544.148,-85.3145 539.5,-80.0796"/>
</g>
</g>
</svg>
