<?xml version="1.0" encoding="UTF-8" standalone="no"?>
<!DOCTYPE svg PUBLIC "-//W3C//DTD SVG 1.1//EN"
 "http://www.w3.org/Graphics/SVG/1.1/DTD/svg11.dtd">
<!-- Generated by graphviz version 2.38.0 (20140413.2041)
 -->
<!-- Title: /home/erik/prefix/default/src/limesuite&#45;dev/src/utilities_gui/utilities_gui.h Pages: 1 -->
<!--zoomable 217 -->
<svg id="main" version="1.1" xmlns="http://www.w3.org/2000/svg" xmlns:xlink="http://www.w3.org/1999/xlink" xml:space="preserve" onload="init(evt)">
<style type="text/css"><![CDATA[
.edge:hover path { stroke: red; }
.edge:hover polygon { stroke: red; fill: red; }
]]></style>
<script type="text/javascript"><![CDATA[
var edges = document.getElementsByTagName('g');
if (edges && edges.length) {
  for (var i=0;i<edges.length;i++) {
    if (edges[i].id.substr(0,4)=='edge') {
      edges[i].setAttribute('class','edge');
    }
  }
}
]]></script>
        <defs>
                <circle id="rim" cx="0" cy="0" r="7"/>
                <circle id="rim2" cx="0" cy="0" r="3.5"/>
                <g id="zoomPlus">
                        <use xlink:href="#rim" fill="#404040">
                                <set attributeName="fill" to="#808080" begin="zoomplus.mouseover" end="zoomplus.mouseout"/>
                        </use>
                        <path d="M-4,0h8M0,-4v8" fill="none" stroke="white" stroke-width="1.5" pointer-events="none"/>
                </g>
                <g id="zoomMin">
                        <use xlink:href="#rim" fill="#404040">
                                <set attributeName="fill" to="#808080" begin="zoomminus.mouseover" end="zoomminus.mouseout"/>
                        </use>
                        <path d="M-4,0h8" fill="none" stroke="white" stroke-width="1.5" pointer-events="none"/>
                </g>
                <g id="dirArrow">
                        <path fill="none" stroke="white" stroke-width="1.5" d="M0,-3.0v7 M-2.5,-0.5L0,-3.0L2.5,-0.5"/>
                </g>
               <g id="resetDef">
                       <use xlink:href="#rim2" fill="#404040">
                               <set attributeName="fill" to="#808080" begin="reset.mouseover" end="reset.mouseout"/>
                       </use>
               </g>
        </defs>

<script type="text/javascript">
var viewWidth = 1046;
var viewHeight = 217;
var sectionId = 'dynsection-1';
</script>
<script xlink:href="../../svgpan.js"/>
<svg id="graph" class="graph">
<g id="viewport">
<title>/home/erik/prefix/default/src/limesuite&#45;dev/src/utilities_gui/utilities_gui.h</title>
<polygon fill="white" stroke="none" points="-4,4 -4,-213 1042,-213 1042,4 -4,4"/>
<!-- Node1 -->
<g id="node1" class="node"><title>Node1</title>
<polygon fill="#bfbfbf" stroke="black" points="504,-167.5 504,-208.5 632,-208.5 632,-167.5 504,-167.5"/>
<text text-anchor="start" x="512" y="-196.5" font-family="Helvetica,sans-Serif" font-size="10.00">/home/erik/prefix/default</text>
<text text-anchor="start" x="512" y="-185.5" font-family="Helvetica,sans-Serif" font-size="10.00">/src/limesuite&#45;dev/src</text>
<text text-anchor="middle" x="568" y="-174.5" font-family="Helvetica,sans-Serif" font-size="10.00">/utilities_gui/utilities_gui.h</text>
</g>
<!-- Node2 -->
<g id="node2" class="node"><title>Node2</title>
<g id="a_node2"><a xlink:href="../../d3/d41/dlgConnectionSettings_8h.html" target="_top" xlink:title="Subclass of dlgConnectionSettings, which is generated by wxFormBuilder. ">
<polygon fill="white" stroke="black" points="394,-84 394,-125 572,-125 572,-84 394,-84"/>
<text text-anchor="start" x="402" y="-113" font-family="Helvetica,sans-Serif" font-size="10.00">/home/erik/prefix/default</text>
<text text-anchor="start" x="402" y="-102" font-family="Helvetica,sans-Serif" font-size="10.00">/src/limesuite&#45;dev/src</text>
<text text-anchor="middle" x="483" y="-91" font-family="Helvetica,sans-Serif" font-size="10.00">/utilities_gui/dlgConnectionSettings.h</text>
</a>
</g>
</g>
<!-- Node1&#45;&gt;Node2 -->
<g id="edge1" class="edge"><title>Node1&#45;&gt;Node2</title>
<path fill="none" stroke="midnightblue" d="M539.88,-160.038C527.956,-148.604 514.318,-135.529 503.387,-125.047"/>
<polygon fill="midnightblue" stroke="midnightblue" points="537.783,-162.877 547.424,-167.271 542.628,-157.824 537.783,-162.877"/>
</g>
<!-- Node5 -->
<g id="node5" class="node"><title>Node5</title>
<g id="a_node5"><a xlink:href="../../d1/dcb/dlgDeviceInfo_8h.html" target="_top" xlink:title="Subclass of dlgDeviceInfo_view, which is generated by wxFormBuilder. ">
<polygon fill="white" stroke="black" points="90,-84 90,-125 230,-125 230,-84 90,-84"/>
<text text-anchor="start" x="98" y="-113" font-family="Helvetica,sans-Serif" font-size="10.00">/home/erik/prefix/default</text>
<text text-anchor="start" x="98" y="-102" font-family="Helvetica,sans-Serif" font-size="10.00">/src/limesuite&#45;dev/src</text>
<text text-anchor="middle" x="160" y="-91" font-family="Helvetica,sans-Serif" font-size="10.00">/utilities_gui/dlgDeviceInfo.h</text>
</a>
</g>
</g>
<!-- Node1&#45;&gt;Node5 -->
<g id="edge4" class="edge"><title>Node1&#45;&gt;Node5</title>
<path fill="none" stroke="midnightblue" d="M493.7,-177.462C426.607,-168.115 325.444,-152.192 239,-131 231.861,-129.25 224.431,-127.185 217.11,-125"/>
<polygon fill="midnightblue" stroke="midnightblue" points="493.372,-180.95 503.756,-178.849 494.328,-174.015 493.372,-180.95"/>
</g>
<!-- Node7 -->
<g id="node7" class="node"><title>Node7</title>
<g id="a_node7"><a xlink:href="../../da/d79/dlgFullMessageLog_8h.html" target="_top" xlink:title="Subclass of dlgFullMessageLog_view, which is generated by wxFormBuilder. ">
<polygon fill="white" stroke="black" points="734,-84 734,-125 898,-125 898,-84 734,-84"/>
<text text-anchor="start" x="742" y="-113" font-family="Helvetica,sans-Serif" font-size="10.00">/home/erik/prefix/default</text>
<text text-anchor="start" x="742" y="-102" font-family="Helvetica,sans-Serif" font-size="10.00">/src/limesuite&#45;dev/src</text>
<text text-anchor="middle" x="816" y="-91" font-family="Helvetica,sans-Serif" font-size="10.00">/utilities_gui/dlgFullMessageLog.h</text>
</a>
</g>
</g>
<!-- Node1&#45;&gt;Node7 -->
<g id="edge7" class="edge"><title>Node1&#45;&gt;Node7</title>
<path fill="none" stroke="midnightblue" d="M637.257,-164.24C674.813,-151.898 720.752,-136.801 756.653,-125.003"/>
<polygon fill="midnightblue" stroke="midnightblue" points="635.81,-161.032 627.402,-167.479 637.995,-167.682 635.81,-161.032"/>
</g>
<!-- Node10 -->
<g id="node10" class="node"><title>Node10</title>
<g id="a_node10"><a xlink:href="../../df/db5/pnlMiniLog_8h.html" target="_top" xlink:title="Subclass of pnlMiniLog_view, which is generated by wxFormBuilder. ">
<polygon fill="white" stroke="black" points="590,-84 590,-125 716,-125 716,-84 590,-84"/>
<text text-anchor="start" x="598" y="-113" font-family="Helvetica,sans-Serif" font-size="10.00">/home/erik/prefix/default</text>
<text text-anchor="start" x="598" y="-102" font-family="Helvetica,sans-Serif" font-size="10.00">/src/limesuite&#45;dev/src</text>
<text text-anchor="middle" x="653" y="-91" font-family="Helvetica,sans-Serif" font-size="10.00">/utilities_gui/pnlMiniLog.h</text>
</a>
</g>
</g>
<!-- Node1&#45;&gt;Node10 -->
<g id="edge10" class="edge"><title>Node1&#45;&gt;Node10</title>
<path fill="none" stroke="midnightblue" d="M596.12,-160.038C608.044,-148.604 621.682,-135.529 632.613,-125.047"/>
<polygon fill="midnightblue" stroke="midnightblue" points="593.372,-157.824 588.576,-167.271 598.217,-162.877 593.372,-157.824"/>
</g>
<!-- Node11 -->
<g id="node11" class="node"><title>Node11</title>
<g id="a_node11"><a xlink:href="../../d4/d42/SPI__wxgui_8h.html" target="_top" xlink:title="Subclass of SPI_view, which is generated by wxFormBuilder. ">
<polygon fill="white" stroke="black" points="248.5,-84 248.5,-125 375.5,-125 375.5,-84 248.5,-84"/>
<text text-anchor="start" x="256.5" y="-113" font-family="Helvetica,sans-Serif" font-size="10.00">/home/erik/prefix/default</text>
<text text-anchor="start" x="256.5" y="-102" font-family="Helvetica,sans-Serif" font-size="10.00">/src/limesuite&#45;dev/src</text>
<text text-anchor="middle" x="312" y="-91" font-family="Helvetica,sans-Serif" font-size="10.00">/utilities_gui/SPI_wxgui.h</text>
</a>
</g>
</g>
<!-- Node1&#45;&gt;Node11 -->
<g id="edge13" class="edge"><title>Node1&#45;&gt;Node11</title>
<path fill="none" stroke="midnightblue" d="M494.167,-165.124C460.738,-155.035 420.779,-142.718 385,-131 379.259,-129.12 373.281,-127.112 367.326,-125.081"/>
<polygon fill="midnightblue" stroke="midnightblue" points="493.281,-168.512 503.865,-168.044 495.299,-161.809 493.281,-168.512"/>
</g>
<!-- Node13 -->
<g id="node13" class="node"><title>Node13</title>
<g id="a_node13"><a xlink:href="../../d1/d80/utilities__gui_8cpp.html" target="_top" xlink:title="/home/erik/prefix/default\l/src/limesuite&#45;dev/src\l/utilities_gui/utilities\l_gui.cpp">
<polygon fill="white" stroke="black" points="916,-78.5 916,-130.5 1038,-130.5 1038,-78.5 916,-78.5"/>
<text text-anchor="start" x="924" y="-118.5" font-family="Helvetica,sans-Serif" font-size="10.00">/home/erik/prefix/default</text>
<text text-anchor="start" x="924" y="-107.5" font-family="Helvetica,sans-Serif" font-size="10.00">/src/limesuite&#45;dev/src</text>
<text text-anchor="start" x="924" y="-96.5" font-family="Helvetica,sans-Serif" font-size="10.00">/utilities_gui/utilities</text>
<text text-anchor="middle" x="977" y="-85.5" font-family="Helvetica,sans-Serif" font-size="10.00">_gui.cpp</text>
</a>
</g>
</g>
<!-- Node1&#45;&gt;Node13 -->
<g id="edge16" class="edge"><title>Node1&#45;&gt;Node13</title>
<path fill="none" stroke="midnightblue" d="M642.102,-178.782C711.343,-170.16 817.221,-154.55 907,-131 909.877,-130.245 912.803,-129.42 915.745,-128.544"/>
<polygon fill="midnightblue" stroke="midnightblue" points="641.657,-175.311 632.159,-180.004 642.511,-182.258 641.657,-175.311"/>
</g>
<!-- Node3 -->
<g id="node3" class="node"><title>Node3</title>
<g id="a_node3"><a xlink:href="../../db/db0/lms7suiteAppFrame_8cpp.html" target="_top" xlink:title="/home/erik/prefix/default\l/src/limesuite&#45;dev/src\l/lms7suiteAppFrame.cpp">
<polygon fill="white" stroke="black" points="323.5,-0.5 323.5,-41.5 448.5,-41.5 448.5,-0.5 323.5,-0.5"/>
<text text-anchor="start" x="331.5" y="-29.5" font-family="Helvetica,sans-Serif" font-size="10.00">/home/erik/prefix/default</text>
<text text-anchor="start" x="331.5" y="-18.5" font-family="Helvetica,sans-Serif" font-size="10.00">/src/limesuite&#45;dev/src</text>
<text text-anchor="middle" x="386" y="-7.5" font-family="Helvetica,sans-Serif" font-size="10.00">/lms7suiteAppFrame.cpp</text>
</a>
</g>
</g>
<!-- Node2&#45;&gt;Node3 -->
<g id="edge2" class="edge"><title>Node2&#45;&gt;Node3</title>
<path fill="none" stroke="midnightblue" d="M451.686,-77.1898C437.896,-65.6035 421.977,-52.2284 409.265,-41.5472"/>
<polygon fill="midnightblue" stroke="midnightblue" points="449.611,-80.0179 459.519,-83.7711 454.114,-74.6585 449.611,-80.0179"/>
</g>
<!-- Node4 -->
<g id="node4" class="node"><title>Node4</title>
<g id="a_node4"><a xlink:href="../../d6/dca/dlgConnectionSettings_8cpp.html" target="_top" xlink:title="/home/erik/prefix/default\l/src/limesuite&#45;dev/src\l/utilities_gui/dlgConnectionSettings.cpp">
<polygon fill="white" stroke="black" points="467,-0.5 467,-41.5 655,-41.5 655,-0.5 467,-0.5"/>
<text text-anchor="start" x="475" y="-29.5" font-family="Helvetica,sans-Serif" font-size="10.00">/home/erik/prefix/default</text>
<text text-anchor="start" x="475" y="-18.5" font-family="Helvetica,sans-Serif" font-size="10.00">/src/limesuite&#45;dev/src</text>
<text text-anchor="middle" x="561" y="-7.5" font-family="Helvetica,sans-Serif" font-size="10.00">/utilities_gui/dlgConnectionSettings.cpp</text>
</a>
</g>
</g>
<!-- Node2&#45;&gt;Node4 -->
<g id="edge3" class="edge"><title>Node2&#45;&gt;Node4</title>
<path fill="none" stroke="midnightblue" d="M508.804,-76.5383C519.747,-65.1044 532.261,-52.0287 542.292,-41.5472"/>
<polygon fill="midnightblue" stroke="midnightblue" points="506.267,-74.1266 501.882,-83.7711 511.324,-78.9666 506.267,-74.1266"/>
</g>
<!-- Node5&#45;&gt;Node3 -->
<g id="edge5" class="edge"><title>Node5&#45;&gt;Node3</title>
<path fill="none" stroke="midnightblue" d="M223.55,-80.5826C257.694,-68.2697 299.341,-53.251 331.918,-41.5031"/>
<polygon fill="midnightblue" stroke="midnightblue" points="222.352,-77.2938 214.133,-83.9787 224.727,-83.8788 222.352,-77.2938"/>
</g>
<!-- Node6 -->
<g id="node6" class="node"><title>Node6</title>
<g id="a_node6"><a xlink:href="../../df/ddb/dlgDeviceInfo_8cpp.html" target="_top" xlink:title="/home/erik/prefix/default\l/src/limesuite&#45;dev/src\l/utilities_gui/dlgDeviceInfo.cpp">
<polygon fill="white" stroke="black" points="0,-0.5 0,-41.5 150,-41.5 150,-0.5 0,-0.5"/>
<text text-anchor="start" x="8" y="-29.5" font-family="Helvetica,sans-Serif" font-size="10.00">/home/erik/prefix/default</text>
<text text-anchor="start" x="8" y="-18.5" font-family="Helvetica,sans-Serif" font-size="10.00">/src/limesuite&#45;dev/src</text>
<text text-anchor="middle" x="75" y="-7.5" font-family="Helvetica,sans-Serif" font-size="10.00">/utilities_gui/dlgDeviceInfo.cpp</text>
</a>
</g>
</g>
<!-- Node5&#45;&gt;Node6 -->
<g id="edge6" class="edge"><title>Node5&#45;&gt;Node6</title>
<path fill="none" stroke="midnightblue" d="M131.88,-76.5383C119.956,-65.1044 106.318,-52.0287 95.3866,-41.5472"/>
<polygon fill="midnightblue" stroke="midnightblue" points="129.783,-79.3765 139.424,-83.7711 134.628,-74.3238 129.783,-79.3765"/>
</g>
<!-- Node8 -->
<g id="node8" class="node"><title>Node8</title>
<g id="a_node8"><a xlink:href="../../da/d49/dlgFullMessageLog_8cpp.html" target="_top" xlink:title="/home/erik/prefix/default\l/src/limesuite&#45;dev/src\l/utilities_gui/dlgFullMessageLog.cpp">
<polygon fill="white" stroke="black" points="829,-0.5 829,-41.5 1003,-41.5 1003,-0.5 829,-0.5"/>
<text text-anchor="start" x="837" y="-29.5" font-family="Helvetica,sans-Serif" font-size="10.00">/home/erik/prefix/default</text>
<text text-anchor="start" x="837" y="-18.5" font-family="Helvetica,sans-Serif" font-size="10.00">/src/limesuite&#45;dev/src</text>
<text text-anchor="middle" x="916" y="-7.5" font-family="Helvetica,sans-Serif" font-size="10.00">/utilities_gui/dlgFullMessageLog.cpp</text>
</a>
</g>
</g>
<!-- Node7&#45;&gt;Node8 -->
<g id="edge8" class="edge"><title>Node7&#45;&gt;Node8</title>
<path fill="none" stroke="midnightblue" d="M848.031,-77.395C862.262,-65.7967 878.733,-52.3727 891.896,-41.6445"/>
<polygon fill="midnightblue" stroke="midnightblue" points="845.493,-74.948 839.952,-83.9787 849.915,-80.3742 845.493,-74.948"/>
</g>
<!-- Node9 -->
<g id="node9" class="node"><title>Node9</title>
<g id="a_node9"><a xlink:href="../../db/d27/pnlMiniLog_8cpp.html" target="_top" xlink:title="/home/erik/prefix/default\l/src/limesuite&#45;dev/src\l/utilities_gui/pnlMiniLog.cpp">
<polygon fill="white" stroke="black" points="673.5,-0.5 673.5,-41.5 810.5,-41.5 810.5,-0.5 673.5,-0.5"/>
<text text-anchor="start" x="681.5" y="-29.5" font-family="Helvetica,sans-Serif" font-size="10.00">/home/erik/prefix/default</text>
<text text-anchor="start" x="681.5" y="-18.5" font-family="Helvetica,sans-Serif" font-size="10.00">/src/limesuite&#45;dev/src</text>
<text text-anchor="middle" x="742" y="-7.5" font-family="Helvetica,sans-Serif" font-size="10.00">/utilities_gui/pnlMiniLog.cpp</text>
</a>
</g>
</g>
<!-- Node7&#45;&gt;Node9 -->
<g id="edge9" class="edge"><title>Node7&#45;&gt;Node9</title>
<path fill="none" stroke="midnightblue" d="M791.222,-76.2112C780.912,-64.8556 769.175,-51.9289 759.748,-41.5472"/>
<polygon fill="midnightblue" stroke="midnightblue" points="788.773,-78.7204 798.087,-83.7711 793.956,-74.0148 788.773,-78.7204"/>
</g>
<!-- Node10&#45;&gt;Node3 -->
<g id="edge11" class="edge"><title>Node10&#45;&gt;Node3</title>
<path fill="none" stroke="midnightblue" d="M589.297,-80.7069C586.498,-79.7786 583.723,-78.8723 581,-78 556.346,-70.102 495.708,-52.8097 448.542,-39.516"/>
<polygon fill="midnightblue" stroke="midnightblue" points="588.272,-84.0547 598.866,-83.9309 590.507,-77.4211 588.272,-84.0547"/>
</g>
<!-- Node10&#45;&gt;Node9 -->
<g id="edge12" class="edge"><title>Node10&#45;&gt;Node9</title>
<path fill="none" stroke="midnightblue" d="M682.087,-76.8645C694.657,-65.3537 709.099,-52.1286 720.654,-41.5472"/>
<polygon fill="midnightblue" stroke="midnightblue" points="679.556,-74.4363 674.544,-83.7711 684.283,-79.5989 679.556,-74.4363"/>
</g>
<!-- Node11&#45;&gt;Node3 -->
<g id="edge14" class="edge"><title>Node11&#45;&gt;Node3</title>
<path fill="none" stroke="midnightblue" d="M336.778,-76.2112C347.088,-64.8556 358.825,-51.9289 368.252,-41.5472"/>
<polygon fill="midnightblue" stroke="midnightblue" points="334.044,-74.0148 329.913,-83.7711 339.227,-78.7204 334.044,-74.0148"/>
</g>
<!-- Node12 -->
<g id="node12" class="node"><title>Node12</title>
<g id="a_node12"><a xlink:href="../../d8/dcd/SPI__wxgui_8cpp.html" target="_top" xlink:title="/home/erik/prefix/default\l/src/limesuite&#45;dev/src\l/utilities_gui/SPI_wxgui.cpp">
<polygon fill="white" stroke="black" points="168.5,-0.5 168.5,-41.5 305.5,-41.5 305.5,-0.5 168.5,-0.5"/>
<text text-anchor="start" x="176.5" y="-29.5" font-family="Helvetica,sans-Serif" font-size="10.00">/home/erik/prefix/default</text>
<text text-anchor="start" x="176.5" y="-18.5" font-family="Helvetica,sans-Serif" font-size="10.00">/src/limesuite&#45;dev/src</text>
<text text-anchor="middle" x="237" y="-7.5" font-family="Helvetica,sans-Serif" font-size="10.00">/utilities_gui/SPI_wxgui.cpp</text>
</a>
</g>
</g>
<!-- Node11&#45;&gt;Node12 -->
<g id="edge15" class="edge"><title>Node11&#45;&gt;Node12</title>
<path fill="none" stroke="midnightblue" d="M286.888,-76.2112C276.438,-64.8556 264.542,-51.9289 254.988,-41.5472"/>
<polygon fill="midnightblue" stroke="midnightblue" points="284.498,-78.7827 293.845,-83.7711 289.648,-74.0426 284.498,-78.7827"/>
</g>
</g>
</svg>
        <g id="navigator" transform="translate(0 0)" fill="#404254">
                <rect fill="#f2f5e9" fill-opacity="0.5" stroke="#606060" stroke-width=".5" x="0" y="0" width="60" height="60"/>
                <use id="zoomplus" xlink:href="#zoomPlus" x="17" y="9" onmousedown="handleZoom(evt,'in')"/>
                <use id="zoomminus" xlink:href="#zoomMin" x="42" y="9" onmousedown="handleZoom(evt,'out')"/>
                <use id="reset" xlink:href="#resetDef" x="30" y="36" onmousedown="handleReset()"/>
                <g id="arrowUp" xlink:href="#dirArrow" transform="translate(30 24)" onmousedown="handlePan(0,-1)">
                  <use xlink:href="#rim" fill="#404040">
                        <set attributeName="fill" to="#808080" begin="arrowUp.mouseover" end="arrowUp.mouseout"/>
                  </use>
                  <path fill="none" stroke="white" stroke-width="1.5" d="M0,-3.0v7 M-2.5,-0.5L0,-3.0L2.5,-0.5"/>
                </g>
                <g id="arrowRight" xlink:href="#dirArrow" transform="rotate(90) translate(36 -43)" onmousedown="handlePan(1,0)">
                  <use xlink:href="#rim" fill="#404040">
                        <set attributeName="fill" to="#808080" begin="arrowRight.mouseover" end="arrowRight.mouseout"/>
                  </use>
                  <path fill="none" stroke="white" stroke-width="1.5" d="M0,-3.0v7 M-2.5,-0.5L0,-3.0L2.5,-0.5"/>
                </g>
                <g id="arrowDown" xlink:href="#dirArrow" transform="rotate(180) translate(-30 -48)" onmousedown="handlePan(0,1)">
                  <use xlink:href="#rim" fill="#404040">
                        <set attributeName="fill" to="#808080" begin="arrowDown.mouseover" end="arrowDown.mouseout"/>
                  </use>
                  <path fill="none" stroke="white" stroke-width="1.5" d="M0,-3.0v7 M-2.5,-0.5L0,-3.0L2.5,-0.5"/>
                </g>
                <g id="arrowLeft" xlink:href="#dirArrow" transform="rotate(270) translate(-36 17)" onmousedown="handlePan(-1,0)">
                  <use xlink:href="#rim" fill="#404040">
                        <set attributeName="fill" to="#808080" begin="arrowLeft.mouseover" end="arrowLeft.mouseout"/>
                  </use>
                  <path fill="none" stroke="white" stroke-width="1.5" d="M0,-3.0v7 M-2.5,-0.5L0,-3.0L2.5,-0.5"/>
                </g>
        </g>
        <svg viewBox="0 0 15 15" width="100%" height="30px" preserveAspectRatio="xMaxYMin meet">
         <g id="arrow_out" transform="scale(0.3 0.3)">
          <a xlink:href="utilities__gui_8h__dep__incl_org.svg" target="_base">
           <rect id="button" ry="5" rx="5" y="6" x="6" height="38" width="38"
                fill="#f2f5e9" fill-opacity="0.5" stroke="#606060" stroke-width="1.0"/>
           <path id="arrow"
             d="M 11.500037,31.436501 C 11.940474,20.09759 22.043105,11.32322 32.158766,21.979434 L 37.068811,17.246167 C 37.068811,17.246167 37.088388,32 37.088388,32 L 22.160133,31.978069 C 22.160133,31.978069 26.997745,27.140456 26.997745,27.140456 C 18.528582,18.264221 13.291696,25.230495 11.500037,31.436501 z"
             style="fill:#404040;"/>
          </a>
         </g>
        </svg>
</svg>
