<?xml version="1.0" encoding="UTF-8" standalone="no"?>
<!DOCTYPE svg PUBLIC "-//W3C//DTD SVG 1.1//EN"
 "http://www.w3.org/Graphics/SVG/1.1/DTD/svg11.dtd">
<!-- Generated by graphviz version 2.38.0 (20140413.2041)
 -->
<!-- Title: limeSuiteLogHandler Pages: 1 -->
<svg width="365pt" height="47pt"
 viewBox="0.00 0.00 365.00 47.00" xmlns="http://www.w3.org/2000/svg" xmlns:xlink="http://www.w3.org/1999/xlink">
<g id="graph0" class="graph" transform="scale(1 1) rotate(0) translate(4 43)">
<title>limeSuiteLogHandler</title>
<polygon fill="white" stroke="none" points="-4,4 -4,-43 361,-43 361,4 -4,4"/>
<!-- Node1 -->
<g id="node1" class="node"><title>Node1</title>
<polygon fill="#bfbfbf" stroke="black" points="0,-0.5 0,-19.5 107,-19.5 107,-0.5 0,-0.5"/>
<text text-anchor="middle" x="53.5" y="-7.5" font-family="Helvetica,sans-Serif" font-size="10.00">limeSuiteLogHandler</text>
</g>
<!-- Node2 -->
<g id="node2" class="node"><title>Node2</title>
<g id="a_node2"><a xlink:href="../../da/dc9/Registration_8cpp.html#a1a36014b1338ca8e2194b9d1c901c349" target="_top" xlink:title="findIConnection">
<polygon fill="white" stroke="black" points="143,-19.5 143,-38.5 228,-38.5 228,-19.5 143,-19.5"/>
<text text-anchor="middle" x="185.5" y="-26.5" font-family="Helvetica,sans-Serif" font-size="10.00">findIConnection</text>
</a>
</g>
</g>
<!-- Node1&#45;&gt;Node2 -->
<g id="edge1" class="edge"><title>Node1&#45;&gt;Node2</title>
<path fill="none" stroke="midnightblue" d="M116.925,-19.1237C125.77,-20.4164 134.679,-21.7184 142.994,-22.9338"/>
<polygon fill="midnightblue" stroke="midnightblue" points="117.402,-15.6563 107.001,-17.6733 116.39,-22.5827 117.402,-15.6563"/>
</g>
<!-- Node3 -->
<g id="node3" class="node"><title>Node3</title>
<g id="a_node3"><a xlink:href="../../da/dc9/Registration_8cpp.html#acd1bbddd8bc17adedce4f57d47ab8b54" target="_top" xlink:title="makeIConnection">
<polygon fill="white" stroke="black" points="264,-0.5 264,-19.5 357,-19.5 357,-0.5 264,-0.5"/>
<text text-anchor="middle" x="310.5" y="-7.5" font-family="Helvetica,sans-Serif" font-size="10.00">makeIConnection</text>
</a>
</g>
</g>
<!-- Node1&#45;&gt;Node3 -->
<g id="edge3" class="edge"><title>Node1&#45;&gt;Node3</title>
<path fill="none" stroke="midnightblue" d="M117.063,-10C162.499,-10 222.942,-10 263.875,-10"/>
<polygon fill="midnightblue" stroke="midnightblue" points="117.027,-6.5001 107.027,-10 117.027,-13.5001 117.027,-6.5001"/>
</g>
<!-- Node2&#45;&gt;Node3 -->
<g id="edge2" class="edge"><title>Node2&#45;&gt;Node3</title>
<path fill="none" stroke="midnightblue" d="M238.267,-21.0035C246.705,-19.7 255.395,-18.3577 263.677,-17.0783"/>
<polygon fill="midnightblue" stroke="midnightblue" points="237.491,-17.5818 228.142,-22.5675 238.559,-24.4998 237.491,-17.5818"/>
</g>
</g>
</svg>
