<?xml version="1.0" encoding="UTF-8" standalone="no"?>
<!DOCTYPE svg PUBLIC "-//W3C//DTD SVG 1.1//EN"
 "http://www.w3.org/Graphics/SVG/1.1/DTD/svg11.dtd">
<!-- Generated by graphviz version 2.38.0 (20140413.2041)
 -->
<!-- Title: argsToHandle Pages: 1 -->
<svg width="335pt" height="47pt"
 viewBox="0.00 0.00 335.00 47.00" xmlns="http://www.w3.org/2000/svg" xmlns:xlink="http://www.w3.org/1999/xlink">
<g id="graph0" class="graph" transform="scale(1 1) rotate(0) translate(4 43)">
<title>argsToHandle</title>
<polygon fill="white" stroke="none" points="-4,4 -4,-43 331,-43 331,4 -4,4"/>
<!-- Node1 -->
<g id="node1" class="node"><title>Node1</title>
<polygon fill="#bfbfbf" stroke="black" points="0,-0.5 0,-19.5 77,-19.5 77,-0.5 0,-0.5"/>
<text text-anchor="middle" x="38.5" y="-7.5" font-family="Helvetica,sans-Serif" font-size="10.00">argsToHandle</text>
</g>
<!-- Node2 -->
<g id="node2" class="node"><title>Node2</title>
<g id="a_node2"><a xlink:href="../../da/dc9/Registration_8cpp.html#a1a36014b1338ca8e2194b9d1c901c349" target="_top" xlink:title="findIConnection">
<polygon fill="white" stroke="black" points="113,-19.5 113,-38.5 198,-38.5 198,-19.5 113,-19.5"/>
<text text-anchor="middle" x="155.5" y="-26.5" font-family="Helvetica,sans-Serif" font-size="10.00">findIConnection</text>
</a>
</g>
</g>
<!-- Node1&#45;&gt;Node2 -->
<g id="edge1" class="edge"><title>Node1&#45;&gt;Node2</title>
<path fill="none" stroke="midnightblue" d="M87.2855,-17.895C95.75,-19.2935 104.504,-20.7398 112.784,-22.1078"/>
<polygon fill="midnightblue" stroke="midnightblue" points="87.5921,-14.3983 77.1553,-16.2213 86.451,-21.3047 87.5921,-14.3983"/>
</g>
<!-- Node3 -->
<g id="node3" class="node"><title>Node3</title>
<g id="a_node3"><a xlink:href="../../da/dc9/Registration_8cpp.html#acd1bbddd8bc17adedce4f57d47ab8b54" target="_top" xlink:title="makeIConnection">
<polygon fill="white" stroke="black" points="234,-0.5 234,-19.5 327,-19.5 327,-0.5 234,-0.5"/>
<text text-anchor="middle" x="280.5" y="-7.5" font-family="Helvetica,sans-Serif" font-size="10.00">makeIConnection</text>
</a>
</g>
</g>
<!-- Node1&#45;&gt;Node3 -->
<g id="edge3" class="edge"><title>Node1&#45;&gt;Node3</title>
<path fill="none" stroke="midnightblue" d="M87.384,-10C129.974,-10 191.829,-10 233.757,-10"/>
<polygon fill="midnightblue" stroke="midnightblue" points="87.264,-6.5001 77.264,-10 87.264,-13.5001 87.264,-6.5001"/>
</g>
<!-- Node2&#45;&gt;Node3 -->
<g id="edge2" class="edge"><title>Node2&#45;&gt;Node3</title>
<path fill="none" stroke="midnightblue" d="M208.267,-21.0035C216.705,-19.7 225.395,-18.3577 233.677,-17.0783"/>
<polygon fill="midnightblue" stroke="midnightblue" points="207.491,-17.5818 198.142,-22.5675 208.559,-24.4998 207.491,-17.5818"/>
</g>
</g>
</svg>
