<?xml version="1.0" encoding="UTF-8" standalone="no"?>
<!DOCTYPE svg PUBLIC "-//W3C//DTD SVG 1.1//EN"
 "http://www.w3.org/Graphics/SVG/1.1/DTD/svg11.dtd">
<!-- Generated by graphviz version 2.38.0 (20140413.2041)
 -->
<!-- Title: /home/erik/prefix/default/src/limesuite&#45;dev/src/lms7002m/goert.cpp Pages: 1 -->
<svg width="844pt" height="218pt"
 viewBox="0.00 0.00 843.50 218.00" xmlns="http://www.w3.org/2000/svg" xmlns:xlink="http://www.w3.org/1999/xlink">
<g id="graph0" class="graph" transform="scale(1 1) rotate(0) translate(4 214)">
<title>/home/erik/prefix/default/src/limesuite&#45;dev/src/lms7002m/goert.cpp</title>
<polygon fill="white" stroke="none" points="-4,4 -4,-214 839.5,-214 839.5,4 -4,4"/>
<!-- Node1 -->
<g id="node1" class="node"><title>Node1</title>
<polygon fill="#bfbfbf" stroke="black" points="488,-168.5 488,-209.5 610,-209.5 610,-168.5 488,-168.5"/>
<text text-anchor="start" x="496" y="-197.5" font-family="Helvetica,sans-Serif" font-size="10.00">/home/erik/prefix/default</text>
<text text-anchor="start" x="496" y="-186.5" font-family="Helvetica,sans-Serif" font-size="10.00">/src/limesuite&#45;dev/src</text>
<text text-anchor="middle" x="549" y="-175.5" font-family="Helvetica,sans-Serif" font-size="10.00">/lms7002m/goert.cpp</text>
</g>
<!-- Node2 -->
<g id="node2" class="node"><title>Node2</title>
<polygon fill="white" stroke="#bfbfbf" points="282,-112.5 282,-131.5 336,-131.5 336,-112.5 282,-112.5"/>
<text text-anchor="middle" x="309" y="-119.5" font-family="Helvetica,sans-Serif" font-size="10.00">iostream</text>
</g>
<!-- Node1&#45;&gt;Node2 -->
<g id="edge1" class="edge"><title>Node1&#45;&gt;Node2</title>
<path fill="none" stroke="midnightblue" d="M487.817,-171.43C443.133,-159.328 383.993,-143.311 346.212,-133.078"/>
<polygon fill="midnightblue" stroke="midnightblue" points="346.719,-129.59 336.152,-130.354 344.889,-136.346 346.719,-129.59"/>
</g>
<!-- Node3 -->
<g id="node3" class="node"><title>Node3</title>
<g id="a_node3"><a xlink:href="../../d3/d1e/IConnection_8h.html" target="_top" xlink:title="Interface class for connection types. ">
<polygon fill="white" stroke="black" points="392.5,-112.5 392.5,-131.5 469.5,-131.5 469.5,-112.5 392.5,-112.5"/>
<text text-anchor="middle" x="431" y="-119.5" font-family="Helvetica,sans-Serif" font-size="10.00">IConnection.h</text>
</a>
</g>
</g>
<!-- Node1&#45;&gt;Node3 -->
<g id="edge2" class="edge"><title>Node1&#45;&gt;Node3</title>
<path fill="none" stroke="midnightblue" d="M513.596,-168.498C494.983,-158.245 472.618,-145.925 455.857,-136.693"/>
<polygon fill="midnightblue" stroke="midnightblue" points="457.155,-133.412 446.708,-131.652 453.778,-139.543 457.155,-133.412"/>
</g>
<!-- Node10 -->
<g id="node10" class="node"><title>Node10</title>
<polygon fill="white" stroke="#bfbfbf" points="612.5,-56.5 612.5,-75.5 661.5,-75.5 661.5,-56.5 612.5,-56.5"/>
<text text-anchor="middle" x="637" y="-63.5" font-family="Helvetica,sans-Serif" font-size="10.00">stdint.h</text>
</g>
<!-- Node1&#45;&gt;Node10 -->
<g id="edge15" class="edge"><title>Node1&#45;&gt;Node10</title>
<path fill="none" stroke="midnightblue" d="M530.534,-168.456C517.684,-152.402 504.85,-129.533 517,-112 522.125,-104.604 568.689,-88.5869 602.274,-77.7971"/>
<polygon fill="midnightblue" stroke="midnightblue" points="603.753,-80.9995 612.22,-74.6316 601.63,-74.3292 603.753,-80.9995"/>
</g>
<!-- Node11 -->
<g id="node11" class="node"><title>Node11</title>
<polygon fill="white" stroke="#bfbfbf" points="526,-112.5 526,-131.5 572,-131.5 572,-112.5 526,-112.5"/>
<text text-anchor="middle" x="549" y="-119.5" font-family="Helvetica,sans-Serif" font-size="10.00">stdio.h</text>
</g>
<!-- Node1&#45;&gt;Node11 -->
<g id="edge12" class="edge"><title>Node1&#45;&gt;Node11</title>
<path fill="none" stroke="midnightblue" d="M549,-168.498C549,-160.065 549,-150.235 549,-141.874"/>
<polygon fill="midnightblue" stroke="midnightblue" points="552.5,-141.652 549,-131.652 545.5,-141.653 552.5,-141.652"/>
</g>
<!-- Node12 -->
<g id="node12" class="node"><title>Node12</title>
<polygon fill="white" stroke="#bfbfbf" points="590.5,-112.5 590.5,-131.5 637.5,-131.5 637.5,-112.5 590.5,-112.5"/>
<text text-anchor="middle" x="614" y="-119.5" font-family="Helvetica,sans-Serif" font-size="10.00">math.h</text>
</g>
<!-- Node1&#45;&gt;Node12 -->
<g id="edge13" class="edge"><title>Node1&#45;&gt;Node12</title>
<path fill="none" stroke="midnightblue" d="M568.502,-168.498C577.989,-159.011 589.244,-147.756 598.187,-138.813"/>
<polygon fill="midnightblue" stroke="midnightblue" points="600.751,-141.198 605.348,-131.652 595.802,-136.249 600.751,-141.198"/>
</g>
<!-- Node13 -->
<g id="node13" class="node"><title>Node13</title>
<polygon fill="white" stroke="#bfbfbf" points="656,-112.5 656,-131.5 704,-131.5 704,-112.5 656,-112.5"/>
<text text-anchor="middle" x="680" y="-119.5" font-family="Helvetica,sans-Serif" font-size="10.00">limits.h</text>
</g>
<!-- Node1&#45;&gt;Node13 -->
<g id="edge14" class="edge"><title>Node1&#45;&gt;Node13</title>
<path fill="none" stroke="midnightblue" d="M588.304,-168.498C609.355,-158.053 634.727,-145.464 653.441,-136.178"/>
<polygon fill="midnightblue" stroke="midnightblue" points="655.16,-139.233 662.562,-131.652 652.048,-132.962 655.16,-139.233"/>
</g>
<!-- Node14 -->
<g id="node14" class="node"><title>Node14</title>
<polygon fill="white" stroke="#bfbfbf" points="722,-112.5 722,-131.5 768,-131.5 768,-112.5 722,-112.5"/>
<text text-anchor="middle" x="745" y="-119.5" font-family="Helvetica,sans-Serif" font-size="10.00">chrono</text>
</g>
<!-- Node1&#45;&gt;Node14 -->
<g id="edge16" class="edge"><title>Node1&#45;&gt;Node14</title>
<path fill="none" stroke="midnightblue" d="M607.806,-168.498C641.952,-157.174 683.697,-143.33 712.108,-133.908"/>
<polygon fill="midnightblue" stroke="midnightblue" points="713.544,-137.119 721.934,-130.649 711.341,-130.475 713.544,-137.119"/>
</g>
<!-- Node15 -->
<g id="node15" class="node"><title>Node15</title>
<g id="a_node15"><a xlink:href="../../dd/da4/Logger_8h.html" target="_top" xlink:title="API for logging library status messages. ">
<polygon fill="white" stroke="black" points="137,-56.5 137,-75.5 191,-75.5 191,-56.5 137,-56.5"/>
<text text-anchor="middle" x="164" y="-63.5" font-family="Helvetica,sans-Serif" font-size="10.00">Logger.h</text>
</a>
</g>
</g>
<!-- Node1&#45;&gt;Node15 -->
<g id="edge17" class="edge"><title>Node1&#45;&gt;Node15</title>
<path fill="none" stroke="midnightblue" d="M487.811,-169.925C456.083,-159.911 416.966,-146.558 383,-132 365.458,-124.481 362.834,-118.796 345,-112 296.738,-93.6089 238.351,-80.6661 201.192,-73.5219"/>
<polygon fill="midnightblue" stroke="midnightblue" points="201.775,-70.0702 191.3,-71.6609 200.48,-76.9495 201.775,-70.0702"/>
</g>
<!-- Node19 -->
<g id="node19" class="node"><title>Node19</title>
<polygon fill="white" stroke="#bfbfbf" points="786.5,-112.5 786.5,-131.5 835.5,-131.5 835.5,-112.5 786.5,-112.5"/>
<text text-anchor="middle" x="811" y="-119.5" font-family="Helvetica,sans-Serif" font-size="10.00">string.h</text>
</g>
<!-- Node1&#45;&gt;Node19 -->
<g id="edge23" class="edge"><title>Node1&#45;&gt;Node19</title>
<path fill="none" stroke="midnightblue" d="M610.041,-173.322C653.665,-162.759 714.017,-148.001 776.462,-132.102"/>
<polygon fill="midnightblue" stroke="midnightblue" points="777.675,-135.405 786.5,-129.541 775.945,-128.622 777.675,-135.405"/>
</g>
<!-- Node4 -->
<g id="node4" class="node"><title>Node4</title>
<g id="a_node4"><a xlink:href="../../dd/d40/LimeSuiteConfig_8h.html" target="_top" xlink:title="Configuration constants and macros for lime suite library. ">
<polygon fill="white" stroke="black" points="206.5,-0.5 206.5,-19.5 303.5,-19.5 303.5,-0.5 206.5,-0.5"/>
<text text-anchor="middle" x="255" y="-7.5" font-family="Helvetica,sans-Serif" font-size="10.00">LimeSuiteConfig.h</text>
</a>
</g>
</g>
<!-- Node3&#45;&gt;Node4 -->
<g id="edge3" class="edge"><title>Node3&#45;&gt;Node4</title>
<path fill="none" stroke="midnightblue" d="M392.256,-113.246C337.315,-102.068 242.839,-82.0973 238,-76 227.159,-62.341 234.778,-42.4678 242.993,-28.2967"/>
<polygon fill="midnightblue" stroke="midnightblue" points="246.146,-29.8604 248.556,-19.5433 240.238,-26.1057 246.146,-29.8604"/>
</g>
<!-- Node5 -->
<g id="node5" class="node"><title>Node5</title>
<g id="a_node5"><a xlink:href="../../d1/d5d/ConnectionHandle_8h.html" target="_top" xlink:title="Represent a connection to a device. ">
<polygon fill="white" stroke="black" points="247.5,-56.5 247.5,-75.5 352.5,-75.5 352.5,-56.5 247.5,-56.5"/>
<text text-anchor="middle" x="300" y="-63.5" font-family="Helvetica,sans-Serif" font-size="10.00">ConnectionHandle.h</text>
</a>
</g>
</g>
<!-- Node3&#45;&gt;Node5 -->
<g id="edge4" class="edge"><title>Node3&#45;&gt;Node5</title>
<path fill="none" stroke="midnightblue" d="M410.243,-112.444C388.684,-103.557 354.737,-89.5632 330.206,-79.4514"/>
<polygon fill="midnightblue" stroke="midnightblue" points="331.239,-76.0917 320.66,-75.5164 328.572,-82.5634 331.239,-76.0917"/>
</g>
<!-- Node6 -->
<g id="node6" class="node"><title>Node6</title>
<polygon fill="white" stroke="#bfbfbf" points="321.5,-0.5 321.5,-19.5 362.5,-19.5 362.5,-0.5 321.5,-0.5"/>
<text text-anchor="middle" x="342" y="-7.5" font-family="Helvetica,sans-Serif" font-size="10.00">string</text>
</g>
<!-- Node3&#45;&gt;Node6 -->
<g id="edge7" class="edge"><title>Node3&#45;&gt;Node6</title>
<path fill="none" stroke="midnightblue" d="M424.016,-112.368C409.264,-94.135 374.708,-51.4257 355.492,-27.6752"/>
<polygon fill="midnightblue" stroke="midnightblue" points="357.962,-25.164 348.951,-19.5914 352.52,-29.567 357.962,-25.164"/>
</g>
<!-- Node7 -->
<g id="node7" class="node"><title>Node7</title>
<polygon fill="white" stroke="#bfbfbf" points="409,-56.5 409,-75.5 453,-75.5 453,-56.5 409,-56.5"/>
<text text-anchor="middle" x="431" y="-63.5" font-family="Helvetica,sans-Serif" font-size="10.00">vector</text>
</g>
<!-- Node3&#45;&gt;Node7 -->
<g id="edge8" class="edge"><title>Node3&#45;&gt;Node7</title>
<path fill="none" stroke="midnightblue" d="M431,-112.083C431,-105.006 431,-94.8611 431,-85.9865"/>
<polygon fill="midnightblue" stroke="midnightblue" points="434.5,-85.751 431,-75.7511 427.5,-85.7511 434.5,-85.751"/>
</g>
<!-- Node8 -->
<g id="node8" class="node"><title>Node8</title>
<polygon fill="white" stroke="#bfbfbf" points="471,-56.5 471,-75.5 517,-75.5 517,-56.5 471,-56.5"/>
<text text-anchor="middle" x="494" y="-63.5" font-family="Helvetica,sans-Serif" font-size="10.00">cstring</text>
</g>
<!-- Node3&#45;&gt;Node8 -->
<g id="edge9" class="edge"><title>Node3&#45;&gt;Node8</title>
<path fill="none" stroke="midnightblue" d="M441.122,-112.324C450.526,-104.263 464.744,-92.0765 476.069,-82.3695"/>
<polygon fill="midnightblue" stroke="midnightblue" points="478.379,-84.9993 483.694,-75.8339 473.823,-79.6844 478.379,-84.9993"/>
</g>
<!-- Node9 -->
<g id="node9" class="node"><title>Node9</title>
<polygon fill="white" stroke="#bfbfbf" points="535.5,-56.5 535.5,-75.5 594.5,-75.5 594.5,-56.5 535.5,-56.5"/>
<text text-anchor="middle" x="565" y="-63.5" font-family="Helvetica,sans-Serif" font-size="10.00">functional</text>
</g>
<!-- Node3&#45;&gt;Node9 -->
<g id="edge10" class="edge"><title>Node3&#45;&gt;Node9</title>
<path fill="none" stroke="midnightblue" d="M452.233,-112.444C474.384,-103.517 509.319,-89.4387 534.436,-79.3168"/>
<polygon fill="midnightblue" stroke="midnightblue" points="535.9,-82.5006 543.867,-75.5164 533.283,-76.0079 535.9,-82.5006"/>
</g>
<!-- Node3&#45;&gt;Node10 -->
<g id="edge11" class="edge"><title>Node3&#45;&gt;Node10</title>
<path fill="none" stroke="midnightblue" d="M464.196,-112.489C497.003,-104.05 548.887,-90.6321 602.179,-76.4659"/>
<polygon fill="midnightblue" stroke="midnightblue" points="603.379,-79.7683 612.142,-73.813 601.578,-73.004 603.379,-79.7683"/>
</g>
<!-- Node5&#45;&gt;Node4 -->
<g id="edge5" class="edge"><title>Node5&#45;&gt;Node4</title>
<path fill="none" stroke="midnightblue" d="M292.569,-56.083C286.147,-48.3768 276.694,-37.0333 268.878,-27.6531"/>
<polygon fill="midnightblue" stroke="midnightblue" points="271.383,-25.1927 262.293,-19.7511 266.006,-29.674 271.383,-25.1927"/>
</g>
<!-- Node5&#45;&gt;Node6 -->
<g id="edge6" class="edge"><title>Node5&#45;&gt;Node6</title>
<path fill="none" stroke="midnightblue" d="M306.935,-56.083C312.929,-48.3768 321.752,-37.0333 329.048,-27.6531"/>
<polygon fill="midnightblue" stroke="midnightblue" points="331.817,-29.7934 335.194,-19.7511 326.291,-25.4958 331.817,-29.7934"/>
</g>
<!-- Node15&#45;&gt;Node4 -->
<g id="edge18" class="edge"><title>Node15&#45;&gt;Node4</title>
<path fill="none" stroke="midnightblue" d="M178.621,-56.324C192.949,-47.8215 215.013,-34.7288 231.749,-24.7975"/>
<polygon fill="midnightblue" stroke="midnightblue" points="233.602,-27.7677 240.416,-19.6545 230.03,-21.7478 233.602,-27.7677"/>
</g>
<!-- Node15&#45;&gt;Node6 -->
<g id="edge19" class="edge"><title>Node15&#45;&gt;Node6</title>
<path fill="none" stroke="midnightblue" d="M191.034,-56.7986C223.469,-46.9588 277.702,-30.5063 311.574,-20.2304"/>
<polygon fill="midnightblue" stroke="midnightblue" points="312.832,-23.5062 321.385,-17.2538 310.8,-16.8077 312.832,-23.5062"/>
</g>
<!-- Node16 -->
<g id="node16" class="node"><title>Node16</title>
<polygon fill="white" stroke="#bfbfbf" points="139.5,-0.5 139.5,-19.5 188.5,-19.5 188.5,-0.5 139.5,-0.5"/>
<text text-anchor="middle" x="164" y="-7.5" font-family="Helvetica,sans-Serif" font-size="10.00">cstdarg</text>
</g>
<!-- Node15&#45;&gt;Node16 -->
<g id="edge20" class="edge"><title>Node15&#45;&gt;Node16</title>
<path fill="none" stroke="midnightblue" d="M164,-56.083C164,-49.0059 164,-38.8611 164,-29.9865"/>
<polygon fill="midnightblue" stroke="midnightblue" points="167.5,-29.751 164,-19.7511 160.5,-29.7511 167.5,-29.751"/>
</g>
<!-- Node17 -->
<g id="node17" class="node"><title>Node17</title>
<polygon fill="white" stroke="#bfbfbf" points="0,-0.5 0,-19.5 44,-19.5 44,-0.5 0,-0.5"/>
<text text-anchor="middle" x="22" y="-7.5" font-family="Helvetica,sans-Serif" font-size="10.00">cerrno</text>
</g>
<!-- Node15&#45;&gt;Node17 -->
<g id="edge21" class="edge"><title>Node15&#45;&gt;Node17</title>
<path fill="none" stroke="midnightblue" d="M141.5,-56.4435C117.923,-47.4776 80.6776,-33.314 54.036,-23.1827"/>
<polygon fill="midnightblue" stroke="midnightblue" points="54.9861,-19.7995 44.3951,-19.5164 52.4979,-26.3424 54.9861,-19.7995"/>
</g>
<!-- Node18 -->
<g id="node18" class="node"><title>Node18</title>
<polygon fill="white" stroke="#bfbfbf" points="62.5,-0.5 62.5,-19.5 121.5,-19.5 121.5,-0.5 62.5,-0.5"/>
<text text-anchor="middle" x="92" y="-7.5" font-family="Helvetica,sans-Serif" font-size="10.00">stdexcept</text>
</g>
<!-- Node15&#45;&gt;Node18 -->
<g id="edge22" class="edge"><title>Node15&#45;&gt;Node18</title>
<path fill="none" stroke="midnightblue" d="M152.432,-56.324C141.58,-48.1849 125.119,-35.8395 112.117,-26.0874"/>
<polygon fill="midnightblue" stroke="midnightblue" points="113.879,-23.0339 103.779,-19.8339 109.679,-28.6339 113.879,-23.0339"/>
</g>
</g>
</svg>
