<?xml version="1.0" encoding="UTF-8" standalone="no"?>
<!DOCTYPE svg PUBLIC "-//W3C//DTD SVG 1.1//EN"
 "http://www.w3.org/Graphics/SVG/1.1/DTD/svg11.dtd">
<!-- Generated by graphviz version 2.38.0 (20140413.2041)
 -->
<!-- Title: SoapyLMS7::getGain Pages: 1 -->
<svg width="429pt" height="28pt"
 viewBox="0.00 0.00 429.00 28.00" xmlns="http://www.w3.org/2000/svg" xmlns:xlink="http://www.w3.org/1999/xlink">
<g id="graph0" class="graph" transform="scale(1 1) rotate(0) translate(4 24)">
<title>SoapyLMS7::getGain</title>
<polygon fill="white" stroke="none" points="-4,4 -4,-24 425,-24 425,4 -4,4"/>
<!-- Node1 -->
<g id="node1" class="node"><title>Node1</title>
<polygon fill="#bfbfbf" stroke="black" points="0,-0.5 0,-19.5 110,-19.5 110,-0.5 0,-0.5"/>
<text text-anchor="middle" x="55" y="-7.5" font-family="Helvetica,sans-Serif" font-size="10.00">SoapyLMS7::getGain</text>
</g>
<!-- Node2 -->
<g id="node2" class="node"><title>Node2</title>
<g id="a_node2"><a xlink:href="../../d9/d90/classSoapyLMS7.html#ac7dee88fdc416b8852dd53f39edeb81d" target="_top" xlink:title="SoapyLMS7::setGain">
<polygon fill="white" stroke="black" points="146,-0.5 146,-19.5 256,-19.5 256,-0.5 146,-0.5"/>
<text text-anchor="middle" x="201" y="-7.5" font-family="Helvetica,sans-Serif" font-size="10.00">SoapyLMS7::setGain</text>
</a>
</g>
</g>
<!-- Node1&#45;&gt;Node2 -->
<g id="edge1" class="edge"><title>Node1&#45;&gt;Node2</title>
<path fill="none" stroke="midnightblue" d="M120.27,-10C128.75,-10 137.375,-10 145.667,-10"/>
<polygon fill="midnightblue" stroke="midnightblue" points="120.03,-6.5001 110.03,-10 120.03,-13.5001 120.03,-6.5001"/>
</g>
<!-- Node3 -->
<g id="node3" class="node"><title>Node3</title>
<g id="a_node3"><a xlink:href="../../d9/d90/classSoapyLMS7.html#a1c9bb20e7fe357b53f4d44e7ca72ef25" target="_top" xlink:title="SoapyLMS7::SoapyLMS7">
<polygon fill="white" stroke="black" points="292,-0.5 292,-19.5 421,-19.5 421,-0.5 292,-0.5"/>
<text text-anchor="middle" x="356.5" y="-7.5" font-family="Helvetica,sans-Serif" font-size="10.00">SoapyLMS7::SoapyLMS7</text>
</a>
</g>
</g>
<!-- Node2&#45;&gt;Node3 -->
<g id="edge2" class="edge"><title>Node2&#45;&gt;Node3</title>
<path fill="none" stroke="midnightblue" d="M266.309,-10C274.771,-10 283.44,-10 291.89,-10"/>
<polygon fill="midnightblue" stroke="midnightblue" points="266.118,-6.5001 256.118,-10 266.118,-13.5001 266.118,-6.5001"/>
</g>
</g>
</svg>
