<?xml version="1.0" encoding="UTF-8" standalone="no"?>
<!DOCTYPE svg PUBLIC "-//W3C//DTD SVG 1.1//EN"
 "http://www.w3.org/Graphics/SVG/1.1/DTD/svg11.dtd">
<!-- Generated by graphviz version 2.38.0 (20140413.2041)
 -->
<!-- Title: SoapyLMS7::readSensor Pages: 1 -->
<svg width="825pt" height="109pt"
 viewBox="0.00 0.00 825.00 109.03" xmlns="http://www.w3.org/2000/svg" xmlns:xlink="http://www.w3.org/1999/xlink">
<g id="graph0" class="graph" transform="scale(1 1) rotate(0) translate(4 105.033)">
<title>SoapyLMS7::readSensor</title>
<polygon fill="white" stroke="none" points="-4,4 -4,-105.033 821,-105.033 821,4 -4,4"/>
<!-- Node1 -->
<g id="node1" class="node"><title>Node1</title>
<polygon fill="#bfbfbf" stroke="black" points="0,-27.0325 0,-46.0325 125,-46.0325 125,-27.0325 0,-27.0325"/>
<text text-anchor="middle" x="62.5" y="-34.0325" font-family="Helvetica,sans-Serif" font-size="10.00">SoapyLMS7::readSensor</text>
</g>
<!-- Node2 -->
<g id="node2" class="node"><title>Node2</title>
<g id="a_node2"><a xlink:href="../../d3/d22/classlime_1_1LMS7__Device.html#aea1cc6826b040e5906b0612ca131d947" target="_top" xlink:title="lime::LMS7_Device::\lGetLMS">
<polygon fill="white" stroke="black" points="185.5,-43.5325 185.5,-73.5325 293.5,-73.5325 293.5,-43.5325 185.5,-43.5325"/>
<text text-anchor="start" x="193.5" y="-61.5325" font-family="Helvetica,sans-Serif" font-size="10.00">lime::LMS7_Device::</text>
<text text-anchor="middle" x="239.5" y="-50.5325" font-family="Helvetica,sans-Serif" font-size="10.00">GetLMS</text>
</a>
</g>
</g>
<!-- Node1&#45;&gt;Node2 -->
<g id="edge1" class="edge"><title>Node1&#45;&gt;Node2</title>
<path fill="none" stroke="midnightblue" d="M125.198,-44.2889C141.497,-46.3378 159.107,-48.5517 175.474,-50.6093"/>
<polygon fill="midnightblue" stroke="midnightblue" points="175.124,-54.0927 185.482,-51.8674 175.997,-47.1473 175.124,-54.0927"/>
</g>
<!-- Node3 -->
<g id="node3" class="node"><title>Node3</title>
<g id="a_node3"><a xlink:href="../../db/d1d/classlime_1_1LMS7002M.html#ae01485c269162441fa8c4abfec67fc80" target="_top" xlink:title="lime::LMS7002M::GetSXLocked">
<polygon fill="white" stroke="black" points="161,-5.03252 161,-24.0325 318,-24.0325 318,-5.03252 161,-5.03252"/>
<text text-anchor="middle" x="239.5" y="-12.0325" font-family="Helvetica,sans-Serif" font-size="10.00">lime::LMS7002M::GetSXLocked</text>
</a>
</g>
</g>
<!-- Node1&#45;&gt;Node3 -->
<g id="edge2" class="edge"><title>Node1&#45;&gt;Node3</title>
<path fill="none" stroke="midnightblue" d="M125.198,-28.7761C134.087,-27.6587 143.366,-26.4922 152.621,-25.3288"/>
<polygon fill="midnightblue" stroke="midnightblue" points="153.149,-28.79 162.634,-24.0699 152.276,-21.8447 153.149,-28.79"/>
</g>
<!-- Node4 -->
<g id="node4" class="node"><title>Node4</title>
<g id="a_node4"><a xlink:href="../../db/d1d/classlime_1_1LMS7002M.html#ac1a58f0eaceb678852f1460e09b4e4ba" target="_top" xlink:title="lime::LMS7002M::SetActive\lChannel">
<polygon fill="white" stroke="black" points="354,-21.5325 354,-51.5325 493,-51.5325 493,-21.5325 354,-21.5325"/>
<text text-anchor="start" x="362" y="-39.5325" font-family="Helvetica,sans-Serif" font-size="10.00">lime::LMS7002M::SetActive</text>
<text text-anchor="middle" x="423.5" y="-28.5325" font-family="Helvetica,sans-Serif" font-size="10.00">Channel</text>
</a>
</g>
</g>
<!-- Node3&#45;&gt;Node4 -->
<g id="edge3" class="edge"><title>Node3&#45;&gt;Node4</title>
<path fill="none" stroke="midnightblue" d="M318.212,-23.9263C326.754,-24.9588 335.455,-26.0106 344.006,-27.0442"/>
<polygon fill="midnightblue" stroke="midnightblue" points="343.608,-30.5215 353.956,-28.247 344.448,-23.5721 343.608,-30.5215"/>
</g>
<!-- Node6 -->
<g id="node6" class="node"><title>Node6</title>
<g id="a_node6"><a xlink:href="../../db/d1d/classlime_1_1LMS7002M.html#a770393845fa2d4aab5e74c33c31247e9" target="_top" xlink:title="Returns given parameter value from chip register. ">
<polygon fill="white" stroke="black" points="705,-23.5325 705,-53.5325 817,-53.5325 817,-23.5325 705,-23.5325"/>
<text text-anchor="start" x="713" y="-41.5325" font-family="Helvetica,sans-Serif" font-size="10.00">lime::LMS7002M::Get</text>
<text text-anchor="middle" x="761" y="-30.5325" font-family="Helvetica,sans-Serif" font-size="10.00">_SPI_Reg_bits</text>
</a>
</g>
</g>
<!-- Node3&#45;&gt;Node6 -->
<g id="edge7" class="edge"><title>Node3&#45;&gt;Node6</title>
<path fill="none" stroke="midnightblue" d="M318.391,-6.9775C404.63,-0.237041 547.524,6.10861 669,-11.5325 682.126,-13.4387 695.993,-16.815 708.838,-20.5487"/>
<polygon fill="midnightblue" stroke="midnightblue" points="707.847,-23.9055 718.432,-23.4551 709.876,-17.2061 707.847,-23.9055"/>
</g>
<!-- Node5 -->
<g id="node5" class="node"><title>Node5</title>
<g id="a_node5"><a xlink:href="../../db/d1d/classlime_1_1LMS7002M.html#abf38539b5505ed1314297b5439b1ae9d" target="_top" xlink:title="lime::LMS7002M::GetActive\lChannel">
<polygon fill="white" stroke="black" points="529,-70.5325 529,-100.533 669,-100.533 669,-70.5325 529,-70.5325"/>
<text text-anchor="start" x="537" y="-88.5325" font-family="Helvetica,sans-Serif" font-size="10.00">lime::LMS7002M::GetActive</text>
<text text-anchor="middle" x="599" y="-77.5325" font-family="Helvetica,sans-Serif" font-size="10.00">Channel</text>
</a>
</g>
</g>
<!-- Node4&#45;&gt;Node5 -->
<g id="edge4" class="edge"><title>Node4&#45;&gt;Node5</title>
<path fill="none" stroke="midnightblue" d="M477.971,-51.634C496.031,-56.7344 516.359,-62.4754 535.081,-67.763"/>
<polygon fill="midnightblue" stroke="midnightblue" points="534.13,-71.1312 544.705,-70.4809 536.033,-64.3947 534.13,-71.1312"/>
</g>
<!-- Node7 -->
<g id="node7" class="node"><title>Node7</title>
<g id="a_node7"><a xlink:href="../../db/d1d/classlime_1_1LMS7002M.html#afaf3843f7acef055ebbe0c0576ec8fee" target="_top" xlink:title="Change given parameter value. ">
<polygon fill="white" stroke="black" points="536.5,-21.5325 536.5,-51.5325 661.5,-51.5325 661.5,-21.5325 536.5,-21.5325"/>
<text text-anchor="start" x="544.5" y="-39.5325" font-family="Helvetica,sans-Serif" font-size="10.00">lime::LMS7002M::Modify</text>
<text text-anchor="middle" x="599" y="-28.5325" font-family="Helvetica,sans-Serif" font-size="10.00">_SPI_Reg_bits</text>
</a>
</g>
</g>
<!-- Node4&#45;&gt;Node7 -->
<g id="edge6" class="edge"><title>Node4&#45;&gt;Node7</title>
<path fill="none" stroke="midnightblue" d="M493.072,-36.5325C504.022,-36.5325 515.377,-36.5325 526.396,-36.5325"/>
<polygon fill="midnightblue" stroke="midnightblue" points="526.399,-40.0326 536.399,-36.5325 526.399,-33.0326 526.399,-40.0326"/>
</g>
<!-- Node5&#45;&gt;Node6 -->
<g id="edge5" class="edge"><title>Node5&#45;&gt;Node6</title>
<path fill="none" stroke="midnightblue" d="M651.065,-70.5322C666.364,-66.0382 683.294,-61.0649 699.157,-56.4052"/>
<polygon fill="midnightblue" stroke="midnightblue" points="700.263,-59.7281 708.871,-53.5515 698.29,-53.0119 700.263,-59.7281"/>
</g>
</g>
</svg>
