<?xml version="1.0" encoding="UTF-8" standalone="no"?>
<!DOCTYPE svg PUBLIC "-//W3C//DTD SVG 1.1//EN"
 "http://www.w3.org/Graphics/SVG/1.1/DTD/svg11.dtd">
<!-- Generated by graphviz version 2.38.0 (20140413.2041)
 -->
<!-- Title: lms7002_pnlRFE_view Pages: 1 -->
<!--zoomable 722 -->
<svg id="main" version="1.1" xmlns="http://www.w3.org/2000/svg" xmlns:xlink="http://www.w3.org/1999/xlink" xml:space="preserve" onload="init(evt)">
<style type="text/css"><![CDATA[
.edge:hover path { stroke: red; }
.edge:hover polygon { stroke: red; fill: red; }
]]></style>
<script type="text/javascript"><![CDATA[
var edges = document.getElementsByTagName('g');
if (edges && edges.length) {
  for (var i=0;i<edges.length;i++) {
    if (edges[i].id.substr(0,4)=='edge') {
      edges[i].setAttribute('class','edge');
    }
  }
}
]]></script>
        <defs>
                <circle id="rim" cx="0" cy="0" r="7"/>
                <circle id="rim2" cx="0" cy="0" r="3.5"/>
                <g id="zoomPlus">
                        <use xlink:href="#rim" fill="#404040">
                                <set attributeName="fill" to="#808080" begin="zoomplus.mouseover" end="zoomplus.mouseout"/>
                        </use>
                        <path d="M-4,0h8M0,-4v8" fill="none" stroke="white" stroke-width="1.5" pointer-events="none"/>
                </g>
                <g id="zoomMin">
                        <use xlink:href="#rim" fill="#404040">
                                <set attributeName="fill" to="#808080" begin="zoomminus.mouseover" end="zoomminus.mouseout"/>
                        </use>
                        <path d="M-4,0h8" fill="none" stroke="white" stroke-width="1.5" pointer-events="none"/>
                </g>
                <g id="dirArrow">
                        <path fill="none" stroke="white" stroke-width="1.5" d="M0,-3.0v7 M-2.5,-0.5L0,-3.0L2.5,-0.5"/>
                </g>
               <g id="resetDef">
                       <use xlink:href="#rim2" fill="#404040">
                               <set attributeName="fill" to="#808080" begin="reset.mouseover" end="reset.mouseout"/>
                       </use>
               </g>
        </defs>

<script type="text/javascript">
var viewWidth = 461;
var viewHeight = 722;
var sectionId = 'dynsection-1';
</script>
<script xlink:href="../../svgpan.js"/>
<svg id="graph" class="graph">
<g id="viewport">
<title>lms7002_pnlRFE_view</title>
<polygon fill="white" stroke="none" points="-4,4 -4,-718 457,-718 457,4 -4,4"/>
<!-- Node1 -->
<g id="node1" class="node"><title>Node1</title>
<polygon fill="#bfbfbf" stroke="black" points="95.5,-0.5 95.5,-112.5 238.5,-112.5 238.5,-0.5 95.5,-0.5"/>
<text text-anchor="middle" x="167" y="-100.5" font-family="Helvetica,sans-Serif" font-size="10.00">lms7002_pnlRFE_view</text>
<polyline fill="none" stroke="black" points="95.5,-93.5 238.5,-93.5 "/>
<text text-anchor="start" x="103.5" y="-81.5" font-family="Helvetica,sans-Serif" font-size="10.00"># lmsControl</text>
<polyline fill="none" stroke="black" points="95.5,-74.5 238.5,-74.5 "/>
<text text-anchor="start" x="103.5" y="-62.5" font-family="Helvetica,sans-Serif" font-size="10.00">+ lms7002_pnlRFE_view()</text>
<text text-anchor="start" x="103.5" y="-51.5" font-family="Helvetica,sans-Serif" font-size="10.00">+ lms7002_pnlRFE_view()</text>
<text text-anchor="start" x="103.5" y="-40.5" font-family="Helvetica,sans-Serif" font-size="10.00">+ Initialize()</text>
<text text-anchor="start" x="103.5" y="-29.5" font-family="Helvetica,sans-Serif" font-size="10.00">+ UpdateGUI()</text>
<text text-anchor="start" x="103.5" y="-18.5" font-family="Helvetica,sans-Serif" font-size="10.00"># ParameterChangeHandler()</text>
<text text-anchor="start" x="103.5" y="-7.5" font-family="Helvetica,sans-Serif" font-size="10.00"># ParameterChangeHandler()</text>
</g>
<!-- Node2 -->
<g id="node2" class="node"><title>Node2</title>
<g id="a_node2"><a xlink:href="../../dc/d3b/classpnlRFE__view.html" target="_top" xlink:title="Class pnlRFE_view. ">
<polygon fill="white" stroke="black" points="4.5,-160.5 4.5,-360.5 153.5,-360.5 153.5,-160.5 4.5,-160.5"/>
<text text-anchor="middle" x="79" y="-348.5" font-family="Helvetica,sans-Serif" font-size="10.00">pnlRFE_view</text>
<polyline fill="none" stroke="black" points="4.5,-341.5 153.5,-341.5 "/>
<text text-anchor="start" x="12.5" y="-329.5" font-family="Helvetica,sans-Serif" font-size="10.00"># chkPD_LNA_RFE</text>
<text text-anchor="start" x="12.5" y="-318.5" font-family="Helvetica,sans-Serif" font-size="10.00"># chkPD_RLOOPB_1_RFE</text>
<text text-anchor="start" x="12.5" y="-307.5" font-family="Helvetica,sans-Serif" font-size="10.00"># chkPD_RLOOPB_2_RFE</text>
<text text-anchor="start" x="12.5" y="-296.5" font-family="Helvetica,sans-Serif" font-size="10.00"># chkPD_MXLOBUF_RFE</text>
<text text-anchor="start" x="12.5" y="-285.5" font-family="Helvetica,sans-Serif" font-size="10.00"># chkPD_QGEN_RFE</text>
<text text-anchor="start" x="12.5" y="-274.5" font-family="Helvetica,sans-Serif" font-size="10.00"># chkPD_RSSI_RFE</text>
<text text-anchor="start" x="12.5" y="-263.5" font-family="Helvetica,sans-Serif" font-size="10.00"># chkPD_TIA_RFE</text>
<text text-anchor="start" x="12.5" y="-252.5" font-family="Helvetica,sans-Serif" font-size="10.00"># chkEN_G_RFE</text>
<text text-anchor="start" x="12.5" y="-241.5" font-family="Helvetica,sans-Serif" font-size="10.00"># chkEN_DIR_RFE</text>
<text text-anchor="start" x="12.5" y="-230.5" font-family="Helvetica,sans-Serif" font-size="10.00"># chkEN_INSHSW_LB1_RFE</text>
<text text-anchor="start" x="12.5" y="-219.5" font-family="Helvetica,sans-Serif" font-size="10.00">and 40 more...</text>
<polyline fill="none" stroke="black" points="4.5,-212.5 153.5,-212.5 "/>
<text text-anchor="start" x="12.5" y="-200.5" font-family="Helvetica,sans-Serif" font-size="10.00">+ pnlRFE_view()</text>
<text text-anchor="start" x="12.5" y="-189.5" font-family="Helvetica,sans-Serif" font-size="10.00">+ ~pnlRFE_view()</text>
<text text-anchor="start" x="12.5" y="-178.5" font-family="Helvetica,sans-Serif" font-size="10.00"># ParameterChangeHandler()</text>
<text text-anchor="start" x="12.5" y="-167.5" font-family="Helvetica,sans-Serif" font-size="10.00"># ParameterChangeHandler()</text>
</a>
</g>
</g>
<!-- Node2&#45;&gt;Node1 -->
<g id="edge1" class="edge"><title>Node2&#45;&gt;Node1</title>
<path fill="none" stroke="midnightblue" d="M126.234,-151.076C132.013,-137.811 137.717,-124.718 142.945,-112.718"/>
<polygon fill="none" stroke="midnightblue" points="123.012,-149.71 122.227,-160.275 129.429,-152.505 123.012,-149.71"/>
</g>
<!-- Node3 -->
<g id="node3" class="node"><title>Node3</title>
<polygon fill="white" stroke="#bfbfbf" points="0,-656.5 0,-713.5 54,-713.5 54,-656.5 0,-656.5"/>
<text text-anchor="middle" x="27" y="-701.5" font-family="Helvetica,sans-Serif" font-size="10.00">wxPanel</text>
<polyline fill="none" stroke="#bfbfbf" points="0,-694.5 54,-694.5 "/>
<text text-anchor="middle" x="27" y="-682.5" font-family="Helvetica,sans-Serif" font-size="10.00"> </text>
<polyline fill="none" stroke="#bfbfbf" points="0,-675.5 54,-675.5 "/>
<text text-anchor="middle" x="27" y="-663.5" font-family="Helvetica,sans-Serif" font-size="10.00"> </text>
</g>
<!-- Node3&#45;&gt;Node2 -->
<g id="edge2" class="edge"><title>Node3&#45;&gt;Node2</title>
<path fill="none" stroke="midnightblue" d="M20.3724,-646.276C18.5787,-634.389 16.8886,-621.182 16,-609 10.9237,-539.407 4.90426,-520.89 16,-452 20.8745,-421.736 29.8421,-389.768 39.5129,-360.844"/>
<polygon fill="none" stroke="midnightblue" points="16.9419,-646.992 21.9578,-656.324 23.8564,-645.901 16.9419,-646.992"/>
</g>
<!-- Node4 -->
<g id="node4" class="node"><title>Node4</title>
<g id="a_node4"><a xlink:href="../../d9/d45/classNumericSlider.html" target="_top" xlink:title="{NumericSlider\n|# mSpinner\l# mScroll\l|+ NumericSlider()\l+ NumericSlider()\l+ ~NumericSlider()\l+ SetValue()\l+ GetValue()\l+ SetToolTip()\l# OnSpinnerChangeEnter()\l# OnSpinnerChange()\l# OnScrollChange()\l}">
<polygon fill="white" stroke="black" points="25,-452.5 25,-608.5 159,-608.5 159,-452.5 25,-452.5"/>
<text text-anchor="middle" x="92" y="-596.5" font-family="Helvetica,sans-Serif" font-size="10.00">NumericSlider</text>
<polyline fill="none" stroke="black" points="25,-589.5 159,-589.5 "/>
<text text-anchor="start" x="33" y="-577.5" font-family="Helvetica,sans-Serif" font-size="10.00"># mSpinner</text>
<text text-anchor="start" x="33" y="-566.5" font-family="Helvetica,sans-Serif" font-size="10.00"># mScroll</text>
<polyline fill="none" stroke="black" points="25,-559.5 159,-559.5 "/>
<text text-anchor="start" x="33" y="-547.5" font-family="Helvetica,sans-Serif" font-size="10.00">+ NumericSlider()</text>
<text text-anchor="start" x="33" y="-536.5" font-family="Helvetica,sans-Serif" font-size="10.00">+ NumericSlider()</text>
<text text-anchor="start" x="33" y="-525.5" font-family="Helvetica,sans-Serif" font-size="10.00">+ ~NumericSlider()</text>
<text text-anchor="start" x="33" y="-514.5" font-family="Helvetica,sans-Serif" font-size="10.00">+ SetValue()</text>
<text text-anchor="start" x="33" y="-503.5" font-family="Helvetica,sans-Serif" font-size="10.00">+ GetValue()</text>
<text text-anchor="start" x="33" y="-492.5" font-family="Helvetica,sans-Serif" font-size="10.00">+ SetToolTip()</text>
<text text-anchor="start" x="33" y="-481.5" font-family="Helvetica,sans-Serif" font-size="10.00"># OnSpinnerChangeEnter()</text>
<text text-anchor="start" x="33" y="-470.5" font-family="Helvetica,sans-Serif" font-size="10.00"># OnSpinnerChange()</text>
<text text-anchor="start" x="33" y="-459.5" font-family="Helvetica,sans-Serif" font-size="10.00"># OnScrollChange()</text>
</a>
</g>
</g>
<!-- Node3&#45;&gt;Node4 -->
<g id="edge4" class="edge"><title>Node3&#45;&gt;Node4</title>
<path fill="none" stroke="midnightblue" d="M42.7644,-647.014C47.7383,-635.345 53.4313,-621.988 59.1392,-608.596"/>
<polygon fill="none" stroke="midnightblue" points="39.4723,-645.812 38.771,-656.383 45.9118,-648.557 39.4723,-645.812"/>
</g>
<!-- Node4&#45;&gt;Node2 -->
<g id="edge3" class="edge"><title>Node4&#45;&gt;Node2</title>
<path fill="none" stroke="#404040" d="M88.2573,-452.343C87.0539,-427.535 85.6958,-399.536 84.398,-372.782"/>
<polygon fill="none" stroke="#404040" points="84.3883,-372.579 80.1022,-366.78 83.8068,-360.594 88.0928,-366.393 84.3883,-372.579"/>
<text text-anchor="middle" x="144.5" y="-426" font-family="Helvetica,sans-Serif" font-size="10.00"> #cmbCFB_TIA_RFE</text>
<text text-anchor="middle" x="144.5" y="-415" font-family="Helvetica,sans-Serif" font-size="10.00">#cmbDCOFFQ_RFE</text>
<text text-anchor="middle" x="144.5" y="-404" font-family="Helvetica,sans-Serif" font-size="10.00">#cmbDCOFFI_RFE</text>
<text text-anchor="middle" x="144.5" y="-393" font-family="Helvetica,sans-Serif" font-size="10.00">#cmbICT_TIAOUT_RFE</text>
<text text-anchor="middle" x="144.5" y="-382" font-family="Helvetica,sans-Serif" font-size="10.00">#cmbICT_TIAMAIN_RFE</text>
</g>
<!-- Node5 -->
<g id="node5" class="node"><title>Node5</title>
<polygon fill="white" stroke="#bfbfbf" points="171,-226.5 171,-294.5 283,-294.5 283,-226.5 171,-226.5"/>
<text text-anchor="start" x="179" y="-282.5" font-family="Helvetica,sans-Serif" font-size="10.00">std::map&lt; wxWindow</text>
<text text-anchor="middle" x="227" y="-271.5" font-family="Helvetica,sans-Serif" font-size="10.00"> *, LMS7Parameter &gt;</text>
<polyline fill="none" stroke="#bfbfbf" points="171,-264.5 283,-264.5 "/>
<text text-anchor="start" x="179" y="-252.5" font-family="Helvetica,sans-Serif" font-size="10.00">+ keys</text>
<polyline fill="none" stroke="#bfbfbf" points="171,-245.5 283,-245.5 "/>
<text text-anchor="middle" x="227" y="-233.5" font-family="Helvetica,sans-Serif" font-size="10.00"> </text>
</g>
<!-- Node5&#45;&gt;Node1 -->
<g id="edge5" class="edge"><title>Node5&#45;&gt;Node1</title>
<path fill="none" stroke="#404040" d="M217.092,-226.144C208.904,-198.578 197.021,-158.571 186.883,-124.44"/>
<polygon fill="none" stroke="#404040" points="186.796,-124.146 181.253,-119.534 183.379,-112.643 188.922,-117.256 186.796,-124.146"/>
<text text-anchor="middle" x="225" y="-134" font-family="Helvetica,sans-Serif" font-size="10.00"> #wndId2Enum</text>
</g>
<!-- Node6 -->
<g id="node6" class="node"><title>Node6</title>
<g id="a_node6"><a xlink:href="../../d5/d45/structLMS7Parameter.html" target="_top" xlink:title="{LMS7Parameter\n|+ address\l+ msb\l+ lsb\l+ defaultValue\l+ name\l+ tooltip\l+ msblsb\l|}">
<polygon fill="white" stroke="black" points="180.5,-469 180.5,-592 267.5,-592 267.5,-469 180.5,-469"/>
<text text-anchor="middle" x="224" y="-580" font-family="Helvetica,sans-Serif" font-size="10.00">LMS7Parameter</text>
<polyline fill="none" stroke="black" points="180.5,-573 267.5,-573 "/>
<text text-anchor="start" x="188.5" y="-561" font-family="Helvetica,sans-Serif" font-size="10.00">+ address</text>
<text text-anchor="start" x="188.5" y="-550" font-family="Helvetica,sans-Serif" font-size="10.00">+ msb</text>
<text text-anchor="start" x="188.5" y="-539" font-family="Helvetica,sans-Serif" font-size="10.00">+ lsb</text>
<text text-anchor="start" x="188.5" y="-528" font-family="Helvetica,sans-Serif" font-size="10.00">+ defaultValue</text>
<text text-anchor="start" x="188.5" y="-517" font-family="Helvetica,sans-Serif" font-size="10.00">+ name</text>
<text text-anchor="start" x="188.5" y="-506" font-family="Helvetica,sans-Serif" font-size="10.00">+ tooltip</text>
<text text-anchor="start" x="188.5" y="-495" font-family="Helvetica,sans-Serif" font-size="10.00">+ msblsb</text>
<polyline fill="none" stroke="black" points="180.5,-488 267.5,-488 "/>
<text text-anchor="middle" x="224" y="-476" font-family="Helvetica,sans-Serif" font-size="10.00"> </text>
</a>
</g>
</g>
<!-- Node6&#45;&gt;Node5 -->
<g id="edge6" class="edge"><title>Node6&#45;&gt;Node5</title>
<path fill="none" stroke="#404040" d="M224.681,-468.687C225.231,-419.526 225.994,-351.407 226.492,-306.906"/>
<polygon fill="none" stroke="#404040" points="226.494,-306.737 222.561,-300.693 226.628,-294.738 230.56,-300.783 226.494,-306.737"/>
<text text-anchor="middle" x="250.5" y="-404" font-family="Helvetica,sans-Serif" font-size="10.00"> +elements</text>
</g>
<!-- Node7 -->
<g id="node7" class="node"><title>Node7</title>
<g id="a_node7"><a xlink:title="STL class. ">
<polygon fill="white" stroke="#bfbfbf" points="286,-502 286,-559 378,-559 378,-502 286,-502"/>
<text text-anchor="middle" x="332" y="-547" font-family="Helvetica,sans-Serif" font-size="10.00">std::map&lt; K, T &gt;</text>
<polyline fill="none" stroke="#bfbfbf" points="286,-540 378,-540 "/>
<text text-anchor="middle" x="332" y="-528" font-family="Helvetica,sans-Serif" font-size="10.00"> </text>
<polyline fill="none" stroke="#bfbfbf" points="286,-521 378,-521 "/>
<text text-anchor="middle" x="332" y="-509" font-family="Helvetica,sans-Serif" font-size="10.00"> </text>
</a>
</g>
</g>
<!-- Node7&#45;&gt;Node5 -->
<g id="edge7" class="edge"><title>Node7&#45;&gt;Node5</title>
<path fill="none" stroke="orange" d="M319.688,-491.963C309.426,-461.332 294.095,-417.056 279,-379 267.567,-350.177 253.219,-318.013 242.493,-294.634"/>
<polygon fill="orange" stroke="orange" points="316.484,-493.418 322.967,-501.798 323.125,-491.205 316.484,-493.418"/>
<text text-anchor="middle" x="376.5" y="-404" font-family="Helvetica,sans-Serif" font-size="10.00"> &lt; wxWindow *, LMS7Parameter &gt;</text>
</g>
<!-- Node8 -->
<g id="node8" class="node"><title>Node8</title>
<polygon fill="white" stroke="#bfbfbf" points="290.5,-656.5 290.5,-713.5 319.5,-713.5 319.5,-656.5 290.5,-656.5"/>
<text text-anchor="middle" x="305" y="-701.5" font-family="Helvetica,sans-Serif" font-size="10.00">K</text>
<polyline fill="none" stroke="#bfbfbf" points="290.5,-694.5 319.5,-694.5 "/>
<text text-anchor="middle" x="305" y="-682.5" font-family="Helvetica,sans-Serif" font-size="10.00"> </text>
<polyline fill="none" stroke="#bfbfbf" points="290.5,-675.5 319.5,-675.5 "/>
<text text-anchor="middle" x="305" y="-663.5" font-family="Helvetica,sans-Serif" font-size="10.00"> </text>
</g>
<!-- Node8&#45;&gt;Node7 -->
<g id="edge8" class="edge"><title>Node8&#45;&gt;Node7</title>
<path fill="none" stroke="#404040" d="M304.109,-656.348C304.173,-646.99 304.644,-636.504 306,-627 308.675,-608.247 313.867,-587.935 318.913,-570.885"/>
<polygon fill="none" stroke="#404040" points="319.005,-570.587 316.94,-563.678 322.524,-559.115 324.588,-566.024 319.005,-570.587"/>
<text text-anchor="middle" x="321.5" y="-630" font-family="Helvetica,sans-Serif" font-size="10.00"> +keys</text>
</g>
<!-- Node9 -->
<g id="node9" class="node"><title>Node9</title>
<polygon fill="white" stroke="#bfbfbf" points="344.5,-656.5 344.5,-713.5 373.5,-713.5 373.5,-656.5 344.5,-656.5"/>
<text text-anchor="middle" x="359" y="-701.5" font-family="Helvetica,sans-Serif" font-size="10.00">T</text>
<polyline fill="none" stroke="#bfbfbf" points="344.5,-694.5 373.5,-694.5 "/>
<text text-anchor="middle" x="359" y="-682.5" font-family="Helvetica,sans-Serif" font-size="10.00"> </text>
<polyline fill="none" stroke="#bfbfbf" points="344.5,-675.5 373.5,-675.5 "/>
<text text-anchor="middle" x="359" y="-663.5" font-family="Helvetica,sans-Serif" font-size="10.00"> </text>
</g>
<!-- Node9&#45;&gt;Node7 -->
<g id="edge9" class="edge"><title>Node9&#45;&gt;Node7</title>
<path fill="none" stroke="#404040" d="M354.111,-656.383C349.899,-632.598 343.77,-597.977 339.032,-571.217"/>
<polygon fill="none" stroke="#404040" points="338.991,-570.985 334.006,-565.774 336.899,-559.168 341.883,-564.379 338.991,-570.985"/>
<text text-anchor="middle" x="375.5" y="-630" font-family="Helvetica,sans-Serif" font-size="10.00"> +elements</text>
</g>
</g>
</svg>
        <g id="navigator" transform="translate(0 0)" fill="#404254">
                <rect fill="#f2f5e9" fill-opacity="0.5" stroke="#606060" stroke-width=".5" x="0" y="0" width="60" height="60"/>
                <use id="zoomplus" xlink:href="#zoomPlus" x="17" y="9" onmousedown="handleZoom(evt,'in')"/>
                <use id="zoomminus" xlink:href="#zoomMin" x="42" y="9" onmousedown="handleZoom(evt,'out')"/>
                <use id="reset" xlink:href="#resetDef" x="30" y="36" onmousedown="handleReset()"/>
                <g id="arrowUp" xlink:href="#dirArrow" transform="translate(30 24)" onmousedown="handlePan(0,-1)">
                  <use xlink:href="#rim" fill="#404040">
                        <set attributeName="fill" to="#808080" begin="arrowUp.mouseover" end="arrowUp.mouseout"/>
                  </use>
                  <path fill="none" stroke="white" stroke-width="1.5" d="M0,-3.0v7 M-2.5,-0.5L0,-3.0L2.5,-0.5"/>
                </g>
                <g id="arrowRight" xlink:href="#dirArrow" transform="rotate(90) translate(36 -43)" onmousedown="handlePan(1,0)">
                  <use xlink:href="#rim" fill="#404040">
                        <set attributeName="fill" to="#808080" begin="arrowRight.mouseover" end="arrowRight.mouseout"/>
                  </use>
                  <path fill="none" stroke="white" stroke-width="1.5" d="M0,-3.0v7 M-2.5,-0.5L0,-3.0L2.5,-0.5"/>
                </g>
                <g id="arrowDown" xlink:href="#dirArrow" transform="rotate(180) translate(-30 -48)" onmousedown="handlePan(0,1)">
                  <use xlink:href="#rim" fill="#404040">
                        <set attributeName="fill" to="#808080" begin="arrowDown.mouseover" end="arrowDown.mouseout"/>
                  </use>
                  <path fill="none" stroke="white" stroke-width="1.5" d="M0,-3.0v7 M-2.5,-0.5L0,-3.0L2.5,-0.5"/>
                </g>
                <g id="arrowLeft" xlink:href="#dirArrow" transform="rotate(270) translate(-36 17)" onmousedown="handlePan(-1,0)">
                  <use xlink:href="#rim" fill="#404040">
                        <set attributeName="fill" to="#808080" begin="arrowLeft.mouseover" end="arrowLeft.mouseout"/>
                  </use>
                  <path fill="none" stroke="white" stroke-width="1.5" d="M0,-3.0v7 M-2.5,-0.5L0,-3.0L2.5,-0.5"/>
                </g>
        </g>
        <svg viewBox="0 0 15 15" width="100%" height="30px" preserveAspectRatio="xMaxYMin meet">
         <g id="arrow_out" transform="scale(0.3 0.3)">
          <a xlink:href="classlms7002__pnlRFE__view__coll__graph_org.svg" target="_base">
           <rect id="button" ry="5" rx="5" y="6" x="6" height="38" width="38"
                fill="#f2f5e9" fill-opacity="0.5" stroke="#606060" stroke-width="1.0"/>
           <path id="arrow"
             d="M 11.500037,31.436501 C 11.940474,20.09759 22.043105,11.32322 32.158766,21.979434 L 37.068811,17.246167 C 37.068811,17.246167 37.088388,32 37.088388,32 L 22.160133,31.978069 C 22.160133,31.978069 26.997745,27.140456 26.997745,27.140456 C 18.528582,18.264221 13.291696,25.230495 11.500037,31.436501 z"
             style="fill:#404040;"/>
          </a>
         </g>
        </svg>
</svg>
