<?xml version="1.0" encoding="UTF-8" standalone="no"?>
<!DOCTYPE svg PUBLIC "-//W3C//DTD SVG 1.1//EN"
 "http://www.w3.org/Graphics/SVG/1.1/DTD/svg11.dtd">
<!-- Generated by graphviz version 2.38.0 (20140413.2041)
 -->
<!-- Title: AppFrame_view::~AppFrame_view Pages: 1 -->
<svg width="773pt" height="492pt"
 viewBox="0.00 0.00 773.00 491.88" xmlns="http://www.w3.org/2000/svg" xmlns:xlink="http://www.w3.org/1999/xlink">
<g id="graph0" class="graph" transform="scale(1 1) rotate(0) translate(4 487.875)">
<title>AppFrame_view::~AppFrame_view</title>
<polygon fill="white" stroke="none" points="-4,4 -4,-487.875 769,-487.875 769,4 -4,4"/>
<!-- Node1 -->
<g id="node1" class="node"><title>Node1</title>
<polygon fill="#bfbfbf" stroke="black" points="0,-231.875 0,-250.875 170,-250.875 170,-231.875 0,-231.875"/>
<text text-anchor="middle" x="85" y="-238.875" font-family="Helvetica,sans-Serif" font-size="10.00">AppFrame_view::~AppFrame_view</text>
</g>
<!-- Node2 -->
<g id="node2" class="node"><title>Node2</title>
<g id="a_node2"><a xlink:href="../../d7/d5c/classAppFrame__view.html#af10f22b688663776103c2344c2868c6a" target="_top" xlink:title="AppFrame_view::OnAbout">
<polygon fill="white" stroke="black" points="206,-231.875 206,-250.875 337,-250.875 337,-231.875 206,-231.875"/>
<text text-anchor="middle" x="271.5" y="-238.875" font-family="Helvetica,sans-Serif" font-size="10.00">AppFrame_view::OnAbout</text>
</a>
</g>
</g>
<!-- Node1&#45;&gt;Node2 -->
<g id="edge1" class="edge"><title>Node1&#45;&gt;Node2</title>
<path fill="none" stroke="midnightblue" d="M170.151,-234.648C178.665,-234.6 187.271,-234.628 195.677,-234.733"/>
<polygon fill="midnightblue" stroke="midnightblue" points="195.755,-238.235 205.811,-234.9 195.87,-231.236 195.755,-238.235"/>
</g>
<!-- Node4 -->
<g id="node4" class="node"><title>Node4</title>
<g id="a_node4"><a xlink:href="../../d7/d5c/classAppFrame__view.html#a94c4119fa73e037ec270f2407e5cdc15" target="_top" xlink:title="AppFrame_view::OnChangeCache\lSettings">
<polygon fill="white" stroke="black" points="585,-453.375 585,-483.375 753,-483.375 753,-453.375 585,-453.375"/>
<text text-anchor="start" x="593" y="-471.375" font-family="Helvetica,sans-Serif" font-size="10.00">AppFrame_view::OnChangeCache</text>
<text text-anchor="middle" x="669" y="-460.375" font-family="Helvetica,sans-Serif" font-size="10.00">Settings</text>
</a>
</g>
</g>
<!-- Node1&#45;&gt;Node4 -->
<g id="edge17" class="edge"><title>Node1&#45;&gt;Node4</title>
<path fill="none" stroke="midnightblue" d="M90.3239,-251.112C103.334,-279.21 145.014,-360.939 206,-400.375 317.563,-472.516 475.606,-480.162 574.91,-476.323"/>
<polygon fill="midnightblue" stroke="midnightblue" points="575.09,-479.818 584.929,-475.889 574.787,-472.825 575.09,-479.818"/>
</g>
<!-- Node5 -->
<g id="node5" class="node"><title>Node5</title>
<g id="a_node5"><a xlink:href="../../d7/d5c/classAppFrame__view.html#a8004c141a6a6a8cd0a434d60df504d85" target="_top" xlink:title="AppFrame_view::OnClose">
<polygon fill="white" stroke="black" points="603.5,-414.875 603.5,-433.875 734.5,-433.875 734.5,-414.875 603.5,-414.875"/>
<text text-anchor="middle" x="669" y="-421.875" font-family="Helvetica,sans-Serif" font-size="10.00">AppFrame_view::OnClose</text>
</a>
</g>
</g>
<!-- Node1&#45;&gt;Node5 -->
<g id="edge18" class="edge"><title>Node1&#45;&gt;Node5</title>
<path fill="none" stroke="midnightblue" d="M92.495,-251.136C108.629,-274.536 153.074,-333.987 206,-362.375 329.512,-428.624 497.356,-433.611 593.019,-429.906"/>
<polygon fill="midnightblue" stroke="midnightblue" points="593.343,-433.395 603.183,-429.469 593.042,-426.402 593.343,-433.395"/>
</g>
<!-- Node6 -->
<g id="node6" class="node"><title>Node6</title>
<g id="a_node6"><a xlink:href="../../d7/d5c/classAppFrame__view.html#a0c39e3b8801c866f9267a30ad1b8e9df" target="_top" xlink:title="AppFrame_view::OnQuit">
<polygon fill="white" stroke="black" points="607,-376.875 607,-395.875 731,-395.875 731,-376.875 607,-376.875"/>
<text text-anchor="middle" x="669" y="-383.875" font-family="Helvetica,sans-Serif" font-size="10.00">AppFrame_view::OnQuit</text>
</a>
</g>
</g>
<!-- Node1&#45;&gt;Node6 -->
<g id="edge19" class="edge"><title>Node1&#45;&gt;Node6</title>
<path fill="none" stroke="midnightblue" d="M95.8828,-251.151C115.195,-269.613 160.082,-309.453 206,-328.375 336.213,-382.033 503.165,-389.52 596.544,-388.828"/>
<polygon fill="midnightblue" stroke="midnightblue" points="596.768,-392.326 606.73,-388.717 596.693,-385.326 596.768,-392.326"/>
</g>
<!-- Node7 -->
<g id="node7" class="node"><title>Node7</title>
<g id="a_node7"><a xlink:href="../../d7/d5c/classAppFrame__view.html#a5808aecf97c36ba5d6532f82ac77117d" target="_top" xlink:title="AppFrame_view::OnShowADF4002">
<polygon fill="white" stroke="black" points="583,-338.875 583,-357.875 755,-357.875 755,-338.875 583,-338.875"/>
<text text-anchor="middle" x="669" y="-345.875" font-family="Helvetica,sans-Serif" font-size="10.00">AppFrame_view::OnShowADF4002</text>
</a>
</g>
</g>
<!-- Node1&#45;&gt;Node7 -->
<g id="edge20" class="edge"><title>Node1&#45;&gt;Node7</title>
<path fill="none" stroke="midnightblue" d="M101.2,-251.058C123.308,-264.616 166.066,-288.882 206,-300.375 329.37,-335.883 477.966,-345.791 572.703,-348.207"/>
<polygon fill="midnightblue" stroke="midnightblue" points="572.762,-351.709 582.841,-348.442 572.925,-344.711 572.762,-351.709"/>
</g>
<!-- Node8 -->
<g id="node8" class="node"><title>Node8</title>
<g id="a_node8"><a xlink:href="../../d7/d5c/classAppFrame__view.html#a60c8aa26e31339b58e9478eef369927b" target="_top" xlink:title="AppFrame_view::OnShowBoard\lControls">
<polygon fill="white" stroke="black" points="591,-289.375 591,-319.375 747,-319.375 747,-289.375 591,-289.375"/>
<text text-anchor="start" x="599" y="-307.375" font-family="Helvetica,sans-Serif" font-size="10.00">AppFrame_view::OnShowBoard</text>
<text text-anchor="middle" x="669" y="-296.375" font-family="Helvetica,sans-Serif" font-size="10.00">Controls</text>
</a>
</g>
</g>
<!-- Node1&#45;&gt;Node8 -->
<g id="edge21" class="edge"><title>Node1&#45;&gt;Node8</title>
<path fill="none" stroke="midnightblue" d="M111.794,-251.025C135.813,-259.548 172.801,-271.508 206,-277.375 335.071,-300.185 487.251,-304.888 580.676,-305.299"/>
<polygon fill="midnightblue" stroke="midnightblue" points="580.92,-308.799 590.93,-305.327 580.94,-301.799 580.92,-308.799"/>
</g>
<!-- Node9 -->
<g id="node9" class="node"><title>Node9</title>
<g id="a_node9"><a xlink:href="../../d7/d5c/classAppFrame__view.html#a8cd10d9c722ded48f6387f1b940c2ac4" target="_top" xlink:title="AppFrame_view::OnShowConnection\lSettings">
<polygon fill="white" stroke="black" points="579,-239.375 579,-269.375 759,-269.375 759,-239.375 579,-239.375"/>
<text text-anchor="start" x="587" y="-257.375" font-family="Helvetica,sans-Serif" font-size="10.00">AppFrame_view::OnShowConnection</text>
<text text-anchor="middle" x="669" y="-246.375" font-family="Helvetica,sans-Serif" font-size="10.00">Settings</text>
</a>
</g>
</g>
<!-- Node1&#45;&gt;Node9 -->
<g id="edge22" class="edge"><title>Node1&#45;&gt;Node9</title>
<path fill="none" stroke="midnightblue" d="M134.836,-250.888C156.536,-254.654 182.449,-258.522 206,-260.375 330.801,-270.194 475.136,-265.812 568.808,-260.893"/>
<polygon fill="midnightblue" stroke="midnightblue" points="569.045,-264.386 578.842,-260.354 568.669,-257.396 569.045,-264.386"/>
</g>
<!-- Node10 -->
<g id="node10" class="node"><title>Node10</title>
<g id="a_node10"><a xlink:href="../../d7/d5c/classAppFrame__view.html#aa304c99c6e90a3565edd04d95481782e" target="_top" xlink:title="AppFrame_view::OnShowDeviceInfo">
<polygon fill="white" stroke="black" points="580,-199.875 580,-218.875 758,-218.875 758,-199.875 580,-199.875"/>
<text text-anchor="middle" x="669" y="-206.875" font-family="Helvetica,sans-Serif" font-size="10.00">AppFrame_view::OnShowDeviceInfo</text>
</a>
</g>
</g>
<!-- Node1&#45;&gt;Node10 -->
<g id="edge23" class="edge"><title>Node1&#45;&gt;Node10</title>
<path fill="none" stroke="midnightblue" d="M136.91,-231.828C158.185,-228.226 183.212,-224.491 206,-222.375 331.075,-210.763 475.942,-208.491 569.625,-208.479"/>
<polygon fill="midnightblue" stroke="midnightblue" points="569.655,-211.979 579.658,-208.486 569.661,-204.979 569.655,-211.979"/>
</g>
<!-- Node11 -->
<g id="node11" class="node"><title>Node11</title>
<g id="a_node11"><a xlink:href="../../d7/d5c/classAppFrame__view.html#a9dd4e0820967ee889667970791e4abbb" target="_top" xlink:title="AppFrame_view::OnShowFFTviewer">
<polygon fill="white" stroke="black" points="580.5,-159.875 580.5,-178.875 757.5,-178.875 757.5,-159.875 580.5,-159.875"/>
<text text-anchor="middle" x="669" y="-166.875" font-family="Helvetica,sans-Serif" font-size="10.00">AppFrame_view::OnShowFFTviewer</text>
</a>
</g>
</g>
<!-- Node1&#45;&gt;Node11 -->
<g id="edge24" class="edge"><title>Node1&#45;&gt;Node11</title>
<path fill="none" stroke="midnightblue" d="M117.275,-231.788C141.313,-224.788 175.465,-215.637 206,-210.375 330.608,-188.901 476.176,-178.345 570.107,-173.392"/>
<polygon fill="midnightblue" stroke="midnightblue" points="570.36,-176.884 580.166,-172.873 569.999,-169.893 570.36,-176.884"/>
</g>
<!-- Node12 -->
<g id="node12" class="node"><title>Node12</title>
<g id="a_node12"><a xlink:href="../../d7/d5c/classAppFrame__view.html#abb9bc424ff5d94cffd42b553026919be" target="_top" xlink:title="AppFrame_view::OnShowFPGAcontrols">
<polygon fill="white" stroke="black" points="573,-117.875 573,-136.875 765,-136.875 765,-117.875 573,-117.875"/>
<text text-anchor="middle" x="669" y="-124.875" font-family="Helvetica,sans-Serif" font-size="10.00">AppFrame_view::OnShowFPGAcontrols</text>
</a>
</g>
</g>
<!-- Node1&#45;&gt;Node12 -->
<g id="edge25" class="edge"><title>Node1&#45;&gt;Node12</title>
<path fill="none" stroke="midnightblue" d="M103.728,-231.839C126.658,-219.945 168.155,-199.896 206,-189.375 325.615,-156.122 467.778,-140.459 562.511,-133.245"/>
<polygon fill="midnightblue" stroke="midnightblue" points="562.961,-136.721 572.674,-132.489 562.442,-129.74 562.961,-136.721"/>
</g>
<!-- Node13 -->
<g id="node13" class="node"><title>Node13</title>
<g id="a_node13"><a xlink:href="../../d7/d5c/classAppFrame__view.html#a8fa6d438493af0451ddb1be8ad1b0d50" target="_top" xlink:title="AppFrame_view::OnShowPrograming">
<polygon fill="white" stroke="black" points="579,-79.8752 579,-98.8752 759,-98.8752 759,-79.8752 579,-79.8752"/>
<text text-anchor="middle" x="669" y="-86.8752" font-family="Helvetica,sans-Serif" font-size="10.00">AppFrame_view::OnShowPrograming</text>
</a>
</g>
</g>
<!-- Node1&#45;&gt;Node13 -->
<g id="edge26" class="edge"><title>Node1&#45;&gt;Node13</title>
<path fill="none" stroke="midnightblue" d="M96.2806,-231.787C115.915,-214.078 160.83,-176.405 206,-158.375 324.818,-110.948 472.633,-95.7709 568.59,-91.1069"/>
<polygon fill="midnightblue" stroke="midnightblue" points="569.039,-94.5901 578.869,-90.6379 568.72,-87.5974 569.039,-94.5901"/>
</g>
<!-- Node14 -->
<g id="node14" class="node"><title>Node14</title>
<g id="a_node14"><a xlink:href="../../d7/d5c/classAppFrame__view.html#a92d16ca17cfab97707264b3507ddbfee" target="_top" xlink:title="AppFrame_view::OnShowSi5351C">
<polygon fill="white" stroke="black" points="585,-41.8752 585,-60.8752 753,-60.8752 753,-41.8752 585,-41.8752"/>
<text text-anchor="middle" x="669" y="-48.8752" font-family="Helvetica,sans-Serif" font-size="10.00">AppFrame_view::OnShowSi5351C</text>
</a>
</g>
</g>
<!-- Node1&#45;&gt;Node14 -->
<g id="edge27" class="edge"><title>Node1&#45;&gt;Node14</title>
<path fill="none" stroke="midnightblue" d="M92.1771,-231.723C107.924,-208.005 152.154,-146.74 206,-118.375 322.523,-56.9935 477.268,-46.5415 574.761,-47.0949"/>
<polygon fill="midnightblue" stroke="midnightblue" points="574.859,-50.5959 584.892,-47.1932 574.927,-43.5962 574.859,-50.5959"/>
</g>
<!-- Node15 -->
<g id="node15" class="node"><title>Node15</title>
<g id="a_node15"><a xlink:href="../../d7/d5c/classAppFrame__view.html#a650479d89368a9d7f8a251fb51eae0d3" target="_top" xlink:title="AppFrame_view::OnShowSPI">
<polygon fill="white" stroke="black" points="595.5,-3.8752 595.5,-22.8752 742.5,-22.8752 742.5,-3.8752 595.5,-3.8752"/>
<text text-anchor="middle" x="669" y="-10.8752" font-family="Helvetica,sans-Serif" font-size="10.00">AppFrame_view::OnShowSPI</text>
</a>
</g>
</g>
<!-- Node1&#45;&gt;Node15 -->
<g id="edge28" class="edge"><title>Node1&#45;&gt;Node15</title>
<path fill="none" stroke="midnightblue" d="M89.4137,-231.836C100.677,-201.889 139.769,-109.305 206,-68.3752 322.469,3.60124 487.245,4.37611 585.299,-3.31754"/>
<polygon fill="midnightblue" stroke="midnightblue" points="585.198,-6.82111 595.454,-4.1634 585.779,0.154731 585.198,-6.82111"/>
</g>
<!-- Node2&#45;&gt;Node1 -->
<g id="edge16" class="edge"><title>Node2&#45;&gt;Node1</title>
<path fill="none" stroke="midnightblue" d="M205.811,-247.85C197.526,-248.02 188.915,-248.111 180.281,-248.124"/>
<polygon fill="midnightblue" stroke="midnightblue" points="180.159,-244.624 170.151,-248.102 180.144,-251.624 180.159,-244.624"/>
</g>
<!-- Node3 -->
<g id="node3" class="node"><title>Node3</title>
<g id="a_node3"><a xlink:href="../../d7/d5c/classAppFrame__view.html#a96ad0318436975e6acc3b9eb9f51052b" target="_top" xlink:title="AppFrame_view::AppFrame_view">
<polygon fill="white" stroke="black" points="373,-231.875 373,-250.875 537,-250.875 537,-231.875 373,-231.875"/>
<text text-anchor="middle" x="455" y="-238.875" font-family="Helvetica,sans-Serif" font-size="10.00">AppFrame_view::AppFrame_view</text>
</a>
</g>
</g>
<!-- Node2&#45;&gt;Node3 -->
<g id="edge2" class="edge"><title>Node2&#45;&gt;Node3</title>
<path fill="none" stroke="midnightblue" d="M337.001,-234.883C345.35,-234.715 354.023,-234.629 362.703,-234.625"/>
<polygon fill="midnightblue" stroke="midnightblue" points="362.864,-238.126 372.876,-234.659 362.887,-231.126 362.864,-238.126"/>
</g>
<!-- Node3&#45;&gt;Node2 -->
<g id="edge3" class="edge"><title>Node3&#45;&gt;Node2</title>
<path fill="none" stroke="midnightblue" d="M372.876,-248.091C364.333,-248.152 355.676,-248.131 347.211,-248.031"/>
<polygon fill="midnightblue" stroke="midnightblue" points="347.056,-244.528 337.001,-247.868 346.944,-251.527 347.056,-244.528"/>
</g>
<!-- Node3&#45;&gt;Node4 -->
<g id="edge4" class="edge"><title>Node3&#45;&gt;Node4</title>
<path fill="none" stroke="midnightblue" d="M458.711,-251.193C468.283,-283.972 503.717,-390.535 573,-443.375 575.352,-445.169 577.821,-446.834 580.381,-448.381"/>
<polygon fill="midnightblue" stroke="midnightblue" points="578.925,-451.571 589.396,-453.192 582.222,-445.396 578.925,-451.571"/>
</g>
<!-- Node3&#45;&gt;Node5 -->
<g id="edge5" class="edge"><title>Node3&#45;&gt;Node5</title>
<path fill="none" stroke="midnightblue" d="M459.831,-251.08C471.735,-279.871 511.04,-365.287 573,-405.375 579.214,-409.395 586.098,-412.595 593.238,-415.137"/>
<polygon fill="midnightblue" stroke="midnightblue" points="592.507,-418.575 603.095,-418.212 594.591,-411.893 592.507,-418.575"/>
</g>
<!-- Node3&#45;&gt;Node6 -->
<g id="edge6" class="edge"><title>Node3&#45;&gt;Node6</title>
<path fill="none" stroke="midnightblue" d="M461.942,-251.18C477.112,-275.289 519.85,-337.652 573,-367.375 580.386,-371.506 588.538,-374.746 596.87,-377.288"/>
<polygon fill="midnightblue" stroke="midnightblue" points="596.13,-380.714 606.698,-379.961 597.968,-373.959 596.13,-380.714"/>
</g>
<!-- Node3&#45;&gt;Node7 -->
<g id="edge7" class="edge"><title>Node3&#45;&gt;Node7</title>
<path fill="none" stroke="midnightblue" d="M465.678,-250.941C484.579,-269.046 528.461,-308.301 573,-328.375 579.655,-331.375 586.778,-333.932 594.02,-336.11"/>
<polygon fill="midnightblue" stroke="midnightblue" points="593.364,-339.56 603.935,-338.852 595.23,-332.814 593.364,-339.56"/>
</g>
<!-- Node3&#45;&gt;Node8 -->
<g id="edge8" class="edge"><title>Node3&#45;&gt;Node8</title>
<path fill="none" stroke="midnightblue" d="M485.233,-250.97C508.842,-258.633 542.962,-269.519 573,-278.375 582.349,-281.132 592.244,-283.95 601.979,-286.665"/>
<polygon fill="midnightblue" stroke="midnightblue" points="601.063,-290.043 611.635,-289.34 602.932,-283.297 601.063,-290.043"/>
</g>
<!-- Node3&#45;&gt;Node9 -->
<g id="edge9" class="edge"><title>Node3&#45;&gt;Node9</title>
<path fill="none" stroke="midnightblue" d="M537.056,-246.346C547.42,-246.981 558.121,-247.637 568.732,-248.288"/>
<polygon fill="midnightblue" stroke="midnightblue" points="568.668,-251.791 578.864,-248.909 569.097,-244.804 568.668,-251.791"/>
</g>
<!-- Node3&#45;&gt;Node10 -->
<g id="edge10" class="edge"><title>Node3&#45;&gt;Node10</title>
<path fill="none" stroke="midnightblue" d="M519.033,-231.861C542.848,-228.266 570.146,-224.146 594.814,-220.422"/>
<polygon fill="midnightblue" stroke="midnightblue" points="595.478,-223.862 604.844,-218.908 594.433,-216.94 595.478,-223.862"/>
</g>
<!-- Node3&#45;&gt;Node11 -->
<g id="edge11" class="edge"><title>Node3&#45;&gt;Node11</title>
<path fill="none" stroke="midnightblue" d="M475.015,-231.719C497.805,-220.47 537.387,-201.953 573,-190.375 583.685,-186.902 595.231,-183.816 606.469,-181.15"/>
<polygon fill="midnightblue" stroke="midnightblue" points="607.268,-184.558 616.236,-178.916 605.708,-177.734 607.268,-184.558"/>
</g>
<!-- Node3&#45;&gt;Node12 -->
<g id="edge12" class="edge"><title>Node3&#45;&gt;Node12</title>
<path fill="none" stroke="midnightblue" d="M465.351,-231.763C484.028,-213.137 528.032,-172.058 573,-150.375 581.942,-146.064 591.758,-142.521 601.582,-139.622"/>
<polygon fill="midnightblue" stroke="midnightblue" points="602.66,-142.956 611.376,-136.933 600.806,-136.206 602.66,-142.956"/>
</g>
<!-- Node3&#45;&gt;Node13 -->
<g id="edge13" class="edge"><title>Node3&#45;&gt;Node13</title>
<path fill="none" stroke="midnightblue" d="M461.367,-231.76C475.806,-206.864 518.128,-140.038 573,-108.375 576.874,-106.14 580.969,-104.164 585.196,-102.417"/>
<polygon fill="midnightblue" stroke="midnightblue" points="586.45,-105.685 594.628,-98.9491 584.035,-99.1151 586.45,-105.685"/>
</g>
<!-- Node3&#45;&gt;Node14 -->
<g id="edge14" class="edge"><title>Node3&#45;&gt;Node14</title>
<path fill="none" stroke="midnightblue" d="M459.543,-231.684C470.894,-202.101 509.382,-112.427 573,-70.3752 575.966,-68.4145 579.091,-66.648 582.326,-65.0571"/>
<polygon fill="midnightblue" stroke="midnightblue" points="583.9,-68.1902 591.703,-61.0228 581.134,-61.7601 583.9,-68.1902"/>
</g>
<!-- Node3&#45;&gt;Node15 -->
<g id="edge15" class="edge"><title>Node3&#45;&gt;Node15</title>
<path fill="none" stroke="midnightblue" d="M458.357,-231.532C467.008,-197.677 500.366,-85.2142 573,-32.3752 576.957,-29.4965 581.242,-27.0267 585.729,-24.9101"/>
<polygon fill="midnightblue" stroke="midnightblue" points="587.251,-28.0689 595.182,-21.0435 584.601,-21.5899 587.251,-28.0689"/>
</g>
</g>
</svg>
