<?xml version="1.0" encoding="UTF-8" standalone="no"?>
<!DOCTYPE svg PUBLIC "-//W3C//DTD SVG 1.1//EN"
 "http://www.w3.org/Graphics/SVG/1.1/DTD/svg11.dtd">
<!-- Generated by graphviz version 2.38.0 (20140413.2041)
 -->
<!-- Title: /home/erik/prefix/default/src/limesuite&#45;dev/src/lms7002_wxgui/dlgViewIRAM.h Pages: 1 -->
<svg width="166pt" height="106pt"
 viewBox="0.00 0.00 166.00 106.00" xmlns="http://www.w3.org/2000/svg" xmlns:xlink="http://www.w3.org/1999/xlink">
<g id="graph0" class="graph" transform="scale(1 1) rotate(0) translate(4 102)">
<title>/home/erik/prefix/default/src/limesuite&#45;dev/src/lms7002_wxgui/dlgViewIRAM.h</title>
<polygon fill="white" stroke="none" points="-4,4 -4,-102 162,-102 162,4 -4,4"/>
<!-- Node1 -->
<g id="node1" class="node"><title>Node1</title>
<polygon fill="#bfbfbf" stroke="black" points="-1.42109e-14,-56.5 -1.42109e-14,-97.5 158,-97.5 158,-56.5 -1.42109e-14,-56.5"/>
<text text-anchor="start" x="8" y="-85.5" font-family="Helvetica,sans-Serif" font-size="10.00">/home/erik/prefix/default</text>
<text text-anchor="start" x="8" y="-74.5" font-family="Helvetica,sans-Serif" font-size="10.00">/src/limesuite&#45;dev/src</text>
<text text-anchor="middle" x="79" y="-63.5" font-family="Helvetica,sans-Serif" font-size="10.00">/lms7002_wxgui/dlgViewIRAM.h</text>
</g>
<!-- Node2 -->
<g id="node2" class="node"><title>Node2</title>
<polygon fill="white" stroke="#bfbfbf" points="10,-0.5 10,-19.5 76,-19.5 76,-0.5 10,-0.5"/>
<text text-anchor="middle" x="43" y="-7.5" font-family="Helvetica,sans-Serif" font-size="10.00">wx/dialog.h</text>
</g>
<!-- Node1&#45;&gt;Node2 -->
<g id="edge1" class="edge"><title>Node1&#45;&gt;Node2</title>
<path fill="none" stroke="midnightblue" d="M68.1988,-56.4979C63.2631,-47.5862 57.4629,-37.1135 52.6721,-28.4636"/>
<polygon fill="midnightblue" stroke="midnightblue" points="55.699,-26.7046 47.7921,-19.6525 49.5754,-30.0962 55.699,-26.7046"/>
</g>
<!-- Node3 -->
<g id="node3" class="node"><title>Node3</title>
<polygon fill="white" stroke="#bfbfbf" points="94,-0.5 94,-19.5 138,-19.5 138,-0.5 94,-0.5"/>
<text text-anchor="middle" x="116" y="-7.5" font-family="Helvetica,sans-Serif" font-size="10.00">vector</text>
</g>
<!-- Node1&#45;&gt;Node3 -->
<g id="edge2" class="edge"><title>Node1&#45;&gt;Node3</title>
<path fill="none" stroke="midnightblue" d="M90.1012,-56.4979C95.174,-47.5862 101.135,-37.1135 106.059,-28.4636"/>
<polygon fill="midnightblue" stroke="midnightblue" points="109.169,-30.0746 111.075,-19.6525 103.086,-26.6117 109.169,-30.0746"/>
</g>
</g>
</svg>
