<?xml version="1.0" encoding="UTF-8" standalone="no"?>
<!DOCTYPE svg PUBLIC "-//W3C//DTD SVG 1.1//EN"
 "http://www.w3.org/Graphics/SVG/1.1/DTD/svg11.dtd">
<!-- Generated by graphviz version 2.38.0 (20140413.2041)
 -->
<!-- Title: /home/erik/prefix/default/src/limesuite&#45;dev/src/ADF4002/ADF4002.cpp Pages: 1 -->
<svg width="219pt" height="162pt"
 viewBox="0.00 0.00 219.00 162.00" xmlns="http://www.w3.org/2000/svg" xmlns:xlink="http://www.w3.org/1999/xlink">
<g id="graph0" class="graph" transform="scale(1 1) rotate(0) translate(4 158)">
<title>/home/erik/prefix/default/src/limesuite&#45;dev/src/ADF4002/ADF4002.cpp</title>
<polygon fill="white" stroke="none" points="-4,4 -4,-158 215,-158 215,4 -4,4"/>
<!-- Node1 -->
<g id="node1" class="node"><title>Node1</title>
<polygon fill="#bfbfbf" stroke="black" points="59.5,-112.5 59.5,-153.5 183.5,-153.5 183.5,-112.5 59.5,-112.5"/>
<text text-anchor="start" x="67.5" y="-141.5" font-family="Helvetica,sans-Serif" font-size="10.00">/home/erik/prefix/default</text>
<text text-anchor="start" x="67.5" y="-130.5" font-family="Helvetica,sans-Serif" font-size="10.00">/src/limesuite&#45;dev/src</text>
<text text-anchor="middle" x="121.5" y="-119.5" font-family="Helvetica,sans-Serif" font-size="10.00">/ADF4002/ADF4002.cpp</text>
</g>
<!-- Node2 -->
<g id="node2" class="node"><title>Node2</title>
<g id="a_node2"><a xlink:href="../../d2/ddb/ADF4002_8h.html" target="_top" xlink:title="Header for ADF_module.cpp. ">
<polygon fill="white" stroke="black" points="15.5,-56.5 15.5,-75.5 81.5,-75.5 81.5,-56.5 15.5,-56.5"/>
<text text-anchor="middle" x="48.5" y="-63.5" font-family="Helvetica,sans-Serif" font-size="10.00">ADF4002.h</text>
</a>
</g>
</g>
<!-- Node1&#45;&gt;Node2 -->
<g id="edge1" class="edge"><title>Node1&#45;&gt;Node2</title>
<path fill="none" stroke="midnightblue" d="M99.5976,-112.498C88.8358,-102.915 76.0469,-91.5281 65.9558,-82.5428"/>
<polygon fill="midnightblue" stroke="midnightblue" points="68.0134,-79.6885 58.2174,-75.6525 63.3584,-84.9165 68.0134,-79.6885"/>
</g>
<!-- Node4 -->
<g id="node4" class="node"><title>Node4</title>
<polygon fill="white" stroke="#bfbfbf" points="99.5,-56.5 99.5,-75.5 143.5,-75.5 143.5,-56.5 99.5,-56.5"/>
<text text-anchor="middle" x="121.5" y="-63.5" font-family="Helvetica,sans-Serif" font-size="10.00">cmath</text>
</g>
<!-- Node1&#45;&gt;Node4 -->
<g id="edge3" class="edge"><title>Node1&#45;&gt;Node4</title>
<path fill="none" stroke="midnightblue" d="M121.5,-112.498C121.5,-104.065 121.5,-94.2351 121.5,-85.874"/>
<polygon fill="midnightblue" stroke="midnightblue" points="125,-85.6525 121.5,-75.6525 118,-85.6525 125,-85.6525"/>
</g>
<!-- Node5 -->
<g id="node5" class="node"><title>Node5</title>
<polygon fill="white" stroke="#bfbfbf" points="162,-56.5 162,-75.5 211,-75.5 211,-56.5 162,-56.5"/>
<text text-anchor="middle" x="186.5" y="-63.5" font-family="Helvetica,sans-Serif" font-size="10.00">string.h</text>
</g>
<!-- Node1&#45;&gt;Node5 -->
<g id="edge4" class="edge"><title>Node1&#45;&gt;Node5</title>
<path fill="none" stroke="midnightblue" d="M141.002,-112.498C150.489,-103.011 161.744,-91.7557 170.687,-82.8131"/>
<polygon fill="midnightblue" stroke="midnightblue" points="173.251,-85.1985 177.848,-75.6525 168.302,-80.2487 173.251,-85.1985"/>
</g>
<!-- Node3 -->
<g id="node3" class="node"><title>Node3</title>
<g id="a_node3"><a xlink:href="../../dd/d40/LimeSuiteConfig_8h.html" target="_top" xlink:title="Configuration constants and macros for lime suite library. ">
<polygon fill="white" stroke="black" points="-7.10543e-15,-0.5 -7.10543e-15,-19.5 97,-19.5 97,-0.5 -7.10543e-15,-0.5"/>
<text text-anchor="middle" x="48.5" y="-7.5" font-family="Helvetica,sans-Serif" font-size="10.00">LimeSuiteConfig.h</text>
</a>
</g>
</g>
<!-- Node2&#45;&gt;Node3 -->
<g id="edge2" class="edge"><title>Node2&#45;&gt;Node3</title>
<path fill="none" stroke="midnightblue" d="M48.5,-56.083C48.5,-49.0059 48.5,-38.8611 48.5,-29.9865"/>
<polygon fill="midnightblue" stroke="midnightblue" points="52.0001,-29.751 48.5,-19.7511 45.0001,-29.7511 52.0001,-29.751"/>
</g>
</g>
</svg>
