<?xml version="1.0" encoding="UTF-8" standalone="no"?>
<!DOCTYPE svg PUBLIC "-//W3C//DTD SVG 1.1//EN"
 "http://www.w3.org/Graphics/SVG/1.1/DTD/svg11.dtd">
<!-- Generated by graphviz version 2.38.0 (20140413.2041)
 -->
<!-- Title: lms7002_pnlTxTSP_view::OnbtnLoadDCIClick Pages: 1 -->
<svg width="695pt" height="560pt"
 viewBox="0.00 0.00 695.00 560.00" xmlns="http://www.w3.org/2000/svg" xmlns:xlink="http://www.w3.org/1999/xlink">
<g id="graph0" class="graph" transform="scale(1 1) rotate(0) translate(4 556)">
<title>lms7002_pnlTxTSP_view::OnbtnLoadDCIClick</title>
<polygon fill="white" stroke="none" points="-4,4 -4,-556 691,-556 691,4 -4,4"/>
<!-- Node1 -->
<g id="node1" class="node"><title>Node1</title>
<polygon fill="#bfbfbf" stroke="black" points="0,-109 0,-139 128,-139 128,-109 0,-109"/>
<text text-anchor="start" x="8" y="-127" font-family="Helvetica,sans-Serif" font-size="10.00">lms7002_pnlTxTSP_view</text>
<text text-anchor="middle" x="64" y="-116" font-family="Helvetica,sans-Serif" font-size="10.00">::OnbtnLoadDCIClick</text>
</g>
<!-- Node2 -->
<g id="node2" class="node"><title>Node2</title>
<g id="a_node2"><a xlink:href="../../df/de1/lms7__api_8cpp.html#a29da2b25b3336c31d75b70bb4eb32673" target="_top" xlink:title="LMS_WriteParam">
<polygon fill="white" stroke="black" points="164,-114.5 164,-133.5 258,-133.5 258,-114.5 164,-114.5"/>
<text text-anchor="middle" x="211" y="-121.5" font-family="Helvetica,sans-Serif" font-size="10.00">LMS_WriteParam</text>
</a>
</g>
</g>
<!-- Node1&#45;&gt;Node2 -->
<g id="edge1" class="edge"><title>Node1&#45;&gt;Node2</title>
<path fill="none" stroke="midnightblue" d="M128.177,-124C136.548,-124 145.088,-124 153.34,-124"/>
<polygon fill="midnightblue" stroke="midnightblue" points="153.604,-127.5 163.604,-124 153.604,-120.5 153.604,-127.5"/>
</g>
<!-- Node3 -->
<g id="node3" class="node"><title>Node3</title>
<g id="a_node3"><a xlink:href="../../d4/d67/lms_8c.html#a0e01e477b1f10e0a63e54de2dd2f8240" target="_top" xlink:title="lms">
<polygon fill="white" stroke="black" points="332,-266.5 332,-285.5 364,-285.5 364,-266.5 332,-266.5"/>
<text text-anchor="middle" x="348" y="-273.5" font-family="Helvetica,sans-Serif" font-size="10.00">lms</text>
</a>
</g>
</g>
<!-- Node2&#45;&gt;Node3 -->
<g id="edge2" class="edge"><title>Node2&#45;&gt;Node3</title>
<path fill="none" stroke="midnightblue" d="M220.445,-133.508C242.7,-158.566 303.2,-226.684 331.727,-258.804"/>
<polygon fill="midnightblue" stroke="midnightblue" points="329.301,-261.343 338.558,-266.495 334.535,-256.694 329.301,-261.343"/>
</g>
<!-- Node23 -->
<g id="node23" class="node"><title>Node23</title>
<g id="a_node23"><a xlink:href="../../d5/d6c/namespacelime.html#adc6af0cf8e0a70f3ef09fac1244f8c48" target="_top" xlink:title="lime::ReportError">
<polygon fill="white" stroke="black" points="302.5,-114.5 302.5,-133.5 393.5,-133.5 393.5,-114.5 302.5,-114.5"/>
<text text-anchor="middle" x="348" y="-121.5" font-family="Helvetica,sans-Serif" font-size="10.00">lime::ReportError</text>
</a>
</g>
</g>
<!-- Node2&#45;&gt;Node23 -->
<g id="edge25" class="edge"><title>Node2&#45;&gt;Node23</title>
<path fill="none" stroke="midnightblue" d="M258.082,-124C269.076,-124 280.916,-124 292.258,-124"/>
<polygon fill="midnightblue" stroke="midnightblue" points="292.495,-127.5 302.495,-124 292.495,-120.5 292.495,-127.5"/>
</g>
<!-- Node25 -->
<g id="node25" class="node"><title>Node25</title>
<g id="a_node25"><a xlink:href="../../d3/d22/classlime_1_1LMS7__Device.html#a874b61636f61cb998f9d01a69ba9991a" target="_top" xlink:title="lime::LMS7_Device::\lWriteParam">
<polygon fill="white" stroke="black" points="294,-65 294,-95 402,-95 402,-65 294,-65"/>
<text text-anchor="start" x="302" y="-83" font-family="Helvetica,sans-Serif" font-size="10.00">lime::LMS7_Device::</text>
<text text-anchor="middle" x="348" y="-72" font-family="Helvetica,sans-Serif" font-size="10.00">WriteParam</text>
</a>
</g>
</g>
<!-- Node2&#45;&gt;Node25 -->
<g id="edge27" class="edge"><title>Node2&#45;&gt;Node25</title>
<path fill="none" stroke="midnightblue" d="M241.293,-114.453C255.814,-109.72 273.852,-103.841 290.893,-98.2868"/>
<polygon fill="midnightblue" stroke="midnightblue" points="292.354,-101.492 300.777,-95.0654 290.184,-94.8365 292.354,-101.492"/>
</g>
<!-- Node4 -->
<g id="node4" class="node"><title>Node4</title>
<g id="a_node4"><a xlink:href="../../d4/d67/lms_8c.html#a433227191fe883dcb8aa15d291bb29a1" target="_top" xlink:title="Case1F">
<polygon fill="white" stroke="black" points="446.5,-532.5 446.5,-551.5 497.5,-551.5 497.5,-532.5 446.5,-532.5"/>
<text text-anchor="middle" x="472" y="-539.5" font-family="Helvetica,sans-Serif" font-size="10.00">Case1F</text>
</a>
</g>
</g>
<!-- Node3&#45;&gt;Node4 -->
<g id="edge3" class="edge"><title>Node3&#45;&gt;Node4</title>
<path fill="none" stroke="midnightblue" d="M350.084,-285.675C354.522,-321.269 374.206,-446.816 438,-523 438.955,-524.14 439.997,-525.227 441.103,-526.261"/>
<polygon fill="midnightblue" stroke="midnightblue" points="439.015,-529.069 449.099,-532.319 443.242,-523.49 439.015,-529.069"/>
</g>
<!-- Node5 -->
<g id="node5" class="node"><title>Node5</title>
<g id="a_node5"><a xlink:href="../../d4/d67/lms_8c.html#ace0cd8bf61cb9b86b98f0cef03b5a9d9" target="_top" xlink:title="Case2F">
<polygon fill="white" stroke="black" points="446.5,-494.5 446.5,-513.5 497.5,-513.5 497.5,-494.5 446.5,-494.5"/>
<text text-anchor="middle" x="472" y="-501.5" font-family="Helvetica,sans-Serif" font-size="10.00">Case2F</text>
</a>
</g>
</g>
<!-- Node3&#45;&gt;Node5 -->
<g id="edge4" class="edge"><title>Node3&#45;&gt;Node5</title>
<path fill="none" stroke="midnightblue" d="M350.879,-285.932C357.434,-318.234 382.003,-421.856 438,-485 439.014,-486.144 440.115,-487.236 441.277,-488.277"/>
<polygon fill="midnightblue" stroke="midnightblue" points="439.47,-491.292 449.6,-494.395 443.616,-485.652 439.47,-491.292"/>
</g>
<!-- Node6 -->
<g id="node6" class="node"><title>Node6</title>
<g id="a_node6"><a xlink:href="../../d4/d67/lms_8c.html#a5f53b53ccc591e3643c4af2aee2e7f32" target="_top" xlink:title="Case3F">
<polygon fill="white" stroke="black" points="446.5,-456.5 446.5,-475.5 497.5,-475.5 497.5,-456.5 446.5,-456.5"/>
<text text-anchor="middle" x="472" y="-463.5" font-family="Helvetica,sans-Serif" font-size="10.00">Case3F</text>
</a>
</g>
</g>
<!-- Node3&#45;&gt;Node6 -->
<g id="edge5" class="edge"><title>Node3&#45;&gt;Node6</title>
<path fill="none" stroke="midnightblue" d="M351.878,-285.664C360.635,-313.696 389.37,-396.258 438,-447 439.195,-448.247 440.49,-449.437 441.852,-450.569"/>
<polygon fill="midnightblue" stroke="midnightblue" points="439.961,-453.519 450.154,-456.409 443.989,-447.794 439.961,-453.519"/>
</g>
<!-- Node7 -->
<g id="node7" class="node"><title>Node7</title>
<g id="a_node7"><a xlink:href="../../d4/d67/lms_8c.html#a5086763d5b258349bc13d6be7e7d0665" target="_top" xlink:title="Case4F">
<polygon fill="white" stroke="black" points="446.5,-418.5 446.5,-437.5 497.5,-437.5 497.5,-418.5 446.5,-418.5"/>
<text text-anchor="middle" x="472" y="-425.5" font-family="Helvetica,sans-Serif" font-size="10.00">Case4F</text>
</a>
</g>
</g>
<!-- Node3&#45;&gt;Node7 -->
<g id="edge6" class="edge"><title>Node3&#45;&gt;Node7</title>
<path fill="none" stroke="midnightblue" d="M353.567,-285.789C364.977,-309.422 396.799,-370.484 438,-409 439.295,-410.21 440.68,-411.376 442.124,-412.492"/>
<polygon fill="midnightblue" stroke="midnightblue" points="440.537,-415.643 450.787,-418.324 444.446,-409.836 440.537,-415.643"/>
</g>
<!-- Node8 -->
<g id="node8" class="node"><title>Node8</title>
<g id="a_node8"><a xlink:href="../../db/de5/recipes_8c.html#aee25e218394217a134e805ea09fb0fe9" target="_top" xlink:title="free_ivector">
<polygon fill="white" stroke="black" points="438,-380.5 438,-399.5 506,-399.5 506,-380.5 438,-380.5"/>
<text text-anchor="middle" x="472" y="-387.5" font-family="Helvetica,sans-Serif" font-size="10.00">free_ivector</text>
</a>
</g>
</g>
<!-- Node3&#45;&gt;Node8 -->
<g id="edge7" class="edge"><title>Node3&#45;&gt;Node8</title>
<path fill="none" stroke="midnightblue" d="M356.306,-285.506C370.59,-303.67 403.816,-343.907 438,-371 439.768,-372.401 441.651,-373.767 443.587,-375.081"/>
<polygon fill="midnightblue" stroke="midnightblue" points="441.884,-378.143 452.221,-380.466 445.588,-372.204 441.884,-378.143"/>
</g>
<!-- Node9 -->
<g id="node9" class="node"><title>Node9</title>
<g id="a_node9"><a xlink:href="../../db/de5/recipes_8c.html#a3e0d121b098c19c0bdc2429e5b9f1625" target="_top" xlink:title="free_matrix">
<polygon fill="white" stroke="black" points="439.5,-342.5 439.5,-361.5 504.5,-361.5 504.5,-342.5 439.5,-342.5"/>
<text text-anchor="middle" x="472" y="-349.5" font-family="Helvetica,sans-Serif" font-size="10.00">free_matrix</text>
</a>
</g>
</g>
<!-- Node3&#45;&gt;Node9 -->
<g id="edge8" class="edge"><title>Node3&#45;&gt;Node9</title>
<path fill="none" stroke="midnightblue" d="M364.451,-285.625C385.26,-298.588 422.499,-321.786 446.978,-337.035"/>
<polygon fill="midnightblue" stroke="midnightblue" points="445.336,-340.136 455.674,-342.453 449.037,-334.194 445.336,-340.136"/>
</g>
<!-- Node10 -->
<g id="node10" class="node"><title>Node10</title>
<g id="a_node10"><a xlink:href="../../db/de5/recipes_8c.html#a8214a52d888e820222c0382648329c0c" target="_top" xlink:title="free_vector">
<polygon fill="white" stroke="black" points="542,-285.5 542,-304.5 607,-304.5 607,-285.5 542,-285.5"/>
<text text-anchor="middle" x="574.5" y="-292.5" font-family="Helvetica,sans-Serif" font-size="10.00">free_vector</text>
</a>
</g>
</g>
<!-- Node3&#45;&gt;Node10 -->
<g id="edge9" class="edge"><title>Node3&#45;&gt;Node10</title>
<path fill="none" stroke="midnightblue" d="M364.277,-280.288C381.881,-284.989 411.76,-292.23 438,-295 469.289,-298.303 504.869,-298.154 531.716,-297.26"/>
<polygon fill="midnightblue" stroke="midnightblue" points="532.056,-300.749 541.915,-296.87 531.789,-293.754 532.056,-300.749"/>
</g>
<!-- Node11 -->
<g id="node11" class="node"><title>Node11</title>
<g id="a_node11"><a xlink:href="../../d4/d67/lms_8c.html#ad1d6c875ff429888b51dd1155f0311ad" target="_top" xlink:title="ivector">
<polygon fill="white" stroke="black" points="449,-266.5 449,-285.5 495,-285.5 495,-266.5 449,-266.5"/>
<text text-anchor="middle" x="472" y="-273.5" font-family="Helvetica,sans-Serif" font-size="10.00">ivector</text>
</a>
</g>
</g>
<!-- Node3&#45;&gt;Node11 -->
<g id="edge10" class="edge"><title>Node3&#45;&gt;Node11</title>
<path fill="none" stroke="midnightblue" d="M364.451,-276C382.995,-276 414.584,-276 438.566,-276"/>
<polygon fill="midnightblue" stroke="midnightblue" points="438.646,-279.5 448.646,-276 438.645,-272.5 438.646,-279.5"/>
</g>
<!-- Node12 -->
<g id="node12" class="node"><title>Node12</title>
<g id="a_node12"><a xlink:href="../../db/de5/recipes_8c.html#a66ff65ad0355ec1f4a7722bcdafc8cd3" target="_top" xlink:title="lubksb">
<polygon fill="white" stroke="black" points="449.5,-228.5 449.5,-247.5 494.5,-247.5 494.5,-228.5 449.5,-228.5"/>
<text text-anchor="middle" x="472" y="-235.5" font-family="Helvetica,sans-Serif" font-size="10.00">lubksb</text>
</a>
</g>
</g>
<!-- Node3&#45;&gt;Node12 -->
<g id="edge11" class="edge"><title>Node3&#45;&gt;Node12</title>
<path fill="none" stroke="midnightblue" d="M364.451,-271.187C383.19,-265.351 415.251,-255.364 439.321,-247.867"/>
<polygon fill="midnightblue" stroke="midnightblue" points="440.579,-251.141 449.085,-244.826 438.497,-244.458 440.579,-251.141"/>
</g>
<!-- Node13 -->
<g id="node13" class="node"><title>Node13</title>
<g id="a_node13"><a xlink:href="../../db/de5/recipes_8c.html#a623fec796d9d53e5e4a4d30226547da7" target="_top" xlink:title="ludcmp">
<polygon fill="white" stroke="black" points="448,-190.5 448,-209.5 496,-209.5 496,-190.5 448,-190.5"/>
<text text-anchor="middle" x="472" y="-197.5" font-family="Helvetica,sans-Serif" font-size="10.00">ludcmp</text>
</a>
</g>
</g>
<!-- Node3&#45;&gt;Node13 -->
<g id="edge12" class="edge"><title>Node3&#45;&gt;Node13</title>
<path fill="none" stroke="midnightblue" d="M363.668,-266.304C381.201,-254.786 411.5,-235.103 438,-219 440.355,-217.569 442.818,-216.1 445.292,-214.644"/>
<polygon fill="midnightblue" stroke="midnightblue" points="447.234,-217.564 454.122,-209.514 443.717,-211.511 447.234,-217.564"/>
</g>
<!-- Node16 -->
<g id="node16" class="node"><title>Node16</title>
<g id="a_node16"><a xlink:href="../../d4/d67/lms_8c.html#a37bcb1539d76b53344102435e2ab9c91" target="_top" xlink:title="matrix">
<polygon fill="white" stroke="black" points="450,-152.5 450,-171.5 494,-171.5 494,-152.5 450,-152.5"/>
<text text-anchor="middle" x="472" y="-159.5" font-family="Helvetica,sans-Serif" font-size="10.00">matrix</text>
</a>
</g>
</g>
<!-- Node3&#45;&gt;Node16 -->
<g id="edge17" class="edge"><title>Node3&#45;&gt;Node16</title>
<path fill="none" stroke="midnightblue" d="M356.306,-266.494C370.59,-248.33 403.816,-208.093 438,-181 439.768,-179.599 441.651,-178.233 443.587,-176.919"/>
<polygon fill="midnightblue" stroke="midnightblue" points="445.588,-179.796 452.221,-171.534 441.884,-173.857 445.588,-179.796"/>
</g>
<!-- Node17 -->
<g id="node17" class="node"><title>Node17</title>
<g id="a_node17"><a xlink:href="../../d8/d91/rounding_8c.html#aa8d7512cdf5bfbf811cef6a8a091c679" target="_top" xlink:title="round2csd">
<polygon fill="white" stroke="black" points="441,-114.5 441,-133.5 503,-133.5 503,-114.5 441,-114.5"/>
<text text-anchor="middle" x="472" y="-121.5" font-family="Helvetica,sans-Serif" font-size="10.00">round2csd</text>
</a>
</g>
</g>
<!-- Node3&#45;&gt;Node17 -->
<g id="edge18" class="edge"><title>Node3&#45;&gt;Node17</title>
<path fill="none" stroke="midnightblue" d="M353.567,-266.211C364.977,-242.578 396.799,-181.516 438,-143 439.295,-141.79 440.68,-140.624 442.124,-139.508"/>
<polygon fill="midnightblue" stroke="midnightblue" points="444.446,-142.164 450.787,-133.676 440.537,-136.357 444.446,-142.164"/>
</g>
<!-- Node21 -->
<g id="node21" class="node"><title>Node21</title>
<g id="a_node21"><a xlink:href="../../d8/d91/rounding_8c.html#aca2670cc0fbf948a6b9cb670047c9d5b" target="_top" xlink:title="round2int">
<polygon fill="white" stroke="black" points="444,-76.5 444,-95.5 500,-95.5 500,-76.5 444,-76.5"/>
<text text-anchor="middle" x="472" y="-83.5" font-family="Helvetica,sans-Serif" font-size="10.00">round2int</text>
</a>
</g>
</g>
<!-- Node3&#45;&gt;Node21 -->
<g id="edge22" class="edge"><title>Node3&#45;&gt;Node21</title>
<path fill="none" stroke="midnightblue" d="M351.878,-266.336C360.635,-238.304 389.37,-155.742 438,-105 439.195,-103.753 440.49,-102.563 441.852,-101.431"/>
<polygon fill="midnightblue" stroke="midnightblue" points="443.989,-104.206 450.154,-95.5906 439.961,-98.4809 443.989,-104.206"/>
</g>
<!-- Node22 -->
<g id="node22" class="node"><title>Node22</title>
<g id="a_node22"><a xlink:href="../../d4/d67/lms_8c.html#ac81ca32708341eb34b25d515d00bc748" target="_top" xlink:title="vector">
<polygon fill="white" stroke="black" points="450,-38.5 450,-57.5 494,-57.5 494,-38.5 450,-38.5"/>
<text text-anchor="middle" x="472" y="-45.5" font-family="Helvetica,sans-Serif" font-size="10.00">vector</text>
</a>
</g>
</g>
<!-- Node3&#45;&gt;Node22 -->
<g id="edge24" class="edge"><title>Node3&#45;&gt;Node22</title>
<path fill="none" stroke="midnightblue" d="M352.908,-266.353C369.142,-226.346 430.739,-75.188 438,-67 439.146,-65.7078 440.402,-64.4815 441.733,-63.3211"/>
<polygon fill="midnightblue" stroke="midnightblue" points="443.883,-66.0859 449.943,-57.3953 439.786,-60.4099 443.883,-66.0859"/>
</g>
<!-- Node13&#45;&gt;Node10 -->
<g id="edge13" class="edge"><title>Node13&#45;&gt;Node10</title>
<path fill="none" stroke="midnightblue" d="M492.186,-209.656C496.9,-212.397 501.797,-215.577 506,-219 527.243,-236.301 547.546,-260.569 560.236,-276.991"/>
<polygon fill="midnightblue" stroke="midnightblue" points="557.633,-279.352 566.46,-285.212 563.214,-275.127 557.633,-279.352"/>
</g>
<!-- Node14 -->
<g id="node14" class="node"><title>Node14</title>
<g id="a_node14"><a xlink:href="../../db/de5/recipes_8c.html#a208e98f19b2f252315399d02c0594a46" target="_top" xlink:title="nrerror">
<polygon fill="white" stroke="black" points="643,-209.5 643,-228.5 687,-228.5 687,-209.5 643,-209.5"/>
<text text-anchor="middle" x="665" y="-216.5" font-family="Helvetica,sans-Serif" font-size="10.00">nrerror</text>
</a>
</g>
</g>
<!-- Node13&#45;&gt;Node14 -->
<g id="edge14" class="edge"><title>Node13&#45;&gt;Node14</title>
<path fill="none" stroke="midnightblue" d="M496.306,-208.1C509.528,-212.267 526.486,-216.903 542,-219 572.534,-223.127 607.761,-222.564 632.488,-221.308"/>
<polygon fill="midnightblue" stroke="midnightblue" points="632.944,-224.788 642.726,-220.718 632.541,-217.799 632.944,-224.788"/>
</g>
<!-- Node15 -->
<g id="node15" class="node"><title>Node15</title>
<g id="a_node15"><a xlink:href="../../db/de5/recipes_8c.html#a5e6092211a5f7e2d6ae9282379d3c604" target="_top" xlink:title="vector">
<polygon fill="white" stroke="black" points="552.5,-190.5 552.5,-209.5 596.5,-209.5 596.5,-190.5 552.5,-190.5"/>
<text text-anchor="middle" x="574.5" y="-197.5" font-family="Helvetica,sans-Serif" font-size="10.00">vector</text>
</a>
</g>
</g>
<!-- Node13&#45;&gt;Node15 -->
<g id="edge15" class="edge"><title>Node13&#45;&gt;Node15</title>
<path fill="none" stroke="midnightblue" d="M496.057,-200C509.673,-200 527.102,-200 541.977,-200"/>
<polygon fill="midnightblue" stroke="midnightblue" points="542.265,-203.5 552.265,-200 542.265,-196.5 542.265,-203.5"/>
</g>
<!-- Node15&#45;&gt;Node14 -->
<g id="edge16" class="edge"><title>Node15&#45;&gt;Node14</title>
<path fill="none" stroke="midnightblue" d="M596.923,-204.599C607.685,-206.91 620.928,-209.753 632.796,-212.301"/>
<polygon fill="midnightblue" stroke="midnightblue" points="632.262,-215.766 642.774,-214.443 633.731,-208.922 632.262,-215.766"/>
</g>
<!-- Node18 -->
<g id="node18" class="node"><title>Node18</title>
<g id="a_node18"><a xlink:href="../../d8/d91/rounding_8c.html#a2cff6b77e73872659c44b0c99f6bd97f" target="_top" xlink:title="csd2int">
<polygon fill="white" stroke="black" points="550.5,-152.5 550.5,-171.5 598.5,-171.5 598.5,-152.5 550.5,-152.5"/>
<text text-anchor="middle" x="574.5" y="-159.5" font-family="Helvetica,sans-Serif" font-size="10.00">csd2int</text>
</a>
</g>
</g>
<!-- Node17&#45;&gt;Node18 -->
<g id="edge19" class="edge"><title>Node17&#45;&gt;Node18</title>
<path fill="none" stroke="midnightblue" d="M498.36,-133.589C511.181,-138.437 526.894,-144.378 540.631,-149.572"/>
<polygon fill="midnightblue" stroke="midnightblue" points="539.623,-152.933 550.214,-153.195 542.099,-146.385 539.623,-152.933"/>
</g>
<!-- Node19 -->
<g id="node19" class="node"><title>Node19</title>
<g id="a_node19"><a xlink:href="../../db/d82/wglew_8h.html#a500a82aecba06f4550f6849b8099ca21" target="_top" xlink:title="int">
<polygon fill="white" stroke="black" points="560,-76.5 560,-95.5 589,-95.5 589,-76.5 560,-76.5"/>
<text text-anchor="middle" x="574.5" y="-83.5" font-family="Helvetica,sans-Serif" font-size="10.00">int</text>
</a>
</g>
</g>
<!-- Node17&#45;&gt;Node19 -->
<g id="edge20" class="edge"><title>Node17&#45;&gt;Node19</title>
<path fill="none" stroke="midnightblue" d="M498.36,-114.411C514.388,-108.351 534.934,-100.582 550.49,-94.7003"/>
<polygon fill="midnightblue" stroke="midnightblue" points="551.778,-97.9552 559.894,-91.1446 549.302,-91.4076 551.778,-97.9552"/>
</g>
<!-- Node20 -->
<g id="node20" class="node"><title>Node20</title>
<g id="a_node20"><a xlink:href="../../d8/d91/rounding_8c.html#ab3a64ec72c5600bc114621e93309c8c3" target="_top" xlink:title="int2csd">
<polygon fill="white" stroke="black" points="550.5,-114.5 550.5,-133.5 598.5,-133.5 598.5,-114.5 550.5,-114.5"/>
<text text-anchor="middle" x="574.5" y="-121.5" font-family="Helvetica,sans-Serif" font-size="10.00">int2csd</text>
</a>
</g>
</g>
<!-- Node17&#45;&gt;Node20 -->
<g id="edge21" class="edge"><title>Node17&#45;&gt;Node20</title>
<path fill="none" stroke="midnightblue" d="M503.153,-124C514.87,-124 528.331,-124 540.321,-124"/>
<polygon fill="midnightblue" stroke="midnightblue" points="540.398,-127.5 550.398,-124 540.398,-120.5 540.398,-127.5"/>
</g>
<!-- Node21&#45;&gt;Node19 -->
<g id="edge23" class="edge"><title>Node21&#45;&gt;Node19</title>
<path fill="none" stroke="midnightblue" d="M500.197,-86C515.576,-86 534.634,-86 549.462,-86"/>
<polygon fill="midnightblue" stroke="midnightblue" points="549.846,-89.5001 559.846,-86 549.846,-82.5001 549.846,-89.5001"/>
</g>
<!-- Node24 -->
<g id="node24" class="node"><title>Node24</title>
<g id="a_node24"><a xlink:href="../../d9/df5/Logger_8cpp.html#ada38bf01d6d691de953ed69268ea6516" target="_top" xlink:title="errToStr">
<polygon fill="white" stroke="black" points="446,-0.5 446,-19.5 498,-19.5 498,-0.5 446,-0.5"/>
<text text-anchor="middle" x="472" y="-7.5" font-family="Helvetica,sans-Serif" font-size="10.00">errToStr</text>
</a>
</g>
</g>
<!-- Node23&#45;&gt;Node24 -->
<g id="edge26" class="edge"><title>Node23&#45;&gt;Node24</title>
<path fill="none" stroke="midnightblue" d="M385.616,-114.428C391.552,-111.736 397.288,-108.32 402,-104 429.253,-79.0125 412.852,-56.1053 438,-29 439.175,-27.7339 440.453,-26.5283 441.802,-25.3841"/>
<polygon fill="midnightblue" stroke="midnightblue" points="443.945,-28.1552 450.067,-19.5078 439.889,-22.4503 443.945,-28.1552"/>
</g>
</g>
</svg>
