<?xml version="1.0" encoding="UTF-8" standalone="no"?>
<!DOCTYPE svg PUBLIC "-//W3C//DTD SVG 1.1//EN"
 "http://www.w3.org/Graphics/SVG/1.1/DTD/svg11.dtd">
<!-- Generated by graphviz version 2.38.0 (20140413.2041)
 -->
<!-- Title: /home/erik/prefix/default/src/limesuite&#45;dev/src/boards_wxgui/pnlLimeSDR.cpp Pages: 1 -->
<!--zoomable 274 -->
<svg id="main" version="1.1" xmlns="http://www.w3.org/2000/svg" xmlns:xlink="http://www.w3.org/1999/xlink" xml:space="preserve" onload="init(evt)">
<style type="text/css"><![CDATA[
.edge:hover path { stroke: red; }
.edge:hover polygon { stroke: red; fill: red; }
]]></style>
<script type="text/javascript"><![CDATA[
var edges = document.getElementsByTagName('g');
if (edges && edges.length) {
  for (var i=0;i<edges.length;i++) {
    if (edges[i].id.substr(0,4)=='edge') {
      edges[i].setAttribute('class','edge');
    }
  }
}
]]></script>
        <defs>
                <circle id="rim" cx="0" cy="0" r="7"/>
                <circle id="rim2" cx="0" cy="0" r="3.5"/>
                <g id="zoomPlus">
                        <use xlink:href="#rim" fill="#404040">
                                <set attributeName="fill" to="#808080" begin="zoomplus.mouseover" end="zoomplus.mouseout"/>
                        </use>
                        <path d="M-4,0h8M0,-4v8" fill="none" stroke="white" stroke-width="1.5" pointer-events="none"/>
                </g>
                <g id="zoomMin">
                        <use xlink:href="#rim" fill="#404040">
                                <set attributeName="fill" to="#808080" begin="zoomminus.mouseover" end="zoomminus.mouseout"/>
                        </use>
                        <path d="M-4,0h8" fill="none" stroke="white" stroke-width="1.5" pointer-events="none"/>
                </g>
                <g id="dirArrow">
                        <path fill="none" stroke="white" stroke-width="1.5" d="M0,-3.0v7 M-2.5,-0.5L0,-3.0L2.5,-0.5"/>
                </g>
               <g id="resetDef">
                       <use xlink:href="#rim2" fill="#404040">
                               <set attributeName="fill" to="#808080" begin="reset.mouseover" end="reset.mouseout"/>
                       </use>
               </g>
        </defs>

<script type="text/javascript">
var viewWidth = 1203;
var viewHeight = 274;
var sectionId = 'dynsection-0';
</script>
<script xlink:href="../../svgpan.js"/>
<svg id="graph" class="graph">
<g id="viewport">
<title>/home/erik/prefix/default/src/limesuite&#45;dev/src/boards_wxgui/pnlLimeSDR.cpp</title>
<polygon fill="white" stroke="none" points="-4,4 -4,-270 1199.32,-270 1199.32,4 -4,4"/>
<!-- Node1 -->
<g id="node1" class="node"><title>Node1</title>
<polygon fill="#bfbfbf" stroke="black" points="584.321,-224.5 584.321,-265.5 741.321,-265.5 741.321,-224.5 584.321,-224.5"/>
<text text-anchor="start" x="592.321" y="-253.5" font-family="Helvetica,sans-Serif" font-size="10.00">/home/erik/prefix/default</text>
<text text-anchor="start" x="592.321" y="-242.5" font-family="Helvetica,sans-Serif" font-size="10.00">/src/limesuite&#45;dev/src</text>
<text text-anchor="middle" x="662.821" y="-231.5" font-family="Helvetica,sans-Serif" font-size="10.00">/boards_wxgui/pnlLimeSDR.cpp</text>
</g>
<!-- Node2 -->
<g id="node2" class="node"><title>Node2</title>
<g id="a_node2"><a xlink:href="../../d2/db1/pnlLimeSDR_8h.html" target="_top" xlink:title="pnlLimeSDR.h">
<polygon fill="white" stroke="black" points="133.821,-168.5 133.821,-187.5 213.821,-187.5 213.821,-168.5 133.821,-168.5"/>
<text text-anchor="middle" x="173.821" y="-175.5" font-family="Helvetica,sans-Serif" font-size="10.00">pnlLimeSDR.h</text>
</a>
</g>
</g>
<!-- Node1&#45;&gt;Node2 -->
<g id="edge1" class="edge"><title>Node1&#45;&gt;Node2</title>
<path fill="none" stroke="midnightblue" d="M583.949,-235.288C497.907,-225.482 355.896,-208.422 223.799,-188.081"/>
<polygon fill="midnightblue" stroke="midnightblue" points="224.319,-184.62 213.901,-186.547 223.248,-191.537 224.319,-184.62"/>
</g>
<!-- Node10 -->
<g id="node10" class="node"><title>Node10</title>
<polygon fill="white" stroke="#bfbfbf" points="231.821,-168.5 231.821,-187.5 293.821,-187.5 293.821,-168.5 231.821,-168.5"/>
<text text-anchor="middle" x="262.821" y="-175.5" font-family="Helvetica,sans-Serif" font-size="10.00">wx/sizer.h</text>
</g>
<!-- Node1&#45;&gt;Node10 -->
<g id="edge10" class="edge"><title>Node1&#45;&gt;Node10</title>
<path fill="none" stroke="midnightblue" d="M584.259,-233.326C513.438,-223.349 406.245,-207.372 304.091,-188.145"/>
<polygon fill="midnightblue" stroke="midnightblue" points="304.699,-184.698 294.222,-186.274 303.395,-191.575 304.699,-184.698"/>
</g>
<!-- Node11 -->
<g id="node11" class="node"><title>Node11</title>
<polygon fill="white" stroke="#bfbfbf" points="311.821,-168.5 311.821,-187.5 385.821,-187.5 385.821,-168.5 311.821,-168.5"/>
<text text-anchor="middle" x="348.821" y="-175.5" font-family="Helvetica,sans-Serif" font-size="10.00">wx/stattext.h</text>
</g>
<!-- Node1&#45;&gt;Node11 -->
<g id="edge11" class="edge"><title>Node1&#45;&gt;Node11</title>
<path fill="none" stroke="midnightblue" d="M583.99,-227.682C524.676,-215.403 445.375,-198.987 395.701,-188.704"/>
<polygon fill="midnightblue" stroke="midnightblue" points="396.374,-185.27 385.872,-186.67 394.955,-192.124 396.374,-185.27"/>
</g>
<!-- Node12 -->
<g id="node12" class="node"><title>Node12</title>
<polygon fill="white" stroke="#bfbfbf" points="403.821,-168.5 403.821,-187.5 471.821,-187.5 471.821,-168.5 403.821,-168.5"/>
<text text-anchor="middle" x="437.821" y="-175.5" font-family="Helvetica,sans-Serif" font-size="10.00">wx/button.h</text>
</g>
<!-- Node1&#45;&gt;Node12 -->
<g id="edge12" class="edge"><title>Node1&#45;&gt;Node12</title>
<path fill="none" stroke="midnightblue" d="M595.313,-224.498C556.719,-213.348 509.666,-199.755 477.094,-190.346"/>
<polygon fill="midnightblue" stroke="midnightblue" points="478.054,-186.98 467.476,-187.567 476.112,-193.705 478.054,-186.98"/>
</g>
<!-- Node13 -->
<g id="node13" class="node"><title>Node13</title>
<polygon fill="white" stroke="#bfbfbf" points="490.321,-168.5 490.321,-187.5 555.321,-187.5 555.321,-168.5 490.321,-168.5"/>
<text text-anchor="middle" x="522.821" y="-175.5" font-family="Helvetica,sans-Serif" font-size="10.00">wx/string.h</text>
</g>
<!-- Node1&#45;&gt;Node13 -->
<g id="edge13" class="edge"><title>Node1&#45;&gt;Node13</title>
<path fill="none" stroke="midnightblue" d="M620.816,-224.498C598.113,-213.957 570.706,-201.233 550.656,-191.923"/>
<polygon fill="midnightblue" stroke="midnightblue" points="552.001,-188.689 541.457,-187.652 549.053,-195.038 552.001,-188.689"/>
</g>
<!-- Node14 -->
<g id="node14" class="node"><title>Node14</title>
<polygon fill="white" stroke="#bfbfbf" points="573.321,-168.5 573.321,-187.5 656.321,-187.5 656.321,-168.5 573.321,-168.5"/>
<text text-anchor="middle" x="614.821" y="-175.5" font-family="Helvetica,sans-Serif" font-size="10.00">wx/checkbox.h</text>
</g>
<!-- Node1&#45;&gt;Node14 -->
<g id="edge14" class="edge"><title>Node1&#45;&gt;Node14</title>
<path fill="none" stroke="midnightblue" d="M648.419,-224.498C641.697,-215.395 633.771,-204.662 627.307,-195.908"/>
<polygon fill="midnightblue" stroke="midnightblue" points="629.966,-193.618 621.21,-187.652 624.335,-197.776 629.966,-193.618"/>
</g>
<!-- Node15 -->
<g id="node15" class="node"><title>Node15</title>
<polygon fill="white" stroke="#bfbfbf" points="674.821,-168.5 674.821,-187.5 746.821,-187.5 746.821,-168.5 674.821,-168.5"/>
<text text-anchor="middle" x="710.821" y="-175.5" font-family="Helvetica,sans-Serif" font-size="10.00">wx/msgdlg.h</text>
</g>
<!-- Node1&#45;&gt;Node15 -->
<g id="edge15" class="edge"><title>Node1&#45;&gt;Node15</title>
<path fill="none" stroke="midnightblue" d="M677.222,-224.498C683.945,-215.395 691.87,-204.662 698.335,-195.908"/>
<polygon fill="midnightblue" stroke="midnightblue" points="701.306,-197.776 704.431,-187.652 695.675,-193.618 701.306,-197.776"/>
</g>
<!-- Node16 -->
<g id="node16" class="node"><title>Node16</title>
<polygon fill="white" stroke="#bfbfbf" points="765.321,-168.5 765.321,-187.5 838.321,-187.5 838.321,-168.5 765.321,-168.5"/>
<text text-anchor="middle" x="801.821" y="-175.5" font-family="Helvetica,sans-Serif" font-size="10.00">wx/statbox.h</text>
</g>
<!-- Node1&#45;&gt;Node16 -->
<g id="edge16" class="edge"><title>Node1&#45;&gt;Node16</title>
<path fill="none" stroke="midnightblue" d="M704.525,-224.498C727.066,-213.957 754.277,-201.233 774.184,-191.923"/>
<polygon fill="midnightblue" stroke="midnightblue" points="775.742,-195.059 783.318,-187.652 772.776,-188.718 775.742,-195.059"/>
</g>
<!-- Node17 -->
<g id="node17" class="node"><title>Node17</title>
<g id="a_node17"><a xlink:href="../../dc/dad/lms7suiteEvents_8h.html" target="_top" xlink:title="lms7suiteEvents.h">
<polygon fill="white" stroke="black" points="856.821,-168.5 856.821,-187.5 954.821,-187.5 954.821,-168.5 856.821,-168.5"/>
<text text-anchor="middle" x="905.821" y="-175.5" font-family="Helvetica,sans-Serif" font-size="10.00">lms7suiteEvents.h</text>
</a>
</g>
</g>
<!-- Node1&#45;&gt;Node17 -->
<g id="edge17" class="edge"><title>Node1&#45;&gt;Node17</title>
<path fill="none" stroke="midnightblue" d="M735.729,-224.498C777.59,-213.3 828.666,-199.638 863.859,-190.224"/>
<polygon fill="midnightblue" stroke="midnightblue" points="865.037,-193.532 873.793,-187.567 863.228,-186.77 865.037,-193.532"/>
</g>
<!-- Node19 -->
<g id="node19" class="node"><title>Node19</title>
<g id="a_node19"><a xlink:href="../../dd/da4/Logger_8h.html" target="_top" xlink:title="API for logging library status messages. ">
<polygon fill="white" stroke="black" points="972.821,-168.5 972.821,-187.5 1026.82,-187.5 1026.82,-168.5 972.821,-168.5"/>
<text text-anchor="middle" x="999.821" y="-175.5" font-family="Helvetica,sans-Serif" font-size="10.00">Logger.h</text>
</a>
</g>
</g>
<!-- Node1&#45;&gt;Node19 -->
<g id="edge19" class="edge"><title>Node1&#45;&gt;Node19</title>
<path fill="none" stroke="midnightblue" d="M741.356,-230.742C799.869,-220.55 881.933,-205.598 962.872,-188.105"/>
<polygon fill="midnightblue" stroke="midnightblue" points="963.708,-191.505 972.735,-185.959 962.22,-184.665 963.708,-191.505"/>
</g>
<!-- Node25 -->
<g id="node25" class="node"><title>Node25</title>
<g id="a_node25"><a xlink:href="../../d8/df2/LMSBoards_8h.html" target="_top" xlink:title="enumerations of available LMS7002M hardware ">
<polygon fill="white" stroke="black" points="1044.82,-168.5 1044.82,-187.5 1120.82,-187.5 1120.82,-168.5 1044.82,-168.5"/>
<text text-anchor="middle" x="1082.82" y="-175.5" font-family="Helvetica,sans-Serif" font-size="10.00">LMSBoards.h</text>
</a>
</g>
</g>
<!-- Node1&#45;&gt;Node25 -->
<g id="edge25" class="edge"><title>Node1&#45;&gt;Node25</title>
<path fill="none" stroke="midnightblue" d="M741.557,-233.116C814.861,-222.768 927.414,-206.335 1034.6,-188.155"/>
<polygon fill="midnightblue" stroke="midnightblue" points="1035.35,-191.577 1044.62,-186.447 1034.18,-184.677 1035.35,-191.577"/>
</g>
<!-- Node26 -->
<g id="node26" class="node"><title>Node26</title>
<polygon fill="white" stroke="#bfbfbf" points="1138.82,-168.5 1138.82,-187.5 1188.82,-187.5 1188.82,-168.5 1138.82,-168.5"/>
<text text-anchor="middle" x="1163.82" y="-175.5" font-family="Helvetica,sans-Serif" font-size="10.00">ciso646</text>
</g>
<!-- Node1&#45;&gt;Node26 -->
<g id="edge26" class="edge"><title>Node1&#45;&gt;Node26</title>
<path fill="none" stroke="midnightblue" d="M741.419,-237.944C832.462,-230.172 987.024,-214.646 1128.5,-188.015"/>
<polygon fill="midnightblue" stroke="midnightblue" points="1129.49,-191.389 1138.66,-186.079 1128.18,-184.513 1129.49,-191.389"/>
</g>
<!-- Node3 -->
<g id="node3" class="node"><title>Node3</title>
<g id="a_node3"><a xlink:href="../../d5/d07/LimeSuite_8h.html" target="_top" xlink:title="LMS API library. ">
<polygon fill="white" stroke="black" points="45.3206,-112.5 45.3206,-131.5 134.321,-131.5 134.321,-112.5 45.3206,-112.5"/>
<text text-anchor="middle" x="89.8206" y="-119.5" font-family="Helvetica,sans-Serif" font-size="10.00">lime/LimeSuite.h</text>
</a>
</g>
</g>
<!-- Node2&#45;&gt;Node3 -->
<g id="edge2" class="edge"><title>Node2&#45;&gt;Node3</title>
<path fill="none" stroke="midnightblue" d="M160.325,-168.324C147.221,-159.9 127.109,-146.971 111.714,-137.074"/>
<polygon fill="midnightblue" stroke="midnightblue" points="113.588,-134.118 103.283,-131.655 109.802,-140.006 113.588,-134.118"/>
</g>
<!-- Node8 -->
<g id="node8" class="node"><title>Node8</title>
<polygon fill="white" stroke="#bfbfbf" points="151.821,-112.5 151.821,-131.5 195.821,-131.5 195.821,-112.5 151.821,-112.5"/>
<text text-anchor="middle" x="173.821" y="-119.5" font-family="Helvetica,sans-Serif" font-size="10.00">vector</text>
</g>
<!-- Node2&#45;&gt;Node8 -->
<g id="edge8" class="edge"><title>Node2&#45;&gt;Node8</title>
<path fill="none" stroke="midnightblue" d="M173.821,-168.083C173.821,-161.006 173.821,-150.861 173.821,-141.986"/>
<polygon fill="midnightblue" stroke="midnightblue" points="177.321,-141.751 173.821,-131.751 170.321,-141.751 177.321,-141.751"/>
</g>
<!-- Node9 -->
<g id="node9" class="node"><title>Node9</title>
<polygon fill="white" stroke="#bfbfbf" points="213.821,-112.5 213.821,-131.5 277.821,-131.5 277.821,-112.5 213.821,-112.5"/>
<text text-anchor="middle" x="245.821" y="-119.5" font-family="Helvetica,sans-Serif" font-size="10.00">wx/panel.h</text>
</g>
<!-- Node2&#45;&gt;Node9 -->
<g id="edge9" class="edge"><title>Node2&#45;&gt;Node9</title>
<path fill="none" stroke="midnightblue" d="M185.389,-168.324C196.241,-160.185 212.701,-147.839 225.704,-138.087"/>
<polygon fill="midnightblue" stroke="midnightblue" points="228.142,-140.634 234.042,-131.834 223.942,-135.034 228.142,-140.634"/>
</g>
<!-- Node4 -->
<g id="node4" class="node"><title>Node4</title>
<polygon fill="white" stroke="#bfbfbf" points="39.3206,-0.5 39.3206,-19.5 88.3206,-19.5 88.3206,-0.5 39.3206,-0.5"/>
<text text-anchor="middle" x="63.8206" y="-7.5" font-family="Helvetica,sans-Serif" font-size="10.00">stdint.h</text>
</g>
<!-- Node3&#45;&gt;Node4 -->
<g id="edge3" class="edge"><title>Node3&#45;&gt;Node4</title>
<path fill="none" stroke="midnightblue" d="M55.6361,-112.493C36.8273,-105.877 15.078,-94.5958 3.82061,-76 -8.23403,-56.0872 15.0187,-36.9683 35.9955,-24.6837"/>
<polygon fill="midnightblue" stroke="midnightblue" points="37.9697,-27.592 45.0368,-19.6985 34.5897,-21.462 37.9697,-27.592"/>
</g>
<!-- Node5 -->
<g id="node5" class="node"><title>Node5</title>
<polygon fill="white" stroke="#bfbfbf" points="12.8206,-56.5 12.8206,-75.5 60.8206,-75.5 60.8206,-56.5 12.8206,-56.5"/>
<text text-anchor="middle" x="36.8206" y="-63.5" font-family="Helvetica,sans-Serif" font-size="10.00">stdlib.h</text>
</g>
<!-- Node3&#45;&gt;Node5 -->
<g id="edge4" class="edge"><title>Node3&#45;&gt;Node5</title>
<path fill="none" stroke="midnightblue" d="M81.0687,-112.083C73.3509,-104.22 61.9159,-92.5688 52.6041,-83.0813"/>
<polygon fill="midnightblue" stroke="midnightblue" points="54.9122,-80.4363 45.4096,-75.7511 49.9164,-85.3396 54.9122,-80.4363"/>
</g>
<!-- Node6 -->
<g id="node6" class="node"><title>Node6</title>
<g id="a_node6"><a xlink:href="../../d1/d2e/LMS7002M__parameters_8h.html" target="_top" xlink:title="List of LMS7002M transceiver control parameters. ">
<polygon fill="white" stroke="black" points="78.8206,-56.5 78.8206,-75.5 206.821,-75.5 206.821,-56.5 78.8206,-56.5"/>
<text text-anchor="middle" x="142.821" y="-63.5" font-family="Helvetica,sans-Serif" font-size="10.00">LMS7002M_parameters.h</text>
</a>
</g>
</g>
<!-- Node3&#45;&gt;Node6 -->
<g id="edge5" class="edge"><title>Node3&#45;&gt;Node6</title>
<path fill="none" stroke="midnightblue" d="M98.5725,-112.083C106.29,-104.22 117.725,-92.5688 127.037,-83.0813"/>
<polygon fill="midnightblue" stroke="midnightblue" points="129.725,-85.3396 134.232,-75.7511 124.729,-80.4363 129.725,-85.3396"/>
</g>
<!-- Node7 -->
<g id="node7" class="node"><title>Node7</title>
<polygon fill="white" stroke="#bfbfbf" points="224.821,-56.5 224.821,-75.5 280.821,-75.5 280.821,-56.5 224.821,-56.5"/>
<text text-anchor="middle" x="252.821" y="-63.5" font-family="Helvetica,sans-Serif" font-size="10.00">stdbool.h</text>
</g>
<!-- Node3&#45;&gt;Node7 -->
<g id="edge7" class="edge"><title>Node3&#45;&gt;Node7</title>
<path fill="none" stroke="midnightblue" d="M115.648,-112.444C143.07,-103.359 186.598,-88.9388 217.253,-78.7831"/>
<polygon fill="midnightblue" stroke="midnightblue" points="218.722,-81.9837 227.114,-75.5164 216.52,-75.3389 218.722,-81.9837"/>
</g>
<!-- Node6&#45;&gt;Node4 -->
<g id="edge6" class="edge"><title>Node6&#45;&gt;Node4</title>
<path fill="none" stroke="midnightblue" d="M130.128,-56.324C117.919,-47.979 99.2421,-35.2122 84.8177,-25.3524"/>
<polygon fill="midnightblue" stroke="midnightblue" points="86.7126,-22.4082 76.4818,-19.6545 82.7624,-28.1871 86.7126,-22.4082"/>
</g>
<!-- Node18 -->
<g id="node18" class="node"><title>Node18</title>
<polygon fill="white" stroke="#bfbfbf" points="761.321,-112.5 761.321,-131.5 814.321,-131.5 814.321,-112.5 761.321,-112.5"/>
<text text-anchor="middle" x="787.821" y="-119.5" font-family="Helvetica,sans-Serif" font-size="10.00">wx/wx.h</text>
</g>
<!-- Node17&#45;&gt;Node18 -->
<g id="edge18" class="edge"><title>Node17&#45;&gt;Node18</title>
<path fill="none" stroke="midnightblue" d="M887.123,-168.444C867.876,-159.636 837.668,-145.812 815.62,-135.722"/>
<polygon fill="midnightblue" stroke="midnightblue" points="816.98,-132.495 806.431,-131.516 814.067,-138.86 816.98,-132.495"/>
</g>
<!-- Node20 -->
<g id="node20" class="node"><title>Node20</title>
<g id="a_node20"><a xlink:href="../../dd/d40/LimeSuiteConfig_8h.html" target="_top" xlink:title="Configuration constants and macros for lime suite library. ">
<polygon fill="white" stroke="black" points="832.321,-112.5 832.321,-131.5 929.321,-131.5 929.321,-112.5 832.321,-112.5"/>
<text text-anchor="middle" x="880.821" y="-119.5" font-family="Helvetica,sans-Serif" font-size="10.00">LimeSuiteConfig.h</text>
</a>
</g>
</g>
<!-- Node19&#45;&gt;Node20 -->
<g id="edge20" class="edge"><title>Node19&#45;&gt;Node20</title>
<path fill="none" stroke="midnightblue" d="M980.965,-168.444C961.555,-159.636 931.091,-145.812 908.856,-135.722"/>
<polygon fill="midnightblue" stroke="midnightblue" points="910.141,-132.462 899.588,-131.516 907.248,-138.836 910.141,-132.462"/>
</g>
<!-- Node21 -->
<g id="node21" class="node"><title>Node21</title>
<polygon fill="white" stroke="#bfbfbf" points="947.321,-112.5 947.321,-131.5 988.321,-131.5 988.321,-112.5 947.321,-112.5"/>
<text text-anchor="middle" x="967.821" y="-119.5" font-family="Helvetica,sans-Serif" font-size="10.00">string</text>
</g>
<!-- Node19&#45;&gt;Node21 -->
<g id="edge21" class="edge"><title>Node19&#45;&gt;Node21</title>
<path fill="none" stroke="midnightblue" d="M994.536,-168.083C990.11,-160.613 983.657,-149.724 978.203,-140.52"/>
<polygon fill="midnightblue" stroke="midnightblue" points="981.116,-138.57 973.006,-131.751 975.093,-142.138 981.116,-138.57"/>
</g>
<!-- Node22 -->
<g id="node22" class="node"><title>Node22</title>
<polygon fill="white" stroke="#bfbfbf" points="1006.32,-112.5 1006.32,-131.5 1055.32,-131.5 1055.32,-112.5 1006.32,-112.5"/>
<text text-anchor="middle" x="1030.82" y="-119.5" font-family="Helvetica,sans-Serif" font-size="10.00">cstdarg</text>
</g>
<!-- Node19&#45;&gt;Node22 -->
<g id="edge22" class="edge"><title>Node19&#45;&gt;Node22</title>
<path fill="none" stroke="midnightblue" d="M1004.94,-168.083C1009.23,-160.613 1015.48,-149.724 1020.76,-140.52"/>
<polygon fill="midnightblue" stroke="midnightblue" points="1023.85,-142.166 1025.8,-131.751 1017.78,-138.681 1023.85,-142.166"/>
</g>
<!-- Node23 -->
<g id="node23" class="node"><title>Node23</title>
<polygon fill="white" stroke="#bfbfbf" points="1073.82,-112.5 1073.82,-131.5 1117.82,-131.5 1117.82,-112.5 1073.82,-112.5"/>
<text text-anchor="middle" x="1095.82" y="-119.5" font-family="Helvetica,sans-Serif" font-size="10.00">cerrno</text>
</g>
<!-- Node19&#45;&gt;Node23 -->
<g id="edge23" class="edge"><title>Node19&#45;&gt;Node23</title>
<path fill="none" stroke="midnightblue" d="M1015.24,-168.324C1030.36,-159.822 1053.64,-146.729 1071.29,-136.797"/>
<polygon fill="midnightblue" stroke="midnightblue" points="1073.43,-139.608 1080.43,-131.655 1070,-133.507 1073.43,-139.608"/>
</g>
<!-- Node24 -->
<g id="node24" class="node"><title>Node24</title>
<polygon fill="white" stroke="#bfbfbf" points="1136.32,-112.5 1136.32,-131.5 1195.32,-131.5 1195.32,-112.5 1136.32,-112.5"/>
<text text-anchor="middle" x="1165.82" y="-119.5" font-family="Helvetica,sans-Serif" font-size="10.00">stdexcept</text>
</g>
<!-- Node19&#45;&gt;Node24 -->
<g id="edge24" class="edge"><title>Node19&#45;&gt;Node24</title>
<path fill="none" stroke="midnightblue" d="M1026.12,-168.444C1054.17,-159.32 1098.77,-144.813 1130,-134.651"/>
<polygon fill="midnightblue" stroke="midnightblue" points="1131.21,-137.938 1139.64,-131.516 1129.05,-131.282 1131.21,-137.938"/>
</g>
</g>
</svg>
        <g id="navigator" transform="translate(0 0)" fill="#404254">
                <rect fill="#f2f5e9" fill-opacity="0.5" stroke="#606060" stroke-width=".5" x="0" y="0" width="60" height="60"/>
                <use id="zoomplus" xlink:href="#zoomPlus" x="17" y="9" onmousedown="handleZoom(evt,'in')"/>
                <use id="zoomminus" xlink:href="#zoomMin" x="42" y="9" onmousedown="handleZoom(evt,'out')"/>
                <use id="reset" xlink:href="#resetDef" x="30" y="36" onmousedown="handleReset()"/>
                <g id="arrowUp" xlink:href="#dirArrow" transform="translate(30 24)" onmousedown="handlePan(0,-1)">
                  <use xlink:href="#rim" fill="#404040">
                        <set attributeName="fill" to="#808080" begin="arrowUp.mouseover" end="arrowUp.mouseout"/>
                  </use>
                  <path fill="none" stroke="white" stroke-width="1.5" d="M0,-3.0v7 M-2.5,-0.5L0,-3.0L2.5,-0.5"/>
                </g>
                <g id="arrowRight" xlink:href="#dirArrow" transform="rotate(90) translate(36 -43)" onmousedown="handlePan(1,0)">
                  <use xlink:href="#rim" fill="#404040">
                        <set attributeName="fill" to="#808080" begin="arrowRight.mouseover" end="arrowRight.mouseout"/>
                  </use>
                  <path fill="none" stroke="white" stroke-width="1.5" d="M0,-3.0v7 M-2.5,-0.5L0,-3.0L2.5,-0.5"/>
                </g>
                <g id="arrowDown" xlink:href="#dirArrow" transform="rotate(180) translate(-30 -48)" onmousedown="handlePan(0,1)">
                  <use xlink:href="#rim" fill="#404040">
                        <set attributeName="fill" to="#808080" begin="arrowDown.mouseover" end="arrowDown.mouseout"/>
                  </use>
                  <path fill="none" stroke="white" stroke-width="1.5" d="M0,-3.0v7 M-2.5,-0.5L0,-3.0L2.5,-0.5"/>
                </g>
                <g id="arrowLeft" xlink:href="#dirArrow" transform="rotate(270) translate(-36 17)" onmousedown="handlePan(-1,0)">
                  <use xlink:href="#rim" fill="#404040">
                        <set attributeName="fill" to="#808080" begin="arrowLeft.mouseover" end="arrowLeft.mouseout"/>
                  </use>
                  <path fill="none" stroke="white" stroke-width="1.5" d="M0,-3.0v7 M-2.5,-0.5L0,-3.0L2.5,-0.5"/>
                </g>
        </g>
        <svg viewBox="0 0 15 15" width="100%" height="30px" preserveAspectRatio="xMaxYMin meet">
         <g id="arrow_out" transform="scale(0.3 0.3)">
          <a xlink:href="pnlLimeSDR_8cpp__incl_org.svg" target="_base">
           <rect id="button" ry="5" rx="5" y="6" x="6" height="38" width="38"
                fill="#f2f5e9" fill-opacity="0.5" stroke="#606060" stroke-width="1.0"/>
           <path id="arrow"
             d="M 11.500037,31.436501 C 11.940474,20.09759 22.043105,11.32322 32.158766,21.979434 L 37.068811,17.246167 C 37.068811,17.246167 37.088388,32 37.088388,32 L 22.160133,31.978069 C 22.160133,31.978069 26.997745,27.140456 26.997745,27.140456 C 18.528582,18.264221 13.291696,25.230495 11.500037,31.436501 z"
             style="fill:#404040;"/>
          </a>
         </g>
        </svg>
</svg>
