<?xml version="1.0" encoding="UTF-8" standalone="no"?>
<!DOCTYPE svg PUBLIC "-//W3C//DTD SVG 1.1//EN"
 "http://www.w3.org/Graphics/SVG/1.1/DTD/svg11.dtd">
<!-- Generated by graphviz version 2.38.0 (20140413.2041)
 -->
<!-- Title: pnlBIST_view Pages: 1 -->
<svg width="151pt" height="303pt"
 viewBox="0.00 0.00 151.00 303.00" xmlns="http://www.w3.org/2000/svg" xmlns:xlink="http://www.w3.org/1999/xlink">
<g id="graph0" class="graph" transform="scale(1 1) rotate(0) translate(4 299)">
<title>pnlBIST_view</title>
<polygon fill="white" stroke="none" points="-4,4 -4,-299 147,-299 147,4 -4,4"/>
<!-- Node1 -->
<g id="node1" class="node"><title>Node1</title>
<polygon fill="#bfbfbf" stroke="black" points="0,-0.5 0,-200.5 143,-200.5 143,-0.5 0,-0.5"/>
<text text-anchor="middle" x="71.5" y="-188.5" font-family="Helvetica,sans-Serif" font-size="10.00">pnlBIST_view</text>
<polyline fill="none" stroke="black" points="0,-181.5 143,-181.5 "/>
<text text-anchor="start" x="8" y="-169.5" font-family="Helvetica,sans-Serif" font-size="10.00"># chkBENC</text>
<text text-anchor="start" x="8" y="-158.5" font-family="Helvetica,sans-Serif" font-size="10.00"># chkSDM_TSTO_CGEN</text>
<text text-anchor="start" x="8" y="-147.5" font-family="Helvetica,sans-Serif" font-size="10.00"># chkBENR</text>
<text text-anchor="start" x="8" y="-136.5" font-family="Helvetica,sans-Serif" font-size="10.00"># chkSDM_TSTO_SXR</text>
<text text-anchor="start" x="8" y="-125.5" font-family="Helvetica,sans-Serif" font-size="10.00"># chkBENT</text>
<text text-anchor="start" x="8" y="-114.5" font-family="Helvetica,sans-Serif" font-size="10.00"># chkSDM_TSTO_SXT</text>
<text text-anchor="start" x="8" y="-103.5" font-family="Helvetica,sans-Serif" font-size="10.00"># chkBSTART</text>
<text text-anchor="start" x="8" y="-92.5" font-family="Helvetica,sans-Serif" font-size="10.00"># ID_STATICTEXT2</text>
<text text-anchor="start" x="8" y="-81.5" font-family="Helvetica,sans-Serif" font-size="10.00"># lblBSTATE</text>
<text text-anchor="start" x="8" y="-70.5" font-family="Helvetica,sans-Serif" font-size="10.00"># ID_STATICTEXT1</text>
<text text-anchor="start" x="8" y="-59.5" font-family="Helvetica,sans-Serif" font-size="10.00">and 6 more...</text>
<polyline fill="none" stroke="black" points="0,-52.5 143,-52.5 "/>
<text text-anchor="start" x="8" y="-40.5" font-family="Helvetica,sans-Serif" font-size="10.00">+ pnlBIST_view()</text>
<text text-anchor="start" x="8" y="-29.5" font-family="Helvetica,sans-Serif" font-size="10.00">+ ~pnlBIST_view()</text>
<text text-anchor="start" x="8" y="-18.5" font-family="Helvetica,sans-Serif" font-size="10.00"># ParameterChangeHandler()</text>
<text text-anchor="start" x="8" y="-7.5" font-family="Helvetica,sans-Serif" font-size="10.00"># onbtnReadSignature()</text>
</g>
<!-- Node2 -->
<g id="node2" class="node"><title>Node2</title>
<polygon fill="white" stroke="#bfbfbf" points="44.5,-237.5 44.5,-294.5 98.5,-294.5 98.5,-237.5 44.5,-237.5"/>
<text text-anchor="middle" x="71.5" y="-282.5" font-family="Helvetica,sans-Serif" font-size="10.00">wxPanel</text>
<polyline fill="none" stroke="#bfbfbf" points="44.5,-275.5 98.5,-275.5 "/>
<text text-anchor="middle" x="71.5" y="-263.5" font-family="Helvetica,sans-Serif" font-size="10.00"> </text>
<polyline fill="none" stroke="#bfbfbf" points="44.5,-256.5 98.5,-256.5 "/>
<text text-anchor="middle" x="71.5" y="-244.5" font-family="Helvetica,sans-Serif" font-size="10.00"> </text>
</g>
<!-- Node2&#45;&gt;Node1 -->
<g id="edge1" class="edge"><title>Node2&#45;&gt;Node1</title>
<path fill="none" stroke="midnightblue" d="M71.5,-227.04C71.5,-218.867 71.5,-209.865 71.5,-200.549"/>
<polygon fill="none" stroke="midnightblue" points="68.0001,-227.264 71.5,-237.264 75.0001,-227.264 68.0001,-227.264"/>
</g>
</g>
</svg>
