<?xml version="1.0" encoding="UTF-8" standalone="no"?>
<!DOCTYPE svg PUBLIC "-//W3C//DTD SVG 1.1//EN"
 "http://www.w3.org/Graphics/SVG/1.1/DTD/svg11.dtd">
<!-- Generated by graphviz version 2.38.0 (20140413.2041)
 -->
<!-- Title: deviceTestTiming Pages: 1 -->
<!--zoomable 302 -->
<svg id="main" version="1.1" xmlns="http://www.w3.org/2000/svg" xmlns:xlink="http://www.w3.org/1999/xlink" xml:space="preserve" onload="init(evt)">
<style type="text/css"><![CDATA[
.edge:hover path { stroke: red; }
.edge:hover polygon { stroke: red; fill: red; }
]]></style>
<script type="text/javascript"><![CDATA[
var edges = document.getElementsByTagName('g');
if (edges && edges.length) {
  for (var i=0;i<edges.length;i++) {
    if (edges[i].id.substr(0,4)=='edge') {
      edges[i].setAttribute('class','edge');
    }
  }
}
]]></script>
        <defs>
                <circle id="rim" cx="0" cy="0" r="7"/>
                <circle id="rim2" cx="0" cy="0" r="3.5"/>
                <g id="zoomPlus">
                        <use xlink:href="#rim" fill="#404040">
                                <set attributeName="fill" to="#808080" begin="zoomplus.mouseover" end="zoomplus.mouseout"/>
                        </use>
                        <path d="M-4,0h8M0,-4v8" fill="none" stroke="white" stroke-width="1.5" pointer-events="none"/>
                </g>
                <g id="zoomMin">
                        <use xlink:href="#rim" fill="#404040">
                                <set attributeName="fill" to="#808080" begin="zoomminus.mouseover" end="zoomminus.mouseout"/>
                        </use>
                        <path d="M-4,0h8" fill="none" stroke="white" stroke-width="1.5" pointer-events="none"/>
                </g>
                <g id="dirArrow">
                        <path fill="none" stroke="white" stroke-width="1.5" d="M0,-3.0v7 M-2.5,-0.5L0,-3.0L2.5,-0.5"/>
                </g>
               <g id="resetDef">
                       <use xlink:href="#rim2" fill="#404040">
                               <set attributeName="fill" to="#808080" begin="reset.mouseover" end="reset.mouseout"/>
                       </use>
               </g>
        </defs>

<script type="text/javascript">
var viewWidth = 999;
var viewHeight = 302;
var sectionId = 'dynsection-3';
</script>
<script xlink:href="../../svgpan.js"/>
<svg id="graph" class="graph">
<g id="viewport">
<title>deviceTestTiming</title>
<polygon fill="white" stroke="none" points="-4,4 -4,-297.5 995,-297.5 995,4 -4,4"/>
<!-- Node1 -->
<g id="node1" class="node"><title>Node1</title>
<polygon fill="#bfbfbf" stroke="black" points="0,-74 0,-93 94,-93 94,-74 0,-74"/>
<text text-anchor="middle" x="47" y="-81" font-family="Helvetica,sans-Serif" font-size="10.00">deviceTestTiming</text>
</g>
<!-- Node2 -->
<g id="node2" class="node"><title>Node2</title>
<g id="a_node2"><a xlink:href="../../df/d74/classlime_1_1ConnectionRegistry.html#acdc063f9df6336a9ea341fa9eddffab3" target="_top" xlink:title="lime::ConnectionRegistry\l::findConnections">
<polygon fill="white" stroke="black" points="147,-142.5 147,-172.5 274,-172.5 274,-142.5 147,-142.5"/>
<text text-anchor="start" x="155" y="-160.5" font-family="Helvetica,sans-Serif" font-size="10.00">lime::ConnectionRegistry</text>
<text text-anchor="middle" x="210.5" y="-149.5" font-family="Helvetica,sans-Serif" font-size="10.00">::findConnections</text>
</a>
</g>
</g>
<!-- Node1&#45;&gt;Node2 -->
<g id="edge1" class="edge"><title>Node1&#45;&gt;Node2</title>
<path fill="none" stroke="midnightblue" d="M61.3413,-93.1102C77.1039,-104.107 104.427,-122.068 130,-133.5 134.376,-135.456 138.957,-137.309 143.615,-139.053"/>
<polygon fill="midnightblue" stroke="midnightblue" points="142.65,-142.424 153.245,-142.476 144.995,-135.829 142.65,-142.424"/>
</g>
<!-- Node11 -->
<g id="node11" class="node"><title>Node11</title>
<g id="a_node11"><a xlink:href="../../df/d74/classlime_1_1ConnectionRegistry.html#a2f3782ae6d14e98f861d1ae54510ac2d" target="_top" xlink:title="lime::ConnectionRegistry\l::freeConnection">
<polygon fill="white" stroke="black" points="147,-44.5 147,-74.5 274,-74.5 274,-44.5 147,-44.5"/>
<text text-anchor="start" x="155" y="-62.5" font-family="Helvetica,sans-Serif" font-size="10.00">lime::ConnectionRegistry</text>
<text text-anchor="middle" x="210.5" y="-51.5" font-family="Helvetica,sans-Serif" font-size="10.00">::freeConnection</text>
</a>
</g>
</g>
<!-- Node1&#45;&gt;Node11 -->
<g id="edge10" class="edge"><title>Node1&#45;&gt;Node11</title>
<path fill="none" stroke="midnightblue" d="M94.2794,-76.6226C107.608,-74.6418 122.48,-72.4318 136.992,-70.2751"/>
<polygon fill="midnightblue" stroke="midnightblue" points="137.582,-73.726 146.959,-68.7941 136.553,-66.8021 137.582,-73.726"/>
</g>
<!-- Node12 -->
<g id="node12" class="node"><title>Node12</title>
<g id="a_node12"><a xlink:href="../../df/d74/classlime_1_1ConnectionRegistry.html#a225378efe92275fc2ed267b89da8297e" target="_top" xlink:title="lime::ConnectionRegistry\l::makeConnection">
<polygon fill="white" stroke="black" points="147,-93.5 147,-123.5 274,-123.5 274,-93.5 147,-93.5"/>
<text text-anchor="start" x="155" y="-111.5" font-family="Helvetica,sans-Serif" font-size="10.00">lime::ConnectionRegistry</text>
<text text-anchor="middle" x="210.5" y="-100.5" font-family="Helvetica,sans-Serif" font-size="10.00">::makeConnection</text>
</a>
</g>
</g>
<!-- Node1&#45;&gt;Node12 -->
<g id="edge12" class="edge"><title>Node1&#45;&gt;Node12</title>
<path fill="none" stroke="midnightblue" d="M94.2794,-90.664C107.608,-92.7273 122.48,-95.0294 136.992,-97.2759"/>
<polygon fill="midnightblue" stroke="midnightblue" points="136.541,-100.748 146.959,-98.8187 137.612,-93.83 136.541,-100.748"/>
</g>
<!-- Node13 -->
<g id="node13" class="node"><title>Node13</title>
<g id="a_node13"><a xlink:href="../../db/d1d/classlime_1_1LMS7002M.html#ab696f6e49dbf46158f19116045387d33" target="_top" xlink:title="Sets connection which is used for data communication with chip. ">
<polygon fill="white" stroke="black" points="130,-6 130,-25 291,-25 291,-6 130,-6"/>
<text text-anchor="middle" x="210.5" y="-13" font-family="Helvetica,sans-Serif" font-size="10.00">lime::LMS7002M::SetConnection</text>
</a>
</g>
</g>
<!-- Node1&#45;&gt;Node13 -->
<g id="edge15" class="edge"><title>Node1&#45;&gt;Node13</title>
<path fill="none" stroke="midnightblue" d="M61.2592,-73.8345C76.9446,-62.8248 104.195,-45.0051 130,-34.5 136.182,-31.9835 142.775,-29.7504 149.42,-27.7815"/>
<polygon fill="midnightblue" stroke="midnightblue" points="150.451,-31.128 159.152,-25.0835 148.58,-24.3824 150.451,-31.128"/>
</g>
<!-- Node3 -->
<g id="node3" class="node"><title>Node3</title>
<g id="a_node3"><a xlink:href="../../d3/d58/ConnectionRegistry_8cpp.html#aa70d3b52e1cb50a0736b9cf791464ee1" target="_top" xlink:title="__loadAllConnections">
<polygon fill="white" stroke="black" points="327,-142 327,-161 438,-161 438,-142 327,-142"/>
<text text-anchor="middle" x="382.5" y="-149" font-family="Helvetica,sans-Serif" font-size="10.00">__loadAllConnections</text>
</a>
</g>
</g>
<!-- Node2&#45;&gt;Node3 -->
<g id="edge2" class="edge"><title>Node2&#45;&gt;Node3</title>
<path fill="none" stroke="midnightblue" d="M274.319,-155.283C288.036,-154.799 302.583,-154.285 316.387,-153.798"/>
<polygon fill="midnightblue" stroke="midnightblue" points="316.903,-157.282 326.773,-153.432 316.656,-150.287 316.903,-157.282"/>
</g>
<!-- Node10 -->
<g id="node10" class="node"><title>Node10</title>
<g id="a_node10"><a xlink:href="../../d3/d58/ConnectionRegistry_8cpp.html#a7b6ff8fe9f005ea107c52866c40462fc" target="_top" xlink:title="registryMutex">
<polygon fill="white" stroke="black" points="344.5,-99 344.5,-118 420.5,-118 420.5,-99 344.5,-99"/>
<text text-anchor="middle" x="382.5" y="-106" font-family="Helvetica,sans-Serif" font-size="10.00">registryMutex</text>
</a>
</g>
</g>
<!-- Node2&#45;&gt;Node10 -->
<g id="edge9" class="edge"><title>Node2&#45;&gt;Node10</title>
<path fill="none" stroke="midnightblue" d="M263.893,-142.399C287.943,-135.466 316.098,-127.351 338.83,-120.799"/>
<polygon fill="midnightblue" stroke="midnightblue" points="339.895,-124.135 348.534,-118.002 337.956,-117.409 339.895,-124.135"/>
</g>
<!-- Node4 -->
<g id="node4" class="node"><title>Node4</title>
<g id="a_node4"><a xlink:href="../../d6/d7b/BuiltinConnections_8in_8cpp.html#aafab0a44fc1f7320af30da07cb979574" target="_top" xlink:title="make a static&#45;initialized entry in the registry ">
<polygon fill="white" stroke="black" points="474,-137 474,-156 641,-156 641,-137 474,-137"/>
<text text-anchor="middle" x="557.5" y="-144" font-family="Helvetica,sans-Serif" font-size="10.00">__loadConnectionEVB7COMEntry</text>
</a>
</g>
</g>
<!-- Node3&#45;&gt;Node4 -->
<g id="edge3" class="edge"><title>Node3&#45;&gt;Node4</title>
<path fill="none" stroke="midnightblue" d="M438.238,-149.918C446.421,-149.681 455.043,-149.432 463.751,-149.181"/>
<polygon fill="midnightblue" stroke="midnightblue" points="464.095,-152.672 473.99,-148.885 463.893,-145.675 464.095,-152.672"/>
</g>
<!-- Node5 -->
<g id="node5" class="node"><title>Node5</title>
<g id="a_node5"><a xlink:href="../../d6/d7b/BuiltinConnections_8in_8cpp.html#a52c35dd464a2d8bd7fad6625cf30265c" target="_top" xlink:title="make a static&#45;initialized entry in the registry ">
<polygon fill="white" stroke="black" points="489.5,-99 489.5,-118 625.5,-118 625.5,-99 489.5,-99"/>
<text text-anchor="middle" x="557.5" y="-106" font-family="Helvetica,sans-Serif" font-size="10.00">__loadConnectionFX3Entry</text>
</a>
</g>
</g>
<!-- Node3&#45;&gt;Node5 -->
<g id="edge4" class="edge"><title>Node3&#45;&gt;Node5</title>
<path fill="none" stroke="midnightblue" d="M418.673,-141.885C435.4,-137.386 455.697,-132.033 474,-127.5 483.63,-125.115 493.917,-122.667 503.846,-120.354"/>
<polygon fill="midnightblue" stroke="midnightblue" points="504.663,-123.758 513.617,-118.095 503.086,-116.938 504.663,-123.758"/>
</g>
<!-- Node6 -->
<g id="node6" class="node"><title>Node6</title>
<g id="a_node6"><a xlink:href="../../d6/d7b/BuiltinConnections_8in_8cpp.html#a86c8aaa38f814e66a6501109b0419128" target="_top" xlink:title="make a static&#45;initialized entry in the registry ">
<polygon fill="white" stroke="black" points="489,-49.5 489,-79.5 626,-79.5 626,-49.5 489,-49.5"/>
<text text-anchor="start" x="497" y="-67.5" font-family="Helvetica,sans-Serif" font-size="10.00">__loadConnectionSTREAM</text>
<text text-anchor="middle" x="557.5" y="-56.5" font-family="Helvetica,sans-Serif" font-size="10.00">_UNITEEntry</text>
</a>
</g>
</g>
<!-- Node3&#45;&gt;Node6 -->
<g id="edge5" class="edge"><title>Node3&#45;&gt;Node6</title>
<path fill="none" stroke="midnightblue" d="M410.967,-141.909C419.991,-138.119 429.801,-133.275 438,-127.5 457.02,-114.104 454.207,-101.726 474,-89.5 477.412,-87.3924 481.014,-85.4522 484.728,-83.6673"/>
<polygon fill="midnightblue" stroke="midnightblue" points="486.391,-86.76 494.148,-79.5437 483.584,-80.3474 486.391,-86.76"/>
</g>
<!-- Node7 -->
<g id="node7" class="node"><title>Node7</title>
<g id="a_node7"><a xlink:href="../../d6/d7b/BuiltinConnections_8in_8cpp.html#abbfa4cb1eee49942395e8844101b99e1" target="_top" xlink:title="make a static&#45;initialized entry in the registry ">
<polygon fill="white" stroke="black" points="484.5,-274 484.5,-293 630.5,-293 630.5,-274 484.5,-274"/>
<text text-anchor="middle" x="557.5" y="-281" font-family="Helvetica,sans-Serif" font-size="10.00">__loadConnectionFT601Entry</text>
</a>
</g>
</g>
<!-- Node3&#45;&gt;Node7 -->
<g id="edge6" class="edge"><title>Node3&#45;&gt;Node7</title>
<path fill="none" stroke="midnightblue" d="M388.313,-161.185C399.828,-183.291 431.222,-237.625 474,-264.5 477.403,-266.638 481.02,-268.536 484.767,-270.221"/>
<polygon fill="midnightblue" stroke="midnightblue" points="483.714,-273.568 494.3,-273.986 486.285,-267.057 483.714,-273.568"/>
</g>
<!-- Node8 -->
<g id="node8" class="node"><title>Node8</title>
<g id="a_node8"><a xlink:href="../../d6/d7b/BuiltinConnections_8in_8cpp.html#a4029c016de66cd0c9aa695c4212f0029" target="_top" xlink:title="make a static&#45;initialized entry in the registry ">
<polygon fill="white" stroke="black" points="484,-224.5 484,-254.5 631,-254.5 631,-224.5 484,-224.5"/>
<text text-anchor="start" x="492" y="-242.5" font-family="Helvetica,sans-Serif" font-size="10.00">__loadConnectionNovenaRF7</text>
<text text-anchor="middle" x="557.5" y="-231.5" font-family="Helvetica,sans-Serif" font-size="10.00">Entry</text>
</a>
</g>
</g>
<!-- Node3&#45;&gt;Node8 -->
<g id="edge7" class="edge"><title>Node3&#45;&gt;Node8</title>
<path fill="none" stroke="midnightblue" d="M394.443,-161.095C410.733,-174.926 442.799,-200.455 474,-215.5 478.039,-217.448 482.267,-219.269 486.585,-220.967"/>
<polygon fill="midnightblue" stroke="midnightblue" points="485.546,-224.314 496.139,-224.487 487.966,-217.745 485.546,-224.314"/>
</g>
<!-- Node9 -->
<g id="node9" class="node"><title>Node9</title>
<g id="a_node9"><a xlink:href="../../d6/d7b/BuiltinConnections_8in_8cpp.html#af9ac641bc1febe4c158ee95b289bb04c" target="_top" xlink:title="make a static&#45;initialized entry in the registry ">
<polygon fill="white" stroke="black" points="493,-175.5 493,-205.5 622,-205.5 622,-175.5 493,-175.5"/>
<text text-anchor="start" x="501" y="-193.5" font-family="Helvetica,sans-Serif" font-size="10.00">__loadConnectionXillybus</text>
<text text-anchor="middle" x="557.5" y="-182.5" font-family="Helvetica,sans-Serif" font-size="10.00">Entry</text>
</a>
</g>
</g>
<!-- Node3&#45;&gt;Node9 -->
<g id="edge8" class="edge"><title>Node3&#45;&gt;Node9</title>
<path fill="none" stroke="midnightblue" d="M425.821,-161.04C443.021,-164.918 463.407,-169.514 482.9,-173.908"/>
<polygon fill="midnightblue" stroke="midnightblue" points="482.158,-177.329 492.683,-176.114 483.698,-170.5 482.158,-177.329"/>
</g>
<!-- Node11&#45;&gt;Node10 -->
<g id="edge11" class="edge"><title>Node11&#45;&gt;Node10</title>
<path fill="none" stroke="midnightblue" d="M263.893,-74.6014C287.943,-81.5335 316.098,-89.6488 338.83,-96.2009"/>
<polygon fill="midnightblue" stroke="midnightblue" points="337.956,-99.5915 348.534,-98.9981 339.895,-92.8653 337.956,-99.5915"/>
</g>
<!-- Node12&#45;&gt;Node3 -->
<g id="edge13" class="edge"><title>Node12&#45;&gt;Node3</title>
<path fill="none" stroke="midnightblue" d="M270.958,-123.539C291.586,-128.757 314.427,-134.535 333.966,-139.477"/>
<polygon fill="midnightblue" stroke="midnightblue" points="333.301,-142.919 343.854,-141.978 335.018,-136.132 333.301,-142.919"/>
</g>
<!-- Node12&#45;&gt;Node10 -->
<g id="edge14" class="edge"><title>Node12&#45;&gt;Node10</title>
<path fill="none" stroke="midnightblue" d="M274.319,-108.5C294.019,-108.5 315.428,-108.5 333.895,-108.5"/>
<polygon fill="midnightblue" stroke="midnightblue" points="334.107,-112 344.107,-108.5 334.107,-105 334.107,-112"/>
</g>
<!-- Node14 -->
<g id="node14" class="node"><title>Node14</title>
<g id="a_node14"><a xlink:href="../../da/d87/spi_8h.html#a6ca6565d9a3c9b39a4ad5239f27665c7" target="_top" xlink:title="Get_SPI_Reg_bits">
<polygon fill="white" stroke="black" points="333.5,-6 333.5,-25 431.5,-25 431.5,-6 333.5,-6"/>
<text text-anchor="middle" x="382.5" y="-13" font-family="Helvetica,sans-Serif" font-size="10.00">Get_SPI_Reg_bits</text>
</a>
</g>
</g>
<!-- Node13&#45;&gt;Node14 -->
<g id="edge16" class="edge"><title>Node13&#45;&gt;Node14</title>
<path fill="none" stroke="midnightblue" d="M291.025,-15.5C301.783,-15.5 312.66,-15.5 322.96,-15.5"/>
<polygon fill="midnightblue" stroke="midnightblue" points="323.043,-19.0001 333.043,-15.5 323.042,-12.0001 323.043,-19.0001"/>
</g>
<!-- Node15 -->
<g id="node15" class="node"><title>Node15</title>
<g id="a_node15"><a xlink:href="../../dd/d7e/spi_8cpp.html#a7dee89a3e8018d75340f8ffd14015284" target="_top" xlink:title="SPI_read">
<polygon fill="white" stroke="black" points="529,-6 529,-25 586,-25 586,-6 529,-6"/>
<text text-anchor="middle" x="557.5" y="-13" font-family="Helvetica,sans-Serif" font-size="10.00">SPI_read</text>
</a>
</g>
</g>
<!-- Node14&#45;&gt;Node15 -->
<g id="edge17" class="edge"><title>Node14&#45;&gt;Node15</title>
<path fill="none" stroke="midnightblue" d="M431.69,-15.5C459.106,-15.5 492.957,-15.5 518.485,-15.5"/>
<polygon fill="midnightblue" stroke="midnightblue" points="518.524,-19.0001 528.524,-15.5 518.524,-12.0001 518.524,-19.0001"/>
</g>
<!-- Node16 -->
<g id="node16" class="node"><title>Node16</title>
<g id="a_node16"><a xlink:href="../../d2/de5/classlime_1_1IConnection.html#af3dfb39cc643d88c1196ded5d5cbecea" target="_top" xlink:title="Bulk SPI write/read transaction. ">
<polygon fill="white" stroke="black" points="677,-0.5 677,-30.5 776,-30.5 776,-0.5 677,-0.5"/>
<text text-anchor="start" x="685" y="-18.5" font-family="Helvetica,sans-Serif" font-size="10.00">lime::IConnection::</text>
<text text-anchor="middle" x="726.5" y="-7.5" font-family="Helvetica,sans-Serif" font-size="10.00">TransactSPI</text>
</a>
</g>
</g>
<!-- Node15&#45;&gt;Node16 -->
<g id="edge18" class="edge"><title>Node15&#45;&gt;Node16</title>
<path fill="none" stroke="midnightblue" d="M586.077,-15.5C607.928,-15.5 639.235,-15.5 666.649,-15.5"/>
<polygon fill="midnightblue" stroke="midnightblue" points="666.937,-19.0001 676.937,-15.5 666.937,-12.0001 666.937,-19.0001"/>
</g>
<!-- Node17 -->
<g id="node17" class="node"><title>Node17</title>
<g id="a_node17"><a xlink:href="../../d5/d6c/namespacelime.html#adc6af0cf8e0a70f3ef09fac1244f8c48" target="_top" xlink:title="lime::ReportError">
<polygon fill="white" stroke="black" points="812,-6 812,-25 903,-25 903,-6 812,-6"/>
<text text-anchor="middle" x="857.5" y="-13" font-family="Helvetica,sans-Serif" font-size="10.00">lime::ReportError</text>
</a>
</g>
</g>
<!-- Node16&#45;&gt;Node17 -->
<g id="edge19" class="edge"><title>Node16&#45;&gt;Node17</title>
<path fill="none" stroke="midnightblue" d="M776.269,-15.5C784.588,-15.5 793.279,-15.5 801.74,-15.5"/>
<polygon fill="midnightblue" stroke="midnightblue" points="801.908,-19.0001 811.908,-15.5 801.908,-12.0001 801.908,-19.0001"/>
</g>
<!-- Node18 -->
<g id="node18" class="node"><title>Node18</title>
<g id="a_node18"><a xlink:href="../../d9/df5/Logger_8cpp.html#ada38bf01d6d691de953ed69268ea6516" target="_top" xlink:title="errToStr">
<polygon fill="white" stroke="black" points="939,-6 939,-25 991,-25 991,-6 939,-6"/>
<text text-anchor="middle" x="965" y="-13" font-family="Helvetica,sans-Serif" font-size="10.00">errToStr</text>
</a>
</g>
</g>
<!-- Node17&#45;&gt;Node18 -->
<g id="edge20" class="edge"><title>Node17&#45;&gt;Node18</title>
<path fill="none" stroke="midnightblue" d="M903.241,-15.5C911.676,-15.5 920.39,-15.5 928.494,-15.5"/>
<polygon fill="midnightblue" stroke="midnightblue" points="928.722,-19.0001 938.722,-15.5 928.722,-12.0001 928.722,-19.0001"/>
</g>
</g>
</svg>
        <g id="navigator" transform="translate(0 0)" fill="#404254">
                <rect fill="#f2f5e9" fill-opacity="0.5" stroke="#606060" stroke-width=".5" x="0" y="0" width="60" height="60"/>
                <use id="zoomplus" xlink:href="#zoomPlus" x="17" y="9" onmousedown="handleZoom(evt,'in')"/>
                <use id="zoomminus" xlink:href="#zoomMin" x="42" y="9" onmousedown="handleZoom(evt,'out')"/>
                <use id="reset" xlink:href="#resetDef" x="30" y="36" onmousedown="handleReset()"/>
                <g id="arrowUp" xlink:href="#dirArrow" transform="translate(30 24)" onmousedown="handlePan(0,-1)">
                  <use xlink:href="#rim" fill="#404040">
                        <set attributeName="fill" to="#808080" begin="arrowUp.mouseover" end="arrowUp.mouseout"/>
                  </use>
                  <path fill="none" stroke="white" stroke-width="1.5" d="M0,-3.0v7 M-2.5,-0.5L0,-3.0L2.5,-0.5"/>
                </g>
                <g id="arrowRight" xlink:href="#dirArrow" transform="rotate(90) translate(36 -43)" onmousedown="handlePan(1,0)">
                  <use xlink:href="#rim" fill="#404040">
                        <set attributeName="fill" to="#808080" begin="arrowRight.mouseover" end="arrowRight.mouseout"/>
                  </use>
                  <path fill="none" stroke="white" stroke-width="1.5" d="M0,-3.0v7 M-2.5,-0.5L0,-3.0L2.5,-0.5"/>
                </g>
                <g id="arrowDown" xlink:href="#dirArrow" transform="rotate(180) translate(-30 -48)" onmousedown="handlePan(0,1)">
                  <use xlink:href="#rim" fill="#404040">
                        <set attributeName="fill" to="#808080" begin="arrowDown.mouseover" end="arrowDown.mouseout"/>
                  </use>
                  <path fill="none" stroke="white" stroke-width="1.5" d="M0,-3.0v7 M-2.5,-0.5L0,-3.0L2.5,-0.5"/>
                </g>
                <g id="arrowLeft" xlink:href="#dirArrow" transform="rotate(270) translate(-36 17)" onmousedown="handlePan(-1,0)">
                  <use xlink:href="#rim" fill="#404040">
                        <set attributeName="fill" to="#808080" begin="arrowLeft.mouseover" end="arrowLeft.mouseout"/>
                  </use>
                  <path fill="none" stroke="white" stroke-width="1.5" d="M0,-3.0v7 M-2.5,-0.5L0,-3.0L2.5,-0.5"/>
                </g>
        </g>
        <svg viewBox="0 0 15 15" width="100%" height="30px" preserveAspectRatio="xMaxYMin meet">
         <g id="arrow_out" transform="scale(0.3 0.3)">
          <a xlink:href="LimeUtil_8cpp_adc431603a1f6f423afd766250034b745_cgraph_org.svg" target="_base">
           <rect id="button" ry="5" rx="5" y="6" x="6" height="38" width="38"
                fill="#f2f5e9" fill-opacity="0.5" stroke="#606060" stroke-width="1.0"/>
           <path id="arrow"
             d="M 11.500037,31.436501 C 11.940474,20.09759 22.043105,11.32322 32.158766,21.979434 L 37.068811,17.246167 C 37.068811,17.246167 37.088388,32 37.088388,32 L 22.160133,31.978069 C 22.160133,31.978069 26.997745,27.140456 26.997745,27.140456 C 18.528582,18.264221 13.291696,25.230495 11.500037,31.436501 z"
             style="fill:#404040;"/>
          </a>
         </g>
        </svg>
</svg>
