<?xml version="1.0" encoding="UTF-8" standalone="no"?>
<!DOCTYPE svg PUBLIC "-//W3C//DTD SVG 1.1//EN"
 "http://www.w3.org/Graphics/SVG/1.1/DTD/svg11.dtd">
<!-- Generated by graphviz version 2.38.0 (20140413.2041)
 -->
<!-- Title: /home/erik/prefix/default/src/limesuite&#45;dev/mcu_program/common_src/lms7002m_calibrations.c Pages: 1 -->
<!--zoomable 240 -->
<svg id="main" version="1.1" xmlns="http://www.w3.org/2000/svg" xmlns:xlink="http://www.w3.org/1999/xlink" xml:space="preserve" onload="init(evt)">
<style type="text/css"><![CDATA[
.edge:hover path { stroke: red; }
.edge:hover polygon { stroke: red; fill: red; }
]]></style>
<script type="text/javascript"><![CDATA[
var edges = document.getElementsByTagName('g');
if (edges && edges.length) {
  for (var i=0;i<edges.length;i++) {
    if (edges[i].id.substr(0,4)=='edge') {
      edges[i].setAttribute('class','edge');
    }
  }
}
]]></script>
        <defs>
                <circle id="rim" cx="0" cy="0" r="7"/>
                <circle id="rim2" cx="0" cy="0" r="3.5"/>
                <g id="zoomPlus">
                        <use xlink:href="#rim" fill="#404040">
                                <set attributeName="fill" to="#808080" begin="zoomplus.mouseover" end="zoomplus.mouseout"/>
                        </use>
                        <path d="M-4,0h8M0,-4v8" fill="none" stroke="white" stroke-width="1.5" pointer-events="none"/>
                </g>
                <g id="zoomMin">
                        <use xlink:href="#rim" fill="#404040">
                                <set attributeName="fill" to="#808080" begin="zoomminus.mouseover" end="zoomminus.mouseout"/>
                        </use>
                        <path d="M-4,0h8" fill="none" stroke="white" stroke-width="1.5" pointer-events="none"/>
                </g>
                <g id="dirArrow">
                        <path fill="none" stroke="white" stroke-width="1.5" d="M0,-3.0v7 M-2.5,-0.5L0,-3.0L2.5,-0.5"/>
                </g>
               <g id="resetDef">
                       <use xlink:href="#rim2" fill="#404040">
                               <set attributeName="fill" to="#808080" begin="reset.mouseover" end="reset.mouseout"/>
                       </use>
               </g>
        </defs>

<script type="text/javascript">
var viewWidth = 734;
var viewHeight = 240;
var sectionId = 'dynsection-0';
</script>
<script xlink:href="../../svgpan.js"/>
<svg id="graph" class="graph">
<g id="viewport">
<title>/home/erik/prefix/default/src/limesuite&#45;dev/mcu_program/common_src/lms7002m_calibrations.c</title>
<polygon fill="white" stroke="none" points="-4,4 -4,-236 729.5,-236 729.5,4 -4,4"/>
<!-- Node1 -->
<g id="node1" class="node"><title>Node1</title>
<polygon fill="#bfbfbf" stroke="black" points="310.5,-179.5 310.5,-231.5 474.5,-231.5 474.5,-179.5 310.5,-179.5"/>
<text text-anchor="start" x="318.5" y="-219.5" font-family="Helvetica,sans-Serif" font-size="10.00">/home/erik/prefix/default</text>
<text text-anchor="start" x="318.5" y="-208.5" font-family="Helvetica,sans-Serif" font-size="10.00">/src/limesuite&#45;dev/mcu</text>
<text text-anchor="start" x="318.5" y="-197.5" font-family="Helvetica,sans-Serif" font-size="10.00">_program/common_src/lms7002m</text>
<text text-anchor="middle" x="392.5" y="-186.5" font-family="Helvetica,sans-Serif" font-size="10.00">_calibrations.c</text>
</g>
<!-- Node2 -->
<g id="node2" class="node"><title>Node2</title>
<g id="a_node2"><a xlink:href="../../d1/dc7/lms7002m__calibrations_8h.html" target="_top" xlink:title="lms7002m_calibrations.h">
<polygon fill="white" stroke="black" points="0,-118 0,-137 125,-137 125,-118 0,-118"/>
<text text-anchor="middle" x="62.5" y="-125" font-family="Helvetica,sans-Serif" font-size="10.00">lms7002m_calibrations.h</text>
</a>
</g>
</g>
<!-- Node1&#45;&gt;Node2 -->
<g id="edge1" class="edge"><title>Node1&#45;&gt;Node2</title>
<path fill="none" stroke="midnightblue" d="M310.078,-185.518C246.9,-170.968 161.96,-151.406 109.784,-139.39"/>
<polygon fill="midnightblue" stroke="midnightblue" points="110.333,-135.924 99.8024,-137.091 108.762,-142.746 110.333,-135.924"/>
</g>
<!-- Node6 -->
<g id="node6" class="node"><title>Node6</title>
<g id="a_node6"><a xlink:href="../../d4/d84/LMS7002M__parameters__compact_8h.html" target="_top" xlink:title="LMS7002M_parameters\l_compact.h">
<polygon fill="white" stroke="black" points="143.5,-112.5 143.5,-142.5 263.5,-142.5 263.5,-112.5 143.5,-112.5"/>
<text text-anchor="start" x="151.5" y="-130.5" font-family="Helvetica,sans-Serif" font-size="10.00">LMS7002M_parameters</text>
<text text-anchor="middle" x="203.5" y="-119.5" font-family="Helvetica,sans-Serif" font-size="10.00">_compact.h</text>
</a>
</g>
</g>
<!-- Node1&#45;&gt;Node6 -->
<g id="edge5" class="edge"><title>Node1&#45;&gt;Node6</title>
<path fill="none" stroke="midnightblue" d="M330.091,-179.404C303.228,-168.602 272.439,-156.221 247.952,-146.375"/>
<polygon fill="midnightblue" stroke="midnightblue" points="249.141,-143.081 238.557,-142.597 246.529,-149.575 249.141,-143.081"/>
</g>
<!-- Node7 -->
<g id="node7" class="node"><title>Node7</title>
<g id="a_node7"><a xlink:href="../../da/d87/spi_8h.html" target="_top" xlink:title="spi.h">
<polygon fill="white" stroke="black" points="281.5,-118 281.5,-137 319.5,-137 319.5,-118 281.5,-118"/>
<text text-anchor="middle" x="300.5" y="-125" font-family="Helvetica,sans-Serif" font-size="10.00">spi.h</text>
</a>
</g>
</g>
<!-- Node1&#45;&gt;Node7 -->
<g id="edge7" class="edge"><title>Node1&#45;&gt;Node7</title>
<path fill="none" stroke="midnightblue" d="M362.121,-179.404C347.832,-167.601 331.262,-153.912 318.906,-143.705"/>
<polygon fill="midnightblue" stroke="midnightblue" points="321.043,-140.93 311.104,-137.26 316.585,-146.327 321.043,-140.93"/>
</g>
<!-- Node8 -->
<g id="node8" class="node"><title>Node8</title>
<g id="a_node8"><a xlink:href="../../d3/d86/lms7002m__controls_8h.html" target="_top" xlink:title="lms7002m_controls.h">
<polygon fill="white" stroke="black" points="337.5,-118 337.5,-137 447.5,-137 447.5,-118 337.5,-118"/>
<text text-anchor="middle" x="392.5" y="-125" font-family="Helvetica,sans-Serif" font-size="10.00">lms7002m_controls.h</text>
</a>
</g>
</g>
<!-- Node1&#45;&gt;Node8 -->
<g id="edge9" class="edge"><title>Node1&#45;&gt;Node8</title>
<path fill="none" stroke="midnightblue" d="M392.5,-179.193C392.5,-168.765 392.5,-156.896 392.5,-147.266"/>
<polygon fill="midnightblue" stroke="midnightblue" points="396,-147.209 392.5,-137.209 389,-147.209 396,-147.209"/>
</g>
<!-- Node9 -->
<g id="node9" class="node"><title>Node9</title>
<polygon fill="white" stroke="#bfbfbf" points="466,-118 466,-137 513,-137 513,-118 466,-118"/>
<text text-anchor="middle" x="489.5" y="-125" font-family="Helvetica,sans-Serif" font-size="10.00">math.h</text>
</g>
<!-- Node1&#45;&gt;Node9 -->
<g id="edge11" class="edge"><title>Node1&#45;&gt;Node9</title>
<path fill="none" stroke="midnightblue" d="M424.53,-179.404C439.595,-167.601 457.066,-153.912 470.094,-143.705"/>
<polygon fill="midnightblue" stroke="midnightblue" points="472.607,-146.182 478.32,-137.26 468.289,-140.672 472.607,-146.182"/>
</g>
<!-- Node10 -->
<g id="node10" class="node"><title>Node10</title>
<g id="a_node10"><a xlink:href="../../d5/d59/mcu__defines_8h.html" target="_top" xlink:title="mcu_defines.h">
<polygon fill="white" stroke="black" points="531.5,-118 531.5,-137 611.5,-137 611.5,-118 531.5,-118"/>
<text text-anchor="middle" x="571.5" y="-125" font-family="Helvetica,sans-Serif" font-size="10.00">mcu_defines.h</text>
</a>
</g>
</g>
<!-- Node1&#45;&gt;Node10 -->
<g id="edge12" class="edge"><title>Node1&#45;&gt;Node10</title>
<path fill="none" stroke="midnightblue" d="M451.607,-179.404C481.859,-166.56 517.368,-151.484 541.849,-141.089"/>
<polygon fill="midnightblue" stroke="midnightblue" points="543.46,-144.208 551.297,-137.078 540.724,-137.764 543.46,-144.208"/>
</g>
<!-- Node11 -->
<g id="node11" class="node"><title>Node11</title>
<polygon fill="white" stroke="#bfbfbf" points="629.5,-118 629.5,-137 725.5,-137 725.5,-118 629.5,-118"/>
<text text-anchor="middle" x="677.5" y="-125" font-family="Helvetica,sans-Serif" font-size="10.00">lms7002_regx51.h</text>
</g>
<!-- Node1&#45;&gt;Node11 -->
<g id="edge13" class="edge"><title>Node1&#45;&gt;Node11</title>
<path fill="none" stroke="midnightblue" d="M474.551,-182.62C527.226,-168.573 593.427,-150.92 635.612,-139.67"/>
<polygon fill="midnightblue" stroke="midnightblue" points="636.515,-143.052 645.276,-137.093 634.711,-136.288 636.515,-143.052"/>
</g>
<!-- Node3 -->
<g id="node3" class="node"><title>Node3</title>
<g id="a_node3"><a xlink:href="../../d7/d69/typedefs_8h.html" target="_top" xlink:title="typedefs.h">
<polygon fill="white" stroke="black" points="220.5,-56.5 220.5,-75.5 282.5,-75.5 282.5,-56.5 220.5,-56.5"/>
<text text-anchor="middle" x="251.5" y="-63.5" font-family="Helvetica,sans-Serif" font-size="10.00">typedefs.h</text>
</a>
</g>
</g>
<!-- Node2&#45;&gt;Node3 -->
<g id="edge2" class="edge"><title>Node2&#45;&gt;Node3</title>
<path fill="none" stroke="midnightblue" d="M89.5791,-117.975C122.42,-107.636 177.93,-90.1611 214.648,-78.6017"/>
<polygon fill="midnightblue" stroke="midnightblue" points="215.984,-81.8505 224.471,-75.5091 213.882,-75.1735 215.984,-81.8505"/>
</g>
<!-- Node4 -->
<g id="node4" class="node"><title>Node4</title>
<polygon fill="white" stroke="#bfbfbf" points="192,-0.5 192,-19.5 241,-19.5 241,-0.5 192,-0.5"/>
<text text-anchor="middle" x="216.5" y="-7.5" font-family="Helvetica,sans-Serif" font-size="10.00">stdint.h</text>
</g>
<!-- Node3&#45;&gt;Node4 -->
<g id="edge3" class="edge"><title>Node3&#45;&gt;Node4</title>
<path fill="none" stroke="midnightblue" d="M245.72,-56.083C240.828,-48.5341 233.673,-37.4948 227.667,-28.2298"/>
<polygon fill="midnightblue" stroke="midnightblue" points="230.548,-26.239 222.172,-19.7511 224.674,-30.0463 230.548,-26.239"/>
</g>
<!-- Node5 -->
<g id="node5" class="node"><title>Node5</title>
<polygon fill="white" stroke="#bfbfbf" points="259.5,-0.5 259.5,-19.5 315.5,-19.5 315.5,-0.5 259.5,-0.5"/>
<text text-anchor="middle" x="287.5" y="-7.5" font-family="Helvetica,sans-Serif" font-size="10.00">stdbool.h</text>
</g>
<!-- Node3&#45;&gt;Node5 -->
<g id="edge4" class="edge"><title>Node3&#45;&gt;Node5</title>
<path fill="none" stroke="midnightblue" d="M257.445,-56.083C262.477,-48.5341 269.837,-37.4948 276.013,-28.2298"/>
<polygon fill="midnightblue" stroke="midnightblue" points="279.031,-30.0131 281.666,-19.7511 273.207,-26.1301 279.031,-30.0131"/>
</g>
<!-- Node6&#45;&gt;Node3 -->
<g id="edge6" class="edge"><title>Node6&#45;&gt;Node3</title>
<path fill="none" stroke="midnightblue" d="M214.875,-112.399C221.85,-103.753 230.814,-92.642 238.128,-83.576"/>
<polygon fill="midnightblue" stroke="midnightblue" points="240.961,-85.6385 244.516,-75.6578 235.513,-81.2433 240.961,-85.6385"/>
</g>
<!-- Node7&#45;&gt;Node3 -->
<g id="edge8" class="edge"><title>Node7&#45;&gt;Node3</title>
<path fill="none" stroke="midnightblue" d="M293.479,-117.975C286.057,-108.962 274.167,-94.5246 264.933,-83.3118"/>
<polygon fill="midnightblue" stroke="midnightblue" points="267.566,-81.0034 258.507,-75.5091 262.163,-85.4534 267.566,-81.0034"/>
</g>
<!-- Node8&#45;&gt;Node3 -->
<g id="edge10" class="edge"><title>Node8&#45;&gt;Node3</title>
<path fill="none" stroke="midnightblue" d="M372.298,-117.975C348.426,-107.901 308.498,-91.0525 281.127,-79.5023"/>
<polygon fill="midnightblue" stroke="midnightblue" points="282.238,-76.1724 271.664,-75.5091 279.517,-82.6217 282.238,-76.1724"/>
</g>
</g>
</svg>
        <g id="navigator" transform="translate(0 0)" fill="#404254">
                <rect fill="#f2f5e9" fill-opacity="0.5" stroke="#606060" stroke-width=".5" x="0" y="0" width="60" height="60"/>
                <use id="zoomplus" xlink:href="#zoomPlus" x="17" y="9" onmousedown="handleZoom(evt,'in')"/>
                <use id="zoomminus" xlink:href="#zoomMin" x="42" y="9" onmousedown="handleZoom(evt,'out')"/>
                <use id="reset" xlink:href="#resetDef" x="30" y="36" onmousedown="handleReset()"/>
                <g id="arrowUp" xlink:href="#dirArrow" transform="translate(30 24)" onmousedown="handlePan(0,-1)">
                  <use xlink:href="#rim" fill="#404040">
                        <set attributeName="fill" to="#808080" begin="arrowUp.mouseover" end="arrowUp.mouseout"/>
                  </use>
                  <path fill="none" stroke="white" stroke-width="1.5" d="M0,-3.0v7 M-2.5,-0.5L0,-3.0L2.5,-0.5"/>
                </g>
                <g id="arrowRight" xlink:href="#dirArrow" transform="rotate(90) translate(36 -43)" onmousedown="handlePan(1,0)">
                  <use xlink:href="#rim" fill="#404040">
                        <set attributeName="fill" to="#808080" begin="arrowRight.mouseover" end="arrowRight.mouseout"/>
                  </use>
                  <path fill="none" stroke="white" stroke-width="1.5" d="M0,-3.0v7 M-2.5,-0.5L0,-3.0L2.5,-0.5"/>
                </g>
                <g id="arrowDown" xlink:href="#dirArrow" transform="rotate(180) translate(-30 -48)" onmousedown="handlePan(0,1)">
                  <use xlink:href="#rim" fill="#404040">
                        <set attributeName="fill" to="#808080" begin="arrowDown.mouseover" end="arrowDown.mouseout"/>
                  </use>
                  <path fill="none" stroke="white" stroke-width="1.5" d="M0,-3.0v7 M-2.5,-0.5L0,-3.0L2.5,-0.5"/>
                </g>
                <g id="arrowLeft" xlink:href="#dirArrow" transform="rotate(270) translate(-36 17)" onmousedown="handlePan(-1,0)">
                  <use xlink:href="#rim" fill="#404040">
                        <set attributeName="fill" to="#808080" begin="arrowLeft.mouseover" end="arrowLeft.mouseout"/>
                  </use>
                  <path fill="none" stroke="white" stroke-width="1.5" d="M0,-3.0v7 M-2.5,-0.5L0,-3.0L2.5,-0.5"/>
                </g>
        </g>
        <svg viewBox="0 0 15 15" width="100%" height="30px" preserveAspectRatio="xMaxYMin meet">
         <g id="arrow_out" transform="scale(0.3 0.3)">
          <a xlink:href="lms7002m__calibrations_8c__incl_org.svg" target="_base">
           <rect id="button" ry="5" rx="5" y="6" x="6" height="38" width="38"
                fill="#f2f5e9" fill-opacity="0.5" stroke="#606060" stroke-width="1.0"/>
           <path id="arrow"
             d="M 11.500037,31.436501 C 11.940474,20.09759 22.043105,11.32322 32.158766,21.979434 L 37.068811,17.246167 C 37.068811,17.246167 37.088388,32 37.088388,32 L 22.160133,31.978069 C 22.160133,31.978069 26.997745,27.140456 26.997745,27.140456 C 18.528582,18.264221 13.291696,25.230495 11.500037,31.436501 z"
             style="fill:#404040;"/>
          </a>
         </g>
        </svg>
</svg>
