<?xml version="1.0" encoding="UTF-8" standalone="no"?>
<!DOCTYPE svg PUBLIC "-//W3C//DTD SVG 1.1//EN"
 "http://www.w3.org/Graphics/SVG/1.1/DTD/svg11.dtd">
<!-- Generated by graphviz version 2.38.0 (20140413.2041)
 -->
<!-- Title: pnlBIST_view::pnlBIST_view Pages: 1 -->
<svg width="360pt" height="78pt"
 viewBox="0.00 0.00 360.00 77.50" xmlns="http://www.w3.org/2000/svg" xmlns:xlink="http://www.w3.org/1999/xlink">
<g id="graph0" class="graph" transform="scale(1 1) rotate(0) translate(4 73.5)">
<title>pnlBIST_view::pnlBIST_view</title>
<polygon fill="white" stroke="none" points="-4,4 -4,-73.5 356,-73.5 356,4 -4,4"/>
<!-- Node1 -->
<g id="node1" class="node"><title>Node1</title>
<polygon fill="#bfbfbf" stroke="black" points="0,-28 0,-47 144,-47 144,-28 0,-28"/>
<text text-anchor="middle" x="72" y="-35" font-family="Helvetica,sans-Serif" font-size="10.00">pnlBIST_view::pnlBIST_view</text>
</g>
<!-- Node2 -->
<g id="node2" class="node"><title>Node2</title>
<g id="a_node2"><a xlink:href="../../dc/db9/classpnlBIST__view.html#adfc43a760c11475b86592a98a918fc62" target="_top" xlink:title="pnlBIST_view::onbtnReadSignature">
<polygon fill="white" stroke="black" points="180,-50 180,-69 352,-69 352,-50 180,-50"/>
<text text-anchor="middle" x="266" y="-57" font-family="Helvetica,sans-Serif" font-size="10.00">pnlBIST_view::onbtnReadSignature</text>
</a>
</g>
</g>
<!-- Node1&#45;&gt;Node2 -->
<g id="edge1" class="edge"><title>Node1&#45;&gt;Node2</title>
<path fill="none" stroke="midnightblue" d="M144.221,-45.6607C153.234,-46.6935 162.56,-47.762 171.85,-48.8265"/>
<polygon fill="midnightblue" stroke="midnightblue" points="171.567,-52.3169 181.9,-49.9781 172.363,-45.3624 171.567,-52.3169"/>
</g>
<!-- Node3 -->
<g id="node3" class="node"><title>Node3</title>
<g id="a_node3"><a xlink:href="../../dc/db9/classpnlBIST__view.html#a3fd33b4e6bc6199c9dd5901e4a4eed4e" target="_top" xlink:title="pnlBIST_view::ParameterChange\lHandler">
<polygon fill="white" stroke="black" points="185,-0.5 185,-30.5 347,-30.5 347,-0.5 185,-0.5"/>
<text text-anchor="start" x="193" y="-18.5" font-family="Helvetica,sans-Serif" font-size="10.00">pnlBIST_view::ParameterChange</text>
<text text-anchor="middle" x="266" y="-7.5" font-family="Helvetica,sans-Serif" font-size="10.00">Handler</text>
</a>
</g>
</g>
<!-- Node1&#45;&gt;Node3 -->
<g id="edge2" class="edge"><title>Node1&#45;&gt;Node3</title>
<path fill="none" stroke="midnightblue" d="M144.221,-29.3393C154.146,-28.202 164.45,-27.0213 174.669,-25.8505"/>
<polygon fill="midnightblue" stroke="midnightblue" points="175.305,-29.3006 184.841,-24.6848 174.508,-22.3461 175.305,-29.3006"/>
</g>
</g>
</svg>
