<?xml version="1.0" encoding="UTF-8" standalone="no"?>
<!DOCTYPE svg PUBLIC "-//W3C//DTD SVG 1.1//EN"
 "http://www.w3.org/Graphics/SVG/1.1/DTD/svg11.dtd">
<!-- Generated by graphviz version 2.38.0 (20140413.2041)
 -->
<!-- Title: pnlLimeSDR::~pnlLimeSDR Pages: 1 -->
<!--zoomable 543 -->
<svg id="main" version="1.1" xmlns="http://www.w3.org/2000/svg" xmlns:xlink="http://www.w3.org/1999/xlink" xml:space="preserve" onload="init(evt)">
<style type="text/css"><![CDATA[
.edge:hover path { stroke: red; }
.edge:hover polygon { stroke: red; fill: red; }
]]></style>
<script type="text/javascript"><![CDATA[
var edges = document.getElementsByTagName('g');
if (edges && edges.length) {
  for (var i=0;i<edges.length;i++) {
    if (edges[i].id.substr(0,4)=='edge') {
      edges[i].setAttribute('class','edge');
    }
  }
}
]]></script>
        <defs>
                <circle id="rim" cx="0" cy="0" r="7"/>
                <circle id="rim2" cx="0" cy="0" r="3.5"/>
                <g id="zoomPlus">
                        <use xlink:href="#rim" fill="#404040">
                                <set attributeName="fill" to="#808080" begin="zoomplus.mouseover" end="zoomplus.mouseout"/>
                        </use>
                        <path d="M-4,0h8M0,-4v8" fill="none" stroke="white" stroke-width="1.5" pointer-events="none"/>
                </g>
                <g id="zoomMin">
                        <use xlink:href="#rim" fill="#404040">
                                <set attributeName="fill" to="#808080" begin="zoomminus.mouseover" end="zoomminus.mouseout"/>
                        </use>
                        <path d="M-4,0h8" fill="none" stroke="white" stroke-width="1.5" pointer-events="none"/>
                </g>
                <g id="dirArrow">
                        <path fill="none" stroke="white" stroke-width="1.5" d="M0,-3.0v7 M-2.5,-0.5L0,-3.0L2.5,-0.5"/>
                </g>
               <g id="resetDef">
                       <use xlink:href="#rim2" fill="#404040">
                               <set attributeName="fill" to="#808080" begin="reset.mouseover" end="reset.mouseout"/>
                       </use>
               </g>
        </defs>

<script type="text/javascript">
var viewWidth = 924;
var viewHeight = 543;
var sectionId = 'dynsection-3';
</script>
<script xlink:href="../../svgpan.js"/>
<svg id="graph" class="graph">
<g id="viewport">
<title>pnlLimeSDR::~pnlLimeSDR</title>
<polygon fill="white" stroke="none" points="-4,4 -4,-538.933 920,-538.933 920,4 -4,4"/>
<!-- Node1 -->
<g id="node1" class="node"><title>Node1</title>
<polygon fill="#bfbfbf" stroke="black" points="0,-203.5 0,-222.5 140,-222.5 140,-203.5 0,-203.5"/>
<text text-anchor="middle" x="70" y="-210.5" font-family="Helvetica,sans-Serif" font-size="10.00">pnlLimeSDR::~pnlLimeSDR</text>
</g>
<!-- Node2 -->
<g id="node2" class="node"><title>Node2</title>
<g id="a_node2"><a xlink:href="../../de/d23/classpnlLimeSDR.html#a810bf1926e3bfc29c40acaf1139fe911" target="_top" xlink:title="pnlLimeSDR::OnGPIOChange">
<polygon fill="white" stroke="black" points="184,-241.5 184,-260.5 333,-260.5 333,-241.5 184,-241.5"/>
<text text-anchor="middle" x="258.5" y="-248.5" font-family="Helvetica,sans-Serif" font-size="10.00">pnlLimeSDR::OnGPIOChange</text>
</a>
</g>
</g>
<!-- Node1&#45;&gt;Node2 -->
<g id="edge1" class="edge"><title>Node1&#45;&gt;Node2</title>
<path fill="none" stroke="midnightblue" d="M118.062,-222.589C143.227,-227.716 174.396,-234.067 200.879,-239.463"/>
<polygon fill="midnightblue" stroke="midnightblue" points="200.279,-242.913 210.777,-241.48 201.677,-236.054 200.279,-242.913"/>
</g>
<!-- Node29 -->
<g id="node29" class="node"><title>Node29</title>
<g id="a_node29"><a xlink:href="../../de/d23/classpnlLimeSDR.html#a2708ca156353770e7f5a331010ad03d9" target="_top" xlink:title="pnlLimeSDR::OnUsrGPIOChange">
<polygon fill="white" stroke="black" points="176,-203.5 176,-222.5 341,-222.5 341,-203.5 176,-203.5"/>
<text text-anchor="middle" x="258.5" y="-210.5" font-family="Helvetica,sans-Serif" font-size="10.00">pnlLimeSDR::OnUsrGPIOChange</text>
</a>
</g>
</g>
<!-- Node1&#45;&gt;Node29 -->
<g id="edge31" class="edge"><title>Node1&#45;&gt;Node29</title>
<path fill="none" stroke="midnightblue" d="M140.181,-213C148.526,-213 157.147,-213 165.751,-213"/>
<polygon fill="midnightblue" stroke="midnightblue" points="165.826,-216.5 175.826,-213 165.826,-209.5 165.826,-216.5"/>
</g>
<!-- Node31 -->
<g id="node31" class="node"><title>Node31</title>
<g id="a_node31"><a xlink:href="../../de/d23/classpnlLimeSDR.html#af8f59e014c5bb8bfd5fc11c5e9358a3d" target="_top" xlink:title="pnlLimeSDR::OnUsrGPIODir\lChange">
<polygon fill="white" stroke="black" points="186.5,-154 186.5,-184 330.5,-184 330.5,-154 186.5,-154"/>
<text text-anchor="start" x="194.5" y="-172" font-family="Helvetica,sans-Serif" font-size="10.00">pnlLimeSDR::OnUsrGPIODir</text>
<text text-anchor="middle" x="258.5" y="-161" font-family="Helvetica,sans-Serif" font-size="10.00">Change</text>
</a>
</g>
</g>
<!-- Node1&#45;&gt;Node31 -->
<g id="edge37" class="edge"><title>Node1&#45;&gt;Node31</title>
<path fill="none" stroke="midnightblue" d="M111.468,-203.453C132.559,-198.477 159.022,-192.233 183.607,-186.433"/>
<polygon fill="midnightblue" stroke="midnightblue" points="184.714,-189.768 193.643,-184.065 183.107,-182.955 184.714,-189.768"/>
</g>
<!-- Node3 -->
<g id="node3" class="node"><title>Node3</title>
<g id="a_node3"><a xlink:href="../../df/de1/lms7__api_8cpp.html#a00772bc179a978aa279a6ce238a24c18" target="_top" xlink:title="LMS_WriteFPGAReg">
<polygon fill="white" stroke="black" points="377,-257.5 377,-276.5 487,-276.5 487,-257.5 377,-257.5"/>
<text text-anchor="middle" x="432" y="-264.5" font-family="Helvetica,sans-Serif" font-size="10.00">LMS_WriteFPGAReg</text>
</a>
</g>
</g>
<!-- Node2&#45;&gt;Node3 -->
<g id="edge2" class="edge"><title>Node2&#45;&gt;Node3</title>
<path fill="none" stroke="midnightblue" d="M333.227,-257.878C344.303,-258.912 355.653,-259.971 366.517,-260.984"/>
<polygon fill="midnightblue" stroke="midnightblue" points="366.476,-264.495 376.758,-261.94 367.127,-257.526 366.476,-264.495"/>
</g>
<!-- Node27 -->
<g id="node27" class="node"><title>Node27</title>
<g id="a_node27"><a xlink:href="../../d5/d6c/namespacelime.html#ae9d8b86234e3827271197852facdc649" target="_top" xlink:title="Log an error message with formatting. ">
<polygon fill="white" stroke="black" points="402,-143.5 402,-162.5 462,-162.5 462,-143.5 402,-143.5"/>
<text text-anchor="middle" x="432" y="-150.5" font-family="Helvetica,sans-Serif" font-size="10.00">lime::error</text>
</a>
</g>
</g>
<!-- Node2&#45;&gt;Node27 -->
<g id="edge29" class="edge"><title>Node2&#45;&gt;Node27</title>
<path fill="none" stroke="midnightblue" d="M323.562,-241.402C329.771,-238.934 335.716,-235.85 341,-232 366.134,-213.686 352.904,-191.659 377,-172 381.588,-168.257 386.965,-165.227 392.516,-162.781"/>
<polygon fill="midnightblue" stroke="midnightblue" points="393.818,-166.03 401.912,-159.193 391.321,-159.491 393.818,-166.03"/>
</g>
<!-- Node4 -->
<g id="node4" class="node"><title>Node4</title>
<g id="a_node4"><a xlink:href="../../d3/d22/classlime_1_1LMS7__Device.html#a4fb66a6ab68f16a0b6506329b05a08b2" target="_top" xlink:title="lime::LMS7_Device::\lGetConnection">
<polygon fill="white" stroke="black" points="523,-217 523,-247 631,-247 631,-217 523,-217"/>
<text text-anchor="start" x="531" y="-235" font-family="Helvetica,sans-Serif" font-size="10.00">lime::LMS7_Device::</text>
<text text-anchor="middle" x="577" y="-224" font-family="Helvetica,sans-Serif" font-size="10.00">GetConnection</text>
</a>
</g>
</g>
<!-- Node3&#45;&gt;Node4 -->
<g id="edge3" class="edge"><title>Node3&#45;&gt;Node4</title>
<path fill="none" stroke="midnightblue" d="M472.075,-257.436C484.652,-254.358 498.927,-250.864 512.781,-247.473"/>
<polygon fill="midnightblue" stroke="midnightblue" points="513.884,-250.807 522.765,-245.03 512.219,-244.007 513.884,-250.807"/>
</g>
<!-- Node5 -->
<g id="node5" class="node"><title>Node5</title>
<g id="a_node5"><a xlink:href="../../d4/d67/lms_8c.html#a0e01e477b1f10e0a63e54de2dd2f8240" target="_top" xlink:title="lms">
<polygon fill="white" stroke="black" points="561,-266.5 561,-285.5 593,-285.5 593,-266.5 561,-266.5"/>
<text text-anchor="middle" x="577" y="-273.5" font-family="Helvetica,sans-Serif" font-size="10.00">lms</text>
</a>
</g>
</g>
<!-- Node3&#45;&gt;Node5 -->
<g id="edge4" class="edge"><title>Node3&#45;&gt;Node5</title>
<path fill="none" stroke="midnightblue" d="M487.062,-270.403C508.939,-271.779 533.134,-273.302 550.759,-274.411"/>
<polygon fill="midnightblue" stroke="midnightblue" points="550.604,-277.909 560.804,-275.044 551.044,-270.922 550.604,-277.909"/>
</g>
<!-- Node25 -->
<g id="node25" class="node"><title>Node25</title>
<g id="a_node25"><a xlink:href="../../d5/d6c/namespacelime.html#adc6af0cf8e0a70f3ef09fac1244f8c48" target="_top" xlink:title="lime::ReportError">
<polygon fill="white" stroke="black" points="531.5,-178.5 531.5,-197.5 622.5,-197.5 622.5,-178.5 531.5,-178.5"/>
<text text-anchor="middle" x="577" y="-185.5" font-family="Helvetica,sans-Serif" font-size="10.00">lime::ReportError</text>
</a>
</g>
</g>
<!-- Node3&#45;&gt;Node25 -->
<g id="edge27" class="edge"><title>Node3&#45;&gt;Node25</title>
<path fill="none" stroke="midnightblue" d="M468.534,-257.432C474.966,-254.898 481.401,-251.784 487,-248 507.092,-234.422 502.948,-220.637 523,-207 525.876,-205.044 528.976,-203.265 532.182,-201.651"/>
<polygon fill="midnightblue" stroke="midnightblue" points="533.7,-204.807 541.403,-197.532 530.845,-198.416 533.7,-204.807"/>
</g>
<!-- Node6 -->
<g id="node6" class="node"><title>Node6</title>
<g id="a_node6"><a xlink:href="../../d4/d67/lms_8c.html#a433227191fe883dcb8aa15d291bb29a1" target="_top" xlink:title="Case1F">
<polygon fill="white" stroke="black" points="675.5,-456.5 675.5,-475.5 726.5,-475.5 726.5,-456.5 675.5,-456.5"/>
<text text-anchor="middle" x="701" y="-463.5" font-family="Helvetica,sans-Serif" font-size="10.00">Case1F</text>
</a>
</g>
</g>
<!-- Node5&#45;&gt;Node6 -->
<g id="edge5" class="edge"><title>Node5&#45;&gt;Node6</title>
<path fill="none" stroke="midnightblue" d="M580.878,-285.664C589.635,-313.696 618.37,-396.258 667,-447 668.195,-448.247 669.49,-449.437 670.852,-450.569"/>
<polygon fill="midnightblue" stroke="midnightblue" points="668.961,-453.519 679.154,-456.409 672.989,-447.794 668.961,-453.519"/>
</g>
<!-- Node7 -->
<g id="node7" class="node"><title>Node7</title>
<g id="a_node7"><a xlink:href="../../d4/d67/lms_8c.html#ace0cd8bf61cb9b86b98f0cef03b5a9d9" target="_top" xlink:title="Case2F">
<polygon fill="white" stroke="black" points="675.5,-418.5 675.5,-437.5 726.5,-437.5 726.5,-418.5 675.5,-418.5"/>
<text text-anchor="middle" x="701" y="-425.5" font-family="Helvetica,sans-Serif" font-size="10.00">Case2F</text>
</a>
</g>
</g>
<!-- Node5&#45;&gt;Node7 -->
<g id="edge6" class="edge"><title>Node5&#45;&gt;Node7</title>
<path fill="none" stroke="midnightblue" d="M582.567,-285.789C593.977,-309.422 625.799,-370.484 667,-409 668.295,-410.21 669.68,-411.376 671.124,-412.492"/>
<polygon fill="midnightblue" stroke="midnightblue" points="669.537,-415.643 679.787,-418.324 673.446,-409.836 669.537,-415.643"/>
</g>
<!-- Node8 -->
<g id="node8" class="node"><title>Node8</title>
<g id="a_node8"><a xlink:href="../../d4/d67/lms_8c.html#a5f53b53ccc591e3643c4af2aee2e7f32" target="_top" xlink:title="Case3F">
<polygon fill="white" stroke="black" points="675.5,-380.5 675.5,-399.5 726.5,-399.5 726.5,-380.5 675.5,-380.5"/>
<text text-anchor="middle" x="701" y="-387.5" font-family="Helvetica,sans-Serif" font-size="10.00">Case3F</text>
</a>
</g>
</g>
<!-- Node5&#45;&gt;Node8 -->
<g id="edge7" class="edge"><title>Node5&#45;&gt;Node8</title>
<path fill="none" stroke="midnightblue" d="M585.306,-285.506C599.59,-303.67 632.816,-343.907 667,-371 668.768,-372.401 670.651,-373.767 672.587,-375.081"/>
<polygon fill="midnightblue" stroke="midnightblue" points="670.884,-378.143 681.221,-380.466 674.588,-372.204 670.884,-378.143"/>
</g>
<!-- Node9 -->
<g id="node9" class="node"><title>Node9</title>
<g id="a_node9"><a xlink:href="../../d4/d67/lms_8c.html#a5086763d5b258349bc13d6be7e7d0665" target="_top" xlink:title="Case4F">
<polygon fill="white" stroke="black" points="675.5,-342.5 675.5,-361.5 726.5,-361.5 726.5,-342.5 675.5,-342.5"/>
<text text-anchor="middle" x="701" y="-349.5" font-family="Helvetica,sans-Serif" font-size="10.00">Case4F</text>
</a>
</g>
</g>
<!-- Node5&#45;&gt;Node9 -->
<g id="edge8" class="edge"><title>Node5&#45;&gt;Node9</title>
<path fill="none" stroke="midnightblue" d="M592.668,-285.696C610.201,-297.214 640.5,-316.897 667,-333 669.355,-334.431 671.818,-335.9 674.292,-337.356"/>
<polygon fill="midnightblue" stroke="midnightblue" points="672.717,-340.489 683.122,-342.486 676.234,-334.436 672.717,-340.489"/>
</g>
<!-- Node10 -->
<g id="node10" class="node"><title>Node10</title>
<g id="a_node10"><a xlink:href="../../db/de5/recipes_8c.html#aee25e218394217a134e805ea09fb0fe9" target="_top" xlink:title="free_ivector">
<polygon fill="white" stroke="black" points="667,-304.5 667,-323.5 735,-323.5 735,-304.5 667,-304.5"/>
<text text-anchor="middle" x="701" y="-311.5" font-family="Helvetica,sans-Serif" font-size="10.00">free_ivector</text>
</a>
</g>
</g>
<!-- Node5&#45;&gt;Node10 -->
<g id="edge9" class="edge"><title>Node5&#45;&gt;Node10</title>
<path fill="none" stroke="midnightblue" d="M593.451,-280.813C609.984,-285.962 636.887,-294.342 659.523,-301.392"/>
<polygon fill="midnightblue" stroke="midnightblue" points="658.655,-304.788 669.244,-304.42 660.737,-298.105 658.655,-304.788"/>
</g>
<!-- Node11 -->
<g id="node11" class="node"><title>Node11</title>
<g id="a_node11"><a xlink:href="../../db/de5/recipes_8c.html#a3e0d121b098c19c0bdc2429e5b9f1625" target="_top" xlink:title="free_matrix">
<polygon fill="white" stroke="black" points="668.5,-266.5 668.5,-285.5 733.5,-285.5 733.5,-266.5 668.5,-266.5"/>
<text text-anchor="middle" x="701" y="-273.5" font-family="Helvetica,sans-Serif" font-size="10.00">free_matrix</text>
</a>
</g>
</g>
<!-- Node5&#45;&gt;Node11 -->
<g id="edge10" class="edge"><title>Node5&#45;&gt;Node11</title>
<path fill="none" stroke="midnightblue" d="M593.451,-276C609.614,-276 635.689,-276 657.998,-276"/>
<polygon fill="midnightblue" stroke="midnightblue" points="658.259,-279.5 668.259,-276 658.259,-272.5 658.259,-279.5"/>
</g>
<!-- Node12 -->
<g id="node12" class="node"><title>Node12</title>
<g id="a_node12"><a xlink:href="../../db/de5/recipes_8c.html#a8214a52d888e820222c0382648329c0c" target="_top" xlink:title="free_vector">
<polygon fill="white" stroke="black" points="771,-418.5 771,-437.5 836,-437.5 836,-418.5 771,-418.5"/>
<text text-anchor="middle" x="803.5" y="-425.5" font-family="Helvetica,sans-Serif" font-size="10.00">free_vector</text>
</a>
</g>
</g>
<!-- Node5&#45;&gt;Node12 -->
<g id="edge11" class="edge"><title>Node5&#45;&gt;Node12</title>
<path fill="none" stroke="midnightblue" d="M577.916,-285.599C578.164,-323.729 584.764,-465.22 667,-523 691.729,-540.375 708.145,-536.863 735,-523 765.87,-507.065 785.695,-469.769 795.405,-446.935"/>
<polygon fill="midnightblue" stroke="midnightblue" points="798.679,-448.174 799.157,-437.59 792.183,-445.566 798.679,-448.174"/>
</g>
<!-- Node13 -->
<g id="node13" class="node"><title>Node13</title>
<g id="a_node13"><a xlink:href="../../d4/d67/lms_8c.html#ad1d6c875ff429888b51dd1155f0311ad" target="_top" xlink:title="ivector">
<polygon fill="white" stroke="black" points="678,-152.5 678,-171.5 724,-171.5 724,-152.5 678,-152.5"/>
<text text-anchor="middle" x="701" y="-159.5" font-family="Helvetica,sans-Serif" font-size="10.00">ivector</text>
</a>
</g>
</g>
<!-- Node5&#45;&gt;Node13 -->
<g id="edge12" class="edge"><title>Node5&#45;&gt;Node13</title>
<path fill="none" stroke="midnightblue" d="M593.085,-273.47C604.666,-270.844 620.416,-265.704 631,-256 658.253,-231.012 641.852,-208.105 667,-181 668.175,-179.734 669.453,-178.528 670.802,-177.384"/>
<polygon fill="midnightblue" stroke="midnightblue" points="672.945,-180.155 679.067,-171.508 668.889,-174.45 672.945,-180.155"/>
</g>
<!-- Node14 -->
<g id="node14" class="node"><title>Node14</title>
<g id="a_node14"><a xlink:href="../../db/de5/recipes_8c.html#a66ff65ad0355ec1f4a7722bcdafc8cd3" target="_top" xlink:title="lubksb">
<polygon fill="white" stroke="black" points="678.5,-114.5 678.5,-133.5 723.5,-133.5 723.5,-114.5 678.5,-114.5"/>
<text text-anchor="middle" x="701" y="-121.5" font-family="Helvetica,sans-Serif" font-size="10.00">lubksb</text>
</a>
</g>
</g>
<!-- Node5&#45;&gt;Node14 -->
<g id="edge13" class="edge"><title>Node5&#45;&gt;Node14</title>
<path fill="none" stroke="midnightblue" d="M593.473,-273.865C605.268,-271.456 621.116,-266.416 631,-256 667.282,-217.765 633.922,-184.038 667,-143 667.959,-141.81 669.015,-140.679 670.141,-139.608"/>
<polygon fill="midnightblue" stroke="midnightblue" points="672.491,-142.218 678.333,-133.38 668.254,-136.646 672.491,-142.218"/>
</g>
<!-- Node15 -->
<g id="node15" class="node"><title>Node15</title>
<g id="a_node15"><a xlink:href="../../db/de5/recipes_8c.html#a623fec796d9d53e5e4a4d30226547da7" target="_top" xlink:title="ludcmp">
<polygon fill="white" stroke="black" points="677,-228.5 677,-247.5 725,-247.5 725,-228.5 677,-228.5"/>
<text text-anchor="middle" x="701" y="-235.5" font-family="Helvetica,sans-Serif" font-size="10.00">ludcmp</text>
</a>
</g>
</g>
<!-- Node5&#45;&gt;Node15 -->
<g id="edge14" class="edge"><title>Node5&#45;&gt;Node15</title>
<path fill="none" stroke="midnightblue" d="M593.451,-271.187C611.853,-265.456 643.104,-255.722 667.016,-248.274"/>
<polygon fill="midnightblue" stroke="midnightblue" points="668.25,-251.555 676.757,-245.24 666.168,-244.872 668.25,-251.555"/>
</g>
<!-- Node18 -->
<g id="node18" class="node"><title>Node18</title>
<g id="a_node18"><a xlink:href="../../d4/d67/lms_8c.html#a37bcb1539d76b53344102435e2ab9c91" target="_top" xlink:title="matrix">
<polygon fill="white" stroke="black" points="679,-76.5 679,-95.5 723,-95.5 723,-76.5 679,-76.5"/>
<text text-anchor="middle" x="701" y="-83.5" font-family="Helvetica,sans-Serif" font-size="10.00">matrix</text>
</a>
</g>
</g>
<!-- Node5&#45;&gt;Node18 -->
<g id="edge19" class="edge"><title>Node5&#45;&gt;Node18</title>
<path fill="none" stroke="midnightblue" d="M593.203,-274.157C605.169,-271.901 621.381,-266.924 631,-256 676.596,-204.223 625.731,-160.288 667,-105 668.06,-103.58 669.26,-102.248 670.56,-101.003"/>
<polygon fill="midnightblue" stroke="midnightblue" points="672.921,-103.606 678.797,-94.7899 668.706,-98.0171 672.921,-103.606"/>
</g>
<!-- Node19 -->
<g id="node19" class="node"><title>Node19</title>
<g id="a_node19"><a xlink:href="../../d8/d91/rounding_8c.html#aa8d7512cdf5bfbf811cef6a8a091c679" target="_top" xlink:title="round2csd">
<polygon fill="white" stroke="black" points="670,-38.5 670,-57.5 732,-57.5 732,-38.5 670,-38.5"/>
<text text-anchor="middle" x="701" y="-45.5" font-family="Helvetica,sans-Serif" font-size="10.00">round2csd</text>
</a>
</g>
</g>
<!-- Node5&#45;&gt;Node19 -->
<g id="edge20" class="edge"><title>Node5&#45;&gt;Node19</title>
<path fill="none" stroke="midnightblue" d="M593.338,-274.273C605.383,-272.085 621.633,-267.141 631,-256 686.028,-190.548 617.433,-136.679 667,-67 667.754,-65.9394 668.588,-64.9296 669.484,-63.969"/>
<polygon fill="midnightblue" stroke="midnightblue" points="671.799,-66.5973 677.301,-57.5432 667.353,-61.1898 671.799,-66.5973"/>
</g>
<!-- Node23 -->
<g id="node23" class="node"><title>Node23</title>
<g id="a_node23"><a xlink:href="../../d8/d91/rounding_8c.html#aca2670cc0fbf948a6b9cb670047c9d5b" target="_top" xlink:title="round2int">
<polygon fill="white" stroke="black" points="673,-190.5 673,-209.5 729,-209.5 729,-190.5 673,-190.5"/>
<text text-anchor="middle" x="701" y="-197.5" font-family="Helvetica,sans-Serif" font-size="10.00">round2int</text>
</a>
</g>
</g>
<!-- Node5&#45;&gt;Node23 -->
<g id="edge24" class="edge"><title>Node5&#45;&gt;Node23</title>
<path fill="none" stroke="midnightblue" d="M593.22,-272.187C604.289,-268.969 619.318,-263.653 631,-256 650.192,-243.427 648.885,-233.081 667,-219 668.781,-217.615 670.674,-216.262 672.617,-214.957"/>
<polygon fill="midnightblue" stroke="midnightblue" points="674.614,-217.837 681.265,-209.59 670.922,-211.889 674.614,-217.837"/>
</g>
<!-- Node24 -->
<g id="node24" class="node"><title>Node24</title>
<g id="a_node24"><a xlink:href="../../d4/d67/lms_8c.html#ac81ca32708341eb34b25d515d00bc748" target="_top" xlink:title="vector">
<polygon fill="white" stroke="black" points="679,-494.5 679,-513.5 723,-513.5 723,-494.5 679,-494.5"/>
<text text-anchor="middle" x="701" y="-501.5" font-family="Helvetica,sans-Serif" font-size="10.00">vector</text>
</a>
</g>
</g>
<!-- Node5&#45;&gt;Node24 -->
<g id="edge26" class="edge"><title>Node5&#45;&gt;Node24</title>
<path fill="none" stroke="midnightblue" d="M579.879,-285.932C586.434,-318.234 611.003,-421.856 667,-485 668.146,-486.292 669.402,-487.518 670.733,-488.679"/>
<polygon fill="midnightblue" stroke="midnightblue" points="668.786,-491.59 678.943,-494.605 672.883,-485.914 668.786,-491.59"/>
</g>
<!-- Node15&#45;&gt;Node12 -->
<g id="edge15" class="edge"><title>Node15&#45;&gt;Node12</title>
<path fill="none" stroke="midnightblue" d="M723.475,-247.54C727.697,-250.147 731.803,-253.297 735,-257 774.351,-302.581 792.363,-373.858 799.115,-408.196"/>
<polygon fill="midnightblue" stroke="midnightblue" points="795.729,-409.137 800.988,-418.335 802.613,-407.865 795.729,-409.137"/>
</g>
<!-- Node16 -->
<g id="node16" class="node"><title>Node16</title>
<g id="a_node16"><a xlink:href="../../db/de5/recipes_8c.html#a208e98f19b2f252315399d02c0594a46" target="_top" xlink:title="nrerror">
<polygon fill="white" stroke="black" points="872,-228.5 872,-247.5 916,-247.5 916,-228.5 872,-228.5"/>
<text text-anchor="middle" x="894" y="-235.5" font-family="Helvetica,sans-Serif" font-size="10.00">nrerror</text>
</a>
</g>
</g>
<!-- Node15&#45;&gt;Node16 -->
<g id="edge16" class="edge"><title>Node15&#45;&gt;Node16</title>
<path fill="none" stroke="midnightblue" d="M725.039,-238C759.23,-238 823.482,-238 861.842,-238"/>
<polygon fill="midnightblue" stroke="midnightblue" points="861.928,-241.5 871.928,-238 861.928,-234.5 861.928,-241.5"/>
</g>
<!-- Node17 -->
<g id="node17" class="node"><title>Node17</title>
<g id="a_node17"><a xlink:href="../../db/de5/recipes_8c.html#a5e6092211a5f7e2d6ae9282379d3c604" target="_top" xlink:title="vector">
<polygon fill="white" stroke="black" points="781.5,-247.5 781.5,-266.5 825.5,-266.5 825.5,-247.5 781.5,-247.5"/>
<text text-anchor="middle" x="803.5" y="-254.5" font-family="Helvetica,sans-Serif" font-size="10.00">vector</text>
</a>
</g>
</g>
<!-- Node15&#45;&gt;Node17 -->
<g id="edge17" class="edge"><title>Node15&#45;&gt;Node17</title>
<path fill="none" stroke="midnightblue" d="M725.057,-242.359C738.806,-244.958 756.441,-248.292 771.409,-251.122"/>
<polygon fill="midnightblue" stroke="midnightblue" points="770.789,-254.567 781.265,-252.985 772.089,-247.689 770.789,-254.567"/>
</g>
<!-- Node17&#45;&gt;Node16 -->
<g id="edge18" class="edge"><title>Node17&#45;&gt;Node16</title>
<path fill="none" stroke="midnightblue" d="M825.923,-252.401C836.685,-250.09 849.928,-247.247 861.796,-244.699"/>
<polygon fill="midnightblue" stroke="midnightblue" points="862.731,-248.078 871.774,-242.557 861.262,-241.234 862.731,-248.078"/>
</g>
<!-- Node20 -->
<g id="node20" class="node"><title>Node20</title>
<g id="a_node20"><a xlink:href="../../d8/d91/rounding_8c.html#a2cff6b77e73872659c44b0c99f6bd97f" target="_top" xlink:title="csd2int">
<polygon fill="white" stroke="black" points="779.5,-19.5 779.5,-38.5 827.5,-38.5 827.5,-19.5 779.5,-19.5"/>
<text text-anchor="middle" x="803.5" y="-26.5" font-family="Helvetica,sans-Serif" font-size="10.00">csd2int</text>
</a>
</g>
</g>
<!-- Node19&#45;&gt;Node20 -->
<g id="edge21" class="edge"><title>Node19&#45;&gt;Node20</title>
<path fill="none" stroke="midnightblue" d="M732.153,-42.2994C743.87,-40.0843 757.331,-37.5394 769.321,-35.2726"/>
<polygon fill="midnightblue" stroke="midnightblue" points="770.222,-38.6644 779.398,-33.3676 768.922,-31.7862 770.222,-38.6644"/>
</g>
<!-- Node21 -->
<g id="node21" class="node"><title>Node21</title>
<g id="a_node21"><a xlink:href="../../db/d82/wglew_8h.html#a500a82aecba06f4550f6849b8099ca21" target="_top" xlink:title="int">
<polygon fill="white" stroke="black" points="789,-123.5 789,-142.5 818,-142.5 818,-123.5 789,-123.5"/>
<text text-anchor="middle" x="803.5" y="-130.5" font-family="Helvetica,sans-Serif" font-size="10.00">int</text>
</a>
</g>
</g>
<!-- Node19&#45;&gt;Node21 -->
<g id="edge22" class="edge"><title>Node19&#45;&gt;Node21</title>
<path fill="none" stroke="midnightblue" d="M720.678,-57.6646C725.499,-60.4486 730.573,-63.6469 735,-67 754.44,-81.7256 774.085,-101.63 787.13,-115.719"/>
<polygon fill="midnightblue" stroke="midnightblue" points="784.675,-118.221 793.996,-123.258 789.851,-113.508 784.675,-118.221"/>
</g>
<!-- Node22 -->
<g id="node22" class="node"><title>Node22</title>
<g id="a_node22"><a xlink:href="../../d8/d91/rounding_8c.html#ab3a64ec72c5600bc114621e93309c8c3" target="_top" xlink:title="int2csd">
<polygon fill="white" stroke="black" points="779.5,-57.5 779.5,-76.5 827.5,-76.5 827.5,-57.5 779.5,-57.5"/>
<text text-anchor="middle" x="803.5" y="-64.5" font-family="Helvetica,sans-Serif" font-size="10.00">int2csd</text>
</a>
</g>
</g>
<!-- Node19&#45;&gt;Node22 -->
<g id="edge23" class="edge"><title>Node19&#45;&gt;Node22</title>
<path fill="none" stroke="midnightblue" d="M732.153,-53.7006C743.87,-55.9157 757.331,-58.4606 769.321,-60.7274"/>
<polygon fill="midnightblue" stroke="midnightblue" points="768.922,-64.2138 779.398,-62.6324 770.222,-57.3356 768.922,-64.2138"/>
</g>
<!-- Node23&#45;&gt;Node21 -->
<g id="edge25" class="edge"><title>Node23&#45;&gt;Node21</title>
<path fill="none" stroke="midnightblue" d="M719.314,-190.446C724.426,-187.514 729.992,-184.212 735,-181 750.932,-170.782 768.325,-158.382 781.465,-148.745"/>
<polygon fill="midnightblue" stroke="midnightblue" points="783.851,-151.334 789.812,-142.576 779.69,-145.705 783.851,-151.334"/>
</g>
<!-- Node26 -->
<g id="node26" class="node"><title>Node26</title>
<g id="a_node26"><a xlink:href="../../d9/df5/Logger_8cpp.html#ada38bf01d6d691de953ed69268ea6516" target="_top" xlink:title="errToStr">
<polygon fill="white" stroke="black" points="675,-0.5 675,-19.5 727,-19.5 727,-0.5 675,-0.5"/>
<text text-anchor="middle" x="701" y="-7.5" font-family="Helvetica,sans-Serif" font-size="10.00">errToStr</text>
</a>
</g>
</g>
<!-- Node25&#45;&gt;Node26 -->
<g id="edge28" class="edge"><title>Node25&#45;&gt;Node26</title>
<path fill="none" stroke="midnightblue" d="M618.279,-178.466C623.03,-176.002 627.444,-172.901 631,-169 674.279,-121.519 628.117,-80.1439 667,-29 667.788,-27.9639 668.649,-26.9748 669.569,-26.0316"/>
<polygon fill="midnightblue" stroke="midnightblue" points="671.877,-28.6677 677.488,-19.681 667.497,-23.2067 671.877,-28.6677"/>
</g>
<!-- Node28 -->
<g id="node28" class="node"><title>Node28</title>
<g id="a_node28"><a xlink:href="../../d5/d6c/namespacelime.html#abec841ac666fc9321a10e1881cff2da0" target="_top" xlink:title="Log a message with formatting and specified logging level. ">
<polygon fill="white" stroke="black" points="550.5,-140.5 550.5,-159.5 603.5,-159.5 603.5,-140.5 550.5,-140.5"/>
<text text-anchor="middle" x="577" y="-147.5" font-family="Helvetica,sans-Serif" font-size="10.00">lime::log</text>
</a>
</g>
</g>
<!-- Node27&#45;&gt;Node28 -->
<g id="edge30" class="edge"><title>Node27&#45;&gt;Node28</title>
<path fill="none" stroke="midnightblue" d="M462.283,-152.386C484.776,-151.914 515.952,-151.26 539.974,-150.756"/>
<polygon fill="midnightblue" stroke="midnightblue" points="540.192,-154.252 550.117,-150.543 540.045,-147.254 540.192,-154.252"/>
</g>
<!-- Node29&#45;&gt;Node27 -->
<g id="edge36" class="edge"><title>Node29&#45;&gt;Node27</title>
<path fill="none" stroke="midnightblue" d="M308.492,-203.399C319.382,-200.601 330.735,-197.152 341,-193 358.172,-186.054 360.188,-179.776 377,-172 381.782,-169.788 386.9,-167.678 392.008,-165.721"/>
<polygon fill="midnightblue" stroke="midnightblue" points="393.543,-168.887 401.731,-162.163 391.137,-162.313 393.543,-168.887"/>
</g>
<!-- Node30 -->
<g id="node30" class="node"><title>Node30</title>
<g id="a_node30"><a xlink:href="../../df/de1/lms7__api_8cpp.html#a4ff082a4601470c2d76f9fc93afe21dd" target="_top" xlink:title="LMS_GPIOWrite">
<polygon fill="white" stroke="black" points="387,-219.5 387,-238.5 477,-238.5 477,-219.5 387,-219.5"/>
<text text-anchor="middle" x="432" y="-226.5" font-family="Helvetica,sans-Serif" font-size="10.00">LMS_GPIOWrite</text>
</a>
</g>
</g>
<!-- Node29&#45;&gt;Node30 -->
<g id="edge32" class="edge"><title>Node29&#45;&gt;Node30</title>
<path fill="none" stroke="midnightblue" d="M341.232,-220.625C353.253,-221.747 365.38,-222.878 376.665,-223.931"/>
<polygon fill="midnightblue" stroke="midnightblue" points="376.483,-227.429 386.765,-224.873 377.133,-220.459 376.483,-227.429"/>
</g>
<!-- Node30&#45;&gt;Node4 -->
<g id="edge33" class="edge"><title>Node30&#45;&gt;Node4</title>
<path fill="none" stroke="midnightblue" d="M477.072,-229.925C488.355,-230.161 500.713,-230.421 512.755,-230.673"/>
<polygon fill="midnightblue" stroke="midnightblue" points="512.694,-234.173 522.765,-230.883 512.84,-227.174 512.694,-234.173"/>
</g>
<!-- Node30&#45;&gt;Node5 -->
<g id="edge34" class="edge"><title>Node30&#45;&gt;Node5</title>
<path fill="none" stroke="midnightblue" d="M461.938,-238.511C488.074,-247.101 526.14,-259.612 550.986,-267.779"/>
<polygon fill="midnightblue" stroke="midnightblue" points="550.159,-271.191 560.752,-270.988 552.344,-264.541 550.159,-271.191"/>
</g>
<!-- Node30&#45;&gt;Node25 -->
<g id="edge35" class="edge"><title>Node30&#45;&gt;Node25</title>
<path fill="none" stroke="midnightblue" d="M466.167,-219.491C485.968,-213.813 511.338,-206.54 532.705,-200.413"/>
<polygon fill="midnightblue" stroke="midnightblue" points="533.87,-203.72 542.518,-197.6 531.941,-196.991 533.87,-203.72"/>
</g>
<!-- Node31&#45;&gt;Node27 -->
<g id="edge42" class="edge"><title>Node31&#45;&gt;Node27</title>
<path fill="none" stroke="midnightblue" d="M330.742,-162.354C351.513,-160.416 373.454,-158.369 391.498,-156.685"/>
<polygon fill="midnightblue" stroke="midnightblue" points="392.001,-160.154 401.632,-155.74 391.35,-153.184 392.001,-160.154"/>
</g>
<!-- Node32 -->
<g id="node32" class="node"><title>Node32</title>
<g id="a_node32"><a xlink:href="../../df/de1/lms7__api_8cpp.html#acf47e711bafa0e173d0471b2091b98ee" target="_top" xlink:title="LMS_GPIODirWrite">
<polygon fill="white" stroke="black" points="380.5,-181.5 380.5,-200.5 483.5,-200.5 483.5,-181.5 380.5,-181.5"/>
<text text-anchor="middle" x="432" y="-188.5" font-family="Helvetica,sans-Serif" font-size="10.00">LMS_GPIODirWrite</text>
</a>
</g>
</g>
<!-- Node31&#45;&gt;Node32 -->
<g id="edge38" class="edge"><title>Node31&#45;&gt;Node32</title>
<path fill="none" stroke="midnightblue" d="M330.742,-178.139C343.885,-179.825 357.497,-181.571 370.294,-183.213"/>
<polygon fill="midnightblue" stroke="midnightblue" points="369.993,-186.703 380.357,-184.504 370.884,-179.76 369.993,-186.703"/>
</g>
<!-- Node32&#45;&gt;Node4 -->
<g id="edge39" class="edge"><title>Node32&#45;&gt;Node4</title>
<path fill="none" stroke="midnightblue" d="M466.167,-200.509C480.242,-204.545 497.131,-209.387 513.396,-214.051"/>
<polygon fill="midnightblue" stroke="midnightblue" points="512.835,-217.531 523.412,-216.922 514.764,-210.802 512.835,-217.531"/>
</g>
<!-- Node32&#45;&gt;Node5 -->
<g id="edge40" class="edge"><title>Node32&#45;&gt;Node5</title>
<path fill="none" stroke="midnightblue" d="M469.277,-200.542C475.501,-203.06 481.671,-206.175 487,-210 508.091,-225.138 502.081,-240.626 523,-256 531.38,-262.159 541.881,-266.642 551.32,-269.784"/>
<polygon fill="midnightblue" stroke="midnightblue" points="550.412,-273.165 560.996,-272.681 552.42,-266.459 550.412,-273.165"/>
</g>
<!-- Node32&#45;&gt;Node25 -->
<g id="edge41" class="edge"><title>Node32&#45;&gt;Node25</title>
<path fill="none" stroke="midnightblue" d="M483.819,-189.934C495.861,-189.681 508.759,-189.411 520.978,-189.154"/>
<polygon fill="midnightblue" stroke="midnightblue" points="521.124,-192.652 531.048,-188.943 520.977,-185.654 521.124,-192.652"/>
</g>
</g>
</svg>
        <g id="navigator" transform="translate(0 0)" fill="#404254">
                <rect fill="#f2f5e9" fill-opacity="0.5" stroke="#606060" stroke-width=".5" x="0" y="0" width="60" height="60"/>
                <use id="zoomplus" xlink:href="#zoomPlus" x="17" y="9" onmousedown="handleZoom(evt,'in')"/>
                <use id="zoomminus" xlink:href="#zoomMin" x="42" y="9" onmousedown="handleZoom(evt,'out')"/>
                <use id="reset" xlink:href="#resetDef" x="30" y="36" onmousedown="handleReset()"/>
                <g id="arrowUp" xlink:href="#dirArrow" transform="translate(30 24)" onmousedown="handlePan(0,-1)">
                  <use xlink:href="#rim" fill="#404040">
                        <set attributeName="fill" to="#808080" begin="arrowUp.mouseover" end="arrowUp.mouseout"/>
                  </use>
                  <path fill="none" stroke="white" stroke-width="1.5" d="M0,-3.0v7 M-2.5,-0.5L0,-3.0L2.5,-0.5"/>
                </g>
                <g id="arrowRight" xlink:href="#dirArrow" transform="rotate(90) translate(36 -43)" onmousedown="handlePan(1,0)">
                  <use xlink:href="#rim" fill="#404040">
                        <set attributeName="fill" to="#808080" begin="arrowRight.mouseover" end="arrowRight.mouseout"/>
                  </use>
                  <path fill="none" stroke="white" stroke-width="1.5" d="M0,-3.0v7 M-2.5,-0.5L0,-3.0L2.5,-0.5"/>
                </g>
                <g id="arrowDown" xlink:href="#dirArrow" transform="rotate(180) translate(-30 -48)" onmousedown="handlePan(0,1)">
                  <use xlink:href="#rim" fill="#404040">
                        <set attributeName="fill" to="#808080" begin="arrowDown.mouseover" end="arrowDown.mouseout"/>
                  </use>
                  <path fill="none" stroke="white" stroke-width="1.5" d="M0,-3.0v7 M-2.5,-0.5L0,-3.0L2.5,-0.5"/>
                </g>
                <g id="arrowLeft" xlink:href="#dirArrow" transform="rotate(270) translate(-36 17)" onmousedown="handlePan(-1,0)">
                  <use xlink:href="#rim" fill="#404040">
                        <set attributeName="fill" to="#808080" begin="arrowLeft.mouseover" end="arrowLeft.mouseout"/>
                  </use>
                  <path fill="none" stroke="white" stroke-width="1.5" d="M0,-3.0v7 M-2.5,-0.5L0,-3.0L2.5,-0.5"/>
                </g>
        </g>
        <svg viewBox="0 0 15 15" width="100%" height="30px" preserveAspectRatio="xMaxYMin meet">
         <g id="arrow_out" transform="scale(0.3 0.3)">
          <a xlink:href="classpnlLimeSDR_a11d2a5d675951ad24453b2a70c7a5bb0_cgraph_org.svg" target="_base">
           <rect id="button" ry="5" rx="5" y="6" x="6" height="38" width="38"
                fill="#f2f5e9" fill-opacity="0.5" stroke="#606060" stroke-width="1.0"/>
           <path id="arrow"
             d="M 11.500037,31.436501 C 11.940474,20.09759 22.043105,11.32322 32.158766,21.979434 L 37.068811,17.246167 C 37.068811,17.246167 37.088388,32 37.088388,32 L 22.160133,31.978069 C 22.160133,31.978069 26.997745,27.140456 26.997745,27.140456 C 18.528582,18.264221 13.291696,25.230495 11.500037,31.436501 z"
             style="fill:#404040;"/>
          </a>
         </g>
        </svg>
</svg>
