<?xml version="1.0" encoding="UTF-8" standalone="no"?>
<!DOCTYPE svg PUBLIC "-//W3C//DTD SVG 1.1//EN"
 "http://www.w3.org/Graphics/SVG/1.1/DTD/svg11.dtd">
<!-- Generated by graphviz version 2.38.0 (20140413.2041)
 -->
<!-- Title: pnlLimeSDR::OnUsrGPIODirChange Pages: 1 -->
<svg width="720pt" height="560pt"
 viewBox="0.00 0.00 720.00 560.00" xmlns="http://www.w3.org/2000/svg" xmlns:xlink="http://www.w3.org/1999/xlink">
<g id="graph0" class="graph" transform="scale(1 1) rotate(0) translate(4 556)">
<title>pnlLimeSDR::OnUsrGPIODirChange</title>
<polygon fill="white" stroke="none" points="-4,4 -4,-556 716,-556 716,4 -4,4"/>
<!-- Node1 -->
<g id="node1" class="node"><title>Node1</title>
<polygon fill="#bfbfbf" stroke="black" points="0,-304 0,-334 144,-334 144,-304 0,-304"/>
<text text-anchor="start" x="8" y="-322" font-family="Helvetica,sans-Serif" font-size="10.00">pnlLimeSDR::OnUsrGPIODir</text>
<text text-anchor="middle" x="72" y="-311" font-family="Helvetica,sans-Serif" font-size="10.00">Change</text>
</g>
<!-- Node2 -->
<g id="node2" class="node"><title>Node2</title>
<g id="a_node2"><a xlink:href="../../d5/d6c/namespacelime.html#ae9d8b86234e3827271197852facdc649" target="_top" xlink:title="Log an error message with formatting. ">
<polygon fill="white" stroke="black" points="201.5,-341.5 201.5,-360.5 261.5,-360.5 261.5,-341.5 201.5,-341.5"/>
<text text-anchor="middle" x="231.5" y="-348.5" font-family="Helvetica,sans-Serif" font-size="10.00">lime::error</text>
</a>
</g>
</g>
<!-- Node1&#45;&gt;Node2 -->
<g id="edge1" class="edge"><title>Node1&#45;&gt;Node2</title>
<path fill="none" stroke="midnightblue" d="M144.377,-333.502C160.489,-336.775 177.016,-340.133 191.228,-343.021"/>
<polygon fill="midnightblue" stroke="midnightblue" points="190.633,-346.471 201.129,-345.033 192.027,-339.612 190.633,-346.471"/>
</g>
<!-- Node4 -->
<g id="node4" class="node"><title>Node4</title>
<g id="a_node4"><a xlink:href="../../df/de1/lms7__api_8cpp.html#acf47e711bafa0e173d0471b2091b98ee" target="_top" xlink:title="LMS_GPIODirWrite">
<polygon fill="white" stroke="black" points="180,-278.5 180,-297.5 283,-297.5 283,-278.5 180,-278.5"/>
<text text-anchor="middle" x="231.5" y="-285.5" font-family="Helvetica,sans-Serif" font-size="10.00">LMS_GPIODirWrite</text>
</a>
</g>
</g>
<!-- Node1&#45;&gt;Node4 -->
<g id="edge3" class="edge"><title>Node1&#45;&gt;Node4</title>
<path fill="none" stroke="midnightblue" d="M144.377,-304.951C153.602,-303.135 162.963,-301.293 171.949,-299.524"/>
<polygon fill="midnightblue" stroke="midnightblue" points="172.77,-302.93 181.906,-297.565 171.418,-296.062 172.77,-302.93"/>
</g>
<!-- Node3 -->
<g id="node3" class="node"><title>Node3</title>
<g id="a_node3"><a xlink:href="../../d5/d6c/namespacelime.html#abec841ac666fc9321a10e1881cff2da0" target="_top" xlink:title="Log a message with formatting and specified logging level. ">
<polygon fill="white" stroke="black" points="346.5,-354.5 346.5,-373.5 399.5,-373.5 399.5,-354.5 346.5,-354.5"/>
<text text-anchor="middle" x="373" y="-361.5" font-family="Helvetica,sans-Serif" font-size="10.00">lime::log</text>
</a>
</g>
</g>
<!-- Node2&#45;&gt;Node3 -->
<g id="edge2" class="edge"><title>Node2&#45;&gt;Node3</title>
<path fill="none" stroke="midnightblue" d="M261.744,-353.725C283.36,-355.74 312.92,-358.494 335.991,-360.644"/>
<polygon fill="midnightblue" stroke="midnightblue" points="335.801,-364.142 346.083,-361.585 336.451,-357.172 335.801,-364.142"/>
</g>
<!-- Node5 -->
<g id="node5" class="node"><title>Node5</title>
<g id="a_node5"><a xlink:href="../../d3/d22/classlime_1_1LMS7__Device.html#a4fb66a6ab68f16a0b6506329b05a08b2" target="_top" xlink:title="lime::LMS7_Device::\lGetConnection">
<polygon fill="white" stroke="black" points="319,-305 319,-335 427,-335 427,-305 319,-305"/>
<text text-anchor="start" x="327" y="-323" font-family="Helvetica,sans-Serif" font-size="10.00">lime::LMS7_Device::</text>
<text text-anchor="middle" x="373" y="-312" font-family="Helvetica,sans-Serif" font-size="10.00">GetConnection</text>
</a>
</g>
</g>
<!-- Node4&#45;&gt;Node5 -->
<g id="edge4" class="edge"><title>Node4&#45;&gt;Node5</title>
<path fill="none" stroke="midnightblue" d="M273.977,-297.514C284.957,-300.033 297.063,-302.81 308.91,-305.528"/>
<polygon fill="midnightblue" stroke="midnightblue" points="308.241,-308.965 318.771,-307.79 309.806,-302.142 308.241,-308.965"/>
</g>
<!-- Node6 -->
<g id="node6" class="node"><title>Node6</title>
<g id="a_node6"><a xlink:href="../../d4/d67/lms_8c.html#a0e01e477b1f10e0a63e54de2dd2f8240" target="_top" xlink:title="lms">
<polygon fill="white" stroke="black" points="357,-266.5 357,-285.5 389,-285.5 389,-266.5 357,-266.5"/>
<text text-anchor="middle" x="373" y="-273.5" font-family="Helvetica,sans-Serif" font-size="10.00">lms</text>
</a>
</g>
</g>
<!-- Node4&#45;&gt;Node6 -->
<g id="edge5" class="edge"><title>Node4&#45;&gt;Node6</title>
<path fill="none" stroke="midnightblue" d="M283.257,-283.634C304.805,-281.78 328.97,-279.701 346.636,-278.182"/>
<polygon fill="midnightblue" stroke="midnightblue" points="347.052,-281.659 356.715,-277.315 346.452,-274.685 347.052,-281.659"/>
</g>
<!-- Node26 -->
<g id="node26" class="node"><title>Node26</title>
<g id="a_node26"><a xlink:href="../../d5/d6c/namespacelime.html#adc6af0cf8e0a70f3ef09fac1244f8c48" target="_top" xlink:title="lime::ReportError">
<polygon fill="white" stroke="black" points="327.5,-114.5 327.5,-133.5 418.5,-133.5 418.5,-114.5 327.5,-114.5"/>
<text text-anchor="middle" x="373" y="-121.5" font-family="Helvetica,sans-Serif" font-size="10.00">lime::ReportError</text>
</a>
</g>
</g>
<!-- Node4&#45;&gt;Node26 -->
<g id="edge28" class="edge"><title>Node4&#45;&gt;Node26</title>
<path fill="none" stroke="midnightblue" d="M240.809,-278.232C263.736,-251.278 328.118,-175.589 357.296,-141.286"/>
<polygon fill="midnightblue" stroke="midnightblue" points="360.096,-143.396 363.91,-133.511 354.764,-138.861 360.096,-143.396"/>
</g>
<!-- Node7 -->
<g id="node7" class="node"><title>Node7</title>
<g id="a_node7"><a xlink:href="../../d4/d67/lms_8c.html#a433227191fe883dcb8aa15d291bb29a1" target="_top" xlink:title="Case1F">
<polygon fill="white" stroke="black" points="471.5,-532.5 471.5,-551.5 522.5,-551.5 522.5,-532.5 471.5,-532.5"/>
<text text-anchor="middle" x="497" y="-539.5" font-family="Helvetica,sans-Serif" font-size="10.00">Case1F</text>
</a>
</g>
</g>
<!-- Node6&#45;&gt;Node7 -->
<g id="edge6" class="edge"><title>Node6&#45;&gt;Node7</title>
<path fill="none" stroke="midnightblue" d="M389.431,-277.65C401.529,-279.794 417.807,-284.715 427,-296 491.518,-375.196 405.083,-438.856 463,-523 463.637,-523.926 464.335,-524.812 465.083,-525.661"/>
<polygon fill="midnightblue" stroke="midnightblue" points="462.991,-528.477 472.872,-532.301 467.533,-523.15 462.991,-528.477"/>
</g>
<!-- Node8 -->
<g id="node8" class="node"><title>Node8</title>
<g id="a_node8"><a xlink:href="../../d4/d67/lms_8c.html#ace0cd8bf61cb9b86b98f0cef03b5a9d9" target="_top" xlink:title="Case2F">
<polygon fill="white" stroke="black" points="471.5,-494.5 471.5,-513.5 522.5,-513.5 522.5,-494.5 471.5,-494.5"/>
<text text-anchor="middle" x="497" y="-501.5" font-family="Helvetica,sans-Serif" font-size="10.00">Case2F</text>
</a>
</g>
</g>
<!-- Node6&#45;&gt;Node8 -->
<g id="edge7" class="edge"><title>Node6&#45;&gt;Node8</title>
<path fill="none" stroke="midnightblue" d="M389.338,-277.727C401.383,-279.915 417.633,-284.859 427,-296 482.028,-361.452 413.433,-415.321 463,-485 463.754,-486.061 464.588,-487.07 465.484,-488.031"/>
<polygon fill="midnightblue" stroke="midnightblue" points="463.353,-490.81 473.301,-494.457 467.799,-485.403 463.353,-490.81"/>
</g>
<!-- Node9 -->
<g id="node9" class="node"><title>Node9</title>
<g id="a_node9"><a xlink:href="../../d4/d67/lms_8c.html#a5f53b53ccc591e3643c4af2aee2e7f32" target="_top" xlink:title="Case3F">
<polygon fill="white" stroke="black" points="471.5,-456.5 471.5,-475.5 522.5,-475.5 522.5,-456.5 471.5,-456.5"/>
<text text-anchor="middle" x="497" y="-463.5" font-family="Helvetica,sans-Serif" font-size="10.00">Case3F</text>
</a>
</g>
</g>
<!-- Node6&#45;&gt;Node9 -->
<g id="edge8" class="edge"><title>Node6&#45;&gt;Node9</title>
<path fill="none" stroke="midnightblue" d="M389.203,-277.843C401.169,-280.099 417.381,-285.076 427,-296 472.596,-347.777 421.731,-391.712 463,-447 463.779,-448.043 464.632,-449.038 465.546,-449.986"/>
<polygon fill="midnightblue" stroke="midnightblue" points="463.457,-452.798 473.437,-456.358 467.855,-447.352 463.457,-452.798"/>
</g>
<!-- Node10 -->
<g id="node10" class="node"><title>Node10</title>
<g id="a_node10"><a xlink:href="../../d4/d67/lms_8c.html#a5086763d5b258349bc13d6be7e7d0665" target="_top" xlink:title="Case4F">
<polygon fill="white" stroke="black" points="471.5,-418.5 471.5,-437.5 522.5,-437.5 522.5,-418.5 471.5,-418.5"/>
<text text-anchor="middle" x="497" y="-425.5" font-family="Helvetica,sans-Serif" font-size="10.00">Case4F</text>
</a>
</g>
</g>
<!-- Node6&#45;&gt;Node10 -->
<g id="edge9" class="edge"><title>Node6&#45;&gt;Node10</title>
<path fill="none" stroke="midnightblue" d="M389.473,-278.135C401.268,-280.544 417.116,-285.584 427,-296 463.282,-334.235 429.922,-367.962 463,-409 463.933,-410.158 464.958,-411.259 466.05,-412.305"/>
<polygon fill="midnightblue" stroke="midnightblue" points="463.93,-415.09 473.992,-418.407 468.194,-409.539 463.93,-415.09"/>
</g>
<!-- Node11 -->
<g id="node11" class="node"><title>Node11</title>
<g id="a_node11"><a xlink:href="../../db/de5/recipes_8c.html#aee25e218394217a134e805ea09fb0fe9" target="_top" xlink:title="free_ivector">
<polygon fill="white" stroke="black" points="463,-380.5 463,-399.5 531,-399.5 531,-380.5 463,-380.5"/>
<text text-anchor="middle" x="497" y="-387.5" font-family="Helvetica,sans-Serif" font-size="10.00">free_ivector</text>
</a>
</g>
</g>
<!-- Node6&#45;&gt;Node11 -->
<g id="edge10" class="edge"><title>Node6&#45;&gt;Node11</title>
<path fill="none" stroke="midnightblue" d="M389.085,-278.53C400.666,-281.156 416.416,-286.296 427,-296 454.253,-320.988 437.852,-343.895 463,-371 464.175,-372.266 465.453,-373.472 466.802,-374.616"/>
<polygon fill="midnightblue" stroke="midnightblue" points="464.889,-377.55 475.067,-380.492 468.945,-371.845 464.889,-377.55"/>
</g>
<!-- Node12 -->
<g id="node12" class="node"><title>Node12</title>
<g id="a_node12"><a xlink:href="../../db/de5/recipes_8c.html#a3e0d121b098c19c0bdc2429e5b9f1625" target="_top" xlink:title="free_matrix">
<polygon fill="white" stroke="black" points="464.5,-342.5 464.5,-361.5 529.5,-361.5 529.5,-342.5 464.5,-342.5"/>
<text text-anchor="middle" x="497" y="-349.5" font-family="Helvetica,sans-Serif" font-size="10.00">free_matrix</text>
</a>
</g>
</g>
<!-- Node6&#45;&gt;Node12 -->
<g id="edge11" class="edge"><title>Node6&#45;&gt;Node12</title>
<path fill="none" stroke="midnightblue" d="M389.06,-280.068C400.049,-283.412 415.049,-288.775 427,-296 445.32,-307.075 446.324,-314.577 463,-328 466.477,-330.798 470.241,-333.673 473.94,-336.417"/>
<polygon fill="midnightblue" stroke="midnightblue" points="472.142,-339.437 482.289,-342.484 476.257,-333.774 472.142,-339.437"/>
</g>
<!-- Node13 -->
<g id="node13" class="node"><title>Node13</title>
<g id="a_node13"><a xlink:href="../../db/de5/recipes_8c.html#a8214a52d888e820222c0382648329c0c" target="_top" xlink:title="free_vector">
<polygon fill="white" stroke="black" points="567,-285.5 567,-304.5 632,-304.5 632,-285.5 567,-285.5"/>
<text text-anchor="middle" x="599.5" y="-292.5" font-family="Helvetica,sans-Serif" font-size="10.00">free_vector</text>
</a>
</g>
</g>
<!-- Node6&#45;&gt;Node13 -->
<g id="edge12" class="edge"><title>Node6&#45;&gt;Node13</title>
<path fill="none" stroke="midnightblue" d="M389.277,-280.288C406.881,-284.989 436.76,-292.23 463,-295 494.289,-298.303 529.869,-298.154 556.716,-297.26"/>
<polygon fill="midnightblue" stroke="midnightblue" points="557.056,-300.749 566.915,-296.87 556.789,-293.754 557.056,-300.749"/>
</g>
<!-- Node14 -->
<g id="node14" class="node"><title>Node14</title>
<g id="a_node14"><a xlink:href="../../d4/d67/lms_8c.html#ad1d6c875ff429888b51dd1155f0311ad" target="_top" xlink:title="ivector">
<polygon fill="white" stroke="black" points="474,-266.5 474,-285.5 520,-285.5 520,-266.5 474,-266.5"/>
<text text-anchor="middle" x="497" y="-273.5" font-family="Helvetica,sans-Serif" font-size="10.00">ivector</text>
</a>
</g>
</g>
<!-- Node6&#45;&gt;Node14 -->
<g id="edge13" class="edge"><title>Node6&#45;&gt;Node14</title>
<path fill="none" stroke="midnightblue" d="M389.451,-276C407.995,-276 439.584,-276 463.566,-276"/>
<polygon fill="midnightblue" stroke="midnightblue" points="463.646,-279.5 473.646,-276 463.645,-272.5 463.646,-279.5"/>
</g>
<!-- Node15 -->
<g id="node15" class="node"><title>Node15</title>
<g id="a_node15"><a xlink:href="../../db/de5/recipes_8c.html#a66ff65ad0355ec1f4a7722bcdafc8cd3" target="_top" xlink:title="lubksb">
<polygon fill="white" stroke="black" points="474.5,-228.5 474.5,-247.5 519.5,-247.5 519.5,-228.5 474.5,-228.5"/>
<text text-anchor="middle" x="497" y="-235.5" font-family="Helvetica,sans-Serif" font-size="10.00">lubksb</text>
</a>
</g>
</g>
<!-- Node6&#45;&gt;Node15 -->
<g id="edge14" class="edge"><title>Node6&#45;&gt;Node15</title>
<path fill="none" stroke="midnightblue" d="M389.451,-271.187C408.19,-265.351 440.251,-255.364 464.321,-247.867"/>
<polygon fill="midnightblue" stroke="midnightblue" points="465.579,-251.141 474.085,-244.826 463.497,-244.458 465.579,-251.141"/>
</g>
<!-- Node16 -->
<g id="node16" class="node"><title>Node16</title>
<g id="a_node16"><a xlink:href="../../db/de5/recipes_8c.html#a623fec796d9d53e5e4a4d30226547da7" target="_top" xlink:title="ludcmp">
<polygon fill="white" stroke="black" points="473,-190.5 473,-209.5 521,-209.5 521,-190.5 473,-190.5"/>
<text text-anchor="middle" x="497" y="-197.5" font-family="Helvetica,sans-Serif" font-size="10.00">ludcmp</text>
</a>
</g>
</g>
<!-- Node6&#45;&gt;Node16 -->
<g id="edge15" class="edge"><title>Node6&#45;&gt;Node16</title>
<path fill="none" stroke="midnightblue" d="M388.668,-266.304C406.201,-254.786 436.5,-235.103 463,-219 465.355,-217.569 467.818,-216.1 470.292,-214.644"/>
<polygon fill="midnightblue" stroke="midnightblue" points="472.234,-217.564 479.122,-209.514 468.717,-211.511 472.234,-217.564"/>
</g>
<!-- Node19 -->
<g id="node19" class="node"><title>Node19</title>
<g id="a_node19"><a xlink:href="../../d4/d67/lms_8c.html#a37bcb1539d76b53344102435e2ab9c91" target="_top" xlink:title="matrix">
<polygon fill="white" stroke="black" points="475,-152.5 475,-171.5 519,-171.5 519,-152.5 475,-152.5"/>
<text text-anchor="middle" x="497" y="-159.5" font-family="Helvetica,sans-Serif" font-size="10.00">matrix</text>
</a>
</g>
</g>
<!-- Node6&#45;&gt;Node19 -->
<g id="edge20" class="edge"><title>Node6&#45;&gt;Node19</title>
<path fill="none" stroke="midnightblue" d="M381.306,-266.494C395.59,-248.33 428.816,-208.093 463,-181 464.768,-179.599 466.651,-178.233 468.587,-176.919"/>
<polygon fill="midnightblue" stroke="midnightblue" points="470.588,-179.796 477.221,-171.534 466.884,-173.857 470.588,-179.796"/>
</g>
<!-- Node20 -->
<g id="node20" class="node"><title>Node20</title>
<g id="a_node20"><a xlink:href="../../d8/d91/rounding_8c.html#aa8d7512cdf5bfbf811cef6a8a091c679" target="_top" xlink:title="round2csd">
<polygon fill="white" stroke="black" points="466,-114.5 466,-133.5 528,-133.5 528,-114.5 466,-114.5"/>
<text text-anchor="middle" x="497" y="-121.5" font-family="Helvetica,sans-Serif" font-size="10.00">round2csd</text>
</a>
</g>
</g>
<!-- Node6&#45;&gt;Node20 -->
<g id="edge21" class="edge"><title>Node6&#45;&gt;Node20</title>
<path fill="none" stroke="midnightblue" d="M378.567,-266.211C389.977,-242.578 421.799,-181.516 463,-143 464.295,-141.79 465.68,-140.624 467.124,-139.508"/>
<polygon fill="midnightblue" stroke="midnightblue" points="469.446,-142.164 475.787,-133.676 465.537,-136.357 469.446,-142.164"/>
</g>
<!-- Node24 -->
<g id="node24" class="node"><title>Node24</title>
<g id="a_node24"><a xlink:href="../../d8/d91/rounding_8c.html#aca2670cc0fbf948a6b9cb670047c9d5b" target="_top" xlink:title="round2int">
<polygon fill="white" stroke="black" points="469,-76.5 469,-95.5 525,-95.5 525,-76.5 469,-76.5"/>
<text text-anchor="middle" x="497" y="-83.5" font-family="Helvetica,sans-Serif" font-size="10.00">round2int</text>
</a>
</g>
</g>
<!-- Node6&#45;&gt;Node24 -->
<g id="edge25" class="edge"><title>Node6&#45;&gt;Node24</title>
<path fill="none" stroke="midnightblue" d="M376.878,-266.336C385.635,-238.304 414.37,-155.742 463,-105 464.195,-103.753 465.49,-102.563 466.852,-101.431"/>
<polygon fill="midnightblue" stroke="midnightblue" points="468.989,-104.206 475.154,-95.5906 464.961,-98.4809 468.989,-104.206"/>
</g>
<!-- Node25 -->
<g id="node25" class="node"><title>Node25</title>
<g id="a_node25"><a xlink:href="../../d4/d67/lms_8c.html#ac81ca32708341eb34b25d515d00bc748" target="_top" xlink:title="vector">
<polygon fill="white" stroke="black" points="475,-38.5 475,-57.5 519,-57.5 519,-38.5 475,-38.5"/>
<text text-anchor="middle" x="497" y="-45.5" font-family="Helvetica,sans-Serif" font-size="10.00">vector</text>
</a>
</g>
</g>
<!-- Node6&#45;&gt;Node25 -->
<g id="edge27" class="edge"><title>Node6&#45;&gt;Node25</title>
<path fill="none" stroke="midnightblue" d="M377.908,-266.353C394.142,-226.346 455.739,-75.188 463,-67 464.146,-65.7078 465.402,-64.4815 466.733,-63.3211"/>
<polygon fill="midnightblue" stroke="midnightblue" points="468.883,-66.0859 474.943,-57.3953 464.786,-60.4099 468.883,-66.0859"/>
</g>
<!-- Node16&#45;&gt;Node13 -->
<g id="edge16" class="edge"><title>Node16&#45;&gt;Node13</title>
<path fill="none" stroke="midnightblue" d="M517.186,-209.656C521.9,-212.397 526.797,-215.577 531,-219 552.243,-236.301 572.546,-260.569 585.236,-276.991"/>
<polygon fill="midnightblue" stroke="midnightblue" points="582.633,-279.352 591.46,-285.212 588.214,-275.127 582.633,-279.352"/>
</g>
<!-- Node17 -->
<g id="node17" class="node"><title>Node17</title>
<g id="a_node17"><a xlink:href="../../db/de5/recipes_8c.html#a208e98f19b2f252315399d02c0594a46" target="_top" xlink:title="nrerror">
<polygon fill="white" stroke="black" points="668,-209.5 668,-228.5 712,-228.5 712,-209.5 668,-209.5"/>
<text text-anchor="middle" x="690" y="-216.5" font-family="Helvetica,sans-Serif" font-size="10.00">nrerror</text>
</a>
</g>
</g>
<!-- Node16&#45;&gt;Node17 -->
<g id="edge17" class="edge"><title>Node16&#45;&gt;Node17</title>
<path fill="none" stroke="midnightblue" d="M521.306,-208.1C534.528,-212.267 551.486,-216.903 567,-219 597.534,-223.127 632.761,-222.564 657.488,-221.308"/>
<polygon fill="midnightblue" stroke="midnightblue" points="657.944,-224.788 667.726,-220.718 657.541,-217.799 657.944,-224.788"/>
</g>
<!-- Node18 -->
<g id="node18" class="node"><title>Node18</title>
<g id="a_node18"><a xlink:href="../../db/de5/recipes_8c.html#a5e6092211a5f7e2d6ae9282379d3c604" target="_top" xlink:title="vector">
<polygon fill="white" stroke="black" points="577.5,-190.5 577.5,-209.5 621.5,-209.5 621.5,-190.5 577.5,-190.5"/>
<text text-anchor="middle" x="599.5" y="-197.5" font-family="Helvetica,sans-Serif" font-size="10.00">vector</text>
</a>
</g>
</g>
<!-- Node16&#45;&gt;Node18 -->
<g id="edge18" class="edge"><title>Node16&#45;&gt;Node18</title>
<path fill="none" stroke="midnightblue" d="M521.057,-200C534.673,-200 552.102,-200 566.977,-200"/>
<polygon fill="midnightblue" stroke="midnightblue" points="567.265,-203.5 577.265,-200 567.265,-196.5 567.265,-203.5"/>
</g>
<!-- Node18&#45;&gt;Node17 -->
<g id="edge19" class="edge"><title>Node18&#45;&gt;Node17</title>
<path fill="none" stroke="midnightblue" d="M621.923,-204.599C632.685,-206.91 645.928,-209.753 657.796,-212.301"/>
<polygon fill="midnightblue" stroke="midnightblue" points="657.262,-215.766 667.774,-214.443 658.731,-208.922 657.262,-215.766"/>
</g>
<!-- Node21 -->
<g id="node21" class="node"><title>Node21</title>
<g id="a_node21"><a xlink:href="../../d8/d91/rounding_8c.html#a2cff6b77e73872659c44b0c99f6bd97f" target="_top" xlink:title="csd2int">
<polygon fill="white" stroke="black" points="575.5,-152.5 575.5,-171.5 623.5,-171.5 623.5,-152.5 575.5,-152.5"/>
<text text-anchor="middle" x="599.5" y="-159.5" font-family="Helvetica,sans-Serif" font-size="10.00">csd2int</text>
</a>
</g>
</g>
<!-- Node20&#45;&gt;Node21 -->
<g id="edge22" class="edge"><title>Node20&#45;&gt;Node21</title>
<path fill="none" stroke="midnightblue" d="M523.36,-133.589C536.181,-138.437 551.894,-144.378 565.631,-149.572"/>
<polygon fill="midnightblue" stroke="midnightblue" points="564.623,-152.933 575.214,-153.195 567.099,-146.385 564.623,-152.933"/>
</g>
<!-- Node22 -->
<g id="node22" class="node"><title>Node22</title>
<g id="a_node22"><a xlink:href="../../db/d82/wglew_8h.html#a500a82aecba06f4550f6849b8099ca21" target="_top" xlink:title="int">
<polygon fill="white" stroke="black" points="585,-76.5 585,-95.5 614,-95.5 614,-76.5 585,-76.5"/>
<text text-anchor="middle" x="599.5" y="-83.5" font-family="Helvetica,sans-Serif" font-size="10.00">int</text>
</a>
</g>
</g>
<!-- Node20&#45;&gt;Node22 -->
<g id="edge23" class="edge"><title>Node20&#45;&gt;Node22</title>
<path fill="none" stroke="midnightblue" d="M523.36,-114.411C539.388,-108.351 559.934,-100.582 575.49,-94.7003"/>
<polygon fill="midnightblue" stroke="midnightblue" points="576.778,-97.9552 584.894,-91.1446 574.302,-91.4076 576.778,-97.9552"/>
</g>
<!-- Node23 -->
<g id="node23" class="node"><title>Node23</title>
<g id="a_node23"><a xlink:href="../../d8/d91/rounding_8c.html#ab3a64ec72c5600bc114621e93309c8c3" target="_top" xlink:title="int2csd">
<polygon fill="white" stroke="black" points="575.5,-114.5 575.5,-133.5 623.5,-133.5 623.5,-114.5 575.5,-114.5"/>
<text text-anchor="middle" x="599.5" y="-121.5" font-family="Helvetica,sans-Serif" font-size="10.00">int2csd</text>
</a>
</g>
</g>
<!-- Node20&#45;&gt;Node23 -->
<g id="edge24" class="edge"><title>Node20&#45;&gt;Node23</title>
<path fill="none" stroke="midnightblue" d="M528.153,-124C539.87,-124 553.331,-124 565.321,-124"/>
<polygon fill="midnightblue" stroke="midnightblue" points="565.398,-127.5 575.398,-124 565.398,-120.5 565.398,-127.5"/>
</g>
<!-- Node24&#45;&gt;Node22 -->
<g id="edge26" class="edge"><title>Node24&#45;&gt;Node22</title>
<path fill="none" stroke="midnightblue" d="M525.197,-86C540.576,-86 559.634,-86 574.462,-86"/>
<polygon fill="midnightblue" stroke="midnightblue" points="574.846,-89.5001 584.846,-86 574.846,-82.5001 574.846,-89.5001"/>
</g>
<!-- Node27 -->
<g id="node27" class="node"><title>Node27</title>
<g id="a_node27"><a xlink:href="../../d9/df5/Logger_8cpp.html#ada38bf01d6d691de953ed69268ea6516" target="_top" xlink:title="errToStr">
<polygon fill="white" stroke="black" points="471,-0.5 471,-19.5 523,-19.5 523,-0.5 471,-0.5"/>
<text text-anchor="middle" x="497" y="-7.5" font-family="Helvetica,sans-Serif" font-size="10.00">errToStr</text>
</a>
</g>
</g>
<!-- Node26&#45;&gt;Node27 -->
<g id="edge29" class="edge"><title>Node26&#45;&gt;Node27</title>
<path fill="none" stroke="midnightblue" d="M381.306,-114.494C395.59,-96.3305 428.816,-56.0931 463,-29 464.768,-27.5987 466.651,-26.2334 468.587,-24.9194"/>
<polygon fill="midnightblue" stroke="midnightblue" points="470.588,-27.7962 477.221,-19.5343 466.884,-21.8567 470.588,-27.7962"/>
</g>
</g>
</svg>
