<?xml version="1.0" encoding="UTF-8" standalone="no"?>
<!DOCTYPE svg PUBLIC "-//W3C//DTD SVG 1.1//EN"
 "http://www.w3.org/Graphics/SVG/1.1/DTD/svg11.dtd">
<!-- Generated by graphviz version 2.38.0 (20140413.2041)
 -->
<!-- Title: pnlLimeSDR::Initialize Pages: 1 -->
<!--zoomable 225 -->
<svg id="main" version="1.1" xmlns="http://www.w3.org/2000/svg" xmlns:xlink="http://www.w3.org/1999/xlink" xml:space="preserve" onload="init(evt)">
<style type="text/css"><![CDATA[
.edge:hover path { stroke: red; }
.edge:hover polygon { stroke: red; fill: red; }
]]></style>
<script type="text/javascript"><![CDATA[
var edges = document.getElementsByTagName('g');
if (edges && edges.length) {
  for (var i=0;i<edges.length;i++) {
    if (edges[i].id.substr(0,4)=='edge') {
      edges[i].setAttribute('class','edge');
    }
  }
}
]]></script>
        <defs>
                <circle id="rim" cx="0" cy="0" r="7"/>
                <circle id="rim2" cx="0" cy="0" r="3.5"/>
                <g id="zoomPlus">
                        <use xlink:href="#rim" fill="#404040">
                                <set attributeName="fill" to="#808080" begin="zoomplus.mouseover" end="zoomplus.mouseout"/>
                        </use>
                        <path d="M-4,0h8M0,-4v8" fill="none" stroke="white" stroke-width="1.5" pointer-events="none"/>
                </g>
                <g id="zoomMin">
                        <use xlink:href="#rim" fill="#404040">
                                <set attributeName="fill" to="#808080" begin="zoomminus.mouseover" end="zoomminus.mouseout"/>
                        </use>
                        <path d="M-4,0h8" fill="none" stroke="white" stroke-width="1.5" pointer-events="none"/>
                </g>
                <g id="dirArrow">
                        <path fill="none" stroke="white" stroke-width="1.5" d="M0,-3.0v7 M-2.5,-0.5L0,-3.0L2.5,-0.5"/>
                </g>
               <g id="resetDef">
                       <use xlink:href="#rim2" fill="#404040">
                               <set attributeName="fill" to="#808080" begin="reset.mouseover" end="reset.mouseout"/>
                       </use>
               </g>
        </defs>

<script type="text/javascript">
var viewWidth = 995;
var viewHeight = 225;
var sectionId = 'dynsection-5';
</script>
<script xlink:href="../../svgpan.js"/>
<svg id="graph" class="graph">
<g id="viewport">
<title>pnlLimeSDR::Initialize</title>
<polygon fill="white" stroke="none" points="-4,4 -4,-221 991,-221 991,4 -4,4"/>
<!-- Node1 -->
<g id="node1" class="node"><title>Node1</title>
<polygon fill="#bfbfbf" stroke="black" points="0,-80 0,-99 114,-99 114,-80 0,-80"/>
<text text-anchor="middle" x="57" y="-87" font-family="Helvetica,sans-Serif" font-size="10.00">pnlLimeSDR::Initialize</text>
</g>
<!-- Node2 -->
<g id="node2" class="node"><title>Node2</title>
<g id="a_node2"><a xlink:href="../../df/d93/classpnlBoardControls.html#a9b3b02be9d2210cbb83e313bde4af24e" target="_top" xlink:title="pnlBoardControls::SetupControls">
<polygon fill="white" stroke="black" points="150,-80 150,-99 310,-99 310,-80 150,-80"/>
<text text-anchor="middle" x="230" y="-87" font-family="Helvetica,sans-Serif" font-size="10.00">pnlBoardControls::SetupControls</text>
</a>
</g>
</g>
<!-- Node1&#45;&gt;Node2 -->
<g id="edge1" class="edge"><title>Node1&#45;&gt;Node2</title>
<path fill="none" stroke="midnightblue" d="M124.508,-89.5C132.864,-89.5 141.474,-89.5 149.998,-89.5"/>
<polygon fill="midnightblue" stroke="midnightblue" points="124.466,-86.0001 114.466,-89.5 124.466,-93.0001 124.466,-86.0001"/>
</g>
<!-- Node3 -->
<g id="node3" class="node"><title>Node3</title>
<g id="a_node3"><a xlink:href="../../df/d93/classpnlBoardControls.html#ad4e318fad186d4b2d50fcbf20e0b88be" target="_top" xlink:title="pnlBoardControls::Initialize">
<polygon fill="white" stroke="black" points="346,-143 346,-162 480,-162 480,-143 346,-143"/>
<text text-anchor="middle" x="413" y="-150" font-family="Helvetica,sans-Serif" font-size="10.00">pnlBoardControls::Initialize</text>
</a>
</g>
</g>
<!-- Node2&#45;&gt;Node3 -->
<g id="edge2" class="edge"><title>Node2&#45;&gt;Node3</title>
<path fill="none" stroke="midnightblue" d="M268.226,-102.457C302.81,-114.495 353.511,-132.142 384.548,-142.945"/>
<polygon fill="midnightblue" stroke="midnightblue" points="269.085,-99.0501 258.49,-99.0683 266.784,-105.661 269.085,-99.0501"/>
</g>
<!-- Node7 -->
<g id="node7" class="node"><title>Node7</title>
<g id="a_node7"><a xlink:href="../../d1/df3/classLMS7SuiteAppFrame.html#a819f017d3e706c433d9b7f4f9bc1f9c3" target="_top" xlink:title="LMS7SuiteAppFrame::\lOnControlBoardConnect">
<polygon fill="white" stroke="black" points="688,-93.5 688,-123.5 811,-123.5 811,-93.5 688,-93.5"/>
<text text-anchor="start" x="696" y="-111.5" font-family="Helvetica,sans-Serif" font-size="10.00">LMS7SuiteAppFrame::</text>
<text text-anchor="middle" x="749.5" y="-100.5" font-family="Helvetica,sans-Serif" font-size="10.00">OnControlBoardConnect</text>
</a>
</g>
</g>
<!-- Node2&#45;&gt;Node7 -->
<g id="edge9" class="edge"><title>Node2&#45;&gt;Node7</title>
<path fill="none" stroke="midnightblue" d="M320.439,-92.7837C425.595,-96.6445 597.255,-102.947 687.946,-106.277"/>
<polygon fill="midnightblue" stroke="midnightblue" points="320.282,-89.2757 310.16,-92.4064 320.025,-96.271 320.282,-89.2757"/>
</g>
<!-- Node9 -->
<g id="node9" class="node"><title>Node9</title>
<g id="a_node9"><a xlink:href="../../df/d93/classpnlBoardControls.html#a51e925b6e13e8d7540a102ac4fce8ca0" target="_top" xlink:title="pnlBoardControls::OnUser\lChangedBoardType">
<polygon fill="white" stroke="black" points="347.5,-11.5 347.5,-41.5 478.5,-41.5 478.5,-11.5 347.5,-11.5"/>
<text text-anchor="start" x="355.5" y="-29.5" font-family="Helvetica,sans-Serif" font-size="10.00">pnlBoardControls::OnUser</text>
<text text-anchor="middle" x="413" y="-18.5" font-family="Helvetica,sans-Serif" font-size="10.00">ChangedBoardType</text>
</a>
</g>
</g>
<!-- Node2&#45;&gt;Node9 -->
<g id="edge10" class="edge"><title>Node2&#45;&gt;Node9</title>
<path fill="none" stroke="midnightblue" d="M268.3,-76.5173C297.482,-66.36 338.106,-52.2201 368.718,-41.565"/>
<polygon fill="midnightblue" stroke="midnightblue" points="266.784,-73.3389 258.49,-79.9317 269.085,-79.9499 266.784,-73.3389"/>
</g>
<!-- Node10 -->
<g id="node10" class="node"><title>Node10</title>
<g id="a_node10"><a xlink:href="../../df/d93/classpnlBoardControls.html#a8f1a27f7a4201cd55658f48bdf41ae20" target="_top" xlink:title="pnlBoardControls::pnlBoard\lControls">
<polygon fill="white" stroke="black" points="516,-49.5 516,-79.5 652,-79.5 652,-49.5 516,-49.5"/>
<text text-anchor="start" x="524" y="-67.5" font-family="Helvetica,sans-Serif" font-size="10.00">pnlBoardControls::pnlBoard</text>
<text text-anchor="middle" x="584" y="-56.5" font-family="Helvetica,sans-Serif" font-size="10.00">Controls</text>
</a>
</g>
</g>
<!-- Node2&#45;&gt;Node10 -->
<g id="edge13" class="edge"><title>Node2&#45;&gt;Node10</title>
<path fill="none" stroke="midnightblue" d="M320.42,-83.1491C381.279,-78.8268 460.531,-73.1981 515.982,-69.2598"/>
<polygon fill="midnightblue" stroke="midnightblue" points="320.161,-79.6586 310.435,-83.8583 320.657,-86.641 320.161,-79.6586"/>
</g>
<!-- Node4 -->
<g id="node4" class="node"><title>Node4</title>
<g id="a_node4"><a xlink:href="../../d1/df3/classLMS7SuiteAppFrame.html#a09672f8ba8960dff6646f0faaec54e1d" target="_top" xlink:title="LMS7SuiteAppFrame::\lOnShowBoardControls">
<polygon fill="white" stroke="black" points="526,-186.5 526,-216.5 642,-216.5 642,-186.5 526,-186.5"/>
<text text-anchor="start" x="534" y="-204.5" font-family="Helvetica,sans-Serif" font-size="10.00">LMS7SuiteAppFrame::</text>
<text text-anchor="middle" x="584" y="-193.5" font-family="Helvetica,sans-Serif" font-size="10.00">OnShowBoardControls</text>
</a>
</g>
</g>
<!-- Node3&#45;&gt;Node4 -->
<g id="edge3" class="edge"><title>Node3&#45;&gt;Node4</title>
<path fill="none" stroke="midnightblue" d="M456.649,-164.866C479.277,-171.426 507.261,-179.54 531.138,-186.463"/>
<polygon fill="midnightblue" stroke="midnightblue" points="457.565,-161.487 446.986,-162.064 455.616,-168.21 457.565,-161.487"/>
</g>
<!-- Node5 -->
<g id="node5" class="node"><title>Node5</title>
<g id="a_node5"><a xlink:href="../../d1/df3/classLMS7SuiteAppFrame.html#aeaeb613a8c9139f0e60b02f1f612ed5d" target="_top" xlink:title="LMS7SuiteAppFrame::\lUpdateConnections">
<polygon fill="white" stroke="black" points="526,-137.5 526,-167.5 642,-167.5 642,-137.5 526,-137.5"/>
<text text-anchor="start" x="534" y="-155.5" font-family="Helvetica,sans-Serif" font-size="10.00">LMS7SuiteAppFrame::</text>
<text text-anchor="middle" x="584" y="-144.5" font-family="Helvetica,sans-Serif" font-size="10.00">UpdateConnections</text>
</a>
</g>
</g>
<!-- Node3&#45;&gt;Node5 -->
<g id="edge4" class="edge"><title>Node3&#45;&gt;Node5</title>
<path fill="none" stroke="midnightblue" d="M490.654,-152.5C502.515,-152.5 514.585,-152.5 525.916,-152.5"/>
<polygon fill="midnightblue" stroke="midnightblue" points="490.308,-149 480.308,-152.5 490.308,-156 490.308,-149"/>
</g>
<!-- Node6 -->
<g id="node6" class="node"><title>Node6</title>
<g id="a_node6"><a xlink:href="../../d1/df3/classLMS7SuiteAppFrame.html#ad380f4e547c66fcfffdec0da53fe5b3e" target="_top" xlink:title="Constructor. ">
<polygon fill="white" stroke="black" points="859,-137.5 859,-167.5 975,-167.5 975,-137.5 859,-137.5"/>
<text text-anchor="start" x="867" y="-155.5" font-family="Helvetica,sans-Serif" font-size="10.00">LMS7SuiteAppFrame::</text>
<text text-anchor="middle" x="917" y="-144.5" font-family="Helvetica,sans-Serif" font-size="10.00">LMS7SuiteAppFrame</text>
</a>
</g>
</g>
<!-- Node5&#45;&gt;Node6 -->
<g id="edge5" class="edge"><title>Node5&#45;&gt;Node6</title>
<path fill="none" stroke="midnightblue" d="M652.534,-152.5C713.285,-152.5 801.551,-152.5 858.869,-152.5"/>
<polygon fill="midnightblue" stroke="midnightblue" points="652.278,-149 642.278,-152.5 652.278,-156 652.278,-149"/>
</g>
<!-- Node5&#45;&gt;Node7 -->
<g id="edge6" class="edge"><title>Node5&#45;&gt;Node7</title>
<path fill="none" stroke="midnightblue" d="M650.782,-134.797C664.666,-131.061 679.189,-127.153 692.664,-123.526"/>
<polygon fill="midnightblue" stroke="midnightblue" points="649.557,-131.502 640.81,-137.481 651.376,-138.262 649.557,-131.502"/>
</g>
<!-- Node7&#45;&gt;Node6 -->
<g id="edge7" class="edge"><title>Node7&#45;&gt;Node6</title>
<path fill="none" stroke="midnightblue" d="M816.678,-126.094C830.855,-129.863 845.709,-133.812 859.481,-137.474"/>
<polygon fill="midnightblue" stroke="midnightblue" points="817.556,-122.706 806.993,-123.519 815.758,-129.471 817.556,-122.706"/>
</g>
<!-- Node8 -->
<g id="node8" class="node"><title>Node8</title>
<g id="a_node8"><a xlink:href="../../d1/df3/classLMS7SuiteAppFrame.html#a08626f72855857180d80ab271f481d08" target="_top" xlink:title="LMS7SuiteAppFrame::\lOnShowConnectionSettings">
<polygon fill="white" stroke="black" points="847,-88.5 847,-118.5 987,-118.5 987,-88.5 847,-88.5"/>
<text text-anchor="start" x="855" y="-106.5" font-family="Helvetica,sans-Serif" font-size="10.00">LMS7SuiteAppFrame::</text>
<text text-anchor="middle" x="917" y="-95.5" font-family="Helvetica,sans-Serif" font-size="10.00">OnShowConnectionSettings</text>
</a>
</g>
</g>
<!-- Node7&#45;&gt;Node8 -->
<g id="edge8" class="edge"><title>Node7&#45;&gt;Node8</title>
<path fill="none" stroke="midnightblue" d="M821.399,-106.358C829.86,-106.102 838.49,-105.842 846.925,-105.587"/>
<polygon fill="midnightblue" stroke="midnightblue" points="821.076,-102.866 811.186,-106.667 821.287,-109.863 821.076,-102.866"/>
</g>
<!-- Node9&#45;&gt;Node10 -->
<g id="edge11" class="edge"><title>Node9&#45;&gt;Node10</title>
<path fill="none" stroke="midnightblue" d="M488.675,-43.2909C497.799,-45.3424 507.078,-47.4287 516.078,-49.4524"/>
<polygon fill="midnightblue" stroke="midnightblue" points="489.381,-39.8622 478.856,-41.0831 487.845,-46.6917 489.381,-39.8622"/>
</g>
<!-- Node11 -->
<g id="node11" class="node"><title>Node11</title>
<g id="a_node11"><a xlink:href="../../df/d93/classpnlBoardControls.html#a1b0e1d30fd18cb7bd50f27600095f4ab" target="_top" xlink:title="pnlBoardControls::\l~pnlBoardControls">
<polygon fill="white" stroke="black" points="535,-0.5 535,-30.5 633,-30.5 633,-0.5 535,-0.5"/>
<text text-anchor="start" x="543" y="-18.5" font-family="Helvetica,sans-Serif" font-size="10.00">pnlBoardControls::</text>
<text text-anchor="middle" x="584" y="-7.5" font-family="Helvetica,sans-Serif" font-size="10.00">~pnlBoardControls</text>
</a>
</g>
</g>
<!-- Node9&#45;&gt;Node11 -->
<g id="edge12" class="edge"><title>Node9&#45;&gt;Node11</title>
<path fill="none" stroke="midnightblue" d="M489,-21.6183C504.565,-20.6052 520.566,-19.5637 534.854,-18.6338"/>
<polygon fill="midnightblue" stroke="midnightblue" points="488.608,-18.1364 478.856,-22.2786 489.063,-25.1216 488.608,-18.1364"/>
</g>
</g>
</svg>
        <g id="navigator" transform="translate(0 0)" fill="#404254">
                <rect fill="#f2f5e9" fill-opacity="0.5" stroke="#606060" stroke-width=".5" x="0" y="0" width="60" height="60"/>
                <use id="zoomplus" xlink:href="#zoomPlus" x="17" y="9" onmousedown="handleZoom(evt,'in')"/>
                <use id="zoomminus" xlink:href="#zoomMin" x="42" y="9" onmousedown="handleZoom(evt,'out')"/>
                <use id="reset" xlink:href="#resetDef" x="30" y="36" onmousedown="handleReset()"/>
                <g id="arrowUp" xlink:href="#dirArrow" transform="translate(30 24)" onmousedown="handlePan(0,-1)">
                  <use xlink:href="#rim" fill="#404040">
                        <set attributeName="fill" to="#808080" begin="arrowUp.mouseover" end="arrowUp.mouseout"/>
                  </use>
                  <path fill="none" stroke="white" stroke-width="1.5" d="M0,-3.0v7 M-2.5,-0.5L0,-3.0L2.5,-0.5"/>
                </g>
                <g id="arrowRight" xlink:href="#dirArrow" transform="rotate(90) translate(36 -43)" onmousedown="handlePan(1,0)">
                  <use xlink:href="#rim" fill="#404040">
                        <set attributeName="fill" to="#808080" begin="arrowRight.mouseover" end="arrowRight.mouseout"/>
                  </use>
                  <path fill="none" stroke="white" stroke-width="1.5" d="M0,-3.0v7 M-2.5,-0.5L0,-3.0L2.5,-0.5"/>
                </g>
                <g id="arrowDown" xlink:href="#dirArrow" transform="rotate(180) translate(-30 -48)" onmousedown="handlePan(0,1)">
                  <use xlink:href="#rim" fill="#404040">
                        <set attributeName="fill" to="#808080" begin="arrowDown.mouseover" end="arrowDown.mouseout"/>
                  </use>
                  <path fill="none" stroke="white" stroke-width="1.5" d="M0,-3.0v7 M-2.5,-0.5L0,-3.0L2.5,-0.5"/>
                </g>
                <g id="arrowLeft" xlink:href="#dirArrow" transform="rotate(270) translate(-36 17)" onmousedown="handlePan(-1,0)">
                  <use xlink:href="#rim" fill="#404040">
                        <set attributeName="fill" to="#808080" begin="arrowLeft.mouseover" end="arrowLeft.mouseout"/>
                  </use>
                  <path fill="none" stroke="white" stroke-width="1.5" d="M0,-3.0v7 M-2.5,-0.5L0,-3.0L2.5,-0.5"/>
                </g>
        </g>
        <svg viewBox="0 0 15 15" width="100%" height="30px" preserveAspectRatio="xMaxYMin meet">
         <g id="arrow_out" transform="scale(0.3 0.3)">
          <a xlink:href="classpnlLimeSDR_a7351cc86b031fbf834059fa679cc16c8_icgraph_org.svg" target="_base">
           <rect id="button" ry="5" rx="5" y="6" x="6" height="38" width="38"
                fill="#f2f5e9" fill-opacity="0.5" stroke="#606060" stroke-width="1.0"/>
           <path id="arrow"
             d="M 11.500037,31.436501 C 11.940474,20.09759 22.043105,11.32322 32.158766,21.979434 L 37.068811,17.246167 C 37.068811,17.246167 37.088388,32 37.088388,32 L 22.160133,31.978069 C 22.160133,31.978069 26.997745,27.140456 26.997745,27.140456 C 18.528582,18.264221 13.291696,25.230495 11.500037,31.436501 z"
             style="fill:#404040;"/>
          </a>
         </g>
        </svg>
</svg>
