<?xml version="1.0" encoding="UTF-8" standalone="no"?>
<!DOCTYPE svg PUBLIC "-//W3C//DTD SVG 1.1//EN"
 "http://www.w3.org/Graphics/SVG/1.1/DTD/svg11.dtd">
<!-- Generated by graphviz version 2.38.0 (20140413.2041)
 -->
<!-- Title: lime::ConnectionEVB7COMEntry Pages: 1 -->
<svg width="170pt" height="460pt"
 viewBox="0.00 0.00 170.00 460.00" xmlns="http://www.w3.org/2000/svg" xmlns:xlink="http://www.w3.org/1999/xlink">
<g id="graph0" class="graph" transform="scale(1 1) rotate(0) translate(4 456)">
<title>lime::ConnectionEVB7COMEntry</title>
<polygon fill="white" stroke="none" points="-4,4 -4,-456 166,-456 166,4 -4,4"/>
<!-- Node1 -->
<g id="node1" class="node"><title>Node1</title>
<polygon fill="#bfbfbf" stroke="black" points="0,-0.5 0,-101.5 162,-101.5 162,-0.5 0,-0.5"/>
<text text-anchor="middle" x="81" y="-89.5" font-family="Helvetica,sans-Serif" font-size="10.00">lime::ConnectionEVB7COMEntry</text>
<polyline fill="none" stroke="black" points="0,-82.5 162,-82.5 "/>
<text text-anchor="middle" x="81" y="-70.5" font-family="Helvetica,sans-Serif" font-size="10.00"> </text>
<polyline fill="none" stroke="black" points="0,-63.5 162,-63.5 "/>
<text text-anchor="start" x="8" y="-51.5" font-family="Helvetica,sans-Serif" font-size="10.00">+ ConnectionEVB7COMEntry()</text>
<text text-anchor="start" x="8" y="-40.5" font-family="Helvetica,sans-Serif" font-size="10.00">+ enumerate()</text>
<text text-anchor="start" x="8" y="-29.5" font-family="Helvetica,sans-Serif" font-size="10.00">+ make()</text>
<text text-anchor="start" x="8" y="-18.5" font-family="Helvetica,sans-Serif" font-size="10.00">&#45; FindAllComPorts()</text>
<text text-anchor="start" x="8" y="-7.5" font-family="Helvetica,sans-Serif" font-size="10.00">&#45; FilterDeviceList()</text>
</g>
<!-- Node2 -->
<g id="node2" class="node"><title>Node2</title>
<g id="a_node2"><a xlink:href="../../d2/d45/classlime_1_1ConnectionRegistryEntry.html" target="_top" xlink:title="{lime::ConnectionRegistry\lEntry\n||+ ConnectionRegistryEntry()\l+ ~ConnectionRegistryEntry()\l+ enumerate()\l+ make()\l}">
<polygon fill="white" stroke="black" points="7.5,-139.5 7.5,-240.5 154.5,-240.5 154.5,-139.5 7.5,-139.5"/>
<text text-anchor="start" x="15.5" y="-228.5" font-family="Helvetica,sans-Serif" font-size="10.00">lime::ConnectionRegistry</text>
<text text-anchor="middle" x="81" y="-217.5" font-family="Helvetica,sans-Serif" font-size="10.00">Entry</text>
<polyline fill="none" stroke="black" points="7.5,-210.5 154.5,-210.5 "/>
<text text-anchor="middle" x="81" y="-198.5" font-family="Helvetica,sans-Serif" font-size="10.00"> </text>
<polyline fill="none" stroke="black" points="7.5,-191.5 154.5,-191.5 "/>
<text text-anchor="start" x="15.5" y="-179.5" font-family="Helvetica,sans-Serif" font-size="10.00">+ ConnectionRegistryEntry()</text>
<text text-anchor="start" x="15.5" y="-168.5" font-family="Helvetica,sans-Serif" font-size="10.00">+ ~ConnectionRegistryEntry()</text>
<text text-anchor="start" x="15.5" y="-157.5" font-family="Helvetica,sans-Serif" font-size="10.00">+ enumerate()</text>
<text text-anchor="start" x="15.5" y="-146.5" font-family="Helvetica,sans-Serif" font-size="10.00">+ make()</text>
</a>
</g>
</g>
<!-- Node2&#45;&gt;Node1 -->
<g id="edge1" class="edge"><title>Node2&#45;&gt;Node1</title>
<path fill="none" stroke="midnightblue" d="M81,-128.953C81,-119.812 81,-110.466 81,-101.581"/>
<polygon fill="none" stroke="midnightblue" points="77.5001,-129.152 81,-139.152 84.5001,-129.152 77.5001,-129.152"/>
</g>
<!-- Node3 -->
<g id="node3" class="node"><title>Node3</title>
<g id="a_node3"><a xlink:title="STL class. ">
<polygon fill="white" stroke="#bfbfbf" points="51,-288.5 51,-345.5 111,-345.5 111,-288.5 51,-288.5"/>
<text text-anchor="middle" x="81" y="-333.5" font-family="Helvetica,sans-Serif" font-size="10.00">std::string</text>
<polyline fill="none" stroke="#bfbfbf" points="51,-326.5 111,-326.5 "/>
<text text-anchor="middle" x="81" y="-314.5" font-family="Helvetica,sans-Serif" font-size="10.00"> </text>
<polyline fill="none" stroke="#bfbfbf" points="51,-307.5 111,-307.5 "/>
<text text-anchor="middle" x="81" y="-295.5" font-family="Helvetica,sans-Serif" font-size="10.00"> </text>
</a>
</g>
</g>
<!-- Node3&#45;&gt;Node2 -->
<g id="edge2" class="edge"><title>Node3&#45;&gt;Node2</title>
<path fill="none" stroke="#404040" d="M81,-288.258C81,-277.793 81,-265.422 81,-253.072"/>
<polygon fill="none" stroke="#404040" points="81.0001,-252.802 77,-246.802 81,-240.802 85,-246.802 81.0001,-252.802"/>
<text text-anchor="middle" x="99" y="-262" font-family="Helvetica,sans-Serif" font-size="10.00"> &#45;_name</text>
</g>
<!-- Node4 -->
<g id="node4" class="node"><title>Node4</title>
<g id="a_node4"><a xlink:title="STL class. ">
<polygon fill="white" stroke="#bfbfbf" points="33.5,-383.5 33.5,-451.5 128.5,-451.5 128.5,-383.5 33.5,-383.5"/>
<text text-anchor="start" x="41.5" y="-439.5" font-family="Helvetica,sans-Serif" font-size="10.00">std::basic_string&lt;</text>
<text text-anchor="middle" x="81" y="-428.5" font-family="Helvetica,sans-Serif" font-size="10.00"> char &gt;</text>
<polyline fill="none" stroke="#bfbfbf" points="33.5,-421.5 128.5,-421.5 "/>
<text text-anchor="middle" x="81" y="-409.5" font-family="Helvetica,sans-Serif" font-size="10.00"> </text>
<polyline fill="none" stroke="#bfbfbf" points="33.5,-402.5 128.5,-402.5 "/>
<text text-anchor="middle" x="81" y="-390.5" font-family="Helvetica,sans-Serif" font-size="10.00"> </text>
</a>
</g>
</g>
<!-- Node4&#45;&gt;Node3 -->
<g id="edge3" class="edge"><title>Node4&#45;&gt;Node3</title>
<path fill="none" stroke="midnightblue" d="M81,-373.375C81,-363.94 81,-354.201 81,-345.571"/>
<polygon fill="none" stroke="midnightblue" points="77.5001,-373.427 81,-383.427 84.5001,-373.427 77.5001,-373.427"/>
</g>
</g>
</svg>
