<?xml version="1.0" encoding="UTF-8" standalone="no"?>
<!DOCTYPE svg PUBLIC "-//W3C//DTD SVG 1.1//EN"
 "http://www.w3.org/Graphics/SVG/1.1/DTD/svg11.dtd">
<!-- Generated by graphviz version 2.38.0 (20140413.2041)
 -->
<!-- Title: trim Pages: 1 -->
<svg width="299pt" height="39pt"
 viewBox="0.00 0.00 299.00 39.00" xmlns="http://www.w3.org/2000/svg" xmlns:xlink="http://www.w3.org/1999/xlink">
<g id="graph0" class="graph" transform="scale(1 1) rotate(0) translate(4 35)">
<title>trim</title>
<polygon fill="white" stroke="none" points="-4,4 -4,-35 295,-35 295,4 -4,4"/>
<!-- Node1 -->
<g id="node1" class="node"><title>Node1</title>
<polygon fill="#bfbfbf" stroke="black" points="0,-6 0,-25 33,-25 33,-6 0,-6"/>
<text text-anchor="middle" x="16.5" y="-13" font-family="Helvetica,sans-Serif" font-size="10.00">trim</text>
</g>
<!-- Node2 -->
<g id="node2" class="node"><title>Node2</title>
<g id="a_node2"><a xlink:href="../../d0/d17/ConnectionHandle_8cpp.html#a9502a4ee1a658794e7806f22d5508449" target="_top" xlink:title="argsToMap">
<polygon fill="white" stroke="black" points="69,-6 69,-25 134,-25 134,-6 69,-6"/>
<text text-anchor="middle" x="101.5" y="-13" font-family="Helvetica,sans-Serif" font-size="10.00">argsToMap</text>
</a>
</g>
</g>
<!-- Node1&#45;&gt;Node2 -->
<g id="edge1" class="edge"><title>Node1&#45;&gt;Node2</title>
<path fill="none" stroke="midnightblue" d="M43.3811,-15.5C51.4318,-15.5 60.4006,-15.5 68.8012,-15.5"/>
<polygon fill="midnightblue" stroke="midnightblue" points="43.1117,-12.0001 33.1117,-15.5 43.1116,-19.0001 43.1117,-12.0001"/>
</g>
<!-- Node3 -->
<g id="node3" class="node"><title>Node3</title>
<g id="a_node3"><a xlink:href="../../d6/d37/classlime_1_1ConnectionHandle.html#a95178037aa0ec3142211877635f384a2" target="_top" xlink:title="Create from serialized string with key=value pairs. ">
<polygon fill="white" stroke="black" points="170,-0.5 170,-30.5 291,-30.5 291,-0.5 170,-0.5"/>
<text text-anchor="start" x="178" y="-18.5" font-family="Helvetica,sans-Serif" font-size="10.00">lime::ConnectionHandle</text>
<text text-anchor="middle" x="230.5" y="-7.5" font-family="Helvetica,sans-Serif" font-size="10.00">::ConnectionHandle</text>
</a>
</g>
</g>
<!-- Node2&#45;&gt;Node3 -->
<g id="edge2" class="edge"><title>Node2&#45;&gt;Node3</title>
<path fill="none" stroke="midnightblue" d="M144.298,-15.5C152.526,-15.5 161.307,-15.5 169.989,-15.5"/>
<polygon fill="midnightblue" stroke="midnightblue" points="144.22,-12.0001 134.22,-15.5 144.22,-19.0001 144.22,-12.0001"/>
</g>
</g>
</svg>
