<?xml version="1.0" encoding="UTF-8" standalone="no"?>
<!DOCTYPE svg PUBLIC "-//W3C//DTD SVG 1.1//EN"
 "http://www.w3.org/Graphics/SVG/1.1/DTD/svg11.dtd">
<!-- Generated by graphviz version 2.38.0 (20140413.2041)
 -->
<!-- Title: /home/erik/prefix/default/src/limesuite&#45;dev/src/lms7002_wxgui/lms7002_wxgui.h Pages: 1 -->
<!--zoomable 106 -->
<svg id="main" version="1.1" xmlns="http://www.w3.org/2000/svg" xmlns:xlink="http://www.w3.org/1999/xlink" xml:space="preserve" onload="init(evt)">
<style type="text/css"><![CDATA[
.edge:hover path { stroke: red; }
.edge:hover polygon { stroke: red; fill: red; }
]]></style>
<script type="text/javascript"><![CDATA[
var edges = document.getElementsByTagName('g');
if (edges && edges.length) {
  for (var i=0;i<edges.length;i++) {
    if (edges[i].id.substr(0,4)=='edge') {
      edges[i].setAttribute('class','edge');
    }
  }
}
]]></script>
        <defs>
                <circle id="rim" cx="0" cy="0" r="7"/>
                <circle id="rim2" cx="0" cy="0" r="3.5"/>
                <g id="zoomPlus">
                        <use xlink:href="#rim" fill="#404040">
                                <set attributeName="fill" to="#808080" begin="zoomplus.mouseover" end="zoomplus.mouseout"/>
                        </use>
                        <path d="M-4,0h8M0,-4v8" fill="none" stroke="white" stroke-width="1.5" pointer-events="none"/>
                </g>
                <g id="zoomMin">
                        <use xlink:href="#rim" fill="#404040">
                                <set attributeName="fill" to="#808080" begin="zoomminus.mouseover" end="zoomminus.mouseout"/>
                        </use>
                        <path d="M-4,0h8" fill="none" stroke="white" stroke-width="1.5" pointer-events="none"/>
                </g>
                <g id="dirArrow">
                        <path fill="none" stroke="white" stroke-width="1.5" d="M0,-3.0v7 M-2.5,-0.5L0,-3.0L2.5,-0.5"/>
                </g>
               <g id="resetDef">
                       <use xlink:href="#rim2" fill="#404040">
                               <set attributeName="fill" to="#808080" begin="reset.mouseover" end="reset.mouseout"/>
                       </use>
               </g>
        </defs>

<script type="text/javascript">
var viewWidth = 2297;
var viewHeight = 106;
var sectionId = 'dynsection-0';
</script>
<script xlink:href="../../svgpan.js"/>
<svg id="graph" class="graph">
<g id="viewport">
<title>/home/erik/prefix/default/src/limesuite&#45;dev/src/lms7002_wxgui/lms7002_wxgui.h</title>
<polygon fill="white" stroke="none" points="-4,4 -4,-102 2292.5,-102 2292.5,4 -4,4"/>
<!-- Node1 -->
<g id="node1" class="node"><title>Node1</title>
<polygon fill="#bfbfbf" stroke="black" points="1083.5,-56.5 1083.5,-97.5 1249.5,-97.5 1249.5,-56.5 1083.5,-56.5"/>
<text text-anchor="start" x="1091.5" y="-85.5" font-family="Helvetica,sans-Serif" font-size="10.00">/home/erik/prefix/default</text>
<text text-anchor="start" x="1091.5" y="-74.5" font-family="Helvetica,sans-Serif" font-size="10.00">/src/limesuite&#45;dev/src</text>
<text text-anchor="middle" x="1166.5" y="-63.5" font-family="Helvetica,sans-Serif" font-size="10.00">/lms7002_wxgui/lms7002_wxgui.h</text>
</g>
<!-- Node2 -->
<g id="node2" class="node"><title>Node2</title>
<polygon fill="white" stroke="#bfbfbf" points="0,-0.5 0,-19.5 71,-19.5 71,-0.5 0,-0.5"/>
<text text-anchor="middle" x="35.5" y="-7.5" font-family="Helvetica,sans-Serif" font-size="10.00">wx/artprov.h</text>
</g>
<!-- Node1&#45;&gt;Node2 -->
<g id="edge1" class="edge"><title>Node1&#45;&gt;Node2</title>
<path fill="none" stroke="midnightblue" d="M1083.37,-75.8368C902.647,-74.588 460.45,-66.6904 81.3536,-19.9002"/>
<polygon fill="midnightblue" stroke="midnightblue" points="81.6403,-16.409 71.2844,-18.6464 80.7752,-23.3553 81.6403,-16.409"/>
</g>
<!-- Node3 -->
<g id="node3" class="node"><title>Node3</title>
<polygon fill="white" stroke="#bfbfbf" points="89.5,-0.5 89.5,-19.5 175.5,-19.5 175.5,-0.5 89.5,-0.5"/>
<text text-anchor="middle" x="132.5" y="-7.5" font-family="Helvetica,sans-Serif" font-size="10.00">wx/xrc/xmlres.h</text>
</g>
<!-- Node1&#45;&gt;Node3 -->
<g id="edge2" class="edge"><title>Node1&#45;&gt;Node3</title>
<path fill="none" stroke="midnightblue" d="M1083.46,-74.4678C915.618,-70.6727 523.916,-58.2779 185.57,-19.9866"/>
<polygon fill="midnightblue" stroke="midnightblue" points="185.908,-16.5025 175.575,-18.8461 185.114,-23.4574 185.908,-16.5025"/>
</g>
<!-- Node4 -->
<g id="node4" class="node"><title>Node4</title>
<polygon fill="white" stroke="#bfbfbf" points="194,-0.5 194,-19.5 259,-19.5 259,-0.5 194,-0.5"/>
<text text-anchor="middle" x="226.5" y="-7.5" font-family="Helvetica,sans-Serif" font-size="10.00">wx/string.h</text>
</g>
<!-- Node1&#45;&gt;Node4 -->
<g id="edge3" class="edge"><title>Node1&#45;&gt;Node4</title>
<path fill="none" stroke="midnightblue" d="M1083.45,-74.9414C926.213,-72.0367 574.251,-61.2354 269.349,-19.8988"/>
<polygon fill="midnightblue" stroke="midnightblue" points="269.815,-16.4302 259.433,-18.5414 268.866,-23.3655 269.815,-16.4302"/>
</g>
<!-- Node5 -->
<g id="node5" class="node"><title>Node5</title>
<polygon fill="white" stroke="#bfbfbf" points="277.5,-0.5 277.5,-19.5 345.5,-19.5 345.5,-0.5 277.5,-0.5"/>
<text text-anchor="middle" x="311.5" y="-7.5" font-family="Helvetica,sans-Serif" font-size="10.00">wx/button.h</text>
</g>
<!-- Node1&#45;&gt;Node5 -->
<g id="edge4" class="edge"><title>Node1&#45;&gt;Node5</title>
<path fill="none" stroke="midnightblue" d="M1083.41,-74.0361C937.78,-69.7671 626.929,-56.9722 355.729,-19.9817"/>
<polygon fill="midnightblue" stroke="midnightblue" points="356.077,-16.4967 345.693,-18.5992 355.122,-23.4312 356.077,-16.4967"/>
</g>
<!-- Node6 -->
<g id="node6" class="node"><title>Node6</title>
<polygon fill="white" stroke="#bfbfbf" points="363.5,-0.5 363.5,-19.5 435.5,-19.5 435.5,-0.5 363.5,-0.5"/>
<text text-anchor="middle" x="399.5" y="-7.5" font-family="Helvetica,sans-Serif" font-size="10.00">wx/gdicmn.h</text>
</g>
<!-- Node1&#45;&gt;Node6 -->
<g id="edge5" class="edge"><title>Node1&#45;&gt;Node6</title>
<path fill="none" stroke="midnightblue" d="M1083.32,-72.7943C950.516,-66.9591 682.318,-52.2392 445.951,-20.0439"/>
<polygon fill="midnightblue" stroke="midnightblue" points="446.169,-16.5411 435.786,-18.6457 445.216,-23.4758 446.169,-16.5411"/>
</g>
<!-- Node7 -->
<g id="node7" class="node"><title>Node7</title>
<polygon fill="white" stroke="#bfbfbf" points="454,-0.5 454,-19.5 511,-19.5 511,-0.5 454,-0.5"/>
<text text-anchor="middle" x="482.5" y="-7.5" font-family="Helvetica,sans-Serif" font-size="10.00">wx/font.h</text>
</g>
<!-- Node1&#45;&gt;Node7 -->
<g id="edge6" class="edge"><title>Node1&#45;&gt;Node7</title>
<path fill="none" stroke="midnightblue" d="M1083.27,-72.8504C961.596,-67.3469 728.008,-53.3791 521.232,-20.0636"/>
<polygon fill="midnightblue" stroke="midnightblue" points="521.528,-16.5657 511.095,-18.4112 520.402,-23.4745 521.528,-16.5657"/>
</g>
<!-- Node8 -->
<g id="node8" class="node"><title>Node8</title>
<polygon fill="white" stroke="#bfbfbf" points="529,-0.5 529,-19.5 596,-19.5 596,-0.5 529,-0.5"/>
<text text-anchor="middle" x="562.5" y="-7.5" font-family="Helvetica,sans-Serif" font-size="10.00">wx/colour.h</text>
</g>
<!-- Node1&#45;&gt;Node8 -->
<g id="edge7" class="edge"><title>Node1&#45;&gt;Node8</title>
<path fill="none" stroke="midnightblue" d="M1083.29,-70.6287C975.3,-63.0044 780.926,-47.0554 606.251,-20.1353"/>
<polygon fill="midnightblue" stroke="midnightblue" points="606.785,-16.6764 596.365,-18.5967 605.708,-23.5931 606.785,-16.6764"/>
</g>
<!-- Node9 -->
<g id="node9" class="node"><title>Node9</title>
<polygon fill="white" stroke="#bfbfbf" points="614,-0.5 614,-19.5 689,-19.5 689,-0.5 614,-0.5"/>
<text text-anchor="middle" x="651.5" y="-7.5" font-family="Helvetica,sans-Serif" font-size="10.00">wx/settings.h</text>
</g>
<!-- Node1&#45;&gt;Node9 -->
<g id="edge8" class="edge"><title>Node1&#45;&gt;Node9</title>
<path fill="none" stroke="midnightblue" d="M1083.41,-67.8356C991.856,-58.4362 840.048,-41.6651 699.285,-20.0209"/>
<polygon fill="midnightblue" stroke="midnightblue" points="699.588,-16.5262 689.17,-18.4542 698.516,-23.4437 699.588,-16.5262"/>
</g>
<!-- Node10 -->
<g id="node10" class="node"><title>Node10</title>
<polygon fill="white" stroke="#bfbfbf" points="707.5,-0.5 707.5,-19.5 793.5,-19.5 793.5,-0.5 707.5,-0.5"/>
<text text-anchor="middle" x="750.5" y="-7.5" font-family="Helvetica,sans-Serif" font-size="10.00">wx/combobox.h</text>
</g>
<!-- Node1&#45;&gt;Node10 -->
<g id="edge9" class="edge"><title>Node1&#45;&gt;Node10</title>
<path fill="none" stroke="midnightblue" d="M1083.3,-63.6535C1011.86,-52.9466 905.828,-36.809 803.798,-20.1888"/>
<polygon fill="midnightblue" stroke="midnightblue" points="804.053,-16.6842 793.62,-18.527 802.925,-23.5927 804.053,-16.6842"/>
</g>
<!-- Node11 -->
<g id="node11" class="node"><title>Node11</title>
<polygon fill="white" stroke="#bfbfbf" points="812,-0.5 812,-19.5 887,-19.5 887,-0.5 812,-0.5"/>
<text text-anchor="middle" x="849.5" y="-7.5" font-family="Helvetica,sans-Serif" font-size="10.00">wx/radiobut.h</text>
</g>
<!-- Node1&#45;&gt;Node11 -->
<g id="edge10" class="edge"><title>Node1&#45;&gt;Node11</title>
<path fill="none" stroke="midnightblue" d="M1083.21,-58.922C1023.96,-46.7718 946.443,-30.8779 897.296,-20.8004"/>
<polygon fill="midnightblue" stroke="midnightblue" points="897.755,-17.3218 887.256,-18.7417 896.349,-24.1792 897.755,-17.3218"/>
</g>
<!-- Node12 -->
<g id="node12" class="node"><title>Node12</title>
<polygon fill="white" stroke="#bfbfbf" points="905,-0.5 905,-19.5 988,-19.5 988,-0.5 905,-0.5"/>
<text text-anchor="middle" x="946.5" y="-7.5" font-family="Helvetica,sans-Serif" font-size="10.00">wx/checkbox.h</text>
</g>
<!-- Node1&#45;&gt;Node12 -->
<g id="edge11" class="edge"><title>Node1&#45;&gt;Node12</title>
<path fill="none" stroke="midnightblue" d="M1100.49,-56.4979C1062.92,-45.3964 1017.15,-31.8725 985.313,-22.4676"/>
<polygon fill="midnightblue" stroke="midnightblue" points="986.078,-19.044 975.496,-19.5671 984.095,-25.7572 986.078,-19.044"/>
</g>
<!-- Node13 -->
<g id="node13" class="node"><title>Node13</title>
<polygon fill="white" stroke="#bfbfbf" points="1006.5,-0.5 1006.5,-19.5 1068.5,-19.5 1068.5,-0.5 1006.5,-0.5"/>
<text text-anchor="middle" x="1037.5" y="-7.5" font-family="Helvetica,sans-Serif" font-size="10.00">wx/sizer.h</text>
</g>
<!-- Node1&#45;&gt;Node13 -->
<g id="edge12" class="edge"><title>Node1&#45;&gt;Node13</title>
<path fill="none" stroke="midnightblue" d="M1127.8,-56.4979C1107.07,-46.053 1082.08,-33.4638 1063.65,-24.1782"/>
<polygon fill="midnightblue" stroke="midnightblue" points="1065.18,-21.0267 1054.67,-19.6525 1062.03,-27.278 1065.18,-21.0267"/>
</g>
<!-- Node14 -->
<g id="node14" class="node"><title>Node14</title>
<polygon fill="white" stroke="#bfbfbf" points="1086.5,-0.5 1086.5,-19.5 1160.5,-19.5 1160.5,-0.5 1086.5,-0.5"/>
<text text-anchor="middle" x="1123.5" y="-7.5" font-family="Helvetica,sans-Serif" font-size="10.00">wx/stattext.h</text>
</g>
<!-- Node1&#45;&gt;Node14 -->
<g id="edge13" class="edge"><title>Node1&#45;&gt;Node14</title>
<path fill="none" stroke="midnightblue" d="M1153.6,-56.4979C1147.64,-47.4904 1140.63,-36.8881 1134.87,-28.1852"/>
<polygon fill="midnightblue" stroke="midnightblue" points="1137.66,-26.0616 1129.22,-19.6525 1131.82,-29.9238 1137.66,-26.0616"/>
</g>
<!-- Node15 -->
<g id="node15" class="node"><title>Node15</title>
<polygon fill="white" stroke="#bfbfbf" points="1178.5,-0.5 1178.5,-19.5 1242.5,-19.5 1242.5,-0.5 1178.5,-0.5"/>
<text text-anchor="middle" x="1210.5" y="-7.5" font-family="Helvetica,sans-Serif" font-size="10.00">wx/panel.h</text>
</g>
<!-- Node1&#45;&gt;Node15 -->
<g id="edge14" class="edge"><title>Node1&#45;&gt;Node15</title>
<path fill="none" stroke="midnightblue" d="M1179.7,-56.4979C1185.8,-47.4904 1192.98,-36.8881 1198.87,-28.1852"/>
<polygon fill="midnightblue" stroke="midnightblue" points="1201.94,-29.8956 1204.64,-19.6525 1196.14,-25.9716 1201.94,-29.8956"/>
</g>
<!-- Node16 -->
<g id="node16" class="node"><title>Node16</title>
<polygon fill="white" stroke="#bfbfbf" points="1260.5,-0.5 1260.5,-19.5 1330.5,-19.5 1330.5,-0.5 1260.5,-0.5"/>
<text text-anchor="middle" x="1295.5" y="-7.5" font-family="Helvetica,sans-Serif" font-size="10.00">wx/bitmap.h</text>
</g>
<!-- Node1&#45;&gt;Node16 -->
<g id="edge15" class="edge"><title>Node1&#45;&gt;Node16</title>
<path fill="none" stroke="midnightblue" d="M1205.2,-56.4979C1225.93,-46.053 1250.92,-33.4638 1269.35,-24.1782"/>
<polygon fill="midnightblue" stroke="midnightblue" points="1270.97,-27.278 1278.33,-19.6525 1267.82,-21.0267 1270.97,-27.278"/>
</g>
<!-- Node17 -->
<g id="node17" class="node"><title>Node17</title>
<polygon fill="white" stroke="#bfbfbf" points="1349,-0.5 1349,-19.5 1416,-19.5 1416,-0.5 1349,-0.5"/>
<text text-anchor="middle" x="1382.5" y="-7.5" font-family="Helvetica,sans-Serif" font-size="10.00">wx/image.h</text>
</g>
<!-- Node1&#45;&gt;Node17 -->
<g id="edge16" class="edge"><title>Node1&#45;&gt;Node17</title>
<path fill="none" stroke="midnightblue" d="M1231.31,-56.4979C1268.2,-45.3964 1313.14,-31.8725 1344.39,-22.4676"/>
<polygon fill="midnightblue" stroke="midnightblue" points="1345.46,-25.8003 1354.03,-19.5671 1343.45,-19.0972 1345.46,-25.8003"/>
</g>
<!-- Node18 -->
<g id="node18" class="node"><title>Node18</title>
<polygon fill="white" stroke="#bfbfbf" points="1434,-0.5 1434,-19.5 1493,-19.5 1493,-0.5 1434,-0.5"/>
<text text-anchor="middle" x="1463.5" y="-7.5" font-family="Helvetica,sans-Serif" font-size="10.00">wx/icon.h</text>
</g>
<!-- Node1&#45;&gt;Node18 -->
<g id="edge17" class="edge"><title>Node1&#45;&gt;Node18</title>
<path fill="none" stroke="midnightblue" d="M1249.7,-58.4445C1298.05,-48.1394 1360.4,-34.6783 1423.86,-20.3441"/>
<polygon fill="midnightblue" stroke="midnightblue" points="1424.66,-23.7516 1433.64,-18.13 1423.12,-16.9243 1424.66,-23.7516"/>
</g>
<!-- Node19 -->
<g id="node19" class="node"><title>Node19</title>
<polygon fill="white" stroke="#bfbfbf" points="1511.5,-0.5 1511.5,-19.5 1591.5,-19.5 1591.5,-0.5 1511.5,-0.5"/>
<text text-anchor="middle" x="1551.5" y="-7.5" font-family="Helvetica,sans-Serif" font-size="10.00">wx/notebook.h</text>
</g>
<!-- Node1&#45;&gt;Node19 -->
<g id="edge18" class="edge"><title>Node1&#45;&gt;Node19</title>
<path fill="none" stroke="midnightblue" d="M1249.76,-62.5155C1315.4,-51.7934 1409.54,-36.2167 1501.37,-20.1763"/>
<polygon fill="midnightblue" stroke="midnightblue" points="1502.15,-23.5929 1511.4,-18.4213 1500.94,-16.6977 1502.15,-23.5929"/>
</g>
<!-- Node20 -->
<g id="node20" class="node"><title>Node20</title>
<polygon fill="white" stroke="#bfbfbf" points="1610,-0.5 1610,-19.5 1683,-19.5 1683,-0.5 1610,-0.5"/>
<text text-anchor="middle" x="1646.5" y="-7.5" font-family="Helvetica,sans-Serif" font-size="10.00">wx/statbox.h</text>
</g>
<!-- Node1&#45;&gt;Node20 -->
<g id="edge19" class="edge"><title>Node1&#45;&gt;Node20</title>
<path fill="none" stroke="midnightblue" d="M1249.53,-66.9087C1334.83,-57.1994 1471.66,-40.6011 1599.88,-20.0049"/>
<polygon fill="midnightblue" stroke="midnightblue" points="1600.57,-23.439 1609.88,-18.3871 1599.45,-16.5288 1600.57,-23.439"/>
</g>
<!-- Node21 -->
<g id="node21" class="node"><title>Node21</title>
<polygon fill="white" stroke="#bfbfbf" points="1701.5,-0.5 1701.5,-19.5 1773.5,-19.5 1773.5,-0.5 1701.5,-0.5"/>
<text text-anchor="middle" x="1737.5" y="-7.5" font-family="Helvetica,sans-Serif" font-size="10.00">wx/spinctrl.h</text>
</g>
<!-- Node1&#45;&gt;Node21 -->
<g id="edge20" class="edge"><title>Node1&#45;&gt;Node21</title>
<path fill="none" stroke="midnightblue" d="M1249.71,-69.5049C1351.52,-61.0255 1529.33,-44.501 1691.06,-20.0987"/>
<polygon fill="midnightblue" stroke="midnightblue" points="1691.84,-23.5208 1701.2,-18.5556 1690.79,-16.6005 1691.84,-23.5208"/>
</g>
<!-- Node22 -->
<g id="node22" class="node"><title>Node22</title>
<polygon fill="white" stroke="#bfbfbf" points="1792,-0.5 1792,-19.5 1869,-19.5 1869,-0.5 1792,-0.5"/>
<text text-anchor="middle" x="1830.5" y="-7.5" font-family="Helvetica,sans-Serif" font-size="10.00">wx/radiobox.h</text>
</g>
<!-- Node1&#45;&gt;Node22 -->
<g id="edge21" class="edge"><title>Node1&#45;&gt;Node22</title>
<path fill="none" stroke="midnightblue" d="M1249.98,-70.9279C1366.72,-63.2738 1585.49,-46.8879 1781.85,-19.9587"/>
<polygon fill="midnightblue" stroke="midnightblue" points="1782.35,-23.4231 1791.78,-18.5858 1781.39,-16.4891 1782.35,-23.4231"/>
</g>
<!-- Node23 -->
<g id="node23" class="node"><title>Node23</title>
<polygon fill="white" stroke="#bfbfbf" points="1887,-0.5 1887,-19.5 1958,-19.5 1958,-0.5 1887,-0.5"/>
<text text-anchor="middle" x="1922.5" y="-7.5" font-family="Helvetica,sans-Serif" font-size="10.00">wx/textctrl.h</text>
</g>
<!-- Node1&#45;&gt;Node23 -->
<g id="edge22" class="edge"><title>Node1&#45;&gt;Node23</title>
<path fill="none" stroke="midnightblue" d="M1249.63,-72.7884C1380.99,-66.9778 1644.68,-52.3307 1876.57,-20.1291"/>
<polygon fill="midnightblue" stroke="midnightblue" points="1877.13,-23.5855 1886.54,-18.7306 1876.16,-16.6534 1877.13,-23.5855"/>
</g>
<!-- Node24 -->
<g id="node24" class="node"><title>Node24</title>
<polygon fill="white" stroke="#bfbfbf" points="1976,-0.5 1976,-19.5 2045,-19.5 2045,-0.5 1976,-0.5"/>
<text text-anchor="middle" x="2010.5" y="-7.5" font-family="Helvetica,sans-Serif" font-size="10.00">wx/choice.h</text>
</g>
<!-- Node1&#45;&gt;Node24 -->
<g id="edge23" class="edge"><title>Node1&#45;&gt;Node24</title>
<path fill="none" stroke="midnightblue" d="M1249.62,-73.9248C1393.7,-69.5071 1699.17,-56.5229 1965.58,-20.0958"/>
<polygon fill="midnightblue" stroke="midnightblue" points="1966.41,-23.5144 1975.84,-18.6789 1965.45,-16.5803 1966.41,-23.5144"/>
</g>
<!-- Node25 -->
<g id="node25" class="node"><title>Node25</title>
<polygon fill="white" stroke="#bfbfbf" points="2063,-0.5 2063,-19.5 2130,-19.5 2130,-0.5 2063,-0.5"/>
<text text-anchor="middle" x="2096.5" y="-7.5" font-family="Helvetica,sans-Serif" font-size="10.00">wx/gauge.h</text>
</g>
<!-- Node1&#45;&gt;Node25 -->
<g id="edge24" class="edge"><title>Node1&#45;&gt;Node25</title>
<path fill="none" stroke="midnightblue" d="M1249.55,-74.8588C1405.41,-71.8219 1752.4,-60.82 2052.45,-20.1025"/>
<polygon fill="midnightblue" stroke="midnightblue" points="2053.22,-23.5294 2062.65,-18.7036 2052.27,-16.5942 2053.22,-23.5294"/>
</g>
<!-- Node26 -->
<g id="node26" class="node"><title>Node26</title>
<polygon fill="white" stroke="#bfbfbf" points="2148.5,-0.5 2148.5,-19.5 2204.5,-19.5 2204.5,-0.5 2148.5,-0.5"/>
<text text-anchor="middle" x="2176.5" y="-7.5" font-family="Helvetica,sans-Serif" font-size="10.00">wx/grid.h</text>
</g>
<!-- Node1&#45;&gt;Node26 -->
<g id="edge25" class="edge"><title>Node1&#45;&gt;Node26</title>
<path fill="none" stroke="midnightblue" d="M1249.67,-76.269C1416.69,-75.7102 1804.68,-68.8749 2137.98,-19.9454"/>
<polygon fill="midnightblue" stroke="midnightblue" points="2138.94,-23.3409 2148.32,-18.411 2137.92,-16.4167 2138.94,-23.3409"/>
</g>
<!-- Node27 -->
<g id="node27" class="node"><title>Node27</title>
<polygon fill="white" stroke="#bfbfbf" points="2222.5,-0.5 2222.5,-19.5 2288.5,-19.5 2288.5,-0.5 2222.5,-0.5"/>
<text text-anchor="middle" x="2255.5" y="-7.5" font-family="Helvetica,sans-Serif" font-size="10.00">wx/dialog.h</text>
</g>
<!-- Node1&#45;&gt;Node27 -->
<g id="edge26" class="edge"><title>Node1&#45;&gt;Node27</title>
<path fill="none" stroke="midnightblue" d="M1249.71,-75.9911C1425.82,-75.0085 1849.18,-67.5521 2211.94,-19.9975"/>
<polygon fill="midnightblue" stroke="midnightblue" points="2212.66,-23.4328 2222.11,-18.651 2211.74,-16.4933 2212.66,-23.4328"/>
</g>
</g>
</svg>
        <g id="navigator" transform="translate(0 0)" fill="#404254">
                <rect fill="#f2f5e9" fill-opacity="0.5" stroke="#606060" stroke-width=".5" x="0" y="0" width="60" height="60"/>
                <use id="zoomplus" xlink:href="#zoomPlus" x="17" y="9" onmousedown="handleZoom(evt,'in')"/>
                <use id="zoomminus" xlink:href="#zoomMin" x="42" y="9" onmousedown="handleZoom(evt,'out')"/>
                <use id="reset" xlink:href="#resetDef" x="30" y="36" onmousedown="handleReset()"/>
                <g id="arrowUp" xlink:href="#dirArrow" transform="translate(30 24)" onmousedown="handlePan(0,-1)">
                  <use xlink:href="#rim" fill="#404040">
                        <set attributeName="fill" to="#808080" begin="arrowUp.mouseover" end="arrowUp.mouseout"/>
                  </use>
                  <path fill="none" stroke="white" stroke-width="1.5" d="M0,-3.0v7 M-2.5,-0.5L0,-3.0L2.5,-0.5"/>
                </g>
                <g id="arrowRight" xlink:href="#dirArrow" transform="rotate(90) translate(36 -43)" onmousedown="handlePan(1,0)">
                  <use xlink:href="#rim" fill="#404040">
                        <set attributeName="fill" to="#808080" begin="arrowRight.mouseover" end="arrowRight.mouseout"/>
                  </use>
                  <path fill="none" stroke="white" stroke-width="1.5" d="M0,-3.0v7 M-2.5,-0.5L0,-3.0L2.5,-0.5"/>
                </g>
                <g id="arrowDown" xlink:href="#dirArrow" transform="rotate(180) translate(-30 -48)" onmousedown="handlePan(0,1)">
                  <use xlink:href="#rim" fill="#404040">
                        <set attributeName="fill" to="#808080" begin="arrowDown.mouseover" end="arrowDown.mouseout"/>
                  </use>
                  <path fill="none" stroke="white" stroke-width="1.5" d="M0,-3.0v7 M-2.5,-0.5L0,-3.0L2.5,-0.5"/>
                </g>
                <g id="arrowLeft" xlink:href="#dirArrow" transform="rotate(270) translate(-36 17)" onmousedown="handlePan(-1,0)">
                  <use xlink:href="#rim" fill="#404040">
                        <set attributeName="fill" to="#808080" begin="arrowLeft.mouseover" end="arrowLeft.mouseout"/>
                  </use>
                  <path fill="none" stroke="white" stroke-width="1.5" d="M0,-3.0v7 M-2.5,-0.5L0,-3.0L2.5,-0.5"/>
                </g>
        </g>
        <svg viewBox="0 0 15 15" width="100%" height="30px" preserveAspectRatio="xMaxYMin meet">
         <g id="arrow_out" transform="scale(0.3 0.3)">
          <a xlink:href="lms7002__wxgui_8h__incl_org.svg" target="_base">
           <rect id="button" ry="5" rx="5" y="6" x="6" height="38" width="38"
                fill="#f2f5e9" fill-opacity="0.5" stroke="#606060" stroke-width="1.0"/>
           <path id="arrow"
             d="M 11.500037,31.436501 C 11.940474,20.09759 22.043105,11.32322 32.158766,21.979434 L 37.068811,17.246167 C 37.068811,17.246167 37.088388,32 37.088388,32 L 22.160133,31.978069 C 22.160133,31.978069 26.997745,27.140456 26.997745,27.140456 C 18.528582,18.264221 13.291696,25.230495 11.500037,31.436501 z"
             style="fill:#404040;"/>
          </a>
         </g>
        </svg>
</svg>
