<?xml version="1.0" encoding="UTF-8" standalone="no"?>
<!DOCTYPE svg PUBLIC "-//W3C//DTD SVG 1.1//EN"
 "http://www.w3.org/Graphics/SVG/1.1/DTD/svg11.dtd">
<!-- Generated by graphviz version 2.38.0 (20140413.2041)
 -->
<!-- Title: /home/erik/prefix/default/src/limesuite&#45;dev/src/lms7002m/LMS7002M_RegistersMap.h Pages: 1 -->
<svg width="199pt" height="106pt"
 viewBox="0.00 0.00 199.00 106.00" xmlns="http://www.w3.org/2000/svg" xmlns:xlink="http://www.w3.org/1999/xlink">
<g id="graph0" class="graph" transform="scale(1 1) rotate(0) translate(4 102)">
<title>/home/erik/prefix/default/src/limesuite&#45;dev/src/lms7002m/LMS7002M_RegistersMap.h</title>
<polygon fill="white" stroke="none" points="-4,4 -4,-102 195,-102 195,4 -4,4"/>
<!-- Node1 -->
<g id="node1" class="node"><title>Node1</title>
<polygon fill="#bfbfbf" stroke="black" points="0,-56.5 0,-97.5 191,-97.5 191,-56.5 0,-56.5"/>
<text text-anchor="start" x="8" y="-85.5" font-family="Helvetica,sans-Serif" font-size="10.00">/home/erik/prefix/default</text>
<text text-anchor="start" x="8" y="-74.5" font-family="Helvetica,sans-Serif" font-size="10.00">/src/limesuite&#45;dev/src</text>
<text text-anchor="middle" x="95.5" y="-63.5" font-family="Helvetica,sans-Serif" font-size="10.00">/lms7002m/LMS7002M_RegistersMap.h</text>
</g>
<!-- Node2 -->
<g id="node2" class="node"><title>Node2</title>
<polygon fill="white" stroke="#bfbfbf" points="15.5,-0.5 15.5,-19.5 59.5,-19.5 59.5,-0.5 15.5,-0.5"/>
<text text-anchor="middle" x="37.5" y="-7.5" font-family="Helvetica,sans-Serif" font-size="10.00">vector</text>
</g>
<!-- Node1&#45;&gt;Node2 -->
<g id="edge1" class="edge"><title>Node1&#45;&gt;Node2</title>
<path fill="none" stroke="midnightblue" d="M78.0981,-56.4979C69.8041,-47.2029 59.9948,-36.2097 52.0962,-27.3579"/>
<polygon fill="midnightblue" stroke="midnightblue" points="54.4901,-24.7837 45.2207,-19.6525 49.2671,-29.4442 54.4901,-24.7837"/>
</g>
<!-- Node3 -->
<g id="node3" class="node"><title>Node3</title>
<polygon fill="white" stroke="#bfbfbf" points="78,-0.5 78,-19.5 113,-19.5 113,-0.5 78,-0.5"/>
<text text-anchor="middle" x="95.5" y="-7.5" font-family="Helvetica,sans-Serif" font-size="10.00">map</text>
</g>
<!-- Node1&#45;&gt;Node3 -->
<g id="edge2" class="edge"><title>Node1&#45;&gt;Node3</title>
<path fill="none" stroke="midnightblue" d="M95.5,-56.4979C95.5,-48.0653 95.5,-38.2351 95.5,-29.874"/>
<polygon fill="midnightblue" stroke="midnightblue" points="99.0001,-29.6525 95.5,-19.6525 92.0001,-29.6525 99.0001,-29.6525"/>
</g>
<!-- Node4 -->
<g id="node4" class="node"><title>Node4</title>
<polygon fill="white" stroke="#bfbfbf" points="131.5,-0.5 131.5,-19.5 177.5,-19.5 177.5,-0.5 131.5,-0.5"/>
<text text-anchor="middle" x="154.5" y="-7.5" font-family="Helvetica,sans-Serif" font-size="10.00">cstdint</text>
</g>
<!-- Node1&#45;&gt;Node4 -->
<g id="edge3" class="edge"><title>Node1&#45;&gt;Node4</title>
<path fill="none" stroke="midnightblue" d="M113.202,-56.4979C121.726,-47.1071 131.823,-35.9829 139.9,-27.0848"/>
<polygon fill="midnightblue" stroke="midnightblue" points="142.517,-29.4095 146.646,-19.6525 137.334,-24.7047 142.517,-29.4095"/>
</g>
</g>
</svg>
