<?xml version="1.0" encoding="UTF-8" standalone="no"?>
<!DOCTYPE svg PUBLIC "-//W3C//DTD SVG 1.1//EN"
 "http://www.w3.org/Graphics/SVG/1.1/DTD/svg11.dtd">
<!-- Generated by graphviz version 2.38.0 (20140413.2041)
 -->
<!-- Title: /home/erik/prefix/default/src/limesuite&#45;dev/mcu_program/common_src/typedefs.h Pages: 1 -->
<svg width="173pt" height="106pt"
 viewBox="0.00 0.00 173.00 106.00" xmlns="http://www.w3.org/2000/svg" xmlns:xlink="http://www.w3.org/1999/xlink">
<g id="graph0" class="graph" transform="scale(1 1) rotate(0) translate(4 102)">
<title>/home/erik/prefix/default/src/limesuite&#45;dev/mcu_program/common_src/typedefs.h</title>
<polygon fill="white" stroke="none" points="-4,4 -4,-102 169,-102 169,4 -4,4"/>
<!-- Node1 -->
<g id="node1" class="node"><title>Node1</title>
<polygon fill="#bfbfbf" stroke="black" points="0,-56.5 0,-97.5 165,-97.5 165,-56.5 0,-56.5"/>
<text text-anchor="start" x="8" y="-85.5" font-family="Helvetica,sans-Serif" font-size="10.00">/home/erik/prefix/default</text>
<text text-anchor="start" x="8" y="-74.5" font-family="Helvetica,sans-Serif" font-size="10.00">/src/limesuite&#45;dev/mcu</text>
<text text-anchor="middle" x="82.5" y="-63.5" font-family="Helvetica,sans-Serif" font-size="10.00">_program/common_src/typedefs.h</text>
</g>
<!-- Node2 -->
<g id="node2" class="node"><title>Node2</title>
<polygon fill="white" stroke="#bfbfbf" points="23,-0.5 23,-19.5 72,-19.5 72,-0.5 23,-0.5"/>
<text text-anchor="middle" x="47.5" y="-7.5" font-family="Helvetica,sans-Serif" font-size="10.00">stdint.h</text>
</g>
<!-- Node1&#45;&gt;Node2 -->
<g id="edge1" class="edge"><title>Node1&#45;&gt;Node2</title>
<path fill="none" stroke="midnightblue" d="M71.9988,-56.4979C67.2003,-47.5862 61.5611,-37.1135 56.9035,-28.4636"/>
<polygon fill="midnightblue" stroke="midnightblue" points="59.9817,-26.7978 52.159,-19.6525 53.8184,-30.1166 59.9817,-26.7978"/>
</g>
<!-- Node3 -->
<g id="node3" class="node"><title>Node3</title>
<polygon fill="white" stroke="#bfbfbf" points="90.5,-0.5 90.5,-19.5 146.5,-19.5 146.5,-0.5 90.5,-0.5"/>
<text text-anchor="middle" x="118.5" y="-7.5" font-family="Helvetica,sans-Serif" font-size="10.00">stdbool.h</text>
</g>
<!-- Node1&#45;&gt;Node3 -->
<g id="edge2" class="edge"><title>Node1&#45;&gt;Node3</title>
<path fill="none" stroke="midnightblue" d="M93.3012,-56.4979C98.2369,-47.5862 104.037,-37.1135 108.828,-28.4636"/>
<polygon fill="midnightblue" stroke="midnightblue" points="111.925,-30.0962 113.708,-19.6525 105.801,-26.7046 111.925,-30.0962"/>
</g>
</g>
</svg>
