<?xml version="1.0" encoding="UTF-8" standalone="no"?>
<!DOCTYPE svg PUBLIC "-//W3C//DTD SVG 1.1//EN"
 "http://www.w3.org/Graphics/SVG/1.1/DTD/svg11.dtd">
<!-- Generated by graphviz version 2.38.0 (20140413.2041)
 -->
<!-- Title: Modify_SPI_Reg_bits Pages: 1 -->
<svg width="358pt" height="66pt"
 viewBox="0.00 0.00 358.00 66.00" xmlns="http://www.w3.org/2000/svg" xmlns:xlink="http://www.w3.org/1999/xlink">
<g id="graph0" class="graph" transform="scale(1 1) rotate(0) translate(4 62)">
<title>Modify_SPI_Reg_bits</title>
<polygon fill="white" stroke="none" points="-4,4 -4,-62 354,-62 354,4 -4,4"/>
<!-- Node1 -->
<g id="node1" class="node"><title>Node1</title>
<polygon fill="#bfbfbf" stroke="black" points="0,-19.5 0,-38.5 112,-38.5 112,-19.5 0,-19.5"/>
<text text-anchor="middle" x="56" y="-26.5" font-family="Helvetica,sans-Serif" font-size="10.00">Modify_SPI_Reg_bits</text>
</g>
<!-- Node2 -->
<g id="node2" class="node"><title>Node2</title>
<g id="a_node2"><a xlink:href="../../da/d00/spi_8c.html#ac2c7f9c6724d07d7ec6fd74cd6f50292" target="_top" xlink:title="SPI_read">
<polygon fill="white" stroke="black" points="149,-38.5 149,-57.5 206,-57.5 206,-38.5 149,-38.5"/>
<text text-anchor="middle" x="177.5" y="-45.5" font-family="Helvetica,sans-Serif" font-size="10.00">SPI_read</text>
</a>
</g>
</g>
<!-- Node1&#45;&gt;Node2 -->
<g id="edge1" class="edge"><title>Node1&#45;&gt;Node2</title>
<path fill="none" stroke="midnightblue" d="M112.203,-37.777C121.246,-39.2148 130.429,-40.6749 138.916,-42.0244"/>
<polygon fill="midnightblue" stroke="midnightblue" points="138.443,-45.493 148.869,-43.6067 139.542,-38.5798 138.443,-45.493"/>
</g>
<!-- Node4 -->
<g id="node4" class="node"><title>Node4</title>
<g id="a_node4"><a xlink:href="../../da/d00/spi_8c.html#aea2cb343c9b216fcedebcd8f065e467c" target="_top" xlink:title="SPI_write">
<polygon fill="white" stroke="black" points="148,-0.5 148,-19.5 207,-19.5 207,-0.5 148,-0.5"/>
<text text-anchor="middle" x="177.5" y="-7.5" font-family="Helvetica,sans-Serif" font-size="10.00">SPI_write</text>
</a>
</g>
</g>
<!-- Node1&#45;&gt;Node4 -->
<g id="edge3" class="edge"><title>Node1&#45;&gt;Node4</title>
<path fill="none" stroke="midnightblue" d="M112.203,-20.223C120.889,-18.842 129.703,-17.4405 137.907,-16.1361"/>
<polygon fill="midnightblue" stroke="midnightblue" points="138.59,-19.5716 147.916,-14.5447 137.49,-12.6585 138.59,-19.5716"/>
</g>
<!-- Node3 -->
<g id="node3" class="node"><title>Node3</title>
<g id="a_node3"><a xlink:href="../../da/d00/spi_8c.html#a876db267d7b943f993f9c33ca159d250" target="_top" xlink:title="SPI_transferVariable">
<polygon fill="white" stroke="black" points="243,-19.5 243,-38.5 350,-38.5 350,-19.5 243,-19.5"/>
<text text-anchor="middle" x="296.5" y="-26.5" font-family="Helvetica,sans-Serif" font-size="10.00">SPI_transferVariable</text>
</a>
</g>
</g>
<!-- Node2&#45;&gt;Node3 -->
<g id="edge2" class="edge"><title>Node2&#45;&gt;Node3</title>
<path fill="none" stroke="midnightblue" d="M206.227,-43.4973C214.267,-42.1917 223.39,-40.7102 232.659,-39.2049"/>
<polygon fill="midnightblue" stroke="midnightblue" points="233.421,-42.6271 242.731,-37.5694 232.299,-35.7177 233.421,-42.6271"/>
</g>
<!-- Node4&#45;&gt;Node3 -->
<g id="edge4" class="edge"><title>Node4&#45;&gt;Node3</title>
<path fill="none" stroke="midnightblue" d="M207.121,-14.6479C214.986,-15.9251 223.835,-17.3621 232.817,-18.8207"/>
<polygon fill="midnightblue" stroke="midnightblue" points="232.536,-22.3209 242.968,-20.4691 233.658,-15.4114 232.536,-22.3209"/>
</g>
</g>
</svg>
