<?xml version="1.0" encoding="UTF-8" standalone="no"?>
<!DOCTYPE svg PUBLIC "-//W3C//DTD SVG 1.1//EN"
 "http://www.w3.org/Graphics/SVG/1.1/DTD/svg11.dtd">
<!-- Generated by graphviz version 2.38.0 (20140413.2041)
 -->
<!-- Title: pnlTxTSP_view::pnlTxTSP_view Pages: 1 -->
<!--zoomable 487 -->
<svg id="main" version="1.1" xmlns="http://www.w3.org/2000/svg" xmlns:xlink="http://www.w3.org/1999/xlink" xml:space="preserve" onload="init(evt)">
<style type="text/css"><![CDATA[
.edge:hover path { stroke: red; }
.edge:hover polygon { stroke: red; fill: red; }
]]></style>
<script type="text/javascript"><![CDATA[
var edges = document.getElementsByTagName('g');
if (edges && edges.length) {
  for (var i=0;i<edges.length;i++) {
    if (edges[i].id.substr(0,4)=='edge') {
      edges[i].setAttribute('class','edge');
    }
  }
}
]]></script>
        <defs>
                <circle id="rim" cx="0" cy="0" r="7"/>
                <circle id="rim2" cx="0" cy="0" r="3.5"/>
                <g id="zoomPlus">
                        <use xlink:href="#rim" fill="#404040">
                                <set attributeName="fill" to="#808080" begin="zoomplus.mouseover" end="zoomplus.mouseout"/>
                        </use>
                        <path d="M-4,0h8M0,-4v8" fill="none" stroke="white" stroke-width="1.5" pointer-events="none"/>
                </g>
                <g id="zoomMin">
                        <use xlink:href="#rim" fill="#404040">
                                <set attributeName="fill" to="#808080" begin="zoomminus.mouseover" end="zoomminus.mouseout"/>
                        </use>
                        <path d="M-4,0h8" fill="none" stroke="white" stroke-width="1.5" pointer-events="none"/>
                </g>
                <g id="dirArrow">
                        <path fill="none" stroke="white" stroke-width="1.5" d="M0,-3.0v7 M-2.5,-0.5L0,-3.0L2.5,-0.5"/>
                </g>
               <g id="resetDef">
                       <use xlink:href="#rim2" fill="#404040">
                               <set attributeName="fill" to="#808080" begin="reset.mouseover" end="reset.mouseout"/>
                       </use>
               </g>
        </defs>

<script type="text/javascript">
var viewWidth = 378;
var viewHeight = 487;
var sectionId = 'dynsection-2';
</script>
<script xlink:href="../../svgpan.js"/>
<svg id="graph" class="graph">
<g id="viewport">
<title>pnlTxTSP_view::pnlTxTSP_view</title>
<polygon fill="white" stroke="none" points="-4,4 -4,-482.5 374,-482.5 374,4 -4,4"/>
<!-- Node1 -->
<g id="node1" class="node"><title>Node1</title>
<polygon fill="#bfbfbf" stroke="black" points="0,-241 0,-260 161,-260 161,-241 0,-241"/>
<text text-anchor="middle" x="80.5" y="-248" font-family="Helvetica,sans-Serif" font-size="10.00">pnlTxTSP_view::pnlTxTSP_view</text>
</g>
<!-- Node2 -->
<g id="node2" class="node"><title>Node2</title>
<g id="a_node2"><a xlink:href="../../dd/d5e/classpnlTxTSP__view.html#a51351c1017835ee02f810de03cb52187" target="_top" xlink:title="pnlTxTSP_view::onbtnGFIR1Coef">
<polygon fill="white" stroke="black" points="200.5,-459 200.5,-478 366.5,-478 366.5,-459 200.5,-459"/>
<text text-anchor="middle" x="283.5" y="-466" font-family="Helvetica,sans-Serif" font-size="10.00">pnlTxTSP_view::onbtnGFIR1Coef</text>
</a>
</g>
</g>
<!-- Node1&#45;&gt;Node2 -->
<g id="edge1" class="edge"><title>Node1&#45;&gt;Node2</title>
<path fill="none" stroke="midnightblue" d="M84.1057,-260.275C93.3339,-292.891 127.694,-398.778 197,-449.5 199.556,-451.37 202.262,-453.062 205.076,-454.592"/>
<polygon fill="midnightblue" stroke="midnightblue" points="203.844,-457.88 214.385,-458.948 206.811,-451.54 203.844,-457.88"/>
</g>
<!-- Node3 -->
<g id="node3" class="node"><title>Node3</title>
<g id="a_node3"><a xlink:href="../../dd/d5e/classpnlTxTSP__view.html#a2c2bd5a5be4c2248cc702594d1233a40" target="_top" xlink:title="pnlTxTSP_view::onbtnGFIR2Coef">
<polygon fill="white" stroke="black" points="200.5,-421 200.5,-440 366.5,-440 366.5,-421 200.5,-421"/>
<text text-anchor="middle" x="283.5" y="-428" font-family="Helvetica,sans-Serif" font-size="10.00">pnlTxTSP_view::onbtnGFIR2Coef</text>
</a>
</g>
</g>
<!-- Node1&#45;&gt;Node3 -->
<g id="edge2" class="edge"><title>Node1&#45;&gt;Node3</title>
<path fill="none" stroke="midnightblue" d="M85.5082,-260.371C97.614,-288.856 136.716,-371.695 197,-411.5 200.101,-413.548 203.389,-415.377 206.8,-417.012"/>
<polygon fill="midnightblue" stroke="midnightblue" points="205.498,-420.261 216.073,-420.901 208.204,-413.806 205.498,-420.261"/>
</g>
<!-- Node4 -->
<g id="node4" class="node"><title>Node4</title>
<g id="a_node4"><a xlink:href="../../dd/d5e/classpnlTxTSP__view.html#aa962748ec6bac962e28354a4fdb79ab1" target="_top" xlink:title="pnlTxTSP_view::onbtnGFIR3Coef">
<polygon fill="white" stroke="black" points="200.5,-383 200.5,-402 366.5,-402 366.5,-383 200.5,-383"/>
<text text-anchor="middle" x="283.5" y="-390" font-family="Helvetica,sans-Serif" font-size="10.00">pnlTxTSP_view::onbtnGFIR3Coef</text>
</a>
</g>
</g>
<!-- Node1&#45;&gt;Node4 -->
<g id="edge3" class="edge"><title>Node1&#45;&gt;Node4</title>
<path fill="none" stroke="midnightblue" d="M87.4332,-260.002C102.562,-283.379 145.074,-343.924 197,-373.5 200.972,-375.762 205.19,-377.756 209.542,-379.511"/>
<polygon fill="midnightblue" stroke="midnightblue" points="208.644,-382.908 219.239,-382.988 211.007,-376.318 208.644,-382.908"/>
</g>
<!-- Node5 -->
<g id="node5" class="node"><title>Node5</title>
<g id="a_node5"><a xlink:href="../../dd/d5e/classpnlTxTSP__view.html#a39119873360a8ca0db03968b2aac202c" target="_top" xlink:title="pnlTxTSP_view::OnbtnLoad\lDCIClick">
<polygon fill="white" stroke="black" points="214,-333.5 214,-363.5 353,-363.5 353,-333.5 214,-333.5"/>
<text text-anchor="start" x="222" y="-351.5" font-family="Helvetica,sans-Serif" font-size="10.00">pnlTxTSP_view::OnbtnLoad</text>
<text text-anchor="middle" x="283.5" y="-340.5" font-family="Helvetica,sans-Serif" font-size="10.00">DCIClick</text>
</a>
</g>
</g>
<!-- Node1&#45;&gt;Node5 -->
<g id="edge4" class="edge"><title>Node1&#45;&gt;Node5</title>
<path fill="none" stroke="midnightblue" d="M93.6194,-260.006C113.927,-275.52 156.586,-306.368 197,-324.5 201.427,-326.486 206.057,-328.346 210.774,-330.082"/>
<polygon fill="midnightblue" stroke="midnightblue" points="209.946,-333.499 220.54,-333.47 212.24,-326.886 209.946,-333.499"/>
</g>
<!-- Node6 -->
<g id="node6" class="node"><title>Node6</title>
<g id="a_node6"><a xlink:href="../../dd/d5e/classpnlTxTSP__view.html#ac577d5b7f3738897f81b6b9043f4785c" target="_top" xlink:title="pnlTxTSP_view::OnbtnLoad\lDCQClick">
<polygon fill="white" stroke="black" points="214,-284.5 214,-314.5 353,-314.5 353,-284.5 214,-284.5"/>
<text text-anchor="start" x="222" y="-302.5" font-family="Helvetica,sans-Serif" font-size="10.00">pnlTxTSP_view::OnbtnLoad</text>
<text text-anchor="middle" x="283.5" y="-291.5" font-family="Helvetica,sans-Serif" font-size="10.00">DCQClick</text>
</a>
</g>
</g>
<!-- Node1&#45;&gt;Node6 -->
<g id="edge5" class="edge"><title>Node1&#45;&gt;Node6</title>
<path fill="none" stroke="midnightblue" d="M120.732,-260.064C146.401,-266.322 180.694,-274.682 211.099,-282.094"/>
<polygon fill="midnightblue" stroke="midnightblue" points="210.273,-285.495 220.818,-284.463 211.931,-278.694 210.273,-285.495"/>
</g>
<!-- Node7 -->
<g id="node7" class="node"><title>Node7</title>
<g id="a_node7"><a xlink:href="../../dd/d5e/classpnlTxTSP__view.html#af155c8f0eda471123917a6e81ab37a7c" target="_top" xlink:title="pnlTxTSP_view::onbtnRead\lBISTSignature">
<polygon fill="white" stroke="black" points="214,-235.5 214,-265.5 353,-265.5 353,-235.5 214,-235.5"/>
<text text-anchor="start" x="222" y="-253.5" font-family="Helvetica,sans-Serif" font-size="10.00">pnlTxTSP_view::onbtnRead</text>
<text text-anchor="middle" x="283.5" y="-242.5" font-family="Helvetica,sans-Serif" font-size="10.00">BISTSignature</text>
</a>
</g>
</g>
<!-- Node1&#45;&gt;Node7 -->
<g id="edge6" class="edge"><title>Node1&#45;&gt;Node7</title>
<path fill="none" stroke="midnightblue" d="M161.229,-250.5C175.253,-250.5 189.84,-250.5 203.835,-250.5"/>
<polygon fill="midnightblue" stroke="midnightblue" points="203.903,-254 213.903,-250.5 203.903,-247 203.903,-254"/>
</g>
<!-- Node8 -->
<g id="node8" class="node"><title>Node8</title>
<g id="a_node8"><a xlink:href="../../dd/d5e/classpnlTxTSP__view.html#a1737ff193f499ca2d020a7892daa4eea" target="_top" xlink:title="pnlTxTSP_view::OnbtnUpload\lNCOClick">
<polygon fill="white" stroke="black" points="209,-186.5 209,-216.5 358,-216.5 358,-186.5 209,-186.5"/>
<text text-anchor="start" x="217" y="-204.5" font-family="Helvetica,sans-Serif" font-size="10.00">pnlTxTSP_view::OnbtnUpload</text>
<text text-anchor="middle" x="283.5" y="-193.5" font-family="Helvetica,sans-Serif" font-size="10.00">NCOClick</text>
</a>
</g>
</g>
<!-- Node1&#45;&gt;Node8 -->
<g id="edge7" class="edge"><title>Node1&#45;&gt;Node8</title>
<path fill="none" stroke="midnightblue" d="M120.732,-240.936C146.401,-234.678 180.694,-226.318 211.099,-218.906"/>
<polygon fill="midnightblue" stroke="midnightblue" points="211.931,-222.306 220.818,-216.537 210.273,-215.505 211.931,-222.306"/>
</g>
<!-- Node9 -->
<g id="node9" class="node"><title>Node9</title>
<g id="a_node9"><a xlink:href="../../dd/d5e/classpnlTxTSP__view.html#a0ee2497679d496225029c3287aeae010" target="_top" xlink:title="pnlTxTSP_view::OnNCOSelection\lChange">
<polygon fill="white" stroke="black" points="200,-137.5 200,-167.5 367,-167.5 367,-137.5 200,-137.5"/>
<text text-anchor="start" x="208" y="-155.5" font-family="Helvetica,sans-Serif" font-size="10.00">pnlTxTSP_view::OnNCOSelection</text>
<text text-anchor="middle" x="283.5" y="-144.5" font-family="Helvetica,sans-Serif" font-size="10.00">Change</text>
</a>
</g>
</g>
<!-- Node1&#45;&gt;Node9 -->
<g id="edge8" class="edge"><title>Node1&#45;&gt;Node9</title>
<path fill="none" stroke="midnightblue" d="M93.9948,-240.936C114.496,-225.639 157.002,-195.557 197,-177.5 202.237,-175.136 207.756,-172.931 213.363,-170.889"/>
<polygon fill="midnightblue" stroke="midnightblue" points="214.543,-174.185 222.849,-167.608 212.255,-167.569 214.543,-174.185"/>
</g>
<!-- Node10 -->
<g id="node10" class="node"><title>Node10</title>
<g id="a_node10"><a xlink:href="../../dd/d5e/classpnlTxTSP__view.html#a1525e512c8480b8853cba76923839077" target="_top" xlink:title="pnlTxTSP_view::Parameter\lChangeHandler">
<polygon fill="white" stroke="black" points="215,-88.5 215,-118.5 352,-118.5 352,-88.5 215,-88.5"/>
<text text-anchor="start" x="223" y="-106.5" font-family="Helvetica,sans-Serif" font-size="10.00">pnlTxTSP_view::Parameter</text>
<text text-anchor="middle" x="283.5" y="-95.5" font-family="Helvetica,sans-Serif" font-size="10.00">ChangeHandler</text>
</a>
</g>
</g>
<!-- Node1&#45;&gt;Node10 -->
<g id="edge9" class="edge"><title>Node1&#45;&gt;Node10</title>
<path fill="none" stroke="midnightblue" d="M87.8057,-240.948C103.455,-217.999 146.48,-159.378 197,-128.5 200.563,-126.322 204.325,-124.326 208.205,-122.497"/>
<polygon fill="midnightblue" stroke="midnightblue" points="209.632,-125.693 217.435,-118.526 206.865,-119.263 209.632,-125.693"/>
</g>
<!-- Node11 -->
<g id="node11" class="node"><title>Node11</title>
<g id="a_node11"><a xlink:href="../../dd/d5e/classpnlTxTSP__view.html#a8f93b116d448f94fd21d0de7ed4a7672" target="_top" xlink:title="pnlTxTSP_view::PHOinputChanged">
<polygon fill="white" stroke="black" points="197,-50 197,-69 370,-69 370,-50 197,-50"/>
<text text-anchor="middle" x="283.5" y="-57" font-family="Helvetica,sans-Serif" font-size="10.00">pnlTxTSP_view::PHOinputChanged</text>
</a>
</g>
</g>
<!-- Node1&#45;&gt;Node11 -->
<g id="edge10" class="edge"><title>Node1&#45;&gt;Node11</title>
<path fill="none" stroke="midnightblue" d="M85.0203,-240.901C96.2919,-211.582 134.457,-122.589 197,-79.5 200.531,-77.0676 204.318,-74.9282 208.262,-73.0468"/>
<polygon fill="midnightblue" stroke="midnightblue" points="209.822,-76.1886 217.704,-69.1089 207.127,-69.7279 209.822,-76.1886"/>
</g>
<!-- Node12 -->
<g id="node12" class="node"><title>Node12</title>
<g id="a_node12"><a xlink:href="../../dd/d5e/classpnlTxTSP__view.html#aa2f0c4220dd967c77cd35dbdffbf27e6" target="_top" xlink:title="pnlTxTSP_view::txtFCWPHOmode\lAdditional_OnMouseWheel">
<polygon fill="white" stroke="black" points="197.5,-0.5 197.5,-30.5 369.5,-30.5 369.5,-0.5 197.5,-0.5"/>
<text text-anchor="start" x="205.5" y="-18.5" font-family="Helvetica,sans-Serif" font-size="10.00">pnlTxTSP_view::txtFCWPHOmode</text>
<text text-anchor="middle" x="283.5" y="-7.5" font-family="Helvetica,sans-Serif" font-size="10.00">Additional_OnMouseWheel</text>
</a>
</g>
</g>
<!-- Node1&#45;&gt;Node12 -->
<g id="edge11" class="edge"><title>Node1&#45;&gt;Node12</title>
<path fill="none" stroke="midnightblue" d="M83.9441,-240.841C92.8683,-207.579 126.902,-96.7476 197,-40.5 199.262,-38.6852 201.651,-37.0022 204.136,-35.4413"/>
<polygon fill="midnightblue" stroke="midnightblue" points="205.854,-38.4908 212.915,-30.5911 202.469,-32.3638 205.854,-38.4908"/>
</g>
</g>
</svg>
        <g id="navigator" transform="translate(0 0)" fill="#404254">
                <rect fill="#f2f5e9" fill-opacity="0.5" stroke="#606060" stroke-width=".5" x="0" y="0" width="60" height="60"/>
                <use id="zoomplus" xlink:href="#zoomPlus" x="17" y="9" onmousedown="handleZoom(evt,'in')"/>
                <use id="zoomminus" xlink:href="#zoomMin" x="42" y="9" onmousedown="handleZoom(evt,'out')"/>
                <use id="reset" xlink:href="#resetDef" x="30" y="36" onmousedown="handleReset()"/>
                <g id="arrowUp" xlink:href="#dirArrow" transform="translate(30 24)" onmousedown="handlePan(0,-1)">
                  <use xlink:href="#rim" fill="#404040">
                        <set attributeName="fill" to="#808080" begin="arrowUp.mouseover" end="arrowUp.mouseout"/>
                  </use>
                  <path fill="none" stroke="white" stroke-width="1.5" d="M0,-3.0v7 M-2.5,-0.5L0,-3.0L2.5,-0.5"/>
                </g>
                <g id="arrowRight" xlink:href="#dirArrow" transform="rotate(90) translate(36 -43)" onmousedown="handlePan(1,0)">
                  <use xlink:href="#rim" fill="#404040">
                        <set attributeName="fill" to="#808080" begin="arrowRight.mouseover" end="arrowRight.mouseout"/>
                  </use>
                  <path fill="none" stroke="white" stroke-width="1.5" d="M0,-3.0v7 M-2.5,-0.5L0,-3.0L2.5,-0.5"/>
                </g>
                <g id="arrowDown" xlink:href="#dirArrow" transform="rotate(180) translate(-30 -48)" onmousedown="handlePan(0,1)">
                  <use xlink:href="#rim" fill="#404040">
                        <set attributeName="fill" to="#808080" begin="arrowDown.mouseover" end="arrowDown.mouseout"/>
                  </use>
                  <path fill="none" stroke="white" stroke-width="1.5" d="M0,-3.0v7 M-2.5,-0.5L0,-3.0L2.5,-0.5"/>
                </g>
                <g id="arrowLeft" xlink:href="#dirArrow" transform="rotate(270) translate(-36 17)" onmousedown="handlePan(-1,0)">
                  <use xlink:href="#rim" fill="#404040">
                        <set attributeName="fill" to="#808080" begin="arrowLeft.mouseover" end="arrowLeft.mouseout"/>
                  </use>
                  <path fill="none" stroke="white" stroke-width="1.5" d="M0,-3.0v7 M-2.5,-0.5L0,-3.0L2.5,-0.5"/>
                </g>
        </g>
        <svg viewBox="0 0 15 15" width="100%" height="30px" preserveAspectRatio="xMaxYMin meet">
         <g id="arrow_out" transform="scale(0.3 0.3)">
          <a xlink:href="classpnlTxTSP__view_ac5c849a3b22c1cdcc029b5669d33c9a8_cgraph_org.svg" target="_base">
           <rect id="button" ry="5" rx="5" y="6" x="6" height="38" width="38"
                fill="#f2f5e9" fill-opacity="0.5" stroke="#606060" stroke-width="1.0"/>
           <path id="arrow"
             d="M 11.500037,31.436501 C 11.940474,20.09759 22.043105,11.32322 32.158766,21.979434 L 37.068811,17.246167 C 37.068811,17.246167 37.088388,32 37.088388,32 L 22.160133,31.978069 C 22.160133,31.978069 26.997745,27.140456 26.997745,27.140456 C 18.528582,18.264221 13.291696,25.230495 11.500037,31.436501 z"
             style="fill:#404040;"/>
          </a>
         </g>
        </svg>
</svg>
