<?xml version="1.0" encoding="UTF-8" standalone="no"?>
<!DOCTYPE svg PUBLIC "-//W3C//DTD SVG 1.1//EN"
 "http://www.w3.org/Graphics/SVG/1.1/DTD/svg11.dtd">
<!-- Generated by graphviz version 2.38.0 (20140413.2041)
 -->
<!-- Title: readKernelMemory Pages: 1 -->
<svg width="541pt" height="53pt"
 viewBox="0.00 0.00 541.00 52.50" xmlns="http://www.w3.org/2000/svg" xmlns:xlink="http://www.w3.org/1999/xlink">
<g id="graph0" class="graph" transform="scale(1 1) rotate(0) translate(4 48.5)">
<title>readKernelMemory</title>
<polygon fill="white" stroke="none" points="-4,4 -4,-48.5 537,-48.5 537,4 -4,4"/>
<!-- Node1 -->
<g id="node1" class="node"><title>Node1</title>
<polygon fill="#bfbfbf" stroke="black" points="0,-19.5 0,-38.5 98,-38.5 98,-19.5 0,-19.5"/>
<text text-anchor="middle" x="49" y="-26.5" font-family="Helvetica,sans-Serif" font-size="10.00">readKernelMemory</text>
</g>
<!-- Node2 -->
<g id="node2" class="node"><title>Node2</title>
<g id="a_node2"><a xlink:href="../../dd/df4/ConnectionNovenaRF7__streaming_8cpp.html#ad0f92d939b154521f01fb2dbbe35bc75" target="_top" xlink:title="prep_eim_burst">
<polygon fill="white" stroke="black" points="271,-19.5 271,-38.5 354,-38.5 354,-19.5 271,-19.5"/>
<text text-anchor="middle" x="312.5" y="-26.5" font-family="Helvetica,sans-Serif" font-size="10.00">prep_eim_burst</text>
</a>
</g>
</g>
<!-- Node1&#45;&gt;Node2 -->
<g id="edge1" class="edge"><title>Node1&#45;&gt;Node2</title>
<path fill="none" stroke="midnightblue" d="M108.484,-29C157.861,-29 227.285,-29 270.811,-29"/>
<polygon fill="midnightblue" stroke="midnightblue" points="108.268,-25.5001 98.2679,-29 108.268,-32.5001 108.268,-25.5001"/>
</g>
<!-- Node4 -->
<g id="node4" class="node"><title>Node4</title>
<g id="a_node4"><a xlink:href="../../dd/df4/ConnectionNovenaRF7__streaming_8cpp.html#ab4e68de971a960f7dad07ce349480ecf" target="_top" xlink:title="writeKernelMemory">
<polygon fill="white" stroke="black" points="134,-0.5 134,-19.5 235,-19.5 235,-0.5 134,-0.5"/>
<text text-anchor="middle" x="184.5" y="-7.5" font-family="Helvetica,sans-Serif" font-size="10.00">writeKernelMemory</text>
</a>
</g>
</g>
<!-- Node1&#45;&gt;Node4 -->
<g id="edge3" class="edge"><title>Node1&#45;&gt;Node4</title>
<path fill="none" stroke="midnightblue" d="M108.334,-20.6978C116.749,-19.5002 125.345,-18.2767 133.576,-17.1053"/>
<polygon fill="midnightblue" stroke="midnightblue" points="107.604,-17.2664 98.1966,-22.1406 108.59,-24.1965 107.604,-17.2664"/>
</g>
<!-- Node3 -->
<g id="node3" class="node"><title>Node3</title>
<g id="a_node3"><a xlink:href="../../d0/d2c/classlime_1_1ConnectionNovenaRF7.html#a300d621a46fa1b8a81648d10cef9c060" target="_top" xlink:title="lime::ConnectionNovenaRF7\l::ReceivePacketsLoop">
<polygon fill="white" stroke="black" points="390,-14 390,-44 533,-44 533,-14 390,-14"/>
<text text-anchor="start" x="398" y="-32" font-family="Helvetica,sans-Serif" font-size="10.00">lime::ConnectionNovenaRF7</text>
<text text-anchor="middle" x="461.5" y="-21" font-family="Helvetica,sans-Serif" font-size="10.00">::ReceivePacketsLoop</text>
</a>
</g>
</g>
<!-- Node2&#45;&gt;Node3 -->
<g id="edge2" class="edge"><title>Node2&#45;&gt;Node3</title>
<path fill="none" stroke="midnightblue" d="M364.273,-29C372.546,-29 381.245,-29 389.89,-29"/>
<polygon fill="midnightblue" stroke="midnightblue" points="364.058,-25.5001 354.058,-29 364.057,-32.5001 364.058,-25.5001"/>
</g>
<!-- Node4&#45;&gt;Node2 -->
<g id="edge4" class="edge"><title>Node4&#45;&gt;Node2</title>
<path fill="none" stroke="midnightblue" d="M245.396,-19.032C254.062,-20.3388 262.807,-21.6574 270.972,-22.8886"/>
<polygon fill="midnightblue" stroke="midnightblue" points="245.709,-15.5396 235.299,-17.5093 244.665,-22.4613 245.709,-15.5396"/>
</g>
</g>
</svg>
