<?xml version="1.0" encoding="UTF-8" standalone="no"?>
<!DOCTYPE svg PUBLIC "-//W3C//DTD SVG 1.1//EN"
 "http://www.w3.org/Graphics/SVG/1.1/DTD/svg11.dtd">
<!-- Generated by graphviz version 2.38.0 (20140413.2041)
 -->
<!-- Title: SetFrequencyCGEN Pages: 1 -->
<!--zoomable 104 -->
<svg id="main" version="1.1" xmlns="http://www.w3.org/2000/svg" xmlns:xlink="http://www.w3.org/1999/xlink" xml:space="preserve" onload="init(evt)">
<style type="text/css"><![CDATA[
.edge:hover path { stroke: red; }
.edge:hover polygon { stroke: red; fill: red; }
]]></style>
<script type="text/javascript"><![CDATA[
var edges = document.getElementsByTagName('g');
if (edges && edges.length) {
  for (var i=0;i<edges.length;i++) {
    if (edges[i].id.substr(0,4)=='edge') {
      edges[i].setAttribute('class','edge');
    }
  }
}
]]></script>
        <defs>
                <circle id="rim" cx="0" cy="0" r="7"/>
                <circle id="rim2" cx="0" cy="0" r="3.5"/>
                <g id="zoomPlus">
                        <use xlink:href="#rim" fill="#404040">
                                <set attributeName="fill" to="#808080" begin="zoomplus.mouseover" end="zoomplus.mouseout"/>
                        </use>
                        <path d="M-4,0h8M0,-4v8" fill="none" stroke="white" stroke-width="1.5" pointer-events="none"/>
                </g>
                <g id="zoomMin">
                        <use xlink:href="#rim" fill="#404040">
                                <set attributeName="fill" to="#808080" begin="zoomminus.mouseover" end="zoomminus.mouseout"/>
                        </use>
                        <path d="M-4,0h8" fill="none" stroke="white" stroke-width="1.5" pointer-events="none"/>
                </g>
                <g id="dirArrow">
                        <path fill="none" stroke="white" stroke-width="1.5" d="M0,-3.0v7 M-2.5,-0.5L0,-3.0L2.5,-0.5"/>
                </g>
               <g id="resetDef">
                       <use xlink:href="#rim2" fill="#404040">
                               <set attributeName="fill" to="#808080" begin="reset.mouseover" end="reset.mouseout"/>
                       </use>
               </g>
        </defs>

<script type="text/javascript">
var viewWidth = 938;
var viewHeight = 104;
var sectionId = 'dynsection-21';
</script>
<script xlink:href="../../svgpan.js"/>
<svg id="graph" class="graph">
<g id="viewport">
<title>SetFrequencyCGEN</title>
<polygon fill="white" stroke="none" points="-4,4 -4,-100 934,-100 934,4 -4,4"/>
<!-- Node1 -->
<g id="node1" class="node"><title>Node1</title>
<polygon fill="#bfbfbf" stroke="black" points="0,-19.5 0,-38.5 107,-38.5 107,-19.5 0,-19.5"/>
<text text-anchor="middle" x="53.5" y="-26.5" font-family="Helvetica,sans-Serif" font-size="10.00">SetFrequencyCGEN</text>
</g>
<!-- Node2 -->
<g id="node2" class="node"><title>Node2</title>
<g id="a_node2"><a xlink:href="../../da/d87/spi_8h.html#aaf76507507e6a960fa0c8cb26585095d" target="_top" xlink:title="Modify_SPI_Reg_bits">
<polygon fill="white" stroke="black" points="239,-38.5 239,-57.5 351,-57.5 351,-38.5 239,-38.5"/>
<text text-anchor="middle" x="295" y="-45.5" font-family="Helvetica,sans-Serif" font-size="10.00">Modify_SPI_Reg_bits</text>
</a>
</g>
</g>
<!-- Node1&#45;&gt;Node2 -->
<g id="edge1" class="edge"><title>Node1&#45;&gt;Node2</title>
<path fill="none" stroke="midnightblue" d="M107.059,-33.1696C142.831,-36.0075 190.429,-39.7835 228.644,-42.8152"/>
<polygon fill="midnightblue" stroke="midnightblue" points="228.403,-46.307 238.648,-43.6089 228.957,-39.3289 228.403,-46.307"/>
</g>
<!-- Node8 -->
<g id="node8" class="node"><title>Node8</title>
<g id="a_node8"><a xlink:href="../../d7/db8/lms7002m__controls_8c.html#aaec3b1294b24c7f3b9db2c9af59402d4" target="_top" xlink:title="TuneVCO">
<polygon fill="white" stroke="black" points="143,-0.5 143,-19.5 203,-19.5 203,-0.5 143,-0.5"/>
<text text-anchor="middle" x="173" y="-7.5" font-family="Helvetica,sans-Serif" font-size="10.00">TuneVCO</text>
</a>
</g>
</g>
<!-- Node1&#45;&gt;Node8 -->
<g id="edge8" class="edge"><title>Node1&#45;&gt;Node8</title>
<path fill="none" stroke="midnightblue" d="M107.064,-20.5003C115.743,-19.097 124.603,-17.6642 132.877,-16.3263"/>
<polygon fill="midnightblue" stroke="midnightblue" points="133.673,-19.7432 142.986,-14.6917 132.555,-12.8329 133.673,-19.7432"/>
</g>
<!-- Node3 -->
<g id="node3" class="node"><title>Node3</title>
<g id="a_node3"><a xlink:href="../../dd/d7e/spi_8cpp.html#a7dee89a3e8018d75340f8ffd14015284" target="_top" xlink:title="SPI_read">
<polygon fill="white" stroke="black" points="522,-38.5 522,-57.5 579,-57.5 579,-38.5 522,-38.5"/>
<text text-anchor="middle" x="550.5" y="-45.5" font-family="Helvetica,sans-Serif" font-size="10.00">SPI_read</text>
</a>
</g>
</g>
<!-- Node2&#45;&gt;Node3 -->
<g id="edge2" class="edge"><title>Node2&#45;&gt;Node3</title>
<path fill="none" stroke="midnightblue" d="M351.006,-48C399.601,-48 469.176,-48 511.736,-48"/>
<polygon fill="midnightblue" stroke="midnightblue" points="511.945,-51.5001 521.945,-48 511.945,-44.5001 511.945,-51.5001"/>
</g>
<!-- Node7 -->
<g id="node7" class="node"><title>Node7</title>
<g id="a_node7"><a xlink:href="../../dd/d7e/spi_8cpp.html#abf635d9f0da08fb2a479532b69852e60" target="_top" xlink:title="SPI_write">
<polygon fill="white" stroke="black" points="521,-76.5 521,-95.5 580,-95.5 580,-76.5 521,-76.5"/>
<text text-anchor="middle" x="550.5" y="-83.5" font-family="Helvetica,sans-Serif" font-size="10.00">SPI_write</text>
</a>
</g>
</g>
<!-- Node2&#45;&gt;Node7 -->
<g id="edge6" class="edge"><title>Node2&#45;&gt;Node7</title>
<path fill="none" stroke="midnightblue" d="M351.333,-56.5672C363.104,-58.3745 375.462,-60.2604 387,-62 429.239,-68.3683 477.682,-75.5008 510.608,-80.323"/>
<polygon fill="midnightblue" stroke="midnightblue" points="510.324,-83.8187 520.726,-81.8036 511.338,-76.8925 510.324,-83.8187"/>
</g>
<!-- Node4 -->
<g id="node4" class="node"><title>Node4</title>
<g id="a_node4"><a xlink:href="../../d2/de5/classlime_1_1IConnection.html#af3dfb39cc643d88c1196ded5d5cbecea" target="_top" xlink:title="Bulk SPI write/read transaction. ">
<polygon fill="white" stroke="black" points="616,-52 616,-82 715,-82 715,-52 616,-52"/>
<text text-anchor="start" x="624" y="-70" font-family="Helvetica,sans-Serif" font-size="10.00">lime::IConnection::</text>
<text text-anchor="middle" x="665.5" y="-59" font-family="Helvetica,sans-Serif" font-size="10.00">TransactSPI</text>
</a>
</g>
</g>
<!-- Node3&#45;&gt;Node4 -->
<g id="edge3" class="edge"><title>Node3&#45;&gt;Node4</title>
<path fill="none" stroke="midnightblue" d="M579.143,-52.6479C587.3,-54.0195 596.554,-55.5755 605.885,-57.1444"/>
<polygon fill="midnightblue" stroke="midnightblue" points="605.551,-60.6372 615.993,-58.8439 606.711,-53.7341 605.551,-60.6372"/>
</g>
<!-- Node5 -->
<g id="node5" class="node"><title>Node5</title>
<g id="a_node5"><a xlink:href="../../d5/d6c/namespacelime.html#adc6af0cf8e0a70f3ef09fac1244f8c48" target="_top" xlink:title="lime::ReportError">
<polygon fill="white" stroke="black" points="751,-57.5 751,-76.5 842,-76.5 842,-57.5 751,-57.5"/>
<text text-anchor="middle" x="796.5" y="-64.5" font-family="Helvetica,sans-Serif" font-size="10.00">lime::ReportError</text>
</a>
</g>
</g>
<!-- Node4&#45;&gt;Node5 -->
<g id="edge4" class="edge"><title>Node4&#45;&gt;Node5</title>
<path fill="none" stroke="midnightblue" d="M715.269,-67C723.588,-67 732.279,-67 740.74,-67"/>
<polygon fill="midnightblue" stroke="midnightblue" points="740.908,-70.5001 750.908,-67 740.908,-63.5001 740.908,-70.5001"/>
</g>
<!-- Node6 -->
<g id="node6" class="node"><title>Node6</title>
<g id="a_node6"><a xlink:href="../../d9/df5/Logger_8cpp.html#ada38bf01d6d691de953ed69268ea6516" target="_top" xlink:title="errToStr">
<polygon fill="white" stroke="black" points="878,-57.5 878,-76.5 930,-76.5 930,-57.5 878,-57.5"/>
<text text-anchor="middle" x="904" y="-64.5" font-family="Helvetica,sans-Serif" font-size="10.00">errToStr</text>
</a>
</g>
</g>
<!-- Node5&#45;&gt;Node6 -->
<g id="edge5" class="edge"><title>Node5&#45;&gt;Node6</title>
<path fill="none" stroke="midnightblue" d="M842.241,-67C850.676,-67 859.39,-67 867.494,-67"/>
<polygon fill="midnightblue" stroke="midnightblue" points="867.722,-70.5001 877.722,-67 867.722,-63.5001 867.722,-70.5001"/>
</g>
<!-- Node7&#45;&gt;Node4 -->
<g id="edge7" class="edge"><title>Node7&#45;&gt;Node4</title>
<path fill="none" stroke="midnightblue" d="M580.015,-81.2055C587.9,-79.8796 596.759,-78.3901 605.695,-76.8876"/>
<polygon fill="midnightblue" stroke="midnightblue" points="606.487,-80.3036 615.768,-75.1938 605.326,-73.4005 606.487,-80.3036"/>
</g>
<!-- Node8&#45;&gt;Node2 -->
<g id="edge9" class="edge"><title>Node8&#45;&gt;Node2</title>
<path fill="none" stroke="midnightblue" d="M203.049,-19.1987C218.472,-24.0829 237.654,-30.157 254.42,-35.4663"/>
<polygon fill="midnightblue" stroke="midnightblue" points="253.376,-38.8068 263.966,-38.4891 255.489,-32.1334 253.376,-38.8068"/>
</g>
<!-- Node9 -->
<g id="node9" class="node"><title>Node9</title>
<g id="a_node9"><a xlink:href="../../d7/db8/lms7002m__controls_8c.html#ac911f4b8718fda93faacd6f94699d564" target="_top" xlink:title="Performs VCO tuning operations for CLKGEN, SXR, SXT modules. ">
<polygon fill="white" stroke="black" points="264,-0.5 264,-19.5 326,-19.5 326,-0.5 264,-0.5"/>
<text text-anchor="middle" x="295" y="-7.5" font-family="Helvetica,sans-Serif" font-size="10.00">ReadCMP</text>
</a>
</g>
</g>
<!-- Node8&#45;&gt;Node9 -->
<g id="edge10" class="edge"><title>Node8&#45;&gt;Node9</title>
<path fill="none" stroke="midnightblue" d="M203.049,-10C218.328,-10 237.296,-10 253.949,-10"/>
<polygon fill="midnightblue" stroke="midnightblue" points="253.966,-13.5001 263.966,-10 253.966,-6.5001 253.966,-13.5001"/>
</g>
<!-- Node10 -->
<g id="node10" class="node"><title>Node10</title>
<g id="a_node10"><a xlink:href="../../da/d87/spi_8h.html#a6ca6565d9a3c9b39a4ad5239f27665c7" target="_top" xlink:title="Get_SPI_Reg_bits">
<polygon fill="white" stroke="black" points="387,-0.5 387,-19.5 485,-19.5 485,-0.5 387,-0.5"/>
<text text-anchor="middle" x="436" y="-7.5" font-family="Helvetica,sans-Serif" font-size="10.00">Get_SPI_Reg_bits</text>
</a>
</g>
</g>
<!-- Node9&#45;&gt;Node10 -->
<g id="edge11" class="edge"><title>Node9&#45;&gt;Node10</title>
<path fill="none" stroke="midnightblue" d="M326.161,-10C340.979,-10 359.353,-10 376.76,-10"/>
<polygon fill="midnightblue" stroke="midnightblue" points="376.863,-13.5001 386.863,-10 376.863,-6.5001 376.863,-13.5001"/>
</g>
<!-- Node10&#45;&gt;Node3 -->
<g id="edge12" class="edge"><title>Node10&#45;&gt;Node3</title>
<path fill="none" stroke="midnightblue" d="M465.389,-19.589C479.592,-24.3866 496.966,-30.2551 512.228,-35.4104"/>
<polygon fill="midnightblue" stroke="midnightblue" points="511.304,-38.7925 521.898,-38.6768 513.544,-32.1606 511.304,-38.7925"/>
</g>
</g>
</svg>
        <g id="navigator" transform="translate(0 0)" fill="#404254">
                <rect fill="#f2f5e9" fill-opacity="0.5" stroke="#606060" stroke-width=".5" x="0" y="0" width="60" height="60"/>
                <use id="zoomplus" xlink:href="#zoomPlus" x="17" y="9" onmousedown="handleZoom(evt,'in')"/>
                <use id="zoomminus" xlink:href="#zoomMin" x="42" y="9" onmousedown="handleZoom(evt,'out')"/>
                <use id="reset" xlink:href="#resetDef" x="30" y="36" onmousedown="handleReset()"/>
                <g id="arrowUp" xlink:href="#dirArrow" transform="translate(30 24)" onmousedown="handlePan(0,-1)">
                  <use xlink:href="#rim" fill="#404040">
                        <set attributeName="fill" to="#808080" begin="arrowUp.mouseover" end="arrowUp.mouseout"/>
                  </use>
                  <path fill="none" stroke="white" stroke-width="1.5" d="M0,-3.0v7 M-2.5,-0.5L0,-3.0L2.5,-0.5"/>
                </g>
                <g id="arrowRight" xlink:href="#dirArrow" transform="rotate(90) translate(36 -43)" onmousedown="handlePan(1,0)">
                  <use xlink:href="#rim" fill="#404040">
                        <set attributeName="fill" to="#808080" begin="arrowRight.mouseover" end="arrowRight.mouseout"/>
                  </use>
                  <path fill="none" stroke="white" stroke-width="1.5" d="M0,-3.0v7 M-2.5,-0.5L0,-3.0L2.5,-0.5"/>
                </g>
                <g id="arrowDown" xlink:href="#dirArrow" transform="rotate(180) translate(-30 -48)" onmousedown="handlePan(0,1)">
                  <use xlink:href="#rim" fill="#404040">
                        <set attributeName="fill" to="#808080" begin="arrowDown.mouseover" end="arrowDown.mouseout"/>
                  </use>
                  <path fill="none" stroke="white" stroke-width="1.5" d="M0,-3.0v7 M-2.5,-0.5L0,-3.0L2.5,-0.5"/>
                </g>
                <g id="arrowLeft" xlink:href="#dirArrow" transform="rotate(270) translate(-36 17)" onmousedown="handlePan(-1,0)">
                  <use xlink:href="#rim" fill="#404040">
                        <set attributeName="fill" to="#808080" begin="arrowLeft.mouseover" end="arrowLeft.mouseout"/>
                  </use>
                  <path fill="none" stroke="white" stroke-width="1.5" d="M0,-3.0v7 M-2.5,-0.5L0,-3.0L2.5,-0.5"/>
                </g>
        </g>
        <svg viewBox="0 0 15 15" width="100%" height="30px" preserveAspectRatio="xMaxYMin meet">
         <g id="arrow_out" transform="scale(0.3 0.3)">
          <a xlink:href="lms7002m__controls_8c_a642726a10aa97f369c0dcb7d1480c875_cgraph_org.svg" target="_base">
           <rect id="button" ry="5" rx="5" y="6" x="6" height="38" width="38"
                fill="#f2f5e9" fill-opacity="0.5" stroke="#606060" stroke-width="1.0"/>
           <path id="arrow"
             d="M 11.500037,31.436501 C 11.940474,20.09759 22.043105,11.32322 32.158766,21.979434 L 37.068811,17.246167 C 37.068811,17.246167 37.088388,32 37.088388,32 L 22.160133,31.978069 C 22.160133,31.978069 26.997745,27.140456 26.997745,27.140456 C 18.528582,18.264221 13.291696,25.230495 11.500037,31.436501 z"
             style="fill:#404040;"/>
          </a>
         </g>
        </svg>
</svg>
