<?xml version="1.0" encoding="UTF-8" standalone="no"?>
<!DOCTYPE svg PUBLIC "-//W3C//DTD SVG 1.1//EN"
 "http://www.w3.org/Graphics/SVG/1.1/DTD/svg11.dtd">
<!-- Generated by graphviz version 2.38.0 (20140413.2041)
 -->
<!-- Title: SetFrequencyCGEN Pages: 1 -->
<!--zoomable 256 -->
<svg id="main" version="1.1" xmlns="http://www.w3.org/2000/svg" xmlns:xlink="http://www.w3.org/1999/xlink" xml:space="preserve" onload="init(evt)">
<style type="text/css"><![CDATA[
.edge:hover path { stroke: red; }
.edge:hover polygon { stroke: red; fill: red; }
]]></style>
<script type="text/javascript"><![CDATA[
var edges = document.getElementsByTagName('g');
if (edges && edges.length) {
  for (var i=0;i<edges.length;i++) {
    if (edges[i].id.substr(0,4)=='edge') {
      edges[i].setAttribute('class','edge');
    }
  }
}
]]></script>
        <defs>
                <circle id="rim" cx="0" cy="0" r="7"/>
                <circle id="rim2" cx="0" cy="0" r="3.5"/>
                <g id="zoomPlus">
                        <use xlink:href="#rim" fill="#404040">
                                <set attributeName="fill" to="#808080" begin="zoomplus.mouseover" end="zoomplus.mouseout"/>
                        </use>
                        <path d="M-4,0h8M0,-4v8" fill="none" stroke="white" stroke-width="1.5" pointer-events="none"/>
                </g>
                <g id="zoomMin">
                        <use xlink:href="#rim" fill="#404040">
                                <set attributeName="fill" to="#808080" begin="zoomminus.mouseover" end="zoomminus.mouseout"/>
                        </use>
                        <path d="M-4,0h8" fill="none" stroke="white" stroke-width="1.5" pointer-events="none"/>
                </g>
                <g id="dirArrow">
                        <path fill="none" stroke="white" stroke-width="1.5" d="M0,-3.0v7 M-2.5,-0.5L0,-3.0L2.5,-0.5"/>
                </g>
               <g id="resetDef">
                       <use xlink:href="#rim2" fill="#404040">
                               <set attributeName="fill" to="#808080" begin="reset.mouseover" end="reset.mouseout"/>
                       </use>
               </g>
        </defs>

<script type="text/javascript">
var viewWidth = 686;
var viewHeight = 256;
var sectionId = 'dynsection-22';
</script>
<script xlink:href="../../svgpan.js"/>
<svg id="graph" class="graph">
<g id="viewport">
<title>SetFrequencyCGEN</title>
<polygon fill="white" stroke="none" points="-4,4 -4,-252 682,-252 682,4 -4,4"/>
<!-- Node1 -->
<g id="node1" class="node"><title>Node1</title>
<polygon fill="#bfbfbf" stroke="black" points="0,-124.5 0,-143.5 107,-143.5 107,-124.5 0,-124.5"/>
<text text-anchor="middle" x="53.5" y="-131.5" font-family="Helvetica,sans-Serif" font-size="10.00">SetFrequencyCGEN</text>
</g>
<!-- Node2 -->
<g id="node2" class="node"><title>Node2</title>
<g id="a_node2"><a xlink:href="../../d2/da6/lms7002m__filters_8c.html#a2932fa7b7abd57355fb40dcf30270187" target="_top" xlink:title="ConfigCGEN_ForLPF_IF">
<polygon fill="white" stroke="black" points="143,-152.5 143,-171.5 269,-171.5 269,-152.5 143,-152.5"/>
<text text-anchor="middle" x="206" y="-159.5" font-family="Helvetica,sans-Serif" font-size="10.00">ConfigCGEN_ForLPF_IF</text>
</a>
</g>
</g>
<!-- Node1&#45;&gt;Node2 -->
<g id="edge1" class="edge"><title>Node1&#45;&gt;Node2</title>
<path fill="none" stroke="midnightblue" d="M115.853,-145.414C128.477,-147.763 141.642,-150.212 153.859,-152.485"/>
<polygon fill="midnightblue" stroke="midnightblue" points="116.344,-141.946 105.873,-143.558 115.064,-148.828 116.344,-141.946"/>
</g>
<!-- Node10 -->
<g id="node10" class="node"><title>Node10</title>
<g id="a_node10"><a xlink:href="../../d3/dec/lms7002m__calibrations_8c.html#a42909940a5d69231e9e987ca534e20c8" target="_top" xlink:title="SetupCGEN">
<polygon fill="white" stroke="black" points="170.5,-105.5 170.5,-124.5 241.5,-124.5 241.5,-105.5 170.5,-105.5"/>
<text text-anchor="middle" x="206" y="-112.5" font-family="Helvetica,sans-Serif" font-size="10.00">SetupCGEN</text>
</a>
</g>
</g>
<!-- Node1&#45;&gt;Node10 -->
<g id="edge11" class="edge"><title>Node1&#45;&gt;Node10</title>
<path fill="none" stroke="midnightblue" d="M117.071,-126.101C135.189,-123.813 154.317,-121.399 170.088,-119.407"/>
<polygon fill="midnightblue" stroke="midnightblue" points="116.62,-122.63 107.138,-127.355 117.497,-129.575 116.62,-122.63"/>
</g>
<!-- Node3 -->
<g id="node3" class="node"><title>Node3</title>
<g id="a_node3"><a xlink:href="../../d2/da6/lms7002m__filters_8c.html#a0b0fba102366e901abb3ea5a08d8d373" target="_top" xlink:title="TuneRxFilterSetup">
<polygon fill="white" stroke="black" points="305,-190.5 305,-209.5 403,-209.5 403,-190.5 305,-190.5"/>
<text text-anchor="middle" x="354" y="-197.5" font-family="Helvetica,sans-Serif" font-size="10.00">TuneRxFilterSetup</text>
</a>
</g>
</g>
<!-- Node2&#45;&gt;Node3 -->
<g id="edge2" class="edge"><title>Node2&#45;&gt;Node3</title>
<path fill="none" stroke="midnightblue" d="M253.536,-174.112C273.87,-179.404 297.371,-185.521 316.423,-190.48"/>
<polygon fill="midnightblue" stroke="midnightblue" points="254.401,-170.721 243.842,-171.589 252.638,-177.495 254.401,-170.721"/>
</g>
<!-- Node8 -->
<g id="node8" class="node"><title>Node8</title>
<g id="a_node8"><a xlink:href="../../d2/da6/lms7002m__filters_8c.html#af1361ae85c78643bf99447e7251304fb" target="_top" xlink:title="TuneTxFilterSetup">
<polygon fill="white" stroke="black" points="305.5,-152.5 305.5,-171.5 402.5,-171.5 402.5,-152.5 305.5,-152.5"/>
<text text-anchor="middle" x="354" y="-159.5" font-family="Helvetica,sans-Serif" font-size="10.00">TuneTxFilterSetup</text>
</a>
</g>
</g>
<!-- Node2&#45;&gt;Node8 -->
<g id="edge7" class="edge"><title>Node2&#45;&gt;Node8</title>
<path fill="none" stroke="midnightblue" d="M279.606,-162C288.38,-162 297.162,-162 305.443,-162"/>
<polygon fill="midnightblue" stroke="midnightblue" points="279.341,-158.5 269.341,-162 279.341,-165.5 279.341,-158.5"/>
</g>
<!-- Node4 -->
<g id="node4" class="node"><title>Node4</title>
<g id="a_node4"><a xlink:href="../../d8/d1f/lms7002m__filters_8h.html#a9424d257383be4943c2846bb47253bf3" target="_top" xlink:title="TuneRxFilter">
<polygon fill="white" stroke="black" points="439,-190.5 439,-209.5 512,-209.5 512,-190.5 439,-190.5"/>
<text text-anchor="middle" x="475.5" y="-197.5" font-family="Helvetica,sans-Serif" font-size="10.00">TuneRxFilter</text>
</a>
</g>
</g>
<!-- Node3&#45;&gt;Node4 -->
<g id="edge3" class="edge"><title>Node3&#45;&gt;Node4</title>
<path fill="none" stroke="midnightblue" d="M413.423,-200C422.133,-200 430.88,-200 438.924,-200"/>
<polygon fill="midnightblue" stroke="midnightblue" points="413.261,-196.5 403.261,-200 413.261,-203.5 413.261,-196.5"/>
</g>
<!-- Node5 -->
<g id="node5" class="node"><title>Node5</title>
<g id="a_node5"><a xlink:href="../../d0/d29/main_8c.html#acdef7a1fd863a6d3770c1268cb06add3" target="_top" xlink:title="main">
<polygon fill="white" stroke="black" points="640,-76.5 640,-95.5 678,-95.5 678,-76.5 640,-76.5"/>
<text text-anchor="middle" x="659" y="-83.5" font-family="Helvetica,sans-Serif" font-size="10.00">main</text>
</a>
</g>
</g>
<!-- Node4&#45;&gt;Node5 -->
<g id="edge4" class="edge"><title>Node4&#45;&gt;Node5</title>
<path fill="none" stroke="midnightblue" d="M522.037,-195.343C547.981,-190.872 579.996,-182.121 604,-165 629.563,-146.767 646.814,-112.397 654.093,-95.6547"/>
<polygon fill="midnightblue" stroke="midnightblue" points="521.397,-191.9 512.06,-196.906 522.481,-198.816 521.397,-191.9"/>
</g>
<!-- Node6 -->
<g id="node6" class="node"><title>Node6</title>
<g id="a_node6"><a xlink:href="../../dd/d0b/mcu__program_2host__src_2main_8cpp.html#ad4dcf2055b7114f8eacfa8cb11e5bbd5" target="_top" xlink:title="Filters">
<polygon fill="white" stroke="black" points="554,-228.5 554,-247.5 598,-247.5 598,-228.5 554,-228.5"/>
<text text-anchor="middle" x="576" y="-235.5" font-family="Helvetica,sans-Serif" font-size="10.00">Filters</text>
</a>
</g>
</g>
<!-- Node4&#45;&gt;Node6 -->
<g id="edge5" class="edge"><title>Node4&#45;&gt;Node6</title>
<path fill="none" stroke="midnightblue" d="M510.889,-213.267C525.181,-218.781 541.316,-225.005 553.824,-229.831"/>
<polygon fill="midnightblue" stroke="midnightblue" points="511.945,-209.923 501.356,-209.589 509.426,-216.454 511.945,-209.923"/>
</g>
<!-- Node7 -->
<g id="node7" class="node"><title>Node7</title>
<g id="a_node7"><a xlink:href="../../dd/d0b/mcu__program_2host__src_2main_8cpp.html#a3c04138a5bfe5d72780bb7e82a18e627" target="_top" xlink:title="main">
<polygon fill="white" stroke="black" points="640,-171.5 640,-190.5 678,-190.5 678,-171.5 640,-171.5"/>
<text text-anchor="middle" x="659" y="-178.5" font-family="Helvetica,sans-Serif" font-size="10.00">main</text>
</a>
</g>
</g>
<!-- Node6&#45;&gt;Node7 -->
<g id="edge6" class="edge"><title>Node6&#45;&gt;Node7</title>
<path fill="none" stroke="midnightblue" d="M599.161,-222.405C613.654,-212.206 632.119,-199.212 644.462,-190.526"/>
<polygon fill="midnightblue" stroke="midnightblue" points="596.904,-219.713 590.741,-228.331 600.933,-225.438 596.904,-219.713"/>
</g>
<!-- Node9 -->
<g id="node9" class="node"><title>Node9</title>
<g id="a_node9"><a xlink:href="../../d8/d1f/lms7002m__filters_8h.html#afa61c92a783434057226329fb950593e" target="_top" xlink:title="TuneTxFilter">
<polygon fill="white" stroke="black" points="440,-152.5 440,-171.5 511,-171.5 511,-152.5 440,-152.5"/>
<text text-anchor="middle" x="475.5" y="-159.5" font-family="Helvetica,sans-Serif" font-size="10.00">TuneTxFilter</text>
</a>
</g>
</g>
<!-- Node8&#45;&gt;Node9 -->
<g id="edge8" class="edge"><title>Node8&#45;&gt;Node9</title>
<path fill="none" stroke="midnightblue" d="M412.645,-162C421.992,-162 431.408,-162 439.976,-162"/>
<polygon fill="midnightblue" stroke="midnightblue" points="412.573,-158.5 402.573,-162 412.573,-165.5 412.573,-158.5"/>
</g>
<!-- Node9&#45;&gt;Node5 -->
<g id="edge9" class="edge"><title>Node9&#45;&gt;Node5</title>
<path fill="none" stroke="midnightblue" d="M521.266,-162.42C546.778,-160.974 578.617,-156.22 604,-143 625.52,-131.792 643.221,-108.613 652.009,-95.5286"/>
<polygon fill="midnightblue" stroke="midnightblue" points="520.961,-158.93 511.115,-162.844 521.252,-165.924 520.961,-158.93"/>
</g>
<!-- Node9&#45;&gt;Node6 -->
<g id="edge10" class="edge"><title>Node9&#45;&gt;Node6</title>
<path fill="none" stroke="midnightblue" d="M505.393,-176.683C507.67,-178.075 509.899,-179.521 512,-181 532.744,-195.605 554.053,-216.315 565.803,-228.334"/>
<polygon fill="midnightblue" stroke="midnightblue" points="506.959,-173.547 496.54,-171.628 503.488,-179.626 506.959,-173.547"/>
</g>
<!-- Node11 -->
<g id="node11" class="node"><title>Node11</title>
<g id="a_node11"><a xlink:href="../../d3/dec/lms7002m__calibrations_8c.html#a1d40cb80bcb3fc34aef71ce7f6dc74c2" target="_top" xlink:title="CalibrateRxSetup">
<polygon fill="white" stroke="black" points="307,-58.5 307,-77.5 401,-77.5 401,-58.5 307,-58.5"/>
<text text-anchor="middle" x="354" y="-65.5" font-family="Helvetica,sans-Serif" font-size="10.00">CalibrateRxSetup</text>
</a>
</g>
</g>
<!-- Node10&#45;&gt;Node11 -->
<g id="edge12" class="edge"><title>Node10&#45;&gt;Node11</title>
<path fill="none" stroke="midnightblue" d="M246.158,-102.394C270.388,-94.5942 301.007,-84.7376 323.248,-77.5776"/>
<polygon fill="midnightblue" stroke="midnightblue" points="244.992,-99.0928 236.545,-105.489 247.137,-105.756 244.992,-99.0928"/>
</g>
<!-- Node15 -->
<g id="node15" class="node"><title>Node15</title>
<g id="a_node15"><a xlink:href="../../d3/dec/lms7002m__calibrations_8c.html#af4dde95732a49a1d5b097d8214ed53ec" target="_top" xlink:title="CalibrateTxSetup">
<polygon fill="white" stroke="black" points="308,-105.5 308,-124.5 400,-124.5 400,-105.5 308,-105.5"/>
<text text-anchor="middle" x="354" y="-112.5" font-family="Helvetica,sans-Serif" font-size="10.00">CalibrateTxSetup</text>
</a>
</g>
</g>
<!-- Node10&#45;&gt;Node15 -->
<g id="edge19" class="edge"><title>Node10&#45;&gt;Node15</title>
<path fill="none" stroke="midnightblue" d="M251.74,-115C269.549,-115 290.013,-115 307.862,-115"/>
<polygon fill="midnightblue" stroke="midnightblue" points="251.6,-111.5 241.6,-115 251.6,-118.5 251.6,-111.5"/>
</g>
<!-- Node12 -->
<g id="node12" class="node"><title>Node12</title>
<g id="a_node12"><a xlink:href="../../d1/dc7/lms7002m__calibrations_8h.html#a69b1e143409bc9a1c0b53f360bf608cf" target="_top" xlink:title="CalibrateRx">
<polygon fill="white" stroke="black" points="441.5,-48.5 441.5,-67.5 509.5,-67.5 509.5,-48.5 441.5,-48.5"/>
<text text-anchor="middle" x="475.5" y="-55.5" font-family="Helvetica,sans-Serif" font-size="10.00">CalibrateRx</text>
</a>
</g>
</g>
<!-- Node11&#45;&gt;Node12 -->
<g id="edge13" class="edge"><title>Node11&#45;&gt;Node12</title>
<path fill="none" stroke="midnightblue" d="M411.385,-63.2816C421.658,-62.4219 432.064,-61.5511 441.384,-60.7712"/>
<polygon fill="midnightblue" stroke="midnightblue" points="410.875,-59.8119 401.202,-64.1337 411.459,-66.7876 410.875,-59.8119"/>
</g>
<!-- Node12&#45;&gt;Node5 -->
<g id="edge16" class="edge"><title>Node12&#45;&gt;Node5</title>
<path fill="none" stroke="midnightblue" d="M519.881,-61.1995C544.65,-63.416 576.211,-66.8996 604,-72 616.003,-74.2029 629.272,-77.6289 639.653,-80.5402"/>
<polygon fill="midnightblue" stroke="midnightblue" points="519.975,-57.6948 509.712,-60.326 519.376,-64.6691 519.975,-57.6948"/>
</g>
<!-- Node13 -->
<g id="node13" class="node"><title>Node13</title>
<g id="a_node13"><a xlink:href="../../dd/d0b/mcu__program_2host__src_2main_8cpp.html#a2bb1d2fcd6182ef32aff315f85d13c53" target="_top" xlink:title="DCIQ">
<polygon fill="white" stroke="black" points="555,-114.5 555,-133.5 597,-133.5 597,-114.5 555,-114.5"/>
<text text-anchor="middle" x="576" y="-121.5" font-family="Helvetica,sans-Serif" font-size="10.00">DCIQ</text>
</a>
</g>
</g>
<!-- Node12&#45;&gt;Node13 -->
<g id="edge14" class="edge"><title>Node12&#45;&gt;Node13</title>
<path fill="none" stroke="midnightblue" d="M499.411,-73.3513C518.355,-86.0452 544.667,-103.676 560.727,-114.436"/>
<polygon fill="midnightblue" stroke="midnightblue" points="501.29,-70.3974 491.034,-67.7385 497.393,-76.2127 501.29,-70.3974"/>
</g>
<!-- Node14 -->
<g id="node14" class="node"><title>Node14</title>
<g id="a_node14"><a xlink:href="../../d1/dc7/lms7002m__calibrations_8h.html#adce4a8efb4d0eb17b578b99489f4ef77" target="_top" xlink:title="RunAGC">
<polygon fill="white" stroke="black" points="548,-0.5 548,-19.5 604,-19.5 604,-0.5 548,-0.5"/>
<text text-anchor="middle" x="576" y="-7.5" font-family="Helvetica,sans-Serif" font-size="10.00">RunAGC</text>
</a>
</g>
</g>
<!-- Node12&#45;&gt;Node14 -->
<g id="edge17" class="edge"><title>Node12&#45;&gt;Node14</title>
<path fill="none" stroke="midnightblue" d="M505.438,-43.898C521.536,-36.0536 541.143,-26.4988 555.433,-19.5353"/>
<polygon fill="midnightblue" stroke="midnightblue" points="503.889,-40.7595 496.433,-48.2865 506.956,-47.0521 503.889,-40.7595"/>
</g>
<!-- Node13&#45;&gt;Node7 -->
<g id="edge15" class="edge"><title>Node13&#45;&gt;Node7</title>
<path fill="none" stroke="midnightblue" d="M599.161,-139.595C613.654,-149.794 632.119,-162.788 644.462,-171.474"/>
<polygon fill="midnightblue" stroke="midnightblue" points="600.933,-136.562 590.741,-133.669 596.904,-142.287 600.933,-136.562"/>
</g>
<!-- Node14&#45;&gt;Node5 -->
<g id="edge18" class="edge"><title>Node14&#45;&gt;Node5</title>
<path fill="none" stroke="midnightblue" d="M595.715,-26.4615C598.508,-28.9689 601.341,-31.5402 604,-34 619.667,-48.496 637.422,-65.7598 648.161,-76.296"/>
<polygon fill="midnightblue" stroke="midnightblue" points="597.922,-23.7407 588.124,-19.7101 593.27,-28.9712 597.922,-23.7407"/>
</g>
<!-- Node16 -->
<g id="node16" class="node"><title>Node16</title>
<g id="a_node16"><a xlink:href="../../d1/dc7/lms7002m__calibrations_8h.html#a208452a11189052c6dcd2fe639e4fcae" target="_top" xlink:title="CalibrateTx">
<polygon fill="white" stroke="black" points="442,-105.5 442,-124.5 509,-124.5 509,-105.5 442,-105.5"/>
<text text-anchor="middle" x="475.5" y="-112.5" font-family="Helvetica,sans-Serif" font-size="10.00">CalibrateTx</text>
</a>
</g>
</g>
<!-- Node15&#45;&gt;Node16 -->
<g id="edge20" class="edge"><title>Node15&#45;&gt;Node16</title>
<path fill="none" stroke="midnightblue" d="M410.413,-115C421.197,-115 432.17,-115 441.918,-115"/>
<polygon fill="midnightblue" stroke="midnightblue" points="410.178,-111.5 400.178,-115 410.178,-118.5 410.178,-111.5"/>
</g>
<!-- Node16&#45;&gt;Node5 -->
<g id="edge22" class="edge"><title>Node16&#45;&gt;Node5</title>
<path fill="none" stroke="midnightblue" d="M519.704,-108.097C557.948,-101.986 611.891,-93.3673 639.754,-88.9153"/>
<polygon fill="midnightblue" stroke="midnightblue" points="518.691,-104.714 509.368,-109.748 519.795,-111.627 518.691,-104.714"/>
</g>
<!-- Node16&#45;&gt;Node13 -->
<g id="edge21" class="edge"><title>Node16&#45;&gt;Node13</title>
<path fill="none" stroke="midnightblue" d="M519.227,-118.904C531.613,-120.036 544.558,-121.219 554.856,-122.159"/>
<polygon fill="midnightblue" stroke="midnightblue" points="519.303,-115.396 509.026,-117.972 518.666,-122.367 519.303,-115.396"/>
</g>
</g>
</svg>
        <g id="navigator" transform="translate(0 0)" fill="#404254">
                <rect fill="#f2f5e9" fill-opacity="0.5" stroke="#606060" stroke-width=".5" x="0" y="0" width="60" height="60"/>
                <use id="zoomplus" xlink:href="#zoomPlus" x="17" y="9" onmousedown="handleZoom(evt,'in')"/>
                <use id="zoomminus" xlink:href="#zoomMin" x="42" y="9" onmousedown="handleZoom(evt,'out')"/>
                <use id="reset" xlink:href="#resetDef" x="30" y="36" onmousedown="handleReset()"/>
                <g id="arrowUp" xlink:href="#dirArrow" transform="translate(30 24)" onmousedown="handlePan(0,-1)">
                  <use xlink:href="#rim" fill="#404040">
                        <set attributeName="fill" to="#808080" begin="arrowUp.mouseover" end="arrowUp.mouseout"/>
                  </use>
                  <path fill="none" stroke="white" stroke-width="1.5" d="M0,-3.0v7 M-2.5,-0.5L0,-3.0L2.5,-0.5"/>
                </g>
                <g id="arrowRight" xlink:href="#dirArrow" transform="rotate(90) translate(36 -43)" onmousedown="handlePan(1,0)">
                  <use xlink:href="#rim" fill="#404040">
                        <set attributeName="fill" to="#808080" begin="arrowRight.mouseover" end="arrowRight.mouseout"/>
                  </use>
                  <path fill="none" stroke="white" stroke-width="1.5" d="M0,-3.0v7 M-2.5,-0.5L0,-3.0L2.5,-0.5"/>
                </g>
                <g id="arrowDown" xlink:href="#dirArrow" transform="rotate(180) translate(-30 -48)" onmousedown="handlePan(0,1)">
                  <use xlink:href="#rim" fill="#404040">
                        <set attributeName="fill" to="#808080" begin="arrowDown.mouseover" end="arrowDown.mouseout"/>
                  </use>
                  <path fill="none" stroke="white" stroke-width="1.5" d="M0,-3.0v7 M-2.5,-0.5L0,-3.0L2.5,-0.5"/>
                </g>
                <g id="arrowLeft" xlink:href="#dirArrow" transform="rotate(270) translate(-36 17)" onmousedown="handlePan(-1,0)">
                  <use xlink:href="#rim" fill="#404040">
                        <set attributeName="fill" to="#808080" begin="arrowLeft.mouseover" end="arrowLeft.mouseout"/>
                  </use>
                  <path fill="none" stroke="white" stroke-width="1.5" d="M0,-3.0v7 M-2.5,-0.5L0,-3.0L2.5,-0.5"/>
                </g>
        </g>
        <svg viewBox="0 0 15 15" width="100%" height="30px" preserveAspectRatio="xMaxYMin meet">
         <g id="arrow_out" transform="scale(0.3 0.3)">
          <a xlink:href="lms7002m__controls_8c_a642726a10aa97f369c0dcb7d1480c875_icgraph_org.svg" target="_base">
           <rect id="button" ry="5" rx="5" y="6" x="6" height="38" width="38"
                fill="#f2f5e9" fill-opacity="0.5" stroke="#606060" stroke-width="1.0"/>
           <path id="arrow"
             d="M 11.500037,31.436501 C 11.940474,20.09759 22.043105,11.32322 32.158766,21.979434 L 37.068811,17.246167 C 37.068811,17.246167 37.088388,32 37.088388,32 L 22.160133,31.978069 C 22.160133,31.978069 26.997745,27.140456 26.997745,27.140456 C 18.528582,18.264221 13.291696,25.230495 11.500037,31.436501 z"
             style="fill:#404040;"/>
          </a>
         </g>
        </svg>
</svg>
