<?xml version="1.0" encoding="UTF-8" standalone="no"?>
<!DOCTYPE svg PUBLIC "-//W3C//DTD SVG 1.1//EN"
 "http://www.w3.org/Graphics/SVG/1.1/DTD/svg11.dtd">
<!-- Generated by graphviz version 2.38.0 (20140413.2041)
 -->
<!-- Title: EnableChannelPowerControls Pages: 1 -->
<svg width="250pt" height="66pt"
 viewBox="0.00 0.00 250.00 66.00" xmlns="http://www.w3.org/2000/svg" xmlns:xlink="http://www.w3.org/1999/xlink">
<g id="graph0" class="graph" transform="scale(1 1) rotate(0) translate(4 62)">
<title>EnableChannelPowerControls</title>
<polygon fill="white" stroke="none" points="-4,4 -4,-62 246,-62 246,4 -4,4"/>
<!-- Node1 -->
<g id="node1" class="node"><title>Node1</title>
<polygon fill="#bfbfbf" stroke="black" points="0,-19.5 0,-38.5 147,-38.5 147,-19.5 0,-19.5"/>
<text text-anchor="middle" x="73.5" y="-26.5" font-family="Helvetica,sans-Serif" font-size="10.00">EnableChannelPowerControls</text>
</g>
<!-- Node2 -->
<g id="node2" class="node"><title>Node2</title>
<g id="a_node2"><a xlink:href="../../da/d87/spi_8h.html#abde20a13293589ccb0a691e2711098bf" target="_top" xlink:title="SPI_read">
<polygon fill="white" stroke="black" points="184,-38.5 184,-57.5 241,-57.5 241,-38.5 184,-38.5"/>
<text text-anchor="middle" x="212.5" y="-45.5" font-family="Helvetica,sans-Serif" font-size="10.00">SPI_read</text>
</a>
</g>
</g>
<!-- Node1&#45;&gt;Node2 -->
<g id="edge1" class="edge"><title>Node1&#45;&gt;Node2</title>
<path fill="none" stroke="midnightblue" d="M143.401,-38.5557C153.858,-40.0059 164.303,-41.4544 173.76,-42.766"/>
<polygon fill="midnightblue" stroke="midnightblue" points="173.581,-46.2745 183.967,-44.1815 174.542,-39.3409 173.581,-46.2745"/>
</g>
<!-- Node3 -->
<g id="node3" class="node"><title>Node3</title>
<g id="a_node3"><a xlink:href="../../da/d87/spi_8h.html#ac7475dd5b46ee34421fb4cc4fb228b4d" target="_top" xlink:title="SPI_write">
<polygon fill="white" stroke="black" points="183,-0.5 183,-19.5 242,-19.5 242,-0.5 183,-0.5"/>
<text text-anchor="middle" x="212.5" y="-7.5" font-family="Helvetica,sans-Serif" font-size="10.00">SPI_write</text>
</a>
</g>
</g>
<!-- Node1&#45;&gt;Node3 -->
<g id="edge2" class="edge"><title>Node1&#45;&gt;Node3</title>
<path fill="none" stroke="midnightblue" d="M143.401,-19.4443C153.568,-18.0344 163.723,-16.626 172.97,-15.3436"/>
<polygon fill="midnightblue" stroke="midnightblue" points="173.553,-18.7964 182.977,-13.9557 172.591,-11.8627 173.553,-18.7964"/>
</g>
</g>
</svg>
