<?xml version="1.0" encoding="UTF-8" standalone="no"?>
<!DOCTYPE svg PUBLIC "-//W3C//DTD SVG 1.1//EN"
 "http://www.w3.org/Graphics/SVG/1.1/DTD/svg11.dtd">
<!-- Generated by graphviz version 2.38.0 (20140413.2041)
 -->
<!-- Title: /home/erik/prefix/default/src/limesuite&#45;dev/src/LMS_Programing/LMS_Programing_wxgui.h Pages: 1 -->
<svg width="459pt" height="229pt"
 viewBox="0.00 0.00 458.50 229.00" xmlns="http://www.w3.org/2000/svg" xmlns:xlink="http://www.w3.org/1999/xlink">
<g id="graph0" class="graph" transform="scale(1 1) rotate(0) translate(4 225)">
<title>/home/erik/prefix/default/src/limesuite&#45;dev/src/LMS_Programing/LMS_Programing_wxgui.h</title>
<polygon fill="white" stroke="none" points="-4,4 -4,-225 454.5,-225 454.5,4 -4,4"/>
<!-- Node1 -->
<g id="node1" class="node"><title>Node1</title>
<polygon fill="#bfbfbf" stroke="black" points="121,-168.5 121,-220.5 294,-220.5 294,-168.5 121,-168.5"/>
<text text-anchor="start" x="129" y="-208.5" font-family="Helvetica,sans-Serif" font-size="10.00">/home/erik/prefix/default</text>
<text text-anchor="start" x="129" y="-197.5" font-family="Helvetica,sans-Serif" font-size="10.00">/src/limesuite&#45;dev/src</text>
<text text-anchor="start" x="129" y="-186.5" font-family="Helvetica,sans-Serif" font-size="10.00">/LMS_Programing/LMS_Programing</text>
<text text-anchor="middle" x="207.5" y="-175.5" font-family="Helvetica,sans-Serif" font-size="10.00">_wxgui.h</text>
</g>
<!-- Node2 -->
<g id="node2" class="node"><title>Node2</title>
<polygon fill="white" stroke="#bfbfbf" points="0,-112.5 0,-131.5 65,-131.5 65,-112.5 0,-112.5"/>
<text text-anchor="middle" x="32.5" y="-119.5" font-family="Helvetica,sans-Serif" font-size="10.00">wx/frame.h</text>
</g>
<!-- Node1&#45;&gt;Node2 -->
<g id="edge1" class="edge"><title>Node1&#45;&gt;Node2</title>
<path fill="none" stroke="midnightblue" d="M145.309,-168.446C117.41,-157.207 85.7561,-144.455 63.0946,-135.325"/>
<polygon fill="midnightblue" stroke="midnightblue" points="64.2497,-132.017 53.6662,-131.527 61.634,-138.51 64.2497,-132.017"/>
</g>
<!-- Node3 -->
<g id="node3" class="node"><title>Node3</title>
<polygon fill="white" stroke="#bfbfbf" points="83,-112.5 83,-131.5 136,-131.5 136,-112.5 83,-112.5"/>
<text text-anchor="middle" x="109.5" y="-119.5" font-family="Helvetica,sans-Serif" font-size="10.00">wx/wx.h</text>
</g>
<!-- Node1&#45;&gt;Node3 -->
<g id="edge2" class="edge"><title>Node1&#45;&gt;Node3</title>
<path fill="none" stroke="midnightblue" d="M172.673,-168.446C158.329,-158.127 142.213,-146.533 129.848,-137.638"/>
<polygon fill="midnightblue" stroke="midnightblue" points="131.749,-134.694 121.587,-131.695 127.661,-140.376 131.749,-134.694"/>
</g>
<!-- Node4 -->
<g id="node4" class="node"><title>Node4</title>
<polygon fill="white" stroke="#bfbfbf" points="154.5,-112.5 154.5,-131.5 198.5,-131.5 198.5,-112.5 154.5,-112.5"/>
<text text-anchor="middle" x="176.5" y="-119.5" font-family="Helvetica,sans-Serif" font-size="10.00">thread</text>
</g>
<!-- Node1&#45;&gt;Node4 -->
<g id="edge3" class="edge"><title>Node1&#45;&gt;Node4</title>
<path fill="none" stroke="midnightblue" d="M196.483,-168.446C192.475,-159.329 188.028,-149.217 184.349,-140.851"/>
<polygon fill="midnightblue" stroke="midnightblue" points="187.553,-139.441 180.324,-131.695 181.145,-142.258 187.553,-139.441"/>
</g>
<!-- Node5 -->
<g id="node5" class="node"><title>Node5</title>
<polygon fill="white" stroke="#bfbfbf" points="216.5,-112.5 216.5,-131.5 262.5,-131.5 262.5,-112.5 216.5,-112.5"/>
<text text-anchor="middle" x="239.5" y="-119.5" font-family="Helvetica,sans-Serif" font-size="10.00">atomic</text>
</g>
<!-- Node1&#45;&gt;Node5 -->
<g id="edge4" class="edge"><title>Node1&#45;&gt;Node5</title>
<path fill="none" stroke="midnightblue" d="M218.872,-168.446C223.01,-159.329 227.6,-149.217 231.397,-140.851"/>
<polygon fill="midnightblue" stroke="midnightblue" points="234.607,-142.248 235.553,-131.695 228.233,-139.355 234.607,-142.248"/>
</g>
<!-- Node6 -->
<g id="node6" class="node"><title>Node6</title>
<polygon fill="white" stroke="#bfbfbf" points="280.5,-112.5 280.5,-131.5 324.5,-131.5 324.5,-112.5 280.5,-112.5"/>
<text text-anchor="middle" x="302.5" y="-119.5" font-family="Helvetica,sans-Serif" font-size="10.00">vector</text>
</g>
<!-- Node1&#45;&gt;Node6 -->
<g id="edge5" class="edge"><title>Node1&#45;&gt;Node6</title>
<path fill="none" stroke="midnightblue" d="M241.261,-168.446C255.03,-158.227 270.485,-146.758 282.424,-137.898"/>
<polygon fill="midnightblue" stroke="midnightblue" points="284.838,-140.465 290.783,-131.695 280.667,-134.844 284.838,-140.465"/>
</g>
<!-- Node7 -->
<g id="node7" class="node"><title>Node7</title>
<g id="a_node7"><a xlink:href="../../d5/d07/LimeSuite_8h.html" target="_top" xlink:title="LMS API library. ">
<polygon fill="white" stroke="black" points="342,-112.5 342,-131.5 431,-131.5 431,-112.5 342,-112.5"/>
<text text-anchor="middle" x="386.5" y="-119.5" font-family="Helvetica,sans-Serif" font-size="10.00">lime/LimeSuite.h</text>
</a>
</g>
</g>
<!-- Node1&#45;&gt;Node7 -->
<g id="edge6" class="edge"><title>Node1&#45;&gt;Node7</title>
<path fill="none" stroke="midnightblue" d="M271.113,-168.446C299.777,-157.156 332.317,-144.34 355.517,-135.203"/>
<polygon fill="midnightblue" stroke="midnightblue" points="356.828,-138.448 364.85,-131.527 354.263,-131.935 356.828,-138.448"/>
</g>
<!-- Node8 -->
<g id="node8" class="node"><title>Node8</title>
<g id="a_node8"><a xlink:href="../../d1/d2e/LMS7002M__parameters_8h.html" target="_top" xlink:title="List of LMS7002M transceiver control parameters. ">
<polygon fill="white" stroke="black" points="322.5,-56.5 322.5,-75.5 450.5,-75.5 450.5,-56.5 322.5,-56.5"/>
<text text-anchor="middle" x="386.5" y="-63.5" font-family="Helvetica,sans-Serif" font-size="10.00">LMS7002M_parameters.h</text>
</a>
</g>
</g>
<!-- Node7&#45;&gt;Node8 -->
<g id="edge7" class="edge"><title>Node7&#45;&gt;Node8</title>
<path fill="none" stroke="midnightblue" d="M386.5,-112.083C386.5,-105.006 386.5,-94.8611 386.5,-85.9865"/>
<polygon fill="midnightblue" stroke="midnightblue" points="390,-85.751 386.5,-75.7511 383,-85.7511 390,-85.751"/>
</g>
<!-- Node9 -->
<g id="node9" class="node"><title>Node9</title>
<polygon fill="white" stroke="#bfbfbf" points="362,-0.5 362,-19.5 411,-19.5 411,-0.5 362,-0.5"/>
<text text-anchor="middle" x="386.5" y="-7.5" font-family="Helvetica,sans-Serif" font-size="10.00">stdint.h</text>
</g>
<!-- Node8&#45;&gt;Node9 -->
<g id="edge8" class="edge"><title>Node8&#45;&gt;Node9</title>
<path fill="none" stroke="midnightblue" d="M386.5,-56.083C386.5,-49.0059 386.5,-38.8611 386.5,-29.9865"/>
<polygon fill="midnightblue" stroke="midnightblue" points="390,-29.751 386.5,-19.7511 383,-29.7511 390,-29.751"/>
</g>
</g>
</svg>
