<?xml version="1.0" encoding="UTF-8" standalone="no"?>
<!DOCTYPE svg PUBLIC "-//W3C//DTD SVG 1.1//EN"
 "http://www.w3.org/Graphics/SVG/1.1/DTD/svg11.dtd">
<!-- Generated by graphviz version 2.38.0 (20140413.2041)
 -->
<!-- Title: LMS7SuiteAppFrame::OnShowDeviceInfo Pages: 1 -->
<!--zoomable 522 -->
<svg id="main" version="1.1" xmlns="http://www.w3.org/2000/svg" xmlns:xlink="http://www.w3.org/1999/xlink" xml:space="preserve" onload="init(evt)">
<style type="text/css"><![CDATA[
.edge:hover path { stroke: red; }
.edge:hover polygon { stroke: red; fill: red; }
]]></style>
<script type="text/javascript"><![CDATA[
var edges = document.getElementsByTagName('g');
if (edges && edges.length) {
  for (var i=0;i<edges.length;i++) {
    if (edges[i].id.substr(0,4)=='edge') {
      edges[i].setAttribute('class','edge');
    }
  }
}
]]></script>
        <defs>
                <circle id="rim" cx="0" cy="0" r="7"/>
                <circle id="rim2" cx="0" cy="0" r="3.5"/>
                <g id="zoomPlus">
                        <use xlink:href="#rim" fill="#404040">
                                <set attributeName="fill" to="#808080" begin="zoomplus.mouseover" end="zoomplus.mouseout"/>
                        </use>
                        <path d="M-4,0h8M0,-4v8" fill="none" stroke="white" stroke-width="1.5" pointer-events="none"/>
                </g>
                <g id="zoomMin">
                        <use xlink:href="#rim" fill="#404040">
                                <set attributeName="fill" to="#808080" begin="zoomminus.mouseover" end="zoomminus.mouseout"/>
                        </use>
                        <path d="M-4,0h8" fill="none" stroke="white" stroke-width="1.5" pointer-events="none"/>
                </g>
                <g id="dirArrow">
                        <path fill="none" stroke="white" stroke-width="1.5" d="M0,-3.0v7 M-2.5,-0.5L0,-3.0L2.5,-0.5"/>
                </g>
               <g id="resetDef">
                       <use xlink:href="#rim2" fill="#404040">
                               <set attributeName="fill" to="#808080" begin="reset.mouseover" end="reset.mouseout"/>
                       </use>
               </g>
        </defs>

<script type="text/javascript">
var viewWidth = 632;
var viewHeight = 522;
var sectionId = 'dynsection-26';
</script>
<script xlink:href="../../svgpan.js"/>
<svg id="graph" class="graph">
<g id="viewport">
<title>LMS7SuiteAppFrame::OnShowDeviceInfo</title>
<polygon fill="white" stroke="none" points="-4,4 -4,-518 628,-518 628,4 -4,4"/>
<!-- Node1 -->
<g id="node1" class="node"><title>Node1</title>
<polygon fill="#bfbfbf" stroke="black" points="0,-220 0,-250 116,-250 116,-220 0,-220"/>
<text text-anchor="start" x="8" y="-238" font-family="Helvetica,sans-Serif" font-size="10.00">LMS7SuiteAppFrame::</text>
<text text-anchor="middle" x="58" y="-227" font-family="Helvetica,sans-Serif" font-size="10.00">OnShowDeviceInfo</text>
</g>
<!-- Node2 -->
<g id="node2" class="node"><title>Node2</title>
<g id="a_node2"><a xlink:href="../../d8/d18/classdlgDeviceInfo.html#a052751fb7446a603fc2638b9f900232e" target="_top" xlink:title="dlgDeviceInfo::Initialize">
<polygon fill="white" stroke="black" points="152,-247.5 152,-266.5 271,-266.5 271,-247.5 152,-247.5"/>
<text text-anchor="middle" x="211.5" y="-254.5" font-family="Helvetica,sans-Serif" font-size="10.00">dlgDeviceInfo::Initialize</text>
</a>
</g>
</g>
<!-- Node1&#45;&gt;Node2 -->
<g id="edge1" class="edge"><title>Node1&#45;&gt;Node2</title>
<path fill="none" stroke="midnightblue" d="M116.276,-243.317C124.647,-244.533 133.339,-245.795 141.908,-247.039"/>
<polygon fill="midnightblue" stroke="midnightblue" points="141.485,-250.515 151.884,-248.488 142.491,-243.587 141.485,-250.515"/>
</g>
<!-- Node23 -->
<g id="node23" class="node"><title>Node23</title>
<g id="a_node23"><a xlink:href="../../d1/df3/classLMS7SuiteAppFrame.html#a18024f85f094755e9c73a6bc447d7810" target="_top" xlink:title="LMS7SuiteAppFrame::\lOnDeviceInfoClose">
<polygon fill="white" stroke="black" points="153.5,-198 153.5,-228 269.5,-228 269.5,-198 153.5,-198"/>
<text text-anchor="start" x="161.5" y="-216" font-family="Helvetica,sans-Serif" font-size="10.00">LMS7SuiteAppFrame::</text>
<text text-anchor="middle" x="211.5" y="-205" font-family="Helvetica,sans-Serif" font-size="10.00">OnDeviceInfoClose</text>
</a>
</g>
</g>
<!-- Node1&#45;&gt;Node23 -->
<g id="edge25" class="edge"><title>Node1&#45;&gt;Node23</title>
<path fill="none" stroke="midnightblue" d="M116.276,-226.683C125.103,-225.401 134.288,-224.067 143.308,-222.757"/>
<polygon fill="midnightblue" stroke="midnightblue" points="144.002,-226.193 153.395,-221.293 142.995,-219.266 144.002,-226.193"/>
</g>
<!-- Node3 -->
<g id="node3" class="node"><title>Node3</title>
<g id="a_node3"><a xlink:href="../../d4/d67/lms_8c.html#a0e01e477b1f10e0a63e54de2dd2f8240" target="_top" xlink:title="lms">
<polygon fill="white" stroke="black" points="307,-247.5 307,-266.5 339,-266.5 339,-247.5 307,-247.5"/>
<text text-anchor="middle" x="323" y="-254.5" font-family="Helvetica,sans-Serif" font-size="10.00">lms</text>
</a>
</g>
</g>
<!-- Node2&#45;&gt;Node3 -->
<g id="edge2" class="edge"><title>Node2&#45;&gt;Node3</title>
<path fill="none" stroke="midnightblue" d="M271.097,-257C280.083,-257 288.93,-257 296.663,-257"/>
<polygon fill="midnightblue" stroke="midnightblue" points="296.753,-260.5 306.753,-257 296.753,-253.5 296.753,-260.5"/>
</g>
<!-- Node4 -->
<g id="node4" class="node"><title>Node4</title>
<g id="a_node4"><a xlink:href="../../d4/d67/lms_8c.html#a433227191fe883dcb8aa15d291bb29a1" target="_top" xlink:title="Case1F">
<polygon fill="white" stroke="black" points="383.5,-494.5 383.5,-513.5 434.5,-513.5 434.5,-494.5 383.5,-494.5"/>
<text text-anchor="middle" x="409" y="-501.5" font-family="Helvetica,sans-Serif" font-size="10.00">Case1F</text>
</a>
</g>
</g>
<!-- Node3&#45;&gt;Node4 -->
<g id="edge3" class="edge"><title>Node3&#45;&gt;Node4</title>
<path fill="none" stroke="midnightblue" d="M323.544,-266.791C322.469,-300.629 323.085,-414.425 375,-485 375.771,-486.048 376.619,-487.048 377.527,-488"/>
<polygon fill="midnightblue" stroke="midnightblue" points="375.426,-490.802 385.395,-494.388 379.838,-485.368 375.426,-490.802"/>
</g>
<!-- Node5 -->
<g id="node5" class="node"><title>Node5</title>
<g id="a_node5"><a xlink:href="../../d4/d67/lms_8c.html#ace0cd8bf61cb9b86b98f0cef03b5a9d9" target="_top" xlink:title="Case2F">
<polygon fill="white" stroke="black" points="383.5,-456.5 383.5,-475.5 434.5,-475.5 434.5,-456.5 383.5,-456.5"/>
<text text-anchor="middle" x="409" y="-463.5" font-family="Helvetica,sans-Serif" font-size="10.00">Case2F</text>
</a>
</g>
</g>
<!-- Node3&#45;&gt;Node5 -->
<g id="edge4" class="edge"><title>Node3&#45;&gt;Node5</title>
<path fill="none" stroke="midnightblue" d="M324.091,-266.821C324.857,-296.966 330.875,-389.593 375,-447 375.793,-448.032 376.659,-449.017 377.583,-449.958"/>
<polygon fill="midnightblue" stroke="midnightblue" points="375.521,-452.79 385.519,-456.295 379.889,-447.32 375.521,-452.79"/>
</g>
<!-- Node6 -->
<g id="node6" class="node"><title>Node6</title>
<g id="a_node6"><a xlink:href="../../d4/d67/lms_8c.html#a5f53b53ccc591e3643c4af2aee2e7f32" target="_top" xlink:title="Case3F">
<polygon fill="white" stroke="black" points="383.5,-418.5 383.5,-437.5 434.5,-437.5 434.5,-418.5 383.5,-418.5"/>
<text text-anchor="middle" x="409" y="-425.5" font-family="Helvetica,sans-Serif" font-size="10.00">Case3F</text>
</a>
</g>
</g>
<!-- Node3&#45;&gt;Node6 -->
<g id="edge5" class="edge"><title>Node3&#45;&gt;Node6</title>
<path fill="none" stroke="midnightblue" d="M324.878,-266.674C327.682,-292.552 338.5,-364.418 375,-409 375.942,-410.151 376.974,-411.246 378.072,-412.287"/>
<polygon fill="midnightblue" stroke="midnightblue" points="375.965,-415.082 386.036,-418.371 380.214,-409.519 375.965,-415.082"/>
</g>
<!-- Node7 -->
<g id="node7" class="node"><title>Node7</title>
<g id="a_node7"><a xlink:href="../../d4/d67/lms_8c.html#a5086763d5b258349bc13d6be7e7d0665" target="_top" xlink:title="Case4F">
<polygon fill="white" stroke="black" points="383.5,-380.5 383.5,-399.5 434.5,-399.5 434.5,-380.5 383.5,-380.5"/>
<text text-anchor="middle" x="409" y="-387.5" font-family="Helvetica,sans-Serif" font-size="10.00">Case4F</text>
</a>
</g>
</g>
<!-- Node3&#45;&gt;Node7 -->
<g id="edge6" class="edge"><title>Node3&#45;&gt;Node7</title>
<path fill="none" stroke="midnightblue" d="M326.158,-266.676C331.305,-287.854 346.081,-338.979 375,-371 376.025,-372.135 377.133,-373.219 378.303,-374.254"/>
<polygon fill="midnightblue" stroke="midnightblue" points="376.51,-377.278 386.65,-380.35 380.639,-371.626 376.51,-377.278"/>
</g>
<!-- Node8 -->
<g id="node8" class="node"><title>Node8</title>
<g id="a_node8"><a xlink:href="../../db/de5/recipes_8c.html#aee25e218394217a134e805ea09fb0fe9" target="_top" xlink:title="free_ivector">
<polygon fill="white" stroke="black" points="375,-342.5 375,-361.5 443,-361.5 443,-342.5 375,-342.5"/>
<text text-anchor="middle" x="409" y="-349.5" font-family="Helvetica,sans-Serif" font-size="10.00">free_ivector</text>
</a>
</g>
</g>
<!-- Node3&#45;&gt;Node8 -->
<g id="edge7" class="edge"><title>Node3&#45;&gt;Node8</title>
<path fill="none" stroke="midnightblue" d="M328.762,-266.919C336.632,-282.515 353.629,-313.047 375,-333 376.296,-334.21 377.682,-335.374 379.126,-336.49"/>
<polygon fill="midnightblue" stroke="midnightblue" points="377.54,-339.642 387.79,-342.321 381.448,-333.834 377.54,-339.642"/>
</g>
<!-- Node9 -->
<g id="node9" class="node"><title>Node9</title>
<g id="a_node9"><a xlink:href="../../db/de5/recipes_8c.html#a3e0d121b098c19c0bdc2429e5b9f1625" target="_top" xlink:title="free_matrix">
<polygon fill="white" stroke="black" points="376.5,-304.5 376.5,-323.5 441.5,-323.5 441.5,-304.5 376.5,-304.5"/>
<text text-anchor="middle" x="409" y="-311.5" font-family="Helvetica,sans-Serif" font-size="10.00">free_matrix</text>
</a>
</g>
</g>
<!-- Node3&#45;&gt;Node9 -->
<g id="edge8" class="edge"><title>Node3&#45;&gt;Node9</title>
<path fill="none" stroke="midnightblue" d="M338.249,-266.669C351.119,-275.402 370.28,-288.404 385.264,-298.572"/>
<polygon fill="midnightblue" stroke="midnightblue" points="383.721,-301.755 393.961,-304.474 387.651,-295.962 383.721,-301.755"/>
</g>
<!-- Node10 -->
<g id="node10" class="node"><title>Node10</title>
<g id="a_node10"><a xlink:href="../../db/de5/recipes_8c.html#a8214a52d888e820222c0382648329c0c" target="_top" xlink:title="free_vector">
<polygon fill="white" stroke="black" points="479,-247.5 479,-266.5 544,-266.5 544,-247.5 479,-247.5"/>
<text text-anchor="middle" x="511.5" y="-254.5" font-family="Helvetica,sans-Serif" font-size="10.00">free_vector</text>
</a>
</g>
</g>
<!-- Node3&#45;&gt;Node10 -->
<g id="edge9" class="edge"><title>Node3&#45;&gt;Node10</title>
<path fill="none" stroke="midnightblue" d="M339.262,-257C367.192,-257 427.425,-257 468.468,-257"/>
<polygon fill="midnightblue" stroke="midnightblue" points="468.716,-260.5 478.716,-257 468.716,-253.5 468.716,-260.5"/>
</g>
<!-- Node11 -->
<g id="node11" class="node"><title>Node11</title>
<g id="a_node11"><a xlink:href="../../d4/d67/lms_8c.html#ad1d6c875ff429888b51dd1155f0311ad" target="_top" xlink:title="ivector">
<polygon fill="white" stroke="black" points="386,-228.5 386,-247.5 432,-247.5 432,-228.5 386,-228.5"/>
<text text-anchor="middle" x="409" y="-235.5" font-family="Helvetica,sans-Serif" font-size="10.00">ivector</text>
</a>
</g>
</g>
<!-- Node3&#45;&gt;Node11 -->
<g id="edge10" class="edge"><title>Node3&#45;&gt;Node11</title>
<path fill="none" stroke="midnightblue" d="M339.018,-253.603C349.295,-251.279 363.31,-248.109 376.023,-245.233"/>
<polygon fill="midnightblue" stroke="midnightblue" points="376.863,-248.631 385.844,-243.011 375.318,-241.804 376.863,-248.631"/>
</g>
<!-- Node12 -->
<g id="node12" class="node"><title>Node12</title>
<g id="a_node12"><a xlink:href="../../db/de5/recipes_8c.html#a66ff65ad0355ec1f4a7722bcdafc8cd3" target="_top" xlink:title="lubksb">
<polygon fill="white" stroke="black" points="386.5,-190.5 386.5,-209.5 431.5,-209.5 431.5,-190.5 386.5,-190.5"/>
<text text-anchor="middle" x="409" y="-197.5" font-family="Helvetica,sans-Serif" font-size="10.00">lubksb</text>
</a>
</g>
</g>
<!-- Node3&#45;&gt;Node12 -->
<g id="edge11" class="edge"><title>Node3&#45;&gt;Node12</title>
<path fill="none" stroke="midnightblue" d="M336.28,-247.209C346.431,-239.273 361.343,-227.975 375,-219 377.127,-217.602 379.361,-216.195 381.621,-214.813"/>
<polygon fill="midnightblue" stroke="midnightblue" points="383.473,-217.784 390.299,-209.68 379.91,-211.759 383.473,-217.784"/>
</g>
<!-- Node13 -->
<g id="node13" class="node"><title>Node13</title>
<g id="a_node13"><a xlink:href="../../db/de5/recipes_8c.html#a623fec796d9d53e5e4a4d30226547da7" target="_top" xlink:title="ludcmp">
<polygon fill="white" stroke="black" points="385,-152.5 385,-171.5 433,-171.5 433,-152.5 385,-152.5"/>
<text text-anchor="middle" x="409" y="-159.5" font-family="Helvetica,sans-Serif" font-size="10.00">ludcmp</text>
</a>
</g>
</g>
<!-- Node3&#45;&gt;Node13 -->
<g id="edge12" class="edge"><title>Node3&#45;&gt;Node13</title>
<path fill="none" stroke="midnightblue" d="M328.762,-247.081C336.632,-231.485 353.629,-200.953 375,-181 376.296,-179.79 377.682,-178.626 379.126,-177.51"/>
<polygon fill="midnightblue" stroke="midnightblue" points="381.448,-180.166 387.79,-171.679 377.54,-174.358 381.448,-180.166"/>
</g>
<!-- Node16 -->
<g id="node16" class="node"><title>Node16</title>
<g id="a_node16"><a xlink:href="../../d4/d67/lms_8c.html#a37bcb1539d76b53344102435e2ab9c91" target="_top" xlink:title="matrix">
<polygon fill="white" stroke="black" points="387,-114.5 387,-133.5 431,-133.5 431,-114.5 387,-114.5"/>
<text text-anchor="middle" x="409" y="-121.5" font-family="Helvetica,sans-Serif" font-size="10.00">matrix</text>
</a>
</g>
</g>
<!-- Node3&#45;&gt;Node16 -->
<g id="edge17" class="edge"><title>Node3&#45;&gt;Node16</title>
<path fill="none" stroke="midnightblue" d="M326.158,-247.324C331.305,-226.146 346.081,-175.021 375,-143 376.158,-141.718 377.423,-140.5 378.761,-139.346"/>
<polygon fill="midnightblue" stroke="midnightblue" points="380.908,-142.113 386.993,-133.44 376.827,-136.426 380.908,-142.113"/>
</g>
<!-- Node17 -->
<g id="node17" class="node"><title>Node17</title>
<g id="a_node17"><a xlink:href="../../d8/d91/rounding_8c.html#aa8d7512cdf5bfbf811cef6a8a091c679" target="_top" xlink:title="round2csd">
<polygon fill="white" stroke="black" points="378,-76.5 378,-95.5 440,-95.5 440,-76.5 378,-76.5"/>
<text text-anchor="middle" x="409" y="-83.5" font-family="Helvetica,sans-Serif" font-size="10.00">round2csd</text>
</a>
</g>
</g>
<!-- Node3&#45;&gt;Node17 -->
<g id="edge18" class="edge"><title>Node3&#45;&gt;Node17</title>
<path fill="none" stroke="midnightblue" d="M324.878,-247.326C327.682,-221.448 338.5,-149.582 375,-105 375.942,-103.849 376.974,-102.754 378.072,-101.713"/>
<polygon fill="midnightblue" stroke="midnightblue" points="380.214,-104.481 386.036,-95.6288 375.965,-98.9182 380.214,-104.481"/>
</g>
<!-- Node21 -->
<g id="node21" class="node"><title>Node21</title>
<g id="a_node21"><a xlink:href="../../d8/d91/rounding_8c.html#aca2670cc0fbf948a6b9cb670047c9d5b" target="_top" xlink:title="round2int">
<polygon fill="white" stroke="black" points="381,-38.5 381,-57.5 437,-57.5 437,-38.5 381,-38.5"/>
<text text-anchor="middle" x="409" y="-45.5" font-family="Helvetica,sans-Serif" font-size="10.00">round2int</text>
</a>
</g>
</g>
<!-- Node3&#45;&gt;Node21 -->
<g id="edge22" class="edge"><title>Node3&#45;&gt;Node21</title>
<path fill="none" stroke="midnightblue" d="M324.091,-247.179C324.857,-217.034 330.875,-124.407 375,-67 375.793,-65.9681 376.659,-64.9825 377.583,-64.0423"/>
<polygon fill="midnightblue" stroke="midnightblue" points="379.889,-66.6798 385.519,-57.7045 375.521,-61.2101 379.889,-66.6798"/>
</g>
<!-- Node22 -->
<g id="node22" class="node"><title>Node22</title>
<g id="a_node22"><a xlink:href="../../d4/d67/lms_8c.html#ac81ca32708341eb34b25d515d00bc748" target="_top" xlink:title="vector">
<polygon fill="white" stroke="black" points="387,-0.5 387,-19.5 431,-19.5 431,-0.5 387,-0.5"/>
<text text-anchor="middle" x="409" y="-7.5" font-family="Helvetica,sans-Serif" font-size="10.00">vector</text>
</a>
</g>
</g>
<!-- Node3&#45;&gt;Node22 -->
<g id="edge24" class="edge"><title>Node3&#45;&gt;Node22</title>
<path fill="none" stroke="midnightblue" d="M323.544,-247.209C322.469,-213.371 323.085,-99.5748 375,-29 376.05,-27.5722 377.243,-26.235 378.536,-24.9852"/>
<polygon fill="midnightblue" stroke="midnightblue" points="380.898,-27.5869 386.755,-18.7588 376.671,-22.007 380.898,-27.5869"/>
</g>
<!-- Node13&#45;&gt;Node10 -->
<g id="edge13" class="edge"><title>Node13&#45;&gt;Node10</title>
<path fill="none" stroke="midnightblue" d="M429.186,-171.656C433.9,-174.397 438.797,-177.577 443,-181 464.243,-198.301 484.546,-222.569 497.236,-238.991"/>
<polygon fill="midnightblue" stroke="midnightblue" points="494.633,-241.352 503.46,-247.212 500.214,-237.127 494.633,-241.352"/>
</g>
<!-- Node14 -->
<g id="node14" class="node"><title>Node14</title>
<g id="a_node14"><a xlink:href="../../db/de5/recipes_8c.html#a208e98f19b2f252315399d02c0594a46" target="_top" xlink:title="nrerror">
<polygon fill="white" stroke="black" points="580,-171.5 580,-190.5 624,-190.5 624,-171.5 580,-171.5"/>
<text text-anchor="middle" x="602" y="-178.5" font-family="Helvetica,sans-Serif" font-size="10.00">nrerror</text>
</a>
</g>
</g>
<!-- Node13&#45;&gt;Node14 -->
<g id="edge14" class="edge"><title>Node13&#45;&gt;Node14</title>
<path fill="none" stroke="midnightblue" d="M433.306,-170.1C446.528,-174.267 463.486,-178.903 479,-181 509.534,-185.127 544.761,-184.564 569.488,-183.308"/>
<polygon fill="midnightblue" stroke="midnightblue" points="569.944,-186.788 579.726,-182.718 569.541,-179.799 569.944,-186.788"/>
</g>
<!-- Node15 -->
<g id="node15" class="node"><title>Node15</title>
<g id="a_node15"><a xlink:href="../../db/de5/recipes_8c.html#a5e6092211a5f7e2d6ae9282379d3c604" target="_top" xlink:title="vector">
<polygon fill="white" stroke="black" points="489.5,-152.5 489.5,-171.5 533.5,-171.5 533.5,-152.5 489.5,-152.5"/>
<text text-anchor="middle" x="511.5" y="-159.5" font-family="Helvetica,sans-Serif" font-size="10.00">vector</text>
</a>
</g>
</g>
<!-- Node13&#45;&gt;Node15 -->
<g id="edge15" class="edge"><title>Node13&#45;&gt;Node15</title>
<path fill="none" stroke="midnightblue" d="M433.057,-162C446.673,-162 464.102,-162 478.977,-162"/>
<polygon fill="midnightblue" stroke="midnightblue" points="479.265,-165.5 489.265,-162 479.265,-158.5 479.265,-165.5"/>
</g>
<!-- Node15&#45;&gt;Node14 -->
<g id="edge16" class="edge"><title>Node15&#45;&gt;Node14</title>
<path fill="none" stroke="midnightblue" d="M533.923,-166.599C544.685,-168.91 557.928,-171.753 569.796,-174.301"/>
<polygon fill="midnightblue" stroke="midnightblue" points="569.262,-177.766 579.774,-176.443 570.731,-170.922 569.262,-177.766"/>
</g>
<!-- Node18 -->
<g id="node18" class="node"><title>Node18</title>
<g id="a_node18"><a xlink:href="../../d8/d91/rounding_8c.html#a2cff6b77e73872659c44b0c99f6bd97f" target="_top" xlink:title="csd2int">
<polygon fill="white" stroke="black" points="487.5,-114.5 487.5,-133.5 535.5,-133.5 535.5,-114.5 487.5,-114.5"/>
<text text-anchor="middle" x="511.5" y="-121.5" font-family="Helvetica,sans-Serif" font-size="10.00">csd2int</text>
</a>
</g>
</g>
<!-- Node17&#45;&gt;Node18 -->
<g id="edge19" class="edge"><title>Node17&#45;&gt;Node18</title>
<path fill="none" stroke="midnightblue" d="M435.36,-95.589C448.181,-100.437 463.894,-106.378 477.631,-111.572"/>
<polygon fill="midnightblue" stroke="midnightblue" points="476.623,-114.933 487.214,-115.195 479.099,-108.385 476.623,-114.933"/>
</g>
<!-- Node19 -->
<g id="node19" class="node"><title>Node19</title>
<g id="a_node19"><a xlink:href="../../db/d82/wglew_8h.html#a500a82aecba06f4550f6849b8099ca21" target="_top" xlink:title="int">
<polygon fill="white" stroke="black" points="497,-38.5 497,-57.5 526,-57.5 526,-38.5 497,-38.5"/>
<text text-anchor="middle" x="511.5" y="-45.5" font-family="Helvetica,sans-Serif" font-size="10.00">int</text>
</a>
</g>
</g>
<!-- Node17&#45;&gt;Node19 -->
<g id="edge20" class="edge"><title>Node17&#45;&gt;Node19</title>
<path fill="none" stroke="midnightblue" d="M435.36,-76.411C451.388,-70.3509 471.934,-62.582 487.49,-56.7003"/>
<polygon fill="midnightblue" stroke="midnightblue" points="488.778,-59.9552 496.894,-53.1446 486.302,-53.4076 488.778,-59.9552"/>
</g>
<!-- Node20 -->
<g id="node20" class="node"><title>Node20</title>
<g id="a_node20"><a xlink:href="../../d8/d91/rounding_8c.html#ab3a64ec72c5600bc114621e93309c8c3" target="_top" xlink:title="int2csd">
<polygon fill="white" stroke="black" points="487.5,-76.5 487.5,-95.5 535.5,-95.5 535.5,-76.5 487.5,-76.5"/>
<text text-anchor="middle" x="511.5" y="-83.5" font-family="Helvetica,sans-Serif" font-size="10.00">int2csd</text>
</a>
</g>
</g>
<!-- Node17&#45;&gt;Node20 -->
<g id="edge21" class="edge"><title>Node17&#45;&gt;Node20</title>
<path fill="none" stroke="midnightblue" d="M440.153,-86C451.87,-86 465.331,-86 477.321,-86"/>
<polygon fill="midnightblue" stroke="midnightblue" points="477.398,-89.5001 487.398,-86 477.398,-82.5001 477.398,-89.5001"/>
</g>
<!-- Node21&#45;&gt;Node19 -->
<g id="edge23" class="edge"><title>Node21&#45;&gt;Node19</title>
<path fill="none" stroke="midnightblue" d="M437.197,-48C452.576,-48 471.634,-48 486.462,-48"/>
<polygon fill="midnightblue" stroke="midnightblue" points="486.846,-51.5001 496.846,-48 486.846,-44.5001 486.846,-51.5001"/>
</g>
</g>
</svg>
        <g id="navigator" transform="translate(0 0)" fill="#404254">
                <rect fill="#f2f5e9" fill-opacity="0.5" stroke="#606060" stroke-width=".5" x="0" y="0" width="60" height="60"/>
                <use id="zoomplus" xlink:href="#zoomPlus" x="17" y="9" onmousedown="handleZoom(evt,'in')"/>
                <use id="zoomminus" xlink:href="#zoomMin" x="42" y="9" onmousedown="handleZoom(evt,'out')"/>
                <use id="reset" xlink:href="#resetDef" x="30" y="36" onmousedown="handleReset()"/>
                <g id="arrowUp" xlink:href="#dirArrow" transform="translate(30 24)" onmousedown="handlePan(0,-1)">
                  <use xlink:href="#rim" fill="#404040">
                        <set attributeName="fill" to="#808080" begin="arrowUp.mouseover" end="arrowUp.mouseout"/>
                  </use>
                  <path fill="none" stroke="white" stroke-width="1.5" d="M0,-3.0v7 M-2.5,-0.5L0,-3.0L2.5,-0.5"/>
                </g>
                <g id="arrowRight" xlink:href="#dirArrow" transform="rotate(90) translate(36 -43)" onmousedown="handlePan(1,0)">
                  <use xlink:href="#rim" fill="#404040">
                        <set attributeName="fill" to="#808080" begin="arrowRight.mouseover" end="arrowRight.mouseout"/>
                  </use>
                  <path fill="none" stroke="white" stroke-width="1.5" d="M0,-3.0v7 M-2.5,-0.5L0,-3.0L2.5,-0.5"/>
                </g>
                <g id="arrowDown" xlink:href="#dirArrow" transform="rotate(180) translate(-30 -48)" onmousedown="handlePan(0,1)">
                  <use xlink:href="#rim" fill="#404040">
                        <set attributeName="fill" to="#808080" begin="arrowDown.mouseover" end="arrowDown.mouseout"/>
                  </use>
                  <path fill="none" stroke="white" stroke-width="1.5" d="M0,-3.0v7 M-2.5,-0.5L0,-3.0L2.5,-0.5"/>
                </g>
                <g id="arrowLeft" xlink:href="#dirArrow" transform="rotate(270) translate(-36 17)" onmousedown="handlePan(-1,0)">
                  <use xlink:href="#rim" fill="#404040">
                        <set attributeName="fill" to="#808080" begin="arrowLeft.mouseover" end="arrowLeft.mouseout"/>
                  </use>
                  <path fill="none" stroke="white" stroke-width="1.5" d="M0,-3.0v7 M-2.5,-0.5L0,-3.0L2.5,-0.5"/>
                </g>
        </g>
        <svg viewBox="0 0 15 15" width="100%" height="30px" preserveAspectRatio="xMaxYMin meet">
         <g id="arrow_out" transform="scale(0.3 0.3)">
          <a xlink:href="classLMS7SuiteAppFrame_acc9b9c66cc5f7908b5eb39e2eaaa926d_cgraph_org.svg" target="_base">
           <rect id="button" ry="5" rx="5" y="6" x="6" height="38" width="38"
                fill="#f2f5e9" fill-opacity="0.5" stroke="#606060" stroke-width="1.0"/>
           <path id="arrow"
             d="M 11.500037,31.436501 C 11.940474,20.09759 22.043105,11.32322 32.158766,21.979434 L 37.068811,17.246167 C 37.068811,17.246167 37.088388,32 37.088388,32 L 22.160133,31.978069 C 22.160133,31.978069 26.997745,27.140456 26.997745,27.140456 C 18.528582,18.264221 13.291696,25.230495 11.500037,31.436501 z"
             style="fill:#404040;"/>
          </a>
         </g>
        </svg>
</svg>
