<?xml version="1.0" encoding="UTF-8" standalone="no"?>
<!DOCTYPE svg PUBLIC "-//W3C//DTD SVG 1.1//EN"
 "http://www.w3.org/Graphics/SVG/1.1/DTD/svg11.dtd">
<!-- Generated by graphviz version 2.38.0 (20140413.2041)
 -->
<!-- Title: LMS7SuiteAppFrame::OnLogMessage Pages: 1 -->
<svg width="450pt" height="39pt"
 viewBox="0.00 0.00 450.00 39.00" xmlns="http://www.w3.org/2000/svg" xmlns:xlink="http://www.w3.org/1999/xlink">
<g id="graph0" class="graph" transform="scale(1 1) rotate(0) translate(4 35)">
<title>LMS7SuiteAppFrame::OnLogMessage</title>
<polygon fill="white" stroke="none" points="-4,4 -4,-35 446,-35 446,4 -4,4"/>
<!-- Node1 -->
<g id="node1" class="node"><title>Node1</title>
<polygon fill="#bfbfbf" stroke="black" points="0,-0.5 0,-30.5 116,-30.5 116,-0.5 0,-0.5"/>
<text text-anchor="start" x="8" y="-18.5" font-family="Helvetica,sans-Serif" font-size="10.00">LMS7SuiteAppFrame::</text>
<text text-anchor="middle" x="58" y="-7.5" font-family="Helvetica,sans-Serif" font-size="10.00">OnLogMessage</text>
</g>
<!-- Node2 -->
<g id="node2" class="node"><title>Node2</title>
<g id="a_node2"><a xlink:href="../../dd/df8/classpnlMiniLog.html#a0438ccb4f29c1a7c4b34c00f43ce6c56" target="_top" xlink:title="pnlMiniLog::HandleMessage">
<polygon fill="white" stroke="black" points="152,-6 152,-25 292,-25 292,-6 152,-6"/>
<text text-anchor="middle" x="222" y="-13" font-family="Helvetica,sans-Serif" font-size="10.00">pnlMiniLog::HandleMessage</text>
</a>
</g>
</g>
<!-- Node1&#45;&gt;Node2 -->
<g id="edge1" class="edge"><title>Node1&#45;&gt;Node2</title>
<path fill="none" stroke="midnightblue" d="M116.115,-15.5C124.43,-15.5 133.115,-15.5 141.772,-15.5"/>
<polygon fill="midnightblue" stroke="midnightblue" points="141.898,-19.0001 151.898,-15.5 141.898,-12.0001 141.898,-19.0001"/>
</g>
<!-- Node3 -->
<g id="node3" class="node"><title>Node3</title>
<g id="a_node3"><a xlink:href="../../d5/d6c/namespacelime.html#a9d015792c13645fc522e8fe4161bfb97" target="_top" xlink:title="Convert log level to a string name for printing. ">
<polygon fill="white" stroke="black" points="328,-6 328,-25 442,-25 442,-6 328,-6"/>
<text text-anchor="middle" x="385" y="-13" font-family="Helvetica,sans-Serif" font-size="10.00">lime::logLevelToName</text>
</a>
</g>
</g>
<!-- Node2&#45;&gt;Node3 -->
<g id="edge2" class="edge"><title>Node2&#45;&gt;Node3</title>
<path fill="none" stroke="midnightblue" d="M292.213,-15.5C300.696,-15.5 309.349,-15.5 317.786,-15.5"/>
<polygon fill="midnightblue" stroke="midnightblue" points="317.944,-19.0001 327.944,-15.5 317.944,-12.0001 317.944,-19.0001"/>
</g>
</g>
</svg>
