<?xml version="1.0" encoding="UTF-8" standalone="no"?>
<!DOCTYPE svg PUBLIC "-//W3C//DTD SVG 1.1//EN"
 "http://www.w3.org/Graphics/SVG/1.1/DTD/svg11.dtd">
<!-- Generated by graphviz version 2.38.0 (20140413.2041)
 -->
<!-- Title: LMS7SuiteAppFrame::OnChangeCacheSettings Pages: 1 -->
<!--zoomable 560 -->
<svg id="main" version="1.1" xmlns="http://www.w3.org/2000/svg" xmlns:xlink="http://www.w3.org/1999/xlink" xml:space="preserve" onload="init(evt)">
<style type="text/css"><![CDATA[
.edge:hover path { stroke: red; }
.edge:hover polygon { stroke: red; fill: red; }
]]></style>
<script type="text/javascript"><![CDATA[
var edges = document.getElementsByTagName('g');
if (edges && edges.length) {
  for (var i=0;i<edges.length;i++) {
    if (edges[i].id.substr(0,4)=='edge') {
      edges[i].setAttribute('class','edge');
    }
  }
}
]]></script>
        <defs>
                <circle id="rim" cx="0" cy="0" r="7"/>
                <circle id="rim2" cx="0" cy="0" r="3.5"/>
                <g id="zoomPlus">
                        <use xlink:href="#rim" fill="#404040">
                                <set attributeName="fill" to="#808080" begin="zoomplus.mouseover" end="zoomplus.mouseout"/>
                        </use>
                        <path d="M-4,0h8M0,-4v8" fill="none" stroke="white" stroke-width="1.5" pointer-events="none"/>
                </g>
                <g id="zoomMin">
                        <use xlink:href="#rim" fill="#404040">
                                <set attributeName="fill" to="#808080" begin="zoomminus.mouseover" end="zoomminus.mouseout"/>
                        </use>
                        <path d="M-4,0h8" fill="none" stroke="white" stroke-width="1.5" pointer-events="none"/>
                </g>
                <g id="dirArrow">
                        <path fill="none" stroke="white" stroke-width="1.5" d="M0,-3.0v7 M-2.5,-0.5L0,-3.0L2.5,-0.5"/>
                </g>
               <g id="resetDef">
                       <use xlink:href="#rim2" fill="#404040">
                               <set attributeName="fill" to="#808080" begin="reset.mouseover" end="reset.mouseout"/>
                       </use>
               </g>
        </defs>

<script type="text/javascript">
var viewWidth = 724;
var viewHeight = 560;
var sectionId = 'dynsection-7';
</script>
<script xlink:href="../../svgpan.js"/>
<svg id="graph" class="graph">
<g id="viewport">
<title>LMS7SuiteAppFrame::OnChangeCacheSettings</title>
<polygon fill="white" stroke="none" points="-4,4 -4,-556 720,-556 720,4 -4,4"/>
<!-- Node1 -->
<g id="node1" class="node"><title>Node1</title>
<polygon fill="#bfbfbf" stroke="black" points="0,-261 0,-291 128,-291 128,-261 0,-261"/>
<text text-anchor="start" x="8" y="-279" font-family="Helvetica,sans-Serif" font-size="10.00">LMS7SuiteAppFrame::</text>
<text text-anchor="middle" x="64" y="-268" font-family="Helvetica,sans-Serif" font-size="10.00">OnChangeCacheSettings</text>
</g>
<!-- Node2 -->
<g id="node2" class="node"><title>Node2</title>
<g id="a_node2"><a xlink:href="../../df/de1/lms7__api_8cpp.html#a874c42499ec6b140f9037f7b3d9ddc8b" target="_top" xlink:title="LMS_EnableCalibCache">
<polygon fill="white" stroke="black" points="164,-266.5 164,-285.5 287,-285.5 287,-266.5 164,-266.5"/>
<text text-anchor="middle" x="225.5" y="-273.5" font-family="Helvetica,sans-Serif" font-size="10.00">LMS_EnableCalibCache</text>
</a>
</g>
</g>
<!-- Node1&#45;&gt;Node2 -->
<g id="edge1" class="edge"><title>Node1&#45;&gt;Node2</title>
<path fill="none" stroke="midnightblue" d="M128.039,-276C136.396,-276 145.01,-276 153.49,-276"/>
<polygon fill="midnightblue" stroke="midnightblue" points="153.741,-279.5 163.741,-276 153.741,-272.5 153.741,-279.5"/>
</g>
<!-- Node3 -->
<g id="node3" class="node"><title>Node3</title>
<g id="a_node3"><a xlink:href="../../d3/d22/classlime_1_1LMS7__Device.html#a973cee95357abd790c50739f70bc6110" target="_top" xlink:title="lime::LMS7_Device::\lEnableCalibCache">
<polygon fill="white" stroke="black" points="323,-305 323,-335 431,-335 431,-305 323,-305"/>
<text text-anchor="start" x="331" y="-323" font-family="Helvetica,sans-Serif" font-size="10.00">lime::LMS7_Device::</text>
<text text-anchor="middle" x="377" y="-312" font-family="Helvetica,sans-Serif" font-size="10.00">EnableCalibCache</text>
</a>
</g>
</g>
<!-- Node2&#45;&gt;Node3 -->
<g id="edge2" class="edge"><title>Node2&#45;&gt;Node3</title>
<path fill="none" stroke="midnightblue" d="M258.939,-285.547C275.396,-290.391 295.931,-296.435 315.187,-302.102"/>
<polygon fill="midnightblue" stroke="midnightblue" points="314.231,-305.469 324.812,-304.935 316.207,-298.754 314.231,-305.469"/>
</g>
<!-- Node4 -->
<g id="node4" class="node"><title>Node4</title>
<g id="a_node4"><a xlink:href="../../d4/d67/lms_8c.html#a0e01e477b1f10e0a63e54de2dd2f8240" target="_top" xlink:title="lms">
<polygon fill="white" stroke="black" points="361,-266.5 361,-285.5 393,-285.5 393,-266.5 361,-266.5"/>
<text text-anchor="middle" x="377" y="-273.5" font-family="Helvetica,sans-Serif" font-size="10.00">lms</text>
</a>
</g>
</g>
<!-- Node2&#45;&gt;Node4 -->
<g id="edge3" class="edge"><title>Node2&#45;&gt;Node4</title>
<path fill="none" stroke="midnightblue" d="M287.307,-276C309.324,-276 333.013,-276 350.366,-276"/>
<polygon fill="midnightblue" stroke="midnightblue" points="350.773,-279.5 360.773,-276 350.773,-272.5 350.773,-279.5"/>
</g>
<!-- Node24 -->
<g id="node24" class="node"><title>Node24</title>
<g id="a_node24"><a xlink:href="../../d5/d6c/namespacelime.html#adc6af0cf8e0a70f3ef09fac1244f8c48" target="_top" xlink:title="lime::ReportError">
<polygon fill="white" stroke="black" points="331.5,-114.5 331.5,-133.5 422.5,-133.5 422.5,-114.5 331.5,-114.5"/>
<text text-anchor="middle" x="377" y="-121.5" font-family="Helvetica,sans-Serif" font-size="10.00">lime::ReportError</text>
</a>
</g>
</g>
<!-- Node2&#45;&gt;Node24 -->
<g id="edge26" class="edge"><title>Node2&#45;&gt;Node24</title>
<path fill="none" stroke="midnightblue" d="M235.852,-266.492C260.603,-241.327 328.067,-172.735 359.488,-140.788"/>
<polygon fill="midnightblue" stroke="midnightblue" points="362.135,-143.088 366.652,-133.505 357.144,-138.18 362.135,-143.088"/>
</g>
<!-- Node5 -->
<g id="node5" class="node"><title>Node5</title>
<g id="a_node5"><a xlink:href="../../d4/d67/lms_8c.html#a433227191fe883dcb8aa15d291bb29a1" target="_top" xlink:title="Case1F">
<polygon fill="white" stroke="black" points="475.5,-532.5 475.5,-551.5 526.5,-551.5 526.5,-532.5 475.5,-532.5"/>
<text text-anchor="middle" x="501" y="-539.5" font-family="Helvetica,sans-Serif" font-size="10.00">Case1F</text>
</a>
</g>
</g>
<!-- Node4&#45;&gt;Node5 -->
<g id="edge4" class="edge"><title>Node4&#45;&gt;Node5</title>
<path fill="none" stroke="midnightblue" d="M393.431,-277.65C405.529,-279.794 421.807,-284.715 431,-296 495.518,-375.196 409.083,-438.856 467,-523 467.637,-523.926 468.335,-524.812 469.083,-525.661"/>
<polygon fill="midnightblue" stroke="midnightblue" points="466.991,-528.477 476.872,-532.301 471.533,-523.15 466.991,-528.477"/>
</g>
<!-- Node6 -->
<g id="node6" class="node"><title>Node6</title>
<g id="a_node6"><a xlink:href="../../d4/d67/lms_8c.html#ace0cd8bf61cb9b86b98f0cef03b5a9d9" target="_top" xlink:title="Case2F">
<polygon fill="white" stroke="black" points="475.5,-494.5 475.5,-513.5 526.5,-513.5 526.5,-494.5 475.5,-494.5"/>
<text text-anchor="middle" x="501" y="-501.5" font-family="Helvetica,sans-Serif" font-size="10.00">Case2F</text>
</a>
</g>
</g>
<!-- Node4&#45;&gt;Node6 -->
<g id="edge5" class="edge"><title>Node4&#45;&gt;Node6</title>
<path fill="none" stroke="midnightblue" d="M393.338,-277.727C405.383,-279.915 421.633,-284.859 431,-296 486.028,-361.452 417.433,-415.321 467,-485 467.754,-486.061 468.588,-487.07 469.484,-488.031"/>
<polygon fill="midnightblue" stroke="midnightblue" points="467.353,-490.81 477.301,-494.457 471.799,-485.403 467.353,-490.81"/>
</g>
<!-- Node7 -->
<g id="node7" class="node"><title>Node7</title>
<g id="a_node7"><a xlink:href="../../d4/d67/lms_8c.html#a5f53b53ccc591e3643c4af2aee2e7f32" target="_top" xlink:title="Case3F">
<polygon fill="white" stroke="black" points="475.5,-456.5 475.5,-475.5 526.5,-475.5 526.5,-456.5 475.5,-456.5"/>
<text text-anchor="middle" x="501" y="-463.5" font-family="Helvetica,sans-Serif" font-size="10.00">Case3F</text>
</a>
</g>
</g>
<!-- Node4&#45;&gt;Node7 -->
<g id="edge6" class="edge"><title>Node4&#45;&gt;Node7</title>
<path fill="none" stroke="midnightblue" d="M393.203,-277.843C405.169,-280.099 421.381,-285.076 431,-296 476.596,-347.777 425.731,-391.712 467,-447 467.779,-448.043 468.632,-449.038 469.546,-449.986"/>
<polygon fill="midnightblue" stroke="midnightblue" points="467.457,-452.798 477.437,-456.358 471.855,-447.352 467.457,-452.798"/>
</g>
<!-- Node8 -->
<g id="node8" class="node"><title>Node8</title>
<g id="a_node8"><a xlink:href="../../d4/d67/lms_8c.html#a5086763d5b258349bc13d6be7e7d0665" target="_top" xlink:title="Case4F">
<polygon fill="white" stroke="black" points="475.5,-418.5 475.5,-437.5 526.5,-437.5 526.5,-418.5 475.5,-418.5"/>
<text text-anchor="middle" x="501" y="-425.5" font-family="Helvetica,sans-Serif" font-size="10.00">Case4F</text>
</a>
</g>
</g>
<!-- Node4&#45;&gt;Node8 -->
<g id="edge7" class="edge"><title>Node4&#45;&gt;Node8</title>
<path fill="none" stroke="midnightblue" d="M393.473,-278.135C405.268,-280.544 421.116,-285.584 431,-296 467.282,-334.235 433.922,-367.962 467,-409 467.933,-410.158 468.958,-411.259 470.05,-412.305"/>
<polygon fill="midnightblue" stroke="midnightblue" points="467.93,-415.09 477.992,-418.407 472.194,-409.539 467.93,-415.09"/>
</g>
<!-- Node9 -->
<g id="node9" class="node"><title>Node9</title>
<g id="a_node9"><a xlink:href="../../db/de5/recipes_8c.html#aee25e218394217a134e805ea09fb0fe9" target="_top" xlink:title="free_ivector">
<polygon fill="white" stroke="black" points="467,-380.5 467,-399.5 535,-399.5 535,-380.5 467,-380.5"/>
<text text-anchor="middle" x="501" y="-387.5" font-family="Helvetica,sans-Serif" font-size="10.00">free_ivector</text>
</a>
</g>
</g>
<!-- Node4&#45;&gt;Node9 -->
<g id="edge8" class="edge"><title>Node4&#45;&gt;Node9</title>
<path fill="none" stroke="midnightblue" d="M393.085,-278.53C404.666,-281.156 420.416,-286.296 431,-296 458.253,-320.988 441.852,-343.895 467,-371 468.175,-372.266 469.453,-373.472 470.802,-374.616"/>
<polygon fill="midnightblue" stroke="midnightblue" points="468.889,-377.55 479.067,-380.492 472.945,-371.845 468.889,-377.55"/>
</g>
<!-- Node10 -->
<g id="node10" class="node"><title>Node10</title>
<g id="a_node10"><a xlink:href="../../db/de5/recipes_8c.html#a3e0d121b098c19c0bdc2429e5b9f1625" target="_top" xlink:title="free_matrix">
<polygon fill="white" stroke="black" points="468.5,-342.5 468.5,-361.5 533.5,-361.5 533.5,-342.5 468.5,-342.5"/>
<text text-anchor="middle" x="501" y="-349.5" font-family="Helvetica,sans-Serif" font-size="10.00">free_matrix</text>
</a>
</g>
</g>
<!-- Node4&#45;&gt;Node10 -->
<g id="edge9" class="edge"><title>Node4&#45;&gt;Node10</title>
<path fill="none" stroke="midnightblue" d="M393.06,-280.068C404.049,-283.412 419.049,-288.775 431,-296 449.32,-307.075 450.324,-314.577 467,-328 470.477,-330.798 474.241,-333.673 477.94,-336.417"/>
<polygon fill="midnightblue" stroke="midnightblue" points="476.142,-339.437 486.289,-342.484 480.257,-333.774 476.142,-339.437"/>
</g>
<!-- Node11 -->
<g id="node11" class="node"><title>Node11</title>
<g id="a_node11"><a xlink:href="../../db/de5/recipes_8c.html#a8214a52d888e820222c0382648329c0c" target="_top" xlink:title="free_vector">
<polygon fill="white" stroke="black" points="571,-285.5 571,-304.5 636,-304.5 636,-285.5 571,-285.5"/>
<text text-anchor="middle" x="603.5" y="-292.5" font-family="Helvetica,sans-Serif" font-size="10.00">free_vector</text>
</a>
</g>
</g>
<!-- Node4&#45;&gt;Node11 -->
<g id="edge10" class="edge"><title>Node4&#45;&gt;Node11</title>
<path fill="none" stroke="midnightblue" d="M393.277,-280.288C410.881,-284.989 440.76,-292.23 467,-295 498.289,-298.303 533.869,-298.154 560.716,-297.26"/>
<polygon fill="midnightblue" stroke="midnightblue" points="561.056,-300.749 570.915,-296.87 560.789,-293.754 561.056,-300.749"/>
</g>
<!-- Node12 -->
<g id="node12" class="node"><title>Node12</title>
<g id="a_node12"><a xlink:href="../../d4/d67/lms_8c.html#ad1d6c875ff429888b51dd1155f0311ad" target="_top" xlink:title="ivector">
<polygon fill="white" stroke="black" points="478,-266.5 478,-285.5 524,-285.5 524,-266.5 478,-266.5"/>
<text text-anchor="middle" x="501" y="-273.5" font-family="Helvetica,sans-Serif" font-size="10.00">ivector</text>
</a>
</g>
</g>
<!-- Node4&#45;&gt;Node12 -->
<g id="edge11" class="edge"><title>Node4&#45;&gt;Node12</title>
<path fill="none" stroke="midnightblue" d="M393.451,-276C411.995,-276 443.584,-276 467.566,-276"/>
<polygon fill="midnightblue" stroke="midnightblue" points="467.646,-279.5 477.646,-276 467.645,-272.5 467.646,-279.5"/>
</g>
<!-- Node13 -->
<g id="node13" class="node"><title>Node13</title>
<g id="a_node13"><a xlink:href="../../db/de5/recipes_8c.html#a66ff65ad0355ec1f4a7722bcdafc8cd3" target="_top" xlink:title="lubksb">
<polygon fill="white" stroke="black" points="478.5,-228.5 478.5,-247.5 523.5,-247.5 523.5,-228.5 478.5,-228.5"/>
<text text-anchor="middle" x="501" y="-235.5" font-family="Helvetica,sans-Serif" font-size="10.00">lubksb</text>
</a>
</g>
</g>
<!-- Node4&#45;&gt;Node13 -->
<g id="edge12" class="edge"><title>Node4&#45;&gt;Node13</title>
<path fill="none" stroke="midnightblue" d="M393.451,-271.187C412.19,-265.351 444.251,-255.364 468.321,-247.867"/>
<polygon fill="midnightblue" stroke="midnightblue" points="469.579,-251.141 478.085,-244.826 467.497,-244.458 469.579,-251.141"/>
</g>
<!-- Node14 -->
<g id="node14" class="node"><title>Node14</title>
<g id="a_node14"><a xlink:href="../../db/de5/recipes_8c.html#a623fec796d9d53e5e4a4d30226547da7" target="_top" xlink:title="ludcmp">
<polygon fill="white" stroke="black" points="477,-190.5 477,-209.5 525,-209.5 525,-190.5 477,-190.5"/>
<text text-anchor="middle" x="501" y="-197.5" font-family="Helvetica,sans-Serif" font-size="10.00">ludcmp</text>
</a>
</g>
</g>
<!-- Node4&#45;&gt;Node14 -->
<g id="edge13" class="edge"><title>Node4&#45;&gt;Node14</title>
<path fill="none" stroke="midnightblue" d="M392.668,-266.304C410.201,-254.786 440.5,-235.103 467,-219 469.355,-217.569 471.818,-216.1 474.292,-214.644"/>
<polygon fill="midnightblue" stroke="midnightblue" points="476.234,-217.564 483.122,-209.514 472.717,-211.511 476.234,-217.564"/>
</g>
<!-- Node17 -->
<g id="node17" class="node"><title>Node17</title>
<g id="a_node17"><a xlink:href="../../d4/d67/lms_8c.html#a37bcb1539d76b53344102435e2ab9c91" target="_top" xlink:title="matrix">
<polygon fill="white" stroke="black" points="479,-152.5 479,-171.5 523,-171.5 523,-152.5 479,-152.5"/>
<text text-anchor="middle" x="501" y="-159.5" font-family="Helvetica,sans-Serif" font-size="10.00">matrix</text>
</a>
</g>
</g>
<!-- Node4&#45;&gt;Node17 -->
<g id="edge18" class="edge"><title>Node4&#45;&gt;Node17</title>
<path fill="none" stroke="midnightblue" d="M385.306,-266.494C399.59,-248.33 432.816,-208.093 467,-181 468.768,-179.599 470.651,-178.233 472.587,-176.919"/>
<polygon fill="midnightblue" stroke="midnightblue" points="474.588,-179.796 481.221,-171.534 470.884,-173.857 474.588,-179.796"/>
</g>
<!-- Node18 -->
<g id="node18" class="node"><title>Node18</title>
<g id="a_node18"><a xlink:href="../../d8/d91/rounding_8c.html#aa8d7512cdf5bfbf811cef6a8a091c679" target="_top" xlink:title="round2csd">
<polygon fill="white" stroke="black" points="470,-114.5 470,-133.5 532,-133.5 532,-114.5 470,-114.5"/>
<text text-anchor="middle" x="501" y="-121.5" font-family="Helvetica,sans-Serif" font-size="10.00">round2csd</text>
</a>
</g>
</g>
<!-- Node4&#45;&gt;Node18 -->
<g id="edge19" class="edge"><title>Node4&#45;&gt;Node18</title>
<path fill="none" stroke="midnightblue" d="M382.567,-266.211C393.977,-242.578 425.799,-181.516 467,-143 468.295,-141.79 469.68,-140.624 471.124,-139.508"/>
<polygon fill="midnightblue" stroke="midnightblue" points="473.446,-142.164 479.787,-133.676 469.537,-136.357 473.446,-142.164"/>
</g>
<!-- Node22 -->
<g id="node22" class="node"><title>Node22</title>
<g id="a_node22"><a xlink:href="../../d8/d91/rounding_8c.html#aca2670cc0fbf948a6b9cb670047c9d5b" target="_top" xlink:title="round2int">
<polygon fill="white" stroke="black" points="473,-76.5 473,-95.5 529,-95.5 529,-76.5 473,-76.5"/>
<text text-anchor="middle" x="501" y="-83.5" font-family="Helvetica,sans-Serif" font-size="10.00">round2int</text>
</a>
</g>
</g>
<!-- Node4&#45;&gt;Node22 -->
<g id="edge23" class="edge"><title>Node4&#45;&gt;Node22</title>
<path fill="none" stroke="midnightblue" d="M380.878,-266.336C389.635,-238.304 418.37,-155.742 467,-105 468.195,-103.753 469.49,-102.563 470.852,-101.431"/>
<polygon fill="midnightblue" stroke="midnightblue" points="472.989,-104.206 479.154,-95.5906 468.961,-98.4809 472.989,-104.206"/>
</g>
<!-- Node23 -->
<g id="node23" class="node"><title>Node23</title>
<g id="a_node23"><a xlink:href="../../d4/d67/lms_8c.html#ac81ca32708341eb34b25d515d00bc748" target="_top" xlink:title="vector">
<polygon fill="white" stroke="black" points="479,-38.5 479,-57.5 523,-57.5 523,-38.5 479,-38.5"/>
<text text-anchor="middle" x="501" y="-45.5" font-family="Helvetica,sans-Serif" font-size="10.00">vector</text>
</a>
</g>
</g>
<!-- Node4&#45;&gt;Node23 -->
<g id="edge25" class="edge"><title>Node4&#45;&gt;Node23</title>
<path fill="none" stroke="midnightblue" d="M381.908,-266.353C398.142,-226.346 459.739,-75.188 467,-67 468.146,-65.7078 469.402,-64.4815 470.733,-63.3211"/>
<polygon fill="midnightblue" stroke="midnightblue" points="472.883,-66.0859 478.943,-57.3953 468.786,-60.4099 472.883,-66.0859"/>
</g>
<!-- Node14&#45;&gt;Node11 -->
<g id="edge14" class="edge"><title>Node14&#45;&gt;Node11</title>
<path fill="none" stroke="midnightblue" d="M521.186,-209.656C525.9,-212.397 530.797,-215.577 535,-219 556.243,-236.301 576.546,-260.569 589.236,-276.991"/>
<polygon fill="midnightblue" stroke="midnightblue" points="586.633,-279.352 595.46,-285.212 592.214,-275.127 586.633,-279.352"/>
</g>
<!-- Node15 -->
<g id="node15" class="node"><title>Node15</title>
<g id="a_node15"><a xlink:href="../../db/de5/recipes_8c.html#a208e98f19b2f252315399d02c0594a46" target="_top" xlink:title="nrerror">
<polygon fill="white" stroke="black" points="672,-209.5 672,-228.5 716,-228.5 716,-209.5 672,-209.5"/>
<text text-anchor="middle" x="694" y="-216.5" font-family="Helvetica,sans-Serif" font-size="10.00">nrerror</text>
</a>
</g>
</g>
<!-- Node14&#45;&gt;Node15 -->
<g id="edge15" class="edge"><title>Node14&#45;&gt;Node15</title>
<path fill="none" stroke="midnightblue" d="M525.306,-208.1C538.528,-212.267 555.486,-216.903 571,-219 601.534,-223.127 636.761,-222.564 661.488,-221.308"/>
<polygon fill="midnightblue" stroke="midnightblue" points="661.944,-224.788 671.726,-220.718 661.541,-217.799 661.944,-224.788"/>
</g>
<!-- Node16 -->
<g id="node16" class="node"><title>Node16</title>
<g id="a_node16"><a xlink:href="../../db/de5/recipes_8c.html#a5e6092211a5f7e2d6ae9282379d3c604" target="_top" xlink:title="vector">
<polygon fill="white" stroke="black" points="581.5,-190.5 581.5,-209.5 625.5,-209.5 625.5,-190.5 581.5,-190.5"/>
<text text-anchor="middle" x="603.5" y="-197.5" font-family="Helvetica,sans-Serif" font-size="10.00">vector</text>
</a>
</g>
</g>
<!-- Node14&#45;&gt;Node16 -->
<g id="edge16" class="edge"><title>Node14&#45;&gt;Node16</title>
<path fill="none" stroke="midnightblue" d="M525.057,-200C538.673,-200 556.102,-200 570.977,-200"/>
<polygon fill="midnightblue" stroke="midnightblue" points="571.265,-203.5 581.265,-200 571.265,-196.5 571.265,-203.5"/>
</g>
<!-- Node16&#45;&gt;Node15 -->
<g id="edge17" class="edge"><title>Node16&#45;&gt;Node15</title>
<path fill="none" stroke="midnightblue" d="M625.923,-204.599C636.685,-206.91 649.928,-209.753 661.796,-212.301"/>
<polygon fill="midnightblue" stroke="midnightblue" points="661.262,-215.766 671.774,-214.443 662.731,-208.922 661.262,-215.766"/>
</g>
<!-- Node19 -->
<g id="node19" class="node"><title>Node19</title>
<g id="a_node19"><a xlink:href="../../d8/d91/rounding_8c.html#a2cff6b77e73872659c44b0c99f6bd97f" target="_top" xlink:title="csd2int">
<polygon fill="white" stroke="black" points="579.5,-152.5 579.5,-171.5 627.5,-171.5 627.5,-152.5 579.5,-152.5"/>
<text text-anchor="middle" x="603.5" y="-159.5" font-family="Helvetica,sans-Serif" font-size="10.00">csd2int</text>
</a>
</g>
</g>
<!-- Node18&#45;&gt;Node19 -->
<g id="edge20" class="edge"><title>Node18&#45;&gt;Node19</title>
<path fill="none" stroke="midnightblue" d="M527.36,-133.589C540.181,-138.437 555.894,-144.378 569.631,-149.572"/>
<polygon fill="midnightblue" stroke="midnightblue" points="568.623,-152.933 579.214,-153.195 571.099,-146.385 568.623,-152.933"/>
</g>
<!-- Node20 -->
<g id="node20" class="node"><title>Node20</title>
<g id="a_node20"><a xlink:href="../../db/d82/wglew_8h.html#a500a82aecba06f4550f6849b8099ca21" target="_top" xlink:title="int">
<polygon fill="white" stroke="black" points="589,-76.5 589,-95.5 618,-95.5 618,-76.5 589,-76.5"/>
<text text-anchor="middle" x="603.5" y="-83.5" font-family="Helvetica,sans-Serif" font-size="10.00">int</text>
</a>
</g>
</g>
<!-- Node18&#45;&gt;Node20 -->
<g id="edge21" class="edge"><title>Node18&#45;&gt;Node20</title>
<path fill="none" stroke="midnightblue" d="M527.36,-114.411C543.388,-108.351 563.934,-100.582 579.49,-94.7003"/>
<polygon fill="midnightblue" stroke="midnightblue" points="580.778,-97.9552 588.894,-91.1446 578.302,-91.4076 580.778,-97.9552"/>
</g>
<!-- Node21 -->
<g id="node21" class="node"><title>Node21</title>
<g id="a_node21"><a xlink:href="../../d8/d91/rounding_8c.html#ab3a64ec72c5600bc114621e93309c8c3" target="_top" xlink:title="int2csd">
<polygon fill="white" stroke="black" points="579.5,-114.5 579.5,-133.5 627.5,-133.5 627.5,-114.5 579.5,-114.5"/>
<text text-anchor="middle" x="603.5" y="-121.5" font-family="Helvetica,sans-Serif" font-size="10.00">int2csd</text>
</a>
</g>
</g>
<!-- Node18&#45;&gt;Node21 -->
<g id="edge22" class="edge"><title>Node18&#45;&gt;Node21</title>
<path fill="none" stroke="midnightblue" d="M532.153,-124C543.87,-124 557.331,-124 569.321,-124"/>
<polygon fill="midnightblue" stroke="midnightblue" points="569.398,-127.5 579.398,-124 569.398,-120.5 569.398,-127.5"/>
</g>
<!-- Node22&#45;&gt;Node20 -->
<g id="edge24" class="edge"><title>Node22&#45;&gt;Node20</title>
<path fill="none" stroke="midnightblue" d="M529.197,-86C544.576,-86 563.634,-86 578.462,-86"/>
<polygon fill="midnightblue" stroke="midnightblue" points="578.846,-89.5001 588.846,-86 578.846,-82.5001 578.846,-89.5001"/>
</g>
<!-- Node25 -->
<g id="node25" class="node"><title>Node25</title>
<g id="a_node25"><a xlink:href="../../d9/df5/Logger_8cpp.html#ada38bf01d6d691de953ed69268ea6516" target="_top" xlink:title="errToStr">
<polygon fill="white" stroke="black" points="475,-0.5 475,-19.5 527,-19.5 527,-0.5 475,-0.5"/>
<text text-anchor="middle" x="501" y="-7.5" font-family="Helvetica,sans-Serif" font-size="10.00">errToStr</text>
</a>
</g>
</g>
<!-- Node24&#45;&gt;Node25 -->
<g id="edge27" class="edge"><title>Node24&#45;&gt;Node25</title>
<path fill="none" stroke="midnightblue" d="M385.306,-114.494C399.59,-96.3305 432.816,-56.0931 467,-29 468.768,-27.5987 470.651,-26.2334 472.587,-24.9194"/>
<polygon fill="midnightblue" stroke="midnightblue" points="474.588,-27.7962 481.221,-19.5343 470.884,-21.8567 474.588,-27.7962"/>
</g>
</g>
</svg>
        <g id="navigator" transform="translate(0 0)" fill="#404254">
                <rect fill="#f2f5e9" fill-opacity="0.5" stroke="#606060" stroke-width=".5" x="0" y="0" width="60" height="60"/>
                <use id="zoomplus" xlink:href="#zoomPlus" x="17" y="9" onmousedown="handleZoom(evt,'in')"/>
                <use id="zoomminus" xlink:href="#zoomMin" x="42" y="9" onmousedown="handleZoom(evt,'out')"/>
                <use id="reset" xlink:href="#resetDef" x="30" y="36" onmousedown="handleReset()"/>
                <g id="arrowUp" xlink:href="#dirArrow" transform="translate(30 24)" onmousedown="handlePan(0,-1)">
                  <use xlink:href="#rim" fill="#404040">
                        <set attributeName="fill" to="#808080" begin="arrowUp.mouseover" end="arrowUp.mouseout"/>
                  </use>
                  <path fill="none" stroke="white" stroke-width="1.5" d="M0,-3.0v7 M-2.5,-0.5L0,-3.0L2.5,-0.5"/>
                </g>
                <g id="arrowRight" xlink:href="#dirArrow" transform="rotate(90) translate(36 -43)" onmousedown="handlePan(1,0)">
                  <use xlink:href="#rim" fill="#404040">
                        <set attributeName="fill" to="#808080" begin="arrowRight.mouseover" end="arrowRight.mouseout"/>
                  </use>
                  <path fill="none" stroke="white" stroke-width="1.5" d="M0,-3.0v7 M-2.5,-0.5L0,-3.0L2.5,-0.5"/>
                </g>
                <g id="arrowDown" xlink:href="#dirArrow" transform="rotate(180) translate(-30 -48)" onmousedown="handlePan(0,1)">
                  <use xlink:href="#rim" fill="#404040">
                        <set attributeName="fill" to="#808080" begin="arrowDown.mouseover" end="arrowDown.mouseout"/>
                  </use>
                  <path fill="none" stroke="white" stroke-width="1.5" d="M0,-3.0v7 M-2.5,-0.5L0,-3.0L2.5,-0.5"/>
                </g>
                <g id="arrowLeft" xlink:href="#dirArrow" transform="rotate(270) translate(-36 17)" onmousedown="handlePan(-1,0)">
                  <use xlink:href="#rim" fill="#404040">
                        <set attributeName="fill" to="#808080" begin="arrowLeft.mouseover" end="arrowLeft.mouseout"/>
                  </use>
                  <path fill="none" stroke="white" stroke-width="1.5" d="M0,-3.0v7 M-2.5,-0.5L0,-3.0L2.5,-0.5"/>
                </g>
        </g>
        <svg viewBox="0 0 15 15" width="100%" height="30px" preserveAspectRatio="xMaxYMin meet">
         <g id="arrow_out" transform="scale(0.3 0.3)">
          <a xlink:href="classLMS7SuiteAppFrame_abc6f312d5eb724665d7b6d548224587c_cgraph_org.svg" target="_base">
           <rect id="button" ry="5" rx="5" y="6" x="6" height="38" width="38"
                fill="#f2f5e9" fill-opacity="0.5" stroke="#606060" stroke-width="1.0"/>
           <path id="arrow"
             d="M 11.500037,31.436501 C 11.940474,20.09759 22.043105,11.32322 32.158766,21.979434 L 37.068811,17.246167 C 37.068811,17.246167 37.088388,32 37.088388,32 L 22.160133,31.978069 C 22.160133,31.978069 26.997745,27.140456 26.997745,27.140456 C 18.528582,18.264221 13.291696,25.230495 11.500037,31.436501 z"
             style="fill:#404040;"/>
          </a>
         </g>
        </svg>
</svg>
