<?xml version="1.0" encoding="UTF-8" standalone="no"?>
<!DOCTYPE svg PUBLIC "-//W3C//DTD SVG 1.1//EN"
 "http://www.w3.org/Graphics/SVG/1.1/DTD/svg11.dtd">
<!-- Generated by graphviz version 2.38.0 (20140413.2041)
 -->
<!-- Title: LMS7SuiteAppFrame::OnLogDataTransfer Pages: 1 -->
<svg width="459pt" height="88pt"
 viewBox="0.00 0.00 459.00 88.00" xmlns="http://www.w3.org/2000/svg" xmlns:xlink="http://www.w3.org/1999/xlink">
<g id="graph0" class="graph" transform="scale(1 1) rotate(0) translate(4 84)">
<title>LMS7SuiteAppFrame::OnLogDataTransfer</title>
<polygon fill="white" stroke="none" points="-4,4 -4,-84 455,-84 455,4 -4,4"/>
<!-- Node1 -->
<g id="node1" class="node"><title>Node1</title>
<polygon fill="#bfbfbf" stroke="black" points="0,-24.5 0,-54.5 116,-54.5 116,-24.5 0,-24.5"/>
<text text-anchor="start" x="8" y="-42.5" font-family="Helvetica,sans-Serif" font-size="10.00">LMS7SuiteAppFrame::</text>
<text text-anchor="middle" x="58" y="-31.5" font-family="Helvetica,sans-Serif" font-size="10.00">OnLogDataTransfer</text>
</g>
<!-- Node2 -->
<g id="node2" class="node"><title>Node2</title>
<g id="a_node2"><a xlink:href="../../d1/df3/classLMS7SuiteAppFrame.html#a819f017d3e706c433d9b7f4f9bc1f9c3" target="_top" xlink:title="LMS7SuiteAppFrame::\lOnControlBoardConnect">
<polygon fill="white" stroke="black" points="152,-24.5 152,-54.5 275,-54.5 275,-24.5 152,-24.5"/>
<text text-anchor="start" x="160" y="-42.5" font-family="Helvetica,sans-Serif" font-size="10.00">LMS7SuiteAppFrame::</text>
<text text-anchor="middle" x="213.5" y="-31.5" font-family="Helvetica,sans-Serif" font-size="10.00">OnControlBoardConnect</text>
</a>
</g>
</g>
<!-- Node1&#45;&gt;Node2 -->
<g id="edge1" class="edge"><title>Node1&#45;&gt;Node2</title>
<path fill="none" stroke="midnightblue" d="M126.418,-39.5C134.917,-39.5 143.57,-39.5 151.953,-39.5"/>
<polygon fill="midnightblue" stroke="midnightblue" points="126.158,-36.0001 116.158,-39.5 126.158,-43.0001 126.158,-36.0001"/>
</g>
<!-- Node3 -->
<g id="node3" class="node"><title>Node3</title>
<g id="a_node3"><a xlink:href="../../d1/df3/classLMS7SuiteAppFrame.html#ad380f4e547c66fcfffdec0da53fe5b3e" target="_top" xlink:title="Constructor. ">
<polygon fill="white" stroke="black" points="323,-49.5 323,-79.5 439,-79.5 439,-49.5 323,-49.5"/>
<text text-anchor="start" x="331" y="-67.5" font-family="Helvetica,sans-Serif" font-size="10.00">LMS7SuiteAppFrame::</text>
<text text-anchor="middle" x="381" y="-56.5" font-family="Helvetica,sans-Serif" font-size="10.00">LMS7SuiteAppFrame</text>
</a>
</g>
</g>
<!-- Node2&#45;&gt;Node3 -->
<g id="edge2" class="edge"><title>Node2&#45;&gt;Node3</title>
<path fill="none" stroke="midnightblue" d="M285.18,-50.1767C297.772,-52.0788 310.744,-54.0384 322.898,-55.8743"/>
<polygon fill="midnightblue" stroke="midnightblue" points="285.597,-46.7001 275.186,-48.6671 284.551,-53.6216 285.597,-46.7001"/>
</g>
<!-- Node4 -->
<g id="node4" class="node"><title>Node4</title>
<g id="a_node4"><a xlink:href="../../d1/df3/classLMS7SuiteAppFrame.html#a08626f72855857180d80ab271f481d08" target="_top" xlink:title="LMS7SuiteAppFrame::\lOnShowConnectionSettings">
<polygon fill="white" stroke="black" points="311,-0.5 311,-30.5 451,-30.5 451,-0.5 311,-0.5"/>
<text text-anchor="start" x="319" y="-18.5" font-family="Helvetica,sans-Serif" font-size="10.00">LMS7SuiteAppFrame::</text>
<text text-anchor="middle" x="381" y="-7.5" font-family="Helvetica,sans-Serif" font-size="10.00">OnShowConnectionSettings</text>
</a>
</g>
</g>
<!-- Node2&#45;&gt;Node4 -->
<g id="edge3" class="edge"><title>Node2&#45;&gt;Node4</title>
<path fill="none" stroke="midnightblue" d="M285.12,-29.259C293.671,-28.0191 302.398,-26.7535 310.925,-25.5169"/>
<polygon fill="midnightblue" stroke="midnightblue" points="284.58,-25.8006 275.186,-30.6996 285.585,-32.7281 284.58,-25.8006"/>
</g>
</g>
</svg>
