<?xml version="1.0" encoding="UTF-8" standalone="no"?>
<!DOCTYPE svg PUBLIC "-//W3C//DTD SVG 1.1//EN"
 "http://www.w3.org/Graphics/SVG/1.1/DTD/svg11.dtd">
<!-- Generated by graphviz version 2.38.0 (20140413.2041)
 -->
<!-- Title: pnlQSpark::OnSwitchToChannelA Pages: 1 -->
<!--zoomable 598 -->
<svg id="main" version="1.1" xmlns="http://www.w3.org/2000/svg" xmlns:xlink="http://www.w3.org/1999/xlink" xml:space="preserve" onload="init(evt)">
<style type="text/css"><![CDATA[
.edge:hover path { stroke: red; }
.edge:hover polygon { stroke: red; fill: red; }
]]></style>
<script type="text/javascript"><![CDATA[
var edges = document.getElementsByTagName('g');
if (edges && edges.length) {
  for (var i=0;i<edges.length;i++) {
    if (edges[i].id.substr(0,4)=='edge') {
      edges[i].setAttribute('class','edge');
    }
  }
}
]]></script>
        <defs>
                <circle id="rim" cx="0" cy="0" r="7"/>
                <circle id="rim2" cx="0" cy="0" r="3.5"/>
                <g id="zoomPlus">
                        <use xlink:href="#rim" fill="#404040">
                                <set attributeName="fill" to="#808080" begin="zoomplus.mouseover" end="zoomplus.mouseout"/>
                        </use>
                        <path d="M-4,0h8M0,-4v8" fill="none" stroke="white" stroke-width="1.5" pointer-events="none"/>
                </g>
                <g id="zoomMin">
                        <use xlink:href="#rim" fill="#404040">
                                <set attributeName="fill" to="#808080" begin="zoomminus.mouseover" end="zoomminus.mouseout"/>
                        </use>
                        <path d="M-4,0h8" fill="none" stroke="white" stroke-width="1.5" pointer-events="none"/>
                </g>
                <g id="dirArrow">
                        <path fill="none" stroke="white" stroke-width="1.5" d="M0,-3.0v7 M-2.5,-0.5L0,-3.0L2.5,-0.5"/>
                </g>
               <g id="resetDef">
                       <use xlink:href="#rim2" fill="#404040">
                               <set attributeName="fill" to="#808080" begin="reset.mouseover" end="reset.mouseout"/>
                       </use>
               </g>
        </defs>

<script type="text/javascript">
var viewWidth = 921;
var viewHeight = 598;
var sectionId = 'dynsection-14';
</script>
<script xlink:href="../../svgpan.js"/>
<svg id="graph" class="graph">
<g id="viewport">
<title>pnlQSpark::OnSwitchToChannelA</title>
<polygon fill="white" stroke="none" points="-4,4 -4,-594 917,-594 917,4 -4,4"/>
<!-- Node1 -->
<g id="node1" class="node"><title>Node1</title>
<polygon fill="#bfbfbf" stroke="black" points="0,-266.5 0,-285.5 165,-285.5 165,-266.5 0,-266.5"/>
<text text-anchor="middle" x="82.5" y="-273.5" font-family="Helvetica,sans-Serif" font-size="10.00">pnlQSpark::OnSwitchToChannelA</text>
</g>
<!-- Node2 -->
<g id="node2" class="node"><title>Node2</title>
<g id="a_node2"><a xlink:href="../../df/de1/lms7__api_8cpp.html#a00772bc179a978aa279a6ce238a24c18" target="_top" xlink:title="LMS_WriteFPGAReg">
<polygon fill="white" stroke="black" points="374,-285.5 374,-304.5 484,-304.5 484,-285.5 374,-285.5"/>
<text text-anchor="middle" x="429" y="-292.5" font-family="Helvetica,sans-Serif" font-size="10.00">LMS_WriteFPGAReg</text>
</a>
</g>
</g>
<!-- Node1&#45;&gt;Node2 -->
<g id="edge1" class="edge"><title>Node1&#45;&gt;Node2</title>
<path fill="none" stroke="midnightblue" d="M165.142,-280.503C225.831,-283.85 307.499,-288.354 363.612,-291.449"/>
<polygon fill="midnightblue" stroke="midnightblue" points="363.603,-294.954 373.781,-292.01 363.989,-287.964 363.603,-294.954"/>
</g>
<!-- Node26 -->
<g id="node26" class="node"><title>Node26</title>
<g id="a_node26"><a xlink:href="../../d5/d92/classpnlQSpark.html#ad6c8ad2aaa8af15adaa95e5a86eb9853" target="_top" xlink:title="pnlQSpark::OnbtnUpdateAll">
<polygon fill="white" stroke="black" points="201,-247.5 201,-266.5 338,-266.5 338,-247.5 201,-247.5"/>
<text text-anchor="middle" x="269.5" y="-254.5" font-family="Helvetica,sans-Serif" font-size="10.00">pnlQSpark::OnbtnUpdateAll</text>
</a>
</g>
</g>
<!-- Node1&#45;&gt;Node26 -->
<g id="edge28" class="edge"><title>Node1&#45;&gt;Node26</title>
<path fill="none" stroke="midnightblue" d="M165.182,-267.611C173.646,-266.742 182.233,-265.86 190.654,-264.995"/>
<polygon fill="midnightblue" stroke="midnightblue" points="191.233,-268.454 200.823,-263.951 190.518,-261.491 191.233,-268.454"/>
</g>
<!-- Node3 -->
<g id="node3" class="node"><title>Node3</title>
<g id="a_node3"><a xlink:href="../../d3/d22/classlime_1_1LMS7__Device.html#a4fb66a6ab68f16a0b6506329b05a08b2" target="_top" xlink:title="lime::LMS7_Device::\lGetConnection">
<polygon fill="white" stroke="black" points="520,-305 520,-335 628,-335 628,-305 520,-305"/>
<text text-anchor="start" x="528" y="-323" font-family="Helvetica,sans-Serif" font-size="10.00">lime::LMS7_Device::</text>
<text text-anchor="middle" x="574" y="-312" font-family="Helvetica,sans-Serif" font-size="10.00">GetConnection</text>
</a>
</g>
</g>
<!-- Node2&#45;&gt;Node3 -->
<g id="edge2" class="edge"><title>Node2&#45;&gt;Node3</title>
<path fill="none" stroke="midnightblue" d="M484.062,-304.451C492.476,-305.922 501.232,-307.453 509.826,-308.956"/>
<polygon fill="midnightblue" stroke="midnightblue" points="509.356,-312.426 519.809,-310.701 510.561,-305.531 509.356,-312.426"/>
</g>
<!-- Node4 -->
<g id="node4" class="node"><title>Node4</title>
<g id="a_node4"><a xlink:href="../../d4/d67/lms_8c.html#a0e01e477b1f10e0a63e54de2dd2f8240" target="_top" xlink:title="lms">
<polygon fill="white" stroke="black" points="558,-266.5 558,-285.5 590,-285.5 590,-266.5 558,-266.5"/>
<text text-anchor="middle" x="574" y="-273.5" font-family="Helvetica,sans-Serif" font-size="10.00">lms</text>
</a>
</g>
</g>
<!-- Node2&#45;&gt;Node4 -->
<g id="edge3" class="edge"><title>Node2&#45;&gt;Node4</title>
<path fill="none" stroke="midnightblue" d="M484.062,-287.817C505.939,-284.91 530.134,-281.695 547.759,-279.354"/>
<polygon fill="midnightblue" stroke="midnightblue" points="548.353,-282.806 557.804,-278.019 547.431,-275.867 548.353,-282.806"/>
</g>
<!-- Node24 -->
<g id="node24" class="node"><title>Node24</title>
<g id="a_node24"><a xlink:href="../../d5/d6c/namespacelime.html#adc6af0cf8e0a70f3ef09fac1244f8c48" target="_top" xlink:title="lime::ReportError">
<polygon fill="white" stroke="black" points="528.5,-228.5 528.5,-247.5 619.5,-247.5 619.5,-228.5 528.5,-228.5"/>
<text text-anchor="middle" x="574" y="-235.5" font-family="Helvetica,sans-Serif" font-size="10.00">lime::ReportError</text>
</a>
</g>
</g>
<!-- Node2&#45;&gt;Node24 -->
<g id="edge26" class="edge"><title>Node2&#45;&gt;Node24</title>
<path fill="none" stroke="midnightblue" d="M459.732,-285.421C467.706,-282.614 476.259,-279.383 484,-276 500.578,-268.756 503.443,-264.293 520,-257 524.688,-254.935 529.678,-252.919 534.649,-251.019"/>
<polygon fill="midnightblue" stroke="midnightblue" points="535.936,-254.275 544.103,-247.525 533.509,-247.709 535.936,-254.275"/>
</g>
<!-- Node5 -->
<g id="node5" class="node"><title>Node5</title>
<g id="a_node5"><a xlink:href="../../d4/d67/lms_8c.html#a433227191fe883dcb8aa15d291bb29a1" target="_top" xlink:title="Case1F">
<polygon fill="white" stroke="black" points="672.5,-418.5 672.5,-437.5 723.5,-437.5 723.5,-418.5 672.5,-418.5"/>
<text text-anchor="middle" x="698" y="-425.5" font-family="Helvetica,sans-Serif" font-size="10.00">Case1F</text>
</a>
</g>
</g>
<!-- Node4&#45;&gt;Node5 -->
<g id="edge4" class="edge"><title>Node4&#45;&gt;Node5</title>
<path fill="none" stroke="midnightblue" d="M590.466,-277.814C602.257,-279.983 618.104,-284.717 628,-295 664.844,-333.284 630.709,-367.59 664,-409 664.932,-410.159 665.955,-411.262 667.046,-412.308"/>
<polygon fill="midnightblue" stroke="midnightblue" points="664.924,-415.091 674.985,-418.413 669.191,-409.542 664.924,-415.091"/>
</g>
<!-- Node6 -->
<g id="node6" class="node"><title>Node6</title>
<g id="a_node6"><a xlink:href="../../d4/d67/lms_8c.html#ace0cd8bf61cb9b86b98f0cef03b5a9d9" target="_top" xlink:title="Case2F">
<polygon fill="white" stroke="black" points="672.5,-380.5 672.5,-399.5 723.5,-399.5 723.5,-380.5 672.5,-380.5"/>
<text text-anchor="middle" x="698" y="-387.5" font-family="Helvetica,sans-Serif" font-size="10.00">Case2F</text>
</a>
</g>
</g>
<!-- Node4&#45;&gt;Node6 -->
<g id="edge5" class="edge"><title>Node4&#45;&gt;Node6</title>
<path fill="none" stroke="midnightblue" d="M590.09,-278.201C601.674,-280.584 617.426,-285.416 628,-295 655.693,-320.1 638.65,-343.535 664,-371 665.037,-372.123 666.156,-373.199 667.333,-374.226"/>
<polygon fill="midnightblue" stroke="midnightblue" points="665.558,-377.262 675.709,-380.296 669.666,-371.594 665.558,-377.262"/>
</g>
<!-- Node7 -->
<g id="node7" class="node"><title>Node7</title>
<g id="a_node7"><a xlink:href="../../d4/d67/lms_8c.html#a5f53b53ccc591e3643c4af2aee2e7f32" target="_top" xlink:title="Case3F">
<polygon fill="white" stroke="black" points="672.5,-342.5 672.5,-361.5 723.5,-361.5 723.5,-342.5 672.5,-342.5"/>
<text text-anchor="middle" x="698" y="-349.5" font-family="Helvetica,sans-Serif" font-size="10.00">Case3F</text>
</a>
</g>
</g>
<!-- Node4&#45;&gt;Node7 -->
<g id="edge6" class="edge"><title>Node4&#45;&gt;Node7</title>
<path fill="none" stroke="midnightblue" d="M590.255,-279.434C601.341,-282.397 616.377,-287.413 628,-295 647.481,-307.717 645.727,-318.6 664,-333 665.772,-334.396 667.658,-335.758 669.596,-337.069"/>
<polygon fill="midnightblue" stroke="midnightblue" points="667.895,-340.134 678.234,-342.449 671.596,-334.192 667.895,-340.134"/>
</g>
<!-- Node8 -->
<g id="node8" class="node"><title>Node8</title>
<g id="a_node8"><a xlink:href="../../d4/d67/lms_8c.html#a5086763d5b258349bc13d6be7e7d0665" target="_top" xlink:title="Case4F">
<polygon fill="white" stroke="black" points="672.5,-304.5 672.5,-323.5 723.5,-323.5 723.5,-304.5 672.5,-304.5"/>
<text text-anchor="middle" x="698" y="-311.5" font-family="Helvetica,sans-Serif" font-size="10.00">Case4F</text>
</a>
</g>
</g>
<!-- Node4&#45;&gt;Node8 -->
<g id="edge7" class="edge"><title>Node4&#45;&gt;Node8</title>
<path fill="none" stroke="midnightblue" d="M590.451,-280.813C608.517,-286.44 638.965,-295.923 662.697,-303.315"/>
<polygon fill="midnightblue" stroke="midnightblue" points="661.812,-306.706 672.401,-306.338 663.894,-300.022 661.812,-306.706"/>
</g>
<!-- Node9 -->
<g id="node9" class="node"><title>Node9</title>
<g id="a_node9"><a xlink:href="../../db/de5/recipes_8c.html#aee25e218394217a134e805ea09fb0fe9" target="_top" xlink:title="free_ivector">
<polygon fill="white" stroke="black" points="664,-266.5 664,-285.5 732,-285.5 732,-266.5 664,-266.5"/>
<text text-anchor="middle" x="698" y="-273.5" font-family="Helvetica,sans-Serif" font-size="10.00">free_ivector</text>
</a>
</g>
</g>
<!-- Node4&#45;&gt;Node9 -->
<g id="edge8" class="edge"><title>Node4&#45;&gt;Node9</title>
<path fill="none" stroke="midnightblue" d="M590.451,-276C606.282,-276 631.622,-276 653.618,-276"/>
<polygon fill="midnightblue" stroke="midnightblue" points="653.766,-279.5 663.766,-276 653.766,-272.5 653.766,-279.5"/>
</g>
<!-- Node10 -->
<g id="node10" class="node"><title>Node10</title>
<g id="a_node10"><a xlink:href="../../db/de5/recipes_8c.html#a3e0d121b098c19c0bdc2429e5b9f1625" target="_top" xlink:title="free_matrix">
<polygon fill="white" stroke="black" points="665.5,-228.5 665.5,-247.5 730.5,-247.5 730.5,-228.5 665.5,-228.5"/>
<text text-anchor="middle" x="698" y="-235.5" font-family="Helvetica,sans-Serif" font-size="10.00">free_matrix</text>
</a>
</g>
</g>
<!-- Node4&#45;&gt;Node10 -->
<g id="edge9" class="edge"><title>Node4&#45;&gt;Node10</title>
<path fill="none" stroke="midnightblue" d="M590.451,-271.187C606.984,-266.038 633.887,-257.658 656.523,-250.608"/>
<polygon fill="midnightblue" stroke="midnightblue" points="657.737,-253.895 666.244,-247.58 655.655,-247.212 657.737,-253.895"/>
</g>
<!-- Node11 -->
<g id="node11" class="node"><title>Node11</title>
<g id="a_node11"><a xlink:href="../../db/de5/recipes_8c.html#a8214a52d888e820222c0382648329c0c" target="_top" xlink:title="free_vector">
<polygon fill="white" stroke="black" points="768,-190.5 768,-209.5 833,-209.5 833,-190.5 768,-190.5"/>
<text text-anchor="middle" x="800.5" y="-197.5" font-family="Helvetica,sans-Serif" font-size="10.00">free_vector</text>
</a>
</g>
</g>
<!-- Node4&#45;&gt;Node11 -->
<g id="edge10" class="edge"><title>Node4&#45;&gt;Node11</title>
<path fill="none" stroke="midnightblue" d="M590.255,-272.566C601.341,-269.603 616.377,-264.587 628,-257 647.481,-244.283 643.32,-229.658 664,-219 692.927,-204.092 729.699,-199.698 757.635,-198.835"/>
<polygon fill="midnightblue" stroke="midnightblue" points="757.934,-202.331 767.874,-198.663 757.816,-195.332 757.934,-202.331"/>
</g>
<!-- Node12 -->
<g id="node12" class="node"><title>Node12</title>
<g id="a_node12"><a xlink:href="../../d4/d67/lms_8c.html#ad1d6c875ff429888b51dd1155f0311ad" target="_top" xlink:title="ivector">
<polygon fill="white" stroke="black" points="675,-114.5 675,-133.5 721,-133.5 721,-114.5 675,-114.5"/>
<text text-anchor="middle" x="698" y="-121.5" font-family="Helvetica,sans-Serif" font-size="10.00">ivector</text>
</a>
</g>
</g>
<!-- Node4&#45;&gt;Node12 -->
<g id="edge11" class="edge"><title>Node4&#45;&gt;Node12</title>
<path fill="none" stroke="midnightblue" d="M590.466,-274.186C602.257,-272.017 618.104,-267.283 628,-257 664.844,-218.716 630.709,-184.41 664,-143 664.932,-141.841 665.955,-140.738 667.046,-139.692"/>
<polygon fill="midnightblue" stroke="midnightblue" points="669.191,-142.458 674.985,-133.587 664.924,-136.909 669.191,-142.458"/>
</g>
<!-- Node13 -->
<g id="node13" class="node"><title>Node13</title>
<g id="a_node13"><a xlink:href="../../db/de5/recipes_8c.html#a66ff65ad0355ec1f4a7722bcdafc8cd3" target="_top" xlink:title="lubksb">
<polygon fill="white" stroke="black" points="675.5,-76.5 675.5,-95.5 720.5,-95.5 720.5,-76.5 675.5,-76.5"/>
<text text-anchor="middle" x="698" y="-83.5" font-family="Helvetica,sans-Serif" font-size="10.00">lubksb</text>
</a>
</g>
</g>
<!-- Node4&#45;&gt;Node13 -->
<g id="edge12" class="edge"><title>Node4&#45;&gt;Node13</title>
<path fill="none" stroke="midnightblue" d="M590.191,-274.467C602.15,-272.45 618.357,-267.784 628,-257 674.275,-205.247 622.514,-160.665 664,-105 665.032,-103.615 666.197,-102.315 667.457,-101.097"/>
<polygon fill="midnightblue" stroke="midnightblue" points="669.626,-103.845 675.451,-94.9956 665.379,-98.2806 669.626,-103.845"/>
</g>
<!-- Node14 -->
<g id="node14" class="node"><title>Node14</title>
<g id="a_node14"><a xlink:href="../../db/de5/recipes_8c.html#a623fec796d9d53e5e4a4d30226547da7" target="_top" xlink:title="ludcmp">
<polygon fill="white" stroke="black" points="674,-152.5 674,-171.5 722,-171.5 722,-152.5 674,-152.5"/>
<text text-anchor="middle" x="698" y="-159.5" font-family="Helvetica,sans-Serif" font-size="10.00">ludcmp</text>
</a>
</g>
</g>
<!-- Node4&#45;&gt;Node14 -->
<g id="edge13" class="edge"><title>Node4&#45;&gt;Node14</title>
<path fill="none" stroke="midnightblue" d="M590.019,-273.72C601.564,-271.293 617.298,-266.441 628,-257 654.532,-233.595 641.055,-212.931 664,-186 666.489,-183.078 669.404,-180.318 672.451,-177.782"/>
<polygon fill="midnightblue" stroke="midnightblue" points="674.738,-180.441 680.629,-171.635 670.532,-174.845 674.738,-180.441"/>
</g>
<!-- Node17 -->
<g id="node17" class="node"><title>Node17</title>
<g id="a_node17"><a xlink:href="../../d4/d67/lms_8c.html#a37bcb1539d76b53344102435e2ab9c91" target="_top" xlink:title="matrix">
<polygon fill="white" stroke="black" points="676,-38.5 676,-57.5 720,-57.5 720,-38.5 676,-38.5"/>
<text text-anchor="middle" x="698" y="-45.5" font-family="Helvetica,sans-Serif" font-size="10.00">matrix</text>
</a>
</g>
</g>
<!-- Node4&#45;&gt;Node17 -->
<g id="edge18" class="edge"><title>Node4&#45;&gt;Node17</title>
<path fill="none" stroke="midnightblue" d="M590.323,-274.582C602.358,-272.632 618.604,-268 628,-257 683.822,-191.649 614.214,-137.059 664,-67 665.149,-65.3834 666.482,-63.8847 667.939,-62.4985"/>
<polygon fill="midnightblue" stroke="midnightblue" points="670.08,-65.2683 675.998,-56.4803 665.891,-59.6598 670.08,-65.2683"/>
</g>
<!-- Node18 -->
<g id="node18" class="node"><title>Node18</title>
<g id="a_node18"><a xlink:href="../../d8/d91/rounding_8c.html#aa8d7512cdf5bfbf811cef6a8a091c679" target="_top" xlink:title="round2csd">
<polygon fill="white" stroke="black" points="667,-532.5 667,-551.5 729,-551.5 729,-532.5 667,-532.5"/>
<text text-anchor="middle" x="698" y="-539.5" font-family="Helvetica,sans-Serif" font-size="10.00">round2csd</text>
</a>
</g>
</g>
<!-- Node4&#45;&gt;Node18 -->
<g id="edge19" class="edge"><title>Node4&#45;&gt;Node18</title>
<path fill="none" stroke="midnightblue" d="M590.413,-277.342C602.501,-279.248 618.774,-283.857 628,-295 693.427,-374.017 605.863,-438.475 664,-523 664.637,-523.926 665.335,-524.813 666.083,-525.661"/>
<polygon fill="midnightblue" stroke="midnightblue" points="663.99,-528.477 673.87,-532.302 668.532,-523.15 663.99,-528.477"/>
</g>
<!-- Node22 -->
<g id="node22" class="node"><title>Node22</title>
<g id="a_node22"><a xlink:href="../../d8/d91/rounding_8c.html#aca2670cc0fbf948a6b9cb670047c9d5b" target="_top" xlink:title="round2int">
<polygon fill="white" stroke="black" points="670,-494.5 670,-513.5 726,-513.5 726,-494.5 670,-494.5"/>
<text text-anchor="middle" x="698" y="-501.5" font-family="Helvetica,sans-Serif" font-size="10.00">round2int</text>
</a>
</g>
</g>
<!-- Node4&#45;&gt;Node22 -->
<g id="edge23" class="edge"><title>Node4&#45;&gt;Node22</title>
<path fill="none" stroke="midnightblue" d="M590.323,-277.418C602.358,-279.368 618.604,-284 628,-295 683.822,-360.351 614.214,-414.941 664,-485 664.754,-486.061 665.587,-487.071 666.483,-488.032"/>
<polygon fill="midnightblue" stroke="midnightblue" points="664.351,-490.81 674.298,-494.459 668.797,-485.404 664.351,-490.81"/>
</g>
<!-- Node23 -->
<g id="node23" class="node"><title>Node23</title>
<g id="a_node23"><a xlink:href="../../d4/d67/lms_8c.html#ac81ca32708341eb34b25d515d00bc748" target="_top" xlink:title="vector">
<polygon fill="white" stroke="black" points="676,-456.5 676,-475.5 720,-475.5 720,-456.5 676,-456.5"/>
<text text-anchor="middle" x="698" y="-463.5" font-family="Helvetica,sans-Serif" font-size="10.00">vector</text>
</a>
</g>
</g>
<!-- Node4&#45;&gt;Node23 -->
<g id="edge25" class="edge"><title>Node4&#45;&gt;Node23</title>
<path fill="none" stroke="midnightblue" d="M590.191,-277.533C602.15,-279.55 618.357,-284.216 628,-295 674.275,-346.753 622.514,-391.335 664,-447 665.059,-448.421 666.259,-449.753 667.557,-450.999"/>
<polygon fill="midnightblue" stroke="midnightblue" points="665.702,-453.984 675.793,-457.213 669.919,-448.396 665.702,-453.984"/>
</g>
<!-- Node14&#45;&gt;Node11 -->
<g id="edge14" class="edge"><title>Node14&#45;&gt;Node11</title>
<path fill="none" stroke="midnightblue" d="M722.057,-170.718C734.676,-175.489 750.569,-181.499 764.668,-186.83"/>
<polygon fill="midnightblue" stroke="midnightblue" points="763.489,-190.126 774.081,-190.389 765.965,-183.578 763.489,-190.126"/>
</g>
<!-- Node15 -->
<g id="node15" class="node"><title>Node15</title>
<g id="a_node15"><a xlink:href="../../db/de5/recipes_8c.html#a208e98f19b2f252315399d02c0594a46" target="_top" xlink:title="nrerror">
<polygon fill="white" stroke="black" points="869,-133.5 869,-152.5 913,-152.5 913,-133.5 869,-133.5"/>
<text text-anchor="middle" x="891" y="-140.5" font-family="Helvetica,sans-Serif" font-size="10.00">nrerror</text>
</a>
</g>
</g>
<!-- Node14&#45;&gt;Node15 -->
<g id="edge15" class="edge"><title>Node14&#45;&gt;Node15</title>
<path fill="none" stroke="midnightblue" d="M722.039,-159.708C756.23,-156.307 820.482,-149.915 858.842,-146.1"/>
<polygon fill="midnightblue" stroke="midnightblue" points="859.324,-149.569 868.928,-145.096 858.631,-142.603 859.324,-149.569"/>
</g>
<!-- Node16 -->
<g id="node16" class="node"><title>Node16</title>
<g id="a_node16"><a xlink:href="../../db/de5/recipes_8c.html#a5e6092211a5f7e2d6ae9282379d3c604" target="_top" xlink:title="vector">
<polygon fill="white" stroke="black" points="778.5,-114.5 778.5,-133.5 822.5,-133.5 822.5,-114.5 778.5,-114.5"/>
<text text-anchor="middle" x="800.5" y="-121.5" font-family="Helvetica,sans-Serif" font-size="10.00">vector</text>
</a>
</g>
</g>
<!-- Node14&#45;&gt;Node16 -->
<g id="edge16" class="edge"><title>Node14&#45;&gt;Node16</title>
<path fill="none" stroke="midnightblue" d="M722.057,-153.282C735.938,-148.033 753.781,-141.287 768.84,-135.593"/>
<polygon fill="midnightblue" stroke="midnightblue" points="770.149,-138.84 778.265,-132.029 767.674,-132.292 770.149,-138.84"/>
</g>
<!-- Node16&#45;&gt;Node15 -->
<g id="edge17" class="edge"><title>Node16&#45;&gt;Node15</title>
<path fill="none" stroke="midnightblue" d="M822.923,-128.599C833.685,-130.91 846.928,-133.753 858.796,-136.301"/>
<polygon fill="midnightblue" stroke="midnightblue" points="858.262,-139.766 868.774,-138.443 859.731,-132.922 858.262,-139.766"/>
</g>
<!-- Node19 -->
<g id="node19" class="node"><title>Node19</title>
<g id="a_node19"><a xlink:href="../../d8/d91/rounding_8c.html#a2cff6b77e73872659c44b0c99f6bd97f" target="_top" xlink:title="csd2int">
<polygon fill="white" stroke="black" points="776.5,-532.5 776.5,-551.5 824.5,-551.5 824.5,-532.5 776.5,-532.5"/>
<text text-anchor="middle" x="800.5" y="-539.5" font-family="Helvetica,sans-Serif" font-size="10.00">csd2int</text>
</a>
</g>
</g>
<!-- Node18&#45;&gt;Node19 -->
<g id="edge20" class="edge"><title>Node18&#45;&gt;Node19</title>
<path fill="none" stroke="midnightblue" d="M729.153,-542C740.87,-542 754.331,-542 766.321,-542"/>
<polygon fill="midnightblue" stroke="midnightblue" points="766.398,-545.5 776.398,-542 766.398,-538.5 766.398,-545.5"/>
</g>
<!-- Node20 -->
<g id="node20" class="node"><title>Node20</title>
<g id="a_node20"><a xlink:href="../../db/d82/wglew_8h.html#a500a82aecba06f4550f6849b8099ca21" target="_top" xlink:title="int">
<polygon fill="white" stroke="black" points="786,-494.5 786,-513.5 815,-513.5 815,-494.5 786,-494.5"/>
<text text-anchor="middle" x="800.5" y="-501.5" font-family="Helvetica,sans-Serif" font-size="10.00">int</text>
</a>
</g>
</g>
<!-- Node18&#45;&gt;Node20 -->
<g id="edge21" class="edge"><title>Node18&#45;&gt;Node20</title>
<path fill="none" stroke="midnightblue" d="M724.36,-532.411C740.388,-526.351 760.934,-518.582 776.49,-512.7"/>
<polygon fill="midnightblue" stroke="midnightblue" points="777.778,-515.955 785.894,-509.145 775.302,-509.408 777.778,-515.955"/>
</g>
<!-- Node21 -->
<g id="node21" class="node"><title>Node21</title>
<g id="a_node21"><a xlink:href="../../d8/d91/rounding_8c.html#ab3a64ec72c5600bc114621e93309c8c3" target="_top" xlink:title="int2csd">
<polygon fill="white" stroke="black" points="776.5,-570.5 776.5,-589.5 824.5,-589.5 824.5,-570.5 776.5,-570.5"/>
<text text-anchor="middle" x="800.5" y="-577.5" font-family="Helvetica,sans-Serif" font-size="10.00">int2csd</text>
</a>
</g>
</g>
<!-- Node18&#45;&gt;Node21 -->
<g id="edge22" class="edge"><title>Node18&#45;&gt;Node21</title>
<path fill="none" stroke="midnightblue" d="M724.36,-551.589C737.181,-556.437 752.894,-562.378 766.631,-567.572"/>
<polygon fill="midnightblue" stroke="midnightblue" points="765.623,-570.933 776.214,-571.195 768.099,-564.385 765.623,-570.933"/>
</g>
<!-- Node22&#45;&gt;Node20 -->
<g id="edge24" class="edge"><title>Node22&#45;&gt;Node20</title>
<path fill="none" stroke="midnightblue" d="M726.197,-504C741.576,-504 760.634,-504 775.462,-504"/>
<polygon fill="midnightblue" stroke="midnightblue" points="775.846,-507.5 785.846,-504 775.846,-500.5 775.846,-507.5"/>
</g>
<!-- Node25 -->
<g id="node25" class="node"><title>Node25</title>
<g id="a_node25"><a xlink:href="../../d9/df5/Logger_8cpp.html#ada38bf01d6d691de953ed69268ea6516" target="_top" xlink:title="errToStr">
<polygon fill="white" stroke="black" points="672,-0.5 672,-19.5 724,-19.5 724,-0.5 672,-0.5"/>
<text text-anchor="middle" x="698" y="-7.5" font-family="Helvetica,sans-Serif" font-size="10.00">errToStr</text>
</a>
</g>
</g>
<!-- Node24&#45;&gt;Node25 -->
<g id="edge27" class="edge"><title>Node24&#45;&gt;Node25</title>
<path fill="none" stroke="midnightblue" d="M576.879,-228.068C583.434,-195.766 608.003,-92.1435 664,-29 665.014,-27.8562 666.115,-26.764 667.277,-25.7234"/>
<polygon fill="midnightblue" stroke="midnightblue" points="669.616,-28.3484 675.6,-19.6052 665.47,-22.7084 669.616,-28.3484"/>
</g>
<!-- Node26&#45;&gt;Node2 -->
<g id="edge33" class="edge"><title>Node26&#45;&gt;Node2</title>
<path fill="none" stroke="midnightblue" d="M310.244,-266.589C331.028,-271.604 356.661,-277.788 378.699,-283.105"/>
<polygon fill="midnightblue" stroke="midnightblue" points="378,-286.537 388.542,-285.48 379.642,-279.732 378,-286.537"/>
</g>
<!-- Node27 -->
<g id="node27" class="node"><title>Node27</title>
<g id="a_node27"><a xlink:href="../../df/de1/lms7__api_8cpp.html#a9732243494479ad720f1b4d8cc12c3f7" target="_top" xlink:title="LMS_ReadFPGAReg">
<polygon fill="white" stroke="black" points="374,-247.5 374,-266.5 484,-266.5 484,-247.5 374,-247.5"/>
<text text-anchor="middle" x="429" y="-254.5" font-family="Helvetica,sans-Serif" font-size="10.00">LMS_ReadFPGAReg</text>
</a>
</g>
</g>
<!-- Node26&#45;&gt;Node27 -->
<g id="edge29" class="edge"><title>Node26&#45;&gt;Node27</title>
<path fill="none" stroke="midnightblue" d="M338.208,-257C346.625,-257 355.214,-257 363.579,-257"/>
<polygon fill="midnightblue" stroke="midnightblue" points="363.646,-260.5 373.646,-257 363.646,-253.5 363.646,-260.5"/>
</g>
<!-- Node27&#45;&gt;Node3 -->
<g id="edge30" class="edge"><title>Node27&#45;&gt;Node3</title>
<path fill="none" stroke="midnightblue" d="M459.732,-266.579C467.706,-269.386 476.259,-272.617 484,-276 500.578,-283.244 503.815,-286.917 520,-295 523.584,-296.79 527.319,-298.621 531.074,-300.437"/>
<polygon fill="midnightblue" stroke="midnightblue" points="529.844,-303.729 540.375,-304.893 532.869,-297.416 529.844,-303.729"/>
</g>
<!-- Node27&#45;&gt;Node4 -->
<g id="edge31" class="edge"><title>Node27&#45;&gt;Node4</title>
<path fill="none" stroke="midnightblue" d="M484.062,-264.183C505.939,-267.09 530.134,-270.305 547.759,-272.646"/>
<polygon fill="midnightblue" stroke="midnightblue" points="547.431,-276.133 557.804,-273.981 548.353,-269.194 547.431,-276.133"/>
</g>
<!-- Node27&#45;&gt;Node24 -->
<g id="edge32" class="edge"><title>Node27&#45;&gt;Node24</title>
<path fill="none" stroke="midnightblue" d="M484.062,-249.817C495.204,-248.336 506.948,-246.776 518.119,-245.292"/>
<polygon fill="midnightblue" stroke="midnightblue" points="518.731,-248.741 528.183,-243.955 517.809,-241.802 518.731,-248.741"/>
</g>
</g>
</svg>
        <g id="navigator" transform="translate(0 0)" fill="#404254">
                <rect fill="#f2f5e9" fill-opacity="0.5" stroke="#606060" stroke-width=".5" x="0" y="0" width="60" height="60"/>
                <use id="zoomplus" xlink:href="#zoomPlus" x="17" y="9" onmousedown="handleZoom(evt,'in')"/>
                <use id="zoomminus" xlink:href="#zoomMin" x="42" y="9" onmousedown="handleZoom(evt,'out')"/>
                <use id="reset" xlink:href="#resetDef" x="30" y="36" onmousedown="handleReset()"/>
                <g id="arrowUp" xlink:href="#dirArrow" transform="translate(30 24)" onmousedown="handlePan(0,-1)">
                  <use xlink:href="#rim" fill="#404040">
                        <set attributeName="fill" to="#808080" begin="arrowUp.mouseover" end="arrowUp.mouseout"/>
                  </use>
                  <path fill="none" stroke="white" stroke-width="1.5" d="M0,-3.0v7 M-2.5,-0.5L0,-3.0L2.5,-0.5"/>
                </g>
                <g id="arrowRight" xlink:href="#dirArrow" transform="rotate(90) translate(36 -43)" onmousedown="handlePan(1,0)">
                  <use xlink:href="#rim" fill="#404040">
                        <set attributeName="fill" to="#808080" begin="arrowRight.mouseover" end="arrowRight.mouseout"/>
                  </use>
                  <path fill="none" stroke="white" stroke-width="1.5" d="M0,-3.0v7 M-2.5,-0.5L0,-3.0L2.5,-0.5"/>
                </g>
                <g id="arrowDown" xlink:href="#dirArrow" transform="rotate(180) translate(-30 -48)" onmousedown="handlePan(0,1)">
                  <use xlink:href="#rim" fill="#404040">
                        <set attributeName="fill" to="#808080" begin="arrowDown.mouseover" end="arrowDown.mouseout"/>
                  </use>
                  <path fill="none" stroke="white" stroke-width="1.5" d="M0,-3.0v7 M-2.5,-0.5L0,-3.0L2.5,-0.5"/>
                </g>
                <g id="arrowLeft" xlink:href="#dirArrow" transform="rotate(270) translate(-36 17)" onmousedown="handlePan(-1,0)">
                  <use xlink:href="#rim" fill="#404040">
                        <set attributeName="fill" to="#808080" begin="arrowLeft.mouseover" end="arrowLeft.mouseout"/>
                  </use>
                  <path fill="none" stroke="white" stroke-width="1.5" d="M0,-3.0v7 M-2.5,-0.5L0,-3.0L2.5,-0.5"/>
                </g>
        </g>
        <svg viewBox="0 0 15 15" width="100%" height="30px" preserveAspectRatio="xMaxYMin meet">
         <g id="arrow_out" transform="scale(0.3 0.3)">
          <a xlink:href="classpnlQSpark_a1c69c7c0f0e1ea927c44c303cedf1666_cgraph_org.svg" target="_base">
           <rect id="button" ry="5" rx="5" y="6" x="6" height="38" width="38"
                fill="#f2f5e9" fill-opacity="0.5" stroke="#606060" stroke-width="1.0"/>
           <path id="arrow"
             d="M 11.500037,31.436501 C 11.940474,20.09759 22.043105,11.32322 32.158766,21.979434 L 37.068811,17.246167 C 37.068811,17.246167 37.088388,32 37.088388,32 L 22.160133,31.978069 C 22.160133,31.978069 26.997745,27.140456 26.997745,27.140456 C 18.528582,18.264221 13.291696,25.230495 11.500037,31.436501 z"
             style="fill:#404040;"/>
          </a>
         </g>
        </svg>
</svg>
