<?xml version="1.0" encoding="UTF-8" standalone="no"?>
<!DOCTYPE svg PUBLIC "-//W3C//DTD SVG 1.1//EN"
 "http://www.w3.org/Graphics/SVG/1.1/DTD/svg11.dtd">
<!-- Generated by graphviz version 2.38.0 (20140413.2041)
 -->
<!-- Title: pnlQSpark::OnConfigurePLL Pages: 1 -->
<svg width="454pt" height="104pt"
 viewBox="0.00 0.00 454.00 104.00" xmlns="http://www.w3.org/2000/svg" xmlns:xlink="http://www.w3.org/1999/xlink">
<g id="graph0" class="graph" transform="scale(1 1) rotate(0) translate(4 100)">
<title>pnlQSpark::OnConfigurePLL</title>
<polygon fill="white" stroke="none" points="-4,4 -4,-100 450,-100 450,4 -4,4"/>
<!-- Node1 -->
<g id="node1" class="node"><title>Node1</title>
<polygon fill="#bfbfbf" stroke="black" points="0,-38.5 0,-57.5 140,-57.5 140,-38.5 0,-38.5"/>
<text text-anchor="middle" x="70" y="-45.5" font-family="Helvetica,sans-Serif" font-size="10.00">pnlQSpark::OnConfigurePLL</text>
</g>
<!-- Node2 -->
<g id="node2" class="node"><title>Node2</title>
<g id="a_node2"><a xlink:href="../../d5/d92/classpnlQSpark.html#af88d796ea159c52bea44f564e89cfe99" target="_top" xlink:title="pnlQSpark::OnWriteAll">
<polygon fill="white" stroke="black" points="178,-76.5 178,-95.5 294,-95.5 294,-76.5 178,-76.5"/>
<text text-anchor="middle" x="236" y="-83.5" font-family="Helvetica,sans-Serif" font-size="10.00">pnlQSpark::OnWriteAll</text>
</a>
</g>
</g>
<!-- Node1&#45;&gt;Node2 -->
<g id="edge1" class="edge"><title>Node1&#45;&gt;Node2</title>
<path fill="none" stroke="midnightblue" d="M122.341,-59.8961C145.393,-65.2374 172.221,-71.4537 193.913,-76.4799"/>
<polygon fill="midnightblue" stroke="midnightblue" points="122.916,-56.4367 112.384,-57.589 121.336,-63.256 122.916,-56.4367"/>
</g>
<!-- Node3 -->
<g id="node3" class="node"><title>Node3</title>
<g id="a_node3"><a xlink:href="../../d5/d92/classpnlQSpark.html#a144727146c22d930542be934f1166e59" target="_top" xlink:title="pnlQSpark::pnlQSpark">
<polygon fill="white" stroke="black" points="332,-57.5 332,-76.5 446,-76.5 446,-57.5 332,-57.5"/>
<text text-anchor="middle" x="389" y="-64.5" font-family="Helvetica,sans-Serif" font-size="10.00">pnlQSpark::pnlQSpark</text>
</a>
</g>
</g>
<!-- Node1&#45;&gt;Node3 -->
<g id="edge3" class="edge"><title>Node1&#45;&gt;Node3</title>
<path fill="none" stroke="midnightblue" d="M150.508,-52.7655C207.02,-56.1526 281.531,-60.6186 331.907,-63.638"/>
<polygon fill="midnightblue" stroke="midnightblue" points="150.367,-49.2508 140.175,-52.1462 149.948,-56.2383 150.367,-49.2508"/>
</g>
<!-- Node4 -->
<g id="node4" class="node"><title>Node4</title>
<g id="a_node4"><a xlink:href="../../d5/d92/classpnlQSpark.html#ab405a75a83b70dfac5b56c2e56d62c95" target="_top" xlink:title="pnlQSpark::~pnlQSpark">
<polygon fill="white" stroke="black" points="176,-0.5 176,-19.5 296,-19.5 296,-0.5 176,-0.5"/>
<text text-anchor="middle" x="236" y="-7.5" font-family="Helvetica,sans-Serif" font-size="10.00">pnlQSpark::~pnlQSpark</text>
</a>
</g>
</g>
<!-- Node1&#45;&gt;Node4 -->
<g id="edge4" class="edge"><title>Node1&#45;&gt;Node4</title>
<path fill="none" stroke="midnightblue" d="M122.341,-36.1039C145.393,-30.7626 172.221,-24.5463 193.913,-19.5201"/>
<polygon fill="midnightblue" stroke="midnightblue" points="121.336,-32.744 112.384,-38.411 122.916,-39.5633 121.336,-32.744"/>
</g>
<!-- Node2&#45;&gt;Node3 -->
<g id="edge2" class="edge"><title>Node2&#45;&gt;Node3</title>
<path fill="none" stroke="midnightblue" d="M304.058,-77.5623C313.334,-76.395 322.783,-75.2062 331.834,-74.0673"/>
<polygon fill="midnightblue" stroke="midnightblue" points="303.571,-74.0958 294.087,-78.8169 304.445,-81.041 303.571,-74.0958"/>
</g>
</g>
</svg>
