<?xml version="1.0" encoding="UTF-8" standalone="no"?>
<!DOCTYPE svg PUBLIC "-//W3C//DTD SVG 1.1//EN"
 "http://www.w3.org/Graphics/SVG/1.1/DTD/svg11.dtd">
<!-- Generated by graphviz version 2.38.0 (20140413.2041)
 -->
<!-- Title: /home/erik/prefix/default/src/limesuite&#45;dev/src/boards_wxgui/pnlBuffers.cpp Pages: 1 -->
<svg width="871pt" height="274pt"
 viewBox="0.00 0.00 871.00 274.00" xmlns="http://www.w3.org/2000/svg" xmlns:xlink="http://www.w3.org/1999/xlink">
<g id="graph0" class="graph" transform="scale(1 1) rotate(0) translate(4 270)">
<title>/home/erik/prefix/default/src/limesuite&#45;dev/src/boards_wxgui/pnlBuffers.cpp</title>
<polygon fill="white" stroke="none" points="-4,4 -4,-270 867,-270 867,4 -4,4"/>
<!-- Node1 -->
<g id="node1" class="node"><title>Node1</title>
<polygon fill="#bfbfbf" stroke="black" points="382,-224.5 382,-265.5 528,-265.5 528,-224.5 382,-224.5"/>
<text text-anchor="start" x="390" y="-253.5" font-family="Helvetica,sans-Serif" font-size="10.00">/home/erik/prefix/default</text>
<text text-anchor="start" x="390" y="-242.5" font-family="Helvetica,sans-Serif" font-size="10.00">/src/limesuite&#45;dev/src</text>
<text text-anchor="middle" x="455" y="-231.5" font-family="Helvetica,sans-Serif" font-size="10.00">/boards_wxgui/pnlBuffers.cpp</text>
</g>
<!-- Node2 -->
<g id="node2" class="node"><title>Node2</title>
<g id="a_node2"><a xlink:href="../../d2/ddb/pnlBuffers_8h.html" target="_top" xlink:title="pnlBuffers.h">
<polygon fill="white" stroke="black" points="76.5,-168.5 76.5,-187.5 145.5,-187.5 145.5,-168.5 76.5,-168.5"/>
<text text-anchor="middle" x="111" y="-175.5" font-family="Helvetica,sans-Serif" font-size="10.00">pnlBuffers.h</text>
</a>
</g>
</g>
<!-- Node1&#45;&gt;Node2 -->
<g id="edge1" class="edge"><title>Node1&#45;&gt;Node2</title>
<path fill="none" stroke="midnightblue" d="M381.882,-230.715C323.41,-220.007 239.066,-204.374 155.497,-188.07"/>
<polygon fill="midnightblue" stroke="midnightblue" points="156.062,-184.615 145.576,-186.131 154.719,-191.484 156.062,-184.615"/>
</g>
<!-- Node7 -->
<g id="node7" class="node"><title>Node7</title>
<polygon fill="white" stroke="#bfbfbf" points="164,-168.5 164,-187.5 226,-187.5 226,-168.5 164,-168.5"/>
<text text-anchor="middle" x="195" y="-175.5" font-family="Helvetica,sans-Serif" font-size="10.00">wx/sizer.h</text>
</g>
<!-- Node1&#45;&gt;Node7 -->
<g id="edge6" class="edge"><title>Node1&#45;&gt;Node7</title>
<path fill="none" stroke="midnightblue" d="M381.884,-225.721C334.73,-213.932 275.138,-199.034 236.09,-189.273"/>
<polygon fill="midnightblue" stroke="midnightblue" points="236.688,-185.814 226.138,-186.785 234.991,-192.605 236.688,-185.814"/>
</g>
<!-- Node8 -->
<g id="node8" class="node"><title>Node8</title>
<polygon fill="white" stroke="#bfbfbf" points="244,-168.5 244,-187.5 318,-187.5 318,-168.5 244,-168.5"/>
<text text-anchor="middle" x="281" y="-175.5" font-family="Helvetica,sans-Serif" font-size="10.00">wx/stattext.h</text>
</g>
<!-- Node1&#45;&gt;Node8 -->
<g id="edge7" class="edge"><title>Node1&#45;&gt;Node8</title>
<path fill="none" stroke="midnightblue" d="M402.794,-224.498C373.808,-213.67 338.653,-200.537 313.577,-191.17"/>
<polygon fill="midnightblue" stroke="midnightblue" points="314.755,-187.873 304.162,-187.652 312.305,-194.431 314.755,-187.873"/>
</g>
<!-- Node9 -->
<g id="node9" class="node"><title>Node9</title>
<polygon fill="white" stroke="#bfbfbf" points="336,-168.5 336,-187.5 404,-187.5 404,-168.5 336,-168.5"/>
<text text-anchor="middle" x="370" y="-175.5" font-family="Helvetica,sans-Serif" font-size="10.00">wx/button.h</text>
</g>
<!-- Node1&#45;&gt;Node9 -->
<g id="edge8" class="edge"><title>Node1&#45;&gt;Node9</title>
<path fill="none" stroke="midnightblue" d="M429.497,-224.498C416.59,-214.628 401.18,-202.843 389.276,-193.741"/>
<polygon fill="midnightblue" stroke="midnightblue" points="391.384,-190.947 381.315,-187.652 387.132,-196.507 391.384,-190.947"/>
</g>
<!-- Node10 -->
<g id="node10" class="node"><title>Node10</title>
<polygon fill="white" stroke="#bfbfbf" points="422.5,-168.5 422.5,-187.5 487.5,-187.5 487.5,-168.5 422.5,-168.5"/>
<text text-anchor="middle" x="455" y="-175.5" font-family="Helvetica,sans-Serif" font-size="10.00">wx/string.h</text>
</g>
<!-- Node1&#45;&gt;Node10 -->
<g id="edge9" class="edge"><title>Node1&#45;&gt;Node10</title>
<path fill="none" stroke="midnightblue" d="M455,-224.498C455,-216.065 455,-206.235 455,-197.874"/>
<polygon fill="midnightblue" stroke="midnightblue" points="458.5,-197.652 455,-187.652 451.5,-197.653 458.5,-197.652"/>
</g>
<!-- Node11 -->
<g id="node11" class="node"><title>Node11</title>
<polygon fill="white" stroke="#bfbfbf" points="505.5,-168.5 505.5,-187.5 588.5,-187.5 588.5,-168.5 505.5,-168.5"/>
<text text-anchor="middle" x="547" y="-175.5" font-family="Helvetica,sans-Serif" font-size="10.00">wx/checkbox.h</text>
</g>
<!-- Node1&#45;&gt;Node11 -->
<g id="edge10" class="edge"><title>Node1&#45;&gt;Node11</title>
<path fill="none" stroke="midnightblue" d="M482.603,-224.498C496.708,-214.532 513.577,-202.614 526.51,-193.476"/>
<polygon fill="midnightblue" stroke="midnightblue" points="528.606,-196.281 534.753,-187.652 524.567,-190.564 528.606,-196.281"/>
</g>
<!-- Node12 -->
<g id="node12" class="node"><title>Node12</title>
<polygon fill="white" stroke="#bfbfbf" points="607,-168.5 607,-187.5 679,-187.5 679,-168.5 607,-168.5"/>
<text text-anchor="middle" x="643" y="-175.5" font-family="Helvetica,sans-Serif" font-size="10.00">wx/msgdlg.h</text>
</g>
<!-- Node1&#45;&gt;Node12 -->
<g id="edge11" class="edge"><title>Node1&#45;&gt;Node12</title>
<path fill="none" stroke="midnightblue" d="M511.406,-224.498C543.002,-213.574 581.382,-200.304 608.519,-190.922"/>
<polygon fill="midnightblue" stroke="midnightblue" points="609.667,-194.228 617.974,-187.652 607.38,-187.612 609.667,-194.228"/>
</g>
<!-- Node13 -->
<g id="node13" class="node"><title>Node13</title>
<g id="a_node13"><a xlink:href="../../dc/dad/lms7suiteEvents_8h.html" target="_top" xlink:title="lms7suiteEvents.h">
<polygon fill="white" stroke="black" points="697,-168.5 697,-187.5 795,-187.5 795,-168.5 697,-168.5"/>
<text text-anchor="middle" x="746" y="-175.5" font-family="Helvetica,sans-Serif" font-size="10.00">lms7suiteEvents.h</text>
</a>
</g>
</g>
<!-- Node1&#45;&gt;Node13 -->
<g id="edge12" class="edge"><title>Node1&#45;&gt;Node13</title>
<path fill="none" stroke="midnightblue" d="M528.056,-227.682C581.228,-215.805 651.73,-200.057 697.95,-189.733"/>
<polygon fill="midnightblue" stroke="midnightblue" points="698.719,-193.147 707.716,-187.552 697.193,-186.316 698.719,-193.147"/>
</g>
<!-- Node15 -->
<g id="node15" class="node"><title>Node15</title>
<polygon fill="white" stroke="#bfbfbf" points="813,-168.5 813,-187.5 863,-187.5 863,-168.5 813,-168.5"/>
<text text-anchor="middle" x="838" y="-175.5" font-family="Helvetica,sans-Serif" font-size="10.00">ciso646</text>
</g>
<!-- Node1&#45;&gt;Node15 -->
<g id="edge14" class="edge"><title>Node1&#45;&gt;Node15</title>
<path fill="none" stroke="midnightblue" d="M528.251,-234.412C596.856,-224.939 702.383,-209.109 802.803,-188.083"/>
<polygon fill="midnightblue" stroke="midnightblue" points="803.757,-191.459 812.816,-185.965 802.308,-184.61 803.757,-191.459"/>
</g>
<!-- Node3 -->
<g id="node3" class="node"><title>Node3</title>
<g id="a_node3"><a xlink:href="../../d5/d07/LimeSuite_8h.html" target="_top" xlink:title="LMS API library. ">
<polygon fill="white" stroke="black" points="19.5,-112.5 19.5,-131.5 108.5,-131.5 108.5,-112.5 19.5,-112.5"/>
<text text-anchor="middle" x="64" y="-119.5" font-family="Helvetica,sans-Serif" font-size="10.00">lime/LimeSuite.h</text>
</a>
</g>
</g>
<!-- Node2&#45;&gt;Node3 -->
<g id="edge2" class="edge"><title>Node2&#45;&gt;Node3</title>
<path fill="none" stroke="midnightblue" d="M103.239,-168.083C96.4632,-160.298 86.4568,-148.801 78.2449,-139.367"/>
<polygon fill="midnightblue" stroke="midnightblue" points="80.822,-136.996 71.6167,-131.751 75.5419,-141.592 80.822,-136.996"/>
</g>
<!-- Node6 -->
<g id="node6" class="node"><title>Node6</title>
<polygon fill="white" stroke="#bfbfbf" points="127,-112.5 127,-131.5 191,-131.5 191,-112.5 127,-112.5"/>
<text text-anchor="middle" x="159" y="-119.5" font-family="Helvetica,sans-Serif" font-size="10.00">wx/panel.h</text>
</g>
<!-- Node2&#45;&gt;Node6 -->
<g id="edge5" class="edge"><title>Node2&#45;&gt;Node6</title>
<path fill="none" stroke="midnightblue" d="M118.926,-168.083C125.846,-160.298 136.065,-148.801 144.452,-139.367"/>
<polygon fill="midnightblue" stroke="midnightblue" points="147.194,-141.55 151.221,-131.751 141.962,-136.9 147.194,-141.55"/>
</g>
<!-- Node4 -->
<g id="node4" class="node"><title>Node4</title>
<g id="a_node4"><a xlink:href="../../d1/d2e/LMS7002M__parameters_8h.html" target="_top" xlink:title="List of LMS7002M transceiver control parameters. ">
<polygon fill="white" stroke="black" points="0,-56.5 0,-75.5 128,-75.5 128,-56.5 0,-56.5"/>
<text text-anchor="middle" x="64" y="-63.5" font-family="Helvetica,sans-Serif" font-size="10.00">LMS7002M_parameters.h</text>
</a>
</g>
</g>
<!-- Node3&#45;&gt;Node4 -->
<g id="edge3" class="edge"><title>Node3&#45;&gt;Node4</title>
<path fill="none" stroke="midnightblue" d="M64,-112.083C64,-105.006 64,-94.8611 64,-85.9865"/>
<polygon fill="midnightblue" stroke="midnightblue" points="67.5001,-85.751 64,-75.7511 60.5001,-85.7511 67.5001,-85.751"/>
</g>
<!-- Node5 -->
<g id="node5" class="node"><title>Node5</title>
<polygon fill="white" stroke="#bfbfbf" points="39.5,-0.5 39.5,-19.5 88.5,-19.5 88.5,-0.5 39.5,-0.5"/>
<text text-anchor="middle" x="64" y="-7.5" font-family="Helvetica,sans-Serif" font-size="10.00">stdint.h</text>
</g>
<!-- Node4&#45;&gt;Node5 -->
<g id="edge4" class="edge"><title>Node4&#45;&gt;Node5</title>
<path fill="none" stroke="midnightblue" d="M64,-56.083C64,-49.0059 64,-38.8611 64,-29.9865"/>
<polygon fill="midnightblue" stroke="midnightblue" points="67.5001,-29.751 64,-19.7511 60.5001,-29.7511 67.5001,-29.751"/>
</g>
<!-- Node14 -->
<g id="node14" class="node"><title>Node14</title>
<polygon fill="white" stroke="#bfbfbf" points="719.5,-112.5 719.5,-131.5 772.5,-131.5 772.5,-112.5 719.5,-112.5"/>
<text text-anchor="middle" x="746" y="-119.5" font-family="Helvetica,sans-Serif" font-size="10.00">wx/wx.h</text>
</g>
<!-- Node13&#45;&gt;Node14 -->
<g id="edge13" class="edge"><title>Node13&#45;&gt;Node14</title>
<path fill="none" stroke="midnightblue" d="M746,-168.083C746,-161.006 746,-150.861 746,-141.986"/>
<polygon fill="midnightblue" stroke="midnightblue" points="749.5,-141.751 746,-131.751 742.5,-141.751 749.5,-141.751"/>
</g>
</g>
</svg>
