<?xml version="1.0" encoding="UTF-8" standalone="no"?>
<!DOCTYPE svg PUBLIC "-//W3C//DTD SVG 1.1//EN"
 "http://www.w3.org/Graphics/SVG/1.1/DTD/svg11.dtd">
<!-- Generated by graphviz version 2.38.0 (20140413.2041)
 -->
<!-- Title: lime::LMS7_qLimeSDR::EnableChannel Pages: 1 -->
<!--zoomable 643 -->
<svg id="main" version="1.1" xmlns="http://www.w3.org/2000/svg" xmlns:xlink="http://www.w3.org/1999/xlink" xml:space="preserve" onload="init(evt)">
<style type="text/css"><![CDATA[
.edge:hover path { stroke: red; }
.edge:hover polygon { stroke: red; fill: red; }
]]></style>
<script type="text/javascript"><![CDATA[
var edges = document.getElementsByTagName('g');
if (edges && edges.length) {
  for (var i=0;i<edges.length;i++) {
    if (edges[i].id.substr(0,4)=='edge') {
      edges[i].setAttribute('class','edge');
    }
  }
}
]]></script>
        <defs>
                <circle id="rim" cx="0" cy="0" r="7"/>
                <circle id="rim2" cx="0" cy="0" r="3.5"/>
                <g id="zoomPlus">
                        <use xlink:href="#rim" fill="#404040">
                                <set attributeName="fill" to="#808080" begin="zoomplus.mouseover" end="zoomplus.mouseout"/>
                        </use>
                        <path d="M-4,0h8M0,-4v8" fill="none" stroke="white" stroke-width="1.5" pointer-events="none"/>
                </g>
                <g id="zoomMin">
                        <use xlink:href="#rim" fill="#404040">
                                <set attributeName="fill" to="#808080" begin="zoomminus.mouseover" end="zoomminus.mouseout"/>
                        </use>
                        <path d="M-4,0h8" fill="none" stroke="white" stroke-width="1.5" pointer-events="none"/>
                </g>
                <g id="dirArrow">
                        <path fill="none" stroke="white" stroke-width="1.5" d="M0,-3.0v7 M-2.5,-0.5L0,-3.0L2.5,-0.5"/>
                </g>
               <g id="resetDef">
                       <use xlink:href="#rim2" fill="#404040">
                               <set attributeName="fill" to="#808080" begin="reset.mouseover" end="reset.mouseout"/>
                       </use>
               </g>
        </defs>

<script type="text/javascript">
var viewWidth = 1048;
var viewHeight = 643;
var sectionId = 'dynsection-3';
</script>
<script xlink:href="../../svgpan.js"/>
<svg id="graph" class="graph">
<g id="viewport">
<title>lime::LMS7_qLimeSDR::EnableChannel</title>
<polygon fill="white" stroke="none" points="-4,4 -4,-638.5 1044,-638.5 1044,4 -4,4"/>
<!-- Node1 -->
<g id="node1" class="node"><title>Node1</title>
<polygon fill="#bfbfbf" stroke="black" points="0,-401 0,-431 119,-431 119,-401 0,-401"/>
<text text-anchor="start" x="8" y="-419" font-family="Helvetica,sans-Serif" font-size="10.00">lime::LMS7_qLimeSDR</text>
<text text-anchor="middle" x="59.5" y="-408" font-family="Helvetica,sans-Serif" font-size="10.00">::EnableChannel</text>
</g>
<!-- Node2 -->
<g id="node2" class="node"><title>Node2</title>
<g id="a_node2"><a xlink:href="../../d3/d22/classlime_1_1LMS7__Device.html#a58838b2e151c56748a8fe85840f1c70c" target="_top" xlink:title="lime::LMS7_Device::\lEnableChannel">
<polygon fill="white" stroke="black" points="155,-401 155,-431 263,-431 263,-401 155,-401"/>
<text text-anchor="start" x="163" y="-419" font-family="Helvetica,sans-Serif" font-size="10.00">lime::LMS7_Device::</text>
<text text-anchor="middle" x="209" y="-408" font-family="Helvetica,sans-Serif" font-size="10.00">EnableChannel</text>
</a>
</g>
</g>
<!-- Node1&#45;&gt;Node2 -->
<g id="edge1" class="edge"><title>Node1&#45;&gt;Node2</title>
<path fill="none" stroke="midnightblue" d="M119.22,-416C127.559,-416 136.165,-416 144.588,-416"/>
<polygon fill="midnightblue" stroke="midnightblue" points="144.741,-419.5 154.741,-416 144.741,-412.5 144.741,-419.5"/>
</g>
<!-- Node3 -->
<g id="node3" class="node"><title>Node3</title>
<g id="a_node3"><a xlink:href="../../db/d1d/classlime_1_1LMS7002M.html#a2759c52d87370cbace94951c848b7c56" target="_top" xlink:title="lime::LMS7002M::EnableChannel">
<polygon fill="white" stroke="black" points="299,-546.5 299,-565.5 461,-565.5 461,-546.5 299,-546.5"/>
<text text-anchor="middle" x="380" y="-553.5" font-family="Helvetica,sans-Serif" font-size="10.00">lime::LMS7002M::EnableChannel</text>
</a>
</g>
</g>
<!-- Node2&#45;&gt;Node3 -->
<g id="edge2" class="edge"><title>Node2&#45;&gt;Node3</title>
<path fill="none" stroke="midnightblue" d="M228.408,-431.249C260.448,-457.792 326.195,-512.257 359.191,-539.59"/>
<polygon fill="midnightblue" stroke="midnightblue" points="357.271,-542.544 367.204,-546.228 361.736,-537.154 357.271,-542.544"/>
</g>
<!-- Node8 -->
<g id="node8" class="node"><title>Node8</title>
<g id="a_node8"><a xlink:href="../../d4/d67/lms_8c.html#a0e01e477b1f10e0a63e54de2dd2f8240" target="_top" xlink:title="lms">
<polygon fill="white" stroke="black" points="550.5,-276.5 550.5,-295.5 582.5,-295.5 582.5,-276.5 550.5,-276.5"/>
<text text-anchor="middle" x="566.5" y="-283.5" font-family="Helvetica,sans-Serif" font-size="10.00">lms</text>
</a>
</g>
</g>
<!-- Node2&#45;&gt;Node8 -->
<g id="edge10" class="edge"><title>Node2&#45;&gt;Node8</title>
<path fill="none" stroke="midnightblue" d="M251.128,-400.96C325.594,-373.729 480.617,-317.04 540.835,-295.02"/>
<polygon fill="midnightblue" stroke="midnightblue" points="542.11,-298.28 550.3,-291.558 539.706,-291.706 542.11,-298.28"/>
</g>
<!-- Node28 -->
<g id="node28" class="node"><title>Node28</title>
<g id="a_node28"><a xlink:href="../../d3/d22/classlime_1_1LMS7__Device.html#a4ac84063a505d3686527f8ffc28bb9d7" target="_top" xlink:title="lime::LMS7_Device::\lSelectChannel">
<polygon fill="white" stroke="black" points="326,-401 326,-431 434,-431 434,-401 326,-401"/>
<text text-anchor="start" x="334" y="-419" font-family="Helvetica,sans-Serif" font-size="10.00">lime::LMS7_Device::</text>
<text text-anchor="middle" x="380" y="-408" font-family="Helvetica,sans-Serif" font-size="10.00">SelectChannel</text>
</a>
</g>
</g>
<!-- Node2&#45;&gt;Node28 -->
<g id="edge33" class="edge"><title>Node2&#45;&gt;Node28</title>
<path fill="none" stroke="midnightblue" d="M263.009,-416C279.759,-416 298.436,-416 315.824,-416"/>
<polygon fill="midnightblue" stroke="midnightblue" points="315.889,-419.5 325.889,-416 315.889,-412.5 315.889,-419.5"/>
</g>
<!-- Node4 -->
<g id="node4" class="node"><title>Node4</title>
<g id="a_node4"><a xlink:href="../../db/d1d/classlime_1_1LMS7002M.html#a770393845fa2d4aab5e74c33c31247e9" target="_top" xlink:title="Returns given parameter value from chip register. ">
<polygon fill="white" stroke="black" points="848,-604 848,-634 960,-634 960,-604 848,-604"/>
<text text-anchor="start" x="856" y="-622" font-family="Helvetica,sans-Serif" font-size="10.00">lime::LMS7002M::Get</text>
<text text-anchor="middle" x="904" y="-611" font-family="Helvetica,sans-Serif" font-size="10.00">_SPI_Reg_bits</text>
</a>
</g>
</g>
<!-- Node3&#45;&gt;Node4 -->
<g id="edge3" class="edge"><title>Node3&#45;&gt;Node4</title>
<path fill="none" stroke="midnightblue" d="M401.031,-565.553C423.764,-575.97 462.211,-592.311 497,-601 614.341,-630.306 756.576,-628.436 837.754,-624.001"/>
<polygon fill="midnightblue" stroke="midnightblue" points="838.047,-627.49 847.829,-623.42 837.644,-620.502 838.047,-627.49"/>
</g>
<!-- Node5 -->
<g id="node5" class="node"><title>Node5</title>
<g id="a_node5"><a xlink:href="../../db/d1d/classlime_1_1LMS7002M.html#abf38539b5505ed1314297b5439b1ae9d" target="_top" xlink:title="lime::LMS7002M::GetActive\lChannel">
<polygon fill="white" stroke="black" points="672,-582 672,-612 812,-612 812,-582 672,-582"/>
<text text-anchor="start" x="680" y="-600" font-family="Helvetica,sans-Serif" font-size="10.00">lime::LMS7002M::GetActive</text>
<text text-anchor="middle" x="742" y="-589" font-family="Helvetica,sans-Serif" font-size="10.00">Channel</text>
</a>
</g>
</g>
<!-- Node3&#45;&gt;Node5 -->
<g id="edge4" class="edge"><title>Node3&#45;&gt;Node5</title>
<path fill="none" stroke="midnightblue" d="M418.365,-565.513C440.977,-570.904 470.476,-577.293 497,-581 551.756,-588.653 613.949,-592.661 661.841,-594.751"/>
<polygon fill="midnightblue" stroke="midnightblue" points="661.699,-598.248 671.836,-595.168 661.991,-591.254 661.699,-598.248"/>
</g>
<!-- Node6 -->
<g id="node6" class="node"><title>Node6</title>
<g id="a_node6"><a xlink:href="../../db/d1d/classlime_1_1LMS7002M.html#afaf3843f7acef055ebbe0c0576ec8fee" target="_top" xlink:title="Change given parameter value. ">
<polygon fill="white" stroke="black" points="679.5,-533 679.5,-563 804.5,-563 804.5,-533 679.5,-533"/>
<text text-anchor="start" x="687.5" y="-551" font-family="Helvetica,sans-Serif" font-size="10.00">lime::LMS7002M::Modify</text>
<text text-anchor="middle" x="742" y="-540" font-family="Helvetica,sans-Serif" font-size="10.00">_SPI_Reg_bits</text>
</a>
</g>
</g>
<!-- Node3&#45;&gt;Node6 -->
<g id="edge6" class="edge"><title>Node3&#45;&gt;Node6</title>
<path fill="none" stroke="midnightblue" d="M415.712,-546.499C438.599,-540.737 469.345,-533.946 497,-531 558.43,-524.456 574.421,-526.047 636,-531 646.781,-531.867 658.125,-533.227 669.21,-534.81"/>
<polygon fill="midnightblue" stroke="midnightblue" points="668.887,-538.3 679.294,-536.317 669.922,-531.377 668.887,-538.3"/>
</g>
<!-- Node7 -->
<g id="node7" class="node"><title>Node7</title>
<g id="a_node7"><a xlink:href="../../db/d1d/classlime_1_1LMS7002M.html#ac1a58f0eaceb678852f1460e09b4e4ba" target="_top" xlink:title="lime::LMS7002M::SetActive\lChannel">
<polygon fill="white" stroke="black" points="497,-541 497,-571 636,-571 636,-541 497,-541"/>
<text text-anchor="start" x="505" y="-559" font-family="Helvetica,sans-Serif" font-size="10.00">lime::LMS7002M::SetActive</text>
<text text-anchor="middle" x="566.5" y="-548" font-family="Helvetica,sans-Serif" font-size="10.00">Channel</text>
</a>
</g>
</g>
<!-- Node3&#45;&gt;Node7 -->
<g id="edge7" class="edge"><title>Node3&#45;&gt;Node7</title>
<path fill="none" stroke="midnightblue" d="M461.119,-556C469.554,-556 478.127,-556 486.548,-556"/>
<polygon fill="midnightblue" stroke="midnightblue" points="486.726,-559.5 496.726,-556 486.726,-552.5 486.726,-559.5"/>
</g>
<!-- Node5&#45;&gt;Node4 -->
<g id="edge5" class="edge"><title>Node5&#45;&gt;Node4</title>
<path fill="none" stroke="midnightblue" d="M812.248,-606.522C820.654,-607.677 829.221,-608.855 837.57,-610.003"/>
<polygon fill="midnightblue" stroke="midnightblue" points="837.235,-613.49 847.618,-611.385 838.188,-606.555 837.235,-613.49"/>
</g>
<!-- Node7&#45;&gt;Node5 -->
<g id="edge8" class="edge"><title>Node7&#45;&gt;Node5</title>
<path fill="none" stroke="midnightblue" d="M631.12,-571.034C642.907,-573.819 655.308,-576.75 667.364,-579.599"/>
<polygon fill="midnightblue" stroke="midnightblue" points="666.851,-583.074 677.388,-581.968 668.461,-576.262 666.851,-583.074"/>
</g>
<!-- Node7&#45;&gt;Node6 -->
<g id="edge9" class="edge"><title>Node7&#45;&gt;Node6</title>
<path fill="none" stroke="midnightblue" d="M636.072,-552.838C647.022,-552.333 658.377,-551.81 669.396,-551.302"/>
<polygon fill="midnightblue" stroke="midnightblue" points="669.571,-554.797 679.399,-550.84 669.249,-547.805 669.571,-554.797"/>
</g>
<!-- Node9 -->
<g id="node9" class="node"><title>Node9</title>
<g id="a_node9"><a xlink:href="../../d4/d67/lms_8c.html#a433227191fe883dcb8aa15d291bb29a1" target="_top" xlink:title="Case1F">
<polygon fill="white" stroke="black" points="716.5,-494.5 716.5,-513.5 767.5,-513.5 767.5,-494.5 716.5,-494.5"/>
<text text-anchor="middle" x="742" y="-501.5" font-family="Helvetica,sans-Serif" font-size="10.00">Case1F</text>
</a>
</g>
</g>
<!-- Node8&#45;&gt;Node9 -->
<g id="edge11" class="edge"><title>Node8&#45;&gt;Node9</title>
<path fill="none" stroke="midnightblue" d="M572.355,-295.763C591.825,-334.846 663.604,-478.239 672,-485 681.73,-492.836 694.461,-497.447 706.335,-500.159"/>
<polygon fill="midnightblue" stroke="midnightblue" points="705.973,-503.653 716.451,-502.085 707.283,-496.776 705.973,-503.653"/>
</g>
<!-- Node10 -->
<g id="node10" class="node"><title>Node10</title>
<g id="a_node10"><a xlink:href="../../d4/d67/lms_8c.html#ace0cd8bf61cb9b86b98f0cef03b5a9d9" target="_top" xlink:title="Case2F">
<polygon fill="white" stroke="black" points="716.5,-456.5 716.5,-475.5 767.5,-475.5 767.5,-456.5 716.5,-456.5"/>
<text text-anchor="middle" x="742" y="-463.5" font-family="Helvetica,sans-Serif" font-size="10.00">Case2F</text>
</a>
</g>
</g>
<!-- Node8&#45;&gt;Node10 -->
<g id="edge12" class="edge"><title>Node8&#45;&gt;Node10</title>
<path fill="none" stroke="midnightblue" d="M570.94,-295.723C581.388,-323.807 615.534,-405.666 672,-447 682.003,-454.322 694.69,-458.823 706.449,-461.59"/>
<polygon fill="midnightblue" stroke="midnightblue" points="705.96,-465.061 716.453,-463.601 707.34,-458.199 705.96,-465.061"/>
</g>
<!-- Node11 -->
<g id="node11" class="node"><title>Node11</title>
<g id="a_node11"><a xlink:href="../../d4/d67/lms_8c.html#a5f53b53ccc591e3643c4af2aee2e7f32" target="_top" xlink:title="Case3F">
<polygon fill="white" stroke="black" points="716.5,-418.5 716.5,-437.5 767.5,-437.5 767.5,-418.5 716.5,-418.5"/>
<text text-anchor="middle" x="742" y="-425.5" font-family="Helvetica,sans-Serif" font-size="10.00">Case3F</text>
</a>
</g>
</g>
<!-- Node8&#45;&gt;Node11 -->
<g id="edge13" class="edge"><title>Node8&#45;&gt;Node11</title>
<path fill="none" stroke="midnightblue" d="M572.915,-295.701C586.431,-318.995 624.038,-378.419 672,-409 682.291,-415.562 694.843,-419.885 706.406,-422.722"/>
<polygon fill="midnightblue" stroke="midnightblue" points="705.717,-426.154 716.231,-424.851 707.199,-419.313 705.717,-426.154"/>
</g>
<!-- Node12 -->
<g id="node12" class="node"><title>Node12</title>
<g id="a_node12"><a xlink:href="../../d4/d67/lms_8c.html#a5086763d5b258349bc13d6be7e7d0665" target="_top" xlink:title="Case4F">
<polygon fill="white" stroke="black" points="716.5,-380.5 716.5,-399.5 767.5,-399.5 767.5,-380.5 716.5,-380.5"/>
<text text-anchor="middle" x="742" y="-387.5" font-family="Helvetica,sans-Serif" font-size="10.00">Case4F</text>
</a>
</g>
</g>
<!-- Node8&#45;&gt;Node12 -->
<g id="edge14" class="edge"><title>Node8&#45;&gt;Node12</title>
<path fill="none" stroke="midnightblue" d="M576.61,-295.7C593.666,-313.295 632.293,-350.541 672,-371 682.655,-376.49 695.078,-380.541 706.423,-383.457"/>
<polygon fill="midnightblue" stroke="midnightblue" points="705.921,-386.934 716.458,-385.825 707.529,-380.121 705.921,-386.934"/>
</g>
<!-- Node13 -->
<g id="node13" class="node"><title>Node13</title>
<g id="a_node13"><a xlink:href="../../db/de5/recipes_8c.html#aee25e218394217a134e805ea09fb0fe9" target="_top" xlink:title="free_ivector">
<polygon fill="white" stroke="black" points="708,-342.5 708,-361.5 776,-361.5 776,-342.5 708,-342.5"/>
<text text-anchor="middle" x="742" y="-349.5" font-family="Helvetica,sans-Serif" font-size="10.00">free_ivector</text>
</a>
</g>
</g>
<!-- Node8&#45;&gt;Node13 -->
<g id="edge15" class="edge"><title>Node8&#45;&gt;Node13</title>
<path fill="none" stroke="midnightblue" d="M582.773,-293.767C602.861,-303.774 639.434,-321.272 672,-333 680.234,-335.965 689.161,-338.737 697.776,-341.198"/>
<polygon fill="midnightblue" stroke="midnightblue" points="697.114,-344.646 707.685,-343.936 698.978,-337.899 697.114,-344.646"/>
</g>
<!-- Node14 -->
<g id="node14" class="node"><title>Node14</title>
<g id="a_node14"><a xlink:href="../../db/de5/recipes_8c.html#a3e0d121b098c19c0bdc2429e5b9f1625" target="_top" xlink:title="free_matrix">
<polygon fill="white" stroke="black" points="709.5,-304.5 709.5,-323.5 774.5,-323.5 774.5,-304.5 709.5,-304.5"/>
<text text-anchor="middle" x="742" y="-311.5" font-family="Helvetica,sans-Serif" font-size="10.00">free_matrix</text>
</a>
</g>
</g>
<!-- Node8&#45;&gt;Node14 -->
<g id="edge16" class="edge"><title>Node8&#45;&gt;Node14</title>
<path fill="none" stroke="midnightblue" d="M582.593,-288.436C608.291,-292.583 661.408,-301.155 699.035,-307.228"/>
<polygon fill="midnightblue" stroke="midnightblue" points="698.772,-310.73 709.202,-308.868 699.887,-303.82 698.772,-310.73"/>
</g>
<!-- Node15 -->
<g id="node15" class="node"><title>Node15</title>
<g id="a_node15"><a xlink:href="../../db/de5/recipes_8c.html#a8214a52d888e820222c0382648329c0c" target="_top" xlink:title="free_vector">
<polygon fill="white" stroke="black" points="871.5,-247.5 871.5,-266.5 936.5,-266.5 936.5,-247.5 871.5,-247.5"/>
<text text-anchor="middle" x="904" y="-254.5" font-family="Helvetica,sans-Serif" font-size="10.00">free_vector</text>
</a>
</g>
</g>
<!-- Node8&#45;&gt;Node15 -->
<g id="edge17" class="edge"><title>Node8&#45;&gt;Node15</title>
<path fill="none" stroke="midnightblue" d="M582.788,-284.679C631.822,-280.44 786.313,-267.086 861.323,-260.602"/>
<polygon fill="midnightblue" stroke="midnightblue" points="861.699,-264.083 871.36,-259.735 861.096,-257.109 861.699,-264.083"/>
</g>
<!-- Node16 -->
<g id="node16" class="node"><title>Node16</title>
<g id="a_node16"><a xlink:href="../../d4/d67/lms_8c.html#ad1d6c875ff429888b51dd1155f0311ad" target="_top" xlink:title="ivector">
<polygon fill="white" stroke="black" points="719,-228.5 719,-247.5 765,-247.5 765,-228.5 719,-228.5"/>
<text text-anchor="middle" x="742" y="-235.5" font-family="Helvetica,sans-Serif" font-size="10.00">ivector</text>
</a>
</g>
</g>
<!-- Node8&#45;&gt;Node16 -->
<g id="edge18" class="edge"><title>Node8&#45;&gt;Node16</title>
<path fill="none" stroke="midnightblue" d="M582.593,-281.824C610.627,-274.069 671.292,-257.285 708.881,-246.886"/>
<polygon fill="midnightblue" stroke="midnightblue" points="710.12,-250.175 718.825,-244.135 708.254,-243.428 710.12,-250.175"/>
</g>
<!-- Node17 -->
<g id="node17" class="node"><title>Node17</title>
<g id="a_node17"><a xlink:href="../../db/de5/recipes_8c.html#a66ff65ad0355ec1f4a7722bcdafc8cd3" target="_top" xlink:title="lubksb">
<polygon fill="white" stroke="black" points="719.5,-190.5 719.5,-209.5 764.5,-209.5 764.5,-190.5 719.5,-190.5"/>
<text text-anchor="middle" x="742" y="-197.5" font-family="Helvetica,sans-Serif" font-size="10.00">lubksb</text>
</a>
</g>
</g>
<!-- Node8&#45;&gt;Node17 -->
<g id="edge19" class="edge"><title>Node8&#45;&gt;Node17</title>
<path fill="none" stroke="midnightblue" d="M579.667,-276.445C598.472,-262.098 636.177,-234.973 672,-219 683.761,-213.756 697.309,-209.644 709.268,-206.607"/>
<polygon fill="midnightblue" stroke="midnightblue" points="710.372,-209.942 719.285,-204.213 708.745,-203.133 710.372,-209.942"/>
</g>
<!-- Node18 -->
<g id="node18" class="node"><title>Node18</title>
<g id="a_node18"><a xlink:href="../../db/de5/recipes_8c.html#a623fec796d9d53e5e4a4d30226547da7" target="_top" xlink:title="ludcmp">
<polygon fill="white" stroke="black" points="718,-152.5 718,-171.5 766,-171.5 766,-152.5 718,-152.5"/>
<text text-anchor="middle" x="742" y="-159.5" font-family="Helvetica,sans-Serif" font-size="10.00">ludcmp</text>
</a>
</g>
</g>
<!-- Node8&#45;&gt;Node18 -->
<g id="edge20" class="edge"><title>Node8&#45;&gt;Node18</title>
<path fill="none" stroke="midnightblue" d="M574.389,-276.225C589.558,-255.441 628.018,-206.666 672,-181 682.873,-174.655 695.948,-170.356 707.778,-167.478"/>
<polygon fill="midnightblue" stroke="midnightblue" points="708.744,-170.85 717.768,-165.298 707.252,-164.01 708.744,-170.85"/>
</g>
<!-- Node21 -->
<g id="node21" class="node"><title>Node21</title>
<g id="a_node21"><a xlink:href="../../d4/d67/lms_8c.html#a37bcb1539d76b53344102435e2ab9c91" target="_top" xlink:title="matrix">
<polygon fill="white" stroke="black" points="720,-114.5 720,-133.5 764,-133.5 764,-114.5 720,-114.5"/>
<text text-anchor="middle" x="742" y="-121.5" font-family="Helvetica,sans-Serif" font-size="10.00">matrix</text>
</a>
</g>
</g>
<!-- Node8&#45;&gt;Node21 -->
<g id="edge25" class="edge"><title>Node8&#45;&gt;Node21</title>
<path fill="none" stroke="midnightblue" d="M571.763,-276.263C583.623,-250.339 619.619,-179.16 672,-143 683.104,-135.335 697.203,-130.754 709.759,-128.019"/>
<polygon fill="midnightblue" stroke="midnightblue" points="710.658,-131.412 719.843,-126.13 709.369,-124.532 710.658,-131.412"/>
</g>
<!-- Node22 -->
<g id="node22" class="node"><title>Node22</title>
<g id="a_node22"><a xlink:href="../../d8/d91/rounding_8c.html#aa8d7512cdf5bfbf811cef6a8a091c679" target="_top" xlink:title="round2csd">
<polygon fill="white" stroke="black" points="711,-76.5 711,-95.5 773,-95.5 773,-76.5 711,-76.5"/>
<text text-anchor="middle" x="742" y="-83.5" font-family="Helvetica,sans-Serif" font-size="10.00">round2csd</text>
</a>
</g>
</g>
<!-- Node8&#45;&gt;Node22 -->
<g id="edge26" class="edge"><title>Node8&#45;&gt;Node22</title>
<path fill="none" stroke="midnightblue" d="M570.178,-276.396C579.114,-246.179 610.847,-152.261 672,-105 680.332,-98.5608 690.71,-94.3027 700.865,-91.4873"/>
<polygon fill="midnightblue" stroke="midnightblue" points="701.935,-94.8309 710.863,-89.1255 700.326,-88.0185 701.935,-94.8309"/>
</g>
<!-- Node26 -->
<g id="node26" class="node"><title>Node26</title>
<g id="a_node26"><a xlink:href="../../d8/d91/rounding_8c.html#aca2670cc0fbf948a6b9cb670047c9d5b" target="_top" xlink:title="round2int">
<polygon fill="white" stroke="black" points="714,-38.5 714,-57.5 770,-57.5 770,-38.5 714,-38.5"/>
<text text-anchor="middle" x="742" y="-45.5" font-family="Helvetica,sans-Serif" font-size="10.00">round2int</text>
</a>
</g>
</g>
<!-- Node8&#45;&gt;Node26 -->
<g id="edge30" class="edge"><title>Node8&#45;&gt;Node26</title>
<path fill="none" stroke="midnightblue" d="M569.157,-276.387C575.56,-242.239 601.913,-125.692 672,-67 680.971,-59.4877 692.679,-54.9312 703.896,-52.1725"/>
<polygon fill="midnightblue" stroke="midnightblue" points="704.872,-55.5454 713.967,-50.1112 703.469,-48.6876 704.872,-55.5454"/>
</g>
<!-- Node27 -->
<g id="node27" class="node"><title>Node27</title>
<g id="a_node27"><a xlink:href="../../d4/d67/lms_8c.html#ac81ca32708341eb34b25d515d00bc748" target="_top" xlink:title="vector">
<polygon fill="white" stroke="black" points="720,-0.5 720,-19.5 764,-19.5 764,-0.5 720,-0.5"/>
<text text-anchor="middle" x="742" y="-7.5" font-family="Helvetica,sans-Serif" font-size="10.00">vector</text>
</a>
</g>
</g>
<!-- Node8&#45;&gt;Node27 -->
<g id="edge32" class="edge"><title>Node8&#45;&gt;Node27</title>
<path fill="none" stroke="midnightblue" d="M568.42,-276.359C572.55,-238.601 592.802,-99.3995 672,-29 682.405,-19.7507 696.92,-14.9582 709.954,-12.493"/>
<polygon fill="midnightblue" stroke="midnightblue" points="710.619,-15.9322 719.983,-10.9742 709.571,-9.01111 710.619,-15.9322"/>
</g>
<!-- Node18&#45;&gt;Node15 -->
<g id="edge21" class="edge"><title>Node18&#45;&gt;Node15</title>
<path fill="none" stroke="midnightblue" d="M766.1,-165.53C780.023,-168.33 797.758,-173.121 812,-181 830.992,-191.507 831.438,-199.972 848,-214 858.983,-223.303 871.611,-233.227 881.995,-241.195"/>
<polygon fill="midnightblue" stroke="midnightblue" points="880.028,-244.097 890.104,-247.371 884.269,-238.528 880.028,-244.097"/>
</g>
<!-- Node19 -->
<g id="node19" class="node"><title>Node19</title>
<g id="a_node19"><a xlink:href="../../db/de5/recipes_8c.html#a208e98f19b2f252315399d02c0594a46" target="_top" xlink:title="nrerror">
<polygon fill="white" stroke="black" points="996,-171.5 996,-190.5 1040,-190.5 1040,-171.5 996,-171.5"/>
<text text-anchor="middle" x="1018" y="-178.5" font-family="Helvetica,sans-Serif" font-size="10.00">nrerror</text>
</a>
</g>
</g>
<!-- Node18&#45;&gt;Node19 -->
<g id="edge22" class="edge"><title>Node18&#45;&gt;Node19</title>
<path fill="none" stroke="midnightblue" d="M766.191,-167.431C787.36,-172.092 819.585,-178.45 848,-181 895.86,-185.295 951.651,-184.095 985.638,-182.672"/>
<polygon fill="midnightblue" stroke="midnightblue" points="986.037,-186.158 995.868,-182.209 985.72,-179.165 986.037,-186.158"/>
</g>
<!-- Node20 -->
<g id="node20" class="node"><title>Node20</title>
<g id="a_node20"><a xlink:href="../../db/de5/recipes_8c.html#a5e6092211a5f7e2d6ae9282379d3c604" target="_top" xlink:title="vector">
<polygon fill="white" stroke="black" points="882,-152.5 882,-171.5 926,-171.5 926,-152.5 882,-152.5"/>
<text text-anchor="middle" x="904" y="-159.5" font-family="Helvetica,sans-Serif" font-size="10.00">vector</text>
</a>
</g>
</g>
<!-- Node18&#45;&gt;Node20 -->
<g id="edge23" class="edge"><title>Node18&#45;&gt;Node20</title>
<path fill="none" stroke="midnightblue" d="M766.265,-162C794.021,-162 840.549,-162 871.507,-162"/>
<polygon fill="midnightblue" stroke="midnightblue" points="871.752,-165.5 881.752,-162 871.752,-158.5 871.752,-165.5"/>
</g>
<!-- Node20&#45;&gt;Node19 -->
<g id="edge24" class="edge"><title>Node20&#45;&gt;Node19</title>
<path fill="none" stroke="midnightblue" d="M926.066,-165.574C942.855,-168.422 966.617,-172.453 985.641,-175.68"/>
<polygon fill="midnightblue" stroke="midnightblue" points="985.203,-179.156 995.647,-177.378 986.374,-172.254 985.203,-179.156"/>
</g>
<!-- Node23 -->
<g id="node23" class="node"><title>Node23</title>
<g id="a_node23"><a xlink:href="../../d8/d91/rounding_8c.html#a2cff6b77e73872659c44b0c99f6bd97f" target="_top" xlink:title="csd2int">
<polygon fill="white" stroke="black" points="880,-114.5 880,-133.5 928,-133.5 928,-114.5 880,-114.5"/>
<text text-anchor="middle" x="904" y="-121.5" font-family="Helvetica,sans-Serif" font-size="10.00">csd2int</text>
</a>
</g>
</g>
<!-- Node22&#45;&gt;Node23 -->
<g id="edge27" class="edge"><title>Node22&#45;&gt;Node23</title>
<path fill="none" stroke="midnightblue" d="M773.095,-93.1475C800.668,-99.6961 841.41,-109.372 869.893,-116.137"/>
<polygon fill="midnightblue" stroke="midnightblue" points="869.247,-119.581 879.785,-118.487 870.865,-112.77 869.247,-119.581"/>
</g>
<!-- Node24 -->
<g id="node24" class="node"><title>Node24</title>
<g id="a_node24"><a xlink:href="../../db/d82/wglew_8h.html#a500a82aecba06f4550f6849b8099ca21" target="_top" xlink:title="int">
<polygon fill="white" stroke="black" points="889.5,-38.5 889.5,-57.5 918.5,-57.5 918.5,-38.5 889.5,-38.5"/>
<text text-anchor="middle" x="904" y="-45.5" font-family="Helvetica,sans-Serif" font-size="10.00">int</text>
</a>
</g>
</g>
<!-- Node22&#45;&gt;Node24 -->
<g id="edge28" class="edge"><title>Node22&#45;&gt;Node24</title>
<path fill="none" stroke="midnightblue" d="M773.095,-78.8525C803.918,-71.532 851.198,-60.303 879.414,-53.6018"/>
<polygon fill="midnightblue" stroke="midnightblue" points="880.299,-56.9888 889.22,-51.2727 878.682,-50.1783 880.299,-56.9888"/>
</g>
<!-- Node25 -->
<g id="node25" class="node"><title>Node25</title>
<g id="a_node25"><a xlink:href="../../d8/d91/rounding_8c.html#ab3a64ec72c5600bc114621e93309c8c3" target="_top" xlink:title="int2csd">
<polygon fill="white" stroke="black" points="880,-76.5 880,-95.5 928,-95.5 928,-76.5 880,-76.5"/>
<text text-anchor="middle" x="904" y="-83.5" font-family="Helvetica,sans-Serif" font-size="10.00">int2csd</text>
</a>
</g>
</g>
<!-- Node22&#45;&gt;Node25 -->
<g id="edge29" class="edge"><title>Node22&#45;&gt;Node25</title>
<path fill="none" stroke="midnightblue" d="M773.095,-86C800.547,-86 841.052,-86 869.518,-86"/>
<polygon fill="midnightblue" stroke="midnightblue" points="869.785,-89.5001 879.785,-86 869.785,-82.5001 869.785,-89.5001"/>
</g>
<!-- Node26&#45;&gt;Node24 -->
<g id="edge31" class="edge"><title>Node26&#45;&gt;Node24</title>
<path fill="none" stroke="midnightblue" d="M770.142,-48C800.816,-48 850.257,-48 879.393,-48"/>
<polygon fill="midnightblue" stroke="midnightblue" points="879.484,-51.5001 889.483,-48 879.483,-44.5001 879.484,-51.5001"/>
</g>
<!-- Node28&#45;&gt;Node6 -->
<g id="edge35" class="edge"><title>Node28&#45;&gt;Node6</title>
<path fill="none" stroke="midnightblue" d="M421.941,-431.123C478.244,-451.906 582.753,-490.424 672,-523 677.812,-525.122 683.903,-527.338 689.956,-529.537"/>
<polygon fill="midnightblue" stroke="midnightblue" points="688.799,-532.84 699.393,-532.961 691.187,-526.26 688.799,-532.84"/>
</g>
<!-- Node28&#45;&gt;Node8 -->
<g id="edge34" class="edge"><title>Node28&#45;&gt;Node8</title>
<path fill="none" stroke="midnightblue" d="M402.526,-400.833C437.928,-375.888 508.061,-326.472 543.665,-301.385"/>
<polygon fill="midnightblue" stroke="midnightblue" points="545.772,-304.182 551.931,-295.561 541.74,-298.46 545.772,-304.182"/>
</g>
</g>
</svg>
        <g id="navigator" transform="translate(0 0)" fill="#404254">
                <rect fill="#f2f5e9" fill-opacity="0.5" stroke="#606060" stroke-width=".5" x="0" y="0" width="60" height="60"/>
                <use id="zoomplus" xlink:href="#zoomPlus" x="17" y="9" onmousedown="handleZoom(evt,'in')"/>
                <use id="zoomminus" xlink:href="#zoomMin" x="42" y="9" onmousedown="handleZoom(evt,'out')"/>
                <use id="reset" xlink:href="#resetDef" x="30" y="36" onmousedown="handleReset()"/>
                <g id="arrowUp" xlink:href="#dirArrow" transform="translate(30 24)" onmousedown="handlePan(0,-1)">
                  <use xlink:href="#rim" fill="#404040">
                        <set attributeName="fill" to="#808080" begin="arrowUp.mouseover" end="arrowUp.mouseout"/>
                  </use>
                  <path fill="none" stroke="white" stroke-width="1.5" d="M0,-3.0v7 M-2.5,-0.5L0,-3.0L2.5,-0.5"/>
                </g>
                <g id="arrowRight" xlink:href="#dirArrow" transform="rotate(90) translate(36 -43)" onmousedown="handlePan(1,0)">
                  <use xlink:href="#rim" fill="#404040">
                        <set attributeName="fill" to="#808080" begin="arrowRight.mouseover" end="arrowRight.mouseout"/>
                  </use>
                  <path fill="none" stroke="white" stroke-width="1.5" d="M0,-3.0v7 M-2.5,-0.5L0,-3.0L2.5,-0.5"/>
                </g>
                <g id="arrowDown" xlink:href="#dirArrow" transform="rotate(180) translate(-30 -48)" onmousedown="handlePan(0,1)">
                  <use xlink:href="#rim" fill="#404040">
                        <set attributeName="fill" to="#808080" begin="arrowDown.mouseover" end="arrowDown.mouseout"/>
                  </use>
                  <path fill="none" stroke="white" stroke-width="1.5" d="M0,-3.0v7 M-2.5,-0.5L0,-3.0L2.5,-0.5"/>
                </g>
                <g id="arrowLeft" xlink:href="#dirArrow" transform="rotate(270) translate(-36 17)" onmousedown="handlePan(-1,0)">
                  <use xlink:href="#rim" fill="#404040">
                        <set attributeName="fill" to="#808080" begin="arrowLeft.mouseover" end="arrowLeft.mouseout"/>
                  </use>
                  <path fill="none" stroke="white" stroke-width="1.5" d="M0,-3.0v7 M-2.5,-0.5L0,-3.0L2.5,-0.5"/>
                </g>
        </g>
        <svg viewBox="0 0 15 15" width="100%" height="30px" preserveAspectRatio="xMaxYMin meet">
         <g id="arrow_out" transform="scale(0.3 0.3)">
          <a xlink:href="classlime_1_1LMS7__qLimeSDR_abc7036a5939786a962152ba705e62c2e_cgraph_org.svg" target="_base">
           <rect id="button" ry="5" rx="5" y="6" x="6" height="38" width="38"
                fill="#f2f5e9" fill-opacity="0.5" stroke="#606060" stroke-width="1.0"/>
           <path id="arrow"
             d="M 11.500037,31.436501 C 11.940474,20.09759 22.043105,11.32322 32.158766,21.979434 L 37.068811,17.246167 C 37.068811,17.246167 37.088388,32 37.088388,32 L 22.160133,31.978069 C 22.160133,31.978069 26.997745,27.140456 26.997745,27.140456 C 18.528582,18.264221 13.291696,25.230495 11.500037,31.436501 z"
             style="fill:#404040;"/>
          </a>
         </g>
        </svg>
</svg>
