<?xml version="1.0" encoding="UTF-8" standalone="no"?>
<!DOCTYPE svg PUBLIC "-//W3C//DTD SVG 1.1//EN"
 "http://www.w3.org/Graphics/SVG/1.1/DTD/svg11.dtd">
<!-- Generated by graphviz version 2.38.0 (20140413.2041)
 -->
<!-- Title: lime::FPGA_Mini::SetInterfaceFreq Pages: 1 -->
<svg width="384pt" height="66pt"
 viewBox="0.00 0.00 384.00 66.00" xmlns="http://www.w3.org/2000/svg" xmlns:xlink="http://www.w3.org/1999/xlink">
<g id="graph0" class="graph" transform="scale(1 1) rotate(0) translate(4 62)">
<title>lime::FPGA_Mini::SetInterfaceFreq</title>
<polygon fill="white" stroke="none" points="-4,4 -4,-62 380,-62 380,4 -4,4"/>
<!-- Node1 -->
<g id="node1" class="node"><title>Node1</title>
<polygon fill="#bfbfbf" stroke="black" points="0,-19.5 0,-38.5 170,-38.5 170,-19.5 0,-19.5"/>
<text text-anchor="middle" x="85" y="-26.5" font-family="Helvetica,sans-Serif" font-size="10.00">lime::FPGA_Mini::SetInterfaceFreq</text>
</g>
<!-- Node2 -->
<g id="node2" class="node"><title>Node2</title>
<g id="a_node2"><a xlink:href="../../d5/ddc/classlime_1_1FPGA__Mini.html#accf287398ba048ad7dd74a9e2ce15ae6" target="_top" xlink:title="Configures FPGA PLLs to LimeLight interface frequency. ">
<polygon fill="white" stroke="black" points="206,-38.5 206,-57.5 376,-57.5 376,-38.5 206,-38.5"/>
<text text-anchor="middle" x="291" y="-45.5" font-family="Helvetica,sans-Serif" font-size="10.00">lime::FPGA_Mini::SetInterfaceFreq</text>
</a>
</g>
</g>
<!-- Node1&#45;&gt;Node2 -->
<g id="edge1" class="edge"><title>Node1&#45;&gt;Node2</title>
<path fill="none" stroke="midnightblue" d="M180.124,-37.7665C188.66,-38.5614 197.269,-39.3633 205.712,-40.1496"/>
<polygon fill="midnightblue" stroke="midnightblue" points="180.434,-34.2803 170.152,-36.8377 179.785,-41.2501 180.434,-34.2803"/>
</g>
<!-- Node3 -->
<g id="node3" class="node"><title>Node3</title>
<g id="a_node3"><a xlink:href="../../d5/ddc/classlime_1_1FPGA__Mini.html#aedd77aff9db5e1c37979e0bc8988a50b" target="_top" xlink:title="lime::FPGA_Mini::~FPGA_Mini">
<polygon fill="white" stroke="black" points="214.5,-0.5 214.5,-19.5 367.5,-19.5 367.5,-0.5 214.5,-0.5"/>
<text text-anchor="middle" x="291" y="-7.5" font-family="Helvetica,sans-Serif" font-size="10.00">lime::FPGA_Mini::~FPGA_Mini</text>
</a>
</g>
</g>
<!-- Node1&#45;&gt;Node3 -->
<g id="edge2" class="edge"><title>Node1&#45;&gt;Node3</title>
<path fill="none" stroke="midnightblue" d="M180.137,-20.2323C191.554,-19.169 203.103,-18.0933 214.208,-17.0591"/>
<polygon fill="midnightblue" stroke="midnightblue" points="179.785,-16.7499 170.152,-21.1623 180.434,-23.7197 179.785,-16.7499"/>
</g>
</g>
</svg>
