<?xml version="1.0" encoding="UTF-8" standalone="no"?>
<!DOCTYPE svg PUBLIC "-//W3C//DTD SVG 1.1//EN"
 "http://www.w3.org/Graphics/SVG/1.1/DTD/svg11.dtd">
<!-- Generated by graphviz version 2.38.0 (20140413.2041)
 -->
<!-- Title: lime::StreamChannel::Write Pages: 1 -->
<svg width="692pt" height="116pt"
 viewBox="0.00 0.00 692.00 115.50" xmlns="http://www.w3.org/2000/svg" xmlns:xlink="http://www.w3.org/1999/xlink">
<g id="graph0" class="graph" transform="scale(1 1) rotate(0) translate(4 111.5)">
<title>lime::StreamChannel::Write</title>
<polygon fill="white" stroke="none" points="-4,4 -4,-111.5 688,-111.5 688,4 -4,4"/>
<!-- Node1 -->
<g id="node1" class="node"><title>Node1</title>
<polygon fill="#bfbfbf" stroke="black" points="0,-44.5 0,-74.5 108,-74.5 108,-44.5 0,-44.5"/>
<text text-anchor="start" x="8" y="-62.5" font-family="Helvetica,sans-Serif" font-size="10.00">lime::StreamChannel</text>
<text text-anchor="middle" x="54" y="-51.5" font-family="Helvetica,sans-Serif" font-size="10.00">::Write</text>
</g>
<!-- Node2 -->
<g id="node2" class="node"><title>Node2</title>
<g id="a_node2"><a xlink:href="../../df/de1/lms7__api_8cpp.html#ac81a4c776facecae17e6e5567585ad46" target="_top" xlink:title="LMS_SendStream">
<polygon fill="white" stroke="black" points="144,-50 144,-69 240,-69 240,-50 144,-50"/>
<text text-anchor="middle" x="192" y="-57" font-family="Helvetica,sans-Serif" font-size="10.00">LMS_SendStream</text>
</a>
</g>
</g>
<!-- Node1&#45;&gt;Node2 -->
<g id="edge1" class="edge"><title>Node1&#45;&gt;Node2</title>
<path fill="none" stroke="midnightblue" d="M118.393,-59.5C127.007,-59.5 135.719,-59.5 143.975,-59.5"/>
<polygon fill="midnightblue" stroke="midnightblue" points="118.36,-56.0001 108.36,-59.5 118.36,-63.0001 118.36,-56.0001"/>
</g>
<!-- Node3 -->
<g id="node3" class="node"><title>Node3</title>
<g id="a_node3"><a xlink:href="../../db/d92/LimeSuite_8cc.html#af256d4911ee06398fd4d3f90b45227c5" target="_top" xlink:title="DEFUN_DLD">
<polygon fill="white" stroke="black" points="293.5,-88 293.5,-107 370.5,-107 370.5,-88 293.5,-88"/>
<text text-anchor="middle" x="332" y="-95" font-family="Helvetica,sans-Serif" font-size="10.00">DEFUN_DLD</text>
</a>
</g>
</g>
<!-- Node2&#45;&gt;Node3 -->
<g id="edge2" class="edge"><title>Node2&#45;&gt;Node3</title>
<path fill="none" stroke="midnightblue" d="M237.473,-71.7462C256.495,-76.984 278.375,-83.0091 296.188,-87.9141"/>
<polygon fill="midnightblue" stroke="midnightblue" points="238.394,-68.3695 227.823,-69.089 236.535,-75.1183 238.394,-68.3695"/>
</g>
<!-- Node4 -->
<g id="node4" class="node"><title>Node4</title>
<g id="a_node4"><a xlink:href="../../d2/db0/basicTX_8cpp.html#a3c04138a5bfe5d72780bb7e82a18e627" target="_top" xlink:title="main">
<polygon fill="white" stroke="black" points="313,-50 313,-69 351,-69 351,-50 313,-50"/>
<text text-anchor="middle" x="332" y="-57" font-family="Helvetica,sans-Serif" font-size="10.00">main</text>
</a>
</g>
</g>
<!-- Node2&#45;&gt;Node4 -->
<g id="edge3" class="edge"><title>Node2&#45;&gt;Node4</title>
<path fill="none" stroke="midnightblue" d="M250.252,-59.5C272.673,-59.5 296.799,-59.5 312.781,-59.5"/>
<polygon fill="midnightblue" stroke="midnightblue" points="250.106,-56.0001 240.106,-59.5 250.106,-63.0001 250.106,-56.0001"/>
</g>
<!-- Node5 -->
<g id="node5" class="node"><title>Node5</title>
<g id="a_node5"><a xlink:href="../../d5/d45/classfftviewer__frFFTviewer.html#a597151cc127f6b465e183b700ca1e41c" target="_top" xlink:title="fftviewer_frFFTviewer\l::StreamingLoop">
<polygon fill="white" stroke="black" points="276,-0.5 276,-30.5 388,-30.5 388,-0.5 276,-0.5"/>
<text text-anchor="start" x="284" y="-18.5" font-family="Helvetica,sans-Serif" font-size="10.00">fftviewer_frFFTviewer</text>
<text text-anchor="middle" x="332" y="-7.5" font-family="Helvetica,sans-Serif" font-size="10.00">::StreamingLoop</text>
</a>
</g>
</g>
<!-- Node2&#45;&gt;Node5 -->
<g id="edge4" class="edge"><title>Node2&#45;&gt;Node5</title>
<path fill="none" stroke="midnightblue" d="M232.516,-46.9008C248.492,-41.8069 267.066,-35.8849 283.75,-30.5654"/>
<polygon fill="midnightblue" stroke="midnightblue" points="231.408,-43.5802 222.944,-49.9527 233.535,-50.2495 231.408,-43.5802"/>
</g>
<!-- Node6 -->
<g id="node6" class="node"><title>Node6</title>
<g id="a_node6"><a xlink:href="../../d5/d45/classfftviewer__frFFTviewer.html#a85fc31baba337dae5f523ef9702709f4" target="_top" xlink:title="fftviewer_frFFTviewer\l::StartStreaming">
<polygon fill="white" stroke="black" points="424,-0.5 424,-30.5 536,-30.5 536,-0.5 424,-0.5"/>
<text text-anchor="start" x="432" y="-18.5" font-family="Helvetica,sans-Serif" font-size="10.00">fftviewer_frFFTviewer</text>
<text text-anchor="middle" x="480" y="-7.5" font-family="Helvetica,sans-Serif" font-size="10.00">::StartStreaming</text>
</a>
</g>
</g>
<!-- Node5&#45;&gt;Node6 -->
<g id="edge5" class="edge"><title>Node5&#45;&gt;Node6</title>
<path fill="none" stroke="midnightblue" d="M398.41,-15.5C406.865,-15.5 415.457,-15.5 423.726,-15.5"/>
<polygon fill="midnightblue" stroke="midnightblue" points="398.196,-12.0001 388.196,-15.5 398.196,-19.0001 398.196,-12.0001"/>
</g>
<!-- Node7 -->
<g id="node7" class="node"><title>Node7</title>
<g id="a_node7"><a xlink:href="../../d5/d45/classfftviewer__frFFTviewer.html#ab4c28bb34659ce6fc1774bec2c5d13b8" target="_top" xlink:title="fftviewer_frFFTviewer\l::OnbtnStartStop">
<polygon fill="white" stroke="black" points="572,-0.5 572,-30.5 684,-30.5 684,-0.5 572,-0.5"/>
<text text-anchor="start" x="580" y="-18.5" font-family="Helvetica,sans-Serif" font-size="10.00">fftviewer_frFFTviewer</text>
<text text-anchor="middle" x="628" y="-7.5" font-family="Helvetica,sans-Serif" font-size="10.00">::OnbtnStartStop</text>
</a>
</g>
</g>
<!-- Node6&#45;&gt;Node7 -->
<g id="edge6" class="edge"><title>Node6&#45;&gt;Node7</title>
<path fill="none" stroke="midnightblue" d="M546.41,-15.5C554.865,-15.5 563.457,-15.5 571.726,-15.5"/>
<polygon fill="midnightblue" stroke="midnightblue" points="546.196,-12.0001 536.196,-15.5 546.196,-19.0001 546.196,-12.0001"/>
</g>
</g>
</svg>
