<?xml version="1.0" encoding="UTF-8" standalone="no"?>
<!DOCTYPE svg PUBLIC "-//W3C//DTD SVG 1.1//EN"
 "http://www.w3.org/Graphics/SVG/1.1/DTD/svg11.dtd">
<!-- Generated by graphviz version 2.38.0 (20140413.2041)
 -->
<!-- Title: /home/erik/prefix/default/src/limesuite&#45;dev/SoapyLMS7/Settings.cpp Pages: 1 -->
<!--zoomable 330 -->
<svg id="main" version="1.1" xmlns="http://www.w3.org/2000/svg" xmlns:xlink="http://www.w3.org/1999/xlink" xml:space="preserve" onload="init(evt)">
<style type="text/css"><![CDATA[
.edge:hover path { stroke: red; }
.edge:hover polygon { stroke: red; fill: red; }
]]></style>
<script type="text/javascript"><![CDATA[
var edges = document.getElementsByTagName('g');
if (edges && edges.length) {
  for (var i=0;i<edges.length;i++) {
    if (edges[i].id.substr(0,4)=='edge') {
      edges[i].setAttribute('class','edge');
    }
  }
}
]]></script>
        <defs>
                <circle id="rim" cx="0" cy="0" r="7"/>
                <circle id="rim2" cx="0" cy="0" r="3.5"/>
                <g id="zoomPlus">
                        <use xlink:href="#rim" fill="#404040">
                                <set attributeName="fill" to="#808080" begin="zoomplus.mouseover" end="zoomplus.mouseout"/>
                        </use>
                        <path d="M-4,0h8M0,-4v8" fill="none" stroke="white" stroke-width="1.5" pointer-events="none"/>
                </g>
                <g id="zoomMin">
                        <use xlink:href="#rim" fill="#404040">
                                <set attributeName="fill" to="#808080" begin="zoomminus.mouseover" end="zoomminus.mouseout"/>
                        </use>
                        <path d="M-4,0h8" fill="none" stroke="white" stroke-width="1.5" pointer-events="none"/>
                </g>
                <g id="dirArrow">
                        <path fill="none" stroke="white" stroke-width="1.5" d="M0,-3.0v7 M-2.5,-0.5L0,-3.0L2.5,-0.5"/>
                </g>
               <g id="resetDef">
                       <use xlink:href="#rim2" fill="#404040">
                               <set attributeName="fill" to="#808080" begin="reset.mouseover" end="reset.mouseout"/>
                       </use>
               </g>
        </defs>

<script type="text/javascript">
var viewWidth = 1719;
var viewHeight = 330;
var sectionId = 'dynsection-0';
</script>
<script xlink:href="../../svgpan.js"/>
<svg id="graph" class="graph">
<g id="viewport">
<title>/home/erik/prefix/default/src/limesuite&#45;dev/SoapyLMS7/Settings.cpp</title>
<polygon fill="white" stroke="none" points="-4,4 -4,-326 1714.5,-326 1714.5,4 -4,4"/>
<!-- Node1 -->
<g id="node1" class="node"><title>Node1</title>
<polygon fill="#bfbfbf" stroke="black" points="1136.5,-280.5 1136.5,-321.5 1286.5,-321.5 1286.5,-280.5 1136.5,-280.5"/>
<text text-anchor="start" x="1144.5" y="-309.5" font-family="Helvetica,sans-Serif" font-size="10.00">/home/erik/prefix/default</text>
<text text-anchor="start" x="1144.5" y="-298.5" font-family="Helvetica,sans-Serif" font-size="10.00">/src/limesuite&#45;dev/SoapyLMS7</text>
<text text-anchor="middle" x="1211.5" y="-287.5" font-family="Helvetica,sans-Serif" font-size="10.00">/Settings.cpp</text>
</g>
<!-- Node2 -->
<g id="node2" class="node"><title>Node2</title>
<g id="a_node2"><a xlink:href="../../d1/d9d/SoapyLMS7_8h.html" target="_top" xlink:title="Header for Soapy SDR + IConnection bindings. ">
<polygon fill="white" stroke="black" points="1088.5,-224.5 1088.5,-243.5 1166.5,-243.5 1166.5,-224.5 1088.5,-224.5"/>
<text text-anchor="middle" x="1127.5" y="-231.5" font-family="Helvetica,sans-Serif" font-size="10.00">SoapyLMS7.h</text>
</a>
</g>
</g>
<!-- Node1&#45;&gt;Node2 -->
<g id="edge1" class="edge"><title>Node1&#45;&gt;Node2</title>
<path fill="none" stroke="midnightblue" d="M1186.3,-280.498C1173.67,-270.724 1158.61,-259.072 1146.89,-250.007"/>
<polygon fill="midnightblue" stroke="midnightblue" points="1148.73,-247.004 1138.68,-243.652 1144.45,-252.54 1148.73,-247.004"/>
</g>
<!-- Node24 -->
<g id="node24" class="node"><title>Node24</title>
<g id="a_node24"><a xlink:href="../../dd/da4/Logger_8h.html" target="_top" xlink:title="API for logging library status messages. ">
<polygon fill="white" stroke="black" points="131.5,-224.5 131.5,-243.5 185.5,-243.5 185.5,-224.5 131.5,-224.5"/>
<text text-anchor="middle" x="158.5" y="-231.5" font-family="Helvetica,sans-Serif" font-size="10.00">Logger.h</text>
</a>
</g>
</g>
<!-- Node1&#45;&gt;Node24 -->
<g id="edge29" class="edge"><title>Node1&#45;&gt;Node24</title>
<path fill="none" stroke="midnightblue" d="M1136.19,-295.351C927.727,-282.483 348.395,-246.722 195.755,-237.3"/>
<polygon fill="midnightblue" stroke="midnightblue" points="195.71,-233.79 185.514,-236.668 195.279,-240.777 195.71,-233.79"/>
</g>
<!-- Node27 -->
<g id="node27" class="node"><title>Node27</title>
<polygon fill="white" stroke="#bfbfbf" points="267,-168.5 267,-187.5 326,-187.5 326,-168.5 267,-168.5"/>
<text text-anchor="middle" x="296.5" y="-175.5" font-family="Helvetica,sans-Serif" font-size="10.00">stdexcept</text>
</g>
<!-- Node1&#45;&gt;Node27 -->
<g id="edge57" class="edge"><title>Node1&#45;&gt;Node27</title>
<path fill="none" stroke="midnightblue" d="M1136.23,-291.128C986.404,-273.265 640.327,-230.989 350.5,-188 345.934,-187.323 341.158,-186.579 336.414,-185.817"/>
<polygon fill="midnightblue" stroke="midnightblue" points="336.613,-182.303 326.179,-184.143 335.482,-189.211 336.613,-182.303"/>
</g>
<!-- Node28 -->
<g id="node28" class="node"><title>Node28</title>
<g id="a_node28"><a xlink:href="../../dc/d5e/lms7__device_8h.html" target="_top" xlink:title="lms7_device.h">
<polygon fill="white" stroke="black" points="821.5,-224.5 821.5,-243.5 901.5,-243.5 901.5,-224.5 821.5,-224.5"/>
<text text-anchor="middle" x="861.5" y="-231.5" font-family="Helvetica,sans-Serif" font-size="10.00">lms7_device.h</text>
</a>
</g>
</g>
<!-- Node1&#45;&gt;Node28 -->
<g id="edge35" class="edge"><title>Node1&#45;&gt;Node28</title>
<path fill="none" stroke="midnightblue" d="M1136.42,-286.056C1068.58,-273.458 970.622,-255.266 911.794,-244.34"/>
<polygon fill="midnightblue" stroke="midnightblue" points="912.107,-240.839 901.636,-242.454 910.829,-247.721 912.107,-240.839"/>
</g>
<!-- Node36 -->
<g id="node36" class="node"><title>Node36</title>
<g id="a_node36"><a xlink:href="../../d3/d1e/IConnection_8h.html" target="_top" xlink:title="Interface class for connection types. ">
<polygon fill="white" stroke="black" points="823,-168.5 823,-187.5 900,-187.5 900,-168.5 823,-168.5"/>
<text text-anchor="middle" x="861.5" y="-175.5" font-family="Helvetica,sans-Serif" font-size="10.00">IConnection.h</text>
</a>
</g>
</g>
<!-- Node1&#45;&gt;Node36 -->
<g id="edge56" class="edge"><title>Node1&#45;&gt;Node36</title>
<path fill="none" stroke="midnightblue" d="M1154.88,-280.425C1081.72,-255.134 956.606,-211.88 896.18,-190.989"/>
<polygon fill="midnightblue" stroke="midnightblue" points="896.959,-187.556 886.364,-187.596 894.672,-194.171 896.959,-187.556"/>
</g>
<!-- Node38 -->
<g id="node38" class="node"><title>Node38</title>
<polygon fill="white" stroke="#bfbfbf" points="1184.5,-224.5 1184.5,-243.5 1238.5,-243.5 1238.5,-224.5 1184.5,-224.5"/>
<text text-anchor="middle" x="1211.5" y="-231.5" font-family="Helvetica,sans-Serif" font-size="10.00">iostream</text>
</g>
<!-- Node1&#45;&gt;Node38 -->
<g id="edge58" class="edge"><title>Node1&#45;&gt;Node38</title>
<path fill="none" stroke="midnightblue" d="M1211.5,-280.498C1211.5,-272.065 1211.5,-262.235 1211.5,-253.874"/>
<polygon fill="midnightblue" stroke="midnightblue" points="1215,-253.652 1211.5,-243.652 1208,-253.653 1215,-253.652"/>
</g>
<!-- Node39 -->
<g id="node39" class="node"><title>Node39</title>
<polygon fill="white" stroke="#bfbfbf" points="1256.5,-224.5 1256.5,-243.5 1308.5,-243.5 1308.5,-224.5 1256.5,-224.5"/>
<text text-anchor="middle" x="1282.5" y="-231.5" font-family="Helvetica,sans-Serif" font-size="10.00">memory</text>
</g>
<!-- Node1&#45;&gt;Node39 -->
<g id="edge59" class="edge"><title>Node1&#45;&gt;Node39</title>
<path fill="none" stroke="midnightblue" d="M1232.8,-280.498C1243.27,-270.915 1255.71,-259.528 1265.52,-250.543"/>
<polygon fill="midnightblue" stroke="midnightblue" points="1268.04,-252.987 1273.05,-243.652 1263.31,-247.824 1268.04,-252.987"/>
</g>
<!-- Node40 -->
<g id="node40" class="node"><title>Node40</title>
<polygon fill="white" stroke="#bfbfbf" points="1327,-224.5 1327,-243.5 1444,-243.5 1444,-224.5 1327,-224.5"/>
<text text-anchor="middle" x="1385.5" y="-231.5" font-family="Helvetica,sans-Serif" font-size="10.00">SoapySDR/Logger.hpp</text>
</g>
<!-- Node1&#45;&gt;Node40 -->
<g id="edge60" class="edge"><title>Node1&#45;&gt;Node40</title>
<path fill="none" stroke="midnightblue" d="M1263.71,-280.498C1292.69,-269.67 1327.85,-256.537 1352.92,-247.17"/>
<polygon fill="midnightblue" stroke="midnightblue" points="1354.2,-250.431 1362.34,-243.652 1351.75,-243.873 1354.2,-250.431"/>
</g>
<!-- Node41 -->
<g id="node41" class="node"><title>Node41</title>
<polygon fill="white" stroke="#bfbfbf" points="1462.5,-224.5 1462.5,-243.5 1572.5,-243.5 1572.5,-224.5 1462.5,-224.5"/>
<text text-anchor="middle" x="1517.5" y="-231.5" font-family="Helvetica,sans-Serif" font-size="10.00">SoapySDR/Time.hpp</text>
</g>
<!-- Node1&#45;&gt;Node41 -->
<g id="edge61" class="edge"><title>Node1&#45;&gt;Node41</title>
<path fill="none" stroke="midnightblue" d="M1286.75,-284.016C1342.92,-272.084 1418.13,-256.107 1467.19,-245.687"/>
<polygon fill="midnightblue" stroke="midnightblue" points="1468.19,-249.053 1477.24,-243.551 1466.73,-242.206 1468.19,-249.053"/>
</g>
<!-- Node42 -->
<g id="node42" class="node"><title>Node42</title>
<polygon fill="white" stroke="#bfbfbf" points="1591,-224.5 1591,-243.5 1636,-243.5 1636,-224.5 1591,-224.5"/>
<text text-anchor="middle" x="1613.5" y="-231.5" font-family="Helvetica,sans-Serif" font-size="10.00">cstdlib</text>
</g>
<!-- Node1&#45;&gt;Node42 -->
<g id="edge62" class="edge"><title>Node1&#45;&gt;Node42</title>
<path fill="none" stroke="midnightblue" d="M1286.76,-291.387C1359.6,-282.42 1473.23,-266.772 1580.8,-243.905"/>
<polygon fill="midnightblue" stroke="midnightblue" points="1581.82,-247.266 1590.86,-241.742 1580.35,-240.423 1581.82,-247.266"/>
</g>
<!-- Node43 -->
<g id="node43" class="node"><title>Node43</title>
<polygon fill="white" stroke="#bfbfbf" points="1654.5,-224.5 1654.5,-243.5 1710.5,-243.5 1710.5,-224.5 1654.5,-224.5"/>
<text text-anchor="middle" x="1682.5" y="-231.5" font-family="Helvetica,sans-Serif" font-size="10.00">algorithm</text>
</g>
<!-- Node1&#45;&gt;Node43 -->
<g id="edge63" class="edge"><title>Node1&#45;&gt;Node43</title>
<path fill="none" stroke="midnightblue" d="M1286.77,-292.833C1371.43,-284.2 1513.15,-268.029 1644.08,-244.089"/>
<polygon fill="midnightblue" stroke="midnightblue" points="1645.09,-247.461 1654.29,-242.202 1643.82,-240.578 1645.09,-247.461"/>
</g>
<!-- Node3 -->
<g id="node3" class="node"><title>Node3</title>
<polygon fill="white" stroke="#bfbfbf" points="1345,-168.5 1345,-187.5 1464,-187.5 1464,-168.5 1345,-168.5"/>
<text text-anchor="middle" x="1404.5" y="-175.5" font-family="Helvetica,sans-Serif" font-size="10.00">SoapySDR/Device.hpp</text>
</g>
<!-- Node2&#45;&gt;Node3 -->
<g id="edge2" class="edge"><title>Node2&#45;&gt;Node3</title>
<path fill="none" stroke="midnightblue" d="M1166.6,-225.378C1214.65,-216.01 1296.45,-200.063 1350.49,-189.53"/>
<polygon fill="midnightblue" stroke="midnightblue" points="1351.43,-192.913 1360.57,-187.564 1350.09,-186.042 1351.43,-192.913"/>
</g>
<!-- Node4 -->
<g id="node4" class="node"><title>Node4</title>
<g id="a_node4"><a xlink:href="../../dc/d17/ConnectionRegistry_8h.html" target="_top" xlink:title="Registration and access for possible connection types. ">
<polygon fill="white" stroke="black" points="966,-168.5 966,-187.5 1077,-187.5 1077,-168.5 966,-168.5"/>
<text text-anchor="middle" x="1021.5" y="-175.5" font-family="Helvetica,sans-Serif" font-size="10.00">ConnectionRegistry.h</text>
</a>
</g>
</g>
<!-- Node2&#45;&gt;Node4 -->
<g id="edge3" class="edge"><title>Node2&#45;&gt;Node4</title>
<path fill="none" stroke="midnightblue" d="M1110.47,-224.324C1093.47,-215.664 1067.12,-202.242 1047.51,-192.249"/>
<polygon fill="midnightblue" stroke="midnightblue" points="1048.99,-189.075 1038.49,-187.655 1045.81,-195.312 1048.99,-189.075"/>
</g>
<!-- Node9 -->
<g id="node9" class="node"><title>Node9</title>
<polygon fill="white" stroke="#bfbfbf" points="1520.5,-56.5 1520.5,-75.5 1564.5,-75.5 1564.5,-56.5 1520.5,-56.5"/>
<text text-anchor="middle" x="1542.5" y="-63.5" font-family="Helvetica,sans-Serif" font-size="10.00">mutex</text>
</g>
<!-- Node2&#45;&gt;Node9 -->
<g id="edge10" class="edge"><title>Node2&#45;&gt;Node9</title>
<path fill="none" stroke="midnightblue" d="M1166.76,-225.424C1169.71,-224.92 1172.65,-224.439 1175.5,-224 1241.43,-213.848 1417.94,-224.911 1473.5,-188 1510.15,-163.655 1529.55,-112.8 1537.72,-85.4113"/>
<polygon fill="midnightblue" stroke="midnightblue" points="1541.15,-86.1303 1540.47,-75.5576 1534.41,-84.2491 1541.15,-86.1303"/>
</g>
<!-- Node10 -->
<g id="node10" class="node"><title>Node10</title>
<polygon fill="white" stroke="#bfbfbf" points="1178.5,-168.5 1178.5,-187.5 1224.5,-187.5 1224.5,-168.5 1178.5,-168.5"/>
<text text-anchor="middle" x="1201.5" y="-175.5" font-family="Helvetica,sans-Serif" font-size="10.00">chrono</text>
</g>
<!-- Node2&#45;&gt;Node10 -->
<g id="edge11" class="edge"><title>Node2&#45;&gt;Node10</title>
<path fill="none" stroke="midnightblue" d="M1139.39,-224.324C1150.65,-216.107 1167.79,-203.602 1181.21,-193.807"/>
<polygon fill="midnightblue" stroke="midnightblue" points="1183.38,-196.556 1189.39,-187.834 1179.25,-190.901 1183.38,-196.556"/>
</g>
<!-- Node11 -->
<g id="node11" class="node"><title>Node11</title>
<polygon fill="white" stroke="#bfbfbf" points="1243,-168.5 1243,-187.5 1278,-187.5 1278,-168.5 1243,-168.5"/>
<text text-anchor="middle" x="1260.5" y="-175.5" font-family="Helvetica,sans-Serif" font-size="10.00">map</text>
</g>
<!-- Node2&#45;&gt;Node11 -->
<g id="edge12" class="edge"><title>Node2&#45;&gt;Node11</title>
<path fill="none" stroke="midnightblue" d="M1148.57,-224.444C1171.59,-215.097 1208.53,-200.102 1233.62,-189.915"/>
<polygon fill="midnightblue" stroke="midnightblue" points="1234.97,-193.142 1242.92,-186.137 1232.34,-186.656 1234.97,-193.142"/>
</g>
<!-- Node12 -->
<g id="node12" class="node"><title>Node12</title>
<polygon fill="white" stroke="#bfbfbf" points="1296.5,-168.5 1296.5,-187.5 1326.5,-187.5 1326.5,-168.5 1296.5,-168.5"/>
<text text-anchor="middle" x="1311.5" y="-175.5" font-family="Helvetica,sans-Serif" font-size="10.00">set</text>
</g>
<!-- Node2&#45;&gt;Node12 -->
<g id="edge13" class="edge"><title>Node2&#45;&gt;Node12</title>
<path fill="none" stroke="midnightblue" d="M1161.15,-224.422C1191.67,-216.449 1238.05,-203.845 1286.6,-188.099"/>
<polygon fill="midnightblue" stroke="midnightblue" points="1287.92,-191.349 1296.33,-184.909 1285.74,-184.698 1287.92,-191.349"/>
</g>
<!-- Node13 -->
<g id="node13" class="node"><title>Node13</title>
<g id="a_node13"><a xlink:href="../../d2/dbf/Streamer_8h.html" target="_top" xlink:title="Streamer.h">
<polygon fill="white" stroke="black" points="1095,-168.5 1095,-187.5 1160,-187.5 1160,-168.5 1095,-168.5"/>
<text text-anchor="middle" x="1127.5" y="-175.5" font-family="Helvetica,sans-Serif" font-size="10.00">Streamer.h</text>
</a>
</g>
</g>
<!-- Node2&#45;&gt;Node13 -->
<g id="edge14" class="edge"><title>Node2&#45;&gt;Node13</title>
<path fill="none" stroke="midnightblue" d="M1127.5,-224.083C1127.5,-217.006 1127.5,-206.861 1127.5,-197.986"/>
<polygon fill="midnightblue" stroke="midnightblue" points="1131,-197.751 1127.5,-187.751 1124,-197.751 1131,-197.751"/>
</g>
<!-- Node5 -->
<g id="node5" class="node"><title>Node5</title>
<g id="a_node5"><a xlink:href="../../dd/d40/LimeSuiteConfig_8h.html" target="_top" xlink:title="Configuration constants and macros for lime suite library. ">
<polygon fill="white" stroke="black" points="696,-56.5 696,-75.5 793,-75.5 793,-56.5 696,-56.5"/>
<text text-anchor="middle" x="744.5" y="-63.5" font-family="Helvetica,sans-Serif" font-size="10.00">LimeSuiteConfig.h</text>
</a>
</g>
</g>
<!-- Node4&#45;&gt;Node5 -->
<g id="edge4" class="edge"><title>Node4&#45;&gt;Node5</title>
<path fill="none" stroke="midnightblue" d="M1016.46,-168.224C1007.79,-153.983 988.639,-126.024 964.5,-112 914.985,-83.2323 849.86,-72.6623 803.342,-68.878"/>
<polygon fill="midnightblue" stroke="midnightblue" points="803.35,-65.3693 793.121,-68.1308 802.839,-72.3507 803.35,-65.3693"/>
</g>
<!-- Node6 -->
<g id="node6" class="node"><title>Node6</title>
<g id="a_node6"><a xlink:href="../../d1/d5d/ConnectionHandle_8h.html" target="_top" xlink:title="Represent a connection to a device. ">
<polygon fill="white" stroke="black" points="850,-112.5 850,-131.5 955,-131.5 955,-112.5 850,-112.5"/>
<text text-anchor="middle" x="902.5" y="-119.5" font-family="Helvetica,sans-Serif" font-size="10.00">ConnectionHandle.h</text>
</a>
</g>
</g>
<!-- Node4&#45;&gt;Node6 -->
<g id="edge5" class="edge"><title>Node4&#45;&gt;Node6</title>
<path fill="none" stroke="midnightblue" d="M1002.64,-168.444C983.234,-159.636 952.77,-145.812 930.535,-135.722"/>
<polygon fill="midnightblue" stroke="midnightblue" points="931.82,-132.462 921.268,-131.516 928.928,-138.836 931.82,-132.462"/>
</g>
<!-- Node7 -->
<g id="node7" class="node"><title>Node7</title>
<polygon fill="white" stroke="#bfbfbf" points="875,-56.5 875,-75.5 916,-75.5 916,-56.5 875,-56.5"/>
<text text-anchor="middle" x="895.5" y="-63.5" font-family="Helvetica,sans-Serif" font-size="10.00">string</text>
</g>
<!-- Node4&#45;&gt;Node7 -->
<g id="edge8" class="edge"><title>Node4&#45;&gt;Node7</title>
<path fill="none" stroke="midnightblue" d="M1027.44,-168.102C1035.58,-154.668 1047.88,-128.977 1035.5,-112 1033.82,-109.7 966.508,-88.7559 925.842,-76.2672"/>
<polygon fill="midnightblue" stroke="midnightblue" points="926.721,-72.8758 916.134,-73.2908 924.669,-79.5684 926.721,-72.8758"/>
</g>
<!-- Node8 -->
<g id="node8" class="node"><title>Node8</title>
<polygon fill="white" stroke="#bfbfbf" points="934.5,-56.5 934.5,-75.5 978.5,-75.5 978.5,-56.5 934.5,-56.5"/>
<text text-anchor="middle" x="956.5" y="-63.5" font-family="Helvetica,sans-Serif" font-size="10.00">vector</text>
</g>
<!-- Node4&#45;&gt;Node8 -->
<g id="edge9" class="edge"><title>Node4&#45;&gt;Node8</title>
<path fill="none" stroke="midnightblue" d="M1052.99,-168.417C1086.11,-157.794 1130.94,-137.892 1111.5,-112 1110.55,-110.733 1033.54,-88.7845 988.44,-76.0171"/>
<polygon fill="midnightblue" stroke="midnightblue" points="989.108,-72.569 978.533,-73.2148 987.203,-79.3047 989.108,-72.569"/>
</g>
<!-- Node6&#45;&gt;Node5 -->
<g id="edge6" class="edge"><title>Node6&#45;&gt;Node5</title>
<path fill="none" stroke="midnightblue" d="M877.464,-112.444C850.884,-103.359 808.691,-88.9388 778.977,-78.7831"/>
<polygon fill="midnightblue" stroke="midnightblue" points="780.013,-75.4386 769.418,-75.5164 777.749,-82.0625 780.013,-75.4386"/>
</g>
<!-- Node6&#45;&gt;Node7 -->
<g id="edge7" class="edge"><title>Node6&#45;&gt;Node7</title>
<path fill="none" stroke="midnightblue" d="M901.344,-112.083C900.416,-104.927 899.082,-94.6353 897.923,-85.6911"/>
<polygon fill="midnightblue" stroke="midnightblue" points="901.391,-85.2181 896.634,-75.7511 894.449,-86.1181 901.391,-85.2181"/>
</g>
<!-- Node13&#45;&gt;Node8 -->
<g id="edge28" class="edge"><title>Node13&#45;&gt;Node8</title>
<path fill="none" stroke="midnightblue" d="M1130.52,-168.364C1134.65,-154.815 1140.21,-128.42 1127.5,-112 1088.44,-61.5344 1050.11,-92.6399 988.5,-76 988.399,-75.9727 988.298,-75.9454 988.197,-75.918"/>
<polygon fill="midnightblue" stroke="midnightblue" points="989.087,-72.5331 978.517,-73.2571 987.232,-79.2827 989.087,-72.5331"/>
</g>
<!-- Node14 -->
<g id="node14" class="node"><title>Node14</title>
<g id="a_node14"><a xlink:href="../../d4/dbd/dataTypes_8h.html" target="_top" xlink:title="dataTypes.h">
<polygon fill="white" stroke="black" points="1431,-56.5 1431,-75.5 1502,-75.5 1502,-56.5 1431,-56.5"/>
<text text-anchor="middle" x="1466.5" y="-63.5" font-family="Helvetica,sans-Serif" font-size="10.00">dataTypes.h</text>
</a>
</g>
</g>
<!-- Node13&#45;&gt;Node14 -->
<g id="edge15" class="edge"><title>Node13&#45;&gt;Node14</title>
<path fill="none" stroke="midnightblue" d="M1153.82,-168.46C1214.02,-148.926 1361.83,-100.963 1430.44,-78.7018"/>
<polygon fill="midnightblue" stroke="midnightblue" points="1431.53,-82.026 1439.96,-75.6104 1429.37,-75.3677 1431.53,-82.026"/>
</g>
<!-- Node17 -->
<g id="node17" class="node"><title>Node17</title>
<g id="a_node17"><a xlink:href="../../d0/dd8/fifo_8h.html" target="_top" xlink:title="fifo.h">
<polygon fill="white" stroke="black" points="1213.5,-112.5 1213.5,-131.5 1251.5,-131.5 1251.5,-112.5 1213.5,-112.5"/>
<text text-anchor="middle" x="1232.5" y="-119.5" font-family="Helvetica,sans-Serif" font-size="10.00">fifo.h</text>
</a>
</g>
</g>
<!-- Node13&#45;&gt;Node17 -->
<g id="edge18" class="edge"><title>Node13&#45;&gt;Node17</title>
<path fill="none" stroke="midnightblue" d="M1144.37,-168.324C1161.21,-159.664 1187.31,-146.242 1206.74,-136.249"/>
<polygon fill="midnightblue" stroke="midnightblue" points="1208.38,-139.341 1215.67,-131.655 1205.18,-133.116 1208.38,-139.341"/>
</g>
<!-- Node15 -->
<g id="node15" class="node"><title>Node15</title>
<polygon fill="white" stroke="#bfbfbf" points="1442,-0.5 1442,-19.5 1491,-19.5 1491,-0.5 1442,-0.5"/>
<text text-anchor="middle" x="1466.5" y="-7.5" font-family="Helvetica,sans-Serif" font-size="10.00">string.h</text>
</g>
<!-- Node14&#45;&gt;Node15 -->
<g id="edge16" class="edge"><title>Node14&#45;&gt;Node15</title>
<path fill="none" stroke="midnightblue" d="M1466.5,-56.083C1466.5,-49.0059 1466.5,-38.8611 1466.5,-29.9865"/>
<polygon fill="midnightblue" stroke="midnightblue" points="1470,-29.751 1466.5,-19.7511 1463,-29.7511 1470,-29.751"/>
</g>
<!-- Node16 -->
<g id="node16" class="node"><title>Node16</title>
<polygon fill="white" stroke="#bfbfbf" points="797,-0.5 797,-19.5 846,-19.5 846,-0.5 797,-0.5"/>
<text text-anchor="middle" x="821.5" y="-7.5" font-family="Helvetica,sans-Serif" font-size="10.00">stdint.h</text>
</g>
<!-- Node14&#45;&gt;Node16 -->
<g id="edge17" class="edge"><title>Node14&#45;&gt;Node16</title>
<path fill="none" stroke="midnightblue" d="M1430.71,-57.4299C1427.6,-56.8981 1424.5,-56.4109 1421.5,-56 1207.96,-26.7507 948.877,-15.418 856.38,-12.1214"/>
<polygon fill="midnightblue" stroke="midnightblue" points="856.305,-8.61681 846.189,-11.767 856.062,-15.6126 856.305,-8.61681"/>
</g>
<!-- Node17&#45;&gt;Node8 -->
<g id="edge22" class="edge"><title>Node17&#45;&gt;Node8</title>
<path fill="none" stroke="midnightblue" d="M1213.24,-117.068C1205.28,-115.463 1195.95,-113.61 1187.5,-112 1102.31,-95.7769 1077.79,-96.1416 988.8,-75.8673"/>
<polygon fill="midnightblue" stroke="midnightblue" points="989.34,-72.4002 978.81,-73.5671 987.769,-79.2217 989.34,-72.4002"/>
</g>
<!-- Node17&#45;&gt;Node9 -->
<g id="edge19" class="edge"><title>Node17&#45;&gt;Node9</title>
<path fill="none" stroke="midnightblue" d="M1251.6,-118.741C1295.58,-113.366 1407.51,-98.7033 1510.32,-76.0371"/>
<polygon fill="midnightblue" stroke="midnightblue" points="1511.24,-79.4173 1520.23,-73.8186 1509.71,-72.5861 1511.24,-79.4173"/>
</g>
<!-- Node17&#45;&gt;Node14 -->
<g id="edge25" class="edge"><title>Node17&#45;&gt;Node14</title>
<path fill="none" stroke="midnightblue" d="M1251.65,-116.581C1288.39,-108.103 1369.66,-89.3469 1421.05,-77.4884"/>
<polygon fill="midnightblue" stroke="midnightblue" points="1421.95,-80.8729 1430.91,-75.2138 1420.38,-74.0521 1421.95,-80.8729"/>
</g>
<!-- Node18 -->
<g id="node18" class="node"><title>Node18</title>
<polygon fill="white" stroke="#bfbfbf" points="1191,-56.5 1191,-75.5 1286,-75.5 1286,-56.5 1191,-56.5"/>
<text text-anchor="middle" x="1238.5" y="-63.5" font-family="Helvetica,sans-Serif" font-size="10.00">condition_variable</text>
</g>
<!-- Node17&#45;&gt;Node18 -->
<g id="edge20" class="edge"><title>Node17&#45;&gt;Node18</title>
<path fill="none" stroke="midnightblue" d="M1233.49,-112.083C1234.29,-104.927 1235.43,-94.6353 1236.42,-85.6911"/>
<polygon fill="midnightblue" stroke="midnightblue" points="1239.9,-86.0765 1237.53,-75.7511 1232.94,-85.3034 1239.9,-86.0765"/>
</g>
<!-- Node19 -->
<g id="node19" class="node"><title>Node19</title>
<polygon fill="white" stroke="#bfbfbf" points="1304.5,-56.5 1304.5,-75.5 1350.5,-75.5 1350.5,-56.5 1304.5,-56.5"/>
<text text-anchor="middle" x="1327.5" y="-63.5" font-family="Helvetica,sans-Serif" font-size="10.00">atomic</text>
</g>
<!-- Node17&#45;&gt;Node19 -->
<g id="edge21" class="edge"><title>Node17&#45;&gt;Node19</title>
<path fill="none" stroke="midnightblue" d="M1247.76,-112.324C1262.72,-103.822 1285.75,-90.7288 1303.23,-80.7975"/>
<polygon fill="midnightblue" stroke="midnightblue" points="1305.31,-83.639 1312.27,-75.6545 1301.85,-77.5534 1305.31,-83.639"/>
</g>
<!-- Node20 -->
<g id="node20" class="node"><title>Node20</title>
<polygon fill="white" stroke="#bfbfbf" points="1368.5,-56.5 1368.5,-75.5 1412.5,-75.5 1412.5,-56.5 1368.5,-56.5"/>
<text text-anchor="middle" x="1390.5" y="-63.5" font-family="Helvetica,sans-Serif" font-size="10.00">thread</text>
</g>
<!-- Node17&#45;&gt;Node20 -->
<g id="edge23" class="edge"><title>Node17&#45;&gt;Node20</title>
<path fill="none" stroke="midnightblue" d="M1251.56,-114.486C1278.07,-105.425 1326.44,-88.8943 1358.53,-77.927"/>
<polygon fill="midnightblue" stroke="midnightblue" points="1360,-81.1243 1368.33,-74.5782 1357.73,-74.5004 1360,-81.1243"/>
</g>
<!-- Node21 -->
<g id="node21" class="node"><title>Node21</title>
<polygon fill="white" stroke="#bfbfbf" points="997,-56.5 997,-75.5 1040,-75.5 1040,-56.5 997,-56.5"/>
<text text-anchor="middle" x="1018.5" y="-63.5" font-family="Helvetica,sans-Serif" font-size="10.00">queue</text>
</g>
<!-- Node17&#45;&gt;Node21 -->
<g id="edge24" class="edge"><title>Node17&#45;&gt;Node21</title>
<path fill="none" stroke="midnightblue" d="M1213.47,-116.594C1181.7,-109.181 1115.65,-93.5241 1049.85,-76.0063"/>
<polygon fill="midnightblue" stroke="midnightblue" points="1050.71,-72.6141 1040.15,-73.4089 1048.9,-79.376 1050.71,-72.6141"/>
</g>
<!-- Node22 -->
<g id="node22" class="node"><title>Node22</title>
<polygon fill="white" stroke="#bfbfbf" points="1058.5,-56.5 1058.5,-75.5 1102.5,-75.5 1102.5,-56.5 1058.5,-56.5"/>
<text text-anchor="middle" x="1080.5" y="-63.5" font-family="Helvetica,sans-Serif" font-size="10.00">cmath</text>
</g>
<!-- Node17&#45;&gt;Node22 -->
<g id="edge26" class="edge"><title>Node17&#45;&gt;Node22</title>
<path fill="none" stroke="midnightblue" d="M1213.25,-114.161C1187.84,-105.135 1142.78,-89.1243 1112.28,-78.2897"/>
<polygon fill="midnightblue" stroke="midnightblue" points="1113.14,-74.881 1102.54,-74.8313 1110.8,-81.4771 1113.14,-74.881"/>
</g>
<!-- Node23 -->
<g id="node23" class="node"><title>Node23</title>
<polygon fill="white" stroke="#bfbfbf" points="1120.5,-56.5 1120.5,-75.5 1172.5,-75.5 1172.5,-56.5 1120.5,-56.5"/>
<text text-anchor="middle" x="1146.5" y="-63.5" font-family="Helvetica,sans-Serif" font-size="10.00">assert.h</text>
</g>
<!-- Node17&#45;&gt;Node23 -->
<g id="edge27" class="edge"><title>Node17&#45;&gt;Node23</title>
<path fill="none" stroke="midnightblue" d="M1218.68,-112.324C1205.27,-103.9 1184.68,-90.9709 1168.91,-81.0741"/>
<polygon fill="midnightblue" stroke="midnightblue" points="1170.61,-78.0081 1160.28,-75.6545 1166.89,-83.9364 1170.61,-78.0081"/>
</g>
<!-- Node24&#45;&gt;Node5 -->
<g id="edge30" class="edge"><title>Node24&#45;&gt;Node5</title>
<path fill="none" stroke="midnightblue" d="M155.453,-224.2C148.371,-201.951 133.576,-143.021 163.5,-112 199.218,-74.9723 544.984,-68.3764 685.538,-67.2291"/>
<polygon fill="midnightblue" stroke="midnightblue" points="685.723,-70.7279 695.697,-67.1528 685.671,-63.7281 685.723,-70.7279"/>
</g>
<!-- Node24&#45;&gt;Node7 -->
<g id="edge31" class="edge"><title>Node24&#45;&gt;Node7</title>
<path fill="none" stroke="midnightblue" d="M159.913,-224.423C164.249,-199.226 178.191,-126.297 196.5,-112 249.576,-70.5544 734.361,-81.2099 801.5,-76 822.678,-74.3566 846.499,-72.0712 864.861,-70.2147"/>
<polygon fill="midnightblue" stroke="midnightblue" points="865.389,-73.679 874.981,-69.1793 864.677,-66.7154 865.389,-73.679"/>
</g>
<!-- Node25 -->
<g id="node25" class="node"><title>Node25</title>
<polygon fill="white" stroke="#bfbfbf" points="0,-168.5 0,-187.5 49,-187.5 49,-168.5 0,-168.5"/>
<text text-anchor="middle" x="24.5" y="-175.5" font-family="Helvetica,sans-Serif" font-size="10.00">cstdarg</text>
</g>
<!-- Node24&#45;&gt;Node25 -->
<g id="edge32" class="edge"><title>Node24&#45;&gt;Node25</title>
<path fill="none" stroke="midnightblue" d="M137.267,-224.444C115.116,-215.517 80.1813,-201.439 55.064,-191.317"/>
<polygon fill="midnightblue" stroke="midnightblue" points="56.2168,-188.008 45.6334,-187.516 53.6003,-194.501 56.2168,-188.008"/>
</g>
<!-- Node26 -->
<g id="node26" class="node"><title>Node26</title>
<polygon fill="white" stroke="#bfbfbf" points="67.5,-168.5 67.5,-187.5 111.5,-187.5 111.5,-168.5 67.5,-168.5"/>
<text text-anchor="middle" x="89.5" y="-175.5" font-family="Helvetica,sans-Serif" font-size="10.00">cerrno</text>
</g>
<!-- Node24&#45;&gt;Node26 -->
<g id="edge33" class="edge"><title>Node24&#45;&gt;Node26</title>
<path fill="none" stroke="midnightblue" d="M147.414,-224.324C137.014,-216.185 121.239,-203.839 108.778,-194.087"/>
<polygon fill="midnightblue" stroke="midnightblue" points="110.82,-191.241 100.788,-187.834 106.506,-196.753 110.82,-191.241"/>
</g>
<!-- Node24&#45;&gt;Node27 -->
<g id="edge34" class="edge"><title>Node24&#45;&gt;Node27</title>
<path fill="none" stroke="midnightblue" d="M180.367,-224.444C203.279,-215.478 239.475,-201.314 265.366,-191.183"/>
<polygon fill="midnightblue" stroke="midnightblue" points="266.699,-194.42 274.736,-187.516 264.148,-187.901 266.699,-194.42"/>
</g>
<!-- Node28&#45;&gt;Node13 -->
<g id="edge47" class="edge"><title>Node28&#45;&gt;Node13</title>
<path fill="none" stroke="midnightblue" d="M901.784,-225.179C944.818,-216.771 1015.29,-202.855 1085.01,-188.287"/>
<polygon fill="midnightblue" stroke="midnightblue" points="1085.77,-191.703 1094.84,-186.227 1084.33,-184.852 1085.77,-191.703"/>
</g>
<!-- Node29 -->
<g id="node29" class="node"><title>Node29</title>
<g id="a_node29"><a xlink:href="../../d1/d7e/LMS7002M_8h.html" target="_top" xlink:title="LMS7002M transceiver configuration interface. ">
<polygon fill="white" stroke="black" points="497.5,-168.5 497.5,-187.5 571.5,-187.5 571.5,-168.5 497.5,-168.5"/>
<text text-anchor="middle" x="534.5" y="-175.5" font-family="Helvetica,sans-Serif" font-size="10.00">LMS7002M.h</text>
</a>
</g>
</g>
<!-- Node28&#45;&gt;Node29 -->
<g id="edge36" class="edge"><title>Node28&#45;&gt;Node29</title>
<path fill="none" stroke="midnightblue" d="M821.403,-226.379C760.859,-216.38 646.34,-197.469 581.804,-186.812"/>
<polygon fill="midnightblue" stroke="midnightblue" points="582.328,-183.351 571.892,-185.175 581.188,-190.257 582.328,-183.351"/>
</g>
<!-- Node35 -->
<g id="node35" class="node"><title>Node35</title>
<g id="a_node35"><a xlink:href="../../d5/d07/LimeSuite_8h.html" target="_top" xlink:title="LMS API library. ">
<polygon fill="white" stroke="black" points="360,-168.5 360,-187.5 449,-187.5 449,-168.5 360,-168.5"/>
<text text-anchor="middle" x="404.5" y="-175.5" font-family="Helvetica,sans-Serif" font-size="10.00">lime/LimeSuite.h</text>
</a>
</g>
</g>
<!-- Node28&#45;&gt;Node35 -->
<g id="edge45" class="edge"><title>Node28&#45;&gt;Node35</title>
<path fill="none" stroke="midnightblue" d="M821.345,-228.255C739.26,-218.556 552.166,-196.448 459.127,-185.455"/>
<polygon fill="midnightblue" stroke="midnightblue" points="459.412,-181.964 449.07,-184.267 458.591,-188.916 459.412,-181.964"/>
</g>
<!-- Node28&#45;&gt;Node36 -->
<g id="edge48" class="edge"><title>Node28&#45;&gt;Node36</title>
<path fill="none" stroke="midnightblue" d="M861.5,-224.083C861.5,-217.006 861.5,-206.861 861.5,-197.986"/>
<polygon fill="midnightblue" stroke="midnightblue" points="865,-197.751 861.5,-187.751 858,-197.751 865,-197.751"/>
</g>
<!-- Node29&#45;&gt;Node5 -->
<g id="edge37" class="edge"><title>Node29&#45;&gt;Node5</title>
<path fill="none" stroke="midnightblue" d="M497.394,-171.34C456.471,-164.251 394.534,-150.722 380.5,-132 375.168,-124.888 374.613,-118.66 380.5,-112 400.357,-89.5375 588.005,-75.7702 685.814,-70.0617"/>
<polygon fill="midnightblue" stroke="midnightblue" points="686.067,-73.5531 695.85,-69.4859 685.666,-66.5646 686.067,-73.5531"/>
</g>
<!-- Node29&#45;&gt;Node8 -->
<g id="edge44" class="edge"><title>Node29&#45;&gt;Node8</title>
<path fill="none" stroke="midnightblue" d="M542.802,-168.463C557.406,-154.046 589.305,-125.159 622.5,-112 745.214,-63.3537 789.83,-100.544 924.382,-75.6438"/>
<polygon fill="midnightblue" stroke="midnightblue" points="925.073,-79.0751 934.228,-73.7416 923.745,-72.2022 925.073,-79.0751"/>
</g>
<!-- Node30 -->
<g id="node30" class="node"><title>Node30</title>
<g id="a_node30"><a xlink:href="../../d1/d2e/LMS7002M__parameters_8h.html" target="_top" xlink:title="List of LMS7002M transceiver control parameters. ">
<polygon fill="white" stroke="black" points="205.5,-112.5 205.5,-131.5 333.5,-131.5 333.5,-112.5 205.5,-112.5"/>
<text text-anchor="middle" x="269.5" y="-119.5" font-family="Helvetica,sans-Serif" font-size="10.00">LMS7002M_parameters.h</text>
</a>
</g>
</g>
<!-- Node29&#45;&gt;Node30 -->
<g id="edge38" class="edge"><title>Node29&#45;&gt;Node30</title>
<path fill="none" stroke="midnightblue" d="M497.374,-169.435C451.569,-160.101 373.415,-144.175 321.614,-133.619"/>
<polygon fill="midnightblue" stroke="midnightblue" points="322.12,-130.151 311.622,-131.583 320.722,-137.01 322.12,-130.151"/>
</g>
<!-- Node31 -->
<g id="node31" class="node"><title>Node31</title>
<polygon fill="white" stroke="#bfbfbf" points="389.5,-112.5 389.5,-131.5 435.5,-131.5 435.5,-112.5 389.5,-112.5"/>
<text text-anchor="middle" x="412.5" y="-119.5" font-family="Helvetica,sans-Serif" font-size="10.00">cstdint</text>
</g>
<!-- Node29&#45;&gt;Node31 -->
<g id="edge40" class="edge"><title>Node29&#45;&gt;Node31</title>
<path fill="none" stroke="midnightblue" d="M515.169,-168.444C495.18,-159.596 463.757,-145.687 440.936,-135.586"/>
<polygon fill="midnightblue" stroke="midnightblue" points="442.302,-132.363 431.741,-131.516 439.468,-138.764 442.302,-132.363"/>
</g>
<!-- Node32 -->
<g id="node32" class="node"><title>Node32</title>
<polygon fill="white" stroke="#bfbfbf" points="453.5,-112.5 453.5,-131.5 505.5,-131.5 505.5,-112.5 453.5,-112.5"/>
<text text-anchor="middle" x="479.5" y="-119.5" font-family="Helvetica,sans-Serif" font-size="10.00">sstream</text>
</g>
<!-- Node29&#45;&gt;Node32 -->
<g id="edge41" class="edge"><title>Node29&#45;&gt;Node32</title>
<path fill="none" stroke="midnightblue" d="M525.418,-168.083C517.329,-160.141 505.305,-148.335 495.59,-138.797"/>
<polygon fill="midnightblue" stroke="midnightblue" points="498.001,-136.26 488.413,-131.751 493.097,-141.254 498.001,-136.26"/>
</g>
<!-- Node33 -->
<g id="node33" class="node"><title>Node33</title>
<polygon fill="white" stroke="#bfbfbf" points="523.5,-112.5 523.5,-131.5 575.5,-131.5 575.5,-112.5 523.5,-112.5"/>
<text text-anchor="middle" x="549.5" y="-119.5" font-family="Helvetica,sans-Serif" font-size="10.00">stdarg.h</text>
</g>
<!-- Node29&#45;&gt;Node33 -->
<g id="edge42" class="edge"><title>Node29&#45;&gt;Node33</title>
<path fill="none" stroke="midnightblue" d="M536.977,-168.083C538.986,-160.849 541.886,-150.409 544.39,-141.397"/>
<polygon fill="midnightblue" stroke="midnightblue" points="547.765,-142.323 547.069,-131.751 541.02,-140.449 547.765,-142.323"/>
</g>
<!-- Node34 -->
<g id="node34" class="node"><title>Node34</title>
<polygon fill="white" stroke="#bfbfbf" points="632,-112.5 632,-131.5 691,-131.5 691,-112.5 632,-112.5"/>
<text text-anchor="middle" x="661.5" y="-119.5" font-family="Helvetica,sans-Serif" font-size="10.00">functional</text>
</g>
<!-- Node29&#45;&gt;Node34 -->
<g id="edge43" class="edge"><title>Node29&#45;&gt;Node34</title>
<path fill="none" stroke="midnightblue" d="M554.624,-168.444C575.524,-159.557 608.435,-145.563 632.216,-135.451"/>
<polygon fill="midnightblue" stroke="midnightblue" points="633.638,-138.65 641.471,-131.516 630.898,-132.208 633.638,-138.65"/>
</g>
<!-- Node30&#45;&gt;Node16 -->
<g id="edge39" class="edge"><title>Node30&#45;&gt;Node16</title>
<path fill="none" stroke="midnightblue" d="M312.355,-112.46C418.182,-91.3713 690.299,-37.1451 786.869,-17.901"/>
<polygon fill="midnightblue" stroke="midnightblue" points="787.587,-21.3269 796.71,-15.94 786.219,-14.4619 787.587,-21.3269"/>
</g>
<!-- Node35&#45;&gt;Node30 -->
<g id="edge46" class="edge"><title>Node35&#45;&gt;Node30</title>
<path fill="none" stroke="midnightblue" d="M383.109,-168.444C360.793,-159.517 325.597,-145.439 300.292,-135.317"/>
<polygon fill="midnightblue" stroke="midnightblue" points="301.376,-131.981 290.791,-131.516 298.776,-138.48 301.376,-131.981"/>
</g>
<!-- Node36&#45;&gt;Node5 -->
<g id="edge49" class="edge"><title>Node36&#45;&gt;Node5</title>
<path fill="none" stroke="midnightblue" d="M850.453,-168.364C839.33,-159.537 821.815,-145.279 807.5,-132 790.326,-116.068 771.792,-96.6521 759.305,-83.2107"/>
<polygon fill="midnightblue" stroke="midnightblue" points="761.729,-80.6771 752.377,-75.6982 756.583,-85.4224 761.729,-80.6771"/>
</g>
<!-- Node36&#45;&gt;Node6 -->
<g id="edge50" class="edge"><title>Node36&#45;&gt;Node6</title>
<path fill="none" stroke="midnightblue" d="M868.27,-168.083C874.062,-160.455 882.558,-149.264 889.638,-139.941"/>
<polygon fill="midnightblue" stroke="midnightblue" points="892.596,-141.832 895.856,-131.751 887.021,-137.599 892.596,-141.832"/>
</g>
<!-- Node36&#45;&gt;Node7 -->
<g id="edge51" class="edge"><title>Node36&#45;&gt;Node7</title>
<path fill="none" stroke="midnightblue" d="M900.142,-170.858C923.043,-165.015 950.289,-153.717 964.5,-132 978.563,-110.509 949.837,-91.0641 925.266,-79.1577"/>
<polygon fill="midnightblue" stroke="midnightblue" points="926.699,-75.9643 916.15,-74.975 923.779,-82.3265 926.699,-75.9643"/>
</g>
<!-- Node36&#45;&gt;Node8 -->
<g id="edge52" class="edge"><title>Node36&#45;&gt;Node8</title>
<path fill="none" stroke="midnightblue" d="M900.065,-173.479C927.221,-168.758 961.775,-157.729 979.5,-132 989.639,-117.283 980.129,-97.6242 970.441,-83.7933"/>
<polygon fill="midnightblue" stroke="midnightblue" points="973.092,-81.4975 964.253,-75.6564 967.52,-85.7349 973.092,-81.4975"/>
</g>
<!-- Node36&#45;&gt;Node16 -->
<g id="edge55" class="edge"><title>Node36&#45;&gt;Node16</title>
<path fill="none" stroke="midnightblue" d="M856.554,-168.328C851.723,-159.473 844.526,-145.193 840.5,-132 829.779,-96.8686 824.876,-54.0578 822.82,-29.9255"/>
<polygon fill="midnightblue" stroke="midnightblue" points="826.289,-29.3941 822.027,-19.6946 819.31,-29.9353 826.289,-29.3941"/>
</g>
<!-- Node36&#45;&gt;Node34 -->
<g id="edge54" class="edge"><title>Node36&#45;&gt;Node34</title>
<path fill="none" stroke="midnightblue" d="M829.809,-168.444C794.974,-159.038 738.954,-143.913 701.214,-133.723"/>
<polygon fill="midnightblue" stroke="midnightblue" points="701.653,-130.216 691.086,-130.988 699.828,-136.974 701.653,-130.216"/>
</g>
<!-- Node37 -->
<g id="node37" class="node"><title>Node37</title>
<polygon fill="white" stroke="#bfbfbf" points="709.5,-112.5 709.5,-131.5 755.5,-131.5 755.5,-112.5 709.5,-112.5"/>
<text text-anchor="middle" x="732.5" y="-119.5" font-family="Helvetica,sans-Serif" font-size="10.00">cstring</text>
</g>
<!-- Node36&#45;&gt;Node37 -->
<g id="edge53" class="edge"><title>Node36&#45;&gt;Node37</title>
<path fill="none" stroke="midnightblue" d="M841.06,-168.444C819.83,-159.557 786.401,-145.563 762.245,-135.451"/>
<polygon fill="midnightblue" stroke="midnightblue" points="763.421,-132.149 752.845,-131.516 760.718,-138.606 763.421,-132.149"/>
</g>
</g>
</svg>
        <g id="navigator" transform="translate(0 0)" fill="#404254">
                <rect fill="#f2f5e9" fill-opacity="0.5" stroke="#606060" stroke-width=".5" x="0" y="0" width="60" height="60"/>
                <use id="zoomplus" xlink:href="#zoomPlus" x="17" y="9" onmousedown="handleZoom(evt,'in')"/>
                <use id="zoomminus" xlink:href="#zoomMin" x="42" y="9" onmousedown="handleZoom(evt,'out')"/>
                <use id="reset" xlink:href="#resetDef" x="30" y="36" onmousedown="handleReset()"/>
                <g id="arrowUp" xlink:href="#dirArrow" transform="translate(30 24)" onmousedown="handlePan(0,-1)">
                  <use xlink:href="#rim" fill="#404040">
                        <set attributeName="fill" to="#808080" begin="arrowUp.mouseover" end="arrowUp.mouseout"/>
                  </use>
                  <path fill="none" stroke="white" stroke-width="1.5" d="M0,-3.0v7 M-2.5,-0.5L0,-3.0L2.5,-0.5"/>
                </g>
                <g id="arrowRight" xlink:href="#dirArrow" transform="rotate(90) translate(36 -43)" onmousedown="handlePan(1,0)">
                  <use xlink:href="#rim" fill="#404040">
                        <set attributeName="fill" to="#808080" begin="arrowRight.mouseover" end="arrowRight.mouseout"/>
                  </use>
                  <path fill="none" stroke="white" stroke-width="1.5" d="M0,-3.0v7 M-2.5,-0.5L0,-3.0L2.5,-0.5"/>
                </g>
                <g id="arrowDown" xlink:href="#dirArrow" transform="rotate(180) translate(-30 -48)" onmousedown="handlePan(0,1)">
                  <use xlink:href="#rim" fill="#404040">
                        <set attributeName="fill" to="#808080" begin="arrowDown.mouseover" end="arrowDown.mouseout"/>
                  </use>
                  <path fill="none" stroke="white" stroke-width="1.5" d="M0,-3.0v7 M-2.5,-0.5L0,-3.0L2.5,-0.5"/>
                </g>
                <g id="arrowLeft" xlink:href="#dirArrow" transform="rotate(270) translate(-36 17)" onmousedown="handlePan(-1,0)">
                  <use xlink:href="#rim" fill="#404040">
                        <set attributeName="fill" to="#808080" begin="arrowLeft.mouseover" end="arrowLeft.mouseout"/>
                  </use>
                  <path fill="none" stroke="white" stroke-width="1.5" d="M0,-3.0v7 M-2.5,-0.5L0,-3.0L2.5,-0.5"/>
                </g>
        </g>
        <svg viewBox="0 0 15 15" width="100%" height="30px" preserveAspectRatio="xMaxYMin meet">
         <g id="arrow_out" transform="scale(0.3 0.3)">
          <a xlink:href="Settings_8cpp__incl_org.svg" target="_base">
           <rect id="button" ry="5" rx="5" y="6" x="6" height="38" width="38"
                fill="#f2f5e9" fill-opacity="0.5" stroke="#606060" stroke-width="1.0"/>
           <path id="arrow"
             d="M 11.500037,31.436501 C 11.940474,20.09759 22.043105,11.32322 32.158766,21.979434 L 37.068811,17.246167 C 37.068811,17.246167 37.088388,32 37.088388,32 L 22.160133,31.978069 C 22.160133,31.978069 26.997745,27.140456 26.997745,27.140456 C 18.528582,18.264221 13.291696,25.230495 11.500037,31.436501 z"
             style="fill:#404040;"/>
          </a>
         </g>
        </svg>
</svg>
