<?xml version="1.0" encoding="UTF-8" standalone="no"?>
<!DOCTYPE svg PUBLIC "-//W3C//DTD SVG 1.1//EN"
 "http://www.w3.org/Graphics/SVG/1.1/DTD/svg11.dtd">
<!-- Generated by graphviz version 2.38.0 (20140413.2041)
 -->
<!-- Title: FPGAcontrols_wxgui::UploadFile Pages: 1 -->
<svg width="282pt" height="39pt"
 viewBox="0.00 0.00 282.00 39.00" xmlns="http://www.w3.org/2000/svg" xmlns:xlink="http://www.w3.org/1999/xlink">
<g id="graph0" class="graph" transform="scale(1 1) rotate(0) translate(4 35)">
<title>FPGAcontrols_wxgui::UploadFile</title>
<polygon fill="white" stroke="none" points="-4,4 -4,-35 278,-35 278,4 -4,4"/>
<!-- Node1 -->
<g id="node1" class="node"><title>Node1</title>
<polygon fill="#bfbfbf" stroke="black" points="0,-0.5 0,-30.5 109,-30.5 109,-0.5 0,-0.5"/>
<text text-anchor="start" x="8" y="-18.5" font-family="Helvetica,sans-Serif" font-size="10.00">FPGAcontrols_wxgui</text>
<text text-anchor="middle" x="54.5" y="-7.5" font-family="Helvetica,sans-Serif" font-size="10.00">::UploadFile</text>
</g>
<!-- Node2 -->
<g id="node2" class="node"><title>Node2</title>
<g id="a_node2"><a xlink:href="../../d1/d93/FPGAcontrols__wxgui_8cpp.html#addb1150a830b2d896d7929772fdf6243" target="_top" xlink:title="Reads WFM file and outputs iq sample pairs. ">
<polygon fill="white" stroke="black" points="145,-6 145,-25 209,-25 209,-6 145,-6"/>
<text text-anchor="middle" x="177" y="-13" font-family="Helvetica,sans-Serif" font-size="10.00">ReadWFM</text>
</a>
</g>
</g>
<!-- Node1&#45;&gt;Node2 -->
<g id="edge1" class="edge"><title>Node1&#45;&gt;Node2</title>
<path fill="none" stroke="midnightblue" d="M109.055,-15.5C117.629,-15.5 126.386,-15.5 134.62,-15.5"/>
<polygon fill="midnightblue" stroke="midnightblue" points="134.717,-19.0001 144.717,-15.5 134.717,-12.0001 134.717,-19.0001"/>
</g>
<!-- Node3 -->
<g id="node3" class="node"><title>Node3</title>
<g id="a_node3"><a xlink:href="../../db/d82/wglew_8h.html#a500a82aecba06f4550f6849b8099ca21" target="_top" xlink:title="int">
<polygon fill="white" stroke="black" points="245,-6 245,-25 274,-25 274,-6 245,-6"/>
<text text-anchor="middle" x="259.5" y="-13" font-family="Helvetica,sans-Serif" font-size="10.00">int</text>
</a>
</g>
</g>
<!-- Node2&#45;&gt;Node3 -->
<g id="edge2" class="edge"><title>Node2&#45;&gt;Node3</title>
<path fill="none" stroke="midnightblue" d="M209.354,-15.5C217.852,-15.5 226.907,-15.5 234.899,-15.5"/>
<polygon fill="midnightblue" stroke="midnightblue" points="234.986,-19.0001 244.986,-15.5 234.986,-12.0001 234.986,-19.0001"/>
</g>
</g>
</svg>
