<?xml version="1.0" encoding="UTF-8" standalone="no"?>
<!DOCTYPE svg PUBLIC "-//W3C//DTD SVG 1.1//EN"
 "http://www.w3.org/Graphics/SVG/1.1/DTD/svg11.dtd">
<!-- Generated by graphviz version 2.38.0 (20140413.2041)
 -->
<!-- Title: FPGAcontrols_wxgui::Initialize Pages: 1 -->
<svg width="702pt" height="560pt"
 viewBox="0.00 0.00 702.00 560.00" xmlns="http://www.w3.org/2000/svg" xmlns:xlink="http://www.w3.org/1999/xlink">
<g id="graph0" class="graph" transform="scale(1 1) rotate(0) translate(4 556)">
<title>FPGAcontrols_wxgui::Initialize</title>
<polygon fill="white" stroke="none" points="-4,4 -4,-556 698,-556 698,4 -4,4"/>
<!-- Node1 -->
<g id="node1" class="node"><title>Node1</title>
<polygon fill="#bfbfbf" stroke="black" points="0,-261 0,-291 109,-291 109,-261 0,-261"/>
<text text-anchor="start" x="8" y="-279" font-family="Helvetica,sans-Serif" font-size="10.00">FPGAcontrols_wxgui</text>
<text text-anchor="middle" x="54.5" y="-268" font-family="Helvetica,sans-Serif" font-size="10.00">::Initialize</text>
</g>
<!-- Node2 -->
<g id="node2" class="node"><title>Node2</title>
<g id="a_node2"><a xlink:href="../../df/de1/lms7__api_8cpp.html#aff8fc19d9453348757cdb2fabb9f7cfd" target="_top" xlink:title="LMS_GetNumChannels">
<polygon fill="white" stroke="black" points="145,-266.5 145,-285.5 265,-285.5 265,-266.5 145,-266.5"/>
<text text-anchor="middle" x="205" y="-273.5" font-family="Helvetica,sans-Serif" font-size="10.00">LMS_GetNumChannels</text>
</a>
</g>
</g>
<!-- Node1&#45;&gt;Node2 -->
<g id="edge1" class="edge"><title>Node1&#45;&gt;Node2</title>
<path fill="none" stroke="midnightblue" d="M109.112,-276C117.472,-276 126.211,-276 134.857,-276"/>
<polygon fill="midnightblue" stroke="midnightblue" points="134.936,-279.5 144.936,-276 134.936,-272.5 134.936,-279.5"/>
</g>
<!-- Node3 -->
<g id="node3" class="node"><title>Node3</title>
<g id="a_node3"><a xlink:href="../../d3/d22/classlime_1_1LMS7__Device.html#a18c438fe361134090c3e1071d6833c9d" target="_top" xlink:title="lime::LMS7_Device::\lGetNumChannels">
<polygon fill="white" stroke="black" points="301,-305 301,-335 409,-335 409,-305 301,-305"/>
<text text-anchor="start" x="309" y="-323" font-family="Helvetica,sans-Serif" font-size="10.00">lime::LMS7_Device::</text>
<text text-anchor="middle" x="355" y="-312" font-family="Helvetica,sans-Serif" font-size="10.00">GetNumChannels</text>
</a>
</g>
</g>
<!-- Node2&#45;&gt;Node3 -->
<g id="edge2" class="edge"><title>Node2&#45;&gt;Node3</title>
<path fill="none" stroke="midnightblue" d="M238.114,-285.547C254.331,-290.369 274.549,-296.379 293.536,-302.024"/>
<polygon fill="midnightblue" stroke="midnightblue" points="292.743,-305.44 303.326,-304.935 294.738,-298.73 292.743,-305.44"/>
</g>
<!-- Node4 -->
<g id="node4" class="node"><title>Node4</title>
<g id="a_node4"><a xlink:href="../../d4/d67/lms_8c.html#a0e01e477b1f10e0a63e54de2dd2f8240" target="_top" xlink:title="lms">
<polygon fill="white" stroke="black" points="339,-266.5 339,-285.5 371,-285.5 371,-266.5 339,-266.5"/>
<text text-anchor="middle" x="355" y="-273.5" font-family="Helvetica,sans-Serif" font-size="10.00">lms</text>
</a>
</g>
</g>
<!-- Node2&#45;&gt;Node4 -->
<g id="edge3" class="edge"><title>Node2&#45;&gt;Node4</title>
<path fill="none" stroke="midnightblue" d="M265.344,-276C287.246,-276 310.932,-276 328.307,-276"/>
<polygon fill="midnightblue" stroke="midnightblue" points="328.732,-279.5 338.732,-276 328.732,-272.5 328.732,-279.5"/>
</g>
<!-- Node24 -->
<g id="node24" class="node"><title>Node24</title>
<g id="a_node24"><a xlink:href="../../d5/d6c/namespacelime.html#adc6af0cf8e0a70f3ef09fac1244f8c48" target="_top" xlink:title="lime::ReportError">
<polygon fill="white" stroke="black" points="309.5,-114.5 309.5,-133.5 400.5,-133.5 400.5,-114.5 309.5,-114.5"/>
<text text-anchor="middle" x="355" y="-121.5" font-family="Helvetica,sans-Serif" font-size="10.00">lime::ReportError</text>
</a>
</g>
</g>
<!-- Node2&#45;&gt;Node24 -->
<g id="edge26" class="edge"><title>Node2&#45;&gt;Node24</title>
<path fill="none" stroke="midnightblue" d="M215.258,-266.492C239.76,-241.327 306.547,-172.735 337.653,-140.788"/>
<polygon fill="midnightblue" stroke="midnightblue" points="340.277,-143.111 344.745,-133.505 335.262,-138.228 340.277,-143.111"/>
</g>
<!-- Node5 -->
<g id="node5" class="node"><title>Node5</title>
<g id="a_node5"><a xlink:href="../../d4/d67/lms_8c.html#a433227191fe883dcb8aa15d291bb29a1" target="_top" xlink:title="Case1F">
<polygon fill="white" stroke="black" points="453.5,-532.5 453.5,-551.5 504.5,-551.5 504.5,-532.5 453.5,-532.5"/>
<text text-anchor="middle" x="479" y="-539.5" font-family="Helvetica,sans-Serif" font-size="10.00">Case1F</text>
</a>
</g>
</g>
<!-- Node4&#45;&gt;Node5 -->
<g id="edge4" class="edge"><title>Node4&#45;&gt;Node5</title>
<path fill="none" stroke="midnightblue" d="M371.431,-277.65C383.529,-279.794 399.807,-284.715 409,-296 473.518,-375.196 387.083,-438.856 445,-523 445.637,-523.926 446.335,-524.812 447.083,-525.661"/>
<polygon fill="midnightblue" stroke="midnightblue" points="444.991,-528.477 454.872,-532.301 449.533,-523.15 444.991,-528.477"/>
</g>
<!-- Node6 -->
<g id="node6" class="node"><title>Node6</title>
<g id="a_node6"><a xlink:href="../../d4/d67/lms_8c.html#ace0cd8bf61cb9b86b98f0cef03b5a9d9" target="_top" xlink:title="Case2F">
<polygon fill="white" stroke="black" points="453.5,-494.5 453.5,-513.5 504.5,-513.5 504.5,-494.5 453.5,-494.5"/>
<text text-anchor="middle" x="479" y="-501.5" font-family="Helvetica,sans-Serif" font-size="10.00">Case2F</text>
</a>
</g>
</g>
<!-- Node4&#45;&gt;Node6 -->
<g id="edge5" class="edge"><title>Node4&#45;&gt;Node6</title>
<path fill="none" stroke="midnightblue" d="M371.338,-277.727C383.383,-279.915 399.633,-284.859 409,-296 464.028,-361.452 395.433,-415.321 445,-485 445.754,-486.061 446.588,-487.07 447.484,-488.031"/>
<polygon fill="midnightblue" stroke="midnightblue" points="445.353,-490.81 455.301,-494.457 449.799,-485.403 445.353,-490.81"/>
</g>
<!-- Node7 -->
<g id="node7" class="node"><title>Node7</title>
<g id="a_node7"><a xlink:href="../../d4/d67/lms_8c.html#a5f53b53ccc591e3643c4af2aee2e7f32" target="_top" xlink:title="Case3F">
<polygon fill="white" stroke="black" points="453.5,-456.5 453.5,-475.5 504.5,-475.5 504.5,-456.5 453.5,-456.5"/>
<text text-anchor="middle" x="479" y="-463.5" font-family="Helvetica,sans-Serif" font-size="10.00">Case3F</text>
</a>
</g>
</g>
<!-- Node4&#45;&gt;Node7 -->
<g id="edge6" class="edge"><title>Node4&#45;&gt;Node7</title>
<path fill="none" stroke="midnightblue" d="M371.203,-277.843C383.169,-280.099 399.381,-285.076 409,-296 454.596,-347.777 403.731,-391.712 445,-447 445.779,-448.043 446.632,-449.038 447.546,-449.986"/>
<polygon fill="midnightblue" stroke="midnightblue" points="445.457,-452.798 455.437,-456.358 449.855,-447.352 445.457,-452.798"/>
</g>
<!-- Node8 -->
<g id="node8" class="node"><title>Node8</title>
<g id="a_node8"><a xlink:href="../../d4/d67/lms_8c.html#a5086763d5b258349bc13d6be7e7d0665" target="_top" xlink:title="Case4F">
<polygon fill="white" stroke="black" points="453.5,-418.5 453.5,-437.5 504.5,-437.5 504.5,-418.5 453.5,-418.5"/>
<text text-anchor="middle" x="479" y="-425.5" font-family="Helvetica,sans-Serif" font-size="10.00">Case4F</text>
</a>
</g>
</g>
<!-- Node4&#45;&gt;Node8 -->
<g id="edge7" class="edge"><title>Node4&#45;&gt;Node8</title>
<path fill="none" stroke="midnightblue" d="M371.473,-278.135C383.268,-280.544 399.116,-285.584 409,-296 445.282,-334.235 411.922,-367.962 445,-409 445.933,-410.158 446.958,-411.259 448.05,-412.305"/>
<polygon fill="midnightblue" stroke="midnightblue" points="445.93,-415.09 455.992,-418.407 450.194,-409.539 445.93,-415.09"/>
</g>
<!-- Node9 -->
<g id="node9" class="node"><title>Node9</title>
<g id="a_node9"><a xlink:href="../../db/de5/recipes_8c.html#aee25e218394217a134e805ea09fb0fe9" target="_top" xlink:title="free_ivector">
<polygon fill="white" stroke="black" points="445,-380.5 445,-399.5 513,-399.5 513,-380.5 445,-380.5"/>
<text text-anchor="middle" x="479" y="-387.5" font-family="Helvetica,sans-Serif" font-size="10.00">free_ivector</text>
</a>
</g>
</g>
<!-- Node4&#45;&gt;Node9 -->
<g id="edge8" class="edge"><title>Node4&#45;&gt;Node9</title>
<path fill="none" stroke="midnightblue" d="M371.085,-278.53C382.666,-281.156 398.416,-286.296 409,-296 436.253,-320.988 419.852,-343.895 445,-371 446.175,-372.266 447.453,-373.472 448.802,-374.616"/>
<polygon fill="midnightblue" stroke="midnightblue" points="446.889,-377.55 457.067,-380.492 450.945,-371.845 446.889,-377.55"/>
</g>
<!-- Node10 -->
<g id="node10" class="node"><title>Node10</title>
<g id="a_node10"><a xlink:href="../../db/de5/recipes_8c.html#a3e0d121b098c19c0bdc2429e5b9f1625" target="_top" xlink:title="free_matrix">
<polygon fill="white" stroke="black" points="446.5,-342.5 446.5,-361.5 511.5,-361.5 511.5,-342.5 446.5,-342.5"/>
<text text-anchor="middle" x="479" y="-349.5" font-family="Helvetica,sans-Serif" font-size="10.00">free_matrix</text>
</a>
</g>
</g>
<!-- Node4&#45;&gt;Node10 -->
<g id="edge9" class="edge"><title>Node4&#45;&gt;Node10</title>
<path fill="none" stroke="midnightblue" d="M371.06,-280.068C382.049,-283.412 397.049,-288.775 409,-296 427.32,-307.075 428.324,-314.577 445,-328 448.477,-330.798 452.241,-333.673 455.94,-336.417"/>
<polygon fill="midnightblue" stroke="midnightblue" points="454.142,-339.437 464.289,-342.484 458.257,-333.774 454.142,-339.437"/>
</g>
<!-- Node11 -->
<g id="node11" class="node"><title>Node11</title>
<g id="a_node11"><a xlink:href="../../db/de5/recipes_8c.html#a8214a52d888e820222c0382648329c0c" target="_top" xlink:title="free_vector">
<polygon fill="white" stroke="black" points="549,-285.5 549,-304.5 614,-304.5 614,-285.5 549,-285.5"/>
<text text-anchor="middle" x="581.5" y="-292.5" font-family="Helvetica,sans-Serif" font-size="10.00">free_vector</text>
</a>
</g>
</g>
<!-- Node4&#45;&gt;Node11 -->
<g id="edge10" class="edge"><title>Node4&#45;&gt;Node11</title>
<path fill="none" stroke="midnightblue" d="M371.277,-280.288C388.881,-284.989 418.76,-292.23 445,-295 476.289,-298.303 511.869,-298.154 538.716,-297.26"/>
<polygon fill="midnightblue" stroke="midnightblue" points="539.056,-300.749 548.915,-296.87 538.789,-293.754 539.056,-300.749"/>
</g>
<!-- Node12 -->
<g id="node12" class="node"><title>Node12</title>
<g id="a_node12"><a xlink:href="../../d4/d67/lms_8c.html#ad1d6c875ff429888b51dd1155f0311ad" target="_top" xlink:title="ivector">
<polygon fill="white" stroke="black" points="456,-266.5 456,-285.5 502,-285.5 502,-266.5 456,-266.5"/>
<text text-anchor="middle" x="479" y="-273.5" font-family="Helvetica,sans-Serif" font-size="10.00">ivector</text>
</a>
</g>
</g>
<!-- Node4&#45;&gt;Node12 -->
<g id="edge11" class="edge"><title>Node4&#45;&gt;Node12</title>
<path fill="none" stroke="midnightblue" d="M371.451,-276C389.995,-276 421.584,-276 445.566,-276"/>
<polygon fill="midnightblue" stroke="midnightblue" points="445.646,-279.5 455.646,-276 445.645,-272.5 445.646,-279.5"/>
</g>
<!-- Node13 -->
<g id="node13" class="node"><title>Node13</title>
<g id="a_node13"><a xlink:href="../../db/de5/recipes_8c.html#a66ff65ad0355ec1f4a7722bcdafc8cd3" target="_top" xlink:title="lubksb">
<polygon fill="white" stroke="black" points="456.5,-228.5 456.5,-247.5 501.5,-247.5 501.5,-228.5 456.5,-228.5"/>
<text text-anchor="middle" x="479" y="-235.5" font-family="Helvetica,sans-Serif" font-size="10.00">lubksb</text>
</a>
</g>
</g>
<!-- Node4&#45;&gt;Node13 -->
<g id="edge12" class="edge"><title>Node4&#45;&gt;Node13</title>
<path fill="none" stroke="midnightblue" d="M371.451,-271.187C390.19,-265.351 422.251,-255.364 446.321,-247.867"/>
<polygon fill="midnightblue" stroke="midnightblue" points="447.579,-251.141 456.085,-244.826 445.497,-244.458 447.579,-251.141"/>
</g>
<!-- Node14 -->
<g id="node14" class="node"><title>Node14</title>
<g id="a_node14"><a xlink:href="../../db/de5/recipes_8c.html#a623fec796d9d53e5e4a4d30226547da7" target="_top" xlink:title="ludcmp">
<polygon fill="white" stroke="black" points="455,-190.5 455,-209.5 503,-209.5 503,-190.5 455,-190.5"/>
<text text-anchor="middle" x="479" y="-197.5" font-family="Helvetica,sans-Serif" font-size="10.00">ludcmp</text>
</a>
</g>
</g>
<!-- Node4&#45;&gt;Node14 -->
<g id="edge13" class="edge"><title>Node4&#45;&gt;Node14</title>
<path fill="none" stroke="midnightblue" d="M370.668,-266.304C388.201,-254.786 418.5,-235.103 445,-219 447.355,-217.569 449.818,-216.1 452.292,-214.644"/>
<polygon fill="midnightblue" stroke="midnightblue" points="454.234,-217.564 461.122,-209.514 450.717,-211.511 454.234,-217.564"/>
</g>
<!-- Node17 -->
<g id="node17" class="node"><title>Node17</title>
<g id="a_node17"><a xlink:href="../../d4/d67/lms_8c.html#a37bcb1539d76b53344102435e2ab9c91" target="_top" xlink:title="matrix">
<polygon fill="white" stroke="black" points="457,-152.5 457,-171.5 501,-171.5 501,-152.5 457,-152.5"/>
<text text-anchor="middle" x="479" y="-159.5" font-family="Helvetica,sans-Serif" font-size="10.00">matrix</text>
</a>
</g>
</g>
<!-- Node4&#45;&gt;Node17 -->
<g id="edge18" class="edge"><title>Node4&#45;&gt;Node17</title>
<path fill="none" stroke="midnightblue" d="M363.306,-266.494C377.59,-248.33 410.816,-208.093 445,-181 446.768,-179.599 448.651,-178.233 450.587,-176.919"/>
<polygon fill="midnightblue" stroke="midnightblue" points="452.588,-179.796 459.221,-171.534 448.884,-173.857 452.588,-179.796"/>
</g>
<!-- Node18 -->
<g id="node18" class="node"><title>Node18</title>
<g id="a_node18"><a xlink:href="../../d8/d91/rounding_8c.html#aa8d7512cdf5bfbf811cef6a8a091c679" target="_top" xlink:title="round2csd">
<polygon fill="white" stroke="black" points="448,-114.5 448,-133.5 510,-133.5 510,-114.5 448,-114.5"/>
<text text-anchor="middle" x="479" y="-121.5" font-family="Helvetica,sans-Serif" font-size="10.00">round2csd</text>
</a>
</g>
</g>
<!-- Node4&#45;&gt;Node18 -->
<g id="edge19" class="edge"><title>Node4&#45;&gt;Node18</title>
<path fill="none" stroke="midnightblue" d="M360.567,-266.211C371.977,-242.578 403.799,-181.516 445,-143 446.295,-141.79 447.68,-140.624 449.124,-139.508"/>
<polygon fill="midnightblue" stroke="midnightblue" points="451.446,-142.164 457.787,-133.676 447.537,-136.357 451.446,-142.164"/>
</g>
<!-- Node22 -->
<g id="node22" class="node"><title>Node22</title>
<g id="a_node22"><a xlink:href="../../d8/d91/rounding_8c.html#aca2670cc0fbf948a6b9cb670047c9d5b" target="_top" xlink:title="round2int">
<polygon fill="white" stroke="black" points="451,-76.5 451,-95.5 507,-95.5 507,-76.5 451,-76.5"/>
<text text-anchor="middle" x="479" y="-83.5" font-family="Helvetica,sans-Serif" font-size="10.00">round2int</text>
</a>
</g>
</g>
<!-- Node4&#45;&gt;Node22 -->
<g id="edge23" class="edge"><title>Node4&#45;&gt;Node22</title>
<path fill="none" stroke="midnightblue" d="M358.878,-266.336C367.635,-238.304 396.37,-155.742 445,-105 446.195,-103.753 447.49,-102.563 448.852,-101.431"/>
<polygon fill="midnightblue" stroke="midnightblue" points="450.989,-104.206 457.154,-95.5906 446.961,-98.4809 450.989,-104.206"/>
</g>
<!-- Node23 -->
<g id="node23" class="node"><title>Node23</title>
<g id="a_node23"><a xlink:href="../../d4/d67/lms_8c.html#ac81ca32708341eb34b25d515d00bc748" target="_top" xlink:title="vector">
<polygon fill="white" stroke="black" points="457,-38.5 457,-57.5 501,-57.5 501,-38.5 457,-38.5"/>
<text text-anchor="middle" x="479" y="-45.5" font-family="Helvetica,sans-Serif" font-size="10.00">vector</text>
</a>
</g>
</g>
<!-- Node4&#45;&gt;Node23 -->
<g id="edge25" class="edge"><title>Node4&#45;&gt;Node23</title>
<path fill="none" stroke="midnightblue" d="M359.908,-266.353C376.142,-226.346 437.739,-75.188 445,-67 446.146,-65.7078 447.402,-64.4815 448.733,-63.3211"/>
<polygon fill="midnightblue" stroke="midnightblue" points="450.883,-66.0859 456.943,-57.3953 446.786,-60.4099 450.883,-66.0859"/>
</g>
<!-- Node14&#45;&gt;Node11 -->
<g id="edge14" class="edge"><title>Node14&#45;&gt;Node11</title>
<path fill="none" stroke="midnightblue" d="M499.186,-209.656C503.9,-212.397 508.797,-215.577 513,-219 534.243,-236.301 554.546,-260.569 567.236,-276.991"/>
<polygon fill="midnightblue" stroke="midnightblue" points="564.633,-279.352 573.46,-285.212 570.214,-275.127 564.633,-279.352"/>
</g>
<!-- Node15 -->
<g id="node15" class="node"><title>Node15</title>
<g id="a_node15"><a xlink:href="../../db/de5/recipes_8c.html#a208e98f19b2f252315399d02c0594a46" target="_top" xlink:title="nrerror">
<polygon fill="white" stroke="black" points="650,-209.5 650,-228.5 694,-228.5 694,-209.5 650,-209.5"/>
<text text-anchor="middle" x="672" y="-216.5" font-family="Helvetica,sans-Serif" font-size="10.00">nrerror</text>
</a>
</g>
</g>
<!-- Node14&#45;&gt;Node15 -->
<g id="edge15" class="edge"><title>Node14&#45;&gt;Node15</title>
<path fill="none" stroke="midnightblue" d="M503.306,-208.1C516.528,-212.267 533.486,-216.903 549,-219 579.534,-223.127 614.761,-222.564 639.488,-221.308"/>
<polygon fill="midnightblue" stroke="midnightblue" points="639.944,-224.788 649.726,-220.718 639.541,-217.799 639.944,-224.788"/>
</g>
<!-- Node16 -->
<g id="node16" class="node"><title>Node16</title>
<g id="a_node16"><a xlink:href="../../db/de5/recipes_8c.html#a5e6092211a5f7e2d6ae9282379d3c604" target="_top" xlink:title="vector">
<polygon fill="white" stroke="black" points="559.5,-190.5 559.5,-209.5 603.5,-209.5 603.5,-190.5 559.5,-190.5"/>
<text text-anchor="middle" x="581.5" y="-197.5" font-family="Helvetica,sans-Serif" font-size="10.00">vector</text>
</a>
</g>
</g>
<!-- Node14&#45;&gt;Node16 -->
<g id="edge16" class="edge"><title>Node14&#45;&gt;Node16</title>
<path fill="none" stroke="midnightblue" d="M503.057,-200C516.673,-200 534.102,-200 548.977,-200"/>
<polygon fill="midnightblue" stroke="midnightblue" points="549.265,-203.5 559.265,-200 549.265,-196.5 549.265,-203.5"/>
</g>
<!-- Node16&#45;&gt;Node15 -->
<g id="edge17" class="edge"><title>Node16&#45;&gt;Node15</title>
<path fill="none" stroke="midnightblue" d="M603.923,-204.599C614.685,-206.91 627.928,-209.753 639.796,-212.301"/>
<polygon fill="midnightblue" stroke="midnightblue" points="639.262,-215.766 649.774,-214.443 640.731,-208.922 639.262,-215.766"/>
</g>
<!-- Node19 -->
<g id="node19" class="node"><title>Node19</title>
<g id="a_node19"><a xlink:href="../../d8/d91/rounding_8c.html#a2cff6b77e73872659c44b0c99f6bd97f" target="_top" xlink:title="csd2int">
<polygon fill="white" stroke="black" points="557.5,-152.5 557.5,-171.5 605.5,-171.5 605.5,-152.5 557.5,-152.5"/>
<text text-anchor="middle" x="581.5" y="-159.5" font-family="Helvetica,sans-Serif" font-size="10.00">csd2int</text>
</a>
</g>
</g>
<!-- Node18&#45;&gt;Node19 -->
<g id="edge20" class="edge"><title>Node18&#45;&gt;Node19</title>
<path fill="none" stroke="midnightblue" d="M505.36,-133.589C518.181,-138.437 533.894,-144.378 547.631,-149.572"/>
<polygon fill="midnightblue" stroke="midnightblue" points="546.623,-152.933 557.214,-153.195 549.099,-146.385 546.623,-152.933"/>
</g>
<!-- Node20 -->
<g id="node20" class="node"><title>Node20</title>
<g id="a_node20"><a xlink:href="../../db/d82/wglew_8h.html#a500a82aecba06f4550f6849b8099ca21" target="_top" xlink:title="int">
<polygon fill="white" stroke="black" points="567,-76.5 567,-95.5 596,-95.5 596,-76.5 567,-76.5"/>
<text text-anchor="middle" x="581.5" y="-83.5" font-family="Helvetica,sans-Serif" font-size="10.00">int</text>
</a>
</g>
</g>
<!-- Node18&#45;&gt;Node20 -->
<g id="edge21" class="edge"><title>Node18&#45;&gt;Node20</title>
<path fill="none" stroke="midnightblue" d="M505.36,-114.411C521.388,-108.351 541.934,-100.582 557.49,-94.7003"/>
<polygon fill="midnightblue" stroke="midnightblue" points="558.778,-97.9552 566.894,-91.1446 556.302,-91.4076 558.778,-97.9552"/>
</g>
<!-- Node21 -->
<g id="node21" class="node"><title>Node21</title>
<g id="a_node21"><a xlink:href="../../d8/d91/rounding_8c.html#ab3a64ec72c5600bc114621e93309c8c3" target="_top" xlink:title="int2csd">
<polygon fill="white" stroke="black" points="557.5,-114.5 557.5,-133.5 605.5,-133.5 605.5,-114.5 557.5,-114.5"/>
<text text-anchor="middle" x="581.5" y="-121.5" font-family="Helvetica,sans-Serif" font-size="10.00">int2csd</text>
</a>
</g>
</g>
<!-- Node18&#45;&gt;Node21 -->
<g id="edge22" class="edge"><title>Node18&#45;&gt;Node21</title>
<path fill="none" stroke="midnightblue" d="M510.153,-124C521.87,-124 535.331,-124 547.321,-124"/>
<polygon fill="midnightblue" stroke="midnightblue" points="547.398,-127.5 557.398,-124 547.398,-120.5 547.398,-127.5"/>
</g>
<!-- Node22&#45;&gt;Node20 -->
<g id="edge24" class="edge"><title>Node22&#45;&gt;Node20</title>
<path fill="none" stroke="midnightblue" d="M507.197,-86C522.576,-86 541.634,-86 556.462,-86"/>
<polygon fill="midnightblue" stroke="midnightblue" points="556.846,-89.5001 566.846,-86 556.846,-82.5001 556.846,-89.5001"/>
</g>
<!-- Node25 -->
<g id="node25" class="node"><title>Node25</title>
<g id="a_node25"><a xlink:href="../../d9/df5/Logger_8cpp.html#ada38bf01d6d691de953ed69268ea6516" target="_top" xlink:title="errToStr">
<polygon fill="white" stroke="black" points="453,-0.5 453,-19.5 505,-19.5 505,-0.5 453,-0.5"/>
<text text-anchor="middle" x="479" y="-7.5" font-family="Helvetica,sans-Serif" font-size="10.00">errToStr</text>
</a>
</g>
</g>
<!-- Node24&#45;&gt;Node25 -->
<g id="edge27" class="edge"><title>Node24&#45;&gt;Node25</title>
<path fill="none" stroke="midnightblue" d="M363.306,-114.494C377.59,-96.3305 410.816,-56.0931 445,-29 446.768,-27.5987 448.651,-26.2334 450.587,-24.9194"/>
<polygon fill="midnightblue" stroke="midnightblue" points="452.588,-27.7962 459.221,-19.5343 448.884,-21.8567 452.588,-27.7962"/>
</g>
</g>
</svg>
