<?xml version="1.0" encoding="UTF-8" standalone="no"?>
<!DOCTYPE svg PUBLIC "-//W3C//DTD SVG 1.1//EN"
 "http://www.w3.org/Graphics/SVG/1.1/DTD/svg11.dtd">
<!-- Generated by graphviz version 2.38.0 (20140413.2041)
 -->
<!-- Title: FPGAcontrols_wxgui::OnbtnPlayWFMClick Pages: 1 -->
<svg width="841pt" height="598pt"
 viewBox="0.00 0.00 841.00 598.00" xmlns="http://www.w3.org/2000/svg" xmlns:xlink="http://www.w3.org/1999/xlink">
<g id="graph0" class="graph" transform="scale(1 1) rotate(0) translate(4 594)">
<title>FPGAcontrols_wxgui::OnbtnPlayWFMClick</title>
<polygon fill="white" stroke="none" points="-4,4 -4,-594 837,-594 837,4 -4,4"/>
<!-- Node1 -->
<g id="node1" class="node"><title>Node1</title>
<polygon fill="#bfbfbf" stroke="black" points="0,-261 0,-291 115,-291 115,-261 0,-261"/>
<text text-anchor="start" x="8" y="-279" font-family="Helvetica,sans-Serif" font-size="10.00">FPGAcontrols_wxgui</text>
<text text-anchor="middle" x="57.5" y="-268" font-family="Helvetica,sans-Serif" font-size="10.00">::OnbtnPlayWFMClick</text>
</g>
<!-- Node2 -->
<g id="node2" class="node"><title>Node2</title>
<g id="a_node2"><a xlink:href="../../df/de1/lms7__api_8cpp.html#abd52e9c4a89706ff53c3c59894f1b932" target="_top" xlink:title="LMS_EnableTxWFM">
<polygon fill="white" stroke="black" points="151,-266.5 151,-285.5 258,-285.5 258,-266.5 151,-266.5"/>
<text text-anchor="middle" x="204.5" y="-273.5" font-family="Helvetica,sans-Serif" font-size="10.00">LMS_EnableTxWFM</text>
</a>
</g>
</g>
<!-- Node1&#45;&gt;Node2 -->
<g id="edge1" class="edge"><title>Node1&#45;&gt;Node2</title>
<path fill="none" stroke="midnightblue" d="M115.392,-276C123.627,-276 132.144,-276 140.491,-276"/>
<polygon fill="midnightblue" stroke="midnightblue" points="140.557,-279.5 150.557,-276 140.557,-272.5 140.557,-279.5"/>
</g>
<!-- Node3 -->
<g id="node3" class="node"><title>Node3</title>
<g id="a_node3"><a xlink:href="../../df/de1/lms7__api_8cpp.html#a9732243494479ad720f1b4d8cc12c3f7" target="_top" xlink:title="LMS_ReadFPGAReg">
<polygon fill="white" stroke="black" points="294,-285.5 294,-304.5 404,-304.5 404,-285.5 294,-285.5"/>
<text text-anchor="middle" x="349" y="-292.5" font-family="Helvetica,sans-Serif" font-size="10.00">LMS_ReadFPGAReg</text>
</a>
</g>
</g>
<!-- Node2&#45;&gt;Node3 -->
<g id="edge2" class="edge"><title>Node2&#45;&gt;Node3</title>
<path fill="none" stroke="midnightblue" d="M258.157,-283.021C266.477,-284.13 275.16,-285.288 283.709,-286.428"/>
<polygon fill="midnightblue" stroke="midnightblue" points="283.277,-289.901 293.652,-287.754 284.202,-282.963 283.277,-289.901"/>
</g>
<!-- Node27 -->
<g id="node27" class="node"><title>Node27</title>
<g id="a_node27"><a xlink:href="../../df/de1/lms7__api_8cpp.html#a00772bc179a978aa279a6ce238a24c18" target="_top" xlink:title="LMS_WriteFPGAReg">
<polygon fill="white" stroke="black" points="294,-247.5 294,-266.5 404,-266.5 404,-247.5 294,-247.5"/>
<text text-anchor="middle" x="349" y="-254.5" font-family="Helvetica,sans-Serif" font-size="10.00">LMS_WriteFPGAReg</text>
</a>
</g>
</g>
<!-- Node2&#45;&gt;Node27 -->
<g id="edge29" class="edge"><title>Node2&#45;&gt;Node27</title>
<path fill="none" stroke="midnightblue" d="M258.157,-268.979C266.477,-267.87 275.16,-266.712 283.709,-265.572"/>
<polygon fill="midnightblue" stroke="midnightblue" points="284.202,-269.037 293.652,-264.246 283.277,-262.099 284.202,-269.037"/>
</g>
<!-- Node4 -->
<g id="node4" class="node"><title>Node4</title>
<g id="a_node4"><a xlink:href="../../d3/d22/classlime_1_1LMS7__Device.html#a4fb66a6ab68f16a0b6506329b05a08b2" target="_top" xlink:title="lime::LMS7_Device::\lGetConnection">
<polygon fill="white" stroke="black" points="440,-305 440,-335 548,-335 548,-305 440,-305"/>
<text text-anchor="start" x="448" y="-323" font-family="Helvetica,sans-Serif" font-size="10.00">lime::LMS7_Device::</text>
<text text-anchor="middle" x="494" y="-312" font-family="Helvetica,sans-Serif" font-size="10.00">GetConnection</text>
</a>
</g>
</g>
<!-- Node3&#45;&gt;Node4 -->
<g id="edge3" class="edge"><title>Node3&#45;&gt;Node4</title>
<path fill="none" stroke="midnightblue" d="M404.062,-304.451C412.476,-305.922 421.232,-307.453 429.826,-308.956"/>
<polygon fill="midnightblue" stroke="midnightblue" points="429.356,-312.426 439.809,-310.701 430.561,-305.531 429.356,-312.426"/>
</g>
<!-- Node5 -->
<g id="node5" class="node"><title>Node5</title>
<g id="a_node5"><a xlink:href="../../d4/d67/lms_8c.html#a0e01e477b1f10e0a63e54de2dd2f8240" target="_top" xlink:title="lms">
<polygon fill="white" stroke="black" points="478,-266.5 478,-285.5 510,-285.5 510,-266.5 478,-266.5"/>
<text text-anchor="middle" x="494" y="-273.5" font-family="Helvetica,sans-Serif" font-size="10.00">lms</text>
</a>
</g>
</g>
<!-- Node3&#45;&gt;Node5 -->
<g id="edge4" class="edge"><title>Node3&#45;&gt;Node5</title>
<path fill="none" stroke="midnightblue" d="M404.062,-287.817C425.939,-284.91 450.134,-281.695 467.759,-279.354"/>
<polygon fill="midnightblue" stroke="midnightblue" points="468.353,-282.806 477.804,-278.019 467.431,-275.867 468.353,-282.806"/>
</g>
<!-- Node25 -->
<g id="node25" class="node"><title>Node25</title>
<g id="a_node25"><a xlink:href="../../d5/d6c/namespacelime.html#adc6af0cf8e0a70f3ef09fac1244f8c48" target="_top" xlink:title="lime::ReportError">
<polygon fill="white" stroke="black" points="448.5,-228.5 448.5,-247.5 539.5,-247.5 539.5,-228.5 448.5,-228.5"/>
<text text-anchor="middle" x="494" y="-235.5" font-family="Helvetica,sans-Serif" font-size="10.00">lime::ReportError</text>
</a>
</g>
</g>
<!-- Node3&#45;&gt;Node25 -->
<g id="edge27" class="edge"><title>Node3&#45;&gt;Node25</title>
<path fill="none" stroke="midnightblue" d="M379.732,-285.421C387.706,-282.614 396.259,-279.383 404,-276 420.578,-268.756 423.443,-264.293 440,-257 444.688,-254.935 449.678,-252.919 454.649,-251.019"/>
<polygon fill="midnightblue" stroke="midnightblue" points="455.936,-254.275 464.103,-247.525 453.509,-247.709 455.936,-254.275"/>
</g>
<!-- Node6 -->
<g id="node6" class="node"><title>Node6</title>
<g id="a_node6"><a xlink:href="../../d4/d67/lms_8c.html#a433227191fe883dcb8aa15d291bb29a1" target="_top" xlink:title="Case1F">
<polygon fill="white" stroke="black" points="592.5,-418.5 592.5,-437.5 643.5,-437.5 643.5,-418.5 592.5,-418.5"/>
<text text-anchor="middle" x="618" y="-425.5" font-family="Helvetica,sans-Serif" font-size="10.00">Case1F</text>
</a>
</g>
</g>
<!-- Node5&#45;&gt;Node6 -->
<g id="edge5" class="edge"><title>Node5&#45;&gt;Node6</title>
<path fill="none" stroke="midnightblue" d="M510.466,-277.814C522.257,-279.983 538.104,-284.717 548,-295 584.844,-333.284 550.709,-367.59 584,-409 584.932,-410.159 585.955,-411.262 587.046,-412.308"/>
<polygon fill="midnightblue" stroke="midnightblue" points="584.924,-415.091 594.985,-418.413 589.191,-409.542 584.924,-415.091"/>
</g>
<!-- Node7 -->
<g id="node7" class="node"><title>Node7</title>
<g id="a_node7"><a xlink:href="../../d4/d67/lms_8c.html#ace0cd8bf61cb9b86b98f0cef03b5a9d9" target="_top" xlink:title="Case2F">
<polygon fill="white" stroke="black" points="592.5,-380.5 592.5,-399.5 643.5,-399.5 643.5,-380.5 592.5,-380.5"/>
<text text-anchor="middle" x="618" y="-387.5" font-family="Helvetica,sans-Serif" font-size="10.00">Case2F</text>
</a>
</g>
</g>
<!-- Node5&#45;&gt;Node7 -->
<g id="edge6" class="edge"><title>Node5&#45;&gt;Node7</title>
<path fill="none" stroke="midnightblue" d="M510.09,-278.201C521.674,-280.584 537.426,-285.416 548,-295 575.693,-320.1 558.65,-343.535 584,-371 585.037,-372.123 586.156,-373.199 587.333,-374.226"/>
<polygon fill="midnightblue" stroke="midnightblue" points="585.558,-377.262 595.709,-380.296 589.666,-371.594 585.558,-377.262"/>
</g>
<!-- Node8 -->
<g id="node8" class="node"><title>Node8</title>
<g id="a_node8"><a xlink:href="../../d4/d67/lms_8c.html#a5f53b53ccc591e3643c4af2aee2e7f32" target="_top" xlink:title="Case3F">
<polygon fill="white" stroke="black" points="592.5,-342.5 592.5,-361.5 643.5,-361.5 643.5,-342.5 592.5,-342.5"/>
<text text-anchor="middle" x="618" y="-349.5" font-family="Helvetica,sans-Serif" font-size="10.00">Case3F</text>
</a>
</g>
</g>
<!-- Node5&#45;&gt;Node8 -->
<g id="edge7" class="edge"><title>Node5&#45;&gt;Node8</title>
<path fill="none" stroke="midnightblue" d="M510.255,-279.434C521.341,-282.397 536.377,-287.413 548,-295 567.481,-307.717 565.727,-318.6 584,-333 585.772,-334.396 587.658,-335.758 589.596,-337.069"/>
<polygon fill="midnightblue" stroke="midnightblue" points="587.895,-340.134 598.234,-342.449 591.596,-334.192 587.895,-340.134"/>
</g>
<!-- Node9 -->
<g id="node9" class="node"><title>Node9</title>
<g id="a_node9"><a xlink:href="../../d4/d67/lms_8c.html#a5086763d5b258349bc13d6be7e7d0665" target="_top" xlink:title="Case4F">
<polygon fill="white" stroke="black" points="592.5,-304.5 592.5,-323.5 643.5,-323.5 643.5,-304.5 592.5,-304.5"/>
<text text-anchor="middle" x="618" y="-311.5" font-family="Helvetica,sans-Serif" font-size="10.00">Case4F</text>
</a>
</g>
</g>
<!-- Node5&#45;&gt;Node9 -->
<g id="edge8" class="edge"><title>Node5&#45;&gt;Node9</title>
<path fill="none" stroke="midnightblue" d="M510.451,-280.813C528.517,-286.44 558.965,-295.923 582.697,-303.315"/>
<polygon fill="midnightblue" stroke="midnightblue" points="581.812,-306.706 592.401,-306.338 583.894,-300.022 581.812,-306.706"/>
</g>
<!-- Node10 -->
<g id="node10" class="node"><title>Node10</title>
<g id="a_node10"><a xlink:href="../../db/de5/recipes_8c.html#aee25e218394217a134e805ea09fb0fe9" target="_top" xlink:title="free_ivector">
<polygon fill="white" stroke="black" points="584,-266.5 584,-285.5 652,-285.5 652,-266.5 584,-266.5"/>
<text text-anchor="middle" x="618" y="-273.5" font-family="Helvetica,sans-Serif" font-size="10.00">free_ivector</text>
</a>
</g>
</g>
<!-- Node5&#45;&gt;Node10 -->
<g id="edge9" class="edge"><title>Node5&#45;&gt;Node10</title>
<path fill="none" stroke="midnightblue" d="M510.451,-276C526.282,-276 551.622,-276 573.618,-276"/>
<polygon fill="midnightblue" stroke="midnightblue" points="573.766,-279.5 583.766,-276 573.766,-272.5 573.766,-279.5"/>
</g>
<!-- Node11 -->
<g id="node11" class="node"><title>Node11</title>
<g id="a_node11"><a xlink:href="../../db/de5/recipes_8c.html#a3e0d121b098c19c0bdc2429e5b9f1625" target="_top" xlink:title="free_matrix">
<polygon fill="white" stroke="black" points="585.5,-228.5 585.5,-247.5 650.5,-247.5 650.5,-228.5 585.5,-228.5"/>
<text text-anchor="middle" x="618" y="-235.5" font-family="Helvetica,sans-Serif" font-size="10.00">free_matrix</text>
</a>
</g>
</g>
<!-- Node5&#45;&gt;Node11 -->
<g id="edge10" class="edge"><title>Node5&#45;&gt;Node11</title>
<path fill="none" stroke="midnightblue" d="M510.451,-271.187C526.984,-266.038 553.887,-257.658 576.523,-250.608"/>
<polygon fill="midnightblue" stroke="midnightblue" points="577.737,-253.895 586.244,-247.58 575.655,-247.212 577.737,-253.895"/>
</g>
<!-- Node12 -->
<g id="node12" class="node"><title>Node12</title>
<g id="a_node12"><a xlink:href="../../db/de5/recipes_8c.html#a8214a52d888e820222c0382648329c0c" target="_top" xlink:title="free_vector">
<polygon fill="white" stroke="black" points="688,-190.5 688,-209.5 753,-209.5 753,-190.5 688,-190.5"/>
<text text-anchor="middle" x="720.5" y="-197.5" font-family="Helvetica,sans-Serif" font-size="10.00">free_vector</text>
</a>
</g>
</g>
<!-- Node5&#45;&gt;Node12 -->
<g id="edge11" class="edge"><title>Node5&#45;&gt;Node12</title>
<path fill="none" stroke="midnightblue" d="M510.255,-272.566C521.341,-269.603 536.377,-264.587 548,-257 567.481,-244.283 563.32,-229.658 584,-219 612.927,-204.092 649.699,-199.698 677.635,-198.835"/>
<polygon fill="midnightblue" stroke="midnightblue" points="677.934,-202.331 687.874,-198.663 677.816,-195.332 677.934,-202.331"/>
</g>
<!-- Node13 -->
<g id="node13" class="node"><title>Node13</title>
<g id="a_node13"><a xlink:href="../../d4/d67/lms_8c.html#ad1d6c875ff429888b51dd1155f0311ad" target="_top" xlink:title="ivector">
<polygon fill="white" stroke="black" points="595,-114.5 595,-133.5 641,-133.5 641,-114.5 595,-114.5"/>
<text text-anchor="middle" x="618" y="-121.5" font-family="Helvetica,sans-Serif" font-size="10.00">ivector</text>
</a>
</g>
</g>
<!-- Node5&#45;&gt;Node13 -->
<g id="edge12" class="edge"><title>Node5&#45;&gt;Node13</title>
<path fill="none" stroke="midnightblue" d="M510.466,-274.186C522.257,-272.017 538.104,-267.283 548,-257 584.844,-218.716 550.709,-184.41 584,-143 584.932,-141.841 585.955,-140.738 587.046,-139.692"/>
<polygon fill="midnightblue" stroke="midnightblue" points="589.191,-142.458 594.985,-133.587 584.924,-136.909 589.191,-142.458"/>
</g>
<!-- Node14 -->
<g id="node14" class="node"><title>Node14</title>
<g id="a_node14"><a xlink:href="../../db/de5/recipes_8c.html#a66ff65ad0355ec1f4a7722bcdafc8cd3" target="_top" xlink:title="lubksb">
<polygon fill="white" stroke="black" points="595.5,-76.5 595.5,-95.5 640.5,-95.5 640.5,-76.5 595.5,-76.5"/>
<text text-anchor="middle" x="618" y="-83.5" font-family="Helvetica,sans-Serif" font-size="10.00">lubksb</text>
</a>
</g>
</g>
<!-- Node5&#45;&gt;Node14 -->
<g id="edge13" class="edge"><title>Node5&#45;&gt;Node14</title>
<path fill="none" stroke="midnightblue" d="M510.191,-274.467C522.15,-272.45 538.357,-267.784 548,-257 594.275,-205.247 542.514,-160.665 584,-105 585.032,-103.615 586.197,-102.315 587.457,-101.097"/>
<polygon fill="midnightblue" stroke="midnightblue" points="589.626,-103.845 595.451,-94.9956 585.379,-98.2806 589.626,-103.845"/>
</g>
<!-- Node15 -->
<g id="node15" class="node"><title>Node15</title>
<g id="a_node15"><a xlink:href="../../db/de5/recipes_8c.html#a623fec796d9d53e5e4a4d30226547da7" target="_top" xlink:title="ludcmp">
<polygon fill="white" stroke="black" points="594,-152.5 594,-171.5 642,-171.5 642,-152.5 594,-152.5"/>
<text text-anchor="middle" x="618" y="-159.5" font-family="Helvetica,sans-Serif" font-size="10.00">ludcmp</text>
</a>
</g>
</g>
<!-- Node5&#45;&gt;Node15 -->
<g id="edge14" class="edge"><title>Node5&#45;&gt;Node15</title>
<path fill="none" stroke="midnightblue" d="M510.019,-273.72C521.564,-271.293 537.298,-266.441 548,-257 574.532,-233.595 561.055,-212.931 584,-186 586.489,-183.078 589.404,-180.318 592.451,-177.782"/>
<polygon fill="midnightblue" stroke="midnightblue" points="594.738,-180.441 600.629,-171.635 590.532,-174.845 594.738,-180.441"/>
</g>
<!-- Node18 -->
<g id="node18" class="node"><title>Node18</title>
<g id="a_node18"><a xlink:href="../../d4/d67/lms_8c.html#a37bcb1539d76b53344102435e2ab9c91" target="_top" xlink:title="matrix">
<polygon fill="white" stroke="black" points="596,-38.5 596,-57.5 640,-57.5 640,-38.5 596,-38.5"/>
<text text-anchor="middle" x="618" y="-45.5" font-family="Helvetica,sans-Serif" font-size="10.00">matrix</text>
</a>
</g>
</g>
<!-- Node5&#45;&gt;Node18 -->
<g id="edge19" class="edge"><title>Node5&#45;&gt;Node18</title>
<path fill="none" stroke="midnightblue" d="M510.323,-274.582C522.358,-272.632 538.604,-268 548,-257 603.822,-191.649 534.214,-137.059 584,-67 585.149,-65.3834 586.482,-63.8847 587.939,-62.4985"/>
<polygon fill="midnightblue" stroke="midnightblue" points="590.08,-65.2683 595.998,-56.4803 585.891,-59.6598 590.08,-65.2683"/>
</g>
<!-- Node19 -->
<g id="node19" class="node"><title>Node19</title>
<g id="a_node19"><a xlink:href="../../d8/d91/rounding_8c.html#aa8d7512cdf5bfbf811cef6a8a091c679" target="_top" xlink:title="round2csd">
<polygon fill="white" stroke="black" points="587,-532.5 587,-551.5 649,-551.5 649,-532.5 587,-532.5"/>
<text text-anchor="middle" x="618" y="-539.5" font-family="Helvetica,sans-Serif" font-size="10.00">round2csd</text>
</a>
</g>
</g>
<!-- Node5&#45;&gt;Node19 -->
<g id="edge20" class="edge"><title>Node5&#45;&gt;Node19</title>
<path fill="none" stroke="midnightblue" d="M510.413,-277.342C522.501,-279.248 538.774,-283.857 548,-295 613.427,-374.017 525.863,-438.475 584,-523 584.637,-523.926 585.335,-524.813 586.083,-525.661"/>
<polygon fill="midnightblue" stroke="midnightblue" points="583.99,-528.477 593.87,-532.302 588.532,-523.15 583.99,-528.477"/>
</g>
<!-- Node23 -->
<g id="node23" class="node"><title>Node23</title>
<g id="a_node23"><a xlink:href="../../d8/d91/rounding_8c.html#aca2670cc0fbf948a6b9cb670047c9d5b" target="_top" xlink:title="round2int">
<polygon fill="white" stroke="black" points="590,-494.5 590,-513.5 646,-513.5 646,-494.5 590,-494.5"/>
<text text-anchor="middle" x="618" y="-501.5" font-family="Helvetica,sans-Serif" font-size="10.00">round2int</text>
</a>
</g>
</g>
<!-- Node5&#45;&gt;Node23 -->
<g id="edge24" class="edge"><title>Node5&#45;&gt;Node23</title>
<path fill="none" stroke="midnightblue" d="M510.323,-277.418C522.358,-279.368 538.604,-284 548,-295 603.822,-360.351 534.214,-414.941 584,-485 584.754,-486.061 585.587,-487.071 586.483,-488.032"/>
<polygon fill="midnightblue" stroke="midnightblue" points="584.351,-490.81 594.298,-494.459 588.797,-485.404 584.351,-490.81"/>
</g>
<!-- Node24 -->
<g id="node24" class="node"><title>Node24</title>
<g id="a_node24"><a xlink:href="../../d4/d67/lms_8c.html#ac81ca32708341eb34b25d515d00bc748" target="_top" xlink:title="vector">
<polygon fill="white" stroke="black" points="596,-456.5 596,-475.5 640,-475.5 640,-456.5 596,-456.5"/>
<text text-anchor="middle" x="618" y="-463.5" font-family="Helvetica,sans-Serif" font-size="10.00">vector</text>
</a>
</g>
</g>
<!-- Node5&#45;&gt;Node24 -->
<g id="edge26" class="edge"><title>Node5&#45;&gt;Node24</title>
<path fill="none" stroke="midnightblue" d="M510.191,-277.533C522.15,-279.55 538.357,-284.216 548,-295 594.275,-346.753 542.514,-391.335 584,-447 585.059,-448.421 586.259,-449.753 587.557,-450.999"/>
<polygon fill="midnightblue" stroke="midnightblue" points="585.702,-453.984 595.793,-457.213 589.919,-448.396 585.702,-453.984"/>
</g>
<!-- Node15&#45;&gt;Node12 -->
<g id="edge15" class="edge"><title>Node15&#45;&gt;Node12</title>
<path fill="none" stroke="midnightblue" d="M642.057,-170.718C654.676,-175.489 670.569,-181.499 684.668,-186.83"/>
<polygon fill="midnightblue" stroke="midnightblue" points="683.489,-190.126 694.081,-190.389 685.965,-183.578 683.489,-190.126"/>
</g>
<!-- Node16 -->
<g id="node16" class="node"><title>Node16</title>
<g id="a_node16"><a xlink:href="../../db/de5/recipes_8c.html#a208e98f19b2f252315399d02c0594a46" target="_top" xlink:title="nrerror">
<polygon fill="white" stroke="black" points="789,-133.5 789,-152.5 833,-152.5 833,-133.5 789,-133.5"/>
<text text-anchor="middle" x="811" y="-140.5" font-family="Helvetica,sans-Serif" font-size="10.00">nrerror</text>
</a>
</g>
</g>
<!-- Node15&#45;&gt;Node16 -->
<g id="edge16" class="edge"><title>Node15&#45;&gt;Node16</title>
<path fill="none" stroke="midnightblue" d="M642.039,-159.708C676.23,-156.307 740.482,-149.915 778.842,-146.1"/>
<polygon fill="midnightblue" stroke="midnightblue" points="779.324,-149.569 788.928,-145.096 778.631,-142.603 779.324,-149.569"/>
</g>
<!-- Node17 -->
<g id="node17" class="node"><title>Node17</title>
<g id="a_node17"><a xlink:href="../../db/de5/recipes_8c.html#a5e6092211a5f7e2d6ae9282379d3c604" target="_top" xlink:title="vector">
<polygon fill="white" stroke="black" points="698.5,-114.5 698.5,-133.5 742.5,-133.5 742.5,-114.5 698.5,-114.5"/>
<text text-anchor="middle" x="720.5" y="-121.5" font-family="Helvetica,sans-Serif" font-size="10.00">vector</text>
</a>
</g>
</g>
<!-- Node15&#45;&gt;Node17 -->
<g id="edge17" class="edge"><title>Node15&#45;&gt;Node17</title>
<path fill="none" stroke="midnightblue" d="M642.057,-153.282C655.938,-148.033 673.781,-141.287 688.84,-135.593"/>
<polygon fill="midnightblue" stroke="midnightblue" points="690.149,-138.84 698.265,-132.029 687.674,-132.292 690.149,-138.84"/>
</g>
<!-- Node17&#45;&gt;Node16 -->
<g id="edge18" class="edge"><title>Node17&#45;&gt;Node16</title>
<path fill="none" stroke="midnightblue" d="M742.923,-128.599C753.685,-130.91 766.928,-133.753 778.796,-136.301"/>
<polygon fill="midnightblue" stroke="midnightblue" points="778.262,-139.766 788.774,-138.443 779.731,-132.922 778.262,-139.766"/>
</g>
<!-- Node20 -->
<g id="node20" class="node"><title>Node20</title>
<g id="a_node20"><a xlink:href="../../d8/d91/rounding_8c.html#a2cff6b77e73872659c44b0c99f6bd97f" target="_top" xlink:title="csd2int">
<polygon fill="white" stroke="black" points="696.5,-532.5 696.5,-551.5 744.5,-551.5 744.5,-532.5 696.5,-532.5"/>
<text text-anchor="middle" x="720.5" y="-539.5" font-family="Helvetica,sans-Serif" font-size="10.00">csd2int</text>
</a>
</g>
</g>
<!-- Node19&#45;&gt;Node20 -->
<g id="edge21" class="edge"><title>Node19&#45;&gt;Node20</title>
<path fill="none" stroke="midnightblue" d="M649.153,-542C660.87,-542 674.331,-542 686.321,-542"/>
<polygon fill="midnightblue" stroke="midnightblue" points="686.398,-545.5 696.398,-542 686.398,-538.5 686.398,-545.5"/>
</g>
<!-- Node21 -->
<g id="node21" class="node"><title>Node21</title>
<g id="a_node21"><a xlink:href="../../db/d82/wglew_8h.html#a500a82aecba06f4550f6849b8099ca21" target="_top" xlink:title="int">
<polygon fill="white" stroke="black" points="706,-494.5 706,-513.5 735,-513.5 735,-494.5 706,-494.5"/>
<text text-anchor="middle" x="720.5" y="-501.5" font-family="Helvetica,sans-Serif" font-size="10.00">int</text>
</a>
</g>
</g>
<!-- Node19&#45;&gt;Node21 -->
<g id="edge22" class="edge"><title>Node19&#45;&gt;Node21</title>
<path fill="none" stroke="midnightblue" d="M644.36,-532.411C660.388,-526.351 680.934,-518.582 696.49,-512.7"/>
<polygon fill="midnightblue" stroke="midnightblue" points="697.778,-515.955 705.894,-509.145 695.302,-509.408 697.778,-515.955"/>
</g>
<!-- Node22 -->
<g id="node22" class="node"><title>Node22</title>
<g id="a_node22"><a xlink:href="../../d8/d91/rounding_8c.html#ab3a64ec72c5600bc114621e93309c8c3" target="_top" xlink:title="int2csd">
<polygon fill="white" stroke="black" points="696.5,-570.5 696.5,-589.5 744.5,-589.5 744.5,-570.5 696.5,-570.5"/>
<text text-anchor="middle" x="720.5" y="-577.5" font-family="Helvetica,sans-Serif" font-size="10.00">int2csd</text>
</a>
</g>
</g>
<!-- Node19&#45;&gt;Node22 -->
<g id="edge23" class="edge"><title>Node19&#45;&gt;Node22</title>
<path fill="none" stroke="midnightblue" d="M644.36,-551.589C657.181,-556.437 672.894,-562.378 686.631,-567.572"/>
<polygon fill="midnightblue" stroke="midnightblue" points="685.623,-570.933 696.214,-571.195 688.099,-564.385 685.623,-570.933"/>
</g>
<!-- Node23&#45;&gt;Node21 -->
<g id="edge25" class="edge"><title>Node23&#45;&gt;Node21</title>
<path fill="none" stroke="midnightblue" d="M646.197,-504C661.576,-504 680.634,-504 695.462,-504"/>
<polygon fill="midnightblue" stroke="midnightblue" points="695.846,-507.5 705.846,-504 695.846,-500.5 695.846,-507.5"/>
</g>
<!-- Node26 -->
<g id="node26" class="node"><title>Node26</title>
<g id="a_node26"><a xlink:href="../../d9/df5/Logger_8cpp.html#ada38bf01d6d691de953ed69268ea6516" target="_top" xlink:title="errToStr">
<polygon fill="white" stroke="black" points="592,-0.5 592,-19.5 644,-19.5 644,-0.5 592,-0.5"/>
<text text-anchor="middle" x="618" y="-7.5" font-family="Helvetica,sans-Serif" font-size="10.00">errToStr</text>
</a>
</g>
</g>
<!-- Node25&#45;&gt;Node26 -->
<g id="edge28" class="edge"><title>Node25&#45;&gt;Node26</title>
<path fill="none" stroke="midnightblue" d="M496.879,-228.068C503.434,-195.766 528.003,-92.1435 584,-29 585.014,-27.8562 586.115,-26.764 587.277,-25.7234"/>
<polygon fill="midnightblue" stroke="midnightblue" points="589.616,-28.3484 595.6,-19.6052 585.47,-22.7084 589.616,-28.3484"/>
</g>
<!-- Node27&#45;&gt;Node4 -->
<g id="edge30" class="edge"><title>Node27&#45;&gt;Node4</title>
<path fill="none" stroke="midnightblue" d="M379.732,-266.579C387.706,-269.386 396.259,-272.617 404,-276 420.578,-283.244 423.815,-286.917 440,-295 443.584,-296.79 447.319,-298.621 451.074,-300.437"/>
<polygon fill="midnightblue" stroke="midnightblue" points="449.844,-303.729 460.375,-304.893 452.869,-297.416 449.844,-303.729"/>
</g>
<!-- Node27&#45;&gt;Node5 -->
<g id="edge31" class="edge"><title>Node27&#45;&gt;Node5</title>
<path fill="none" stroke="midnightblue" d="M404.062,-264.183C425.939,-267.09 450.134,-270.305 467.759,-272.646"/>
<polygon fill="midnightblue" stroke="midnightblue" points="467.431,-276.133 477.804,-273.981 468.353,-269.194 467.431,-276.133"/>
</g>
<!-- Node27&#45;&gt;Node25 -->
<g id="edge32" class="edge"><title>Node27&#45;&gt;Node25</title>
<path fill="none" stroke="midnightblue" d="M404.062,-249.817C415.204,-248.336 426.948,-246.776 438.119,-245.292"/>
<polygon fill="midnightblue" stroke="midnightblue" points="438.731,-248.741 448.183,-243.955 437.809,-241.802 438.731,-248.741"/>
</g>
</g>
</svg>
