<?xml version="1.0" encoding="UTF-8" standalone="no"?>
<!DOCTYPE svg PUBLIC "-//W3C//DTD SVG 1.1//EN"
 "http://www.w3.org/Graphics/SVG/1.1/DTD/svg11.dtd">
<!-- Generated by graphviz version 2.38.0 (20140413.2041)
 -->
<!-- Title: FPGAcontrols_wxgui::OnbtnStopWFMClick Pages: 1 -->
<!--zoomable 598 -->
<svg id="main" version="1.1" xmlns="http://www.w3.org/2000/svg" xmlns:xlink="http://www.w3.org/1999/xlink" xml:space="preserve" onload="init(evt)">
<style type="text/css"><![CDATA[
.edge:hover path { stroke: red; }
.edge:hover polygon { stroke: red; fill: red; }
]]></style>
<script type="text/javascript"><![CDATA[
var edges = document.getElementsByTagName('g');
if (edges && edges.length) {
  for (var i=0;i<edges.length;i++) {
    if (edges[i].id.substr(0,4)=='edge') {
      edges[i].setAttribute('class','edge');
    }
  }
}
]]></script>
        <defs>
                <circle id="rim" cx="0" cy="0" r="7"/>
                <circle id="rim2" cx="0" cy="0" r="3.5"/>
                <g id="zoomPlus">
                        <use xlink:href="#rim" fill="#404040">
                                <set attributeName="fill" to="#808080" begin="zoomplus.mouseover" end="zoomplus.mouseout"/>
                        </use>
                        <path d="M-4,0h8M0,-4v8" fill="none" stroke="white" stroke-width="1.5" pointer-events="none"/>
                </g>
                <g id="zoomMin">
                        <use xlink:href="#rim" fill="#404040">
                                <set attributeName="fill" to="#808080" begin="zoomminus.mouseover" end="zoomminus.mouseout"/>
                        </use>
                        <path d="M-4,0h8" fill="none" stroke="white" stroke-width="1.5" pointer-events="none"/>
                </g>
                <g id="dirArrow">
                        <path fill="none" stroke="white" stroke-width="1.5" d="M0,-3.0v7 M-2.5,-0.5L0,-3.0L2.5,-0.5"/>
                </g>
               <g id="resetDef">
                       <use xlink:href="#rim2" fill="#404040">
                               <set attributeName="fill" to="#808080" begin="reset.mouseover" end="reset.mouseout"/>
                       </use>
               </g>
        </defs>

<script type="text/javascript">
var viewWidth = 842;
var viewHeight = 598;
var sectionId = 'dynsection-11';
</script>
<script xlink:href="../../svgpan.js"/>
<svg id="graph" class="graph">
<g id="viewport">
<title>FPGAcontrols_wxgui::OnbtnStopWFMClick</title>
<polygon fill="white" stroke="none" points="-4,4 -4,-594 838,-594 838,4 -4,4"/>
<!-- Node1 -->
<g id="node1" class="node"><title>Node1</title>
<polygon fill="#bfbfbf" stroke="black" points="0,-261 0,-291 116,-291 116,-261 0,-261"/>
<text text-anchor="start" x="8" y="-279" font-family="Helvetica,sans-Serif" font-size="10.00">FPGAcontrols_wxgui</text>
<text text-anchor="middle" x="58" y="-268" font-family="Helvetica,sans-Serif" font-size="10.00">::OnbtnStopWFMClick</text>
</g>
<!-- Node2 -->
<g id="node2" class="node"><title>Node2</title>
<g id="a_node2"><a xlink:href="../../df/de1/lms7__api_8cpp.html#abd52e9c4a89706ff53c3c59894f1b932" target="_top" xlink:title="LMS_EnableTxWFM">
<polygon fill="white" stroke="black" points="152,-266.5 152,-285.5 259,-285.5 259,-266.5 152,-266.5"/>
<text text-anchor="middle" x="205.5" y="-273.5" font-family="Helvetica,sans-Serif" font-size="10.00">LMS_EnableTxWFM</text>
</a>
</g>
</g>
<!-- Node1&#45;&gt;Node2 -->
<g id="edge1" class="edge"><title>Node1&#45;&gt;Node2</title>
<path fill="none" stroke="midnightblue" d="M116.088,-276C124.465,-276 133.133,-276 141.618,-276"/>
<polygon fill="midnightblue" stroke="midnightblue" points="141.846,-279.5 151.846,-276 141.846,-272.5 141.846,-279.5"/>
</g>
<!-- Node3 -->
<g id="node3" class="node"><title>Node3</title>
<g id="a_node3"><a xlink:href="../../df/de1/lms7__api_8cpp.html#a9732243494479ad720f1b4d8cc12c3f7" target="_top" xlink:title="LMS_ReadFPGAReg">
<polygon fill="white" stroke="black" points="295,-285.5 295,-304.5 405,-304.5 405,-285.5 295,-285.5"/>
<text text-anchor="middle" x="350" y="-292.5" font-family="Helvetica,sans-Serif" font-size="10.00">LMS_ReadFPGAReg</text>
</a>
</g>
</g>
<!-- Node2&#45;&gt;Node3 -->
<g id="edge2" class="edge"><title>Node2&#45;&gt;Node3</title>
<path fill="none" stroke="midnightblue" d="M259.157,-283.021C267.477,-284.13 276.16,-285.288 284.709,-286.428"/>
<polygon fill="midnightblue" stroke="midnightblue" points="284.277,-289.901 294.652,-287.754 285.202,-282.963 284.277,-289.901"/>
</g>
<!-- Node27 -->
<g id="node27" class="node"><title>Node27</title>
<g id="a_node27"><a xlink:href="../../df/de1/lms7__api_8cpp.html#a00772bc179a978aa279a6ce238a24c18" target="_top" xlink:title="LMS_WriteFPGAReg">
<polygon fill="white" stroke="black" points="295,-247.5 295,-266.5 405,-266.5 405,-247.5 295,-247.5"/>
<text text-anchor="middle" x="350" y="-254.5" font-family="Helvetica,sans-Serif" font-size="10.00">LMS_WriteFPGAReg</text>
</a>
</g>
</g>
<!-- Node2&#45;&gt;Node27 -->
<g id="edge29" class="edge"><title>Node2&#45;&gt;Node27</title>
<path fill="none" stroke="midnightblue" d="M259.157,-268.979C267.477,-267.87 276.16,-266.712 284.709,-265.572"/>
<polygon fill="midnightblue" stroke="midnightblue" points="285.202,-269.037 294.652,-264.246 284.277,-262.099 285.202,-269.037"/>
</g>
<!-- Node4 -->
<g id="node4" class="node"><title>Node4</title>
<g id="a_node4"><a xlink:href="../../d3/d22/classlime_1_1LMS7__Device.html#a4fb66a6ab68f16a0b6506329b05a08b2" target="_top" xlink:title="lime::LMS7_Device::\lGetConnection">
<polygon fill="white" stroke="black" points="441,-305 441,-335 549,-335 549,-305 441,-305"/>
<text text-anchor="start" x="449" y="-323" font-family="Helvetica,sans-Serif" font-size="10.00">lime::LMS7_Device::</text>
<text text-anchor="middle" x="495" y="-312" font-family="Helvetica,sans-Serif" font-size="10.00">GetConnection</text>
</a>
</g>
</g>
<!-- Node3&#45;&gt;Node4 -->
<g id="edge3" class="edge"><title>Node3&#45;&gt;Node4</title>
<path fill="none" stroke="midnightblue" d="M405.062,-304.451C413.476,-305.922 422.232,-307.453 430.826,-308.956"/>
<polygon fill="midnightblue" stroke="midnightblue" points="430.356,-312.426 440.809,-310.701 431.561,-305.531 430.356,-312.426"/>
</g>
<!-- Node5 -->
<g id="node5" class="node"><title>Node5</title>
<g id="a_node5"><a xlink:href="../../d4/d67/lms_8c.html#a0e01e477b1f10e0a63e54de2dd2f8240" target="_top" xlink:title="lms">
<polygon fill="white" stroke="black" points="479,-266.5 479,-285.5 511,-285.5 511,-266.5 479,-266.5"/>
<text text-anchor="middle" x="495" y="-273.5" font-family="Helvetica,sans-Serif" font-size="10.00">lms</text>
</a>
</g>
</g>
<!-- Node3&#45;&gt;Node5 -->
<g id="edge4" class="edge"><title>Node3&#45;&gt;Node5</title>
<path fill="none" stroke="midnightblue" d="M405.062,-287.817C426.939,-284.91 451.134,-281.695 468.759,-279.354"/>
<polygon fill="midnightblue" stroke="midnightblue" points="469.353,-282.806 478.804,-278.019 468.431,-275.867 469.353,-282.806"/>
</g>
<!-- Node25 -->
<g id="node25" class="node"><title>Node25</title>
<g id="a_node25"><a xlink:href="../../d5/d6c/namespacelime.html#adc6af0cf8e0a70f3ef09fac1244f8c48" target="_top" xlink:title="lime::ReportError">
<polygon fill="white" stroke="black" points="449.5,-228.5 449.5,-247.5 540.5,-247.5 540.5,-228.5 449.5,-228.5"/>
<text text-anchor="middle" x="495" y="-235.5" font-family="Helvetica,sans-Serif" font-size="10.00">lime::ReportError</text>
</a>
</g>
</g>
<!-- Node3&#45;&gt;Node25 -->
<g id="edge27" class="edge"><title>Node3&#45;&gt;Node25</title>
<path fill="none" stroke="midnightblue" d="M380.732,-285.421C388.706,-282.614 397.259,-279.383 405,-276 421.578,-268.756 424.443,-264.293 441,-257 445.688,-254.935 450.678,-252.919 455.649,-251.019"/>
<polygon fill="midnightblue" stroke="midnightblue" points="456.936,-254.275 465.103,-247.525 454.509,-247.709 456.936,-254.275"/>
</g>
<!-- Node6 -->
<g id="node6" class="node"><title>Node6</title>
<g id="a_node6"><a xlink:href="../../d4/d67/lms_8c.html#a433227191fe883dcb8aa15d291bb29a1" target="_top" xlink:title="Case1F">
<polygon fill="white" stroke="black" points="593.5,-418.5 593.5,-437.5 644.5,-437.5 644.5,-418.5 593.5,-418.5"/>
<text text-anchor="middle" x="619" y="-425.5" font-family="Helvetica,sans-Serif" font-size="10.00">Case1F</text>
</a>
</g>
</g>
<!-- Node5&#45;&gt;Node6 -->
<g id="edge5" class="edge"><title>Node5&#45;&gt;Node6</title>
<path fill="none" stroke="midnightblue" d="M511.466,-277.814C523.257,-279.983 539.104,-284.717 549,-295 585.844,-333.284 551.709,-367.59 585,-409 585.932,-410.159 586.955,-411.262 588.046,-412.308"/>
<polygon fill="midnightblue" stroke="midnightblue" points="585.924,-415.091 595.985,-418.413 590.191,-409.542 585.924,-415.091"/>
</g>
<!-- Node7 -->
<g id="node7" class="node"><title>Node7</title>
<g id="a_node7"><a xlink:href="../../d4/d67/lms_8c.html#ace0cd8bf61cb9b86b98f0cef03b5a9d9" target="_top" xlink:title="Case2F">
<polygon fill="white" stroke="black" points="593.5,-380.5 593.5,-399.5 644.5,-399.5 644.5,-380.5 593.5,-380.5"/>
<text text-anchor="middle" x="619" y="-387.5" font-family="Helvetica,sans-Serif" font-size="10.00">Case2F</text>
</a>
</g>
</g>
<!-- Node5&#45;&gt;Node7 -->
<g id="edge6" class="edge"><title>Node5&#45;&gt;Node7</title>
<path fill="none" stroke="midnightblue" d="M511.09,-278.201C522.674,-280.584 538.426,-285.416 549,-295 576.693,-320.1 559.65,-343.535 585,-371 586.037,-372.123 587.156,-373.199 588.333,-374.226"/>
<polygon fill="midnightblue" stroke="midnightblue" points="586.558,-377.262 596.709,-380.296 590.666,-371.594 586.558,-377.262"/>
</g>
<!-- Node8 -->
<g id="node8" class="node"><title>Node8</title>
<g id="a_node8"><a xlink:href="../../d4/d67/lms_8c.html#a5f53b53ccc591e3643c4af2aee2e7f32" target="_top" xlink:title="Case3F">
<polygon fill="white" stroke="black" points="593.5,-342.5 593.5,-361.5 644.5,-361.5 644.5,-342.5 593.5,-342.5"/>
<text text-anchor="middle" x="619" y="-349.5" font-family="Helvetica,sans-Serif" font-size="10.00">Case3F</text>
</a>
</g>
</g>
<!-- Node5&#45;&gt;Node8 -->
<g id="edge7" class="edge"><title>Node5&#45;&gt;Node8</title>
<path fill="none" stroke="midnightblue" d="M511.255,-279.434C522.341,-282.397 537.377,-287.413 549,-295 568.481,-307.717 566.727,-318.6 585,-333 586.772,-334.396 588.658,-335.758 590.596,-337.069"/>
<polygon fill="midnightblue" stroke="midnightblue" points="588.895,-340.134 599.234,-342.449 592.596,-334.192 588.895,-340.134"/>
</g>
<!-- Node9 -->
<g id="node9" class="node"><title>Node9</title>
<g id="a_node9"><a xlink:href="../../d4/d67/lms_8c.html#a5086763d5b258349bc13d6be7e7d0665" target="_top" xlink:title="Case4F">
<polygon fill="white" stroke="black" points="593.5,-304.5 593.5,-323.5 644.5,-323.5 644.5,-304.5 593.5,-304.5"/>
<text text-anchor="middle" x="619" y="-311.5" font-family="Helvetica,sans-Serif" font-size="10.00">Case4F</text>
</a>
</g>
</g>
<!-- Node5&#45;&gt;Node9 -->
<g id="edge8" class="edge"><title>Node5&#45;&gt;Node9</title>
<path fill="none" stroke="midnightblue" d="M511.451,-280.813C529.517,-286.44 559.965,-295.923 583.697,-303.315"/>
<polygon fill="midnightblue" stroke="midnightblue" points="582.812,-306.706 593.401,-306.338 584.894,-300.022 582.812,-306.706"/>
</g>
<!-- Node10 -->
<g id="node10" class="node"><title>Node10</title>
<g id="a_node10"><a xlink:href="../../db/de5/recipes_8c.html#aee25e218394217a134e805ea09fb0fe9" target="_top" xlink:title="free_ivector">
<polygon fill="white" stroke="black" points="585,-266.5 585,-285.5 653,-285.5 653,-266.5 585,-266.5"/>
<text text-anchor="middle" x="619" y="-273.5" font-family="Helvetica,sans-Serif" font-size="10.00">free_ivector</text>
</a>
</g>
</g>
<!-- Node5&#45;&gt;Node10 -->
<g id="edge9" class="edge"><title>Node5&#45;&gt;Node10</title>
<path fill="none" stroke="midnightblue" d="M511.451,-276C527.282,-276 552.622,-276 574.618,-276"/>
<polygon fill="midnightblue" stroke="midnightblue" points="574.766,-279.5 584.766,-276 574.766,-272.5 574.766,-279.5"/>
</g>
<!-- Node11 -->
<g id="node11" class="node"><title>Node11</title>
<g id="a_node11"><a xlink:href="../../db/de5/recipes_8c.html#a3e0d121b098c19c0bdc2429e5b9f1625" target="_top" xlink:title="free_matrix">
<polygon fill="white" stroke="black" points="586.5,-228.5 586.5,-247.5 651.5,-247.5 651.5,-228.5 586.5,-228.5"/>
<text text-anchor="middle" x="619" y="-235.5" font-family="Helvetica,sans-Serif" font-size="10.00">free_matrix</text>
</a>
</g>
</g>
<!-- Node5&#45;&gt;Node11 -->
<g id="edge10" class="edge"><title>Node5&#45;&gt;Node11</title>
<path fill="none" stroke="midnightblue" d="M511.451,-271.187C527.984,-266.038 554.887,-257.658 577.523,-250.608"/>
<polygon fill="midnightblue" stroke="midnightblue" points="578.737,-253.895 587.244,-247.58 576.655,-247.212 578.737,-253.895"/>
</g>
<!-- Node12 -->
<g id="node12" class="node"><title>Node12</title>
<g id="a_node12"><a xlink:href="../../db/de5/recipes_8c.html#a8214a52d888e820222c0382648329c0c" target="_top" xlink:title="free_vector">
<polygon fill="white" stroke="black" points="689,-190.5 689,-209.5 754,-209.5 754,-190.5 689,-190.5"/>
<text text-anchor="middle" x="721.5" y="-197.5" font-family="Helvetica,sans-Serif" font-size="10.00">free_vector</text>
</a>
</g>
</g>
<!-- Node5&#45;&gt;Node12 -->
<g id="edge11" class="edge"><title>Node5&#45;&gt;Node12</title>
<path fill="none" stroke="midnightblue" d="M511.255,-272.566C522.341,-269.603 537.377,-264.587 549,-257 568.481,-244.283 564.32,-229.658 585,-219 613.927,-204.092 650.699,-199.698 678.635,-198.835"/>
<polygon fill="midnightblue" stroke="midnightblue" points="678.934,-202.331 688.874,-198.663 678.816,-195.332 678.934,-202.331"/>
</g>
<!-- Node13 -->
<g id="node13" class="node"><title>Node13</title>
<g id="a_node13"><a xlink:href="../../d4/d67/lms_8c.html#ad1d6c875ff429888b51dd1155f0311ad" target="_top" xlink:title="ivector">
<polygon fill="white" stroke="black" points="596,-114.5 596,-133.5 642,-133.5 642,-114.5 596,-114.5"/>
<text text-anchor="middle" x="619" y="-121.5" font-family="Helvetica,sans-Serif" font-size="10.00">ivector</text>
</a>
</g>
</g>
<!-- Node5&#45;&gt;Node13 -->
<g id="edge12" class="edge"><title>Node5&#45;&gt;Node13</title>
<path fill="none" stroke="midnightblue" d="M511.466,-274.186C523.257,-272.017 539.104,-267.283 549,-257 585.844,-218.716 551.709,-184.41 585,-143 585.932,-141.841 586.955,-140.738 588.046,-139.692"/>
<polygon fill="midnightblue" stroke="midnightblue" points="590.191,-142.458 595.985,-133.587 585.924,-136.909 590.191,-142.458"/>
</g>
<!-- Node14 -->
<g id="node14" class="node"><title>Node14</title>
<g id="a_node14"><a xlink:href="../../db/de5/recipes_8c.html#a66ff65ad0355ec1f4a7722bcdafc8cd3" target="_top" xlink:title="lubksb">
<polygon fill="white" stroke="black" points="596.5,-76.5 596.5,-95.5 641.5,-95.5 641.5,-76.5 596.5,-76.5"/>
<text text-anchor="middle" x="619" y="-83.5" font-family="Helvetica,sans-Serif" font-size="10.00">lubksb</text>
</a>
</g>
</g>
<!-- Node5&#45;&gt;Node14 -->
<g id="edge13" class="edge"><title>Node5&#45;&gt;Node14</title>
<path fill="none" stroke="midnightblue" d="M511.191,-274.467C523.15,-272.45 539.357,-267.784 549,-257 595.275,-205.247 543.514,-160.665 585,-105 586.032,-103.615 587.197,-102.315 588.457,-101.097"/>
<polygon fill="midnightblue" stroke="midnightblue" points="590.626,-103.845 596.451,-94.9956 586.379,-98.2806 590.626,-103.845"/>
</g>
<!-- Node15 -->
<g id="node15" class="node"><title>Node15</title>
<g id="a_node15"><a xlink:href="../../db/de5/recipes_8c.html#a623fec796d9d53e5e4a4d30226547da7" target="_top" xlink:title="ludcmp">
<polygon fill="white" stroke="black" points="595,-152.5 595,-171.5 643,-171.5 643,-152.5 595,-152.5"/>
<text text-anchor="middle" x="619" y="-159.5" font-family="Helvetica,sans-Serif" font-size="10.00">ludcmp</text>
</a>
</g>
</g>
<!-- Node5&#45;&gt;Node15 -->
<g id="edge14" class="edge"><title>Node5&#45;&gt;Node15</title>
<path fill="none" stroke="midnightblue" d="M511.019,-273.72C522.564,-271.293 538.298,-266.441 549,-257 575.532,-233.595 562.055,-212.931 585,-186 587.489,-183.078 590.404,-180.318 593.451,-177.782"/>
<polygon fill="midnightblue" stroke="midnightblue" points="595.738,-180.441 601.629,-171.635 591.532,-174.845 595.738,-180.441"/>
</g>
<!-- Node18 -->
<g id="node18" class="node"><title>Node18</title>
<g id="a_node18"><a xlink:href="../../d4/d67/lms_8c.html#a37bcb1539d76b53344102435e2ab9c91" target="_top" xlink:title="matrix">
<polygon fill="white" stroke="black" points="597,-38.5 597,-57.5 641,-57.5 641,-38.5 597,-38.5"/>
<text text-anchor="middle" x="619" y="-45.5" font-family="Helvetica,sans-Serif" font-size="10.00">matrix</text>
</a>
</g>
</g>
<!-- Node5&#45;&gt;Node18 -->
<g id="edge19" class="edge"><title>Node5&#45;&gt;Node18</title>
<path fill="none" stroke="midnightblue" d="M511.323,-274.582C523.358,-272.632 539.604,-268 549,-257 604.822,-191.649 535.214,-137.059 585,-67 586.149,-65.3834 587.482,-63.8847 588.939,-62.4985"/>
<polygon fill="midnightblue" stroke="midnightblue" points="591.08,-65.2683 596.998,-56.4803 586.891,-59.6598 591.08,-65.2683"/>
</g>
<!-- Node19 -->
<g id="node19" class="node"><title>Node19</title>
<g id="a_node19"><a xlink:href="../../d8/d91/rounding_8c.html#aa8d7512cdf5bfbf811cef6a8a091c679" target="_top" xlink:title="round2csd">
<polygon fill="white" stroke="black" points="588,-532.5 588,-551.5 650,-551.5 650,-532.5 588,-532.5"/>
<text text-anchor="middle" x="619" y="-539.5" font-family="Helvetica,sans-Serif" font-size="10.00">round2csd</text>
</a>
</g>
</g>
<!-- Node5&#45;&gt;Node19 -->
<g id="edge20" class="edge"><title>Node5&#45;&gt;Node19</title>
<path fill="none" stroke="midnightblue" d="M511.413,-277.342C523.501,-279.248 539.774,-283.857 549,-295 614.427,-374.017 526.863,-438.475 585,-523 585.637,-523.926 586.335,-524.813 587.083,-525.661"/>
<polygon fill="midnightblue" stroke="midnightblue" points="584.99,-528.477 594.87,-532.302 589.532,-523.15 584.99,-528.477"/>
</g>
<!-- Node23 -->
<g id="node23" class="node"><title>Node23</title>
<g id="a_node23"><a xlink:href="../../d8/d91/rounding_8c.html#aca2670cc0fbf948a6b9cb670047c9d5b" target="_top" xlink:title="round2int">
<polygon fill="white" stroke="black" points="591,-494.5 591,-513.5 647,-513.5 647,-494.5 591,-494.5"/>
<text text-anchor="middle" x="619" y="-501.5" font-family="Helvetica,sans-Serif" font-size="10.00">round2int</text>
</a>
</g>
</g>
<!-- Node5&#45;&gt;Node23 -->
<g id="edge24" class="edge"><title>Node5&#45;&gt;Node23</title>
<path fill="none" stroke="midnightblue" d="M511.323,-277.418C523.358,-279.368 539.604,-284 549,-295 604.822,-360.351 535.214,-414.941 585,-485 585.754,-486.061 586.587,-487.071 587.483,-488.032"/>
<polygon fill="midnightblue" stroke="midnightblue" points="585.351,-490.81 595.298,-494.459 589.797,-485.404 585.351,-490.81"/>
</g>
<!-- Node24 -->
<g id="node24" class="node"><title>Node24</title>
<g id="a_node24"><a xlink:href="../../d4/d67/lms_8c.html#ac81ca32708341eb34b25d515d00bc748" target="_top" xlink:title="vector">
<polygon fill="white" stroke="black" points="597,-456.5 597,-475.5 641,-475.5 641,-456.5 597,-456.5"/>
<text text-anchor="middle" x="619" y="-463.5" font-family="Helvetica,sans-Serif" font-size="10.00">vector</text>
</a>
</g>
</g>
<!-- Node5&#45;&gt;Node24 -->
<g id="edge26" class="edge"><title>Node5&#45;&gt;Node24</title>
<path fill="none" stroke="midnightblue" d="M511.191,-277.533C523.15,-279.55 539.357,-284.216 549,-295 595.275,-346.753 543.514,-391.335 585,-447 586.059,-448.421 587.259,-449.753 588.557,-450.999"/>
<polygon fill="midnightblue" stroke="midnightblue" points="586.702,-453.984 596.793,-457.213 590.919,-448.396 586.702,-453.984"/>
</g>
<!-- Node15&#45;&gt;Node12 -->
<g id="edge15" class="edge"><title>Node15&#45;&gt;Node12</title>
<path fill="none" stroke="midnightblue" d="M643.057,-170.718C655.676,-175.489 671.569,-181.499 685.668,-186.83"/>
<polygon fill="midnightblue" stroke="midnightblue" points="684.489,-190.126 695.081,-190.389 686.965,-183.578 684.489,-190.126"/>
</g>
<!-- Node16 -->
<g id="node16" class="node"><title>Node16</title>
<g id="a_node16"><a xlink:href="../../db/de5/recipes_8c.html#a208e98f19b2f252315399d02c0594a46" target="_top" xlink:title="nrerror">
<polygon fill="white" stroke="black" points="790,-133.5 790,-152.5 834,-152.5 834,-133.5 790,-133.5"/>
<text text-anchor="middle" x="812" y="-140.5" font-family="Helvetica,sans-Serif" font-size="10.00">nrerror</text>
</a>
</g>
</g>
<!-- Node15&#45;&gt;Node16 -->
<g id="edge16" class="edge"><title>Node15&#45;&gt;Node16</title>
<path fill="none" stroke="midnightblue" d="M643.039,-159.708C677.23,-156.307 741.482,-149.915 779.842,-146.1"/>
<polygon fill="midnightblue" stroke="midnightblue" points="780.324,-149.569 789.928,-145.096 779.631,-142.603 780.324,-149.569"/>
</g>
<!-- Node17 -->
<g id="node17" class="node"><title>Node17</title>
<g id="a_node17"><a xlink:href="../../db/de5/recipes_8c.html#a5e6092211a5f7e2d6ae9282379d3c604" target="_top" xlink:title="vector">
<polygon fill="white" stroke="black" points="699.5,-114.5 699.5,-133.5 743.5,-133.5 743.5,-114.5 699.5,-114.5"/>
<text text-anchor="middle" x="721.5" y="-121.5" font-family="Helvetica,sans-Serif" font-size="10.00">vector</text>
</a>
</g>
</g>
<!-- Node15&#45;&gt;Node17 -->
<g id="edge17" class="edge"><title>Node15&#45;&gt;Node17</title>
<path fill="none" stroke="midnightblue" d="M643.057,-153.282C656.938,-148.033 674.781,-141.287 689.84,-135.593"/>
<polygon fill="midnightblue" stroke="midnightblue" points="691.149,-138.84 699.265,-132.029 688.674,-132.292 691.149,-138.84"/>
</g>
<!-- Node17&#45;&gt;Node16 -->
<g id="edge18" class="edge"><title>Node17&#45;&gt;Node16</title>
<path fill="none" stroke="midnightblue" d="M743.923,-128.599C754.685,-130.91 767.928,-133.753 779.796,-136.301"/>
<polygon fill="midnightblue" stroke="midnightblue" points="779.262,-139.766 789.774,-138.443 780.731,-132.922 779.262,-139.766"/>
</g>
<!-- Node20 -->
<g id="node20" class="node"><title>Node20</title>
<g id="a_node20"><a xlink:href="../../d8/d91/rounding_8c.html#a2cff6b77e73872659c44b0c99f6bd97f" target="_top" xlink:title="csd2int">
<polygon fill="white" stroke="black" points="697.5,-532.5 697.5,-551.5 745.5,-551.5 745.5,-532.5 697.5,-532.5"/>
<text text-anchor="middle" x="721.5" y="-539.5" font-family="Helvetica,sans-Serif" font-size="10.00">csd2int</text>
</a>
</g>
</g>
<!-- Node19&#45;&gt;Node20 -->
<g id="edge21" class="edge"><title>Node19&#45;&gt;Node20</title>
<path fill="none" stroke="midnightblue" d="M650.153,-542C661.87,-542 675.331,-542 687.321,-542"/>
<polygon fill="midnightblue" stroke="midnightblue" points="687.398,-545.5 697.398,-542 687.398,-538.5 687.398,-545.5"/>
</g>
<!-- Node21 -->
<g id="node21" class="node"><title>Node21</title>
<g id="a_node21"><a xlink:href="../../db/d82/wglew_8h.html#a500a82aecba06f4550f6849b8099ca21" target="_top" xlink:title="int">
<polygon fill="white" stroke="black" points="707,-494.5 707,-513.5 736,-513.5 736,-494.5 707,-494.5"/>
<text text-anchor="middle" x="721.5" y="-501.5" font-family="Helvetica,sans-Serif" font-size="10.00">int</text>
</a>
</g>
</g>
<!-- Node19&#45;&gt;Node21 -->
<g id="edge22" class="edge"><title>Node19&#45;&gt;Node21</title>
<path fill="none" stroke="midnightblue" d="M645.36,-532.411C661.388,-526.351 681.934,-518.582 697.49,-512.7"/>
<polygon fill="midnightblue" stroke="midnightblue" points="698.778,-515.955 706.894,-509.145 696.302,-509.408 698.778,-515.955"/>
</g>
<!-- Node22 -->
<g id="node22" class="node"><title>Node22</title>
<g id="a_node22"><a xlink:href="../../d8/d91/rounding_8c.html#ab3a64ec72c5600bc114621e93309c8c3" target="_top" xlink:title="int2csd">
<polygon fill="white" stroke="black" points="697.5,-570.5 697.5,-589.5 745.5,-589.5 745.5,-570.5 697.5,-570.5"/>
<text text-anchor="middle" x="721.5" y="-577.5" font-family="Helvetica,sans-Serif" font-size="10.00">int2csd</text>
</a>
</g>
</g>
<!-- Node19&#45;&gt;Node22 -->
<g id="edge23" class="edge"><title>Node19&#45;&gt;Node22</title>
<path fill="none" stroke="midnightblue" d="M645.36,-551.589C658.181,-556.437 673.894,-562.378 687.631,-567.572"/>
<polygon fill="midnightblue" stroke="midnightblue" points="686.623,-570.933 697.214,-571.195 689.099,-564.385 686.623,-570.933"/>
</g>
<!-- Node23&#45;&gt;Node21 -->
<g id="edge25" class="edge"><title>Node23&#45;&gt;Node21</title>
<path fill="none" stroke="midnightblue" d="M647.197,-504C662.576,-504 681.634,-504 696.462,-504"/>
<polygon fill="midnightblue" stroke="midnightblue" points="696.846,-507.5 706.846,-504 696.846,-500.5 696.846,-507.5"/>
</g>
<!-- Node26 -->
<g id="node26" class="node"><title>Node26</title>
<g id="a_node26"><a xlink:href="../../d9/df5/Logger_8cpp.html#ada38bf01d6d691de953ed69268ea6516" target="_top" xlink:title="errToStr">
<polygon fill="white" stroke="black" points="593,-0.5 593,-19.5 645,-19.5 645,-0.5 593,-0.5"/>
<text text-anchor="middle" x="619" y="-7.5" font-family="Helvetica,sans-Serif" font-size="10.00">errToStr</text>
</a>
</g>
</g>
<!-- Node25&#45;&gt;Node26 -->
<g id="edge28" class="edge"><title>Node25&#45;&gt;Node26</title>
<path fill="none" stroke="midnightblue" d="M497.879,-228.068C504.434,-195.766 529.003,-92.1435 585,-29 586.014,-27.8562 587.115,-26.764 588.277,-25.7234"/>
<polygon fill="midnightblue" stroke="midnightblue" points="590.616,-28.3484 596.6,-19.6052 586.47,-22.7084 590.616,-28.3484"/>
</g>
<!-- Node27&#45;&gt;Node4 -->
<g id="edge30" class="edge"><title>Node27&#45;&gt;Node4</title>
<path fill="none" stroke="midnightblue" d="M380.732,-266.579C388.706,-269.386 397.259,-272.617 405,-276 421.578,-283.244 424.815,-286.917 441,-295 444.584,-296.79 448.319,-298.621 452.074,-300.437"/>
<polygon fill="midnightblue" stroke="midnightblue" points="450.844,-303.729 461.375,-304.893 453.869,-297.416 450.844,-303.729"/>
</g>
<!-- Node27&#45;&gt;Node5 -->
<g id="edge31" class="edge"><title>Node27&#45;&gt;Node5</title>
<path fill="none" stroke="midnightblue" d="M405.062,-264.183C426.939,-267.09 451.134,-270.305 468.759,-272.646"/>
<polygon fill="midnightblue" stroke="midnightblue" points="468.431,-276.133 478.804,-273.981 469.353,-269.194 468.431,-276.133"/>
</g>
<!-- Node27&#45;&gt;Node25 -->
<g id="edge32" class="edge"><title>Node27&#45;&gt;Node25</title>
<path fill="none" stroke="midnightblue" d="M405.062,-249.817C416.204,-248.336 427.948,-246.776 439.119,-245.292"/>
<polygon fill="midnightblue" stroke="midnightblue" points="439.731,-248.741 449.183,-243.955 438.809,-241.802 439.731,-248.741"/>
</g>
</g>
</svg>
        <g id="navigator" transform="translate(0 0)" fill="#404254">
                <rect fill="#f2f5e9" fill-opacity="0.5" stroke="#606060" stroke-width=".5" x="0" y="0" width="60" height="60"/>
                <use id="zoomplus" xlink:href="#zoomPlus" x="17" y="9" onmousedown="handleZoom(evt,'in')"/>
                <use id="zoomminus" xlink:href="#zoomMin" x="42" y="9" onmousedown="handleZoom(evt,'out')"/>
                <use id="reset" xlink:href="#resetDef" x="30" y="36" onmousedown="handleReset()"/>
                <g id="arrowUp" xlink:href="#dirArrow" transform="translate(30 24)" onmousedown="handlePan(0,-1)">
                  <use xlink:href="#rim" fill="#404040">
                        <set attributeName="fill" to="#808080" begin="arrowUp.mouseover" end="arrowUp.mouseout"/>
                  </use>
                  <path fill="none" stroke="white" stroke-width="1.5" d="M0,-3.0v7 M-2.5,-0.5L0,-3.0L2.5,-0.5"/>
                </g>
                <g id="arrowRight" xlink:href="#dirArrow" transform="rotate(90) translate(36 -43)" onmousedown="handlePan(1,0)">
                  <use xlink:href="#rim" fill="#404040">
                        <set attributeName="fill" to="#808080" begin="arrowRight.mouseover" end="arrowRight.mouseout"/>
                  </use>
                  <path fill="none" stroke="white" stroke-width="1.5" d="M0,-3.0v7 M-2.5,-0.5L0,-3.0L2.5,-0.5"/>
                </g>
                <g id="arrowDown" xlink:href="#dirArrow" transform="rotate(180) translate(-30 -48)" onmousedown="handlePan(0,1)">
                  <use xlink:href="#rim" fill="#404040">
                        <set attributeName="fill" to="#808080" begin="arrowDown.mouseover" end="arrowDown.mouseout"/>
                  </use>
                  <path fill="none" stroke="white" stroke-width="1.5" d="M0,-3.0v7 M-2.5,-0.5L0,-3.0L2.5,-0.5"/>
                </g>
                <g id="arrowLeft" xlink:href="#dirArrow" transform="rotate(270) translate(-36 17)" onmousedown="handlePan(-1,0)">
                  <use xlink:href="#rim" fill="#404040">
                        <set attributeName="fill" to="#808080" begin="arrowLeft.mouseover" end="arrowLeft.mouseout"/>
                  </use>
                  <path fill="none" stroke="white" stroke-width="1.5" d="M0,-3.0v7 M-2.5,-0.5L0,-3.0L2.5,-0.5"/>
                </g>
        </g>
        <svg viewBox="0 0 15 15" width="100%" height="30px" preserveAspectRatio="xMaxYMin meet">
         <g id="arrow_out" transform="scale(0.3 0.3)">
          <a xlink:href="classFPGAcontrols__wxgui_a0fa030c03abad5ce458e7284fc3e8a5e_cgraph_org.svg" target="_base">
           <rect id="button" ry="5" rx="5" y="6" x="6" height="38" width="38"
                fill="#f2f5e9" fill-opacity="0.5" stroke="#606060" stroke-width="1.0"/>
           <path id="arrow"
             d="M 11.500037,31.436501 C 11.940474,20.09759 22.043105,11.32322 32.158766,21.979434 L 37.068811,17.246167 C 37.068811,17.246167 37.088388,32 37.088388,32 L 22.160133,31.978069 C 22.160133,31.978069 26.997745,27.140456 26.997745,27.140456 C 18.528582,18.264221 13.291696,25.230495 11.500037,31.436501 z"
             style="fill:#404040;"/>
          </a>
         </g>
        </svg>
</svg>
