<?xml version="1.0" encoding="UTF-8" standalone="no"?>
<!DOCTYPE svg PUBLIC "-//W3C//DTD SVG 1.1//EN"
 "http://www.w3.org/Graphics/SVG/1.1/DTD/svg11.dtd">
<!-- Generated by graphviz version 2.38.0 (20140413.2041)
 -->
<!-- Title: UploadMCUParameters Pages: 1 -->
<svg width="283pt" height="66pt"
 viewBox="0.00 0.00 283.00 66.00" xmlns="http://www.w3.org/2000/svg" xmlns:xlink="http://www.w3.org/1999/xlink">
<g id="graph0" class="graph" transform="scale(1 1) rotate(0) translate(4 62)">
<title>UploadMCUParameters</title>
<polygon fill="white" stroke="none" points="-4,4 -4,-62 279,-62 279,4 -4,4"/>
<!-- Node1 -->
<g id="node1" class="node"><title>Node1</title>
<polygon fill="#bfbfbf" stroke="black" points="0,-19.5 0,-38.5 121,-38.5 121,-19.5 0,-19.5"/>
<text text-anchor="middle" x="60.5" y="-26.5" font-family="Helvetica,sans-Serif" font-size="10.00">UploadMCUParameters</text>
</g>
<!-- Node2 -->
<g id="node2" class="node"><title>Node2</title>
<g id="a_node2"><a xlink:href="../../dd/d0b/mcu__program_2host__src_2main_8cpp.html#a2bb1d2fcd6182ef32aff315f85d13c53" target="_top" xlink:title="DCIQ">
<polygon fill="white" stroke="black" points="158,-38.5 158,-57.5 200,-57.5 200,-38.5 158,-38.5"/>
<text text-anchor="middle" x="179" y="-45.5" font-family="Helvetica,sans-Serif" font-size="10.00">DCIQ</text>
</a>
</g>
</g>
<!-- Node1&#45;&gt;Node2 -->
<g id="edge1" class="edge"><title>Node1&#45;&gt;Node2</title>
<path fill="none" stroke="midnightblue" d="M130.239,-40.2107C140.29,-41.8499 149.91,-43.4188 157.849,-44.7135"/>
<polygon fill="midnightblue" stroke="midnightblue" points="130.524,-36.711 120.091,-38.5557 129.398,-43.6197 130.524,-36.711"/>
</g>
<!-- Node4 -->
<g id="node4" class="node"><title>Node4</title>
<g id="a_node4"><a xlink:href="../../dd/d0b/mcu__program_2host__src_2main_8cpp.html#ad4dcf2055b7114f8eacfa8cb11e5bbd5" target="_top" xlink:title="Filters">
<polygon fill="white" stroke="black" points="157,-0.5 157,-19.5 201,-19.5 201,-0.5 157,-0.5"/>
<text text-anchor="middle" x="179" y="-7.5" font-family="Helvetica,sans-Serif" font-size="10.00">Filters</text>
</a>
</g>
</g>
<!-- Node1&#45;&gt;Node4 -->
<g id="edge3" class="edge"><title>Node1&#45;&gt;Node4</title>
<path fill="none" stroke="midnightblue" d="M130.208,-17.7944C139.823,-16.2262 149.046,-14.7221 156.78,-13.4607"/>
<polygon fill="midnightblue" stroke="midnightblue" points="129.398,-14.3803 120.091,-19.4443 130.524,-21.289 129.398,-14.3803"/>
</g>
<!-- Node3 -->
<g id="node3" class="node"><title>Node3</title>
<g id="a_node3"><a xlink:href="../../dd/d0b/mcu__program_2host__src_2main_8cpp.html#a3c04138a5bfe5d72780bb7e82a18e627" target="_top" xlink:title="main">
<polygon fill="white" stroke="black" points="237,-19.5 237,-38.5 275,-38.5 275,-19.5 237,-19.5"/>
<text text-anchor="middle" x="256" y="-26.5" font-family="Helvetica,sans-Serif" font-size="10.00">main</text>
</a>
</g>
</g>
<!-- Node2&#45;&gt;Node3 -->
<g id="edge2" class="edge"><title>Node2&#45;&gt;Node3</title>
<path fill="none" stroke="midnightblue" d="M209.999,-40.4003C219.106,-38.0931 228.829,-35.63 236.898,-33.5857"/>
<polygon fill="midnightblue" stroke="midnightblue" points="208.933,-37.0597 200.099,-42.9083 210.652,-43.8453 208.933,-37.0597"/>
</g>
<!-- Node4&#45;&gt;Node3 -->
<g id="edge4" class="edge"><title>Node4&#45;&gt;Node3</title>
<path fill="none" stroke="midnightblue" d="M211.246,-17.9156C220.01,-20.1359 229.244,-22.4751 236.958,-24.4294"/>
<polygon fill="midnightblue" stroke="midnightblue" points="211.845,-14.4568 201.291,-15.3938 210.126,-21.2425 211.845,-14.4568"/>
</g>
</g>
</svg>
