<?xml version="1.0" encoding="UTF-8" standalone="no"?>
<!DOCTYPE svg PUBLIC "-//W3C//DTD SVG 1.1//EN"
 "http://www.w3.org/Graphics/SVG/1.1/DTD/svg11.dtd">
<!-- Generated by graphviz version 2.38.0 (20140413.2041)
 -->
<!-- Title: SPI_wxgui::Initialize Pages: 1 -->
<!--zoomable 115 -->
<svg id="main" version="1.1" xmlns="http://www.w3.org/2000/svg" xmlns:xlink="http://www.w3.org/1999/xlink" xml:space="preserve" onload="init(evt)">
<style type="text/css"><![CDATA[
.edge:hover path { stroke: red; }
.edge:hover polygon { stroke: red; fill: red; }
]]></style>
<script type="text/javascript"><![CDATA[
var edges = document.getElementsByTagName('g');
if (edges && edges.length) {
  for (var i=0;i<edges.length;i++) {
    if (edges[i].id.substr(0,4)=='edge') {
      edges[i].setAttribute('class','edge');
    }
  }
}
]]></script>
        <defs>
                <circle id="rim" cx="0" cy="0" r="7"/>
                <circle id="rim2" cx="0" cy="0" r="3.5"/>
                <g id="zoomPlus">
                        <use xlink:href="#rim" fill="#404040">
                                <set attributeName="fill" to="#808080" begin="zoomplus.mouseover" end="zoomplus.mouseout"/>
                        </use>
                        <path d="M-4,0h8M0,-4v8" fill="none" stroke="white" stroke-width="1.5" pointer-events="none"/>
                </g>
                <g id="zoomMin">
                        <use xlink:href="#rim" fill="#404040">
                                <set attributeName="fill" to="#808080" begin="zoomminus.mouseover" end="zoomminus.mouseout"/>
                        </use>
                        <path d="M-4,0h8" fill="none" stroke="white" stroke-width="1.5" pointer-events="none"/>
                </g>
                <g id="dirArrow">
                        <path fill="none" stroke="white" stroke-width="1.5" d="M0,-3.0v7 M-2.5,-0.5L0,-3.0L2.5,-0.5"/>
                </g>
               <g id="resetDef">
                       <use xlink:href="#rim2" fill="#404040">
                               <set attributeName="fill" to="#808080" begin="reset.mouseover" end="reset.mouseout"/>
                       </use>
               </g>
        </defs>

<script type="text/javascript">
var viewWidth = 601;
var viewHeight = 115;
var sectionId = 'dynsection-2';
</script>
<script xlink:href="../../svgpan.js"/>
<svg id="graph" class="graph">
<g id="viewport">
<title>SPI_wxgui::Initialize</title>
<polygon fill="white" stroke="none" points="-4,4 -4,-111 597,-111 597,4 -4,4"/>
<!-- Node1 -->
<g id="node1" class="node"><title>Node1</title>
<polygon fill="#bfbfbf" stroke="black" points="0,-57 0,-76 106,-76 106,-57 0,-57"/>
<text text-anchor="middle" x="53" y="-64" font-family="Helvetica,sans-Serif" font-size="10.00">SPI_wxgui::Initialize</text>
</g>
<!-- Node2 -->
<g id="node2" class="node"><title>Node2</title>
<g id="a_node2"><a xlink:href="../../d1/df3/classLMS7SuiteAppFrame.html#a8c233dab50b571c0f74395ed32d506a0" target="_top" xlink:title="LMS7SuiteAppFrame::\lOnShowSPI">
<polygon fill="white" stroke="black" points="142,-76.5 142,-106.5 258,-106.5 258,-76.5 142,-76.5"/>
<text text-anchor="start" x="150" y="-94.5" font-family="Helvetica,sans-Serif" font-size="10.00">LMS7SuiteAppFrame::</text>
<text text-anchor="middle" x="200" y="-83.5" font-family="Helvetica,sans-Serif" font-size="10.00">OnShowSPI</text>
</a>
</g>
</g>
<!-- Node1&#45;&gt;Node2 -->
<g id="edge1" class="edge"><title>Node1&#45;&gt;Node2</title>
<path fill="none" stroke="midnightblue" d="M116.214,-77.2265C124.717,-78.6927 133.414,-80.1921 141.822,-81.6418"/>
<polygon fill="midnightblue" stroke="midnightblue" points="116.798,-73.7756 106.348,-75.5256 115.608,-80.6738 116.798,-73.7756"/>
</g>
<!-- Node3 -->
<g id="node3" class="node"><title>Node3</title>
<g id="a_node3"><a xlink:href="../../d1/df3/classLMS7SuiteAppFrame.html#aeaeb613a8c9139f0e60b02f1f612ed5d" target="_top" xlink:title="LMS7SuiteAppFrame::\lUpdateConnections">
<polygon fill="white" stroke="black" points="142,-27.5 142,-57.5 258,-57.5 258,-27.5 142,-27.5"/>
<text text-anchor="start" x="150" y="-45.5" font-family="Helvetica,sans-Serif" font-size="10.00">LMS7SuiteAppFrame::</text>
<text text-anchor="middle" x="200" y="-34.5" font-family="Helvetica,sans-Serif" font-size="10.00">UpdateConnections</text>
</a>
</g>
</g>
<!-- Node1&#45;&gt;Node3 -->
<g id="edge2" class="edge"><title>Node1&#45;&gt;Node3</title>
<path fill="none" stroke="midnightblue" d="M116.491,-56.1567C124.906,-54.7638 133.505,-53.3405 141.822,-51.9639"/>
<polygon fill="midnightblue" stroke="midnightblue" points="115.643,-52.7494 106.348,-57.8354 116.786,-59.6554 115.643,-52.7494"/>
</g>
<!-- Node4 -->
<g id="node4" class="node"><title>Node4</title>
<g id="a_node4"><a xlink:href="../../d1/df3/classLMS7SuiteAppFrame.html#ad380f4e547c66fcfffdec0da53fe5b3e" target="_top" xlink:title="Constructor. ">
<polygon fill="white" stroke="black" points="465,-49.5 465,-79.5 581,-79.5 581,-49.5 465,-49.5"/>
<text text-anchor="start" x="473" y="-67.5" font-family="Helvetica,sans-Serif" font-size="10.00">LMS7SuiteAppFrame::</text>
<text text-anchor="middle" x="523" y="-56.5" font-family="Helvetica,sans-Serif" font-size="10.00">LMS7SuiteAppFrame</text>
</a>
</g>
</g>
<!-- Node3&#45;&gt;Node4 -->
<g id="edge3" class="edge"><title>Node3&#45;&gt;Node4</title>
<path fill="none" stroke="midnightblue" d="M268.232,-47.1078C326.507,-51.1017 409.904,-56.8174 464.973,-60.5916"/>
<polygon fill="midnightblue" stroke="midnightblue" points="268.234,-43.5998 258.018,-46.4078 267.756,-50.5835 268.234,-43.5998"/>
</g>
<!-- Node5 -->
<g id="node5" class="node"><title>Node5</title>
<g id="a_node5"><a xlink:href="../../d1/df3/classLMS7SuiteAppFrame.html#a819f017d3e706c433d9b7f4f9bc1f9c3" target="_top" xlink:title="LMS7SuiteAppFrame::\lOnControlBoardConnect">
<polygon fill="white" stroke="black" points="294,-5.5 294,-35.5 417,-35.5 417,-5.5 294,-5.5"/>
<text text-anchor="start" x="302" y="-23.5" font-family="Helvetica,sans-Serif" font-size="10.00">LMS7SuiteAppFrame::</text>
<text text-anchor="middle" x="355.5" y="-12.5" font-family="Helvetica,sans-Serif" font-size="10.00">OnControlBoardConnect</text>
</a>
</g>
</g>
<!-- Node3&#45;&gt;Node5 -->
<g id="edge4" class="edge"><title>Node3&#45;&gt;Node5</title>
<path fill="none" stroke="midnightblue" d="M268.138,-32.8776C276.727,-31.6467 285.478,-30.3924 293.953,-29.1777"/>
<polygon fill="midnightblue" stroke="midnightblue" points="267.56,-29.4246 258.158,-34.308 268.553,-36.3538 267.56,-29.4246"/>
</g>
<!-- Node5&#45;&gt;Node4 -->
<g id="edge5" class="edge"><title>Node5&#45;&gt;Node4</title>
<path fill="none" stroke="midnightblue" d="M422.678,-38.0941C436.855,-41.8632 451.709,-45.8122 465.481,-49.4738"/>
<polygon fill="midnightblue" stroke="midnightblue" points="423.556,-34.7062 412.993,-35.5192 421.758,-41.4712 423.556,-34.7062"/>
</g>
<!-- Node6 -->
<g id="node6" class="node"><title>Node6</title>
<g id="a_node6"><a xlink:href="../../d1/df3/classLMS7SuiteAppFrame.html#a08626f72855857180d80ab271f481d08" target="_top" xlink:title="LMS7SuiteAppFrame::\lOnShowConnectionSettings">
<polygon fill="white" stroke="black" points="453,-0.5 453,-30.5 593,-30.5 593,-0.5 453,-0.5"/>
<text text-anchor="start" x="461" y="-18.5" font-family="Helvetica,sans-Serif" font-size="10.00">LMS7SuiteAppFrame::</text>
<text text-anchor="middle" x="523" y="-7.5" font-family="Helvetica,sans-Serif" font-size="10.00">OnShowConnectionSettings</text>
</a>
</g>
</g>
<!-- Node5&#45;&gt;Node6 -->
<g id="edge6" class="edge"><title>Node5&#45;&gt;Node6</title>
<path fill="none" stroke="midnightblue" d="M427.399,-18.358C435.86,-18.1024 444.49,-17.8417 452.925,-17.5868"/>
<polygon fill="midnightblue" stroke="midnightblue" points="427.076,-14.8661 417.186,-18.6666 427.287,-21.8629 427.076,-14.8661"/>
</g>
</g>
</svg>
        <g id="navigator" transform="translate(0 0)" fill="#404254">
                <rect fill="#f2f5e9" fill-opacity="0.5" stroke="#606060" stroke-width=".5" x="0" y="0" width="60" height="60"/>
                <use id="zoomplus" xlink:href="#zoomPlus" x="17" y="9" onmousedown="handleZoom(evt,'in')"/>
                <use id="zoomminus" xlink:href="#zoomMin" x="42" y="9" onmousedown="handleZoom(evt,'out')"/>
                <use id="reset" xlink:href="#resetDef" x="30" y="36" onmousedown="handleReset()"/>
                <g id="arrowUp" xlink:href="#dirArrow" transform="translate(30 24)" onmousedown="handlePan(0,-1)">
                  <use xlink:href="#rim" fill="#404040">
                        <set attributeName="fill" to="#808080" begin="arrowUp.mouseover" end="arrowUp.mouseout"/>
                  </use>
                  <path fill="none" stroke="white" stroke-width="1.5" d="M0,-3.0v7 M-2.5,-0.5L0,-3.0L2.5,-0.5"/>
                </g>
                <g id="arrowRight" xlink:href="#dirArrow" transform="rotate(90) translate(36 -43)" onmousedown="handlePan(1,0)">
                  <use xlink:href="#rim" fill="#404040">
                        <set attributeName="fill" to="#808080" begin="arrowRight.mouseover" end="arrowRight.mouseout"/>
                  </use>
                  <path fill="none" stroke="white" stroke-width="1.5" d="M0,-3.0v7 M-2.5,-0.5L0,-3.0L2.5,-0.5"/>
                </g>
                <g id="arrowDown" xlink:href="#dirArrow" transform="rotate(180) translate(-30 -48)" onmousedown="handlePan(0,1)">
                  <use xlink:href="#rim" fill="#404040">
                        <set attributeName="fill" to="#808080" begin="arrowDown.mouseover" end="arrowDown.mouseout"/>
                  </use>
                  <path fill="none" stroke="white" stroke-width="1.5" d="M0,-3.0v7 M-2.5,-0.5L0,-3.0L2.5,-0.5"/>
                </g>
                <g id="arrowLeft" xlink:href="#dirArrow" transform="rotate(270) translate(-36 17)" onmousedown="handlePan(-1,0)">
                  <use xlink:href="#rim" fill="#404040">
                        <set attributeName="fill" to="#808080" begin="arrowLeft.mouseover" end="arrowLeft.mouseout"/>
                  </use>
                  <path fill="none" stroke="white" stroke-width="1.5" d="M0,-3.0v7 M-2.5,-0.5L0,-3.0L2.5,-0.5"/>
                </g>
        </g>
        <svg viewBox="0 0 15 15" width="100%" height="30px" preserveAspectRatio="xMaxYMin meet">
         <g id="arrow_out" transform="scale(0.3 0.3)">
          <a xlink:href="classSPI__wxgui_ae6c37605751d4cbe1f97f4b831aed102_icgraph_org.svg" target="_base">
           <rect id="button" ry="5" rx="5" y="6" x="6" height="38" width="38"
                fill="#f2f5e9" fill-opacity="0.5" stroke="#606060" stroke-width="1.0"/>
           <path id="arrow"
             d="M 11.500037,31.436501 C 11.940474,20.09759 22.043105,11.32322 32.158766,21.979434 L 37.068811,17.246167 C 37.068811,17.246167 37.088388,32 37.088388,32 L 22.160133,31.978069 C 22.160133,31.978069 26.997745,27.140456 26.997745,27.140456 C 18.528582,18.264221 13.291696,25.230495 11.500037,31.436501 z"
             style="fill:#404040;"/>
          </a>
         </g>
        </svg>
</svg>
