<?xml version="1.0" encoding="UTF-8" standalone="no"?>
<!DOCTYPE svg PUBLIC "-//W3C//DTD SVG 1.1//EN"
 "http://www.w3.org/Graphics/SVG/1.1/DTD/svg11.dtd">
<!-- Generated by graphviz version 2.38.0 (20140413.2041)
 -->
<!-- Title: SetExtLoopback Pages: 1 -->
<!--zoomable 295 -->
<svg id="main" version="1.1" xmlns="http://www.w3.org/2000/svg" xmlns:xlink="http://www.w3.org/1999/xlink" xml:space="preserve" onload="init(evt)">
<style type="text/css"><![CDATA[
.edge:hover path { stroke: red; }
.edge:hover polygon { stroke: red; fill: red; }
]]></style>
<script type="text/javascript"><![CDATA[
var edges = document.getElementsByTagName('g');
if (edges && edges.length) {
  for (var i=0;i<edges.length;i++) {
    if (edges[i].id.substr(0,4)=='edge') {
      edges[i].setAttribute('class','edge');
    }
  }
}
]]></script>
        <defs>
                <circle id="rim" cx="0" cy="0" r="7"/>
                <circle id="rim2" cx="0" cy="0" r="3.5"/>
                <g id="zoomPlus">
                        <use xlink:href="#rim" fill="#404040">
                                <set attributeName="fill" to="#808080" begin="zoomplus.mouseover" end="zoomplus.mouseout"/>
                        </use>
                        <path d="M-4,0h8M0,-4v8" fill="none" stroke="white" stroke-width="1.5" pointer-events="none"/>
                </g>
                <g id="zoomMin">
                        <use xlink:href="#rim" fill="#404040">
                                <set attributeName="fill" to="#808080" begin="zoomminus.mouseover" end="zoomminus.mouseout"/>
                        </use>
                        <path d="M-4,0h8" fill="none" stroke="white" stroke-width="1.5" pointer-events="none"/>
                </g>
                <g id="dirArrow">
                        <path fill="none" stroke="white" stroke-width="1.5" d="M0,-3.0v7 M-2.5,-0.5L0,-3.0L2.5,-0.5"/>
                </g>
               <g id="resetDef">
                       <use xlink:href="#rim2" fill="#404040">
                               <set attributeName="fill" to="#808080" begin="reset.mouseover" end="reset.mouseout"/>
                       </use>
               </g>
        </defs>

<script type="text/javascript">
var viewWidth = 644;
var viewHeight = 295;
var sectionId = 'dynsection-5';
</script>
<script xlink:href="../../svgpan.js"/>
<svg id="graph" class="graph">
<g id="viewport">
<title>SetExtLoopback</title>
<polygon fill="white" stroke="none" points="-4,4 -4,-290.5 640,-290.5 640,4 -4,4"/>
<!-- Node1 -->
<g id="node1" class="node"><title>Node1</title>
<polygon fill="#bfbfbf" stroke="black" points="0,-118 0,-137 89,-137 89,-118 0,-118"/>
<text text-anchor="middle" x="44.5" y="-125" font-family="Helvetica,sans-Serif" font-size="10.00">SetExtLoopback</text>
</g>
<!-- Node2 -->
<g id="node2" class="node"><title>Node2</title>
<g id="a_node2"><a xlink:href="../../d2/de5/classlime_1_1IConnection.html#a80aa127bb4300c5edc0b741ff3af97b7" target="_top" xlink:title="lime::IConnection::\lGetDeviceInfo">
<polygon fill="white" stroke="black" points="128.5,-225.5 128.5,-255.5 227.5,-255.5 227.5,-225.5 128.5,-225.5"/>
<text text-anchor="start" x="136.5" y="-243.5" font-family="Helvetica,sans-Serif" font-size="10.00">lime::IConnection::</text>
<text text-anchor="middle" x="178" y="-232.5" font-family="Helvetica,sans-Serif" font-size="10.00">GetDeviceInfo</text>
</a>
</g>
</g>
<!-- Node1&#45;&gt;Node2 -->
<g id="edge1" class="edge"><title>Node1&#45;&gt;Node2</title>
<path fill="none" stroke="midnightblue" d="M53.1001,-137.057C66.4444,-153.439 95.4833,-187.35 125,-210.5 129.305,-213.877 134.032,-217.13 138.826,-220.169"/>
<polygon fill="midnightblue" stroke="midnightblue" points="137.083,-223.206 147.451,-225.387 140.707,-217.216 137.083,-223.206"/>
</g>
<!-- Node5 -->
<g id="node5" class="node"><title>Node5</title>
<g id="a_node5"><a xlink:href="../../d5/d6c/namespacelime.html#a3a1fa645a1d28f577ef2be92471421c2" target="_top" xlink:title="lime::GetDeviceName">
<polygon fill="white" stroke="black" points="287.5,-188 287.5,-207 400.5,-207 400.5,-188 287.5,-188"/>
<text text-anchor="middle" x="344" y="-195" font-family="Helvetica,sans-Serif" font-size="10.00">lime::GetDeviceName</text>
</a>
</g>
</g>
<!-- Node1&#45;&gt;Node5 -->
<g id="edge6" class="edge"><title>Node1&#45;&gt;Node5</title>
<path fill="none" stroke="midnightblue" d="M57.2815,-137.198C72.0768,-148.772 98.7198,-167.668 125,-176.5 174.32,-193.074 233.202,-197.93 277.331,-198.859"/>
<polygon fill="midnightblue" stroke="midnightblue" points="277.313,-202.359 287.364,-199.008 277.417,-195.36 277.313,-202.359"/>
</g>
<!-- Node7 -->
<g id="node7" class="node"><title>Node7</title>
<g id="a_node7"><a xlink:href="../../d2/de5/classlime_1_1IConnection.html#a19573cf864645415907886dd71f8d020" target="_top" xlink:title="lime::IConnection::\lReadLMS7002MSPI">
<polygon fill="white" stroke="black" points="125,-137.5 125,-167.5 231,-167.5 231,-137.5 125,-137.5"/>
<text text-anchor="start" x="133" y="-155.5" font-family="Helvetica,sans-Serif" font-size="10.00">lime::IConnection::</text>
<text text-anchor="middle" x="178" y="-144.5" font-family="Helvetica,sans-Serif" font-size="10.00">ReadLMS7002MSPI</text>
</a>
</g>
</g>
<!-- Node1&#45;&gt;Node7 -->
<g id="edge7" class="edge"><title>Node1&#45;&gt;Node7</title>
<path fill="none" stroke="midnightblue" d="M89.2876,-135.825C97.4501,-137.376 106.123,-139.025 114.716,-140.659"/>
<polygon fill="midnightblue" stroke="midnightblue" points="114.255,-144.134 124.733,-142.563 115.562,-137.257 114.255,-144.134"/>
</g>
<!-- Node8 -->
<g id="node8" class="node"><title>Node8</title>
<g id="a_node8"><a xlink:href="../../d2/de5/classlime_1_1IConnection.html#a791c33a7557f750c82ffc001f0fcb5ff" target="_top" xlink:title="Read a single device register. ">
<polygon fill="white" stroke="black" points="128.5,-88.5 128.5,-118.5 227.5,-118.5 227.5,-88.5 128.5,-88.5"/>
<text text-anchor="start" x="136.5" y="-106.5" font-family="Helvetica,sans-Serif" font-size="10.00">lime::IConnection::</text>
<text text-anchor="middle" x="178" y="-95.5" font-family="Helvetica,sans-Serif" font-size="10.00">ReadRegister</text>
</a>
</g>
</g>
<!-- Node1&#45;&gt;Node8 -->
<g id="edge8" class="edge"><title>Node1&#45;&gt;Node8</title>
<path fill="none" stroke="midnightblue" d="M89.2876,-119.508C98.6035,-117.808 108.584,-115.987 118.353,-114.204"/>
<polygon fill="midnightblue" stroke="midnightblue" points="119.21,-117.605 128.42,-112.366 117.954,-110.719 119.21,-117.605"/>
</g>
<!-- Node9 -->
<g id="node9" class="node"><title>Node9</title>
<g id="a_node9"><a xlink:href="../../d5/d6c/namespacelime.html#adc6af0cf8e0a70f3ef09fac1244f8c48" target="_top" xlink:title="lime::ReportError">
<polygon fill="white" stroke="black" points="457,-28 457,-47 548,-47 548,-28 457,-28"/>
<text text-anchor="middle" x="502.5" y="-35" font-family="Helvetica,sans-Serif" font-size="10.00">lime::ReportError</text>
</a>
</g>
</g>
<!-- Node1&#45;&gt;Node9 -->
<g id="edge9" class="edge"><title>Node1&#45;&gt;Node9</title>
<path fill="none" stroke="midnightblue" d="M57.2998,-117.856C72.1136,-106.336 98.7752,-87.4948 125,-78.5 183.106,-58.5705 356.966,-45.8914 446.65,-40.4959"/>
<polygon fill="midnightblue" stroke="midnightblue" points="447.119,-43.9744 456.894,-39.8893 446.705,-36.9866 447.119,-43.9744"/>
</g>
<!-- Node11 -->
<g id="node11" class="node"><title>Node11</title>
<g id="a_node11"><a xlink:href="../../d2/de5/classlime_1_1IConnection.html#a039c7086b4261a12e5ee7a5f269e63ae" target="_top" xlink:title="Write a single device register. ">
<polygon fill="white" stroke="black" points="128.5,-0.5 128.5,-30.5 227.5,-30.5 227.5,-0.5 128.5,-0.5"/>
<text text-anchor="start" x="136.5" y="-18.5" font-family="Helvetica,sans-Serif" font-size="10.00">lime::IConnection::</text>
<text text-anchor="middle" x="178" y="-7.5" font-family="Helvetica,sans-Serif" font-size="10.00">WriteRegister</text>
</a>
</g>
</g>
<!-- Node1&#45;&gt;Node11 -->
<g id="edge11" class="edge"><title>Node1&#45;&gt;Node11</title>
<path fill="none" stroke="midnightblue" d="M53.3393,-117.808C66.8152,-101.542 95.7551,-68.2946 125,-45.5 129.316,-42.1362 134.048,-38.8903 138.845,-35.8556"/>
<polygon fill="midnightblue" stroke="midnightblue" points="140.725,-38.809 147.473,-30.641 137.104,-32.8182 140.725,-38.809"/>
</g>
<!-- Node3 -->
<g id="node3" class="node"><title>Node3</title>
<g id="a_node3"><a xlink:href="../../d5/d6c/namespacelime.html#af0395b1ab55d42fb76210f0cd9a44a6f" target="_top" xlink:title="Log an information message with formatting. ">
<polygon fill="white" stroke="black" points="316,-267 316,-286 372,-286 372,-267 316,-267"/>
<text text-anchor="middle" x="344" y="-274" font-family="Helvetica,sans-Serif" font-size="10.00">lime::info</text>
</a>
</g>
</g>
<!-- Node2&#45;&gt;Node3 -->
<g id="edge2" class="edge"><title>Node2&#45;&gt;Node3</title>
<path fill="none" stroke="midnightblue" d="M227.761,-251.204C252.765,-256.692 282.731,-263.27 305.838,-268.343"/>
<polygon fill="midnightblue" stroke="midnightblue" points="305.09,-271.762 315.608,-270.487 306.591,-264.924 305.09,-271.762"/>
</g>
<!-- Node2&#45;&gt;Node5 -->
<g id="edge4" class="edge"><title>Node2&#45;&gt;Node5</title>
<path fill="none" stroke="midnightblue" d="M227.761,-227.715C249.606,-221.987 275.239,-215.267 296.777,-209.62"/>
<polygon fill="midnightblue" stroke="midnightblue" points="297.885,-212.947 306.67,-207.026 296.109,-206.176 297.885,-212.947"/>
</g>
<!-- Node6 -->
<g id="node6" class="node"><title>Node6</title>
<g id="a_node6"><a xlink:href="../../d5/d6c/namespacelime.html#a076efa9b9d3d7a72bf71dcaa469ccf26" target="_top" xlink:title="lime::GetExpansionBoardName">
<polygon fill="white" stroke="black" points="267,-229 267,-248 421,-248 421,-229 267,-229"/>
<text text-anchor="middle" x="344" y="-236" font-family="Helvetica,sans-Serif" font-size="10.00">lime::GetExpansionBoardName</text>
</a>
</g>
</g>
<!-- Node2&#45;&gt;Node6 -->
<g id="edge5" class="edge"><title>Node2&#45;&gt;Node6</title>
<path fill="none" stroke="midnightblue" d="M227.761,-239.905C236.871,-239.794 246.64,-239.675 256.496,-239.555"/>
<polygon fill="midnightblue" stroke="midnightblue" points="256.818,-243.051 266.775,-239.43 256.733,-236.052 256.818,-243.051"/>
</g>
<!-- Node4 -->
<g id="node4" class="node"><title>Node4</title>
<g id="a_node4"><a xlink:href="../../d5/d6c/namespacelime.html#abec841ac666fc9321a10e1881cff2da0" target="_top" xlink:title="Log a message with formatting and specified logging level. ">
<polygon fill="white" stroke="black" points="476,-267 476,-286 529,-286 529,-267 476,-267"/>
<text text-anchor="middle" x="502.5" y="-274" font-family="Helvetica,sans-Serif" font-size="10.00">lime::log</text>
</a>
</g>
</g>
<!-- Node3&#45;&gt;Node4 -->
<g id="edge3" class="edge"><title>Node3&#45;&gt;Node4</title>
<path fill="none" stroke="midnightblue" d="M372.26,-276.5C398.119,-276.5 437.137,-276.5 465.535,-276.5"/>
<polygon fill="midnightblue" stroke="midnightblue" points="465.849,-280 475.849,-276.5 465.849,-273 465.849,-280"/>
</g>
<!-- Node10 -->
<g id="node10" class="node"><title>Node10</title>
<g id="a_node10"><a xlink:href="../../d9/df5/Logger_8cpp.html#ada38bf01d6d691de953ed69268ea6516" target="_top" xlink:title="errToStr">
<polygon fill="white" stroke="black" points="584,-28 584,-47 636,-47 636,-28 584,-28"/>
<text text-anchor="middle" x="610" y="-35" font-family="Helvetica,sans-Serif" font-size="10.00">errToStr</text>
</a>
</g>
</g>
<!-- Node9&#45;&gt;Node10 -->
<g id="edge10" class="edge"><title>Node9&#45;&gt;Node10</title>
<path fill="none" stroke="midnightblue" d="M548.241,-37.5C556.676,-37.5 565.39,-37.5 573.494,-37.5"/>
<polygon fill="midnightblue" stroke="midnightblue" points="573.722,-41.0001 583.722,-37.5 573.722,-34.0001 573.722,-41.0001"/>
</g>
<!-- Node12 -->
<g id="node12" class="node"><title>Node12</title>
<g id="a_node12"><a xlink:href="../../d2/de5/classlime_1_1IConnection.html#a29486e2fa70f0a6005083660d5871454" target="_top" xlink:title="Bulk write device registers. ">
<polygon fill="white" stroke="black" points="294.5,-0.5 294.5,-30.5 393.5,-30.5 393.5,-0.5 294.5,-0.5"/>
<text text-anchor="start" x="302.5" y="-18.5" font-family="Helvetica,sans-Serif" font-size="10.00">lime::IConnection::</text>
<text text-anchor="middle" x="344" y="-7.5" font-family="Helvetica,sans-Serif" font-size="10.00">WriteRegisters</text>
</a>
</g>
</g>
<!-- Node11&#45;&gt;Node12 -->
<g id="edge12" class="edge"><title>Node11&#45;&gt;Node12</title>
<path fill="none" stroke="midnightblue" d="M227.761,-15.5C245.527,-15.5 265.798,-15.5 284.334,-15.5"/>
<polygon fill="midnightblue" stroke="midnightblue" points="284.427,-19.0001 294.427,-15.5 284.426,-12.0001 284.427,-19.0001"/>
</g>
<!-- Node12&#45;&gt;Node9 -->
<g id="edge13" class="edge"><title>Node12&#45;&gt;Node9</title>
<path fill="none" stroke="midnightblue" d="M393.66,-22.3403C410.536,-24.7128 429.567,-27.388 446.891,-29.8233"/>
<polygon fill="midnightblue" stroke="midnightblue" points="446.475,-33.2991 456.864,-31.2254 447.449,-26.3673 446.475,-33.2991"/>
</g>
</g>
</svg>
        <g id="navigator" transform="translate(0 0)" fill="#404254">
                <rect fill="#f2f5e9" fill-opacity="0.5" stroke="#606060" stroke-width=".5" x="0" y="0" width="60" height="60"/>
                <use id="zoomplus" xlink:href="#zoomPlus" x="17" y="9" onmousedown="handleZoom(evt,'in')"/>
                <use id="zoomminus" xlink:href="#zoomMin" x="42" y="9" onmousedown="handleZoom(evt,'out')"/>
                <use id="reset" xlink:href="#resetDef" x="30" y="36" onmousedown="handleReset()"/>
                <g id="arrowUp" xlink:href="#dirArrow" transform="translate(30 24)" onmousedown="handlePan(0,-1)">
                  <use xlink:href="#rim" fill="#404040">
                        <set attributeName="fill" to="#808080" begin="arrowUp.mouseover" end="arrowUp.mouseout"/>
                  </use>
                  <path fill="none" stroke="white" stroke-width="1.5" d="M0,-3.0v7 M-2.5,-0.5L0,-3.0L2.5,-0.5"/>
                </g>
                <g id="arrowRight" xlink:href="#dirArrow" transform="rotate(90) translate(36 -43)" onmousedown="handlePan(1,0)">
                  <use xlink:href="#rim" fill="#404040">
                        <set attributeName="fill" to="#808080" begin="arrowRight.mouseover" end="arrowRight.mouseout"/>
                  </use>
                  <path fill="none" stroke="white" stroke-width="1.5" d="M0,-3.0v7 M-2.5,-0.5L0,-3.0L2.5,-0.5"/>
                </g>
                <g id="arrowDown" xlink:href="#dirArrow" transform="rotate(180) translate(-30 -48)" onmousedown="handlePan(0,1)">
                  <use xlink:href="#rim" fill="#404040">
                        <set attributeName="fill" to="#808080" begin="arrowDown.mouseover" end="arrowDown.mouseout"/>
                  </use>
                  <path fill="none" stroke="white" stroke-width="1.5" d="M0,-3.0v7 M-2.5,-0.5L0,-3.0L2.5,-0.5"/>
                </g>
                <g id="arrowLeft" xlink:href="#dirArrow" transform="rotate(270) translate(-36 17)" onmousedown="handlePan(-1,0)">
                  <use xlink:href="#rim" fill="#404040">
                        <set attributeName="fill" to="#808080" begin="arrowLeft.mouseover" end="arrowLeft.mouseout"/>
                  </use>
                  <path fill="none" stroke="white" stroke-width="1.5" d="M0,-3.0v7 M-2.5,-0.5L0,-3.0L2.5,-0.5"/>
                </g>
        </g>
        <svg viewBox="0 0 15 15" width="100%" height="30px" preserveAspectRatio="xMaxYMin meet">
         <g id="arrow_out" transform="scale(0.3 0.3)">
          <a xlink:href="LMS7002M__RxTxCalibrations_8cpp_a6b3de4343e7fdcbfb5bc8cf53d5a5ea6_cgraph_org.svg" target="_base">
           <rect id="button" ry="5" rx="5" y="6" x="6" height="38" width="38"
                fill="#f2f5e9" fill-opacity="0.5" stroke="#606060" stroke-width="1.0"/>
           <path id="arrow"
             d="M 11.500037,31.436501 C 11.940474,20.09759 22.043105,11.32322 32.158766,21.979434 L 37.068811,17.246167 C 37.068811,17.246167 37.088388,32 37.088388,32 L 22.160133,31.978069 C 22.160133,31.978069 26.997745,27.140456 26.997745,27.140456 C 18.528582,18.264221 13.291696,25.230495 11.500037,31.436501 z"
             style="fill:#404040;"/>
          </a>
         </g>
        </svg>
</svg>
