<?xml version="1.0" encoding="UTF-8" standalone="no"?>
<!DOCTYPE svg PUBLIC "-//W3C//DTD SVG 1.1//EN"
 "http://www.w3.org/Graphics/SVG/1.1/DTD/svg11.dtd">
<!-- Generated by graphviz version 2.38.0 (20140413.2041)
 -->
<!-- Title: CalibrateRxDCAuto Pages: 1 -->
<!--zoomable 269 -->
<svg id="main" version="1.1" xmlns="http://www.w3.org/2000/svg" xmlns:xlink="http://www.w3.org/1999/xlink" xml:space="preserve" onload="init(evt)">
<style type="text/css"><![CDATA[
.edge:hover path { stroke: red; }
.edge:hover polygon { stroke: red; fill: red; }
]]></style>
<script type="text/javascript"><![CDATA[
var edges = document.getElementsByTagName('g');
if (edges && edges.length) {
  for (var i=0;i<edges.length;i++) {
    if (edges[i].id.substr(0,4)=='edge') {
      edges[i].setAttribute('class','edge');
    }
  }
}
]]></script>
        <defs>
                <circle id="rim" cx="0" cy="0" r="7"/>
                <circle id="rim2" cx="0" cy="0" r="3.5"/>
                <g id="zoomPlus">
                        <use xlink:href="#rim" fill="#404040">
                                <set attributeName="fill" to="#808080" begin="zoomplus.mouseover" end="zoomplus.mouseout"/>
                        </use>
                        <path d="M-4,0h8M0,-4v8" fill="none" stroke="white" stroke-width="1.5" pointer-events="none"/>
                </g>
                <g id="zoomMin">
                        <use xlink:href="#rim" fill="#404040">
                                <set attributeName="fill" to="#808080" begin="zoomminus.mouseover" end="zoomminus.mouseout"/>
                        </use>
                        <path d="M-4,0h8" fill="none" stroke="white" stroke-width="1.5" pointer-events="none"/>
                </g>
                <g id="dirArrow">
                        <path fill="none" stroke="white" stroke-width="1.5" d="M0,-3.0v7 M-2.5,-0.5L0,-3.0L2.5,-0.5"/>
                </g>
               <g id="resetDef">
                       <use xlink:href="#rim2" fill="#404040">
                               <set attributeName="fill" to="#808080" begin="reset.mouseover" end="reset.mouseout"/>
                       </use>
               </g>
        </defs>

<script type="text/javascript">
var viewWidth = 1061;
var viewHeight = 269;
var sectionId = 'dynsection-4';
</script>
<script xlink:href="../../svgpan.js"/>
<svg id="graph" class="graph">
<g id="viewport">
<title>CalibrateRxDCAuto</title>
<polygon fill="white" stroke="none" points="-4,4 -4,-265.34 1057,-265.34 1057,4 -4,4"/>
<!-- Node1 -->
<g id="node1" class="node"><title>Node1</title>
<polygon fill="#bfbfbf" stroke="black" points="0,-127.84 0,-146.84 104,-146.84 104,-127.84 0,-127.84"/>
<text text-anchor="middle" x="52" y="-134.84" font-family="Helvetica,sans-Serif" font-size="10.00">CalibrateRxDCAuto</text>
</g>
<!-- Node2 -->
<g id="node2" class="node"><title>Node2</title>
<g id="a_node2"><a xlink:href="../../d3/dec/lms7002m__calibrations_8c.html#a2f54f535ec2dc39eef098a41fc221952" target="_top" xlink:title="AdjustAutoDC">
<polygon fill="white" stroke="black" points="140,-89.84 140,-108.84 220,-108.84 220,-89.84 140,-89.84"/>
<text text-anchor="middle" x="180" y="-96.84" font-family="Helvetica,sans-Serif" font-size="10.00">AdjustAutoDC</text>
</a>
</g>
</g>
<!-- Node1&#45;&gt;Node2 -->
<g id="edge1" class="edge"><title>Node1&#45;&gt;Node2</title>
<path fill="none" stroke="midnightblue" d="M84.7951,-127.751C100.762,-122.936 120.307,-117.041 137.447,-111.872"/>
<polygon fill="midnightblue" stroke="midnightblue" points="138.652,-115.164 147.215,-108.926 136.63,-108.463 138.652,-115.164"/>
</g>
<!-- Node4 -->
<g id="node4" class="node"><title>Node4</title>
<g id="a_node4"><a xlink:href="../../d3/dec/lms7002m__calibrations_8c.html#ac781de973d6717ea8f84ba5d3668a9ba" target="_top" xlink:title="GetRSSI">
<polygon fill="white" stroke="black" points="270.5,-165.84 270.5,-184.84 326.5,-184.84 326.5,-165.84 270.5,-165.84"/>
<text text-anchor="middle" x="298.5" y="-172.84" font-family="Helvetica,sans-Serif" font-size="10.00">GetRSSI</text>
</a>
</g>
</g>
<!-- Node1&#45;&gt;Node4 -->
<g id="edge20" class="edge"><title>Node1&#45;&gt;Node4</title>
<path fill="none" stroke="midnightblue" d="M104.053,-145.628C115.854,-147.524 128.362,-149.517 140,-151.34 181.123,-157.782 228.324,-164.944 260.247,-169.753"/>
<polygon fill="midnightblue" stroke="midnightblue" points="260.046,-173.262 270.456,-171.289 261.088,-166.34 260.046,-173.262"/>
</g>
<!-- Node6 -->
<g id="node6" class="node"><title>Node6</title>
<g id="a_node6"><a xlink:href="../../da/d87/spi_8h.html#aaf76507507e6a960fa0c8cb26585095d" target="_top" xlink:title="Modify_SPI_Reg_bits">
<polygon fill="white" stroke="black" points="496,-241.84 496,-260.84 608,-260.84 608,-241.84 496,-241.84"/>
<text text-anchor="middle" x="552" y="-248.84" font-family="Helvetica,sans-Serif" font-size="10.00">Modify_SPI_Reg_bits</text>
</a>
</g>
</g>
<!-- Node1&#45;&gt;Node6 -->
<g id="edge21" class="edge"><title>Node1&#45;&gt;Node6</title>
<path fill="none" stroke="midnightblue" d="M64.5616,-146.932C80.4967,-159.625 110.589,-181.746 140,-193.34 255.841,-239.006 402.549,-249.449 485.68,-251.414"/>
<polygon fill="midnightblue" stroke="midnightblue" points="485.675,-254.915 495.744,-251.618 485.817,-247.916 485.675,-254.915"/>
</g>
<!-- Node12 -->
<g id="node12" class="node"><title>Node12</title>
<g id="a_node12"><a xlink:href="../../da/d87/spi_8h.html#abde20a13293589ccb0a691e2711098bf" target="_top" xlink:title="SPI_read">
<polygon fill="white" stroke="black" points="390,-127.84 390,-146.84 447,-146.84 447,-127.84 390,-127.84"/>
<text text-anchor="middle" x="418.5" y="-134.84" font-family="Helvetica,sans-Serif" font-size="10.00">SPI_read</text>
</a>
</g>
</g>
<!-- Node1&#45;&gt;Node12 -->
<g id="edge23" class="edge"><title>Node1&#45;&gt;Node12</title>
<path fill="none" stroke="midnightblue" d="M104.066,-137.34C178.119,-137.34 313.643,-137.34 379.528,-137.34"/>
<polygon fill="midnightblue" stroke="midnightblue" points="379.861,-140.84 389.861,-137.34 379.861,-133.84 379.861,-140.84"/>
</g>
<!-- Node13 -->
<g id="node13" class="node"><title>Node13</title>
<g id="a_node13"><a xlink:href="../../d3/dec/lms7002m__calibrations_8c.html#af4c134b643295eb27405135fa95fed0e" target="_top" xlink:title="ReadAnalogDC">
<polygon fill="white" stroke="black" points="256,-13.84 256,-32.84 341,-32.84 341,-13.84 256,-13.84"/>
<text text-anchor="middle" x="298.5" y="-20.84" font-family="Helvetica,sans-Serif" font-size="10.00">ReadAnalogDC</text>
</a>
</g>
</g>
<!-- Node1&#45;&gt;Node13 -->
<g id="edge22" class="edge"><title>Node1&#45;&gt;Node13</title>
<path fill="none" stroke="midnightblue" d="M65.6942,-127.656C82.1506,-115.429 112.059,-94.3098 140,-80.34 177.36,-61.661 222.381,-45.9982 254.703,-35.8475"/>
<polygon fill="midnightblue" stroke="midnightblue" points="255.785,-39.1765 264.304,-32.877 253.716,-32.4892 255.785,-39.1765"/>
</g>
<!-- Node14 -->
<g id="node14" class="node"><title>Node14</title>
<g id="a_node14"><a xlink:href="../../da/d87/spi_8h.html#ac7475dd5b46ee34421fb4cc4fb228b4d" target="_top" xlink:title="SPI_write">
<polygon fill="white" stroke="black" points="389,-13.84 389,-32.84 448,-32.84 448,-13.84 389,-13.84"/>
<text text-anchor="middle" x="418.5" y="-20.84" font-family="Helvetica,sans-Serif" font-size="10.00">SPI_write</text>
</a>
</g>
</g>
<!-- Node1&#45;&gt;Node14 -->
<g id="edge24" class="edge"><title>Node1&#45;&gt;Node14</title>
<path fill="none" stroke="midnightblue" d="M59.751,-127.569C73.0448,-109.014 104.431,-68.4679 140,-45.34 185.842,-15.5322 202.106,-13.5842 256,-4.34002 293.234,2.04654 303.502,0.246948 341,-4.34002 353.522,-5.87181 366.946,-8.76425 378.998,-11.8387"/>
<polygon fill="midnightblue" stroke="midnightblue" points="378.186,-15.2442 388.75,-14.4383 379.989,-8.48045 378.186,-15.2442"/>
</g>
<!-- Node16 -->
<g id="node16" class="node"><title>Node16</title>
<g id="a_node16"><a xlink:href="../../da/d87/spi_8h.html#a6ca6565d9a3c9b39a4ad5239f27665c7" target="_top" xlink:title="Get_SPI_Reg_bits">
<polygon fill="white" stroke="black" points="503,-203.84 503,-222.84 601,-222.84 601,-203.84 503,-203.84"/>
<text text-anchor="middle" x="552" y="-210.84" font-family="Helvetica,sans-Serif" font-size="10.00">Get_SPI_Reg_bits</text>
</a>
</g>
</g>
<!-- Node1&#45;&gt;Node16 -->
<g id="edge18" class="edge"><title>Node1&#45;&gt;Node16</title>
<path fill="none" stroke="midnightblue" d="M75.2003,-146.88C92.5859,-154.076 117.51,-163.793 140,-170.34 261.795,-205.796 411.407,-212.787 492.312,-213.72"/>
<polygon fill="midnightblue" stroke="midnightblue" points="492.755,-217.224 502.785,-213.811 492.816,-210.224 492.755,-217.224"/>
</g>
<!-- Node3 -->
<g id="node3" class="node"><title>Node3</title>
<g id="a_node3"><a xlink:href="../../d3/dec/lms7002m__calibrations_8c.html#a95a4619c54b4149b4fb43670c8467fd3" target="_top" xlink:title="clamp">
<polygon fill="white" stroke="black" points="277,-89.84 277,-108.84 320,-108.84 320,-89.84 277,-89.84"/>
<text text-anchor="middle" x="298.5" y="-96.84" font-family="Helvetica,sans-Serif" font-size="10.00">clamp</text>
</a>
</g>
</g>
<!-- Node2&#45;&gt;Node3 -->
<g id="edge2" class="edge"><title>Node2&#45;&gt;Node3</title>
<path fill="none" stroke="midnightblue" d="M220.117,-99.34C235.287,-99.34 252.406,-99.34 266.678,-99.34"/>
<polygon fill="midnightblue" stroke="midnightblue" points="266.957,-102.84 276.957,-99.34 266.957,-95.8401 266.957,-102.84"/>
</g>
<!-- Node2&#45;&gt;Node4 -->
<g id="edge3" class="edge"><title>Node2&#45;&gt;Node4</title>
<path fill="none" stroke="midnightblue" d="M195.755,-108.965C215.538,-121.871 250.872,-144.922 274.251,-160.173"/>
<polygon fill="midnightblue" stroke="midnightblue" points="272.577,-163.26 282.865,-165.793 276.402,-157.398 272.577,-163.26"/>
</g>
<!-- Node2&#45;&gt;Node13 -->
<g id="edge13" class="edge"><title>Node2&#45;&gt;Node13</title>
<path fill="none" stroke="midnightblue" d="M192.131,-89.6248C206.307,-77.5556 231.867,-56.7931 256,-42.34 258.855,-40.63 261.891,-38.9697 264.97,-37.3888"/>
<polygon fill="midnightblue" stroke="midnightblue" points="266.732,-40.4242 274.206,-32.914 263.68,-34.1247 266.732,-40.4242"/>
</g>
<!-- Node15 -->
<g id="node15" class="node"><title>Node15</title>
<g id="a_node15"><a xlink:href="../../d3/dec/lms7002m__calibrations_8c.html#a7c0cbbebceb2e3721786e9d65a5d76e9" target="_top" xlink:title="WriteAnalogDC">
<polygon fill="white" stroke="black" points="256,-51.84 256,-70.84 341,-70.84 341,-51.84 256,-51.84"/>
<text text-anchor="middle" x="298.5" y="-58.84" font-family="Helvetica,sans-Serif" font-size="10.00">WriteAnalogDC</text>
</a>
</g>
</g>
<!-- Node2&#45;&gt;Node15 -->
<g id="edge16" class="edge"><title>Node2&#45;&gt;Node15</title>
<path fill="none" stroke="midnightblue" d="M210.398,-89.751C224.885,-85.0256 242.558,-79.2612 258.189,-74.1626"/>
<polygon fill="midnightblue" stroke="midnightblue" points="259.69,-77.3545 268.112,-70.926 257.519,-70.6996 259.69,-77.3545"/>
</g>
<!-- Node5 -->
<g id="node5" class="node"><title>Node5</title>
<g id="a_node5"><a xlink:href="../../d3/dec/lms7002m__calibrations_8c.html#af20d931e0e2448c2240c95f2b4c45a86" target="_top" xlink:title="FlipRisingEdge">
<polygon fill="white" stroke="black" points="377,-165.84 377,-184.84 460,-184.84 460,-165.84 377,-165.84"/>
<text text-anchor="middle" x="418.5" y="-172.84" font-family="Helvetica,sans-Serif" font-size="10.00">FlipRisingEdge</text>
</a>
</g>
</g>
<!-- Node4&#45;&gt;Node5 -->
<g id="edge4" class="edge"><title>Node4&#45;&gt;Node5</title>
<path fill="none" stroke="midnightblue" d="M326.572,-175.34C338.392,-175.34 352.659,-175.34 366.351,-175.34"/>
<polygon fill="midnightblue" stroke="midnightblue" points="366.66,-178.84 376.66,-175.34 366.66,-171.84 366.66,-178.84"/>
</g>
<!-- Node4&#45;&gt;Node12 -->
<g id="edge12" class="edge"><title>Node4&#45;&gt;Node12</title>
<path fill="none" stroke="midnightblue" d="M326.572,-166.622C342.384,-161.53 362.575,-155.028 379.912,-149.445"/>
<polygon fill="midnightblue" stroke="midnightblue" points="381.289,-152.678 389.735,-146.281 379.144,-146.015 381.289,-152.678"/>
</g>
<!-- Node5&#45;&gt;Node6 -->
<g id="edge5" class="edge"><title>Node5&#45;&gt;Node6</title>
<path fill="none" stroke="midnightblue" d="M430.177,-184.991C444.339,-197.376 470.525,-218.866 496,-232.34 499.975,-234.443 504.231,-236.388 508.55,-238.168"/>
<polygon fill="midnightblue" stroke="midnightblue" points="507.429,-241.487 518.02,-241.797 509.934,-234.951 507.429,-241.487"/>
</g>
<!-- Node7 -->
<g id="node7" class="node"><title>Node7</title>
<g id="a_node7"><a xlink:href="../../dd/d7e/spi_8cpp.html#a7dee89a3e8018d75340f8ffd14015284" target="_top" xlink:title="SPI_read">
<polygon fill="white" stroke="black" points="645,-203.84 645,-222.84 702,-222.84 702,-203.84 645,-203.84"/>
<text text-anchor="middle" x="673.5" y="-210.84" font-family="Helvetica,sans-Serif" font-size="10.00">SPI_read</text>
</a>
</g>
</g>
<!-- Node6&#45;&gt;Node7 -->
<g id="edge6" class="edge"><title>Node6&#45;&gt;Node7</title>
<path fill="none" stroke="midnightblue" d="M583.155,-241.751C598.844,-236.762 618.175,-230.615 634.838,-225.316"/>
<polygon fill="midnightblue" stroke="midnightblue" points="636.343,-228.51 644.812,-222.145 634.222,-221.84 636.343,-228.51"/>
</g>
<!-- Node11 -->
<g id="node11" class="node"><title>Node11</title>
<g id="a_node11"><a xlink:href="../../dd/d7e/spi_8cpp.html#abf635d9f0da08fb2a479532b69852e60" target="_top" xlink:title="SPI_write">
<polygon fill="white" stroke="black" points="644,-241.84 644,-260.84 703,-260.84 703,-241.84 644,-241.84"/>
<text text-anchor="middle" x="673.5" y="-248.84" font-family="Helvetica,sans-Serif" font-size="10.00">SPI_write</text>
</a>
</g>
</g>
<!-- Node6&#45;&gt;Node11 -->
<g id="edge10" class="edge"><title>Node6&#45;&gt;Node11</title>
<path fill="none" stroke="midnightblue" d="M608.203,-251.34C616.889,-251.34 625.703,-251.34 633.907,-251.34"/>
<polygon fill="midnightblue" stroke="midnightblue" points="633.916,-254.84 643.916,-251.34 633.916,-247.84 633.916,-254.84"/>
</g>
<!-- Node8 -->
<g id="node8" class="node"><title>Node8</title>
<g id="a_node8"><a xlink:href="../../d2/de5/classlime_1_1IConnection.html#af3dfb39cc643d88c1196ded5d5cbecea" target="_top" xlink:title="Bulk SPI write/read transaction. ">
<polygon fill="white" stroke="black" points="739,-217.34 739,-247.34 838,-247.34 838,-217.34 739,-217.34"/>
<text text-anchor="start" x="747" y="-235.34" font-family="Helvetica,sans-Serif" font-size="10.00">lime::IConnection::</text>
<text text-anchor="middle" x="788.5" y="-224.34" font-family="Helvetica,sans-Serif" font-size="10.00">TransactSPI</text>
</a>
</g>
</g>
<!-- Node7&#45;&gt;Node8 -->
<g id="edge7" class="edge"><title>Node7&#45;&gt;Node8</title>
<path fill="none" stroke="midnightblue" d="M702.143,-217.988C710.3,-219.359 719.554,-220.916 728.885,-222.484"/>
<polygon fill="midnightblue" stroke="midnightblue" points="728.551,-225.977 738.993,-224.184 729.711,-219.074 728.551,-225.977"/>
</g>
<!-- Node9 -->
<g id="node9" class="node"><title>Node9</title>
<g id="a_node9"><a xlink:href="../../d5/d6c/namespacelime.html#adc6af0cf8e0a70f3ef09fac1244f8c48" target="_top" xlink:title="lime::ReportError">
<polygon fill="white" stroke="black" points="874,-222.84 874,-241.84 965,-241.84 965,-222.84 874,-222.84"/>
<text text-anchor="middle" x="919.5" y="-229.84" font-family="Helvetica,sans-Serif" font-size="10.00">lime::ReportError</text>
</a>
</g>
</g>
<!-- Node8&#45;&gt;Node9 -->
<g id="edge8" class="edge"><title>Node8&#45;&gt;Node9</title>
<path fill="none" stroke="midnightblue" d="M838.269,-232.34C846.588,-232.34 855.279,-232.34 863.74,-232.34"/>
<polygon fill="midnightblue" stroke="midnightblue" points="863.908,-235.84 873.908,-232.34 863.908,-228.84 863.908,-235.84"/>
</g>
<!-- Node10 -->
<g id="node10" class="node"><title>Node10</title>
<g id="a_node10"><a xlink:href="../../d9/df5/Logger_8cpp.html#ada38bf01d6d691de953ed69268ea6516" target="_top" xlink:title="errToStr">
<polygon fill="white" stroke="black" points="1001,-222.84 1001,-241.84 1053,-241.84 1053,-222.84 1001,-222.84"/>
<text text-anchor="middle" x="1027" y="-229.84" font-family="Helvetica,sans-Serif" font-size="10.00">errToStr</text>
</a>
</g>
</g>
<!-- Node9&#45;&gt;Node10 -->
<g id="edge9" class="edge"><title>Node9&#45;&gt;Node10</title>
<path fill="none" stroke="midnightblue" d="M965.241,-232.34C973.676,-232.34 982.39,-232.34 990.494,-232.34"/>
<polygon fill="midnightblue" stroke="midnightblue" points="990.722,-235.84 1000.72,-232.34 990.722,-228.84 990.722,-235.84"/>
</g>
<!-- Node11&#45;&gt;Node8 -->
<g id="edge11" class="edge"><title>Node11&#45;&gt;Node8</title>
<path fill="none" stroke="midnightblue" d="M703.015,-246.546C710.9,-245.22 719.759,-243.73 728.695,-242.228"/>
<polygon fill="midnightblue" stroke="midnightblue" points="729.487,-245.644 738.768,-240.534 728.326,-238.741 729.487,-245.644"/>
</g>
<!-- Node13&#45;&gt;Node12 -->
<g id="edge14" class="edge"><title>Node13&#45;&gt;Node12</title>
<path fill="none" stroke="midnightblue" d="M325.584,-33.036C330.951,-35.6333 336.372,-38.7397 341,-42.34 369.119,-64.2132 393.318,-98.3651 406.606,-119.211"/>
<polygon fill="midnightblue" stroke="midnightblue" points="403.667,-121.114 411.918,-127.761 409.613,-117.42 403.667,-121.114"/>
</g>
<!-- Node13&#45;&gt;Node14 -->
<g id="edge15" class="edge"><title>Node13&#45;&gt;Node14</title>
<path fill="none" stroke="midnightblue" d="M341.102,-23.34C353.317,-23.34 366.623,-23.34 378.658,-23.34"/>
<polygon fill="midnightblue" stroke="midnightblue" points="378.847,-26.8401 388.847,-23.34 378.847,-19.8401 378.847,-26.8401"/>
</g>
<!-- Node15&#45;&gt;Node14 -->
<g id="edge17" class="edge"><title>Node15&#45;&gt;Node14</title>
<path fill="none" stroke="midnightblue" d="M329.276,-51.751C344.429,-46.8713 363.022,-40.8837 379.226,-35.6655"/>
<polygon fill="midnightblue" stroke="midnightblue" points="380.509,-38.9296 388.954,-32.5327 378.363,-32.2666 380.509,-38.9296"/>
</g>
<!-- Node16&#45;&gt;Node7 -->
<g id="edge19" class="edge"><title>Node16&#45;&gt;Node7</title>
<path fill="none" stroke="midnightblue" d="M601.261,-213.34C612.338,-213.34 623.962,-213.34 634.532,-213.34"/>
<polygon fill="midnightblue" stroke="midnightblue" points="634.692,-216.84 644.692,-213.34 634.692,-209.84 634.692,-216.84"/>
</g>
</g>
</svg>
        <g id="navigator" transform="translate(0 0)" fill="#404254">
                <rect fill="#f2f5e9" fill-opacity="0.5" stroke="#606060" stroke-width=".5" x="0" y="0" width="60" height="60"/>
                <use id="zoomplus" xlink:href="#zoomPlus" x="17" y="9" onmousedown="handleZoom(evt,'in')"/>
                <use id="zoomminus" xlink:href="#zoomMin" x="42" y="9" onmousedown="handleZoom(evt,'out')"/>
                <use id="reset" xlink:href="#resetDef" x="30" y="36" onmousedown="handleReset()"/>
                <g id="arrowUp" xlink:href="#dirArrow" transform="translate(30 24)" onmousedown="handlePan(0,-1)">
                  <use xlink:href="#rim" fill="#404040">
                        <set attributeName="fill" to="#808080" begin="arrowUp.mouseover" end="arrowUp.mouseout"/>
                  </use>
                  <path fill="none" stroke="white" stroke-width="1.5" d="M0,-3.0v7 M-2.5,-0.5L0,-3.0L2.5,-0.5"/>
                </g>
                <g id="arrowRight" xlink:href="#dirArrow" transform="rotate(90) translate(36 -43)" onmousedown="handlePan(1,0)">
                  <use xlink:href="#rim" fill="#404040">
                        <set attributeName="fill" to="#808080" begin="arrowRight.mouseover" end="arrowRight.mouseout"/>
                  </use>
                  <path fill="none" stroke="white" stroke-width="1.5" d="M0,-3.0v7 M-2.5,-0.5L0,-3.0L2.5,-0.5"/>
                </g>
                <g id="arrowDown" xlink:href="#dirArrow" transform="rotate(180) translate(-30 -48)" onmousedown="handlePan(0,1)">
                  <use xlink:href="#rim" fill="#404040">
                        <set attributeName="fill" to="#808080" begin="arrowDown.mouseover" end="arrowDown.mouseout"/>
                  </use>
                  <path fill="none" stroke="white" stroke-width="1.5" d="M0,-3.0v7 M-2.5,-0.5L0,-3.0L2.5,-0.5"/>
                </g>
                <g id="arrowLeft" xlink:href="#dirArrow" transform="rotate(270) translate(-36 17)" onmousedown="handlePan(-1,0)">
                  <use xlink:href="#rim" fill="#404040">
                        <set attributeName="fill" to="#808080" begin="arrowLeft.mouseover" end="arrowLeft.mouseout"/>
                  </use>
                  <path fill="none" stroke="white" stroke-width="1.5" d="M0,-3.0v7 M-2.5,-0.5L0,-3.0L2.5,-0.5"/>
                </g>
        </g>
        <svg viewBox="0 0 15 15" width="100%" height="30px" preserveAspectRatio="xMaxYMin meet">
         <g id="arrow_out" transform="scale(0.3 0.3)">
          <a xlink:href="lms7002m__calibrations_8h_a7c0a6f483692ebbddb2c412f3908d58e_cgraph_org.svg" target="_base">
           <rect id="button" ry="5" rx="5" y="6" x="6" height="38" width="38"
                fill="#f2f5e9" fill-opacity="0.5" stroke="#606060" stroke-width="1.0"/>
           <path id="arrow"
             d="M 11.500037,31.436501 C 11.940474,20.09759 22.043105,11.32322 32.158766,21.979434 L 37.068811,17.246167 C 37.068811,17.246167 37.088388,32 37.088388,32 L 22.160133,31.978069 C 22.160133,31.978069 26.997745,27.140456 26.997745,27.140456 C 18.528582,18.264221 13.291696,25.230495 11.500037,31.436501 z"
             style="fill:#404040;"/>
          </a>
         </g>
        </svg>
</svg>
