<?xml version="1.0" encoding="UTF-8" standalone="no"?>
<!DOCTYPE svg PUBLIC "-//W3C//DTD SVG 1.1//EN"
 "http://www.w3.org/Graphics/SVG/1.1/DTD/svg11.dtd">
<!-- Generated by graphviz version 2.38.0 (20140413.2041)
 -->
<!-- Title: GetRSSI Pages: 1 -->
<svg width="672pt" height="439pt"
 viewBox="0.00 0.00 672.00 439.46" xmlns="http://www.w3.org/2000/svg" xmlns:xlink="http://www.w3.org/1999/xlink">
<g id="graph0" class="graph" transform="scale(1 1) rotate(0) translate(4 435.463)">
<title>GetRSSI</title>
<polygon fill="white" stroke="none" points="-4,4 -4,-435.463 668,-435.463 668,4 -4,4"/>
<!-- Node1 -->
<g id="node1" class="node"><title>Node1</title>
<polygon fill="#bfbfbf" stroke="black" points="0,-209.5 0,-228.5 56,-228.5 56,-209.5 0,-209.5"/>
<text text-anchor="middle" x="28" y="-216.5" font-family="Helvetica,sans-Serif" font-size="10.00">GetRSSI</text>
</g>
<!-- Node2 -->
<g id="node2" class="node"><title>Node2</title>
<g id="a_node2"><a xlink:href="../../d3/dec/lms7002m__calibrations_8c.html#a2f54f535ec2dc39eef098a41fc221952" target="_top" xlink:title="AdjustAutoDC">
<polygon fill="white" stroke="black" points="113.5,-114.5 113.5,-133.5 193.5,-133.5 193.5,-114.5 113.5,-114.5"/>
<text text-anchor="middle" x="153.5" y="-121.5" font-family="Helvetica,sans-Serif" font-size="10.00">AdjustAutoDC</text>
</a>
</g>
</g>
<!-- Node1&#45;&gt;Node2 -->
<g id="edge1" class="edge"><title>Node1&#45;&gt;Node2</title>
<path fill="none" stroke="midnightblue" d="M41.179,-201.047C52.6866,-185.245 71.2436,-162.548 92,-148 100.513,-142.033 110.721,-137.255 120.306,-133.583"/>
<polygon fill="midnightblue" stroke="midnightblue" points="38.1618,-199.252 35.2547,-209.44 43.8808,-203.289 38.1618,-199.252"/>
</g>
<!-- Node3 -->
<g id="node3" class="node"><title>Node3</title>
<g id="a_node3"><a xlink:href="../../d1/dc7/lms7002m__calibrations_8h.html#a7c0a6f483692ebbddb2c412f3908d58e" target="_top" xlink:title="CalibrateRxDCAuto">
<polygon fill="white" stroke="black" points="269,-152.5 269,-171.5 373,-171.5 373,-152.5 269,-152.5"/>
<text text-anchor="middle" x="321" y="-159.5" font-family="Helvetica,sans-Serif" font-size="10.00">CalibrateRxDCAuto</text>
</a>
</g>
</g>
<!-- Node1&#45;&gt;Node3 -->
<g id="edge17" class="edge"><title>Node1&#45;&gt;Node3</title>
<path fill="none" stroke="midnightblue" d="M65.9443,-211.763C118.083,-201.551 213.339,-182.892 271.234,-171.552"/>
<polygon fill="midnightblue" stroke="midnightblue" points="65.256,-208.332 56.1153,-213.689 66.6016,-215.201 65.256,-208.332"/>
</g>
<!-- Node10 -->
<g id="node10" class="node"><title>Node10</title>
<g id="a_node10"><a xlink:href="../../d3/dec/lms7002m__calibrations_8c.html#af968f74e152b5b46aab9c0318d0e1de5" target="_top" xlink:title="BinarySearch">
<polygon fill="white" stroke="black" points="116,-38.5 116,-57.5 191,-57.5 191,-38.5 116,-38.5"/>
<text text-anchor="middle" x="153.5" y="-45.5" font-family="Helvetica,sans-Serif" font-size="10.00">BinarySearch</text>
</a>
</g>
</g>
<!-- Node1&#45;&gt;Node10 -->
<g id="edge12" class="edge"><title>Node1&#45;&gt;Node10</title>
<path fill="none" stroke="midnightblue" d="M32.4209,-199.294C38.7942,-168.218 55.3144,-107.7 92,-72 98.6405,-65.5379 107.234,-60.7532 115.849,-57.2343"/>
<polygon fill="midnightblue" stroke="midnightblue" points="28.9461,-198.832 30.5135,-209.311 35.8225,-200.142 28.9461,-198.832"/>
</g>
<!-- Node11 -->
<g id="node11" class="node"><title>Node11</title>
<g id="a_node11"><a xlink:href="../../d3/dec/lms7002m__calibrations_8c.html#a6af7d7b5195308346d2ceeba3a7958e4" target="_top" xlink:title="CalibrateIQImbalance">
<polygon fill="white" stroke="black" points="265.5,-95.5 265.5,-114.5 376.5,-114.5 376.5,-95.5 265.5,-95.5"/>
<text text-anchor="middle" x="321" y="-102.5" font-family="Helvetica,sans-Serif" font-size="10.00">CalibrateIQImbalance</text>
</a>
</g>
</g>
<!-- Node1&#45;&gt;Node11 -->
<g id="edge16" class="edge"><title>Node1&#45;&gt;Node11</title>
<path fill="none" stroke="midnightblue" d="M33.2768,-199.584C40.3368,-172.798 57.2505,-125.499 92,-105 153.368,-68.7985 241.157,-83.5053 287.873,-95.4282"/>
<polygon fill="midnightblue" stroke="midnightblue" points="29.8607,-198.82 30.8989,-209.363 36.6625,-200.474 29.8607,-198.82"/>
</g>
<!-- Node12 -->
<g id="node12" class="node"><title>Node12</title>
<g id="a_node12"><a xlink:href="../../d3/dec/lms7002m__calibrations_8c.html#aa026f3df786068d9f328b676c496c5f2" target="_top" xlink:title="CalibrateTxDCAuto">
<polygon fill="white" stroke="black" points="270,-209.5 270,-228.5 372,-228.5 372,-209.5 270,-209.5"/>
<text text-anchor="middle" x="321" y="-216.5" font-family="Helvetica,sans-Serif" font-size="10.00">CalibrateTxDCAuto</text>
</a>
</g>
</g>
<!-- Node1&#45;&gt;Node12 -->
<g id="edge18" class="edge"><title>Node1&#45;&gt;Node12</title>
<path fill="none" stroke="midnightblue" d="M66.1932,-219C117.985,-219 211.974,-219 269.897,-219"/>
<polygon fill="midnightblue" stroke="midnightblue" points="66.1153,-215.5 56.1153,-219 66.1152,-222.5 66.1153,-215.5"/>
</g>
<!-- Node13 -->
<g id="node13" class="node"><title>Node13</title>
<g id="a_node13"><a xlink:href="../../d2/da6/lms7002m__filters_8c.html#a4e71f9b215d593ff792a55f14efa8427" target="_top" xlink:title="ChangeUntilReachRSSI">
<polygon fill="white" stroke="black" points="92,-342.5 92,-361.5 215,-361.5 215,-342.5 92,-342.5"/>
<text text-anchor="middle" x="153.5" y="-349.5" font-family="Helvetica,sans-Serif" font-size="10.00">ChangeUntilReachRSSI</text>
</a>
</g>
</g>
<!-- Node1&#45;&gt;Node13 -->
<g id="edge20" class="edge"><title>Node1&#45;&gt;Node13</title>
<path fill="none" stroke="midnightblue" d="M35.4922,-238.007C44.5946,-262.034 63.3208,-303.24 92,-328 99.1846,-334.203 108.168,-338.919 116.996,-342.456"/>
<polygon fill="midnightblue" stroke="midnightblue" points="38.7746,-236.791 32.0824,-228.577 32.1918,-239.172 38.7746,-236.791"/>
</g>
<!-- Node14 -->
<g id="node14" class="node"><title>Node14</title>
<g id="a_node14"><a xlink:href="../../d8/d1f/lms7002m__filters_8h.html#a9424d257383be4943c2846bb47253bf3" target="_top" xlink:title="TuneRxFilter">
<polygon fill="white" stroke="black" points="284.5,-380.5 284.5,-399.5 357.5,-399.5 357.5,-380.5 284.5,-380.5"/>
<text text-anchor="middle" x="321" y="-387.5" font-family="Helvetica,sans-Serif" font-size="10.00">TuneRxFilter</text>
</a>
</g>
</g>
<!-- Node1&#45;&gt;Node14 -->
<g id="edge37" class="edge"><title>Node1&#45;&gt;Node14</title>
<path fill="none" stroke="midnightblue" d="M28.6581,-238.785C29.1755,-278.841 36.7452,-369.108 92,-409 155.765,-455.036 257.284,-418.494 300.012,-399.573"/>
<polygon fill="midnightblue" stroke="midnightblue" points="32.1581,-238.698 28.6687,-228.694 25.1581,-238.69 32.1581,-238.698"/>
</g>
<!-- Node16 -->
<g id="node16" class="node"><title>Node16</title>
<g id="a_node16"><a xlink:href="../../d2/da6/lms7002m__filters_8c.html#aa9caab5ff4ebdb1cec1517f380af23d6" target="_top" xlink:title="SearchTxFilterCCAL_RCAL">
<polygon fill="white" stroke="black" points="251,-304.5 251,-323.5 391,-323.5 391,-304.5 251,-304.5"/>
<text text-anchor="middle" x="321" y="-311.5" font-family="Helvetica,sans-Serif" font-size="10.00">SearchTxFilterCCAL_RCAL</text>
</a>
</g>
</g>
<!-- Node1&#45;&gt;Node16 -->
<g id="edge36" class="edge"><title>Node1&#45;&gt;Node16</title>
<path fill="none" stroke="midnightblue" d="M42.0684,-237.095C53.5209,-251.485 71.5089,-270.833 92,-281 141.443,-305.531 203.834,-313.204 250.847,-315.066"/>
<polygon fill="midnightblue" stroke="midnightblue" points="44.6664,-234.73 35.8183,-228.903 39.101,-238.976 44.6664,-234.73"/>
</g>
<!-- Node18 -->
<g id="node18" class="node"><title>Node18</title>
<g id="a_node18"><a xlink:href="../../d3/dec/lms7002m__calibrations_8c.html#a3c09e7c416b748a881c1be540feddf48" target="_top" xlink:title="CheckSaturationRx">
<polygon fill="white" stroke="black" points="102.5,-0.5 102.5,-19.5 204.5,-19.5 204.5,-0.5 102.5,-0.5"/>
<text text-anchor="middle" x="153.5" y="-7.5" font-family="Helvetica,sans-Serif" font-size="10.00">CheckSaturationRx</text>
</a>
</g>
</g>
<!-- Node1&#45;&gt;Node18 -->
<g id="edge30" class="edge"><title>Node1&#45;&gt;Node18</title>
<path fill="none" stroke="midnightblue" d="M29.8821,-198.71C32.6612,-160.175 44.1905,-76.0565 92,-29 95.9231,-25.1387 100.622,-22.0609 105.643,-19.6078"/>
<polygon fill="midnightblue" stroke="midnightblue" points="26.3634,-198.926 29.27,-209.114 33.3513,-199.337 26.3634,-198.926"/>
</g>
<!-- Node19 -->
<g id="node19" class="node"><title>Node19</title>
<g id="a_node19"><a xlink:href="../../d3/dec/lms7002m__calibrations_8c.html#a04cfd3ce56bed08c8c50078fdcd432f9" target="_top" xlink:title="CheckSaturationTxRx">
<polygon fill="white" stroke="black" points="264.5,-266.5 264.5,-285.5 377.5,-285.5 377.5,-266.5 264.5,-266.5"/>
<text text-anchor="middle" x="321" y="-273.5" font-family="Helvetica,sans-Serif" font-size="10.00">CheckSaturationTxRx</text>
</a>
</g>
</g>
<!-- Node1&#45;&gt;Node19 -->
<g id="edge32" class="edge"><title>Node1&#45;&gt;Node19</title>
<path fill="none" stroke="midnightblue" d="M49.4185,-234.63C61.2097,-242.776 76.699,-252.049 92,-257 148.687,-275.343 217.222,-278.713 264.258,-278.36"/>
<polygon fill="midnightblue" stroke="midnightblue" points="51.3492,-231.708 41.187,-228.711 47.2624,-237.391 51.3492,-231.708"/>
</g>
<!-- Node20 -->
<g id="node20" class="node"><title>Node20</title>
<g id="a_node20"><a xlink:href="../../d2/da6/lms7002m__filters_8c.html#a36ea3a13b9b1aeff9323d1e2a73dbd2e" target="_top" xlink:title="RxFilterSearch">
<polygon fill="white" stroke="black" points="112.5,-380.5 112.5,-399.5 194.5,-399.5 194.5,-380.5 112.5,-380.5"/>
<text text-anchor="middle" x="153.5" y="-387.5" font-family="Helvetica,sans-Serif" font-size="10.00">RxFilterSearch</text>
</a>
</g>
</g>
<!-- Node1&#45;&gt;Node20 -->
<g id="edge34" class="edge"><title>Node1&#45;&gt;Node20</title>
<path fill="none" stroke="midnightblue" d="M31.7574,-238.801C37.2961,-271.101 52.7892,-335.119 92,-371 97.7666,-376.277 104.988,-380.088 112.414,-382.841"/>
<polygon fill="midnightblue" stroke="midnightblue" points="35.1958,-238.135 30.1909,-228.797 28.2801,-239.218 35.1958,-238.135"/>
</g>
<!-- Node21 -->
<g id="node21" class="node"><title>Node21</title>
<g id="a_node21"><a xlink:href="../../d3/dec/lms7002m__calibrations_8c.html#a605cb22053de5d2af17095829d0ff146" target="_top" xlink:title="TxDcBinarySearch">
<polygon fill="white" stroke="black" points="104,-228.5 104,-247.5 203,-247.5 203,-228.5 104,-228.5"/>
<text text-anchor="middle" x="153.5" y="-235.5" font-family="Helvetica,sans-Serif" font-size="10.00">TxDcBinarySearch</text>
</a>
</g>
</g>
<!-- Node1&#45;&gt;Node21 -->
<g id="edge38" class="edge"><title>Node1&#45;&gt;Node21</title>
<path fill="none" stroke="midnightblue" d="M66.0417,-224.699C77.8356,-226.513 91.0696,-228.549 103.57,-230.472"/>
<polygon fill="midnightblue" stroke="midnightblue" points="66.5185,-221.231 56.1026,-223.17 65.4541,-228.15 66.5185,-221.231"/>
</g>
<!-- Node2&#45;&gt;Node3 -->
<g id="edge2" class="edge"><title>Node2&#45;&gt;Node3</title>
<path fill="none" stroke="midnightblue" d="M203.625,-135.279C227.44,-140.748 255.734,-147.244 278.459,-152.462"/>
<polygon fill="midnightblue" stroke="midnightblue" points="204.251,-131.832 193.721,-133.005 202.684,-138.655 204.251,-131.832"/>
</g>
<!-- Node4 -->
<g id="node4" class="node"><title>Node4</title>
<g id="a_node4"><a xlink:href="../../d1/dc7/lms7002m__calibrations_8h.html#a69b1e143409bc9a1c0b53f360bf608cf" target="_top" xlink:title="CalibrateRx">
<polygon fill="white" stroke="black" points="428.5,-142.5 428.5,-161.5 496.5,-161.5 496.5,-142.5 428.5,-142.5"/>
<text text-anchor="middle" x="462.5" y="-149.5" font-family="Helvetica,sans-Serif" font-size="10.00">CalibrateRx</text>
</a>
</g>
</g>
<!-- Node3&#45;&gt;Node4 -->
<g id="edge3" class="edge"><title>Node3&#45;&gt;Node4</title>
<path fill="none" stroke="midnightblue" d="M383.192,-157.613C398.644,-156.506 414.664,-155.357 428.158,-154.39"/>
<polygon fill="midnightblue" stroke="midnightblue" points="382.877,-154.127 373.153,-158.333 383.377,-161.109 382.877,-154.127"/>
</g>
<!-- Node9 -->
<g id="node9" class="node"><title>Node9</title>
<g id="a_node9"><a xlink:href="../../d1/dc7/lms7002m__calibrations_8h.html#a208452a11189052c6dcd2fe639e4fcae" target="_top" xlink:title="CalibrateTx">
<polygon fill="white" stroke="black" points="429,-209.5 429,-228.5 496,-228.5 496,-209.5 429,-209.5"/>
<text text-anchor="middle" x="462.5" y="-216.5" font-family="Helvetica,sans-Serif" font-size="10.00">CalibrateTx</text>
</a>
</g>
</g>
<!-- Node3&#45;&gt;Node9 -->
<g id="edge9" class="edge"><title>Node3&#45;&gt;Node9</title>
<path fill="none" stroke="midnightblue" d="M354.65,-175.341C380.235,-185.795 415.214,-200.087 438.075,-209.428"/>
<polygon fill="midnightblue" stroke="midnightblue" points="355.93,-172.083 345.349,-171.541 353.282,-178.563 355.93,-172.083"/>
</g>
<!-- Node5 -->
<g id="node5" class="node"><title>Node5</title>
<g id="a_node5"><a xlink:href="../../dd/d0b/mcu__program_2host__src_2main_8cpp.html#a2bb1d2fcd6182ef32aff315f85d13c53" target="_top" xlink:title="DCIQ">
<polygon fill="white" stroke="black" points="541,-209.5 541,-228.5 583,-228.5 583,-209.5 541,-209.5"/>
<text text-anchor="middle" x="562" y="-216.5" font-family="Helvetica,sans-Serif" font-size="10.00">DCIQ</text>
</a>
</g>
</g>
<!-- Node4&#45;&gt;Node5 -->
<g id="edge4" class="edge"><title>Node4&#45;&gt;Node5</title>
<path fill="none" stroke="midnightblue" d="M485.785,-167.314C504.637,-180.269 531.067,-198.431 547.057,-209.418"/>
<polygon fill="midnightblue" stroke="midnightblue" points="487.693,-164.378 477.469,-161.599 483.729,-170.148 487.693,-164.378"/>
</g>
<!-- Node7 -->
<g id="node7" class="node"><title>Node7</title>
<g id="a_node7"><a xlink:href="../../d0/d29/main_8c.html#acdef7a1fd863a6d3770c1268cb06add3" target="_top" xlink:title="main">
<polygon fill="white" stroke="black" points="626,-247.5 626,-266.5 664,-266.5 664,-247.5 626,-247.5"/>
<text text-anchor="middle" x="645" y="-254.5" font-family="Helvetica,sans-Serif" font-size="10.00">main</text>
</a>
</g>
</g>
<!-- Node4&#45;&gt;Node7 -->
<g id="edge6" class="edge"><title>Node4&#45;&gt;Node7</title>
<path fill="none" stroke="midnightblue" d="M506.41,-163.018C532.035,-170.837 564.456,-182.988 590,-200 609.741,-213.148 627.593,-234.755 637.004,-247.249"/>
<polygon fill="midnightblue" stroke="midnightblue" points="507.178,-159.596 496.597,-160.131 505.203,-166.311 507.178,-159.596"/>
</g>
<!-- Node8 -->
<g id="node8" class="node"><title>Node8</title>
<g id="a_node8"><a xlink:href="../../d1/dc7/lms7002m__calibrations_8h.html#adce4a8efb4d0eb17b578b99489f4ef77" target="_top" xlink:title="RunAGC">
<polygon fill="white" stroke="black" points="534,-133.5 534,-152.5 590,-152.5 590,-133.5 534,-133.5"/>
<text text-anchor="middle" x="562" y="-140.5" font-family="Helvetica,sans-Serif" font-size="10.00">RunAGC</text>
</a>
</g>
</g>
<!-- Node4&#45;&gt;Node8 -->
<g id="edge7" class="edge"><title>Node4&#45;&gt;Node8</title>
<path fill="none" stroke="midnightblue" d="M506.735,-148.009C515.957,-147.158 525.445,-146.282 533.857,-145.506"/>
<polygon fill="midnightblue" stroke="midnightblue" points="506.145,-144.549 496.509,-148.953 506.788,-151.519 506.145,-144.549"/>
</g>
<!-- Node6 -->
<g id="node6" class="node"><title>Node6</title>
<g id="a_node6"><a xlink:href="../../dd/d0b/mcu__program_2host__src_2main_8cpp.html#a3c04138a5bfe5d72780bb7e82a18e627" target="_top" xlink:title="main">
<polygon fill="white" stroke="black" points="626,-304.5 626,-323.5 664,-323.5 664,-304.5 626,-304.5"/>
<text text-anchor="middle" x="645" y="-311.5" font-family="Helvetica,sans-Serif" font-size="10.00">main</text>
</a>
</g>
</g>
<!-- Node5&#45;&gt;Node6 -->
<g id="edge5" class="edge"><title>Node5&#45;&gt;Node6</title>
<path fill="none" stroke="midnightblue" d="M577.977,-236.566C595.027,-256.562 622.262,-288.505 635.803,-304.386"/>
<polygon fill="midnightblue" stroke="midnightblue" points="580.515,-234.148 571.363,-228.809 575.188,-238.689 580.515,-234.148"/>
</g>
<!-- Node8&#45;&gt;Node7 -->
<g id="edge8" class="edge"><title>Node8&#45;&gt;Node7</title>
<path fill="none" stroke="midnightblue" d="M582.865,-159.377C585.387,-161.818 587.838,-164.393 590,-167 612.099,-193.651 631.14,-230.318 639.49,-247.453"/>
<polygon fill="midnightblue" stroke="midnightblue" points="585.075,-156.657 575.303,-152.562 580.388,-161.857 585.075,-156.657"/>
</g>
<!-- Node9&#45;&gt;Node5 -->
<g id="edge10" class="edge"><title>Node9&#45;&gt;Node5</title>
<path fill="none" stroke="midnightblue" d="M506.583,-219C518.575,-219 531.031,-219 540.995,-219"/>
<polygon fill="midnightblue" stroke="midnightblue" points="506.237,-215.5 496.237,-219 506.237,-222.5 506.237,-215.5"/>
</g>
<!-- Node9&#45;&gt;Node7 -->
<g id="edge11" class="edge"><title>Node9&#45;&gt;Node7</title>
<path fill="none" stroke="midnightblue" d="M506.055,-231.147C515.233,-233.576 524.909,-235.994 534,-238 566.172,-245.098 604.123,-251.148 625.991,-254.411"/>
<polygon fill="midnightblue" stroke="midnightblue" points="506.909,-227.752 496.342,-228.525 505.084,-234.51 506.909,-227.752"/>
</g>
<!-- Node10&#45;&gt;Node11 -->
<g id="edge13" class="edge"><title>Node10&#45;&gt;Node11</title>
<path fill="none" stroke="midnightblue" d="M192.038,-60.9285C222.49,-71.4164 264.729,-85.9639 292.209,-95.4284"/>
<polygon fill="midnightblue" stroke="midnightblue" points="192.796,-57.4877 182.201,-57.5405 190.516,-64.1062 192.796,-57.4877"/>
</g>
<!-- Node11&#45;&gt;Node4 -->
<g id="edge14" class="edge"><title>Node11&#45;&gt;Node4</title>
<path fill="none" stroke="midnightblue" d="M360,-117.803C382.97,-125.542 411.781,-135.249 432.833,-142.342"/>
<polygon fill="midnightblue" stroke="midnightblue" points="360.824,-114.387 350.23,-114.511 358.589,-121.021 360.824,-114.387"/>
</g>
<!-- Node11&#45;&gt;Node9 -->
<g id="edge15" class="edge"><title>Node11&#45;&gt;Node9</title>
<path fill="none" stroke="midnightblue" d="M352.446,-119.092C364.955,-125.546 379.234,-133.809 391,-143 417.096,-163.386 442.1,-193.729 454.1,-209.184"/>
<polygon fill="midnightblue" stroke="midnightblue" points="353.807,-115.859 343.296,-114.523 350.679,-122.121 353.807,-115.859"/>
</g>
<!-- Node12&#45;&gt;Node9 -->
<g id="edge19" class="edge"><title>Node12&#45;&gt;Node9</title>
<path fill="none" stroke="midnightblue" d="M382.621,-219C398.424,-219 414.862,-219 428.617,-219"/>
<polygon fill="midnightblue" stroke="midnightblue" points="382.363,-215.5 372.363,-219 382.363,-222.5 382.363,-215.5"/>
</g>
<!-- Node13&#45;&gt;Node14 -->
<g id="edge21" class="edge"><title>Node13&#45;&gt;Node14</title>
<path fill="none" stroke="midnightblue" d="M206.121,-363.853C231.557,-369.693 261.586,-376.588 284.42,-381.831"/>
<polygon fill="midnightblue" stroke="midnightblue" points="206.792,-360.416 196.263,-361.589 205.226,-367.238 206.792,-360.416"/>
</g>
<!-- Node13&#45;&gt;Node16 -->
<g id="edge25" class="edge"><title>Node13&#45;&gt;Node16</title>
<path fill="none" stroke="midnightblue" d="M206.311,-340.104C229.573,-334.763 256.647,-328.546 278.538,-323.52"/>
<polygon fill="midnightblue" stroke="midnightblue" points="205.226,-336.762 196.263,-342.411 206.792,-343.584 205.226,-336.762"/>
</g>
<!-- Node17 -->
<g id="node17" class="node"><title>Node17</title>
<g id="a_node17"><a xlink:href="../../d8/d1f/lms7002m__filters_8h.html#afa61c92a783434057226329fb950593e" target="_top" xlink:title="TuneTxFilter">
<polygon fill="white" stroke="black" points="427,-304.5 427,-323.5 498,-323.5 498,-304.5 427,-304.5"/>
<text text-anchor="middle" x="462.5" y="-311.5" font-family="Helvetica,sans-Serif" font-size="10.00">TuneTxFilter</text>
</a>
</g>
</g>
<!-- Node13&#45;&gt;Node17 -->
<g id="edge29" class="edge"><title>Node13&#45;&gt;Node17</title>
<path fill="none" stroke="midnightblue" d="M225.274,-349.7C272.489,-347.337 335.796,-342.573 391,-333 404.239,-330.704 418.602,-327.052 430.888,-323.56"/>
<polygon fill="midnightblue" stroke="midnightblue" points="224.972,-346.21 215.15,-350.182 225.305,-353.202 224.972,-346.21"/>
</g>
<!-- Node14&#45;&gt;Node7 -->
<g id="edge22" class="edge"><title>Node14&#45;&gt;Node7</title>
<path fill="none" stroke="midnightblue" d="M368.156,-395.634C425.642,-400.131 524.278,-399.274 590,-352 597.816,-346.378 627.191,-289.936 639.02,-266.807"/>
<polygon fill="midnightblue" stroke="midnightblue" points="368.184,-392.124 357.918,-394.742 367.576,-399.097 368.184,-392.124"/>
</g>
<!-- Node15 -->
<g id="node15" class="node"><title>Node15</title>
<g id="a_node15"><a xlink:href="../../dd/d0b/mcu__program_2host__src_2main_8cpp.html#ad4dcf2055b7114f8eacfa8cb11e5bbd5" target="_top" xlink:title="Filters">
<polygon fill="white" stroke="black" points="540,-323.5 540,-342.5 584,-342.5 584,-323.5 540,-323.5"/>
<text text-anchor="middle" x="562" y="-330.5" font-family="Helvetica,sans-Serif" font-size="10.00">Filters</text>
</a>
</g>
</g>
<!-- Node14&#45;&gt;Node15 -->
<g id="edge23" class="edge"><title>Node14&#45;&gt;Node15</title>
<path fill="none" stroke="midnightblue" d="M367.434,-379.164C419.136,-366.834 501.379,-347.219 539.854,-338.043"/>
<polygon fill="midnightblue" stroke="midnightblue" points="366.438,-375.804 357.523,-381.528 368.062,-382.613 366.438,-375.804"/>
</g>
<!-- Node15&#45;&gt;Node6 -->
<g id="edge24" class="edge"><title>Node15&#45;&gt;Node6</title>
<path fill="none" stroke="midnightblue" d="M594.175,-325.687C604.899,-323.172 616.545,-320.44 625.879,-318.251"/>
<polygon fill="midnightblue" stroke="midnightblue" points="593.218,-322.317 584.282,-328.008 594.817,-329.132 593.218,-322.317"/>
</g>
<!-- Node16&#45;&gt;Node17 -->
<g id="edge26" class="edge"><title>Node16&#45;&gt;Node17</title>
<path fill="none" stroke="midnightblue" d="M401.411,-314C410.277,-314 418.931,-314 426.784,-314"/>
<polygon fill="midnightblue" stroke="midnightblue" points="401.341,-310.5 391.341,-314 401.341,-317.5 401.341,-310.5"/>
</g>
<!-- Node17&#45;&gt;Node7 -->
<g id="edge27" class="edge"><title>Node17&#45;&gt;Node7</title>
<path fill="none" stroke="midnightblue" d="M503.483,-301.374C541.624,-289.329 597.353,-271.731 625.809,-262.744"/>
<polygon fill="midnightblue" stroke="midnightblue" points="502.193,-298.111 493.712,-304.459 504.301,-304.786 502.193,-298.111"/>
</g>
<!-- Node17&#45;&gt;Node15 -->
<g id="edge28" class="edge"><title>Node17&#45;&gt;Node15</title>
<path fill="none" stroke="midnightblue" d="M508.135,-322.698C519.166,-324.848 530.481,-327.053 539.797,-328.868"/>
<polygon fill="midnightblue" stroke="midnightblue" points="508.634,-319.23 498.149,-320.752 507.295,-326.1 508.634,-319.23"/>
</g>
<!-- Node18&#45;&gt;Node4 -->
<g id="edge31" class="edge"><title>Node18&#45;&gt;Node4</title>
<path fill="none" stroke="midnightblue" d="M214.681,-21.575C264.403,-32.9078 335.567,-53.3103 391,-86 416.995,-101.33 441.289,-127.732 453.422,-142.056"/>
<polygon fill="midnightblue" stroke="midnightblue" points="215.244,-18.1146 204.722,-19.3608 213.724,-24.9477 215.244,-18.1146"/>
</g>
<!-- Node19&#45;&gt;Node9 -->
<g id="edge33" class="edge"><title>Node19&#45;&gt;Node9</title>
<path fill="none" stroke="midnightblue" d="M354.65,-262.659C380.235,-252.205 415.214,-237.913 438.075,-228.572"/>
<polygon fill="midnightblue" stroke="midnightblue" points="353.282,-259.437 345.349,-266.459 355.93,-265.917 353.282,-259.437"/>
</g>
<!-- Node20&#45;&gt;Node14 -->
<g id="edge35" class="edge"><title>Node20&#45;&gt;Node14</title>
<path fill="none" stroke="midnightblue" d="M204.847,-390C230.486,-390 261.052,-390 284.248,-390"/>
<polygon fill="midnightblue" stroke="midnightblue" points="204.563,-386.5 194.563,-390 204.563,-393.5 204.563,-386.5"/>
</g>
<!-- Node21&#45;&gt;Node12 -->
<g id="edge39" class="edge"><title>Node21&#45;&gt;Node12</title>
<path fill="none" stroke="midnightblue" d="M213.325,-231.247C231.812,-229.124 252.042,-226.802 269.867,-224.755"/>
<polygon fill="midnightblue" stroke="midnightblue" points="212.796,-227.784 203.26,-232.402 213.594,-234.739 212.796,-227.784"/>
</g>
</g>
</svg>
