<?xml version="1.0" encoding="UTF-8" standalone="no"?>
<!DOCTYPE svg PUBLIC "-//W3C//DTD SVG 1.1//EN"
 "http://www.w3.org/Graphics/SVG/1.1/DTD/svg11.dtd">
<!-- Generated by graphviz version 2.38.0 (20140413.2041)
 -->
<!-- Title: LoadDC_REG_TX_IQ Pages: 1 -->
<svg width="833pt" height="85pt"
 viewBox="0.00 0.00 833.00 85.00" xmlns="http://www.w3.org/2000/svg" xmlns:xlink="http://www.w3.org/1999/xlink">
<g id="graph0" class="graph" transform="scale(1 1) rotate(0) translate(4 81)">
<title>LoadDC_REG_TX_IQ</title>
<polygon fill="white" stroke="none" points="-4,4 -4,-81 829,-81 829,4 -4,4"/>
<!-- Node1 -->
<g id="node1" class="node"><title>Node1</title>
<polygon fill="#bfbfbf" stroke="black" points="0,-19.5 0,-38.5 113,-38.5 113,-19.5 0,-19.5"/>
<text text-anchor="middle" x="56.5" y="-26.5" font-family="Helvetica,sans-Serif" font-size="10.00">LoadDC_REG_TX_IQ</text>
</g>
<!-- Node2 -->
<g id="node2" class="node"><title>Node2</title>
<g id="a_node2"><a xlink:href="../../d3/dec/lms7002m__calibrations_8c.html#af20d931e0e2448c2240c95f2b4c45a86" target="_top" xlink:title="FlipRisingEdge">
<polygon fill="white" stroke="black" points="149,-38.5 149,-57.5 232,-57.5 232,-38.5 149,-38.5"/>
<text text-anchor="middle" x="190.5" y="-45.5" font-family="Helvetica,sans-Serif" font-size="10.00">FlipRisingEdge</text>
</a>
</g>
</g>
<!-- Node1&#45;&gt;Node2 -->
<g id="edge1" class="edge"><title>Node1&#45;&gt;Node2</title>
<path fill="none" stroke="midnightblue" d="M113.097,-37.0026C121.613,-38.2284 130.365,-39.4882 138.769,-40.6978"/>
<polygon fill="midnightblue" stroke="midnightblue" points="138.409,-44.182 148.806,-42.1425 139.407,-37.2534 138.409,-44.182"/>
</g>
<!-- Node9 -->
<g id="node9" class="node"><title>Node9</title>
<g id="a_node9"><a xlink:href="../../da/d87/spi_8h.html#ac7475dd5b46ee34421fb4cc4fb228b4d" target="_top" xlink:title="SPI_write">
<polygon fill="white" stroke="black" points="161,-0.5 161,-19.5 220,-19.5 220,-0.5 161,-0.5"/>
<text text-anchor="middle" x="190.5" y="-7.5" font-family="Helvetica,sans-Serif" font-size="10.00">SPI_write</text>
</a>
</g>
</g>
<!-- Node1&#45;&gt;Node9 -->
<g id="edge9" class="edge"><title>Node1&#45;&gt;Node9</title>
<path fill="none" stroke="midnightblue" d="M113.097,-20.9974C125.849,-19.1619 139.132,-17.2499 150.978,-15.5448"/>
<polygon fill="midnightblue" stroke="midnightblue" points="151.569,-18.9959 160.968,-14.1068 150.572,-12.0673 151.569,-18.9959"/>
</g>
<!-- Node3 -->
<g id="node3" class="node"><title>Node3</title>
<g id="a_node3"><a xlink:href="../../da/d87/spi_8h.html#aaf76507507e6a960fa0c8cb26585095d" target="_top" xlink:title="Modify_SPI_Reg_bits">
<polygon fill="white" stroke="black" points="268,-38.5 268,-57.5 380,-57.5 380,-38.5 268,-38.5"/>
<text text-anchor="middle" x="324" y="-45.5" font-family="Helvetica,sans-Serif" font-size="10.00">Modify_SPI_Reg_bits</text>
</a>
</g>
</g>
<!-- Node2&#45;&gt;Node3 -->
<g id="edge2" class="edge"><title>Node2&#45;&gt;Node3</title>
<path fill="none" stroke="midnightblue" d="M232.027,-48C240.163,-48 248.907,-48 257.641,-48"/>
<polygon fill="midnightblue" stroke="midnightblue" points="257.853,-51.5001 267.853,-48 257.853,-44.5001 257.853,-51.5001"/>
</g>
<!-- Node4 -->
<g id="node4" class="node"><title>Node4</title>
<g id="a_node4"><a xlink:href="../../dd/d7e/spi_8cpp.html#a7dee89a3e8018d75340f8ffd14015284" target="_top" xlink:title="SPI_read">
<polygon fill="white" stroke="black" points="417,-57.5 417,-76.5 474,-76.5 474,-57.5 417,-57.5"/>
<text text-anchor="middle" x="445.5" y="-64.5" font-family="Helvetica,sans-Serif" font-size="10.00">SPI_read</text>
</a>
</g>
</g>
<!-- Node3&#45;&gt;Node4 -->
<g id="edge3" class="edge"><title>Node3&#45;&gt;Node4</title>
<path fill="none" stroke="midnightblue" d="M380.203,-56.777C389.246,-58.2148 398.429,-59.6749 406.916,-61.0244"/>
<polygon fill="midnightblue" stroke="midnightblue" points="406.443,-64.493 416.869,-62.6067 407.542,-57.5798 406.443,-64.493"/>
</g>
<!-- Node8 -->
<g id="node8" class="node"><title>Node8</title>
<g id="a_node8"><a xlink:href="../../dd/d7e/spi_8cpp.html#abf635d9f0da08fb2a479532b69852e60" target="_top" xlink:title="SPI_write">
<polygon fill="white" stroke="black" points="416,-19.5 416,-38.5 475,-38.5 475,-19.5 416,-19.5"/>
<text text-anchor="middle" x="445.5" y="-26.5" font-family="Helvetica,sans-Serif" font-size="10.00">SPI_write</text>
</a>
</g>
</g>
<!-- Node3&#45;&gt;Node8 -->
<g id="edge7" class="edge"><title>Node3&#45;&gt;Node8</title>
<path fill="none" stroke="midnightblue" d="M380.203,-39.223C388.889,-37.842 397.703,-36.4405 405.907,-35.1361"/>
<polygon fill="midnightblue" stroke="midnightblue" points="406.59,-38.5716 415.916,-33.5447 405.49,-31.6585 406.59,-38.5716"/>
</g>
<!-- Node5 -->
<g id="node5" class="node"><title>Node5</title>
<g id="a_node5"><a xlink:href="../../d2/de5/classlime_1_1IConnection.html#af3dfb39cc643d88c1196ded5d5cbecea" target="_top" xlink:title="Bulk SPI write/read transaction. ">
<polygon fill="white" stroke="black" points="511,-33 511,-63 610,-63 610,-33 511,-33"/>
<text text-anchor="start" x="519" y="-51" font-family="Helvetica,sans-Serif" font-size="10.00">lime::IConnection::</text>
<text text-anchor="middle" x="560.5" y="-40" font-family="Helvetica,sans-Serif" font-size="10.00">TransactSPI</text>
</a>
</g>
</g>
<!-- Node4&#45;&gt;Node5 -->
<g id="edge4" class="edge"><title>Node4&#45;&gt;Node5</title>
<path fill="none" stroke="midnightblue" d="M474.143,-62.3521C482.3,-60.9805 491.554,-59.4245 500.885,-57.8556"/>
<polygon fill="midnightblue" stroke="midnightblue" points="501.711,-61.2659 510.993,-56.1561 500.551,-54.3628 501.711,-61.2659"/>
</g>
<!-- Node6 -->
<g id="node6" class="node"><title>Node6</title>
<g id="a_node6"><a xlink:href="../../d5/d6c/namespacelime.html#adc6af0cf8e0a70f3ef09fac1244f8c48" target="_top" xlink:title="lime::ReportError">
<polygon fill="white" stroke="black" points="646,-38.5 646,-57.5 737,-57.5 737,-38.5 646,-38.5"/>
<text text-anchor="middle" x="691.5" y="-45.5" font-family="Helvetica,sans-Serif" font-size="10.00">lime::ReportError</text>
</a>
</g>
</g>
<!-- Node5&#45;&gt;Node6 -->
<g id="edge5" class="edge"><title>Node5&#45;&gt;Node6</title>
<path fill="none" stroke="midnightblue" d="M610.269,-48C618.588,-48 627.279,-48 635.74,-48"/>
<polygon fill="midnightblue" stroke="midnightblue" points="635.908,-51.5001 645.908,-48 635.908,-44.5001 635.908,-51.5001"/>
</g>
<!-- Node7 -->
<g id="node7" class="node"><title>Node7</title>
<g id="a_node7"><a xlink:href="../../d9/df5/Logger_8cpp.html#ada38bf01d6d691de953ed69268ea6516" target="_top" xlink:title="errToStr">
<polygon fill="white" stroke="black" points="773,-38.5 773,-57.5 825,-57.5 825,-38.5 773,-38.5"/>
<text text-anchor="middle" x="799" y="-45.5" font-family="Helvetica,sans-Serif" font-size="10.00">errToStr</text>
</a>
</g>
</g>
<!-- Node6&#45;&gt;Node7 -->
<g id="edge6" class="edge"><title>Node6&#45;&gt;Node7</title>
<path fill="none" stroke="midnightblue" d="M737.241,-48C745.676,-48 754.39,-48 762.494,-48"/>
<polygon fill="midnightblue" stroke="midnightblue" points="762.722,-51.5001 772.722,-48 762.722,-44.5001 762.722,-51.5001"/>
</g>
<!-- Node8&#45;&gt;Node5 -->
<g id="edge8" class="edge"><title>Node8&#45;&gt;Node5</title>
<path fill="none" stroke="midnightblue" d="M475.015,-33.7945C482.9,-35.1204 491.759,-36.6099 500.695,-38.1124"/>
<polygon fill="midnightblue" stroke="midnightblue" points="500.326,-41.5995 510.768,-39.8062 501.487,-34.6964 500.326,-41.5995"/>
</g>
</g>
</svg>
