<?xml version="1.0" encoding="UTF-8" standalone="no"?>
<!DOCTYPE svg PUBLIC "-//W3C//DTD SVG 1.1//EN"
 "http://www.w3.org/Graphics/SVG/1.1/DTD/svg11.dtd">
<!-- Generated by graphviz version 2.38.0 (20140413.2041)
 -->
<!-- Title: /home/erik/prefix/default/src/limesuite&#45;dev/src/fftviewer_wxgui/fftviewer_frFFTviewer.h Pages: 1 -->
<!--zoomable 229 -->
<svg id="main" version="1.1" xmlns="http://www.w3.org/2000/svg" xmlns:xlink="http://www.w3.org/1999/xlink" xml:space="preserve" onload="init(evt)">
<style type="text/css"><![CDATA[
.edge:hover path { stroke: red; }
.edge:hover polygon { stroke: red; fill: red; }
]]></style>
<script type="text/javascript"><![CDATA[
var edges = document.getElementsByTagName('g');
if (edges && edges.length) {
  for (var i=0;i<edges.length;i++) {
    if (edges[i].id.substr(0,4)=='edge') {
      edges[i].setAttribute('class','edge');
    }
  }
}
]]></script>
        <defs>
                <circle id="rim" cx="0" cy="0" r="7"/>
                <circle id="rim2" cx="0" cy="0" r="3.5"/>
                <g id="zoomPlus">
                        <use xlink:href="#rim" fill="#404040">
                                <set attributeName="fill" to="#808080" begin="zoomplus.mouseover" end="zoomplus.mouseout"/>
                        </use>
                        <path d="M-4,0h8M0,-4v8" fill="none" stroke="white" stroke-width="1.5" pointer-events="none"/>
                </g>
                <g id="zoomMin">
                        <use xlink:href="#rim" fill="#404040">
                                <set attributeName="fill" to="#808080" begin="zoomminus.mouseover" end="zoomminus.mouseout"/>
                        </use>
                        <path d="M-4,0h8" fill="none" stroke="white" stroke-width="1.5" pointer-events="none"/>
                </g>
                <g id="dirArrow">
                        <path fill="none" stroke="white" stroke-width="1.5" d="M0,-3.0v7 M-2.5,-0.5L0,-3.0L2.5,-0.5"/>
                </g>
               <g id="resetDef">
                       <use xlink:href="#rim2" fill="#404040">
                               <set attributeName="fill" to="#808080" begin="reset.mouseover" end="reset.mouseout"/>
                       </use>
               </g>
        </defs>

<script type="text/javascript">
var viewWidth = 2080;
var viewHeight = 229;
var sectionId = 'dynsection-0';
</script>
<script xlink:href="../../svgpan.js"/>
<svg id="graph" class="graph">
<g id="viewport">
<title>/home/erik/prefix/default/src/limesuite&#45;dev/src/fftviewer_wxgui/fftviewer_frFFTviewer.h</title>
<polygon fill="white" stroke="none" points="-4,4 -4,-225 2075.5,-225 2075.5,4 -4,4"/>
<!-- Node1 -->
<g id="node1" class="node"><title>Node1</title>
<polygon fill="#bfbfbf" stroke="black" points="934.5,-168.5 934.5,-220.5 1062.5,-220.5 1062.5,-168.5 934.5,-168.5"/>
<text text-anchor="start" x="942.5" y="-208.5" font-family="Helvetica,sans-Serif" font-size="10.00">/home/erik/prefix/default</text>
<text text-anchor="start" x="942.5" y="-197.5" font-family="Helvetica,sans-Serif" font-size="10.00">/src/limesuite&#45;dev/src</text>
<text text-anchor="start" x="942.5" y="-186.5" font-family="Helvetica,sans-Serif" font-size="10.00">/fftviewer_wxgui/fftviewer</text>
<text text-anchor="middle" x="998.5" y="-175.5" font-family="Helvetica,sans-Serif" font-size="10.00">_frFFTviewer.h</text>
</g>
<!-- Node2 -->
<g id="node2" class="node"><title>Node2</title>
<polygon fill="white" stroke="#bfbfbf" points="764.5,-112.5 764.5,-131.5 808.5,-131.5 808.5,-112.5 764.5,-112.5"/>
<text text-anchor="middle" x="786.5" y="-119.5" font-family="Helvetica,sans-Serif" font-size="10.00">thread</text>
</g>
<!-- Node1&#45;&gt;Node2 -->
<g id="edge1" class="edge"><title>Node1&#45;&gt;Node2</title>
<path fill="none" stroke="midnightblue" d="M934.318,-172.156C895.996,-159.412 848.989,-143.78 818.42,-133.615"/>
<polygon fill="midnightblue" stroke="midnightblue" points="819.314,-130.224 808.72,-130.389 817.105,-136.866 819.314,-130.224"/>
</g>
<!-- Node3 -->
<g id="node3" class="node"><title>Node3</title>
<polygon fill="white" stroke="#bfbfbf" points="826.5,-112.5 826.5,-131.5 872.5,-131.5 872.5,-112.5 826.5,-112.5"/>
<text text-anchor="middle" x="849.5" y="-119.5" font-family="Helvetica,sans-Serif" font-size="10.00">atomic</text>
</g>
<!-- Node1&#45;&gt;Node3 -->
<g id="edge2" class="edge"><title>Node1&#45;&gt;Node3</title>
<path fill="none" stroke="midnightblue" d="M945.549,-168.446C922.221,-157.408 895.81,-144.912 876.595,-135.82"/>
<polygon fill="midnightblue" stroke="midnightblue" points="878.058,-132.64 867.522,-131.527 875.064,-138.968 878.058,-132.64"/>
</g>
<!-- Node4 -->
<g id="node4" class="node"><title>Node4</title>
<polygon fill="white" stroke="#bfbfbf" points="890.5,-112.5 890.5,-131.5 934.5,-131.5 934.5,-112.5 890.5,-112.5"/>
<text text-anchor="middle" x="912.5" y="-119.5" font-family="Helvetica,sans-Serif" font-size="10.00">vector</text>
</g>
<!-- Node1&#45;&gt;Node4 -->
<g id="edge3" class="edge"><title>Node1&#45;&gt;Node4</title>
<path fill="none" stroke="midnightblue" d="M967.937,-168.446C955.595,-158.328 941.756,-146.983 930.993,-138.16"/>
<polygon fill="midnightblue" stroke="midnightblue" points="933.06,-135.328 923.107,-131.695 928.622,-140.742 933.06,-135.328"/>
</g>
<!-- Node5 -->
<g id="node5" class="node"><title>Node5</title>
<g id="a_node5"><a xlink:href="../../d8/d67/fftviewer__wxgui_8h.html" target="_top" xlink:title="fftviewer_wxgui.h">
<polygon fill="white" stroke="black" points="952,-112.5 952,-131.5 1045,-131.5 1045,-112.5 952,-112.5"/>
<text text-anchor="middle" x="998.5" y="-119.5" font-family="Helvetica,sans-Serif" font-size="10.00">fftviewer_wxgui.h</text>
</a>
</g>
</g>
<!-- Node1&#45;&gt;Node5 -->
<g id="edge4" class="edge"><title>Node1&#45;&gt;Node5</title>
<path fill="none" stroke="midnightblue" d="M998.5,-168.446C998.5,-159.73 998.5,-150.104 998.5,-141.964"/>
<polygon fill="midnightblue" stroke="midnightblue" points="1002,-141.695 998.5,-131.695 995,-141.696 1002,-141.695"/>
</g>
<!-- Node26 -->
<g id="node26" class="node"><title>Node26</title>
<g id="a_node26"><a xlink:href="../../d5/d07/LimeSuite_8h.html" target="_top" xlink:title="LMS API library. ">
<polygon fill="white" stroke="black" points="1731,-112.5 1731,-131.5 1820,-131.5 1820,-112.5 1731,-112.5"/>
<text text-anchor="middle" x="1775.5" y="-119.5" font-family="Helvetica,sans-Serif" font-size="10.00">lime/LimeSuite.h</text>
</a>
</g>
</g>
<!-- Node1&#45;&gt;Node26 -->
<g id="edge25" class="edge"><title>Node1&#45;&gt;Node26</title>
<path fill="none" stroke="midnightblue" d="M1062.75,-187.671C1212.26,-174.105 1581.37,-140.615 1720.89,-127.955"/>
<polygon fill="midnightblue" stroke="midnightblue" points="1721.29,-131.433 1730.93,-127.044 1720.66,-124.462 1721.29,-131.433"/>
</g>
<!-- Node31 -->
<g id="node31" class="node"><title>Node31</title>
<polygon fill="white" stroke="#bfbfbf" points="1837.5,-112.5 1837.5,-131.5 1899.5,-131.5 1899.5,-112.5 1837.5,-112.5"/>
<text text-anchor="middle" x="1868.5" y="-119.5" font-family="Helvetica,sans-Serif" font-size="10.00">wx/timer.h</text>
</g>
<!-- Node1&#45;&gt;Node31 -->
<g id="edge31" class="edge"><title>Node1&#45;&gt;Node31</title>
<path fill="none" stroke="midnightblue" d="M1062.64,-191.964C1200.83,-187.959 1536.98,-174.486 1826.85,-132.037"/>
<polygon fill="midnightblue" stroke="midnightblue" points="1827.76,-135.441 1837.14,-130.515 1826.73,-128.516 1827.76,-135.441"/>
</g>
<!-- Node32 -->
<g id="node32" class="node"><title>Node32</title>
<polygon fill="white" stroke="#bfbfbf" points="1917.5,-112.5 1917.5,-131.5 1961.5,-131.5 1961.5,-112.5 1917.5,-112.5"/>
<text text-anchor="middle" x="1939.5" y="-119.5" font-family="Helvetica,sans-Serif" font-size="10.00">mutex</text>
</g>
<!-- Node1&#45;&gt;Node32 -->
<g id="edge32" class="edge"><title>Node1&#45;&gt;Node32</title>
<path fill="none" stroke="midnightblue" d="M1062.51,-193.878C1210.36,-193.743 1586.87,-187.616 1907.34,-131.82"/>
<polygon fill="midnightblue" stroke="midnightblue" points="1908.04,-135.251 1917.28,-130.07 1906.83,-128.357 1908.04,-135.251"/>
</g>
<!-- Node6 -->
<g id="node6" class="node"><title>Node6</title>
<polygon fill="white" stroke="#bfbfbf" points="0,-56.5 0,-75.5 71,-75.5 71,-56.5 0,-56.5"/>
<text text-anchor="middle" x="35.5" y="-63.5" font-family="Helvetica,sans-Serif" font-size="10.00">wx/artprov.h</text>
</g>
<!-- Node5&#45;&gt;Node6 -->
<g id="edge5" class="edge"><title>Node5&#45;&gt;Node6</title>
<path fill="none" stroke="midnightblue" d="M951.743,-112.956C948.959,-112.599 946.195,-112.276 943.5,-112 564.867,-73.2661 463.378,-120.954 81.2242,-75.8651"/>
<polygon fill="midnightblue" stroke="midnightblue" points="81.6248,-72.3881 71.2805,-74.6785 80.7953,-79.3388 81.6248,-72.3881"/>
</g>
<!-- Node7 -->
<g id="node7" class="node"><title>Node7</title>
<polygon fill="white" stroke="#bfbfbf" points="89.5,-56.5 89.5,-75.5 175.5,-75.5 175.5,-56.5 89.5,-56.5"/>
<text text-anchor="middle" x="132.5" y="-63.5" font-family="Helvetica,sans-Serif" font-size="10.00">wx/xrc/xmlres.h</text>
</g>
<!-- Node5&#45;&gt;Node7 -->
<g id="edge6" class="edge"><title>Node5&#45;&gt;Node7</title>
<path fill="none" stroke="midnightblue" d="M951.741,-112.974C948.957,-112.612 946.194,-112.283 943.5,-112 610.92,-77.0184 521.926,-112.168 185.595,-75.97"/>
<polygon fill="midnightblue" stroke="midnightblue" points="185.892,-72.4818 175.572,-74.8781 185.134,-79.4406 185.892,-72.4818"/>
</g>
<!-- Node8 -->
<g id="node8" class="node"><title>Node8</title>
<polygon fill="white" stroke="#bfbfbf" points="193.5,-56.5 193.5,-75.5 257.5,-75.5 257.5,-56.5 193.5,-56.5"/>
<text text-anchor="middle" x="225.5" y="-63.5" font-family="Helvetica,sans-Serif" font-size="10.00">wx/panel.h</text>
</g>
<!-- Node5&#45;&gt;Node8 -->
<g id="edge7" class="edge"><title>Node5&#45;&gt;Node8</title>
<path fill="none" stroke="midnightblue" d="M951.739,-112.992C948.956,-112.626 946.193,-112.291 943.5,-112 647.295,-79.9861 566.887,-115.618 267.913,-75.9548"/>
<polygon fill="midnightblue" stroke="midnightblue" points="268.018,-72.4375 257.64,-74.574 267.085,-79.3751 268.018,-72.4375"/>
</g>
<!-- Node9 -->
<g id="node9" class="node"><title>Node9</title>
<polygon fill="white" stroke="#bfbfbf" points="275.5,-56.5 275.5,-75.5 347.5,-75.5 347.5,-56.5 275.5,-56.5"/>
<text text-anchor="middle" x="311.5" y="-63.5" font-family="Helvetica,sans-Serif" font-size="10.00">wx/gdicmn.h</text>
</g>
<!-- Node5&#45;&gt;Node9 -->
<g id="edge8" class="edge"><title>Node5&#45;&gt;Node9</title>
<path fill="none" stroke="midnightblue" d="M951.737,-113.018C948.954,-112.646 946.192,-112.302 943.5,-112 687.048,-83.228 617.455,-109.036 357.887,-76.0004"/>
<polygon fill="midnightblue" stroke="midnightblue" points="358.145,-72.5047 347.779,-74.6966 357.249,-79.4472 358.145,-72.5047"/>
</g>
<!-- Node10 -->
<g id="node10" class="node"><title>Node10</title>
<polygon fill="white" stroke="#bfbfbf" points="366,-56.5 366,-75.5 423,-75.5 423,-56.5 366,-56.5"/>
<text text-anchor="middle" x="394.5" y="-63.5" font-family="Helvetica,sans-Serif" font-size="10.00">wx/font.h</text>
</g>
<!-- Node5&#45;&gt;Node10 -->
<g id="edge9" class="edge"><title>Node5&#45;&gt;Node10</title>
<path fill="none" stroke="midnightblue" d="M951.733,-113.047C948.951,-112.667 946.191,-112.314 943.5,-112 720.24,-85.9403 658.698,-110.345 433.252,-76.0274"/>
<polygon fill="midnightblue" stroke="midnightblue" points="433.505,-72.525 423.088,-74.4576 432.436,-79.443 433.505,-72.525"/>
</g>
<!-- Node11 -->
<g id="node11" class="node"><title>Node11</title>
<polygon fill="white" stroke="#bfbfbf" points="441,-56.5 441,-75.5 508,-75.5 508,-56.5 441,-56.5"/>
<text text-anchor="middle" x="474.5" y="-63.5" font-family="Helvetica,sans-Serif" font-size="10.00">wx/colour.h</text>
</g>
<!-- Node5&#45;&gt;Node11 -->
<g id="edge10" class="edge"><title>Node5&#45;&gt;Node11</title>
<path fill="none" stroke="midnightblue" d="M951.728,-113.091C948.947,-112.7 946.189,-112.333 943.5,-112 757.722,-89.0042 706.617,-103.494 518.307,-76.1082"/>
<polygon fill="midnightblue" stroke="midnightblue" points="518.762,-72.6376 508.359,-74.6414 517.741,-79.5627 518.762,-72.6376"/>
</g>
<!-- Node12 -->
<g id="node12" class="node"><title>Node12</title>
<polygon fill="white" stroke="#bfbfbf" points="526,-56.5 526,-75.5 601,-75.5 601,-56.5 526,-56.5"/>
<text text-anchor="middle" x="563.5" y="-63.5" font-family="Helvetica,sans-Serif" font-size="10.00">wx/settings.h</text>
</g>
<!-- Node5&#45;&gt;Node12 -->
<g id="edge11" class="edge"><title>Node5&#45;&gt;Node12</title>
<path fill="none" stroke="midnightblue" d="M951.718,-113.166C948.94,-112.756 946.185,-112.364 943.5,-112 798.729,-92.368 758.823,-98.0911 611.005,-76.1192"/>
<polygon fill="midnightblue" stroke="midnightblue" points="611.519,-72.6573 601.11,-74.6313 610.478,-79.5795 611.519,-72.6573"/>
</g>
<!-- Node13 -->
<g id="node13" class="node"><title>Node13</title>
<polygon fill="white" stroke="#bfbfbf" points="619,-56.5 619,-75.5 684,-75.5 684,-56.5 619,-56.5"/>
<text text-anchor="middle" x="651.5" y="-63.5" font-family="Helvetica,sans-Serif" font-size="10.00">wx/string.h</text>
</g>
<!-- Node5&#45;&gt;Node13 -->
<g id="edge12" class="edge"><title>Node5&#45;&gt;Node13</title>
<path fill="none" stroke="midnightblue" d="M951.999,-113.326C949.124,-112.872 946.273,-112.427 943.5,-112 835.69,-95.4184 805.685,-95.739 693.994,-75.9764"/>
<polygon fill="midnightblue" stroke="midnightblue" points="694.476,-72.507 684.016,-74.1963 693.246,-79.3982 694.476,-72.507"/>
</g>
<!-- Node14 -->
<g id="node14" class="node"><title>Node14</title>
<polygon fill="white" stroke="#bfbfbf" points="702.5,-56.5 702.5,-75.5 764.5,-75.5 764.5,-56.5 702.5,-56.5"/>
<text text-anchor="middle" x="733.5" y="-63.5" font-family="Helvetica,sans-Serif" font-size="10.00">wx/sizer.h</text>
</g>
<!-- Node5&#45;&gt;Node14 -->
<g id="edge13" class="edge"><title>Node5&#45;&gt;Node14</title>
<path fill="none" stroke="midnightblue" d="M954.036,-112.433C910.732,-104.016 842.784,-90.6179 774.934,-76.2691"/>
<polygon fill="midnightblue" stroke="midnightblue" points="775.436,-72.7978 764.927,-74.1457 773.983,-79.6453 775.436,-72.7978"/>
</g>
<!-- Node15 -->
<g id="node15" class="node"><title>Node15</title>
<polygon fill="white" stroke="#bfbfbf" points="782.5,-56.5 782.5,-75.5 852.5,-75.5 852.5,-56.5 782.5,-56.5"/>
<text text-anchor="middle" x="817.5" y="-63.5" font-family="Helvetica,sans-Serif" font-size="10.00">wx/splitter.h</text>
</g>
<!-- Node5&#45;&gt;Node15 -->
<g id="edge14" class="edge"><title>Node5&#45;&gt;Node15</title>
<path fill="none" stroke="midnightblue" d="M969.82,-112.444C938.973,-103.241 889.772,-88.5617 855.671,-78.3879"/>
<polygon fill="midnightblue" stroke="midnightblue" points="856.629,-75.0215 846.046,-75.5164 854.628,-81.7293 856.629,-75.0215"/>
</g>
<!-- Node16 -->
<g id="node16" class="node"><title>Node16</title>
<polygon fill="white" stroke="#bfbfbf" points="870.5,-56.5 870.5,-75.5 944.5,-75.5 944.5,-56.5 870.5,-56.5"/>
<text text-anchor="middle" x="907.5" y="-63.5" font-family="Helvetica,sans-Serif" font-size="10.00">wx/stattext.h</text>
</g>
<!-- Node5&#45;&gt;Node16 -->
<g id="edge15" class="edge"><title>Node5&#45;&gt;Node16</title>
<path fill="none" stroke="midnightblue" d="M983.879,-112.324C969.551,-103.822 947.487,-90.7288 930.751,-80.7975"/>
<polygon fill="midnightblue" stroke="midnightblue" points="932.47,-77.7478 922.084,-75.6545 928.898,-83.7677 932.47,-77.7478"/>
</g>
<!-- Node17 -->
<g id="node17" class="node"><title>Node17</title>
<polygon fill="white" stroke="#bfbfbf" points="963,-56.5 963,-75.5 1034,-75.5 1034,-56.5 963,-56.5"/>
<text text-anchor="middle" x="998.5" y="-63.5" font-family="Helvetica,sans-Serif" font-size="10.00">wx/textctrl.h</text>
</g>
<!-- Node5&#45;&gt;Node17 -->
<g id="edge16" class="edge"><title>Node5&#45;&gt;Node17</title>
<path fill="none" stroke="midnightblue" d="M998.5,-112.083C998.5,-105.006 998.5,-94.8611 998.5,-85.9865"/>
<polygon fill="midnightblue" stroke="midnightblue" points="1002,-85.751 998.5,-75.7511 995,-85.7511 1002,-85.751"/>
</g>
<!-- Node18 -->
<g id="node18" class="node"><title>Node18</title>
<polygon fill="white" stroke="#bfbfbf" points="1052.5,-56.5 1052.5,-75.5 1122.5,-75.5 1122.5,-56.5 1052.5,-56.5"/>
<text text-anchor="middle" x="1087.5" y="-63.5" font-family="Helvetica,sans-Serif" font-size="10.00">wx/valtext.h</text>
</g>
<!-- Node5&#45;&gt;Node18 -->
<g id="edge17" class="edge"><title>Node5&#45;&gt;Node18</title>
<path fill="none" stroke="midnightblue" d="M1012.8,-112.324C1026.68,-103.9 1047.99,-90.9709 1064.3,-81.0741"/>
<polygon fill="midnightblue" stroke="midnightblue" points="1066.5,-83.8341 1073.24,-75.6545 1062.87,-77.8495 1066.5,-83.8341"/>
</g>
<!-- Node19 -->
<g id="node19" class="node"><title>Node19</title>
<polygon fill="white" stroke="#bfbfbf" points="1140.5,-56.5 1140.5,-75.5 1212.5,-75.5 1212.5,-56.5 1140.5,-56.5"/>
<text text-anchor="middle" x="1176.5" y="-63.5" font-family="Helvetica,sans-Serif" font-size="10.00">wx/spinctrl.h</text>
</g>
<!-- Node5&#45;&gt;Node19 -->
<g id="edge18" class="edge"><title>Node5&#45;&gt;Node19</title>
<path fill="none" stroke="midnightblue" d="M1026.7,-112.444C1056.91,-103.28 1105.01,-88.6876 1138.53,-78.5192"/>
<polygon fill="midnightblue" stroke="midnightblue" points="1139.87,-81.7688 1148.43,-75.5164 1137.84,-75.0703 1139.87,-81.7688"/>
</g>
<!-- Node20 -->
<g id="node20" class="node"><title>Node20</title>
<polygon fill="white" stroke="#bfbfbf" points="1231,-56.5 1231,-75.5 1304,-75.5 1304,-56.5 1231,-56.5"/>
<text text-anchor="middle" x="1267.5" y="-63.5" font-family="Helvetica,sans-Serif" font-size="10.00">wx/statbox.h</text>
</g>
<!-- Node5&#45;&gt;Node20 -->
<g id="edge19" class="edge"><title>Node5&#45;&gt;Node20</title>
<path fill="none" stroke="midnightblue" d="M1041.12,-112.444C1090.05,-102.622 1170.04,-86.5641 1220.67,-76.401"/>
<polygon fill="midnightblue" stroke="midnightblue" points="1221.58,-79.7882 1230.69,-74.3884 1220.2,-72.9251 1221.58,-79.7882"/>
</g>
<!-- Node21 -->
<g id="node21" class="node"><title>Node21</title>
<polygon fill="white" stroke="#bfbfbf" points="1322,-56.5 1322,-75.5 1391,-75.5 1391,-56.5 1322,-56.5"/>
<text text-anchor="middle" x="1356.5" y="-63.5" font-family="Helvetica,sans-Serif" font-size="10.00">wx/choice.h</text>
</g>
<!-- Node5&#45;&gt;Node21 -->
<g id="edge20" class="edge"><title>Node5&#45;&gt;Node21</title>
<path fill="none" stroke="midnightblue" d="M1045.19,-115.19C1104.66,-107.594 1210.83,-93.3828 1311.87,-76.0145"/>
<polygon fill="midnightblue" stroke="midnightblue" points="1312.69,-79.4248 1321.95,-74.2691 1311.5,-72.5276 1312.69,-79.4248"/>
</g>
<!-- Node22 -->
<g id="node22" class="node"><title>Node22</title>
<polygon fill="white" stroke="#bfbfbf" points="1409,-56.5 1409,-75.5 1492,-75.5 1492,-56.5 1409,-56.5"/>
<text text-anchor="middle" x="1450.5" y="-63.5" font-family="Helvetica,sans-Serif" font-size="10.00">wx/checkbox.h</text>
</g>
<!-- Node5&#45;&gt;Node22 -->
<g id="edge21" class="edge"><title>Node5&#45;&gt;Node22</title>
<path fill="none" stroke="midnightblue" d="M1045.24,-116.718C1118.34,-109.81 1264.39,-95.1602 1398.72,-76.0265"/>
<polygon fill="midnightblue" stroke="midnightblue" points="1399.38,-79.4675 1408.79,-74.5816 1398.39,-72.5386 1399.38,-79.4675"/>
</g>
<!-- Node23 -->
<g id="node23" class="node"><title>Node23</title>
<polygon fill="white" stroke="#bfbfbf" points="1510.5,-56.5 1510.5,-75.5 1578.5,-75.5 1578.5,-56.5 1510.5,-56.5"/>
<text text-anchor="middle" x="1544.5" y="-63.5" font-family="Helvetica,sans-Serif" font-size="10.00">wx/button.h</text>
</g>
<!-- Node5&#45;&gt;Node23 -->
<g id="edge22" class="edge"><title>Node5&#45;&gt;Node23</title>
<path fill="none" stroke="midnightblue" d="M1045.07,-118.578C1133.97,-113.567 1333.84,-100.436 1500.5,-76 1500.6,-75.9852 1500.7,-75.9702 1500.8,-75.9552"/>
<polygon fill="midnightblue" stroke="midnightblue" points="1501.16,-79.4435 1510.46,-74.3568 1500.02,-72.5376 1501.16,-79.4435"/>
</g>
<!-- Node24 -->
<g id="node24" class="node"><title>Node24</title>
<polygon fill="white" stroke="#bfbfbf" points="1597,-56.5 1597,-75.5 1664,-75.5 1664,-56.5 1597,-56.5"/>
<text text-anchor="middle" x="1630.5" y="-63.5" font-family="Helvetica,sans-Serif" font-size="10.00">wx/gauge.h</text>
</g>
<!-- Node5&#45;&gt;Node24 -->
<g id="edge23" class="edge"><title>Node5&#45;&gt;Node24</title>
<path fill="none" stroke="midnightblue" d="M1045.3,-119.493C1143.68,-115.878 1379.22,-104.884 1586.61,-75.9291"/>
<polygon fill="midnightblue" stroke="midnightblue" points="1587.36,-79.3573 1596.77,-74.4919 1586.38,-72.4262 1587.36,-79.3573"/>
</g>
<!-- Node25 -->
<g id="node25" class="node"><title>Node25</title>
<polygon fill="white" stroke="#bfbfbf" points="1682,-56.5 1682,-75.5 1747,-75.5 1747,-56.5 1682,-56.5"/>
<text text-anchor="middle" x="1714.5" y="-63.5" font-family="Helvetica,sans-Serif" font-size="10.00">wx/frame.h</text>
</g>
<!-- Node5&#45;&gt;Node25 -->
<g id="edge24" class="edge"><title>Node5&#45;&gt;Node25</title>
<path fill="none" stroke="midnightblue" d="M1045.31,-120.198C1153.78,-117.841 1430.76,-108.96 1671.57,-75.9157"/>
<polygon fill="midnightblue" stroke="midnightblue" points="1672.14,-79.3703 1681.57,-74.5276 1671.18,-72.4369 1672.14,-79.3703"/>
</g>
<!-- Node27 -->
<g id="node27" class="node"><title>Node27</title>
<polygon fill="white" stroke="#bfbfbf" points="1830,-0.5 1830,-19.5 1879,-19.5 1879,-0.5 1830,-0.5"/>
<text text-anchor="middle" x="1854.5" y="-7.5" font-family="Helvetica,sans-Serif" font-size="10.00">stdint.h</text>
</g>
<!-- Node26&#45;&gt;Node27 -->
<g id="edge26" class="edge"><title>Node26&#45;&gt;Node27</title>
<path fill="none" stroke="midnightblue" d="M1776.29,-112.255C1777.85,-99.0219 1782.32,-73.5894 1794.5,-56 1803.3,-43.2913 1816.85,-32.6912 1828.84,-24.9775"/>
<polygon fill="midnightblue" stroke="midnightblue" points="1830.88,-27.8367 1837.61,-19.6543 1827.24,-21.8537 1830.88,-27.8367"/>
</g>
<!-- Node28 -->
<g id="node28" class="node"><title>Node28</title>
<polygon fill="white" stroke="#bfbfbf" points="1803.5,-56.5 1803.5,-75.5 1851.5,-75.5 1851.5,-56.5 1803.5,-56.5"/>
<text text-anchor="middle" x="1827.5" y="-63.5" font-family="Helvetica,sans-Serif" font-size="10.00">stdlib.h</text>
</g>
<!-- Node26&#45;&gt;Node28 -->
<g id="edge27" class="edge"><title>Node26&#45;&gt;Node28</title>
<path fill="none" stroke="midnightblue" d="M1784.09,-112.083C1791.66,-104.22 1802.88,-92.5688 1812.01,-83.0813"/>
<polygon fill="midnightblue" stroke="midnightblue" points="1814.66,-85.3821 1819.07,-75.7511 1809.62,-80.5266 1814.66,-85.3821"/>
</g>
<!-- Node29 -->
<g id="node29" class="node"><title>Node29</title>
<g id="a_node29"><a xlink:href="../../d1/d2e/LMS7002M__parameters_8h.html" target="_top" xlink:title="List of LMS7002M transceiver control parameters. ">
<polygon fill="white" stroke="black" points="1869.5,-56.5 1869.5,-75.5 1997.5,-75.5 1997.5,-56.5 1869.5,-56.5"/>
<text text-anchor="middle" x="1933.5" y="-63.5" font-family="Helvetica,sans-Serif" font-size="10.00">LMS7002M_parameters.h</text>
</a>
</g>
</g>
<!-- Node26&#45;&gt;Node29 -->
<g id="edge28" class="edge"><title>Node26&#45;&gt;Node29</title>
<path fill="none" stroke="midnightblue" d="M1800.54,-112.444C1827.12,-103.359 1869.31,-88.9388 1899.02,-78.7831"/>
<polygon fill="midnightblue" stroke="midnightblue" points="1900.25,-82.0625 1908.58,-75.5164 1897.99,-75.4386 1900.25,-82.0625"/>
</g>
<!-- Node30 -->
<g id="node30" class="node"><title>Node30</title>
<polygon fill="white" stroke="#bfbfbf" points="2015.5,-56.5 2015.5,-75.5 2071.5,-75.5 2071.5,-56.5 2015.5,-56.5"/>
<text text-anchor="middle" x="2043.5" y="-63.5" font-family="Helvetica,sans-Serif" font-size="10.00">stdbool.h</text>
</g>
<!-- Node26&#45;&gt;Node30 -->
<g id="edge30" class="edge"><title>Node26&#45;&gt;Node30</title>
<path fill="none" stroke="midnightblue" d="M1820.34,-112.9C1864.88,-104.712 1935.35,-91.3761 2005.37,-76.1716"/>
<polygon fill="midnightblue" stroke="midnightblue" points="2006.23,-79.568 2015.25,-74.0141 2004.73,-72.7294 2006.23,-79.568"/>
</g>
<!-- Node29&#45;&gt;Node27 -->
<g id="edge29" class="edge"><title>Node29&#45;&gt;Node27</title>
<path fill="none" stroke="midnightblue" d="M1920.81,-56.324C1908.6,-47.979 1889.92,-35.2122 1875.5,-25.3524"/>
<polygon fill="midnightblue" stroke="midnightblue" points="1877.39,-22.4082 1867.16,-19.6545 1873.44,-28.1871 1877.39,-22.4082"/>
</g>
</g>
</svg>
        <g id="navigator" transform="translate(0 0)" fill="#404254">
                <rect fill="#f2f5e9" fill-opacity="0.5" stroke="#606060" stroke-width=".5" x="0" y="0" width="60" height="60"/>
                <use id="zoomplus" xlink:href="#zoomPlus" x="17" y="9" onmousedown="handleZoom(evt,'in')"/>
                <use id="zoomminus" xlink:href="#zoomMin" x="42" y="9" onmousedown="handleZoom(evt,'out')"/>
                <use id="reset" xlink:href="#resetDef" x="30" y="36" onmousedown="handleReset()"/>
                <g id="arrowUp" xlink:href="#dirArrow" transform="translate(30 24)" onmousedown="handlePan(0,-1)">
                  <use xlink:href="#rim" fill="#404040">
                        <set attributeName="fill" to="#808080" begin="arrowUp.mouseover" end="arrowUp.mouseout"/>
                  </use>
                  <path fill="none" stroke="white" stroke-width="1.5" d="M0,-3.0v7 M-2.5,-0.5L0,-3.0L2.5,-0.5"/>
                </g>
                <g id="arrowRight" xlink:href="#dirArrow" transform="rotate(90) translate(36 -43)" onmousedown="handlePan(1,0)">
                  <use xlink:href="#rim" fill="#404040">
                        <set attributeName="fill" to="#808080" begin="arrowRight.mouseover" end="arrowRight.mouseout"/>
                  </use>
                  <path fill="none" stroke="white" stroke-width="1.5" d="M0,-3.0v7 M-2.5,-0.5L0,-3.0L2.5,-0.5"/>
                </g>
                <g id="arrowDown" xlink:href="#dirArrow" transform="rotate(180) translate(-30 -48)" onmousedown="handlePan(0,1)">
                  <use xlink:href="#rim" fill="#404040">
                        <set attributeName="fill" to="#808080" begin="arrowDown.mouseover" end="arrowDown.mouseout"/>
                  </use>
                  <path fill="none" stroke="white" stroke-width="1.5" d="M0,-3.0v7 M-2.5,-0.5L0,-3.0L2.5,-0.5"/>
                </g>
                <g id="arrowLeft" xlink:href="#dirArrow" transform="rotate(270) translate(-36 17)" onmousedown="handlePan(-1,0)">
                  <use xlink:href="#rim" fill="#404040">
                        <set attributeName="fill" to="#808080" begin="arrowLeft.mouseover" end="arrowLeft.mouseout"/>
                  </use>
                  <path fill="none" stroke="white" stroke-width="1.5" d="M0,-3.0v7 M-2.5,-0.5L0,-3.0L2.5,-0.5"/>
                </g>
        </g>
        <svg viewBox="0 0 15 15" width="100%" height="30px" preserveAspectRatio="xMaxYMin meet">
         <g id="arrow_out" transform="scale(0.3 0.3)">
          <a xlink:href="fftviewer__frFFTviewer_8h__incl_org.svg" target="_base">
           <rect id="button" ry="5" rx="5" y="6" x="6" height="38" width="38"
                fill="#f2f5e9" fill-opacity="0.5" stroke="#606060" stroke-width="1.0"/>
           <path id="arrow"
             d="M 11.500037,31.436501 C 11.940474,20.09759 22.043105,11.32322 32.158766,21.979434 L 37.068811,17.246167 C 37.068811,17.246167 37.088388,32 37.088388,32 L 22.160133,31.978069 C 22.160133,31.978069 26.997745,27.140456 26.997745,27.140456 C 18.528582,18.264221 13.291696,25.230495 11.500037,31.436501 z"
             style="fill:#404040;"/>
          </a>
         </g>
        </svg>
</svg>
