<?xml version="1.0" encoding="UTF-8" standalone="no"?>
<!DOCTYPE svg PUBLIC "-//W3C//DTD SVG 1.1//EN"
 "http://www.w3.org/Graphics/SVG/1.1/DTD/svg11.dtd">
<!-- Generated by graphviz version 2.38.0 (20140413.2041)
 -->
<!-- Title: /home/erik/prefix/default/src/limesuite&#45;dev/src/fftviewer_wxgui/fftviewer_frFFTviewer.h Pages: 1 -->
<!--zoomable 229 -->
<svg id="main" version="1.1" xmlns="http://www.w3.org/2000/svg" xmlns:xlink="http://www.w3.org/1999/xlink" xml:space="preserve" onload="init(evt)">
<style type="text/css"><![CDATA[
.edge:hover path { stroke: red; }
.edge:hover polygon { stroke: red; fill: red; }
]]></style>
<script type="text/javascript"><![CDATA[
var edges = document.getElementsByTagName('g');
if (edges && edges.length) {
  for (var i=0;i<edges.length;i++) {
    if (edges[i].id.substr(0,4)=='edge') {
      edges[i].setAttribute('class','edge');
    }
  }
}
]]></script>
        <defs>
                <circle id="rim" cx="0" cy="0" r="7"/>
                <circle id="rim2" cx="0" cy="0" r="3.5"/>
                <g id="zoomPlus">
                        <use xlink:href="#rim" fill="#404040">
                                <set attributeName="fill" to="#808080" begin="zoomplus.mouseover" end="zoomplus.mouseout"/>
                        </use>
                        <path d="M-4,0h8M0,-4v8" fill="none" stroke="white" stroke-width="1.5" pointer-events="none"/>
                </g>
                <g id="zoomMin">
                        <use xlink:href="#rim" fill="#404040">
                                <set attributeName="fill" to="#808080" begin="zoomminus.mouseover" end="zoomminus.mouseout"/>
                        </use>
                        <path d="M-4,0h8" fill="none" stroke="white" stroke-width="1.5" pointer-events="none"/>
                </g>
                <g id="dirArrow">
                        <path fill="none" stroke="white" stroke-width="1.5" d="M0,-3.0v7 M-2.5,-0.5L0,-3.0L2.5,-0.5"/>
                </g>
               <g id="resetDef">
                       <use xlink:href="#rim2" fill="#404040">
                               <set attributeName="fill" to="#808080" begin="reset.mouseover" end="reset.mouseout"/>
                       </use>
               </g>
        </defs>

<script type="text/javascript">
var viewWidth = 1902;
var viewHeight = 229;
var sectionId = 'dynsection-0';
</script>
<script xlink:href="../../svgpan.js"/>
<svg id="graph" class="graph">
<g id="viewport">
<title>/home/erik/prefix/default/src/limesuite&#45;dev/src/fftviewer_wxgui/fftviewer_frFFTviewer.h</title>
<polygon fill="white" stroke="none" points="-4,4 -4,-225 1897.5,-225 1897.5,4 -4,4"/>
<!-- Node1 -->
<g id="node1" class="node"><title>Node1</title>
<polygon fill="#bfbfbf" stroke="black" points="843.5,-168.5 843.5,-220.5 971.5,-220.5 971.5,-168.5 843.5,-168.5"/>
<text text-anchor="start" x="851.5" y="-208.5" font-family="Helvetica,sans-Serif" font-size="10.00">/home/erik/prefix/default</text>
<text text-anchor="start" x="851.5" y="-197.5" font-family="Helvetica,sans-Serif" font-size="10.00">/src/limesuite&#45;dev/src</text>
<text text-anchor="start" x="851.5" y="-186.5" font-family="Helvetica,sans-Serif" font-size="10.00">/fftviewer_wxgui/fftviewer</text>
<text text-anchor="middle" x="907.5" y="-175.5" font-family="Helvetica,sans-Serif" font-size="10.00">_frFFTviewer.h</text>
</g>
<!-- Node2 -->
<g id="node2" class="node"><title>Node2</title>
<polygon fill="white" stroke="#bfbfbf" points="673.5,-112.5 673.5,-131.5 717.5,-131.5 717.5,-112.5 673.5,-112.5"/>
<text text-anchor="middle" x="695.5" y="-119.5" font-family="Helvetica,sans-Serif" font-size="10.00">thread</text>
</g>
<!-- Node1&#45;&gt;Node2 -->
<g id="edge1" class="edge"><title>Node1&#45;&gt;Node2</title>
<path fill="none" stroke="midnightblue" d="M843.318,-172.156C804.996,-159.412 757.989,-143.78 727.42,-133.615"/>
<polygon fill="midnightblue" stroke="midnightblue" points="728.314,-130.224 717.72,-130.389 726.105,-136.866 728.314,-130.224"/>
</g>
<!-- Node3 -->
<g id="node3" class="node"><title>Node3</title>
<polygon fill="white" stroke="#bfbfbf" points="735.5,-112.5 735.5,-131.5 781.5,-131.5 781.5,-112.5 735.5,-112.5"/>
<text text-anchor="middle" x="758.5" y="-119.5" font-family="Helvetica,sans-Serif" font-size="10.00">atomic</text>
</g>
<!-- Node1&#45;&gt;Node3 -->
<g id="edge2" class="edge"><title>Node1&#45;&gt;Node3</title>
<path fill="none" stroke="midnightblue" d="M854.549,-168.446C831.221,-157.408 804.81,-144.912 785.595,-135.82"/>
<polygon fill="midnightblue" stroke="midnightblue" points="787.058,-132.64 776.522,-131.527 784.064,-138.968 787.058,-132.64"/>
</g>
<!-- Node4 -->
<g id="node4" class="node"><title>Node4</title>
<polygon fill="white" stroke="#bfbfbf" points="799.5,-112.5 799.5,-131.5 843.5,-131.5 843.5,-112.5 799.5,-112.5"/>
<text text-anchor="middle" x="821.5" y="-119.5" font-family="Helvetica,sans-Serif" font-size="10.00">vector</text>
</g>
<!-- Node1&#45;&gt;Node4 -->
<g id="edge3" class="edge"><title>Node1&#45;&gt;Node4</title>
<path fill="none" stroke="midnightblue" d="M876.937,-168.446C864.595,-158.328 850.756,-146.983 839.993,-138.16"/>
<polygon fill="midnightblue" stroke="midnightblue" points="842.06,-135.328 832.107,-131.695 837.622,-140.742 842.06,-135.328"/>
</g>
<!-- Node5 -->
<g id="node5" class="node"><title>Node5</title>
<g id="a_node5"><a xlink:href="../../d8/d67/fftviewer__wxgui_8h.html" target="_top" xlink:title="fftviewer_wxgui.h">
<polygon fill="white" stroke="black" points="861,-112.5 861,-131.5 954,-131.5 954,-112.5 861,-112.5"/>
<text text-anchor="middle" x="907.5" y="-119.5" font-family="Helvetica,sans-Serif" font-size="10.00">fftviewer_wxgui.h</text>
</a>
</g>
</g>
<!-- Node1&#45;&gt;Node5 -->
<g id="edge4" class="edge"><title>Node1&#45;&gt;Node5</title>
<path fill="none" stroke="midnightblue" d="M907.5,-168.446C907.5,-159.73 907.5,-150.104 907.5,-141.964"/>
<polygon fill="midnightblue" stroke="midnightblue" points="911,-141.695 907.5,-131.695 904,-141.696 911,-141.695"/>
</g>
<!-- Node26 -->
<g id="node26" class="node"><title>Node26</title>
<g id="a_node26"><a xlink:href="../../d5/d07/LimeSuite_8h.html" target="_top" xlink:title="LMS API library. ">
<polygon fill="white" stroke="black" points="972,-112.5 972,-131.5 1061,-131.5 1061,-112.5 972,-112.5"/>
<text text-anchor="middle" x="1016.5" y="-119.5" font-family="Helvetica,sans-Serif" font-size="10.00">lime/LimeSuite.h</text>
</a>
</g>
</g>
<!-- Node1&#45;&gt;Node26 -->
<g id="edge25" class="edge"><title>Node1&#45;&gt;Node26</title>
<path fill="none" stroke="midnightblue" d="M946.236,-168.446C962.444,-157.963 980.687,-146.163 994.522,-137.215"/>
<polygon fill="midnightblue" stroke="midnightblue" points="996.821,-139.897 1003.32,-131.527 993.019,-134.019 996.821,-139.897"/>
</g>
<!-- Node29 -->
<g id="node29" class="node"><title>Node29</title>
<polygon fill="white" stroke="#bfbfbf" points="1078.5,-112.5 1078.5,-131.5 1140.5,-131.5 1140.5,-112.5 1078.5,-112.5"/>
<text text-anchor="middle" x="1109.5" y="-119.5" font-family="Helvetica,sans-Serif" font-size="10.00">wx/timer.h</text>
</g>
<!-- Node1&#45;&gt;Node29 -->
<g id="edge28" class="edge"><title>Node1&#45;&gt;Node29</title>
<path fill="none" stroke="midnightblue" d="M971.692,-171.096C1006.06,-159.103 1047.01,-144.81 1075.29,-134.939"/>
<polygon fill="midnightblue" stroke="midnightblue" points="1076.82,-138.114 1085.1,-131.515 1074.51,-131.505 1076.82,-138.114"/>
</g>
<!-- Node30 -->
<g id="node30" class="node"><title>Node30</title>
<polygon fill="white" stroke="#bfbfbf" points="1158.5,-112.5 1158.5,-131.5 1202.5,-131.5 1202.5,-112.5 1158.5,-112.5"/>
<text text-anchor="middle" x="1180.5" y="-119.5" font-family="Helvetica,sans-Serif" font-size="10.00">mutex</text>
</g>
<!-- Node1&#45;&gt;Node30 -->
<g id="edge29" class="edge"><title>Node1&#45;&gt;Node30</title>
<path fill="none" stroke="midnightblue" d="M971.599,-177.835C1018.18,-166.308 1082.96,-149.981 1148.5,-132.211"/>
<polygon fill="midnightblue" stroke="midnightblue" points="1149.44,-135.582 1158.17,-129.579 1147.61,-128.827 1149.44,-135.582"/>
</g>
<!-- Node6 -->
<g id="node6" class="node"><title>Node6</title>
<polygon fill="white" stroke="#bfbfbf" points="0,-56.5 0,-75.5 71,-75.5 71,-56.5 0,-56.5"/>
<text text-anchor="middle" x="35.5" y="-63.5" font-family="Helvetica,sans-Serif" font-size="10.00">wx/artprov.h</text>
</g>
<!-- Node5&#45;&gt;Node6 -->
<g id="edge5" class="edge"><title>Node5&#45;&gt;Node6</title>
<path fill="none" stroke="midnightblue" d="M860.742,-112.971C857.957,-112.611 855.194,-112.282 852.5,-112 514.139,-76.5467 423.157,-117.015 81.2138,-75.8717"/>
<polygon fill="midnightblue" stroke="midnightblue" points="81.6322,-72.3969 71.2824,-74.6624 80.786,-79.3456 81.6322,-72.3969"/>
</g>
<!-- Node7 -->
<g id="node7" class="node"><title>Node7</title>
<polygon fill="white" stroke="#bfbfbf" points="89.5,-56.5 89.5,-75.5 175.5,-75.5 175.5,-56.5 89.5,-56.5"/>
<text text-anchor="middle" x="132.5" y="-63.5" font-family="Helvetica,sans-Serif" font-size="10.00">wx/xrc/xmlres.h</text>
</g>
<!-- Node5&#45;&gt;Node7 -->
<g id="edge6" class="edge"><title>Node5&#45;&gt;Node7</title>
<path fill="none" stroke="midnightblue" d="M860.739,-112.994C857.956,-112.628 855.193,-112.292 852.5,-112 560.233,-80.3061 481.693,-108.756 185.743,-75.9967"/>
<polygon fill="midnightblue" stroke="midnightblue" points="185.902,-72.4926 175.574,-74.8566 185.122,-79.449 185.902,-72.4926"/>
</g>
<!-- Node8 -->
<g id="node8" class="node"><title>Node8</title>
<polygon fill="white" stroke="#bfbfbf" points="193.5,-56.5 193.5,-75.5 257.5,-75.5 257.5,-56.5 193.5,-56.5"/>
<text text-anchor="middle" x="225.5" y="-63.5" font-family="Helvetica,sans-Serif" font-size="10.00">wx/panel.h</text>
</g>
<!-- Node5&#45;&gt;Node8 -->
<g id="edge7" class="edge"><title>Node5&#45;&gt;Node8</title>
<path fill="none" stroke="midnightblue" d="M860.737,-113.019C857.954,-112.646 855.192,-112.302 852.5,-112 596.485,-83.2635 526.693,-111.349 267.728,-75.9461"/>
<polygon fill="midnightblue" stroke="midnightblue" points="268.03,-72.4545 257.644,-74.5486 267.069,-79.3882 268.03,-72.4545"/>
</g>
<!-- Node9 -->
<g id="node9" class="node"><title>Node9</title>
<polygon fill="white" stroke="#bfbfbf" points="275.5,-56.5 275.5,-75.5 347.5,-75.5 347.5,-56.5 275.5,-56.5"/>
<text text-anchor="middle" x="311.5" y="-63.5" font-family="Helvetica,sans-Serif" font-size="10.00">wx/gdicmn.h</text>
</g>
<!-- Node5&#45;&gt;Node9 -->
<g id="edge8" class="edge"><title>Node5&#45;&gt;Node9</title>
<path fill="none" stroke="midnightblue" d="M860.732,-113.054C857.95,-112.673 855.191,-112.317 852.5,-112 636.318,-86.5191 577.293,-105.148 358.009,-76.0377"/>
<polygon fill="midnightblue" stroke="midnightblue" points="358.161,-72.5267 347.784,-74.6613 357.227,-79.4641 358.161,-72.5267"/>
</g>
<!-- Node10 -->
<g id="node10" class="node"><title>Node10</title>
<polygon fill="white" stroke="#bfbfbf" points="366,-56.5 366,-75.5 423,-75.5 423,-56.5 366,-56.5"/>
<text text-anchor="middle" x="394.5" y="-63.5" font-family="Helvetica,sans-Serif" font-size="10.00">wx/font.h</text>
</g>
<!-- Node5&#45;&gt;Node10 -->
<g id="edge9" class="edge"><title>Node5&#45;&gt;Node10</title>
<path fill="none" stroke="midnightblue" d="M860.727,-113.095C857.947,-112.703 855.188,-112.334 852.5,-112 669.418,-89.227 618.612,-105.68 433.179,-76.0494"/>
<polygon fill="midnightblue" stroke="midnightblue" points="433.526,-72.56 423.094,-74.4141 432.405,-79.4698 433.526,-72.56"/>
</g>
<!-- Node11 -->
<g id="node11" class="node"><title>Node11</title>
<polygon fill="white" stroke="#bfbfbf" points="441,-56.5 441,-75.5 508,-75.5 508,-56.5 441,-56.5"/>
<text text-anchor="middle" x="474.5" y="-63.5" font-family="Helvetica,sans-Serif" font-size="10.00">wx/colour.h</text>
</g>
<!-- Node5&#45;&gt;Node11 -->
<g id="edge10" class="edge"><title>Node5&#45;&gt;Node11</title>
<path fill="none" stroke="midnightblue" d="M860.719,-113.164C857.94,-112.755 855.185,-112.363 852.5,-112 706.865,-92.298 666.517,-99.4402 518.291,-76.1534"/>
<polygon fill="midnightblue" stroke="midnightblue" points="518.795,-72.6896 508.369,-74.5749 517.695,-79.6027 518.795,-72.6896"/>
</g>
<!-- Node12 -->
<g id="node12" class="node"><title>Node12</title>
<polygon fill="white" stroke="#bfbfbf" points="526,-56.5 526,-75.5 601,-75.5 601,-56.5 526,-56.5"/>
<text text-anchor="middle" x="563.5" y="-63.5" font-family="Helvetica,sans-Serif" font-size="10.00">wx/settings.h</text>
</g>
<!-- Node5&#45;&gt;Node12 -->
<g id="edge11" class="edge"><title>Node5&#45;&gt;Node12</title>
<path fill="none" stroke="midnightblue" d="M860.997,-113.34C858.123,-112.882 855.272,-112.432 852.5,-112 747.784,-95.6766 718.784,-94.5414 611.099,-76.2161"/>
<polygon fill="midnightblue" stroke="midnightblue" points="611.577,-72.7471 601.13,-74.509 610.395,-79.6466 611.577,-72.7471"/>
</g>
<!-- Node13 -->
<g id="node13" class="node"><title>Node13</title>
<polygon fill="white" stroke="#bfbfbf" points="619,-56.5 619,-75.5 684,-75.5 684,-56.5 619,-56.5"/>
<text text-anchor="middle" x="651.5" y="-63.5" font-family="Helvetica,sans-Serif" font-size="10.00">wx/string.h</text>
</g>
<!-- Node5&#45;&gt;Node13 -->
<g id="edge12" class="edge"><title>Node5&#45;&gt;Node13</title>
<path fill="none" stroke="midnightblue" d="M866.465,-112.42C825.399,-103.822 760.14,-90.1306 693.843,-76.0665"/>
<polygon fill="midnightblue" stroke="midnightblue" points="694.565,-72.6419 684.057,-73.9893 693.112,-79.4894 694.565,-72.6419"/>
</g>
<!-- Node14 -->
<g id="node14" class="node"><title>Node14</title>
<polygon fill="white" stroke="#bfbfbf" points="702.5,-56.5 702.5,-75.5 764.5,-75.5 764.5,-56.5 702.5,-56.5"/>
<text text-anchor="middle" x="733.5" y="-63.5" font-family="Helvetica,sans-Serif" font-size="10.00">wx/sizer.h</text>
</g>
<!-- Node5&#45;&gt;Node14 -->
<g id="edge13" class="edge"><title>Node5&#45;&gt;Node14</title>
<path fill="none" stroke="midnightblue" d="M879.929,-112.444C850.403,-103.28 803.382,-88.6876 770.617,-78.5192"/>
<polygon fill="midnightblue" stroke="midnightblue" points="771.53,-75.1378 760.942,-75.5164 769.455,-81.8232 771.53,-75.1378"/>
</g>
<!-- Node15 -->
<g id="node15" class="node"><title>Node15</title>
<polygon fill="white" stroke="#bfbfbf" points="782.5,-56.5 782.5,-75.5 852.5,-75.5 852.5,-56.5 782.5,-56.5"/>
<text text-anchor="middle" x="817.5" y="-63.5" font-family="Helvetica,sans-Serif" font-size="10.00">wx/splitter.h</text>
</g>
<!-- Node5&#45;&gt;Node15 -->
<g id="edge14" class="edge"><title>Node5&#45;&gt;Node15</title>
<path fill="none" stroke="midnightblue" d="M893.04,-112.324C879,-103.9 857.452,-90.9709 840.957,-81.0741"/>
<polygon fill="midnightblue" stroke="midnightblue" points="842.3,-77.7983 831.924,-75.6545 838.698,-83.8007 842.3,-77.7983"/>
</g>
<!-- Node16 -->
<g id="node16" class="node"><title>Node16</title>
<polygon fill="white" stroke="#bfbfbf" points="870.5,-56.5 870.5,-75.5 944.5,-75.5 944.5,-56.5 870.5,-56.5"/>
<text text-anchor="middle" x="907.5" y="-63.5" font-family="Helvetica,sans-Serif" font-size="10.00">wx/stattext.h</text>
</g>
<!-- Node5&#45;&gt;Node16 -->
<g id="edge15" class="edge"><title>Node5&#45;&gt;Node16</title>
<path fill="none" stroke="midnightblue" d="M907.5,-112.083C907.5,-105.006 907.5,-94.8611 907.5,-85.9865"/>
<polygon fill="midnightblue" stroke="midnightblue" points="911,-85.751 907.5,-75.7511 904,-85.7511 911,-85.751"/>
</g>
<!-- Node17 -->
<g id="node17" class="node"><title>Node17</title>
<polygon fill="white" stroke="#bfbfbf" points="963,-56.5 963,-75.5 1034,-75.5 1034,-56.5 963,-56.5"/>
<text text-anchor="middle" x="998.5" y="-63.5" font-family="Helvetica,sans-Serif" font-size="10.00">wx/textctrl.h</text>
</g>
<!-- Node5&#45;&gt;Node17 -->
<g id="edge16" class="edge"><title>Node5&#45;&gt;Node17</title>
<path fill="none" stroke="midnightblue" d="M922.121,-112.324C936.449,-103.822 958.513,-90.7288 975.249,-80.7975"/>
<polygon fill="midnightblue" stroke="midnightblue" points="977.102,-83.7677 983.916,-75.6545 973.53,-77.7478 977.102,-83.7677"/>
</g>
<!-- Node18 -->
<g id="node18" class="node"><title>Node18</title>
<polygon fill="white" stroke="#bfbfbf" points="1052.5,-56.5 1052.5,-75.5 1122.5,-75.5 1122.5,-56.5 1052.5,-56.5"/>
<text text-anchor="middle" x="1087.5" y="-63.5" font-family="Helvetica,sans-Serif" font-size="10.00">wx/valtext.h</text>
</g>
<!-- Node5&#45;&gt;Node18 -->
<g id="edge17" class="edge"><title>Node5&#45;&gt;Node18</title>
<path fill="none" stroke="midnightblue" d="M936.022,-112.444C966.566,-103.28 1015.21,-88.6876 1049.1,-78.5192"/>
<polygon fill="midnightblue" stroke="midnightblue" points="1050.54,-81.7424 1059.11,-75.5164 1048.53,-75.0376 1050.54,-81.7424"/>
</g>
<!-- Node19 -->
<g id="node19" class="node"><title>Node19</title>
<polygon fill="white" stroke="#bfbfbf" points="1140.5,-56.5 1140.5,-75.5 1212.5,-75.5 1212.5,-56.5 1140.5,-56.5"/>
<text text-anchor="middle" x="1176.5" y="-63.5" font-family="Helvetica,sans-Serif" font-size="10.00">wx/spinctrl.h</text>
</g>
<!-- Node5&#45;&gt;Node19 -->
<g id="edge18" class="edge"><title>Node5&#45;&gt;Node19</title>
<path fill="none" stroke="midnightblue" d="M950.124,-112.444C999.187,-102.594 1079.5,-86.4731 1130.1,-76.3148"/>
<polygon fill="midnightblue" stroke="midnightblue" points="1131,-79.704 1140.11,-74.3042 1129.62,-72.8409 1131,-79.704"/>
</g>
<!-- Node20 -->
<g id="node20" class="node"><title>Node20</title>
<polygon fill="white" stroke="#bfbfbf" points="1231,-56.5 1231,-75.5 1304,-75.5 1304,-56.5 1231,-56.5"/>
<text text-anchor="middle" x="1267.5" y="-63.5" font-family="Helvetica,sans-Serif" font-size="10.00">wx/statbox.h</text>
</g>
<!-- Node5&#45;&gt;Node20 -->
<g id="edge19" class="edge"><title>Node5&#45;&gt;Node20</title>
<path fill="none" stroke="midnightblue" d="M954.296,-113.264C957.071,-112.83 959.821,-112.405 962.5,-112 1074.27,-95.0902 1105.2,-95.1482 1220.91,-76.0146"/>
<polygon fill="midnightblue" stroke="midnightblue" points="1221.59,-79.4505 1230.87,-74.3546 1220.44,-72.5457 1221.59,-79.4505"/>
</g>
<!-- Node21 -->
<g id="node21" class="node"><title>Node21</title>
<polygon fill="white" stroke="#bfbfbf" points="1322,-56.5 1322,-75.5 1391,-75.5 1391,-56.5 1322,-56.5"/>
<text text-anchor="middle" x="1356.5" y="-63.5" font-family="Helvetica,sans-Serif" font-size="10.00">wx/choice.h</text>
</g>
<!-- Node5&#45;&gt;Node21 -->
<g id="edge20" class="edge"><title>Node5&#45;&gt;Node21</title>
<path fill="none" stroke="midnightblue" d="M954.28,-113.15C957.059,-112.744 959.815,-112.358 962.5,-112 1114.33,-91.7875 1156.22,-99.3682 1312.03,-75.9146"/>
<polygon fill="midnightblue" stroke="midnightblue" points="1312.61,-79.3667 1321.97,-74.4001 1311.56,-72.4466 1312.61,-79.3667"/>
</g>
<!-- Node22 -->
<g id="node22" class="node"><title>Node22</title>
<polygon fill="white" stroke="#bfbfbf" points="1409,-56.5 1409,-75.5 1492,-75.5 1492,-56.5 1409,-56.5"/>
<text text-anchor="middle" x="1450.5" y="-63.5" font-family="Helvetica,sans-Serif" font-size="10.00">wx/checkbox.h</text>
</g>
<!-- Node5&#45;&gt;Node22 -->
<g id="edge21" class="edge"><title>Node5&#45;&gt;Node22</title>
<path fill="none" stroke="midnightblue" d="M954.271,-113.085C957.052,-112.696 959.811,-112.33 962.5,-112 1152.72,-88.6399 1204.52,-100.548 1398.83,-75.9595"/>
<polygon fill="midnightblue" stroke="midnightblue" points="1399.33,-79.4253 1408.8,-74.6826 1398.44,-72.4821 1399.33,-79.4253"/>
</g>
<!-- Node23 -->
<g id="node23" class="node"><title>Node23</title>
<polygon fill="white" stroke="#bfbfbf" points="1510.5,-56.5 1510.5,-75.5 1578.5,-75.5 1578.5,-56.5 1510.5,-56.5"/>
<text text-anchor="middle" x="1544.5" y="-63.5" font-family="Helvetica,sans-Serif" font-size="10.00">wx/button.h</text>
</g>
<!-- Node5&#45;&gt;Node23 -->
<g id="edge22" class="edge"><title>Node5&#45;&gt;Node23</title>
<path fill="none" stroke="midnightblue" d="M954.265,-113.036C957.048,-112.659 959.809,-112.31 962.5,-112 1200.58,-84.6188 1263.01,-108.085 1500.5,-76 1500.6,-75.9863 1500.7,-75.9725 1500.8,-75.9586"/>
<polygon fill="midnightblue" stroke="midnightblue" points="1501.14,-79.4498 1510.47,-74.4336 1500.04,-72.5354 1501.14,-79.4498"/>
</g>
<!-- Node24 -->
<g id="node24" class="node"><title>Node24</title>
<polygon fill="white" stroke="#bfbfbf" points="1597,-56.5 1597,-75.5 1664,-75.5 1664,-56.5 1597,-56.5"/>
<text text-anchor="middle" x="1630.5" y="-63.5" font-family="Helvetica,sans-Serif" font-size="10.00">wx/gauge.h</text>
</g>
<!-- Node5&#45;&gt;Node24 -->
<g id="edge23" class="edge"><title>Node5&#45;&gt;Node24</title>
<path fill="none" stroke="midnightblue" d="M954.262,-113.006C957.045,-112.637 959.807,-112.297 962.5,-112 1235.82,-81.8496 1309.95,-111.881 1586.84,-75.8617"/>
<polygon fill="midnightblue" stroke="midnightblue" points="1587.32,-79.3289 1596.78,-74.5524 1586.41,-72.3889 1587.32,-79.3289"/>
</g>
<!-- Node25 -->
<g id="node25" class="node"><title>Node25</title>
<polygon fill="white" stroke="#bfbfbf" points="1682,-56.5 1682,-75.5 1747,-75.5 1747,-56.5 1682,-56.5"/>
<text text-anchor="middle" x="1714.5" y="-63.5" font-family="Helvetica,sans-Serif" font-size="10.00">wx/frame.h</text>
</g>
<!-- Node5&#45;&gt;Node25 -->
<g id="edge24" class="edge"><title>Node5&#45;&gt;Node25</title>
<path fill="none" stroke="midnightblue" d="M954.26,-112.984C957.044,-112.62 959.806,-112.288 962.5,-112 1273.74,-78.7608 1358.1,-117.22 1671.62,-76.0331"/>
<polygon fill="midnightblue" stroke="midnightblue" points="1672.46,-79.4517 1681.91,-74.6631 1671.54,-72.5129 1672.46,-79.4517"/>
</g>
<!-- Node27 -->
<g id="node27" class="node"><title>Node27</title>
<g id="a_node27"><a xlink:href="../../d1/d2e/LMS7002M__parameters_8h.html" target="_top" xlink:title="List of LMS7002M transceiver control parameters. ">
<polygon fill="white" stroke="black" points="1765.5,-56.5 1765.5,-75.5 1893.5,-75.5 1893.5,-56.5 1765.5,-56.5"/>
<text text-anchor="middle" x="1829.5" y="-63.5" font-family="Helvetica,sans-Serif" font-size="10.00">LMS7002M_parameters.h</text>
</a>
</g>
</g>
<!-- Node26&#45;&gt;Node27 -->
<g id="edge26" class="edge"><title>Node26&#45;&gt;Node27</title>
<path fill="none" stroke="midnightblue" d="M1061.27,-113.023C1064.05,-112.644 1066.81,-112.298 1069.5,-112 1370.13,-78.7113 1450.2,-102.206 1755.41,-76.0277"/>
<polygon fill="midnightblue" stroke="midnightblue" points="1755.77,-79.5094 1765.43,-75.1572 1755.17,-72.5357 1755.77,-79.5094"/>
</g>
<!-- Node28 -->
<g id="node28" class="node"><title>Node28</title>
<polygon fill="white" stroke="#bfbfbf" points="1805,-0.5 1805,-19.5 1854,-19.5 1854,-0.5 1805,-0.5"/>
<text text-anchor="middle" x="1829.5" y="-7.5" font-family="Helvetica,sans-Serif" font-size="10.00">stdint.h</text>
</g>
<!-- Node27&#45;&gt;Node28 -->
<g id="edge27" class="edge"><title>Node27&#45;&gt;Node28</title>
<path fill="none" stroke="midnightblue" d="M1829.5,-56.083C1829.5,-49.0059 1829.5,-38.8611 1829.5,-29.9865"/>
<polygon fill="midnightblue" stroke="midnightblue" points="1833,-29.751 1829.5,-19.7511 1826,-29.7511 1833,-29.751"/>
</g>
</g>
</svg>
        <g id="navigator" transform="translate(0 0)" fill="#404254">
                <rect fill="#f2f5e9" fill-opacity="0.5" stroke="#606060" stroke-width=".5" x="0" y="0" width="60" height="60"/>
                <use id="zoomplus" xlink:href="#zoomPlus" x="17" y="9" onmousedown="handleZoom(evt,'in')"/>
                <use id="zoomminus" xlink:href="#zoomMin" x="42" y="9" onmousedown="handleZoom(evt,'out')"/>
                <use id="reset" xlink:href="#resetDef" x="30" y="36" onmousedown="handleReset()"/>
                <g id="arrowUp" xlink:href="#dirArrow" transform="translate(30 24)" onmousedown="handlePan(0,-1)">
                  <use xlink:href="#rim" fill="#404040">
                        <set attributeName="fill" to="#808080" begin="arrowUp.mouseover" end="arrowUp.mouseout"/>
                  </use>
                  <path fill="none" stroke="white" stroke-width="1.5" d="M0,-3.0v7 M-2.5,-0.5L0,-3.0L2.5,-0.5"/>
                </g>
                <g id="arrowRight" xlink:href="#dirArrow" transform="rotate(90) translate(36 -43)" onmousedown="handlePan(1,0)">
                  <use xlink:href="#rim" fill="#404040">
                        <set attributeName="fill" to="#808080" begin="arrowRight.mouseover" end="arrowRight.mouseout"/>
                  </use>
                  <path fill="none" stroke="white" stroke-width="1.5" d="M0,-3.0v7 M-2.5,-0.5L0,-3.0L2.5,-0.5"/>
                </g>
                <g id="arrowDown" xlink:href="#dirArrow" transform="rotate(180) translate(-30 -48)" onmousedown="handlePan(0,1)">
                  <use xlink:href="#rim" fill="#404040">
                        <set attributeName="fill" to="#808080" begin="arrowDown.mouseover" end="arrowDown.mouseout"/>
                  </use>
                  <path fill="none" stroke="white" stroke-width="1.5" d="M0,-3.0v7 M-2.5,-0.5L0,-3.0L2.5,-0.5"/>
                </g>
                <g id="arrowLeft" xlink:href="#dirArrow" transform="rotate(270) translate(-36 17)" onmousedown="handlePan(-1,0)">
                  <use xlink:href="#rim" fill="#404040">
                        <set attributeName="fill" to="#808080" begin="arrowLeft.mouseover" end="arrowLeft.mouseout"/>
                  </use>
                  <path fill="none" stroke="white" stroke-width="1.5" d="M0,-3.0v7 M-2.5,-0.5L0,-3.0L2.5,-0.5"/>
                </g>
        </g>
        <svg viewBox="0 0 15 15" width="100%" height="30px" preserveAspectRatio="xMaxYMin meet">
         <g id="arrow_out" transform="scale(0.3 0.3)">
          <a xlink:href="fftviewer__frFFTviewer_8h__incl_org.svg" target="_base">
           <rect id="button" ry="5" rx="5" y="6" x="6" height="38" width="38"
                fill="#f2f5e9" fill-opacity="0.5" stroke="#606060" stroke-width="1.0"/>
           <path id="arrow"
             d="M 11.500037,31.436501 C 11.940474,20.09759 22.043105,11.32322 32.158766,21.979434 L 37.068811,17.246167 C 37.068811,17.246167 37.088388,32 37.088388,32 L 22.160133,31.978069 C 22.160133,31.978069 26.997745,27.140456 26.997745,27.140456 C 18.528582,18.264221 13.291696,25.230495 11.500037,31.436501 z"
             style="fill:#404040;"/>
          </a>
         </g>
        </svg>
</svg>
