<?xml version="1.0" encoding="UTF-8" standalone="no"?>
<!DOCTYPE svg PUBLIC "-//W3C//DTD SVG 1.1//EN"
 "http://www.w3.org/Graphics/SVG/1.1/DTD/svg11.dtd">
<!-- Generated by graphviz version 2.38.0 (20140413.2041)
 -->
<!-- Title: lime::LMS7_LimeSDR_mini::LMS7_LimeSDR_mini Pages: 1 -->
<!--zoomable 123 -->
<svg id="main" version="1.1" xmlns="http://www.w3.org/2000/svg" xmlns:xlink="http://www.w3.org/1999/xlink" xml:space="preserve" onload="init(evt)">
<style type="text/css"><![CDATA[
.edge:hover path { stroke: red; }
.edge:hover polygon { stroke: red; fill: red; }
]]></style>
<script type="text/javascript"><![CDATA[
var edges = document.getElementsByTagName('g');
if (edges && edges.length) {
  for (var i=0;i<edges.length;i++) {
    if (edges[i].id.substr(0,4)=='edge') {
      edges[i].setAttribute('class','edge');
    }
  }
}
]]></script>
        <defs>
                <circle id="rim" cx="0" cy="0" r="7"/>
                <circle id="rim2" cx="0" cy="0" r="3.5"/>
                <g id="zoomPlus">
                        <use xlink:href="#rim" fill="#404040">
                                <set attributeName="fill" to="#808080" begin="zoomplus.mouseover" end="zoomplus.mouseout"/>
                        </use>
                        <path d="M-4,0h8M0,-4v8" fill="none" stroke="white" stroke-width="1.5" pointer-events="none"/>
                </g>
                <g id="zoomMin">
                        <use xlink:href="#rim" fill="#404040">
                                <set attributeName="fill" to="#808080" begin="zoomminus.mouseover" end="zoomminus.mouseout"/>
                        </use>
                        <path d="M-4,0h8" fill="none" stroke="white" stroke-width="1.5" pointer-events="none"/>
                </g>
                <g id="dirArrow">
                        <path fill="none" stroke="white" stroke-width="1.5" d="M0,-3.0v7 M-2.5,-0.5L0,-3.0L2.5,-0.5"/>
                </g>
               <g id="resetDef">
                       <use xlink:href="#rim2" fill="#404040">
                               <set attributeName="fill" to="#808080" begin="reset.mouseover" end="reset.mouseout"/>
                       </use>
               </g>
        </defs>

<script type="text/javascript">
var viewWidth = 688;
var viewHeight = 123;
var sectionId = 'dynsection-2';
</script>
<script xlink:href="../../svgpan.js"/>
<svg id="graph" class="graph">
<g id="viewport">
<title>lime::LMS7_LimeSDR_mini::LMS7_LimeSDR_mini</title>
<polygon fill="white" stroke="none" points="-4,4 -4,-119 684,-119 684,4 -4,4"/>
<!-- Node1 -->
<g id="node1" class="node"><title>Node1</title>
<polygon fill="#bfbfbf" stroke="black" points="0,-14 0,-44 143,-44 143,-14 0,-14"/>
<text text-anchor="start" x="8" y="-32" font-family="Helvetica,sans-Serif" font-size="10.00">lime::LMS7_LimeSDR</text>
<text text-anchor="middle" x="71.5" y="-21" font-family="Helvetica,sans-Serif" font-size="10.00">_mini::LMS7_LimeSDR_mini</text>
</g>
<!-- Node2 -->
<g id="node2" class="node"><title>Node2</title>
<g id="a_node2"><a xlink:href="../../db/dcf/classlime_1_1FPGA.html#a364e9ef0225dfd09a180c622e2f01e37" target="_top" xlink:title="lime::FPGA::DetectRefClk">
<polygon fill="white" stroke="black" points="181,-38.5 181,-57.5 315,-57.5 315,-38.5 181,-38.5"/>
<text text-anchor="middle" x="248" y="-45.5" font-family="Helvetica,sans-Serif" font-size="10.00">lime::FPGA::DetectRefClk</text>
</a>
</g>
</g>
<!-- Node1&#45;&gt;Node2 -->
<g id="edge1" class="edge"><title>Node1&#45;&gt;Node2</title>
<path fill="none" stroke="midnightblue" d="M143.224,-36.7006C152.285,-37.6872 161.592,-38.7006 170.736,-39.6962"/>
<polygon fill="midnightblue" stroke="midnightblue" points="170.649,-43.2073 180.969,-40.8104 171.406,-36.2484 170.649,-43.2073"/>
</g>
<!-- Node9 -->
<g id="node9" class="node"><title>Node9</title>
<g id="a_node9"><a xlink:href="../../db/dcf/classlime_1_1FPGA.html#a68a291f8d4f877e92f83c305465b7daf" target="_top" xlink:title="lime::FPGA::SetConnection">
<polygon fill="white" stroke="black" points="179,-0.5 179,-19.5 317,-19.5 317,-0.5 179,-0.5"/>
<text text-anchor="middle" x="248" y="-7.5" font-family="Helvetica,sans-Serif" font-size="10.00">lime::FPGA::SetConnection</text>
</a>
</g>
</g>
<!-- Node1&#45;&gt;Node9 -->
<g id="edge9" class="edge"><title>Node1&#45;&gt;Node9</title>
<path fill="none" stroke="midnightblue" d="M143.224,-21.2994C151.553,-20.3925 160.09,-19.463 168.517,-18.5455"/>
<polygon fill="midnightblue" stroke="midnightblue" points="169.157,-21.9965 178.72,-17.4345 168.399,-15.0376 169.157,-21.9965"/>
</g>
<!-- Node3 -->
<g id="node3" class="node"><title>Node3</title>
<g id="a_node3"><a xlink:href="../../d5/d6c/namespacelime.html#ab9de5f0d548dc93d20d3a0173e752fbd" target="_top" xlink:title="Log a debug message with formatting. ">
<polygon fill="white" stroke="black" points="353,-57.5 353,-76.5 420,-76.5 420,-57.5 353,-57.5"/>
<text text-anchor="middle" x="386.5" y="-64.5" font-family="Helvetica,sans-Serif" font-size="10.00">lime::debug</text>
</a>
</g>
</g>
<!-- Node2&#45;&gt;Node3 -->
<g id="edge2" class="edge"><title>Node2&#45;&gt;Node3</title>
<path fill="none" stroke="midnightblue" d="M315.251,-57.2217C324.625,-58.5265 334.049,-59.8383 342.815,-61.0585"/>
<polygon fill="midnightblue" stroke="midnightblue" points="342.374,-64.5308 352.761,-62.443 343.339,-57.5977 342.374,-64.5308"/>
</g>
<!-- Node8 -->
<g id="node8" class="node"><title>Node8</title>
<g id="a_node8"><a xlink:href="../../d5/d6c/namespacelime.html#af0395b1ab55d42fb76210f0cd9a44a6f" target="_top" xlink:title="Log an information message with formatting. ">
<polygon fill="white" stroke="black" points="358.5,-19.5 358.5,-38.5 414.5,-38.5 414.5,-19.5 358.5,-19.5"/>
<text text-anchor="middle" x="386.5" y="-26.5" font-family="Helvetica,sans-Serif" font-size="10.00">lime::info</text>
</a>
</g>
</g>
<!-- Node2&#45;&gt;Node8 -->
<g id="edge7" class="edge"><title>Node2&#45;&gt;Node8</title>
<path fill="none" stroke="midnightblue" d="M315.251,-38.7783C326.543,-37.2064 337.909,-35.6244 348.11,-34.2045"/>
<polygon fill="midnightblue" stroke="midnightblue" points="348.845,-37.636 358.267,-32.7907 347.88,-30.7029 348.845,-37.636"/>
</g>
<!-- Node4 -->
<g id="node4" class="node"><title>Node4</title>
<g id="a_node4"><a xlink:href="../../d5/d6c/namespacelime.html#a6e854173a1d66443d7c96d8eabef993b" target="_top" xlink:title="lime::GetLastErrorMessage">
<polygon fill="white" stroke="black" points="456,-95.5 456,-114.5 592,-114.5 592,-95.5 456,-95.5"/>
<text text-anchor="middle" x="524" y="-102.5" font-family="Helvetica,sans-Serif" font-size="10.00">lime::GetLastErrorMessage</text>
</a>
</g>
</g>
<!-- Node3&#45;&gt;Node4 -->
<g id="edge3" class="edge"><title>Node3&#45;&gt;Node4</title>
<path fill="none" stroke="midnightblue" d="M420.301,-76.1987C438.042,-81.1742 460.187,-87.3845 479.366,-92.7632"/>
<polygon fill="midnightblue" stroke="midnightblue" points="478.513,-96.1588 489.086,-95.4891 480.403,-89.4188 478.513,-96.1588"/>
</g>
<!-- Node5 -->
<g id="node5" class="node"><title>Node5</title>
<g id="a_node5"><a xlink:href="../../d5/d6c/namespacelime.html#abec841ac666fc9321a10e1881cff2da0" target="_top" xlink:title="Log a message with formatting and specified logging level. ">
<polygon fill="white" stroke="black" points="497.5,-19.5 497.5,-38.5 550.5,-38.5 550.5,-19.5 497.5,-19.5"/>
<text text-anchor="middle" x="524" y="-26.5" font-family="Helvetica,sans-Serif" font-size="10.00">lime::log</text>
</a>
</g>
</g>
<!-- Node3&#45;&gt;Node5 -->
<g id="edge4" class="edge"><title>Node3&#45;&gt;Node5</title>
<path fill="none" stroke="midnightblue" d="M420.301,-57.8013C440.628,-52.1006 466.736,-44.7789 487.541,-38.9443"/>
<polygon fill="midnightblue" stroke="midnightblue" points="488.596,-42.2835 497.279,-36.2132 486.706,-35.5435 488.596,-42.2835"/>
</g>
<!-- Node6 -->
<g id="node6" class="node"><title>Node6</title>
<g id="a_node6"><a xlink:href="../../d5/d6c/namespacelime.html#adc6af0cf8e0a70f3ef09fac1244f8c48" target="_top" xlink:title="lime::ReportError">
<polygon fill="white" stroke="black" points="478.5,-57.5 478.5,-76.5 569.5,-76.5 569.5,-57.5 478.5,-57.5"/>
<text text-anchor="middle" x="524" y="-64.5" font-family="Helvetica,sans-Serif" font-size="10.00">lime::ReportError</text>
</a>
</g>
</g>
<!-- Node3&#45;&gt;Node6 -->
<g id="edge5" class="edge"><title>Node3&#45;&gt;Node6</title>
<path fill="none" stroke="midnightblue" d="M420.301,-67C434.628,-67 451.828,-67 468.018,-67"/>
<polygon fill="midnightblue" stroke="midnightblue" points="468.471,-70.5001 478.471,-67 468.471,-63.5001 468.471,-70.5001"/>
</g>
<!-- Node7 -->
<g id="node7" class="node"><title>Node7</title>
<g id="a_node7"><a xlink:href="../../d9/df5/Logger_8cpp.html#ada38bf01d6d691de953ed69268ea6516" target="_top" xlink:title="errToStr">
<polygon fill="white" stroke="black" points="628,-57.5 628,-76.5 680,-76.5 680,-57.5 628,-57.5"/>
<text text-anchor="middle" x="654" y="-64.5" font-family="Helvetica,sans-Serif" font-size="10.00">errToStr</text>
</a>
</g>
</g>
<!-- Node6&#45;&gt;Node7 -->
<g id="edge6" class="edge"><title>Node6&#45;&gt;Node7</title>
<path fill="none" stroke="midnightblue" d="M569.768,-67C585.431,-67 602.789,-67 617.582,-67"/>
<polygon fill="midnightblue" stroke="midnightblue" points="617.84,-70.5001 627.84,-67 617.84,-63.5001 617.84,-70.5001"/>
</g>
<!-- Node8&#45;&gt;Node5 -->
<g id="edge8" class="edge"><title>Node8&#45;&gt;Node5</title>
<path fill="none" stroke="midnightblue" d="M414.595,-29C435.397,-29 464.312,-29 487.049,-29"/>
<polygon fill="midnightblue" stroke="midnightblue" points="487.329,-32.5001 497.329,-29 487.329,-25.5001 487.329,-32.5001"/>
</g>
</g>
</svg>
        <g id="navigator" transform="translate(0 0)" fill="#404254">
                <rect fill="#f2f5e9" fill-opacity="0.5" stroke="#606060" stroke-width=".5" x="0" y="0" width="60" height="60"/>
                <use id="zoomplus" xlink:href="#zoomPlus" x="17" y="9" onmousedown="handleZoom(evt,'in')"/>
                <use id="zoomminus" xlink:href="#zoomMin" x="42" y="9" onmousedown="handleZoom(evt,'out')"/>
                <use id="reset" xlink:href="#resetDef" x="30" y="36" onmousedown="handleReset()"/>
                <g id="arrowUp" xlink:href="#dirArrow" transform="translate(30 24)" onmousedown="handlePan(0,-1)">
                  <use xlink:href="#rim" fill="#404040">
                        <set attributeName="fill" to="#808080" begin="arrowUp.mouseover" end="arrowUp.mouseout"/>
                  </use>
                  <path fill="none" stroke="white" stroke-width="1.5" d="M0,-3.0v7 M-2.5,-0.5L0,-3.0L2.5,-0.5"/>
                </g>
                <g id="arrowRight" xlink:href="#dirArrow" transform="rotate(90) translate(36 -43)" onmousedown="handlePan(1,0)">
                  <use xlink:href="#rim" fill="#404040">
                        <set attributeName="fill" to="#808080" begin="arrowRight.mouseover" end="arrowRight.mouseout"/>
                  </use>
                  <path fill="none" stroke="white" stroke-width="1.5" d="M0,-3.0v7 M-2.5,-0.5L0,-3.0L2.5,-0.5"/>
                </g>
                <g id="arrowDown" xlink:href="#dirArrow" transform="rotate(180) translate(-30 -48)" onmousedown="handlePan(0,1)">
                  <use xlink:href="#rim" fill="#404040">
                        <set attributeName="fill" to="#808080" begin="arrowDown.mouseover" end="arrowDown.mouseout"/>
                  </use>
                  <path fill="none" stroke="white" stroke-width="1.5" d="M0,-3.0v7 M-2.5,-0.5L0,-3.0L2.5,-0.5"/>
                </g>
                <g id="arrowLeft" xlink:href="#dirArrow" transform="rotate(270) translate(-36 17)" onmousedown="handlePan(-1,0)">
                  <use xlink:href="#rim" fill="#404040">
                        <set attributeName="fill" to="#808080" begin="arrowLeft.mouseover" end="arrowLeft.mouseout"/>
                  </use>
                  <path fill="none" stroke="white" stroke-width="1.5" d="M0,-3.0v7 M-2.5,-0.5L0,-3.0L2.5,-0.5"/>
                </g>
        </g>
        <svg viewBox="0 0 15 15" width="100%" height="30px" preserveAspectRatio="xMaxYMin meet">
         <g id="arrow_out" transform="scale(0.3 0.3)">
          <a xlink:href="classlime_1_1LMS7__LimeSDR__mini_a56797d90c65326750ee7fbe3c873cd1b_cgraph_org.svg" target="_base">
           <rect id="button" ry="5" rx="5" y="6" x="6" height="38" width="38"
                fill="#f2f5e9" fill-opacity="0.5" stroke="#606060" stroke-width="1.0"/>
           <path id="arrow"
             d="M 11.500037,31.436501 C 11.940474,20.09759 22.043105,11.32322 32.158766,21.979434 L 37.068811,17.246167 C 37.068811,17.246167 37.088388,32 37.088388,32 L 22.160133,31.978069 C 22.160133,31.978069 26.997745,27.140456 26.997745,27.140456 C 18.528582,18.264221 13.291696,25.230495 11.500037,31.436501 z"
             style="fill:#404040;"/>
          </a>
         </g>
        </svg>
</svg>
