<?xml version="1.0" encoding="UTF-8" standalone="no"?>
<!DOCTYPE svg PUBLIC "-//W3C//DTD SVG 1.1//EN"
 "http://www.w3.org/Graphics/SVG/1.1/DTD/svg11.dtd">
<!-- Generated by graphviz version 2.38.0 (20140413.2041)
 -->
<!-- Title: lime::LMS7_LimeSDR_mini::SetPath Pages: 1 -->
<!--zoomable 610 -->
<svg id="main" version="1.1" xmlns="http://www.w3.org/2000/svg" xmlns:xlink="http://www.w3.org/1999/xlink" xml:space="preserve" onload="init(evt)">
<style type="text/css"><![CDATA[
.edge:hover path { stroke: red; }
.edge:hover polygon { stroke: red; fill: red; }
]]></style>
<script type="text/javascript"><![CDATA[
var edges = document.getElementsByTagName('g');
if (edges && edges.length) {
  for (var i=0;i<edges.length;i++) {
    if (edges[i].id.substr(0,4)=='edge') {
      edges[i].setAttribute('class','edge');
    }
  }
}
]]></script>
        <defs>
                <circle id="rim" cx="0" cy="0" r="7"/>
                <circle id="rim2" cx="0" cy="0" r="3.5"/>
                <g id="zoomPlus">
                        <use xlink:href="#rim" fill="#404040">
                                <set attributeName="fill" to="#808080" begin="zoomplus.mouseover" end="zoomplus.mouseout"/>
                        </use>
                        <path d="M-4,0h8M0,-4v8" fill="none" stroke="white" stroke-width="1.5" pointer-events="none"/>
                </g>
                <g id="zoomMin">
                        <use xlink:href="#rim" fill="#404040">
                                <set attributeName="fill" to="#808080" begin="zoomminus.mouseover" end="zoomminus.mouseout"/>
                        </use>
                        <path d="M-4,0h8" fill="none" stroke="white" stroke-width="1.5" pointer-events="none"/>
                </g>
                <g id="dirArrow">
                        <path fill="none" stroke="white" stroke-width="1.5" d="M0,-3.0v7 M-2.5,-0.5L0,-3.0L2.5,-0.5"/>
                </g>
               <g id="resetDef">
                       <use xlink:href="#rim2" fill="#404040">
                               <set attributeName="fill" to="#808080" begin="reset.mouseover" end="reset.mouseout"/>
                       </use>
               </g>
        </defs>

<script type="text/javascript">
var viewWidth = 633;
var viewHeight = 610;
var sectionId = 'dynsection-6';
</script>
<script xlink:href="../../svgpan.js"/>
<svg id="graph" class="graph">
<g id="viewport">
<title>lime::LMS7_LimeSDR_mini::SetPath</title>
<polygon fill="white" stroke="none" points="-4,4 -4,-605.5 629,-605.5 629,4 -4,4"/>
<!-- Node1 -->
<g id="node1" class="node"><title>Node1</title>
<polygon fill="#bfbfbf" stroke="black" points="0,-88.5 0,-118.5 114,-118.5 114,-88.5 0,-88.5"/>
<text text-anchor="start" x="8" y="-106.5" font-family="Helvetica,sans-Serif" font-size="10.00">lime::LMS7_LimeSDR</text>
<text text-anchor="middle" x="57" y="-95.5" font-family="Helvetica,sans-Serif" font-size="10.00">_mini::SetPath</text>
</g>
<!-- Node2 -->
<g id="node2" class="node"><title>Node2</title>
<g id="a_node2"><a xlink:href="../../d4/d67/lms_8c.html#a0e01e477b1f10e0a63e54de2dd2f8240" target="_top" xlink:title="lms">
<polygon fill="white" stroke="black" points="196.5,-316 196.5,-335 228.5,-335 228.5,-316 196.5,-316"/>
<text text-anchor="middle" x="212.5" y="-323" font-family="Helvetica,sans-Serif" font-size="10.00">lms</text>
</a>
</g>
</g>
<!-- Node1&#45;&gt;Node2 -->
<g id="edge1" class="edge"><title>Node1&#45;&gt;Node2</title>
<path fill="none" stroke="midnightblue" d="M68.5507,-118.759C95.9379,-158.368 169.219,-264.35 198.828,-307.173"/>
<polygon fill="midnightblue" stroke="midnightblue" points="196.038,-309.293 204.605,-315.528 201.796,-305.312 196.038,-309.293"/>
</g>
<!-- Node22 -->
<g id="node22" class="node"><title>Node22</title>
<g id="a_node22"><a xlink:href="../../db/d1d/classlime_1_1LMS7002M.html#afaf3843f7acef055ebbe0c0576ec8fee" target="_top" xlink:title="Change given parameter value. ">
<polygon fill="white" stroke="black" points="150,-137.5 150,-167.5 275,-167.5 275,-137.5 150,-137.5"/>
<text text-anchor="start" x="158" y="-155.5" font-family="Helvetica,sans-Serif" font-size="10.00">lime::LMS7002M::Modify</text>
<text text-anchor="middle" x="212.5" y="-144.5" font-family="Helvetica,sans-Serif" font-size="10.00">_SPI_Reg_bits</text>
</a>
</g>
</g>
<!-- Node1&#45;&gt;Node22 -->
<g id="edge24" class="edge"><title>Node1&#45;&gt;Node22</title>
<path fill="none" stroke="midnightblue" d="M105.308,-118.601C120.846,-123.562 138.282,-129.127 154.463,-134.293"/>
<polygon fill="midnightblue" stroke="midnightblue" points="153.758,-137.742 164.349,-137.448 155.887,-131.073 153.758,-137.742"/>
</g>
<!-- Node23 -->
<g id="node23" class="node"><title>Node23</title>
<g id="a_node23"><a xlink:href="../../d2/de5/classlime_1_1IConnection.html#a791c33a7557f750c82ffc001f0fcb5ff" target="_top" xlink:title="Read a single device register. ">
<polygon fill="white" stroke="black" points="163,-88.5 163,-118.5 262,-118.5 262,-88.5 163,-88.5"/>
<text text-anchor="start" x="171" y="-106.5" font-family="Helvetica,sans-Serif" font-size="10.00">lime::IConnection::</text>
<text text-anchor="middle" x="212.5" y="-95.5" font-family="Helvetica,sans-Serif" font-size="10.00">ReadRegister</text>
</a>
</g>
</g>
<!-- Node1&#45;&gt;Node23 -->
<g id="edge25" class="edge"><title>Node1&#45;&gt;Node23</title>
<path fill="none" stroke="midnightblue" d="M114.286,-103.5C126.72,-103.5 139.926,-103.5 152.465,-103.5"/>
<polygon fill="midnightblue" stroke="midnightblue" points="152.81,-107 162.81,-103.5 152.81,-100 152.81,-107"/>
</g>
<!-- Node24 -->
<g id="node24" class="node"><title>Node24</title>
<g id="a_node24"><a xlink:href="../../d5/d6c/namespacelime.html#a377f6c27785115833f62864ba9f37553" target="_top" xlink:title="Log a warning message with formatting. ">
<polygon fill="white" stroke="black" points="175.5,-50 175.5,-69 249.5,-69 249.5,-50 175.5,-50"/>
<text text-anchor="middle" x="212.5" y="-57" font-family="Helvetica,sans-Serif" font-size="10.00">lime::warning</text>
</a>
</g>
</g>
<!-- Node1&#45;&gt;Node24 -->
<g id="edge26" class="edge"><title>Node1&#45;&gt;Node24</title>
<path fill="none" stroke="midnightblue" d="M110.397,-88.4808C129.303,-83.0613 150.409,-77.0114 168.426,-71.8468"/>
<polygon fill="midnightblue" stroke="midnightblue" points="169.436,-75.1983 178.085,-69.0783 167.508,-68.4693 169.436,-75.1983"/>
</g>
<!-- Node26 -->
<g id="node26" class="node"><title>Node26</title>
<g id="a_node26"><a xlink:href="../../d2/de5/classlime_1_1IConnection.html#a039c7086b4261a12e5ee7a5f269e63ae" target="_top" xlink:title="Write a single device register. ">
<polygon fill="white" stroke="black" points="163,-0.5 163,-30.5 262,-30.5 262,-0.5 163,-0.5"/>
<text text-anchor="start" x="171" y="-18.5" font-family="Helvetica,sans-Serif" font-size="10.00">lime::IConnection::</text>
<text text-anchor="middle" x="212.5" y="-7.5" font-family="Helvetica,sans-Serif" font-size="10.00">WriteRegister</text>
</a>
</g>
</g>
<!-- Node1&#45;&gt;Node26 -->
<g id="edge28" class="edge"><title>Node1&#45;&gt;Node26</title>
<path fill="none" stroke="midnightblue" d="M77.3201,-88.4535C95.4199,-74.8061 123.572,-54.7077 150,-40.5 153.712,-38.5046 157.618,-36.5693 161.587,-34.7175"/>
<polygon fill="midnightblue" stroke="midnightblue" points="163.196,-37.832 170.9,-30.5594 160.342,-31.4401 163.196,-37.832"/>
</g>
<!-- Node3 -->
<g id="node3" class="node"><title>Node3</title>
<g id="a_node3"><a xlink:href="../../d4/d67/lms_8c.html#a433227191fe883dcb8aa15d291bb29a1" target="_top" xlink:title="Case1F">
<polygon fill="white" stroke="black" points="335,-582 335,-601 386,-601 386,-582 335,-582"/>
<text text-anchor="middle" x="360.5" y="-589" font-family="Helvetica,sans-Serif" font-size="10.00">Case1F</text>
</a>
</g>
</g>
<!-- Node2&#45;&gt;Node3 -->
<g id="edge2" class="edge"><title>Node2&#45;&gt;Node3</title>
<path fill="none" stroke="midnightblue" d="M214.542,-335.019C218.984,-371.129 239.516,-501.201 311,-572.5 315.042,-576.531 320.039,-579.73 325.275,-582.261"/>
<polygon fill="midnightblue" stroke="midnightblue" points="324.221,-585.611 334.803,-586.132 326.856,-579.125 324.221,-585.611"/>
</g>
<!-- Node4 -->
<g id="node4" class="node"><title>Node4</title>
<g id="a_node4"><a xlink:href="../../d4/d67/lms_8c.html#ace0cd8bf61cb9b86b98f0cef03b5a9d9" target="_top" xlink:title="Case2F">
<polygon fill="white" stroke="black" points="335,-544 335,-563 386,-563 386,-544 335,-544"/>
<text text-anchor="middle" x="360.5" y="-551" font-family="Helvetica,sans-Serif" font-size="10.00">Case2F</text>
</a>
</g>
</g>
<!-- Node2&#45;&gt;Node4 -->
<g id="edge3" class="edge"><title>Node2&#45;&gt;Node4</title>
<path fill="none" stroke="midnightblue" d="M215.372,-335.332C222.127,-368.212 248.239,-475.581 311,-534.5 315.121,-538.368 320.12,-541.481 325.324,-543.975"/>
<polygon fill="midnightblue" stroke="midnightblue" points="324.184,-547.29 334.765,-547.828 326.828,-540.809 324.184,-547.29"/>
</g>
<!-- Node5 -->
<g id="node5" class="node"><title>Node5</title>
<g id="a_node5"><a xlink:href="../../d4/d67/lms_8c.html#a5f53b53ccc591e3643c4af2aee2e7f32" target="_top" xlink:title="Case3F">
<polygon fill="white" stroke="black" points="335,-506 335,-525 386,-525 386,-506 335,-506"/>
<text text-anchor="middle" x="360.5" y="-513" font-family="Helvetica,sans-Serif" font-size="10.00">Case3F</text>
</a>
</g>
</g>
<!-- Node2&#45;&gt;Node5 -->
<g id="edge4" class="edge"><title>Node2&#45;&gt;Node5</title>
<path fill="none" stroke="midnightblue" d="M216.423,-335.122C225.589,-363.752 256.457,-449.335 311,-496.5 315.19,-500.123 320.151,-503.1 325.275,-505.533"/>
<polygon fill="midnightblue" stroke="midnightblue" points="323.962,-508.777 334.541,-509.346 326.625,-502.304 323.962,-508.777"/>
</g>
<!-- Node6 -->
<g id="node6" class="node"><title>Node6</title>
<g id="a_node6"><a xlink:href="../../d4/d67/lms_8c.html#a5086763d5b258349bc13d6be7e7d0665" target="_top" xlink:title="Case4F">
<polygon fill="white" stroke="black" points="335,-468 335,-487 386,-487 386,-468 335,-468"/>
<text text-anchor="middle" x="360.5" y="-475" font-family="Helvetica,sans-Serif" font-size="10.00">Case4F</text>
</a>
</g>
</g>
<!-- Node2&#45;&gt;Node6 -->
<g id="edge5" class="edge"><title>Node2&#45;&gt;Node6</title>
<path fill="none" stroke="midnightblue" d="M218.204,-335.325C230.281,-359.575 264.71,-422.885 311,-458.5 315.39,-461.878 320.456,-464.727 325.622,-467.107"/>
<polygon fill="midnightblue" stroke="midnightblue" points="324.326,-470.358 334.907,-470.897 326.972,-463.877 324.326,-470.358"/>
</g>
<!-- Node7 -->
<g id="node7" class="node"><title>Node7</title>
<g id="a_node7"><a xlink:href="../../db/de5/recipes_8c.html#aee25e218394217a134e805ea09fb0fe9" target="_top" xlink:title="free_ivector">
<polygon fill="white" stroke="black" points="326.5,-430 326.5,-449 394.5,-449 394.5,-430 326.5,-430"/>
<text text-anchor="middle" x="360.5" y="-437" font-family="Helvetica,sans-Serif" font-size="10.00">free_ivector</text>
</a>
</g>
</g>
<!-- Node2&#45;&gt;Node7 -->
<g id="edge6" class="edge"><title>Node2&#45;&gt;Node7</title>
<path fill="none" stroke="midnightblue" d="M221.107,-335.144C236.345,-353.905 272.471,-395.647 311,-420.5 313.939,-422.396 317.096,-424.152 320.34,-425.768"/>
<polygon fill="midnightblue" stroke="midnightblue" points="319.042,-429.023 329.597,-429.95 321.924,-422.644 319.042,-429.023"/>
</g>
<!-- Node8 -->
<g id="node8" class="node"><title>Node8</title>
<g id="a_node8"><a xlink:href="../../db/de5/recipes_8c.html#a3e0d121b098c19c0bdc2429e5b9f1625" target="_top" xlink:title="free_matrix">
<polygon fill="white" stroke="black" points="328,-392 328,-411 393,-411 393,-392 328,-392"/>
<text text-anchor="middle" x="360.5" y="-399" font-family="Helvetica,sans-Serif" font-size="10.00">free_matrix</text>
</a>
</g>
</g>
<!-- Node2&#45;&gt;Node8 -->
<g id="edge7" class="edge"><title>Node2&#45;&gt;Node8</title>
<path fill="none" stroke="midnightblue" d="M228.624,-333.75C247.728,-344.128 281.652,-362.417 311,-377.5 317.288,-380.731 324.07,-384.137 330.512,-387.335"/>
<polygon fill="midnightblue" stroke="midnightblue" points="329.094,-390.538 339.61,-391.827 332.193,-384.262 329.094,-390.538"/>
</g>
<!-- Node9 -->
<g id="node9" class="node"><title>Node9</title>
<g id="a_node9"><a xlink:href="../../db/de5/recipes_8c.html#a8214a52d888e820222c0382648329c0c" target="_top" xlink:title="free_vector">
<polygon fill="white" stroke="black" points="459,-335 459,-354 524,-354 524,-335 459,-335"/>
<text text-anchor="middle" x="491.5" y="-342" font-family="Helvetica,sans-Serif" font-size="10.00">free_vector</text>
</a>
</g>
</g>
<!-- Node2&#45;&gt;Node9 -->
<g id="edge8" class="edge"><title>Node2&#45;&gt;Node9</title>
<path fill="none" stroke="midnightblue" d="M228.567,-329.374C247.611,-334.053 281.475,-341.65 311,-344.5 358.007,-349.037 412.261,-348.203 448.71,-346.766"/>
<polygon fill="midnightblue" stroke="midnightblue" points="449.118,-350.252 458.959,-346.328 448.819,-343.259 449.118,-350.252"/>
</g>
<!-- Node10 -->
<g id="node10" class="node"><title>Node10</title>
<g id="a_node10"><a xlink:href="../../d4/d67/lms_8c.html#ad1d6c875ff429888b51dd1155f0311ad" target="_top" xlink:title="ivector">
<polygon fill="white" stroke="black" points="337.5,-316 337.5,-335 383.5,-335 383.5,-316 337.5,-316"/>
<text text-anchor="middle" x="360.5" y="-323" font-family="Helvetica,sans-Serif" font-size="10.00">ivector</text>
</a>
</g>
</g>
<!-- Node2&#45;&gt;Node10 -->
<g id="edge9" class="edge"><title>Node2&#45;&gt;Node10</title>
<path fill="none" stroke="midnightblue" d="M228.575,-325.5C251.711,-325.5 296.513,-325.5 327.205,-325.5"/>
<polygon fill="midnightblue" stroke="midnightblue" points="327.414,-329 337.414,-325.5 327.414,-322 327.414,-329"/>
</g>
<!-- Node11 -->
<g id="node11" class="node"><title>Node11</title>
<g id="a_node11"><a xlink:href="../../db/de5/recipes_8c.html#a66ff65ad0355ec1f4a7722bcdafc8cd3" target="_top" xlink:title="lubksb">
<polygon fill="white" stroke="black" points="338,-278 338,-297 383,-297 383,-278 338,-278"/>
<text text-anchor="middle" x="360.5" y="-285" font-family="Helvetica,sans-Serif" font-size="10.00">lubksb</text>
</a>
</g>
</g>
<!-- Node2&#45;&gt;Node11 -->
<g id="edge10" class="edge"><title>Node2&#45;&gt;Node11</title>
<path fill="none" stroke="midnightblue" d="M228.575,-321.576C251.943,-315.494 297.413,-303.66 328.124,-295.666"/>
<polygon fill="midnightblue" stroke="midnightblue" points="329.123,-299.023 337.919,-293.117 327.36,-292.249 329.123,-299.023"/>
</g>
<!-- Node12 -->
<g id="node12" class="node"><title>Node12</title>
<g id="a_node12"><a xlink:href="../../db/de5/recipes_8c.html#a623fec796d9d53e5e4a4d30226547da7" target="_top" xlink:title="ludcmp">
<polygon fill="white" stroke="black" points="336.5,-240 336.5,-259 384.5,-259 384.5,-240 336.5,-240"/>
<text text-anchor="middle" x="360.5" y="-247" font-family="Helvetica,sans-Serif" font-size="10.00">ludcmp</text>
</a>
</g>
</g>
<!-- Node2&#45;&gt;Node12 -->
<g id="edge11" class="edge"><title>Node2&#45;&gt;Node12</title>
<path fill="none" stroke="midnightblue" d="M228.3,-315.866C247.07,-303.881 280.65,-283.206 311,-268.5 316.086,-266.035 321.58,-263.642 326.979,-261.431"/>
<polygon fill="midnightblue" stroke="midnightblue" points="328.472,-264.605 336.486,-257.675 325.899,-258.095 328.472,-264.605"/>
</g>
<!-- Node15 -->
<g id="node15" class="node"><title>Node15</title>
<g id="a_node15"><a xlink:href="../../d4/d67/lms_8c.html#a37bcb1539d76b53344102435e2ab9c91" target="_top" xlink:title="matrix">
<polygon fill="white" stroke="black" points="338.5,-202 338.5,-221 382.5,-221 382.5,-202 338.5,-202"/>
<text text-anchor="middle" x="360.5" y="-209" font-family="Helvetica,sans-Serif" font-size="10.00">matrix</text>
</a>
</g>
</g>
<!-- Node2&#45;&gt;Node15 -->
<g id="edge16" class="edge"><title>Node2&#45;&gt;Node15</title>
<path fill="none" stroke="midnightblue" d="M221.107,-315.856C236.345,-297.095 272.471,-255.353 311,-230.5 316.486,-226.961 322.734,-223.908 328.879,-221.347"/>
<polygon fill="midnightblue" stroke="midnightblue" points="330.238,-224.574 338.325,-217.729 327.735,-218.037 330.238,-224.574"/>
</g>
<!-- Node16 -->
<g id="node16" class="node"><title>Node16</title>
<g id="a_node16"><a xlink:href="../../d8/d91/rounding_8c.html#aa8d7512cdf5bfbf811cef6a8a091c679" target="_top" xlink:title="round2csd">
<polygon fill="white" stroke="black" points="329.5,-164 329.5,-183 391.5,-183 391.5,-164 329.5,-164"/>
<text text-anchor="middle" x="360.5" y="-171" font-family="Helvetica,sans-Serif" font-size="10.00">round2csd</text>
</a>
</g>
</g>
<!-- Node2&#45;&gt;Node16 -->
<g id="edge17" class="edge"><title>Node2&#45;&gt;Node16</title>
<path fill="none" stroke="midnightblue" d="M218.204,-315.675C230.281,-291.425 264.71,-228.115 311,-192.5 313.809,-190.339 316.894,-188.394 320.105,-186.651"/>
<polygon fill="midnightblue" stroke="midnightblue" points="321.832,-189.705 329.365,-182.255 318.83,-183.382 321.832,-189.705"/>
</g>
<!-- Node20 -->
<g id="node20" class="node"><title>Node20</title>
<g id="a_node20"><a xlink:href="../../d8/d91/rounding_8c.html#aca2670cc0fbf948a6b9cb670047c9d5b" target="_top" xlink:title="round2int">
<polygon fill="white" stroke="black" points="332.5,-126 332.5,-145 388.5,-145 388.5,-126 332.5,-126"/>
<text text-anchor="middle" x="360.5" y="-133" font-family="Helvetica,sans-Serif" font-size="10.00">round2int</text>
</a>
</g>
</g>
<!-- Node2&#45;&gt;Node20 -->
<g id="edge21" class="edge"><title>Node2&#45;&gt;Node20</title>
<path fill="none" stroke="midnightblue" d="M216.423,-315.878C225.589,-287.248 256.457,-201.665 311,-154.5 314.52,-151.456 318.584,-148.869 322.831,-146.677"/>
<polygon fill="midnightblue" stroke="midnightblue" points="324.559,-149.739 332.282,-142.487 321.722,-143.34 324.559,-149.739"/>
</g>
<!-- Node21 -->
<g id="node21" class="node"><title>Node21</title>
<g id="a_node21"><a xlink:href="../../d4/d67/lms_8c.html#ac81ca32708341eb34b25d515d00bc748" target="_top" xlink:title="vector">
<polygon fill="white" stroke="black" points="338.5,-88 338.5,-107 382.5,-107 382.5,-88 338.5,-88"/>
<text text-anchor="middle" x="360.5" y="-95" font-family="Helvetica,sans-Serif" font-size="10.00">vector</text>
</a>
</g>
</g>
<!-- Node2&#45;&gt;Node21 -->
<g id="edge23" class="edge"><title>Node2&#45;&gt;Node21</title>
<path fill="none" stroke="midnightblue" d="M217.454,-315.962C233.652,-277.054 294.835,-131.675 311,-116.5 315.932,-111.869 322.124,-108.323 328.418,-105.622"/>
<polygon fill="midnightblue" stroke="midnightblue" points="330.033,-108.758 338.225,-102.039 327.631,-102.183 330.033,-108.758"/>
</g>
<!-- Node12&#45;&gt;Node9 -->
<g id="edge12" class="edge"><title>Node12&#45;&gt;Node9</title>
<path fill="none" stroke="midnightblue" d="M384.579,-256.493C392.928,-259.542 402.21,-263.561 410,-268.5 413.594,-270.778 450.748,-306.283 473.304,-327.948"/>
<polygon fill="midnightblue" stroke="midnightblue" points="470.96,-330.549 480.595,-334.957 475.811,-325.503 470.96,-330.549"/>
</g>
<!-- Node13 -->
<g id="node13" class="node"><title>Node13</title>
<g id="a_node13"><a xlink:href="../../db/de5/recipes_8c.html#a208e98f19b2f252315399d02c0594a46" target="_top" xlink:title="nrerror">
<polygon fill="white" stroke="black" points="577,-259 577,-278 621,-278 621,-259 577,-259"/>
<text text-anchor="middle" x="599" y="-266" font-family="Helvetica,sans-Serif" font-size="10.00">nrerror</text>
</a>
</g>
</g>
<!-- Node12&#45;&gt;Node13 -->
<g id="edge13" class="edge"><title>Node12&#45;&gt;Node13</title>
<path fill="none" stroke="midnightblue" d="M384.579,-256.141C401.434,-260.634 424.928,-266.16 446,-268.5 487.527,-273.111 535.83,-272.018 566.642,-270.514"/>
<polygon fill="midnightblue" stroke="midnightblue" points="566.972,-274.001 576.771,-269.973 566.599,-267.011 566.972,-274.001"/>
</g>
<!-- Node14 -->
<g id="node14" class="node"><title>Node14</title>
<g id="a_node14"><a xlink:href="../../db/de5/recipes_8c.html#a5e6092211a5f7e2d6ae9282379d3c604" target="_top" xlink:title="vector">
<polygon fill="white" stroke="black" points="469.5,-240 469.5,-259 513.5,-259 513.5,-240 469.5,-240"/>
<text text-anchor="middle" x="491.5" y="-247" font-family="Helvetica,sans-Serif" font-size="10.00">vector</text>
</a>
</g>
</g>
<!-- Node12&#45;&gt;Node14 -->
<g id="edge14" class="edge"><title>Node12&#45;&gt;Node14</title>
<path fill="none" stroke="midnightblue" d="M384.563,-249.5C405.333,-249.5 436.046,-249.5 459.062,-249.5"/>
<polygon fill="midnightblue" stroke="midnightblue" points="459.347,-253 469.347,-249.5 459.347,-246 459.347,-253"/>
</g>
<!-- Node14&#45;&gt;Node13 -->
<g id="edge15" class="edge"><title>Node14&#45;&gt;Node13</title>
<path fill="none" stroke="midnightblue" d="M513.596,-253.299C528.834,-256.044 549.664,-259.795 566.818,-262.884"/>
<polygon fill="midnightblue" stroke="midnightblue" points="566.479,-266.379 576.941,-264.707 567.719,-259.49 566.479,-266.379"/>
</g>
<!-- Node17 -->
<g id="node17" class="node"><title>Node17</title>
<g id="a_node17"><a xlink:href="../../d8/d91/rounding_8c.html#a2cff6b77e73872659c44b0c99f6bd97f" target="_top" xlink:title="csd2int">
<polygon fill="white" stroke="black" points="467.5,-202 467.5,-221 515.5,-221 515.5,-202 467.5,-202"/>
<text text-anchor="middle" x="491.5" y="-209" font-family="Helvetica,sans-Serif" font-size="10.00">csd2int</text>
</a>
</g>
</g>
<!-- Node16&#45;&gt;Node17 -->
<g id="edge18" class="edge"><title>Node16&#45;&gt;Node17</title>
<path fill="none" stroke="midnightblue" d="M391.745,-182.409C411.494,-188.227 437.279,-195.822 457.548,-201.793"/>
<polygon fill="midnightblue" stroke="midnightblue" points="456.713,-205.196 467.294,-204.664 458.691,-198.481 456.713,-205.196"/>
</g>
<!-- Node18 -->
<g id="node18" class="node"><title>Node18</title>
<g id="a_node18"><a xlink:href="../../db/d82/wglew_8h.html#a500a82aecba06f4550f6849b8099ca21" target="_top" xlink:title="int">
<polygon fill="white" stroke="black" points="477,-126 477,-145 506,-145 506,-126 477,-126"/>
<text text-anchor="middle" x="491.5" y="-133" font-family="Helvetica,sans-Serif" font-size="10.00">int</text>
</a>
</g>
</g>
<!-- Node16&#45;&gt;Node18 -->
<g id="edge19" class="edge"><title>Node16&#45;&gt;Node18</title>
<path fill="none" stroke="midnightblue" d="M391.745,-164.591C414.807,-157.797 446.099,-148.579 467.229,-142.355"/>
<polygon fill="midnightblue" stroke="midnightblue" points="468.376,-145.666 476.979,-139.483 466.398,-138.951 468.376,-145.666"/>
</g>
<!-- Node19 -->
<g id="node19" class="node"><title>Node19</title>
<g id="a_node19"><a xlink:href="../../d8/d91/rounding_8c.html#ab3a64ec72c5600bc114621e93309c8c3" target="_top" xlink:title="int2csd">
<polygon fill="white" stroke="black" points="467.5,-164 467.5,-183 515.5,-183 515.5,-164 467.5,-164"/>
<text text-anchor="middle" x="491.5" y="-171" font-family="Helvetica,sans-Serif" font-size="10.00">int2csd</text>
</a>
</g>
</g>
<!-- Node16&#45;&gt;Node19 -->
<g id="edge20" class="edge"><title>Node16&#45;&gt;Node19</title>
<path fill="none" stroke="midnightblue" d="M391.745,-173.5C411.404,-173.5 437.043,-173.5 457.27,-173.5"/>
<polygon fill="midnightblue" stroke="midnightblue" points="457.294,-177 467.294,-173.5 457.294,-170 457.294,-177"/>
</g>
<!-- Node20&#45;&gt;Node18 -->
<g id="edge22" class="edge"><title>Node20&#45;&gt;Node18</title>
<path fill="none" stroke="midnightblue" d="M388.543,-135.5C411.675,-135.5 444.644,-135.5 466.768,-135.5"/>
<polygon fill="midnightblue" stroke="midnightblue" points="466.953,-139 476.953,-135.5 466.953,-132 466.953,-139"/>
</g>
<!-- Node25 -->
<g id="node25" class="node"><title>Node25</title>
<g id="a_node25"><a xlink:href="../../d5/d6c/namespacelime.html#abec841ac666fc9321a10e1881cff2da0" target="_top" xlink:title="Log a message with formatting and specified logging level. ">
<polygon fill="white" stroke="black" points="334,-50 334,-69 387,-69 387,-50 334,-50"/>
<text text-anchor="middle" x="360.5" y="-57" font-family="Helvetica,sans-Serif" font-size="10.00">lime::log</text>
</a>
</g>
</g>
<!-- Node24&#45;&gt;Node25 -->
<g id="edge27" class="edge"><title>Node24&#45;&gt;Node25</title>
<path fill="none" stroke="midnightblue" d="M249.59,-59.5C272.188,-59.5 301.191,-59.5 323.729,-59.5"/>
<polygon fill="midnightblue" stroke="midnightblue" points="323.899,-63.0001 333.899,-59.5 323.899,-56.0001 323.899,-63.0001"/>
</g>
<!-- Node27 -->
<g id="node27" class="node"><title>Node27</title>
<g id="a_node27"><a xlink:href="../../d2/de5/classlime_1_1IConnection.html#a29486e2fa70f0a6005083660d5871454" target="_top" xlink:title="Bulk write device registers. ">
<polygon fill="white" stroke="black" points="311,-0.5 311,-30.5 410,-30.5 410,-0.5 311,-0.5"/>
<text text-anchor="start" x="319" y="-18.5" font-family="Helvetica,sans-Serif" font-size="10.00">lime::IConnection::</text>
<text text-anchor="middle" x="360.5" y="-7.5" font-family="Helvetica,sans-Serif" font-size="10.00">WriteRegisters</text>
</a>
</g>
</g>
<!-- Node26&#45;&gt;Node27 -->
<g id="edge29" class="edge"><title>Node26&#45;&gt;Node27</title>
<path fill="none" stroke="midnightblue" d="M262.116,-15.5C274.421,-15.5 287.771,-15.5 300.527,-15.5"/>
<polygon fill="midnightblue" stroke="midnightblue" points="300.599,-19.0001 310.599,-15.5 300.599,-12.0001 300.599,-19.0001"/>
</g>
<!-- Node28 -->
<g id="node28" class="node"><title>Node28</title>
<g id="a_node28"><a xlink:href="../../d5/d6c/namespacelime.html#adc6af0cf8e0a70f3ef09fac1244f8c48" target="_top" xlink:title="lime::ReportError">
<polygon fill="white" stroke="black" points="446,-6 446,-25 537,-25 537,-6 446,-6"/>
<text text-anchor="middle" x="491.5" y="-13" font-family="Helvetica,sans-Serif" font-size="10.00">lime::ReportError</text>
</a>
</g>
</g>
<!-- Node27&#45;&gt;Node28 -->
<g id="edge30" class="edge"><title>Node27&#45;&gt;Node28</title>
<path fill="none" stroke="midnightblue" d="M410.269,-15.5C418.588,-15.5 427.279,-15.5 435.74,-15.5"/>
<polygon fill="midnightblue" stroke="midnightblue" points="435.908,-19.0001 445.908,-15.5 435.908,-12.0001 435.908,-19.0001"/>
</g>
<!-- Node29 -->
<g id="node29" class="node"><title>Node29</title>
<g id="a_node29"><a xlink:href="../../d9/df5/Logger_8cpp.html#ada38bf01d6d691de953ed69268ea6516" target="_top" xlink:title="errToStr">
<polygon fill="white" stroke="black" points="573,-6 573,-25 625,-25 625,-6 573,-6"/>
<text text-anchor="middle" x="599" y="-13" font-family="Helvetica,sans-Serif" font-size="10.00">errToStr</text>
</a>
</g>
</g>
<!-- Node28&#45;&gt;Node29 -->
<g id="edge31" class="edge"><title>Node28&#45;&gt;Node29</title>
<path fill="none" stroke="midnightblue" d="M537.241,-15.5C545.676,-15.5 554.39,-15.5 562.494,-15.5"/>
<polygon fill="midnightblue" stroke="midnightblue" points="562.722,-19.0001 572.722,-15.5 562.722,-12.0001 562.722,-19.0001"/>
</g>
</g>
</svg>
        <g id="navigator" transform="translate(0 0)" fill="#404254">
                <rect fill="#f2f5e9" fill-opacity="0.5" stroke="#606060" stroke-width=".5" x="0" y="0" width="60" height="60"/>
                <use id="zoomplus" xlink:href="#zoomPlus" x="17" y="9" onmousedown="handleZoom(evt,'in')"/>
                <use id="zoomminus" xlink:href="#zoomMin" x="42" y="9" onmousedown="handleZoom(evt,'out')"/>
                <use id="reset" xlink:href="#resetDef" x="30" y="36" onmousedown="handleReset()"/>
                <g id="arrowUp" xlink:href="#dirArrow" transform="translate(30 24)" onmousedown="handlePan(0,-1)">
                  <use xlink:href="#rim" fill="#404040">
                        <set attributeName="fill" to="#808080" begin="arrowUp.mouseover" end="arrowUp.mouseout"/>
                  </use>
                  <path fill="none" stroke="white" stroke-width="1.5" d="M0,-3.0v7 M-2.5,-0.5L0,-3.0L2.5,-0.5"/>
                </g>
                <g id="arrowRight" xlink:href="#dirArrow" transform="rotate(90) translate(36 -43)" onmousedown="handlePan(1,0)">
                  <use xlink:href="#rim" fill="#404040">
                        <set attributeName="fill" to="#808080" begin="arrowRight.mouseover" end="arrowRight.mouseout"/>
                  </use>
                  <path fill="none" stroke="white" stroke-width="1.5" d="M0,-3.0v7 M-2.5,-0.5L0,-3.0L2.5,-0.5"/>
                </g>
                <g id="arrowDown" xlink:href="#dirArrow" transform="rotate(180) translate(-30 -48)" onmousedown="handlePan(0,1)">
                  <use xlink:href="#rim" fill="#404040">
                        <set attributeName="fill" to="#808080" begin="arrowDown.mouseover" end="arrowDown.mouseout"/>
                  </use>
                  <path fill="none" stroke="white" stroke-width="1.5" d="M0,-3.0v7 M-2.5,-0.5L0,-3.0L2.5,-0.5"/>
                </g>
                <g id="arrowLeft" xlink:href="#dirArrow" transform="rotate(270) translate(-36 17)" onmousedown="handlePan(-1,0)">
                  <use xlink:href="#rim" fill="#404040">
                        <set attributeName="fill" to="#808080" begin="arrowLeft.mouseover" end="arrowLeft.mouseout"/>
                  </use>
                  <path fill="none" stroke="white" stroke-width="1.5" d="M0,-3.0v7 M-2.5,-0.5L0,-3.0L2.5,-0.5"/>
                </g>
        </g>
        <svg viewBox="0 0 15 15" width="100%" height="30px" preserveAspectRatio="xMaxYMin meet">
         <g id="arrow_out" transform="scale(0.3 0.3)">
          <a xlink:href="classlime_1_1LMS7__LimeSDR__mini_acf2fdee87d346b4c770472c6a0794352_cgraph_org.svg" target="_base">
           <rect id="button" ry="5" rx="5" y="6" x="6" height="38" width="38"
                fill="#f2f5e9" fill-opacity="0.5" stroke="#606060" stroke-width="1.0"/>
           <path id="arrow"
             d="M 11.500037,31.436501 C 11.940474,20.09759 22.043105,11.32322 32.158766,21.979434 L 37.068811,17.246167 C 37.068811,17.246167 37.088388,32 37.088388,32 L 22.160133,31.978069 C 22.160133,31.978069 26.997745,27.140456 26.997745,27.140456 C 18.528582,18.264221 13.291696,25.230495 11.500037,31.436501 z"
             style="fill:#404040;"/>
          </a>
         </g>
        </svg>
</svg>
