<?xml version="1.0" encoding="UTF-8" standalone="no"?>
<!DOCTYPE svg PUBLIC "-//W3C//DTD SVG 1.1//EN"
 "http://www.w3.org/Graphics/SVG/1.1/DTD/svg11.dtd">
<!-- Generated by graphviz version 2.38.0 (20140413.2041)
 -->
<!-- Title: /home/erik/prefix/default/src/limesuite&#45;dev/src/boards_wxgui/pnlBuffers.h Pages: 1 -->
<svg width="356pt" height="128pt"
 viewBox="0.00 0.00 356.00 128.00" xmlns="http://www.w3.org/2000/svg" xmlns:xlink="http://www.w3.org/1999/xlink">
<g id="graph0" class="graph" transform="scale(1 1) rotate(0) translate(4 124)">
<title>/home/erik/prefix/default/src/limesuite&#45;dev/src/boards_wxgui/pnlBuffers.h</title>
<polygon fill="white" stroke="none" points="-4,4 -4,-124 352,-124 352,4 -4,4"/>
<!-- Node1 -->
<g id="node1" class="node"><title>Node1</title>
<polygon fill="#bfbfbf" stroke="black" points="96.5,-78.5 96.5,-119.5 231.5,-119.5 231.5,-78.5 96.5,-78.5"/>
<text text-anchor="start" x="104.5" y="-107.5" font-family="Helvetica,sans-Serif" font-size="10.00">/home/erik/prefix/default</text>
<text text-anchor="start" x="104.5" y="-96.5" font-family="Helvetica,sans-Serif" font-size="10.00">/src/limesuite&#45;dev/src</text>
<text text-anchor="middle" x="164" y="-85.5" font-family="Helvetica,sans-Serif" font-size="10.00">/boards_wxgui/pnlBuffers.h</text>
</g>
<!-- Node2 -->
<g id="node2" class="node"><title>Node2</title>
<g id="a_node2"><a xlink:href="../../dc/de0/pnlBuffers_8cpp.html" target="_top" xlink:title="/home/erik/prefix/default\l/src/limesuite&#45;dev/src\l/boards_wxgui/pnlBuffers.cpp">
<polygon fill="white" stroke="black" points="0,-0.5 0,-41.5 146,-41.5 146,-0.5 0,-0.5"/>
<text text-anchor="start" x="8" y="-29.5" font-family="Helvetica,sans-Serif" font-size="10.00">/home/erik/prefix/default</text>
<text text-anchor="start" x="8" y="-18.5" font-family="Helvetica,sans-Serif" font-size="10.00">/src/limesuite&#45;dev/src</text>
<text text-anchor="middle" x="73" y="-7.5" font-family="Helvetica,sans-Serif" font-size="10.00">/boards_wxgui/pnlBuffers.cpp</text>
</a>
</g>
</g>
<!-- Node1&#45;&gt;Node2 -->
<g id="edge1" class="edge"><title>Node1&#45;&gt;Node2</title>
<path fill="none" stroke="midnightblue" d="M132.603,-71.7785C120.707,-61.8432 107.384,-50.7159 96.3553,-41.5056"/>
<polygon fill="midnightblue" stroke="midnightblue" points="130.646,-74.7043 140.565,-78.4281 135.133,-69.3316 130.646,-74.7043"/>
</g>
<!-- Node3 -->
<g id="node3" class="node"><title>Node3</title>
<g id="a_node3"><a xlink:href="../../d1/d6e/pnlBoardControls_8cpp.html" target="_top" xlink:title="/home/erik/prefix/default\l/src/limesuite&#45;dev/src\l/lms7002_wxgui/pnlBoardControls.cpp">
<polygon fill="white" stroke="black" points="164,-0.5 164,-41.5 348,-41.5 348,-0.5 164,-0.5"/>
<text text-anchor="start" x="172" y="-29.5" font-family="Helvetica,sans-Serif" font-size="10.00">/home/erik/prefix/default</text>
<text text-anchor="start" x="172" y="-18.5" font-family="Helvetica,sans-Serif" font-size="10.00">/src/limesuite&#45;dev/src</text>
<text text-anchor="middle" x="256" y="-7.5" font-family="Helvetica,sans-Serif" font-size="10.00">/lms7002_wxgui/pnlBoardControls.cpp</text>
</a>
</g>
</g>
<!-- Node1&#45;&gt;Node3 -->
<g id="edge2" class="edge"><title>Node1&#45;&gt;Node3</title>
<path fill="none" stroke="midnightblue" d="M195.742,-71.7785C207.769,-61.8432 221.239,-50.7159 232.388,-41.5056"/>
<polygon fill="midnightblue" stroke="midnightblue" points="193.173,-69.3609 187.692,-78.4281 197.631,-74.7576 193.173,-69.3609"/>
</g>
</g>
</svg>
