<?xml version="1.0" encoding="UTF-8" standalone="no"?>
<!DOCTYPE svg PUBLIC "-//W3C//DTD SVG 1.1//EN"
 "http://www.w3.org/Graphics/SVG/1.1/DTD/svg11.dtd">
<!-- Generated by graphviz version 2.38.0 (20140413.2041)
 -->
<!-- Title: /home/erik/prefix/default/src/limesuite&#45;dev/src/lms7002m/LMS7002M_gainCalibrations.cpp Pages: 1 -->
<!--zoomable 218 -->
<svg id="main" version="1.1" xmlns="http://www.w3.org/2000/svg" xmlns:xlink="http://www.w3.org/1999/xlink" xml:space="preserve" onload="init(evt)">
<style type="text/css"><![CDATA[
.edge:hover path { stroke: red; }
.edge:hover polygon { stroke: red; fill: red; }
]]></style>
<script type="text/javascript"><![CDATA[
var edges = document.getElementsByTagName('g');
if (edges && edges.length) {
  for (var i=0;i<edges.length;i++) {
    if (edges[i].id.substr(0,4)=='edge') {
      edges[i].setAttribute('class','edge');
    }
  }
}
]]></script>
        <defs>
                <circle id="rim" cx="0" cy="0" r="7"/>
                <circle id="rim2" cx="0" cy="0" r="3.5"/>
                <g id="zoomPlus">
                        <use xlink:href="#rim" fill="#404040">
                                <set attributeName="fill" to="#808080" begin="zoomplus.mouseover" end="zoomplus.mouseout"/>
                        </use>
                        <path d="M-4,0h8M0,-4v8" fill="none" stroke="white" stroke-width="1.5" pointer-events="none"/>
                </g>
                <g id="zoomMin">
                        <use xlink:href="#rim" fill="#404040">
                                <set attributeName="fill" to="#808080" begin="zoomminus.mouseover" end="zoomminus.mouseout"/>
                        </use>
                        <path d="M-4,0h8" fill="none" stroke="white" stroke-width="1.5" pointer-events="none"/>
                </g>
                <g id="dirArrow">
                        <path fill="none" stroke="white" stroke-width="1.5" d="M0,-3.0v7 M-2.5,-0.5L0,-3.0L2.5,-0.5"/>
                </g>
               <g id="resetDef">
                       <use xlink:href="#rim2" fill="#404040">
                               <set attributeName="fill" to="#808080" begin="reset.mouseover" end="reset.mouseout"/>
                       </use>
               </g>
        </defs>

<script type="text/javascript">
var viewWidth = 861;
var viewHeight = 218;
var sectionId = 'dynsection-0';
</script>
<script xlink:href="../../svgpan.js"/>
<svg id="graph" class="graph">
<g id="viewport">
<title>/home/erik/prefix/default/src/limesuite&#45;dev/src/lms7002m/LMS7002M_gainCalibrations.cpp</title>
<polygon fill="white" stroke="none" points="-4,4 -4,-214 856.5,-214 856.5,4 -4,4"/>
<!-- Node1 -->
<g id="node1" class="node"><title>Node1</title>
<polygon fill="#bfbfbf" stroke="black" points="412.5,-168.5 412.5,-209.5 623.5,-209.5 623.5,-168.5 412.5,-168.5"/>
<text text-anchor="start" x="420.5" y="-197.5" font-family="Helvetica,sans-Serif" font-size="10.00">/home/erik/prefix/default</text>
<text text-anchor="start" x="420.5" y="-186.5" font-family="Helvetica,sans-Serif" font-size="10.00">/src/limesuite&#45;dev/src</text>
<text text-anchor="middle" x="518" y="-175.5" font-family="Helvetica,sans-Serif" font-size="10.00">/lms7002m/LMS7002M_gainCalibrations.cpp</text>
</g>
<!-- Node2 -->
<g id="node2" class="node"><title>Node2</title>
<g id="a_node2"><a xlink:href="../../d1/d7e/LMS7002M_8h.html" target="_top" xlink:title="LMS7002M transceiver configuration interface. ">
<polygon fill="white" stroke="black" points="306,-112.5 306,-131.5 380,-131.5 380,-112.5 306,-112.5"/>
<text text-anchor="middle" x="343" y="-119.5" font-family="Helvetica,sans-Serif" font-size="10.00">LMS7002M.h</text>
</a>
</g>
</g>
<!-- Node1&#45;&gt;Node2 -->
<g id="edge1" class="edge"><title>Node1&#45;&gt;Node2</title>
<path fill="none" stroke="midnightblue" d="M465.494,-168.498C436.342,-157.67 400.984,-144.537 375.764,-135.17"/>
<polygon fill="midnightblue" stroke="midnightblue" points="376.888,-131.853 366.295,-131.652 374.451,-138.415 376.888,-131.853"/>
</g>
<!-- Node11 -->
<g id="node11" class="node"><title>Node11</title>
<g id="a_node11"><a xlink:href="../../dd/da4/Logger_8h.html" target="_top" xlink:title="API for logging library status messages. ">
<polygon fill="white" stroke="black" points="629,-112.5 629,-131.5 683,-131.5 683,-112.5 629,-112.5"/>
<text text-anchor="middle" x="656" y="-119.5" font-family="Helvetica,sans-Serif" font-size="10.00">Logger.h</text>
</a>
</g>
</g>
<!-- Node1&#45;&gt;Node11 -->
<g id="edge10" class="edge"><title>Node1&#45;&gt;Node11</title>
<path fill="none" stroke="midnightblue" d="M559.405,-168.498C581.783,-157.957 608.799,-145.233 628.562,-135.923"/>
<polygon fill="midnightblue" stroke="midnightblue" points="630.075,-139.08 637.63,-131.652 627.092,-132.747 630.075,-139.08"/>
</g>
<!-- Node3 -->
<g id="node3" class="node"><title>Node3</title>
<g id="a_node3"><a xlink:href="../../dd/d40/LimeSuiteConfig_8h.html" target="_top" xlink:title="Configuration constants and macros for lime suite library. ">
<polygon fill="white" stroke="black" points="489.5,-56.5 489.5,-75.5 586.5,-75.5 586.5,-56.5 489.5,-56.5"/>
<text text-anchor="middle" x="538" y="-63.5" font-family="Helvetica,sans-Serif" font-size="10.00">LimeSuiteConfig.h</text>
</a>
</g>
</g>
<!-- Node2&#45;&gt;Node3 -->
<g id="edge2" class="edge"><title>Node2&#45;&gt;Node3</title>
<path fill="none" stroke="midnightblue" d="M373.898,-112.444C407.274,-103.201 460.594,-88.4356 497.349,-78.2572"/>
<polygon fill="midnightblue" stroke="midnightblue" points="498.543,-81.5583 507.246,-75.5164 496.675,-74.8122 498.543,-81.5583"/>
</g>
<!-- Node4 -->
<g id="node4" class="node"><title>Node4</title>
<g id="a_node4"><a xlink:href="../../d1/d2e/LMS7002M__parameters_8h.html" target="_top" xlink:title="List of LMS7002M transceiver control parameters. ">
<polygon fill="white" stroke="black" points="0,-56.5 0,-75.5 128,-75.5 128,-56.5 0,-56.5"/>
<text text-anchor="middle" x="64" y="-63.5" font-family="Helvetica,sans-Serif" font-size="10.00">LMS7002M_parameters.h</text>
</a>
</g>
</g>
<!-- Node2&#45;&gt;Node4 -->
<g id="edge3" class="edge"><title>Node2&#45;&gt;Node4</title>
<path fill="none" stroke="midnightblue" d="M305.951,-113.829C257.808,-104.511 173.384,-88.1711 118.081,-77.4672"/>
<polygon fill="midnightblue" stroke="midnightblue" points="118.591,-74.0012 108.109,-75.5371 117.261,-80.8737 118.591,-74.0012"/>
</g>
<!-- Node6 -->
<g id="node6" class="node"><title>Node6</title>
<polygon fill="white" stroke="#bfbfbf" points="146,-56.5 146,-75.5 192,-75.5 192,-56.5 146,-56.5"/>
<text text-anchor="middle" x="169" y="-63.5" font-family="Helvetica,sans-Serif" font-size="10.00">cstdint</text>
</g>
<!-- Node2&#45;&gt;Node6 -->
<g id="edge5" class="edge"><title>Node2&#45;&gt;Node6</title>
<path fill="none" stroke="midnightblue" d="M315.429,-112.444C284.6,-102.876 234.699,-87.3894 201.867,-77.2001"/>
<polygon fill="midnightblue" stroke="midnightblue" points="202.854,-73.8416 192.265,-74.2203 200.779,-80.5271 202.854,-73.8416"/>
</g>
<!-- Node7 -->
<g id="node7" class="node"><title>Node7</title>
<polygon fill="white" stroke="#bfbfbf" points="210,-56.5 210,-75.5 262,-75.5 262,-56.5 210,-56.5"/>
<text text-anchor="middle" x="236" y="-63.5" font-family="Helvetica,sans-Serif" font-size="10.00">sstream</text>
</g>
<!-- Node2&#45;&gt;Node7 -->
<g id="edge6" class="edge"><title>Node2&#45;&gt;Node7</title>
<path fill="none" stroke="midnightblue" d="M325.809,-112.324C308.649,-103.664 282.054,-90.2424 262.253,-80.249"/>
<polygon fill="midnightblue" stroke="midnightblue" points="263.653,-77.0354 253.149,-75.6545 260.499,-83.2847 263.653,-77.0354"/>
</g>
<!-- Node8 -->
<g id="node8" class="node"><title>Node8</title>
<polygon fill="white" stroke="#bfbfbf" points="280,-56.5 280,-75.5 332,-75.5 332,-56.5 280,-56.5"/>
<text text-anchor="middle" x="306" y="-63.5" font-family="Helvetica,sans-Serif" font-size="10.00">stdarg.h</text>
</g>
<!-- Node2&#45;&gt;Node8 -->
<g id="edge7" class="edge"><title>Node2&#45;&gt;Node8</title>
<path fill="none" stroke="midnightblue" d="M336.89,-112.083C331.718,-104.534 324.154,-93.4948 317.806,-84.2298"/>
<polygon fill="midnightblue" stroke="midnightblue" points="320.536,-82.0221 311.996,-75.7511 314.761,-85.9787 320.536,-82.0221"/>
</g>
<!-- Node9 -->
<g id="node9" class="node"><title>Node9</title>
<polygon fill="white" stroke="#bfbfbf" points="350.5,-56.5 350.5,-75.5 409.5,-75.5 409.5,-56.5 350.5,-56.5"/>
<text text-anchor="middle" x="380" y="-63.5" font-family="Helvetica,sans-Serif" font-size="10.00">functional</text>
</g>
<!-- Node2&#45;&gt;Node9 -->
<g id="edge8" class="edge"><title>Node2&#45;&gt;Node9</title>
<path fill="none" stroke="midnightblue" d="M349.11,-112.083C354.282,-104.534 361.846,-93.4948 368.194,-84.2298"/>
<polygon fill="midnightblue" stroke="midnightblue" points="371.239,-85.9787 374.004,-75.7511 365.464,-82.0221 371.239,-85.9787"/>
</g>
<!-- Node10 -->
<g id="node10" class="node"><title>Node10</title>
<polygon fill="white" stroke="#bfbfbf" points="428,-56.5 428,-75.5 472,-75.5 472,-56.5 428,-56.5"/>
<text text-anchor="middle" x="450" y="-63.5" font-family="Helvetica,sans-Serif" font-size="10.00">vector</text>
</g>
<!-- Node2&#45;&gt;Node10 -->
<g id="edge9" class="edge"><title>Node2&#45;&gt;Node10</title>
<path fill="none" stroke="midnightblue" d="M360.191,-112.324C377.351,-103.664 403.946,-90.2424 423.747,-80.249"/>
<polygon fill="midnightblue" stroke="midnightblue" points="425.501,-83.2847 432.851,-75.6545 422.347,-77.0354 425.501,-83.2847"/>
</g>
<!-- Node5 -->
<g id="node5" class="node"><title>Node5</title>
<polygon fill="white" stroke="#bfbfbf" points="39.5,-0.5 39.5,-19.5 88.5,-19.5 88.5,-0.5 39.5,-0.5"/>
<text text-anchor="middle" x="64" y="-7.5" font-family="Helvetica,sans-Serif" font-size="10.00">stdint.h</text>
</g>
<!-- Node4&#45;&gt;Node5 -->
<g id="edge4" class="edge"><title>Node4&#45;&gt;Node5</title>
<path fill="none" stroke="midnightblue" d="M64,-56.083C64,-49.0059 64,-38.8611 64,-29.9865"/>
<polygon fill="midnightblue" stroke="midnightblue" points="67.5001,-29.751 64,-19.7511 60.5001,-29.7511 67.5001,-29.751"/>
</g>
<!-- Node11&#45;&gt;Node3 -->
<g id="edge11" class="edge"><title>Node11&#45;&gt;Node3</title>
<path fill="none" stroke="midnightblue" d="M637.303,-112.444C618.056,-103.636 587.848,-89.8116 565.8,-79.722"/>
<polygon fill="midnightblue" stroke="midnightblue" points="567.16,-76.4951 556.61,-75.5164 564.247,-82.8603 567.16,-76.4951"/>
</g>
<!-- Node12 -->
<g id="node12" class="node"><title>Node12</title>
<polygon fill="white" stroke="#bfbfbf" points="604.5,-56.5 604.5,-75.5 645.5,-75.5 645.5,-56.5 604.5,-56.5"/>
<text text-anchor="middle" x="625" y="-63.5" font-family="Helvetica,sans-Serif" font-size="10.00">string</text>
</g>
<!-- Node11&#45;&gt;Node12 -->
<g id="edge12" class="edge"><title>Node11&#45;&gt;Node12</title>
<path fill="none" stroke="midnightblue" d="M650.881,-112.083C646.592,-104.613 640.342,-93.7244 635.058,-84.5199"/>
<polygon fill="midnightblue" stroke="midnightblue" points="638.038,-82.6811 630.024,-75.7511 631.967,-86.1662 638.038,-82.6811"/>
</g>
<!-- Node13 -->
<g id="node13" class="node"><title>Node13</title>
<polygon fill="white" stroke="#bfbfbf" points="663.5,-56.5 663.5,-75.5 712.5,-75.5 712.5,-56.5 663.5,-56.5"/>
<text text-anchor="middle" x="688" y="-63.5" font-family="Helvetica,sans-Serif" font-size="10.00">cstdarg</text>
</g>
<!-- Node11&#45;&gt;Node13 -->
<g id="edge13" class="edge"><title>Node11&#45;&gt;Node13</title>
<path fill="none" stroke="midnightblue" d="M661.284,-112.083C665.711,-104.613 672.163,-93.7244 677.618,-84.5199"/>
<polygon fill="midnightblue" stroke="midnightblue" points="680.727,-86.1383 682.814,-75.7511 674.705,-82.5697 680.727,-86.1383"/>
</g>
<!-- Node14 -->
<g id="node14" class="node"><title>Node14</title>
<polygon fill="white" stroke="#bfbfbf" points="731,-56.5 731,-75.5 775,-75.5 775,-56.5 731,-56.5"/>
<text text-anchor="middle" x="753" y="-63.5" font-family="Helvetica,sans-Serif" font-size="10.00">cerrno</text>
</g>
<!-- Node11&#45;&gt;Node14 -->
<g id="edge14" class="edge"><title>Node11&#45;&gt;Node14</title>
<path fill="none" stroke="midnightblue" d="M671.585,-112.324C686.999,-103.743 710.812,-90.486 728.71,-80.5224"/>
<polygon fill="midnightblue" stroke="midnightblue" points="730.419,-83.5767 737.454,-75.6545 727.014,-77.4606 730.419,-83.5767"/>
</g>
<!-- Node15 -->
<g id="node15" class="node"><title>Node15</title>
<polygon fill="white" stroke="#bfbfbf" points="793.5,-56.5 793.5,-75.5 852.5,-75.5 852.5,-56.5 793.5,-56.5"/>
<text text-anchor="middle" x="823" y="-63.5" font-family="Helvetica,sans-Serif" font-size="10.00">stdexcept</text>
</g>
<!-- Node11&#45;&gt;Node15 -->
<g id="edge15" class="edge"><title>Node11&#45;&gt;Node15</title>
<path fill="none" stroke="midnightblue" d="M682.462,-112.444C710.678,-103.32 755.54,-88.8133 786.968,-78.6509"/>
<polygon fill="midnightblue" stroke="midnightblue" points="788.224,-81.9234 796.662,-75.5164 786.07,-75.263 788.224,-81.9234"/>
</g>
</g>
</svg>
        <g id="navigator" transform="translate(0 0)" fill="#404254">
                <rect fill="#f2f5e9" fill-opacity="0.5" stroke="#606060" stroke-width=".5" x="0" y="0" width="60" height="60"/>
                <use id="zoomplus" xlink:href="#zoomPlus" x="17" y="9" onmousedown="handleZoom(evt,'in')"/>
                <use id="zoomminus" xlink:href="#zoomMin" x="42" y="9" onmousedown="handleZoom(evt,'out')"/>
                <use id="reset" xlink:href="#resetDef" x="30" y="36" onmousedown="handleReset()"/>
                <g id="arrowUp" xlink:href="#dirArrow" transform="translate(30 24)" onmousedown="handlePan(0,-1)">
                  <use xlink:href="#rim" fill="#404040">
                        <set attributeName="fill" to="#808080" begin="arrowUp.mouseover" end="arrowUp.mouseout"/>
                  </use>
                  <path fill="none" stroke="white" stroke-width="1.5" d="M0,-3.0v7 M-2.5,-0.5L0,-3.0L2.5,-0.5"/>
                </g>
                <g id="arrowRight" xlink:href="#dirArrow" transform="rotate(90) translate(36 -43)" onmousedown="handlePan(1,0)">
                  <use xlink:href="#rim" fill="#404040">
                        <set attributeName="fill" to="#808080" begin="arrowRight.mouseover" end="arrowRight.mouseout"/>
                  </use>
                  <path fill="none" stroke="white" stroke-width="1.5" d="M0,-3.0v7 M-2.5,-0.5L0,-3.0L2.5,-0.5"/>
                </g>
                <g id="arrowDown" xlink:href="#dirArrow" transform="rotate(180) translate(-30 -48)" onmousedown="handlePan(0,1)">
                  <use xlink:href="#rim" fill="#404040">
                        <set attributeName="fill" to="#808080" begin="arrowDown.mouseover" end="arrowDown.mouseout"/>
                  </use>
                  <path fill="none" stroke="white" stroke-width="1.5" d="M0,-3.0v7 M-2.5,-0.5L0,-3.0L2.5,-0.5"/>
                </g>
                <g id="arrowLeft" xlink:href="#dirArrow" transform="rotate(270) translate(-36 17)" onmousedown="handlePan(-1,0)">
                  <use xlink:href="#rim" fill="#404040">
                        <set attributeName="fill" to="#808080" begin="arrowLeft.mouseover" end="arrowLeft.mouseout"/>
                  </use>
                  <path fill="none" stroke="white" stroke-width="1.5" d="M0,-3.0v7 M-2.5,-0.5L0,-3.0L2.5,-0.5"/>
                </g>
        </g>
        <svg viewBox="0 0 15 15" width="100%" height="30px" preserveAspectRatio="xMaxYMin meet">
         <g id="arrow_out" transform="scale(0.3 0.3)">
          <a xlink:href="LMS7002M__gainCalibrations_8cpp__incl_org.svg" target="_base">
           <rect id="button" ry="5" rx="5" y="6" x="6" height="38" width="38"
                fill="#f2f5e9" fill-opacity="0.5" stroke="#606060" stroke-width="1.0"/>
           <path id="arrow"
             d="M 11.500037,31.436501 C 11.940474,20.09759 22.043105,11.32322 32.158766,21.979434 L 37.068811,17.246167 C 37.068811,17.246167 37.088388,32 37.088388,32 L 22.160133,31.978069 C 22.160133,31.978069 26.997745,27.140456 26.997745,27.140456 C 18.528582,18.264221 13.291696,25.230495 11.500037,31.436501 z"
             style="fill:#404040;"/>
          </a>
         </g>
        </svg>
</svg>
