<?xml version="1.0" encoding="UTF-8" standalone="no"?>
<!DOCTYPE svg PUBLIC "-//W3C//DTD SVG 1.1//EN"
 "http://www.w3.org/Graphics/SVG/1.1/DTD/svg11.dtd">
<!-- Generated by graphviz version 2.38.0 (20140413.2041)
 -->
<!-- Title: SPI_view::OnBoardRead Pages: 1 -->
<svg width="283pt" height="66pt"
 viewBox="0.00 0.00 283.00 66.00" xmlns="http://www.w3.org/2000/svg" xmlns:xlink="http://www.w3.org/1999/xlink">
<g id="graph0" class="graph" transform="scale(1 1) rotate(0) translate(4 62)">
<title>SPI_view::OnBoardRead</title>
<polygon fill="white" stroke="none" points="-4,4 -4,-62 279,-62 279,4 -4,4"/>
<!-- Node1 -->
<g id="node1" class="node"><title>Node1</title>
<polygon fill="#bfbfbf" stroke="black" points="0,-19.5 0,-38.5 126,-38.5 126,-19.5 0,-19.5"/>
<text text-anchor="middle" x="63" y="-26.5" font-family="Helvetica,sans-Serif" font-size="10.00">SPI_view::OnBoardRead</text>
</g>
<!-- Node2 -->
<g id="node2" class="node"><title>Node2</title>
<g id="a_node2"><a xlink:href="../../d6/d0c/classSPI__view.html#a3605867d8f5b0de9073a29161c189a1b" target="_top" xlink:title="SPI_view::SPI_view">
<polygon fill="white" stroke="black" points="165,-38.5 165,-57.5 272,-57.5 272,-38.5 165,-38.5"/>
<text text-anchor="middle" x="218.5" y="-45.5" font-family="Helvetica,sans-Serif" font-size="10.00">SPI_view::SPI_view</text>
</a>
</g>
</g>
<!-- Node1&#45;&gt;Node2 -->
<g id="edge1" class="edge"><title>Node1&#45;&gt;Node2</title>
<path fill="none" stroke="midnightblue" d="M136.405,-37.9622C146.029,-39.1534 155.744,-40.3559 164.942,-41.4945"/>
<polygon fill="midnightblue" stroke="midnightblue" points="136.789,-34.483 126.434,-36.728 135.929,-41.43 136.789,-34.483"/>
</g>
<!-- Node3 -->
<g id="node3" class="node"><title>Node3</title>
<g id="a_node3"><a xlink:href="../../d6/d0c/classSPI__view.html#a7e363bf4ad992883931e13657b356654" target="_top" xlink:title="SPI_view::~SPI_view">
<polygon fill="white" stroke="black" points="162,-0.5 162,-19.5 275,-19.5 275,-0.5 162,-0.5"/>
<text text-anchor="middle" x="218.5" y="-7.5" font-family="Helvetica,sans-Serif" font-size="10.00">SPI_view::~SPI_view</text>
</a>
</g>
</g>
<!-- Node1&#45;&gt;Node3 -->
<g id="edge2" class="edge"><title>Node1&#45;&gt;Node3</title>
<path fill="none" stroke="midnightblue" d="M136.598,-20.0139C144.98,-18.9765 153.427,-17.9308 161.54,-16.9266"/>
<polygon fill="midnightblue" stroke="midnightblue" points="135.929,-16.57 126.434,-21.272 136.789,-23.517 135.929,-16.57"/>
</g>
</g>
</svg>
