<?xml version="1.0" encoding="UTF-8" standalone="no"?>
<!DOCTYPE svg PUBLIC "-//W3C//DTD SVG 1.1//EN"
 "http://www.w3.org/Graphics/SVG/1.1/DTD/svg11.dtd">
<!-- Generated by graphviz version 2.38.0 (20140413.2041)
 -->
<!-- Title: MCU_SetParameter Pages: 1 -->
<!--zoomable 162 -->
<svg id="main" version="1.1" xmlns="http://www.w3.org/2000/svg" xmlns:xlink="http://www.w3.org/1999/xlink" xml:space="preserve" onload="init(evt)">
<style type="text/css"><![CDATA[
.edge:hover path { stroke: red; }
.edge:hover polygon { stroke: red; fill: red; }
]]></style>
<script type="text/javascript"><![CDATA[
var edges = document.getElementsByTagName('g');
if (edges && edges.length) {
  for (var i=0;i<edges.length;i++) {
    if (edges[i].id.substr(0,4)=='edge') {
      edges[i].setAttribute('class','edge');
    }
  }
}
]]></script>
        <defs>
                <circle id="rim" cx="0" cy="0" r="7"/>
                <circle id="rim2" cx="0" cy="0" r="3.5"/>
                <g id="zoomPlus">
                        <use xlink:href="#rim" fill="#404040">
                                <set attributeName="fill" to="#808080" begin="zoomplus.mouseover" end="zoomplus.mouseout"/>
                        </use>
                        <path d="M-4,0h8M0,-4v8" fill="none" stroke="white" stroke-width="1.5" pointer-events="none"/>
                </g>
                <g id="zoomMin">
                        <use xlink:href="#rim" fill="#404040">
                                <set attributeName="fill" to="#808080" begin="zoomminus.mouseover" end="zoomminus.mouseout"/>
                        </use>
                        <path d="M-4,0h8" fill="none" stroke="white" stroke-width="1.5" pointer-events="none"/>
                </g>
                <g id="dirArrow">
                        <path fill="none" stroke="white" stroke-width="1.5" d="M0,-3.0v7 M-2.5,-0.5L0,-3.0L2.5,-0.5"/>
                </g>
               <g id="resetDef">
                       <use xlink:href="#rim2" fill="#404040">
                               <set attributeName="fill" to="#808080" begin="reset.mouseover" end="reset.mouseout"/>
                       </use>
               </g>
        </defs>

<script type="text/javascript">
var viewWidth = 732;
var viewHeight = 162;
var sectionId = 'dynsection-3';
</script>
<script xlink:href="../../svgpan.js"/>
<svg id="graph" class="graph">
<g id="viewport">
<title>MCU_SetParameter</title>
<polygon fill="white" stroke="none" points="-4,4 -4,-157.853 728,-157.853 728,4 -4,4"/>
<!-- Node1 -->
<g id="node1" class="node"><title>Node1</title>
<polygon fill="#bfbfbf" stroke="black" points="0,-58.3527 0,-77.3527 105,-77.3527 105,-58.3527 0,-58.3527"/>
<text text-anchor="middle" x="52.5" y="-65.3527" font-family="Helvetica,sans-Serif" font-size="10.00">MCU_SetParameter</text>
</g>
<!-- Node2 -->
<g id="node2" class="node"><title>Node2</title>
<g id="a_node2"><a xlink:href="../../db/d82/wglew_8h.html#a500a82aecba06f4550f6849b8099ca21" target="_top" xlink:title="int">
<polygon fill="white" stroke="black" points="180.5,-134.353 180.5,-153.353 209.5,-153.353 209.5,-134.353 180.5,-134.353"/>
<text text-anchor="middle" x="195" y="-141.353" font-family="Helvetica,sans-Serif" font-size="10.00">int</text>
</a>
</g>
</g>
<!-- Node1&#45;&gt;Node2 -->
<g id="edge1" class="edge"><title>Node1&#45;&gt;Node2</title>
<path fill="none" stroke="midnightblue" d="M66.2699,-77.5444C82.8237,-89.7783 112.907,-110.906 141,-124.853 150.387,-129.513 161.208,-133.602 170.615,-136.782"/>
<polygon fill="midnightblue" stroke="midnightblue" points="169.541,-140.113 180.133,-139.858 171.695,-133.452 169.541,-140.113"/>
</g>
<!-- Node3 -->
<g id="node3" class="node"><title>Node3</title>
<g id="a_node3"><a xlink:href="../../d7/d3d/mcu_8c.html#a83fb66b64992ec22031ebf80a21d9e17" target="_top" xlink:title="MCU_RunProcedure">
<polygon fill="white" stroke="black" points="141.5,-96.3527 141.5,-115.353 248.5,-115.353 248.5,-96.3527 141.5,-96.3527"/>
<text text-anchor="middle" x="195" y="-103.353" font-family="Helvetica,sans-Serif" font-size="10.00">MCU_RunProcedure</text>
</a>
</g>
</g>
<!-- Node1&#45;&gt;Node3 -->
<g id="edge2" class="edge"><title>Node1&#45;&gt;Node3</title>
<path fill="none" stroke="midnightblue" d="M88.9541,-77.4417C107.091,-82.3472 129.368,-88.3723 148.733,-93.6098"/>
<polygon fill="midnightblue" stroke="midnightblue" points="147.99,-97.0345 158.557,-96.2668 149.818,-90.2773 147.99,-97.0345"/>
</g>
<!-- Node4 -->
<g id="node4" class="node"><title>Node4</title>
<g id="a_node4"><a xlink:href="../../da/d87/spi_8h.html#abde20a13293589ccb0a691e2711098bf" target="_top" xlink:title="SPI_read">
<polygon fill="white" stroke="black" points="301,-58.3527 301,-77.3527 358,-77.3527 358,-58.3527 301,-58.3527"/>
<text text-anchor="middle" x="329.5" y="-65.3527" font-family="Helvetica,sans-Serif" font-size="10.00">SPI_read</text>
</a>
</g>
</g>
<!-- Node1&#45;&gt;Node4 -->
<g id="edge11" class="edge"><title>Node1&#45;&gt;Node4</title>
<path fill="none" stroke="midnightblue" d="M105.225,-67.8527C159.179,-67.8527 242.469,-67.8527 290.608,-67.8527"/>
<polygon fill="midnightblue" stroke="midnightblue" points="290.899,-71.3528 300.899,-67.8527 290.899,-64.3528 290.899,-71.3528"/>
</g>
<!-- Node9 -->
<g id="node9" class="node"><title>Node9</title>
<g id="a_node9"><a xlink:href="../../d7/d3d/mcu_8c.html#a689b035d8dc0e958a2f8cf0dbe04f98d" target="_top" xlink:title="MCU_WaitForStatus">
<polygon fill="white" stroke="black" points="141,-20.3527 141,-39.3527 249,-39.3527 249,-20.3527 141,-20.3527"/>
<text text-anchor="middle" x="195" y="-27.3527" font-family="Helvetica,sans-Serif" font-size="10.00">MCU_WaitForStatus</text>
</a>
</g>
</g>
<!-- Node1&#45;&gt;Node9 -->
<g id="edge8" class="edge"><title>Node1&#45;&gt;Node9</title>
<path fill="none" stroke="midnightblue" d="M88.9541,-58.2637C107.091,-53.3583 129.368,-47.3331 148.733,-42.0956"/>
<polygon fill="midnightblue" stroke="midnightblue" points="149.818,-45.4282 158.557,-39.4386 147.99,-38.6709 149.818,-45.4282"/>
</g>
<!-- Node10 -->
<g id="node10" class="node"><title>Node10</title>
<g id="a_node10"><a xlink:href="../../da/d87/spi_8h.html#ac7475dd5b46ee34421fb4cc4fb228b4d" target="_top" xlink:title="SPI_write">
<polygon fill="white" stroke="black" points="300,-1.35271 300,-20.3527 359,-20.3527 359,-1.35271 300,-1.35271"/>
<text text-anchor="middle" x="329.5" y="-8.35271" font-family="Helvetica,sans-Serif" font-size="10.00">SPI_write</text>
</a>
</g>
</g>
<!-- Node1&#45;&gt;Node10 -->
<g id="edge12" class="edge"><title>Node1&#45;&gt;Node10</title>
<path fill="none" stroke="midnightblue" d="M63.785,-58.221C79.1668,-44.549 109.717,-20.1434 141,-10.8527 190.631,3.88688 250.965,0.311738 289.546,-4.51036"/>
<polygon fill="midnightblue" stroke="midnightblue" points="289.447,-8.02842 299.824,-5.88932 290.378,-1.09058 289.447,-8.02842"/>
</g>
<!-- Node3&#45;&gt;Node4 -->
<g id="edge3" class="edge"><title>Node3&#45;&gt;Node4</title>
<path fill="none" stroke="midnightblue" d="M229.435,-96.2637C248.237,-90.8715 271.757,-84.1263 291.16,-78.5615"/>
<polygon fill="midnightblue" stroke="midnightblue" points="292.237,-81.8937 300.885,-75.7725 290.308,-75.165 292.237,-81.8937"/>
</g>
<!-- Node5 -->
<g id="node5" class="node"><title>Node5</title>
<g id="a_node5"><a xlink:href="../../da/d87/spi_8h.html#a436d1cddc5e8437f75c92f6b65db2798" target="_top" xlink:title="SPI_write_batch">
<polygon fill="white" stroke="black" points="285,-96.3527 285,-115.353 374,-115.353 374,-96.3527 285,-96.3527"/>
<text text-anchor="middle" x="329.5" y="-103.353" font-family="Helvetica,sans-Serif" font-size="10.00">SPI_write_batch</text>
</a>
</g>
</g>
<!-- Node3&#45;&gt;Node5 -->
<g id="edge4" class="edge"><title>Node3&#45;&gt;Node5</title>
<path fill="none" stroke="midnightblue" d="M248.748,-105.853C257.265,-105.853 266.093,-105.853 274.636,-105.853"/>
<polygon fill="midnightblue" stroke="midnightblue" points="274.875,-109.353 284.875,-105.853 274.875,-102.353 274.875,-109.353"/>
</g>
<!-- Node6 -->
<g id="node6" class="node"><title>Node6</title>
<g id="a_node6"><a xlink:href="../../d2/de5/classlime_1_1IConnection.html#af3dfb39cc643d88c1196ded5d5cbecea" target="_top" xlink:title="Bulk SPI write/read transaction. ">
<polygon fill="white" stroke="black" points="410,-90.8527 410,-120.853 509,-120.853 509,-90.8527 410,-90.8527"/>
<text text-anchor="start" x="418" y="-108.853" font-family="Helvetica,sans-Serif" font-size="10.00">lime::IConnection::</text>
<text text-anchor="middle" x="459.5" y="-97.8527" font-family="Helvetica,sans-Serif" font-size="10.00">TransactSPI</text>
</a>
</g>
</g>
<!-- Node5&#45;&gt;Node6 -->
<g id="edge5" class="edge"><title>Node5&#45;&gt;Node6</title>
<path fill="none" stroke="midnightblue" d="M374.192,-105.853C382.327,-105.853 390.951,-105.853 399.457,-105.853"/>
<polygon fill="midnightblue" stroke="midnightblue" points="399.734,-109.353 409.734,-105.853 399.734,-102.353 399.734,-109.353"/>
</g>
<!-- Node7 -->
<g id="node7" class="node"><title>Node7</title>
<g id="a_node7"><a xlink:href="../../d5/d6c/namespacelime.html#adc6af0cf8e0a70f3ef09fac1244f8c48" target="_top" xlink:title="lime::ReportError">
<polygon fill="white" stroke="black" points="545,-96.3527 545,-115.353 636,-115.353 636,-96.3527 545,-96.3527"/>
<text text-anchor="middle" x="590.5" y="-103.353" font-family="Helvetica,sans-Serif" font-size="10.00">lime::ReportError</text>
</a>
</g>
</g>
<!-- Node6&#45;&gt;Node7 -->
<g id="edge6" class="edge"><title>Node6&#45;&gt;Node7</title>
<path fill="none" stroke="midnightblue" d="M509.269,-105.853C517.588,-105.853 526.279,-105.853 534.74,-105.853"/>
<polygon fill="midnightblue" stroke="midnightblue" points="534.908,-109.353 544.908,-105.853 534.908,-102.353 534.908,-109.353"/>
</g>
<!-- Node8 -->
<g id="node8" class="node"><title>Node8</title>
<g id="a_node8"><a xlink:href="../../d9/df5/Logger_8cpp.html#ada38bf01d6d691de953ed69268ea6516" target="_top" xlink:title="errToStr">
<polygon fill="white" stroke="black" points="672,-96.3527 672,-115.353 724,-115.353 724,-96.3527 672,-96.3527"/>
<text text-anchor="middle" x="698" y="-103.353" font-family="Helvetica,sans-Serif" font-size="10.00">errToStr</text>
</a>
</g>
</g>
<!-- Node7&#45;&gt;Node8 -->
<g id="edge7" class="edge"><title>Node7&#45;&gt;Node8</title>
<path fill="none" stroke="midnightblue" d="M636.241,-105.853C644.676,-105.853 653.39,-105.853 661.494,-105.853"/>
<polygon fill="midnightblue" stroke="midnightblue" points="661.722,-109.353 671.722,-105.853 661.722,-102.353 661.722,-109.353"/>
</g>
<!-- Node9&#45;&gt;Node4 -->
<g id="edge9" class="edge"><title>Node9&#45;&gt;Node4</title>
<path fill="none" stroke="midnightblue" d="M229.435,-39.4417C248.237,-44.834 271.757,-51.5791 291.16,-57.1439"/>
<polygon fill="midnightblue" stroke="midnightblue" points="290.308,-60.5404 300.885,-59.9329 292.237,-53.8117 290.308,-60.5404"/>
</g>
<!-- Node9&#45;&gt;Node10 -->
<g id="edge10" class="edge"><title>Node9&#45;&gt;Node10</title>
<path fill="none" stroke="midnightblue" d="M249.129,-22.2342C262.629,-20.2984 276.885,-18.254 289.534,-16.4403"/>
<polygon fill="midnightblue" stroke="midnightblue" points="290.327,-19.8624 299.729,-14.9784 289.333,-12.9333 290.327,-19.8624"/>
</g>
</g>
</svg>
        <g id="navigator" transform="translate(0 0)" fill="#404254">
                <rect fill="#f2f5e9" fill-opacity="0.5" stroke="#606060" stroke-width=".5" x="0" y="0" width="60" height="60"/>
                <use id="zoomplus" xlink:href="#zoomPlus" x="17" y="9" onmousedown="handleZoom(evt,'in')"/>
                <use id="zoomminus" xlink:href="#zoomMin" x="42" y="9" onmousedown="handleZoom(evt,'out')"/>
                <use id="reset" xlink:href="#resetDef" x="30" y="36" onmousedown="handleReset()"/>
                <g id="arrowUp" xlink:href="#dirArrow" transform="translate(30 24)" onmousedown="handlePan(0,-1)">
                  <use xlink:href="#rim" fill="#404040">
                        <set attributeName="fill" to="#808080" begin="arrowUp.mouseover" end="arrowUp.mouseout"/>
                  </use>
                  <path fill="none" stroke="white" stroke-width="1.5" d="M0,-3.0v7 M-2.5,-0.5L0,-3.0L2.5,-0.5"/>
                </g>
                <g id="arrowRight" xlink:href="#dirArrow" transform="rotate(90) translate(36 -43)" onmousedown="handlePan(1,0)">
                  <use xlink:href="#rim" fill="#404040">
                        <set attributeName="fill" to="#808080" begin="arrowRight.mouseover" end="arrowRight.mouseout"/>
                  </use>
                  <path fill="none" stroke="white" stroke-width="1.5" d="M0,-3.0v7 M-2.5,-0.5L0,-3.0L2.5,-0.5"/>
                </g>
                <g id="arrowDown" xlink:href="#dirArrow" transform="rotate(180) translate(-30 -48)" onmousedown="handlePan(0,1)">
                  <use xlink:href="#rim" fill="#404040">
                        <set attributeName="fill" to="#808080" begin="arrowDown.mouseover" end="arrowDown.mouseout"/>
                  </use>
                  <path fill="none" stroke="white" stroke-width="1.5" d="M0,-3.0v7 M-2.5,-0.5L0,-3.0L2.5,-0.5"/>
                </g>
                <g id="arrowLeft" xlink:href="#dirArrow" transform="rotate(270) translate(-36 17)" onmousedown="handlePan(-1,0)">
                  <use xlink:href="#rim" fill="#404040">
                        <set attributeName="fill" to="#808080" begin="arrowLeft.mouseover" end="arrowLeft.mouseout"/>
                  </use>
                  <path fill="none" stroke="white" stroke-width="1.5" d="M0,-3.0v7 M-2.5,-0.5L0,-3.0L2.5,-0.5"/>
                </g>
        </g>
        <svg viewBox="0 0 15 15" width="100%" height="30px" preserveAspectRatio="xMaxYMin meet">
         <g id="arrow_out" transform="scale(0.3 0.3)">
          <a xlink:href="mcu_8c_a6217894b4b31634cfdd60789e8978468_cgraph_org.svg" target="_base">
           <rect id="button" ry="5" rx="5" y="6" x="6" height="38" width="38"
                fill="#f2f5e9" fill-opacity="0.5" stroke="#606060" stroke-width="1.0"/>
           <path id="arrow"
             d="M 11.500037,31.436501 C 11.940474,20.09759 22.043105,11.32322 32.158766,21.979434 L 37.068811,17.246167 C 37.068811,17.246167 37.088388,32 37.088388,32 L 22.160133,31.978069 C 22.160133,31.978069 26.997745,27.140456 26.997745,27.140456 C 18.528582,18.264221 13.291696,25.230495 11.500037,31.436501 z"
             style="fill:#404040;"/>
          </a>
         </g>
        </svg>
</svg>
