<?xml version="1.0" encoding="UTF-8" standalone="no"?>
<!DOCTYPE svg PUBLIC "-//W3C//DTD SVG 1.1//EN"
 "http://www.w3.org/Graphics/SVG/1.1/DTD/svg11.dtd">
<!-- Generated by graphviz version 2.38.0 (20140413.2041)
 -->
<!-- Title: pnlTBB_view::OnbtnTuneFilter Pages: 1 -->
<svg width="338pt" height="66pt"
 viewBox="0.00 0.00 338.00 66.00" xmlns="http://www.w3.org/2000/svg" xmlns:xlink="http://www.w3.org/1999/xlink">
<g id="graph0" class="graph" transform="scale(1 1) rotate(0) translate(4 62)">
<title>pnlTBB_view::OnbtnTuneFilter</title>
<polygon fill="white" stroke="none" points="-4,4 -4,-62 334,-62 334,4 -4,4"/>
<!-- Node1 -->
<g id="node1" class="node"><title>Node1</title>
<polygon fill="#bfbfbf" stroke="black" points="0,-19.5 0,-38.5 150,-38.5 150,-19.5 0,-19.5"/>
<text text-anchor="middle" x="75" y="-26.5" font-family="Helvetica,sans-Serif" font-size="10.00">pnlTBB_view::OnbtnTuneFilter</text>
</g>
<!-- Node2 -->
<g id="node2" class="node"><title>Node2</title>
<g id="a_node2"><a xlink:href="../../d3/d82/classpnlTBB__view.html#a06ccf70bcee72033b62311f82db755d3" target="_top" xlink:title="pnlTBB_view::pnlTBB_view">
<polygon fill="white" stroke="black" points="189,-38.5 189,-57.5 327,-57.5 327,-38.5 189,-38.5"/>
<text text-anchor="middle" x="258" y="-45.5" font-family="Helvetica,sans-Serif" font-size="10.00">pnlTBB_view::pnlTBB_view</text>
</a>
</g>
</g>
<!-- Node1&#45;&gt;Node2 -->
<g id="edge1" class="edge"><title>Node1&#45;&gt;Node2</title>
<path fill="none" stroke="midnightblue" d="M160.105,-37.8287C169.717,-38.8377 179.426,-39.8568 188.794,-40.8403"/>
<polygon fill="midnightblue" stroke="midnightblue" points="160.453,-34.3461 150.142,-36.7828 159.722,-41.3078 160.453,-34.3461"/>
</g>
<!-- Node3 -->
<g id="node3" class="node"><title>Node3</title>
<g id="a_node3"><a xlink:href="../../d3/d82/classpnlTBB__view.html#a7b70625f562b6aa78632200d0e6ea254" target="_top" xlink:title="pnlTBB_view::~pnlTBB_view">
<polygon fill="white" stroke="black" points="186,-0.5 186,-19.5 330,-19.5 330,-0.5 186,-0.5"/>
<text text-anchor="middle" x="258" y="-7.5" font-family="Helvetica,sans-Serif" font-size="10.00">pnlTBB_view::~pnlTBB_view</text>
</a>
</g>
</g>
<!-- Node1&#45;&gt;Node3 -->
<g id="edge2" class="edge"><title>Node1&#45;&gt;Node3</title>
<path fill="none" stroke="midnightblue" d="M160.182,-20.1633C168.78,-19.2607 177.455,-18.3501 185.893,-17.4642"/>
<polygon fill="midnightblue" stroke="midnightblue" points="159.722,-16.6922 150.142,-21.2172 160.453,-23.6539 159.722,-16.6922"/>
</g>
</g>
</svg>
