<?xml version="1.0" encoding="UTF-8" standalone="no"?>
<!DOCTYPE svg PUBLIC "-//W3C//DTD SVG 1.1//EN"
 "http://www.w3.org/Graphics/SVG/1.1/DTD/svg11.dtd">
<!-- Generated by graphviz version 2.38.0 (20140413.2041)
 -->
<!-- Title: pnlTBB_view::pnlTBB_view Pages: 1 -->
<svg width="342pt" height="116pt"
 viewBox="0.00 0.00 342.00 115.50" xmlns="http://www.w3.org/2000/svg" xmlns:xlink="http://www.w3.org/1999/xlink">
<g id="graph0" class="graph" transform="scale(1 1) rotate(0) translate(4 111.5)">
<title>pnlTBB_view::pnlTBB_view</title>
<polygon fill="white" stroke="none" points="-4,4 -4,-111.5 338,-111.5 338,4 -4,4"/>
<!-- Node1 -->
<g id="node1" class="node"><title>Node1</title>
<polygon fill="#bfbfbf" stroke="black" points="0,-50 0,-69 138,-69 138,-50 0,-50"/>
<text text-anchor="middle" x="69" y="-57" font-family="Helvetica,sans-Serif" font-size="10.00">pnlTBB_view::pnlTBB_view</text>
</g>
<!-- Node2 -->
<g id="node2" class="node"><title>Node2</title>
<g id="a_node2"><a xlink:href="../../d3/d82/classpnlTBB__view.html#a464f4075a92b2be7f04db816430bde33" target="_top" xlink:title="pnlTBB_view::OnbtnTuneFilter">
<polygon fill="white" stroke="black" points="179,-88 179,-107 329,-107 329,-88 179,-88"/>
<text text-anchor="middle" x="254" y="-95" font-family="Helvetica,sans-Serif" font-size="10.00">pnlTBB_view::OnbtnTuneFilter</text>
</a>
</g>
</g>
<!-- Node1&#45;&gt;Node2 -->
<g id="edge1" class="edge"><title>Node1&#45;&gt;Node2</title>
<path fill="none" stroke="midnightblue" d="M116.179,-69.089C140.763,-74.1939 171.186,-80.5113 197.097,-85.8918"/>
<polygon fill="midnightblue" stroke="midnightblue" points="196.651,-89.3736 207.153,-87.9799 198.074,-82.5198 196.651,-89.3736"/>
</g>
<!-- Node3 -->
<g id="node3" class="node"><title>Node3</title>
<g id="a_node3"><a xlink:href="../../d3/d82/classpnlTBB__view.html#a7c6ad28823fb810f2b7324f458267195" target="_top" xlink:title="pnlTBB_view::OnbtnTuneTxGain">
<polygon fill="white" stroke="black" points="174,-50 174,-69 334,-69 334,-50 174,-50"/>
<text text-anchor="middle" x="254" y="-57" font-family="Helvetica,sans-Serif" font-size="10.00">pnlTBB_view::OnbtnTuneTxGain</text>
</a>
</g>
</g>
<!-- Node1&#45;&gt;Node3 -->
<g id="edge2" class="edge"><title>Node1&#45;&gt;Node3</title>
<path fill="none" stroke="midnightblue" d="M138.142,-59.5C146.469,-59.5 155.072,-59.5 163.65,-59.5"/>
<polygon fill="midnightblue" stroke="midnightblue" points="163.69,-63.0001 173.69,-59.5 163.69,-56.0001 163.69,-63.0001"/>
</g>
<!-- Node4 -->
<g id="node4" class="node"><title>Node4</title>
<g id="a_node4"><a xlink:href="../../d3/d82/classpnlTBB__view.html#a69198b535c247cd8f5ca0f7ea00870ad" target="_top" xlink:title="pnlTBB_view::ParameterChange\lHandler">
<polygon fill="white" stroke="black" points="174.5,-0.5 174.5,-30.5 333.5,-30.5 333.5,-0.5 174.5,-0.5"/>
<text text-anchor="start" x="182.5" y="-18.5" font-family="Helvetica,sans-Serif" font-size="10.00">pnlTBB_view::ParameterChange</text>
<text text-anchor="middle" x="254" y="-7.5" font-family="Helvetica,sans-Serif" font-size="10.00">Handler</text>
</a>
</g>
</g>
<!-- Node1&#45;&gt;Node4 -->
<g id="edge3" class="edge"><title>Node1&#45;&gt;Node4</title>
<path fill="none" stroke="midnightblue" d="M109.708,-49.9527C130.404,-44.9767 156.37,-38.7334 180.494,-32.9331"/>
<polygon fill="midnightblue" stroke="midnightblue" points="181.437,-36.3062 190.342,-30.5654 179.801,-29.5002 181.437,-36.3062"/>
</g>
</g>
</svg>
