<?xml version="1.0" encoding="UTF-8" standalone="no"?>
<!DOCTYPE svg PUBLIC "-//W3C//DTD SVG 1.1//EN"
 "http://www.w3.org/Graphics/SVG/1.1/DTD/svg11.dtd">
<!-- Generated by graphviz version 2.38.0 (20140413.2041)
 -->
<!-- Title: RFSpark_wxgui::OnRefreshAllADC Pages: 1 -->
<svg width="491pt" height="39pt"
 viewBox="0.00 0.00 491.00 39.00" xmlns="http://www.w3.org/2000/svg" xmlns:xlink="http://www.w3.org/1999/xlink">
<g id="graph0" class="graph" transform="scale(1 1) rotate(0) translate(4 35)">
<title>RFSpark_wxgui::OnRefreshAllADC</title>
<polygon fill="white" stroke="none" points="-4,4 -4,-35 487,-35 487,4 -4,4"/>
<!-- Node1 -->
<g id="node1" class="node"><title>Node1</title>
<polygon fill="#bfbfbf" stroke="black" points="0,-0.5 0,-30.5 140,-30.5 140,-0.5 0,-0.5"/>
<text text-anchor="start" x="8" y="-18.5" font-family="Helvetica,sans-Serif" font-size="10.00">RFSpark_wxgui::OnRefresh</text>
<text text-anchor="middle" x="70" y="-7.5" font-family="Helvetica,sans-Serif" font-size="10.00">AllADC</text>
</g>
<!-- Node2 -->
<g id="node2" class="node"><title>Node2</title>
<g id="a_node2"><a xlink:href="../../d0/d75/classRFSpark__wxgui.html#a0c6f5e7404ce6649966f4fa12eb19d8c" target="_top" xlink:title="RFSpark_wxgui::OnReadAll">
<polygon fill="white" stroke="black" points="176,-6 176,-25 316,-25 316,-6 176,-6"/>
<text text-anchor="middle" x="246" y="-13" font-family="Helvetica,sans-Serif" font-size="10.00">RFSpark_wxgui::OnReadAll</text>
</a>
</g>
</g>
<!-- Node1&#45;&gt;Node2 -->
<g id="edge1" class="edge"><title>Node1&#45;&gt;Node2</title>
<path fill="none" stroke="midnightblue" d="M150.035,-15.5C158.625,-15.5 167.319,-15.5 175.779,-15.5"/>
<polygon fill="midnightblue" stroke="midnightblue" points="150.019,-12.0001 140.019,-15.5 150.019,-19.0001 150.019,-12.0001"/>
</g>
<!-- Node3 -->
<g id="node3" class="node"><title>Node3</title>
<g id="a_node3"><a xlink:href="../../d0/d75/classRFSpark__wxgui.html#a39a9d5be720acdea645dae4605554f1b" target="_top" xlink:title="RFSpark_wxgui::RFSpark\l_wxgui">
<polygon fill="white" stroke="black" points="352,-0.5 352,-30.5 483,-30.5 483,-0.5 352,-0.5"/>
<text text-anchor="start" x="360" y="-18.5" font-family="Helvetica,sans-Serif" font-size="10.00">RFSpark_wxgui::RFSpark</text>
<text text-anchor="middle" x="417.5" y="-7.5" font-family="Helvetica,sans-Serif" font-size="10.00">_wxgui</text>
</a>
</g>
</g>
<!-- Node2&#45;&gt;Node3 -->
<g id="edge2" class="edge"><title>Node2&#45;&gt;Node3</title>
<path fill="none" stroke="midnightblue" d="M326.658,-15.5C335.088,-15.5 343.585,-15.5 351.815,-15.5"/>
<polygon fill="midnightblue" stroke="midnightblue" points="326.431,-12.0001 316.431,-15.5 326.431,-19.0001 326.431,-12.0001"/>
</g>
</g>
</svg>
