<?xml version="1.0" encoding="UTF-8" standalone="no"?>
<!DOCTYPE svg PUBLIC "-//W3C//DTD SVG 1.1//EN"
 "http://www.w3.org/Graphics/SVG/1.1/DTD/svg11.dtd">
<!-- Generated by graphviz version 2.38.0 (20140413.2041)
 -->
<!-- Title: endif Pages: 1 -->
<svg width="276pt" height="142pt"
 viewBox="0.00 0.00 276.00 142.00" xmlns="http://www.w3.org/2000/svg" xmlns:xlink="http://www.w3.org/1999/xlink">
<g id="graph0" class="graph" transform="scale(1 1) rotate(0) translate(4 138)">
<title>endif</title>
<polygon fill="white" stroke="none" points="-4,4 -4,-138 272,-138 272,4 -4,4"/>
<!-- Node1 -->
<g id="node1" class="node"><title>Node1</title>
<polygon fill="#bfbfbf" stroke="black" points="0,-57.5 0,-76.5 38,-76.5 38,-57.5 0,-57.5"/>
<text text-anchor="middle" x="19" y="-64.5" font-family="Helvetica,sans-Serif" font-size="10.00">endif</text>
</g>
<!-- Node2 -->
<g id="node2" class="node"><title>Node2</title>
<g id="a_node2"><a xlink:href="../../df/dc1/mcu__program_2CMakeLists_8txt.html#a6f9b6f9b140c2e81bf682fdfe9a35e33" target="_top" xlink:title="cmake_policy">
<polygon fill="white" stroke="black" points="99.5,-114.5 99.5,-133.5 176.5,-133.5 176.5,-114.5 99.5,-114.5"/>
<text text-anchor="middle" x="138" y="-121.5" font-family="Helvetica,sans-Serif" font-size="10.00">cmake_policy</text>
</a>
</g>
</g>
<!-- Node1&#45;&gt;Node2 -->
<g id="edge1" class="edge"><title>Node1&#45;&gt;Node2</title>
<path fill="none" stroke="midnightblue" d="M39.2775,-82.8495C49.1809,-90.382 61.7233,-99.0233 74,-105 81.9091,-108.85 90.7599,-112.103 99.2705,-114.77"/>
<polygon fill="midnightblue" stroke="midnightblue" points="41.3546,-80.0305 31.327,-76.6103 37.0331,-85.5373 41.3546,-80.0305"/>
</g>
<!-- Node3 -->
<g id="node3" class="node"><title>Node3</title>
<g id="a_node3"><a xlink:href="../../df/d89/src_2ConnectionFTDI_2CMakeLists_8txt.html#a61dd9b5c2161aa5a19b1365aab614dc6" target="_top" xlink:title="install">
<polygon fill="white" stroke="black" points="117,-76.5 117,-95.5 159,-95.5 159,-76.5 117,-76.5"/>
<text text-anchor="middle" x="138" y="-83.5" font-family="Helvetica,sans-Serif" font-size="10.00">install</text>
</a>
</g>
</g>
<!-- Node1&#45;&gt;Node3 -->
<g id="edge2" class="edge"><title>Node1&#45;&gt;Node3</title>
<path fill="none" stroke="midnightblue" d="M48.0488,-71.5549C69.2358,-74.9956 97.8115,-79.6361 116.793,-82.7186"/>
<polygon fill="midnightblue" stroke="midnightblue" points="48.4566,-68.0754 38.0248,-69.9271 47.3345,-74.9849 48.4566,-68.0754"/>
</g>
<!-- Node4 -->
<g id="node4" class="node"><title>Node4</title>
<g id="a_node4"><a xlink:href="../../d0/dbf/src_2CMakeLists_8txt.html#ab2c8ff3a733b842948dbd66addba266b" target="_top" xlink:title="set">
<polygon fill="white" stroke="black" points="238,-38.5 238,-57.5 268,-57.5 268,-38.5 238,-38.5"/>
<text text-anchor="middle" x="253" y="-45.5" font-family="Helvetica,sans-Serif" font-size="10.00">set</text>
</a>
</g>
</g>
<!-- Node1&#45;&gt;Node4 -->
<g id="edge4" class="edge"><title>Node1&#45;&gt;Node4</title>
<path fill="none" stroke="midnightblue" d="M48.3176,-64.6809C98.2935,-60.588 200.393,-52.2265 237.831,-49.1604"/>
<polygon fill="midnightblue" stroke="midnightblue" points="47.8856,-61.2045 38.2047,-65.5091 48.457,-68.1811 47.8856,-61.2045"/>
</g>
<!-- Node5 -->
<g id="node5" class="node"><title>Node5</title>
<g id="a_node5"><a xlink:href="../../d2/d3c/src_2oglGraph_2CMakeLists_8txt.html#ac68dba1ca5849849dcc68accb482409d" target="_top" xlink:title="target_include_directories">
<polygon fill="white" stroke="black" points="74,-0.5 74,-19.5 202,-19.5 202,-0.5 74,-0.5"/>
<text text-anchor="middle" x="138" y="-7.5" font-family="Helvetica,sans-Serif" font-size="10.00">target_include_directories</text>
</a>
</g>
</g>
<!-- Node1&#45;&gt;Node5 -->
<g id="edge5" class="edge"><title>Node1&#45;&gt;Node5</title>
<path fill="none" stroke="midnightblue" d="M42.6988,-51.8414C52.1542,-45.8699 63.3864,-39.2092 74,-34 85.0323,-28.5853 97.6131,-23.5748 108.616,-19.548"/>
<polygon fill="midnightblue" stroke="midnightblue" points="40.7634,-48.9248 34.2559,-57.2856 44.557,-54.8078 40.7634,-48.9248"/>
</g>
<!-- Node3&#45;&gt;Node4 -->
<g id="edge3" class="edge"><title>Node3&#45;&gt;Node4</title>
<path fill="none" stroke="midnightblue" d="M168.848,-75.9625C191.089,-68.4835 220.476,-58.6011 237.699,-52.8091"/>
<polygon fill="midnightblue" stroke="midnightblue" points="167.565,-72.7014 159.202,-79.2064 169.796,-79.3363 167.565,-72.7014"/>
</g>
<!-- Node5&#45;&gt;Node4 -->
<g id="edge6" class="edge"><title>Node5&#45;&gt;Node4</title>
<path fill="none" stroke="midnightblue" d="M177.13,-22.8226C198.08,-29.8675 222.81,-38.1838 237.945,-43.2737"/>
<polygon fill="midnightblue" stroke="midnightblue" points="178.109,-19.4591 167.515,-19.589 175.877,-26.0939 178.109,-19.4591"/>
</g>
</g>
</svg>
