<?xml version="1.0" encoding="UTF-8" standalone="no"?>
<!DOCTYPE svg PUBLIC "-//W3C//DTD SVG 1.1//EN"
 "http://www.w3.org/Graphics/SVG/1.1/DTD/svg11.dtd">
<!-- Generated by graphviz version 2.38.0 (20140413.2041)
 -->
<!-- Title: lms7002_dlgVCOfrequencies::OnBtnOkClick Pages: 1 -->
<svg width="504pt" height="522pt"
 viewBox="0.00 0.00 504.00 522.00" xmlns="http://www.w3.org/2000/svg" xmlns:xlink="http://www.w3.org/1999/xlink">
<g id="graph0" class="graph" transform="scale(1 1) rotate(0) translate(4 518)">
<title>lms7002_dlgVCOfrequencies::OnBtnOkClick</title>
<polygon fill="white" stroke="none" points="-4,4 -4,-518 500,-518 500,4 -4,4"/>
<!-- Node1 -->
<g id="node1" class="node"><title>Node1</title>
<polygon fill="#bfbfbf" stroke="black" points="0,-242 0,-272 143,-272 143,-242 0,-242"/>
<text text-anchor="start" x="8" y="-260" font-family="Helvetica,sans-Serif" font-size="10.00">lms7002_dlgVCOfrequencies</text>
<text text-anchor="middle" x="71.5" y="-249" font-family="Helvetica,sans-Serif" font-size="10.00">::OnBtnOkClick</text>
</g>
<!-- Node2 -->
<g id="node2" class="node"><title>Node2</title>
<g id="a_node2"><a xlink:href="../../d4/d67/lms_8c.html#a0e01e477b1f10e0a63e54de2dd2f8240" target="_top" xlink:title="lms">
<polygon fill="white" stroke="black" points="179,-247.5 179,-266.5 211,-266.5 211,-247.5 179,-247.5"/>
<text text-anchor="middle" x="195" y="-254.5" font-family="Helvetica,sans-Serif" font-size="10.00">lms</text>
</a>
</g>
</g>
<!-- Node1&#45;&gt;Node2 -->
<g id="edge1" class="edge"><title>Node1&#45;&gt;Node2</title>
<path fill="none" stroke="midnightblue" d="M143.177,-257C152.156,-257 160.838,-257 168.409,-257"/>
<polygon fill="midnightblue" stroke="midnightblue" points="168.612,-260.5 178.612,-257 168.612,-253.5 168.612,-260.5"/>
</g>
<!-- Node3 -->
<g id="node3" class="node"><title>Node3</title>
<g id="a_node3"><a xlink:href="../../d4/d67/lms_8c.html#a433227191fe883dcb8aa15d291bb29a1" target="_top" xlink:title="Case1F">
<polygon fill="white" stroke="black" points="255.5,-494.5 255.5,-513.5 306.5,-513.5 306.5,-494.5 255.5,-494.5"/>
<text text-anchor="middle" x="281" y="-501.5" font-family="Helvetica,sans-Serif" font-size="10.00">Case1F</text>
</a>
</g>
</g>
<!-- Node2&#45;&gt;Node3 -->
<g id="edge2" class="edge"><title>Node2&#45;&gt;Node3</title>
<path fill="none" stroke="midnightblue" d="M195.544,-266.791C194.469,-300.629 195.085,-414.425 247,-485 247.771,-486.048 248.619,-487.048 249.527,-488"/>
<polygon fill="midnightblue" stroke="midnightblue" points="247.426,-490.802 257.395,-494.388 251.838,-485.368 247.426,-490.802"/>
</g>
<!-- Node4 -->
<g id="node4" class="node"><title>Node4</title>
<g id="a_node4"><a xlink:href="../../d4/d67/lms_8c.html#ace0cd8bf61cb9b86b98f0cef03b5a9d9" target="_top" xlink:title="Case2F">
<polygon fill="white" stroke="black" points="255.5,-456.5 255.5,-475.5 306.5,-475.5 306.5,-456.5 255.5,-456.5"/>
<text text-anchor="middle" x="281" y="-463.5" font-family="Helvetica,sans-Serif" font-size="10.00">Case2F</text>
</a>
</g>
</g>
<!-- Node2&#45;&gt;Node4 -->
<g id="edge3" class="edge"><title>Node2&#45;&gt;Node4</title>
<path fill="none" stroke="midnightblue" d="M196.091,-266.821C196.857,-296.966 202.875,-389.593 247,-447 247.793,-448.032 248.659,-449.017 249.583,-449.958"/>
<polygon fill="midnightblue" stroke="midnightblue" points="247.521,-452.79 257.519,-456.295 251.889,-447.32 247.521,-452.79"/>
</g>
<!-- Node5 -->
<g id="node5" class="node"><title>Node5</title>
<g id="a_node5"><a xlink:href="../../d4/d67/lms_8c.html#a5f53b53ccc591e3643c4af2aee2e7f32" target="_top" xlink:title="Case3F">
<polygon fill="white" stroke="black" points="255.5,-418.5 255.5,-437.5 306.5,-437.5 306.5,-418.5 255.5,-418.5"/>
<text text-anchor="middle" x="281" y="-425.5" font-family="Helvetica,sans-Serif" font-size="10.00">Case3F</text>
</a>
</g>
</g>
<!-- Node2&#45;&gt;Node5 -->
<g id="edge4" class="edge"><title>Node2&#45;&gt;Node5</title>
<path fill="none" stroke="midnightblue" d="M196.878,-266.674C199.682,-292.552 210.5,-364.418 247,-409 247.942,-410.151 248.974,-411.246 250.072,-412.287"/>
<polygon fill="midnightblue" stroke="midnightblue" points="247.965,-415.082 258.036,-418.371 252.214,-409.519 247.965,-415.082"/>
</g>
<!-- Node6 -->
<g id="node6" class="node"><title>Node6</title>
<g id="a_node6"><a xlink:href="../../d4/d67/lms_8c.html#a5086763d5b258349bc13d6be7e7d0665" target="_top" xlink:title="Case4F">
<polygon fill="white" stroke="black" points="255.5,-380.5 255.5,-399.5 306.5,-399.5 306.5,-380.5 255.5,-380.5"/>
<text text-anchor="middle" x="281" y="-387.5" font-family="Helvetica,sans-Serif" font-size="10.00">Case4F</text>
</a>
</g>
</g>
<!-- Node2&#45;&gt;Node6 -->
<g id="edge5" class="edge"><title>Node2&#45;&gt;Node6</title>
<path fill="none" stroke="midnightblue" d="M198.158,-266.676C203.305,-287.854 218.081,-338.979 247,-371 248.025,-372.135 249.133,-373.219 250.303,-374.254"/>
<polygon fill="midnightblue" stroke="midnightblue" points="248.51,-377.278 258.65,-380.35 252.639,-371.626 248.51,-377.278"/>
</g>
<!-- Node7 -->
<g id="node7" class="node"><title>Node7</title>
<g id="a_node7"><a xlink:href="../../db/de5/recipes_8c.html#aee25e218394217a134e805ea09fb0fe9" target="_top" xlink:title="free_ivector">
<polygon fill="white" stroke="black" points="247,-342.5 247,-361.5 315,-361.5 315,-342.5 247,-342.5"/>
<text text-anchor="middle" x="281" y="-349.5" font-family="Helvetica,sans-Serif" font-size="10.00">free_ivector</text>
</a>
</g>
</g>
<!-- Node2&#45;&gt;Node7 -->
<g id="edge6" class="edge"><title>Node2&#45;&gt;Node7</title>
<path fill="none" stroke="midnightblue" d="M200.762,-266.919C208.632,-282.515 225.629,-313.047 247,-333 248.296,-334.21 249.682,-335.374 251.126,-336.49"/>
<polygon fill="midnightblue" stroke="midnightblue" points="249.54,-339.642 259.79,-342.321 253.448,-333.834 249.54,-339.642"/>
</g>
<!-- Node8 -->
<g id="node8" class="node"><title>Node8</title>
<g id="a_node8"><a xlink:href="../../db/de5/recipes_8c.html#a3e0d121b098c19c0bdc2429e5b9f1625" target="_top" xlink:title="free_matrix">
<polygon fill="white" stroke="black" points="248.5,-304.5 248.5,-323.5 313.5,-323.5 313.5,-304.5 248.5,-304.5"/>
<text text-anchor="middle" x="281" y="-311.5" font-family="Helvetica,sans-Serif" font-size="10.00">free_matrix</text>
</a>
</g>
</g>
<!-- Node2&#45;&gt;Node8 -->
<g id="edge7" class="edge"><title>Node2&#45;&gt;Node8</title>
<path fill="none" stroke="midnightblue" d="M210.249,-266.669C223.119,-275.402 242.28,-288.404 257.264,-298.572"/>
<polygon fill="midnightblue" stroke="midnightblue" points="255.721,-301.755 265.961,-304.474 259.651,-295.962 255.721,-301.755"/>
</g>
<!-- Node9 -->
<g id="node9" class="node"><title>Node9</title>
<g id="a_node9"><a xlink:href="../../db/de5/recipes_8c.html#a8214a52d888e820222c0382648329c0c" target="_top" xlink:title="free_vector">
<polygon fill="white" stroke="black" points="351,-247.5 351,-266.5 416,-266.5 416,-247.5 351,-247.5"/>
<text text-anchor="middle" x="383.5" y="-254.5" font-family="Helvetica,sans-Serif" font-size="10.00">free_vector</text>
</a>
</g>
</g>
<!-- Node2&#45;&gt;Node9 -->
<g id="edge8" class="edge"><title>Node2&#45;&gt;Node9</title>
<path fill="none" stroke="midnightblue" d="M211.262,-257C239.192,-257 299.425,-257 340.468,-257"/>
<polygon fill="midnightblue" stroke="midnightblue" points="340.716,-260.5 350.716,-257 340.716,-253.5 340.716,-260.5"/>
</g>
<!-- Node10 -->
<g id="node10" class="node"><title>Node10</title>
<g id="a_node10"><a xlink:href="../../d4/d67/lms_8c.html#ad1d6c875ff429888b51dd1155f0311ad" target="_top" xlink:title="ivector">
<polygon fill="white" stroke="black" points="258,-228.5 258,-247.5 304,-247.5 304,-228.5 258,-228.5"/>
<text text-anchor="middle" x="281" y="-235.5" font-family="Helvetica,sans-Serif" font-size="10.00">ivector</text>
</a>
</g>
</g>
<!-- Node2&#45;&gt;Node10 -->
<g id="edge9" class="edge"><title>Node2&#45;&gt;Node10</title>
<path fill="none" stroke="midnightblue" d="M211.018,-253.603C221.295,-251.279 235.31,-248.109 248.023,-245.233"/>
<polygon fill="midnightblue" stroke="midnightblue" points="248.863,-248.631 257.844,-243.011 247.318,-241.804 248.863,-248.631"/>
</g>
<!-- Node11 -->
<g id="node11" class="node"><title>Node11</title>
<g id="a_node11"><a xlink:href="../../db/de5/recipes_8c.html#a66ff65ad0355ec1f4a7722bcdafc8cd3" target="_top" xlink:title="lubksb">
<polygon fill="white" stroke="black" points="258.5,-190.5 258.5,-209.5 303.5,-209.5 303.5,-190.5 258.5,-190.5"/>
<text text-anchor="middle" x="281" y="-197.5" font-family="Helvetica,sans-Serif" font-size="10.00">lubksb</text>
</a>
</g>
</g>
<!-- Node2&#45;&gt;Node11 -->
<g id="edge10" class="edge"><title>Node2&#45;&gt;Node11</title>
<path fill="none" stroke="midnightblue" d="M208.28,-247.209C218.431,-239.273 233.343,-227.975 247,-219 249.127,-217.602 251.361,-216.195 253.621,-214.813"/>
<polygon fill="midnightblue" stroke="midnightblue" points="255.473,-217.784 262.299,-209.68 251.91,-211.759 255.473,-217.784"/>
</g>
<!-- Node12 -->
<g id="node12" class="node"><title>Node12</title>
<g id="a_node12"><a xlink:href="../../db/de5/recipes_8c.html#a623fec796d9d53e5e4a4d30226547da7" target="_top" xlink:title="ludcmp">
<polygon fill="white" stroke="black" points="257,-152.5 257,-171.5 305,-171.5 305,-152.5 257,-152.5"/>
<text text-anchor="middle" x="281" y="-159.5" font-family="Helvetica,sans-Serif" font-size="10.00">ludcmp</text>
</a>
</g>
</g>
<!-- Node2&#45;&gt;Node12 -->
<g id="edge11" class="edge"><title>Node2&#45;&gt;Node12</title>
<path fill="none" stroke="midnightblue" d="M200.762,-247.081C208.632,-231.485 225.629,-200.953 247,-181 248.296,-179.79 249.682,-178.626 251.126,-177.51"/>
<polygon fill="midnightblue" stroke="midnightblue" points="253.448,-180.166 259.79,-171.679 249.54,-174.358 253.448,-180.166"/>
</g>
<!-- Node15 -->
<g id="node15" class="node"><title>Node15</title>
<g id="a_node15"><a xlink:href="../../d4/d67/lms_8c.html#a37bcb1539d76b53344102435e2ab9c91" target="_top" xlink:title="matrix">
<polygon fill="white" stroke="black" points="259,-114.5 259,-133.5 303,-133.5 303,-114.5 259,-114.5"/>
<text text-anchor="middle" x="281" y="-121.5" font-family="Helvetica,sans-Serif" font-size="10.00">matrix</text>
</a>
</g>
</g>
<!-- Node2&#45;&gt;Node15 -->
<g id="edge16" class="edge"><title>Node2&#45;&gt;Node15</title>
<path fill="none" stroke="midnightblue" d="M198.158,-247.324C203.305,-226.146 218.081,-175.021 247,-143 248.158,-141.718 249.423,-140.5 250.761,-139.346"/>
<polygon fill="midnightblue" stroke="midnightblue" points="252.908,-142.113 258.993,-133.44 248.827,-136.426 252.908,-142.113"/>
</g>
<!-- Node16 -->
<g id="node16" class="node"><title>Node16</title>
<g id="a_node16"><a xlink:href="../../d8/d91/rounding_8c.html#aa8d7512cdf5bfbf811cef6a8a091c679" target="_top" xlink:title="round2csd">
<polygon fill="white" stroke="black" points="250,-76.5 250,-95.5 312,-95.5 312,-76.5 250,-76.5"/>
<text text-anchor="middle" x="281" y="-83.5" font-family="Helvetica,sans-Serif" font-size="10.00">round2csd</text>
</a>
</g>
</g>
<!-- Node2&#45;&gt;Node16 -->
<g id="edge17" class="edge"><title>Node2&#45;&gt;Node16</title>
<path fill="none" stroke="midnightblue" d="M196.878,-247.326C199.682,-221.448 210.5,-149.582 247,-105 247.942,-103.849 248.974,-102.754 250.072,-101.713"/>
<polygon fill="midnightblue" stroke="midnightblue" points="252.214,-104.481 258.036,-95.6288 247.965,-98.9182 252.214,-104.481"/>
</g>
<!-- Node20 -->
<g id="node20" class="node"><title>Node20</title>
<g id="a_node20"><a xlink:href="../../d8/d91/rounding_8c.html#aca2670cc0fbf948a6b9cb670047c9d5b" target="_top" xlink:title="round2int">
<polygon fill="white" stroke="black" points="253,-38.5 253,-57.5 309,-57.5 309,-38.5 253,-38.5"/>
<text text-anchor="middle" x="281" y="-45.5" font-family="Helvetica,sans-Serif" font-size="10.00">round2int</text>
</a>
</g>
</g>
<!-- Node2&#45;&gt;Node20 -->
<g id="edge21" class="edge"><title>Node2&#45;&gt;Node20</title>
<path fill="none" stroke="midnightblue" d="M196.091,-247.179C196.857,-217.034 202.875,-124.407 247,-67 247.793,-65.9681 248.659,-64.9825 249.583,-64.0423"/>
<polygon fill="midnightblue" stroke="midnightblue" points="251.889,-66.6798 257.519,-57.7045 247.521,-61.2101 251.889,-66.6798"/>
</g>
<!-- Node21 -->
<g id="node21" class="node"><title>Node21</title>
<g id="a_node21"><a xlink:href="../../d4/d67/lms_8c.html#ac81ca32708341eb34b25d515d00bc748" target="_top" xlink:title="vector">
<polygon fill="white" stroke="black" points="259,-0.5 259,-19.5 303,-19.5 303,-0.5 259,-0.5"/>
<text text-anchor="middle" x="281" y="-7.5" font-family="Helvetica,sans-Serif" font-size="10.00">vector</text>
</a>
</g>
</g>
<!-- Node2&#45;&gt;Node21 -->
<g id="edge23" class="edge"><title>Node2&#45;&gt;Node21</title>
<path fill="none" stroke="midnightblue" d="M195.544,-247.209C194.469,-213.371 195.085,-99.5748 247,-29 248.05,-27.5722 249.243,-26.235 250.536,-24.9852"/>
<polygon fill="midnightblue" stroke="midnightblue" points="252.898,-27.5869 258.755,-18.7588 248.671,-22.007 252.898,-27.5869"/>
</g>
<!-- Node12&#45;&gt;Node9 -->
<g id="edge12" class="edge"><title>Node12&#45;&gt;Node9</title>
<path fill="none" stroke="midnightblue" d="M301.186,-171.656C305.9,-174.397 310.797,-177.577 315,-181 336.243,-198.301 356.546,-222.569 369.236,-238.991"/>
<polygon fill="midnightblue" stroke="midnightblue" points="366.633,-241.352 375.46,-247.212 372.214,-237.127 366.633,-241.352"/>
</g>
<!-- Node13 -->
<g id="node13" class="node"><title>Node13</title>
<g id="a_node13"><a xlink:href="../../db/de5/recipes_8c.html#a208e98f19b2f252315399d02c0594a46" target="_top" xlink:title="nrerror">
<polygon fill="white" stroke="black" points="452,-171.5 452,-190.5 496,-190.5 496,-171.5 452,-171.5"/>
<text text-anchor="middle" x="474" y="-178.5" font-family="Helvetica,sans-Serif" font-size="10.00">nrerror</text>
</a>
</g>
</g>
<!-- Node12&#45;&gt;Node13 -->
<g id="edge13" class="edge"><title>Node12&#45;&gt;Node13</title>
<path fill="none" stroke="midnightblue" d="M305.306,-170.1C318.528,-174.267 335.486,-178.903 351,-181 381.534,-185.127 416.761,-184.564 441.488,-183.308"/>
<polygon fill="midnightblue" stroke="midnightblue" points="441.944,-186.788 451.726,-182.718 441.541,-179.799 441.944,-186.788"/>
</g>
<!-- Node14 -->
<g id="node14" class="node"><title>Node14</title>
<g id="a_node14"><a xlink:href="../../db/de5/recipes_8c.html#a5e6092211a5f7e2d6ae9282379d3c604" target="_top" xlink:title="vector">
<polygon fill="white" stroke="black" points="361.5,-152.5 361.5,-171.5 405.5,-171.5 405.5,-152.5 361.5,-152.5"/>
<text text-anchor="middle" x="383.5" y="-159.5" font-family="Helvetica,sans-Serif" font-size="10.00">vector</text>
</a>
</g>
</g>
<!-- Node12&#45;&gt;Node14 -->
<g id="edge14" class="edge"><title>Node12&#45;&gt;Node14</title>
<path fill="none" stroke="midnightblue" d="M305.057,-162C318.673,-162 336.102,-162 350.977,-162"/>
<polygon fill="midnightblue" stroke="midnightblue" points="351.265,-165.5 361.265,-162 351.265,-158.5 351.265,-165.5"/>
</g>
<!-- Node14&#45;&gt;Node13 -->
<g id="edge15" class="edge"><title>Node14&#45;&gt;Node13</title>
<path fill="none" stroke="midnightblue" d="M405.923,-166.599C416.685,-168.91 429.928,-171.753 441.796,-174.301"/>
<polygon fill="midnightblue" stroke="midnightblue" points="441.262,-177.766 451.774,-176.443 442.731,-170.922 441.262,-177.766"/>
</g>
<!-- Node17 -->
<g id="node17" class="node"><title>Node17</title>
<g id="a_node17"><a xlink:href="../../d8/d91/rounding_8c.html#a2cff6b77e73872659c44b0c99f6bd97f" target="_top" xlink:title="csd2int">
<polygon fill="white" stroke="black" points="359.5,-114.5 359.5,-133.5 407.5,-133.5 407.5,-114.5 359.5,-114.5"/>
<text text-anchor="middle" x="383.5" y="-121.5" font-family="Helvetica,sans-Serif" font-size="10.00">csd2int</text>
</a>
</g>
</g>
<!-- Node16&#45;&gt;Node17 -->
<g id="edge18" class="edge"><title>Node16&#45;&gt;Node17</title>
<path fill="none" stroke="midnightblue" d="M307.36,-95.589C320.181,-100.437 335.894,-106.378 349.631,-111.572"/>
<polygon fill="midnightblue" stroke="midnightblue" points="348.623,-114.933 359.214,-115.195 351.099,-108.385 348.623,-114.933"/>
</g>
<!-- Node18 -->
<g id="node18" class="node"><title>Node18</title>
<g id="a_node18"><a xlink:href="../../db/d82/wglew_8h.html#a500a82aecba06f4550f6849b8099ca21" target="_top" xlink:title="int">
<polygon fill="white" stroke="black" points="369,-38.5 369,-57.5 398,-57.5 398,-38.5 369,-38.5"/>
<text text-anchor="middle" x="383.5" y="-45.5" font-family="Helvetica,sans-Serif" font-size="10.00">int</text>
</a>
</g>
</g>
<!-- Node16&#45;&gt;Node18 -->
<g id="edge19" class="edge"><title>Node16&#45;&gt;Node18</title>
<path fill="none" stroke="midnightblue" d="M307.36,-76.411C323.388,-70.3509 343.934,-62.582 359.49,-56.7003"/>
<polygon fill="midnightblue" stroke="midnightblue" points="360.778,-59.9552 368.894,-53.1446 358.302,-53.4076 360.778,-59.9552"/>
</g>
<!-- Node19 -->
<g id="node19" class="node"><title>Node19</title>
<g id="a_node19"><a xlink:href="../../d8/d91/rounding_8c.html#ab3a64ec72c5600bc114621e93309c8c3" target="_top" xlink:title="int2csd">
<polygon fill="white" stroke="black" points="359.5,-76.5 359.5,-95.5 407.5,-95.5 407.5,-76.5 359.5,-76.5"/>
<text text-anchor="middle" x="383.5" y="-83.5" font-family="Helvetica,sans-Serif" font-size="10.00">int2csd</text>
</a>
</g>
</g>
<!-- Node16&#45;&gt;Node19 -->
<g id="edge20" class="edge"><title>Node16&#45;&gt;Node19</title>
<path fill="none" stroke="midnightblue" d="M312.153,-86C323.87,-86 337.331,-86 349.321,-86"/>
<polygon fill="midnightblue" stroke="midnightblue" points="349.398,-89.5001 359.398,-86 349.398,-82.5001 349.398,-89.5001"/>
</g>
<!-- Node20&#45;&gt;Node18 -->
<g id="edge22" class="edge"><title>Node20&#45;&gt;Node18</title>
<path fill="none" stroke="midnightblue" d="M309.197,-48C324.576,-48 343.634,-48 358.462,-48"/>
<polygon fill="midnightblue" stroke="midnightblue" points="358.846,-51.5001 368.846,-48 358.846,-44.5001 358.846,-51.5001"/>
</g>
</g>
</svg>
