<?xml version="1.0" encoding="UTF-8" standalone="no"?>
<!DOCTYPE svg PUBLIC "-//W3C//DTD SVG 1.1//EN"
 "http://www.w3.org/Graphics/SVG/1.1/DTD/svg11.dtd">
<!-- Generated by graphviz version 2.38.0 (20140413.2041)
 -->
<!-- Title: lime::IConnection Pages: 1 -->
<svg width="129pt" height="569pt"
 viewBox="0.00 0.00 129.00 569.00" xmlns="http://www.w3.org/2000/svg" xmlns:xlink="http://www.w3.org/1999/xlink">
<g id="graph0" class="graph" transform="scale(1 1) rotate(0) translate(4 565)">
<title>lime::IConnection</title>
<polygon fill="white" stroke="none" points="-4,4 -4,-565 125,-565 125,4 -4,4"/>
<!-- Node1 -->
<g id="node1" class="node"><title>Node1</title>
<polygon fill="#bfbfbf" stroke="black" points="-7.10543e-15,-0.5 -7.10543e-15,-167.5 121,-167.5 121,-0.5 -7.10543e-15,-0.5"/>
<text text-anchor="middle" x="60.5" y="-155.5" font-family="Helvetica,sans-Serif" font-size="10.00">lime::IConnection</text>
<polyline fill="none" stroke="black" points="-7.10543e-15,-148.5 121,-148.5 "/>
<text text-anchor="start" x="8" y="-136.5" font-family="Helvetica,sans-Serif" font-size="10.00"># callback_logData</text>
<polyline fill="none" stroke="black" points="-7.10543e-15,-129.5 121,-129.5 "/>
<text text-anchor="start" x="8" y="-117.5" font-family="Helvetica,sans-Serif" font-size="10.00">+ IConnection()</text>
<text text-anchor="start" x="8" y="-106.5" font-family="Helvetica,sans-Serif" font-size="10.00">+ ~IConnection()</text>
<text text-anchor="start" x="8" y="-95.5" font-family="Helvetica,sans-Serif" font-size="10.00">+ GetHandle()</text>
<text text-anchor="start" x="8" y="-84.5" font-family="Helvetica,sans-Serif" font-size="10.00">+ IsOpen()</text>
<text text-anchor="start" x="8" y="-73.5" font-family="Helvetica,sans-Serif" font-size="10.00">+ GetDeviceInfo()</text>
<text text-anchor="start" x="8" y="-62.5" font-family="Helvetica,sans-Serif" font-size="10.00">+ TransactSPI()</text>
<text text-anchor="start" x="8" y="-51.5" font-family="Helvetica,sans-Serif" font-size="10.00">+ WriteLMS7002MSPI()</text>
<text text-anchor="start" x="8" y="-40.5" font-family="Helvetica,sans-Serif" font-size="10.00">+ ReadLMS7002MSPI()</text>
<text text-anchor="start" x="8" y="-29.5" font-family="Helvetica,sans-Serif" font-size="10.00">+ WriteI2C()</text>
<text text-anchor="start" x="8" y="-18.5" font-family="Helvetica,sans-Serif" font-size="10.00">+ ReadI2C()</text>
<text text-anchor="start" x="8" y="-7.5" font-family="Helvetica,sans-Serif" font-size="10.00">and 28 more...</text>
</g>
<!-- Node2 -->
<g id="node2" class="node"><title>Node2</title>
<g id="a_node2"><a xlink:href="../../d6/d37/classlime_1_1ConnectionHandle.html" target="_top" xlink:title="{lime::ConnectionHandle\n|+ index\l|+ ConnectionHandle()\l+ ConnectionHandle()\l+ serialize()\l+ ToString()\l}">
<polygon fill="white" stroke="black" points="-7.10543e-15,-215.5 -7.10543e-15,-305.5 121,-305.5 121,-215.5 -7.10543e-15,-215.5"/>
<text text-anchor="middle" x="60.5" y="-293.5" font-family="Helvetica,sans-Serif" font-size="10.00">lime::ConnectionHandle</text>
<polyline fill="none" stroke="black" points="-7.10543e-15,-286.5 121,-286.5 "/>
<text text-anchor="start" x="8" y="-274.5" font-family="Helvetica,sans-Serif" font-size="10.00">+ index</text>
<polyline fill="none" stroke="black" points="-7.10543e-15,-267.5 121,-267.5 "/>
<text text-anchor="start" x="8" y="-255.5" font-family="Helvetica,sans-Serif" font-size="10.00">+ ConnectionHandle()</text>
<text text-anchor="start" x="8" y="-244.5" font-family="Helvetica,sans-Serif" font-size="10.00">+ ConnectionHandle()</text>
<text text-anchor="start" x="8" y="-233.5" font-family="Helvetica,sans-Serif" font-size="10.00">+ serialize()</text>
<text text-anchor="start" x="8" y="-222.5" font-family="Helvetica,sans-Serif" font-size="10.00">+ ToString()</text>
</a>
</g>
</g>
<!-- Node2&#45;&gt;Node1 -->
<g id="edge1" class="edge"><title>Node2&#45;&gt;Node1</title>
<path fill="none" stroke="#404040" d="M60.5,-215.466C60.5,-204.562 60.5,-192.453 60.5,-180.133"/>
<polygon fill="none" stroke="#404040" points="60.5001,-179.778 56.5,-173.779 60.5,-167.778 64.5,-173.778 60.5001,-179.778"/>
<text text-anchor="middle" x="80.5" y="-189" font-family="Helvetica,sans-Serif" font-size="10.00"> &#45;_handle</text>
</g>
<!-- Node3 -->
<g id="node3" class="node"><title>Node3</title>
<g id="a_node3"><a xlink:title="STL class. ">
<polygon fill="white" stroke="#bfbfbf" points="30.5,-397.5 30.5,-454.5 90.5,-454.5 90.5,-397.5 30.5,-397.5"/>
<text text-anchor="middle" x="60.5" y="-442.5" font-family="Helvetica,sans-Serif" font-size="10.00">std::string</text>
<polyline fill="none" stroke="#bfbfbf" points="30.5,-435.5 90.5,-435.5 "/>
<text text-anchor="middle" x="60.5" y="-423.5" font-family="Helvetica,sans-Serif" font-size="10.00"> </text>
<polyline fill="none" stroke="#bfbfbf" points="30.5,-416.5 90.5,-416.5 "/>
<text text-anchor="middle" x="60.5" y="-404.5" font-family="Helvetica,sans-Serif" font-size="10.00"> </text>
</a>
</g>
</g>
<!-- Node3&#45;&gt;Node2 -->
<g id="edge2" class="edge"><title>Node3&#45;&gt;Node2</title>
<path fill="none" stroke="#404040" d="M60.5,-397.264C60.5,-375.537 60.5,-344.597 60.5,-317.739"/>
<polygon fill="none" stroke="#404040" points="60.5001,-317.734 56.5,-311.734 60.5,-305.734 64.5,-311.734 60.5001,-317.734"/>
<text text-anchor="middle" x="79.5" y="-371" font-family="Helvetica,sans-Serif" font-size="10.00"> +serial</text>
<text text-anchor="middle" x="79.5" y="-360" font-family="Helvetica,sans-Serif" font-size="10.00">+name</text>
<text text-anchor="middle" x="79.5" y="-349" font-family="Helvetica,sans-Serif" font-size="10.00">+media</text>
<text text-anchor="middle" x="79.5" y="-338" font-family="Helvetica,sans-Serif" font-size="10.00">+module</text>
<text text-anchor="middle" x="79.5" y="-327" font-family="Helvetica,sans-Serif" font-size="10.00">+addr</text>
</g>
<!-- Node4 -->
<g id="node4" class="node"><title>Node4</title>
<g id="a_node4"><a xlink:title="STL class. ">
<polygon fill="white" stroke="#bfbfbf" points="13,-492.5 13,-560.5 108,-560.5 108,-492.5 13,-492.5"/>
<text text-anchor="start" x="21" y="-548.5" font-family="Helvetica,sans-Serif" font-size="10.00">std::basic_string&lt;</text>
<text text-anchor="middle" x="60.5" y="-537.5" font-family="Helvetica,sans-Serif" font-size="10.00"> char &gt;</text>
<polyline fill="none" stroke="#bfbfbf" points="13,-530.5 108,-530.5 "/>
<text text-anchor="middle" x="60.5" y="-518.5" font-family="Helvetica,sans-Serif" font-size="10.00"> </text>
<polyline fill="none" stroke="#bfbfbf" points="13,-511.5 108,-511.5 "/>
<text text-anchor="middle" x="60.5" y="-499.5" font-family="Helvetica,sans-Serif" font-size="10.00"> </text>
</a>
</g>
</g>
<!-- Node4&#45;&gt;Node3 -->
<g id="edge3" class="edge"><title>Node4&#45;&gt;Node3</title>
<path fill="none" stroke="midnightblue" d="M60.5,-482.375C60.5,-472.94 60.5,-463.201 60.5,-454.571"/>
<polygon fill="none" stroke="midnightblue" points="57.0001,-482.427 60.5,-492.427 64.0001,-482.427 57.0001,-482.427"/>
</g>
</g>
</svg>
