<?xml version="1.0" encoding="UTF-8" standalone="no"?>
<!DOCTYPE svg PUBLIC "-//W3C//DTD SVG 1.1//EN"
 "http://www.w3.org/Graphics/SVG/1.1/DTD/svg11.dtd">
<!-- Generated by graphviz version 2.38.0 (20140413.2041)
 -->
<!-- Title: /home/erik/prefix/default/src/limesuite&#45;dev/mcu_program/common_src/LMS7002M_parameters_compact.h Pages: 1 -->
<svg width="896pt" height="150pt"
 viewBox="0.00 0.00 896.00 150.00" xmlns="http://www.w3.org/2000/svg" xmlns:xlink="http://www.w3.org/1999/xlink">
<g id="graph0" class="graph" transform="scale(1 1) rotate(0) translate(4 146)">
<title>/home/erik/prefix/default/src/limesuite&#45;dev/mcu_program/common_src/LMS7002M_parameters_compact.h</title>
<polygon fill="white" stroke="none" points="-4,4 -4,-146 892,-146 892,4 -4,4"/>
<!-- Node1 -->
<g id="node1" class="node"><title>Node1</title>
<polygon fill="#bfbfbf" stroke="black" points="391.5,-89.5 391.5,-141.5 560.5,-141.5 560.5,-89.5 391.5,-89.5"/>
<text text-anchor="start" x="399.5" y="-129.5" font-family="Helvetica,sans-Serif" font-size="10.00">/home/erik/prefix/default</text>
<text text-anchor="start" x="399.5" y="-118.5" font-family="Helvetica,sans-Serif" font-size="10.00">/src/limesuite&#45;dev/mcu</text>
<text text-anchor="start" x="399.5" y="-107.5" font-family="Helvetica,sans-Serif" font-size="10.00">_program/common_src/LMS7002M</text>
<text text-anchor="middle" x="476" y="-96.5" font-family="Helvetica,sans-Serif" font-size="10.00">_parameters_compact.h</text>
</g>
<!-- Node2 -->
<g id="node2" class="node"><title>Node2</title>
<g id="a_node2"><a xlink:href="../../d8/d4c/lms7002m__agc_8c.html" target="_top" xlink:title="/home/erik/prefix/default\l/src/limesuite&#45;dev/mcu\l_program/common_src/lms7002m_agc.c">
<polygon fill="white" stroke="black" points="0,-6 0,-47 194,-47 194,-6 0,-6"/>
<text text-anchor="start" x="8" y="-35" font-family="Helvetica,sans-Serif" font-size="10.00">/home/erik/prefix/default</text>
<text text-anchor="start" x="8" y="-24" font-family="Helvetica,sans-Serif" font-size="10.00">/src/limesuite&#45;dev/mcu</text>
<text text-anchor="middle" x="97" y="-13" font-family="Helvetica,sans-Serif" font-size="10.00">_program/common_src/lms7002m_agc.c</text>
</a>
</g>
</g>
<!-- Node1&#45;&gt;Node2 -->
<g id="edge1" class="edge"><title>Node1&#45;&gt;Node2</title>
<path fill="none" stroke="midnightblue" d="M381.395,-93.5421C328.815,-81.8049 262.233,-66.7957 203,-53 194.797,-51.0894 186.242,-49.0725 177.707,-47.044"/>
<polygon fill="midnightblue" stroke="midnightblue" points="380.859,-97.0085 391.381,-95.7695 382.383,-90.1764 380.859,-97.0085"/>
</g>
<!-- Node3 -->
<g id="node3" class="node"><title>Node3</title>
<g id="a_node3"><a xlink:href="../../d3/dec/lms7002m__calibrations_8c.html" target="_top" xlink:title="/home/erik/prefix/default\l/src/limesuite&#45;dev/mcu\l_program/common_src/lms7002m\l_calibrations.c">
<polygon fill="white" stroke="black" points="212,-0.5 212,-52.5 376,-52.5 376,-0.5 212,-0.5"/>
<text text-anchor="start" x="220" y="-40.5" font-family="Helvetica,sans-Serif" font-size="10.00">/home/erik/prefix/default</text>
<text text-anchor="start" x="220" y="-29.5" font-family="Helvetica,sans-Serif" font-size="10.00">/src/limesuite&#45;dev/mcu</text>
<text text-anchor="start" x="220" y="-18.5" font-family="Helvetica,sans-Serif" font-size="10.00">_program/common_src/lms7002m</text>
<text text-anchor="middle" x="294" y="-7.5" font-family="Helvetica,sans-Serif" font-size="10.00">_calibrations.c</text>
</a>
</g>
</g>
<!-- Node1&#45;&gt;Node3 -->
<g id="edge2" class="edge"><title>Node1&#45;&gt;Node3</title>
<path fill="none" stroke="midnightblue" d="M414.114,-84.917C392.142,-74.414 367.639,-62.701 346.524,-52.6075"/>
<polygon fill="midnightblue" stroke="midnightblue" points="412.826,-88.1809 423.358,-89.336 415.845,-81.8654 412.826,-88.1809"/>
</g>
<!-- Node4 -->
<g id="node4" class="node"><title>Node4</title>
<g id="a_node4"><a xlink:href="../../d7/db8/lms7002m__controls_8c.html" target="_top" xlink:title="/home/erik/prefix/default\l/src/limesuite&#45;dev/mcu\l_program/common_src/lms7002m\l_controls.c">
<polygon fill="white" stroke="black" points="394,-0.5 394,-52.5 558,-52.5 558,-0.5 394,-0.5"/>
<text text-anchor="start" x="402" y="-40.5" font-family="Helvetica,sans-Serif" font-size="10.00">/home/erik/prefix/default</text>
<text text-anchor="start" x="402" y="-29.5" font-family="Helvetica,sans-Serif" font-size="10.00">/src/limesuite&#45;dev/mcu</text>
<text text-anchor="start" x="402" y="-18.5" font-family="Helvetica,sans-Serif" font-size="10.00">_program/common_src/lms7002m</text>
<text text-anchor="middle" x="476" y="-7.5" font-family="Helvetica,sans-Serif" font-size="10.00">_controls.c</text>
</a>
</g>
</g>
<!-- Node1&#45;&gt;Node4 -->
<g id="edge3" class="edge"><title>Node1&#45;&gt;Node4</title>
<path fill="none" stroke="midnightblue" d="M476,-79.1908C476,-70.2824 476,-60.8986 476,-52.6075"/>
<polygon fill="midnightblue" stroke="midnightblue" points="472.5,-79.336 476,-89.336 479.5,-79.336 472.5,-79.336"/>
</g>
<!-- Node5 -->
<g id="node5" class="node"><title>Node5</title>
<g id="a_node5"><a xlink:href="../../d2/da6/lms7002m__filters_8c.html" target="_top" xlink:title="/home/erik/prefix/default\l/src/limesuite&#45;dev/mcu\l_program/common_src/lms7002m\l_filters.c">
<polygon fill="white" stroke="black" points="576,-0.5 576,-52.5 740,-52.5 740,-0.5 576,-0.5"/>
<text text-anchor="start" x="584" y="-40.5" font-family="Helvetica,sans-Serif" font-size="10.00">/home/erik/prefix/default</text>
<text text-anchor="start" x="584" y="-29.5" font-family="Helvetica,sans-Serif" font-size="10.00">/src/limesuite&#45;dev/mcu</text>
<text text-anchor="start" x="584" y="-18.5" font-family="Helvetica,sans-Serif" font-size="10.00">_program/common_src/lms7002m</text>
<text text-anchor="middle" x="658" y="-7.5" font-family="Helvetica,sans-Serif" font-size="10.00">_filters.c</text>
</a>
</g>
</g>
<!-- Node1&#45;&gt;Node5 -->
<g id="edge4" class="edge"><title>Node1&#45;&gt;Node5</title>
<path fill="none" stroke="midnightblue" d="M537.886,-84.917C559.858,-74.414 584.361,-62.701 605.476,-52.6075"/>
<polygon fill="midnightblue" stroke="midnightblue" points="536.155,-81.8654 528.642,-89.336 539.174,-88.1809 536.155,-81.8654"/>
</g>
<!-- Node6 -->
<g id="node6" class="node"><title>Node6</title>
<g id="a_node6"><a xlink:href="../../d0/d29/main_8c.html" target="_top" xlink:title="/home/erik/prefix/default\l/src/limesuite&#45;dev/mcu\l_program/mcu_src/main.c">
<polygon fill="white" stroke="black" points="758,-6 758,-47 888,-47 888,-6 758,-6"/>
<text text-anchor="start" x="766" y="-35" font-family="Helvetica,sans-Serif" font-size="10.00">/home/erik/prefix/default</text>
<text text-anchor="start" x="766" y="-24" font-family="Helvetica,sans-Serif" font-size="10.00">/src/limesuite&#45;dev/mcu</text>
<text text-anchor="middle" x="823" y="-13" font-family="Helvetica,sans-Serif" font-size="10.00">_program/mcu_src/main.c</text>
</a>
</g>
</g>
<!-- Node1&#45;&gt;Node6 -->
<g id="edge5" class="edge"><title>Node1&#45;&gt;Node6</title>
<path fill="none" stroke="midnightblue" d="M570.582,-95.8752C623.43,-84.7996 690.276,-69.6776 749,-53 755.274,-51.2181 761.797,-49.2079 768.255,-47.1177"/>
<polygon fill="midnightblue" stroke="midnightblue" points="569.621,-92.5002 560.544,-97.9656 571.048,-99.3532 569.621,-92.5002"/>
</g>
</g>
</svg>
