<?xml version="1.0" encoding="UTF-8" standalone="no"?>
<!DOCTYPE svg PUBLIC "-//W3C//DTD SVG 1.1//EN"
 "http://www.w3.org/Graphics/SVG/1.1/DTD/svg11.dtd">
<!-- Generated by graphviz version 2.38.0 (20140413.2041)
 -->
<!-- Title: read Pages: 1 -->
<svg width="397pt" height="225pt"
 viewBox="0.00 0.00 397.00 224.50" xmlns="http://www.w3.org/2000/svg" xmlns:xlink="http://www.w3.org/1999/xlink">
<g id="graph0" class="graph" transform="scale(1 1) rotate(0) translate(4 220.5)">
<title>read</title>
<polygon fill="white" stroke="none" points="-4,4 -4,-220.5 393,-220.5 393,4 -4,4"/>
<!-- Node1 -->
<g id="node1" class="node"><title>Node1</title>
<polygon fill="#bfbfbf" stroke="black" points="0,-104 0,-123 35,-123 35,-104 0,-104"/>
<text text-anchor="middle" x="17.5" y="-111" font-family="Helvetica,sans-Serif" font-size="10.00">read</text>
</g>
<!-- Node2 -->
<g id="node2" class="node"><title>Node2</title>
<g id="a_node2"><a xlink:href="../../df/df6/boardEmulator_8cpp.html#a3c04138a5bfe5d72780bb7e82a18e627" target="_top" xlink:title="main">
<polygon fill="white" stroke="black" points="123.5,-197 123.5,-216 161.5,-216 161.5,-197 123.5,-197"/>
<text text-anchor="middle" x="142.5" y="-204" font-family="Helvetica,sans-Serif" font-size="10.00">main</text>
</a>
</g>
</g>
<!-- Node1&#45;&gt;Node2 -->
<g id="edge1" class="edge"><title>Node1&#45;&gt;Node2</title>
<path fill="none" stroke="midnightblue" d="M27.2365,-132.495C35.9737,-149.403 50.985,-173.556 71,-187.5 86.6015,-198.369 108.124,-203.024 123.273,-205.016"/>
<polygon fill="midnightblue" stroke="midnightblue" points="30.1583,-130.503 22.6185,-123.06 23.871,-133.581 30.1583,-130.503"/>
</g>
<!-- Node3 -->
<g id="node3" class="node"><title>Node3</title>
<g id="a_node3"><a xlink:href="../../d9/d0d/classlime_1_1ConnectionXillybus.html#a1b24af0f13cd154305bdba2fe2c6a232" target="_top" xlink:title="Reads data coming from the chip through USB port. ">
<polygon fill="white" stroke="black" points="80,-147.5 80,-177.5 205,-177.5 205,-147.5 80,-147.5"/>
<text text-anchor="start" x="88" y="-165.5" font-family="Helvetica,sans-Serif" font-size="10.00">lime::ConnectionXillybus</text>
<text text-anchor="middle" x="142.5" y="-154.5" font-family="Helvetica,sans-Serif" font-size="10.00">::Read</text>
</a>
</g>
</g>
<!-- Node1&#45;&gt;Node3 -->
<g id="edge2" class="edge"><title>Node1&#45;&gt;Node3</title>
<path fill="none" stroke="midnightblue" d="M44.5535,-126.641C52.909,-130.656 62.2623,-134.946 71,-138.5 78.5453,-141.569 86.6466,-144.581 94.5732,-147.378"/>
<polygon fill="midnightblue" stroke="midnightblue" points="45.8207,-123.365 35.2999,-122.114 42.7445,-129.652 45.8207,-123.365"/>
</g>
<!-- Node4 -->
<g id="node4" class="node"><title>Node4</title>
<g id="a_node4"><a xlink:href="../../d8/d66/classlime_1_1ConnectionEVB7COM.html#abfcc747a52459db105d53825ae104420" target="_top" xlink:title="Reads data from COM port. ">
<polygon fill="white" stroke="black" points="73,-98.5 73,-128.5 212,-128.5 212,-98.5 73,-98.5"/>
<text text-anchor="start" x="81" y="-116.5" font-family="Helvetica,sans-Serif" font-size="10.00">lime::ConnectionEVB7COM</text>
<text text-anchor="middle" x="142.5" y="-105.5" font-family="Helvetica,sans-Serif" font-size="10.00">::Read</text>
</a>
</g>
</g>
<!-- Node1&#45;&gt;Node4 -->
<g id="edge3" class="edge"><title>Node1&#45;&gt;Node4</title>
<path fill="none" stroke="midnightblue" d="M45.2219,-113.5C53.5516,-113.5 63.1493,-113.5 72.9895,-113.5"/>
<polygon fill="midnightblue" stroke="midnightblue" points="45.0884,-110 35.0883,-113.5 45.0883,-117 45.0884,-110"/>
</g>
<!-- Node6 -->
<g id="node6" class="node"><title>Node6</title>
<g id="a_node6"><a xlink:href="../../d9/d0d/classlime_1_1ConnectionXillybus.html#a61ab49528be4bd2821ca0561d473befb" target="_top" xlink:title="Reads data from board. ">
<polygon fill="white" stroke="black" points="80,-49.5 80,-79.5 205,-79.5 205,-49.5 80,-49.5"/>
<text text-anchor="start" x="88" y="-67.5" font-family="Helvetica,sans-Serif" font-size="10.00">lime::ConnectionXillybus</text>
<text text-anchor="middle" x="142.5" y="-56.5" font-family="Helvetica,sans-Serif" font-size="10.00">::ReceiveData</text>
</a>
</g>
</g>
<!-- Node1&#45;&gt;Node6 -->
<g id="edge5" class="edge"><title>Node1&#45;&gt;Node6</title>
<path fill="none" stroke="midnightblue" d="M44.624,-101.01C52.983,-97.1612 62.3206,-93.0148 71,-89.5 79.4258,-86.0879 88.5149,-82.6726 97.2745,-79.5109"/>
<polygon fill="midnightblue" stroke="midnightblue" points="42.9394,-97.9335 35.3588,-105.335 45.9006,-104.276 42.9394,-97.9335"/>
</g>
<!-- Node7 -->
<g id="node7" class="node"><title>Node7</title>
<g id="a_node7"><a xlink:href="../../d0/d2c/classlime_1_1ConnectionNovenaRF7.html#ae3864094461c2ce423966af42da8ccdf" target="_top" xlink:title="Sends data through SPI port. ">
<polygon fill="white" stroke="black" points="71,-0.5 71,-30.5 214,-30.5 214,-0.5 71,-0.5"/>
<text text-anchor="start" x="79" y="-18.5" font-family="Helvetica,sans-Serif" font-size="10.00">lime::ConnectionNovenaRF7</text>
<text text-anchor="middle" x="142.5" y="-7.5" font-family="Helvetica,sans-Serif" font-size="10.00">::Write</text>
</a>
</g>
</g>
<!-- Node1&#45;&gt;Node7 -->
<g id="edge6" class="edge"><title>Node1&#45;&gt;Node7</title>
<path fill="none" stroke="midnightblue" d="M27.9923,-94.3206C37.0008,-77.9252 51.9782,-54.7825 71,-40.5 76.0886,-36.6792 81.812,-33.4052 87.7409,-30.6086"/>
<polygon fill="midnightblue" stroke="midnightblue" points="24.7142,-93.0356 23.1717,-103.518 30.9141,-96.2854 24.7142,-93.0356"/>
</g>
<!-- Node5 -->
<g id="node5" class="node"><title>Node5</title>
<g id="a_node5"><a xlink:href="../../d8/d66/classlime_1_1ConnectionEVB7COM.html#abeeb0c45a4adad5fbe2ce66148e6bcd1" target="_top" xlink:title="implement in base class ">
<polygon fill="white" stroke="black" points="250,-98.5 250,-128.5 389,-128.5 389,-98.5 250,-98.5"/>
<text text-anchor="start" x="258" y="-116.5" font-family="Helvetica,sans-Serif" font-size="10.00">lime::ConnectionEVB7COM</text>
<text text-anchor="middle" x="319.5" y="-105.5" font-family="Helvetica,sans-Serif" font-size="10.00">::GetType</text>
</a>
</g>
</g>
<!-- Node4&#45;&gt;Node5 -->
<g id="edge4" class="edge"><title>Node4&#45;&gt;Node5</title>
<path fill="none" stroke="midnightblue" d="M222.392,-113.5C231.519,-113.5 240.772,-113.5 249.748,-113.5"/>
<polygon fill="midnightblue" stroke="midnightblue" points="222.162,-110 212.162,-113.5 222.162,-117 222.162,-110"/>
</g>
</g>
</svg>
