<?xml version="1.0" encoding="UTF-8" standalone="no"?>
<!DOCTYPE svg PUBLIC "-//W3C//DTD SVG 1.1//EN"
 "http://www.w3.org/Graphics/SVG/1.1/DTD/svg11.dtd">
<!-- Generated by graphviz version 2.38.0 (20140413.2041)
 -->
<!-- Title: lime::ConnectionNovenaRF7 Pages: 1 -->
<!--zoomable 1601 -->
<svg id="main" version="1.1" xmlns="http://www.w3.org/2000/svg" xmlns:xlink="http://www.w3.org/1999/xlink" xml:space="preserve" onload="init(evt)">
<style type="text/css"><![CDATA[
.edge:hover path { stroke: red; }
.edge:hover polygon { stroke: red; fill: red; }
]]></style>
<script type="text/javascript"><![CDATA[
var edges = document.getElementsByTagName('g');
if (edges && edges.length) {
  for (var i=0;i<edges.length;i++) {
    if (edges[i].id.substr(0,4)=='edge') {
      edges[i].setAttribute('class','edge');
    }
  }
}
]]></script>
        <defs>
                <circle id="rim" cx="0" cy="0" r="7"/>
                <circle id="rim2" cx="0" cy="0" r="3.5"/>
                <g id="zoomPlus">
                        <use xlink:href="#rim" fill="#404040">
                                <set attributeName="fill" to="#808080" begin="zoomplus.mouseover" end="zoomplus.mouseout"/>
                        </use>
                        <path d="M-4,0h8M0,-4v8" fill="none" stroke="white" stroke-width="1.5" pointer-events="none"/>
                </g>
                <g id="zoomMin">
                        <use xlink:href="#rim" fill="#404040">
                                <set attributeName="fill" to="#808080" begin="zoomminus.mouseover" end="zoomminus.mouseout"/>
                        </use>
                        <path d="M-4,0h8" fill="none" stroke="white" stroke-width="1.5" pointer-events="none"/>
                </g>
                <g id="dirArrow">
                        <path fill="none" stroke="white" stroke-width="1.5" d="M0,-3.0v7 M-2.5,-0.5L0,-3.0L2.5,-0.5"/>
                </g>
               <g id="resetDef">
                       <use xlink:href="#rim2" fill="#404040">
                               <set attributeName="fill" to="#808080" begin="reset.mouseover" end="reset.mouseout"/>
                       </use>
               </g>
        </defs>

<script type="text/javascript">
var viewWidth = 676;
var viewHeight = 1601;
var sectionId = 'dynsection-1';
</script>
<script xlink:href="../../svgpan.js"/>
<svg id="graph" class="graph">
<g id="viewport">
<title>lime::ConnectionNovenaRF7</title>
<polygon fill="white" stroke="none" points="-4,4 -4,-1597 672,-1597 672,4 -4,4"/>
<!-- Node1 -->
<g id="node1" class="node"><title>Node1</title>
<polygon fill="#bfbfbf" stroke="black" points="162,-331.5 162,-586.5 311,-586.5 311,-331.5 162,-331.5"/>
<text text-anchor="middle" x="236.5" y="-574.5" font-family="Helvetica,sans-Serif" font-size="10.00">lime::ConnectionNovenaRF7</text>
<polyline fill="none" stroke="black" points="162,-567.5 311,-567.5 "/>
<text text-anchor="start" x="170" y="-555.5" font-family="Helvetica,sans-Serif" font-size="10.00">+ cSPI_BUF_SIZE</text>
<text text-anchor="start" x="170" y="-544.5" font-family="Helvetica,sans-Serif" font-size="10.00">+ cSPI_SPEED_HZ</text>
<text text-anchor="start" x="170" y="-533.5" font-family="Helvetica,sans-Serif" font-size="10.00"># rxRunning</text>
<text text-anchor="start" x="170" y="-522.5" font-family="Helvetica,sans-Serif" font-size="10.00"># terminateRx</text>
<text text-anchor="start" x="170" y="-511.5" font-family="Helvetica,sans-Serif" font-size="10.00"># rxDataRate_Bps</text>
<text text-anchor="start" x="170" y="-500.5" font-family="Helvetica,sans-Serif" font-size="10.00"># fd</text>
<polyline fill="none" stroke="black" points="162,-493.5 311,-493.5 "/>
<text text-anchor="start" x="170" y="-481.5" font-family="Helvetica,sans-Serif" font-size="10.00">+ ConnectionNovenaRF7()</text>
<text text-anchor="start" x="170" y="-470.5" font-family="Helvetica,sans-Serif" font-size="10.00">+ ~ConnectionNovenaRF7()</text>
<text text-anchor="start" x="170" y="-459.5" font-family="Helvetica,sans-Serif" font-size="10.00">+ Open()</text>
<text text-anchor="start" x="170" y="-448.5" font-family="Helvetica,sans-Serif" font-size="10.00">+ Close()</text>
<text text-anchor="start" x="170" y="-437.5" font-family="Helvetica,sans-Serif" font-size="10.00">+ IsOpen()</text>
<text text-anchor="start" x="170" y="-426.5" font-family="Helvetica,sans-Serif" font-size="10.00">+ Write()</text>
<text text-anchor="start" x="170" y="-415.5" font-family="Helvetica,sans-Serif" font-size="10.00">+ Read()</text>
<text text-anchor="start" x="170" y="-404.5" font-family="Helvetica,sans-Serif" font-size="10.00">+ GetType()</text>
<text text-anchor="start" x="170" y="-393.5" font-family="Helvetica,sans-Serif" font-size="10.00">+ UpdateExternalBandSelect()</text>
<text text-anchor="start" x="170" y="-382.5" font-family="Helvetica,sans-Serif" font-size="10.00">+ SetupStream()</text>
<text text-anchor="start" x="170" y="-371.5" font-family="Helvetica,sans-Serif" font-size="10.00">and 6 more...</text>
<text text-anchor="start" x="170" y="-360.5" font-family="Helvetica,sans-Serif" font-size="10.00"># UpdateThreads()</text>
<text text-anchor="start" x="170" y="-349.5" font-family="Helvetica,sans-Serif" font-size="10.00"># ReceivePacketsLoop()</text>
<text text-anchor="start" x="170" y="-338.5" font-family="Helvetica,sans-Serif" font-size="10.00"># TransmitPacketsLoop()</text>
</g>
<!-- Node8 -->
<g id="node8" class="node"><title>Node8</title>
<g id="a_node8"><a xlink:href="../../d9/d96/classlime_1_1ConnectionNovenaRF7_1_1StreamChannel.html" target="_top" xlink:title="{lime::ConnectionNovenaRF7\l::StreamChannel\n|# mActive\l|+ StreamChannel()\l+ ~StreamChannel()\l+ Read()\l+ Write()\l+ GetInfo()\l+ IsActive()\l+ Start()\l+ Stop()\l&#45; StreamChannel()\l}">
<polygon fill="white" stroke="black" points="320,-127.5 320,-283.5 463,-283.5 463,-127.5 320,-127.5"/>
<text text-anchor="start" x="328" y="-271.5" font-family="Helvetica,sans-Serif" font-size="10.00">lime::ConnectionNovenaRF7</text>
<text text-anchor="middle" x="391.5" y="-260.5" font-family="Helvetica,sans-Serif" font-size="10.00">::StreamChannel</text>
<polyline fill="none" stroke="black" points="320,-253.5 463,-253.5 "/>
<text text-anchor="start" x="328" y="-241.5" font-family="Helvetica,sans-Serif" font-size="10.00"># mActive</text>
<polyline fill="none" stroke="black" points="320,-234.5 463,-234.5 "/>
<text text-anchor="start" x="328" y="-222.5" font-family="Helvetica,sans-Serif" font-size="10.00">+ StreamChannel()</text>
<text text-anchor="start" x="328" y="-211.5" font-family="Helvetica,sans-Serif" font-size="10.00">+ ~StreamChannel()</text>
<text text-anchor="start" x="328" y="-200.5" font-family="Helvetica,sans-Serif" font-size="10.00">+ Read()</text>
<text text-anchor="start" x="328" y="-189.5" font-family="Helvetica,sans-Serif" font-size="10.00">+ Write()</text>
<text text-anchor="start" x="328" y="-178.5" font-family="Helvetica,sans-Serif" font-size="10.00">+ GetInfo()</text>
<text text-anchor="start" x="328" y="-167.5" font-family="Helvetica,sans-Serif" font-size="10.00">+ IsActive()</text>
<text text-anchor="start" x="328" y="-156.5" font-family="Helvetica,sans-Serif" font-size="10.00">+ Start()</text>
<text text-anchor="start" x="328" y="-145.5" font-family="Helvetica,sans-Serif" font-size="10.00">+ Stop()</text>
<text text-anchor="start" x="328" y="-134.5" font-family="Helvetica,sans-Serif" font-size="10.00">&#45; StreamChannel()</text>
</a>
</g>
</g>
<!-- Node1&#45;&gt;Node8 -->
<g id="edge13" class="edge"><title>Node1&#45;&gt;Node8</title>
<path fill="none" stroke="#404040" d="M311.049,-337.038C319.948,-322.598 328.9,-308.074 337.433,-294.228"/>
<polygon fill="none" stroke="#404040" points="337.573,-294.001 337.316,-286.795 343.869,-283.785 344.126,-290.992 337.573,-294.001"/>
<text text-anchor="middle" x="345" y="-305" font-family="Helvetica,sans-Serif" font-size="10.00"> #port</text>
</g>
<!-- Node2 -->
<g id="node2" class="node"><title>Node2</title>
<g id="a_node2"><a xlink:href="../../de/d46/classlime_1_1LMS64CProtocol.html" target="_top" xlink:title="{lime::LMS64CProtocol\n|&#45; mControlPortLock\l&#45; _cachedRefClockRate\l|+ LMS64CProtocol()\l+ ~LMS64CProtocol()\l+ GetDeviceInfo()\l+ DeviceReset()\l+ TransactSPI()\l+ WriteI2C()\l+ ReadI2C()\l+ WriteRegisters()\l+ ReadRegisters()\l+ TransferPacket()\land 17 more...\l&#45; WriteSi5351I2C()\l&#45; ReadSi5351I2C()\l&#45; WriteADF4002SPI()\l&#45; ReadADF4002SPI()\l&#45; PreparePacket()\l&#45; ParsePacket()\l}">
<polygon fill="white" stroke="black" points="252.5,-634.5 252.5,-878.5 374.5,-878.5 374.5,-634.5 252.5,-634.5"/>
<text text-anchor="middle" x="313.5" y="-866.5" font-family="Helvetica,sans-Serif" font-size="10.00">lime::LMS64CProtocol</text>
<polyline fill="none" stroke="black" points="252.5,-859.5 374.5,-859.5 "/>
<text text-anchor="start" x="260.5" y="-847.5" font-family="Helvetica,sans-Serif" font-size="10.00">&#45; mControlPortLock</text>
<text text-anchor="start" x="260.5" y="-836.5" font-family="Helvetica,sans-Serif" font-size="10.00">&#45; _cachedRefClockRate</text>
<polyline fill="none" stroke="black" points="252.5,-829.5 374.5,-829.5 "/>
<text text-anchor="start" x="260.5" y="-817.5" font-family="Helvetica,sans-Serif" font-size="10.00">+ LMS64CProtocol()</text>
<text text-anchor="start" x="260.5" y="-806.5" font-family="Helvetica,sans-Serif" font-size="10.00">+ ~LMS64CProtocol()</text>
<text text-anchor="start" x="260.5" y="-795.5" font-family="Helvetica,sans-Serif" font-size="10.00">+ GetDeviceInfo()</text>
<text text-anchor="start" x="260.5" y="-784.5" font-family="Helvetica,sans-Serif" font-size="10.00">+ DeviceReset()</text>
<text text-anchor="start" x="260.5" y="-773.5" font-family="Helvetica,sans-Serif" font-size="10.00">+ TransactSPI()</text>
<text text-anchor="start" x="260.5" y="-762.5" font-family="Helvetica,sans-Serif" font-size="10.00">+ WriteI2C()</text>
<text text-anchor="start" x="260.5" y="-751.5" font-family="Helvetica,sans-Serif" font-size="10.00">+ ReadI2C()</text>
<text text-anchor="start" x="260.5" y="-740.5" font-family="Helvetica,sans-Serif" font-size="10.00">+ WriteRegisters()</text>
<text text-anchor="start" x="260.5" y="-729.5" font-family="Helvetica,sans-Serif" font-size="10.00">+ ReadRegisters()</text>
<text text-anchor="start" x="260.5" y="-718.5" font-family="Helvetica,sans-Serif" font-size="10.00">+ TransferPacket()</text>
<text text-anchor="start" x="260.5" y="-707.5" font-family="Helvetica,sans-Serif" font-size="10.00">and 17 more...</text>
<text text-anchor="start" x="260.5" y="-696.5" font-family="Helvetica,sans-Serif" font-size="10.00">&#45; WriteSi5351I2C()</text>
<text text-anchor="start" x="260.5" y="-685.5" font-family="Helvetica,sans-Serif" font-size="10.00">&#45; ReadSi5351I2C()</text>
<text text-anchor="start" x="260.5" y="-674.5" font-family="Helvetica,sans-Serif" font-size="10.00">&#45; WriteADF4002SPI()</text>
<text text-anchor="start" x="260.5" y="-663.5" font-family="Helvetica,sans-Serif" font-size="10.00">&#45; ReadADF4002SPI()</text>
<text text-anchor="start" x="260.5" y="-652.5" font-family="Helvetica,sans-Serif" font-size="10.00">&#45; PreparePacket()</text>
<text text-anchor="start" x="260.5" y="-641.5" font-family="Helvetica,sans-Serif" font-size="10.00">&#45; ParsePacket()</text>
</a>
</g>
</g>
<!-- Node2&#45;&gt;Node1 -->
<g id="edge1" class="edge"><title>Node2&#45;&gt;Node1</title>
<path fill="none" stroke="midnightblue" d="M279.344,-624.422C276.07,-611.857 272.754,-599.13 269.491,-586.61"/>
<polygon fill="none" stroke="midnightblue" points="276.05,-625.662 281.959,-634.456 282.824,-623.897 276.05,-625.662"/>
</g>
<!-- Node3 -->
<g id="node3" class="node"><title>Node3</title>
<g id="a_node3"><a xlink:href="../../d2/de5/classlime_1_1IConnection.html" target="_top" xlink:title="{lime::IConnection\n|# callback_logData\l|+ IConnection()\l+ ~IConnection()\l+ GetHandle()\l+ IsOpen()\l+ GetDeviceInfo()\l+ TransactSPI()\l+ WriteLMS7002MSPI()\l+ ReadLMS7002MSPI()\l+ WriteI2C()\l+ ReadI2C()\land 28 more...\l}">
<polygon fill="white" stroke="black" points="239,-926.5 239,-1093.5 360,-1093.5 360,-926.5 239,-926.5"/>
<text text-anchor="middle" x="299.5" y="-1081.5" font-family="Helvetica,sans-Serif" font-size="10.00">lime::IConnection</text>
<polyline fill="none" stroke="black" points="239,-1074.5 360,-1074.5 "/>
<text text-anchor="start" x="247" y="-1062.5" font-family="Helvetica,sans-Serif" font-size="10.00"># callback_logData</text>
<polyline fill="none" stroke="black" points="239,-1055.5 360,-1055.5 "/>
<text text-anchor="start" x="247" y="-1043.5" font-family="Helvetica,sans-Serif" font-size="10.00">+ IConnection()</text>
<text text-anchor="start" x="247" y="-1032.5" font-family="Helvetica,sans-Serif" font-size="10.00">+ ~IConnection()</text>
<text text-anchor="start" x="247" y="-1021.5" font-family="Helvetica,sans-Serif" font-size="10.00">+ GetHandle()</text>
<text text-anchor="start" x="247" y="-1010.5" font-family="Helvetica,sans-Serif" font-size="10.00">+ IsOpen()</text>
<text text-anchor="start" x="247" y="-999.5" font-family="Helvetica,sans-Serif" font-size="10.00">+ GetDeviceInfo()</text>
<text text-anchor="start" x="247" y="-988.5" font-family="Helvetica,sans-Serif" font-size="10.00">+ TransactSPI()</text>
<text text-anchor="start" x="247" y="-977.5" font-family="Helvetica,sans-Serif" font-size="10.00">+ WriteLMS7002MSPI()</text>
<text text-anchor="start" x="247" y="-966.5" font-family="Helvetica,sans-Serif" font-size="10.00">+ ReadLMS7002MSPI()</text>
<text text-anchor="start" x="247" y="-955.5" font-family="Helvetica,sans-Serif" font-size="10.00">+ WriteI2C()</text>
<text text-anchor="start" x="247" y="-944.5" font-family="Helvetica,sans-Serif" font-size="10.00">+ ReadI2C()</text>
<text text-anchor="start" x="247" y="-933.5" font-family="Helvetica,sans-Serif" font-size="10.00">and 28 more...</text>
</a>
</g>
</g>
<!-- Node3&#45;&gt;Node2 -->
<g id="edge2" class="edge"><title>Node3&#45;&gt;Node2</title>
<path fill="none" stroke="midnightblue" d="M304.67,-916.12C305.353,-903.861 306.06,-891.153 306.764,-878.51"/>
<polygon fill="none" stroke="midnightblue" points="301.165,-916.122 304.104,-926.301 308.154,-916.511 301.165,-916.122"/>
</g>
<!-- Node4 -->
<g id="node4" class="node"><title>Node4</title>
<g id="a_node4"><a xlink:href="../../d6/d37/classlime_1_1ConnectionHandle.html" target="_top" xlink:title="{lime::ConnectionHandle\n|+ index\l|+ ConnectionHandle()\l+ ConnectionHandle()\l+ serialize()\l+ ToString()\l}">
<polygon fill="white" stroke="black" points="238,-1141.5 238,-1231.5 359,-1231.5 359,-1141.5 238,-1141.5"/>
<text text-anchor="middle" x="298.5" y="-1219.5" font-family="Helvetica,sans-Serif" font-size="10.00">lime::ConnectionHandle</text>
<polyline fill="none" stroke="black" points="238,-1212.5 359,-1212.5 "/>
<text text-anchor="start" x="246" y="-1200.5" font-family="Helvetica,sans-Serif" font-size="10.00">+ index</text>
<polyline fill="none" stroke="black" points="238,-1193.5 359,-1193.5 "/>
<text text-anchor="start" x="246" y="-1181.5" font-family="Helvetica,sans-Serif" font-size="10.00">+ ConnectionHandle()</text>
<text text-anchor="start" x="246" y="-1170.5" font-family="Helvetica,sans-Serif" font-size="10.00">+ ConnectionHandle()</text>
<text text-anchor="start" x="246" y="-1159.5" font-family="Helvetica,sans-Serif" font-size="10.00">+ serialize()</text>
<text text-anchor="start" x="246" y="-1148.5" font-family="Helvetica,sans-Serif" font-size="10.00">+ ToString()</text>
</a>
</g>
</g>
<!-- Node4&#45;&gt;Node3 -->
<g id="edge3" class="edge"><title>Node4&#45;&gt;Node3</title>
<path fill="none" stroke="#404040" d="M298.752,-1141.47C298.815,-1130.56 298.884,-1118.45 298.955,-1106.13"/>
<polygon fill="none" stroke="#404040" points="298.957,-1105.78 294.991,-1099.76 299.026,-1093.78 302.991,-1099.8 298.957,-1105.78"/>
<text text-anchor="middle" x="319.5" y="-1115" font-family="Helvetica,sans-Serif" font-size="10.00"> &#45;_handle</text>
</g>
<!-- Node5 -->
<g id="node5" class="node"><title>Node5</title>
<g id="a_node5"><a xlink:title="STL class. ">
<polygon fill="white" stroke="#bfbfbf" points="268.5,-1329 268.5,-1386 328.5,-1386 328.5,-1329 268.5,-1329"/>
<text text-anchor="middle" x="298.5" y="-1374" font-family="Helvetica,sans-Serif" font-size="10.00">std::string</text>
<polyline fill="none" stroke="#bfbfbf" points="268.5,-1367 328.5,-1367 "/>
<text text-anchor="middle" x="298.5" y="-1355" font-family="Helvetica,sans-Serif" font-size="10.00"> </text>
<polyline fill="none" stroke="#bfbfbf" points="268.5,-1348 328.5,-1348 "/>
<text text-anchor="middle" x="298.5" y="-1336" font-family="Helvetica,sans-Serif" font-size="10.00"> </text>
</a>
</g>
</g>
<!-- Node5&#45;&gt;Node4 -->
<g id="edge4" class="edge"><title>Node5&#45;&gt;Node4</title>
<path fill="none" stroke="#404040" d="M298.5,-1328.97C298.5,-1306 298.5,-1272.5 298.5,-1243.87"/>
<polygon fill="none" stroke="#404040" points="298.5,-1243.53 294.5,-1237.53 298.5,-1231.53 302.5,-1237.53 298.5,-1243.53"/>
<text text-anchor="middle" x="317.5" y="-1297" font-family="Helvetica,sans-Serif" font-size="10.00"> +serial</text>
<text text-anchor="middle" x="317.5" y="-1286" font-family="Helvetica,sans-Serif" font-size="10.00">+name</text>
<text text-anchor="middle" x="317.5" y="-1275" font-family="Helvetica,sans-Serif" font-size="10.00">+media</text>
<text text-anchor="middle" x="317.5" y="-1264" font-family="Helvetica,sans-Serif" font-size="10.00">+module</text>
<text text-anchor="middle" x="317.5" y="-1253" font-family="Helvetica,sans-Serif" font-size="10.00">+addr</text>
</g>
<!-- Node6 -->
<g id="node6" class="node"><title>Node6</title>
<g id="a_node6"><a xlink:title="STL class. ">
<polygon fill="white" stroke="#bfbfbf" points="251,-1429.5 251,-1497.5 346,-1497.5 346,-1429.5 251,-1429.5"/>
<text text-anchor="start" x="259" y="-1485.5" font-family="Helvetica,sans-Serif" font-size="10.00">std::basic_string&lt;</text>
<text text-anchor="middle" x="298.5" y="-1474.5" font-family="Helvetica,sans-Serif" font-size="10.00"> char &gt;</text>
<polyline fill="none" stroke="#bfbfbf" points="251,-1467.5 346,-1467.5 "/>
<text text-anchor="middle" x="298.5" y="-1455.5" font-family="Helvetica,sans-Serif" font-size="10.00"> </text>
<polyline fill="none" stroke="#bfbfbf" points="251,-1448.5 346,-1448.5 "/>
<text text-anchor="middle" x="298.5" y="-1436.5" font-family="Helvetica,sans-Serif" font-size="10.00"> </text>
</a>
</g>
</g>
<!-- Node6&#45;&gt;Node5 -->
<g id="edge5" class="edge"><title>Node6&#45;&gt;Node5</title>
<path fill="none" stroke="midnightblue" d="M298.5,-1419.25C298.5,-1408.05 298.5,-1396.3 298.5,-1386.15"/>
<polygon fill="none" stroke="midnightblue" points="295,-1419.31 298.5,-1429.31 302,-1419.31 295,-1419.31"/>
</g>
<!-- Node7 -->
<g id="node7" class="node"><title>Node7</title>
<polygon fill="white" stroke="#bfbfbf" points="175,-0.5 175,-79.5 294,-79.5 294,-0.5 175,-0.5"/>
<text text-anchor="start" x="183" y="-67.5" font-family="Helvetica,sans-Serif" font-size="10.00">std::vector&lt; lime::</text>
<text text-anchor="start" x="183" y="-56.5" font-family="Helvetica,sans-Serif" font-size="10.00">ConnectionNovenaRF7</text>
<text text-anchor="middle" x="234.5" y="-45.5" font-family="Helvetica,sans-Serif" font-size="10.00">::StreamChannel * &gt;</text>
<polyline fill="none" stroke="#bfbfbf" points="175,-38.5 294,-38.5 "/>
<text text-anchor="middle" x="234.5" y="-26.5" font-family="Helvetica,sans-Serif" font-size="10.00"> </text>
<polyline fill="none" stroke="#bfbfbf" points="175,-19.5 294,-19.5 "/>
<text text-anchor="middle" x="234.5" y="-7.5" font-family="Helvetica,sans-Serif" font-size="10.00"> </text>
</g>
<!-- Node7&#45;&gt;Node1 -->
<g id="edge6" class="edge"><title>Node7&#45;&gt;Node1</title>
<path fill="none" stroke="#404040" d="M234.686,-79.7888C234.946,-134.029 235.432,-235.336 235.836,-319.457"/>
<polygon fill="none" stroke="#404040" points="235.835,-319.471 239.864,-325.452 235.893,-331.471 231.864,-325.491 235.835,-319.471"/>
<text text-anchor="middle" x="270" y="-203" font-family="Helvetica,sans-Serif" font-size="10.00"> #mRxStreams</text>
</g>
<!-- Node8&#45;&gt;Node7 -->
<g id="edge7" class="edge"><title>Node8&#45;&gt;Node7</title>
<path fill="none" stroke="#404040" d="M319.892,-129.927C306.355,-115.83 292.544,-101.447 280.083,-88.4706"/>
<polygon fill="none" stroke="#404040" points="280.004,-88.3883 272.963,-86.831 271.693,-79.7326 278.734,-81.29 280.004,-88.3883"/>
<text text-anchor="middle" x="324" y="-101" font-family="Helvetica,sans-Serif" font-size="10.00"> +elements</text>
</g>
<!-- Node9 -->
<g id="node9" class="node"><title>Node9</title>
<polygon fill="white" stroke="#bfbfbf" points="581,-430.5 581,-487.5 668,-487.5 668,-430.5 581,-430.5"/>
<text text-anchor="middle" x="624.5" y="-475.5" font-family="Helvetica,sans-Serif" font-size="10.00">IStreamChannel</text>
<polyline fill="none" stroke="#bfbfbf" points="581,-468.5 668,-468.5 "/>
<text text-anchor="middle" x="624.5" y="-456.5" font-family="Helvetica,sans-Serif" font-size="10.00"> </text>
<polyline fill="none" stroke="#bfbfbf" points="581,-449.5 668,-449.5 "/>
<text text-anchor="middle" x="624.5" y="-437.5" font-family="Helvetica,sans-Serif" font-size="10.00"> </text>
</g>
<!-- Node9&#45;&gt;Node8 -->
<g id="edge8" class="edge"><title>Node9&#45;&gt;Node8</title>
<path fill="none" stroke="midnightblue" d="M615.008,-420.492C606.794,-393.496 592.827,-357.346 571.5,-331 542.213,-294.822 499.739,-264.76 463.404,-243.245"/>
<polygon fill="none" stroke="midnightblue" points="611.722,-421.728 617.877,-430.351 618.443,-419.771 611.722,-421.728"/>
</g>
<!-- Node10 -->
<g id="node10" class="node"><title>Node10</title>
<g id="a_node10"><a xlink:href="../../d2/d97/classlime_1_1RingFIFO.html" target="_top" xlink:title="{lime::RingFIFO\n|# mBufferSize\l# mHead\l# mTail\l# mElementsFilled\l# lock\l# hasItems\l|+ GetInfo()\l+ RingFIFO()\l+ ~RingFIFO()\l+ push_samples()\l+ pop_samples()\l+ Clear()\l}">
<polygon fill="white" stroke="black" points="464.5,-375.5 464.5,-542.5 562.5,-542.5 562.5,-375.5 464.5,-375.5"/>
<text text-anchor="middle" x="513.5" y="-530.5" font-family="Helvetica,sans-Serif" font-size="10.00">lime::RingFIFO</text>
<polyline fill="none" stroke="black" points="464.5,-523.5 562.5,-523.5 "/>
<text text-anchor="start" x="472.5" y="-511.5" font-family="Helvetica,sans-Serif" font-size="10.00"># mBufferSize</text>
<text text-anchor="start" x="472.5" y="-500.5" font-family="Helvetica,sans-Serif" font-size="10.00"># mHead</text>
<text text-anchor="start" x="472.5" y="-489.5" font-family="Helvetica,sans-Serif" font-size="10.00"># mTail</text>
<text text-anchor="start" x="472.5" y="-478.5" font-family="Helvetica,sans-Serif" font-size="10.00"># mElementsFilled</text>
<text text-anchor="start" x="472.5" y="-467.5" font-family="Helvetica,sans-Serif" font-size="10.00"># lock</text>
<text text-anchor="start" x="472.5" y="-456.5" font-family="Helvetica,sans-Serif" font-size="10.00"># hasItems</text>
<polyline fill="none" stroke="black" points="464.5,-449.5 562.5,-449.5 "/>
<text text-anchor="start" x="472.5" y="-437.5" font-family="Helvetica,sans-Serif" font-size="10.00">+ GetInfo()</text>
<text text-anchor="start" x="472.5" y="-426.5" font-family="Helvetica,sans-Serif" font-size="10.00">+ RingFIFO()</text>
<text text-anchor="start" x="472.5" y="-415.5" font-family="Helvetica,sans-Serif" font-size="10.00">+ ~RingFIFO()</text>
<text text-anchor="start" x="472.5" y="-404.5" font-family="Helvetica,sans-Serif" font-size="10.00">+ push_samples()</text>
<text text-anchor="start" x="472.5" y="-393.5" font-family="Helvetica,sans-Serif" font-size="10.00">+ pop_samples()</text>
<text text-anchor="start" x="472.5" y="-382.5" font-family="Helvetica,sans-Serif" font-size="10.00">+ Clear()</text>
</a>
</g>
</g>
<!-- Node10&#45;&gt;Node8 -->
<g id="edge9" class="edge"><title>Node10&#45;&gt;Node8</title>
<path fill="none" stroke="#404040" d="M476.458,-375.418C469.609,-360.574 462.429,-345.285 455.5,-331 449.717,-319.077 443.493,-306.584 437.28,-294.306"/>
<polygon fill="none" stroke="#404040" points="437.271,-294.289 430.987,-290.753 431.834,-283.591 438.118,-287.128 437.271,-294.289"/>
<text text-anchor="middle" x="455.5" y="-305" font-family="Helvetica,sans-Serif" font-size="10.00"> #fifo</text>
</g>
<!-- Node11 -->
<g id="node11" class="node"><title>Node11</title>
<g id="a_node11"><a xlink:href="../../d0/d89/classlime_1_1SamplesPacket.html" target="_top" xlink:title="{lime::SamplesPacket\n|+ timestamp\l+ first\l+ last\l+ flags\l+ maxSamplesInPacket\l|+ SamplesPacket()\l}">
<polygon fill="white" stroke="black" points="481.5,-706 481.5,-807 603.5,-807 603.5,-706 481.5,-706"/>
<text text-anchor="middle" x="542.5" y="-795" font-family="Helvetica,sans-Serif" font-size="10.00">lime::SamplesPacket</text>
<polyline fill="none" stroke="black" points="481.5,-788 603.5,-788 "/>
<text text-anchor="start" x="489.5" y="-776" font-family="Helvetica,sans-Serif" font-size="10.00">+ timestamp</text>
<text text-anchor="start" x="489.5" y="-765" font-family="Helvetica,sans-Serif" font-size="10.00">+ first</text>
<text text-anchor="start" x="489.5" y="-754" font-family="Helvetica,sans-Serif" font-size="10.00">+ last</text>
<text text-anchor="start" x="489.5" y="-743" font-family="Helvetica,sans-Serif" font-size="10.00">+ flags</text>
<text text-anchor="start" x="489.5" y="-732" font-family="Helvetica,sans-Serif" font-size="10.00">+ maxSamplesInPacket</text>
<polyline fill="none" stroke="black" points="481.5,-725 603.5,-725 "/>
<text text-anchor="start" x="489.5" y="-713" font-family="Helvetica,sans-Serif" font-size="10.00">+ SamplesPacket()</text>
</a>
</g>
</g>
<!-- Node11&#45;&gt;Node10 -->
<g id="edge10" class="edge"><title>Node11&#45;&gt;Node10</title>
<path fill="none" stroke="#404040" d="M537.613,-705.707C533.579,-664.603 527.739,-605.091 522.816,-554.931"/>
<polygon fill="none" stroke="#404040" points="522.791,-554.673 518.224,-549.092 521.619,-542.73 526.186,-548.311 522.791,-554.673"/>
<text text-anchor="middle" x="549" y="-608" font-family="Helvetica,sans-Serif" font-size="10.00"> #mBuffer</text>
</g>
<!-- Node12 -->
<g id="node12" class="node"><title>Node12</title>
<g id="a_node12"><a xlink:href="../../d3/d26/structlime_1_1complex16__t.html" target="_top" xlink:title="{lime::complex16_t\n|+ i\l+ q\l|}">
<polygon fill="white" stroke="black" points="494.5,-976 494.5,-1044 590.5,-1044 590.5,-976 494.5,-976"/>
<text text-anchor="middle" x="542.5" y="-1032" font-family="Helvetica,sans-Serif" font-size="10.00">lime::complex16_t</text>
<polyline fill="none" stroke="black" points="494.5,-1025 590.5,-1025 "/>
<text text-anchor="start" x="502.5" y="-1013" font-family="Helvetica,sans-Serif" font-size="10.00">+ i</text>
<text text-anchor="start" x="502.5" y="-1002" font-family="Helvetica,sans-Serif" font-size="10.00">+ q</text>
<polyline fill="none" stroke="black" points="494.5,-995 590.5,-995 "/>
<text text-anchor="middle" x="542.5" y="-983" font-family="Helvetica,sans-Serif" font-size="10.00"> </text>
</a>
</g>
</g>
<!-- Node12&#45;&gt;Node11 -->
<g id="edge11" class="edge"><title>Node12&#45;&gt;Node11</title>
<path fill="none" stroke="#404040" d="M542.5,-975.862C542.5,-936.145 542.5,-868.768 542.5,-819.338"/>
<polygon fill="none" stroke="#404040" points="542.5,-819.185 538.5,-813.185 542.5,-807.185 546.5,-813.185 542.5,-819.185"/>
<text text-anchor="middle" x="565.5" y="-900" font-family="Helvetica,sans-Serif" font-size="10.00"> +samples</text>
</g>
<!-- Node13 -->
<g id="node13" class="node"><title>Node13</title>
<g id="a_node13"><a xlink:href="../../d4/d52/structlime_1_1StreamConfig.html" target="_top" xlink:title="{lime::StreamConfig\n|+ isTx\l+ channelID\l+ performanceLatency\l+ bufferLength\l+ format\l+ linkFormat\l|+ StreamConfig()\l}">
<polygon fill="white" stroke="black" points="332.5,-403 332.5,-515 446.5,-515 446.5,-403 332.5,-403"/>
<text text-anchor="middle" x="389.5" y="-503" font-family="Helvetica,sans-Serif" font-size="10.00">lime::StreamConfig</text>
<polyline fill="none" stroke="black" points="332.5,-496 446.5,-496 "/>
<text text-anchor="start" x="340.5" y="-484" font-family="Helvetica,sans-Serif" font-size="10.00">+ isTx</text>
<text text-anchor="start" x="340.5" y="-473" font-family="Helvetica,sans-Serif" font-size="10.00">+ channelID</text>
<text text-anchor="start" x="340.5" y="-462" font-family="Helvetica,sans-Serif" font-size="10.00">+ performanceLatency</text>
<text text-anchor="start" x="340.5" y="-451" font-family="Helvetica,sans-Serif" font-size="10.00">+ bufferLength</text>
<text text-anchor="start" x="340.5" y="-440" font-family="Helvetica,sans-Serif" font-size="10.00">+ format</text>
<text text-anchor="start" x="340.5" y="-429" font-family="Helvetica,sans-Serif" font-size="10.00">+ linkFormat</text>
<polyline fill="none" stroke="black" points="332.5,-422 446.5,-422 "/>
<text text-anchor="start" x="340.5" y="-410" font-family="Helvetica,sans-Serif" font-size="10.00">+ StreamConfig()</text>
</a>
</g>
</g>
<!-- Node13&#45;&gt;Node8 -->
<g id="edge12" class="edge"><title>Node13&#45;&gt;Node8</title>
<path fill="none" stroke="#404040" d="M389.939,-402.807C390.188,-371.506 390.505,-331.58 390.789,-295.919"/>
<polygon fill="none" stroke="#404040" points="390.792,-295.504 386.84,-289.472 390.888,-283.504 394.84,-289.536 390.792,-295.504"/>
<text text-anchor="middle" x="408.5" y="-305" font-family="Helvetica,sans-Serif" font-size="10.00"> +config</text>
</g>
<!-- Node14 -->
<g id="node14" class="node"><title>Node14</title>
<g id="a_node14"><a xlink:title="STL class. ">
<polygon fill="white" stroke="#bfbfbf" points="0,-981.5 0,-1038.5 87,-1038.5 87,-981.5 0,-981.5"/>
<text text-anchor="middle" x="43.5" y="-1026.5" font-family="Helvetica,sans-Serif" font-size="10.00">std::vector&lt; T &gt;</text>
<polyline fill="none" stroke="#bfbfbf" points="0,-1019.5 87,-1019.5 "/>
<text text-anchor="middle" x="43.5" y="-1007.5" font-family="Helvetica,sans-Serif" font-size="10.00"> </text>
<polyline fill="none" stroke="#bfbfbf" points="0,-1000.5 87,-1000.5 "/>
<text text-anchor="middle" x="43.5" y="-988.5" font-family="Helvetica,sans-Serif" font-size="10.00"> </text>
</a>
</g>
</g>
<!-- Node14&#45;&gt;Node7 -->
<g id="edge14" class="edge"><title>Node14&#45;&gt;Node7</title>
<path fill="none" stroke="orange" d="M36.184,-971.372C27.3033,-922.344 13.5,-833.858 13.5,-757.5 13.5,-757.5 13.5,-757.5 13.5,-204.5 13.5,-123.961 109.528,-78.5578 174.985,-56.9643"/>
<polygon fill="orange" stroke="orange" points="32.7436,-972.016 37.9975,-981.217 39.6278,-970.748 32.7436,-972.016"/>
<text text-anchor="start" x="13.5" y="-462" font-family="Helvetica,sans-Serif" font-size="10.00"> &lt; lime::ConnectionNovena</text>
<text text-anchor="middle" x="73.5" y="-451" font-family="Helvetica,sans-Serif" font-size="10.00">RF7::StreamChannel * &gt;</text>
</g>
<!-- Node23 -->
<g id="node23" class="node"><title>Node23</title>
<polygon fill="white" stroke="#bfbfbf" points="42,-722.5 42,-790.5 153,-790.5 153,-722.5 42,-722.5"/>
<text text-anchor="start" x="50" y="-778.5" font-family="Helvetica,sans-Serif" font-size="10.00">std::vector&lt; unsigned</text>
<text text-anchor="middle" x="97.5" y="-767.5" font-family="Helvetica,sans-Serif" font-size="10.00"> char &gt;</text>
<polyline fill="none" stroke="#bfbfbf" points="42,-760.5 153,-760.5 "/>
<text text-anchor="start" x="50" y="-748.5" font-family="Helvetica,sans-Serif" font-size="10.00">+ elements</text>
<polyline fill="none" stroke="#bfbfbf" points="42,-741.5 153,-741.5 "/>
<text text-anchor="middle" x="97.5" y="-729.5" font-family="Helvetica,sans-Serif" font-size="10.00"> </text>
</g>
<!-- Node14&#45;&gt;Node23 -->
<g id="edge25" class="edge"><title>Node14&#45;&gt;Node23</title>
<path fill="none" stroke="orange" d="M51.6101,-971.228C62.1408,-922.182 80.3552,-837.35 90.3775,-790.672"/>
<polygon fill="orange" stroke="orange" points="48.1626,-970.612 49.4853,-981.124 55.0066,-972.082 48.1626,-970.612"/>
<text text-anchor="middle" x="108.5" y="-900" font-family="Helvetica,sans-Serif" font-size="10.00"> &lt; unsigned char &gt;</text>
</g>
<!-- Node15 -->
<g id="node15" class="node"><title>Node15</title>
<polygon fill="white" stroke="#bfbfbf" points="29,-1158 29,-1215 58,-1215 58,-1158 29,-1158"/>
<text text-anchor="middle" x="43.5" y="-1203" font-family="Helvetica,sans-Serif" font-size="10.00">T</text>
<polyline fill="none" stroke="#bfbfbf" points="29,-1196 58,-1196 "/>
<text text-anchor="middle" x="43.5" y="-1184" font-family="Helvetica,sans-Serif" font-size="10.00"> </text>
<polyline fill="none" stroke="#bfbfbf" points="29,-1177 58,-1177 "/>
<text text-anchor="middle" x="43.5" y="-1165" font-family="Helvetica,sans-Serif" font-size="10.00"> </text>
</g>
<!-- Node15&#45;&gt;Node14 -->
<g id="edge15" class="edge"><title>Node15&#45;&gt;Node14</title>
<path fill="none" stroke="#404040" d="M43.5,-1157.85C43.5,-1129 43.5,-1083.51 43.5,-1050.8"/>
<polygon fill="none" stroke="#404040" points="43.5001,-1050.52 39.5,-1044.52 43.5,-1038.52 47.5,-1044.52 43.5001,-1050.52"/>
<text text-anchor="middle" x="68" y="-1115" font-family="Helvetica,sans-Serif" font-size="10.00"> +elements</text>
</g>
<!-- Node16 -->
<g id="node16" class="node"><title>Node16</title>
<g id="a_node16"><a xlink:title="STL class. ">
<polygon fill="white" stroke="#bfbfbf" points="393,-728 393,-785 462,-785 462,-728 393,-728"/>
<text text-anchor="middle" x="427.5" y="-773" font-family="Helvetica,sans-Serif" font-size="10.00">std::fstream</text>
<polyline fill="none" stroke="#bfbfbf" points="393,-766 462,-766 "/>
<text text-anchor="middle" x="427.5" y="-754" font-family="Helvetica,sans-Serif" font-size="10.00"> </text>
<polyline fill="none" stroke="#bfbfbf" points="393,-747 462,-747 "/>
<text text-anchor="middle" x="427.5" y="-735" font-family="Helvetica,sans-Serif" font-size="10.00"> </text>
</a>
</g>
</g>
<!-- Node16&#45;&gt;Node1 -->
<g id="edge16" class="edge"><title>Node16&#45;&gt;Node1</title>
<path fill="none" stroke="#404040" d="M422.119,-727.84C416.03,-701.76 404.162,-662.525 383.5,-634 363.629,-606.567 346.675,-611.705 323.5,-587 322.054,-585.459 320.615,-583.892 319.183,-582.302"/>
<polygon fill="none" stroke="#404040" points="318.941,-582.024 311.986,-580.12 311.068,-572.967 318.023,-574.871 318.941,-582.024"/>
<text text-anchor="middle" x="386" y="-608" font-family="Helvetica,sans-Serif" font-size="10.00"> #m_SEN</text>
</g>
<!-- Node17 -->
<g id="node17" class="node"><title>Node17</title>
<g id="a_node17"><a xlink:title="STL class. ">
<polygon fill="white" stroke="#bfbfbf" points="378.5,-976 378.5,-1044 476.5,-1044 476.5,-976 378.5,-976"/>
<text text-anchor="start" x="386.5" y="-1032" font-family="Helvetica,sans-Serif" font-size="10.00">std::basic_fstream</text>
<text text-anchor="middle" x="427.5" y="-1021" font-family="Helvetica,sans-Serif" font-size="10.00">&lt; char &gt;</text>
<polyline fill="none" stroke="#bfbfbf" points="378.5,-1014 476.5,-1014 "/>
<text text-anchor="middle" x="427.5" y="-1002" font-family="Helvetica,sans-Serif" font-size="10.00"> </text>
<polyline fill="none" stroke="#bfbfbf" points="378.5,-995 476.5,-995 "/>
<text text-anchor="middle" x="427.5" y="-983" font-family="Helvetica,sans-Serif" font-size="10.00"> </text>
</a>
</g>
</g>
<!-- Node17&#45;&gt;Node16 -->
<g id="edge17" class="edge"><title>Node17&#45;&gt;Node16</title>
<path fill="none" stroke="midnightblue" d="M427.5,-965.668C427.5,-913.936 427.5,-828.948 427.5,-785.292"/>
<polygon fill="none" stroke="midnightblue" points="424,-965.862 427.5,-975.862 431,-965.862 424,-965.862"/>
</g>
<!-- Node18 -->
<g id="node18" class="node"><title>Node18</title>
<g id="a_node18"><a xlink:title="STL class. ">
<polygon fill="white" stroke="#bfbfbf" points="377.5,-1152.5 377.5,-1220.5 479.5,-1220.5 479.5,-1152.5 377.5,-1152.5"/>
<text text-anchor="start" x="385.5" y="-1208.5" font-family="Helvetica,sans-Serif" font-size="10.00">std::basic_iostream</text>
<text text-anchor="middle" x="428.5" y="-1197.5" font-family="Helvetica,sans-Serif" font-size="10.00">&lt; Char &gt;</text>
<polyline fill="none" stroke="#bfbfbf" points="377.5,-1190.5 479.5,-1190.5 "/>
<text text-anchor="middle" x="428.5" y="-1178.5" font-family="Helvetica,sans-Serif" font-size="10.00"> </text>
<polyline fill="none" stroke="#bfbfbf" points="377.5,-1171.5 479.5,-1171.5 "/>
<text text-anchor="middle" x="428.5" y="-1159.5" font-family="Helvetica,sans-Serif" font-size="10.00"> </text>
</a>
</g>
</g>
<!-- Node18&#45;&gt;Node17 -->
<g id="edge18" class="edge"><title>Node18&#45;&gt;Node17</title>
<path fill="none" stroke="midnightblue" d="M428.251,-1141.98C428.077,-1111.66 427.849,-1071.85 427.69,-1044.11"/>
<polygon fill="none" stroke="midnightblue" points="424.752,-1142.29 428.31,-1152.27 431.752,-1142.25 424.752,-1142.29"/>
</g>
<!-- Node19 -->
<g id="node19" class="node"><title>Node19</title>
<g id="a_node19"><a xlink:title="STL class. ">
<polygon fill="white" stroke="#bfbfbf" points="358,-1323.5 358,-1391.5 455,-1391.5 455,-1323.5 358,-1323.5"/>
<text text-anchor="start" x="366" y="-1379.5" font-family="Helvetica,sans-Serif" font-size="10.00">std::basic_istream</text>
<text text-anchor="middle" x="406.5" y="-1368.5" font-family="Helvetica,sans-Serif" font-size="10.00">&lt; Char &gt;</text>
<polyline fill="none" stroke="#bfbfbf" points="358,-1361.5 455,-1361.5 "/>
<text text-anchor="middle" x="406.5" y="-1349.5" font-family="Helvetica,sans-Serif" font-size="10.00"> </text>
<polyline fill="none" stroke="#bfbfbf" points="358,-1342.5 455,-1342.5 "/>
<text text-anchor="middle" x="406.5" y="-1330.5" font-family="Helvetica,sans-Serif" font-size="10.00"> </text>
</a>
</g>
</g>
<!-- Node19&#45;&gt;Node18 -->
<g id="edge19" class="edge"><title>Node19&#45;&gt;Node18</title>
<path fill="none" stroke="midnightblue" d="M412.175,-1312.91C415.926,-1284.09 420.766,-1246.91 424.2,-1220.53"/>
<polygon fill="none" stroke="midnightblue" points="408.667,-1312.74 410.846,-1323.11 415.608,-1313.65 408.667,-1312.74"/>
</g>
<!-- Node20 -->
<g id="node20" class="node"><title>Node20</title>
<g id="a_node20"><a xlink:title="STL class. ">
<polygon fill="white" stroke="#bfbfbf" points="371.5,-1435 371.5,-1492 487.5,-1492 487.5,-1435 371.5,-1435"/>
<text text-anchor="middle" x="429.5" y="-1480" font-family="Helvetica,sans-Serif" font-size="10.00">std::basic_ios&lt; Char &gt;</text>
<polyline fill="none" stroke="#bfbfbf" points="371.5,-1473 487.5,-1473 "/>
<text text-anchor="middle" x="429.5" y="-1461" font-family="Helvetica,sans-Serif" font-size="10.00"> </text>
<polyline fill="none" stroke="#bfbfbf" points="371.5,-1454 487.5,-1454 "/>
<text text-anchor="middle" x="429.5" y="-1442" font-family="Helvetica,sans-Serif" font-size="10.00"> </text>
</a>
</g>
</g>
<!-- Node20&#45;&gt;Node19 -->
<g id="edge20" class="edge"><title>Node20&#45;&gt;Node19</title>
<path fill="none" stroke="midnightblue" d="M421.178,-1424.87C418.785,-1414.05 416.193,-1402.33 413.862,-1391.79"/>
<polygon fill="none" stroke="midnightblue" points="417.82,-1425.89 423.397,-1434.9 424.655,-1424.38 417.82,-1425.89"/>
</g>
<!-- Node22 -->
<g id="node22" class="node"><title>Node22</title>
<g id="a_node22"><a xlink:title="STL class. ">
<polygon fill="white" stroke="#bfbfbf" points="473.5,-1323.5 473.5,-1391.5 573.5,-1391.5 573.5,-1323.5 473.5,-1323.5"/>
<text text-anchor="start" x="481.5" y="-1379.5" font-family="Helvetica,sans-Serif" font-size="10.00">std::basic_ostream</text>
<text text-anchor="middle" x="523.5" y="-1368.5" font-family="Helvetica,sans-Serif" font-size="10.00">&lt; Char &gt;</text>
<polyline fill="none" stroke="#bfbfbf" points="473.5,-1361.5 573.5,-1361.5 "/>
<text text-anchor="middle" x="523.5" y="-1349.5" font-family="Helvetica,sans-Serif" font-size="10.00"> </text>
<polyline fill="none" stroke="#bfbfbf" points="473.5,-1342.5 573.5,-1342.5 "/>
<text text-anchor="middle" x="523.5" y="-1330.5" font-family="Helvetica,sans-Serif" font-size="10.00"> </text>
</a>
</g>
</g>
<!-- Node20&#45;&gt;Node22 -->
<g id="edge23" class="edge"><title>Node20&#45;&gt;Node22</title>
<path fill="none" stroke="midnightblue" d="M461.406,-1427.2C471.756,-1415.75 483.199,-1403.09 493.412,-1391.79"/>
<polygon fill="none" stroke="midnightblue" points="458.552,-1425.14 454.443,-1434.9 463.745,-1429.83 458.552,-1425.14"/>
</g>
<!-- Node21 -->
<g id="node21" class="node"><title>Node21</title>
<g id="a_node21"><a xlink:title="STL class. ">
<polygon fill="white" stroke="#bfbfbf" points="392,-1535.5 392,-1592.5 467,-1592.5 467,-1535.5 392,-1535.5"/>
<text text-anchor="middle" x="429.5" y="-1580.5" font-family="Helvetica,sans-Serif" font-size="10.00">std::ios_base</text>
<polyline fill="none" stroke="#bfbfbf" points="392,-1573.5 467,-1573.5 "/>
<text text-anchor="middle" x="429.5" y="-1561.5" font-family="Helvetica,sans-Serif" font-size="10.00"> </text>
<polyline fill="none" stroke="#bfbfbf" points="392,-1554.5 467,-1554.5 "/>
<text text-anchor="middle" x="429.5" y="-1542.5" font-family="Helvetica,sans-Serif" font-size="10.00"> </text>
</a>
</g>
</g>
<!-- Node21&#45;&gt;Node20 -->
<g id="edge21" class="edge"><title>Node21&#45;&gt;Node20</title>
<path fill="none" stroke="midnightblue" d="M429.5,-1525.15C429.5,-1514.23 429.5,-1502.52 429.5,-1492.33"/>
<polygon fill="none" stroke="midnightblue" points="426,-1525.3 429.5,-1535.3 433,-1525.3 426,-1525.3"/>
</g>
<!-- Node22&#45;&gt;Node18 -->
<g id="edge22" class="edge"><title>Node22&#45;&gt;Node18</title>
<path fill="none" stroke="midnightblue" d="M499.633,-1314.04C483.348,-1285.07 462.09,-1247.25 447.068,-1220.53"/>
<polygon fill="none" stroke="midnightblue" points="496.78,-1316.11 504.731,-1323.11 502.882,-1312.68 496.78,-1316.11"/>
</g>
<!-- Node23&#45;&gt;Node1 -->
<g id="edge24" class="edge"><title>Node23&#45;&gt;Node1</title>
<path fill="none" stroke="#404040" d="M113.04,-722.463C127.436,-691.858 149.853,-644.203 171.656,-597.853"/>
<polygon fill="none" stroke="#404040" points="171.775,-597.599 170.709,-590.467 176.883,-586.74 177.949,-593.872 171.775,-597.599"/>
<text text-anchor="middle" x="183" y="-608" font-family="Helvetica,sans-Serif" font-size="10.00"> #rxbuf</text>
</g>
<!-- Node24 -->
<g id="node24" class="node"><title>Node24</title>
<g id="a_node24"><a xlink:title="STL class. ">
<polygon fill="white" stroke="#bfbfbf" points="171,-728 171,-785 234,-785 234,-728 171,-728"/>
<text text-anchor="middle" x="202.5" y="-773" font-family="Helvetica,sans-Serif" font-size="10.00">std::thread</text>
<polyline fill="none" stroke="#bfbfbf" points="171,-766 234,-766 "/>
<text text-anchor="middle" x="202.5" y="-754" font-family="Helvetica,sans-Serif" font-size="10.00"> </text>
<polyline fill="none" stroke="#bfbfbf" points="171,-747 234,-747 "/>
<text text-anchor="middle" x="202.5" y="-735" font-family="Helvetica,sans-Serif" font-size="10.00"> </text>
</a>
</g>
</g>
<!-- Node24&#45;&gt;Node1 -->
<g id="edge26" class="edge"><title>Node24&#45;&gt;Node1</title>
<path fill="none" stroke="#404040" d="M205.668,-727.965C209.118,-697.985 214.897,-647.753 220.526,-598.83"/>
<polygon fill="none" stroke="#404040" points="220.542,-598.689 217.255,-592.271 221.914,-586.767 225.202,-593.185 220.542,-598.689"/>
<text text-anchor="middle" x="243" y="-608" font-family="Helvetica,sans-Serif" font-size="10.00"> #rxThread</text>
</g>
</g>
</svg>
        <g id="navigator" transform="translate(0 0)" fill="#404254">
                <rect fill="#f2f5e9" fill-opacity="0.5" stroke="#606060" stroke-width=".5" x="0" y="0" width="60" height="60"/>
                <use id="zoomplus" xlink:href="#zoomPlus" x="17" y="9" onmousedown="handleZoom(evt,'in')"/>
                <use id="zoomminus" xlink:href="#zoomMin" x="42" y="9" onmousedown="handleZoom(evt,'out')"/>
                <use id="reset" xlink:href="#resetDef" x="30" y="36" onmousedown="handleReset()"/>
                <g id="arrowUp" xlink:href="#dirArrow" transform="translate(30 24)" onmousedown="handlePan(0,-1)">
                  <use xlink:href="#rim" fill="#404040">
                        <set attributeName="fill" to="#808080" begin="arrowUp.mouseover" end="arrowUp.mouseout"/>
                  </use>
                  <path fill="none" stroke="white" stroke-width="1.5" d="M0,-3.0v7 M-2.5,-0.5L0,-3.0L2.5,-0.5"/>
                </g>
                <g id="arrowRight" xlink:href="#dirArrow" transform="rotate(90) translate(36 -43)" onmousedown="handlePan(1,0)">
                  <use xlink:href="#rim" fill="#404040">
                        <set attributeName="fill" to="#808080" begin="arrowRight.mouseover" end="arrowRight.mouseout"/>
                  </use>
                  <path fill="none" stroke="white" stroke-width="1.5" d="M0,-3.0v7 M-2.5,-0.5L0,-3.0L2.5,-0.5"/>
                </g>
                <g id="arrowDown" xlink:href="#dirArrow" transform="rotate(180) translate(-30 -48)" onmousedown="handlePan(0,1)">
                  <use xlink:href="#rim" fill="#404040">
                        <set attributeName="fill" to="#808080" begin="arrowDown.mouseover" end="arrowDown.mouseout"/>
                  </use>
                  <path fill="none" stroke="white" stroke-width="1.5" d="M0,-3.0v7 M-2.5,-0.5L0,-3.0L2.5,-0.5"/>
                </g>
                <g id="arrowLeft" xlink:href="#dirArrow" transform="rotate(270) translate(-36 17)" onmousedown="handlePan(-1,0)">
                  <use xlink:href="#rim" fill="#404040">
                        <set attributeName="fill" to="#808080" begin="arrowLeft.mouseover" end="arrowLeft.mouseout"/>
                  </use>
                  <path fill="none" stroke="white" stroke-width="1.5" d="M0,-3.0v7 M-2.5,-0.5L0,-3.0L2.5,-0.5"/>
                </g>
        </g>
        <svg viewBox="0 0 15 15" width="100%" height="30px" preserveAspectRatio="xMaxYMin meet">
         <g id="arrow_out" transform="scale(0.3 0.3)">
          <a xlink:href="classlime_1_1ConnectionNovenaRF7__coll__graph_org.svg" target="_base">
           <rect id="button" ry="5" rx="5" y="6" x="6" height="38" width="38"
                fill="#f2f5e9" fill-opacity="0.5" stroke="#606060" stroke-width="1.0"/>
           <path id="arrow"
             d="M 11.500037,31.436501 C 11.940474,20.09759 22.043105,11.32322 32.158766,21.979434 L 37.068811,17.246167 C 37.068811,17.246167 37.088388,32 37.088388,32 L 22.160133,31.978069 C 22.160133,31.978069 26.997745,27.140456 26.997745,27.140456 C 18.528582,18.264221 13.291696,25.230495 11.500037,31.436501 z"
             style="fill:#404040;"/>
          </a>
         </g>
        </svg>
</svg>
