<?xml version="1.0" encoding="UTF-8" standalone="no"?>
<!DOCTYPE svg PUBLIC "-//W3C//DTD SVG 1.1//EN"
 "http://www.w3.org/Graphics/SVG/1.1/DTD/svg11.dtd">
<!-- Generated by graphviz version 2.38.0 (20140413.2041)
 -->
<!-- Title: lms7002_pnlSX_view::ParameterChangeHandler Pages: 1 -->
<svg width="866pt" height="598pt"
 viewBox="0.00 0.00 866.00 598.00" xmlns="http://www.w3.org/2000/svg" xmlns:xlink="http://www.w3.org/1999/xlink">
<g id="graph0" class="graph" transform="scale(1 1) rotate(0) translate(4 594)">
<title>lms7002_pnlSX_view::ParameterChangeHandler</title>
<polygon fill="white" stroke="none" points="-4,4 -4,-594 862,-594 862,4 -4,4"/>
<!-- Node1 -->
<g id="node1" class="node"><title>Node1</title>
<polygon fill="#bfbfbf" stroke="black" points="0,-241 0,-271 135,-271 135,-241 0,-241"/>
<text text-anchor="start" x="8" y="-259" font-family="Helvetica,sans-Serif" font-size="10.00">lms7002_pnlSX_view</text>
<text text-anchor="middle" x="67.5" y="-248" font-family="Helvetica,sans-Serif" font-size="10.00">::ParameterChangeHandler</text>
</g>
<!-- Node2 -->
<g id="node2" class="node"><title>Node2</title>
<g id="a_node2"><a xlink:href="../../df/de1/lms7__api_8cpp.html#a29da2b25b3336c31d75b70bb4eb32673" target="_top" xlink:title="LMS_WriteParam">
<polygon fill="white" stroke="black" points="335,-267.5 335,-286.5 429,-286.5 429,-267.5 335,-267.5"/>
<text text-anchor="middle" x="382" y="-274.5" font-family="Helvetica,sans-Serif" font-size="10.00">LMS_WriteParam</text>
</a>
</g>
</g>
<!-- Node1&#45;&gt;Node2 -->
<g id="edge1" class="edge"><title>Node1&#45;&gt;Node2</title>
<path fill="none" stroke="midnightblue" d="M135.156,-260.479C191.453,-264.262 271.186,-269.621 324.422,-273.198"/>
<polygon fill="midnightblue" stroke="midnightblue" points="324.489,-276.71 334.701,-273.889 324.958,-269.726 324.489,-276.71"/>
</g>
<!-- Node26 -->
<g id="node26" class="node"><title>Node26</title>
<g id="a_node26"><a xlink:href="../../d5/d03/classlms7002__pnlSX__view.html#a40e1aa4525e0cb001d73944f49ea1ce6" target="_top" xlink:title="lms7002_pnlSX_view\l::OnbtnReadComparators">
<polygon fill="white" stroke="black" points="171,-219 171,-249 299,-249 299,-219 171,-219"/>
<text text-anchor="start" x="179" y="-237" font-family="Helvetica,sans-Serif" font-size="10.00">lms7002_pnlSX_view</text>
<text text-anchor="middle" x="235" y="-226" font-family="Helvetica,sans-Serif" font-size="10.00">::OnbtnReadComparators</text>
</a>
</g>
</g>
<!-- Node1&#45;&gt;Node26 -->
<g id="edge28" class="edge"><title>Node1&#45;&gt;Node26</title>
<path fill="none" stroke="midnightblue" d="M135.338,-247.115C143.785,-245.992 152.462,-244.839 160.998,-243.704"/>
<polygon fill="midnightblue" stroke="midnightblue" points="161.481,-247.171 170.933,-242.384 160.559,-240.232 161.481,-247.171"/>
</g>
<!-- Node3 -->
<g id="node3" class="node"><title>Node3</title>
<g id="a_node3"><a xlink:href="../../d4/d67/lms_8c.html#a0e01e477b1f10e0a63e54de2dd2f8240" target="_top" xlink:title="lms">
<polygon fill="white" stroke="black" points="503,-266.5 503,-285.5 535,-285.5 535,-266.5 503,-266.5"/>
<text text-anchor="middle" x="519" y="-273.5" font-family="Helvetica,sans-Serif" font-size="10.00">lms</text>
</a>
</g>
</g>
<!-- Node2&#45;&gt;Node3 -->
<g id="edge2" class="edge"><title>Node2&#45;&gt;Node3</title>
<path fill="none" stroke="midnightblue" d="M429.082,-276.659C450.336,-276.501 474.75,-276.32 492.612,-276.188"/>
<polygon fill="midnightblue" stroke="midnightblue" points="492.827,-279.687 502.801,-276.113 492.775,-272.687 492.827,-279.687"/>
</g>
<!-- Node23 -->
<g id="node23" class="node"><title>Node23</title>
<g id="a_node23"><a xlink:href="../../d5/d6c/namespacelime.html#adc6af0cf8e0a70f3ef09fac1244f8c48" target="_top" xlink:title="lime::ReportError">
<polygon fill="white" stroke="black" points="473.5,-228.5 473.5,-247.5 564.5,-247.5 564.5,-228.5 473.5,-228.5"/>
<text text-anchor="middle" x="519" y="-235.5" font-family="Helvetica,sans-Serif" font-size="10.00">lime::ReportError</text>
</a>
</g>
</g>
<!-- Node2&#45;&gt;Node23 -->
<g id="edge25" class="edge"><title>Node2&#45;&gt;Node23</title>
<path fill="none" stroke="midnightblue" d="M416.025,-267.46C433.839,-262.313 456.034,-255.901 475.163,-250.375"/>
<polygon fill="midnightblue" stroke="midnightblue" points="476.213,-253.715 484.848,-247.577 474.27,-246.99 476.213,-253.715"/>
</g>
<!-- Node25 -->
<g id="node25" class="node"><title>Node25</title>
<g id="a_node25"><a xlink:href="../../d3/d22/classlime_1_1LMS7__Device.html#a874b61636f61cb998f9d01a69ba9991a" target="_top" xlink:title="lime::LMS7_Device::\lWriteParam">
<polygon fill="white" stroke="black" points="465,-305 465,-335 573,-335 573,-305 465,-305"/>
<text text-anchor="start" x="473" y="-323" font-family="Helvetica,sans-Serif" font-size="10.00">lime::LMS7_Device::</text>
<text text-anchor="middle" x="519" y="-312" font-family="Helvetica,sans-Serif" font-size="10.00">WriteParam</text>
</a>
</g>
</g>
<!-- Node2&#45;&gt;Node25 -->
<g id="edge27" class="edge"><title>Node2&#45;&gt;Node25</title>
<path fill="none" stroke="midnightblue" d="M412.961,-286.543C427.182,-291.073 444.662,-296.641 461.253,-301.925"/>
<polygon fill="midnightblue" stroke="midnightblue" points="460.297,-305.294 470.887,-304.994 462.421,-298.624 460.297,-305.294"/>
</g>
<!-- Node4 -->
<g id="node4" class="node"><title>Node4</title>
<g id="a_node4"><a xlink:href="../../d4/d67/lms_8c.html#a433227191fe883dcb8aa15d291bb29a1" target="_top" xlink:title="Case1F">
<polygon fill="white" stroke="black" points="617.5,-418.5 617.5,-437.5 668.5,-437.5 668.5,-418.5 617.5,-418.5"/>
<text text-anchor="middle" x="643" y="-425.5" font-family="Helvetica,sans-Serif" font-size="10.00">Case1F</text>
</a>
</g>
</g>
<!-- Node3&#45;&gt;Node4 -->
<g id="edge3" class="edge"><title>Node3&#45;&gt;Node4</title>
<path fill="none" stroke="midnightblue" d="M535.466,-277.814C547.257,-279.983 563.104,-284.717 573,-295 609.844,-333.284 575.709,-367.59 609,-409 609.932,-410.159 610.955,-411.262 612.046,-412.308"/>
<polygon fill="midnightblue" stroke="midnightblue" points="609.924,-415.091 619.985,-418.413 614.191,-409.542 609.924,-415.091"/>
</g>
<!-- Node5 -->
<g id="node5" class="node"><title>Node5</title>
<g id="a_node5"><a xlink:href="../../d4/d67/lms_8c.html#ace0cd8bf61cb9b86b98f0cef03b5a9d9" target="_top" xlink:title="Case2F">
<polygon fill="white" stroke="black" points="617.5,-380.5 617.5,-399.5 668.5,-399.5 668.5,-380.5 617.5,-380.5"/>
<text text-anchor="middle" x="643" y="-387.5" font-family="Helvetica,sans-Serif" font-size="10.00">Case2F</text>
</a>
</g>
</g>
<!-- Node3&#45;&gt;Node5 -->
<g id="edge4" class="edge"><title>Node3&#45;&gt;Node5</title>
<path fill="none" stroke="midnightblue" d="M535.09,-278.201C546.674,-280.584 562.426,-285.416 573,-295 600.693,-320.1 583.65,-343.535 609,-371 610.037,-372.123 611.156,-373.199 612.333,-374.226"/>
<polygon fill="midnightblue" stroke="midnightblue" points="610.558,-377.262 620.709,-380.296 614.666,-371.594 610.558,-377.262"/>
</g>
<!-- Node6 -->
<g id="node6" class="node"><title>Node6</title>
<g id="a_node6"><a xlink:href="../../d4/d67/lms_8c.html#a5f53b53ccc591e3643c4af2aee2e7f32" target="_top" xlink:title="Case3F">
<polygon fill="white" stroke="black" points="617.5,-342.5 617.5,-361.5 668.5,-361.5 668.5,-342.5 617.5,-342.5"/>
<text text-anchor="middle" x="643" y="-349.5" font-family="Helvetica,sans-Serif" font-size="10.00">Case3F</text>
</a>
</g>
</g>
<!-- Node3&#45;&gt;Node6 -->
<g id="edge5" class="edge"><title>Node3&#45;&gt;Node6</title>
<path fill="none" stroke="midnightblue" d="M535.255,-279.434C546.341,-282.397 561.377,-287.413 573,-295 592.481,-307.717 590.727,-318.6 609,-333 610.772,-334.396 612.658,-335.758 614.596,-337.069"/>
<polygon fill="midnightblue" stroke="midnightblue" points="612.895,-340.134 623.234,-342.449 616.596,-334.192 612.895,-340.134"/>
</g>
<!-- Node7 -->
<g id="node7" class="node"><title>Node7</title>
<g id="a_node7"><a xlink:href="../../d4/d67/lms_8c.html#a5086763d5b258349bc13d6be7e7d0665" target="_top" xlink:title="Case4F">
<polygon fill="white" stroke="black" points="617.5,-304.5 617.5,-323.5 668.5,-323.5 668.5,-304.5 617.5,-304.5"/>
<text text-anchor="middle" x="643" y="-311.5" font-family="Helvetica,sans-Serif" font-size="10.00">Case4F</text>
</a>
</g>
</g>
<!-- Node3&#45;&gt;Node7 -->
<g id="edge6" class="edge"><title>Node3&#45;&gt;Node7</title>
<path fill="none" stroke="midnightblue" d="M535.451,-280.813C553.517,-286.44 583.965,-295.923 607.697,-303.315"/>
<polygon fill="midnightblue" stroke="midnightblue" points="606.812,-306.706 617.401,-306.338 608.894,-300.022 606.812,-306.706"/>
</g>
<!-- Node8 -->
<g id="node8" class="node"><title>Node8</title>
<g id="a_node8"><a xlink:href="../../db/de5/recipes_8c.html#aee25e218394217a134e805ea09fb0fe9" target="_top" xlink:title="free_ivector">
<polygon fill="white" stroke="black" points="609,-266.5 609,-285.5 677,-285.5 677,-266.5 609,-266.5"/>
<text text-anchor="middle" x="643" y="-273.5" font-family="Helvetica,sans-Serif" font-size="10.00">free_ivector</text>
</a>
</g>
</g>
<!-- Node3&#45;&gt;Node8 -->
<g id="edge7" class="edge"><title>Node3&#45;&gt;Node8</title>
<path fill="none" stroke="midnightblue" d="M535.451,-276C551.282,-276 576.622,-276 598.618,-276"/>
<polygon fill="midnightblue" stroke="midnightblue" points="598.766,-279.5 608.766,-276 598.766,-272.5 598.766,-279.5"/>
</g>
<!-- Node9 -->
<g id="node9" class="node"><title>Node9</title>
<g id="a_node9"><a xlink:href="../../db/de5/recipes_8c.html#a3e0d121b098c19c0bdc2429e5b9f1625" target="_top" xlink:title="free_matrix">
<polygon fill="white" stroke="black" points="610.5,-228.5 610.5,-247.5 675.5,-247.5 675.5,-228.5 610.5,-228.5"/>
<text text-anchor="middle" x="643" y="-235.5" font-family="Helvetica,sans-Serif" font-size="10.00">free_matrix</text>
</a>
</g>
</g>
<!-- Node3&#45;&gt;Node9 -->
<g id="edge8" class="edge"><title>Node3&#45;&gt;Node9</title>
<path fill="none" stroke="midnightblue" d="M535.451,-271.187C551.984,-266.038 578.887,-257.658 601.523,-250.608"/>
<polygon fill="midnightblue" stroke="midnightblue" points="602.737,-253.895 611.244,-247.58 600.655,-247.212 602.737,-253.895"/>
</g>
<!-- Node10 -->
<g id="node10" class="node"><title>Node10</title>
<g id="a_node10"><a xlink:href="../../db/de5/recipes_8c.html#a8214a52d888e820222c0382648329c0c" target="_top" xlink:title="free_vector">
<polygon fill="white" stroke="black" points="713,-190.5 713,-209.5 778,-209.5 778,-190.5 713,-190.5"/>
<text text-anchor="middle" x="745.5" y="-197.5" font-family="Helvetica,sans-Serif" font-size="10.00">free_vector</text>
</a>
</g>
</g>
<!-- Node3&#45;&gt;Node10 -->
<g id="edge9" class="edge"><title>Node3&#45;&gt;Node10</title>
<path fill="none" stroke="midnightblue" d="M535.255,-272.566C546.341,-269.603 561.377,-264.587 573,-257 592.481,-244.283 588.32,-229.658 609,-219 637.927,-204.092 674.699,-199.698 702.635,-198.835"/>
<polygon fill="midnightblue" stroke="midnightblue" points="702.934,-202.331 712.874,-198.663 702.816,-195.332 702.934,-202.331"/>
</g>
<!-- Node11 -->
<g id="node11" class="node"><title>Node11</title>
<g id="a_node11"><a xlink:href="../../d4/d67/lms_8c.html#ad1d6c875ff429888b51dd1155f0311ad" target="_top" xlink:title="ivector">
<polygon fill="white" stroke="black" points="620,-114.5 620,-133.5 666,-133.5 666,-114.5 620,-114.5"/>
<text text-anchor="middle" x="643" y="-121.5" font-family="Helvetica,sans-Serif" font-size="10.00">ivector</text>
</a>
</g>
</g>
<!-- Node3&#45;&gt;Node11 -->
<g id="edge10" class="edge"><title>Node3&#45;&gt;Node11</title>
<path fill="none" stroke="midnightblue" d="M535.466,-274.186C547.257,-272.017 563.104,-267.283 573,-257 609.844,-218.716 575.709,-184.41 609,-143 609.932,-141.841 610.955,-140.738 612.046,-139.692"/>
<polygon fill="midnightblue" stroke="midnightblue" points="614.191,-142.458 619.985,-133.587 609.924,-136.909 614.191,-142.458"/>
</g>
<!-- Node12 -->
<g id="node12" class="node"><title>Node12</title>
<g id="a_node12"><a xlink:href="../../db/de5/recipes_8c.html#a66ff65ad0355ec1f4a7722bcdafc8cd3" target="_top" xlink:title="lubksb">
<polygon fill="white" stroke="black" points="620.5,-76.5 620.5,-95.5 665.5,-95.5 665.5,-76.5 620.5,-76.5"/>
<text text-anchor="middle" x="643" y="-83.5" font-family="Helvetica,sans-Serif" font-size="10.00">lubksb</text>
</a>
</g>
</g>
<!-- Node3&#45;&gt;Node12 -->
<g id="edge11" class="edge"><title>Node3&#45;&gt;Node12</title>
<path fill="none" stroke="midnightblue" d="M535.191,-274.467C547.15,-272.45 563.357,-267.784 573,-257 619.275,-205.247 567.514,-160.665 609,-105 610.032,-103.615 611.197,-102.315 612.457,-101.097"/>
<polygon fill="midnightblue" stroke="midnightblue" points="614.626,-103.845 620.451,-94.9956 610.379,-98.2806 614.626,-103.845"/>
</g>
<!-- Node13 -->
<g id="node13" class="node"><title>Node13</title>
<g id="a_node13"><a xlink:href="../../db/de5/recipes_8c.html#a623fec796d9d53e5e4a4d30226547da7" target="_top" xlink:title="ludcmp">
<polygon fill="white" stroke="black" points="619,-152.5 619,-171.5 667,-171.5 667,-152.5 619,-152.5"/>
<text text-anchor="middle" x="643" y="-159.5" font-family="Helvetica,sans-Serif" font-size="10.00">ludcmp</text>
</a>
</g>
</g>
<!-- Node3&#45;&gt;Node13 -->
<g id="edge12" class="edge"><title>Node3&#45;&gt;Node13</title>
<path fill="none" stroke="midnightblue" d="M535.019,-273.72C546.564,-271.293 562.298,-266.441 573,-257 599.532,-233.595 586.055,-212.931 609,-186 611.489,-183.078 614.404,-180.318 617.451,-177.782"/>
<polygon fill="midnightblue" stroke="midnightblue" points="619.738,-180.441 625.629,-171.635 615.532,-174.845 619.738,-180.441"/>
</g>
<!-- Node16 -->
<g id="node16" class="node"><title>Node16</title>
<g id="a_node16"><a xlink:href="../../d4/d67/lms_8c.html#a37bcb1539d76b53344102435e2ab9c91" target="_top" xlink:title="matrix">
<polygon fill="white" stroke="black" points="621,-38.5 621,-57.5 665,-57.5 665,-38.5 621,-38.5"/>
<text text-anchor="middle" x="643" y="-45.5" font-family="Helvetica,sans-Serif" font-size="10.00">matrix</text>
</a>
</g>
</g>
<!-- Node3&#45;&gt;Node16 -->
<g id="edge17" class="edge"><title>Node3&#45;&gt;Node16</title>
<path fill="none" stroke="midnightblue" d="M535.323,-274.582C547.358,-272.632 563.604,-268 573,-257 628.822,-191.649 559.214,-137.059 609,-67 610.149,-65.3834 611.482,-63.8847 612.939,-62.4985"/>
<polygon fill="midnightblue" stroke="midnightblue" points="615.08,-65.2683 620.998,-56.4803 610.891,-59.6598 615.08,-65.2683"/>
</g>
<!-- Node17 -->
<g id="node17" class="node"><title>Node17</title>
<g id="a_node17"><a xlink:href="../../d8/d91/rounding_8c.html#aa8d7512cdf5bfbf811cef6a8a091c679" target="_top" xlink:title="round2csd">
<polygon fill="white" stroke="black" points="612,-532.5 612,-551.5 674,-551.5 674,-532.5 612,-532.5"/>
<text text-anchor="middle" x="643" y="-539.5" font-family="Helvetica,sans-Serif" font-size="10.00">round2csd</text>
</a>
</g>
</g>
<!-- Node3&#45;&gt;Node17 -->
<g id="edge18" class="edge"><title>Node3&#45;&gt;Node17</title>
<path fill="none" stroke="midnightblue" d="M535.413,-277.342C547.501,-279.248 563.774,-283.857 573,-295 638.427,-374.017 550.863,-438.475 609,-523 609.637,-523.926 610.335,-524.813 611.083,-525.661"/>
<polygon fill="midnightblue" stroke="midnightblue" points="608.99,-528.477 618.87,-532.302 613.532,-523.15 608.99,-528.477"/>
</g>
<!-- Node21 -->
<g id="node21" class="node"><title>Node21</title>
<g id="a_node21"><a xlink:href="../../d8/d91/rounding_8c.html#aca2670cc0fbf948a6b9cb670047c9d5b" target="_top" xlink:title="round2int">
<polygon fill="white" stroke="black" points="615,-494.5 615,-513.5 671,-513.5 671,-494.5 615,-494.5"/>
<text text-anchor="middle" x="643" y="-501.5" font-family="Helvetica,sans-Serif" font-size="10.00">round2int</text>
</a>
</g>
</g>
<!-- Node3&#45;&gt;Node21 -->
<g id="edge22" class="edge"><title>Node3&#45;&gt;Node21</title>
<path fill="none" stroke="midnightblue" d="M535.323,-277.418C547.358,-279.368 563.604,-284 573,-295 628.822,-360.351 559.214,-414.941 609,-485 609.754,-486.061 610.587,-487.071 611.483,-488.032"/>
<polygon fill="midnightblue" stroke="midnightblue" points="609.351,-490.81 619.298,-494.459 613.797,-485.404 609.351,-490.81"/>
</g>
<!-- Node22 -->
<g id="node22" class="node"><title>Node22</title>
<g id="a_node22"><a xlink:href="../../d4/d67/lms_8c.html#ac81ca32708341eb34b25d515d00bc748" target="_top" xlink:title="vector">
<polygon fill="white" stroke="black" points="621,-456.5 621,-475.5 665,-475.5 665,-456.5 621,-456.5"/>
<text text-anchor="middle" x="643" y="-463.5" font-family="Helvetica,sans-Serif" font-size="10.00">vector</text>
</a>
</g>
</g>
<!-- Node3&#45;&gt;Node22 -->
<g id="edge24" class="edge"><title>Node3&#45;&gt;Node22</title>
<path fill="none" stroke="midnightblue" d="M535.191,-277.533C547.15,-279.55 563.357,-284.216 573,-295 619.275,-346.753 567.514,-391.335 609,-447 610.059,-448.421 611.259,-449.753 612.557,-450.999"/>
<polygon fill="midnightblue" stroke="midnightblue" points="610.702,-453.984 620.793,-457.213 614.919,-448.396 610.702,-453.984"/>
</g>
<!-- Node13&#45;&gt;Node10 -->
<g id="edge13" class="edge"><title>Node13&#45;&gt;Node10</title>
<path fill="none" stroke="midnightblue" d="M667.057,-170.718C679.676,-175.489 695.569,-181.499 709.668,-186.83"/>
<polygon fill="midnightblue" stroke="midnightblue" points="708.489,-190.126 719.081,-190.389 710.965,-183.578 708.489,-190.126"/>
</g>
<!-- Node14 -->
<g id="node14" class="node"><title>Node14</title>
<g id="a_node14"><a xlink:href="../../db/de5/recipes_8c.html#a208e98f19b2f252315399d02c0594a46" target="_top" xlink:title="nrerror">
<polygon fill="white" stroke="black" points="814,-133.5 814,-152.5 858,-152.5 858,-133.5 814,-133.5"/>
<text text-anchor="middle" x="836" y="-140.5" font-family="Helvetica,sans-Serif" font-size="10.00">nrerror</text>
</a>
</g>
</g>
<!-- Node13&#45;&gt;Node14 -->
<g id="edge14" class="edge"><title>Node13&#45;&gt;Node14</title>
<path fill="none" stroke="midnightblue" d="M667.039,-159.708C701.23,-156.307 765.482,-149.915 803.842,-146.1"/>
<polygon fill="midnightblue" stroke="midnightblue" points="804.324,-149.569 813.928,-145.096 803.631,-142.603 804.324,-149.569"/>
</g>
<!-- Node15 -->
<g id="node15" class="node"><title>Node15</title>
<g id="a_node15"><a xlink:href="../../db/de5/recipes_8c.html#a5e6092211a5f7e2d6ae9282379d3c604" target="_top" xlink:title="vector">
<polygon fill="white" stroke="black" points="723.5,-114.5 723.5,-133.5 767.5,-133.5 767.5,-114.5 723.5,-114.5"/>
<text text-anchor="middle" x="745.5" y="-121.5" font-family="Helvetica,sans-Serif" font-size="10.00">vector</text>
</a>
</g>
</g>
<!-- Node13&#45;&gt;Node15 -->
<g id="edge15" class="edge"><title>Node13&#45;&gt;Node15</title>
<path fill="none" stroke="midnightblue" d="M667.057,-153.282C680.938,-148.033 698.781,-141.287 713.84,-135.593"/>
<polygon fill="midnightblue" stroke="midnightblue" points="715.149,-138.84 723.265,-132.029 712.674,-132.292 715.149,-138.84"/>
</g>
<!-- Node15&#45;&gt;Node14 -->
<g id="edge16" class="edge"><title>Node15&#45;&gt;Node14</title>
<path fill="none" stroke="midnightblue" d="M767.923,-128.599C778.685,-130.91 791.928,-133.753 803.796,-136.301"/>
<polygon fill="midnightblue" stroke="midnightblue" points="803.262,-139.766 813.774,-138.443 804.731,-132.922 803.262,-139.766"/>
</g>
<!-- Node18 -->
<g id="node18" class="node"><title>Node18</title>
<g id="a_node18"><a xlink:href="../../d8/d91/rounding_8c.html#a2cff6b77e73872659c44b0c99f6bd97f" target="_top" xlink:title="csd2int">
<polygon fill="white" stroke="black" points="721.5,-532.5 721.5,-551.5 769.5,-551.5 769.5,-532.5 721.5,-532.5"/>
<text text-anchor="middle" x="745.5" y="-539.5" font-family="Helvetica,sans-Serif" font-size="10.00">csd2int</text>
</a>
</g>
</g>
<!-- Node17&#45;&gt;Node18 -->
<g id="edge19" class="edge"><title>Node17&#45;&gt;Node18</title>
<path fill="none" stroke="midnightblue" d="M674.153,-542C685.87,-542 699.331,-542 711.321,-542"/>
<polygon fill="midnightblue" stroke="midnightblue" points="711.398,-545.5 721.398,-542 711.398,-538.5 711.398,-545.5"/>
</g>
<!-- Node19 -->
<g id="node19" class="node"><title>Node19</title>
<g id="a_node19"><a xlink:href="../../db/d82/wglew_8h.html#a500a82aecba06f4550f6849b8099ca21" target="_top" xlink:title="int">
<polygon fill="white" stroke="black" points="731,-494.5 731,-513.5 760,-513.5 760,-494.5 731,-494.5"/>
<text text-anchor="middle" x="745.5" y="-501.5" font-family="Helvetica,sans-Serif" font-size="10.00">int</text>
</a>
</g>
</g>
<!-- Node17&#45;&gt;Node19 -->
<g id="edge20" class="edge"><title>Node17&#45;&gt;Node19</title>
<path fill="none" stroke="midnightblue" d="M669.36,-532.411C685.388,-526.351 705.934,-518.582 721.49,-512.7"/>
<polygon fill="midnightblue" stroke="midnightblue" points="722.778,-515.955 730.894,-509.145 720.302,-509.408 722.778,-515.955"/>
</g>
<!-- Node20 -->
<g id="node20" class="node"><title>Node20</title>
<g id="a_node20"><a xlink:href="../../d8/d91/rounding_8c.html#ab3a64ec72c5600bc114621e93309c8c3" target="_top" xlink:title="int2csd">
<polygon fill="white" stroke="black" points="721.5,-570.5 721.5,-589.5 769.5,-589.5 769.5,-570.5 721.5,-570.5"/>
<text text-anchor="middle" x="745.5" y="-577.5" font-family="Helvetica,sans-Serif" font-size="10.00">int2csd</text>
</a>
</g>
</g>
<!-- Node17&#45;&gt;Node20 -->
<g id="edge21" class="edge"><title>Node17&#45;&gt;Node20</title>
<path fill="none" stroke="midnightblue" d="M669.36,-551.589C682.181,-556.437 697.894,-562.378 711.631,-567.572"/>
<polygon fill="midnightblue" stroke="midnightblue" points="710.623,-570.933 721.214,-571.195 713.099,-564.385 710.623,-570.933"/>
</g>
<!-- Node21&#45;&gt;Node19 -->
<g id="edge23" class="edge"><title>Node21&#45;&gt;Node19</title>
<path fill="none" stroke="midnightblue" d="M671.197,-504C686.576,-504 705.634,-504 720.462,-504"/>
<polygon fill="midnightblue" stroke="midnightblue" points="720.846,-507.5 730.846,-504 720.846,-500.5 720.846,-507.5"/>
</g>
<!-- Node24 -->
<g id="node24" class="node"><title>Node24</title>
<g id="a_node24"><a xlink:href="../../d9/df5/Logger_8cpp.html#ada38bf01d6d691de953ed69268ea6516" target="_top" xlink:title="errToStr">
<polygon fill="white" stroke="black" points="617,-0.5 617,-19.5 669,-19.5 669,-0.5 617,-0.5"/>
<text text-anchor="middle" x="643" y="-7.5" font-family="Helvetica,sans-Serif" font-size="10.00">errToStr</text>
</a>
</g>
</g>
<!-- Node23&#45;&gt;Node24 -->
<g id="edge26" class="edge"><title>Node23&#45;&gt;Node24</title>
<path fill="none" stroke="midnightblue" d="M559.484,-228.45C564.601,-225.78 569.329,-222.366 573,-218 628.028,-152.548 559.433,-98.6789 609,-29 609.754,-27.9394 610.588,-26.9296 611.484,-25.969"/>
<polygon fill="midnightblue" stroke="midnightblue" points="613.799,-28.5973 619.301,-19.5432 609.353,-23.1898 613.799,-28.5973"/>
</g>
<!-- Node27 -->
<g id="node27" class="node"><title>Node27</title>
<g id="a_node27"><a xlink:href="../../df/de1/lms7__api_8cpp.html#af7e27adc91d37b2464a10990b1f39c9b" target="_top" xlink:title="LMS_ReadParam">
<polygon fill="white" stroke="black" points="335,-227.5 335,-246.5 429,-246.5 429,-227.5 335,-227.5"/>
<text text-anchor="middle" x="382" y="-234.5" font-family="Helvetica,sans-Serif" font-size="10.00">LMS_ReadParam</text>
</a>
</g>
</g>
<!-- Node26&#45;&gt;Node27 -->
<g id="edge29" class="edge"><title>Node26&#45;&gt;Node27</title>
<path fill="none" stroke="midnightblue" d="M299.177,-235.307C307.548,-235.48 316.088,-235.657 324.34,-235.828"/>
<polygon fill="midnightblue" stroke="midnightblue" points="324.534,-239.332 334.604,-236.04 324.678,-232.334 324.534,-239.332"/>
</g>
<!-- Node27&#45;&gt;Node3 -->
<g id="edge30" class="edge"><title>Node27&#45;&gt;Node3</title>
<path fill="none" stroke="midnightblue" d="M416.025,-246.54C439.772,-253.401 471.301,-262.509 492.981,-268.772"/>
<polygon fill="midnightblue" stroke="midnightblue" points="492.176,-272.183 502.755,-271.596 494.119,-265.458 492.176,-272.183"/>
</g>
<!-- Node27&#45;&gt;Node23 -->
<g id="edge32" class="edge"><title>Node27&#45;&gt;Node23</title>
<path fill="none" stroke="midnightblue" d="M429.082,-237.341C440.076,-237.423 451.916,-237.51 463.258,-237.595"/>
<polygon fill="midnightblue" stroke="midnightblue" points="463.469,-241.096 473.495,-237.67 463.521,-234.096 463.469,-241.096"/>
</g>
<!-- Node28 -->
<g id="node28" class="node"><title>Node28</title>
<g id="a_node28"><a xlink:href="../../d3/d22/classlime_1_1LMS7__Device.html#aac9c25a4c8b67b8f0073591d02d2757b" target="_top" xlink:title="lime::LMS7_Device::\lReadParam">
<polygon fill="white" stroke="black" points="465,-179 465,-209 573,-209 573,-179 465,-179"/>
<text text-anchor="start" x="473" y="-197" font-family="Helvetica,sans-Serif" font-size="10.00">lime::LMS7_Device::</text>
<text text-anchor="middle" x="519" y="-186" font-family="Helvetica,sans-Serif" font-size="10.00">ReadParam</text>
</a>
</g>
</g>
<!-- Node27&#45;&gt;Node28 -->
<g id="edge31" class="edge"><title>Node27&#45;&gt;Node28</title>
<path fill="none" stroke="midnightblue" d="M412.961,-227.457C427.182,-222.927 444.662,-217.359 461.253,-212.075"/>
<polygon fill="midnightblue" stroke="midnightblue" points="462.421,-215.376 470.887,-209.006 460.297,-208.706 462.421,-215.376"/>
</g>
</g>
</svg>
