<?xml version="1.0" encoding="UTF-8" standalone="no"?>
<!DOCTYPE svg PUBLIC "-//W3C//DTD SVG 1.1//EN"
 "http://www.w3.org/Graphics/SVG/1.1/DTD/svg11.dtd">
<!-- Generated by graphviz version 2.38.0 (20140413.2041)
 -->
<!-- Title: lms7002_pnlSX_view::lms7002_pnlSX_view Pages: 1 -->
<svg width="1053pt" height="598pt"
 viewBox="0.00 0.00 1053.00 598.00" xmlns="http://www.w3.org/2000/svg" xmlns:xlink="http://www.w3.org/1999/xlink">
<g id="graph0" class="graph" transform="scale(1 1) rotate(0) translate(4 594)">
<title>lms7002_pnlSX_view::lms7002_pnlSX_view</title>
<polygon fill="white" stroke="none" points="-4,4 -4,-594 1049,-594 1049,4 -4,4"/>
<!-- Node1 -->
<g id="node1" class="node"><title>Node1</title>
<polygon fill="#bfbfbf" stroke="black" points="0,-219 0,-249 116,-249 116,-219 0,-219"/>
<text text-anchor="start" x="8" y="-237" font-family="Helvetica,sans-Serif" font-size="10.00">lms7002_pnlSX_view</text>
<text text-anchor="middle" x="58" y="-226" font-family="Helvetica,sans-Serif" font-size="10.00">::lms7002_pnlSX_view</text>
</g>
<!-- Node2 -->
<g id="node2" class="node"><title>Node2</title>
<g id="a_node2"><a xlink:href="../../d5/d03/classlms7002__pnlSX__view.html#a69248df6ef3433378e280b0cbb520c98" target="_top" xlink:title="lms7002_pnlSX_view\l::ParameterChangeHandler">
<polygon fill="white" stroke="black" points="169.5,-241 169.5,-271 304.5,-271 304.5,-241 169.5,-241"/>
<text text-anchor="start" x="177.5" y="-259" font-family="Helvetica,sans-Serif" font-size="10.00">lms7002_pnlSX_view</text>
<text text-anchor="middle" x="237" y="-248" font-family="Helvetica,sans-Serif" font-size="10.00">::ParameterChangeHandler</text>
</a>
</g>
</g>
<!-- Node1&#45;&gt;Node2 -->
<g id="edge1" class="edge"><title>Node1&#45;&gt;Node2</title>
<path fill="none" stroke="midnightblue" d="M116.467,-241.143C130.032,-242.829 144.711,-244.653 158.984,-246.427"/>
<polygon fill="midnightblue" stroke="midnightblue" points="158.929,-249.947 169.284,-247.708 159.792,-243.001 158.929,-249.947"/>
</g>
<!-- Node30 -->
<g id="node30" class="node"><title>Node30</title>
<g id="a_node30"><a xlink:href="../../de/df1/namespaceLMS7002__WXGUI.html#ad4a47ccc0ddf07fbd14de1515a478140" target="_top" xlink:title="Changes given wxWidget controls tooltips to parameter descriptions. ">
<polygon fill="white" stroke="black" points="152,-202.5 152,-221.5 322,-221.5 322,-202.5 152,-202.5"/>
<text text-anchor="middle" x="237" y="-209.5" font-family="Helvetica,sans-Serif" font-size="10.00">LMS7002_WXGUI::UpdateTooltips</text>
</a>
</g>
</g>
<!-- Node1&#45;&gt;Node30 -->
<g id="edge34" class="edge"><title>Node1&#45;&gt;Node30</title>
<path fill="none" stroke="midnightblue" d="M116.467,-226.857C126.978,-225.551 138.157,-224.161 149.298,-222.776"/>
<polygon fill="midnightblue" stroke="midnightblue" points="150.007,-226.215 159.499,-221.509 149.144,-219.269 150.007,-226.215"/>
</g>
<!-- Node3 -->
<g id="node3" class="node"><title>Node3</title>
<g id="a_node3"><a xlink:href="../../df/de1/lms7__api_8cpp.html#a29da2b25b3336c31d75b70bb4eb32673" target="_top" xlink:title="LMS_WriteParam">
<polygon fill="white" stroke="black" points="522,-267.5 522,-286.5 616,-286.5 616,-267.5 522,-267.5"/>
<text text-anchor="middle" x="569" y="-274.5" font-family="Helvetica,sans-Serif" font-size="10.00">LMS_WriteParam</text>
</a>
</g>
</g>
<!-- Node2&#45;&gt;Node3 -->
<g id="edge2" class="edge"><title>Node2&#45;&gt;Node3</title>
<path fill="none" stroke="midnightblue" d="M304.78,-260.25C365.417,-264.108 453.877,-269.738 511.191,-273.385"/>
<polygon fill="midnightblue" stroke="midnightblue" points="511.315,-276.9 521.517,-274.042 511.76,-269.914 511.315,-276.9"/>
</g>
<!-- Node27 -->
<g id="node27" class="node"><title>Node27</title>
<g id="a_node27"><a xlink:href="../../d5/d03/classlms7002__pnlSX__view.html#a40e1aa4525e0cb001d73944f49ea1ce6" target="_top" xlink:title="lms7002_pnlSX_view\l::OnbtnReadComparators">
<polygon fill="white" stroke="black" points="358,-219 358,-249 486,-249 486,-219 358,-219"/>
<text text-anchor="start" x="366" y="-237" font-family="Helvetica,sans-Serif" font-size="10.00">lms7002_pnlSX_view</text>
<text text-anchor="middle" x="422" y="-226" font-family="Helvetica,sans-Serif" font-size="10.00">::OnbtnReadComparators</text>
</a>
</g>
</g>
<!-- Node2&#45;&gt;Node27 -->
<g id="edge29" class="edge"><title>Node2&#45;&gt;Node27</title>
<path fill="none" stroke="midnightblue" d="M304.585,-247.995C318.565,-246.315 333.385,-244.533 347.598,-242.824"/>
<polygon fill="midnightblue" stroke="midnightblue" points="348.309,-246.264 357.82,-241.595 347.473,-239.314 348.309,-246.264"/>
</g>
<!-- Node4 -->
<g id="node4" class="node"><title>Node4</title>
<g id="a_node4"><a xlink:href="../../d4/d67/lms_8c.html#a0e01e477b1f10e0a63e54de2dd2f8240" target="_top" xlink:title="lms">
<polygon fill="white" stroke="black" points="690,-266.5 690,-285.5 722,-285.5 722,-266.5 690,-266.5"/>
<text text-anchor="middle" x="706" y="-273.5" font-family="Helvetica,sans-Serif" font-size="10.00">lms</text>
</a>
</g>
</g>
<!-- Node3&#45;&gt;Node4 -->
<g id="edge3" class="edge"><title>Node3&#45;&gt;Node4</title>
<path fill="none" stroke="midnightblue" d="M616.082,-276.659C637.336,-276.501 661.75,-276.32 679.612,-276.188"/>
<polygon fill="midnightblue" stroke="midnightblue" points="679.827,-279.687 689.801,-276.113 679.775,-272.687 679.827,-279.687"/>
</g>
<!-- Node24 -->
<g id="node24" class="node"><title>Node24</title>
<g id="a_node24"><a xlink:href="../../d5/d6c/namespacelime.html#adc6af0cf8e0a70f3ef09fac1244f8c48" target="_top" xlink:title="lime::ReportError">
<polygon fill="white" stroke="black" points="660.5,-228.5 660.5,-247.5 751.5,-247.5 751.5,-228.5 660.5,-228.5"/>
<text text-anchor="middle" x="706" y="-235.5" font-family="Helvetica,sans-Serif" font-size="10.00">lime::ReportError</text>
</a>
</g>
</g>
<!-- Node3&#45;&gt;Node24 -->
<g id="edge26" class="edge"><title>Node3&#45;&gt;Node24</title>
<path fill="none" stroke="midnightblue" d="M603.025,-267.46C620.839,-262.313 643.034,-255.901 662.163,-250.375"/>
<polygon fill="midnightblue" stroke="midnightblue" points="663.213,-253.715 671.848,-247.577 661.27,-246.99 663.213,-253.715"/>
</g>
<!-- Node26 -->
<g id="node26" class="node"><title>Node26</title>
<g id="a_node26"><a xlink:href="../../d3/d22/classlime_1_1LMS7__Device.html#a874b61636f61cb998f9d01a69ba9991a" target="_top" xlink:title="lime::LMS7_Device::\lWriteParam">
<polygon fill="white" stroke="black" points="652,-305 652,-335 760,-335 760,-305 652,-305"/>
<text text-anchor="start" x="660" y="-323" font-family="Helvetica,sans-Serif" font-size="10.00">lime::LMS7_Device::</text>
<text text-anchor="middle" x="706" y="-312" font-family="Helvetica,sans-Serif" font-size="10.00">WriteParam</text>
</a>
</g>
</g>
<!-- Node3&#45;&gt;Node26 -->
<g id="edge28" class="edge"><title>Node3&#45;&gt;Node26</title>
<path fill="none" stroke="midnightblue" d="M599.961,-286.543C614.182,-291.073 631.662,-296.641 648.253,-301.925"/>
<polygon fill="midnightblue" stroke="midnightblue" points="647.297,-305.294 657.887,-304.994 649.421,-298.624 647.297,-305.294"/>
</g>
<!-- Node5 -->
<g id="node5" class="node"><title>Node5</title>
<g id="a_node5"><a xlink:href="../../d4/d67/lms_8c.html#a433227191fe883dcb8aa15d291bb29a1" target="_top" xlink:title="Case1F">
<polygon fill="white" stroke="black" points="804.5,-418.5 804.5,-437.5 855.5,-437.5 855.5,-418.5 804.5,-418.5"/>
<text text-anchor="middle" x="830" y="-425.5" font-family="Helvetica,sans-Serif" font-size="10.00">Case1F</text>
</a>
</g>
</g>
<!-- Node4&#45;&gt;Node5 -->
<g id="edge4" class="edge"><title>Node4&#45;&gt;Node5</title>
<path fill="none" stroke="midnightblue" d="M722.466,-277.814C734.257,-279.983 750.104,-284.717 760,-295 796.844,-333.284 762.709,-367.59 796,-409 796.932,-410.159 797.955,-411.262 799.046,-412.308"/>
<polygon fill="midnightblue" stroke="midnightblue" points="796.924,-415.091 806.985,-418.413 801.191,-409.542 796.924,-415.091"/>
</g>
<!-- Node6 -->
<g id="node6" class="node"><title>Node6</title>
<g id="a_node6"><a xlink:href="../../d4/d67/lms_8c.html#ace0cd8bf61cb9b86b98f0cef03b5a9d9" target="_top" xlink:title="Case2F">
<polygon fill="white" stroke="black" points="804.5,-380.5 804.5,-399.5 855.5,-399.5 855.5,-380.5 804.5,-380.5"/>
<text text-anchor="middle" x="830" y="-387.5" font-family="Helvetica,sans-Serif" font-size="10.00">Case2F</text>
</a>
</g>
</g>
<!-- Node4&#45;&gt;Node6 -->
<g id="edge5" class="edge"><title>Node4&#45;&gt;Node6</title>
<path fill="none" stroke="midnightblue" d="M722.09,-278.201C733.674,-280.584 749.426,-285.416 760,-295 787.693,-320.1 770.65,-343.535 796,-371 797.037,-372.123 798.156,-373.199 799.333,-374.226"/>
<polygon fill="midnightblue" stroke="midnightblue" points="797.558,-377.262 807.709,-380.296 801.666,-371.594 797.558,-377.262"/>
</g>
<!-- Node7 -->
<g id="node7" class="node"><title>Node7</title>
<g id="a_node7"><a xlink:href="../../d4/d67/lms_8c.html#a5f53b53ccc591e3643c4af2aee2e7f32" target="_top" xlink:title="Case3F">
<polygon fill="white" stroke="black" points="804.5,-342.5 804.5,-361.5 855.5,-361.5 855.5,-342.5 804.5,-342.5"/>
<text text-anchor="middle" x="830" y="-349.5" font-family="Helvetica,sans-Serif" font-size="10.00">Case3F</text>
</a>
</g>
</g>
<!-- Node4&#45;&gt;Node7 -->
<g id="edge6" class="edge"><title>Node4&#45;&gt;Node7</title>
<path fill="none" stroke="midnightblue" d="M722.255,-279.434C733.341,-282.397 748.377,-287.413 760,-295 779.481,-307.717 777.727,-318.6 796,-333 797.772,-334.396 799.658,-335.758 801.596,-337.069"/>
<polygon fill="midnightblue" stroke="midnightblue" points="799.895,-340.134 810.234,-342.449 803.596,-334.192 799.895,-340.134"/>
</g>
<!-- Node8 -->
<g id="node8" class="node"><title>Node8</title>
<g id="a_node8"><a xlink:href="../../d4/d67/lms_8c.html#a5086763d5b258349bc13d6be7e7d0665" target="_top" xlink:title="Case4F">
<polygon fill="white" stroke="black" points="804.5,-304.5 804.5,-323.5 855.5,-323.5 855.5,-304.5 804.5,-304.5"/>
<text text-anchor="middle" x="830" y="-311.5" font-family="Helvetica,sans-Serif" font-size="10.00">Case4F</text>
</a>
</g>
</g>
<!-- Node4&#45;&gt;Node8 -->
<g id="edge7" class="edge"><title>Node4&#45;&gt;Node8</title>
<path fill="none" stroke="midnightblue" d="M722.451,-280.813C740.517,-286.44 770.965,-295.923 794.697,-303.315"/>
<polygon fill="midnightblue" stroke="midnightblue" points="793.812,-306.706 804.401,-306.338 795.894,-300.022 793.812,-306.706"/>
</g>
<!-- Node9 -->
<g id="node9" class="node"><title>Node9</title>
<g id="a_node9"><a xlink:href="../../db/de5/recipes_8c.html#aee25e218394217a134e805ea09fb0fe9" target="_top" xlink:title="free_ivector">
<polygon fill="white" stroke="black" points="796,-266.5 796,-285.5 864,-285.5 864,-266.5 796,-266.5"/>
<text text-anchor="middle" x="830" y="-273.5" font-family="Helvetica,sans-Serif" font-size="10.00">free_ivector</text>
</a>
</g>
</g>
<!-- Node4&#45;&gt;Node9 -->
<g id="edge8" class="edge"><title>Node4&#45;&gt;Node9</title>
<path fill="none" stroke="midnightblue" d="M722.451,-276C738.282,-276 763.622,-276 785.618,-276"/>
<polygon fill="midnightblue" stroke="midnightblue" points="785.766,-279.5 795.766,-276 785.766,-272.5 785.766,-279.5"/>
</g>
<!-- Node10 -->
<g id="node10" class="node"><title>Node10</title>
<g id="a_node10"><a xlink:href="../../db/de5/recipes_8c.html#a3e0d121b098c19c0bdc2429e5b9f1625" target="_top" xlink:title="free_matrix">
<polygon fill="white" stroke="black" points="797.5,-228.5 797.5,-247.5 862.5,-247.5 862.5,-228.5 797.5,-228.5"/>
<text text-anchor="middle" x="830" y="-235.5" font-family="Helvetica,sans-Serif" font-size="10.00">free_matrix</text>
</a>
</g>
</g>
<!-- Node4&#45;&gt;Node10 -->
<g id="edge9" class="edge"><title>Node4&#45;&gt;Node10</title>
<path fill="none" stroke="midnightblue" d="M722.451,-271.187C738.984,-266.038 765.887,-257.658 788.523,-250.608"/>
<polygon fill="midnightblue" stroke="midnightblue" points="789.737,-253.895 798.244,-247.58 787.655,-247.212 789.737,-253.895"/>
</g>
<!-- Node11 -->
<g id="node11" class="node"><title>Node11</title>
<g id="a_node11"><a xlink:href="../../db/de5/recipes_8c.html#a8214a52d888e820222c0382648329c0c" target="_top" xlink:title="free_vector">
<polygon fill="white" stroke="black" points="900,-190.5 900,-209.5 965,-209.5 965,-190.5 900,-190.5"/>
<text text-anchor="middle" x="932.5" y="-197.5" font-family="Helvetica,sans-Serif" font-size="10.00">free_vector</text>
</a>
</g>
</g>
<!-- Node4&#45;&gt;Node11 -->
<g id="edge10" class="edge"><title>Node4&#45;&gt;Node11</title>
<path fill="none" stroke="midnightblue" d="M722.255,-272.566C733.341,-269.603 748.377,-264.587 760,-257 779.481,-244.283 775.32,-229.658 796,-219 824.927,-204.092 861.699,-199.698 889.635,-198.835"/>
<polygon fill="midnightblue" stroke="midnightblue" points="889.934,-202.331 899.874,-198.663 889.816,-195.332 889.934,-202.331"/>
</g>
<!-- Node12 -->
<g id="node12" class="node"><title>Node12</title>
<g id="a_node12"><a xlink:href="../../d4/d67/lms_8c.html#ad1d6c875ff429888b51dd1155f0311ad" target="_top" xlink:title="ivector">
<polygon fill="white" stroke="black" points="807,-114.5 807,-133.5 853,-133.5 853,-114.5 807,-114.5"/>
<text text-anchor="middle" x="830" y="-121.5" font-family="Helvetica,sans-Serif" font-size="10.00">ivector</text>
</a>
</g>
</g>
<!-- Node4&#45;&gt;Node12 -->
<g id="edge11" class="edge"><title>Node4&#45;&gt;Node12</title>
<path fill="none" stroke="midnightblue" d="M722.466,-274.186C734.257,-272.017 750.104,-267.283 760,-257 796.844,-218.716 762.709,-184.41 796,-143 796.932,-141.841 797.955,-140.738 799.046,-139.692"/>
<polygon fill="midnightblue" stroke="midnightblue" points="801.191,-142.458 806.985,-133.587 796.924,-136.909 801.191,-142.458"/>
</g>
<!-- Node13 -->
<g id="node13" class="node"><title>Node13</title>
<g id="a_node13"><a xlink:href="../../db/de5/recipes_8c.html#a66ff65ad0355ec1f4a7722bcdafc8cd3" target="_top" xlink:title="lubksb">
<polygon fill="white" stroke="black" points="807.5,-76.5 807.5,-95.5 852.5,-95.5 852.5,-76.5 807.5,-76.5"/>
<text text-anchor="middle" x="830" y="-83.5" font-family="Helvetica,sans-Serif" font-size="10.00">lubksb</text>
</a>
</g>
</g>
<!-- Node4&#45;&gt;Node13 -->
<g id="edge12" class="edge"><title>Node4&#45;&gt;Node13</title>
<path fill="none" stroke="midnightblue" d="M722.191,-274.467C734.15,-272.45 750.357,-267.784 760,-257 806.275,-205.247 754.514,-160.665 796,-105 797.032,-103.615 798.197,-102.315 799.457,-101.097"/>
<polygon fill="midnightblue" stroke="midnightblue" points="801.626,-103.845 807.451,-94.9956 797.379,-98.2806 801.626,-103.845"/>
</g>
<!-- Node14 -->
<g id="node14" class="node"><title>Node14</title>
<g id="a_node14"><a xlink:href="../../db/de5/recipes_8c.html#a623fec796d9d53e5e4a4d30226547da7" target="_top" xlink:title="ludcmp">
<polygon fill="white" stroke="black" points="806,-152.5 806,-171.5 854,-171.5 854,-152.5 806,-152.5"/>
<text text-anchor="middle" x="830" y="-159.5" font-family="Helvetica,sans-Serif" font-size="10.00">ludcmp</text>
</a>
</g>
</g>
<!-- Node4&#45;&gt;Node14 -->
<g id="edge13" class="edge"><title>Node4&#45;&gt;Node14</title>
<path fill="none" stroke="midnightblue" d="M722.019,-273.72C733.564,-271.293 749.298,-266.441 760,-257 786.532,-233.595 773.055,-212.931 796,-186 798.489,-183.078 801.404,-180.318 804.451,-177.782"/>
<polygon fill="midnightblue" stroke="midnightblue" points="806.738,-180.441 812.629,-171.635 802.532,-174.845 806.738,-180.441"/>
</g>
<!-- Node17 -->
<g id="node17" class="node"><title>Node17</title>
<g id="a_node17"><a xlink:href="../../d4/d67/lms_8c.html#a37bcb1539d76b53344102435e2ab9c91" target="_top" xlink:title="matrix">
<polygon fill="white" stroke="black" points="808,-38.5 808,-57.5 852,-57.5 852,-38.5 808,-38.5"/>
<text text-anchor="middle" x="830" y="-45.5" font-family="Helvetica,sans-Serif" font-size="10.00">matrix</text>
</a>
</g>
</g>
<!-- Node4&#45;&gt;Node17 -->
<g id="edge18" class="edge"><title>Node4&#45;&gt;Node17</title>
<path fill="none" stroke="midnightblue" d="M722.323,-274.582C734.358,-272.632 750.604,-268 760,-257 815.822,-191.649 746.214,-137.059 796,-67 797.149,-65.3834 798.482,-63.8847 799.939,-62.4985"/>
<polygon fill="midnightblue" stroke="midnightblue" points="802.08,-65.2683 807.998,-56.4803 797.891,-59.6598 802.08,-65.2683"/>
</g>
<!-- Node18 -->
<g id="node18" class="node"><title>Node18</title>
<g id="a_node18"><a xlink:href="../../d8/d91/rounding_8c.html#aa8d7512cdf5bfbf811cef6a8a091c679" target="_top" xlink:title="round2csd">
<polygon fill="white" stroke="black" points="799,-532.5 799,-551.5 861,-551.5 861,-532.5 799,-532.5"/>
<text text-anchor="middle" x="830" y="-539.5" font-family="Helvetica,sans-Serif" font-size="10.00">round2csd</text>
</a>
</g>
</g>
<!-- Node4&#45;&gt;Node18 -->
<g id="edge19" class="edge"><title>Node4&#45;&gt;Node18</title>
<path fill="none" stroke="midnightblue" d="M722.413,-277.342C734.501,-279.248 750.774,-283.857 760,-295 825.427,-374.017 737.863,-438.475 796,-523 796.637,-523.926 797.335,-524.813 798.083,-525.661"/>
<polygon fill="midnightblue" stroke="midnightblue" points="795.99,-528.477 805.87,-532.302 800.532,-523.15 795.99,-528.477"/>
</g>
<!-- Node22 -->
<g id="node22" class="node"><title>Node22</title>
<g id="a_node22"><a xlink:href="../../d8/d91/rounding_8c.html#aca2670cc0fbf948a6b9cb670047c9d5b" target="_top" xlink:title="round2int">
<polygon fill="white" stroke="black" points="802,-494.5 802,-513.5 858,-513.5 858,-494.5 802,-494.5"/>
<text text-anchor="middle" x="830" y="-501.5" font-family="Helvetica,sans-Serif" font-size="10.00">round2int</text>
</a>
</g>
</g>
<!-- Node4&#45;&gt;Node22 -->
<g id="edge23" class="edge"><title>Node4&#45;&gt;Node22</title>
<path fill="none" stroke="midnightblue" d="M722.323,-277.418C734.358,-279.368 750.604,-284 760,-295 815.822,-360.351 746.214,-414.941 796,-485 796.754,-486.061 797.587,-487.071 798.483,-488.032"/>
<polygon fill="midnightblue" stroke="midnightblue" points="796.351,-490.81 806.298,-494.459 800.797,-485.404 796.351,-490.81"/>
</g>
<!-- Node23 -->
<g id="node23" class="node"><title>Node23</title>
<g id="a_node23"><a xlink:href="../../d4/d67/lms_8c.html#ac81ca32708341eb34b25d515d00bc748" target="_top" xlink:title="vector">
<polygon fill="white" stroke="black" points="808,-456.5 808,-475.5 852,-475.5 852,-456.5 808,-456.5"/>
<text text-anchor="middle" x="830" y="-463.5" font-family="Helvetica,sans-Serif" font-size="10.00">vector</text>
</a>
</g>
</g>
<!-- Node4&#45;&gt;Node23 -->
<g id="edge25" class="edge"><title>Node4&#45;&gt;Node23</title>
<path fill="none" stroke="midnightblue" d="M722.191,-277.533C734.15,-279.55 750.357,-284.216 760,-295 806.275,-346.753 754.514,-391.335 796,-447 797.059,-448.421 798.259,-449.753 799.557,-450.999"/>
<polygon fill="midnightblue" stroke="midnightblue" points="797.702,-453.984 807.793,-457.213 801.919,-448.396 797.702,-453.984"/>
</g>
<!-- Node14&#45;&gt;Node11 -->
<g id="edge14" class="edge"><title>Node14&#45;&gt;Node11</title>
<path fill="none" stroke="midnightblue" d="M854.057,-170.718C866.676,-175.489 882.569,-181.499 896.668,-186.83"/>
<polygon fill="midnightblue" stroke="midnightblue" points="895.489,-190.126 906.081,-190.389 897.965,-183.578 895.489,-190.126"/>
</g>
<!-- Node15 -->
<g id="node15" class="node"><title>Node15</title>
<g id="a_node15"><a xlink:href="../../db/de5/recipes_8c.html#a208e98f19b2f252315399d02c0594a46" target="_top" xlink:title="nrerror">
<polygon fill="white" stroke="black" points="1001,-133.5 1001,-152.5 1045,-152.5 1045,-133.5 1001,-133.5"/>
<text text-anchor="middle" x="1023" y="-140.5" font-family="Helvetica,sans-Serif" font-size="10.00">nrerror</text>
</a>
</g>
</g>
<!-- Node14&#45;&gt;Node15 -->
<g id="edge15" class="edge"><title>Node14&#45;&gt;Node15</title>
<path fill="none" stroke="midnightblue" d="M854.039,-159.708C888.23,-156.307 952.482,-149.915 990.842,-146.1"/>
<polygon fill="midnightblue" stroke="midnightblue" points="991.324,-149.569 1000.93,-145.096 990.631,-142.603 991.324,-149.569"/>
</g>
<!-- Node16 -->
<g id="node16" class="node"><title>Node16</title>
<g id="a_node16"><a xlink:href="../../db/de5/recipes_8c.html#a5e6092211a5f7e2d6ae9282379d3c604" target="_top" xlink:title="vector">
<polygon fill="white" stroke="black" points="910.5,-114.5 910.5,-133.5 954.5,-133.5 954.5,-114.5 910.5,-114.5"/>
<text text-anchor="middle" x="932.5" y="-121.5" font-family="Helvetica,sans-Serif" font-size="10.00">vector</text>
</a>
</g>
</g>
<!-- Node14&#45;&gt;Node16 -->
<g id="edge16" class="edge"><title>Node14&#45;&gt;Node16</title>
<path fill="none" stroke="midnightblue" d="M854.057,-153.282C867.938,-148.033 885.781,-141.287 900.84,-135.593"/>
<polygon fill="midnightblue" stroke="midnightblue" points="902.149,-138.84 910.265,-132.029 899.674,-132.292 902.149,-138.84"/>
</g>
<!-- Node16&#45;&gt;Node15 -->
<g id="edge17" class="edge"><title>Node16&#45;&gt;Node15</title>
<path fill="none" stroke="midnightblue" d="M954.923,-128.599C965.685,-130.91 978.928,-133.753 990.796,-136.301"/>
<polygon fill="midnightblue" stroke="midnightblue" points="990.262,-139.766 1000.77,-138.443 991.731,-132.922 990.262,-139.766"/>
</g>
<!-- Node19 -->
<g id="node19" class="node"><title>Node19</title>
<g id="a_node19"><a xlink:href="../../d8/d91/rounding_8c.html#a2cff6b77e73872659c44b0c99f6bd97f" target="_top" xlink:title="csd2int">
<polygon fill="white" stroke="black" points="908.5,-532.5 908.5,-551.5 956.5,-551.5 956.5,-532.5 908.5,-532.5"/>
<text text-anchor="middle" x="932.5" y="-539.5" font-family="Helvetica,sans-Serif" font-size="10.00">csd2int</text>
</a>
</g>
</g>
<!-- Node18&#45;&gt;Node19 -->
<g id="edge20" class="edge"><title>Node18&#45;&gt;Node19</title>
<path fill="none" stroke="midnightblue" d="M861.153,-542C872.87,-542 886.331,-542 898.321,-542"/>
<polygon fill="midnightblue" stroke="midnightblue" points="898.398,-545.5 908.398,-542 898.398,-538.5 898.398,-545.5"/>
</g>
<!-- Node20 -->
<g id="node20" class="node"><title>Node20</title>
<g id="a_node20"><a xlink:href="../../db/d82/wglew_8h.html#a500a82aecba06f4550f6849b8099ca21" target="_top" xlink:title="int">
<polygon fill="white" stroke="black" points="918,-494.5 918,-513.5 947,-513.5 947,-494.5 918,-494.5"/>
<text text-anchor="middle" x="932.5" y="-501.5" font-family="Helvetica,sans-Serif" font-size="10.00">int</text>
</a>
</g>
</g>
<!-- Node18&#45;&gt;Node20 -->
<g id="edge21" class="edge"><title>Node18&#45;&gt;Node20</title>
<path fill="none" stroke="midnightblue" d="M856.36,-532.411C872.388,-526.351 892.934,-518.582 908.49,-512.7"/>
<polygon fill="midnightblue" stroke="midnightblue" points="909.778,-515.955 917.894,-509.145 907.302,-509.408 909.778,-515.955"/>
</g>
<!-- Node21 -->
<g id="node21" class="node"><title>Node21</title>
<g id="a_node21"><a xlink:href="../../d8/d91/rounding_8c.html#ab3a64ec72c5600bc114621e93309c8c3" target="_top" xlink:title="int2csd">
<polygon fill="white" stroke="black" points="908.5,-570.5 908.5,-589.5 956.5,-589.5 956.5,-570.5 908.5,-570.5"/>
<text text-anchor="middle" x="932.5" y="-577.5" font-family="Helvetica,sans-Serif" font-size="10.00">int2csd</text>
</a>
</g>
</g>
<!-- Node18&#45;&gt;Node21 -->
<g id="edge22" class="edge"><title>Node18&#45;&gt;Node21</title>
<path fill="none" stroke="midnightblue" d="M856.36,-551.589C869.181,-556.437 884.894,-562.378 898.631,-567.572"/>
<polygon fill="midnightblue" stroke="midnightblue" points="897.623,-570.933 908.214,-571.195 900.099,-564.385 897.623,-570.933"/>
</g>
<!-- Node22&#45;&gt;Node20 -->
<g id="edge24" class="edge"><title>Node22&#45;&gt;Node20</title>
<path fill="none" stroke="midnightblue" d="M858.197,-504C873.576,-504 892.634,-504 907.462,-504"/>
<polygon fill="midnightblue" stroke="midnightblue" points="907.846,-507.5 917.846,-504 907.846,-500.5 907.846,-507.5"/>
</g>
<!-- Node25 -->
<g id="node25" class="node"><title>Node25</title>
<g id="a_node25"><a xlink:href="../../d9/df5/Logger_8cpp.html#ada38bf01d6d691de953ed69268ea6516" target="_top" xlink:title="errToStr">
<polygon fill="white" stroke="black" points="804,-0.5 804,-19.5 856,-19.5 856,-0.5 804,-0.5"/>
<text text-anchor="middle" x="830" y="-7.5" font-family="Helvetica,sans-Serif" font-size="10.00">errToStr</text>
</a>
</g>
</g>
<!-- Node24&#45;&gt;Node25 -->
<g id="edge27" class="edge"><title>Node24&#45;&gt;Node25</title>
<path fill="none" stroke="midnightblue" d="M746.484,-228.45C751.601,-225.78 756.329,-222.366 760,-218 815.028,-152.548 746.433,-98.6789 796,-29 796.754,-27.9394 797.588,-26.9296 798.484,-25.969"/>
<polygon fill="midnightblue" stroke="midnightblue" points="800.799,-28.5973 806.301,-19.5432 796.353,-23.1898 800.799,-28.5973"/>
</g>
<!-- Node28 -->
<g id="node28" class="node"><title>Node28</title>
<g id="a_node28"><a xlink:href="../../df/de1/lms7__api_8cpp.html#af7e27adc91d37b2464a10990b1f39c9b" target="_top" xlink:title="LMS_ReadParam">
<polygon fill="white" stroke="black" points="522,-227.5 522,-246.5 616,-246.5 616,-227.5 522,-227.5"/>
<text text-anchor="middle" x="569" y="-234.5" font-family="Helvetica,sans-Serif" font-size="10.00">LMS_ReadParam</text>
</a>
</g>
</g>
<!-- Node27&#45;&gt;Node28 -->
<g id="edge30" class="edge"><title>Node27&#45;&gt;Node28</title>
<path fill="none" stroke="midnightblue" d="M486.177,-235.307C494.548,-235.48 503.088,-235.657 511.34,-235.828"/>
<polygon fill="midnightblue" stroke="midnightblue" points="511.534,-239.332 521.604,-236.04 511.678,-232.334 511.534,-239.332"/>
</g>
<!-- Node28&#45;&gt;Node4 -->
<g id="edge31" class="edge"><title>Node28&#45;&gt;Node4</title>
<path fill="none" stroke="midnightblue" d="M603.025,-246.54C626.772,-253.401 658.301,-262.509 679.981,-268.772"/>
<polygon fill="midnightblue" stroke="midnightblue" points="679.176,-272.183 689.755,-271.596 681.119,-265.458 679.176,-272.183"/>
</g>
<!-- Node28&#45;&gt;Node24 -->
<g id="edge33" class="edge"><title>Node28&#45;&gt;Node24</title>
<path fill="none" stroke="midnightblue" d="M616.082,-237.341C627.076,-237.423 638.916,-237.51 650.258,-237.595"/>
<polygon fill="midnightblue" stroke="midnightblue" points="650.469,-241.096 660.495,-237.67 650.521,-234.096 650.469,-241.096"/>
</g>
<!-- Node29 -->
<g id="node29" class="node"><title>Node29</title>
<g id="a_node29"><a xlink:href="../../d3/d22/classlime_1_1LMS7__Device.html#aac9c25a4c8b67b8f0073591d02d2757b" target="_top" xlink:title="lime::LMS7_Device::\lReadParam">
<polygon fill="white" stroke="black" points="652,-179 652,-209 760,-209 760,-179 652,-179"/>
<text text-anchor="start" x="660" y="-197" font-family="Helvetica,sans-Serif" font-size="10.00">lime::LMS7_Device::</text>
<text text-anchor="middle" x="706" y="-186" font-family="Helvetica,sans-Serif" font-size="10.00">ReadParam</text>
</a>
</g>
</g>
<!-- Node28&#45;&gt;Node29 -->
<g id="edge32" class="edge"><title>Node28&#45;&gt;Node29</title>
<path fill="none" stroke="midnightblue" d="M599.961,-227.457C614.182,-222.927 631.662,-217.359 648.253,-212.075"/>
<polygon fill="midnightblue" stroke="midnightblue" points="649.421,-215.376 657.887,-209.006 647.297,-208.706 649.421,-215.376"/>
</g>
</g>
</svg>
