<?xml version="1.0" encoding="UTF-8" standalone="no"?>
<!DOCTYPE svg PUBLIC "-//W3C//DTD SVG 1.1//EN"
 "http://www.w3.org/Graphics/SVG/1.1/DTD/svg11.dtd">
<!-- Generated by graphviz version 2.38.0 (20140413.2041)
 -->
<!-- Title: EnableMIMOBuffersIfNecessary Pages: 1 -->
<!--zoomable 215 -->
<svg id="main" version="1.1" xmlns="http://www.w3.org/2000/svg" xmlns:xlink="http://www.w3.org/1999/xlink" xml:space="preserve" onload="init(evt)">
<style type="text/css"><![CDATA[
.edge:hover path { stroke: red; }
.edge:hover polygon { stroke: red; fill: red; }
]]></style>
<script type="text/javascript"><![CDATA[
var edges = document.getElementsByTagName('g');
if (edges && edges.length) {
  for (var i=0;i<edges.length;i++) {
    if (edges[i].id.substr(0,4)=='edge') {
      edges[i].setAttribute('class','edge');
    }
  }
}
]]></script>
        <defs>
                <circle id="rim" cx="0" cy="0" r="7"/>
                <circle id="rim2" cx="0" cy="0" r="3.5"/>
                <g id="zoomPlus">
                        <use xlink:href="#rim" fill="#404040">
                                <set attributeName="fill" to="#808080" begin="zoomplus.mouseover" end="zoomplus.mouseout"/>
                        </use>
                        <path d="M-4,0h8M0,-4v8" fill="none" stroke="white" stroke-width="1.5" pointer-events="none"/>
                </g>
                <g id="zoomMin">
                        <use xlink:href="#rim" fill="#404040">
                                <set attributeName="fill" to="#808080" begin="zoomminus.mouseover" end="zoomminus.mouseout"/>
                        </use>
                        <path d="M-4,0h8" fill="none" stroke="white" stroke-width="1.5" pointer-events="none"/>
                </g>
                <g id="dirArrow">
                        <path fill="none" stroke="white" stroke-width="1.5" d="M0,-3.0v7 M-2.5,-0.5L0,-3.0L2.5,-0.5"/>
                </g>
               <g id="resetDef">
                       <use xlink:href="#rim2" fill="#404040">
                               <set attributeName="fill" to="#808080" begin="reset.mouseover" end="reset.mouseout"/>
                       </use>
               </g>
        </defs>

<script type="text/javascript">
var viewWidth = 575;
var viewHeight = 215;
var sectionId = 'dynsection-7';
</script>
<script xlink:href="../../svgpan.js"/>
<svg id="graph" class="graph">
<g id="viewport">
<title>EnableMIMOBuffersIfNecessary</title>
<polygon fill="white" stroke="none" points="-4,4 -4,-211.365 571,-211.365 571,4 -4,4"/>
<!-- Node1 -->
<g id="node1" class="node"><title>Node1</title>
<polygon fill="#bfbfbf" stroke="black" points="0,-76.0958 0,-95.0958 158,-95.0958 158,-76.0958 0,-76.0958"/>
<text text-anchor="middle" x="79" y="-83.0958" font-family="Helvetica,sans-Serif" font-size="10.00">EnableMIMOBuffersIfNecessary</text>
</g>
<!-- Node2 -->
<g id="node2" class="node"><title>Node2</title>
<g id="a_node2"><a xlink:href="../../d3/dec/lms7002m__calibrations_8c.html#a1d40cb80bcb3fc34aef71ce7f6dc74c2" target="_top" xlink:title="CalibrateRxSetup">
<polygon fill="white" stroke="black" points="196,-152.096 196,-171.096 290,-171.096 290,-152.096 196,-152.096"/>
<text text-anchor="middle" x="243" y="-159.096" font-family="Helvetica,sans-Serif" font-size="10.00">CalibrateRxSetup</text>
</a>
</g>
</g>
<!-- Node1&#45;&gt;Node2 -->
<g id="edge1" class="edge"><title>Node1&#45;&gt;Node2</title>
<path fill="none" stroke="midnightblue" d="M109.967,-99.6546C142.479,-114.907 193.499,-138.842 221.649,-152.049"/>
<polygon fill="midnightblue" stroke="midnightblue" points="111.057,-96.2999 100.517,-95.2213 108.084,-102.637 111.057,-96.2999"/>
</g>
<!-- Node8 -->
<g id="node8" class="node"><title>Node8</title>
<g id="a_node8"><a xlink:href="../../d3/dec/lms7002m__calibrations_8c.html#af4dde95732a49a1d5b097d8214ed53ec" target="_top" xlink:title="CalibrateTxSetup">
<polygon fill="white" stroke="black" points="197,-95.0958 197,-114.096 289,-114.096 289,-95.0958 197,-95.0958"/>
<text text-anchor="middle" x="243" y="-102.096" font-family="Helvetica,sans-Serif" font-size="10.00">CalibrateTxSetup</text>
</a>
</g>
</g>
<!-- Node1&#45;&gt;Node8 -->
<g id="edge8" class="edge"><title>Node1&#45;&gt;Node8</title>
<path fill="none" stroke="midnightblue" d="M168.102,-95.9288C178.025,-97.0926 187.805,-98.2397 196.84,-99.2993"/>
<polygon fill="midnightblue" stroke="midnightblue" points="168.493,-92.4507 158.153,-94.7619 167.677,-99.403 168.493,-92.4507"/>
</g>
<!-- Node10 -->
<g id="node10" class="node"><title>Node10</title>
<g id="a_node10"><a xlink:href="../../d2/da6/lms7002m__filters_8c.html#a0b0fba102366e901abb3ea5a08d8d373" target="_top" xlink:title="TuneRxFilterSetup">
<polygon fill="white" stroke="black" points="194,-57.0958 194,-76.0958 292,-76.0958 292,-57.0958 194,-57.0958"/>
<text text-anchor="middle" x="243" y="-64.0958" font-family="Helvetica,sans-Serif" font-size="10.00">TuneRxFilterSetup</text>
</a>
</g>
</g>
<!-- Node1&#45;&gt;Node10 -->
<g id="edge12" class="edge"><title>Node1&#45;&gt;Node10</title>
<path fill="none" stroke="midnightblue" d="M168.106,-75.2625C176.898,-74.2312 185.578,-73.2132 193.727,-72.2575"/>
<polygon fill="midnightblue" stroke="midnightblue" points="167.677,-71.7886 158.153,-76.4298 168.493,-78.741 167.677,-71.7886"/>
</g>
<!-- Node13 -->
<g id="node13" class="node"><title>Node13</title>
<g id="a_node13"><a xlink:href="../../d2/da6/lms7002m__filters_8c.html#af1361ae85c78643bf99447e7251304fb" target="_top" xlink:title="TuneTxFilterSetup">
<polygon fill="white" stroke="black" points="194.5,-19.0958 194.5,-38.0958 291.5,-38.0958 291.5,-19.0958 194.5,-19.0958"/>
<text text-anchor="middle" x="243" y="-26.0958" font-family="Helvetica,sans-Serif" font-size="10.00">TuneTxFilterSetup</text>
</a>
</g>
</g>
<!-- Node1&#45;&gt;Node13 -->
<g id="edge17" class="edge"><title>Node1&#45;&gt;Node13</title>
<path fill="none" stroke="midnightblue" d="M116.744,-72.6674C146.552,-62.1795 187.898,-47.6319 214.796,-38.1675"/>
<polygon fill="midnightblue" stroke="midnightblue" points="115.387,-69.4346 107.115,-76.0553 117.71,-76.0378 115.387,-69.4346"/>
</g>
<!-- Node3 -->
<g id="node3" class="node"><title>Node3</title>
<g id="a_node3"><a xlink:href="../../d1/dc7/lms7002m__calibrations_8h.html#a69b1e143409bc9a1c0b53f360bf608cf" target="_top" xlink:title="CalibrateRx">
<polygon fill="white" stroke="black" points="330.5,-152.096 330.5,-171.096 398.5,-171.096 398.5,-152.096 330.5,-152.096"/>
<text text-anchor="middle" x="364.5" y="-159.096" font-family="Helvetica,sans-Serif" font-size="10.00">CalibrateRx</text>
</a>
</g>
</g>
<!-- Node2&#45;&gt;Node3 -->
<g id="edge2" class="edge"><title>Node2&#45;&gt;Node3</title>
<path fill="none" stroke="midnightblue" d="M300.385,-161.596C310.658,-161.596 321.064,-161.596 330.384,-161.596"/>
<polygon fill="midnightblue" stroke="midnightblue" points="300.202,-158.096 290.202,-161.596 300.202,-165.096 300.202,-158.096"/>
</g>
<!-- Node4 -->
<g id="node4" class="node"><title>Node4</title>
<g id="a_node4"><a xlink:href="../../dd/d0b/mcu__program_2host__src_2main_8cpp.html#a2bb1d2fcd6182ef32aff315f85d13c53" target="_top" xlink:title="DCIQ">
<polygon fill="white" stroke="black" points="444,-133.096 444,-152.096 486,-152.096 486,-133.096 444,-133.096"/>
<text text-anchor="middle" x="465" y="-140.096" font-family="Helvetica,sans-Serif" font-size="10.00">DCIQ</text>
</a>
</g>
</g>
<!-- Node3&#45;&gt;Node4 -->
<g id="edge3" class="edge"><title>Node3&#45;&gt;Node4</title>
<path fill="none" stroke="midnightblue" d="M408.657,-153.271C420.885,-150.912 433.622,-148.455 443.79,-146.494"/>
<polygon fill="midnightblue" stroke="midnightblue" points="407.729,-149.886 398.573,-155.216 409.055,-156.759 407.729,-149.886"/>
</g>
<!-- Node6 -->
<g id="node6" class="node"><title>Node6</title>
<g id="a_node6"><a xlink:href="../../d0/d29/main_8c.html#acdef7a1fd863a6d3770c1268cb06add3" target="_top" xlink:title="main">
<polygon fill="white" stroke="black" points="529,-95.0958 529,-114.096 567,-114.096 567,-95.0958 529,-95.0958"/>
<text text-anchor="middle" x="548" y="-102.096" font-family="Helvetica,sans-Serif" font-size="10.00">main</text>
</a>
</g>
</g>
<!-- Node3&#45;&gt;Node6 -->
<g id="edge5" class="edge"><title>Node3&#45;&gt;Node6</title>
<path fill="none" stroke="midnightblue" d="M385.88,-177.159C412.09,-195.12 458.354,-219.754 493,-199.596 525.467,-180.705 540.015,-134.206 544.94,-114.106"/>
<polygon fill="midnightblue" stroke="midnightblue" points="387.669,-174.135 377.498,-171.168 383.599,-179.83 387.669,-174.135"/>
</g>
<!-- Node7 -->
<g id="node7" class="node"><title>Node7</title>
<g id="a_node7"><a xlink:href="../../d1/dc7/lms7002m__calibrations_8h.html#adce4a8efb4d0eb17b578b99489f4ef77" target="_top" xlink:title="RunAGC">
<polygon fill="white" stroke="black" points="437,-171.096 437,-190.096 493,-190.096 493,-171.096 437,-171.096"/>
<text text-anchor="middle" x="465" y="-178.096" font-family="Helvetica,sans-Serif" font-size="10.00">RunAGC</text>
</a>
</g>
</g>
<!-- Node3&#45;&gt;Node7 -->
<g id="edge6" class="edge"><title>Node3&#45;&gt;Node7</title>
<path fill="none" stroke="midnightblue" d="M408.414,-169.874C418.031,-171.729 427.976,-173.647 436.749,-175.339"/>
<polygon fill="midnightblue" stroke="midnightblue" points="409.055,-166.433 398.573,-167.975 407.729,-173.306 409.055,-166.433"/>
</g>
<!-- Node5 -->
<g id="node5" class="node"><title>Node5</title>
<g id="a_node5"><a xlink:href="../../dd/d0b/mcu__program_2host__src_2main_8cpp.html#a3c04138a5bfe5d72780bb7e82a18e627" target="_top" xlink:title="main">
<polygon fill="white" stroke="black" points="529,-38.0958 529,-57.0958 567,-57.0958 567,-38.0958 529,-38.0958"/>
<text text-anchor="middle" x="548" y="-45.0958" font-family="Helvetica,sans-Serif" font-size="10.00">main</text>
</a>
</g>
</g>
<!-- Node4&#45;&gt;Node5 -->
<g id="edge4" class="edge"><title>Node4&#45;&gt;Node5</title>
<path fill="none" stroke="midnightblue" d="M480.977,-125.03C498.027,-105.034 525.262,-73.0912 538.803,-57.2098"/>
<polygon fill="midnightblue" stroke="midnightblue" points="478.188,-122.907 474.363,-132.787 483.515,-127.448 478.188,-122.907"/>
</g>
<!-- Node7&#45;&gt;Node6 -->
<g id="edge7" class="edge"><title>Node7&#45;&gt;Node6</title>
<path fill="none" stroke="midnightblue" d="M488.898,-164.974C490.31,-163.861 491.688,-162.73 493,-161.596 510.531,-146.441 528.592,-126.278 538.748,-114.441"/>
<polygon fill="midnightblue" stroke="midnightblue" points="486.647,-162.286 480.692,-171.049 490.812,-167.912 486.647,-162.286"/>
</g>
<!-- Node9 -->
<g id="node9" class="node"><title>Node9</title>
<g id="a_node9"><a xlink:href="../../d1/dc7/lms7002m__calibrations_8h.html#a208452a11189052c6dcd2fe639e4fcae" target="_top" xlink:title="CalibrateTx">
<polygon fill="white" stroke="black" points="331,-95.0958 331,-114.096 398,-114.096 398,-95.0958 331,-95.0958"/>
<text text-anchor="middle" x="364.5" y="-102.096" font-family="Helvetica,sans-Serif" font-size="10.00">CalibrateTx</text>
</a>
</g>
</g>
<!-- Node8&#45;&gt;Node9 -->
<g id="edge9" class="edge"><title>Node8&#45;&gt;Node9</title>
<path fill="none" stroke="midnightblue" d="M299.413,-104.596C310.197,-104.596 321.17,-104.596 330.918,-104.596"/>
<polygon fill="midnightblue" stroke="midnightblue" points="299.178,-101.096 289.178,-104.596 299.178,-108.096 299.178,-101.096"/>
</g>
<!-- Node9&#45;&gt;Node4 -->
<g id="edge10" class="edge"><title>Node9&#45;&gt;Node4</title>
<path fill="none" stroke="midnightblue" d="M400.098,-117.943C414.711,-123.581 431.217,-129.948 443.792,-134.8"/>
<polygon fill="midnightblue" stroke="midnightblue" points="400.945,-114.519 390.356,-114.185 398.426,-121.05 400.945,-114.519"/>
</g>
<!-- Node9&#45;&gt;Node6 -->
<g id="edge11" class="edge"><title>Node9&#45;&gt;Node6</title>
<path fill="none" stroke="midnightblue" d="M408.704,-104.596C446.948,-104.596 500.891,-104.596 528.754,-104.596"/>
<polygon fill="midnightblue" stroke="midnightblue" points="408.368,-101.096 398.368,-104.596 408.368,-108.096 408.368,-101.096"/>
</g>
<!-- Node11 -->
<g id="node11" class="node"><title>Node11</title>
<g id="a_node11"><a xlink:href="../../d8/d1f/lms7002m__filters_8h.html#a9424d257383be4943c2846bb47253bf3" target="_top" xlink:title="TuneRxFilter">
<polygon fill="white" stroke="black" points="328,-57.0958 328,-76.0958 401,-76.0958 401,-57.0958 328,-57.0958"/>
<text text-anchor="middle" x="364.5" y="-64.0958" font-family="Helvetica,sans-Serif" font-size="10.00">TuneRxFilter</text>
</a>
</g>
</g>
<!-- Node10&#45;&gt;Node11 -->
<g id="edge13" class="edge"><title>Node10&#45;&gt;Node11</title>
<path fill="none" stroke="midnightblue" d="M302.423,-66.5958C311.133,-66.5958 319.88,-66.5958 327.924,-66.5958"/>
<polygon fill="midnightblue" stroke="midnightblue" points="302.261,-63.0959 292.261,-66.5958 302.261,-70.0959 302.261,-63.0959"/>
</g>
<!-- Node11&#45;&gt;Node6 -->
<g id="edge14" class="edge"><title>Node11&#45;&gt;Node6</title>
<path fill="none" stroke="midnightblue" d="M411.213,-76.1666C449.346,-84.1503 501.691,-95.1096 528.907,-100.808"/>
<polygon fill="midnightblue" stroke="midnightblue" points="411.864,-72.727 401.359,-74.1034 410.429,-79.5785 411.864,-72.727"/>
</g>
<!-- Node12 -->
<g id="node12" class="node"><title>Node12</title>
<g id="a_node12"><a xlink:href="../../dd/d0b/mcu__program_2host__src_2main_8cpp.html#ad4dcf2055b7114f8eacfa8cb11e5bbd5" target="_top" xlink:title="Filters">
<polygon fill="white" stroke="black" points="443,-19.0958 443,-38.0958 487,-38.0958 487,-19.0958 443,-19.0958"/>
<text text-anchor="middle" x="465" y="-26.0958" font-family="Helvetica,sans-Serif" font-size="10.00">Filters</text>
</a>
</g>
</g>
<!-- Node11&#45;&gt;Node12 -->
<g id="edge15" class="edge"><title>Node11&#45;&gt;Node12</title>
<path fill="none" stroke="midnightblue" d="M399.889,-53.329C414.181,-47.8152 430.316,-41.5906 442.824,-36.7653"/>
<polygon fill="midnightblue" stroke="midnightblue" points="398.426,-50.142 390.356,-57.0068 400.945,-56.6729 398.426,-50.142"/>
</g>
<!-- Node12&#45;&gt;Node5 -->
<g id="edge16" class="edge"><title>Node12&#45;&gt;Node5</title>
<path fill="none" stroke="midnightblue" d="M497.175,-35.9085C507.899,-38.4239 519.545,-41.1557 528.879,-43.3452"/>
<polygon fill="midnightblue" stroke="midnightblue" points="497.817,-32.4641 487.282,-33.5879 496.218,-39.2791 497.817,-32.4641"/>
</g>
<!-- Node14 -->
<g id="node14" class="node"><title>Node14</title>
<g id="a_node14"><a xlink:href="../../d8/d1f/lms7002m__filters_8h.html#afa61c92a783434057226329fb950593e" target="_top" xlink:title="TuneTxFilter">
<polygon fill="white" stroke="black" points="329,-19.0958 329,-38.0958 400,-38.0958 400,-19.0958 329,-19.0958"/>
<text text-anchor="middle" x="364.5" y="-26.0958" font-family="Helvetica,sans-Serif" font-size="10.00">TuneTxFilter</text>
</a>
</g>
</g>
<!-- Node13&#45;&gt;Node14 -->
<g id="edge18" class="edge"><title>Node13&#45;&gt;Node14</title>
<path fill="none" stroke="midnightblue" d="M301.645,-28.5958C310.992,-28.5958 320.408,-28.5958 328.976,-28.5958"/>
<polygon fill="midnightblue" stroke="midnightblue" points="301.573,-25.0959 291.573,-28.5958 301.573,-32.0959 301.573,-25.0959"/>
</g>
<!-- Node14&#45;&gt;Node6 -->
<g id="edge19" class="edge"><title>Node14&#45;&gt;Node6</title>
<path fill="none" stroke="midnightblue" d="M393.08,-14.8626C420.287,-3.42593 462.162,8.34711 493,-9.59584 501.363,-14.4617 530.688,-71.8985 542.256,-95.0315"/>
<polygon fill="midnightblue" stroke="midnightblue" points="391.482,-11.7427 383.768,-19.0052 394.327,-18.1384 391.482,-11.7427"/>
</g>
<!-- Node14&#45;&gt;Node12 -->
<g id="edge20" class="edge"><title>Node14&#45;&gt;Node12</title>
<path fill="none" stroke="midnightblue" d="M410.42,-28.5958C421.685,-28.5958 433.256,-28.5958 442.748,-28.5958"/>
<polygon fill="midnightblue" stroke="midnightblue" points="410.227,-25.0959 400.227,-28.5958 410.227,-32.0959 410.227,-25.0959"/>
</g>
</g>
</svg>
        <g id="navigator" transform="translate(0 0)" fill="#404254">
                <rect fill="#f2f5e9" fill-opacity="0.5" stroke="#606060" stroke-width=".5" x="0" y="0" width="60" height="60"/>
                <use id="zoomplus" xlink:href="#zoomPlus" x="17" y="9" onmousedown="handleZoom(evt,'in')"/>
                <use id="zoomminus" xlink:href="#zoomMin" x="42" y="9" onmousedown="handleZoom(evt,'out')"/>
                <use id="reset" xlink:href="#resetDef" x="30" y="36" onmousedown="handleReset()"/>
                <g id="arrowUp" xlink:href="#dirArrow" transform="translate(30 24)" onmousedown="handlePan(0,-1)">
                  <use xlink:href="#rim" fill="#404040">
                        <set attributeName="fill" to="#808080" begin="arrowUp.mouseover" end="arrowUp.mouseout"/>
                  </use>
                  <path fill="none" stroke="white" stroke-width="1.5" d="M0,-3.0v7 M-2.5,-0.5L0,-3.0L2.5,-0.5"/>
                </g>
                <g id="arrowRight" xlink:href="#dirArrow" transform="rotate(90) translate(36 -43)" onmousedown="handlePan(1,0)">
                  <use xlink:href="#rim" fill="#404040">
                        <set attributeName="fill" to="#808080" begin="arrowRight.mouseover" end="arrowRight.mouseout"/>
                  </use>
                  <path fill="none" stroke="white" stroke-width="1.5" d="M0,-3.0v7 M-2.5,-0.5L0,-3.0L2.5,-0.5"/>
                </g>
                <g id="arrowDown" xlink:href="#dirArrow" transform="rotate(180) translate(-30 -48)" onmousedown="handlePan(0,1)">
                  <use xlink:href="#rim" fill="#404040">
                        <set attributeName="fill" to="#808080" begin="arrowDown.mouseover" end="arrowDown.mouseout"/>
                  </use>
                  <path fill="none" stroke="white" stroke-width="1.5" d="M0,-3.0v7 M-2.5,-0.5L0,-3.0L2.5,-0.5"/>
                </g>
                <g id="arrowLeft" xlink:href="#dirArrow" transform="rotate(270) translate(-36 17)" onmousedown="handlePan(-1,0)">
                  <use xlink:href="#rim" fill="#404040">
                        <set attributeName="fill" to="#808080" begin="arrowLeft.mouseover" end="arrowLeft.mouseout"/>
                  </use>
                  <path fill="none" stroke="white" stroke-width="1.5" d="M0,-3.0v7 M-2.5,-0.5L0,-3.0L2.5,-0.5"/>
                </g>
        </g>
        <svg viewBox="0 0 15 15" width="100%" height="30px" preserveAspectRatio="xMaxYMin meet">
         <g id="arrow_out" transform="scale(0.3 0.3)">
          <a xlink:href="lms7002m__controls_8h_a750d732f1af936250aef94df6f56bf9b_icgraph_org.svg" target="_base">
           <rect id="button" ry="5" rx="5" y="6" x="6" height="38" width="38"
                fill="#f2f5e9" fill-opacity="0.5" stroke="#606060" stroke-width="1.0"/>
           <path id="arrow"
             d="M 11.500037,31.436501 C 11.940474,20.09759 22.043105,11.32322 32.158766,21.979434 L 37.068811,17.246167 C 37.068811,17.246167 37.088388,32 37.088388,32 L 22.160133,31.978069 C 22.160133,31.978069 26.997745,27.140456 26.997745,27.140456 C 18.528582,18.264221 13.291696,25.230495 11.500037,31.436501 z"
             style="fill:#404040;"/>
          </a>
         </g>
        </svg>
</svg>
