<?xml version="1.0" encoding="UTF-8" standalone="no"?>
<!DOCTYPE svg PUBLIC "-//W3C//DTD SVG 1.1//EN"
 "http://www.w3.org/Graphics/SVG/1.1/DTD/svg11.dtd">
<!-- Generated by graphviz version 2.38.0 (20140413.2041)
 -->
<!-- Title: /home/erik/prefix/default/src/limesuite&#45;dev/src/Logger.h Pages: 1 -->
<svg width="371pt" height="106pt"
 viewBox="0.00 0.00 371.00 106.00" xmlns="http://www.w3.org/2000/svg" xmlns:xlink="http://www.w3.org/1999/xlink">
<g id="graph0" class="graph" transform="scale(1 1) rotate(0) translate(4 102)">
<title>/home/erik/prefix/default/src/limesuite&#45;dev/src/Logger.h</title>
<polygon fill="white" stroke="none" points="-4,4 -4,-102 367,-102 367,4 -4,4"/>
<!-- Node1 -->
<g id="node1" class="node"><title>Node1</title>
<polygon fill="#bfbfbf" stroke="black" points="137.5,-56.5 137.5,-97.5 259.5,-97.5 259.5,-56.5 137.5,-56.5"/>
<text text-anchor="start" x="145.5" y="-85.5" font-family="Helvetica,sans-Serif" font-size="10.00">/home/erik/prefix/default</text>
<text text-anchor="start" x="145.5" y="-74.5" font-family="Helvetica,sans-Serif" font-size="10.00">/src/limesuite&#45;dev/src</text>
<text text-anchor="middle" x="198.5" y="-63.5" font-family="Helvetica,sans-Serif" font-size="10.00">/Logger.h</text>
</g>
<!-- Node2 -->
<g id="node2" class="node"><title>Node2</title>
<g id="a_node2"><a xlink:href="../../dd/d40/LimeSuiteConfig_8h.html" target="_top" xlink:title="Configuration constants and macros for lime suite library. ">
<polygon fill="white" stroke="black" points="0,-0.5 0,-19.5 97,-19.5 97,-0.5 0,-0.5"/>
<text text-anchor="middle" x="48.5" y="-7.5" font-family="Helvetica,sans-Serif" font-size="10.00">LimeSuiteConfig.h</text>
</a>
</g>
</g>
<!-- Node1&#45;&gt;Node2 -->
<g id="edge1" class="edge"><title>Node1&#45;&gt;Node2</title>
<path fill="none" stroke="midnightblue" d="M153.495,-56.4979C128.949,-45.8614 99.2716,-33.001 77.7395,-23.6705"/>
<polygon fill="midnightblue" stroke="midnightblue" points="79.0345,-20.4172 68.4673,-19.6525 76.2512,-26.8401 79.0345,-20.4172"/>
</g>
<!-- Node3 -->
<g id="node3" class="node"><title>Node3</title>
<polygon fill="white" stroke="#bfbfbf" points="115,-0.5 115,-19.5 156,-19.5 156,-0.5 115,-0.5"/>
<text text-anchor="middle" x="135.5" y="-7.5" font-family="Helvetica,sans-Serif" font-size="10.00">string</text>
</g>
<!-- Node1&#45;&gt;Node3 -->
<g id="edge2" class="edge"><title>Node1&#45;&gt;Node3</title>
<path fill="none" stroke="midnightblue" d="M179.598,-56.4979C170.496,-47.1071 159.714,-35.9829 151.09,-27.0848"/>
<polygon fill="midnightblue" stroke="midnightblue" points="153.359,-24.3973 143.886,-19.6525 148.333,-29.2691 153.359,-24.3973"/>
</g>
<!-- Node4 -->
<g id="node4" class="node"><title>Node4</title>
<polygon fill="white" stroke="#bfbfbf" points="174,-0.5 174,-19.5 223,-19.5 223,-0.5 174,-0.5"/>
<text text-anchor="middle" x="198.5" y="-7.5" font-family="Helvetica,sans-Serif" font-size="10.00">cstdarg</text>
</g>
<!-- Node1&#45;&gt;Node4 -->
<g id="edge3" class="edge"><title>Node1&#45;&gt;Node4</title>
<path fill="none" stroke="midnightblue" d="M198.5,-56.4979C198.5,-48.0653 198.5,-38.2351 198.5,-29.874"/>
<polygon fill="midnightblue" stroke="midnightblue" points="202,-29.6525 198.5,-19.6525 195,-29.6525 202,-29.6525"/>
</g>
<!-- Node5 -->
<g id="node5" class="node"><title>Node5</title>
<polygon fill="white" stroke="#bfbfbf" points="241.5,-0.5 241.5,-19.5 285.5,-19.5 285.5,-0.5 241.5,-0.5"/>
<text text-anchor="middle" x="263.5" y="-7.5" font-family="Helvetica,sans-Serif" font-size="10.00">cerrno</text>
</g>
<!-- Node1&#45;&gt;Node5 -->
<g id="edge4" class="edge"><title>Node1&#45;&gt;Node5</title>
<path fill="none" stroke="midnightblue" d="M218.002,-56.4979C227.489,-47.0113 238.744,-35.7557 247.687,-26.8131"/>
<polygon fill="midnightblue" stroke="midnightblue" points="250.251,-29.1985 254.848,-19.6525 245.302,-24.2487 250.251,-29.1985"/>
</g>
<!-- Node6 -->
<g id="node6" class="node"><title>Node6</title>
<polygon fill="white" stroke="#bfbfbf" points="304,-0.5 304,-19.5 363,-19.5 363,-0.5 304,-0.5"/>
<text text-anchor="middle" x="333.5" y="-7.5" font-family="Helvetica,sans-Serif" font-size="10.00">stdexcept</text>
</g>
<!-- Node1&#45;&gt;Node6 -->
<g id="edge5" class="edge"><title>Node1&#45;&gt;Node6</title>
<path fill="none" stroke="midnightblue" d="M239.004,-56.4979C260.797,-46.0051 287.084,-33.3482 306.395,-24.0507"/>
<polygon fill="midnightblue" stroke="midnightblue" points="308.038,-27.1442 315.529,-19.6525 305.001,-20.8372 308.038,-27.1442"/>
</g>
</g>
</svg>
