<?xml version="1.0" encoding="UTF-8" standalone="no"?>
<!DOCTYPE svg PUBLIC "-//W3C//DTD SVG 1.1//EN"
 "http://www.w3.org/Graphics/SVG/1.1/DTD/svg11.dtd">
<!-- Generated by graphviz version 2.38.0 (20140413.2041)
 -->
<!-- Title: /home/erik/prefix/default/src/limesuite&#45;dev/src/lms7002_wxgui/dlgViewSFR.cpp Pages: 1 -->
<svg width="473pt" height="162pt"
 viewBox="0.00 0.00 472.50 162.00" xmlns="http://www.w3.org/2000/svg" xmlns:xlink="http://www.w3.org/1999/xlink">
<g id="graph0" class="graph" transform="scale(1 1) rotate(0) translate(4 158)">
<title>/home/erik/prefix/default/src/limesuite&#45;dev/src/lms7002_wxgui/dlgViewSFR.cpp</title>
<polygon fill="white" stroke="none" points="-4,4 -4,-158 468.5,-158 468.5,4 -4,4"/>
<!-- Node1 -->
<g id="node1" class="node"><title>Node1</title>
<polygon fill="#bfbfbf" stroke="black" points="200,-112.5 200,-153.5 364,-153.5 364,-112.5 200,-112.5"/>
<text text-anchor="start" x="208" y="-141.5" font-family="Helvetica,sans-Serif" font-size="10.00">/home/erik/prefix/default</text>
<text text-anchor="start" x="208" y="-130.5" font-family="Helvetica,sans-Serif" font-size="10.00">/src/limesuite&#45;dev/src</text>
<text text-anchor="middle" x="282" y="-119.5" font-family="Helvetica,sans-Serif" font-size="10.00">/lms7002_wxgui/dlgViewSFR.cpp</text>
</g>
<!-- Node2 -->
<g id="node2" class="node"><title>Node2</title>
<g id="a_node2"><a xlink:href="../../db/d92/dlgViewSFR_8h.html" target="_top" xlink:title="dlgViewSFR.h">
<polygon fill="white" stroke="black" points="76,-56.5 76,-75.5 156,-75.5 156,-56.5 76,-56.5"/>
<text text-anchor="middle" x="116" y="-63.5" font-family="Helvetica,sans-Serif" font-size="10.00">dlgViewSFR.h</text>
</a>
</g>
</g>
<!-- Node1&#45;&gt;Node2 -->
<g id="edge1" class="edge"><title>Node1&#45;&gt;Node2</title>
<path fill="none" stroke="midnightblue" d="M232.195,-112.498C204.786,-101.766 171.595,-88.7691 147.717,-79.4192"/>
<polygon fill="midnightblue" stroke="midnightblue" points="148.685,-76.0396 138.097,-75.6525 146.133,-82.5577 148.685,-76.0396"/>
</g>
<!-- Node6 -->
<g id="node6" class="node"><title>Node6</title>
<polygon fill="white" stroke="#bfbfbf" points="174,-56.5 174,-75.5 236,-75.5 236,-56.5 174,-56.5"/>
<text text-anchor="middle" x="205" y="-63.5" font-family="Helvetica,sans-Serif" font-size="10.00">wx/sizer.h</text>
</g>
<!-- Node1&#45;&gt;Node6 -->
<g id="edge5" class="edge"><title>Node1&#45;&gt;Node6</title>
<path fill="none" stroke="midnightblue" d="M258.897,-112.498C247.432,-102.82 233.786,-91.3002 223.094,-82.274"/>
<polygon fill="midnightblue" stroke="midnightblue" points="225.149,-79.4286 215.25,-75.6525 220.634,-84.7775 225.149,-79.4286"/>
</g>
<!-- Node7 -->
<g id="node7" class="node"><title>Node7</title>
<polygon fill="white" stroke="#bfbfbf" points="254,-56.5 254,-75.5 310,-75.5 310,-56.5 254,-56.5"/>
<text text-anchor="middle" x="282" y="-63.5" font-family="Helvetica,sans-Serif" font-size="10.00">wx/grid.h</text>
</g>
<!-- Node1&#45;&gt;Node7 -->
<g id="edge6" class="edge"><title>Node1&#45;&gt;Node7</title>
<path fill="none" stroke="midnightblue" d="M282,-112.498C282,-104.065 282,-94.2351 282,-85.874"/>
<polygon fill="midnightblue" stroke="midnightblue" points="285.5,-85.6525 282,-75.6525 278.5,-85.6525 285.5,-85.6525"/>
</g>
<!-- Node8 -->
<g id="node8" class="node"><title>Node8</title>
<polygon fill="white" stroke="#bfbfbf" points="328.5,-56.5 328.5,-75.5 381.5,-75.5 381.5,-56.5 328.5,-56.5"/>
<text text-anchor="middle" x="355" y="-63.5" font-family="Helvetica,sans-Serif" font-size="10.00">wx/intl.h</text>
</g>
<!-- Node1&#45;&gt;Node8 -->
<g id="edge7" class="edge"><title>Node1&#45;&gt;Node8</title>
<path fill="none" stroke="midnightblue" d="M303.902,-112.498C314.664,-102.915 327.453,-91.5281 337.544,-82.5428"/>
<polygon fill="midnightblue" stroke="midnightblue" points="340.142,-84.9165 345.283,-75.6525 335.487,-79.6885 340.142,-84.9165"/>
</g>
<!-- Node9 -->
<g id="node9" class="node"><title>Node9</title>
<polygon fill="white" stroke="#bfbfbf" points="399.5,-56.5 399.5,-75.5 464.5,-75.5 464.5,-56.5 399.5,-56.5"/>
<text text-anchor="middle" x="432" y="-63.5" font-family="Helvetica,sans-Serif" font-size="10.00">wx/string.h</text>
</g>
<!-- Node1&#45;&gt;Node9 -->
<g id="edge8" class="edge"><title>Node1&#45;&gt;Node9</title>
<path fill="none" stroke="midnightblue" d="M327.005,-112.498C351.551,-101.861 381.228,-89.001 402.76,-79.6705"/>
<polygon fill="midnightblue" stroke="midnightblue" points="404.249,-82.8401 412.033,-75.6525 401.466,-76.4172 404.249,-82.8401"/>
</g>
<!-- Node3 -->
<g id="node3" class="node"><title>Node3</title>
<polygon fill="white" stroke="#bfbfbf" points="0,-0.5 0,-19.5 66,-19.5 66,-0.5 0,-0.5"/>
<text text-anchor="middle" x="33" y="-7.5" font-family="Helvetica,sans-Serif" font-size="10.00">wx/dialog.h</text>
</g>
<!-- Node2&#45;&gt;Node3 -->
<g id="edge2" class="edge"><title>Node2&#45;&gt;Node3</title>
<path fill="none" stroke="midnightblue" d="M102.665,-56.324C89.838,-47.979 70.215,-35.2122 55.0602,-25.3524"/>
<polygon fill="midnightblue" stroke="midnightblue" points="56.5932,-22.1742 46.3023,-19.6545 52.7757,-28.0417 56.5932,-22.1742"/>
</g>
<!-- Node4 -->
<g id="node4" class="node"><title>Node4</title>
<polygon fill="white" stroke="#bfbfbf" points="84.5,-0.5 84.5,-19.5 147.5,-19.5 147.5,-0.5 84.5,-0.5"/>
<text text-anchor="middle" x="116" y="-7.5" font-family="Helvetica,sans-Serif" font-size="10.00">wx/arrstr.h</text>
</g>
<!-- Node2&#45;&gt;Node4 -->
<g id="edge3" class="edge"><title>Node2&#45;&gt;Node4</title>
<path fill="none" stroke="midnightblue" d="M116,-56.083C116,-49.0059 116,-38.8611 116,-29.9865"/>
<polygon fill="midnightblue" stroke="midnightblue" points="119.5,-29.751 116,-19.7511 112.5,-29.7511 119.5,-29.751"/>
</g>
<!-- Node5 -->
<g id="node5" class="node"><title>Node5</title>
<polygon fill="white" stroke="#bfbfbf" points="166,-0.5 166,-19.5 210,-19.5 210,-0.5 166,-0.5"/>
<text text-anchor="middle" x="188" y="-7.5" font-family="Helvetica,sans-Serif" font-size="10.00">vector</text>
</g>
<!-- Node2&#45;&gt;Node5 -->
<g id="edge4" class="edge"><title>Node2&#45;&gt;Node5</title>
<path fill="none" stroke="midnightblue" d="M127.568,-56.324C138.42,-48.1849 154.881,-35.8395 167.883,-26.0874"/>
<polygon fill="midnightblue" stroke="midnightblue" points="170.321,-28.6339 176.221,-19.8339 166.121,-23.0339 170.321,-28.6339"/>
</g>
</g>
</svg>
