<?xml version="1.0" encoding="UTF-8" standalone="no"?>
<!DOCTYPE svg PUBLIC "-//W3C//DTD SVG 1.1//EN"
 "http://www.w3.org/Graphics/SVG/1.1/DTD/svg11.dtd">
<!-- Generated by graphviz version 2.38.0 (20140413.2041)
 -->
<!-- Title: pnluLimeSDR::pnluLimeSDR Pages: 1 -->
<svg width="935pt" height="560pt"
 viewBox="0.00 0.00 935.00 560.00" xmlns="http://www.w3.org/2000/svg" xmlns:xlink="http://www.w3.org/1999/xlink">
<g id="graph0" class="graph" transform="scale(1 1) rotate(0) translate(4 556)">
<title>pnluLimeSDR::pnluLimeSDR</title>
<polygon fill="white" stroke="none" points="-4,4 -4,-556 931,-556 931,4 -4,4"/>
<!-- Node1 -->
<g id="node1" class="node"><title>Node1</title>
<polygon fill="#bfbfbf" stroke="black" points="0,-247.5 0,-266.5 144,-266.5 144,-247.5 0,-247.5"/>
<text text-anchor="middle" x="72" y="-254.5" font-family="Helvetica,sans-Serif" font-size="10.00">pnluLimeSDR::pnluLimeSDR</text>
</g>
<!-- Node2 -->
<g id="node2" class="node"><title>Node2</title>
<g id="a_node2"><a xlink:href="../../d9/d93/classpnluLimeSDR.html#a902fe0cb32c87cab407cdaa9c312e4d2" target="_top" xlink:title="pnluLimeSDR::OnLoopbackChange">
<polygon fill="white" stroke="black" points="180,-266.5 180,-285.5 352,-285.5 352,-266.5 180,-266.5"/>
<text text-anchor="middle" x="266" y="-273.5" font-family="Helvetica,sans-Serif" font-size="10.00">pnluLimeSDR::OnLoopbackChange</text>
</a>
</g>
</g>
<!-- Node1&#45;&gt;Node2 -->
<g id="edge1" class="edge"><title>Node1&#45;&gt;Node2</title>
<path fill="none" stroke="midnightblue" d="M144.221,-264.048C152.582,-264.875 161.212,-265.729 169.833,-266.582"/>
<polygon fill="midnightblue" stroke="midnightblue" points="169.637,-270.08 179.933,-267.582 170.326,-263.114 169.637,-270.08"/>
</g>
<!-- Node27 -->
<g id="node27" class="node"><title>Node27</title>
<g id="a_node27"><a xlink:href="../../d9/d93/classpnluLimeSDR.html#acaacab6fa7e718d4c888de79f8ff36f5" target="_top" xlink:title="pnluLimeSDR::OnReadAll">
<polygon fill="white" stroke="black" points="200.5,-228.5 200.5,-247.5 331.5,-247.5 331.5,-228.5 200.5,-228.5"/>
<text text-anchor="middle" x="266" y="-235.5" font-family="Helvetica,sans-Serif" font-size="10.00">pnluLimeSDR::OnReadAll</text>
</a>
</g>
</g>
<!-- Node1&#45;&gt;Node27 -->
<g id="edge29" class="edge"><title>Node1&#45;&gt;Node27</title>
<path fill="none" stroke="midnightblue" d="M144.221,-249.952C159.135,-248.476 174.906,-246.916 189.955,-245.426"/>
<polygon fill="midnightblue" stroke="midnightblue" points="190.631,-248.877 200.238,-244.409 189.942,-241.911 190.631,-248.877"/>
</g>
<!-- Node3 -->
<g id="node3" class="node"><title>Node3</title>
<g id="a_node3"><a xlink:href="../../df/de1/lms7__api_8cpp.html#a00772bc179a978aa279a6ce238a24c18" target="_top" xlink:title="LMS_WriteFPGAReg">
<polygon fill="white" stroke="black" points="388,-266.5 388,-285.5 498,-285.5 498,-266.5 388,-266.5"/>
<text text-anchor="middle" x="443" y="-273.5" font-family="Helvetica,sans-Serif" font-size="10.00">LMS_WriteFPGAReg</text>
</a>
</g>
</g>
<!-- Node2&#45;&gt;Node3 -->
<g id="edge2" class="edge"><title>Node2&#45;&gt;Node3</title>
<path fill="none" stroke="midnightblue" d="M352.193,-276C360.845,-276 369.527,-276 377.9,-276"/>
<polygon fill="midnightblue" stroke="midnightblue" points="377.938,-279.5 387.938,-276 377.937,-272.5 377.938,-279.5"/>
</g>
<!-- Node4 -->
<g id="node4" class="node"><title>Node4</title>
<g id="a_node4"><a xlink:href="../../d3/d22/classlime_1_1LMS7__Device.html#a4fb66a6ab68f16a0b6506329b05a08b2" target="_top" xlink:title="lime::LMS7_Device::\lGetConnection">
<polygon fill="white" stroke="black" points="534,-305 534,-335 642,-335 642,-305 534,-305"/>
<text text-anchor="start" x="542" y="-323" font-family="Helvetica,sans-Serif" font-size="10.00">lime::LMS7_Device::</text>
<text text-anchor="middle" x="588" y="-312" font-family="Helvetica,sans-Serif" font-size="10.00">GetConnection</text>
</a>
</g>
</g>
<!-- Node3&#45;&gt;Node4 -->
<g id="edge3" class="edge"><title>Node3&#45;&gt;Node4</title>
<path fill="none" stroke="midnightblue" d="M475.029,-285.547C490.626,-290.346 510.054,-296.324 528.326,-301.947"/>
<polygon fill="midnightblue" stroke="midnightblue" points="527.45,-305.339 538.038,-304.935 529.509,-298.648 527.45,-305.339"/>
</g>
<!-- Node5 -->
<g id="node5" class="node"><title>Node5</title>
<g id="a_node5"><a xlink:href="../../d4/d67/lms_8c.html#a0e01e477b1f10e0a63e54de2dd2f8240" target="_top" xlink:title="lms">
<polygon fill="white" stroke="black" points="572,-266.5 572,-285.5 604,-285.5 604,-266.5 572,-266.5"/>
<text text-anchor="middle" x="588" y="-273.5" font-family="Helvetica,sans-Serif" font-size="10.00">lms</text>
</a>
</g>
</g>
<!-- Node3&#45;&gt;Node5 -->
<g id="edge4" class="edge"><title>Node3&#45;&gt;Node5</title>
<path fill="none" stroke="midnightblue" d="M498.062,-276C519.939,-276 544.134,-276 561.759,-276"/>
<polygon fill="midnightblue" stroke="midnightblue" points="561.804,-279.5 571.804,-276 561.804,-272.5 561.804,-279.5"/>
</g>
<!-- Node25 -->
<g id="node25" class="node"><title>Node25</title>
<g id="a_node25"><a xlink:href="../../d5/d6c/namespacelime.html#adc6af0cf8e0a70f3ef09fac1244f8c48" target="_top" xlink:title="lime::ReportError">
<polygon fill="white" stroke="black" points="542.5,-114.5 542.5,-133.5 633.5,-133.5 633.5,-114.5 542.5,-114.5"/>
<text text-anchor="middle" x="588" y="-121.5" font-family="Helvetica,sans-Serif" font-size="10.00">lime::ReportError</text>
</a>
</g>
</g>
<!-- Node3&#45;&gt;Node25 -->
<g id="edge27" class="edge"><title>Node3&#45;&gt;Node25</title>
<path fill="none" stroke="midnightblue" d="M452.945,-266.492C476.62,-241.327 541.151,-172.735 571.206,-140.788"/>
<polygon fill="midnightblue" stroke="midnightblue" points="573.755,-143.186 578.058,-133.505 568.657,-138.39 573.755,-143.186"/>
</g>
<!-- Node6 -->
<g id="node6" class="node"><title>Node6</title>
<g id="a_node6"><a xlink:href="../../d4/d67/lms_8c.html#a433227191fe883dcb8aa15d291bb29a1" target="_top" xlink:title="Case1F">
<polygon fill="white" stroke="black" points="686.5,-532.5 686.5,-551.5 737.5,-551.5 737.5,-532.5 686.5,-532.5"/>
<text text-anchor="middle" x="712" y="-539.5" font-family="Helvetica,sans-Serif" font-size="10.00">Case1F</text>
</a>
</g>
</g>
<!-- Node5&#45;&gt;Node6 -->
<g id="edge5" class="edge"><title>Node5&#45;&gt;Node6</title>
<path fill="none" stroke="midnightblue" d="M604.431,-277.65C616.529,-279.794 632.807,-284.715 642,-296 706.518,-375.196 620.083,-438.856 678,-523 678.637,-523.926 679.335,-524.812 680.083,-525.661"/>
<polygon fill="midnightblue" stroke="midnightblue" points="677.991,-528.477 687.872,-532.301 682.533,-523.15 677.991,-528.477"/>
</g>
<!-- Node7 -->
<g id="node7" class="node"><title>Node7</title>
<g id="a_node7"><a xlink:href="../../d4/d67/lms_8c.html#ace0cd8bf61cb9b86b98f0cef03b5a9d9" target="_top" xlink:title="Case2F">
<polygon fill="white" stroke="black" points="686.5,-494.5 686.5,-513.5 737.5,-513.5 737.5,-494.5 686.5,-494.5"/>
<text text-anchor="middle" x="712" y="-501.5" font-family="Helvetica,sans-Serif" font-size="10.00">Case2F</text>
</a>
</g>
</g>
<!-- Node5&#45;&gt;Node7 -->
<g id="edge6" class="edge"><title>Node5&#45;&gt;Node7</title>
<path fill="none" stroke="midnightblue" d="M604.338,-277.727C616.383,-279.915 632.633,-284.859 642,-296 697.028,-361.452 628.433,-415.321 678,-485 678.754,-486.061 679.588,-487.07 680.484,-488.031"/>
<polygon fill="midnightblue" stroke="midnightblue" points="678.353,-490.81 688.301,-494.457 682.799,-485.403 678.353,-490.81"/>
</g>
<!-- Node8 -->
<g id="node8" class="node"><title>Node8</title>
<g id="a_node8"><a xlink:href="../../d4/d67/lms_8c.html#a5f53b53ccc591e3643c4af2aee2e7f32" target="_top" xlink:title="Case3F">
<polygon fill="white" stroke="black" points="686.5,-456.5 686.5,-475.5 737.5,-475.5 737.5,-456.5 686.5,-456.5"/>
<text text-anchor="middle" x="712" y="-463.5" font-family="Helvetica,sans-Serif" font-size="10.00">Case3F</text>
</a>
</g>
</g>
<!-- Node5&#45;&gt;Node8 -->
<g id="edge7" class="edge"><title>Node5&#45;&gt;Node8</title>
<path fill="none" stroke="midnightblue" d="M604.203,-277.843C616.169,-280.099 632.381,-285.076 642,-296 687.596,-347.777 636.731,-391.712 678,-447 678.779,-448.043 679.632,-449.038 680.546,-449.986"/>
<polygon fill="midnightblue" stroke="midnightblue" points="678.457,-452.798 688.437,-456.358 682.855,-447.352 678.457,-452.798"/>
</g>
<!-- Node9 -->
<g id="node9" class="node"><title>Node9</title>
<g id="a_node9"><a xlink:href="../../d4/d67/lms_8c.html#a5086763d5b258349bc13d6be7e7d0665" target="_top" xlink:title="Case4F">
<polygon fill="white" stroke="black" points="686.5,-418.5 686.5,-437.5 737.5,-437.5 737.5,-418.5 686.5,-418.5"/>
<text text-anchor="middle" x="712" y="-425.5" font-family="Helvetica,sans-Serif" font-size="10.00">Case4F</text>
</a>
</g>
</g>
<!-- Node5&#45;&gt;Node9 -->
<g id="edge8" class="edge"><title>Node5&#45;&gt;Node9</title>
<path fill="none" stroke="midnightblue" d="M604.473,-278.135C616.268,-280.544 632.116,-285.584 642,-296 678.282,-334.235 644.922,-367.962 678,-409 678.933,-410.158 679.958,-411.259 681.05,-412.305"/>
<polygon fill="midnightblue" stroke="midnightblue" points="678.93,-415.09 688.992,-418.407 683.194,-409.539 678.93,-415.09"/>
</g>
<!-- Node10 -->
<g id="node10" class="node"><title>Node10</title>
<g id="a_node10"><a xlink:href="../../db/de5/recipes_8c.html#aee25e218394217a134e805ea09fb0fe9" target="_top" xlink:title="free_ivector">
<polygon fill="white" stroke="black" points="678,-380.5 678,-399.5 746,-399.5 746,-380.5 678,-380.5"/>
<text text-anchor="middle" x="712" y="-387.5" font-family="Helvetica,sans-Serif" font-size="10.00">free_ivector</text>
</a>
</g>
</g>
<!-- Node5&#45;&gt;Node10 -->
<g id="edge9" class="edge"><title>Node5&#45;&gt;Node10</title>
<path fill="none" stroke="midnightblue" d="M604.085,-278.53C615.666,-281.156 631.416,-286.296 642,-296 669.253,-320.988 652.852,-343.895 678,-371 679.175,-372.266 680.453,-373.472 681.802,-374.616"/>
<polygon fill="midnightblue" stroke="midnightblue" points="679.889,-377.55 690.067,-380.492 683.945,-371.845 679.889,-377.55"/>
</g>
<!-- Node11 -->
<g id="node11" class="node"><title>Node11</title>
<g id="a_node11"><a xlink:href="../../db/de5/recipes_8c.html#a3e0d121b098c19c0bdc2429e5b9f1625" target="_top" xlink:title="free_matrix">
<polygon fill="white" stroke="black" points="679.5,-342.5 679.5,-361.5 744.5,-361.5 744.5,-342.5 679.5,-342.5"/>
<text text-anchor="middle" x="712" y="-349.5" font-family="Helvetica,sans-Serif" font-size="10.00">free_matrix</text>
</a>
</g>
</g>
<!-- Node5&#45;&gt;Node11 -->
<g id="edge10" class="edge"><title>Node5&#45;&gt;Node11</title>
<path fill="none" stroke="midnightblue" d="M604.06,-280.068C615.049,-283.412 630.049,-288.775 642,-296 660.32,-307.075 661.324,-314.577 678,-328 681.477,-330.798 685.241,-333.673 688.94,-336.417"/>
<polygon fill="midnightblue" stroke="midnightblue" points="687.142,-339.437 697.289,-342.484 691.257,-333.774 687.142,-339.437"/>
</g>
<!-- Node12 -->
<g id="node12" class="node"><title>Node12</title>
<g id="a_node12"><a xlink:href="../../db/de5/recipes_8c.html#a8214a52d888e820222c0382648329c0c" target="_top" xlink:title="free_vector">
<polygon fill="white" stroke="black" points="782,-285.5 782,-304.5 847,-304.5 847,-285.5 782,-285.5"/>
<text text-anchor="middle" x="814.5" y="-292.5" font-family="Helvetica,sans-Serif" font-size="10.00">free_vector</text>
</a>
</g>
</g>
<!-- Node5&#45;&gt;Node12 -->
<g id="edge11" class="edge"><title>Node5&#45;&gt;Node12</title>
<path fill="none" stroke="midnightblue" d="M604.277,-280.288C621.881,-284.989 651.76,-292.23 678,-295 709.289,-298.303 744.869,-298.154 771.716,-297.26"/>
<polygon fill="midnightblue" stroke="midnightblue" points="772.056,-300.749 781.915,-296.87 771.789,-293.754 772.056,-300.749"/>
</g>
<!-- Node13 -->
<g id="node13" class="node"><title>Node13</title>
<g id="a_node13"><a xlink:href="../../d4/d67/lms_8c.html#ad1d6c875ff429888b51dd1155f0311ad" target="_top" xlink:title="ivector">
<polygon fill="white" stroke="black" points="689,-266.5 689,-285.5 735,-285.5 735,-266.5 689,-266.5"/>
<text text-anchor="middle" x="712" y="-273.5" font-family="Helvetica,sans-Serif" font-size="10.00">ivector</text>
</a>
</g>
</g>
<!-- Node5&#45;&gt;Node13 -->
<g id="edge12" class="edge"><title>Node5&#45;&gt;Node13</title>
<path fill="none" stroke="midnightblue" d="M604.451,-276C622.995,-276 654.584,-276 678.566,-276"/>
<polygon fill="midnightblue" stroke="midnightblue" points="678.646,-279.5 688.646,-276 678.645,-272.5 678.646,-279.5"/>
</g>
<!-- Node14 -->
<g id="node14" class="node"><title>Node14</title>
<g id="a_node14"><a xlink:href="../../db/de5/recipes_8c.html#a66ff65ad0355ec1f4a7722bcdafc8cd3" target="_top" xlink:title="lubksb">
<polygon fill="white" stroke="black" points="689.5,-228.5 689.5,-247.5 734.5,-247.5 734.5,-228.5 689.5,-228.5"/>
<text text-anchor="middle" x="712" y="-235.5" font-family="Helvetica,sans-Serif" font-size="10.00">lubksb</text>
</a>
</g>
</g>
<!-- Node5&#45;&gt;Node14 -->
<g id="edge13" class="edge"><title>Node5&#45;&gt;Node14</title>
<path fill="none" stroke="midnightblue" d="M604.451,-271.187C623.19,-265.351 655.251,-255.364 679.321,-247.867"/>
<polygon fill="midnightblue" stroke="midnightblue" points="680.579,-251.141 689.085,-244.826 678.497,-244.458 680.579,-251.141"/>
</g>
<!-- Node15 -->
<g id="node15" class="node"><title>Node15</title>
<g id="a_node15"><a xlink:href="../../db/de5/recipes_8c.html#a623fec796d9d53e5e4a4d30226547da7" target="_top" xlink:title="ludcmp">
<polygon fill="white" stroke="black" points="688,-190.5 688,-209.5 736,-209.5 736,-190.5 688,-190.5"/>
<text text-anchor="middle" x="712" y="-197.5" font-family="Helvetica,sans-Serif" font-size="10.00">ludcmp</text>
</a>
</g>
</g>
<!-- Node5&#45;&gt;Node15 -->
<g id="edge14" class="edge"><title>Node5&#45;&gt;Node15</title>
<path fill="none" stroke="midnightblue" d="M603.668,-266.304C621.201,-254.786 651.5,-235.103 678,-219 680.355,-217.569 682.818,-216.1 685.292,-214.644"/>
<polygon fill="midnightblue" stroke="midnightblue" points="687.234,-217.564 694.122,-209.514 683.717,-211.511 687.234,-217.564"/>
</g>
<!-- Node18 -->
<g id="node18" class="node"><title>Node18</title>
<g id="a_node18"><a xlink:href="../../d4/d67/lms_8c.html#a37bcb1539d76b53344102435e2ab9c91" target="_top" xlink:title="matrix">
<polygon fill="white" stroke="black" points="690,-152.5 690,-171.5 734,-171.5 734,-152.5 690,-152.5"/>
<text text-anchor="middle" x="712" y="-159.5" font-family="Helvetica,sans-Serif" font-size="10.00">matrix</text>
</a>
</g>
</g>
<!-- Node5&#45;&gt;Node18 -->
<g id="edge19" class="edge"><title>Node5&#45;&gt;Node18</title>
<path fill="none" stroke="midnightblue" d="M596.306,-266.494C610.59,-248.33 643.816,-208.093 678,-181 679.768,-179.599 681.651,-178.233 683.587,-176.919"/>
<polygon fill="midnightblue" stroke="midnightblue" points="685.588,-179.796 692.221,-171.534 681.884,-173.857 685.588,-179.796"/>
</g>
<!-- Node19 -->
<g id="node19" class="node"><title>Node19</title>
<g id="a_node19"><a xlink:href="../../d8/d91/rounding_8c.html#aa8d7512cdf5bfbf811cef6a8a091c679" target="_top" xlink:title="round2csd">
<polygon fill="white" stroke="black" points="681,-114.5 681,-133.5 743,-133.5 743,-114.5 681,-114.5"/>
<text text-anchor="middle" x="712" y="-121.5" font-family="Helvetica,sans-Serif" font-size="10.00">round2csd</text>
</a>
</g>
</g>
<!-- Node5&#45;&gt;Node19 -->
<g id="edge20" class="edge"><title>Node5&#45;&gt;Node19</title>
<path fill="none" stroke="midnightblue" d="M593.567,-266.211C604.977,-242.578 636.799,-181.516 678,-143 679.295,-141.79 680.68,-140.624 682.124,-139.508"/>
<polygon fill="midnightblue" stroke="midnightblue" points="684.446,-142.164 690.787,-133.676 680.537,-136.357 684.446,-142.164"/>
</g>
<!-- Node23 -->
<g id="node23" class="node"><title>Node23</title>
<g id="a_node23"><a xlink:href="../../d8/d91/rounding_8c.html#aca2670cc0fbf948a6b9cb670047c9d5b" target="_top" xlink:title="round2int">
<polygon fill="white" stroke="black" points="684,-76.5 684,-95.5 740,-95.5 740,-76.5 684,-76.5"/>
<text text-anchor="middle" x="712" y="-83.5" font-family="Helvetica,sans-Serif" font-size="10.00">round2int</text>
</a>
</g>
</g>
<!-- Node5&#45;&gt;Node23 -->
<g id="edge24" class="edge"><title>Node5&#45;&gt;Node23</title>
<path fill="none" stroke="midnightblue" d="M591.878,-266.336C600.635,-238.304 629.37,-155.742 678,-105 679.195,-103.753 680.49,-102.563 681.852,-101.431"/>
<polygon fill="midnightblue" stroke="midnightblue" points="683.989,-104.206 690.154,-95.5906 679.961,-98.4809 683.989,-104.206"/>
</g>
<!-- Node24 -->
<g id="node24" class="node"><title>Node24</title>
<g id="a_node24"><a xlink:href="../../d4/d67/lms_8c.html#ac81ca32708341eb34b25d515d00bc748" target="_top" xlink:title="vector">
<polygon fill="white" stroke="black" points="690,-38.5 690,-57.5 734,-57.5 734,-38.5 690,-38.5"/>
<text text-anchor="middle" x="712" y="-45.5" font-family="Helvetica,sans-Serif" font-size="10.00">vector</text>
</a>
</g>
</g>
<!-- Node5&#45;&gt;Node24 -->
<g id="edge26" class="edge"><title>Node5&#45;&gt;Node24</title>
<path fill="none" stroke="midnightblue" d="M592.908,-266.353C609.142,-226.346 670.739,-75.188 678,-67 679.146,-65.7078 680.402,-64.4815 681.733,-63.3211"/>
<polygon fill="midnightblue" stroke="midnightblue" points="683.883,-66.0859 689.943,-57.3953 679.786,-60.4099 683.883,-66.0859"/>
</g>
<!-- Node15&#45;&gt;Node12 -->
<g id="edge15" class="edge"><title>Node15&#45;&gt;Node12</title>
<path fill="none" stroke="midnightblue" d="M732.186,-209.656C736.9,-212.397 741.797,-215.577 746,-219 767.243,-236.301 787.546,-260.569 800.236,-276.991"/>
<polygon fill="midnightblue" stroke="midnightblue" points="797.633,-279.352 806.46,-285.212 803.214,-275.127 797.633,-279.352"/>
</g>
<!-- Node16 -->
<g id="node16" class="node"><title>Node16</title>
<g id="a_node16"><a xlink:href="../../db/de5/recipes_8c.html#a208e98f19b2f252315399d02c0594a46" target="_top" xlink:title="nrerror">
<polygon fill="white" stroke="black" points="883,-209.5 883,-228.5 927,-228.5 927,-209.5 883,-209.5"/>
<text text-anchor="middle" x="905" y="-216.5" font-family="Helvetica,sans-Serif" font-size="10.00">nrerror</text>
</a>
</g>
</g>
<!-- Node15&#45;&gt;Node16 -->
<g id="edge16" class="edge"><title>Node15&#45;&gt;Node16</title>
<path fill="none" stroke="midnightblue" d="M736.306,-208.1C749.528,-212.267 766.486,-216.903 782,-219 812.534,-223.127 847.761,-222.564 872.488,-221.308"/>
<polygon fill="midnightblue" stroke="midnightblue" points="872.944,-224.788 882.726,-220.718 872.541,-217.799 872.944,-224.788"/>
</g>
<!-- Node17 -->
<g id="node17" class="node"><title>Node17</title>
<g id="a_node17"><a xlink:href="../../db/de5/recipes_8c.html#a5e6092211a5f7e2d6ae9282379d3c604" target="_top" xlink:title="vector">
<polygon fill="white" stroke="black" points="792.5,-190.5 792.5,-209.5 836.5,-209.5 836.5,-190.5 792.5,-190.5"/>
<text text-anchor="middle" x="814.5" y="-197.5" font-family="Helvetica,sans-Serif" font-size="10.00">vector</text>
</a>
</g>
</g>
<!-- Node15&#45;&gt;Node17 -->
<g id="edge17" class="edge"><title>Node15&#45;&gt;Node17</title>
<path fill="none" stroke="midnightblue" d="M736.057,-200C749.673,-200 767.102,-200 781.977,-200"/>
<polygon fill="midnightblue" stroke="midnightblue" points="782.265,-203.5 792.265,-200 782.265,-196.5 782.265,-203.5"/>
</g>
<!-- Node17&#45;&gt;Node16 -->
<g id="edge18" class="edge"><title>Node17&#45;&gt;Node16</title>
<path fill="none" stroke="midnightblue" d="M836.923,-204.599C847.685,-206.91 860.928,-209.753 872.796,-212.301"/>
<polygon fill="midnightblue" stroke="midnightblue" points="872.262,-215.766 882.774,-214.443 873.731,-208.922 872.262,-215.766"/>
</g>
<!-- Node20 -->
<g id="node20" class="node"><title>Node20</title>
<g id="a_node20"><a xlink:href="../../d8/d91/rounding_8c.html#a2cff6b77e73872659c44b0c99f6bd97f" target="_top" xlink:title="csd2int">
<polygon fill="white" stroke="black" points="790.5,-152.5 790.5,-171.5 838.5,-171.5 838.5,-152.5 790.5,-152.5"/>
<text text-anchor="middle" x="814.5" y="-159.5" font-family="Helvetica,sans-Serif" font-size="10.00">csd2int</text>
</a>
</g>
</g>
<!-- Node19&#45;&gt;Node20 -->
<g id="edge21" class="edge"><title>Node19&#45;&gt;Node20</title>
<path fill="none" stroke="midnightblue" d="M738.36,-133.589C751.181,-138.437 766.894,-144.378 780.631,-149.572"/>
<polygon fill="midnightblue" stroke="midnightblue" points="779.623,-152.933 790.214,-153.195 782.099,-146.385 779.623,-152.933"/>
</g>
<!-- Node21 -->
<g id="node21" class="node"><title>Node21</title>
<g id="a_node21"><a xlink:href="../../db/d82/wglew_8h.html#a500a82aecba06f4550f6849b8099ca21" target="_top" xlink:title="int">
<polygon fill="white" stroke="black" points="800,-76.5 800,-95.5 829,-95.5 829,-76.5 800,-76.5"/>
<text text-anchor="middle" x="814.5" y="-83.5" font-family="Helvetica,sans-Serif" font-size="10.00">int</text>
</a>
</g>
</g>
<!-- Node19&#45;&gt;Node21 -->
<g id="edge22" class="edge"><title>Node19&#45;&gt;Node21</title>
<path fill="none" stroke="midnightblue" d="M738.36,-114.411C754.388,-108.351 774.934,-100.582 790.49,-94.7003"/>
<polygon fill="midnightblue" stroke="midnightblue" points="791.778,-97.9552 799.894,-91.1446 789.302,-91.4076 791.778,-97.9552"/>
</g>
<!-- Node22 -->
<g id="node22" class="node"><title>Node22</title>
<g id="a_node22"><a xlink:href="../../d8/d91/rounding_8c.html#ab3a64ec72c5600bc114621e93309c8c3" target="_top" xlink:title="int2csd">
<polygon fill="white" stroke="black" points="790.5,-114.5 790.5,-133.5 838.5,-133.5 838.5,-114.5 790.5,-114.5"/>
<text text-anchor="middle" x="814.5" y="-121.5" font-family="Helvetica,sans-Serif" font-size="10.00">int2csd</text>
</a>
</g>
</g>
<!-- Node19&#45;&gt;Node22 -->
<g id="edge23" class="edge"><title>Node19&#45;&gt;Node22</title>
<path fill="none" stroke="midnightblue" d="M743.153,-124C754.87,-124 768.331,-124 780.321,-124"/>
<polygon fill="midnightblue" stroke="midnightblue" points="780.398,-127.5 790.398,-124 780.398,-120.5 780.398,-127.5"/>
</g>
<!-- Node23&#45;&gt;Node21 -->
<g id="edge25" class="edge"><title>Node23&#45;&gt;Node21</title>
<path fill="none" stroke="midnightblue" d="M740.197,-86C755.576,-86 774.634,-86 789.462,-86"/>
<polygon fill="midnightblue" stroke="midnightblue" points="789.846,-89.5001 799.846,-86 789.846,-82.5001 789.846,-89.5001"/>
</g>
<!-- Node26 -->
<g id="node26" class="node"><title>Node26</title>
<g id="a_node26"><a xlink:href="../../d9/df5/Logger_8cpp.html#ada38bf01d6d691de953ed69268ea6516" target="_top" xlink:title="errToStr">
<polygon fill="white" stroke="black" points="686,-0.5 686,-19.5 738,-19.5 738,-0.5 686,-0.5"/>
<text text-anchor="middle" x="712" y="-7.5" font-family="Helvetica,sans-Serif" font-size="10.00">errToStr</text>
</a>
</g>
</g>
<!-- Node25&#45;&gt;Node26 -->
<g id="edge28" class="edge"><title>Node25&#45;&gt;Node26</title>
<path fill="none" stroke="midnightblue" d="M596.306,-114.494C610.59,-96.3305 643.816,-56.0931 678,-29 679.768,-27.5987 681.651,-26.2334 683.587,-24.9194"/>
<polygon fill="midnightblue" stroke="midnightblue" points="685.588,-27.7962 692.221,-19.5343 681.884,-21.8567 685.588,-27.7962"/>
</g>
</g>
</svg>
