<?xml version="1.0" encoding="UTF-8" standalone="no"?>
<!DOCTYPE svg PUBLIC "-//W3C//DTD SVG 1.1//EN"
 "http://www.w3.org/Graphics/SVG/1.1/DTD/svg11.dtd">
<!-- Generated by graphviz version 2.38.0 (20140413.2041)
 -->
<!-- Title: glBegin Pages: 1 -->
<svg width="1101pt" height="216pt"
 viewBox="0.00 0.00 1101.00 215.87" xmlns="http://www.w3.org/2000/svg" xmlns:xlink="http://www.w3.org/1999/xlink">
<g id="graph0" class="graph" transform="scale(1 1) rotate(0) translate(4 211.872)">
<title>glBegin</title>
<polygon fill="white" stroke="none" points="-4,4 -4,-211.872 1097,-211.872 1097,4 -4,4"/>
<!-- Node1 -->
<g id="node1" class="node"><title>Node1</title>
<polygon fill="#bfbfbf" stroke="black" points="0,-94 0,-113 49,-113 49,-94 0,-94"/>
<text text-anchor="middle" x="24.5" y="-101" font-family="Helvetica,sans-Serif" font-size="10.00">glBegin</text>
</g>
<!-- Node2 -->
<g id="node2" class="node"><title>Node2</title>
<g id="a_node2"><a xlink:href="../../d9/d73/classOpenGLGraph.html#af2f1cb689fb6884d8509877ecdf29fb8" target="_top" xlink:title="Draw graph data series. ">
<polygon fill="white" stroke="black" points="645,-116 645,-135 753,-135 753,-116 645,-116"/>
<text text-anchor="middle" x="699" y="-123" font-family="Helvetica,sans-Serif" font-size="10.00">OpenGLGraph::Draw</text>
</a>
</g>
</g>
<!-- Node1&#45;&gt;Node2 -->
<g id="edge1" class="edge"><title>Node1&#45;&gt;Node2</title>
<path fill="none" stroke="midnightblue" d="M41.2102,-120.676C52.293,-131.56 68.123,-144.807 85,-151.5 301.541,-237.381 380.887,-210.724 609,-163.5 635.488,-158.016 663.86,-144.4 681.271,-135.05"/>
<polygon fill="midnightblue" stroke="midnightblue" points="43.5132,-118.024 34.0321,-113.295 38.495,-122.904 43.5132,-118.024"/>
</g>
<!-- Node7 -->
<g id="node7" class="node"><title>Node7</title>
<g id="a_node7"><a xlink:href="../../d9/d73/classOpenGLGraph.html#a3c2849fd8d51c34348516ee747ee82b4" target="_top" xlink:title="Draw data markers. ">
<polygon fill="white" stroke="black" points="450,-135 450,-154 593,-154 593,-135 450,-135"/>
<text text-anchor="middle" x="521.5" y="-142" font-family="Helvetica,sans-Serif" font-size="10.00">OpenGLGraph::DrawMarkers</text>
</a>
</g>
</g>
<!-- Node1&#45;&gt;Node7 -->
<g id="edge6" class="edge"><title>Node1&#45;&gt;Node7</title>
<path fill="none" stroke="midnightblue" d="M52.7417,-117.379C62.6437,-121.764 74.0861,-126.091 85,-128.5 211.151,-156.345 362.763,-154.163 449.75,-149.622"/>
<polygon fill="midnightblue" stroke="midnightblue" points="53.9727,-114.091 43.4298,-113.043 51.0183,-120.437 53.9727,-114.091"/>
</g>
<!-- Node8 -->
<g id="node8" class="node"><title>Node8</title>
<g id="a_node8"><a xlink:href="../../d9/d73/classOpenGLGraph.html#ae3501103179479cd9e60e9654e4e557f" target="_top" xlink:title="Draw static elements (background colors, titles, grid) ">
<polygon fill="white" stroke="black" points="434,-59 434,-78 609,-78 609,-59 434,-59"/>
<text text-anchor="middle" x="521.5" y="-66" font-family="Helvetica,sans-Serif" font-size="10.00">OpenGLGraph::DrawStaticElements</text>
</a>
</g>
</g>
<!-- Node1&#45;&gt;Node8 -->
<g id="edge8" class="edge"><title>Node1&#45;&gt;Node8</title>
<path fill="none" stroke="midnightblue" d="M53.4527,-89.8263C63.2012,-85.71 74.3658,-81.7036 85,-79.5 204.049,-54.8308 345.305,-56.8054 433.939,-61.6899"/>
<polygon fill="midnightblue" stroke="midnightblue" points="51.9654,-86.6571 44.2483,-93.9165 54.808,-93.054 51.9654,-86.6571"/>
</g>
<!-- Node9 -->
<g id="node9" class="node"><title>Node9</title>
<g id="a_node9"><a xlink:href="../../d8/d9b/classGLFont.html#ab874e740abc6dce31812b4d93cfff762" target="_top" xlink:title="GLFont::render_textScreen\lSpace">
<polygon fill="white" stroke="black" points="85,-0.5 85,-30.5 219,-30.5 219,-0.5 85,-0.5"/>
<text text-anchor="start" x="93" y="-18.5" font-family="Helvetica,sans-Serif" font-size="10.00">GLFont::render_textScreen</text>
<text text-anchor="middle" x="152" y="-7.5" font-family="Helvetica,sans-Serif" font-size="10.00">Space</text>
</a>
</g>
</g>
<!-- Node1&#45;&gt;Node9 -->
<g id="edge10" class="edge"><title>Node1&#45;&gt;Node9</title>
<path fill="none" stroke="midnightblue" d="M40.1532,-86.3093C51.4617,-73.8127 68.0017,-57.1199 85,-45.5 93.2087,-39.8886 102.636,-34.8836 111.749,-30.6451"/>
<polygon fill="midnightblue" stroke="midnightblue" points="37.5178,-84.0061 33.5251,-93.8199 42.7663,-88.6379 37.5178,-84.0061"/>
</g>
<!-- Node10 -->
<g id="node10" class="node"><title>Node10</title>
<g id="a_node10"><a xlink:href="../../d8/d9b/classGLFont.html#a6386938ce029036c43216a512de5123b" target="_top" xlink:title="GLFont::render_textWorld\lSpace">
<polygon fill="white" stroke="black" points="87.5,-88.5 87.5,-118.5 216.5,-118.5 216.5,-88.5 87.5,-88.5"/>
<text text-anchor="start" x="95.5" y="-106.5" font-family="Helvetica,sans-Serif" font-size="10.00">GLFont::render_textWorld</text>
<text text-anchor="middle" x="152" y="-95.5" font-family="Helvetica,sans-Serif" font-size="10.00">Space</text>
</a>
</g>
</g>
<!-- Node1&#45;&gt;Node10 -->
<g id="edge11" class="edge"><title>Node1&#45;&gt;Node10</title>
<path fill="none" stroke="midnightblue" d="M59.1876,-103.5C67.8936,-103.5 77.5576,-103.5 87.2533,-103.5"/>
<polygon fill="midnightblue" stroke="midnightblue" points="59.1056,-100 49.1056,-103.5 59.1056,-107 59.1056,-100"/>
</g>
<!-- Node3 -->
<g id="node3" class="node"><title>Node3</title>
<g id="a_node3"><a xlink:href="../../d5/d45/classfftviewer__frFFTviewer.html#aa01d7b5ad35c15051574834869accae0" target="_top" xlink:title="fftviewer_frFFTviewer\l::OnUpdatePlots">
<polygon fill="white" stroke="black" points="789,-132.5 789,-162.5 901,-162.5 901,-132.5 789,-132.5"/>
<text text-anchor="start" x="797" y="-150.5" font-family="Helvetica,sans-Serif" font-size="10.00">fftviewer_frFFTviewer</text>
<text text-anchor="middle" x="845" y="-139.5" font-family="Helvetica,sans-Serif" font-size="10.00">::OnUpdatePlots</text>
</a>
</g>
</g>
<!-- Node2&#45;&gt;Node3 -->
<g id="edge2" class="edge"><title>Node2&#45;&gt;Node3</title>
<path fill="none" stroke="midnightblue" d="M763.358,-135.18C771.767,-136.464 780.336,-137.774 788.596,-139.036"/>
<polygon fill="midnightblue" stroke="midnightblue" points="763.625,-131.68 753.211,-133.629 762.568,-138.6 763.625,-131.68"/>
</g>
<!-- Node5 -->
<g id="node5" class="node"><title>Node5</title>
<g id="a_node5"><a xlink:href="../../d9/d73/classOpenGLGraph.html#a3ec7e57bd2baa9fffbd14a0fb952e8a8" target="_top" xlink:title="OpenGLGraph::render">
<polygon fill="white" stroke="black" points="789,-94 789,-113 901,-113 901,-94 789,-94"/>
<text text-anchor="middle" x="845" y="-101" font-family="Helvetica,sans-Serif" font-size="10.00">OpenGLGraph::render</text>
</a>
</g>
</g>
<!-- Node2&#45;&gt;Node5 -->
<g id="edge4" class="edge"><title>Node2&#45;&gt;Node5</title>
<path fill="none" stroke="midnightblue" d="M763.358,-115.82C771.767,-114.536 780.336,-113.226 788.596,-111.964"/>
<polygon fill="midnightblue" stroke="midnightblue" points="762.568,-112.4 753.211,-117.371 763.625,-119.32 762.568,-112.4"/>
</g>
<!-- Node4 -->
<g id="node4" class="node"><title>Node4</title>
<g id="a_node4"><a xlink:href="../../d5/d45/classfftviewer__frFFTviewer.html#a4bcd0ebcddfbe4227a156a426db9d5b9" target="_top" xlink:title="Constructor. ">
<polygon fill="white" stroke="black" points="956,-132.5 956,-162.5 1074,-162.5 1074,-132.5 956,-132.5"/>
<text text-anchor="start" x="964" y="-150.5" font-family="Helvetica,sans-Serif" font-size="10.00">fftviewer_frFFTviewer</text>
<text text-anchor="middle" x="1015" y="-139.5" font-family="Helvetica,sans-Serif" font-size="10.00">::fftviewer_frFFTviewer</text>
</a>
</g>
</g>
<!-- Node3&#45;&gt;Node4 -->
<g id="edge3" class="edge"><title>Node3&#45;&gt;Node4</title>
<path fill="none" stroke="midnightblue" d="M911.094,-147.5C925.886,-147.5 941.503,-147.5 955.978,-147.5"/>
<polygon fill="midnightblue" stroke="midnightblue" points="911.01,-144 901.009,-147.5 911.009,-151 911.01,-144"/>
</g>
<!-- Node6 -->
<g id="node6" class="node"><title>Node6</title>
<g id="a_node6"><a xlink:href="../../d9/d73/classOpenGLGraph.html#ae8a4b37513a42fc6604a56ba03a24238" target="_top" xlink:title="OpenGLGraph::SetInfoMessage">
<polygon fill="white" stroke="black" points="937,-94 937,-113 1093,-113 1093,-94 937,-94"/>
<text text-anchor="middle" x="1015" y="-101" font-family="Helvetica,sans-Serif" font-size="10.00">OpenGLGraph::SetInfoMessage</text>
</a>
</g>
</g>
<!-- Node5&#45;&gt;Node6 -->
<g id="edge5" class="edge"><title>Node5&#45;&gt;Node6</title>
<path fill="none" stroke="midnightblue" d="M911.15,-103.5C919.592,-103.5 928.302,-103.5 936.914,-103.5"/>
<polygon fill="midnightblue" stroke="midnightblue" points="911.01,-100 901.009,-103.5 911.009,-107 911.01,-100"/>
</g>
<!-- Node7&#45;&gt;Node2 -->
<g id="edge7" class="edge"><title>Node7&#45;&gt;Node2</title>
<path fill="none" stroke="midnightblue" d="M603.31,-135.751C617.385,-134.228 631.699,-132.678 644.793,-131.26"/>
<polygon fill="midnightblue" stroke="midnightblue" points="602.689,-132.298 593.124,-136.854 603.443,-139.257 602.689,-132.298"/>
</g>
<!-- Node8&#45;&gt;Node2 -->
<g id="edge9" class="edge"><title>Node8&#45;&gt;Node2</title>
<path fill="none" stroke="midnightblue" d="M569.755,-80.8346C582.555,-84.3866 596.364,-88.4123 609,-92.5 631.265,-99.7023 656.213,-109.068 674.017,-115.981"/>
<polygon fill="midnightblue" stroke="midnightblue" points="570.316,-77.3596 559.747,-78.0953 568.468,-84.1112 570.316,-77.3596"/>
</g>
<!-- Node11 -->
<g id="node11" class="node"><title>Node11</title>
<g id="a_node11"><a xlink:href="../../d9/d73/classOpenGLGraph.html#a4670744215bd7f9f79aef761b42e783b" target="_top" xlink:title="Prints text in defined position. ">
<polygon fill="white" stroke="black" points="255,-96 255,-115 398,-115 398,-96 255,-96"/>
<text text-anchor="middle" x="326.5" y="-103" font-family="Helvetica,sans-Serif" font-size="10.00">OpenGLGraph::glRenderText</text>
</a>
</g>
</g>
<!-- Node10&#45;&gt;Node11 -->
<g id="edge12" class="edge"><title>Node10&#45;&gt;Node11</title>
<path fill="none" stroke="midnightblue" d="M227.025,-104.358C236.224,-104.465 245.612,-104.574 254.759,-104.68"/>
<polygon fill="midnightblue" stroke="midnightblue" points="226.782,-100.855 216.743,-104.239 226.701,-107.855 226.782,-100.855"/>
</g>
<!-- Node11&#45;&gt;Node2 -->
<g id="edge14" class="edge"><title>Node11&#45;&gt;Node2</title>
<path fill="none" stroke="midnightblue" d="M408.415,-109.868C480.176,-113.742 582.934,-119.289 644.791,-122.628"/>
<polygon fill="midnightblue" stroke="midnightblue" points="408.234,-106.353 398.06,-109.309 407.857,-113.343 408.234,-106.353"/>
</g>
<!-- Node11&#45;&gt;Node7 -->
<g id="edge15" class="edge"><title>Node11&#45;&gt;Node7</title>
<path fill="none" stroke="midnightblue" d="M384.853,-117.089C413.098,-122.797 446.731,-129.593 473.44,-134.991"/>
<polygon fill="midnightblue" stroke="midnightblue" points="385.208,-113.591 374.713,-115.04 383.822,-120.452 385.208,-113.591"/>
</g>
<!-- Node11&#45;&gt;Node8 -->
<g id="edge13" class="edge"><title>Node11&#45;&gt;Node8</title>
<path fill="none" stroke="midnightblue" d="M387.217,-94.0517C413.968,-88.9233 445.154,-82.9446 470.631,-78.0604"/>
<polygon fill="midnightblue" stroke="midnightblue" points="386.364,-90.6513 377.202,-95.9716 387.682,-97.5261 386.364,-90.6513"/>
</g>
</g>
</svg>
