<?xml version="1.0" encoding="UTF-8" standalone="no"?>
<!DOCTYPE svg PUBLIC "-//W3C//DTD SVG 1.1//EN"
 "http://www.w3.org/Graphics/SVG/1.1/DTD/svg11.dtd">
<!-- Generated by graphviz version 2.38.0 (20140413.2041)
 -->
<!-- Title: glVertex3f Pages: 1 -->
<svg width="764pt" height="94pt"
 viewBox="0.00 0.00 764.00 93.50" xmlns="http://www.w3.org/2000/svg" xmlns:xlink="http://www.w3.org/1999/xlink">
<g id="graph0" class="graph" transform="scale(1 1) rotate(0) translate(4 89.5)">
<title>glVertex3f</title>
<polygon fill="white" stroke="none" points="-4,4 -4,-89.5 760,-89.5 760,4 -4,4"/>
<!-- Node1 -->
<g id="node1" class="node"><title>Node1</title>
<polygon fill="#bfbfbf" stroke="black" points="0,-38.5 0,-57.5 61,-57.5 61,-38.5 0,-38.5"/>
<text text-anchor="middle" x="30.5" y="-45.5" font-family="Helvetica,sans-Serif" font-size="10.00">glVertex3f</text>
</g>
<!-- Node2 -->
<g id="node2" class="node"><title>Node2</title>
<g id="a_node2"><a xlink:href="../../d9/d73/classOpenGLGraph.html#af2f1cb689fb6884d8509877ecdf29fb8" target="_top" xlink:title="Draw graph data series. ">
<polygon fill="white" stroke="black" points="308,-38.5 308,-57.5 416,-57.5 416,-38.5 308,-38.5"/>
<text text-anchor="middle" x="362" y="-45.5" font-family="Helvetica,sans-Serif" font-size="10.00">OpenGLGraph::Draw</text>
</a>
</g>
</g>
<!-- Node1&#45;&gt;Node2 -->
<g id="edge1" class="edge"><title>Node1&#45;&gt;Node2</title>
<path fill="none" stroke="midnightblue" d="M67.7363,-60.4829C77.1507,-63.1788 87.3582,-65.6298 97,-67 174.004,-77.943 194.652,-75.1643 272,-67 289.598,-65.1425 308.833,-61.2736 324.904,-57.5088"/>
<polygon fill="midnightblue" stroke="midnightblue" points="68.4814,-57.0516 57.8961,-57.5009 66.4513,-63.7507 68.4814,-57.0516"/>
</g>
<!-- Node7 -->
<g id="node7" class="node"><title>Node7</title>
<g id="a_node7"><a xlink:href="../../d9/d73/classOpenGLGraph.html#a3c2849fd8d51c34348516ee747ee82b4" target="_top" xlink:title="Draw data markers. ">
<polygon fill="white" stroke="black" points="113,-38.5 113,-57.5 256,-57.5 256,-38.5 113,-38.5"/>
<text text-anchor="middle" x="184.5" y="-45.5" font-family="Helvetica,sans-Serif" font-size="10.00">OpenGLGraph::DrawMarkers</text>
</a>
</g>
</g>
<!-- Node1&#45;&gt;Node7 -->
<g id="edge6" class="edge"><title>Node1&#45;&gt;Node7</title>
<path fill="none" stroke="midnightblue" d="M71.4241,-48C84.1811,-48 98.7038,-48 112.968,-48"/>
<polygon fill="midnightblue" stroke="midnightblue" points="71.168,-44.5001 61.168,-48 71.1679,-51.5001 71.168,-44.5001"/>
</g>
<!-- Node8 -->
<g id="node8" class="node"><title>Node8</title>
<g id="a_node8"><a xlink:href="../../d9/d73/classOpenGLGraph.html#ae3501103179479cd9e60e9654e4e557f" target="_top" xlink:title="Draw static elements (background colors, titles, grid) ">
<polygon fill="white" stroke="black" points="97,-0.5 97,-19.5 272,-19.5 272,-0.5 97,-0.5"/>
<text text-anchor="middle" x="184.5" y="-7.5" font-family="Helvetica,sans-Serif" font-size="10.00">OpenGLGraph::DrawStaticElements</text>
</a>
</g>
</g>
<!-- Node1&#45;&gt;Node8 -->
<g id="edge8" class="edge"><title>Node1&#45;&gt;Node8</title>
<path fill="none" stroke="midnightblue" d="M70.8593,-36.1256C79.4462,-33.6631 88.5054,-31.1625 97,-29 109.963,-25.7 124.106,-22.4486 137.129,-19.5939"/>
<polygon fill="midnightblue" stroke="midnightblue" points="69.6829,-32.8227 61.0582,-38.9762 71.6378,-39.5441 69.6829,-32.8227"/>
</g>
<!-- Node3 -->
<g id="node3" class="node"><title>Node3</title>
<g id="a_node3"><a xlink:href="../../d5/d45/classfftviewer__frFFTviewer.html#aa01d7b5ad35c15051574834869accae0" target="_top" xlink:title="fftviewer_frFFTviewer\l::OnUpdatePlots">
<polygon fill="white" stroke="black" points="452,-55 452,-85 564,-85 564,-55 452,-55"/>
<text text-anchor="start" x="460" y="-73" font-family="Helvetica,sans-Serif" font-size="10.00">fftviewer_frFFTviewer</text>
<text text-anchor="middle" x="508" y="-62" font-family="Helvetica,sans-Serif" font-size="10.00">::OnUpdatePlots</text>
</a>
</g>
</g>
<!-- Node2&#45;&gt;Node3 -->
<g id="edge2" class="edge"><title>Node2&#45;&gt;Node3</title>
<path fill="none" stroke="midnightblue" d="M426.358,-57.6797C434.767,-58.9644 443.336,-60.2735 451.596,-61.5355"/>
<polygon fill="midnightblue" stroke="midnightblue" points="426.625,-54.18 416.211,-56.1295 425.568,-61.0997 426.625,-54.18"/>
</g>
<!-- Node5 -->
<g id="node5" class="node"><title>Node5</title>
<g id="a_node5"><a xlink:href="../../d9/d73/classOpenGLGraph.html#a3ec7e57bd2baa9fffbd14a0fb952e8a8" target="_top" xlink:title="OpenGLGraph::render">
<polygon fill="white" stroke="black" points="452,-16.5 452,-35.5 564,-35.5 564,-16.5 452,-16.5"/>
<text text-anchor="middle" x="508" y="-23.5" font-family="Helvetica,sans-Serif" font-size="10.00">OpenGLGraph::render</text>
</a>
</g>
</g>
<!-- Node2&#45;&gt;Node5 -->
<g id="edge4" class="edge"><title>Node2&#45;&gt;Node5</title>
<path fill="none" stroke="midnightblue" d="M426.358,-38.3203C434.767,-37.0356 443.336,-35.7265 451.596,-34.4645"/>
<polygon fill="midnightblue" stroke="midnightblue" points="425.568,-34.9003 416.211,-39.8705 426.625,-41.82 425.568,-34.9003"/>
</g>
<!-- Node4 -->
<g id="node4" class="node"><title>Node4</title>
<g id="a_node4"><a xlink:href="../../d5/d45/classfftviewer__frFFTviewer.html#a4bcd0ebcddfbe4227a156a426db9d5b9" target="_top" xlink:title="Constructor. ">
<polygon fill="white" stroke="black" points="619,-55 619,-85 737,-85 737,-55 619,-55"/>
<text text-anchor="start" x="627" y="-73" font-family="Helvetica,sans-Serif" font-size="10.00">fftviewer_frFFTviewer</text>
<text text-anchor="middle" x="678" y="-62" font-family="Helvetica,sans-Serif" font-size="10.00">::fftviewer_frFFTviewer</text>
</a>
</g>
</g>
<!-- Node3&#45;&gt;Node4 -->
<g id="edge3" class="edge"><title>Node3&#45;&gt;Node4</title>
<path fill="none" stroke="midnightblue" d="M574.094,-70C588.886,-70 604.503,-70 618.978,-70"/>
<polygon fill="midnightblue" stroke="midnightblue" points="574.01,-66.5001 564.009,-70 574.009,-73.5001 574.01,-66.5001"/>
</g>
<!-- Node6 -->
<g id="node6" class="node"><title>Node6</title>
<g id="a_node6"><a xlink:href="../../d9/d73/classOpenGLGraph.html#ae8a4b37513a42fc6604a56ba03a24238" target="_top" xlink:title="OpenGLGraph::SetInfoMessage">
<polygon fill="white" stroke="black" points="600,-16.5 600,-35.5 756,-35.5 756,-16.5 600,-16.5"/>
<text text-anchor="middle" x="678" y="-23.5" font-family="Helvetica,sans-Serif" font-size="10.00">OpenGLGraph::SetInfoMessage</text>
</a>
</g>
</g>
<!-- Node5&#45;&gt;Node6 -->
<g id="edge5" class="edge"><title>Node5&#45;&gt;Node6</title>
<path fill="none" stroke="midnightblue" d="M574.15,-26C582.592,-26 591.302,-26 599.914,-26"/>
<polygon fill="midnightblue" stroke="midnightblue" points="574.01,-22.5001 564.009,-26 574.009,-29.5001 574.01,-22.5001"/>
</g>
<!-- Node7&#45;&gt;Node2 -->
<g id="edge7" class="edge"><title>Node7&#45;&gt;Node2</title>
<path fill="none" stroke="midnightblue" d="M266.31,-48C280.385,-48 294.699,-48 307.793,-48"/>
<polygon fill="midnightblue" stroke="midnightblue" points="266.124,-44.5001 256.124,-48 266.124,-51.5001 266.124,-44.5001"/>
</g>
<!-- Node8&#45;&gt;Node2 -->
<g id="edge9" class="edge"><title>Node8&#45;&gt;Node2</title>
<path fill="none" stroke="midnightblue" d="M239.778,-21.7526C264.594,-27.1258 293.611,-33.4086 317.032,-38.4799"/>
<polygon fill="midnightblue" stroke="midnightblue" points="240.3,-18.2846 229.786,-19.589 238.819,-25.126 240.3,-18.2846"/>
</g>
</g>
</svg>
