<?xml version="1.0" encoding="UTF-8" standalone="no"?>
<!DOCTYPE svg PUBLIC "-//W3C//DTD SVG 1.1//EN"
 "http://www.w3.org/Graphics/SVG/1.1/DTD/svg11.dtd">
<!-- Generated by graphviz version 2.38.0 (20140413.2041)
 -->
<!-- Title: glBindTexture Pages: 1 -->
<!--zoomable 187 -->
<svg id="main" version="1.1" xmlns="http://www.w3.org/2000/svg" xmlns:xlink="http://www.w3.org/1999/xlink" xml:space="preserve" onload="init(evt)">
<style type="text/css"><![CDATA[
.edge:hover path { stroke: red; }
.edge:hover polygon { stroke: red; fill: red; }
]]></style>
<script type="text/javascript"><![CDATA[
var edges = document.getElementsByTagName('g');
if (edges && edges.length) {
  for (var i=0;i<edges.length;i++) {
    if (edges[i].id.substr(0,4)=='edge') {
      edges[i].setAttribute('class','edge');
    }
  }
}
]]></script>
        <defs>
                <circle id="rim" cx="0" cy="0" r="7"/>
                <circle id="rim2" cx="0" cy="0" r="3.5"/>
                <g id="zoomPlus">
                        <use xlink:href="#rim" fill="#404040">
                                <set attributeName="fill" to="#808080" begin="zoomplus.mouseover" end="zoomplus.mouseout"/>
                        </use>
                        <path d="M-4,0h8M0,-4v8" fill="none" stroke="white" stroke-width="1.5" pointer-events="none"/>
                </g>
                <g id="zoomMin">
                        <use xlink:href="#rim" fill="#404040">
                                <set attributeName="fill" to="#808080" begin="zoomminus.mouseover" end="zoomminus.mouseout"/>
                        </use>
                        <path d="M-4,0h8" fill="none" stroke="white" stroke-width="1.5" pointer-events="none"/>
                </g>
                <g id="dirArrow">
                        <path fill="none" stroke="white" stroke-width="1.5" d="M0,-3.0v7 M-2.5,-0.5L0,-3.0L2.5,-0.5"/>
                </g>
               <g id="resetDef">
                       <use xlink:href="#rim2" fill="#404040">
                               <set attributeName="fill" to="#808080" begin="reset.mouseover" end="reset.mouseout"/>
                       </use>
               </g>
        </defs>

<script type="text/javascript">
var viewWidth = 1129;
var viewHeight = 187;
var sectionId = 'dynsection-4';
</script>
<script xlink:href="../../svgpan.js"/>
<svg id="graph" class="graph">
<g id="viewport">
<title>glBindTexture</title>
<polygon fill="white" stroke="none" points="-4,4 -4,-183 1125,-183 1125,4 -4,4"/>
<!-- Node1 -->
<g id="node1" class="node"><title>Node1</title>
<polygon fill="#bfbfbf" stroke="black" points="0,-99.5 0,-118.5 77,-118.5 77,-99.5 0,-99.5"/>
<text text-anchor="middle" x="38.5" y="-106.5" font-family="Helvetica,sans-Serif" font-size="10.00">glBindTexture</text>
</g>
<!-- Node2 -->
<g id="node2" class="node"><title>Node2</title>
<g id="a_node2"><a xlink:href="../../d8/d9b/classGLFont.html#ad00733f5e361fa6ed73dc79906180bad" target="_top" xlink:title="loads opengl font file ">
<polygon fill="white" stroke="black" points="143.5,-159.5 143.5,-178.5 216.5,-178.5 216.5,-159.5 143.5,-159.5"/>
<text text-anchor="middle" x="180" y="-166.5" font-family="Helvetica,sans-Serif" font-size="10.00">GLFont::load</text>
</a>
</g>
</g>
<!-- Node1&#45;&gt;Node2 -->
<g id="edge1" class="edge"><title>Node1&#45;&gt;Node2</title>
<path fill="none" stroke="midnightblue" d="M62.7725,-123.79C76.8971,-132.302 95.5173,-142.72 113,-150 122.577,-153.988 133.267,-157.459 143.207,-160.305"/>
<polygon fill="midnightblue" stroke="midnightblue" points="64.55,-120.774 54.197,-118.523 60.8867,-126.739 64.55,-120.774"/>
</g>
<!-- Node3 -->
<g id="node3" class="node"><title>Node3</title>
<g id="a_node3"><a xlink:href="../../d8/d9b/classGLFont.html#a94999edbe6ed99c8e8af8acd2f09ce90" target="_top" xlink:title="GLFont::loadFromArray">
<polygon fill="white" stroke="black" points="120.5,-121.5 120.5,-140.5 239.5,-140.5 239.5,-121.5 120.5,-121.5"/>
<text text-anchor="middle" x="180" y="-128.5" font-family="Helvetica,sans-Serif" font-size="10.00">GLFont::loadFromArray</text>
</a>
</g>
</g>
<!-- Node1&#45;&gt;Node3 -->
<g id="edge2" class="edge"><title>Node1&#45;&gt;Node3</title>
<path fill="none" stroke="midnightblue" d="M87.2357,-116.528C97.9358,-118.216 109.406,-120.025 120.488,-121.772"/>
<polygon fill="midnightblue" stroke="midnightblue" points="87.6739,-113.054 77.2507,-114.954 86.5834,-119.969 87.6739,-113.054"/>
</g>
<!-- Node10 -->
<g id="node10" class="node"><title>Node10</title>
<g id="a_node10"><a xlink:href="../../d8/d9b/classGLFont.html#ab874e740abc6dce31812b4d93cfff762" target="_top" xlink:title="GLFont::render_textScreen\lSpace">
<polygon fill="white" stroke="black" points="113,-72 113,-102 247,-102 247,-72 113,-72"/>
<text text-anchor="start" x="121" y="-90" font-family="Helvetica,sans-Serif" font-size="10.00">GLFont::render_textScreen</text>
<text text-anchor="middle" x="180" y="-79" font-family="Helvetica,sans-Serif" font-size="10.00">Space</text>
</a>
</g>
</g>
<!-- Node1&#45;&gt;Node10 -->
<g id="edge9" class="edge"><title>Node1&#45;&gt;Node10</title>
<path fill="none" stroke="midnightblue" d="M87.1435,-101.486C95.4748,-100.172 104.275,-98.7845 112.998,-97.409"/>
<polygon fill="midnightblue" stroke="midnightblue" points="86.5834,-98.0313 77.2507,-103.046 87.6739,-104.946 86.5834,-98.0313"/>
</g>
<!-- Node11 -->
<g id="node11" class="node"><title>Node11</title>
<g id="a_node11"><a xlink:href="../../d8/d9b/classGLFont.html#a6386938ce029036c43216a512de5123b" target="_top" xlink:title="GLFont::render_textWorld\lSpace">
<polygon fill="white" stroke="black" points="115.5,-23 115.5,-53 244.5,-53 244.5,-23 115.5,-23"/>
<text text-anchor="start" x="123.5" y="-41" font-family="Helvetica,sans-Serif" font-size="10.00">GLFont::render_textWorld</text>
<text text-anchor="middle" x="180" y="-30" font-family="Helvetica,sans-Serif" font-size="10.00">Space</text>
</a>
</g>
</g>
<!-- Node1&#45;&gt;Node11 -->
<g id="edge10" class="edge"><title>Node1&#45;&gt;Node11</title>
<path fill="none" stroke="midnightblue" d="M61.1007,-93.3927C75.3654,-83.5442 94.7312,-71.0251 113,-62 119.449,-58.8139 126.432,-55.8216 133.359,-53.103"/>
<polygon fill="midnightblue" stroke="midnightblue" points="58.6976,-90.8035 52.5262,-99.4154 62.721,-96.5317 58.6976,-90.8035"/>
</g>
<!-- Node4 -->
<g id="node4" class="node"><title>Node4</title>
<g id="a_node4"><a xlink:href="../../d9/d73/classOpenGLGraph.html#acaad9aa036130e655da7e5be30e6efec" target="_top" xlink:title="OpenGLGraph::Initialize">
<polygon fill="white" stroke="black" points="294,-117.5 294,-136.5 415,-136.5 415,-117.5 294,-117.5"/>
<text text-anchor="middle" x="354.5" y="-124.5" font-family="Helvetica,sans-Serif" font-size="10.00">OpenGLGraph::Initialize</text>
</a>
</g>
</g>
<!-- Node3&#45;&gt;Node4 -->
<g id="edge3" class="edge"><title>Node3&#45;&gt;Node4</title>
<path fill="none" stroke="midnightblue" d="M250.227,-129.395C264.626,-129.061 279.685,-128.712 293.711,-128.386"/>
<polygon fill="midnightblue" stroke="midnightblue" points="249.798,-125.904 239.882,-129.635 249.961,-132.902 249.798,-125.904"/>
</g>
<!-- Node5 -->
<g id="node5" class="node"><title>Node5</title>
<g id="a_node5"><a xlink:href="../../d9/d73/classOpenGLGraph.html#af2f1cb689fb6884d8509877ecdf29fb8" target="_top" xlink:title="Draw graph data series. ">
<polygon fill="white" stroke="black" points="673,-57.5 673,-76.5 781,-76.5 781,-57.5 673,-57.5"/>
<text text-anchor="middle" x="727" y="-64.5" font-family="Helvetica,sans-Serif" font-size="10.00">OpenGLGraph::Draw</text>
</a>
</g>
</g>
<!-- Node4&#45;&gt;Node5 -->
<g id="edge4" class="edge"><title>Node4&#45;&gt;Node5</title>
<path fill="none" stroke="midnightblue" d="M425.175,-117.092C482.214,-108.805 564.95,-96.3796 637,-84 650.333,-81.7091 664.752,-79.0389 678.022,-76.5027"/>
<polygon fill="midnightblue" stroke="midnightblue" points="424.582,-113.641 415.187,-118.539 425.586,-120.569 424.582,-113.641"/>
</g>
<!-- Node6 -->
<g id="node6" class="node"><title>Node6</title>
<g id="a_node6"><a xlink:href="../../d5/d45/classfftviewer__frFFTviewer.html#aa01d7b5ad35c15051574834869accae0" target="_top" xlink:title="fftviewer_frFFTviewer\l::OnUpdatePlots">
<polygon fill="white" stroke="black" points="817,-74 817,-104 929,-104 929,-74 817,-74"/>
<text text-anchor="start" x="825" y="-92" font-family="Helvetica,sans-Serif" font-size="10.00">fftviewer_frFFTviewer</text>
<text text-anchor="middle" x="873" y="-81" font-family="Helvetica,sans-Serif" font-size="10.00">::OnUpdatePlots</text>
</a>
</g>
</g>
<!-- Node5&#45;&gt;Node6 -->
<g id="edge5" class="edge"><title>Node5&#45;&gt;Node6</title>
<path fill="none" stroke="midnightblue" d="M791.358,-76.6797C799.767,-77.9644 808.336,-79.2735 816.596,-80.5355"/>
<polygon fill="midnightblue" stroke="midnightblue" points="791.625,-73.18 781.211,-75.1295 790.568,-80.0997 791.625,-73.18"/>
</g>
<!-- Node8 -->
<g id="node8" class="node"><title>Node8</title>
<g id="a_node8"><a xlink:href="../../d9/d73/classOpenGLGraph.html#a3ec7e57bd2baa9fffbd14a0fb952e8a8" target="_top" xlink:title="OpenGLGraph::render">
<polygon fill="white" stroke="black" points="817,-35.5 817,-54.5 929,-54.5 929,-35.5 817,-35.5"/>
<text text-anchor="middle" x="873" y="-42.5" font-family="Helvetica,sans-Serif" font-size="10.00">OpenGLGraph::render</text>
</a>
</g>
</g>
<!-- Node5&#45;&gt;Node8 -->
<g id="edge7" class="edge"><title>Node5&#45;&gt;Node8</title>
<path fill="none" stroke="midnightblue" d="M791.358,-57.3203C799.767,-56.0356 808.336,-54.7265 816.596,-53.4645"/>
<polygon fill="midnightblue" stroke="midnightblue" points="790.568,-53.9003 781.211,-58.8705 791.625,-60.82 790.568,-53.9003"/>
</g>
<!-- Node7 -->
<g id="node7" class="node"><title>Node7</title>
<g id="a_node7"><a xlink:href="../../d5/d45/classfftviewer__frFFTviewer.html#a4bcd0ebcddfbe4227a156a426db9d5b9" target="_top" xlink:title="Constructor. ">
<polygon fill="white" stroke="black" points="984,-74 984,-104 1102,-104 1102,-74 984,-74"/>
<text text-anchor="start" x="992" y="-92" font-family="Helvetica,sans-Serif" font-size="10.00">fftviewer_frFFTviewer</text>
<text text-anchor="middle" x="1043" y="-81" font-family="Helvetica,sans-Serif" font-size="10.00">::fftviewer_frFFTviewer</text>
</a>
</g>
</g>
<!-- Node6&#45;&gt;Node7 -->
<g id="edge6" class="edge"><title>Node6&#45;&gt;Node7</title>
<path fill="none" stroke="midnightblue" d="M939.094,-89C953.886,-89 969.503,-89 983.978,-89"/>
<polygon fill="midnightblue" stroke="midnightblue" points="939.01,-85.5001 929.009,-89 939.009,-92.5001 939.01,-85.5001"/>
</g>
<!-- Node9 -->
<g id="node9" class="node"><title>Node9</title>
<g id="a_node9"><a xlink:href="../../d9/d73/classOpenGLGraph.html#ae8a4b37513a42fc6604a56ba03a24238" target="_top" xlink:title="OpenGLGraph::SetInfoMessage">
<polygon fill="white" stroke="black" points="965,-35.5 965,-54.5 1121,-54.5 1121,-35.5 965,-35.5"/>
<text text-anchor="middle" x="1043" y="-42.5" font-family="Helvetica,sans-Serif" font-size="10.00">OpenGLGraph::SetInfoMessage</text>
</a>
</g>
</g>
<!-- Node8&#45;&gt;Node9 -->
<g id="edge8" class="edge"><title>Node8&#45;&gt;Node9</title>
<path fill="none" stroke="midnightblue" d="M939.15,-45C947.592,-45 956.302,-45 964.914,-45"/>
<polygon fill="midnightblue" stroke="midnightblue" points="939.01,-41.5001 929.009,-45 939.009,-48.5001 939.01,-41.5001"/>
</g>
<!-- Node12 -->
<g id="node12" class="node"><title>Node12</title>
<g id="a_node12"><a xlink:href="../../d9/d73/classOpenGLGraph.html#a4670744215bd7f9f79aef761b42e783b" target="_top" xlink:title="Prints text in defined position. ">
<polygon fill="white" stroke="black" points="283,-36.5 283,-55.5 426,-55.5 426,-36.5 283,-36.5"/>
<text text-anchor="middle" x="354.5" y="-43.5" font-family="Helvetica,sans-Serif" font-size="10.00">OpenGLGraph::glRenderText</text>
</a>
</g>
</g>
<!-- Node11&#45;&gt;Node12 -->
<g id="edge11" class="edge"><title>Node11&#45;&gt;Node12</title>
<path fill="none" stroke="midnightblue" d="M255.025,-41.433C264.224,-41.8596 273.612,-42.295 282.759,-42.7193"/>
<polygon fill="midnightblue" stroke="midnightblue" points="254.894,-37.9233 244.743,-40.9562 254.57,-44.9158 254.894,-37.9233"/>
</g>
<!-- Node12&#45;&gt;Node5 -->
<g id="edge14" class="edge"><title>Node12&#45;&gt;Node5</title>
<path fill="none" stroke="midnightblue" d="M404.183,-57.6693C422.23,-61.4461 442.94,-65.1387 462,-67 534.758,-74.1049 619.334,-72.3565 672.758,-70.0287"/>
<polygon fill="midnightblue" stroke="midnightblue" points="404.693,-54.1987 394.18,-55.5115 403.217,-61.0414 404.693,-54.1987"/>
</g>
<!-- Node13 -->
<g id="node13" class="node"><title>Node13</title>
<g id="a_node13"><a xlink:href="../../d9/d73/classOpenGLGraph.html#ae3501103179479cd9e60e9654e4e557f" target="_top" xlink:title="Draw static elements (background colors, titles, grid) ">
<polygon fill="white" stroke="black" points="462,-38.5 462,-57.5 637,-57.5 637,-38.5 462,-38.5"/>
<text text-anchor="middle" x="549.5" y="-45.5" font-family="Helvetica,sans-Serif" font-size="10.00">OpenGLGraph::DrawStaticElements</text>
</a>
</g>
</g>
<!-- Node12&#45;&gt;Node13 -->
<g id="edge12" class="edge"><title>Node12&#45;&gt;Node13</title>
<path fill="none" stroke="midnightblue" d="M436.463,-46.839C444.899,-46.9264 453.499,-47.0155 461.994,-47.1036"/>
<polygon fill="midnightblue" stroke="midnightblue" points="436.306,-43.3373 426.27,-46.7334 436.233,-50.3369 436.306,-43.3373"/>
</g>
<!-- Node14 -->
<g id="node14" class="node"><title>Node14</title>
<g id="a_node14"><a xlink:href="../../d9/d73/classOpenGLGraph.html#a3c2849fd8d51c34348516ee747ee82b4" target="_top" xlink:title="Draw data markers. ">
<polygon fill="white" stroke="black" points="478,-0.5 478,-19.5 621,-19.5 621,-0.5 478,-0.5"/>
<text text-anchor="middle" x="549.5" y="-7.5" font-family="Helvetica,sans-Serif" font-size="10.00">OpenGLGraph::DrawMarkers</text>
</a>
</g>
</g>
<!-- Node12&#45;&gt;Node14 -->
<g id="edge15" class="edge"><title>Node12&#45;&gt;Node14</title>
<path fill="none" stroke="midnightblue" d="M416.569,-34.609C442.531,-29.7663 472.467,-24.1824 497.253,-19.559"/>
<polygon fill="midnightblue" stroke="midnightblue" points="415.65,-31.2199 406.461,-36.4943 416.933,-38.1013 415.65,-31.2199"/>
</g>
<!-- Node13&#45;&gt;Node5 -->
<g id="edge13" class="edge"><title>Node13&#45;&gt;Node5</title>
<path fill="none" stroke="midnightblue" d="M647.408,-58.4915C656.056,-59.4278 664.585,-60.351 672.652,-61.2244"/>
<polygon fill="midnightblue" stroke="midnightblue" points="647.54,-54.9854 637.222,-57.3887 646.787,-61.9448 647.54,-54.9854"/>
</g>
<!-- Node14&#45;&gt;Node5 -->
<g id="edge16" class="edge"><title>Node14&#45;&gt;Node5</title>
<path fill="none" stroke="midnightblue" d="M611.683,-21.9374C620.253,-24.0443 628.896,-26.4052 637,-29 661.641,-36.8899 688.843,-49.0386 706.608,-57.467"/>
<polygon fill="midnightblue" stroke="midnightblue" points="612.23,-18.4703 601.693,-19.5821 610.623,-25.2835 612.23,-18.4703"/>
</g>
</g>
</svg>
        <g id="navigator" transform="translate(0 0)" fill="#404254">
                <rect fill="#f2f5e9" fill-opacity="0.5" stroke="#606060" stroke-width=".5" x="0" y="0" width="60" height="60"/>
                <use id="zoomplus" xlink:href="#zoomPlus" x="17" y="9" onmousedown="handleZoom(evt,'in')"/>
                <use id="zoomminus" xlink:href="#zoomMin" x="42" y="9" onmousedown="handleZoom(evt,'out')"/>
                <use id="reset" xlink:href="#resetDef" x="30" y="36" onmousedown="handleReset()"/>
                <g id="arrowUp" xlink:href="#dirArrow" transform="translate(30 24)" onmousedown="handlePan(0,-1)">
                  <use xlink:href="#rim" fill="#404040">
                        <set attributeName="fill" to="#808080" begin="arrowUp.mouseover" end="arrowUp.mouseout"/>
                  </use>
                  <path fill="none" stroke="white" stroke-width="1.5" d="M0,-3.0v7 M-2.5,-0.5L0,-3.0L2.5,-0.5"/>
                </g>
                <g id="arrowRight" xlink:href="#dirArrow" transform="rotate(90) translate(36 -43)" onmousedown="handlePan(1,0)">
                  <use xlink:href="#rim" fill="#404040">
                        <set attributeName="fill" to="#808080" begin="arrowRight.mouseover" end="arrowRight.mouseout"/>
                  </use>
                  <path fill="none" stroke="white" stroke-width="1.5" d="M0,-3.0v7 M-2.5,-0.5L0,-3.0L2.5,-0.5"/>
                </g>
                <g id="arrowDown" xlink:href="#dirArrow" transform="rotate(180) translate(-30 -48)" onmousedown="handlePan(0,1)">
                  <use xlink:href="#rim" fill="#404040">
                        <set attributeName="fill" to="#808080" begin="arrowDown.mouseover" end="arrowDown.mouseout"/>
                  </use>
                  <path fill="none" stroke="white" stroke-width="1.5" d="M0,-3.0v7 M-2.5,-0.5L0,-3.0L2.5,-0.5"/>
                </g>
                <g id="arrowLeft" xlink:href="#dirArrow" transform="rotate(270) translate(-36 17)" onmousedown="handlePan(-1,0)">
                  <use xlink:href="#rim" fill="#404040">
                        <set attributeName="fill" to="#808080" begin="arrowLeft.mouseover" end="arrowLeft.mouseout"/>
                  </use>
                  <path fill="none" stroke="white" stroke-width="1.5" d="M0,-3.0v7 M-2.5,-0.5L0,-3.0L2.5,-0.5"/>
                </g>
        </g>
        <svg viewBox="0 0 15 15" width="100%" height="30px" preserveAspectRatio="xMaxYMin meet">
         <g id="arrow_out" transform="scale(0.3 0.3)">
          <a xlink:href="glew_8h_afe003e6230fca703d59ec52260f7bdd1_icgraph_org.svg" target="_base">
           <rect id="button" ry="5" rx="5" y="6" x="6" height="38" width="38"
                fill="#f2f5e9" fill-opacity="0.5" stroke="#606060" stroke-width="1.0"/>
           <path id="arrow"
             d="M 11.500037,31.436501 C 11.940474,20.09759 22.043105,11.32322 32.158766,21.979434 L 37.068811,17.246167 C 37.068811,17.246167 37.088388,32 37.088388,32 L 22.160133,31.978069 C 22.160133,31.978069 26.997745,27.140456 26.997745,27.140456 C 18.528582,18.264221 13.291696,25.230495 11.500037,31.436501 z"
             style="fill:#404040;"/>
          </a>
         </g>
        </svg>
</svg>
