<?xml version="1.0" encoding="UTF-8" standalone="no"?>
<!DOCTYPE svg PUBLIC "-//W3C//DTD SVG 1.1//EN"
 "http://www.w3.org/Graphics/SVG/1.1/DTD/svg11.dtd">
<!-- Generated by graphviz version 2.38.0 (20140413.2041)
 -->
<!-- Title: glBlendFunc Pages: 1 -->
<svg width="1123pt" height="145pt"
 viewBox="0.00 0.00 1123.00 145.00" xmlns="http://www.w3.org/2000/svg" xmlns:xlink="http://www.w3.org/1999/xlink">
<g id="graph0" class="graph" transform="scale(1 1) rotate(0) translate(4 141)">
<title>glBlendFunc</title>
<polygon fill="white" stroke="none" points="-4,4 -4,-141 1119,-141 1119,4 -4,4"/>
<!-- Node1 -->
<g id="node1" class="node"><title>Node1</title>
<polygon fill="#bfbfbf" stroke="black" points="0,-77.5 0,-96.5 71,-96.5 71,-77.5 0,-77.5"/>
<text text-anchor="middle" x="35.5" y="-84.5" font-family="Helvetica,sans-Serif" font-size="10.00">glBlendFunc</text>
</g>
<!-- Node2 -->
<g id="node2" class="node"><title>Node2</title>
<g id="a_node2"><a xlink:href="../../d9/d73/classOpenGLGraph.html#acaad9aa036130e655da7e5be30e6efec" target="_top" xlink:title="OpenGLGraph::Initialize">
<polygon fill="white" stroke="black" points="288,-117.5 288,-136.5 409,-136.5 409,-117.5 288,-117.5"/>
<text text-anchor="middle" x="348.5" y="-124.5" font-family="Helvetica,sans-Serif" font-size="10.00">OpenGLGraph::Initialize</text>
</a>
</g>
</g>
<!-- Node1&#45;&gt;Node2 -->
<g id="edge1" class="edge"><title>Node1&#45;&gt;Node2</title>
<path fill="none" stroke="midnightblue" d="M68.1325,-100.333C80.1006,-104.811 93.9783,-109.34 107,-112 167.662,-124.394 238.566,-127.471 287.594,-127.861"/>
<polygon fill="midnightblue" stroke="midnightblue" points="69.178,-96.9839 58.5892,-96.6249 66.643,-103.509 69.178,-96.9839"/>
</g>
<!-- Node8 -->
<g id="node8" class="node"><title>Node8</title>
<g id="a_node8"><a xlink:href="../../d8/d9b/classGLFont.html#ab874e740abc6dce31812b4d93cfff762" target="_top" xlink:title="GLFont::render_textScreen\lSpace">
<polygon fill="white" stroke="black" points="107,-72 107,-102 241,-102 241,-72 107,-72"/>
<text text-anchor="start" x="115" y="-90" font-family="Helvetica,sans-Serif" font-size="10.00">GLFont::render_textScreen</text>
<text text-anchor="middle" x="174" y="-79" font-family="Helvetica,sans-Serif" font-size="10.00">Space</text>
</a>
</g>
</g>
<!-- Node1&#45;&gt;Node8 -->
<g id="edge7" class="edge"><title>Node1&#45;&gt;Node8</title>
<path fill="none" stroke="midnightblue" d="M81.3638,-87C89.5598,-87 98.2678,-87 106.929,-87"/>
<polygon fill="midnightblue" stroke="midnightblue" points="81.2979,-83.5001 71.2979,-87 81.2979,-90.5001 81.2979,-83.5001"/>
</g>
<!-- Node9 -->
<g id="node9" class="node"><title>Node9</title>
<g id="a_node9"><a xlink:href="../../d8/d9b/classGLFont.html#a6386938ce029036c43216a512de5123b" target="_top" xlink:title="GLFont::render_textWorld\lSpace">
<polygon fill="white" stroke="black" points="109.5,-23 109.5,-53 238.5,-53 238.5,-23 109.5,-23"/>
<text text-anchor="start" x="117.5" y="-41" font-family="Helvetica,sans-Serif" font-size="10.00">GLFont::render_textWorld</text>
<text text-anchor="middle" x="174" y="-30" font-family="Helvetica,sans-Serif" font-size="10.00">Space</text>
</a>
</g>
</g>
<!-- Node1&#45;&gt;Node9 -->
<g id="edge8" class="edge"><title>Node1&#45;&gt;Node9</title>
<path fill="none" stroke="midnightblue" d="M72.681,-74.0119C90.6395,-67.5653 112.432,-59.7424 131.111,-53.037"/>
<polygon fill="midnightblue" stroke="midnightblue" points="71.372,-70.7631 63.1426,-77.436 73.7371,-77.3515 71.372,-70.7631"/>
</g>
<!-- Node3 -->
<g id="node3" class="node"><title>Node3</title>
<g id="a_node3"><a xlink:href="../../d9/d73/classOpenGLGraph.html#af2f1cb689fb6884d8509877ecdf29fb8" target="_top" xlink:title="Draw graph data series. ">
<polygon fill="white" stroke="black" points="667,-57.5 667,-76.5 775,-76.5 775,-57.5 667,-57.5"/>
<text text-anchor="middle" x="721" y="-64.5" font-family="Helvetica,sans-Serif" font-size="10.00">OpenGLGraph::Draw</text>
</a>
</g>
</g>
<!-- Node2&#45;&gt;Node3 -->
<g id="edge2" class="edge"><title>Node2&#45;&gt;Node3</title>
<path fill="none" stroke="midnightblue" d="M419.175,-117.092C476.214,-108.805 558.95,-96.3796 631,-84 644.333,-81.7091 658.752,-79.0389 672.022,-76.5027"/>
<polygon fill="midnightblue" stroke="midnightblue" points="418.582,-113.641 409.187,-118.539 419.586,-120.569 418.582,-113.641"/>
</g>
<!-- Node4 -->
<g id="node4" class="node"><title>Node4</title>
<g id="a_node4"><a xlink:href="../../d5/d45/classfftviewer__frFFTviewer.html#aa01d7b5ad35c15051574834869accae0" target="_top" xlink:title="fftviewer_frFFTviewer\l::OnUpdatePlots">
<polygon fill="white" stroke="black" points="811,-74 811,-104 923,-104 923,-74 811,-74"/>
<text text-anchor="start" x="819" y="-92" font-family="Helvetica,sans-Serif" font-size="10.00">fftviewer_frFFTviewer</text>
<text text-anchor="middle" x="867" y="-81" font-family="Helvetica,sans-Serif" font-size="10.00">::OnUpdatePlots</text>
</a>
</g>
</g>
<!-- Node3&#45;&gt;Node4 -->
<g id="edge3" class="edge"><title>Node3&#45;&gt;Node4</title>
<path fill="none" stroke="midnightblue" d="M785.358,-76.6797C793.767,-77.9644 802.336,-79.2735 810.596,-80.5355"/>
<polygon fill="midnightblue" stroke="midnightblue" points="785.625,-73.18 775.211,-75.1295 784.568,-80.0997 785.625,-73.18"/>
</g>
<!-- Node6 -->
<g id="node6" class="node"><title>Node6</title>
<g id="a_node6"><a xlink:href="../../d9/d73/classOpenGLGraph.html#a3ec7e57bd2baa9fffbd14a0fb952e8a8" target="_top" xlink:title="OpenGLGraph::render">
<polygon fill="white" stroke="black" points="811,-35.5 811,-54.5 923,-54.5 923,-35.5 811,-35.5"/>
<text text-anchor="middle" x="867" y="-42.5" font-family="Helvetica,sans-Serif" font-size="10.00">OpenGLGraph::render</text>
</a>
</g>
</g>
<!-- Node3&#45;&gt;Node6 -->
<g id="edge5" class="edge"><title>Node3&#45;&gt;Node6</title>
<path fill="none" stroke="midnightblue" d="M785.358,-57.3203C793.767,-56.0356 802.336,-54.7265 810.596,-53.4645"/>
<polygon fill="midnightblue" stroke="midnightblue" points="784.568,-53.9003 775.211,-58.8705 785.625,-60.82 784.568,-53.9003"/>
</g>
<!-- Node5 -->
<g id="node5" class="node"><title>Node5</title>
<g id="a_node5"><a xlink:href="../../d5/d45/classfftviewer__frFFTviewer.html#a4bcd0ebcddfbe4227a156a426db9d5b9" target="_top" xlink:title="Constructor. ">
<polygon fill="white" stroke="black" points="978,-74 978,-104 1096,-104 1096,-74 978,-74"/>
<text text-anchor="start" x="986" y="-92" font-family="Helvetica,sans-Serif" font-size="10.00">fftviewer_frFFTviewer</text>
<text text-anchor="middle" x="1037" y="-81" font-family="Helvetica,sans-Serif" font-size="10.00">::fftviewer_frFFTviewer</text>
</a>
</g>
</g>
<!-- Node4&#45;&gt;Node5 -->
<g id="edge4" class="edge"><title>Node4&#45;&gt;Node5</title>
<path fill="none" stroke="midnightblue" d="M933.094,-89C947.886,-89 963.503,-89 977.978,-89"/>
<polygon fill="midnightblue" stroke="midnightblue" points="933.01,-85.5001 923.009,-89 933.009,-92.5001 933.01,-85.5001"/>
</g>
<!-- Node7 -->
<g id="node7" class="node"><title>Node7</title>
<g id="a_node7"><a xlink:href="../../d9/d73/classOpenGLGraph.html#ae8a4b37513a42fc6604a56ba03a24238" target="_top" xlink:title="OpenGLGraph::SetInfoMessage">
<polygon fill="white" stroke="black" points="959,-35.5 959,-54.5 1115,-54.5 1115,-35.5 959,-35.5"/>
<text text-anchor="middle" x="1037" y="-42.5" font-family="Helvetica,sans-Serif" font-size="10.00">OpenGLGraph::SetInfoMessage</text>
</a>
</g>
</g>
<!-- Node6&#45;&gt;Node7 -->
<g id="edge6" class="edge"><title>Node6&#45;&gt;Node7</title>
<path fill="none" stroke="midnightblue" d="M933.15,-45C941.592,-45 950.302,-45 958.914,-45"/>
<polygon fill="midnightblue" stroke="midnightblue" points="933.01,-41.5001 923.009,-45 933.009,-48.5001 933.01,-41.5001"/>
</g>
<!-- Node10 -->
<g id="node10" class="node"><title>Node10</title>
<g id="a_node10"><a xlink:href="../../d9/d73/classOpenGLGraph.html#a4670744215bd7f9f79aef761b42e783b" target="_top" xlink:title="Prints text in defined position. ">
<polygon fill="white" stroke="black" points="277,-36.5 277,-55.5 420,-55.5 420,-36.5 277,-36.5"/>
<text text-anchor="middle" x="348.5" y="-43.5" font-family="Helvetica,sans-Serif" font-size="10.00">OpenGLGraph::glRenderText</text>
</a>
</g>
</g>
<!-- Node9&#45;&gt;Node10 -->
<g id="edge9" class="edge"><title>Node9&#45;&gt;Node10</title>
<path fill="none" stroke="midnightblue" d="M249.025,-41.433C258.224,-41.8596 267.612,-42.295 276.759,-42.7193"/>
<polygon fill="midnightblue" stroke="midnightblue" points="248.894,-37.9233 238.743,-40.9562 248.57,-44.9158 248.894,-37.9233"/>
</g>
<!-- Node10&#45;&gt;Node3 -->
<g id="edge12" class="edge"><title>Node10&#45;&gt;Node3</title>
<path fill="none" stroke="midnightblue" d="M398.183,-57.6693C416.23,-61.4461 436.94,-65.1387 456,-67 528.758,-74.1049 613.334,-72.3565 666.758,-70.0287"/>
<polygon fill="midnightblue" stroke="midnightblue" points="398.693,-54.1987 388.18,-55.5115 397.217,-61.0414 398.693,-54.1987"/>
</g>
<!-- Node11 -->
<g id="node11" class="node"><title>Node11</title>
<g id="a_node11"><a xlink:href="../../d9/d73/classOpenGLGraph.html#ae3501103179479cd9e60e9654e4e557f" target="_top" xlink:title="Draw static elements (background colors, titles, grid) ">
<polygon fill="white" stroke="black" points="456,-38.5 456,-57.5 631,-57.5 631,-38.5 456,-38.5"/>
<text text-anchor="middle" x="543.5" y="-45.5" font-family="Helvetica,sans-Serif" font-size="10.00">OpenGLGraph::DrawStaticElements</text>
</a>
</g>
</g>
<!-- Node10&#45;&gt;Node11 -->
<g id="edge10" class="edge"><title>Node10&#45;&gt;Node11</title>
<path fill="none" stroke="midnightblue" d="M430.463,-46.839C438.899,-46.9264 447.499,-47.0155 455.994,-47.1036"/>
<polygon fill="midnightblue" stroke="midnightblue" points="430.306,-43.3373 420.27,-46.7334 430.233,-50.3369 430.306,-43.3373"/>
</g>
<!-- Node12 -->
<g id="node12" class="node"><title>Node12</title>
<g id="a_node12"><a xlink:href="../../d9/d73/classOpenGLGraph.html#a3c2849fd8d51c34348516ee747ee82b4" target="_top" xlink:title="Draw data markers. ">
<polygon fill="white" stroke="black" points="472,-0.5 472,-19.5 615,-19.5 615,-0.5 472,-0.5"/>
<text text-anchor="middle" x="543.5" y="-7.5" font-family="Helvetica,sans-Serif" font-size="10.00">OpenGLGraph::DrawMarkers</text>
</a>
</g>
</g>
<!-- Node10&#45;&gt;Node12 -->
<g id="edge13" class="edge"><title>Node10&#45;&gt;Node12</title>
<path fill="none" stroke="midnightblue" d="M410.569,-34.609C436.531,-29.7663 466.467,-24.1824 491.253,-19.559"/>
<polygon fill="midnightblue" stroke="midnightblue" points="409.65,-31.2199 400.461,-36.4943 410.933,-38.1013 409.65,-31.2199"/>
</g>
<!-- Node11&#45;&gt;Node3 -->
<g id="edge11" class="edge"><title>Node11&#45;&gt;Node3</title>
<path fill="none" stroke="midnightblue" d="M641.408,-58.4915C650.056,-59.4278 658.585,-60.351 666.652,-61.2244"/>
<polygon fill="midnightblue" stroke="midnightblue" points="641.54,-54.9854 631.222,-57.3887 640.787,-61.9448 641.54,-54.9854"/>
</g>
<!-- Node12&#45;&gt;Node3 -->
<g id="edge14" class="edge"><title>Node12&#45;&gt;Node3</title>
<path fill="none" stroke="midnightblue" d="M605.683,-21.9374C614.253,-24.0443 622.896,-26.4052 631,-29 655.641,-36.8899 682.843,-49.0386 700.608,-57.467"/>
<polygon fill="midnightblue" stroke="midnightblue" points="606.23,-18.4703 595.693,-19.5821 604.623,-25.2835 606.23,-18.4703"/>
</g>
</g>
</svg>
