<?xml version="1.0" encoding="UTF-8" standalone="no"?>
<!DOCTYPE svg PUBLIC "-//W3C//DTD SVG 1.1//EN"
 "http://www.w3.org/Graphics/SVG/1.1/DTD/svg11.dtd">
<!-- Generated by graphviz version 2.38.0 (20140413.2041)
 -->
<!-- Title: SPI_write Pages: 1 -->
<svg width="417pt" height="39pt"
 viewBox="0.00 0.00 417.00 39.00" xmlns="http://www.w3.org/2000/svg" xmlns:xlink="http://www.w3.org/1999/xlink">
<g id="graph0" class="graph" transform="scale(1 1) rotate(0) translate(4 35)">
<title>SPI_write</title>
<polygon fill="white" stroke="none" points="-4,4 -4,-35 413,-35 413,4 -4,4"/>
<!-- Node1 -->
<g id="node1" class="node"><title>Node1</title>
<polygon fill="#bfbfbf" stroke="black" points="0,-6 0,-25 59,-25 59,-6 0,-6"/>
<text text-anchor="middle" x="29.5" y="-13" font-family="Helvetica,sans-Serif" font-size="10.00">SPI_write</text>
</g>
<!-- Node2 -->
<g id="node2" class="node"><title>Node2</title>
<g id="a_node2"><a xlink:href="../../d2/de5/classlime_1_1IConnection.html#af3dfb39cc643d88c1196ded5d5cbecea" target="_top" xlink:title="Bulk SPI write/read transaction. ">
<polygon fill="white" stroke="black" points="95,-0.5 95,-30.5 194,-30.5 194,-0.5 95,-0.5"/>
<text text-anchor="start" x="103" y="-18.5" font-family="Helvetica,sans-Serif" font-size="10.00">lime::IConnection::</text>
<text text-anchor="middle" x="144.5" y="-7.5" font-family="Helvetica,sans-Serif" font-size="10.00">TransactSPI</text>
</a>
</g>
</g>
<!-- Node1&#45;&gt;Node2 -->
<g id="edge1" class="edge"><title>Node1&#45;&gt;Node2</title>
<path fill="none" stroke="midnightblue" d="M59.0147,-15.5C66.9003,-15.5 75.7589,-15.5 84.6946,-15.5"/>
<polygon fill="midnightblue" stroke="midnightblue" points="84.7682,-19.0001 94.7682,-15.5 84.7682,-12.0001 84.7682,-19.0001"/>
</g>
<!-- Node3 -->
<g id="node3" class="node"><title>Node3</title>
<g id="a_node3"><a xlink:href="../../d5/d6c/namespacelime.html#adc6af0cf8e0a70f3ef09fac1244f8c48" target="_top" xlink:title="lime::ReportError">
<polygon fill="white" stroke="black" points="230,-6 230,-25 321,-25 321,-6 230,-6"/>
<text text-anchor="middle" x="275.5" y="-13" font-family="Helvetica,sans-Serif" font-size="10.00">lime::ReportError</text>
</a>
</g>
</g>
<!-- Node2&#45;&gt;Node3 -->
<g id="edge2" class="edge"><title>Node2&#45;&gt;Node3</title>
<path fill="none" stroke="midnightblue" d="M194.269,-15.5C202.588,-15.5 211.279,-15.5 219.74,-15.5"/>
<polygon fill="midnightblue" stroke="midnightblue" points="219.908,-19.0001 229.908,-15.5 219.908,-12.0001 219.908,-19.0001"/>
</g>
<!-- Node4 -->
<g id="node4" class="node"><title>Node4</title>
<g id="a_node4"><a xlink:href="../../d9/df5/Logger_8cpp.html#ada38bf01d6d691de953ed69268ea6516" target="_top" xlink:title="errToStr">
<polygon fill="white" stroke="black" points="357,-6 357,-25 409,-25 409,-6 357,-6"/>
<text text-anchor="middle" x="383" y="-13" font-family="Helvetica,sans-Serif" font-size="10.00">errToStr</text>
</a>
</g>
</g>
<!-- Node3&#45;&gt;Node4 -->
<g id="edge3" class="edge"><title>Node3&#45;&gt;Node4</title>
<path fill="none" stroke="midnightblue" d="M321.241,-15.5C329.676,-15.5 338.39,-15.5 346.494,-15.5"/>
<polygon fill="midnightblue" stroke="midnightblue" points="346.722,-19.0001 356.722,-15.5 346.722,-12.0001 346.722,-19.0001"/>
</g>
</g>
</svg>
