<?xml version="1.0" encoding="UTF-8" standalone="no"?>
<!DOCTYPE svg PUBLIC "-//W3C//DTD SVG 1.1//EN"
 "http://www.w3.org/Graphics/SVG/1.1/DTD/svg11.dtd">
<!-- Generated by graphviz version 2.38.0 (20140413.2041)
 -->
<!-- Title: Modify_SPI_Reg_bits Pages: 1 -->
<svg width="565pt" height="66pt"
 viewBox="0.00 0.00 565.00 66.00" xmlns="http://www.w3.org/2000/svg" xmlns:xlink="http://www.w3.org/1999/xlink">
<g id="graph0" class="graph" transform="scale(1 1) rotate(0) translate(4 62)">
<title>Modify_SPI_Reg_bits</title>
<polygon fill="white" stroke="none" points="-4,4 -4,-62 561,-62 561,4 -4,4"/>
<!-- Node1 -->
<g id="node1" class="node"><title>Node1</title>
<polygon fill="#bfbfbf" stroke="black" points="0,-19.5 0,-38.5 112,-38.5 112,-19.5 0,-19.5"/>
<text text-anchor="middle" x="56" y="-26.5" font-family="Helvetica,sans-Serif" font-size="10.00">Modify_SPI_Reg_bits</text>
</g>
<!-- Node2 -->
<g id="node2" class="node"><title>Node2</title>
<g id="a_node2"><a xlink:href="../../dd/d7e/spi_8cpp.html#a7dee89a3e8018d75340f8ffd14015284" target="_top" xlink:title="SPI_read">
<polygon fill="white" stroke="black" points="149,-38.5 149,-57.5 206,-57.5 206,-38.5 149,-38.5"/>
<text text-anchor="middle" x="177.5" y="-45.5" font-family="Helvetica,sans-Serif" font-size="10.00">SPI_read</text>
</a>
</g>
</g>
<!-- Node1&#45;&gt;Node2 -->
<g id="edge1" class="edge"><title>Node1&#45;&gt;Node2</title>
<path fill="none" stroke="midnightblue" d="M112.203,-37.777C121.246,-39.2148 130.429,-40.6749 138.916,-42.0244"/>
<polygon fill="midnightblue" stroke="midnightblue" points="138.443,-45.493 148.869,-43.6067 139.542,-38.5798 138.443,-45.493"/>
</g>
<!-- Node6 -->
<g id="node6" class="node"><title>Node6</title>
<g id="a_node6"><a xlink:href="../../dd/d7e/spi_8cpp.html#abf635d9f0da08fb2a479532b69852e60" target="_top" xlink:title="SPI_write">
<polygon fill="white" stroke="black" points="148,-0.5 148,-19.5 207,-19.5 207,-0.5 148,-0.5"/>
<text text-anchor="middle" x="177.5" y="-7.5" font-family="Helvetica,sans-Serif" font-size="10.00">SPI_write</text>
</a>
</g>
</g>
<!-- Node1&#45;&gt;Node6 -->
<g id="edge5" class="edge"><title>Node1&#45;&gt;Node6</title>
<path fill="none" stroke="midnightblue" d="M112.203,-20.223C120.889,-18.842 129.703,-17.4405 137.907,-16.1361"/>
<polygon fill="midnightblue" stroke="midnightblue" points="138.59,-19.5716 147.916,-14.5447 137.49,-12.6585 138.59,-19.5716"/>
</g>
<!-- Node3 -->
<g id="node3" class="node"><title>Node3</title>
<g id="a_node3"><a xlink:href="../../d2/de5/classlime_1_1IConnection.html#af3dfb39cc643d88c1196ded5d5cbecea" target="_top" xlink:title="Bulk SPI write/read transaction. ">
<polygon fill="white" stroke="black" points="243,-14 243,-44 342,-44 342,-14 243,-14"/>
<text text-anchor="start" x="251" y="-32" font-family="Helvetica,sans-Serif" font-size="10.00">lime::IConnection::</text>
<text text-anchor="middle" x="292.5" y="-21" font-family="Helvetica,sans-Serif" font-size="10.00">TransactSPI</text>
</a>
</g>
</g>
<!-- Node2&#45;&gt;Node3 -->
<g id="edge2" class="edge"><title>Node2&#45;&gt;Node3</title>
<path fill="none" stroke="midnightblue" d="M206.143,-43.3521C214.3,-41.9805 223.554,-40.4245 232.885,-38.8556"/>
<polygon fill="midnightblue" stroke="midnightblue" points="233.711,-42.2659 242.993,-37.1561 232.551,-35.3628 233.711,-42.2659"/>
</g>
<!-- Node4 -->
<g id="node4" class="node"><title>Node4</title>
<g id="a_node4"><a xlink:href="../../d5/d6c/namespacelime.html#adc6af0cf8e0a70f3ef09fac1244f8c48" target="_top" xlink:title="lime::ReportError">
<polygon fill="white" stroke="black" points="378,-19.5 378,-38.5 469,-38.5 469,-19.5 378,-19.5"/>
<text text-anchor="middle" x="423.5" y="-26.5" font-family="Helvetica,sans-Serif" font-size="10.00">lime::ReportError</text>
</a>
</g>
</g>
<!-- Node3&#45;&gt;Node4 -->
<g id="edge3" class="edge"><title>Node3&#45;&gt;Node4</title>
<path fill="none" stroke="midnightblue" d="M342.269,-29C350.588,-29 359.279,-29 367.74,-29"/>
<polygon fill="midnightblue" stroke="midnightblue" points="367.908,-32.5001 377.908,-29 367.908,-25.5001 367.908,-32.5001"/>
</g>
<!-- Node5 -->
<g id="node5" class="node"><title>Node5</title>
<g id="a_node5"><a xlink:href="../../d9/df5/Logger_8cpp.html#ada38bf01d6d691de953ed69268ea6516" target="_top" xlink:title="errToStr">
<polygon fill="white" stroke="black" points="505,-19.5 505,-38.5 557,-38.5 557,-19.5 505,-19.5"/>
<text text-anchor="middle" x="531" y="-26.5" font-family="Helvetica,sans-Serif" font-size="10.00">errToStr</text>
</a>
</g>
</g>
<!-- Node4&#45;&gt;Node5 -->
<g id="edge4" class="edge"><title>Node4&#45;&gt;Node5</title>
<path fill="none" stroke="midnightblue" d="M469.241,-29C477.676,-29 486.39,-29 494.494,-29"/>
<polygon fill="midnightblue" stroke="midnightblue" points="494.722,-32.5001 504.722,-29 494.722,-25.5001 494.722,-32.5001"/>
</g>
<!-- Node6&#45;&gt;Node3 -->
<g id="edge6" class="edge"><title>Node6&#45;&gt;Node3</title>
<path fill="none" stroke="midnightblue" d="M207.015,-14.7945C214.9,-16.1204 223.759,-17.6099 232.695,-19.1124"/>
<polygon fill="midnightblue" stroke="midnightblue" points="232.326,-22.5995 242.768,-20.8062 233.487,-15.6964 232.326,-22.5995"/>
</g>
</g>
</svg>
