<?xml version="1.0" encoding="UTF-8" standalone="no"?>
<!DOCTYPE svg PUBLIC "-//W3C//DTD SVG 1.1//EN"
 "http://www.w3.org/Graphics/SVG/1.1/DTD/svg11.dtd">
<!-- Generated by graphviz version 2.38.0 (20140413.2041)
 -->
<!-- Title: /home/erik/prefix/default/src/limesuite&#45;dev/src/lms7002_wxgui/lms7002_pnlTRF_view.cpp Pages: 1 -->
<svg width="2443pt" height="285pt"
 viewBox="0.00 0.00 2443.00 285.00" xmlns="http://www.w3.org/2000/svg" xmlns:xlink="http://www.w3.org/1999/xlink">
<g id="graph0" class="graph" transform="scale(1 1) rotate(0) translate(4 281)">
<title>/home/erik/prefix/default/src/limesuite&#45;dev/src/lms7002_wxgui/lms7002_pnlTRF_view.cpp</title>
<polygon fill="white" stroke="none" points="-4,4 -4,-281 2439,-281 2439,4 -4,4"/>
<!-- Node1 -->
<g id="node1" class="node"><title>Node1</title>
<polygon fill="#bfbfbf" stroke="black" points="1828,-224.5 1828,-276.5 1992,-276.5 1992,-224.5 1828,-224.5"/>
<text text-anchor="start" x="1836" y="-264.5" font-family="Helvetica,sans-Serif" font-size="10.00">/home/erik/prefix/default</text>
<text text-anchor="start" x="1836" y="-253.5" font-family="Helvetica,sans-Serif" font-size="10.00">/src/limesuite&#45;dev/src</text>
<text text-anchor="start" x="1836" y="-242.5" font-family="Helvetica,sans-Serif" font-size="10.00">/lms7002_wxgui/lms7002_pnlTRF</text>
<text text-anchor="middle" x="1910" y="-231.5" font-family="Helvetica,sans-Serif" font-size="10.00">_view.cpp</text>
</g>
<!-- Node2 -->
<g id="node2" class="node"><title>Node2</title>
<g id="a_node2"><a xlink:href="../../d2/dfe/lms7002__pnlTRF__view_8h.html" target="_top" xlink:title="Subclass of pnlTRF_view, which is generated by wxFormBuilder. ">
<polygon fill="white" stroke="black" points="1627.5,-168.5 1627.5,-187.5 1752.5,-187.5 1752.5,-168.5 1627.5,-168.5"/>
<text text-anchor="middle" x="1690" y="-175.5" font-family="Helvetica,sans-Serif" font-size="10.00">lms7002_pnlTRF_view.h</text>
</a>
</g>
</g>
<!-- Node1&#45;&gt;Node2 -->
<g id="edge1" class="edge"><title>Node1&#45;&gt;Node2</title>
<path fill="none" stroke="midnightblue" d="M1831.82,-224.446C1795.8,-212.904 1754.81,-199.767 1726.19,-190.596"/>
<polygon fill="midnightblue" stroke="midnightblue" points="1727.2,-187.246 1716.61,-187.527 1725.06,-193.912 1727.2,-187.246"/>
</g>
<!-- Node30 -->
<g id="node30" class="node"><title>Node30</title>
<polygon fill="white" stroke="#bfbfbf" points="1763.5,-112.5 1763.5,-131.5 1798.5,-131.5 1798.5,-112.5 1763.5,-112.5"/>
<text text-anchor="middle" x="1781" y="-119.5" font-family="Helvetica,sans-Serif" font-size="10.00">map</text>
</g>
<!-- Node1&#45;&gt;Node30 -->
<g id="edge33" class="edge"><title>Node1&#45;&gt;Node30</title>
<path fill="none" stroke="midnightblue" d="M1845.84,-224.419C1828.93,-215.168 1812.07,-203.145 1800,-188 1789.36,-174.649 1784.68,-155.535 1782.62,-141.489"/>
<polygon fill="midnightblue" stroke="midnightblue" points="1786.09,-141.048 1781.46,-131.517 1779.14,-141.854 1786.09,-141.048"/>
</g>
<!-- Node34 -->
<g id="node34" class="node"><title>Node34</title>
<polygon fill="white" stroke="#bfbfbf" points="1930,-112.5 1930,-131.5 1974,-131.5 1974,-112.5 1930,-112.5"/>
<text text-anchor="middle" x="1952" y="-119.5" font-family="Helvetica,sans-Serif" font-size="10.00">vector</text>
</g>
<!-- Node1&#45;&gt;Node34 -->
<g id="edge34" class="edge"><title>Node1&#45;&gt;Node34</title>
<path fill="none" stroke="midnightblue" d="M1920.51,-224.278C1924.94,-213.237 1929.98,-200.072 1934,-188 1939.14,-172.549 1944.01,-154.704 1947.38,-141.625"/>
<polygon fill="midnightblue" stroke="midnightblue" points="1950.78,-142.471 1949.84,-131.918 1943.99,-140.753 1950.78,-142.471"/>
</g>
<!-- Node35 -->
<g id="node35" class="node"><title>Node35</title>
<g id="a_node35"><a xlink:href="../../d8/d8c/lms7002__gui__utilities_8h.html" target="_top" xlink:title="lms7002_gui_utilities.h">
<polygon fill="white" stroke="black" points="1809,-168.5 1809,-187.5 1925,-187.5 1925,-168.5 1809,-168.5"/>
<text text-anchor="middle" x="1867" y="-175.5" font-family="Helvetica,sans-Serif" font-size="10.00">lms7002_gui_utilities.h</text>
</a>
</g>
</g>
<!-- Node1&#45;&gt;Node35 -->
<g id="edge35" class="edge"><title>Node1&#45;&gt;Node35</title>
<path fill="none" stroke="midnightblue" d="M1894.72,-224.446C1889.04,-215.129 1882.72,-204.772 1877.55,-196.302"/>
<polygon fill="midnightblue" stroke="midnightblue" points="1880.5,-194.41 1872.3,-187.695 1874.52,-198.055 1880.5,-194.41"/>
</g>
<!-- Node36 -->
<g id="node36" class="node"><title>Node36</title>
<polygon fill="white" stroke="#bfbfbf" points="1981,-168.5 1981,-187.5 2053,-187.5 2053,-168.5 1981,-168.5"/>
<text text-anchor="middle" x="2017" y="-175.5" font-family="Helvetica,sans-Serif" font-size="10.00">wx/msgdlg.h</text>
</g>
<!-- Node1&#45;&gt;Node36 -->
<g id="edge39" class="edge"><title>Node1&#45;&gt;Node36</title>
<path fill="none" stroke="midnightblue" d="M1948.03,-224.446C1963.94,-213.963 1981.84,-202.163 1995.43,-193.215"/>
<polygon fill="midnightblue" stroke="midnightblue" points="1997.63,-195.952 2004.06,-187.527 1993.78,-190.106 1997.63,-195.952"/>
</g>
<!-- Node37 -->
<g id="node37" class="node"><title>Node37</title>
<g id="a_node37"><a xlink:href="../../dc/dad/lms7suiteEvents_8h.html" target="_top" xlink:title="lms7suiteEvents.h">
<polygon fill="white" stroke="black" points="2071,-168.5 2071,-187.5 2169,-187.5 2169,-168.5 2071,-168.5"/>
<text text-anchor="middle" x="2120" y="-175.5" font-family="Helvetica,sans-Serif" font-size="10.00">lms7suiteEvents.h</text>
</a>
</g>
</g>
<!-- Node1&#45;&gt;Node37 -->
<g id="edge40" class="edge"><title>Node1&#45;&gt;Node37</title>
<path fill="none" stroke="midnightblue" d="M1984.63,-224.446C2018.86,-212.955 2057.8,-199.882 2085.1,-190.717"/>
<polygon fill="midnightblue" stroke="midnightblue" points="2086.23,-194.028 2094.6,-187.527 2084.01,-187.392 2086.23,-194.028"/>
</g>
<!-- Node3 -->
<g id="node3" class="node"><title>Node3</title>
<g id="a_node3"><a xlink:href="../../d0/d32/lms7002__wxgui_8h.html" target="_top" xlink:title="lms7002_wxgui.h">
<polygon fill="white" stroke="black" points="1140,-112.5 1140,-131.5 1232,-131.5 1232,-112.5 1140,-112.5"/>
<text text-anchor="middle" x="1186" y="-119.5" font-family="Helvetica,sans-Serif" font-size="10.00">lms7002_wxgui.h</text>
</a>
</g>
</g>
<!-- Node2&#45;&gt;Node3 -->
<g id="edge2" class="edge"><title>Node2&#45;&gt;Node3</title>
<path fill="none" stroke="midnightblue" d="M1627.44,-170.297C1528.37,-159.682 1336.91,-139.169 1242.06,-129.006"/>
<polygon fill="midnightblue" stroke="midnightblue" points="1242.4,-125.523 1232.08,-127.938 1241.65,-132.483 1242.4,-125.523"/>
</g>
<!-- Node2&#45;&gt;Node30 -->
<g id="edge29" class="edge"><title>Node2&#45;&gt;Node30</title>
<path fill="none" stroke="midnightblue" d="M1704.62,-168.324C1718.95,-159.822 1741.01,-146.729 1757.75,-136.797"/>
<polygon fill="midnightblue" stroke="midnightblue" points="1759.6,-139.768 1766.42,-131.655 1756.03,-133.748 1759.6,-139.768"/>
</g>
<!-- Node31 -->
<g id="node31" class="node"><title>Node31</title>
<g id="a_node31"><a xlink:href="../../d5/d07/LimeSuite_8h.html" target="_top" xlink:title="LMS API library. ">
<polygon fill="white" stroke="black" points="1822.5,-112.5 1822.5,-131.5 1911.5,-131.5 1911.5,-112.5 1822.5,-112.5"/>
<text text-anchor="middle" x="1867" y="-119.5" font-family="Helvetica,sans-Serif" font-size="10.00">lime/LimeSuite.h</text>
</a>
</g>
</g>
<!-- Node2&#45;&gt;Node31 -->
<g id="edge30" class="edge"><title>Node2&#45;&gt;Node31</title>
<path fill="none" stroke="midnightblue" d="M1718.05,-168.444C1748.08,-159.28 1795.91,-144.688 1829.24,-134.519"/>
<polygon fill="midnightblue" stroke="midnightblue" points="1830.54,-137.782 1839.09,-131.516 1828.5,-131.087 1830.54,-137.782"/>
</g>
<!-- Node4 -->
<g id="node4" class="node"><title>Node4</title>
<polygon fill="white" stroke="#bfbfbf" points="2029.5,-56.5 2029.5,-75.5 2100.5,-75.5 2100.5,-56.5 2029.5,-56.5"/>
<text text-anchor="middle" x="2065" y="-63.5" font-family="Helvetica,sans-Serif" font-size="10.00">wx/artprov.h</text>
</g>
<!-- Node3&#45;&gt;Node4 -->
<g id="edge3" class="edge"><title>Node3&#45;&gt;Node4</title>
<path fill="none" stroke="midnightblue" d="M1232.32,-120.827C1357.61,-119.862 1713.73,-113.838 2019.28,-75.8862"/>
<polygon fill="midnightblue" stroke="midnightblue" points="2019.73,-79.3573 2029.21,-74.6386 2018.86,-72.4119 2019.73,-79.3573"/>
</g>
<!-- Node5 -->
<g id="node5" class="node"><title>Node5</title>
<polygon fill="white" stroke="#bfbfbf" points="2119,-56.5 2119,-75.5 2205,-75.5 2205,-56.5 2119,-56.5"/>
<text text-anchor="middle" x="2162" y="-63.5" font-family="Helvetica,sans-Serif" font-size="10.00">wx/xrc/xmlres.h</text>
</g>
<!-- Node3&#45;&gt;Node5 -->
<g id="edge4" class="edge"><title>Node3&#45;&gt;Node5</title>
<path fill="none" stroke="midnightblue" d="M1232.25,-120.696C1367.54,-119.387 1774.07,-112.47 2109,-76 2109.1,-75.9889 2109.2,-75.9778 2109.3,-75.9666"/>
<polygon fill="midnightblue" stroke="midnightblue" points="2109.48,-79.4727 2118.96,-74.7507 2108.6,-72.5275 2109.48,-79.4727"/>
</g>
<!-- Node6 -->
<g id="node6" class="node"><title>Node6</title>
<polygon fill="white" stroke="#bfbfbf" points="2223.5,-56.5 2223.5,-75.5 2288.5,-75.5 2288.5,-56.5 2223.5,-56.5"/>
<text text-anchor="middle" x="2256" y="-63.5" font-family="Helvetica,sans-Serif" font-size="10.00">wx/string.h</text>
</g>
<!-- Node3&#45;&gt;Node6 -->
<g id="edge5" class="edge"><title>Node3&#45;&gt;Node6</title>
<path fill="none" stroke="midnightblue" d="M1232.06,-120.009C1402.8,-116.18 2000.29,-101.347 2212.94,-75.8607"/>
<polygon fill="midnightblue" stroke="midnightblue" points="2213.58,-79.3077 2223.07,-74.5999 2212.72,-72.3612 2213.58,-79.3077"/>
</g>
<!-- Node7 -->
<g id="node7" class="node"><title>Node7</title>
<polygon fill="white" stroke="#bfbfbf" points="0,-56.5 0,-75.5 68,-75.5 68,-56.5 0,-56.5"/>
<text text-anchor="middle" x="34" y="-63.5" font-family="Helvetica,sans-Serif" font-size="10.00">wx/button.h</text>
</g>
<!-- Node3&#45;&gt;Node7 -->
<g id="edge6" class="edge"><title>Node3&#45;&gt;Node7</title>
<path fill="none" stroke="midnightblue" d="M1139.79,-120.147C960.134,-116.675 307.225,-102.564 78.1158,-75.8858"/>
<polygon fill="midnightblue" stroke="midnightblue" points="78.529,-72.4104 68.1818,-74.6876 77.6907,-79.36 78.529,-72.4104"/>
</g>
<!-- Node8 -->
<g id="node8" class="node"><title>Node8</title>
<polygon fill="white" stroke="#bfbfbf" points="86,-56.5 86,-75.5 158,-75.5 158,-56.5 86,-56.5"/>
<text text-anchor="middle" x="122" y="-63.5" font-family="Helvetica,sans-Serif" font-size="10.00">wx/gdicmn.h</text>
</g>
<!-- Node3&#45;&gt;Node8 -->
<g id="edge7" class="edge"><title>Node3&#45;&gt;Node8</title>
<path fill="none" stroke="midnightblue" d="M1139.84,-121.472C996.805,-122.403 548.317,-121.326 168.363,-75.9676"/>
<polygon fill="midnightblue" stroke="midnightblue" points="168.619,-72.4733 158.272,-74.7506 167.781,-79.4229 168.619,-72.4733"/>
</g>
<!-- Node9 -->
<g id="node9" class="node"><title>Node9</title>
<polygon fill="white" stroke="#bfbfbf" points="176.5,-56.5 176.5,-75.5 233.5,-75.5 233.5,-56.5 176.5,-56.5"/>
<text text-anchor="middle" x="205" y="-63.5" font-family="Helvetica,sans-Serif" font-size="10.00">wx/font.h</text>
</g>
<!-- Node3&#45;&gt;Node9 -->
<g id="edge8" class="edge"><title>Node3&#45;&gt;Node9</title>
<path fill="none" stroke="midnightblue" d="M1139.79,-119.966C978.144,-116.172 437.86,-101.934 243.665,-75.9297"/>
<polygon fill="midnightblue" stroke="midnightblue" points="243.965,-72.4377 233.578,-74.5225 242.998,-79.3706 243.965,-72.4377"/>
</g>
<!-- Node10 -->
<g id="node10" class="node"><title>Node10</title>
<polygon fill="white" stroke="#bfbfbf" points="251.5,-56.5 251.5,-75.5 318.5,-75.5 318.5,-56.5 251.5,-56.5"/>
<text text-anchor="middle" x="285" y="-63.5" font-family="Helvetica,sans-Serif" font-size="10.00">wx/colour.h</text>
</g>
<!-- Node3&#45;&gt;Node10 -->
<g id="edge9" class="edge"><title>Node3&#45;&gt;Node10</title>
<path fill="none" stroke="midnightblue" d="M1139.67,-121.15C1011.84,-121.017 643.331,-116.934 329.064,-76.0789"/>
<polygon fill="midnightblue" stroke="midnightblue" points="329.217,-72.5689 318.846,-74.7349 328.304,-79.5092 329.217,-72.5689"/>
</g>
<!-- Node11 -->
<g id="node11" class="node"><title>Node11</title>
<polygon fill="white" stroke="#bfbfbf" points="336.5,-56.5 336.5,-75.5 411.5,-75.5 411.5,-56.5 336.5,-56.5"/>
<text text-anchor="middle" x="374" y="-63.5" font-family="Helvetica,sans-Serif" font-size="10.00">wx/settings.h</text>
</g>
<!-- Node3&#45;&gt;Node11 -->
<g id="edge10" class="edge"><title>Node3&#45;&gt;Node11</title>
<path fill="none" stroke="midnightblue" d="M1139.67,-120.377C1021.65,-118.34 699.955,-109.975 421.928,-75.9298"/>
<polygon fill="midnightblue" stroke="midnightblue" points="421.996,-72.4115 411.641,-74.6558 421.135,-79.3584 421.996,-72.4115"/>
</g>
<!-- Node12 -->
<g id="node12" class="node"><title>Node12</title>
<polygon fill="white" stroke="#bfbfbf" points="430,-56.5 430,-75.5 516,-75.5 516,-56.5 430,-56.5"/>
<text text-anchor="middle" x="473" y="-63.5" font-family="Helvetica,sans-Serif" font-size="10.00">wx/combobox.h</text>
</g>
<!-- Node3&#45;&gt;Node12 -->
<g id="edge11" class="edge"><title>Node3&#45;&gt;Node12</title>
<path fill="none" stroke="midnightblue" d="M1139.77,-119.498C1033.33,-115.686 762.637,-103.975 526.244,-76.0238"/>
<polygon fill="midnightblue" stroke="midnightblue" points="526.424,-72.5205 516.08,-74.8093 525.594,-79.4711 526.424,-72.5205"/>
</g>
<!-- Node13 -->
<g id="node13" class="node"><title>Node13</title>
<polygon fill="white" stroke="#bfbfbf" points="534.5,-56.5 534.5,-75.5 609.5,-75.5 609.5,-56.5 534.5,-56.5"/>
<text text-anchor="middle" x="572" y="-63.5" font-family="Helvetica,sans-Serif" font-size="10.00">wx/radiobut.h</text>
</g>
<!-- Node3&#45;&gt;Node13 -->
<g id="edge12" class="edge"><title>Node3&#45;&gt;Node13</title>
<path fill="none" stroke="midnightblue" d="M1139.79,-119.129C1044.37,-114.879 818.488,-102.823 619.644,-76.0855"/>
<polygon fill="midnightblue" stroke="midnightblue" points="619.978,-72.5988 609.597,-74.7188 619.034,-79.5349 619.978,-72.5988"/>
</g>
<!-- Node14 -->
<g id="node14" class="node"><title>Node14</title>
<polygon fill="white" stroke="#bfbfbf" points="627.5,-56.5 627.5,-75.5 710.5,-75.5 710.5,-56.5 627.5,-56.5"/>
<text text-anchor="middle" x="669" y="-63.5" font-family="Helvetica,sans-Serif" font-size="10.00">wx/checkbox.h</text>
</g>
<!-- Node3&#45;&gt;Node14 -->
<g id="edge13" class="edge"><title>Node3&#45;&gt;Node14</title>
<path fill="none" stroke="midnightblue" d="M1139.89,-117.752C1057.79,-111.707 880.675,-97.4834 720.73,-75.9938"/>
<polygon fill="midnightblue" stroke="midnightblue" points="721.086,-72.5103 710.707,-74.6345 720.146,-79.4468 721.086,-72.5103"/>
</g>
<!-- Node15 -->
<g id="node15" class="node"><title>Node15</title>
<polygon fill="white" stroke="#bfbfbf" points="729,-56.5 729,-75.5 791,-75.5 791,-56.5 729,-56.5"/>
<text text-anchor="middle" x="760" y="-63.5" font-family="Helvetica,sans-Serif" font-size="10.00">wx/sizer.h</text>
</g>
<!-- Node3&#45;&gt;Node15 -->
<g id="edge14" class="edge"><title>Node3&#45;&gt;Node15</title>
<path fill="none" stroke="midnightblue" d="M1139.73,-117.192C1068.9,-111.016 929.205,-97.4675 801.348,-76.0764"/>
<polygon fill="midnightblue" stroke="midnightblue" points="801.825,-72.6074 791.381,-74.3886 800.656,-79.5091 801.825,-72.6074"/>
</g>
<!-- Node16 -->
<g id="node16" class="node"><title>Node16</title>
<polygon fill="white" stroke="#bfbfbf" points="809,-56.5 809,-75.5 883,-75.5 883,-56.5 809,-56.5"/>
<text text-anchor="middle" x="846" y="-63.5" font-family="Helvetica,sans-Serif" font-size="10.00">wx/stattext.h</text>
</g>
<!-- Node3&#45;&gt;Node16 -->
<g id="edge15" class="edge"><title>Node3&#45;&gt;Node16</title>
<path fill="none" stroke="midnightblue" d="M1139.82,-114.534C1083.82,-106.559 986.321,-92.2474 893.02,-76.1205"/>
<polygon fill="midnightblue" stroke="midnightblue" points="893.584,-72.6662 883.133,-74.4017 892.385,-79.5627 893.584,-72.6662"/>
</g>
<!-- Node17 -->
<g id="node17" class="node"><title>Node17</title>
<polygon fill="white" stroke="#bfbfbf" points="901,-56.5 901,-75.5 965,-75.5 965,-56.5 901,-56.5"/>
<text text-anchor="middle" x="933" y="-63.5" font-family="Helvetica,sans-Serif" font-size="10.00">wx/panel.h</text>
</g>
<!-- Node3&#45;&gt;Node17 -->
<g id="edge16" class="edge"><title>Node3&#45;&gt;Node17</title>
<path fill="none" stroke="midnightblue" d="M1145.34,-112.457C1104.73,-103.905 1040.26,-90.2754 975.239,-76.257"/>
<polygon fill="midnightblue" stroke="midnightblue" points="975.738,-72.784 965.224,-74.0957 974.261,-79.6265 975.738,-72.784"/>
</g>
<!-- Node18 -->
<g id="node18" class="node"><title>Node18</title>
<polygon fill="white" stroke="#bfbfbf" points="983,-56.5 983,-75.5 1053,-75.5 1053,-56.5 983,-56.5"/>
<text text-anchor="middle" x="1018" y="-63.5" font-family="Helvetica,sans-Serif" font-size="10.00">wx/bitmap.h</text>
</g>
<!-- Node3&#45;&gt;Node18 -->
<g id="edge17" class="edge"><title>Node3&#45;&gt;Node18</title>
<path fill="none" stroke="midnightblue" d="M1159.38,-112.444C1130.99,-103.32 1085.86,-88.8133 1054.25,-78.6509"/>
<polygon fill="midnightblue" stroke="midnightblue" points="1055.09,-75.2445 1044.5,-75.5164 1052.94,-81.9087 1055.09,-75.2445"/>
</g>
<!-- Node19 -->
<g id="node19" class="node"><title>Node19</title>
<polygon fill="white" stroke="#bfbfbf" points="1071.5,-56.5 1071.5,-75.5 1138.5,-75.5 1138.5,-56.5 1071.5,-56.5"/>
<text text-anchor="middle" x="1105" y="-63.5" font-family="Helvetica,sans-Serif" font-size="10.00">wx/image.h</text>
</g>
<!-- Node3&#45;&gt;Node19 -->
<g id="edge18" class="edge"><title>Node3&#45;&gt;Node19</title>
<path fill="none" stroke="midnightblue" d="M1172.99,-112.324C1160.47,-103.979 1141.32,-91.2122 1126.53,-81.3524"/>
<polygon fill="midnightblue" stroke="midnightblue" points="1128.24,-78.2894 1117.98,-75.6545 1124.36,-84.1137 1128.24,-78.2894"/>
</g>
<!-- Node20 -->
<g id="node20" class="node"><title>Node20</title>
<polygon fill="white" stroke="#bfbfbf" points="1156.5,-56.5 1156.5,-75.5 1215.5,-75.5 1215.5,-56.5 1156.5,-56.5"/>
<text text-anchor="middle" x="1186" y="-63.5" font-family="Helvetica,sans-Serif" font-size="10.00">wx/icon.h</text>
</g>
<!-- Node3&#45;&gt;Node20 -->
<g id="edge19" class="edge"><title>Node3&#45;&gt;Node20</title>
<path fill="none" stroke="midnightblue" d="M1186,-112.083C1186,-105.006 1186,-94.8611 1186,-85.9865"/>
<polygon fill="midnightblue" stroke="midnightblue" points="1189.5,-85.751 1186,-75.7511 1182.5,-85.7511 1189.5,-85.751"/>
</g>
<!-- Node21 -->
<g id="node21" class="node"><title>Node21</title>
<polygon fill="white" stroke="#bfbfbf" points="1234,-56.5 1234,-75.5 1314,-75.5 1314,-56.5 1234,-56.5"/>
<text text-anchor="middle" x="1274" y="-63.5" font-family="Helvetica,sans-Serif" font-size="10.00">wx/notebook.h</text>
</g>
<!-- Node3&#45;&gt;Node21 -->
<g id="edge20" class="edge"><title>Node3&#45;&gt;Node21</title>
<path fill="none" stroke="midnightblue" d="M1200.14,-112.324C1213.87,-103.9 1234.94,-90.9709 1251.06,-81.0741"/>
<polygon fill="midnightblue" stroke="midnightblue" points="1253.2,-83.8678 1259.9,-75.6545 1249.54,-77.9016 1253.2,-83.8678"/>
</g>
<!-- Node22 -->
<g id="node22" class="node"><title>Node22</title>
<polygon fill="white" stroke="#bfbfbf" points="1332.5,-56.5 1332.5,-75.5 1405.5,-75.5 1405.5,-56.5 1332.5,-56.5"/>
<text text-anchor="middle" x="1369" y="-63.5" font-family="Helvetica,sans-Serif" font-size="10.00">wx/statbox.h</text>
</g>
<!-- Node3&#45;&gt;Node22 -->
<g id="edge21" class="edge"><title>Node3&#45;&gt;Node22</title>
<path fill="none" stroke="midnightblue" d="M1215,-112.444C1246.18,-103.241 1295.93,-88.5617 1330.41,-78.3879"/>
<polygon fill="midnightblue" stroke="midnightblue" points="1331.54,-81.7036 1340.14,-75.5164 1329.56,-74.9898 1331.54,-81.7036"/>
</g>
<!-- Node23 -->
<g id="node23" class="node"><title>Node23</title>
<polygon fill="white" stroke="#bfbfbf" points="1424,-56.5 1424,-75.5 1496,-75.5 1496,-56.5 1424,-56.5"/>
<text text-anchor="middle" x="1460" y="-63.5" font-family="Helvetica,sans-Serif" font-size="10.00">wx/spinctrl.h</text>
</g>
<!-- Node3&#45;&gt;Node23 -->
<g id="edge22" class="edge"><title>Node3&#45;&gt;Node23</title>
<path fill="none" stroke="midnightblue" d="M1229.42,-112.444C1279.78,-102.518 1362.46,-86.2229 1413.93,-76.0797"/>
<polygon fill="midnightblue" stroke="midnightblue" points="1414.65,-79.5045 1423.79,-74.1368 1413.3,-72.6366 1414.65,-79.5045"/>
</g>
<!-- Node24 -->
<g id="node24" class="node"><title>Node24</title>
<polygon fill="white" stroke="#bfbfbf" points="1514.5,-56.5 1514.5,-75.5 1591.5,-75.5 1591.5,-56.5 1514.5,-56.5"/>
<text text-anchor="middle" x="1553" y="-63.5" font-family="Helvetica,sans-Serif" font-size="10.00">wx/radiobox.h</text>
</g>
<!-- Node3&#45;&gt;Node24 -->
<g id="edge23" class="edge"><title>Node3&#45;&gt;Node24</title>
<path fill="none" stroke="midnightblue" d="M1232.06,-115.167C1292.22,-107.402 1401.07,-92.8501 1504.28,-76.0528"/>
<polygon fill="midnightblue" stroke="midnightblue" points="1504.95,-79.4904 1514.25,-74.4204 1503.82,-72.5824 1504.95,-79.4904"/>
</g>
<!-- Node25 -->
<g id="node25" class="node"><title>Node25</title>
<polygon fill="white" stroke="#bfbfbf" points="1609.5,-56.5 1609.5,-75.5 1680.5,-75.5 1680.5,-56.5 1609.5,-56.5"/>
<text text-anchor="middle" x="1645" y="-63.5" font-family="Helvetica,sans-Serif" font-size="10.00">wx/textctrl.h</text>
</g>
<!-- Node3&#45;&gt;Node25 -->
<g id="edge24" class="edge"><title>Node3&#45;&gt;Node25</title>
<path fill="none" stroke="midnightblue" d="M1232.12,-117.338C1306.97,-111.101 1459.72,-97.1465 1599.17,-75.9965"/>
<polygon fill="midnightblue" stroke="midnightblue" points="1599.84,-79.4359 1609.19,-74.4613 1598.77,-72.5167 1599.84,-79.4359"/>
</g>
<!-- Node26 -->
<g id="node26" class="node"><title>Node26</title>
<polygon fill="white" stroke="#bfbfbf" points="1698.5,-56.5 1698.5,-75.5 1767.5,-75.5 1767.5,-56.5 1698.5,-56.5"/>
<text text-anchor="middle" x="1733" y="-63.5" font-family="Helvetica,sans-Serif" font-size="10.00">wx/choice.h</text>
</g>
<!-- Node3&#45;&gt;Node26 -->
<g id="edge25" class="edge"><title>Node3&#45;&gt;Node26</title>
<path fill="none" stroke="midnightblue" d="M1232.32,-118.603C1319.53,-113.712 1514.19,-100.998 1688.36,-75.9183"/>
<polygon fill="midnightblue" stroke="midnightblue" points="1689.09,-79.3493 1698.48,-74.4438 1688.08,-72.4224 1689.09,-79.3493"/>
</g>
<!-- Node27 -->
<g id="node27" class="node"><title>Node27</title>
<polygon fill="white" stroke="#bfbfbf" points="1785.5,-56.5 1785.5,-75.5 1852.5,-75.5 1852.5,-56.5 1785.5,-56.5"/>
<text text-anchor="middle" x="1819" y="-63.5" font-family="Helvetica,sans-Serif" font-size="10.00">wx/gauge.h</text>
</g>
<!-- Node3&#45;&gt;Node27 -->
<g id="edge26" class="edge"><title>Node3&#45;&gt;Node27</title>
<path fill="none" stroke="midnightblue" d="M1232.12,-119.526C1330.2,-115.951 1566.84,-104.991 1775.07,-75.9345"/>
<polygon fill="midnightblue" stroke="midnightblue" points="1775.86,-79.3571 1785.27,-74.4924 1774.88,-72.4259 1775.86,-79.3571"/>
</g>
<!-- Node28 -->
<g id="node28" class="node"><title>Node28</title>
<polygon fill="white" stroke="#bfbfbf" points="1871,-56.5 1871,-75.5 1927,-75.5 1927,-56.5 1871,-56.5"/>
<text text-anchor="middle" x="1899" y="-63.5" font-family="Helvetica,sans-Serif" font-size="10.00">wx/grid.h</text>
</g>
<!-- Node3&#45;&gt;Node28 -->
<g id="edge27" class="edge"><title>Node3&#45;&gt;Node28</title>
<path fill="none" stroke="midnightblue" d="M1232.12,-120.557C1341.76,-118.931 1626.4,-111.351 1861,-76 1861.1,-75.9848 1861.2,-75.9696 1861.3,-75.9541"/>
<polygon fill="midnightblue" stroke="midnightblue" points="1861.67,-79.445 1870.88,-74.2091 1860.41,-72.5583 1861.67,-79.445"/>
</g>
<!-- Node29 -->
<g id="node29" class="node"><title>Node29</title>
<polygon fill="white" stroke="#bfbfbf" points="1945,-56.5 1945,-75.5 2011,-75.5 2011,-56.5 1945,-56.5"/>
<text text-anchor="middle" x="1978" y="-63.5" font-family="Helvetica,sans-Serif" font-size="10.00">wx/dialog.h</text>
</g>
<!-- Node3&#45;&gt;Node29 -->
<g id="edge28" class="edge"><title>Node3&#45;&gt;Node29</title>
<path fill="none" stroke="midnightblue" d="M1232.32,-120.65C1348.84,-119.25 1663.56,-112.255 1934.58,-75.9891"/>
<polygon fill="midnightblue" stroke="midnightblue" points="1935.17,-79.4416 1944.61,-74.6311 1934.23,-72.5049 1935.17,-79.4416"/>
</g>
<!-- Node32 -->
<g id="node32" class="node"><title>Node32</title>
<g id="a_node32"><a xlink:href="../../d1/d2e/LMS7002M__parameters_8h.html" target="_top" xlink:title="List of LMS7002M transceiver control parameters. ">
<polygon fill="white" stroke="black" points="2307,-56.5 2307,-75.5 2435,-75.5 2435,-56.5 2307,-56.5"/>
<text text-anchor="middle" x="2371" y="-63.5" font-family="Helvetica,sans-Serif" font-size="10.00">LMS7002M_parameters.h</text>
</a>
</g>
</g>
<!-- Node31&#45;&gt;Node32 -->
<g id="edge31" class="edge"><title>Node31&#45;&gt;Node32</title>
<path fill="none" stroke="midnightblue" d="M1911.75,-113.294C1914.88,-112.832 1917.98,-112.395 1921,-112 2084.63,-90.5777 2128.96,-94.1474 2296.74,-76.1059"/>
<polygon fill="midnightblue" stroke="midnightblue" points="2297.35,-79.5601 2306.92,-75.0016 2296.6,-72.601 2297.35,-79.5601"/>
</g>
<!-- Node33 -->
<g id="node33" class="node"><title>Node33</title>
<polygon fill="white" stroke="#bfbfbf" points="2346.5,-0.5 2346.5,-19.5 2395.5,-19.5 2395.5,-0.5 2346.5,-0.5"/>
<text text-anchor="middle" x="2371" y="-7.5" font-family="Helvetica,sans-Serif" font-size="10.00">stdint.h</text>
</g>
<!-- Node32&#45;&gt;Node33 -->
<g id="edge32" class="edge"><title>Node32&#45;&gt;Node33</title>
<path fill="none" stroke="midnightblue" d="M2371,-56.083C2371,-49.0059 2371,-38.8611 2371,-29.9865"/>
<polygon fill="midnightblue" stroke="midnightblue" points="2374.5,-29.751 2371,-19.7511 2367.5,-29.7511 2374.5,-29.751"/>
</g>
<!-- Node35&#45;&gt;Node30 -->
<g id="edge36" class="edge"><title>Node35&#45;&gt;Node30</title>
<path fill="none" stroke="midnightblue" d="M1853.18,-168.324C1839.77,-159.9 1819.18,-146.971 1803.41,-137.074"/>
<polygon fill="midnightblue" stroke="midnightblue" points="1805.11,-134.008 1794.78,-131.655 1801.39,-139.936 1805.11,-134.008"/>
</g>
<!-- Node35&#45;&gt;Node31 -->
<g id="edge38" class="edge"><title>Node35&#45;&gt;Node31</title>
<path fill="none" stroke="midnightblue" d="M1867,-168.083C1867,-161.006 1867,-150.861 1867,-141.986"/>
<polygon fill="midnightblue" stroke="midnightblue" points="1870.5,-141.751 1867,-131.751 1863.5,-141.751 1870.5,-141.751"/>
</g>
<!-- Node35&#45;&gt;Node34 -->
<g id="edge37" class="edge"><title>Node35&#45;&gt;Node34</title>
<path fill="none" stroke="midnightblue" d="M1880.66,-168.324C1893.92,-159.9 1914.27,-146.971 1929.85,-137.074"/>
<polygon fill="midnightblue" stroke="midnightblue" points="1931.81,-139.971 1938.38,-131.655 1928.06,-134.063 1931.81,-139.971"/>
</g>
<!-- Node38 -->
<g id="node38" class="node"><title>Node38</title>
<polygon fill="white" stroke="#bfbfbf" points="2093.5,-112.5 2093.5,-131.5 2146.5,-131.5 2146.5,-112.5 2093.5,-112.5"/>
<text text-anchor="middle" x="2120" y="-119.5" font-family="Helvetica,sans-Serif" font-size="10.00">wx/wx.h</text>
</g>
<!-- Node37&#45;&gt;Node38 -->
<g id="edge41" class="edge"><title>Node37&#45;&gt;Node38</title>
<path fill="none" stroke="midnightblue" d="M2120,-168.083C2120,-161.006 2120,-150.861 2120,-141.986"/>
<polygon fill="midnightblue" stroke="midnightblue" points="2123.5,-141.751 2120,-131.751 2116.5,-141.751 2123.5,-141.751"/>
</g>
</g>
</svg>
