<?xml version="1.0" encoding="UTF-8" standalone="no"?>
<!DOCTYPE svg PUBLIC "-//W3C//DTD SVG 1.1//EN"
 "http://www.w3.org/Graphics/SVG/1.1/DTD/svg11.dtd">
<!-- Generated by graphviz version 2.38.0 (20140413.2041)
 -->
<!-- Title: /home/erik/prefix/default/src/limesuite&#45;dev/src/lms7002_wxgui/dlgViewSFR.h Pages: 1 -->
<svg width="218pt" height="106pt"
 viewBox="0.00 0.00 218.00 106.00" xmlns="http://www.w3.org/2000/svg" xmlns:xlink="http://www.w3.org/1999/xlink">
<g id="graph0" class="graph" transform="scale(1 1) rotate(0) translate(4 102)">
<title>/home/erik/prefix/default/src/limesuite&#45;dev/src/lms7002_wxgui/dlgViewSFR.h</title>
<polygon fill="white" stroke="none" points="-4,4 -4,-102 214,-102 214,4 -4,4"/>
<!-- Node1 -->
<g id="node1" class="node"><title>Node1</title>
<polygon fill="#bfbfbf" stroke="black" points="39.5,-56.5 39.5,-97.5 192.5,-97.5 192.5,-56.5 39.5,-56.5"/>
<text text-anchor="start" x="47.5" y="-85.5" font-family="Helvetica,sans-Serif" font-size="10.00">/home/erik/prefix/default</text>
<text text-anchor="start" x="47.5" y="-74.5" font-family="Helvetica,sans-Serif" font-size="10.00">/src/limesuite&#45;dev/src</text>
<text text-anchor="middle" x="116" y="-63.5" font-family="Helvetica,sans-Serif" font-size="10.00">/lms7002_wxgui/dlgViewSFR.h</text>
</g>
<!-- Node2 -->
<g id="node2" class="node"><title>Node2</title>
<polygon fill="white" stroke="#bfbfbf" points="0,-0.5 0,-19.5 66,-19.5 66,-0.5 0,-0.5"/>
<text text-anchor="middle" x="33" y="-7.5" font-family="Helvetica,sans-Serif" font-size="10.00">wx/dialog.h</text>
</g>
<!-- Node1&#45;&gt;Node2 -->
<g id="edge1" class="edge"><title>Node1&#45;&gt;Node2</title>
<path fill="none" stroke="midnightblue" d="M91.0973,-56.4979C78.6165,-46.7238 63.7379,-35.0719 52.1623,-26.0066"/>
<polygon fill="midnightblue" stroke="midnightblue" points="54.0796,-23.0626 44.0486,-19.6525 49.7636,-28.5737 54.0796,-23.0626"/>
</g>
<!-- Node3 -->
<g id="node3" class="node"><title>Node3</title>
<polygon fill="white" stroke="#bfbfbf" points="84.5,-0.5 84.5,-19.5 147.5,-19.5 147.5,-0.5 84.5,-0.5"/>
<text text-anchor="middle" x="116" y="-7.5" font-family="Helvetica,sans-Serif" font-size="10.00">wx/arrstr.h</text>
</g>
<!-- Node1&#45;&gt;Node3 -->
<g id="edge2" class="edge"><title>Node1&#45;&gt;Node3</title>
<path fill="none" stroke="midnightblue" d="M116,-56.4979C116,-48.0653 116,-38.2351 116,-29.874"/>
<polygon fill="midnightblue" stroke="midnightblue" points="119.5,-29.6525 116,-19.6525 112.5,-29.6525 119.5,-29.6525"/>
</g>
<!-- Node4 -->
<g id="node4" class="node"><title>Node4</title>
<polygon fill="white" stroke="#bfbfbf" points="166,-0.5 166,-19.5 210,-19.5 210,-0.5 166,-0.5"/>
<text text-anchor="middle" x="188" y="-7.5" font-family="Helvetica,sans-Serif" font-size="10.00">vector</text>
</g>
<!-- Node1&#45;&gt;Node4 -->
<g id="edge3" class="edge"><title>Node1&#45;&gt;Node4</title>
<path fill="none" stroke="midnightblue" d="M137.602,-56.4979C148.217,-46.9154 160.83,-35.5281 170.783,-26.5428"/>
<polygon fill="midnightblue" stroke="midnightblue" points="173.338,-28.9515 178.416,-19.6525 168.648,-23.7556 173.338,-28.9515"/>
</g>
</g>
</svg>
