<?xml version="1.0" encoding="UTF-8" standalone="no"?>
<!DOCTYPE svg PUBLIC "-//W3C//DTD SVG 1.1//EN"
 "http://www.w3.org/Graphics/SVG/1.1/DTD/svg11.dtd">
<!-- Generated by graphviz version 2.38.0 (20140413.2041)
 -->
<!-- Title: IConnectionStream Pages: 1 -->
<svg width="182pt" height="458pt"
 viewBox="0.00 0.00 181.50 458.00" xmlns="http://www.w3.org/2000/svg" xmlns:xlink="http://www.w3.org/1999/xlink">
<g id="graph0" class="graph" transform="scale(1 1) rotate(0) translate(4 454)">
<title>IConnectionStream</title>
<polygon fill="white" stroke="none" points="-4,4 -4,-454 177.5,-454 177.5,4 -4,4"/>
<!-- Node1 -->
<g id="node1" class="node"><title>Node1</title>
<polygon fill="#bfbfbf" stroke="black" points="27,-0.5 27,-134.5 128,-134.5 128,-0.5 27,-0.5"/>
<text text-anchor="middle" x="77.5" y="-122.5" font-family="Helvetica,sans-Serif" font-size="10.00">IConnectionStream</text>
<polyline fill="none" stroke="black" points="27,-115.5 128,-115.5 "/>
<text text-anchor="start" x="35" y="-103.5" font-family="Helvetica,sans-Serif" font-size="10.00">+ direction</text>
<text text-anchor="start" x="35" y="-92.5" font-family="Helvetica,sans-Serif" font-size="10.00">+ elemSize</text>
<text text-anchor="start" x="35" y="-81.5" font-family="Helvetica,sans-Serif" font-size="10.00">+ elemMTU</text>
<text text-anchor="start" x="35" y="-70.5" font-family="Helvetica,sans-Serif" font-size="10.00">+ skipCal</text>
<text text-anchor="start" x="35" y="-59.5" font-family="Helvetica,sans-Serif" font-size="10.00">+ hasCmd</text>
<text text-anchor="start" x="35" y="-48.5" font-family="Helvetica,sans-Serif" font-size="10.00">+ flags</text>
<text text-anchor="start" x="35" y="-37.5" font-family="Helvetica,sans-Serif" font-size="10.00">+ timeNs</text>
<text text-anchor="start" x="35" y="-26.5" font-family="Helvetica,sans-Serif" font-size="10.00">+ numElems</text>
<polyline fill="none" stroke="black" points="27,-19.5 128,-19.5 "/>
<text text-anchor="middle" x="77.5" y="-7.5" font-family="Helvetica,sans-Serif" font-size="10.00"> </text>
</g>
<!-- Node2 -->
<g id="node2" class="node"><title>Node2</title>
<polygon fill="white" stroke="#bfbfbf" points="0,-182.5 0,-239.5 155,-239.5 155,-182.5 0,-182.5"/>
<text text-anchor="middle" x="77.5" y="-227.5" font-family="Helvetica,sans-Serif" font-size="10.00">std::vector&lt; StreamChannel * &gt;</text>
<polyline fill="none" stroke="#bfbfbf" points="0,-220.5 155,-220.5 "/>
<text text-anchor="start" x="8" y="-208.5" font-family="Helvetica,sans-Serif" font-size="10.00">+ elements</text>
<polyline fill="none" stroke="#bfbfbf" points="0,-201.5 155,-201.5 "/>
<text text-anchor="middle" x="77.5" y="-189.5" font-family="Helvetica,sans-Serif" font-size="10.00"> </text>
</g>
<!-- Node2&#45;&gt;Node1 -->
<g id="edge1" class="edge"><title>Node2&#45;&gt;Node1</title>
<path fill="none" stroke="#404040" d="M77.5,-182.381C77.5,-172.02 77.5,-159.663 77.5,-146.97"/>
<polygon fill="none" stroke="#404040" points="77.5001,-146.753 73.5,-140.753 77.5,-134.753 81.5,-140.753 77.5001,-146.753"/>
<text text-anchor="middle" x="102.5" y="-156" font-family="Helvetica,sans-Serif" font-size="10.00"> +streamID</text>
</g>
<!-- Node3 -->
<g id="node3" class="node"><title>Node3</title>
<g id="a_node3"><a xlink:title="STL class. ">
<polygon fill="white" stroke="#bfbfbf" points="34,-287.5 34,-344.5 121,-344.5 121,-287.5 34,-287.5"/>
<text text-anchor="middle" x="77.5" y="-332.5" font-family="Helvetica,sans-Serif" font-size="10.00">std::vector&lt; T &gt;</text>
<polyline fill="none" stroke="#bfbfbf" points="34,-325.5 121,-325.5 "/>
<text text-anchor="middle" x="77.5" y="-313.5" font-family="Helvetica,sans-Serif" font-size="10.00"> </text>
<polyline fill="none" stroke="#bfbfbf" points="34,-306.5 121,-306.5 "/>
<text text-anchor="middle" x="77.5" y="-294.5" font-family="Helvetica,sans-Serif" font-size="10.00"> </text>
</a>
</g>
</g>
<!-- Node3&#45;&gt;Node2 -->
<g id="edge2" class="edge"><title>Node3&#45;&gt;Node2</title>
<path fill="none" stroke="orange" d="M77.5,-277.286C77.5,-264.839 77.5,-251.233 77.5,-239.678"/>
<polygon fill="orange" stroke="orange" points="74.0001,-277.398 77.5,-287.398 81.0001,-277.398 74.0001,-277.398"/>
<text text-anchor="middle" x="125.5" y="-261" font-family="Helvetica,sans-Serif" font-size="10.00"> &lt; StreamChannel * &gt;</text>
</g>
<!-- Node4 -->
<g id="node4" class="node"><title>Node4</title>
<polygon fill="white" stroke="#bfbfbf" points="63,-392.5 63,-449.5 92,-449.5 92,-392.5 63,-392.5"/>
<text text-anchor="middle" x="77.5" y="-437.5" font-family="Helvetica,sans-Serif" font-size="10.00">T</text>
<polyline fill="none" stroke="#bfbfbf" points="63,-430.5 92,-430.5 "/>
<text text-anchor="middle" x="77.5" y="-418.5" font-family="Helvetica,sans-Serif" font-size="10.00"> </text>
<polyline fill="none" stroke="#bfbfbf" points="63,-411.5 92,-411.5 "/>
<text text-anchor="middle" x="77.5" y="-399.5" font-family="Helvetica,sans-Serif" font-size="10.00"> </text>
</g>
<!-- Node4&#45;&gt;Node3 -->
<g id="edge3" class="edge"><title>Node4&#45;&gt;Node3</title>
<path fill="none" stroke="#404040" d="M77.5,-392.398C77.5,-381.545 77.5,-368.873 77.5,-357.049"/>
<polygon fill="none" stroke="#404040" points="77.5001,-356.678 73.5,-350.678 77.5,-344.678 81.5,-350.678 77.5001,-356.678"/>
<text text-anchor="middle" x="102" y="-366" font-family="Helvetica,sans-Serif" font-size="10.00"> +elements</text>
</g>
</g>
</svg>
