<?xml version="1.0" encoding="UTF-8" standalone="no"?>
<!DOCTYPE svg PUBLIC "-//W3C//DTD SVG 1.1//EN"
 "http://www.w3.org/Graphics/SVG/1.1/DTD/svg11.dtd">
<!-- Generated by graphviz version 2.38.0 (20140413.2041)
 -->
<!-- Title: dlgDeviceInfo::Initialize Pages: 1 -->
<svg width="614pt" height="115pt"
 viewBox="0.00 0.00 614.00 115.00" xmlns="http://www.w3.org/2000/svg" xmlns:xlink="http://www.w3.org/1999/xlink">
<g id="graph0" class="graph" transform="scale(1 1) rotate(0) translate(4 111)">
<title>dlgDeviceInfo::Initialize</title>
<polygon fill="white" stroke="none" points="-4,4 -4,-111 610,-111 610,4 -4,4"/>
<!-- Node1 -->
<g id="node1" class="node"><title>Node1</title>
<polygon fill="#bfbfbf" stroke="black" points="0,-57 0,-76 119,-76 119,-57 0,-57"/>
<text text-anchor="middle" x="59.5" y="-64" font-family="Helvetica,sans-Serif" font-size="10.00">dlgDeviceInfo::Initialize</text>
</g>
<!-- Node2 -->
<g id="node2" class="node"><title>Node2</title>
<g id="a_node2"><a xlink:href="../../d1/df3/classLMS7SuiteAppFrame.html#acc9b9c66cc5f7908b5eb39e2eaaa926d" target="_top" xlink:title="LMS7SuiteAppFrame::\lOnShowDeviceInfo">
<polygon fill="white" stroke="black" points="155,-76.5 155,-106.5 271,-106.5 271,-76.5 155,-76.5"/>
<text text-anchor="start" x="163" y="-94.5" font-family="Helvetica,sans-Serif" font-size="10.00">LMS7SuiteAppFrame::</text>
<text text-anchor="middle" x="213" y="-83.5" font-family="Helvetica,sans-Serif" font-size="10.00">OnShowDeviceInfo</text>
</a>
</g>
</g>
<!-- Node1&#45;&gt;Node2 -->
<g id="edge1" class="edge"><title>Node1&#45;&gt;Node2</title>
<path fill="none" stroke="midnightblue" d="M128.204,-77.6722C137.137,-79.1464 146.222,-80.6456 154.954,-82.0864"/>
<polygon fill="midnightblue" stroke="midnightblue" points="128.644,-74.1977 118.208,-76.0227 127.505,-81.1043 128.644,-74.1977"/>
</g>
<!-- Node3 -->
<g id="node3" class="node"><title>Node3</title>
<g id="a_node3"><a xlink:href="../../d1/df3/classLMS7SuiteAppFrame.html#aeaeb613a8c9139f0e60b02f1f612ed5d" target="_top" xlink:title="LMS7SuiteAppFrame::\lUpdateConnections">
<polygon fill="white" stroke="black" points="155,-27.5 155,-57.5 271,-57.5 271,-27.5 155,-27.5"/>
<text text-anchor="start" x="163" y="-45.5" font-family="Helvetica,sans-Serif" font-size="10.00">LMS7SuiteAppFrame::</text>
<text text-anchor="middle" x="213" y="-34.5" font-family="Helvetica,sans-Serif" font-size="10.00">UpdateConnections</text>
</a>
</g>
</g>
<!-- Node1&#45;&gt;Node3 -->
<g id="edge2" class="edge"><title>Node1&#45;&gt;Node3</title>
<path fill="none" stroke="midnightblue" d="M129.019,-55.6455C137.562,-54.2921 146.229,-52.9192 154.579,-51.5964"/>
<polygon fill="midnightblue" stroke="midnightblue" points="128.403,-52.1993 119.074,-57.221 129.498,-59.1131 128.403,-52.1993"/>
</g>
<!-- Node4 -->
<g id="node4" class="node"><title>Node4</title>
<g id="a_node4"><a xlink:href="../../d1/df3/classLMS7SuiteAppFrame.html#ad380f4e547c66fcfffdec0da53fe5b3e" target="_top" xlink:title="Constructor. ">
<polygon fill="white" stroke="black" points="478,-49.5 478,-79.5 594,-79.5 594,-49.5 478,-49.5"/>
<text text-anchor="start" x="486" y="-67.5" font-family="Helvetica,sans-Serif" font-size="10.00">LMS7SuiteAppFrame::</text>
<text text-anchor="middle" x="536" y="-56.5" font-family="Helvetica,sans-Serif" font-size="10.00">LMS7SuiteAppFrame</text>
</a>
</g>
</g>
<!-- Node3&#45;&gt;Node4 -->
<g id="edge3" class="edge"><title>Node3&#45;&gt;Node4</title>
<path fill="none" stroke="midnightblue" d="M281.232,-47.1078C339.507,-51.1017 422.904,-56.8174 477.973,-60.5916"/>
<polygon fill="midnightblue" stroke="midnightblue" points="281.234,-43.5998 271.018,-46.4078 280.756,-50.5835 281.234,-43.5998"/>
</g>
<!-- Node5 -->
<g id="node5" class="node"><title>Node5</title>
<g id="a_node5"><a xlink:href="../../d1/df3/classLMS7SuiteAppFrame.html#a819f017d3e706c433d9b7f4f9bc1f9c3" target="_top" xlink:title="LMS7SuiteAppFrame::\lOnControlBoardConnect">
<polygon fill="white" stroke="black" points="307,-5.5 307,-35.5 430,-35.5 430,-5.5 307,-5.5"/>
<text text-anchor="start" x="315" y="-23.5" font-family="Helvetica,sans-Serif" font-size="10.00">LMS7SuiteAppFrame::</text>
<text text-anchor="middle" x="368.5" y="-12.5" font-family="Helvetica,sans-Serif" font-size="10.00">OnControlBoardConnect</text>
</a>
</g>
</g>
<!-- Node3&#45;&gt;Node5 -->
<g id="edge4" class="edge"><title>Node3&#45;&gt;Node5</title>
<path fill="none" stroke="midnightblue" d="M281.138,-32.8776C289.727,-31.6467 298.478,-30.3924 306.953,-29.1777"/>
<polygon fill="midnightblue" stroke="midnightblue" points="280.56,-29.4246 271.158,-34.308 281.553,-36.3538 280.56,-29.4246"/>
</g>
<!-- Node5&#45;&gt;Node4 -->
<g id="edge5" class="edge"><title>Node5&#45;&gt;Node4</title>
<path fill="none" stroke="midnightblue" d="M435.678,-38.0941C449.855,-41.8632 464.709,-45.8122 478.481,-49.4738"/>
<polygon fill="midnightblue" stroke="midnightblue" points="436.556,-34.7062 425.993,-35.5192 434.758,-41.4712 436.556,-34.7062"/>
</g>
<!-- Node6 -->
<g id="node6" class="node"><title>Node6</title>
<g id="a_node6"><a xlink:href="../../d1/df3/classLMS7SuiteAppFrame.html#a08626f72855857180d80ab271f481d08" target="_top" xlink:title="LMS7SuiteAppFrame::\lOnShowConnectionSettings">
<polygon fill="white" stroke="black" points="466,-0.5 466,-30.5 606,-30.5 606,-0.5 466,-0.5"/>
<text text-anchor="start" x="474" y="-18.5" font-family="Helvetica,sans-Serif" font-size="10.00">LMS7SuiteAppFrame::</text>
<text text-anchor="middle" x="536" y="-7.5" font-family="Helvetica,sans-Serif" font-size="10.00">OnShowConnectionSettings</text>
</a>
</g>
</g>
<!-- Node5&#45;&gt;Node6 -->
<g id="edge6" class="edge"><title>Node5&#45;&gt;Node6</title>
<path fill="none" stroke="midnightblue" d="M440.399,-18.358C448.86,-18.1024 457.49,-17.8417 465.925,-17.5868"/>
<polygon fill="midnightblue" stroke="midnightblue" points="440.076,-14.8661 430.186,-18.6666 440.287,-21.8629 440.076,-14.8661"/>
</g>
</g>
</svg>
