<?xml version="1.0" encoding="UTF-8" standalone="no"?>
<!DOCTYPE svg PUBLIC "-//W3C//DTD SVG 1.1//EN"
 "http://www.w3.org/Graphics/SVG/1.1/DTD/svg11.dtd">
<!-- Generated by graphviz version 2.38.0 (20140413.2041)
 -->
<!-- Title: lms7002_pnlRBB_view Pages: 1 -->
<svg width="456pt" height="744pt"
 viewBox="0.00 0.00 456.00 744.00" xmlns="http://www.w3.org/2000/svg" xmlns:xlink="http://www.w3.org/1999/xlink">
<g id="graph0" class="graph" transform="scale(1 1) rotate(0) translate(4 740)">
<title>lms7002_pnlRBB_view</title>
<polygon fill="white" stroke="none" points="-4,4 -4,-740 452,-740 452,4 -4,4"/>
<!-- Node1 -->
<g id="node1" class="node"><title>Node1</title>
<polygon fill="#bfbfbf" stroke="black" points="90,-0.5 90,-134.5 246,-134.5 246,-0.5 90,-0.5"/>
<text text-anchor="middle" x="168" y="-122.5" font-family="Helvetica,sans-Serif" font-size="10.00">lms7002_pnlRBB_view</text>
<polyline fill="none" stroke="black" points="90,-115.5 246,-115.5 "/>
<text text-anchor="start" x="98" y="-103.5" font-family="Helvetica,sans-Serif" font-size="10.00"># lmsControl</text>
<polyline fill="none" stroke="black" points="90,-96.5 246,-96.5 "/>
<text text-anchor="start" x="98" y="-84.5" font-family="Helvetica,sans-Serif" font-size="10.00">+ lms7002_pnlRBB_view()</text>
<text text-anchor="start" x="98" y="-73.5" font-family="Helvetica,sans-Serif" font-size="10.00">+ lms7002_pnlRBB_view()</text>
<text text-anchor="start" x="98" y="-62.5" font-family="Helvetica,sans-Serif" font-size="10.00">+ Initialize()</text>
<text text-anchor="start" x="98" y="-51.5" font-family="Helvetica,sans-Serif" font-size="10.00">+ UpdateGUI()</text>
<text text-anchor="start" x="98" y="-40.5" font-family="Helvetica,sans-Serif" font-size="10.00"># ParameterChangeHandler()</text>
<text text-anchor="start" x="98" y="-29.5" font-family="Helvetica,sans-Serif" font-size="10.00"># ParameterChangeHandler()</text>
<text text-anchor="start" x="98" y="-18.5" font-family="Helvetica,sans-Serif" font-size="10.00"># OncmbBBLoopbackSelected()</text>
<text text-anchor="start" x="98" y="-7.5" font-family="Helvetica,sans-Serif" font-size="10.00"># OnbtnTuneFilter()</text>
</g>
<!-- Node2 -->
<g id="node2" class="node"><title>Node2</title>
<g id="a_node2"><a xlink:href="../../df/d8f/classpnlRBB__view.html" target="_top" xlink:title="Class pnlRBB_view. ">
<polygon fill="white" stroke="black" points="0,-182.5 0,-404.5 156,-404.5 156,-182.5 0,-182.5"/>
<text text-anchor="middle" x="78" y="-392.5" font-family="Helvetica,sans-Serif" font-size="10.00">pnlRBB_view</text>
<polyline fill="none" stroke="black" points="0,-385.5 156,-385.5 "/>
<text text-anchor="start" x="8" y="-373.5" font-family="Helvetica,sans-Serif" font-size="10.00"># chkPD_LPFH_RBB</text>
<text text-anchor="start" x="8" y="-362.5" font-family="Helvetica,sans-Serif" font-size="10.00"># chkPD_LPFL_RBB</text>
<text text-anchor="start" x="8" y="-351.5" font-family="Helvetica,sans-Serif" font-size="10.00"># chkPD_PGA_RBB</text>
<text text-anchor="start" x="8" y="-340.5" font-family="Helvetica,sans-Serif" font-size="10.00"># chkEN_G_RBB</text>
<text text-anchor="start" x="8" y="-329.5" font-family="Helvetica,sans-Serif" font-size="10.00"># chkEN_DIR_RBB</text>
<text text-anchor="start" x="8" y="-318.5" font-family="Helvetica,sans-Serif" font-size="10.00"># ID_STATICTEXT14</text>
<text text-anchor="start" x="8" y="-307.5" font-family="Helvetica,sans-Serif" font-size="10.00"># cmbBBLoopback</text>
<text text-anchor="start" x="8" y="-296.5" font-family="Helvetica,sans-Serif" font-size="10.00"># ID_STATICTEXT1</text>
<text text-anchor="start" x="8" y="-285.5" font-family="Helvetica,sans-Serif" font-size="10.00"># cmbINPUT_CTL_PGA_RBB</text>
<text text-anchor="start" x="8" y="-274.5" font-family="Helvetica,sans-Serif" font-size="10.00"># ID_STATICTEXT2</text>
<text text-anchor="start" x="8" y="-263.5" font-family="Helvetica,sans-Serif" font-size="10.00">and 24 more...</text>
<polyline fill="none" stroke="black" points="0,-256.5 156,-256.5 "/>
<text text-anchor="start" x="8" y="-244.5" font-family="Helvetica,sans-Serif" font-size="10.00">+ pnlRBB_view()</text>
<text text-anchor="start" x="8" y="-233.5" font-family="Helvetica,sans-Serif" font-size="10.00">+ ~pnlRBB_view()</text>
<text text-anchor="start" x="8" y="-222.5" font-family="Helvetica,sans-Serif" font-size="10.00"># ParameterChangeHandler()</text>
<text text-anchor="start" x="8" y="-211.5" font-family="Helvetica,sans-Serif" font-size="10.00"># OncmbBBLoopbackSelected()</text>
<text text-anchor="start" x="8" y="-200.5" font-family="Helvetica,sans-Serif" font-size="10.00"># ParameterChangeHandler()</text>
<text text-anchor="start" x="8" y="-189.5" font-family="Helvetica,sans-Serif" font-size="10.00"># OnbtnTuneFilter()</text>
</a>
</g>
</g>
<!-- Node2&#45;&gt;Node1 -->
<g id="edge1" class="edge"><title>Node2&#45;&gt;Node1</title>
<path fill="none" stroke="midnightblue" d="M126.062,-172.878C131.346,-159.727 136.574,-146.716 141.452,-134.576"/>
<polygon fill="none" stroke="midnightblue" points="122.69,-171.885 122.209,-182.469 129.185,-174.494 122.69,-171.885"/>
</g>
<!-- Node3 -->
<g id="node3" class="node"><title>Node3</title>
<polygon fill="white" stroke="#bfbfbf" points="1,-678.5 1,-735.5 55,-735.5 55,-678.5 1,-678.5"/>
<text text-anchor="middle" x="28" y="-723.5" font-family="Helvetica,sans-Serif" font-size="10.00">wxPanel</text>
<polyline fill="none" stroke="#bfbfbf" points="1,-716.5 55,-716.5 "/>
<text text-anchor="middle" x="28" y="-704.5" font-family="Helvetica,sans-Serif" font-size="10.00"> </text>
<polyline fill="none" stroke="#bfbfbf" points="1,-697.5 55,-697.5 "/>
<text text-anchor="middle" x="28" y="-685.5" font-family="Helvetica,sans-Serif" font-size="10.00"> </text>
</g>
<!-- Node3&#45;&gt;Node2 -->
<g id="edge2" class="edge"><title>Node3&#45;&gt;Node2</title>
<path fill="none" stroke="midnightblue" d="M21.3724,-668.276C19.5787,-656.389 17.8886,-643.182 17,-631 11.9237,-561.407 5.62183,-542.844 17,-474 20.7837,-451.107 27.1097,-427.209 34.2907,-404.597"/>
<polygon fill="none" stroke="midnightblue" points="17.9419,-668.992 22.9578,-678.324 24.8564,-667.901 17.9419,-668.992"/>
</g>
<!-- Node4 -->
<g id="node4" class="node"><title>Node4</title>
<g id="a_node4"><a xlink:href="../../d9/d45/classNumericSlider.html" target="_top" xlink:title="{NumericSlider\n|# mSpinner\l# mScroll\l|+ NumericSlider()\l+ NumericSlider()\l+ ~NumericSlider()\l+ SetValue()\l+ GetValue()\l+ SetToolTip()\l# OnSpinnerChangeEnter()\l# OnSpinnerChange()\l# OnScrollChange()\l}">
<polygon fill="white" stroke="black" points="26,-474.5 26,-630.5 160,-630.5 160,-474.5 26,-474.5"/>
<text text-anchor="middle" x="93" y="-618.5" font-family="Helvetica,sans-Serif" font-size="10.00">NumericSlider</text>
<polyline fill="none" stroke="black" points="26,-611.5 160,-611.5 "/>
<text text-anchor="start" x="34" y="-599.5" font-family="Helvetica,sans-Serif" font-size="10.00"># mSpinner</text>
<text text-anchor="start" x="34" y="-588.5" font-family="Helvetica,sans-Serif" font-size="10.00"># mScroll</text>
<polyline fill="none" stroke="black" points="26,-581.5 160,-581.5 "/>
<text text-anchor="start" x="34" y="-569.5" font-family="Helvetica,sans-Serif" font-size="10.00">+ NumericSlider()</text>
<text text-anchor="start" x="34" y="-558.5" font-family="Helvetica,sans-Serif" font-size="10.00">+ NumericSlider()</text>
<text text-anchor="start" x="34" y="-547.5" font-family="Helvetica,sans-Serif" font-size="10.00">+ ~NumericSlider()</text>
<text text-anchor="start" x="34" y="-536.5" font-family="Helvetica,sans-Serif" font-size="10.00">+ SetValue()</text>
<text text-anchor="start" x="34" y="-525.5" font-family="Helvetica,sans-Serif" font-size="10.00">+ GetValue()</text>
<text text-anchor="start" x="34" y="-514.5" font-family="Helvetica,sans-Serif" font-size="10.00">+ SetToolTip()</text>
<text text-anchor="start" x="34" y="-503.5" font-family="Helvetica,sans-Serif" font-size="10.00"># OnSpinnerChangeEnter()</text>
<text text-anchor="start" x="34" y="-492.5" font-family="Helvetica,sans-Serif" font-size="10.00"># OnSpinnerChange()</text>
<text text-anchor="start" x="34" y="-481.5" font-family="Helvetica,sans-Serif" font-size="10.00"># OnScrollChange()</text>
</a>
</g>
</g>
<!-- Node3&#45;&gt;Node4 -->
<g id="edge4" class="edge"><title>Node3&#45;&gt;Node4</title>
<path fill="none" stroke="midnightblue" d="M43.7644,-669.014C48.7383,-657.345 54.4313,-643.988 60.1392,-630.596"/>
<polygon fill="none" stroke="midnightblue" points="40.4723,-667.812 39.771,-678.383 46.9118,-670.557 40.4723,-667.812"/>
</g>
<!-- Node4&#45;&gt;Node2 -->
<g id="edge3" class="edge"><title>Node4&#45;&gt;Node2</title>
<path fill="none" stroke="#404040" d="M88.4995,-474.392C87.4418,-456.27 86.2889,-436.516 85.1469,-416.95"/>
<polygon fill="none" stroke="#404040" points="85.1375,-416.787 80.7946,-411.031 84.4382,-404.808 88.781,-410.564 85.1375,-416.787"/>
<text text-anchor="middle" x="146" y="-448" font-family="Helvetica,sans-Serif" font-size="10.00"> #cmbC_CTL_LPFH_RBB</text>
<text text-anchor="middle" x="146" y="-437" font-family="Helvetica,sans-Serif" font-size="10.00">#cmbC_CTL_PGA_RBB</text>
<text text-anchor="middle" x="146" y="-426" font-family="Helvetica,sans-Serif" font-size="10.00">#cmbC_CTL_LPFL_RBB</text>
</g>
<!-- Node5 -->
<g id="node5" class="node"><title>Node5</title>
<polygon fill="white" stroke="#bfbfbf" points="174,-259.5 174,-327.5 286,-327.5 286,-259.5 174,-259.5"/>
<text text-anchor="start" x="182" y="-315.5" font-family="Helvetica,sans-Serif" font-size="10.00">std::map&lt; wxWindow</text>
<text text-anchor="middle" x="230" y="-304.5" font-family="Helvetica,sans-Serif" font-size="10.00"> *, LMS7Parameter &gt;</text>
<polyline fill="none" stroke="#bfbfbf" points="174,-297.5 286,-297.5 "/>
<text text-anchor="start" x="182" y="-285.5" font-family="Helvetica,sans-Serif" font-size="10.00">+ keys</text>
<polyline fill="none" stroke="#bfbfbf" points="174,-278.5 286,-278.5 "/>
<text text-anchor="middle" x="230" y="-266.5" font-family="Helvetica,sans-Serif" font-size="10.00"> </text>
</g>
<!-- Node5&#45;&gt;Node1 -->
<g id="edge5" class="edge"><title>Node5&#45;&gt;Node1</title>
<path fill="none" stroke="#404040" d="M220.852,-259.448C212.64,-229.78 200.266,-185.075 189.556,-146.379"/>
<polygon fill="none" stroke="#404040" points="189.493,-146.151 184.037,-141.435 186.292,-134.586 191.747,-139.301 189.493,-146.151"/>
<text text-anchor="middle" x="227" y="-156" font-family="Helvetica,sans-Serif" font-size="10.00"> #wndId2Enum</text>
</g>
<!-- Node6 -->
<g id="node6" class="node"><title>Node6</title>
<g id="a_node6"><a xlink:href="../../d5/d45/structLMS7Parameter.html" target="_top" xlink:title="{LMS7Parameter\n|+ address\l+ msb\l+ lsb\l+ defaultValue\l+ name\l+ tooltip\l+ msblsb\l|}">
<polygon fill="white" stroke="black" points="183.5,-491 183.5,-614 270.5,-614 270.5,-491 183.5,-491"/>
<text text-anchor="middle" x="227" y="-602" font-family="Helvetica,sans-Serif" font-size="10.00">LMS7Parameter</text>
<polyline fill="none" stroke="black" points="183.5,-595 270.5,-595 "/>
<text text-anchor="start" x="191.5" y="-583" font-family="Helvetica,sans-Serif" font-size="10.00">+ address</text>
<text text-anchor="start" x="191.5" y="-572" font-family="Helvetica,sans-Serif" font-size="10.00">+ msb</text>
<text text-anchor="start" x="191.5" y="-561" font-family="Helvetica,sans-Serif" font-size="10.00">+ lsb</text>
<text text-anchor="start" x="191.5" y="-550" font-family="Helvetica,sans-Serif" font-size="10.00">+ defaultValue</text>
<text text-anchor="start" x="191.5" y="-539" font-family="Helvetica,sans-Serif" font-size="10.00">+ name</text>
<text text-anchor="start" x="191.5" y="-528" font-family="Helvetica,sans-Serif" font-size="10.00">+ tooltip</text>
<text text-anchor="start" x="191.5" y="-517" font-family="Helvetica,sans-Serif" font-size="10.00">+ msblsb</text>
<polyline fill="none" stroke="black" points="183.5,-510 270.5,-510 "/>
<text text-anchor="middle" x="227" y="-498" font-family="Helvetica,sans-Serif" font-size="10.00"> </text>
</a>
</g>
</g>
<!-- Node6&#45;&gt;Node5 -->
<g id="edge6" class="edge"><title>Node6&#45;&gt;Node5</title>
<path fill="none" stroke="#404040" d="M227.707,-490.92C228.248,-444.557 228.983,-381.64 229.473,-339.634"/>
<polygon fill="none" stroke="#404040" points="229.474,-339.575 225.544,-333.529 229.614,-327.576 233.544,-333.623 229.474,-339.575"/>
<text text-anchor="middle" x="253.5" y="-437" font-family="Helvetica,sans-Serif" font-size="10.00"> +elements</text>
</g>
<!-- Node7 -->
<g id="node7" class="node"><title>Node7</title>
<g id="a_node7"><a xlink:title="STL class. ">
<polygon fill="white" stroke="#bfbfbf" points="289,-524 289,-581 381,-581 381,-524 289,-524"/>
<text text-anchor="middle" x="335" y="-569" font-family="Helvetica,sans-Serif" font-size="10.00">std::map&lt; K, T &gt;</text>
<polyline fill="none" stroke="#bfbfbf" points="289,-562 381,-562 "/>
<text text-anchor="middle" x="335" y="-550" font-family="Helvetica,sans-Serif" font-size="10.00"> </text>
<polyline fill="none" stroke="#bfbfbf" points="289,-543 381,-543 "/>
<text text-anchor="middle" x="335" y="-531" font-family="Helvetica,sans-Serif" font-size="10.00"> </text>
</a>
</g>
</g>
<!-- Node7&#45;&gt;Node5 -->
<g id="edge7" class="edge"><title>Node7&#45;&gt;Node5</title>
<path fill="none" stroke="orange" d="M319.894,-514.526C299.451,-464.49 263.28,-375.958 243.629,-327.859"/>
<polygon fill="orange" stroke="orange" points="316.741,-516.063 323.763,-523.996 323.221,-513.416 316.741,-516.063"/>
<text text-anchor="middle" x="371.5" y="-437" font-family="Helvetica,sans-Serif" font-size="10.00"> &lt; wxWindow *, LMS7Parameter &gt;</text>
</g>
<!-- Node8 -->
<g id="node8" class="node"><title>Node8</title>
<polygon fill="white" stroke="#bfbfbf" points="293.5,-678.5 293.5,-735.5 322.5,-735.5 322.5,-678.5 293.5,-678.5"/>
<text text-anchor="middle" x="308" y="-723.5" font-family="Helvetica,sans-Serif" font-size="10.00">K</text>
<polyline fill="none" stroke="#bfbfbf" points="293.5,-716.5 322.5,-716.5 "/>
<text text-anchor="middle" x="308" y="-704.5" font-family="Helvetica,sans-Serif" font-size="10.00"> </text>
<polyline fill="none" stroke="#bfbfbf" points="293.5,-697.5 322.5,-697.5 "/>
<text text-anchor="middle" x="308" y="-685.5" font-family="Helvetica,sans-Serif" font-size="10.00"> </text>
</g>
<!-- Node8&#45;&gt;Node7 -->
<g id="edge8" class="edge"><title>Node8&#45;&gt;Node7</title>
<path fill="none" stroke="#404040" d="M307.109,-678.348C307.173,-668.99 307.644,-658.504 309,-649 311.675,-630.247 316.867,-609.935 321.913,-592.885"/>
<polygon fill="none" stroke="#404040" points="322.005,-592.587 319.94,-585.678 325.524,-581.115 327.588,-588.024 322.005,-592.587"/>
<text text-anchor="middle" x="324.5" y="-652" font-family="Helvetica,sans-Serif" font-size="10.00"> +keys</text>
</g>
<!-- Node9 -->
<g id="node9" class="node"><title>Node9</title>
<polygon fill="white" stroke="#bfbfbf" points="347.5,-678.5 347.5,-735.5 376.5,-735.5 376.5,-678.5 347.5,-678.5"/>
<text text-anchor="middle" x="362" y="-723.5" font-family="Helvetica,sans-Serif" font-size="10.00">T</text>
<polyline fill="none" stroke="#bfbfbf" points="347.5,-716.5 376.5,-716.5 "/>
<text text-anchor="middle" x="362" y="-704.5" font-family="Helvetica,sans-Serif" font-size="10.00"> </text>
<polyline fill="none" stroke="#bfbfbf" points="347.5,-697.5 376.5,-697.5 "/>
<text text-anchor="middle" x="362" y="-685.5" font-family="Helvetica,sans-Serif" font-size="10.00"> </text>
</g>
<!-- Node9&#45;&gt;Node7 -->
<g id="edge9" class="edge"><title>Node9&#45;&gt;Node7</title>
<path fill="none" stroke="#404040" d="M357.111,-678.383C352.899,-654.598 346.77,-619.977 342.032,-593.217"/>
<polygon fill="none" stroke="#404040" points="341.991,-592.985 337.006,-587.774 339.899,-581.168 344.883,-586.379 341.991,-592.985"/>
<text text-anchor="middle" x="378.5" y="-652" font-family="Helvetica,sans-Serif" font-size="10.00"> +elements</text>
</g>
</g>
</svg>
