<?xml version="1.0" encoding="UTF-8" standalone="no"?>
<!DOCTYPE svg PUBLIC "-//W3C//DTD SVG 1.1//EN"
 "http://www.w3.org/Graphics/SVG/1.1/DTD/svg11.dtd">
<!-- Generated by graphviz version 2.38.0 (20140413.2041)
 -->
<!-- Title: ConfigCGEN_ForLPF_IF Pages: 1 -->
<svg width="531pt" height="66pt"
 viewBox="0.00 0.00 531.00 66.00" xmlns="http://www.w3.org/2000/svg" xmlns:xlink="http://www.w3.org/1999/xlink">
<g id="graph0" class="graph" transform="scale(1 1) rotate(0) translate(4 62)">
<title>ConfigCGEN_ForLPF_IF</title>
<polygon fill="white" stroke="none" points="-4,4 -4,-62 527,-62 527,4 -4,4"/>
<!-- Node1 -->
<g id="node1" class="node"><title>Node1</title>
<polygon fill="#bfbfbf" stroke="black" points="0,-19.5 0,-38.5 126,-38.5 126,-19.5 0,-19.5"/>
<text text-anchor="middle" x="63" y="-26.5" font-family="Helvetica,sans-Serif" font-size="10.00">ConfigCGEN_ForLPF_IF</text>
</g>
<!-- Node2 -->
<g id="node2" class="node"><title>Node2</title>
<g id="a_node2"><a xlink:href="../../d2/da6/lms7002m__filters_8c.html#a0b0fba102366e901abb3ea5a08d8d373" target="_top" xlink:title="TuneRxFilterSetup">
<polygon fill="white" stroke="black" points="162,-38.5 162,-57.5 260,-57.5 260,-38.5 162,-38.5"/>
<text text-anchor="middle" x="211" y="-45.5" font-family="Helvetica,sans-Serif" font-size="10.00">TuneRxFilterSetup</text>
</a>
</g>
</g>
<!-- Node1&#45;&gt;Node2 -->
<g id="edge1" class="edge"><title>Node1&#45;&gt;Node2</title>
<path fill="none" stroke="midnightblue" d="M136.474,-38.4316C145.136,-39.5587 153.807,-40.6872 162,-41.7534"/>
<polygon fill="midnightblue" stroke="midnightblue" points="136.709,-34.9327 126.341,-37.1128 135.805,-41.8741 136.709,-34.9327"/>
</g>
<!-- Node7 -->
<g id="node7" class="node"><title>Node7</title>
<g id="a_node7"><a xlink:href="../../d2/da6/lms7002m__filters_8c.html#af1361ae85c78643bf99447e7251304fb" target="_top" xlink:title="TuneTxFilterSetup">
<polygon fill="white" stroke="black" points="162.5,-0.5 162.5,-19.5 259.5,-19.5 259.5,-0.5 162.5,-0.5"/>
<text text-anchor="middle" x="211" y="-7.5" font-family="Helvetica,sans-Serif" font-size="10.00">TuneTxFilterSetup</text>
</a>
</g>
</g>
<!-- Node1&#45;&gt;Node7 -->
<g id="edge6" class="edge"><title>Node1&#45;&gt;Node7</title>
<path fill="none" stroke="midnightblue" d="M136.32,-19.5885C145.189,-18.4343 154.072,-17.2784 162.443,-16.1889"/>
<polygon fill="midnightblue" stroke="midnightblue" points="135.805,-16.1259 126.341,-20.8872 136.709,-23.0673 135.805,-16.1259"/>
</g>
<!-- Node3 -->
<g id="node3" class="node"><title>Node3</title>
<g id="a_node3"><a xlink:href="../../d8/d1f/lms7002m__filters_8h.html#a9424d257383be4943c2846bb47253bf3" target="_top" xlink:title="TuneRxFilter">
<polygon fill="white" stroke="black" points="296,-38.5 296,-57.5 369,-57.5 369,-38.5 296,-38.5"/>
<text text-anchor="middle" x="332.5" y="-45.5" font-family="Helvetica,sans-Serif" font-size="10.00">TuneRxFilter</text>
</a>
</g>
</g>
<!-- Node2&#45;&gt;Node3 -->
<g id="edge2" class="edge"><title>Node2&#45;&gt;Node3</title>
<path fill="none" stroke="midnightblue" d="M270.423,-48C279.133,-48 287.88,-48 295.924,-48"/>
<polygon fill="midnightblue" stroke="midnightblue" points="270.261,-44.5001 260.261,-48 270.261,-51.5001 270.261,-44.5001"/>
</g>
<!-- Node4 -->
<g id="node4" class="node"><title>Node4</title>
<g id="a_node4"><a xlink:href="../../d0/d29/main_8c.html#acdef7a1fd863a6d3770c1268cb06add3" target="_top" xlink:title="main">
<polygon fill="white" stroke="black" points="408,-38.5 408,-57.5 446,-57.5 446,-38.5 408,-38.5"/>
<text text-anchor="middle" x="427" y="-45.5" font-family="Helvetica,sans-Serif" font-size="10.00">main</text>
</a>
</g>
</g>
<!-- Node3&#45;&gt;Node4 -->
<g id="edge3" class="edge"><title>Node3&#45;&gt;Node4</title>
<path fill="none" stroke="midnightblue" d="M379.33,-48C389.479,-48 399.655,-48 407.902,-48"/>
<polygon fill="midnightblue" stroke="midnightblue" points="379.263,-44.5001 369.263,-48 379.263,-51.5001 379.263,-44.5001"/>
</g>
<!-- Node5 -->
<g id="node5" class="node"><title>Node5</title>
<g id="a_node5"><a xlink:href="../../dd/d0b/mcu__program_2host__src_2main_8cpp.html#ad4dcf2055b7114f8eacfa8cb11e5bbd5" target="_top" xlink:title="Filters">
<polygon fill="white" stroke="black" points="405,-0.5 405,-19.5 449,-19.5 449,-0.5 405,-0.5"/>
<text text-anchor="middle" x="427" y="-7.5" font-family="Helvetica,sans-Serif" font-size="10.00">Filters</text>
</a>
</g>
</g>
<!-- Node3&#45;&gt;Node5 -->
<g id="edge4" class="edge"><title>Node3&#45;&gt;Node5</title>
<path fill="none" stroke="midnightblue" d="M366.286,-34.5313C379.118,-29.2596 393.465,-23.3655 404.88,-18.6763"/>
<polygon fill="midnightblue" stroke="midnightblue" points="364.762,-31.3735 356.842,-38.411 367.422,-37.8484 364.762,-31.3735"/>
</g>
<!-- Node6 -->
<g id="node6" class="node"><title>Node6</title>
<g id="a_node6"><a xlink:href="../../dd/d0b/mcu__program_2host__src_2main_8cpp.html#a3c04138a5bfe5d72780bb7e82a18e627" target="_top" xlink:title="main">
<polygon fill="white" stroke="black" points="485,-0.5 485,-19.5 523,-19.5 523,-0.5 485,-0.5"/>
<text text-anchor="middle" x="504" y="-7.5" font-family="Helvetica,sans-Serif" font-size="10.00">main</text>
</a>
</g>
</g>
<!-- Node5&#45;&gt;Node6 -->
<g id="edge5" class="edge"><title>Node5&#45;&gt;Node6</title>
<path fill="none" stroke="midnightblue" d="M459.532,-10C468.211,-10 477.328,-10 484.958,-10"/>
<polygon fill="midnightblue" stroke="midnightblue" points="459.291,-6.5001 449.291,-10 459.291,-13.5001 459.291,-6.5001"/>
</g>
<!-- Node8 -->
<g id="node8" class="node"><title>Node8</title>
<g id="a_node8"><a xlink:href="../../d8/d1f/lms7002m__filters_8h.html#afa61c92a783434057226329fb950593e" target="_top" xlink:title="TuneTxFilter">
<polygon fill="white" stroke="black" points="297,-0.5 297,-19.5 368,-19.5 368,-0.5 297,-0.5"/>
<text text-anchor="middle" x="332.5" y="-7.5" font-family="Helvetica,sans-Serif" font-size="10.00">TuneTxFilter</text>
</a>
</g>
</g>
<!-- Node7&#45;&gt;Node8 -->
<g id="edge7" class="edge"><title>Node7&#45;&gt;Node8</title>
<path fill="none" stroke="midnightblue" d="M269.645,-10C278.992,-10 288.408,-10 296.976,-10"/>
<polygon fill="midnightblue" stroke="midnightblue" points="269.573,-6.5001 259.573,-10 269.573,-13.5001 269.573,-6.5001"/>
</g>
<!-- Node8&#45;&gt;Node4 -->
<g id="edge8" class="edge"><title>Node8&#45;&gt;Node4</title>
<path fill="none" stroke="midnightblue" d="M366.187,-23.4283C380.211,-29.1893 396.06,-35.7002 407.918,-40.5717"/>
<polygon fill="midnightblue" stroke="midnightblue" points="367.422,-20.1516 356.842,-19.589 364.762,-26.6265 367.422,-20.1516"/>
</g>
<!-- Node8&#45;&gt;Node5 -->
<g id="edge9" class="edge"><title>Node8&#45;&gt;Node5</title>
<path fill="none" stroke="midnightblue" d="M378.483,-10C387.679,-10 396.941,-10 404.815,-10"/>
<polygon fill="midnightblue" stroke="midnightblue" points="378.207,-6.5001 368.207,-10 378.207,-13.5001 378.207,-6.5001"/>
</g>
</g>
</svg>
