<?xml version="1.0" encoding="UTF-8" standalone="no"?>
<!DOCTYPE svg PUBLIC "-//W3C//DTD SVG 1.1//EN"
 "http://www.w3.org/Graphics/SVG/1.1/DTD/svg11.dtd">
<!-- Generated by graphviz version 2.38.0 (20140413.2041)
 -->
<!-- Title: TuneRxFilterSetup Pages: 1 -->
<svg width="369pt" height="66pt"
 viewBox="0.00 0.00 369.00 66.00" xmlns="http://www.w3.org/2000/svg" xmlns:xlink="http://www.w3.org/1999/xlink">
<g id="graph0" class="graph" transform="scale(1 1) rotate(0) translate(4 62)">
<title>TuneRxFilterSetup</title>
<polygon fill="white" stroke="none" points="-4,4 -4,-62 365,-62 365,4 -4,4"/>
<!-- Node1 -->
<g id="node1" class="node"><title>Node1</title>
<polygon fill="#bfbfbf" stroke="black" points="0,-19.5 0,-38.5 98,-38.5 98,-19.5 0,-19.5"/>
<text text-anchor="middle" x="49" y="-26.5" font-family="Helvetica,sans-Serif" font-size="10.00">TuneRxFilterSetup</text>
</g>
<!-- Node2 -->
<g id="node2" class="node"><title>Node2</title>
<g id="a_node2"><a xlink:href="../../d8/d1f/lms7002m__filters_8h.html#a9424d257383be4943c2846bb47253bf3" target="_top" xlink:title="TuneRxFilter">
<polygon fill="white" stroke="black" points="134,-19.5 134,-38.5 207,-38.5 207,-19.5 134,-19.5"/>
<text text-anchor="middle" x="170.5" y="-26.5" font-family="Helvetica,sans-Serif" font-size="10.00">TuneRxFilter</text>
</a>
</g>
</g>
<!-- Node1&#45;&gt;Node2 -->
<g id="edge1" class="edge"><title>Node1&#45;&gt;Node2</title>
<path fill="none" stroke="midnightblue" d="M108.423,-29C117.133,-29 125.88,-29 133.924,-29"/>
<polygon fill="midnightblue" stroke="midnightblue" points="108.261,-25.5001 98.2608,-29 108.261,-32.5001 108.261,-25.5001"/>
</g>
<!-- Node3 -->
<g id="node3" class="node"><title>Node3</title>
<g id="a_node3"><a xlink:href="../../d0/d29/main_8c.html#acdef7a1fd863a6d3770c1268cb06add3" target="_top" xlink:title="main">
<polygon fill="white" stroke="black" points="246,-38.5 246,-57.5 284,-57.5 284,-38.5 246,-38.5"/>
<text text-anchor="middle" x="265" y="-45.5" font-family="Helvetica,sans-Serif" font-size="10.00">main</text>
</a>
</g>
</g>
<!-- Node2&#45;&gt;Node3 -->
<g id="edge2" class="edge"><title>Node2&#45;&gt;Node3</title>
<path fill="none" stroke="midnightblue" d="M217.33,-38.4138C227.479,-40.4984 237.655,-42.5885 245.902,-44.2827"/>
<polygon fill="midnightblue" stroke="midnightblue" points="217.763,-34.9296 207.263,-36.3459 216.354,-41.7864 217.763,-34.9296"/>
</g>
<!-- Node4 -->
<g id="node4" class="node"><title>Node4</title>
<g id="a_node4"><a xlink:href="../../dd/d0b/mcu__program_2host__src_2main_8cpp.html#ad4dcf2055b7114f8eacfa8cb11e5bbd5" target="_top" xlink:title="Filters">
<polygon fill="white" stroke="black" points="243,-0.5 243,-19.5 287,-19.5 287,-0.5 243,-0.5"/>
<text text-anchor="middle" x="265" y="-7.5" font-family="Helvetica,sans-Serif" font-size="10.00">Filters</text>
</a>
</g>
</g>
<!-- Node2&#45;&gt;Node4 -->
<g id="edge3" class="edge"><title>Node2&#45;&gt;Node4</title>
<path fill="none" stroke="midnightblue" d="M217.257,-19.6012C226.181,-17.7682 235.129,-15.9302 242.773,-14.3601"/>
<polygon fill="midnightblue" stroke="midnightblue" points="216.354,-16.2136 207.263,-21.6541 217.763,-23.0704 216.354,-16.2136"/>
</g>
<!-- Node5 -->
<g id="node5" class="node"><title>Node5</title>
<g id="a_node5"><a xlink:href="../../dd/d0b/mcu__program_2host__src_2main_8cpp.html#a3c04138a5bfe5d72780bb7e82a18e627" target="_top" xlink:title="main">
<polygon fill="white" stroke="black" points="323,-0.5 323,-19.5 361,-19.5 361,-0.5 323,-0.5"/>
<text text-anchor="middle" x="342" y="-7.5" font-family="Helvetica,sans-Serif" font-size="10.00">main</text>
</a>
</g>
</g>
<!-- Node4&#45;&gt;Node5 -->
<g id="edge4" class="edge"><title>Node4&#45;&gt;Node5</title>
<path fill="none" stroke="midnightblue" d="M297.532,-10C306.211,-10 315.328,-10 322.958,-10"/>
<polygon fill="midnightblue" stroke="midnightblue" points="297.291,-6.5001 287.291,-10 297.291,-13.5001 297.291,-6.5001"/>
</g>
</g>
</svg>
