<?xml version="1.0" encoding="UTF-8" standalone="no"?>
<!DOCTYPE svg PUBLIC "-//W3C//DTD SVG 1.1//EN"
 "http://www.w3.org/Graphics/SVG/1.1/DTD/svg11.dtd">
<!-- Generated by graphviz version 2.38.0 (20140413.2041)
 -->
<!-- Title: ChangeUntilReachRSSI Pages: 1 -->
<svg width="570pt" height="104pt"
 viewBox="0.00 0.00 570.00 104.00" xmlns="http://www.w3.org/2000/svg" xmlns:xlink="http://www.w3.org/1999/xlink">
<g id="graph0" class="graph" transform="scale(1 1) rotate(0) translate(4 100)">
<title>ChangeUntilReachRSSI</title>
<polygon fill="white" stroke="none" points="-4,4 -4,-100 566,-100 566,4 -4,4"/>
<!-- Node1 -->
<g id="node1" class="node"><title>Node1</title>
<polygon fill="#bfbfbf" stroke="black" points="0,-38.5 0,-57.5 123,-57.5 123,-38.5 0,-38.5"/>
<text text-anchor="middle" x="61.5" y="-45.5" font-family="Helvetica,sans-Serif" font-size="10.00">ChangeUntilReachRSSI</text>
</g>
<!-- Node2 -->
<g id="node2" class="node"><title>Node2</title>
<g id="a_node2"><a xlink:href="../../d2/da6/lms7002m__filters_8c.html#aa9caab5ff4ebdb1cec1517f380af23d6" target="_top" xlink:title="SearchTxFilterCCAL_RCAL">
<polygon fill="white" stroke="black" points="159,-76.5 159,-95.5 299,-95.5 299,-76.5 159,-76.5"/>
<text text-anchor="middle" x="229" y="-83.5" font-family="Helvetica,sans-Serif" font-size="10.00">SearchTxFilterCCAL_RCAL</text>
</a>
</g>
</g>
<!-- Node1&#45;&gt;Node2 -->
<g id="edge1" class="edge"><title>Node1&#45;&gt;Node2</title>
<path fill="none" stroke="midnightblue" d="M114.311,-59.8961C137.573,-65.2374 164.647,-71.4537 186.538,-76.4799"/>
<polygon fill="midnightblue" stroke="midnightblue" points="114.792,-56.4157 104.263,-57.589 113.226,-63.2382 114.792,-56.4157"/>
</g>
<!-- Node3 -->
<g id="node3" class="node"><title>Node3</title>
<g id="a_node3"><a xlink:href="../../d8/d1f/lms7002m__filters_8h.html#afa61c92a783434057226329fb950593e" target="_top" xlink:title="TuneTxFilter">
<polygon fill="white" stroke="black" points="336,-38.5 336,-57.5 407,-57.5 407,-38.5 336,-38.5"/>
<text text-anchor="middle" x="371.5" y="-45.5" font-family="Helvetica,sans-Serif" font-size="10.00">TuneTxFilter</text>
</a>
</g>
</g>
<!-- Node1&#45;&gt;Node3 -->
<g id="edge9" class="edge"><title>Node1&#45;&gt;Node3</title>
<path fill="none" stroke="midnightblue" d="M133.661,-48C196.946,-48 286.803,-48 335.632,-48"/>
<polygon fill="midnightblue" stroke="midnightblue" points="133.351,-44.5001 123.351,-48 133.351,-51.5001 133.351,-44.5001"/>
</g>
<!-- Node7 -->
<g id="node7" class="node"><title>Node7</title>
<g id="a_node7"><a xlink:href="../../d8/d1f/lms7002m__filters_8h.html#a9424d257383be4943c2846bb47253bf3" target="_top" xlink:title="TuneRxFilter">
<polygon fill="white" stroke="black" points="335,-0.5 335,-19.5 408,-19.5 408,-0.5 335,-0.5"/>
<text text-anchor="middle" x="371.5" y="-7.5" font-family="Helvetica,sans-Serif" font-size="10.00">TuneRxFilter</text>
</a>
</g>
</g>
<!-- Node1&#45;&gt;Node7 -->
<g id="edge6" class="edge"><title>Node1&#45;&gt;Node7</title>
<path fill="none" stroke="midnightblue" d="M133.603,-39.2276C196.522,-31.4648 285.741,-20.4573 334.773,-14.4078"/>
<polygon fill="midnightblue" stroke="midnightblue" points="132.847,-35.7942 123.351,-40.4924 133.704,-42.7415 132.847,-35.7942"/>
</g>
<!-- Node2&#45;&gt;Node3 -->
<g id="edge2" class="edge"><title>Node2&#45;&gt;Node3</title>
<path fill="none" stroke="midnightblue" d="M275.356,-73.7329C294.878,-68.453 317.345,-62.3763 335.544,-57.4543"/>
<polygon fill="midnightblue" stroke="midnightblue" points="274.193,-70.4215 265.454,-76.411 276.021,-77.1787 274.193,-70.4215"/>
</g>
<!-- Node4 -->
<g id="node4" class="node"><title>Node4</title>
<g id="a_node4"><a xlink:href="../../d0/d29/main_8c.html#acdef7a1fd863a6d3770c1268cb06add3" target="_top" xlink:title="main">
<polygon fill="white" stroke="black" points="447,-38.5 447,-57.5 485,-57.5 485,-38.5 447,-38.5"/>
<text text-anchor="middle" x="466" y="-45.5" font-family="Helvetica,sans-Serif" font-size="10.00">main</text>
</a>
</g>
</g>
<!-- Node3&#45;&gt;Node4 -->
<g id="edge3" class="edge"><title>Node3&#45;&gt;Node4</title>
<path fill="none" stroke="midnightblue" d="M417.216,-48C427.765,-48 438.42,-48 446.983,-48"/>
<polygon fill="midnightblue" stroke="midnightblue" points="417.207,-44.5001 407.207,-48 417.207,-51.5001 417.207,-44.5001"/>
</g>
<!-- Node5 -->
<g id="node5" class="node"><title>Node5</title>
<g id="a_node5"><a xlink:href="../../dd/d0b/mcu__program_2host__src_2main_8cpp.html#ad4dcf2055b7114f8eacfa8cb11e5bbd5" target="_top" xlink:title="Filters">
<polygon fill="white" stroke="black" points="444,-0.5 444,-19.5 488,-19.5 488,-0.5 444,-0.5"/>
<text text-anchor="middle" x="466" y="-7.5" font-family="Helvetica,sans-Serif" font-size="10.00">Filters</text>
</a>
</g>
</g>
<!-- Node3&#45;&gt;Node5 -->
<g id="edge4" class="edge"><title>Node3&#45;&gt;Node5</title>
<path fill="none" stroke="midnightblue" d="M405.286,-34.5313C418.118,-29.2596 432.465,-23.3655 443.88,-18.6763"/>
<polygon fill="midnightblue" stroke="midnightblue" points="403.762,-31.3735 395.842,-38.411 406.422,-37.8484 403.762,-31.3735"/>
</g>
<!-- Node6 -->
<g id="node6" class="node"><title>Node6</title>
<g id="a_node6"><a xlink:href="../../dd/d0b/mcu__program_2host__src_2main_8cpp.html#a3c04138a5bfe5d72780bb7e82a18e627" target="_top" xlink:title="main">
<polygon fill="white" stroke="black" points="524,-0.5 524,-19.5 562,-19.5 562,-0.5 524,-0.5"/>
<text text-anchor="middle" x="543" y="-7.5" font-family="Helvetica,sans-Serif" font-size="10.00">main</text>
</a>
</g>
</g>
<!-- Node5&#45;&gt;Node6 -->
<g id="edge5" class="edge"><title>Node5&#45;&gt;Node6</title>
<path fill="none" stroke="midnightblue" d="M498.532,-10C507.211,-10 516.328,-10 523.958,-10"/>
<polygon fill="midnightblue" stroke="midnightblue" points="498.291,-6.5001 488.291,-10 498.291,-13.5001 498.291,-6.5001"/>
</g>
<!-- Node7&#45;&gt;Node4 -->
<g id="edge7" class="edge"><title>Node7&#45;&gt;Node4</title>
<path fill="none" stroke="midnightblue" d="M405.187,-23.4283C419.211,-29.1893 435.06,-35.7002 446.918,-40.5717"/>
<polygon fill="midnightblue" stroke="midnightblue" points="406.422,-20.1516 395.842,-19.589 403.762,-26.6265 406.422,-20.1516"/>
</g>
<!-- Node7&#45;&gt;Node5 -->
<g id="edge8" class="edge"><title>Node7&#45;&gt;Node5</title>
<path fill="none" stroke="midnightblue" d="M418.545,-10C427.373,-10 436.212,-10 443.773,-10"/>
<polygon fill="midnightblue" stroke="midnightblue" points="418.263,-6.5001 408.263,-10 418.263,-13.5001 418.263,-6.5001"/>
</g>
</g>
</svg>
