<?xml version="1.0" encoding="UTF-8" standalone="no"?>
<!DOCTYPE svg PUBLIC "-//W3C//DTD SVG 1.1//EN"
 "http://www.w3.org/Graphics/SVG/1.1/DTD/svg11.dtd">
<!-- Generated by graphviz version 2.38.0 (20140413.2041)
 -->
<!-- Title: lms7002_pnlLimeLightPAD_view::onbtnReadVerRevMask Pages: 1 -->
<!--zoomable 560 -->
<svg id="main" version="1.1" xmlns="http://www.w3.org/2000/svg" xmlns:xlink="http://www.w3.org/1999/xlink" xml:space="preserve" onload="init(evt)">
<style type="text/css"><![CDATA[
.edge:hover path { stroke: red; }
.edge:hover polygon { stroke: red; fill: red; }
]]></style>
<script type="text/javascript"><![CDATA[
var edges = document.getElementsByTagName('g');
if (edges && edges.length) {
  for (var i=0;i<edges.length;i++) {
    if (edges[i].id.substr(0,4)=='edge') {
      edges[i].setAttribute('class','edge');
    }
  }
}
]]></script>
        <defs>
                <circle id="rim" cx="0" cy="0" r="7"/>
                <circle id="rim2" cx="0" cy="0" r="3.5"/>
                <g id="zoomPlus">
                        <use xlink:href="#rim" fill="#404040">
                                <set attributeName="fill" to="#808080" begin="zoomplus.mouseover" end="zoomplus.mouseout"/>
                        </use>
                        <path d="M-4,0h8M0,-4v8" fill="none" stroke="white" stroke-width="1.5" pointer-events="none"/>
                </g>
                <g id="zoomMin">
                        <use xlink:href="#rim" fill="#404040">
                                <set attributeName="fill" to="#808080" begin="zoomminus.mouseover" end="zoomminus.mouseout"/>
                        </use>
                        <path d="M-4,0h8" fill="none" stroke="white" stroke-width="1.5" pointer-events="none"/>
                </g>
                <g id="dirArrow">
                        <path fill="none" stroke="white" stroke-width="1.5" d="M0,-3.0v7 M-2.5,-0.5L0,-3.0L2.5,-0.5"/>
                </g>
               <g id="resetDef">
                       <use xlink:href="#rim2" fill="#404040">
                               <set attributeName="fill" to="#808080" begin="reset.mouseover" end="reset.mouseout"/>
                       </use>
               </g>
        </defs>

<script type="text/javascript">
var viewWidth = 719;
var viewHeight = 560;
var sectionId = 'dynsection-5';
</script>
<script xlink:href="../../svgpan.js"/>
<svg id="graph" class="graph">
<g id="viewport">
<title>lms7002_pnlLimeLightPAD_view::onbtnReadVerRevMask</title>
<polygon fill="white" stroke="none" points="-4,4 -4,-556 715,-556 715,4 -4,4"/>
<!-- Node1 -->
<g id="node1" class="node"><title>Node1</title>
<polygon fill="#bfbfbf" stroke="black" points="0,-173 0,-203 152,-203 152,-173 0,-173"/>
<text text-anchor="start" x="8" y="-191" font-family="Helvetica,sans-Serif" font-size="10.00">lms7002_pnlLimeLightPAD</text>
<text text-anchor="middle" x="76" y="-180" font-family="Helvetica,sans-Serif" font-size="10.00">_view::onbtnReadVerRevMask</text>
</g>
<!-- Node2 -->
<g id="node2" class="node"><title>Node2</title>
<g id="a_node2"><a xlink:href="../../df/de1/lms7__api_8cpp.html#af7e27adc91d37b2464a10990b1f39c9b" target="_top" xlink:title="LMS_ReadParam">
<polygon fill="white" stroke="black" points="188,-178.5 188,-197.5 282,-197.5 282,-178.5 188,-178.5"/>
<text text-anchor="middle" x="235" y="-185.5" font-family="Helvetica,sans-Serif" font-size="10.00">LMS_ReadParam</text>
</a>
</g>
</g>
<!-- Node1&#45;&gt;Node2 -->
<g id="edge1" class="edge"><title>Node1&#45;&gt;Node2</title>
<path fill="none" stroke="midnightblue" d="M152.281,-188C160.803,-188 169.375,-188 177.595,-188"/>
<polygon fill="midnightblue" stroke="midnightblue" points="177.789,-191.5 187.789,-188 177.789,-184.5 177.789,-191.5"/>
</g>
<!-- Node3 -->
<g id="node3" class="node"><title>Node3</title>
<g id="a_node3"><a xlink:href="../../d4/d67/lms_8c.html#a0e01e477b1f10e0a63e54de2dd2f8240" target="_top" xlink:title="lms">
<polygon fill="white" stroke="black" points="356,-266.5 356,-285.5 388,-285.5 388,-266.5 356,-266.5"/>
<text text-anchor="middle" x="372" y="-273.5" font-family="Helvetica,sans-Serif" font-size="10.00">lms</text>
</a>
</g>
</g>
<!-- Node2&#45;&gt;Node3 -->
<g id="edge2" class="edge"><title>Node2&#45;&gt;Node3</title>
<path fill="none" stroke="midnightblue" d="M250.704,-197.585C274.035,-212.793 319.739,-242.586 347.605,-260.75"/>
<polygon fill="midnightblue" stroke="midnightblue" points="346.025,-263.898 356.314,-266.427 349.848,-258.034 346.025,-263.898"/>
</g>
<!-- Node23 -->
<g id="node23" class="node"><title>Node23</title>
<g id="a_node23"><a xlink:href="../../d3/d22/classlime_1_1LMS7__Device.html#aac9c25a4c8b67b8f0073591d02d2757b" target="_top" xlink:title="lime::LMS7_Device::\lReadParam">
<polygon fill="white" stroke="black" points="318,-173 318,-203 426,-203 426,-173 318,-173"/>
<text text-anchor="start" x="326" y="-191" font-family="Helvetica,sans-Serif" font-size="10.00">lime::LMS7_Device::</text>
<text text-anchor="middle" x="372" y="-180" font-family="Helvetica,sans-Serif" font-size="10.00">ReadParam</text>
</a>
</g>
</g>
<!-- Node2&#45;&gt;Node23 -->
<g id="edge25" class="edge"><title>Node2&#45;&gt;Node23</title>
<path fill="none" stroke="midnightblue" d="M282.082,-188C290.317,-188 299.026,-188 307.646,-188"/>
<polygon fill="midnightblue" stroke="midnightblue" points="307.688,-191.5 317.688,-188 307.688,-184.5 307.688,-191.5"/>
</g>
<!-- Node24 -->
<g id="node24" class="node"><title>Node24</title>
<g id="a_node24"><a xlink:href="../../d5/d6c/namespacelime.html#adc6af0cf8e0a70f3ef09fac1244f8c48" target="_top" xlink:title="lime::ReportError">
<polygon fill="white" stroke="black" points="326.5,-45.5 326.5,-64.5 417.5,-64.5 417.5,-45.5 326.5,-45.5"/>
<text text-anchor="middle" x="372" y="-52.5" font-family="Helvetica,sans-Serif" font-size="10.00">lime::ReportError</text>
</a>
</g>
</g>
<!-- Node2&#45;&gt;Node24 -->
<g id="edge26" class="edge"><title>Node2&#45;&gt;Node24</title>
<path fill="none" stroke="midnightblue" d="M245.709,-178.435C268.366,-156.113 324.982,-100.336 353.705,-72.039"/>
<polygon fill="midnightblue" stroke="midnightblue" points="356.348,-74.3486 361.015,-64.8372 351.435,-69.362 356.348,-74.3486"/>
</g>
<!-- Node4 -->
<g id="node4" class="node"><title>Node4</title>
<g id="a_node4"><a xlink:href="../../d4/d67/lms_8c.html#a433227191fe883dcb8aa15d291bb29a1" target="_top" xlink:title="Case1F">
<polygon fill="white" stroke="black" points="470.5,-532.5 470.5,-551.5 521.5,-551.5 521.5,-532.5 470.5,-532.5"/>
<text text-anchor="middle" x="496" y="-539.5" font-family="Helvetica,sans-Serif" font-size="10.00">Case1F</text>
</a>
</g>
</g>
<!-- Node3&#45;&gt;Node4 -->
<g id="edge3" class="edge"><title>Node3&#45;&gt;Node4</title>
<path fill="none" stroke="midnightblue" d="M374.084,-285.675C378.522,-321.269 398.206,-446.816 462,-523 462.955,-524.14 463.997,-525.227 465.103,-526.261"/>
<polygon fill="midnightblue" stroke="midnightblue" points="463.015,-529.069 473.099,-532.319 467.242,-523.49 463.015,-529.069"/>
</g>
<!-- Node5 -->
<g id="node5" class="node"><title>Node5</title>
<g id="a_node5"><a xlink:href="../../d4/d67/lms_8c.html#ace0cd8bf61cb9b86b98f0cef03b5a9d9" target="_top" xlink:title="Case2F">
<polygon fill="white" stroke="black" points="470.5,-494.5 470.5,-513.5 521.5,-513.5 521.5,-494.5 470.5,-494.5"/>
<text text-anchor="middle" x="496" y="-501.5" font-family="Helvetica,sans-Serif" font-size="10.00">Case2F</text>
</a>
</g>
</g>
<!-- Node3&#45;&gt;Node5 -->
<g id="edge4" class="edge"><title>Node3&#45;&gt;Node5</title>
<path fill="none" stroke="midnightblue" d="M374.879,-285.932C381.434,-318.234 406.003,-421.856 462,-485 463.014,-486.144 464.115,-487.236 465.277,-488.277"/>
<polygon fill="midnightblue" stroke="midnightblue" points="463.47,-491.292 473.6,-494.395 467.616,-485.652 463.47,-491.292"/>
</g>
<!-- Node6 -->
<g id="node6" class="node"><title>Node6</title>
<g id="a_node6"><a xlink:href="../../d4/d67/lms_8c.html#a5f53b53ccc591e3643c4af2aee2e7f32" target="_top" xlink:title="Case3F">
<polygon fill="white" stroke="black" points="470.5,-456.5 470.5,-475.5 521.5,-475.5 521.5,-456.5 470.5,-456.5"/>
<text text-anchor="middle" x="496" y="-463.5" font-family="Helvetica,sans-Serif" font-size="10.00">Case3F</text>
</a>
</g>
</g>
<!-- Node3&#45;&gt;Node6 -->
<g id="edge5" class="edge"><title>Node3&#45;&gt;Node6</title>
<path fill="none" stroke="midnightblue" d="M375.878,-285.664C384.635,-313.696 413.37,-396.258 462,-447 463.195,-448.247 464.49,-449.437 465.852,-450.569"/>
<polygon fill="midnightblue" stroke="midnightblue" points="463.961,-453.519 474.154,-456.409 467.989,-447.794 463.961,-453.519"/>
</g>
<!-- Node7 -->
<g id="node7" class="node"><title>Node7</title>
<g id="a_node7"><a xlink:href="../../d4/d67/lms_8c.html#a5086763d5b258349bc13d6be7e7d0665" target="_top" xlink:title="Case4F">
<polygon fill="white" stroke="black" points="470.5,-418.5 470.5,-437.5 521.5,-437.5 521.5,-418.5 470.5,-418.5"/>
<text text-anchor="middle" x="496" y="-425.5" font-family="Helvetica,sans-Serif" font-size="10.00">Case4F</text>
</a>
</g>
</g>
<!-- Node3&#45;&gt;Node7 -->
<g id="edge6" class="edge"><title>Node3&#45;&gt;Node7</title>
<path fill="none" stroke="midnightblue" d="M377.567,-285.789C388.977,-309.422 420.799,-370.484 462,-409 463.295,-410.21 464.68,-411.376 466.124,-412.492"/>
<polygon fill="midnightblue" stroke="midnightblue" points="464.537,-415.643 474.787,-418.324 468.446,-409.836 464.537,-415.643"/>
</g>
<!-- Node8 -->
<g id="node8" class="node"><title>Node8</title>
<g id="a_node8"><a xlink:href="../../db/de5/recipes_8c.html#aee25e218394217a134e805ea09fb0fe9" target="_top" xlink:title="free_ivector">
<polygon fill="white" stroke="black" points="462,-380.5 462,-399.5 530,-399.5 530,-380.5 462,-380.5"/>
<text text-anchor="middle" x="496" y="-387.5" font-family="Helvetica,sans-Serif" font-size="10.00">free_ivector</text>
</a>
</g>
</g>
<!-- Node3&#45;&gt;Node8 -->
<g id="edge7" class="edge"><title>Node3&#45;&gt;Node8</title>
<path fill="none" stroke="midnightblue" d="M380.306,-285.506C394.59,-303.67 427.816,-343.907 462,-371 463.768,-372.401 465.651,-373.767 467.587,-375.081"/>
<polygon fill="midnightblue" stroke="midnightblue" points="465.884,-378.143 476.221,-380.466 469.588,-372.204 465.884,-378.143"/>
</g>
<!-- Node9 -->
<g id="node9" class="node"><title>Node9</title>
<g id="a_node9"><a xlink:href="../../db/de5/recipes_8c.html#a3e0d121b098c19c0bdc2429e5b9f1625" target="_top" xlink:title="free_matrix">
<polygon fill="white" stroke="black" points="463.5,-342.5 463.5,-361.5 528.5,-361.5 528.5,-342.5 463.5,-342.5"/>
<text text-anchor="middle" x="496" y="-349.5" font-family="Helvetica,sans-Serif" font-size="10.00">free_matrix</text>
</a>
</g>
</g>
<!-- Node3&#45;&gt;Node9 -->
<g id="edge8" class="edge"><title>Node3&#45;&gt;Node9</title>
<path fill="none" stroke="midnightblue" d="M388.451,-285.625C409.26,-298.588 446.499,-321.786 470.978,-337.035"/>
<polygon fill="midnightblue" stroke="midnightblue" points="469.336,-340.136 479.674,-342.453 473.037,-334.194 469.336,-340.136"/>
</g>
<!-- Node10 -->
<g id="node10" class="node"><title>Node10</title>
<g id="a_node10"><a xlink:href="../../db/de5/recipes_8c.html#a8214a52d888e820222c0382648329c0c" target="_top" xlink:title="free_vector">
<polygon fill="white" stroke="black" points="566,-285.5 566,-304.5 631,-304.5 631,-285.5 566,-285.5"/>
<text text-anchor="middle" x="598.5" y="-292.5" font-family="Helvetica,sans-Serif" font-size="10.00">free_vector</text>
</a>
</g>
</g>
<!-- Node3&#45;&gt;Node10 -->
<g id="edge9" class="edge"><title>Node3&#45;&gt;Node10</title>
<path fill="none" stroke="midnightblue" d="M388.277,-280.288C405.881,-284.989 435.76,-292.23 462,-295 493.289,-298.303 528.869,-298.154 555.716,-297.26"/>
<polygon fill="midnightblue" stroke="midnightblue" points="556.056,-300.749 565.915,-296.87 555.789,-293.754 556.056,-300.749"/>
</g>
<!-- Node11 -->
<g id="node11" class="node"><title>Node11</title>
<g id="a_node11"><a xlink:href="../../d4/d67/lms_8c.html#ad1d6c875ff429888b51dd1155f0311ad" target="_top" xlink:title="ivector">
<polygon fill="white" stroke="black" points="473,-266.5 473,-285.5 519,-285.5 519,-266.5 473,-266.5"/>
<text text-anchor="middle" x="496" y="-273.5" font-family="Helvetica,sans-Serif" font-size="10.00">ivector</text>
</a>
</g>
</g>
<!-- Node3&#45;&gt;Node11 -->
<g id="edge10" class="edge"><title>Node3&#45;&gt;Node11</title>
<path fill="none" stroke="midnightblue" d="M388.451,-276C406.995,-276 438.584,-276 462.566,-276"/>
<polygon fill="midnightblue" stroke="midnightblue" points="462.646,-279.5 472.646,-276 462.645,-272.5 462.646,-279.5"/>
</g>
<!-- Node12 -->
<g id="node12" class="node"><title>Node12</title>
<g id="a_node12"><a xlink:href="../../db/de5/recipes_8c.html#a66ff65ad0355ec1f4a7722bcdafc8cd3" target="_top" xlink:title="lubksb">
<polygon fill="white" stroke="black" points="473.5,-228.5 473.5,-247.5 518.5,-247.5 518.5,-228.5 473.5,-228.5"/>
<text text-anchor="middle" x="496" y="-235.5" font-family="Helvetica,sans-Serif" font-size="10.00">lubksb</text>
</a>
</g>
</g>
<!-- Node3&#45;&gt;Node12 -->
<g id="edge11" class="edge"><title>Node3&#45;&gt;Node12</title>
<path fill="none" stroke="midnightblue" d="M388.451,-271.187C407.19,-265.351 439.251,-255.364 463.321,-247.867"/>
<polygon fill="midnightblue" stroke="midnightblue" points="464.579,-251.141 473.085,-244.826 462.497,-244.458 464.579,-251.141"/>
</g>
<!-- Node13 -->
<g id="node13" class="node"><title>Node13</title>
<g id="a_node13"><a xlink:href="../../db/de5/recipes_8c.html#a623fec796d9d53e5e4a4d30226547da7" target="_top" xlink:title="ludcmp">
<polygon fill="white" stroke="black" points="472,-190.5 472,-209.5 520,-209.5 520,-190.5 472,-190.5"/>
<text text-anchor="middle" x="496" y="-197.5" font-family="Helvetica,sans-Serif" font-size="10.00">ludcmp</text>
</a>
</g>
</g>
<!-- Node3&#45;&gt;Node13 -->
<g id="edge12" class="edge"><title>Node3&#45;&gt;Node13</title>
<path fill="none" stroke="midnightblue" d="M387.668,-266.304C405.201,-254.786 435.5,-235.103 462,-219 464.355,-217.569 466.818,-216.1 469.292,-214.644"/>
<polygon fill="midnightblue" stroke="midnightblue" points="471.234,-217.564 478.122,-209.514 467.717,-211.511 471.234,-217.564"/>
</g>
<!-- Node16 -->
<g id="node16" class="node"><title>Node16</title>
<g id="a_node16"><a xlink:href="../../d4/d67/lms_8c.html#a37bcb1539d76b53344102435e2ab9c91" target="_top" xlink:title="matrix">
<polygon fill="white" stroke="black" points="474,-152.5 474,-171.5 518,-171.5 518,-152.5 474,-152.5"/>
<text text-anchor="middle" x="496" y="-159.5" font-family="Helvetica,sans-Serif" font-size="10.00">matrix</text>
</a>
</g>
</g>
<!-- Node3&#45;&gt;Node16 -->
<g id="edge17" class="edge"><title>Node3&#45;&gt;Node16</title>
<path fill="none" stroke="midnightblue" d="M380.306,-266.494C394.59,-248.33 427.816,-208.093 462,-181 463.768,-179.599 465.651,-178.233 467.587,-176.919"/>
<polygon fill="midnightblue" stroke="midnightblue" points="469.588,-179.796 476.221,-171.534 465.884,-173.857 469.588,-179.796"/>
</g>
<!-- Node17 -->
<g id="node17" class="node"><title>Node17</title>
<g id="a_node17"><a xlink:href="../../d8/d91/rounding_8c.html#aa8d7512cdf5bfbf811cef6a8a091c679" target="_top" xlink:title="round2csd">
<polygon fill="white" stroke="black" points="465,-114.5 465,-133.5 527,-133.5 527,-114.5 465,-114.5"/>
<text text-anchor="middle" x="496" y="-121.5" font-family="Helvetica,sans-Serif" font-size="10.00">round2csd</text>
</a>
</g>
</g>
<!-- Node3&#45;&gt;Node17 -->
<g id="edge18" class="edge"><title>Node3&#45;&gt;Node17</title>
<path fill="none" stroke="midnightblue" d="M382.331,-266.101C393.512,-253.949 412.431,-232.43 426,-212 445.137,-183.187 438.054,-167.961 462,-143 463.196,-141.754 464.491,-140.564 465.853,-139.432"/>
<polygon fill="midnightblue" stroke="midnightblue" points="467.99,-142.208 474.157,-133.593 463.964,-136.482 467.99,-142.208"/>
</g>
<!-- Node21 -->
<g id="node21" class="node"><title>Node21</title>
<g id="a_node21"><a xlink:href="../../d8/d91/rounding_8c.html#aca2670cc0fbf948a6b9cb670047c9d5b" target="_top" xlink:title="round2int">
<polygon fill="white" stroke="black" points="468,-76.5 468,-95.5 524,-95.5 524,-76.5 468,-76.5"/>
<text text-anchor="middle" x="496" y="-83.5" font-family="Helvetica,sans-Serif" font-size="10.00">round2int</text>
</a>
</g>
</g>
<!-- Node3&#45;&gt;Node21 -->
<g id="edge22" class="edge"><title>Node3&#45;&gt;Node21</title>
<path fill="none" stroke="midnightblue" d="M382.885,-266.439C394.611,-254.619 414.068,-233.427 426,-212 450.411,-168.164 430.198,-143.81 462,-105 462.943,-103.849 463.975,-102.754 465.073,-101.714"/>
<polygon fill="midnightblue" stroke="midnightblue" points="467.215,-104.482 473.038,-95.6307 462.967,-98.9187 467.215,-104.482"/>
</g>
<!-- Node22 -->
<g id="node22" class="node"><title>Node22</title>
<g id="a_node22"><a xlink:href="../../d4/d67/lms_8c.html#ac81ca32708341eb34b25d515d00bc748" target="_top" xlink:title="vector">
<polygon fill="white" stroke="black" points="474,-38.5 474,-57.5 518,-57.5 518,-38.5 474,-38.5"/>
<text text-anchor="middle" x="496" y="-45.5" font-family="Helvetica,sans-Serif" font-size="10.00">vector</text>
</a>
</g>
</g>
<!-- Node3&#45;&gt;Node22 -->
<g id="edge24" class="edge"><title>Node3&#45;&gt;Node22</title>
<path fill="none" stroke="midnightblue" d="M383.611,-266.181C395.666,-254.437 415.078,-233.636 426,-212 455.924,-152.724 422.033,-120.026 462,-67 463.067,-65.5845 464.272,-64.2571 465.576,-63.0148"/>
<polygon fill="midnightblue" stroke="midnightblue" points="467.937,-65.6185 473.825,-56.8108 463.729,-60.0239 467.937,-65.6185"/>
</g>
<!-- Node13&#45;&gt;Node10 -->
<g id="edge13" class="edge"><title>Node13&#45;&gt;Node10</title>
<path fill="none" stroke="midnightblue" d="M516.186,-209.656C520.9,-212.397 525.797,-215.577 530,-219 551.243,-236.301 571.546,-260.569 584.236,-276.991"/>
<polygon fill="midnightblue" stroke="midnightblue" points="581.633,-279.352 590.46,-285.212 587.214,-275.127 581.633,-279.352"/>
</g>
<!-- Node14 -->
<g id="node14" class="node"><title>Node14</title>
<g id="a_node14"><a xlink:href="../../db/de5/recipes_8c.html#a208e98f19b2f252315399d02c0594a46" target="_top" xlink:title="nrerror">
<polygon fill="white" stroke="black" points="667,-209.5 667,-228.5 711,-228.5 711,-209.5 667,-209.5"/>
<text text-anchor="middle" x="689" y="-216.5" font-family="Helvetica,sans-Serif" font-size="10.00">nrerror</text>
</a>
</g>
</g>
<!-- Node13&#45;&gt;Node14 -->
<g id="edge14" class="edge"><title>Node13&#45;&gt;Node14</title>
<path fill="none" stroke="midnightblue" d="M520.306,-208.1C533.528,-212.267 550.486,-216.903 566,-219 596.534,-223.127 631.761,-222.564 656.488,-221.308"/>
<polygon fill="midnightblue" stroke="midnightblue" points="656.944,-224.788 666.726,-220.718 656.541,-217.799 656.944,-224.788"/>
</g>
<!-- Node15 -->
<g id="node15" class="node"><title>Node15</title>
<g id="a_node15"><a xlink:href="../../db/de5/recipes_8c.html#a5e6092211a5f7e2d6ae9282379d3c604" target="_top" xlink:title="vector">
<polygon fill="white" stroke="black" points="576.5,-190.5 576.5,-209.5 620.5,-209.5 620.5,-190.5 576.5,-190.5"/>
<text text-anchor="middle" x="598.5" y="-197.5" font-family="Helvetica,sans-Serif" font-size="10.00">vector</text>
</a>
</g>
</g>
<!-- Node13&#45;&gt;Node15 -->
<g id="edge15" class="edge"><title>Node13&#45;&gt;Node15</title>
<path fill="none" stroke="midnightblue" d="M520.057,-200C533.673,-200 551.102,-200 565.977,-200"/>
<polygon fill="midnightblue" stroke="midnightblue" points="566.265,-203.5 576.265,-200 566.265,-196.5 566.265,-203.5"/>
</g>
<!-- Node15&#45;&gt;Node14 -->
<g id="edge16" class="edge"><title>Node15&#45;&gt;Node14</title>
<path fill="none" stroke="midnightblue" d="M620.923,-204.599C631.685,-206.91 644.928,-209.753 656.796,-212.301"/>
<polygon fill="midnightblue" stroke="midnightblue" points="656.262,-215.766 666.774,-214.443 657.731,-208.922 656.262,-215.766"/>
</g>
<!-- Node18 -->
<g id="node18" class="node"><title>Node18</title>
<g id="a_node18"><a xlink:href="../../d8/d91/rounding_8c.html#a2cff6b77e73872659c44b0c99f6bd97f" target="_top" xlink:title="csd2int">
<polygon fill="white" stroke="black" points="574.5,-152.5 574.5,-171.5 622.5,-171.5 622.5,-152.5 574.5,-152.5"/>
<text text-anchor="middle" x="598.5" y="-159.5" font-family="Helvetica,sans-Serif" font-size="10.00">csd2int</text>
</a>
</g>
</g>
<!-- Node17&#45;&gt;Node18 -->
<g id="edge19" class="edge"><title>Node17&#45;&gt;Node18</title>
<path fill="none" stroke="midnightblue" d="M522.36,-133.589C535.181,-138.437 550.894,-144.378 564.631,-149.572"/>
<polygon fill="midnightblue" stroke="midnightblue" points="563.623,-152.933 574.214,-153.195 566.099,-146.385 563.623,-152.933"/>
</g>
<!-- Node19 -->
<g id="node19" class="node"><title>Node19</title>
<g id="a_node19"><a xlink:href="../../db/d82/wglew_8h.html#a500a82aecba06f4550f6849b8099ca21" target="_top" xlink:title="int">
<polygon fill="white" stroke="black" points="584,-76.5 584,-95.5 613,-95.5 613,-76.5 584,-76.5"/>
<text text-anchor="middle" x="598.5" y="-83.5" font-family="Helvetica,sans-Serif" font-size="10.00">int</text>
</a>
</g>
</g>
<!-- Node17&#45;&gt;Node19 -->
<g id="edge20" class="edge"><title>Node17&#45;&gt;Node19</title>
<path fill="none" stroke="midnightblue" d="M522.36,-114.411C538.388,-108.351 558.934,-100.582 574.49,-94.7003"/>
<polygon fill="midnightblue" stroke="midnightblue" points="575.778,-97.9552 583.894,-91.1446 573.302,-91.4076 575.778,-97.9552"/>
</g>
<!-- Node20 -->
<g id="node20" class="node"><title>Node20</title>
<g id="a_node20"><a xlink:href="../../d8/d91/rounding_8c.html#ab3a64ec72c5600bc114621e93309c8c3" target="_top" xlink:title="int2csd">
<polygon fill="white" stroke="black" points="574.5,-114.5 574.5,-133.5 622.5,-133.5 622.5,-114.5 574.5,-114.5"/>
<text text-anchor="middle" x="598.5" y="-121.5" font-family="Helvetica,sans-Serif" font-size="10.00">int2csd</text>
</a>
</g>
</g>
<!-- Node17&#45;&gt;Node20 -->
<g id="edge21" class="edge"><title>Node17&#45;&gt;Node20</title>
<path fill="none" stroke="midnightblue" d="M527.153,-124C538.87,-124 552.331,-124 564.321,-124"/>
<polygon fill="midnightblue" stroke="midnightblue" points="564.398,-127.5 574.398,-124 564.398,-120.5 564.398,-127.5"/>
</g>
<!-- Node21&#45;&gt;Node19 -->
<g id="edge23" class="edge"><title>Node21&#45;&gt;Node19</title>
<path fill="none" stroke="midnightblue" d="M524.197,-86C539.576,-86 558.634,-86 573.462,-86"/>
<polygon fill="midnightblue" stroke="midnightblue" points="573.846,-89.5001 583.846,-86 573.846,-82.5001 573.846,-89.5001"/>
</g>
<!-- Node25 -->
<g id="node25" class="node"><title>Node25</title>
<g id="a_node25"><a xlink:href="../../d9/df5/Logger_8cpp.html#ada38bf01d6d691de953ed69268ea6516" target="_top" xlink:title="errToStr">
<polygon fill="white" stroke="black" points="470,-0.5 470,-19.5 522,-19.5 522,-0.5 470,-0.5"/>
<text text-anchor="middle" x="496" y="-7.5" font-family="Helvetica,sans-Serif" font-size="10.00">errToStr</text>
</a>
</g>
</g>
<!-- Node24&#45;&gt;Node25 -->
<g id="edge27" class="edge"><title>Node24&#45;&gt;Node25</title>
<path fill="none" stroke="midnightblue" d="M398.873,-45.4567C416.824,-38.8355 440.931,-29.9434 460.513,-22.7207"/>
<polygon fill="midnightblue" stroke="midnightblue" points="461.828,-25.9662 469.999,-19.2218 459.405,-19.3987 461.828,-25.9662"/>
</g>
</g>
</svg>
        <g id="navigator" transform="translate(0 0)" fill="#404254">
                <rect fill="#f2f5e9" fill-opacity="0.5" stroke="#606060" stroke-width=".5" x="0" y="0" width="60" height="60"/>
                <use id="zoomplus" xlink:href="#zoomPlus" x="17" y="9" onmousedown="handleZoom(evt,'in')"/>
                <use id="zoomminus" xlink:href="#zoomMin" x="42" y="9" onmousedown="handleZoom(evt,'out')"/>
                <use id="reset" xlink:href="#resetDef" x="30" y="36" onmousedown="handleReset()"/>
                <g id="arrowUp" xlink:href="#dirArrow" transform="translate(30 24)" onmousedown="handlePan(0,-1)">
                  <use xlink:href="#rim" fill="#404040">
                        <set attributeName="fill" to="#808080" begin="arrowUp.mouseover" end="arrowUp.mouseout"/>
                  </use>
                  <path fill="none" stroke="white" stroke-width="1.5" d="M0,-3.0v7 M-2.5,-0.5L0,-3.0L2.5,-0.5"/>
                </g>
                <g id="arrowRight" xlink:href="#dirArrow" transform="rotate(90) translate(36 -43)" onmousedown="handlePan(1,0)">
                  <use xlink:href="#rim" fill="#404040">
                        <set attributeName="fill" to="#808080" begin="arrowRight.mouseover" end="arrowRight.mouseout"/>
                  </use>
                  <path fill="none" stroke="white" stroke-width="1.5" d="M0,-3.0v7 M-2.5,-0.5L0,-3.0L2.5,-0.5"/>
                </g>
                <g id="arrowDown" xlink:href="#dirArrow" transform="rotate(180) translate(-30 -48)" onmousedown="handlePan(0,1)">
                  <use xlink:href="#rim" fill="#404040">
                        <set attributeName="fill" to="#808080" begin="arrowDown.mouseover" end="arrowDown.mouseout"/>
                  </use>
                  <path fill="none" stroke="white" stroke-width="1.5" d="M0,-3.0v7 M-2.5,-0.5L0,-3.0L2.5,-0.5"/>
                </g>
                <g id="arrowLeft" xlink:href="#dirArrow" transform="rotate(270) translate(-36 17)" onmousedown="handlePan(-1,0)">
                  <use xlink:href="#rim" fill="#404040">
                        <set attributeName="fill" to="#808080" begin="arrowLeft.mouseover" end="arrowLeft.mouseout"/>
                  </use>
                  <path fill="none" stroke="white" stroke-width="1.5" d="M0,-3.0v7 M-2.5,-0.5L0,-3.0L2.5,-0.5"/>
                </g>
        </g>
        <svg viewBox="0 0 15 15" width="100%" height="30px" preserveAspectRatio="xMaxYMin meet">
         <g id="arrow_out" transform="scale(0.3 0.3)">
          <a xlink:href="classlms7002__pnlLimeLightPAD__view_a025197032b86012d2e372e8ae982a13b_cgraph_org.svg" target="_base">
           <rect id="button" ry="5" rx="5" y="6" x="6" height="38" width="38"
                fill="#f2f5e9" fill-opacity="0.5" stroke="#606060" stroke-width="1.0"/>
           <path id="arrow"
             d="M 11.500037,31.436501 C 11.940474,20.09759 22.043105,11.32322 32.158766,21.979434 L 37.068811,17.246167 C 37.068811,17.246167 37.088388,32 37.088388,32 L 22.160133,31.978069 C 22.160133,31.978069 26.997745,27.140456 26.997745,27.140456 C 18.528582,18.264221 13.291696,25.230495 11.500037,31.436501 z"
             style="fill:#404040;"/>
          </a>
         </g>
        </svg>
</svg>
