<?xml version="1.0" encoding="UTF-8" standalone="no"?>
<!DOCTYPE svg PUBLIC "-//W3C//DTD SVG 1.1//EN"
 "http://www.w3.org/Graphics/SVG/1.1/DTD/svg11.dtd">
<!-- Generated by graphviz version 2.38.0 (20140413.2041)
 -->
<!-- Title: lime::ConnectionNovenaRF7::StreamChannel Pages: 1 -->
<svg width="810pt" height="1401pt"
 viewBox="0.00 0.00 810.00 1401.00" xmlns="http://www.w3.org/2000/svg" xmlns:xlink="http://www.w3.org/1999/xlink">
<g id="graph0" class="graph" transform="scale(1 1) rotate(0) translate(4 1397)">
<title>lime::ConnectionNovenaRF7::StreamChannel</title>
<polygon fill="white" stroke="none" points="-4,4 -4,-1397 806,-1397 806,4 -4,4"/>
<!-- Node1 -->
<g id="node1" class="node"><title>Node1</title>
<polygon fill="#bfbfbf" stroke="black" points="131,-612 131,-768 274,-768 274,-612 131,-612"/>
<text text-anchor="start" x="139" y="-756" font-family="Helvetica,sans-Serif" font-size="10.00">lime::ConnectionNovenaRF7</text>
<text text-anchor="middle" x="202.5" y="-745" font-family="Helvetica,sans-Serif" font-size="10.00">::StreamChannel</text>
<polyline fill="none" stroke="black" points="131,-738 274,-738 "/>
<text text-anchor="start" x="139" y="-726" font-family="Helvetica,sans-Serif" font-size="10.00"># mActive</text>
<polyline fill="none" stroke="black" points="131,-719 274,-719 "/>
<text text-anchor="start" x="139" y="-707" font-family="Helvetica,sans-Serif" font-size="10.00">+ StreamChannel()</text>
<text text-anchor="start" x="139" y="-696" font-family="Helvetica,sans-Serif" font-size="10.00">+ ~StreamChannel()</text>
<text text-anchor="start" x="139" y="-685" font-family="Helvetica,sans-Serif" font-size="10.00">+ Read()</text>
<text text-anchor="start" x="139" y="-674" font-family="Helvetica,sans-Serif" font-size="10.00">+ Write()</text>
<text text-anchor="start" x="139" y="-663" font-family="Helvetica,sans-Serif" font-size="10.00">+ GetInfo()</text>
<text text-anchor="start" x="139" y="-652" font-family="Helvetica,sans-Serif" font-size="10.00">+ IsActive()</text>
<text text-anchor="start" x="139" y="-641" font-family="Helvetica,sans-Serif" font-size="10.00">+ Start()</text>
<text text-anchor="start" x="139" y="-630" font-family="Helvetica,sans-Serif" font-size="10.00">+ Stop()</text>
<text text-anchor="start" x="139" y="-619" font-family="Helvetica,sans-Serif" font-size="10.00">&#45; StreamChannel()</text>
</g>
<!-- Node13 -->
<g id="node13" class="node"><title>Node13</title>
<polygon fill="white" stroke="#bfbfbf" points="386,-386 386,-465 505,-465 505,-386 386,-386"/>
<text text-anchor="start" x="394" y="-453" font-family="Helvetica,sans-Serif" font-size="10.00">std::vector&lt; lime::</text>
<text text-anchor="start" x="394" y="-442" font-family="Helvetica,sans-Serif" font-size="10.00">ConnectionNovenaRF7</text>
<text text-anchor="middle" x="445.5" y="-431" font-family="Helvetica,sans-Serif" font-size="10.00">::StreamChannel * &gt;</text>
<polyline fill="none" stroke="#bfbfbf" points="386,-424 505,-424 "/>
<text text-anchor="middle" x="445.5" y="-412" font-family="Helvetica,sans-Serif" font-size="10.00"> </text>
<polyline fill="none" stroke="#bfbfbf" points="386,-405 505,-405 "/>
<text text-anchor="middle" x="445.5" y="-393" font-family="Helvetica,sans-Serif" font-size="10.00"> </text>
</g>
<!-- Node1&#45;&gt;Node13 -->
<g id="edge13" class="edge"><title>Node1&#45;&gt;Node13</title>
<path fill="none" stroke="#404040" d="M274.241,-640.446C307.88,-615.413 346.959,-582.85 376.5,-548 394.765,-526.452 410.69,-499.369 422.625,-476.244"/>
<polygon fill="none" stroke="#404040" points="422.762,-475.97 421.886,-468.813 428.156,-465.251 429.032,-472.408 422.762,-475.97"/>
<text text-anchor="middle" x="381" y="-574.5" font-family="Helvetica,sans-Serif" font-size="10.00"> +elements</text>
</g>
<!-- Node2 -->
<g id="node2" class="node"><title>Node2</title>
<polygon fill="white" stroke="#bfbfbf" points="0,-876.5 0,-933.5 87,-933.5 87,-876.5 0,-876.5"/>
<text text-anchor="middle" x="43.5" y="-921.5" font-family="Helvetica,sans-Serif" font-size="10.00">IStreamChannel</text>
<polyline fill="none" stroke="#bfbfbf" points="0,-914.5 87,-914.5 "/>
<text text-anchor="middle" x="43.5" y="-902.5" font-family="Helvetica,sans-Serif" font-size="10.00"> </text>
<polyline fill="none" stroke="#bfbfbf" points="0,-895.5 87,-895.5 "/>
<text text-anchor="middle" x="43.5" y="-883.5" font-family="Helvetica,sans-Serif" font-size="10.00"> </text>
</g>
<!-- Node2&#45;&gt;Node1 -->
<g id="edge1" class="edge"><title>Node2&#45;&gt;Node1</title>
<path fill="none" stroke="midnightblue" d="M65.6118,-867.372C74.7965,-852.7 85.7963,-835.799 96.5,-821 109.129,-803.539 123.314,-785.31 137.1,-768.216"/>
<polygon fill="none" stroke="midnightblue" points="62.4447,-865.838 60.1464,-876.181 68.3928,-869.529 62.4447,-865.838"/>
</g>
<!-- Node3 -->
<g id="node3" class="node"><title>Node3</title>
<g id="a_node3"><a xlink:href="../../d2/d97/classlime_1_1RingFIFO.html" target="_top" xlink:title="{lime::RingFIFO\n|# mBufferSize\l# mHead\l# mTail\l# mElementsFilled\l# lock\l# hasItems\l|+ GetInfo()\l+ RingFIFO()\l+ ~RingFIFO()\l+ push_samples()\l+ pop_samples()\l+ Clear()\l}">
<polygon fill="white" stroke="black" points="105.5,-821.5 105.5,-988.5 203.5,-988.5 203.5,-821.5 105.5,-821.5"/>
<text text-anchor="middle" x="154.5" y="-976.5" font-family="Helvetica,sans-Serif" font-size="10.00">lime::RingFIFO</text>
<polyline fill="none" stroke="black" points="105.5,-969.5 203.5,-969.5 "/>
<text text-anchor="start" x="113.5" y="-957.5" font-family="Helvetica,sans-Serif" font-size="10.00"># mBufferSize</text>
<text text-anchor="start" x="113.5" y="-946.5" font-family="Helvetica,sans-Serif" font-size="10.00"># mHead</text>
<text text-anchor="start" x="113.5" y="-935.5" font-family="Helvetica,sans-Serif" font-size="10.00"># mTail</text>
<text text-anchor="start" x="113.5" y="-924.5" font-family="Helvetica,sans-Serif" font-size="10.00"># mElementsFilled</text>
<text text-anchor="start" x="113.5" y="-913.5" font-family="Helvetica,sans-Serif" font-size="10.00"># lock</text>
<text text-anchor="start" x="113.5" y="-902.5" font-family="Helvetica,sans-Serif" font-size="10.00"># hasItems</text>
<polyline fill="none" stroke="black" points="105.5,-895.5 203.5,-895.5 "/>
<text text-anchor="start" x="113.5" y="-883.5" font-family="Helvetica,sans-Serif" font-size="10.00">+ GetInfo()</text>
<text text-anchor="start" x="113.5" y="-872.5" font-family="Helvetica,sans-Serif" font-size="10.00">+ RingFIFO()</text>
<text text-anchor="start" x="113.5" y="-861.5" font-family="Helvetica,sans-Serif" font-size="10.00">+ ~RingFIFO()</text>
<text text-anchor="start" x="113.5" y="-850.5" font-family="Helvetica,sans-Serif" font-size="10.00">+ push_samples()</text>
<text text-anchor="start" x="113.5" y="-839.5" font-family="Helvetica,sans-Serif" font-size="10.00">+ pop_samples()</text>
<text text-anchor="start" x="113.5" y="-828.5" font-family="Helvetica,sans-Serif" font-size="10.00">+ Clear()</text>
</a>
</g>
</g>
<!-- Node3&#45;&gt;Node1 -->
<g id="edge2" class="edge"><title>Node3&#45;&gt;Node1</title>
<path fill="none" stroke="#404040" d="M173.127,-821.344C176.184,-807.777 179.364,-793.666 182.454,-779.954"/>
<polygon fill="none" stroke="#404040" points="182.503,-779.737 179.92,-773.005 185.141,-768.031 187.724,-774.763 182.503,-779.737"/>
<text text-anchor="middle" x="189.5" y="-795" font-family="Helvetica,sans-Serif" font-size="10.00"> #fifo</text>
</g>
<!-- Node4 -->
<g id="node4" class="node"><title>Node4</title>
<g id="a_node4"><a xlink:href="../../d0/d89/classlime_1_1SamplesPacket.html" target="_top" xlink:title="{lime::SamplesPacket\n|+ timestamp\l+ first\l+ last\l+ flags\l+ maxSamplesInPacket\l|+ SamplesPacket()\l}">
<polygon fill="white" stroke="black" points="93.5,-1080.5 93.5,-1181.5 215.5,-1181.5 215.5,-1080.5 93.5,-1080.5"/>
<text text-anchor="middle" x="154.5" y="-1169.5" font-family="Helvetica,sans-Serif" font-size="10.00">lime::SamplesPacket</text>
<polyline fill="none" stroke="black" points="93.5,-1162.5 215.5,-1162.5 "/>
<text text-anchor="start" x="101.5" y="-1150.5" font-family="Helvetica,sans-Serif" font-size="10.00">+ timestamp</text>
<text text-anchor="start" x="101.5" y="-1139.5" font-family="Helvetica,sans-Serif" font-size="10.00">+ first</text>
<text text-anchor="start" x="101.5" y="-1128.5" font-family="Helvetica,sans-Serif" font-size="10.00">+ last</text>
<text text-anchor="start" x="101.5" y="-1117.5" font-family="Helvetica,sans-Serif" font-size="10.00">+ flags</text>
<text text-anchor="start" x="101.5" y="-1106.5" font-family="Helvetica,sans-Serif" font-size="10.00">+ maxSamplesInPacket</text>
<polyline fill="none" stroke="black" points="93.5,-1099.5 215.5,-1099.5 "/>
<text text-anchor="start" x="101.5" y="-1087.5" font-family="Helvetica,sans-Serif" font-size="10.00">+ SamplesPacket()</text>
</a>
</g>
</g>
<!-- Node4&#45;&gt;Node3 -->
<g id="edge3" class="edge"><title>Node4&#45;&gt;Node3</title>
<path fill="none" stroke="#404040" d="M154.5,-1080.29C154.5,-1056.82 154.5,-1028.01 154.5,-1000.61"/>
<polygon fill="none" stroke="#404040" points="154.5,-1000.57 150.5,-994.569 154.5,-988.569 158.5,-994.569 154.5,-1000.57"/>
<text text-anchor="middle" x="176" y="-1032" font-family="Helvetica,sans-Serif" font-size="10.00"> #mBuffer</text>
</g>
<!-- Node5 -->
<g id="node5" class="node"><title>Node5</title>
<g id="a_node5"><a xlink:href="../../d3/d26/structlime_1_1complex16__t.html" target="_top" xlink:title="{lime::complex16_t\n|+ i\l+ q\l|}">
<polygon fill="white" stroke="black" points="106.5,-1229.5 106.5,-1297.5 202.5,-1297.5 202.5,-1229.5 106.5,-1229.5"/>
<text text-anchor="middle" x="154.5" y="-1285.5" font-family="Helvetica,sans-Serif" font-size="10.00">lime::complex16_t</text>
<polyline fill="none" stroke="black" points="106.5,-1278.5 202.5,-1278.5 "/>
<text text-anchor="start" x="114.5" y="-1266.5" font-family="Helvetica,sans-Serif" font-size="10.00">+ i</text>
<text text-anchor="start" x="114.5" y="-1255.5" font-family="Helvetica,sans-Serif" font-size="10.00">+ q</text>
<polyline fill="none" stroke="black" points="106.5,-1248.5 202.5,-1248.5 "/>
<text text-anchor="middle" x="154.5" y="-1236.5" font-family="Helvetica,sans-Serif" font-size="10.00"> </text>
</a>
</g>
</g>
<!-- Node5&#45;&gt;Node4 -->
<g id="edge4" class="edge"><title>Node5&#45;&gt;Node4</title>
<path fill="none" stroke="#404040" d="M154.5,-1229.23C154.5,-1218.47 154.5,-1206.17 154.5,-1194.02"/>
<polygon fill="none" stroke="#404040" points="154.5,-1193.98 150.5,-1187.98 154.5,-1181.98 158.5,-1187.98 154.5,-1193.98"/>
<text text-anchor="middle" x="177.5" y="-1203" font-family="Helvetica,sans-Serif" font-size="10.00"> +samples</text>
</g>
<!-- Node6 -->
<g id="node6" class="node"><title>Node6</title>
<g id="a_node6"><a xlink:href="../../d4/d52/structlime_1_1StreamConfig.html" target="_top" xlink:title="{lime::StreamConfig\n|+ isTx\l+ channelID\l+ performanceLatency\l+ bufferLength\l+ format\l+ linkFormat\l|+ StreamConfig()\l}">
<polygon fill="white" stroke="black" points="221.5,-849 221.5,-961 335.5,-961 335.5,-849 221.5,-849"/>
<text text-anchor="middle" x="278.5" y="-949" font-family="Helvetica,sans-Serif" font-size="10.00">lime::StreamConfig</text>
<polyline fill="none" stroke="black" points="221.5,-942 335.5,-942 "/>
<text text-anchor="start" x="229.5" y="-930" font-family="Helvetica,sans-Serif" font-size="10.00">+ isTx</text>
<text text-anchor="start" x="229.5" y="-919" font-family="Helvetica,sans-Serif" font-size="10.00">+ channelID</text>
<text text-anchor="start" x="229.5" y="-908" font-family="Helvetica,sans-Serif" font-size="10.00">+ performanceLatency</text>
<text text-anchor="start" x="229.5" y="-897" font-family="Helvetica,sans-Serif" font-size="10.00">+ bufferLength</text>
<text text-anchor="start" x="229.5" y="-886" font-family="Helvetica,sans-Serif" font-size="10.00">+ format</text>
<text text-anchor="start" x="229.5" y="-875" font-family="Helvetica,sans-Serif" font-size="10.00">+ linkFormat</text>
<polyline fill="none" stroke="black" points="221.5,-868 335.5,-868 "/>
<text text-anchor="start" x="229.5" y="-856" font-family="Helvetica,sans-Serif" font-size="10.00">+ StreamConfig()</text>
</a>
</g>
</g>
<!-- Node6&#45;&gt;Node1 -->
<g id="edge5" class="edge"><title>Node6&#45;&gt;Node1</title>
<path fill="none" stroke="#404040" d="M258.829,-848.87C251.308,-827.79 242.526,-803.179 234.166,-779.748"/>
<polygon fill="none" stroke="#404040" points="234.136,-779.663 228.352,-775.356 230.103,-768.361 235.887,-772.668 234.136,-779.663"/>
<text text-anchor="middle" x="258.5" y="-795" font-family="Helvetica,sans-Serif" font-size="10.00"> +config</text>
</g>
<!-- Node7 -->
<g id="node7" class="node"><title>Node7</title>
<g id="a_node7"><a xlink:href="../../d0/d2c/classlime_1_1ConnectionNovenaRF7.html" target="_top" xlink:title="{lime::ConnectionNovenaRF7\n|+ cSPI_BUF_SIZE\l+ cSPI_SPEED_HZ\l# rxRunning\l# terminateRx\l# rxDataRate_Bps\l# fd\l|+ ConnectionNovenaRF7()\l+ ~ConnectionNovenaRF7()\l+ Open()\l+ Close()\l+ IsOpen()\l+ Write()\l+ Read()\l+ GetType()\l+ UpdateExternalBandSelect()\l+ SetupStream()\land 6 more...\l# UpdateThreads()\l# ReceivePacketsLoop()\l# TransmitPacketsLoop()\l}">
<polygon fill="white" stroke="black" points="432,-0.5 432,-255.5 581,-255.5 581,-0.5 432,-0.5"/>
<text text-anchor="middle" x="506.5" y="-243.5" font-family="Helvetica,sans-Serif" font-size="10.00">lime::ConnectionNovenaRF7</text>
<polyline fill="none" stroke="black" points="432,-236.5 581,-236.5 "/>
<text text-anchor="start" x="440" y="-224.5" font-family="Helvetica,sans-Serif" font-size="10.00">+ cSPI_BUF_SIZE</text>
<text text-anchor="start" x="440" y="-213.5" font-family="Helvetica,sans-Serif" font-size="10.00">+ cSPI_SPEED_HZ</text>
<text text-anchor="start" x="440" y="-202.5" font-family="Helvetica,sans-Serif" font-size="10.00"># rxRunning</text>
<text text-anchor="start" x="440" y="-191.5" font-family="Helvetica,sans-Serif" font-size="10.00"># terminateRx</text>
<text text-anchor="start" x="440" y="-180.5" font-family="Helvetica,sans-Serif" font-size="10.00"># rxDataRate_Bps</text>
<text text-anchor="start" x="440" y="-169.5" font-family="Helvetica,sans-Serif" font-size="10.00"># fd</text>
<polyline fill="none" stroke="black" points="432,-162.5 581,-162.5 "/>
<text text-anchor="start" x="440" y="-150.5" font-family="Helvetica,sans-Serif" font-size="10.00">+ ConnectionNovenaRF7()</text>
<text text-anchor="start" x="440" y="-139.5" font-family="Helvetica,sans-Serif" font-size="10.00">+ ~ConnectionNovenaRF7()</text>
<text text-anchor="start" x="440" y="-128.5" font-family="Helvetica,sans-Serif" font-size="10.00">+ Open()</text>
<text text-anchor="start" x="440" y="-117.5" font-family="Helvetica,sans-Serif" font-size="10.00">+ Close()</text>
<text text-anchor="start" x="440" y="-106.5" font-family="Helvetica,sans-Serif" font-size="10.00">+ IsOpen()</text>
<text text-anchor="start" x="440" y="-95.5" font-family="Helvetica,sans-Serif" font-size="10.00">+ Write()</text>
<text text-anchor="start" x="440" y="-84.5" font-family="Helvetica,sans-Serif" font-size="10.00">+ Read()</text>
<text text-anchor="start" x="440" y="-73.5" font-family="Helvetica,sans-Serif" font-size="10.00">+ GetType()</text>
<text text-anchor="start" x="440" y="-62.5" font-family="Helvetica,sans-Serif" font-size="10.00">+ UpdateExternalBandSelect()</text>
<text text-anchor="start" x="440" y="-51.5" font-family="Helvetica,sans-Serif" font-size="10.00">+ SetupStream()</text>
<text text-anchor="start" x="440" y="-40.5" font-family="Helvetica,sans-Serif" font-size="10.00">and 6 more...</text>
<text text-anchor="start" x="440" y="-29.5" font-family="Helvetica,sans-Serif" font-size="10.00"># UpdateThreads()</text>
<text text-anchor="start" x="440" y="-18.5" font-family="Helvetica,sans-Serif" font-size="10.00"># ReceivePacketsLoop()</text>
<text text-anchor="start" x="440" y="-7.5" font-family="Helvetica,sans-Serif" font-size="10.00"># TransmitPacketsLoop()</text>
</a>
</g>
</g>
<!-- Node7&#45;&gt;Node1 -->
<g id="edge6" class="edge"><title>Node7&#45;&gt;Node1</title>
<path fill="none" stroke="#404040" d="M431.81,-150.005C361.233,-174.233 259.268,-221.585 211.5,-303 158.557,-393.235 166.824,-516.917 181.344,-599.723"/>
<polygon fill="none" stroke="#404040" points="181.364,-599.831 186.379,-605.012 183.525,-611.635 178.51,-606.453 181.364,-599.831"/>
<text text-anchor="middle" x="224" y="-423" font-family="Helvetica,sans-Serif" font-size="10.00"> #port</text>
</g>
<!-- Node8 -->
<g id="node8" class="node"><title>Node8</title>
<g id="a_node8"><a xlink:href="../../de/d46/classlime_1_1LMS64CProtocol.html" target="_top" xlink:title="{lime::LMS64CProtocol\n|&#45; mControlPortLock\l&#45; _cachedRefClockRate\l|+ LMS64CProtocol()\l+ ~LMS64CProtocol()\l+ GetDeviceInfo()\l+ DeviceReset()\l+ TransactSPI()\l+ WriteI2C()\l+ ReadI2C()\l+ WriteRegisters()\l+ ReadRegisters()\l+ TransferPacket()\land 17 more...\l&#45; WriteSi5351I2C()\l&#45; ReadSi5351I2C()\l&#45; WriteADF4002SPI()\l&#45; ReadADF4002SPI()\l&#45; PreparePacket()\l&#45; ParsePacket()\l}">
<polygon fill="white" stroke="black" points="245.5,-303.5 245.5,-547.5 367.5,-547.5 367.5,-303.5 245.5,-303.5"/>
<text text-anchor="middle" x="306.5" y="-535.5" font-family="Helvetica,sans-Serif" font-size="10.00">lime::LMS64CProtocol</text>
<polyline fill="none" stroke="black" points="245.5,-528.5 367.5,-528.5 "/>
<text text-anchor="start" x="253.5" y="-516.5" font-family="Helvetica,sans-Serif" font-size="10.00">&#45; mControlPortLock</text>
<text text-anchor="start" x="253.5" y="-505.5" font-family="Helvetica,sans-Serif" font-size="10.00">&#45; _cachedRefClockRate</text>
<polyline fill="none" stroke="black" points="245.5,-498.5 367.5,-498.5 "/>
<text text-anchor="start" x="253.5" y="-486.5" font-family="Helvetica,sans-Serif" font-size="10.00">+ LMS64CProtocol()</text>
<text text-anchor="start" x="253.5" y="-475.5" font-family="Helvetica,sans-Serif" font-size="10.00">+ ~LMS64CProtocol()</text>
<text text-anchor="start" x="253.5" y="-464.5" font-family="Helvetica,sans-Serif" font-size="10.00">+ GetDeviceInfo()</text>
<text text-anchor="start" x="253.5" y="-453.5" font-family="Helvetica,sans-Serif" font-size="10.00">+ DeviceReset()</text>
<text text-anchor="start" x="253.5" y="-442.5" font-family="Helvetica,sans-Serif" font-size="10.00">+ TransactSPI()</text>
<text text-anchor="start" x="253.5" y="-431.5" font-family="Helvetica,sans-Serif" font-size="10.00">+ WriteI2C()</text>
<text text-anchor="start" x="253.5" y="-420.5" font-family="Helvetica,sans-Serif" font-size="10.00">+ ReadI2C()</text>
<text text-anchor="start" x="253.5" y="-409.5" font-family="Helvetica,sans-Serif" font-size="10.00">+ WriteRegisters()</text>
<text text-anchor="start" x="253.5" y="-398.5" font-family="Helvetica,sans-Serif" font-size="10.00">+ ReadRegisters()</text>
<text text-anchor="start" x="253.5" y="-387.5" font-family="Helvetica,sans-Serif" font-size="10.00">+ TransferPacket()</text>
<text text-anchor="start" x="253.5" y="-376.5" font-family="Helvetica,sans-Serif" font-size="10.00">and 17 more...</text>
<text text-anchor="start" x="253.5" y="-365.5" font-family="Helvetica,sans-Serif" font-size="10.00">&#45; WriteSi5351I2C()</text>
<text text-anchor="start" x="253.5" y="-354.5" font-family="Helvetica,sans-Serif" font-size="10.00">&#45; ReadSi5351I2C()</text>
<text text-anchor="start" x="253.5" y="-343.5" font-family="Helvetica,sans-Serif" font-size="10.00">&#45; WriteADF4002SPI()</text>
<text text-anchor="start" x="253.5" y="-332.5" font-family="Helvetica,sans-Serif" font-size="10.00">&#45; ReadADF4002SPI()</text>
<text text-anchor="start" x="253.5" y="-321.5" font-family="Helvetica,sans-Serif" font-size="10.00">&#45; PreparePacket()</text>
<text text-anchor="start" x="253.5" y="-310.5" font-family="Helvetica,sans-Serif" font-size="10.00">&#45; ParsePacket()</text>
</a>
</g>
</g>
<!-- Node8&#45;&gt;Node7 -->
<g id="edge7" class="edge"><title>Node8&#45;&gt;Node7</title>
<path fill="none" stroke="midnightblue" d="M373.184,-308.084C374.29,-306.373 375.396,-304.678 376.5,-303 393.605,-277.015 413.187,-249.708 431.872,-224.629"/>
<polygon fill="none" stroke="midnightblue" points="370.083,-306.437 367.657,-316.751 375.985,-310.201 370.083,-306.437"/>
</g>
<!-- Node9 -->
<g id="node9" class="node"><title>Node9</title>
<g id="a_node9"><a xlink:href="../../d2/de5/classlime_1_1IConnection.html" target="_top" xlink:title="{lime::IConnection\n|# callback_logData\l|+ IConnection()\l+ ~IConnection()\l+ GetHandle()\l+ IsOpen()\l+ GetDeviceInfo()\l+ TransactSPI()\l+ WriteLMS7002MSPI()\l+ ReadLMS7002MSPI()\l+ WriteI2C()\l+ ReadI2C()\land 28 more...\l}">
<polygon fill="white" stroke="black" points="333,-606.5 333,-773.5 454,-773.5 454,-606.5 333,-606.5"/>
<text text-anchor="middle" x="393.5" y="-761.5" font-family="Helvetica,sans-Serif" font-size="10.00">lime::IConnection</text>
<polyline fill="none" stroke="black" points="333,-754.5 454,-754.5 "/>
<text text-anchor="start" x="341" y="-742.5" font-family="Helvetica,sans-Serif" font-size="10.00"># callback_logData</text>
<polyline fill="none" stroke="black" points="333,-735.5 454,-735.5 "/>
<text text-anchor="start" x="341" y="-723.5" font-family="Helvetica,sans-Serif" font-size="10.00">+ IConnection()</text>
<text text-anchor="start" x="341" y="-712.5" font-family="Helvetica,sans-Serif" font-size="10.00">+ ~IConnection()</text>
<text text-anchor="start" x="341" y="-701.5" font-family="Helvetica,sans-Serif" font-size="10.00">+ GetHandle()</text>
<text text-anchor="start" x="341" y="-690.5" font-family="Helvetica,sans-Serif" font-size="10.00">+ IsOpen()</text>
<text text-anchor="start" x="341" y="-679.5" font-family="Helvetica,sans-Serif" font-size="10.00">+ GetDeviceInfo()</text>
<text text-anchor="start" x="341" y="-668.5" font-family="Helvetica,sans-Serif" font-size="10.00">+ TransactSPI()</text>
<text text-anchor="start" x="341" y="-657.5" font-family="Helvetica,sans-Serif" font-size="10.00">+ WriteLMS7002MSPI()</text>
<text text-anchor="start" x="341" y="-646.5" font-family="Helvetica,sans-Serif" font-size="10.00">+ ReadLMS7002MSPI()</text>
<text text-anchor="start" x="341" y="-635.5" font-family="Helvetica,sans-Serif" font-size="10.00">+ WriteI2C()</text>
<text text-anchor="start" x="341" y="-624.5" font-family="Helvetica,sans-Serif" font-size="10.00">+ ReadI2C()</text>
<text text-anchor="start" x="341" y="-613.5" font-family="Helvetica,sans-Serif" font-size="10.00">and 28 more...</text>
</a>
</g>
</g>
<!-- Node9&#45;&gt;Node8 -->
<g id="edge8" class="edge"><title>Node9&#45;&gt;Node8</title>
<path fill="none" stroke="midnightblue" d="M362.866,-596.57C357.623,-580.75 352.106,-564.103 346.659,-547.668"/>
<polygon fill="none" stroke="midnightblue" points="359.624,-597.913 366.092,-606.304 366.268,-595.71 359.624,-597.913"/>
</g>
<!-- Node10 -->
<g id="node10" class="node"><title>Node10</title>
<g id="a_node10"><a xlink:href="../../d6/d37/classlime_1_1ConnectionHandle.html" target="_top" xlink:title="{lime::ConnectionHandle\n|+ index\l|+ ConnectionHandle()\l+ ConnectionHandle()\l+ serialize()\l+ ToString()\l}">
<polygon fill="white" stroke="black" points="354,-860 354,-950 475,-950 475,-860 354,-860"/>
<text text-anchor="middle" x="414.5" y="-938" font-family="Helvetica,sans-Serif" font-size="10.00">lime::ConnectionHandle</text>
<polyline fill="none" stroke="black" points="354,-931 475,-931 "/>
<text text-anchor="start" x="362" y="-919" font-family="Helvetica,sans-Serif" font-size="10.00">+ index</text>
<polyline fill="none" stroke="black" points="354,-912 475,-912 "/>
<text text-anchor="start" x="362" y="-900" font-family="Helvetica,sans-Serif" font-size="10.00">+ ConnectionHandle()</text>
<text text-anchor="start" x="362" y="-889" font-family="Helvetica,sans-Serif" font-size="10.00">+ ConnectionHandle()</text>
<text text-anchor="start" x="362" y="-878" font-family="Helvetica,sans-Serif" font-size="10.00">+ serialize()</text>
<text text-anchor="start" x="362" y="-867" font-family="Helvetica,sans-Serif" font-size="10.00">+ ToString()</text>
</a>
</g>
</g>
<!-- Node10&#45;&gt;Node9 -->
<g id="edge9" class="edge"><title>Node10&#45;&gt;Node9</title>
<path fill="none" stroke="#404040" d="M410.149,-859.866C408.033,-838.407 405.403,-811.731 402.863,-785.966"/>
<polygon fill="none" stroke="#404040" points="402.843,-785.76 398.273,-780.182 401.665,-773.818 406.235,-779.397 402.843,-785.76"/>
<text text-anchor="middle" x="424.5" y="-795" font-family="Helvetica,sans-Serif" font-size="10.00"> &#45;_handle</text>
</g>
<!-- Node11 -->
<g id="node11" class="node"><title>Node11</title>
<g id="a_node11"><a xlink:title="STL class. ">
<polygon fill="white" stroke="#bfbfbf" points="384.5,-1102.5 384.5,-1159.5 444.5,-1159.5 444.5,-1102.5 384.5,-1102.5"/>
<text text-anchor="middle" x="414.5" y="-1147.5" font-family="Helvetica,sans-Serif" font-size="10.00">std::string</text>
<polyline fill="none" stroke="#bfbfbf" points="384.5,-1140.5 444.5,-1140.5 "/>
<text text-anchor="middle" x="414.5" y="-1128.5" font-family="Helvetica,sans-Serif" font-size="10.00"> </text>
<polyline fill="none" stroke="#bfbfbf" points="384.5,-1121.5 444.5,-1121.5 "/>
<text text-anchor="middle" x="414.5" y="-1109.5" font-family="Helvetica,sans-Serif" font-size="10.00"> </text>
</a>
</g>
</g>
<!-- Node11&#45;&gt;Node10 -->
<g id="edge10" class="edge"><title>Node11&#45;&gt;Node10</title>
<path fill="none" stroke="#404040" d="M414.5,-1102.08C414.5,-1067.24 414.5,-1006.82 414.5,-962.232"/>
<polygon fill="none" stroke="#404040" points="414.5,-962.11 410.5,-956.11 414.5,-950.11 418.5,-956.11 414.5,-962.11"/>
<text text-anchor="middle" x="433.5" y="-1054" font-family="Helvetica,sans-Serif" font-size="10.00"> +serial</text>
<text text-anchor="middle" x="433.5" y="-1043" font-family="Helvetica,sans-Serif" font-size="10.00">+name</text>
<text text-anchor="middle" x="433.5" y="-1032" font-family="Helvetica,sans-Serif" font-size="10.00">+media</text>
<text text-anchor="middle" x="433.5" y="-1021" font-family="Helvetica,sans-Serif" font-size="10.00">+module</text>
<text text-anchor="middle" x="433.5" y="-1010" font-family="Helvetica,sans-Serif" font-size="10.00">+addr</text>
</g>
<!-- Node12 -->
<g id="node12" class="node"><title>Node12</title>
<g id="a_node12"><a xlink:title="STL class. ">
<polygon fill="white" stroke="#bfbfbf" points="367,-1229.5 367,-1297.5 462,-1297.5 462,-1229.5 367,-1229.5"/>
<text text-anchor="start" x="375" y="-1285.5" font-family="Helvetica,sans-Serif" font-size="10.00">std::basic_string&lt;</text>
<text text-anchor="middle" x="414.5" y="-1274.5" font-family="Helvetica,sans-Serif" font-size="10.00"> char &gt;</text>
<polyline fill="none" stroke="#bfbfbf" points="367,-1267.5 462,-1267.5 "/>
<text text-anchor="middle" x="414.5" y="-1255.5" font-family="Helvetica,sans-Serif" font-size="10.00"> </text>
<polyline fill="none" stroke="#bfbfbf" points="367,-1248.5 462,-1248.5 "/>
<text text-anchor="middle" x="414.5" y="-1236.5" font-family="Helvetica,sans-Serif" font-size="10.00"> </text>
</a>
</g>
</g>
<!-- Node12&#45;&gt;Node11 -->
<g id="edge11" class="edge"><title>Node12&#45;&gt;Node11</title>
<path fill="none" stroke="midnightblue" d="M414.5,-1219.05C414.5,-1199.55 414.5,-1177.12 414.5,-1159.91"/>
<polygon fill="none" stroke="midnightblue" points="411,-1219.23 414.5,-1229.23 418,-1219.23 411,-1219.23"/>
</g>
<!-- Node13&#45;&gt;Node7 -->
<g id="edge12" class="edge"><title>Node13&#45;&gt;Node7</title>
<path fill="none" stroke="#404040" d="M450.26,-385.95C454.301,-355.427 460.683,-311.79 468.5,-274 468.945,-271.848 469.402,-269.68 469.87,-267.499"/>
<polygon fill="none" stroke="#404040" points="469.879,-267.457 467.267,-260.736 472.467,-255.739 475.079,-262.461 469.879,-267.457"/>
<text text-anchor="middle" x="502" y="-277" font-family="Helvetica,sans-Serif" font-size="10.00"> #mRxStreams</text>
</g>
<!-- Node14 -->
<g id="node14" class="node"><title>Node14</title>
<g id="a_node14"><a xlink:title="STL class. ">
<polygon fill="white" stroke="#bfbfbf" points="522,-661.5 522,-718.5 609,-718.5 609,-661.5 522,-661.5"/>
<text text-anchor="middle" x="565.5" y="-706.5" font-family="Helvetica,sans-Serif" font-size="10.00">std::vector&lt; T &gt;</text>
<polyline fill="none" stroke="#bfbfbf" points="522,-699.5 609,-699.5 "/>
<text text-anchor="middle" x="565.5" y="-687.5" font-family="Helvetica,sans-Serif" font-size="10.00"> </text>
<polyline fill="none" stroke="#bfbfbf" points="522,-680.5 609,-680.5 "/>
<text text-anchor="middle" x="565.5" y="-668.5" font-family="Helvetica,sans-Serif" font-size="10.00"> </text>
</a>
</g>
</g>
<!-- Node14&#45;&gt;Node13 -->
<g id="edge14" class="edge"><title>Node14&#45;&gt;Node13</title>
<path fill="none" stroke="orange" d="M522.07,-655.07C489.83,-629.406 450.739,-597.083 446.5,-588 428.359,-549.125 431.545,-499.031 437.045,-465.014"/>
<polygon fill="orange" stroke="orange" points="520.084,-657.962 530.094,-661.434 524.433,-652.478 520.084,-657.962"/>
<text text-anchor="start" x="446.5" y="-580" font-family="Helvetica,sans-Serif" font-size="10.00"> &lt; lime::ConnectionNovena</text>
<text text-anchor="middle" x="506.5" y="-569" font-family="Helvetica,sans-Serif" font-size="10.00">RF7::StreamChannel * &gt;</text>
</g>
<!-- Node23 -->
<g id="node23" class="node"><title>Node23</title>
<polygon fill="white" stroke="#bfbfbf" points="523,-391.5 523,-459.5 634,-459.5 634,-391.5 523,-391.5"/>
<text text-anchor="start" x="531" y="-447.5" font-family="Helvetica,sans-Serif" font-size="10.00">std::vector&lt; unsigned</text>
<text text-anchor="middle" x="578.5" y="-436.5" font-family="Helvetica,sans-Serif" font-size="10.00"> char &gt;</text>
<polyline fill="none" stroke="#bfbfbf" points="523,-429.5 634,-429.5 "/>
<text text-anchor="start" x="531" y="-417.5" font-family="Helvetica,sans-Serif" font-size="10.00">+ elements</text>
<polyline fill="none" stroke="#bfbfbf" points="523,-410.5 634,-410.5 "/>
<text text-anchor="middle" x="578.5" y="-398.5" font-family="Helvetica,sans-Serif" font-size="10.00"> </text>
</g>
<!-- Node14&#45;&gt;Node23 -->
<g id="edge25" class="edge"><title>Node14&#45;&gt;Node23</title>
<path fill="none" stroke="orange" d="M567.363,-651.391C569.904,-600.067 574.42,-508.883 576.847,-459.87"/>
<polygon fill="orange" stroke="orange" points="563.866,-651.243 566.867,-661.404 570.857,-651.589 563.866,-651.243"/>
<text text-anchor="middle" x="611.5" y="-574.5" font-family="Helvetica,sans-Serif" font-size="10.00"> &lt; unsigned char &gt;</text>
</g>
<!-- Node15 -->
<g id="node15" class="node"><title>Node15</title>
<polygon fill="white" stroke="#bfbfbf" points="551,-876.5 551,-933.5 580,-933.5 580,-876.5 551,-876.5"/>
<text text-anchor="middle" x="565.5" y="-921.5" font-family="Helvetica,sans-Serif" font-size="10.00">T</text>
<polyline fill="none" stroke="#bfbfbf" points="551,-914.5 580,-914.5 "/>
<text text-anchor="middle" x="565.5" y="-902.5" font-family="Helvetica,sans-Serif" font-size="10.00"> </text>
<polyline fill="none" stroke="#bfbfbf" points="551,-895.5 580,-895.5 "/>
<text text-anchor="middle" x="565.5" y="-883.5" font-family="Helvetica,sans-Serif" font-size="10.00"> </text>
</g>
<!-- Node15&#45;&gt;Node14 -->
<g id="edge15" class="edge"><title>Node15&#45;&gt;Node14</title>
<path fill="none" stroke="#404040" d="M565.5,-876.154C565.5,-838.978 565.5,-772.91 565.5,-730.572"/>
<polygon fill="none" stroke="#404040" points="565.5,-730.515 561.5,-724.515 565.5,-718.515 569.5,-724.515 565.5,-730.515"/>
<text text-anchor="middle" x="590" y="-795" font-family="Helvetica,sans-Serif" font-size="10.00"> +elements</text>
</g>
<!-- Node16 -->
<g id="node16" class="node"><title>Node16</title>
<g id="a_node16"><a xlink:title="STL class. ">
<polygon fill="white" stroke="#bfbfbf" points="652,-397 652,-454 721,-454 721,-397 652,-397"/>
<text text-anchor="middle" x="686.5" y="-442" font-family="Helvetica,sans-Serif" font-size="10.00">std::fstream</text>
<polyline fill="none" stroke="#bfbfbf" points="652,-435 721,-435 "/>
<text text-anchor="middle" x="686.5" y="-423" font-family="Helvetica,sans-Serif" font-size="10.00"> </text>
<polyline fill="none" stroke="#bfbfbf" points="652,-416 721,-416 "/>
<text text-anchor="middle" x="686.5" y="-404" font-family="Helvetica,sans-Serif" font-size="10.00"> </text>
</a>
</g>
</g>
<!-- Node16&#45;&gt;Node7 -->
<g id="edge16" class="edge"><title>Node16&#45;&gt;Node7</title>
<path fill="none" stroke="#404040" d="M679.517,-396.872C672.469,-371.511 660.236,-333.377 643.5,-303 628.118,-275.08 608.33,-246.995 588.603,-221.779"/>
<polygon fill="none" stroke="#404040" points="588.511,-221.664 581.649,-219.448 581.055,-212.262 587.917,-214.477 588.511,-221.664"/>
<text text-anchor="middle" x="652" y="-277" font-family="Helvetica,sans-Serif" font-size="10.00"> #m_SEN</text>
</g>
<!-- Node17 -->
<g id="node17" class="node"><title>Node17</title>
<g id="a_node17"><a xlink:title="STL class. ">
<polygon fill="white" stroke="#bfbfbf" points="637.5,-656 637.5,-724 735.5,-724 735.5,-656 637.5,-656"/>
<text text-anchor="start" x="645.5" y="-712" font-family="Helvetica,sans-Serif" font-size="10.00">std::basic_fstream</text>
<text text-anchor="middle" x="686.5" y="-701" font-family="Helvetica,sans-Serif" font-size="10.00">&lt; char &gt;</text>
<polyline fill="none" stroke="#bfbfbf" points="637.5,-694 735.5,-694 "/>
<text text-anchor="middle" x="686.5" y="-682" font-family="Helvetica,sans-Serif" font-size="10.00"> </text>
<polyline fill="none" stroke="#bfbfbf" points="637.5,-675 735.5,-675 "/>
<text text-anchor="middle" x="686.5" y="-663" font-family="Helvetica,sans-Serif" font-size="10.00"> </text>
</a>
</g>
</g>
<!-- Node17&#45;&gt;Node16 -->
<g id="edge17" class="edge"><title>Node17&#45;&gt;Node16</title>
<path fill="none" stroke="midnightblue" d="M686.5,-645.749C686.5,-591.488 686.5,-500.023 686.5,-454.287"/>
<polygon fill="none" stroke="midnightblue" points="683,-645.754 686.5,-655.754 690,-645.754 683,-645.754"/>
</g>
<!-- Node18 -->
<g id="node18" class="node"><title>Node18</title>
<g id="a_node18"><a xlink:title="STL class. ">
<polygon fill="white" stroke="#bfbfbf" points="635.5,-871 635.5,-939 737.5,-939 737.5,-871 635.5,-871"/>
<text text-anchor="start" x="643.5" y="-927" font-family="Helvetica,sans-Serif" font-size="10.00">std::basic_iostream</text>
<text text-anchor="middle" x="686.5" y="-916" font-family="Helvetica,sans-Serif" font-size="10.00">&lt; Char &gt;</text>
<polyline fill="none" stroke="#bfbfbf" points="635.5,-909 737.5,-909 "/>
<text text-anchor="middle" x="686.5" y="-897" font-family="Helvetica,sans-Serif" font-size="10.00"> </text>
<polyline fill="none" stroke="#bfbfbf" points="635.5,-890 737.5,-890 "/>
<text text-anchor="middle" x="686.5" y="-878" font-family="Helvetica,sans-Serif" font-size="10.00"> </text>
</a>
</g>
</g>
<!-- Node18&#45;&gt;Node17 -->
<g id="edge18" class="edge"><title>Node18&#45;&gt;Node17</title>
<path fill="none" stroke="midnightblue" d="M686.5,-860.619C686.5,-820.186 686.5,-760.763 686.5,-724.048"/>
<polygon fill="none" stroke="midnightblue" points="683,-860.719 686.5,-870.719 690,-860.719 683,-860.719"/>
</g>
<!-- Node19 -->
<g id="node19" class="node"><title>Node19</title>
<g id="a_node19"><a xlink:title="STL class. ">
<polygon fill="white" stroke="#bfbfbf" points="579,-1097 579,-1165 676,-1165 676,-1097 579,-1097"/>
<text text-anchor="start" x="587" y="-1153" font-family="Helvetica,sans-Serif" font-size="10.00">std::basic_istream</text>
<text text-anchor="middle" x="627.5" y="-1142" font-family="Helvetica,sans-Serif" font-size="10.00">&lt; Char &gt;</text>
<polyline fill="none" stroke="#bfbfbf" points="579,-1135 676,-1135 "/>
<text text-anchor="middle" x="627.5" y="-1123" font-family="Helvetica,sans-Serif" font-size="10.00"> </text>
<polyline fill="none" stroke="#bfbfbf" points="579,-1116 676,-1116 "/>
<text text-anchor="middle" x="627.5" y="-1104" font-family="Helvetica,sans-Serif" font-size="10.00"> </text>
</a>
</g>
</g>
<!-- Node19&#45;&gt;Node18 -->
<g id="edge19" class="edge"><title>Node19&#45;&gt;Node18</title>
<path fill="none" stroke="midnightblue" d="M638.816,-1087.04C650.17,-1043.93 667.416,-978.456 677.759,-939.188"/>
<polygon fill="none" stroke="midnightblue" points="635.368,-1086.39 636.206,-1096.95 642.137,-1088.17 635.368,-1086.39"/>
</g>
<!-- Node20 -->
<g id="node20" class="node"><title>Node20</title>
<g id="a_node20"><a xlink:title="STL class. ">
<polygon fill="white" stroke="#bfbfbf" points="627.5,-1235 627.5,-1292 743.5,-1292 743.5,-1235 627.5,-1235"/>
<text text-anchor="middle" x="685.5" y="-1280" font-family="Helvetica,sans-Serif" font-size="10.00">std::basic_ios&lt; Char &gt;</text>
<polyline fill="none" stroke="#bfbfbf" points="627.5,-1273 743.5,-1273 "/>
<text text-anchor="middle" x="685.5" y="-1261" font-family="Helvetica,sans-Serif" font-size="10.00"> </text>
<polyline fill="none" stroke="#bfbfbf" points="627.5,-1254 743.5,-1254 "/>
<text text-anchor="middle" x="685.5" y="-1242" font-family="Helvetica,sans-Serif" font-size="10.00"> </text>
</a>
</g>
</g>
<!-- Node20&#45;&gt;Node19 -->
<g id="edge20" class="edge"><title>Node20&#45;&gt;Node19</title>
<path fill="none" stroke="midnightblue" d="M669.09,-1225.58C660.648,-1206.58 650.439,-1183.61 642.248,-1165.18"/>
<polygon fill="none" stroke="midnightblue" points="665.94,-1227.11 673.2,-1234.82 672.337,-1224.26 665.94,-1227.11"/>
</g>
<!-- Node22 -->
<g id="node22" class="node"><title>Node22</title>
<g id="a_node22"><a xlink:title="STL class. ">
<polygon fill="white" stroke="#bfbfbf" points="694.5,-1097 694.5,-1165 794.5,-1165 794.5,-1097 694.5,-1097"/>
<text text-anchor="start" x="702.5" y="-1153" font-family="Helvetica,sans-Serif" font-size="10.00">std::basic_ostream</text>
<text text-anchor="middle" x="744.5" y="-1142" font-family="Helvetica,sans-Serif" font-size="10.00">&lt; Char &gt;</text>
<polyline fill="none" stroke="#bfbfbf" points="694.5,-1135 794.5,-1135 "/>
<text text-anchor="middle" x="744.5" y="-1123" font-family="Helvetica,sans-Serif" font-size="10.00"> </text>
<polyline fill="none" stroke="#bfbfbf" points="694.5,-1116 794.5,-1116 "/>
<text text-anchor="middle" x="744.5" y="-1104" font-family="Helvetica,sans-Serif" font-size="10.00"> </text>
</a>
</g>
</g>
<!-- Node20&#45;&gt;Node22 -->
<g id="edge23" class="edge"><title>Node20&#45;&gt;Node22</title>
<path fill="none" stroke="midnightblue" d="M702.193,-1225.58C710.781,-1206.58 721.166,-1183.61 729.497,-1165.18"/>
<polygon fill="none" stroke="midnightblue" points="698.943,-1224.27 698.012,-1234.82 705.321,-1227.15 698.943,-1224.27"/>
</g>
<!-- Node21 -->
<g id="node21" class="node"><title>Node21</title>
<g id="a_node21"><a xlink:title="STL class. ">
<polygon fill="white" stroke="#bfbfbf" points="648,-1335.5 648,-1392.5 723,-1392.5 723,-1335.5 648,-1335.5"/>
<text text-anchor="middle" x="685.5" y="-1380.5" font-family="Helvetica,sans-Serif" font-size="10.00">std::ios_base</text>
<polyline fill="none" stroke="#bfbfbf" points="648,-1373.5 723,-1373.5 "/>
<text text-anchor="middle" x="685.5" y="-1361.5" font-family="Helvetica,sans-Serif" font-size="10.00"> </text>
<polyline fill="none" stroke="#bfbfbf" points="648,-1354.5 723,-1354.5 "/>
<text text-anchor="middle" x="685.5" y="-1342.5" font-family="Helvetica,sans-Serif" font-size="10.00"> </text>
</a>
</g>
</g>
<!-- Node21&#45;&gt;Node20 -->
<g id="edge21" class="edge"><title>Node21&#45;&gt;Node20</title>
<path fill="none" stroke="midnightblue" d="M685.5,-1325.15C685.5,-1314.23 685.5,-1302.52 685.5,-1292.33"/>
<polygon fill="none" stroke="midnightblue" points="682,-1325.3 685.5,-1335.3 689,-1325.3 682,-1325.3"/>
</g>
<!-- Node22&#45;&gt;Node18 -->
<g id="edge22" class="edge"><title>Node22&#45;&gt;Node18</title>
<path fill="none" stroke="midnightblue" d="M733.376,-1087.04C722.214,-1043.93 705.261,-978.456 695.093,-939.188"/>
<polygon fill="none" stroke="midnightblue" points="730.047,-1088.14 735.942,-1096.95 736.823,-1086.39 730.047,-1088.14"/>
</g>
<!-- Node23&#45;&gt;Node7 -->
<g id="edge24" class="edge"><title>Node23&#45;&gt;Node7</title>
<path fill="none" stroke="#404040" d="M570.45,-391.463C563.025,-360.987 551.48,-313.605 540.231,-267.44"/>
<polygon fill="none" stroke="#404040" points="540.222,-267.399 534.915,-262.516 537.381,-255.74 542.687,-260.622 540.222,-267.399"/>
<text text-anchor="middle" x="558" y="-277" font-family="Helvetica,sans-Serif" font-size="10.00"> #rxbuf</text>
</g>
<!-- Node24 -->
<g id="node24" class="node"><title>Node24</title>
<g id="a_node24"><a xlink:title="STL class. ">
<polygon fill="white" stroke="#bfbfbf" points="739,-397 739,-454 802,-454 802,-397 739,-397"/>
<text text-anchor="middle" x="770.5" y="-442" font-family="Helvetica,sans-Serif" font-size="10.00">std::thread</text>
<polyline fill="none" stroke="#bfbfbf" points="739,-435 802,-435 "/>
<text text-anchor="middle" x="770.5" y="-423" font-family="Helvetica,sans-Serif" font-size="10.00"> </text>
<polyline fill="none" stroke="#bfbfbf" points="739,-416 802,-416 "/>
<text text-anchor="middle" x="770.5" y="-404" font-family="Helvetica,sans-Serif" font-size="10.00"> </text>
</a>
</g>
</g>
<!-- Node24&#45;&gt;Node7 -->
<g id="edge26" class="edge"><title>Node24&#45;&gt;Node7</title>
<path fill="none" stroke="#404040" d="M766.196,-396.826C761.086,-370.736 750.593,-331.493 730.5,-303 694.212,-251.542 638.29,-208.079 591.401,-177.462"/>
<polygon fill="none" stroke="#404040" points="591.333,-177.418 584.123,-177.54 581.237,-170.931 588.447,-170.809 591.333,-177.418"/>
<text text-anchor="middle" x="740" y="-277" font-family="Helvetica,sans-Serif" font-size="10.00"> #rxThread</text>
</g>
</g>
</svg>
