<?xml version="1.0" encoding="UTF-8" standalone="no"?>
<!DOCTYPE svg PUBLIC "-//W3C//DTD SVG 1.1//EN"
 "http://www.w3.org/Graphics/SVG/1.1/DTD/svg11.dtd">
<!-- Generated by graphviz version 2.38.0 (20140413.2041)
 -->
<!-- Title: NumericSlider::NumericSlider Pages: 1 -->
<svg width="345pt" height="127pt"
 viewBox="0.00 0.00 345.00 126.50" xmlns="http://www.w3.org/2000/svg" xmlns:xlink="http://www.w3.org/1999/xlink">
<g id="graph0" class="graph" transform="scale(1 1) rotate(0) translate(4 122.5)">
<title>NumericSlider::NumericSlider</title>
<polygon fill="white" stroke="none" points="-4,4 -4,-122.5 341,-122.5 341,4 -4,4"/>
<!-- Node1 -->
<g id="node1" class="node"><title>Node1</title>
<polygon fill="#bfbfbf" stroke="black" points="0,-55 0,-74 146,-74 146,-55 0,-55"/>
<text text-anchor="middle" x="73" y="-62" font-family="Helvetica,sans-Serif" font-size="10.00">NumericSlider::NumericSlider</text>
</g>
<!-- Node2 -->
<g id="node2" class="node"><title>Node2</title>
<g id="a_node2"><a xlink:href="../../d9/d45/classNumericSlider.html#a5d920434d2df2225f5b3149c8657feb6" target="_top" xlink:title="NumericSlider::OnScrollChange">
<polygon fill="white" stroke="black" points="182,-99 182,-118 337,-118 337,-99 182,-99"/>
<text text-anchor="middle" x="259.5" y="-106" font-family="Helvetica,sans-Serif" font-size="10.00">NumericSlider::OnScrollChange</text>
</a>
</g>
</g>
<!-- Node1&#45;&gt;Node2 -->
<g id="edge1" class="edge"><title>Node1&#45;&gt;Node2</title>
<path fill="none" stroke="midnightblue" d="M114.034,-74.0473C141.838,-80.6781 179.077,-89.5591 208.783,-96.6435"/>
<polygon fill="midnightblue" stroke="midnightblue" points="208.005,-100.056 218.544,-98.9713 209.629,-93.2469 208.005,-100.056"/>
</g>
<!-- Node3 -->
<g id="node3" class="node"><title>Node3</title>
<g id="a_node3"><a xlink:href="../../d9/d45/classNumericSlider.html#a75a70ed1cb245b6ed6f1efffca074afc" target="_top" xlink:title="NumericSlider::OnSpinner\lChange">
<polygon fill="white" stroke="black" points="194.5,-49.5 194.5,-79.5 324.5,-79.5 324.5,-49.5 194.5,-49.5"/>
<text text-anchor="start" x="202.5" y="-67.5" font-family="Helvetica,sans-Serif" font-size="10.00">NumericSlider::OnSpinner</text>
<text text-anchor="middle" x="259.5" y="-56.5" font-family="Helvetica,sans-Serif" font-size="10.00">Change</text>
</a>
</g>
</g>
<!-- Node1&#45;&gt;Node3 -->
<g id="edge2" class="edge"><title>Node1&#45;&gt;Node3</title>
<path fill="none" stroke="midnightblue" d="M146.125,-64.5C158.522,-64.5 171.428,-64.5 183.889,-64.5"/>
<polygon fill="midnightblue" stroke="midnightblue" points="184.229,-68.0001 194.229,-64.5 184.229,-61.0001 184.229,-68.0001"/>
</g>
<!-- Node4 -->
<g id="node4" class="node"><title>Node4</title>
<g id="a_node4"><a xlink:href="../../d9/d45/classNumericSlider.html#adde977f84912cf2d66ff95deb0599bc9" target="_top" xlink:title="NumericSlider::OnSpinner\lChangeEnter">
<polygon fill="white" stroke="black" points="194.5,-0.5 194.5,-30.5 324.5,-30.5 324.5,-0.5 194.5,-0.5"/>
<text text-anchor="start" x="202.5" y="-18.5" font-family="Helvetica,sans-Serif" font-size="10.00">NumericSlider::OnSpinner</text>
<text text-anchor="middle" x="259.5" y="-7.5" font-family="Helvetica,sans-Serif" font-size="10.00">ChangeEnter</text>
</a>
</g>
</g>
<!-- Node1&#45;&gt;Node4 -->
<g id="edge3" class="edge"><title>Node1&#45;&gt;Node4</title>
<path fill="none" stroke="midnightblue" d="M110.011,-54.936C133.268,-48.7595 164.235,-40.5351 191.871,-33.1955"/>
<polygon fill="midnightblue" stroke="midnightblue" points="193.115,-36.4866 201.881,-30.537 191.318,-29.7211 193.115,-36.4866"/>
</g>
</g>
</svg>
