<?xml version="1.0" encoding="UTF-8" standalone="no"?>
<!DOCTYPE svg PUBLIC "-//W3C//DTD SVG 1.1//EN"
 "http://www.w3.org/Graphics/SVG/1.1/DTD/svg11.dtd">
<!-- Generated by graphviz version 2.38.0 (20140413.2041)
 -->
<!-- Title: Si5351C_wxgui::OnbtnLoadFileClick Pages: 1 -->
<svg width="355pt" height="116pt"
 viewBox="0.00 0.00 355.00 116.00" xmlns="http://www.w3.org/2000/svg" xmlns:xlink="http://www.w3.org/1999/xlink">
<g id="graph0" class="graph" transform="scale(1 1) rotate(0) translate(4 112)">
<title>Si5351C_wxgui::OnbtnLoadFileClick</title>
<polygon fill="white" stroke="none" points="-4,4 -4,-112 351,-112 351,4 -4,4"/>
<!-- Node1 -->
<g id="node1" class="node"><title>Node1</title>
<polygon fill="#bfbfbf" stroke="black" points="0,-39 0,-69 138,-69 138,-39 0,-39"/>
<text text-anchor="start" x="8" y="-57" font-family="Helvetica,sans-Serif" font-size="10.00">Si5351C_wxgui::OnbtnLoad</text>
<text text-anchor="middle" x="69" y="-46" font-family="Helvetica,sans-Serif" font-size="10.00">FileClick</text>
</g>
<!-- Node2 -->
<g id="node2" class="node"><title>Node2</title>
<g id="a_node2"><a xlink:href="../../d2/d61/classlime_1_1Si5351C.html#aaff6d23c89d4d277716e3482d05dca47" target="_top" xlink:title="Sets connection manager to use for data transferring Si5351C. ">
<polygon fill="white" stroke="black" points="200.5,-88.5 200.5,-107.5 320.5,-107.5 320.5,-88.5 200.5,-88.5"/>
<text text-anchor="middle" x="260.5" y="-95.5" font-family="Helvetica,sans-Serif" font-size="10.00">lime::Si5351C::Initialize</text>
</a>
</g>
</g>
<!-- Node1&#45;&gt;Node2 -->
<g id="edge1" class="edge"><title>Node1&#45;&gt;Node2</title>
<path fill="none" stroke="midnightblue" d="M131.826,-69.0474C145.692,-72.3704 160.34,-75.8407 174,-79 184.329,-81.3889 195.373,-83.8858 205.977,-86.2547"/>
<polygon fill="midnightblue" stroke="midnightblue" points="205.45,-89.7229 215.971,-88.479 206.97,-82.8901 205.45,-89.7229"/>
</g>
<!-- Node3 -->
<g id="node3" class="node"><title>Node3</title>
<g id="a_node3"><a xlink:href="../../d2/d61/classlime_1_1Si5351C.html#a1faf28147d5faecd002fc7e4f032d520" target="_top" xlink:title="Loads register values for Si5356A from file. ">
<polygon fill="white" stroke="black" points="184,-39 184,-69 337,-69 337,-39 184,-39"/>
<text text-anchor="start" x="192" y="-57" font-family="Helvetica,sans-Serif" font-size="10.00">lime::Si5351C::LoadRegValues</text>
<text text-anchor="middle" x="260.5" y="-46" font-family="Helvetica,sans-Serif" font-size="10.00">FromFile</text>
</a>
</g>
</g>
<!-- Node1&#45;&gt;Node3 -->
<g id="edge2" class="edge"><title>Node1&#45;&gt;Node3</title>
<path fill="none" stroke="midnightblue" d="M138.146,-54C149.752,-54 161.937,-54 173.924,-54"/>
<polygon fill="midnightblue" stroke="midnightblue" points="173.93,-57.5001 183.93,-54 173.93,-50.5001 173.93,-57.5001"/>
</g>
<!-- Node4 -->
<g id="node4" class="node"><title>Node4</title>
<g id="a_node4"><a xlink:href="../../d2/d61/classlime_1_1Si5351C.html#a6c52127f61e4b6a20f1a7fec6a25429f" target="_top" xlink:title="Sends Configuration to Si5351C. ">
<polygon fill="white" stroke="black" points="174,-0.5 174,-19.5 347,-19.5 347,-0.5 174,-0.5"/>
<text text-anchor="middle" x="260.5" y="-7.5" font-family="Helvetica,sans-Serif" font-size="10.00">lime::Si5351C::UploadConfiguration</text>
</a>
</g>
</g>
<!-- Node1&#45;&gt;Node4 -->
<g id="edge3" class="edge"><title>Node1&#45;&gt;Node4</title>
<path fill="none" stroke="midnightblue" d="M134.685,-38.9808C158.875,-33.364 185.982,-27.07 208.739,-21.7863"/>
<polygon fill="midnightblue" stroke="midnightblue" points="209.583,-25.1835 218.532,-19.5124 207.999,-18.3649 209.583,-25.1835"/>
</g>
</g>
</svg>
