<?xml version="1.0" encoding="UTF-8" standalone="no"?>
<!DOCTYPE svg PUBLIC "-//W3C//DTD SVG 1.1//EN"
 "http://www.w3.org/Graphics/SVG/1.1/DTD/svg11.dtd">
<!-- Generated by graphviz version 2.38.0 (20140413.2041)
 -->
<!-- Title: Si5351C_wxgui::OnbtnClearStatusClick Pages: 1 -->
<svg width="320pt" height="66pt"
 viewBox="0.00 0.00 320.00 66.00" xmlns="http://www.w3.org/2000/svg" xmlns:xlink="http://www.w3.org/1999/xlink">
<g id="graph0" class="graph" transform="scale(1 1) rotate(0) translate(4 62)">
<title>Si5351C_wxgui::OnbtnClearStatusClick</title>
<polygon fill="white" stroke="none" points="-4,4 -4,-62 316,-62 316,4 -4,4"/>
<!-- Node1 -->
<g id="node1" class="node"><title>Node1</title>
<polygon fill="#bfbfbf" stroke="black" points="0,-14 0,-44 140,-44 140,-14 0,-14"/>
<text text-anchor="start" x="8" y="-32" font-family="Helvetica,sans-Serif" font-size="10.00">Si5351C_wxgui::OnbtnClear</text>
<text text-anchor="middle" x="70" y="-21" font-family="Helvetica,sans-Serif" font-size="10.00">StatusClick</text>
</g>
<!-- Node2 -->
<g id="node2" class="node"><title>Node2</title>
<g id="a_node2"><a xlink:href="../../d2/d61/classlime_1_1Si5351C.html#a6c0f9b2da14a3eb57bd47012e825e24c" target="_top" xlink:title="lime::Si5351C::ClearStatus">
<polygon fill="white" stroke="black" points="176,-38.5 176,-57.5 312,-57.5 312,-38.5 176,-38.5"/>
<text text-anchor="middle" x="244" y="-45.5" font-family="Helvetica,sans-Serif" font-size="10.00">lime::Si5351C::ClearStatus</text>
</a>
</g>
</g>
<!-- Node1&#45;&gt;Node2 -->
<g id="edge1" class="edge"><title>Node1&#45;&gt;Node2</title>
<path fill="none" stroke="midnightblue" d="M140.463,-36.6733C148.749,-37.5885 157.247,-38.5273 165.635,-39.4538"/>
<polygon fill="midnightblue" stroke="midnightblue" points="165.465,-42.9563 175.789,-40.5756 166.234,-35.9987 165.465,-42.9563"/>
</g>
<!-- Node3 -->
<g id="node3" class="node"><title>Node3</title>
<g id="a_node3"><a xlink:href="../../d2/d61/classlime_1_1Si5351C.html#aaff6d23c89d4d277716e3482d05dca47" target="_top" xlink:title="Sets connection manager to use for data transferring Si5351C. ">
<polygon fill="white" stroke="black" points="184,-0.5 184,-19.5 304,-19.5 304,-0.5 184,-0.5"/>
<text text-anchor="middle" x="244" y="-7.5" font-family="Helvetica,sans-Serif" font-size="10.00">lime::Si5351C::Initialize</text>
</a>
</g>
</g>
<!-- Node1&#45;&gt;Node3 -->
<g id="edge2" class="edge"><title>Node1&#45;&gt;Node3</title>
<path fill="none" stroke="midnightblue" d="M140.463,-21.3267C151.456,-20.1124 162.824,-18.8567 173.811,-17.643"/>
<polygon fill="midnightblue" stroke="midnightblue" points="174.216,-21.1196 183.772,-16.5427 173.448,-14.1619 174.216,-21.1196"/>
</g>
</g>
</svg>
