<?xml version="1.0" encoding="UTF-8" standalone="no"?>
<!DOCTYPE svg PUBLIC "-//W3C//DTD SVG 1.1//EN"
 "http://www.w3.org/Graphics/SVG/1.1/DTD/svg11.dtd">
<!-- Generated by graphviz version 2.38.0 (20140413.2041)
 -->
<!-- Title: lime::LMS7_Generic Pages: 1 -->
<svg width="284pt" height="518pt"
 viewBox="0.00 0.00 283.50 518.00" xmlns="http://www.w3.org/2000/svg" xmlns:xlink="http://www.w3.org/1999/xlink">
<g id="graph0" class="graph" transform="scale(1 1) rotate(0) translate(4 514)">
<title>lime::LMS7_Generic</title>
<polygon fill="white" stroke="none" points="-4,4 -4,-514 279.5,-514 279.5,4 -4,4"/>
<!-- Node1 -->
<g id="node1" class="node"><title>Node1</title>
<polygon fill="#bfbfbf" stroke="black" points="77.5,-127.5 77.5,-184.5 182.5,-184.5 182.5,-127.5 77.5,-127.5"/>
<text text-anchor="middle" x="130" y="-172.5" font-family="Helvetica,sans-Serif" font-size="10.00">lime::LMS7_Generic</text>
<polyline fill="none" stroke="black" points="77.5,-165.5 182.5,-165.5 "/>
<text text-anchor="middle" x="130" y="-153.5" font-family="Helvetica,sans-Serif" font-size="10.00"> </text>
<polyline fill="none" stroke="black" points="77.5,-146.5 182.5,-146.5 "/>
<text text-anchor="start" x="85.5" y="-134.5" font-family="Helvetica,sans-Serif" font-size="10.00">+ LMS7_Generic()</text>
</g>
<!-- Node3 -->
<g id="node3" class="node"><title>Node3</title>
<g id="a_node3"><a xlink:href="../../d8/ddb/classlime_1_1LMS7__LimeSDR.html" target="_top" xlink:title="{lime::LMS7_LimeSDR\n||+ LMS7_LimeSDR()\l+ SetRate()\l+ GetProgramModes()\l+ Program()\l}">
<polygon fill="white" stroke="black" points="0,-0.5 0,-90.5 114,-90.5 114,-0.5 0,-0.5"/>
<text text-anchor="middle" x="57" y="-78.5" font-family="Helvetica,sans-Serif" font-size="10.00">lime::LMS7_LimeSDR</text>
<polyline fill="none" stroke="black" points="0,-71.5 114,-71.5 "/>
<text text-anchor="middle" x="57" y="-59.5" font-family="Helvetica,sans-Serif" font-size="10.00"> </text>
<polyline fill="none" stroke="black" points="0,-52.5 114,-52.5 "/>
<text text-anchor="start" x="8" y="-40.5" font-family="Helvetica,sans-Serif" font-size="10.00">+ LMS7_LimeSDR()</text>
<text text-anchor="start" x="8" y="-29.5" font-family="Helvetica,sans-Serif" font-size="10.00">+ SetRate()</text>
<text text-anchor="start" x="8" y="-18.5" font-family="Helvetica,sans-Serif" font-size="10.00">+ GetProgramModes()</text>
<text text-anchor="start" x="8" y="-7.5" font-family="Helvetica,sans-Serif" font-size="10.00">+ Program()</text>
</a>
</g>
</g>
<!-- Node1&#45;&gt;Node3 -->
<g id="edge2" class="edge"><title>Node1&#45;&gt;Node3</title>
<path fill="none" stroke="midnightblue" d="M105.716,-118.907C99.6063,-109.826 92.98,-99.9771 86.6401,-90.5541"/>
<polygon fill="none" stroke="midnightblue" points="102.904,-120.997 111.39,-127.34 108.712,-117.089 102.904,-120.997"/>
</g>
<!-- Node4 -->
<g id="node4" class="node"><title>Node4</title>
<g id="a_node4"><a xlink:href="../../de/d6a/classlime_1_1LMS7__LimeSDR__PCIE.html" target="_top" xlink:title="{lime::LMS7_LimeSDR_PCIE\n||+ LMS7_LimeSDR_PCIE()\l+ GetProgramModes()\l}">
<polygon fill="white" stroke="black" points="132.5,-11.5 132.5,-79.5 275.5,-79.5 275.5,-11.5 132.5,-11.5"/>
<text text-anchor="middle" x="204" y="-67.5" font-family="Helvetica,sans-Serif" font-size="10.00">lime::LMS7_LimeSDR_PCIE</text>
<polyline fill="none" stroke="black" points="132.5,-60.5 275.5,-60.5 "/>
<text text-anchor="middle" x="204" y="-48.5" font-family="Helvetica,sans-Serif" font-size="10.00"> </text>
<polyline fill="none" stroke="black" points="132.5,-41.5 275.5,-41.5 "/>
<text text-anchor="start" x="140.5" y="-29.5" font-family="Helvetica,sans-Serif" font-size="10.00">+ LMS7_LimeSDR_PCIE()</text>
<text text-anchor="start" x="140.5" y="-18.5" font-family="Helvetica,sans-Serif" font-size="10.00">+ GetProgramModes()</text>
</a>
</g>
</g>
<!-- Node1&#45;&gt;Node4 -->
<g id="edge3" class="edge"><title>Node1&#45;&gt;Node4</title>
<path fill="none" stroke="midnightblue" d="M154.67,-118.828C163.33,-106.132 173.007,-91.943 181.48,-79.5186"/>
<polygon fill="none" stroke="midnightblue" points="151.608,-117.107 148.865,-127.34 157.391,-121.051 151.608,-117.107"/>
</g>
<!-- Node2 -->
<g id="node2" class="node"><title>Node2</title>
<g id="a_node2"><a xlink:href="../../d3/d22/classlime_1_1LMS7__Device.html" target="_top" xlink:title="{lime::LMS7_Device\n|# devInfo\l# tx_channels\l# rx_channels\l# connection\l# lms_list\l# lms_chip_id\l# mStreamers\l# fpga\l|+ ~LMS7_Device()\l+ LMS7_Device()\l+ GetConnection()\l+ GetFPGA()\l+ Init()\l+ EnableChannel()\l+ Reset()\l+ GetNumChannels()\l+ SetRate()\l+ SetRate()\land 55 more...\l+ CreateDevice()\l+ GetDeviceList()\l# SelectChannel()\l# ConfigureTXLPF()\l}">
<polygon fill="white" stroke="black" points="75,-221.5 75,-509.5 185,-509.5 185,-221.5 75,-221.5"/>
<text text-anchor="middle" x="130" y="-497.5" font-family="Helvetica,sans-Serif" font-size="10.00">lime::LMS7_Device</text>
<polyline fill="none" stroke="black" points="75,-490.5 185,-490.5 "/>
<text text-anchor="start" x="83" y="-478.5" font-family="Helvetica,sans-Serif" font-size="10.00"># devInfo</text>
<text text-anchor="start" x="83" y="-467.5" font-family="Helvetica,sans-Serif" font-size="10.00"># tx_channels</text>
<text text-anchor="start" x="83" y="-456.5" font-family="Helvetica,sans-Serif" font-size="10.00"># rx_channels</text>
<text text-anchor="start" x="83" y="-445.5" font-family="Helvetica,sans-Serif" font-size="10.00"># connection</text>
<text text-anchor="start" x="83" y="-434.5" font-family="Helvetica,sans-Serif" font-size="10.00"># lms_list</text>
<text text-anchor="start" x="83" y="-423.5" font-family="Helvetica,sans-Serif" font-size="10.00"># lms_chip_id</text>
<text text-anchor="start" x="83" y="-412.5" font-family="Helvetica,sans-Serif" font-size="10.00"># mStreamers</text>
<text text-anchor="start" x="83" y="-401.5" font-family="Helvetica,sans-Serif" font-size="10.00"># fpga</text>
<polyline fill="none" stroke="black" points="75,-394.5 185,-394.5 "/>
<text text-anchor="start" x="83" y="-382.5" font-family="Helvetica,sans-Serif" font-size="10.00">+ ~LMS7_Device()</text>
<text text-anchor="start" x="83" y="-371.5" font-family="Helvetica,sans-Serif" font-size="10.00">+ LMS7_Device()</text>
<text text-anchor="start" x="83" y="-360.5" font-family="Helvetica,sans-Serif" font-size="10.00">+ GetConnection()</text>
<text text-anchor="start" x="83" y="-349.5" font-family="Helvetica,sans-Serif" font-size="10.00">+ GetFPGA()</text>
<text text-anchor="start" x="83" y="-338.5" font-family="Helvetica,sans-Serif" font-size="10.00">+ Init()</text>
<text text-anchor="start" x="83" y="-327.5" font-family="Helvetica,sans-Serif" font-size="10.00">+ EnableChannel()</text>
<text text-anchor="start" x="83" y="-316.5" font-family="Helvetica,sans-Serif" font-size="10.00">+ Reset()</text>
<text text-anchor="start" x="83" y="-305.5" font-family="Helvetica,sans-Serif" font-size="10.00">+ GetNumChannels()</text>
<text text-anchor="start" x="83" y="-294.5" font-family="Helvetica,sans-Serif" font-size="10.00">+ SetRate()</text>
<text text-anchor="start" x="83" y="-283.5" font-family="Helvetica,sans-Serif" font-size="10.00">+ SetRate()</text>
<text text-anchor="start" x="83" y="-272.5" font-family="Helvetica,sans-Serif" font-size="10.00">and 55 more...</text>
<text text-anchor="start" x="83" y="-261.5" font-family="Helvetica,sans-Serif" font-size="10.00">+ CreateDevice()</text>
<text text-anchor="start" x="83" y="-250.5" font-family="Helvetica,sans-Serif" font-size="10.00">+ GetDeviceList()</text>
<text text-anchor="start" x="83" y="-239.5" font-family="Helvetica,sans-Serif" font-size="10.00"># SelectChannel()</text>
<text text-anchor="start" x="83" y="-228.5" font-family="Helvetica,sans-Serif" font-size="10.00"># ConfigureTXLPF()</text>
</a>
</g>
</g>
<!-- Node2&#45;&gt;Node1 -->
<g id="edge1" class="edge"><title>Node2&#45;&gt;Node1</title>
<path fill="none" stroke="midnightblue" d="M130,-211.174C130,-201.354 130,-192.309 130,-184.536"/>
<polygon fill="none" stroke="midnightblue" points="126.5,-211.233 130,-221.233 133.5,-211.233 126.5,-211.233"/>
</g>
</g>
</svg>
