<?xml version="1.0" encoding="UTF-8" standalone="no"?>
<!DOCTYPE svg PUBLIC "-//W3C//DTD SVG 1.1//EN"
 "http://www.w3.org/Graphics/SVG/1.1/DTD/svg11.dtd">
<!-- Generated by graphviz version 2.38.0 (20140413.2041)
 -->
<!-- Title: /home/erik/prefix/default/src/limesuite&#45;dev/src/ConnectionSTREAM_UNITE Pages: 1 -->
<svg width="271pt" height="223pt"
 viewBox="0.00 0.00 270.50 223.00" xmlns="http://www.w3.org/2000/svg" xmlns:xlink="http://www.w3.org/1999/xlink">
<g id="graph0" class="graph" transform="scale(1 1) rotate(0) translate(4 219)">
<title>/home/erik/prefix/default/src/limesuite&#45;dev/src/ConnectionSTREAM_UNITE</title>
<polygon fill="white" stroke="none" points="-4,4 -4,-219 266.5,-219 266.5,4 -4,4"/>
<g id="clust1" class="cluster"><title>clusterdir_76738fd7cbf48a61ea8ab75a3e74695b</title>
<g id="a_clust1"><a xlink:href="dir_76738fd7cbf48a61ea8ab75a3e74695b.html" target="_top" xlink:title="src">
<polygon fill="#ddddee" stroke="black" points="94.5,-136 94.5,-207 254.5,-207 254.5,-136 94.5,-136"/>
<text text-anchor="middle" x="174.5" y="-195" font-family="Helvetica,sans-Serif" font-size="10.00">src</text>
</a>
</g>
</g>
<!-- dir_946dc8f27459333fe04d7c5527a58604 -->
<g id="node1" class="node"><title>dir_946dc8f27459333fe04d7c5527a58604</title>
<g id="a_node1"><a xlink:href="dir_946dc8f27459333fe04d7c5527a58604.html" target="_top" xlink:title="ConnectionSTREAM_UNITE">
<polygon fill="#eeeeff" stroke="black" points="246.5,-180 102.5,-180 102.5,-144 246.5,-144 246.5,-180"/>
<text text-anchor="middle" x="174.5" y="-159.5" font-family="Helvetica,sans-Serif" font-size="10.00">ConnectionSTREAM_UNITE</text>
</a>
</g>
</g>
<!-- dir_a1368bbdd86e27bebe14154cff541921 -->
<g id="node2" class="node"><title>dir_a1368bbdd86e27bebe14154cff541921</title>
<g id="a_node2"><a xlink:href="dir_a1368bbdd86e27bebe14154cff541921.html" target="_top" xlink:title="ConnectionEVB7COM">
<polygon fill="none" stroke="black" points="115,-108 7.10543e-15,-108 7.10543e-15,-72 115,-72 115,-108"/>
<text text-anchor="middle" x="57.5" y="-87.5" font-family="Helvetica,sans-Serif" font-size="10.00">ConnectionEVB7COM</text>
</a>
</g>
</g>
<!-- dir_946dc8f27459333fe04d7c5527a58604&#45;&gt;dir_a1368bbdd86e27bebe14154cff541921 -->
<g id="edge3" class="edge"><title>dir_946dc8f27459333fe04d7c5527a58604&#45;&gt;dir_a1368bbdd86e27bebe14154cff541921</title>
<path fill="none" stroke="black" d="M145.879,-143.876C130.581,-134.724 111.557,-123.342 95.082,-113.485"/>
<polygon fill="black" stroke="black" points="96.6098,-110.32 86.2314,-108.19 93.0159,-116.327 96.6098,-110.32"/>
<g id="a_edge3&#45;headlabel"><a xlink:href="dir_000023_000017.html" target="_top" xlink:title="1">
<text text-anchor="middle" x="101.152" y="-107.229" font-family="Helvetica,sans-Serif" font-size="10.00">1</text>
</a>
</g>
</g>
<!-- dir_5818caaaedc732a4ca3b2f4f19145392 -->
<g id="node3" class="node"><title>dir_5818caaaedc732a4ca3b2f4f19145392</title>
<g id="a_node3"><a xlink:href="dir_5818caaaedc732a4ca3b2f4f19145392.html" target="_top" xlink:title="ConnectionFX3">
<polygon fill="none" stroke="black" points="216.5,-108 132.5,-108 132.5,-72 216.5,-72 216.5,-108"/>
<text text-anchor="middle" x="174.5" y="-87.5" font-family="Helvetica,sans-Serif" font-size="10.00">ConnectionFX3</text>
</a>
</g>
</g>
<!-- dir_946dc8f27459333fe04d7c5527a58604&#45;&gt;dir_5818caaaedc732a4ca3b2f4f19145392 -->
<g id="edge4" class="edge"><title>dir_946dc8f27459333fe04d7c5527a58604&#45;&gt;dir_5818caaaedc732a4ca3b2f4f19145392</title>
<path fill="none" stroke="black" d="M174.5,-143.697C174.5,-135.983 174.5,-126.712 174.5,-118.112"/>
<polygon fill="black" stroke="black" points="178,-118.104 174.5,-108.104 171,-118.104 178,-118.104"/>
<g id="a_edge4&#45;headlabel"><a xlink:href="dir_000023_000020.html" target="_top" xlink:title="1">
<text text-anchor="middle" x="180.839" y="-119.199" font-family="Helvetica,sans-Serif" font-size="10.00">1</text>
</a>
</g>
</g>
<!-- dir_e17dcc4406c636f4e826c10e177f8ed7 -->
<g id="node4" class="node"><title>dir_e17dcc4406c636f4e826c10e177f8ed7</title>
<g id="a_node4"><a xlink:href="dir_e17dcc4406c636f4e826c10e177f8ed7.html" target="_top" xlink:title="ConnectionRegistry">
<polygon fill="none" stroke="black" points="226,-36 123,-36 123,-0 226,-0 226,-36"/>
<text text-anchor="middle" x="174.5" y="-15.5" font-family="Helvetica,sans-Serif" font-size="10.00">ConnectionRegistry</text>
</a>
</g>
</g>
<!-- dir_946dc8f27459333fe04d7c5527a58604&#45;&gt;dir_e17dcc4406c636f4e826c10e177f8ed7 -->
<g id="edge5" class="edge"><title>dir_946dc8f27459333fe04d7c5527a58604&#45;&gt;dir_e17dcc4406c636f4e826c10e177f8ed7</title>
<path fill="none" stroke="black" d="M197.805,-143.819C208.401,-134.538 219.82,-122.094 225.5,-108 231.481,-93.1597 231.481,-86.8403 225.5,-72 221.151,-61.209 213.438,-51.3859 205.306,-43.2085"/>
<polygon fill="black" stroke="black" points="207.496,-40.4636 197.805,-36.1808 202.71,-45.572 207.496,-40.4636"/>
<g id="a_edge5&#45;headlabel"><a xlink:href="dir_000023_000022.html" target="_top" xlink:title="2">
<text text-anchor="middle" x="212.06" y="-38.3491" font-family="Helvetica,sans-Serif" font-size="10.00">2</text>
</a>
</g>
</g>
<!-- dir_a1368bbdd86e27bebe14154cff541921&#45;&gt;dir_e17dcc4406c636f4e826c10e177f8ed7 -->
<g id="edge1" class="edge"><title>dir_a1368bbdd86e27bebe14154cff541921&#45;&gt;dir_e17dcc4406c636f4e826c10e177f8ed7</title>
<path fill="none" stroke="black" d="M86.1214,-71.8761C101.419,-62.7236 120.443,-51.3417 136.918,-41.485"/>
<polygon fill="black" stroke="black" points="138.984,-44.3275 145.769,-36.1898 135.39,-38.3205 138.984,-44.3275"/>
<g id="a_edge1&#45;headlabel"><a xlink:href="dir_000017_000022.html" target="_top" xlink:title="2">
<text text-anchor="middle" x="137.357" y="-46.1094" font-family="Helvetica,sans-Serif" font-size="10.00">2</text>
</a>
</g>
</g>
<!-- dir_5818caaaedc732a4ca3b2f4f19145392&#45;&gt;dir_e17dcc4406c636f4e826c10e177f8ed7 -->
<g id="edge2" class="edge"><title>dir_5818caaaedc732a4ca3b2f4f19145392&#45;&gt;dir_e17dcc4406c636f4e826c10e177f8ed7</title>
<path fill="none" stroke="black" d="M174.5,-71.6966C174.5,-63.9827 174.5,-54.7125 174.5,-46.1124"/>
<polygon fill="black" stroke="black" points="178,-46.1043 174.5,-36.1043 171,-46.1044 178,-46.1043"/>
<g id="a_edge2&#45;headlabel"><a xlink:href="dir_000020_000022.html" target="_top" xlink:title="1">
<text text-anchor="middle" x="180.839" y="-47.199" font-family="Helvetica,sans-Serif" font-size="10.00">1</text>
</a>
</g>
</g>
</g>
</svg>
