<?xml version="1.0" encoding="UTF-8" standalone="no"?>
<!DOCTYPE svg PUBLIC "-//W3C//DTD SVG 1.1//EN"
 "http://www.w3.org/Graphics/SVG/1.1/DTD/svg11.dtd">
<!-- Generated by graphviz version 2.38.0 (20140413.2041)
 -->
<!-- Title: /home/erik/prefix/default/src/limesuite&#45;dev Pages: 1 -->
<svg width="456pt" height="183pt"
 viewBox="0.00 0.00 456.00 183.00" xmlns="http://www.w3.org/2000/svg" xmlns:xlink="http://www.w3.org/1999/xlink">
<g id="graph0" class="graph" transform="scale(1 1) rotate(0) translate(4 179)">
<title>/home/erik/prefix/default/src/limesuite&#45;dev</title>
<polygon fill="white" stroke="none" points="-4,4 -4,-179 452,-179 452,4 -4,4"/>
<g id="clust1" class="cluster"><title>clusterdir_b4804201d5ae79dd9b765c673f6732d6</title>
<g id="a_clust1"><a xlink:href="dir_b4804201d5ae79dd9b765c673f6732d6.html" target="_top" xlink:title="src">
<polygon fill="#ddddee" stroke="black" points="8,-8 8,-167 440,-167 440,-8 8,-8"/>
<text text-anchor="middle" x="224" y="-155" font-family="Helvetica,sans-Serif" font-size="10.00">src</text>
</a>
</g>
</g>
<g id="clust2" class="cluster"><title>clusterdir_b9105e5b97f4b271c74f586b556aeb2c</title>
<g id="a_clust2"><a xlink:href="dir_b9105e5b97f4b271c74f586b556aeb2c.html" target="_top">
<polygon fill="#eeeeff" stroke="black" points="16,-16 16,-140 432,-140 432,-16 16,-16"/>
</a>
</g>
</g>
<!-- dir_b9105e5b97f4b271c74f586b556aeb2c -->
<g id="node1" class="node"><title>dir_b9105e5b97f4b271c74f586b556aeb2c</title>
<text text-anchor="middle" x="387" y="-111.5" font-family="Helvetica,sans-Serif" font-size="10.00">limesuite&#45;dev</text>
</g>
<!-- dir_d326994aa0da52ba9c263d75a0fbc50a -->
<g id="node2" class="node"><title>dir_d326994aa0da52ba9c263d75a0fbc50a</title>
<g id="a_node2"><a xlink:href="dir_d326994aa0da52ba9c263d75a0fbc50a.html" target="_top" xlink:title="LimeUtil">
<polygon fill="white" stroke="black" points="332,-132 278,-132 278,-96 332,-96 332,-132"/>
<text text-anchor="middle" x="305" y="-111.5" font-family="Helvetica,sans-Serif" font-size="10.00">LimeUtil</text>
</a>
</g>
</g>
<!-- dir_76738fd7cbf48a61ea8ab75a3e74695b -->
<g id="node6" class="node"><title>dir_76738fd7cbf48a61ea8ab75a3e74695b</title>
<g id="a_node6"><a xlink:href="dir_76738fd7cbf48a61ea8ab75a3e74695b.html" target="_top" xlink:title="src">
<polygon fill="white" stroke="red" points="207,-60 153,-60 153,-24 207,-24 207,-60"/>
<text text-anchor="middle" x="180" y="-39.5" font-family="Helvetica,sans-Serif" font-size="10.00">src</text>
</a>
</g>
</g>
<!-- dir_d326994aa0da52ba9c263d75a0fbc50a&#45;&gt;dir_76738fd7cbf48a61ea8ab75a3e74695b -->
<g id="edge2" class="edge"><title>dir_d326994aa0da52ba9c263d75a0fbc50a&#45;&gt;dir_76738fd7cbf48a61ea8ab75a3e74695b</title>
<path fill="none" stroke="black" d="M277.877,-97.811C259.695,-87.6291 235.557,-74.1118 215.801,-63.0488"/>
<polygon fill="black" stroke="black" points="217.505,-59.9916 207.07,-58.1593 214.085,-66.0992 217.505,-59.9916"/>
<g id="a_edge2&#45;headlabel"><a xlink:href="dir_000006_000013.html" target="_top" xlink:title="11">
<text text-anchor="middle" x="222.029" y="-56.7706" font-family="Helvetica,sans-Serif" font-size="10.00">11</text>
</a>
</g>
</g>
<!-- dir_da07ca23790c9a6304e0b9e24d48e880 -->
<g id="node3" class="node"><title>dir_da07ca23790c9a6304e0b9e24d48e880</title>
<g id="a_node3"><a xlink:href="dir_da07ca23790c9a6304e0b9e24d48e880.html" target="_top" xlink:title="mcu_program">
<polygon fill="white" stroke="red" points="260,-132 184,-132 184,-96 260,-96 260,-132"/>
<text text-anchor="middle" x="222" y="-111.5" font-family="Helvetica,sans-Serif" font-size="10.00">mcu_program</text>
</a>
</g>
</g>
<!-- dir_da07ca23790c9a6304e0b9e24d48e880&#45;&gt;dir_76738fd7cbf48a61ea8ab75a3e74695b -->
<g id="edge3" class="edge"><title>dir_da07ca23790c9a6304e0b9e24d48e880&#45;&gt;dir_76738fd7cbf48a61ea8ab75a3e74695b</title>
<path fill="none" stroke="black" d="M211.618,-95.6966C206.735,-87.5589 200.813,-77.689 195.421,-68.7013"/>
<polygon fill="black" stroke="black" points="198.409,-66.8785 190.263,-60.1043 192.406,-70.48 198.409,-66.8785"/>
<g id="a_edge3&#45;headlabel"><a xlink:href="dir_000007_000013.html" target="_top" xlink:title="7">
<text text-anchor="middle" x="202.693" y="-66.0001" font-family="Helvetica,sans-Serif" font-size="10.00">7</text>
</a>
</g>
</g>
<!-- dir_b6d8780e8f227703c1930747b95fd134 -->
<g id="node4" class="node"><title>dir_b6d8780e8f227703c1930747b95fd134</title>
<g id="a_node4"><a xlink:href="dir_b6d8780e8f227703c1930747b95fd134.html" target="_top" xlink:title="octave">
<polygon fill="white" stroke="black" points="166,-132 112,-132 112,-96 166,-96 166,-132"/>
<text text-anchor="middle" x="139" y="-111.5" font-family="Helvetica,sans-Serif" font-size="10.00">octave</text>
</a>
</g>
</g>
<!-- dir_b6d8780e8f227703c1930747b95fd134&#45;&gt;dir_76738fd7cbf48a61ea8ab75a3e74695b -->
<g id="edge4" class="edge"><title>dir_b6d8780e8f227703c1930747b95fd134&#45;&gt;dir_76738fd7cbf48a61ea8ab75a3e74695b</title>
<path fill="none" stroke="black" d="M149.135,-95.6966C153.852,-87.6436 159.562,-77.8945 164.782,-68.9824"/>
<polygon fill="black" stroke="black" points="167.948,-70.5021 169.982,-60.1043 161.908,-66.9643 167.948,-70.5021"/>
<g id="a_edge4&#45;headlabel"><a xlink:href="dir_000011_000013.html" target="_top" xlink:title="1">
<text text-anchor="middle" x="168.581" y="-72.5388" font-family="Helvetica,sans-Serif" font-size="10.00">1</text>
</a>
</g>
</g>
<!-- dir_23384e99d788a6686028dbf0bcd869f0 -->
<g id="node5" class="node"><title>dir_23384e99d788a6686028dbf0bcd869f0</title>
<g id="a_node5"><a xlink:href="dir_23384e99d788a6686028dbf0bcd869f0.html" target="_top" xlink:title="SoapyLMS7">
<polygon fill="white" stroke="black" points="94,-132 24,-132 24,-96 94,-96 94,-132"/>
<text text-anchor="middle" x="59" y="-111.5" font-family="Helvetica,sans-Serif" font-size="10.00">SoapyLMS7</text>
</a>
</g>
</g>
<!-- dir_23384e99d788a6686028dbf0bcd869f0&#45;&gt;dir_76738fd7cbf48a61ea8ab75a3e74695b -->
<g id="edge1" class="edge"><title>dir_23384e99d788a6686028dbf0bcd869f0&#45;&gt;dir_76738fd7cbf48a61ea8ab75a3e74695b</title>
<path fill="none" stroke="black" d="M88.5999,-95.8761C105.282,-86.2252 126.249,-74.0956 143.892,-63.8891"/>
<polygon fill="black" stroke="black" points="145.871,-66.7874 152.775,-58.7503 142.366,-60.7283 145.871,-66.7874"/>
<g id="a_edge1&#45;headlabel"><a xlink:href="dir_000012_000013.html" target="_top" xlink:title="9">
<text text-anchor="middle" x="144.182" y="-68.545" font-family="Helvetica,sans-Serif" font-size="10.00">9</text>
</a>
</g>
</g>
</g>
</svg>
