<?xml version="1.0" encoding="UTF-8" standalone="no"?>
<!DOCTYPE svg PUBLIC "-//W3C//DTD SVG 1.1//EN"
 "http://www.w3.org/Graphics/SVG/1.1/DTD/svg11.dtd">
<!-- Generated by graphviz version 2.38.0 (20140413.2041)
 -->
<!-- Title: /home/erik/prefix/default/src/limesuite&#45;dev/src/Si5351C Pages: 1 -->
<svg width="174pt" height="223pt"
 viewBox="0.00 0.00 173.73 223.00" xmlns="http://www.w3.org/2000/svg" xmlns:xlink="http://www.w3.org/1999/xlink">
<g id="graph0" class="graph" transform="scale(1 1) rotate(0) translate(4 219)">
<title>/home/erik/prefix/default/src/limesuite&#45;dev/src/Si5351C</title>
<polygon fill="white" stroke="none" points="-4,4 -4,-219 169.726,-219 169.726,4 -4,4"/>
<g id="clust1" class="cluster"><title>clusterdir_76738fd7cbf48a61ea8ab75a3e74695b</title>
<g id="a_clust1"><a xlink:href="dir_76738fd7cbf48a61ea8ab75a3e74695b.html" target="_top" xlink:title="src">
<polygon fill="#ddddee" stroke="black" points="78.2263,-136 78.2263,-207 148.226,-207 148.226,-136 78.2263,-136"/>
<text text-anchor="middle" x="113.226" y="-195" font-family="Helvetica,sans-Serif" font-size="10.00">src</text>
</a>
</g>
</g>
<!-- dir_39d046eca9672f6a39d7565674db344d -->
<g id="node1" class="node"><title>dir_39d046eca9672f6a39d7565674db344d</title>
<g id="a_node1"><a xlink:href="dir_39d046eca9672f6a39d7565674db344d.html" target="_top" xlink:title="Si5351C">
<polygon fill="#eeeeff" stroke="black" points="140.226,-180 86.2263,-180 86.2263,-144 140.226,-144 140.226,-180"/>
<text text-anchor="middle" x="113.226" y="-159.5" font-family="Helvetica,sans-Serif" font-size="10.00">Si5351C</text>
</a>
</g>
</g>
<!-- dir_66230539c384224b38d1983b3eaf864d -->
<g id="node2" class="node"><title>dir_66230539c384224b38d1983b3eaf864d</title>
<g id="a_node2"><a xlink:href="dir_66230539c384224b38d1983b3eaf864d.html" target="_top" xlink:title="protocols">
<polygon fill="none" stroke="black" points="142.226,-108 86.2263,-108 86.2263,-72 142.226,-72 142.226,-108"/>
<text text-anchor="middle" x="114.226" y="-87.5" font-family="Helvetica,sans-Serif" font-size="10.00">protocols</text>
</a>
</g>
</g>
<!-- dir_39d046eca9672f6a39d7565674db344d&#45;&gt;dir_66230539c384224b38d1983b3eaf864d -->
<g id="edge3" class="edge"><title>dir_39d046eca9672f6a39d7565674db344d&#45;&gt;dir_66230539c384224b38d1983b3eaf864d</title>
<path fill="none" stroke="black" d="M107.558,-143.697C106.872,-135.983 106.778,-126.712 107.244,-118.112"/>
<polygon fill="black" stroke="black" points="110.735,-118.363 108.087,-108.104 103.76,-117.775 110.735,-118.363"/>
<g id="a_edge3&#45;headlabel"><a xlink:href="dir_000045_000042.html" target="_top" xlink:title="1">
<text text-anchor="middle" x="113.262" y="-119.683" font-family="Helvetica,sans-Serif" font-size="10.00">1</text>
</a>
</g>
</g>
<!-- dir_aaad4d2b2572c0b533e88e0f12f94a40 -->
<g id="node3" class="node"><title>dir_aaad4d2b2572c0b533e88e0f12f94a40</title>
<g id="a_node3"><a xlink:href="dir_aaad4d2b2572c0b533e88e0f12f94a40.html" target="_top" xlink:title="API">
<polygon fill="none" stroke="black" points="68.2263,-180 14.2263,-180 14.2263,-144 68.2263,-144 68.2263,-180"/>
<text text-anchor="middle" x="41.2263" y="-159.5" font-family="Helvetica,sans-Serif" font-size="10.00">API</text>
</a>
</g>
</g>
<!-- dir_39d046eca9672f6a39d7565674db344d&#45;&gt;dir_aaad4d2b2572c0b533e88e0f12f94a40 -->
<g id="edge4" class="edge"><title>dir_39d046eca9672f6a39d7565674db344d&#45;&gt;dir_aaad4d2b2572c0b533e88e0f12f94a40</title>
<path fill="none" stroke="black" d="M85.9758,-162C83.5193,-162 81.0629,-162 78.6064,-162"/>
<polygon fill="black" stroke="black" points="78.5076,-158.5 68.5075,-162 78.5075,-165.5 78.5076,-158.5"/>
<g id="a_edge4&#45;headlabel"><a xlink:href="dir_000045_000015.html" target="_top" xlink:title="1">
<text text-anchor="middle" x="82.1022" y="-153.161" font-family="Helvetica,sans-Serif" font-size="10.00">1</text>
</a>
</g>
</g>
<!-- dir_e169531a5f305cf6001652a069fc8493 -->
<g id="node4" class="node"><title>dir_e169531a5f305cf6001652a069fc8493</title>
<g id="a_node4"><a xlink:href="dir_e169531a5f305cf6001652a069fc8493.html" target="_top" xlink:title="lime">
<polygon fill="none" stroke="black" points="68.2263,-108 14.2263,-108 14.2263,-72 68.2263,-72 68.2263,-108"/>
<text text-anchor="middle" x="41.2263" y="-87.5" font-family="Helvetica,sans-Serif" font-size="10.00">lime</text>
</a>
</g>
</g>
<!-- dir_39d046eca9672f6a39d7565674db344d&#45;&gt;dir_e169531a5f305cf6001652a069fc8493 -->
<g id="edge5" class="edge"><title>dir_39d046eca9672f6a39d7565674db344d&#45;&gt;dir_e169531a5f305cf6001652a069fc8493</title>
<path fill="none" stroke="black" d="M95.4285,-143.697C86.6223,-135.135 75.8441,-124.656 66.2252,-115.304"/>
<polygon fill="black" stroke="black" points="68.4291,-112.566 58.8193,-108.104 63.5495,-117.585 68.4291,-112.566"/>
<g id="a_edge5&#45;headlabel"><a xlink:href="dir_000045_000031.html" target="_top" xlink:title="1">
<text text-anchor="middle" x="72.9856" y="-110.536" font-family="Helvetica,sans-Serif" font-size="10.00">1</text>
</a>
</g>
</g>
<!-- dir_e17dcc4406c636f4e826c10e177f8ed7 -->
<g id="node5" class="node"><title>dir_e17dcc4406c636f4e826c10e177f8ed7</title>
<g id="a_node5"><a xlink:href="dir_e17dcc4406c636f4e826c10e177f8ed7.html" target="_top" xlink:title="ConnectionRegistry">
<polygon fill="none" stroke="black" points="165.726,-36 62.7263,-36 62.7263,-0 165.726,-0 165.726,-36"/>
<text text-anchor="middle" x="114.226" y="-15.5" font-family="Helvetica,sans-Serif" font-size="10.00">ConnectionRegistry</text>
</a>
</g>
</g>
<!-- dir_39d046eca9672f6a39d7565674db344d&#45;&gt;dir_e17dcc4406c636f4e826c10e177f8ed7 -->
<g id="edge6" class="edge"><title>dir_39d046eca9672f6a39d7565674db344d&#45;&gt;dir_e17dcc4406c636f4e826c10e177f8ed7</title>
<path fill="none" stroke="black" d="M129.69,-143.919C137.88,-134.218 146.93,-121.366 151.226,-108 156.123,-92.7676 156.027,-87.2629 151.226,-72 148.128,-62.1483 142.475,-52.5302 136.505,-44.2511"/>
<polygon fill="black" stroke="black" points="139.141,-41.9371 130.263,-36.1544 133.597,-46.2111 139.141,-41.9371"/>
<g id="a_edge6&#45;headlabel"><a xlink:href="dir_000045_000022.html" target="_top" xlink:title="1">
<text text-anchor="middle" x="143.584" y="-40.5503" font-family="Helvetica,sans-Serif" font-size="10.00">1</text>
</a>
</g>
</g>
<!-- dir_66230539c384224b38d1983b3eaf864d&#45;&gt;dir_39d046eca9672f6a39d7565674db344d -->
<g id="edge1" class="edge"><title>dir_66230539c384224b38d1983b3eaf864d&#45;&gt;dir_39d046eca9672f6a39d7565674db344d</title>
<path fill="none" stroke="black" d="M119.877,-108.104C120.573,-115.791 120.677,-125.054 120.221,-133.665"/>
<polygon fill="black" stroke="black" points="116.727,-133.442 119.389,-143.697 123.703,-134.02 116.727,-133.442"/>
<g id="a_edge1&#45;headlabel"><a xlink:href="dir_000042_000045.html" target="_top" xlink:title="1">
<text text-anchor="middle" x="114.195" y="-127.125" font-family="Helvetica,sans-Serif" font-size="10.00">1</text>
</a>
</g>
</g>
<!-- dir_66230539c384224b38d1983b3eaf864d&#45;&gt;dir_e17dcc4406c636f4e826c10e177f8ed7 -->
<g id="edge2" class="edge"><title>dir_66230539c384224b38d1983b3eaf864d&#45;&gt;dir_e17dcc4406c636f4e826c10e177f8ed7</title>
<path fill="none" stroke="black" d="M108.311,-71.6966C107.515,-63.9827 107.288,-54.7125 107.631,-46.1124"/>
<polygon fill="black" stroke="black" points="111.125,-46.3243 108.331,-36.1043 104.142,-45.8356 111.125,-46.3243"/>
<g id="a_edge2&#45;headlabel"><a xlink:href="dir_000042_000022.html" target="_top" xlink:title="2">
<text text-anchor="middle" x="113.706" y="-47.6083" font-family="Helvetica,sans-Serif" font-size="10.00">2</text>
</a>
</g>
</g>
<!-- dir_aaad4d2b2572c0b533e88e0f12f94a40&#45;&gt;dir_66230539c384224b38d1983b3eaf864d -->
<g id="edge7" class="edge"><title>dir_aaad4d2b2572c0b533e88e0f12f94a40&#45;&gt;dir_66230539c384224b38d1983b3eaf864d</title>
<path fill="none" stroke="black" d="M59.2712,-143.697C68.2882,-135.05 79.3442,-124.449 89.1695,-115.027"/>
<polygon fill="black" stroke="black" points="91.5935,-117.552 96.3889,-108.104 86.7486,-112.499 91.5935,-117.552"/>
<g id="a_edge7&#45;headlabel"><a xlink:href="dir_000015_000042.html" target="_top" xlink:title="6">
<text text-anchor="middle" x="90.9641" y="-119.589" font-family="Helvetica,sans-Serif" font-size="10.00">6</text>
</a>
</g>
</g>
<!-- dir_aaad4d2b2572c0b533e88e0f12f94a40&#45;&gt;dir_e169531a5f305cf6001652a069fc8493 -->
<g id="edge8" class="edge"><title>dir_aaad4d2b2572c0b533e88e0f12f94a40&#45;&gt;dir_e169531a5f305cf6001652a069fc8493</title>
<path fill="none" stroke="black" d="M41.2263,-143.697C41.2263,-135.983 41.2263,-126.712 41.2263,-118.112"/>
<polygon fill="black" stroke="black" points="44.7264,-118.104 41.2263,-108.104 37.7264,-118.104 44.7264,-118.104"/>
<g id="a_edge8&#45;headlabel"><a xlink:href="dir_000015_000031.html" target="_top" xlink:title="3">
<text text-anchor="middle" x="47.5656" y="-119.199" font-family="Helvetica,sans-Serif" font-size="10.00">3</text>
</a>
</g>
</g>
<!-- dir_aaad4d2b2572c0b533e88e0f12f94a40&#45;&gt;dir_e17dcc4406c636f4e826c10e177f8ed7 -->
<g id="edge9" class="edge"><title>dir_aaad4d2b2572c0b533e88e0f12f94a40&#45;&gt;dir_e17dcc4406c636f4e826c10e177f8ed7</title>
<path fill="none" stroke="black" d="M25.0021,-143.757C9.57937,-125.181 -9.27295,-95.1725 5.22629,-72 16.1112,-54.6038 34.5214,-42.7703 53.1436,-34.7858"/>
<polygon fill="black" stroke="black" points="54.5529,-37.9923 62.5652,-31.0602 51.9788,-31.4827 54.5529,-37.9923"/>
<g id="a_edge9&#45;headlabel"><a xlink:href="dir_000015_000022.html" target="_top" xlink:title="5">
<text text-anchor="middle" x="52.2542" y="-39.4544" font-family="Helvetica,sans-Serif" font-size="10.00">5</text>
</a>
</g>
</g>
<!-- dir_e17dcc4406c636f4e826c10e177f8ed7&#45;&gt;dir_66230539c384224b38d1983b3eaf864d -->
<g id="edge10" class="edge"><title>dir_e17dcc4406c636f4e826c10e177f8ed7&#45;&gt;dir_66230539c384224b38d1983b3eaf864d</title>
<path fill="none" stroke="black" d="M120.121,-36.1043C120.927,-43.7913 121.163,-53.0537 120.83,-61.6651"/>
<polygon fill="black" stroke="black" points="117.335,-61.4805 120.142,-71.6966 124.318,-61.9597 117.335,-61.4805"/>
<g id="a_edge10&#45;headlabel"><a xlink:href="dir_000022_000042.html" target="_top" xlink:title="1">
<text text-anchor="middle" x="114.748" y="-55.2" font-family="Helvetica,sans-Serif" font-size="10.00">1</text>
</a>
</g>
</g>
</g>
</svg>
