<?xml version="1.0" encoding="UTF-8" standalone="no"?>
<!DOCTYPE svg PUBLIC "-//W3C//DTD SVG 1.1//EN"
 "http://www.w3.org/Graphics/SVG/1.1/DTD/svg11.dtd">
<!-- Generated by graphviz version 2.38.0 (20140413.2041)
 -->
<!-- Title: /home/erik/prefix/default/src/limesuite&#45;dev/SoapyLMS7 Pages: 1 -->
<svg width="110pt" height="151pt"
 viewBox="0.00 0.00 110.00 151.00" xmlns="http://www.w3.org/2000/svg" xmlns:xlink="http://www.w3.org/1999/xlink">
<g id="graph0" class="graph" transform="scale(1 1) rotate(0) translate(4 147)">
<title>/home/erik/prefix/default/src/limesuite&#45;dev/SoapyLMS7</title>
<polygon fill="white" stroke="none" points="-4,4 -4,-147 106,-147 106,4 -4,4"/>
<g id="clust1" class="cluster"><title>clusterdir_b9105e5b97f4b271c74f586b556aeb2c</title>
<g id="a_clust1"><a xlink:href="dir_b9105e5b97f4b271c74f586b556aeb2c.html" target="_top" xlink:title="limesuite&#45;dev">
<polygon fill="#ddddee" stroke="black" points="8,-64 8,-135 94,-135 94,-64 8,-64"/>
<text text-anchor="middle" x="51" y="-123" font-family="Helvetica,sans-Serif" font-size="10.00">limesuite&#45;dev</text>
</a>
</g>
</g>
<!-- dir_23384e99d788a6686028dbf0bcd869f0 -->
<g id="node1" class="node"><title>dir_23384e99d788a6686028dbf0bcd869f0</title>
<g id="a_node1"><a xlink:href="dir_23384e99d788a6686028dbf0bcd869f0.html" target="_top" xlink:title="SoapyLMS7">
<polygon fill="#eeeeff" stroke="black" points="86,-108 16,-108 16,-72 86,-72 86,-108"/>
<text text-anchor="middle" x="51" y="-87.5" font-family="Helvetica,sans-Serif" font-size="10.00">SoapyLMS7</text>
</a>
</g>
</g>
<!-- dir_76738fd7cbf48a61ea8ab75a3e74695b -->
<g id="node2" class="node"><title>dir_76738fd7cbf48a61ea8ab75a3e74695b</title>
<g id="a_node2"><a xlink:href="dir_76738fd7cbf48a61ea8ab75a3e74695b.html" target="_top" xlink:title="src">
<polygon fill="white" stroke="red" points="78,-36 24,-36 24,-0 78,-0 78,-36"/>
<text text-anchor="middle" x="51" y="-15.5" font-family="Helvetica,sans-Serif" font-size="10.00">src</text>
</a>
</g>
</g>
<!-- dir_23384e99d788a6686028dbf0bcd869f0&#45;&gt;dir_76738fd7cbf48a61ea8ab75a3e74695b -->
<g id="edge1" class="edge"><title>dir_23384e99d788a6686028dbf0bcd869f0&#45;&gt;dir_76738fd7cbf48a61ea8ab75a3e74695b</title>
<path fill="none" stroke="black" d="M51,-71.6966C51,-63.9827 51,-54.7125 51,-46.1124"/>
<polygon fill="black" stroke="black" points="54.5001,-46.1043 51,-36.1043 47.5001,-46.1044 54.5001,-46.1043"/>
<g id="a_edge1&#45;headlabel"><a xlink:href="dir_000012_000013.html" target="_top" xlink:title="9">
<text text-anchor="middle" x="57.3393" y="-47.199" font-family="Helvetica,sans-Serif" font-size="10.00">9</text>
</a>
</g>
</g>
</g>
</svg>
