<?xml version="1.0" encoding="UTF-8" standalone="no"?>
<!DOCTYPE svg PUBLIC "-//W3C//DTD SVG 1.1//EN"
 "http://www.w3.org/Graphics/SVG/1.1/DTD/svg11.dtd">
<!-- Generated by graphviz version 2.38.0 (20140413.2041)
 -->
<!-- Title: /home/erik/prefix/default/src/limesuite&#45;dev/src/ADF4002 Pages: 1 -->
<svg width="154pt" height="151pt"
 viewBox="0.00 0.00 154.00 151.00" xmlns="http://www.w3.org/2000/svg" xmlns:xlink="http://www.w3.org/1999/xlink">
<g id="graph0" class="graph" transform="scale(1 1) rotate(0) translate(4 147)">
<title>/home/erik/prefix/default/src/limesuite&#45;dev/src/ADF4002</title>
<polygon fill="white" stroke="none" points="-4,4 -4,-147 150,-147 150,4 -4,4"/>
<g id="clust1" class="cluster"><title>clusterdir_76738fd7cbf48a61ea8ab75a3e74695b</title>
<g id="a_clust1"><a xlink:href="dir_76738fd7cbf48a61ea8ab75a3e74695b.html" target="_top" xlink:title="src">
<polygon fill="#ddddee" stroke="black" points="8,-64 8,-135 82,-135 82,-64 8,-64"/>
<text text-anchor="middle" x="45" y="-123" font-family="Helvetica,sans-Serif" font-size="10.00">src</text>
</a>
</g>
</g>
<!-- dir_21fb99076e4d12f47e7703e65e84a599 -->
<g id="node1" class="node"><title>dir_21fb99076e4d12f47e7703e65e84a599</title>
<g id="a_node1"><a xlink:href="dir_21fb99076e4d12f47e7703e65e84a599.html" target="_top" xlink:title="ADF4002">
<polygon fill="#eeeeff" stroke="black" points="74,-108 16,-108 16,-72 74,-72 74,-108"/>
<text text-anchor="middle" x="45" y="-87.5" font-family="Helvetica,sans-Serif" font-size="10.00">ADF4002</text>
</a>
</g>
</g>
<!-- dir_aaad4d2b2572c0b533e88e0f12f94a40 -->
<g id="node2" class="node"><title>dir_aaad4d2b2572c0b533e88e0f12f94a40</title>
<g id="a_node2"><a xlink:href="dir_aaad4d2b2572c0b533e88e0f12f94a40.html" target="_top" xlink:title="API">
<polygon fill="none" stroke="black" points="146,-108 92,-108 92,-72 146,-72 146,-108"/>
<text text-anchor="middle" x="119" y="-87.5" font-family="Helvetica,sans-Serif" font-size="10.00">API</text>
</a>
</g>
</g>
<!-- dir_21fb99076e4d12f47e7703e65e84a599&#45;&gt;dir_aaad4d2b2572c0b533e88e0f12f94a40 -->
<g id="edge3" class="edge"><title>dir_21fb99076e4d12f47e7703e65e84a599&#45;&gt;dir_aaad4d2b2572c0b533e88e0f12f94a40</title>
<path fill="none" stroke="black" d="M74.1953,-90C76.6565,-90 79.1177,-90 81.5789,-90"/>
<polygon fill="black" stroke="black" points="81.6972,-93.5001 91.6971,-90 81.6971,-86.5001 81.6972,-93.5001"/>
<g id="a_edge3&#45;headlabel"><a xlink:href="dir_000014_000015.html" target="_top" xlink:title="1">
<text text-anchor="middle" x="78.1025" y="-93.8393" font-family="Helvetica,sans-Serif" font-size="10.00">1</text>
</a>
</g>
</g>
<!-- dir_e169531a5f305cf6001652a069fc8493 -->
<g id="node3" class="node"><title>dir_e169531a5f305cf6001652a069fc8493</title>
<g id="a_node3"><a xlink:href="dir_e169531a5f305cf6001652a069fc8493.html" target="_top" xlink:title="lime">
<polygon fill="none" stroke="black" points="109,-36 55,-36 55,-0 109,-0 109,-36"/>
<text text-anchor="middle" x="82" y="-15.5" font-family="Helvetica,sans-Serif" font-size="10.00">lime</text>
</a>
</g>
</g>
<!-- dir_21fb99076e4d12f47e7703e65e84a599&#45;&gt;dir_e169531a5f305cf6001652a069fc8493 -->
<g id="edge4" class="edge"><title>dir_21fb99076e4d12f47e7703e65e84a599&#45;&gt;dir_e169531a5f305cf6001652a069fc8493</title>
<path fill="none" stroke="black" d="M54.1461,-71.6966C58.4026,-63.6436 63.5558,-53.8945 68.2664,-44.9824"/>
<polygon fill="black" stroke="black" points="71.3803,-46.5809 72.9591,-36.1043 65.1917,-43.3097 71.3803,-46.5809"/>
<g id="a_edge4&#45;headlabel"><a xlink:href="dir_000014_000031.html" target="_top" xlink:title="1">
<text text-anchor="middle" x="72.2108" y="-48.5857" font-family="Helvetica,sans-Serif" font-size="10.00">1</text>
</a>
</g>
</g>
<!-- dir_aaad4d2b2572c0b533e88e0f12f94a40&#45;&gt;dir_21fb99076e4d12f47e7703e65e84a599 -->
<g id="edge1" class="edge"><title>dir_aaad4d2b2572c0b533e88e0f12f94a40&#45;&gt;dir_21fb99076e4d12f47e7703e65e84a599</title>
<path fill="none" stroke="black" d="M91.6971,-90C89.2359,-90 86.7748,-90 84.3136,-90"/>
<polygon fill="black" stroke="black" points="84.1953,-86.5001 74.1953,-90 84.1953,-93.5001 84.1953,-86.5001"/>
<g id="a_edge1&#45;headlabel"><a xlink:href="dir_000015_000014.html" target="_top" xlink:title="1">
<text text-anchor="middle" x="87.7899" y="-81.1607" font-family="Helvetica,sans-Serif" font-size="10.00">1</text>
</a>
</g>
</g>
<!-- dir_aaad4d2b2572c0b533e88e0f12f94a40&#45;&gt;dir_e169531a5f305cf6001652a069fc8493 -->
<g id="edge2" class="edge"><title>dir_aaad4d2b2572c0b533e88e0f12f94a40&#45;&gt;dir_e169531a5f305cf6001652a069fc8493</title>
<path fill="none" stroke="black" d="M109.854,-71.6966C105.597,-63.6436 100.444,-53.8945 95.7336,-44.9824"/>
<polygon fill="black" stroke="black" points="98.8083,-43.3097 91.0409,-36.1043 92.6197,-46.5809 98.8083,-43.3097"/>
<g id="a_edge2&#45;headlabel"><a xlink:href="dir_000015_000031.html" target="_top" xlink:title="3">
<text text-anchor="middle" x="102.998" y="-42.6609" font-family="Helvetica,sans-Serif" font-size="10.00">3</text>
</a>
</g>
</g>
</g>
</svg>
