<?xml version="1.0" encoding="UTF-8" standalone="no"?>
<!DOCTYPE svg PUBLIC "-//W3C//DTD SVG 1.1//EN"
 "http://www.w3.org/Graphics/SVG/1.1/DTD/svg11.dtd">
<!-- Generated by graphviz version 2.38.0 (20140413.2041)
 -->
<!-- Title: /home/erik/prefix/default/src/limesuite&#45;dev/LimeUtil Pages: 1 -->
<svg width="98pt" height="151pt"
 viewBox="0.00 0.00 98.00 151.00" xmlns="http://www.w3.org/2000/svg" xmlns:xlink="http://www.w3.org/1999/xlink">
<g id="graph0" class="graph" transform="scale(1 1) rotate(0) translate(4 147)">
<title>/home/erik/prefix/default/src/limesuite&#45;dev/LimeUtil</title>
<polygon fill="white" stroke="none" points="-4,4 -4,-147 94,-147 94,4 -4,4"/>
<g id="clust1" class="cluster"><title>clusterdir_b9105e5b97f4b271c74f586b556aeb2c</title>
<g id="a_clust1"><a xlink:href="dir_b9105e5b97f4b271c74f586b556aeb2c.html" target="_top" xlink:title="limesuite&#45;dev">
<polygon fill="#ddddee" stroke="black" points="8,-64 8,-135 82,-135 82,-64 8,-64"/>
<text text-anchor="middle" x="45" y="-123" font-family="Helvetica,sans-Serif" font-size="10.00">limesuite&#45;dev</text>
</a>
</g>
</g>
<!-- dir_d326994aa0da52ba9c263d75a0fbc50a -->
<g id="node1" class="node"><title>dir_d326994aa0da52ba9c263d75a0fbc50a</title>
<g id="a_node1"><a xlink:href="dir_d326994aa0da52ba9c263d75a0fbc50a.html" target="_top" xlink:title="LimeUtil">
<polygon fill="#eeeeff" stroke="black" points="72,-108 18,-108 18,-72 72,-72 72,-108"/>
<text text-anchor="middle" x="45" y="-87.5" font-family="Helvetica,sans-Serif" font-size="10.00">LimeUtil</text>
</a>
</g>
</g>
<!-- dir_76738fd7cbf48a61ea8ab75a3e74695b -->
<g id="node2" class="node"><title>dir_76738fd7cbf48a61ea8ab75a3e74695b</title>
<g id="a_node2"><a xlink:href="dir_76738fd7cbf48a61ea8ab75a3e74695b.html" target="_top" xlink:title="src">
<polygon fill="white" stroke="red" points="72,-36 18,-36 18,-0 72,-0 72,-36"/>
<text text-anchor="middle" x="45" y="-15.5" font-family="Helvetica,sans-Serif" font-size="10.00">src</text>
</a>
</g>
</g>
<!-- dir_d326994aa0da52ba9c263d75a0fbc50a&#45;&gt;dir_76738fd7cbf48a61ea8ab75a3e74695b -->
<g id="edge1" class="edge"><title>dir_d326994aa0da52ba9c263d75a0fbc50a&#45;&gt;dir_76738fd7cbf48a61ea8ab75a3e74695b</title>
<path fill="none" stroke="black" d="M45,-71.6966C45,-63.9827 45,-54.7125 45,-46.1124"/>
<polygon fill="black" stroke="black" points="48.5001,-46.1043 45,-36.1043 41.5001,-46.1044 48.5001,-46.1043"/>
<g id="a_edge1&#45;headlabel"><a xlink:href="dir_000006_000013.html" target="_top" xlink:title="11">
<text text-anchor="middle" x="51.3393" y="-47.199" font-family="Helvetica,sans-Serif" font-size="10.00">11</text>
</a>
</g>
</g>
</g>
</svg>
