<?xml version="1.0" encoding="UTF-8" standalone="no"?>
<!DOCTYPE svg PUBLIC "-//W3C//DTD SVG 1.1//EN"
 "http://www.w3.org/Graphics/SVG/1.1/DTD/svg11.dtd">
<!-- Generated by graphviz version 2.38.0 (20140413.2041)
 -->
<!-- Title: Graphical Class Hierarchy Pages: 1 -->
<svg width="599pt" height="180pt"
 viewBox="0.00 0.00 599.00 180.00" xmlns="http://www.w3.org/2000/svg" xmlns:xlink="http://www.w3.org/1999/xlink">
<g id="graph0" class="graph" transform="scale(1 1) rotate(0) translate(4 176)">
<title>Graphical Class Hierarchy</title>
<polygon fill="white" stroke="none" points="-4,4 -4,-176 595,-176 595,4 -4,4"/>
<!-- Node1 -->
<g id="node1" class="node"><title>Node1</title>
<g id="a_node1"><a xlink:href="d2/de5/classlime_1_1IConnection.html" target="_top" xlink:title="lime::IConnection">
<polygon fill="white" stroke="black" points="0,-76.5 0,-95.5 93,-95.5 93,-76.5 0,-76.5"/>
<text text-anchor="middle" x="46.5" y="-83.5" font-family="Helvetica,sans-Serif" font-size="10.00">lime::IConnection</text>
</a>
</g>
</g>
<!-- Node2 -->
<g id="node2" class="node"><title>Node2</title>
<g id="a_node2"><a xlink:href="de/d46/classlime_1_1LMS64CProtocol.html" target="_top" xlink:title="lime::LMS64CProtocol">
<polygon fill="white" stroke="black" points="129,-76.5 129,-95.5 244,-95.5 244,-76.5 129,-76.5"/>
<text text-anchor="middle" x="186.5" y="-83.5" font-family="Helvetica,sans-Serif" font-size="10.00">lime::LMS64CProtocol</text>
</a>
</g>
</g>
<!-- Node1&#45;&gt;Node2 -->
<g id="edge1" class="edge"><title>Node1&#45;&gt;Node2</title>
<path fill="none" stroke="midnightblue" d="M103.218,-86C111.681,-86 120.421,-86 128.902,-86"/>
<polygon fill="midnightblue" stroke="midnightblue" points="103.069,-82.5001 93.0688,-86 103.069,-89.5001 103.069,-82.5001"/>
</g>
<!-- Node3 -->
<g id="node3" class="node"><title>Node3</title>
<g id="a_node3"><a xlink:href="d8/d66/classlime_1_1ConnectionEVB7COM.html" target="_top" xlink:title="lime::ConnectionEVB7COM">
<polygon fill="white" stroke="black" points="282,-152.5 282,-171.5 421,-171.5 421,-152.5 282,-152.5"/>
<text text-anchor="middle" x="351.5" y="-159.5" font-family="Helvetica,sans-Serif" font-size="10.00">lime::ConnectionEVB7COM</text>
</a>
</g>
</g>
<!-- Node2&#45;&gt;Node3 -->
<g id="edge2" class="edge"><title>Node2&#45;&gt;Node3</title>
<path fill="none" stroke="midnightblue" d="M208.939,-101.702C227.087,-114.368 254.194,-131.853 280,-143 288.611,-146.72 298.135,-149.877 307.324,-152.485"/>
<polygon fill="midnightblue" stroke="midnightblue" points="210.499,-98.5164 200.32,-95.5767 206.444,-104.222 210.499,-98.5164"/>
</g>
<!-- Node4 -->
<g id="node4" class="node"><title>Node4</title>
<g id="a_node4"><a xlink:href="da/db1/classlime_1_1ConnectionFT601.html" target="_top" xlink:title="lime::ConnectionFT601">
<polygon fill="white" stroke="black" points="292.5,-114.5 292.5,-133.5 410.5,-133.5 410.5,-114.5 292.5,-114.5"/>
<text text-anchor="middle" x="351.5" y="-121.5" font-family="Helvetica,sans-Serif" font-size="10.00">lime::ConnectionFT601</text>
</a>
</g>
</g>
<!-- Node2&#45;&gt;Node4 -->
<g id="edge3" class="edge"><title>Node2&#45;&gt;Node4</title>
<path fill="none" stroke="midnightblue" d="M238.528,-97.8961C261.439,-103.237 288.104,-109.454 309.664,-114.48"/>
<polygon fill="midnightblue" stroke="midnightblue" points="239.165,-94.4509 228.632,-95.589 237.576,-101.268 239.165,-94.4509"/>
</g>
<!-- Node5 -->
<g id="node5" class="node"><title>Node5</title>
<g id="a_node5"><a xlink:href="d7/db8/classlime_1_1ConnectionFX3.html" target="_top" xlink:title="lime::ConnectionFX3">
<polygon fill="white" stroke="black" points="297.5,-76.5 297.5,-95.5 405.5,-95.5 405.5,-76.5 297.5,-76.5"/>
<text text-anchor="middle" x="351.5" y="-83.5" font-family="Helvetica,sans-Serif" font-size="10.00">lime::ConnectionFX3</text>
</a>
</g>
</g>
<!-- Node2&#45;&gt;Node5 -->
<g id="edge4" class="edge"><title>Node2&#45;&gt;Node5</title>
<path fill="none" stroke="midnightblue" d="M254.344,-86C268.666,-86 283.613,-86 297.336,-86"/>
<polygon fill="midnightblue" stroke="midnightblue" points="254.052,-82.5001 244.052,-86 254.052,-89.5001 254.052,-82.5001"/>
</g>
<!-- Node7 -->
<g id="node7" class="node"><title>Node7</title>
<g id="a_node7"><a xlink:href="d0/d2c/classlime_1_1ConnectionNovenaRF7.html" target="_top" xlink:title="lime::ConnectionNovenaRF7">
<polygon fill="white" stroke="black" points="280,-38.5 280,-57.5 423,-57.5 423,-38.5 280,-38.5"/>
<text text-anchor="middle" x="351.5" y="-45.5" font-family="Helvetica,sans-Serif" font-size="10.00">lime::ConnectionNovenaRF7</text>
</a>
</g>
</g>
<!-- Node2&#45;&gt;Node7 -->
<g id="edge6" class="edge"><title>Node2&#45;&gt;Node7</title>
<path fill="none" stroke="midnightblue" d="M238.528,-74.1039C261.439,-68.7626 288.104,-62.5463 309.664,-57.5201"/>
<polygon fill="midnightblue" stroke="midnightblue" points="237.576,-70.7319 228.632,-76.411 239.165,-77.5491 237.576,-70.7319"/>
</g>
<!-- Node8 -->
<g id="node8" class="node"><title>Node8</title>
<g id="a_node8"><a xlink:href="d9/d0d/classlime_1_1ConnectionXillybus.html" target="_top" xlink:title="lime::ConnectionXillybus">
<polygon fill="white" stroke="black" points="289,-0.5 289,-19.5 414,-19.5 414,-0.5 289,-0.5"/>
<text text-anchor="middle" x="351.5" y="-7.5" font-family="Helvetica,sans-Serif" font-size="10.00">lime::ConnectionXillybus</text>
</a>
</g>
</g>
<!-- Node2&#45;&gt;Node8 -->
<g id="edge7" class="edge"><title>Node2&#45;&gt;Node8</title>
<path fill="none" stroke="midnightblue" d="M208.939,-70.298C227.087,-57.6317 254.194,-40.1472 280,-29 288.611,-25.2802 298.135,-22.1233 307.324,-19.5147"/>
<polygon fill="midnightblue" stroke="midnightblue" points="206.444,-67.7776 200.32,-76.4233 210.499,-73.4836 206.444,-67.7776"/>
</g>
<!-- Node6 -->
<g id="node6" class="node"><title>Node6</title>
<g id="a_node6"><a xlink:href="db/d7f/classlime_1_1ConnectionSTREAM__UNITE.html" target="_top" xlink:title="lime::ConnectionSTREAM\l_UNITE">
<polygon fill="white" stroke="black" points="459,-71 459,-101 591,-101 591,-71 459,-71"/>
<text text-anchor="start" x="467" y="-89" font-family="Helvetica,sans-Serif" font-size="10.00">lime::ConnectionSTREAM</text>
<text text-anchor="middle" x="525" y="-78" font-family="Helvetica,sans-Serif" font-size="10.00">_UNITE</text>
</a>
</g>
</g>
<!-- Node5&#45;&gt;Node6 -->
<g id="edge5" class="edge"><title>Node5&#45;&gt;Node6</title>
<path fill="none" stroke="midnightblue" d="M415.875,-86C429.921,-86 444.828,-86 458.94,-86"/>
<polygon fill="midnightblue" stroke="midnightblue" points="415.824,-82.5001 405.824,-86 415.824,-89.5001 415.824,-82.5001"/>
</g>
</g>
</svg>
