<?xml version="1.0" encoding="UTF-8" standalone="no"?>
<!DOCTYPE svg PUBLIC "-//W3C//DTD SVG 1.1//EN"
 "http://www.w3.org/Graphics/SVG/1.1/DTD/svg11.dtd">
<!-- Generated by graphviz version 2.38.0 (20140413.2041)
 -->
<!-- Title: Graphical Class Hierarchy Pages: 1 -->
<svg width="371pt" height="370pt"
 viewBox="0.00 0.00 371.00 370.00" xmlns="http://www.w3.org/2000/svg" xmlns:xlink="http://www.w3.org/1999/xlink">
<g id="graph0" class="graph" transform="scale(1 1) rotate(0) translate(4 366)">
<title>Graphical Class Hierarchy</title>
<polygon fill="white" stroke="none" points="-4,4 -4,-366 367,-366 367,4 -4,4"/>
<!-- Node1 -->
<g id="node1" class="node"><title>Node1</title>
<polygon fill="white" stroke="#bfbfbf" points="0,-171.5 0,-190.5 57,-190.5 57,-171.5 0,-171.5"/>
<text text-anchor="middle" x="28.5" y="-178.5" font-family="Helvetica,sans-Serif" font-size="10.00">wxFrame</text>
</g>
<!-- Node2 -->
<g id="node2" class="node"><title>Node2</title>
<g id="a_node2"><a xlink:href="dc/d7e/classADF4002__wxgui.html" target="_top" xlink:title="ADF4002_wxgui">
<polygon fill="white" stroke="black" points="109.5,-342.5 109.5,-361.5 198.5,-361.5 198.5,-342.5 109.5,-342.5"/>
<text text-anchor="middle" x="154" y="-349.5" font-family="Helvetica,sans-Serif" font-size="10.00">ADF4002_wxgui</text>
</a>
</g>
</g>
<!-- Node1&#45;&gt;Node2 -->
<g id="edge1" class="edge"><title>Node1&#45;&gt;Node2</title>
<path fill="none" stroke="midnightblue" d="M32.337,-200.793C38.0028,-233.083 53.7358,-297.085 93,-333 97.6762,-337.277 103.313,-340.592 109.236,-343.16"/>
<polygon fill="midnightblue" stroke="midnightblue" points="35.7724,-200.111 30.7307,-190.793 28.861,-201.221 35.7724,-200.111"/>
</g>
<!-- Node3 -->
<g id="node3" class="node"><title>Node3</title>
<g id="a_node3"><a xlink:href="d7/d5c/classAppFrame__view.html" target="_top" xlink:title="Class AppFrame_view. ">
<polygon fill="white" stroke="black" points="110.5,-304.5 110.5,-323.5 197.5,-323.5 197.5,-304.5 110.5,-304.5"/>
<text text-anchor="middle" x="154" y="-311.5" font-family="Helvetica,sans-Serif" font-size="10.00">AppFrame_view</text>
</a>
</g>
</g>
<!-- Node1&#45;&gt;Node3 -->
<g id="edge2" class="edge"><title>Node1&#45;&gt;Node3</title>
<path fill="none" stroke="midnightblue" d="M35.1968,-200.107C43.7078,-225.421 62.1344,-269.803 93,-295 98.0785,-299.146 104.072,-302.392 110.274,-304.933"/>
<polygon fill="midnightblue" stroke="midnightblue" points="38.5187,-199.004 32.149,-190.537 31.8488,-201.128 38.5187,-199.004"/>
</g>
<!-- Node5 -->
<g id="node5" class="node"><title>Node5</title>
<g id="a_node5"><a xlink:href="d7/db5/classFPGAcontrols__wxgui.html" target="_top" xlink:title="FPGAcontrols_wxgui">
<polygon fill="white" stroke="black" points="99.5,-266.5 99.5,-285.5 208.5,-285.5 208.5,-266.5 99.5,-266.5"/>
<text text-anchor="middle" x="154" y="-273.5" font-family="Helvetica,sans-Serif" font-size="10.00">FPGAcontrols_wxgui</text>
</a>
</g>
</g>
<!-- Node1&#45;&gt;Node5 -->
<g id="edge4" class="edge"><title>Node1&#45;&gt;Node5</title>
<path fill="none" stroke="midnightblue" d="M40.4193,-199.305C51.5893,-216.536 70.4686,-241.89 93,-257 98.7172,-260.834 105.254,-263.932 111.861,-266.423"/>
<polygon fill="midnightblue" stroke="midnightblue" points="43.3001,-197.31 35.0326,-190.684 37.3637,-201.02 43.3001,-197.31"/>
</g>
<!-- Node6 -->
<g id="node6" class="node"><title>Node6</title>
<g id="a_node6"><a xlink:href="db/d2f/classfrFFTviewer.html" target="_top" xlink:title="Class frFFTviewer. ">
<polygon fill="white" stroke="black" points="119.5,-228.5 119.5,-247.5 188.5,-247.5 188.5,-228.5 119.5,-228.5"/>
<text text-anchor="middle" x="154" y="-235.5" font-family="Helvetica,sans-Serif" font-size="10.00">frFFTviewer</text>
</a>
</g>
</g>
<!-- Node1&#45;&gt;Node6 -->
<g id="edge5" class="edge"><title>Node1&#45;&gt;Node6</title>
<path fill="none" stroke="midnightblue" d="M51.9889,-196.21C63.8322,-203.762 78.8098,-212.612 93,-219 101.369,-222.767 110.706,-226.108 119.475,-228.896"/>
<polygon fill="midnightblue" stroke="midnightblue" points="53.8975,-193.276 43.6083,-190.75 50.0764,-199.141 53.8975,-193.276"/>
</g>
<!-- Node8 -->
<g id="node8" class="node"><title>Node8</title>
<g id="a_node8"><a xlink:href="de/dd7/classHPM7__wxgui.html" target="_top" xlink:title="HPM7_wxgui">
<polygon fill="white" stroke="black" points="116.5,-190.5 116.5,-209.5 191.5,-209.5 191.5,-190.5 116.5,-190.5"/>
<text text-anchor="middle" x="154" y="-197.5" font-family="Helvetica,sans-Serif" font-size="10.00">HPM7_wxgui</text>
</a>
</g>
</g>
<!-- Node1&#45;&gt;Node8 -->
<g id="edge7" class="edge"><title>Node1&#45;&gt;Node8</title>
<path fill="none" stroke="midnightblue" d="M67.107,-186.786C82.7789,-189.197 100.913,-191.987 116.469,-194.38"/>
<polygon fill="midnightblue" stroke="midnightblue" points="67.6318,-183.325 57.2158,-185.264 66.5673,-190.244 67.6318,-183.325"/>
</g>
<!-- Node9 -->
<g id="node9" class="node"><title>Node9</title>
<g id="a_node9"><a xlink:href="db/d33/classLMS__Programing__wxgui.html" target="_top" xlink:title="LMS_Programing_wxgui">
<polygon fill="white" stroke="black" points="93,-152.5 93,-171.5 215,-171.5 215,-152.5 93,-152.5"/>
<text text-anchor="middle" x="154" y="-159.5" font-family="Helvetica,sans-Serif" font-size="10.00">LMS_Programing_wxgui</text>
</a>
</g>
</g>
<!-- Node1&#45;&gt;Node9 -->
<g id="edge8" class="edge"><title>Node1&#45;&gt;Node9</title>
<path fill="none" stroke="midnightblue" d="M67.1143,-175.213C75.251,-173.961 84.0512,-172.608 92.8095,-171.26"/>
<polygon fill="midnightblue" stroke="midnightblue" points="66.5673,-171.756 57.2158,-176.736 67.6318,-178.675 66.5673,-171.756"/>
</g>
<!-- Node10 -->
<g id="node10" class="node"><title>Node10</title>
<g id="a_node10"><a xlink:href="df/d82/classMyriad7__wxgui.html" target="_top" xlink:title="Myriad7_wxgui">
<polygon fill="white" stroke="black" points="113,-114.5 113,-133.5 195,-133.5 195,-114.5 113,-114.5"/>
<text text-anchor="middle" x="154" y="-121.5" font-family="Helvetica,sans-Serif" font-size="10.00">Myriad7_wxgui</text>
</a>
</g>
</g>
<!-- Node1&#45;&gt;Node10 -->
<g id="edge9" class="edge"><title>Node1&#45;&gt;Node10</title>
<path fill="none" stroke="midnightblue" d="M51.9889,-165.79C63.8322,-158.238 78.8098,-149.388 93,-143 100.971,-139.412 109.819,-136.211 118.218,-133.506"/>
<polygon fill="midnightblue" stroke="midnightblue" points="50.0764,-162.859 43.6083,-171.25 53.8975,-168.724 50.0764,-162.859"/>
</g>
<!-- Node11 -->
<g id="node11" class="node"><title>Node11</title>
<g id="a_node11"><a xlink:href="df/d93/classpnlBoardControls.html" target="_top" xlink:title="pnlBoardControls">
<polygon fill="white" stroke="black" points="108,-76.5 108,-95.5 200,-95.5 200,-76.5 108,-76.5"/>
<text text-anchor="middle" x="154" y="-83.5" font-family="Helvetica,sans-Serif" font-size="10.00">pnlBoardControls</text>
</a>
</g>
</g>
<!-- Node1&#45;&gt;Node11 -->
<g id="edge10" class="edge"><title>Node1&#45;&gt;Node11</title>
<path fill="none" stroke="midnightblue" d="M40.4193,-162.695C51.5893,-145.464 70.4686,-120.11 93,-105 98.7172,-101.166 105.254,-98.0685 111.861,-95.577"/>
<polygon fill="midnightblue" stroke="midnightblue" points="37.3637,-160.98 35.0326,-171.316 43.3001,-164.69 37.3637,-160.98"/>
</g>
<!-- Node12 -->
<g id="node12" class="node"><title>Node12</title>
<g id="a_node12"><a xlink:href="db/d2e/classSi5351C__wxgui.html" target="_top" xlink:title="Si5351C_wxgui">
<polygon fill="white" stroke="black" points="111.5,-38.5 111.5,-57.5 196.5,-57.5 196.5,-38.5 111.5,-38.5"/>
<text text-anchor="middle" x="154" y="-45.5" font-family="Helvetica,sans-Serif" font-size="10.00">Si5351C_wxgui</text>
</a>
</g>
</g>
<!-- Node1&#45;&gt;Node12 -->
<g id="edge11" class="edge"><title>Node1&#45;&gt;Node12</title>
<path fill="none" stroke="midnightblue" d="M35.1968,-161.893C43.7078,-136.579 62.1344,-92.197 93,-67 98.3325,-62.6469 104.674,-59.2856 111.205,-56.6917"/>
<polygon fill="midnightblue" stroke="midnightblue" points="31.8488,-160.872 32.149,-171.463 38.5187,-162.996 31.8488,-160.872"/>
</g>
<!-- Node13 -->
<g id="node13" class="node"><title>Node13</title>
<g id="a_node13"><a xlink:href="d6/d0c/classSPI__view.html" target="_top" xlink:title="Class SPI_view. ">
<polygon fill="white" stroke="black" points="124.5,-0.5 124.5,-19.5 183.5,-19.5 183.5,-0.5 124.5,-0.5"/>
<text text-anchor="middle" x="154" y="-7.5" font-family="Helvetica,sans-Serif" font-size="10.00">SPI_view</text>
</a>
</g>
</g>
<!-- Node1&#45;&gt;Node13 -->
<g id="edge12" class="edge"><title>Node1&#45;&gt;Node13</title>
<path fill="none" stroke="midnightblue" d="M32.337,-161.207C38.0028,-128.917 53.7358,-64.9147 93,-29 101.627,-21.1091 113.524,-16.4953 124.451,-13.7976"/>
<polygon fill="midnightblue" stroke="midnightblue" points="28.861,-160.779 30.7307,-171.207 35.7724,-161.889 28.861,-160.779"/>
</g>
<!-- Node4 -->
<g id="node4" class="node"><title>Node4</title>
<g id="a_node4"><a xlink:href="d1/df3/classLMS7SuiteAppFrame.html" target="_top" xlink:title="Implementing AppFrame. ">
<polygon fill="white" stroke="black" points="252,-304.5 252,-323.5 362,-323.5 362,-304.5 252,-304.5"/>
<text text-anchor="middle" x="307" y="-311.5" font-family="Helvetica,sans-Serif" font-size="10.00">LMS7SuiteAppFrame</text>
</a>
</g>
</g>
<!-- Node3&#45;&gt;Node4 -->
<g id="edge3" class="edge"><title>Node3&#45;&gt;Node4</title>
<path fill="none" stroke="midnightblue" d="M208,-314C222.248,-314 237.673,-314 251.975,-314"/>
<polygon fill="midnightblue" stroke="midnightblue" points="207.867,-310.5 197.867,-314 207.867,-317.5 207.867,-310.5"/>
</g>
<!-- Node7 -->
<g id="node7" class="node"><title>Node7</title>
<g id="a_node7"><a xlink:href="d5/d45/classfftviewer__frFFTviewer.html" target="_top" xlink:title="Implementing frFFTviewer. ">
<polygon fill="white" stroke="black" points="251,-228.5 251,-247.5 363,-247.5 363,-228.5 251,-228.5"/>
<text text-anchor="middle" x="307" y="-235.5" font-family="Helvetica,sans-Serif" font-size="10.00">fftviewer_frFFTviewer</text>
</a>
</g>
</g>
<!-- Node6&#45;&gt;Node7 -->
<g id="edge6" class="edge"><title>Node6&#45;&gt;Node7</title>
<path fill="none" stroke="midnightblue" d="M198.822,-238C215.101,-238 233.779,-238 250.935,-238"/>
<polygon fill="midnightblue" stroke="midnightblue" points="198.512,-234.5 188.512,-238 198.512,-241.5 198.512,-234.5"/>
</g>
<!-- Node14 -->
<g id="node14" class="node"><title>Node14</title>
<g id="a_node14"><a xlink:href="df/dc8/classSPI__wxgui.html" target="_top" xlink:title="Implementing SPI_view. ">
<polygon fill="white" stroke="black" points="275,-0.5 275,-19.5 339,-19.5 339,-0.5 275,-0.5"/>
<text text-anchor="middle" x="307" y="-7.5" font-family="Helvetica,sans-Serif" font-size="10.00">SPI_wxgui</text>
</a>
</g>
</g>
<!-- Node13&#45;&gt;Node14 -->
<g id="edge13" class="edge"><title>Node13&#45;&gt;Node14</title>
<path fill="none" stroke="midnightblue" d="M194.038,-10C219.146,-10 251.333,-10 274.747,-10"/>
<polygon fill="midnightblue" stroke="midnightblue" points="193.757,-6.5001 183.757,-10 193.757,-13.5001 193.757,-6.5001"/>
</g>
</g>
</svg>
