<?xml version="1.0" encoding="UTF-8" standalone="no"?>
<!DOCTYPE svg PUBLIC "-//W3C//DTD SVG 1.1//EN"
 "http://www.w3.org/Graphics/SVG/1.1/DTD/svg11.dtd">
<!-- Generated by graphviz version 2.38.0 (20140413.2041)
 -->
<!-- Title: lms7002_pnlR3_view::MCU_WaitForStatus Pages: 1 -->
<!--zoomable 499 -->
<svg id="main" version="1.1" xmlns="http://www.w3.org/2000/svg" xmlns:xlink="http://www.w3.org/1999/xlink" xml:space="preserve" onload="init(evt)">
<style type="text/css"><![CDATA[
.edge:hover path { stroke: red; }
.edge:hover polygon { stroke: red; fill: red; }
]]></style>
<script type="text/javascript"><![CDATA[
var edges = document.getElementsByTagName('g');
if (edges && edges.length) {
  for (var i=0;i<edges.length;i++) {
    if (edges[i].id.substr(0,4)=='edge') {
      edges[i].setAttribute('class','edge');
    }
  }
}
]]></script>
        <defs>
                <circle id="rim" cx="0" cy="0" r="7"/>
                <circle id="rim2" cx="0" cy="0" r="3.5"/>
                <g id="zoomPlus">
                        <use xlink:href="#rim" fill="#404040">
                                <set attributeName="fill" to="#808080" begin="zoomplus.mouseover" end="zoomplus.mouseout"/>
                        </use>
                        <path d="M-4,0h8M0,-4v8" fill="none" stroke="white" stroke-width="1.5" pointer-events="none"/>
                </g>
                <g id="zoomMin">
                        <use xlink:href="#rim" fill="#404040">
                                <set attributeName="fill" to="#808080" begin="zoomminus.mouseover" end="zoomminus.mouseout"/>
                        </use>
                        <path d="M-4,0h8" fill="none" stroke="white" stroke-width="1.5" pointer-events="none"/>
                </g>
                <g id="dirArrow">
                        <path fill="none" stroke="white" stroke-width="1.5" d="M0,-3.0v7 M-2.5,-0.5L0,-3.0L2.5,-0.5"/>
                </g>
               <g id="resetDef">
                       <use xlink:href="#rim2" fill="#404040">
                               <set attributeName="fill" to="#808080" begin="reset.mouseover" end="reset.mouseout"/>
                       </use>
               </g>
        </defs>

<script type="text/javascript">
var viewWidth = 1516;
var viewHeight = 499;
var sectionId = 'dynsection-8';
</script>
<script xlink:href="../../svgpan.js"/>
<svg id="graph" class="graph">
<g id="viewport">
<title>lms7002_pnlR3_view::MCU_WaitForStatus</title>
<polygon fill="white" stroke="none" points="-4,4 -4,-494.855 1512,-494.855 1512,4 -4,4"/>
<!-- Node1 -->
<g id="node1" class="node"><title>Node1</title>
<polygon fill="#bfbfbf" stroke="black" points="0,-93.3547 0,-123.355 114,-123.355 114,-93.3547 0,-93.3547"/>
<text text-anchor="start" x="8" y="-111.355" font-family="Helvetica,sans-Serif" font-size="10.00">lms7002_pnlR3_view</text>
<text text-anchor="middle" x="57" y="-100.355" font-family="Helvetica,sans-Serif" font-size="10.00">::MCU_WaitForStatus</text>
</g>
<!-- Node2 -->
<g id="node2" class="node"><title>Node2</title>
<g id="a_node2"><a xlink:href="../../d5/d55/classlms7002__pnlR3__view.html#a1d78d0797a17b61f68e80d110d01d793" target="_top" xlink:title="lms7002_pnlR3_view\l::ParameterChangeHandler">
<polygon fill="white" stroke="black" points="150,-118.355 150,-148.355 285,-148.355 285,-118.355 150,-118.355"/>
<text text-anchor="start" x="158" y="-136.355" font-family="Helvetica,sans-Serif" font-size="10.00">lms7002_pnlR3_view</text>
<text text-anchor="middle" x="217.5" y="-125.355" font-family="Helvetica,sans-Serif" font-size="10.00">::ParameterChangeHandler</text>
</a>
</g>
</g>
<!-- Node1&#45;&gt;Node2 -->
<g id="edge1" class="edge"><title>Node1&#45;&gt;Node2</title>
<path fill="none" stroke="midnightblue" d="M124.431,-118.833C132.816,-120.155 141.397,-121.509 149.786,-122.832"/>
<polygon fill="midnightblue" stroke="midnightblue" points="124.751,-115.34 114.327,-117.239 123.66,-122.254 124.751,-115.34"/>
</g>
<!-- Node3 -->
<g id="node3" class="node"><title>Node3</title>
<g id="a_node3"><a xlink:href="../../d5/d55/classlms7002__pnlR3__view.html#a8f6158c063c80cf3b3d5dc1da27b1fd8" target="_top" xlink:title="lms7002_pnlR3_view\l::UpdateGUISlow">
<polygon fill="white" stroke="black" points="162.5,-69.3547 162.5,-99.3547 272.5,-99.3547 272.5,-69.3547 162.5,-69.3547"/>
<text text-anchor="start" x="170.5" y="-87.3547" font-family="Helvetica,sans-Serif" font-size="10.00">lms7002_pnlR3_view</text>
<text text-anchor="middle" x="217.5" y="-76.3547" font-family="Helvetica,sans-Serif" font-size="10.00">::UpdateGUISlow</text>
</a>
</g>
</g>
<!-- Node1&#45;&gt;Node3 -->
<g id="edge2" class="edge"><title>Node1&#45;&gt;Node3</title>
<path fill="none" stroke="midnightblue" d="M124.386,-98.3025C137.082,-96.3802 150.23,-94.3893 162.48,-92.5344"/>
<polygon fill="midnightblue" stroke="midnightblue" points="123.691,-94.8678 114.327,-99.8256 124.739,-101.789 123.691,-94.8678"/>
</g>
<!-- Node4 -->
<g id="node4" class="node"><title>Node4</title>
<g id="a_node4"><a xlink:href="../../d5/d55/classlms7002__pnlR3__view.html#a1ef4dc35f280d8e3999104436d286365" target="_top" xlink:title="lms7002_pnlR3_view\l::UpdateGUI">
<polygon fill="white" stroke="black" points="356.5,-117.355 356.5,-147.355 466.5,-147.355 466.5,-117.355 356.5,-117.355"/>
<text text-anchor="start" x="364.5" y="-135.355" font-family="Helvetica,sans-Serif" font-size="10.00">lms7002_pnlR3_view</text>
<text text-anchor="middle" x="411.5" y="-124.355" font-family="Helvetica,sans-Serif" font-size="10.00">::UpdateGUI</text>
</a>
</g>
</g>
<!-- Node3&#45;&gt;Node4 -->
<g id="edge3" class="edge"><title>Node3&#45;&gt;Node4</title>
<path fill="none" stroke="midnightblue" d="M282.465,-100.346C306.428,-106.337 333.398,-113.079 356.384,-118.826"/>
<polygon fill="midnightblue" stroke="midnightblue" points="283.3,-96.947 272.75,-97.9171 281.602,-103.738 283.3,-96.947"/>
</g>
<!-- Node29 -->
<g id="node29" class="node"><title>Node29</title>
<g id="a_node29"><a xlink:href="../../d5/d55/classlms7002__pnlR3__view.html#a315b7ff4c97516a95bac5d15e7b35a3f" target="_top" xlink:title="lms7002_pnlR3_view\l::ParameterChangeHandlerCMPRead">
<polygon fill="white" stroke="black" points="321,-22.3547 321,-52.3547 502,-52.3547 502,-22.3547 321,-22.3547"/>
<text text-anchor="start" x="329" y="-40.3547" font-family="Helvetica,sans-Serif" font-size="10.00">lms7002_pnlR3_view</text>
<text text-anchor="middle" x="411.5" y="-29.3547" font-family="Helvetica,sans-Serif" font-size="10.00">::ParameterChangeHandlerCMPRead</text>
</a>
</g>
</g>
<!-- Node3&#45;&gt;Node29 -->
<g id="edge32" class="edge"><title>Node3&#45;&gt;Node29</title>
<path fill="none" stroke="midnightblue" d="M282.7,-68.6389C304.061,-63.4101 327.789,-57.6016 348.944,-52.423"/>
<polygon fill="midnightblue" stroke="midnightblue" points="281.631,-65.2974 272.75,-71.0748 283.295,-72.0966 281.631,-65.2974"/>
</g>
<!-- Node5 -->
<g id="node5" class="node"><title>Node5</title>
<g id="a_node5"><a xlink:href="../../d8/d3c/classlms7002__mainPanel.html#abb8c5306cebfa58d153414b6c1b50db9" target="_top" xlink:title="lms7002_mainPanel::\lUpdateVisiblePanel">
<polygon fill="white" stroke="black" points="547,-264.355 547,-294.355 657,-294.355 657,-264.355 547,-264.355"/>
<text text-anchor="start" x="555" y="-282.355" font-family="Helvetica,sans-Serif" font-size="10.00">lms7002_mainPanel::</text>
<text text-anchor="middle" x="602" y="-271.355" font-family="Helvetica,sans-Serif" font-size="10.00">UpdateVisiblePanel</text>
</a>
</g>
</g>
<!-- Node4&#45;&gt;Node5 -->
<g id="edge4" class="edge"><title>Node4&#45;&gt;Node5</title>
<path fill="none" stroke="midnightblue" d="M431.006,-155.156C453.779,-181.973 494.772,-226.371 538,-254.355 543.729,-258.064 550.096,-261.375 556.518,-264.279"/>
<polygon fill="midnightblue" stroke="midnightblue" points="433.645,-152.856 424.541,-147.436 428.278,-157.35 433.645,-152.856"/>
</g>
<!-- Node23 -->
<g id="node23" class="node"><title>Node23</title>
<g id="a_node23"><a xlink:href="../../d5/d55/classlms7002__pnlR3__view.html#a0b35a2caef9d41d4b718c8621c17380f" target="_top" xlink:title="lms7002_pnlR3_view\l::OnDCCMPCFGRead">
<polygon fill="white" stroke="black" points="543.5,-215.355 543.5,-245.355 660.5,-245.355 660.5,-215.355 543.5,-215.355"/>
<text text-anchor="start" x="551.5" y="-233.355" font-family="Helvetica,sans-Serif" font-size="10.00">lms7002_pnlR3_view</text>
<text text-anchor="middle" x="602" y="-222.355" font-family="Helvetica,sans-Serif" font-size="10.00">::OnDCCMPCFGRead</text>
</a>
</g>
</g>
<!-- Node4&#45;&gt;Node23 -->
<g id="edge23" class="edge"><title>Node4&#45;&gt;Node23</title>
<path fill="none" stroke="midnightblue" d="M444.653,-152.847C469.586,-168.294 505.289,-189.461 538,-205.355 545.091,-208.8 552.786,-212.155 560.283,-215.23"/>
<polygon fill="midnightblue" stroke="midnightblue" points="446.317,-149.76 435.98,-147.435 442.611,-155.699 446.317,-149.76"/>
</g>
<!-- Node24 -->
<g id="node24" class="node"><title>Node24</title>
<g id="a_node24"><a xlink:href="../../d5/d55/classlms7002__pnlR3__view.html#a0e59e56a0312e1112d92646af826394c" target="_top" xlink:title="lms7002_pnlR3_view\l::OnReadRSSICMP">
<polygon fill="white" stroke="black" points="547,-166.355 547,-196.355 657,-196.355 657,-166.355 547,-166.355"/>
<text text-anchor="start" x="555" y="-184.355" font-family="Helvetica,sans-Serif" font-size="10.00">lms7002_pnlR3_view</text>
<text text-anchor="middle" x="602" y="-173.355" font-family="Helvetica,sans-Serif" font-size="10.00">::OnReadRSSICMP</text>
</a>
</g>
</g>
<!-- Node4&#45;&gt;Node24 -->
<g id="edge24" class="edge"><title>Node4&#45;&gt;Node24</title>
<path fill="none" stroke="midnightblue" d="M476.493,-148.989C499.406,-154.946 524.989,-161.596 546.976,-167.311"/>
<polygon fill="midnightblue" stroke="midnightblue" points="477.075,-145.525 466.517,-146.396 475.314,-152.299 477.075,-145.525"/>
</g>
<!-- Node26 -->
<g id="node26" class="node"><title>Node26</title>
<g id="a_node26"><a xlink:href="../../d5/d55/classlms7002__pnlR3__view.html#a538ae670f5a9f2dbcedf330e0ddece19" target="_top" xlink:title="lms7002_pnlR3_view\l::OnReadDCCMP">
<polygon fill="white" stroke="black" points="547,-117.355 547,-147.355 657,-147.355 657,-117.355 547,-117.355"/>
<text text-anchor="start" x="555" y="-135.355" font-family="Helvetica,sans-Serif" font-size="10.00">lms7002_pnlR3_view</text>
<text text-anchor="middle" x="602" y="-124.355" font-family="Helvetica,sans-Serif" font-size="10.00">::OnReadDCCMP</text>
</a>
</g>
</g>
<!-- Node4&#45;&gt;Node26 -->
<g id="edge26" class="edge"><title>Node4&#45;&gt;Node26</title>
<path fill="none" stroke="midnightblue" d="M476.802,-132.355C499.636,-132.355 525.087,-132.355 546.976,-132.355"/>
<polygon fill="midnightblue" stroke="midnightblue" points="476.517,-128.855 466.517,-132.355 476.517,-135.855 476.517,-128.855"/>
</g>
<!-- Node27 -->
<g id="node27" class="node"><title>Node27</title>
<g id="a_node27"><a xlink:href="../../d5/d55/classlms7002__pnlR3__view.html#ace8e8ff3673a651c65b7543e70f07b15" target="_top" xlink:title="lms7002_pnlR3_view\l::OnReadDC">
<polygon fill="white" stroke="black" points="547,-68.3547 547,-98.3547 657,-98.3547 657,-68.3547 547,-68.3547"/>
<text text-anchor="start" x="555" y="-86.3547" font-family="Helvetica,sans-Serif" font-size="10.00">lms7002_pnlR3_view</text>
<text text-anchor="middle" x="602" y="-75.3547" font-family="Helvetica,sans-Serif" font-size="10.00">::OnReadDC</text>
</a>
</g>
</g>
<!-- Node4&#45;&gt;Node27 -->
<g id="edge28" class="edge"><title>Node4&#45;&gt;Node27</title>
<path fill="none" stroke="midnightblue" d="M476.493,-115.72C499.406,-109.764 524.989,-103.114 546.976,-97.3981"/>
<polygon fill="midnightblue" stroke="midnightblue" points="475.314,-112.41 466.517,-118.313 477.075,-119.185 475.314,-112.41"/>
</g>
<!-- Node28 -->
<g id="node28" class="node"><title>Node28</title>
<g id="a_node28"><a xlink:href="../../d5/d55/classlms7002__pnlR3__view.html#a44dfc19844a4dccd37b119e782d74ab7" target="_top" xlink:title="lms7002_pnlR3_view\l::OnCalibrateAnalogRSSI">
<polygon fill="white" stroke="black" points="538,-19.3547 538,-49.3547 666,-49.3547 666,-19.3547 538,-19.3547"/>
<text text-anchor="start" x="546" y="-37.3547" font-family="Helvetica,sans-Serif" font-size="10.00">lms7002_pnlR3_view</text>
<text text-anchor="middle" x="602" y="-26.3547" font-family="Helvetica,sans-Serif" font-size="10.00">::OnCalibrateAnalogRSSI</text>
</a>
</g>
</g>
<!-- Node4&#45;&gt;Node28 -->
<g id="edge30" class="edge"><title>Node4&#45;&gt;Node28</title>
<path fill="none" stroke="midnightblue" d="M444.093,-111.706C468.991,-95.9338 504.91,-74.2726 538,-58.3547 544.539,-55.2089 551.606,-52.1791 558.562,-49.3937"/>
<polygon fill="midnightblue" stroke="midnightblue" points="441.989,-108.897 435.444,-117.228 445.756,-114.796 441.989,-108.897"/>
</g>
<!-- Node6 -->
<g id="node6" class="node"><title>Node6</title>
<g id="a_node6"><a xlink:href="../../d8/d3c/classlms7002__mainPanel.html#a44397c4b4ab5cfedcaf684f284955586" target="_top" xlink:title="lms7002_mainPanel::\lOnDownloadAll">
<polygon fill="white" stroke="black" points="733.5,-460.355 733.5,-490.355 843.5,-490.355 843.5,-460.355 733.5,-460.355"/>
<text text-anchor="start" x="741.5" y="-478.355" font-family="Helvetica,sans-Serif" font-size="10.00">lms7002_mainPanel::</text>
<text text-anchor="middle" x="788.5" y="-467.355" font-family="Helvetica,sans-Serif" font-size="10.00">OnDownloadAll</text>
</a>
</g>
</g>
<!-- Node5&#45;&gt;Node6 -->
<g id="edge5" class="edge"><title>Node5&#45;&gt;Node6</title>
<path fill="none" stroke="midnightblue" d="M610.458,-304.008C623.088,-341.53 652.283,-412.682 702,-451.355 711.127,-458.454 722.245,-463.454 733.403,-466.974"/>
<polygon fill="midnightblue" stroke="midnightblue" points="613.746,-302.804 607.331,-294.372 607.088,-304.964 613.746,-302.804"/>
</g>
<!-- Node7 -->
<g id="node7" class="node"><title>Node7</title>
<g id="a_node7"><a xlink:href="../../d8/d3c/classlms7002__mainPanel.html#a43c4592235060266a985096ea4f3ecfb" target="_top" xlink:title="lms7002_mainPanel::\lOnEnableMIMOchecked">
<polygon fill="white" stroke="black" points="727,-411.355 727,-441.355 850,-441.355 850,-411.355 727,-411.355"/>
<text text-anchor="start" x="735" y="-429.355" font-family="Helvetica,sans-Serif" font-size="10.00">lms7002_mainPanel::</text>
<text text-anchor="middle" x="788.5" y="-418.355" font-family="Helvetica,sans-Serif" font-size="10.00">OnEnableMIMOchecked</text>
</a>
</g>
</g>
<!-- Node5&#45;&gt;Node7 -->
<g id="edge6" class="edge"><title>Node5&#45;&gt;Node7</title>
<path fill="none" stroke="midnightblue" d="M615.9,-303.077C632.283,-330.973 663.152,-376.715 702,-402.355 709.463,-407.28 717.933,-411.206 726.571,-414.332"/>
<polygon fill="midnightblue" stroke="midnightblue" points="618.914,-301.296 610.909,-294.356 612.838,-304.773 618.914,-301.296"/>
</g>
<!-- Node8 -->
<g id="node8" class="node"><title>Node8</title>
<g id="a_node8"><a xlink:href="../../d8/d3c/classlms7002__mainPanel.html#a4de4742979a2f25a74dc4543b34a2ce2" target="_top" xlink:title="lms7002_mainPanel::\lOnLmsDeviceSelect">
<polygon fill="white" stroke="black" points="733.5,-362.355 733.5,-392.355 843.5,-392.355 843.5,-362.355 733.5,-362.355"/>
<text text-anchor="start" x="741.5" y="-380.355" font-family="Helvetica,sans-Serif" font-size="10.00">lms7002_mainPanel::</text>
<text text-anchor="middle" x="788.5" y="-369.355" font-family="Helvetica,sans-Serif" font-size="10.00">OnLmsDeviceSelect</text>
</a>
</g>
</g>
<!-- Node5&#45;&gt;Node8 -->
<g id="edge7" class="edge"><title>Node5&#45;&gt;Node8</title>
<path fill="none" stroke="midnightblue" d="M626.856,-301.186C645.938,-317.614 674.041,-339.58 702,-353.355 711.819,-358.192 722.769,-362.193 733.466,-365.448"/>
<polygon fill="midnightblue" stroke="midnightblue" points="629.084,-298.485 619.257,-294.525 624.469,-303.749 629.084,-298.485"/>
</g>
<!-- Node9 -->
<g id="node9" class="node"><title>Node9</title>
<g id="a_node9"><a xlink:href="../../d8/d3c/classlms7002__mainPanel.html#a6102ca7439ecabfba330dae9de95b419" target="_top" xlink:title="lms7002_mainPanel::\lOnnotebook_modulesPageChanged">
<polygon fill="white" stroke="black" points="702,-313.355 702,-343.355 875,-343.355 875,-313.355 702,-313.355"/>
<text text-anchor="start" x="710" y="-331.355" font-family="Helvetica,sans-Serif" font-size="10.00">lms7002_mainPanel::</text>
<text text-anchor="middle" x="788.5" y="-320.355" font-family="Helvetica,sans-Serif" font-size="10.00">Onnotebook_modulesPageChanged</text>
</a>
</g>
</g>
<!-- Node5&#45;&gt;Node9 -->
<g id="edge8" class="edge"><title>Node5&#45;&gt;Node9</title>
<path fill="none" stroke="midnightblue" d="M667.06,-296.368C687.854,-301.891 710.763,-307.975 730.969,-313.341"/>
<polygon fill="midnightblue" stroke="midnightblue" points="667.922,-292.975 657.358,-293.791 666.125,-299.741 667.922,-292.975"/>
</g>
<!-- Node12 -->
<g id="node12" class="node"><title>Node12</title>
<g id="a_node12"><a xlink:href="../../d8/d3c/classlms7002__mainPanel.html#aa95a38c6fd2f0a119c940e0fe3a45e1a" target="_top" xlink:title="lms7002_mainPanel::\lOnSwitchToChannelA">
<polygon fill="white" stroke="black" points="732,-264.355 732,-294.355 845,-294.355 845,-264.355 732,-264.355"/>
<text text-anchor="start" x="740" y="-282.355" font-family="Helvetica,sans-Serif" font-size="10.00">lms7002_mainPanel::</text>
<text text-anchor="middle" x="788.5" y="-271.355" font-family="Helvetica,sans-Serif" font-size="10.00">OnSwitchToChannelA</text>
</a>
</g>
</g>
<!-- Node5&#45;&gt;Node12 -->
<g id="edge11" class="edge"><title>Node5&#45;&gt;Node12</title>
<path fill="none" stroke="midnightblue" d="M667.482,-279.355C688.496,-279.355 711.63,-279.355 731.933,-279.355"/>
<polygon fill="midnightblue" stroke="midnightblue" points="667.358,-275.855 657.358,-279.355 667.358,-282.855 667.358,-275.855"/>
</g>
<!-- Node13 -->
<g id="node13" class="node"><title>Node13</title>
<g id="a_node13"><a xlink:href="../../d8/d3c/classlms7002__mainPanel.html#a28dc31b61c070c31433142620232788c" target="_top" xlink:title="lms7002_mainPanel::\lOnSwitchToChannelB">
<polygon fill="white" stroke="black" points="732,-215.355 732,-245.355 845,-245.355 845,-215.355 732,-215.355"/>
<text text-anchor="start" x="740" y="-233.355" font-family="Helvetica,sans-Serif" font-size="10.00">lms7002_mainPanel::</text>
<text text-anchor="middle" x="788.5" y="-222.355" font-family="Helvetica,sans-Serif" font-size="10.00">OnSwitchToChannelB</text>
</a>
</g>
</g>
<!-- Node5&#45;&gt;Node13 -->
<g id="edge12" class="edge"><title>Node5&#45;&gt;Node13</title>
<path fill="none" stroke="midnightblue" d="M667.196,-262.305C688.286,-256.704 711.538,-250.529 731.933,-245.112"/>
<polygon fill="midnightblue" stroke="midnightblue" points="666.125,-258.968 657.358,-264.918 667.922,-265.734 666.125,-258.968"/>
</g>
<!-- Node14 -->
<g id="node14" class="node"><title>Node14</title>
<g id="a_node14"><a xlink:href="../../d8/d3c/classlms7002__mainPanel.html#a3acbef587578b6d24d5e8a9b8f79cbd8" target="_top" xlink:title="lms7002_mainPanel::\lOnUploadAll">
<polygon fill="white" stroke="black" points="733.5,-166.355 733.5,-196.355 843.5,-196.355 843.5,-166.355 733.5,-166.355"/>
<text text-anchor="start" x="741.5" y="-184.355" font-family="Helvetica,sans-Serif" font-size="10.00">lms7002_mainPanel::</text>
<text text-anchor="middle" x="788.5" y="-173.355" font-family="Helvetica,sans-Serif" font-size="10.00">OnUploadAll</text>
</a>
</g>
</g>
<!-- Node5&#45;&gt;Node14 -->
<g id="edge13" class="edge"><title>Node5&#45;&gt;Node14</title>
<path fill="none" stroke="midnightblue" d="M658.675,-259.385C661.228,-257.816 663.686,-256.141 666,-254.355 687.39,-237.84 679.779,-220.734 702,-205.355 711.254,-198.95 722.183,-194.246 733.079,-190.794"/>
<polygon fill="midnightblue" stroke="midnightblue" points="656.783,-256.431 649.705,-264.315 660.154,-262.566 656.783,-256.431"/>
</g>
<!-- Node15 -->
<g id="node15" class="node"><title>Node15</title>
<g id="a_node15"><a xlink:href="../../d8/d3c/classlms7002__mainPanel.html#a262803ea9a5a7a2c0e400d8ea921d66c" target="_top" xlink:title="lms7002_mainPanel::\lUpdateGUI">
<polygon fill="white" stroke="black" points="733.5,-117.355 733.5,-147.355 843.5,-147.355 843.5,-117.355 733.5,-117.355"/>
<text text-anchor="start" x="741.5" y="-135.355" font-family="Helvetica,sans-Serif" font-size="10.00">lms7002_mainPanel::</text>
<text text-anchor="middle" x="788.5" y="-124.355" font-family="Helvetica,sans-Serif" font-size="10.00">UpdateGUI</text>
</a>
</g>
</g>
<!-- Node5&#45;&gt;Node15 -->
<g id="edge14" class="edge"><title>Node5&#45;&gt;Node15</title>
<path fill="none" stroke="midnightblue" d="M661.484,-258.473C663.071,-257.18 664.583,-255.808 666,-254.355 698.386,-221.125 667.929,-187.855 702,-156.355 710.717,-148.296 721.925,-142.913 733.337,-139.327"/>
<polygon fill="midnightblue" stroke="midnightblue" points="659.254,-255.758 653.002,-264.312 663.224,-261.524 659.254,-255.758"/>
</g>
<!-- Node10 -->
<g id="node10" class="node"><title>Node10</title>
<g id="a_node10"><a xlink:href="../../d8/d3c/classlms7002__mainPanel.html#aff2ae64c885239df71be67c69f9a2c81" target="_top" xlink:title="lms7002_mainPanel::\lOnLoadDefault">
<polygon fill="white" stroke="black" points="911,-337.355 911,-367.355 1021,-367.355 1021,-337.355 911,-337.355"/>
<text text-anchor="start" x="919" y="-355.355" font-family="Helvetica,sans-Serif" font-size="10.00">lms7002_mainPanel::</text>
<text text-anchor="middle" x="966" y="-344.355" font-family="Helvetica,sans-Serif" font-size="10.00">OnLoadDefault</text>
</a>
</g>
</g>
<!-- Node9&#45;&gt;Node10 -->
<g id="edge9" class="edge"><title>Node9&#45;&gt;Node10</title>
<path fill="none" stroke="midnightblue" d="M885.179,-341.439C893.999,-342.645 902.712,-343.837 910.957,-344.964"/>
<polygon fill="midnightblue" stroke="midnightblue" points="885.576,-337.961 875.194,-340.073 884.627,-344.896 885.576,-337.961"/>
</g>
<!-- Node11 -->
<g id="node11" class="node"><title>Node11</title>
<g id="a_node11"><a xlink:href="../../d8/d3c/classlms7002__mainPanel.html#ab702fe2f9725c2e7aade97270472ac9e" target="_top" xlink:title="lms7002_mainPanel::\lOnResetChip">
<polygon fill="white" stroke="black" points="911,-288.355 911,-318.355 1021,-318.355 1021,-288.355 911,-288.355"/>
<text text-anchor="start" x="919" y="-306.355" font-family="Helvetica,sans-Serif" font-size="10.00">lms7002_mainPanel::</text>
<text text-anchor="middle" x="966" y="-295.355" font-family="Helvetica,sans-Serif" font-size="10.00">OnResetChip</text>
</a>
</g>
</g>
<!-- Node9&#45;&gt;Node11 -->
<g id="edge10" class="edge"><title>Node9&#45;&gt;Node11</title>
<path fill="none" stroke="midnightblue" d="M885.179,-314.725C893.999,-313.469 902.712,-312.228 910.957,-311.053"/>
<polygon fill="midnightblue" stroke="midnightblue" points="884.6,-311.272 875.194,-316.148 885.587,-318.202 884.6,-311.272"/>
</g>
<!-- Node16 -->
<g id="node16" class="node"><title>Node16</title>
<g id="a_node16"><a xlink:href="../../d8/d3c/classlms7002__mainPanel.html#a38ef18df694e067998a0bbad1813a031" target="_top" xlink:title="lms7002_mainPanel::\lInitialize">
<polygon fill="white" stroke="black" points="911,-166.355 911,-196.355 1021,-196.355 1021,-166.355 911,-166.355"/>
<text text-anchor="start" x="919" y="-184.355" font-family="Helvetica,sans-Serif" font-size="10.00">lms7002_mainPanel::</text>
<text text-anchor="middle" x="966" y="-173.355" font-family="Helvetica,sans-Serif" font-size="10.00">Initialize</text>
</a>
</g>
</g>
<!-- Node15&#45;&gt;Node16 -->
<g id="edge15" class="edge"><title>Node15&#45;&gt;Node16</title>
<path fill="none" stroke="midnightblue" d="M853.329,-150.176C872.278,-155.466 892.838,-161.207 911.091,-166.303"/>
<polygon fill="midnightblue" stroke="midnightblue" points="854.161,-146.774 843.588,-147.456 852.278,-153.516 854.161,-146.774"/>
</g>
<!-- Node21 -->
<g id="node21" class="node"><title>Node21</title>
<g id="a_node21"><a xlink:href="../../d8/d3c/classlms7002__mainPanel.html#a7a90f8fb05946924fa257e8323bfdf45" target="_top" xlink:title="lms7002_mainPanel::\lOnNewProject">
<polygon fill="white" stroke="black" points="911,-117.355 911,-147.355 1021,-147.355 1021,-117.355 911,-117.355"/>
<text text-anchor="start" x="919" y="-135.355" font-family="Helvetica,sans-Serif" font-size="10.00">lms7002_mainPanel::</text>
<text text-anchor="middle" x="966" y="-124.355" font-family="Helvetica,sans-Serif" font-size="10.00">OnNewProject</text>
</a>
</g>
</g>
<!-- Node15&#45;&gt;Node21 -->
<g id="edge21" class="edge"><title>Node15&#45;&gt;Node21</title>
<path fill="none" stroke="midnightblue" d="M853.802,-132.355C872.515,-132.355 892.763,-132.355 910.789,-132.355"/>
<polygon fill="midnightblue" stroke="midnightblue" points="853.588,-128.855 843.588,-132.355 853.588,-135.855 853.588,-128.855"/>
</g>
<!-- Node22 -->
<g id="node22" class="node"><title>Node22</title>
<g id="a_node22"><a xlink:href="../../d8/d3c/classlms7002__mainPanel.html#a6b98c7113ae45b9d23f5ccf747c56797" target="_top" xlink:title="lms7002_mainPanel::\lOnOpenProject">
<polygon fill="white" stroke="black" points="911,-68.3547 911,-98.3547 1021,-98.3547 1021,-68.3547 911,-68.3547"/>
<text text-anchor="start" x="919" y="-86.3547" font-family="Helvetica,sans-Serif" font-size="10.00">lms7002_mainPanel::</text>
<text text-anchor="middle" x="966" y="-75.3547" font-family="Helvetica,sans-Serif" font-size="10.00">OnOpenProject</text>
</a>
</g>
</g>
<!-- Node15&#45;&gt;Node22 -->
<g id="edge22" class="edge"><title>Node15&#45;&gt;Node22</title>
<path fill="none" stroke="midnightblue" d="M853.329,-114.533C872.278,-109.243 892.838,-103.502 911.091,-98.4062"/>
<polygon fill="midnightblue" stroke="midnightblue" points="852.278,-111.193 843.588,-117.253 854.161,-117.935 852.278,-111.193"/>
</g>
<!-- Node17 -->
<g id="node17" class="node"><title>Node17</title>
<g id="a_node17"><a xlink:href="../../d1/df3/classLMS7SuiteAppFrame.html#aeaeb613a8c9139f0e60b02f1f612ed5d" target="_top" xlink:title="LMS7SuiteAppFrame::\lUpdateConnections">
<polygon fill="white" stroke="black" points="1057,-166.355 1057,-196.355 1173,-196.355 1173,-166.355 1057,-166.355"/>
<text text-anchor="start" x="1065" y="-184.355" font-family="Helvetica,sans-Serif" font-size="10.00">LMS7SuiteAppFrame::</text>
<text text-anchor="middle" x="1115" y="-173.355" font-family="Helvetica,sans-Serif" font-size="10.00">UpdateConnections</text>
</a>
</g>
</g>
<!-- Node16&#45;&gt;Node17 -->
<g id="edge16" class="edge"><title>Node16&#45;&gt;Node17</title>
<path fill="none" stroke="midnightblue" d="M1031.53,-181.355C1040,-181.355 1048.62,-181.355 1056.95,-181.355"/>
<polygon fill="midnightblue" stroke="midnightblue" points="1031.32,-177.855 1021.32,-181.355 1031.32,-184.855 1031.32,-177.855"/>
</g>
<!-- Node18 -->
<g id="node18" class="node"><title>Node18</title>
<g id="a_node18"><a xlink:href="../../d1/df3/classLMS7SuiteAppFrame.html#ad380f4e547c66fcfffdec0da53fe5b3e" target="_top" xlink:title="Constructor. ">
<polygon fill="white" stroke="black" points="1380,-188.355 1380,-218.355 1496,-218.355 1496,-188.355 1380,-188.355"/>
<text text-anchor="start" x="1388" y="-206.355" font-family="Helvetica,sans-Serif" font-size="10.00">LMS7SuiteAppFrame::</text>
<text text-anchor="middle" x="1438" y="-195.355" font-family="Helvetica,sans-Serif" font-size="10.00">LMS7SuiteAppFrame</text>
</a>
</g>
</g>
<!-- Node17&#45;&gt;Node18 -->
<g id="edge17" class="edge"><title>Node17&#45;&gt;Node18</title>
<path fill="none" stroke="midnightblue" d="M1183.23,-185.962C1241.51,-189.956 1324.9,-195.672 1379.97,-199.446"/>
<polygon fill="midnightblue" stroke="midnightblue" points="1183.23,-182.454 1173.02,-185.262 1182.76,-189.438 1183.23,-182.454"/>
</g>
<!-- Node19 -->
<g id="node19" class="node"><title>Node19</title>
<g id="a_node19"><a xlink:href="../../d1/df3/classLMS7SuiteAppFrame.html#a819f017d3e706c433d9b7f4f9bc1f9c3" target="_top" xlink:title="LMS7SuiteAppFrame::\lOnControlBoardConnect">
<polygon fill="white" stroke="black" points="1209,-144.355 1209,-174.355 1332,-174.355 1332,-144.355 1209,-144.355"/>
<text text-anchor="start" x="1217" y="-162.355" font-family="Helvetica,sans-Serif" font-size="10.00">LMS7SuiteAppFrame::</text>
<text text-anchor="middle" x="1270.5" y="-151.355" font-family="Helvetica,sans-Serif" font-size="10.00">OnControlBoardConnect</text>
</a>
</g>
</g>
<!-- Node17&#45;&gt;Node19 -->
<g id="edge18" class="edge"><title>Node17&#45;&gt;Node19</title>
<path fill="none" stroke="midnightblue" d="M1183.14,-171.732C1191.73,-170.501 1200.48,-169.247 1208.95,-168.032"/>
<polygon fill="midnightblue" stroke="midnightblue" points="1182.56,-168.279 1173.16,-173.163 1183.55,-175.208 1182.56,-168.279"/>
</g>
<!-- Node19&#45;&gt;Node18 -->
<g id="edge19" class="edge"><title>Node19&#45;&gt;Node18</title>
<path fill="none" stroke="midnightblue" d="M1337.68,-176.949C1351.85,-180.718 1366.71,-184.667 1380.48,-188.328"/>
<polygon fill="midnightblue" stroke="midnightblue" points="1338.56,-173.561 1327.99,-174.374 1336.76,-180.326 1338.56,-173.561"/>
</g>
<!-- Node20 -->
<g id="node20" class="node"><title>Node20</title>
<g id="a_node20"><a xlink:href="../../d1/df3/classLMS7SuiteAppFrame.html#a08626f72855857180d80ab271f481d08" target="_top" xlink:title="LMS7SuiteAppFrame::\lOnShowConnectionSettings">
<polygon fill="white" stroke="black" points="1368,-139.355 1368,-169.355 1508,-169.355 1508,-139.355 1368,-139.355"/>
<text text-anchor="start" x="1376" y="-157.355" font-family="Helvetica,sans-Serif" font-size="10.00">LMS7SuiteAppFrame::</text>
<text text-anchor="middle" x="1438" y="-146.355" font-family="Helvetica,sans-Serif" font-size="10.00">OnShowConnectionSettings</text>
</a>
</g>
</g>
<!-- Node19&#45;&gt;Node20 -->
<g id="edge20" class="edge"><title>Node19&#45;&gt;Node20</title>
<path fill="none" stroke="midnightblue" d="M1342.4,-157.213C1350.86,-156.957 1359.49,-156.696 1367.93,-156.441"/>
<polygon fill="midnightblue" stroke="midnightblue" points="1342.08,-153.721 1332.19,-157.521 1342.29,-160.718 1342.08,-153.721"/>
</g>
<!-- Node25 -->
<g id="node25" class="node"><title>Node25</title>
<g id="a_node25"><a xlink:href="../../d5/d55/classlms7002__pnlR3__view.html#a703fbd25b7293045f44bcb15c2ee3a54" target="_top" xlink:title="lms7002_pnlR3_view\l::lms7002_pnlR3_view">
<polygon fill="white" stroke="black" points="730.5,-68.3547 730.5,-98.3547 846.5,-98.3547 846.5,-68.3547 730.5,-68.3547"/>
<text text-anchor="start" x="738.5" y="-86.3547" font-family="Helvetica,sans-Serif" font-size="10.00">lms7002_pnlR3_view</text>
<text text-anchor="middle" x="788.5" y="-75.3547" font-family="Helvetica,sans-Serif" font-size="10.00">::lms7002_pnlR3_view</text>
</a>
</g>
</g>
<!-- Node24&#45;&gt;Node25 -->
<g id="edge25" class="edge"><title>Node24&#45;&gt;Node25</title>
<path fill="none" stroke="midnightblue" d="M658.675,-161.385C661.228,-159.816 663.686,-158.141 666,-156.355 687.39,-139.84 679.779,-122.734 702,-107.355 710.494,-101.476 720.398,-97.0306 730.393,-93.6708"/>
<polygon fill="midnightblue" stroke="midnightblue" points="656.783,-158.431 649.705,-166.315 660.154,-164.566 656.783,-158.431"/>
</g>
<!-- Node26&#45;&gt;Node25 -->
<g id="edge27" class="edge"><title>Node26&#45;&gt;Node25</title>
<path fill="none" stroke="midnightblue" d="M667.06,-115.341C687.854,-109.819 710.763,-103.735 730.969,-98.3684"/>
<polygon fill="midnightblue" stroke="midnightblue" points="666.125,-111.968 657.358,-117.918 667.922,-118.734 666.125,-111.968"/>
</g>
<!-- Node27&#45;&gt;Node25 -->
<g id="edge29" class="edge"><title>Node27&#45;&gt;Node25</title>
<path fill="none" stroke="midnightblue" d="M667.529,-83.3547C687.977,-83.3547 710.429,-83.3547 730.324,-83.3547"/>
<polygon fill="midnightblue" stroke="midnightblue" points="667.358,-79.8548 657.358,-83.3547 667.358,-86.8548 667.358,-79.8548"/>
</g>
<!-- Node28&#45;&gt;Node25 -->
<g id="edge31" class="edge"><title>Node28&#45;&gt;Node25</title>
<path fill="none" stroke="midnightblue" d="M669.356,-51.9775C689.541,-57.3384 711.526,-63.1772 730.997,-68.3485"/>
<polygon fill="midnightblue" stroke="midnightblue" points="670.173,-48.5735 659.61,-49.3893 668.376,-55.3389 670.173,-48.5735"/>
</g>
<!-- Node29&#45;&gt;Node25 -->
<g id="edge33" class="edge"><title>Node29&#45;&gt;Node25</title>
<path fill="none" stroke="midnightblue" d="M466.993,-19.5758C519.001,-5.34105 599.115,9.41033 666,-9.35465 706.664,-20.7631 747.214,-49.9481 769.66,-68.071"/>
<polygon fill="midnightblue" stroke="midnightblue" points="465.972,-16.2272 457.299,-22.3125 467.874,-22.964 465.972,-16.2272"/>
</g>
</g>
</svg>
        <g id="navigator" transform="translate(0 0)" fill="#404254">
                <rect fill="#f2f5e9" fill-opacity="0.5" stroke="#606060" stroke-width=".5" x="0" y="0" width="60" height="60"/>
                <use id="zoomplus" xlink:href="#zoomPlus" x="17" y="9" onmousedown="handleZoom(evt,'in')"/>
                <use id="zoomminus" xlink:href="#zoomMin" x="42" y="9" onmousedown="handleZoom(evt,'out')"/>
                <use id="reset" xlink:href="#resetDef" x="30" y="36" onmousedown="handleReset()"/>
                <g id="arrowUp" xlink:href="#dirArrow" transform="translate(30 24)" onmousedown="handlePan(0,-1)">
                  <use xlink:href="#rim" fill="#404040">
                        <set attributeName="fill" to="#808080" begin="arrowUp.mouseover" end="arrowUp.mouseout"/>
                  </use>
                  <path fill="none" stroke="white" stroke-width="1.5" d="M0,-3.0v7 M-2.5,-0.5L0,-3.0L2.5,-0.5"/>
                </g>
                <g id="arrowRight" xlink:href="#dirArrow" transform="rotate(90) translate(36 -43)" onmousedown="handlePan(1,0)">
                  <use xlink:href="#rim" fill="#404040">
                        <set attributeName="fill" to="#808080" begin="arrowRight.mouseover" end="arrowRight.mouseout"/>
                  </use>
                  <path fill="none" stroke="white" stroke-width="1.5" d="M0,-3.0v7 M-2.5,-0.5L0,-3.0L2.5,-0.5"/>
                </g>
                <g id="arrowDown" xlink:href="#dirArrow" transform="rotate(180) translate(-30 -48)" onmousedown="handlePan(0,1)">
                  <use xlink:href="#rim" fill="#404040">
                        <set attributeName="fill" to="#808080" begin="arrowDown.mouseover" end="arrowDown.mouseout"/>
                  </use>
                  <path fill="none" stroke="white" stroke-width="1.5" d="M0,-3.0v7 M-2.5,-0.5L0,-3.0L2.5,-0.5"/>
                </g>
                <g id="arrowLeft" xlink:href="#dirArrow" transform="rotate(270) translate(-36 17)" onmousedown="handlePan(-1,0)">
                  <use xlink:href="#rim" fill="#404040">
                        <set attributeName="fill" to="#808080" begin="arrowLeft.mouseover" end="arrowLeft.mouseout"/>
                  </use>
                  <path fill="none" stroke="white" stroke-width="1.5" d="M0,-3.0v7 M-2.5,-0.5L0,-3.0L2.5,-0.5"/>
                </g>
        </g>
        <svg viewBox="0 0 15 15" width="100%" height="30px" preserveAspectRatio="xMaxYMin meet">
         <g id="arrow_out" transform="scale(0.3 0.3)">
          <a xlink:href="classlms7002__pnlR3__view_a425df6c089731608d4d37a9c10b969b9_icgraph_org.svg" target="_base">
           <rect id="button" ry="5" rx="5" y="6" x="6" height="38" width="38"
                fill="#f2f5e9" fill-opacity="0.5" stroke="#606060" stroke-width="1.0"/>
           <path id="arrow"
             d="M 11.500037,31.436501 C 11.940474,20.09759 22.043105,11.32322 32.158766,21.979434 L 37.068811,17.246167 C 37.068811,17.246167 37.088388,32 37.088388,32 L 22.160133,31.978069 C 22.160133,31.978069 26.997745,27.140456 26.997745,27.140456 C 18.528582,18.264221 13.291696,25.230495 11.500037,31.436501 z"
             style="fill:#404040;"/>
          </a>
         </g>
        </svg>
</svg>
