<?xml version="1.0" encoding="UTF-8" standalone="no"?>
<!DOCTYPE svg PUBLIC "-//W3C//DTD SVG 1.1//EN"
 "http://www.w3.org/Graphics/SVG/1.1/DTD/svg11.dtd">
<!-- Generated by graphviz version 2.38.0 (20140413.2041)
 -->
<!-- Title: lms7002_pnlR3_view::UpdateGUISlow Pages: 1 -->
<svg width="1341pt" height="575pt"
 viewBox="0.00 0.00 1341.00 574.77" xmlns="http://www.w3.org/2000/svg" xmlns:xlink="http://www.w3.org/1999/xlink">
<g id="graph0" class="graph" transform="scale(1 1) rotate(0) translate(4 570.771)">
<title>lms7002_pnlR3_view::UpdateGUISlow</title>
<polygon fill="white" stroke="none" points="-4,4 -4,-570.771 1337,-570.771 1337,4 -4,4"/>
<!-- Node1 -->
<g id="node1" class="node"><title>Node1</title>
<polygon fill="#bfbfbf" stroke="black" points="0,-463.5 0,-493.5 110,-493.5 110,-463.5 0,-463.5"/>
<text text-anchor="start" x="8" y="-481.5" font-family="Helvetica,sans-Serif" font-size="10.00">lms7002_pnlR3_view</text>
<text text-anchor="middle" x="55" y="-470.5" font-family="Helvetica,sans-Serif" font-size="10.00">::UpdateGUISlow</text>
</g>
<!-- Node2 -->
<g id="node2" class="node"><title>Node2</title>
<g id="a_node2"><a xlink:href="../../d5/d55/classlms7002__pnlR3__view.html#a315b7ff4c97516a95bac5d15e7b35a3f" target="_top" xlink:title="lms7002_pnlR3_view\l::ParameterChangeHandlerCMPRead">
<polygon fill="white" stroke="black" points="146,-511.5 146,-541.5 327,-541.5 327,-511.5 146,-511.5"/>
<text text-anchor="start" x="154" y="-529.5" font-family="Helvetica,sans-Serif" font-size="10.00">lms7002_pnlR3_view</text>
<text text-anchor="middle" x="236.5" y="-518.5" font-family="Helvetica,sans-Serif" font-size="10.00">::ParameterChangeHandlerCMPRead</text>
</a>
</g>
</g>
<!-- Node1&#45;&gt;Node2 -->
<g id="edge1" class="edge"><title>Node1&#45;&gt;Node2</title>
<path fill="none" stroke="midnightblue" d="M120.236,-495.677C139.493,-500.827 160.459,-506.433 179.166,-511.436"/>
<polygon fill="midnightblue" stroke="midnightblue" points="120.908,-492.234 110.343,-493.032 119.099,-498.996 120.908,-492.234"/>
</g>
<!-- Node4 -->
<g id="node4" class="node"><title>Node4</title>
<g id="a_node4"><a xlink:href="../../d5/d55/classlms7002__pnlR3__view.html#a1ef4dc35f280d8e3999104436d286365" target="_top" xlink:title="lms7002_pnlR3_view\l::UpdateGUI">
<polygon fill="white" stroke="black" points="181.5,-416.5 181.5,-446.5 291.5,-446.5 291.5,-416.5 181.5,-416.5"/>
<text text-anchor="start" x="189.5" y="-434.5" font-family="Helvetica,sans-Serif" font-size="10.00">lms7002_pnlR3_view</text>
<text text-anchor="middle" x="236.5" y="-423.5" font-family="Helvetica,sans-Serif" font-size="10.00">::UpdateGUI</text>
</a>
</g>
</g>
<!-- Node1&#45;&gt;Node4 -->
<g id="edge3" class="edge"><title>Node1&#45;&gt;Node4</title>
<path fill="none" stroke="midnightblue" d="M120.023,-461.736C140.088,-456.483 162.027,-450.738 181.342,-445.681"/>
<polygon fill="midnightblue" stroke="midnightblue" points="119.13,-458.352 110.343,-464.271 120.903,-465.124 119.13,-458.352"/>
</g>
<!-- Node3 -->
<g id="node3" class="node"><title>Node3</title>
<g id="a_node3"><a xlink:href="../../d5/d55/classlms7002__pnlR3__view.html#a703fbd25b7293045f44bcb15c2ee3a54" target="_top" xlink:title="lms7002_pnlR3_view\l::lms7002_pnlR3_view">
<polygon fill="white" stroke="black" points="555.5,-441.5 555.5,-471.5 671.5,-471.5 671.5,-441.5 555.5,-441.5"/>
<text text-anchor="start" x="563.5" y="-459.5" font-family="Helvetica,sans-Serif" font-size="10.00">lms7002_pnlR3_view</text>
<text text-anchor="middle" x="613.5" y="-448.5" font-family="Helvetica,sans-Serif" font-size="10.00">::lms7002_pnlR3_view</text>
</a>
</g>
</g>
<!-- Node2&#45;&gt;Node3 -->
<g id="edge2" class="edge"><title>Node2&#45;&gt;Node3</title>
<path fill="none" stroke="midnightblue" d="M287.523,-544.695C339.756,-560.811 423.338,-578.387 491,-554.5 537.765,-537.991 579.757,-495.006 599.903,-471.834"/>
<polygon fill="midnightblue" stroke="midnightblue" points="288.418,-541.307 277.828,-541.609 286.295,-547.977 288.418,-541.307"/>
</g>
<!-- Node5 -->
<g id="node5" class="node"><title>Node5</title>
<g id="a_node5"><a xlink:href="../../d5/d55/classlms7002__pnlR3__view.html#a44dfc19844a4dccd37b119e782d74ab7" target="_top" xlink:title="lms7002_pnlR3_view\l::OnCalibrateAnalogRSSI">
<polygon fill="white" stroke="black" points="363,-514.5 363,-544.5 491,-544.5 491,-514.5 363,-514.5"/>
<text text-anchor="start" x="371" y="-532.5" font-family="Helvetica,sans-Serif" font-size="10.00">lms7002_pnlR3_view</text>
<text text-anchor="middle" x="427" y="-521.5" font-family="Helvetica,sans-Serif" font-size="10.00">::OnCalibrateAnalogRSSI</text>
</a>
</g>
</g>
<!-- Node4&#45;&gt;Node5 -->
<g id="edge4" class="edge"><title>Node4&#45;&gt;Node5</title>
<path fill="none" stroke="midnightblue" d="M269.093,-452.149C293.991,-467.921 329.91,-489.582 363,-505.5 369.539,-508.646 376.606,-511.676 383.562,-514.461"/>
<polygon fill="midnightblue" stroke="midnightblue" points="270.756,-449.058 260.444,-446.626 266.989,-454.958 270.756,-449.058"/>
</g>
<!-- Node6 -->
<g id="node6" class="node"><title>Node6</title>
<g id="a_node6"><a xlink:href="../../d5/d55/classlms7002__pnlR3__view.html#a0b35a2caef9d41d4b718c8621c17380f" target="_top" xlink:title="lms7002_pnlR3_view\l::OnDCCMPCFGRead">
<polygon fill="white" stroke="black" points="368.5,-465.5 368.5,-495.5 485.5,-495.5 485.5,-465.5 368.5,-465.5"/>
<text text-anchor="start" x="376.5" y="-483.5" font-family="Helvetica,sans-Serif" font-size="10.00">lms7002_pnlR3_view</text>
<text text-anchor="middle" x="427" y="-472.5" font-family="Helvetica,sans-Serif" font-size="10.00">::OnDCCMPCFGRead</text>
</a>
</g>
</g>
<!-- Node4&#45;&gt;Node6 -->
<g id="edge6" class="edge"><title>Node4&#45;&gt;Node6</title>
<path fill="none" stroke="midnightblue" d="M301.305,-448.086C323.02,-453.731 347.15,-460.003 368.354,-465.515"/>
<polygon fill="midnightblue" stroke="midnightblue" points="302.075,-444.67 291.517,-445.541 300.314,-451.445 302.075,-444.67"/>
</g>
<!-- Node7 -->
<g id="node7" class="node"><title>Node7</title>
<g id="a_node7"><a xlink:href="../../d5/d55/classlms7002__pnlR3__view.html#ace8e8ff3673a651c65b7543e70f07b15" target="_top" xlink:title="lms7002_pnlR3_view\l::OnReadDC">
<polygon fill="white" stroke="black" points="372,-416.5 372,-446.5 482,-446.5 482,-416.5 372,-416.5"/>
<text text-anchor="start" x="380" y="-434.5" font-family="Helvetica,sans-Serif" font-size="10.00">lms7002_pnlR3_view</text>
<text text-anchor="middle" x="427" y="-423.5" font-family="Helvetica,sans-Serif" font-size="10.00">::OnReadDC</text>
</a>
</g>
</g>
<!-- Node4&#45;&gt;Node7 -->
<g id="edge7" class="edge"><title>Node4&#45;&gt;Node7</title>
<path fill="none" stroke="midnightblue" d="M301.802,-431.5C324.636,-431.5 350.087,-431.5 371.976,-431.5"/>
<polygon fill="midnightblue" stroke="midnightblue" points="301.517,-428 291.517,-431.5 301.517,-435 301.517,-428"/>
</g>
<!-- Node8 -->
<g id="node8" class="node"><title>Node8</title>
<g id="a_node8"><a xlink:href="../../d5/d55/classlms7002__pnlR3__view.html#a538ae670f5a9f2dbcedf330e0ddece19" target="_top" xlink:title="lms7002_pnlR3_view\l::OnReadDCCMP">
<polygon fill="white" stroke="black" points="372,-367.5 372,-397.5 482,-397.5 482,-367.5 372,-367.5"/>
<text text-anchor="start" x="380" y="-385.5" font-family="Helvetica,sans-Serif" font-size="10.00">lms7002_pnlR3_view</text>
<text text-anchor="middle" x="427" y="-374.5" font-family="Helvetica,sans-Serif" font-size="10.00">::OnReadDCCMP</text>
</a>
</g>
</g>
<!-- Node4&#45;&gt;Node8 -->
<g id="edge9" class="edge"><title>Node4&#45;&gt;Node8</title>
<path fill="none" stroke="midnightblue" d="M301.493,-414.865C324.406,-408.909 349.989,-402.259 371.976,-396.543"/>
<polygon fill="midnightblue" stroke="midnightblue" points="300.314,-411.555 291.517,-417.459 302.075,-418.33 300.314,-411.555"/>
</g>
<!-- Node9 -->
<g id="node9" class="node"><title>Node9</title>
<g id="a_node9"><a xlink:href="../../d5/d55/classlms7002__pnlR3__view.html#a0e59e56a0312e1112d92646af826394c" target="_top" xlink:title="lms7002_pnlR3_view\l::OnReadRSSICMP">
<polygon fill="white" stroke="black" points="372,-318.5 372,-348.5 482,-348.5 482,-318.5 372,-318.5"/>
<text text-anchor="start" x="380" y="-336.5" font-family="Helvetica,sans-Serif" font-size="10.00">lms7002_pnlR3_view</text>
<text text-anchor="middle" x="427" y="-325.5" font-family="Helvetica,sans-Serif" font-size="10.00">::OnReadRSSICMP</text>
</a>
</g>
</g>
<!-- Node4&#45;&gt;Node9 -->
<g id="edge11" class="edge"><title>Node4&#45;&gt;Node9</title>
<path fill="none" stroke="midnightblue" d="M269.653,-411.007C294.586,-395.56 330.289,-374.394 363,-358.5 370.091,-355.054 377.786,-351.7 385.283,-348.625"/>
<polygon fill="midnightblue" stroke="midnightblue" points="267.611,-408.156 260.98,-416.419 271.317,-414.095 267.611,-408.156"/>
</g>
<!-- Node10 -->
<g id="node10" class="node"><title>Node10</title>
<g id="a_node10"><a xlink:href="../../d8/d3c/classlms7002__mainPanel.html#abb8c5306cebfa58d153414b6c1b50db9" target="_top" xlink:title="lms7002_mainPanel::\lUpdateVisiblePanel">
<polygon fill="white" stroke="black" points="372,-245.5 372,-275.5 482,-275.5 482,-245.5 372,-245.5"/>
<text text-anchor="start" x="380" y="-263.5" font-family="Helvetica,sans-Serif" font-size="10.00">lms7002_mainPanel::</text>
<text text-anchor="middle" x="427" y="-252.5" font-family="Helvetica,sans-Serif" font-size="10.00">UpdateVisiblePanel</text>
</a>
</g>
</g>
<!-- Node4&#45;&gt;Node10 -->
<g id="edge13" class="edge"><title>Node4&#45;&gt;Node10</title>
<path fill="none" stroke="midnightblue" d="M259.088,-409.074C283.555,-384.003 324.986,-342.583 363,-309.5 376.693,-297.584 392.869,-285.032 405.401,-275.616"/>
<polygon fill="midnightblue" stroke="midnightblue" points="256.522,-406.692 252.062,-416.302 261.542,-411.571 256.522,-406.692"/>
</g>
<!-- Node5&#45;&gt;Node3 -->
<g id="edge5" class="edge"><title>Node5&#45;&gt;Node3</title>
<path fill="none" stroke="midnightblue" d="M477.429,-510.774C482.022,-509.003 486.6,-507.225 491,-505.5 519.481,-494.333 551.573,-481.375 575.62,-471.589"/>
<polygon fill="midnightblue" stroke="midnightblue" points="476.118,-507.528 468.038,-514.381 478.628,-514.063 476.118,-507.528"/>
</g>
<!-- Node7&#45;&gt;Node3 -->
<g id="edge8" class="edge"><title>Node7&#45;&gt;Node3</title>
<path fill="none" stroke="midnightblue" d="M492.529,-440.244C512.977,-443.015 535.429,-446.057 555.324,-448.753"/>
<polygon fill="midnightblue" stroke="midnightblue" points="492.738,-436.74 482.358,-438.866 491.798,-443.677 492.738,-436.74"/>
</g>
<!-- Node8&#45;&gt;Node3 -->
<g id="edge10" class="edge"><title>Node8&#45;&gt;Node3</title>
<path fill="none" stroke="midnightblue" d="M479.342,-401.719C483.338,-403.564 487.267,-405.497 491,-407.5 508.166,-416.708 509.378,-424.197 527,-432.5 535.926,-436.706 545.733,-440.309 555.422,-443.347"/>
<polygon fill="midnightblue" stroke="midnightblue" points="480.52,-398.413 469.957,-397.586 477.699,-404.82 480.52,-398.413"/>
</g>
<!-- Node9&#45;&gt;Node3 -->
<g id="edge12" class="edge"><title>Node9&#45;&gt;Node3</title>
<path fill="none" stroke="midnightblue" d="M485.652,-354.091C487.526,-355.472 489.318,-356.939 491,-358.5 517.813,-383.374 498.929,-409.055 527,-432.5 535.165,-439.319 545.14,-444.206 555.356,-447.707"/>
<polygon fill="midnightblue" stroke="midnightblue" points="487.303,-350.993 476.985,-348.585 483.549,-356.902 487.303,-350.993"/>
</g>
<!-- Node11 -->
<g id="node11" class="node"><title>Node11</title>
<g id="a_node11"><a xlink:href="../../d8/d3c/classlms7002__mainPanel.html#a44397c4b4ab5cfedcaf684f284955586" target="_top" xlink:title="lms7002_mainPanel::\lOnDownloadAll">
<polygon fill="white" stroke="black" points="558.5,-392.5 558.5,-422.5 668.5,-422.5 668.5,-392.5 558.5,-392.5"/>
<text text-anchor="start" x="566.5" y="-410.5" font-family="Helvetica,sans-Serif" font-size="10.00">lms7002_mainPanel::</text>
<text text-anchor="middle" x="613.5" y="-399.5" font-family="Helvetica,sans-Serif" font-size="10.00">OnDownloadAll</text>
</a>
</g>
</g>
<!-- Node10&#45;&gt;Node11 -->
<g id="edge14" class="edge"><title>Node10&#45;&gt;Node11</title>
<path fill="none" stroke="midnightblue" d="M460.649,-281.44C471.247,-289.33 482.462,-298.969 491,-309.5 514.034,-337.91 498.929,-360.055 527,-383.5 535.993,-391.011 547.182,-396.178 558.471,-399.73"/>
<polygon fill="midnightblue" stroke="midnightblue" points="462.516,-278.471 452.345,-275.503 458.445,-284.166 462.516,-278.471"/>
</g>
<!-- Node12 -->
<g id="node12" class="node"><title>Node12</title>
<g id="a_node12"><a xlink:href="../../d8/d3c/classlms7002__mainPanel.html#a43c4592235060266a985096ea4f3ecfb" target="_top" xlink:title="lms7002_mainPanel::\lOnEnableMIMOchecked">
<polygon fill="white" stroke="black" points="552,-343.5 552,-373.5 675,-373.5 675,-343.5 552,-343.5"/>
<text text-anchor="start" x="560" y="-361.5" font-family="Helvetica,sans-Serif" font-size="10.00">lms7002_mainPanel::</text>
<text text-anchor="middle" x="613.5" y="-350.5" font-family="Helvetica,sans-Serif" font-size="10.00">OnEnableMIMOchecked</text>
</a>
</g>
</g>
<!-- Node10&#45;&gt;Node12 -->
<g id="edge15" class="edge"><title>Node10&#45;&gt;Node12</title>
<path fill="none" stroke="midnightblue" d="M455.77,-282.078C482.269,-302.533 519.271,-330.692 527,-334.5 534.745,-338.316 543.193,-341.61 551.665,-344.43"/>
<polygon fill="midnightblue" stroke="midnightblue" points="457.637,-279.097 447.586,-275.748 453.355,-284.634 457.637,-279.097"/>
</g>
<!-- Node13 -->
<g id="node13" class="node"><title>Node13</title>
<g id="a_node13"><a xlink:href="../../d8/d3c/classlms7002__mainPanel.html#a4de4742979a2f25a74dc4543b34a2ce2" target="_top" xlink:title="lms7002_mainPanel::\lOnLmsDeviceSelect">
<polygon fill="white" stroke="black" points="558.5,-294.5 558.5,-324.5 668.5,-324.5 668.5,-294.5 558.5,-294.5"/>
<text text-anchor="start" x="566.5" y="-312.5" font-family="Helvetica,sans-Serif" font-size="10.00">lms7002_mainPanel::</text>
<text text-anchor="middle" x="613.5" y="-301.5" font-family="Helvetica,sans-Serif" font-size="10.00">OnLmsDeviceSelect</text>
</a>
</g>
</g>
<!-- Node10&#45;&gt;Node13 -->
<g id="edge16" class="edge"><title>Node10&#45;&gt;Node13</title>
<path fill="none" stroke="midnightblue" d="M492.086,-277.52C513.647,-283.246 537.479,-289.576 558.212,-295.082"/>
<polygon fill="midnightblue" stroke="midnightblue" points="492.922,-274.121 482.358,-274.937 491.125,-280.886 492.922,-274.121"/>
</g>
<!-- Node14 -->
<g id="node14" class="node"><title>Node14</title>
<g id="a_node14"><a xlink:href="../../d8/d3c/classlms7002__mainPanel.html#a6102ca7439ecabfba330dae9de95b419" target="_top" xlink:title="lms7002_mainPanel::\lOnnotebook_modulesPageChanged">
<polygon fill="white" stroke="black" points="527,-245.5 527,-275.5 700,-275.5 700,-245.5 527,-245.5"/>
<text text-anchor="start" x="535" y="-263.5" font-family="Helvetica,sans-Serif" font-size="10.00">lms7002_mainPanel::</text>
<text text-anchor="middle" x="613.5" y="-252.5" font-family="Helvetica,sans-Serif" font-size="10.00">Onnotebook_modulesPageChanged</text>
</a>
</g>
</g>
<!-- Node10&#45;&gt;Node14 -->
<g id="edge17" class="edge"><title>Node10&#45;&gt;Node14</title>
<path fill="none" stroke="midnightblue" d="M492.698,-260.5C503.689,-260.5 515.256,-260.5 526.689,-260.5"/>
<polygon fill="midnightblue" stroke="midnightblue" points="492.358,-257 482.358,-260.5 492.358,-264 492.358,-257"/>
</g>
<!-- Node17 -->
<g id="node17" class="node"><title>Node17</title>
<g id="a_node17"><a xlink:href="../../d8/d3c/classlms7002__mainPanel.html#aa95a38c6fd2f0a119c940e0fe3a45e1a" target="_top" xlink:title="lms7002_mainPanel::\lOnSwitchToChannelA">
<polygon fill="white" stroke="black" points="557,-196.5 557,-226.5 670,-226.5 670,-196.5 557,-196.5"/>
<text text-anchor="start" x="565" y="-214.5" font-family="Helvetica,sans-Serif" font-size="10.00">lms7002_mainPanel::</text>
<text text-anchor="middle" x="613.5" y="-203.5" font-family="Helvetica,sans-Serif" font-size="10.00">OnSwitchToChannelA</text>
</a>
</g>
</g>
<!-- Node10&#45;&gt;Node17 -->
<g id="edge20" class="edge"><title>Node10&#45;&gt;Node17</title>
<path fill="none" stroke="midnightblue" d="M492.196,-243.451C513.286,-237.85 536.538,-231.674 556.933,-226.258"/>
<polygon fill="midnightblue" stroke="midnightblue" points="491.125,-240.114 482.358,-246.063 492.922,-246.879 491.125,-240.114"/>
</g>
<!-- Node18 -->
<g id="node18" class="node"><title>Node18</title>
<g id="a_node18"><a xlink:href="../../d8/d3c/classlms7002__mainPanel.html#a28dc31b61c070c31433142620232788c" target="_top" xlink:title="lms7002_mainPanel::\lOnSwitchToChannelB">
<polygon fill="white" stroke="black" points="557,-147.5 557,-177.5 670,-177.5 670,-147.5 557,-147.5"/>
<text text-anchor="start" x="565" y="-165.5" font-family="Helvetica,sans-Serif" font-size="10.00">lms7002_mainPanel::</text>
<text text-anchor="middle" x="613.5" y="-154.5" font-family="Helvetica,sans-Serif" font-size="10.00">OnSwitchToChannelB</text>
</a>
</g>
</g>
<!-- Node10&#45;&gt;Node18 -->
<g id="edge21" class="edge"><title>Node10&#45;&gt;Node18</title>
<path fill="none" stroke="midnightblue" d="M451.856,-238.668C470.938,-222.241 499.041,-200.275 527,-186.5 536.266,-181.935 546.539,-178.115 556.656,-174.964"/>
<polygon fill="midnightblue" stroke="midnightblue" points="449.469,-236.106 444.257,-245.33 454.084,-241.37 449.469,-236.106"/>
</g>
<!-- Node19 -->
<g id="node19" class="node"><title>Node19</title>
<g id="a_node19"><a xlink:href="../../d8/d3c/classlms7002__mainPanel.html#a3acbef587578b6d24d5e8a9b8f79cbd8" target="_top" xlink:title="lms7002_mainPanel::\lOnUploadAll">
<polygon fill="white" stroke="black" points="558.5,-98.5 558.5,-128.5 668.5,-128.5 668.5,-98.5 558.5,-98.5"/>
<text text-anchor="start" x="566.5" y="-116.5" font-family="Helvetica,sans-Serif" font-size="10.00">lms7002_mainPanel::</text>
<text text-anchor="middle" x="613.5" y="-105.5" font-family="Helvetica,sans-Serif" font-size="10.00">OnUploadAll</text>
</a>
</g>
</g>
<!-- Node10&#45;&gt;Node19 -->
<g id="edge22" class="edge"><title>Node10&#45;&gt;Node19</title>
<path fill="none" stroke="midnightblue" d="M440.9,-236.778C457.283,-208.882 488.152,-163.14 527,-137.5 536.393,-131.3 547.382,-126.685 558.292,-123.254"/>
<polygon fill="midnightblue" stroke="midnightblue" points="437.838,-235.081 435.909,-245.499 443.914,-238.558 437.838,-235.081"/>
</g>
<!-- Node20 -->
<g id="node20" class="node"><title>Node20</title>
<g id="a_node20"><a xlink:href="../../d8/d3c/classlms7002__mainPanel.html#a262803ea9a5a7a2c0e400d8ea921d66c" target="_top" xlink:title="lms7002_mainPanel::\lUpdateGUI">
<polygon fill="white" stroke="black" points="558.5,-49.5 558.5,-79.5 668.5,-79.5 668.5,-49.5 558.5,-49.5"/>
<text text-anchor="start" x="566.5" y="-67.5" font-family="Helvetica,sans-Serif" font-size="10.00">lms7002_mainPanel::</text>
<text text-anchor="middle" x="613.5" y="-56.5" font-family="Helvetica,sans-Serif" font-size="10.00">UpdateGUI</text>
</a>
</g>
</g>
<!-- Node10&#45;&gt;Node20 -->
<g id="edge23" class="edge"><title>Node10&#45;&gt;Node20</title>
<path fill="none" stroke="midnightblue" d="M435.458,-235.847C448.088,-198.324 477.283,-127.173 527,-88.5 536.127,-81.4005 547.245,-76.4009 558.403,-72.8802"/>
<polygon fill="midnightblue" stroke="midnightblue" points="432.088,-234.891 432.331,-245.483 438.746,-237.051 432.088,-234.891"/>
</g>
<!-- Node15 -->
<g id="node15" class="node"><title>Node15</title>
<g id="a_node15"><a xlink:href="../../d8/d3c/classlms7002__mainPanel.html#aff2ae64c885239df71be67c69f9a2c81" target="_top" xlink:title="lms7002_mainPanel::\lOnLoadDefault">
<polygon fill="white" stroke="black" points="736,-269.5 736,-299.5 846,-299.5 846,-269.5 736,-269.5"/>
<text text-anchor="start" x="744" y="-287.5" font-family="Helvetica,sans-Serif" font-size="10.00">lms7002_mainPanel::</text>
<text text-anchor="middle" x="791" y="-276.5" font-family="Helvetica,sans-Serif" font-size="10.00">OnLoadDefault</text>
</a>
</g>
</g>
<!-- Node14&#45;&gt;Node15 -->
<g id="edge18" class="edge"><title>Node14&#45;&gt;Node15</title>
<path fill="none" stroke="midnightblue" d="M710.179,-273.584C718.999,-274.791 727.712,-275.982 735.957,-277.11"/>
<polygon fill="midnightblue" stroke="midnightblue" points="710.576,-270.106 700.194,-272.219 709.627,-277.041 710.576,-270.106"/>
</g>
<!-- Node16 -->
<g id="node16" class="node"><title>Node16</title>
<g id="a_node16"><a xlink:href="../../d8/d3c/classlms7002__mainPanel.html#ab702fe2f9725c2e7aade97270472ac9e" target="_top" xlink:title="lms7002_mainPanel::\lOnResetChip">
<polygon fill="white" stroke="black" points="736,-220.5 736,-250.5 846,-250.5 846,-220.5 736,-220.5"/>
<text text-anchor="start" x="744" y="-238.5" font-family="Helvetica,sans-Serif" font-size="10.00">lms7002_mainPanel::</text>
<text text-anchor="middle" x="791" y="-227.5" font-family="Helvetica,sans-Serif" font-size="10.00">OnResetChip</text>
</a>
</g>
</g>
<!-- Node14&#45;&gt;Node16 -->
<g id="edge19" class="edge"><title>Node14&#45;&gt;Node16</title>
<path fill="none" stroke="midnightblue" d="M710.179,-246.871C718.999,-245.614 727.712,-244.373 735.957,-243.198"/>
<polygon fill="midnightblue" stroke="midnightblue" points="709.6,-243.418 700.194,-248.293 710.587,-250.348 709.6,-243.418"/>
</g>
<!-- Node21 -->
<g id="node21" class="node"><title>Node21</title>
<g id="a_node21"><a xlink:href="../../d8/d3c/classlms7002__mainPanel.html#a38ef18df694e067998a0bbad1813a031" target="_top" xlink:title="lms7002_mainPanel::\lInitialize">
<polygon fill="white" stroke="black" points="736,-98.5 736,-128.5 846,-128.5 846,-98.5 736,-98.5"/>
<text text-anchor="start" x="744" y="-116.5" font-family="Helvetica,sans-Serif" font-size="10.00">lms7002_mainPanel::</text>
<text text-anchor="middle" x="791" y="-105.5" font-family="Helvetica,sans-Serif" font-size="10.00">Initialize</text>
</a>
</g>
</g>
<!-- Node20&#45;&gt;Node21 -->
<g id="edge24" class="edge"><title>Node20&#45;&gt;Node21</title>
<path fill="none" stroke="midnightblue" d="M678.329,-82.3212C697.278,-87.6118 717.838,-93.3522 736.091,-98.4484"/>
<polygon fill="midnightblue" stroke="midnightblue" points="679.161,-78.9196 668.588,-79.6014 677.278,-85.6618 679.161,-78.9196"/>
</g>
<!-- Node26 -->
<g id="node26" class="node"><title>Node26</title>
<g id="a_node26"><a xlink:href="../../d8/d3c/classlms7002__mainPanel.html#a7a90f8fb05946924fa257e8323bfdf45" target="_top" xlink:title="lms7002_mainPanel::\lOnNewProject">
<polygon fill="white" stroke="black" points="736,-49.5 736,-79.5 846,-79.5 846,-49.5 736,-49.5"/>
<text text-anchor="start" x="744" y="-67.5" font-family="Helvetica,sans-Serif" font-size="10.00">lms7002_mainPanel::</text>
<text text-anchor="middle" x="791" y="-56.5" font-family="Helvetica,sans-Serif" font-size="10.00">OnNewProject</text>
</a>
</g>
</g>
<!-- Node20&#45;&gt;Node26 -->
<g id="edge30" class="edge"><title>Node20&#45;&gt;Node26</title>
<path fill="none" stroke="midnightblue" d="M678.802,-64.5C697.515,-64.5 717.763,-64.5 735.789,-64.5"/>
<polygon fill="midnightblue" stroke="midnightblue" points="678.588,-61.0001 668.588,-64.5 678.588,-68.0001 678.588,-61.0001"/>
</g>
<!-- Node27 -->
<g id="node27" class="node"><title>Node27</title>
<g id="a_node27"><a xlink:href="../../d8/d3c/classlms7002__mainPanel.html#a6b98c7113ae45b9d23f5ccf747c56797" target="_top" xlink:title="lms7002_mainPanel::\lOnOpenProject">
<polygon fill="white" stroke="black" points="736,-0.5 736,-30.5 846,-30.5 846,-0.5 736,-0.5"/>
<text text-anchor="start" x="744" y="-18.5" font-family="Helvetica,sans-Serif" font-size="10.00">lms7002_mainPanel::</text>
<text text-anchor="middle" x="791" y="-7.5" font-family="Helvetica,sans-Serif" font-size="10.00">OnOpenProject</text>
</a>
</g>
</g>
<!-- Node20&#45;&gt;Node27 -->
<g id="edge31" class="edge"><title>Node20&#45;&gt;Node27</title>
<path fill="none" stroke="midnightblue" d="M678.329,-46.6788C697.278,-41.3882 717.838,-35.6478 736.091,-30.5516"/>
<polygon fill="midnightblue" stroke="midnightblue" points="677.278,-43.3382 668.588,-49.3986 679.161,-50.0804 677.278,-43.3382"/>
</g>
<!-- Node22 -->
<g id="node22" class="node"><title>Node22</title>
<g id="a_node22"><a xlink:href="../../d1/df3/classLMS7SuiteAppFrame.html#aeaeb613a8c9139f0e60b02f1f612ed5d" target="_top" xlink:title="LMS7SuiteAppFrame::\lUpdateConnections">
<polygon fill="white" stroke="black" points="882,-98.5 882,-128.5 998,-128.5 998,-98.5 882,-98.5"/>
<text text-anchor="start" x="890" y="-116.5" font-family="Helvetica,sans-Serif" font-size="10.00">LMS7SuiteAppFrame::</text>
<text text-anchor="middle" x="940" y="-105.5" font-family="Helvetica,sans-Serif" font-size="10.00">UpdateConnections</text>
</a>
</g>
</g>
<!-- Node21&#45;&gt;Node22 -->
<g id="edge25" class="edge"><title>Node21&#45;&gt;Node22</title>
<path fill="none" stroke="midnightblue" d="M856.532,-113.5C864.996,-113.5 873.62,-113.5 881.947,-113.5"/>
<polygon fill="midnightblue" stroke="midnightblue" points="856.32,-110 846.32,-113.5 856.32,-117 856.32,-110"/>
</g>
<!-- Node23 -->
<g id="node23" class="node"><title>Node23</title>
<g id="a_node23"><a xlink:href="../../d1/df3/classLMS7SuiteAppFrame.html#ad380f4e547c66fcfffdec0da53fe5b3e" target="_top" xlink:title="Constructor. ">
<polygon fill="white" stroke="black" points="1205,-120.5 1205,-150.5 1321,-150.5 1321,-120.5 1205,-120.5"/>
<text text-anchor="start" x="1213" y="-138.5" font-family="Helvetica,sans-Serif" font-size="10.00">LMS7SuiteAppFrame::</text>
<text text-anchor="middle" x="1263" y="-127.5" font-family="Helvetica,sans-Serif" font-size="10.00">LMS7SuiteAppFrame</text>
</a>
</g>
</g>
<!-- Node22&#45;&gt;Node23 -->
<g id="edge26" class="edge"><title>Node22&#45;&gt;Node23</title>
<path fill="none" stroke="midnightblue" d="M1008.23,-118.108C1066.51,-122.102 1149.9,-127.817 1204.97,-131.592"/>
<polygon fill="midnightblue" stroke="midnightblue" points="1008.23,-114.6 998.018,-117.408 1007.76,-121.583 1008.23,-114.6"/>
</g>
<!-- Node24 -->
<g id="node24" class="node"><title>Node24</title>
<g id="a_node24"><a xlink:href="../../d1/df3/classLMS7SuiteAppFrame.html#a819f017d3e706c433d9b7f4f9bc1f9c3" target="_top" xlink:title="LMS7SuiteAppFrame::\lOnControlBoardConnect">
<polygon fill="white" stroke="black" points="1034,-76.5 1034,-106.5 1157,-106.5 1157,-76.5 1034,-76.5"/>
<text text-anchor="start" x="1042" y="-94.5" font-family="Helvetica,sans-Serif" font-size="10.00">LMS7SuiteAppFrame::</text>
<text text-anchor="middle" x="1095.5" y="-83.5" font-family="Helvetica,sans-Serif" font-size="10.00">OnControlBoardConnect</text>
</a>
</g>
</g>
<!-- Node22&#45;&gt;Node24 -->
<g id="edge27" class="edge"><title>Node22&#45;&gt;Node24</title>
<path fill="none" stroke="midnightblue" d="M1008.14,-103.878C1016.73,-102.647 1025.48,-101.392 1033.95,-100.178"/>
<polygon fill="midnightblue" stroke="midnightblue" points="1007.56,-100.425 998.158,-105.308 1008.55,-107.354 1007.56,-100.425"/>
</g>
<!-- Node24&#45;&gt;Node23 -->
<g id="edge28" class="edge"><title>Node24&#45;&gt;Node23</title>
<path fill="none" stroke="midnightblue" d="M1162.68,-109.094C1176.85,-112.863 1191.71,-116.812 1205.48,-120.474"/>
<polygon fill="midnightblue" stroke="midnightblue" points="1163.56,-105.706 1152.99,-106.519 1161.76,-112.471 1163.56,-105.706"/>
</g>
<!-- Node25 -->
<g id="node25" class="node"><title>Node25</title>
<g id="a_node25"><a xlink:href="../../d1/df3/classLMS7SuiteAppFrame.html#a08626f72855857180d80ab271f481d08" target="_top" xlink:title="LMS7SuiteAppFrame::\lOnShowConnectionSettings">
<polygon fill="white" stroke="black" points="1193,-71.5 1193,-101.5 1333,-101.5 1333,-71.5 1193,-71.5"/>
<text text-anchor="start" x="1201" y="-89.5" font-family="Helvetica,sans-Serif" font-size="10.00">LMS7SuiteAppFrame::</text>
<text text-anchor="middle" x="1263" y="-78.5" font-family="Helvetica,sans-Serif" font-size="10.00">OnShowConnectionSettings</text>
</a>
</g>
</g>
<!-- Node24&#45;&gt;Node25 -->
<g id="edge29" class="edge"><title>Node24&#45;&gt;Node25</title>
<path fill="none" stroke="midnightblue" d="M1167.4,-89.358C1175.86,-89.1024 1184.49,-88.8417 1192.93,-88.5868"/>
<polygon fill="midnightblue" stroke="midnightblue" points="1167.08,-85.8661 1157.19,-89.6666 1167.29,-92.8629 1167.08,-85.8661"/>
</g>
</g>
</svg>
