<?xml version="1.0" encoding="UTF-8" standalone="no"?>
<!DOCTYPE svg PUBLIC "-//W3C//DTD SVG 1.1//EN"
 "http://www.w3.org/Graphics/SVG/1.1/DTD/svg11.dtd">
<!-- Generated by graphviz version 2.38.0 (20140413.2041)
 -->
<!-- Title: lms7002_pnlR3_view::ParameterChangeHandler Pages: 1 -->
<svg width="512pt" height="61pt"
 viewBox="0.00 0.00 512.00 61.00" xmlns="http://www.w3.org/2000/svg" xmlns:xlink="http://www.w3.org/1999/xlink">
<g id="graph0" class="graph" transform="scale(1 1) rotate(0) translate(4 57)">
<title>lms7002_pnlR3_view::ParameterChangeHandler</title>
<polygon fill="white" stroke="none" points="-4,4 -4,-57 508,-57 508,4 -4,4"/>
<!-- Node1 -->
<g id="node1" class="node"><title>Node1</title>
<polygon fill="#bfbfbf" stroke="black" points="0,-22.5 0,-52.5 135,-52.5 135,-22.5 0,-22.5"/>
<text text-anchor="start" x="8" y="-40.5" font-family="Helvetica,sans-Serif" font-size="10.00">lms7002_pnlR3_view</text>
<text text-anchor="middle" x="67.5" y="-29.5" font-family="Helvetica,sans-Serif" font-size="10.00">::ParameterChangeHandler</text>
</g>
<!-- Node2 -->
<g id="node2" class="node"><title>Node2</title>
<g id="a_node2"><a xlink:href="../../d5/d55/classlms7002__pnlR3__view.html#a703fbd25b7293045f44bcb15c2ee3a54" target="_top" xlink:title="lms7002_pnlR3_view\l::lms7002_pnlR3_view">
<polygon fill="white" stroke="black" points="388,-22.5 388,-52.5 504,-52.5 504,-22.5 388,-22.5"/>
<text text-anchor="start" x="396" y="-40.5" font-family="Helvetica,sans-Serif" font-size="10.00">lms7002_pnlR3_view</text>
<text text-anchor="middle" x="446" y="-29.5" font-family="Helvetica,sans-Serif" font-size="10.00">::lms7002_pnlR3_view</text>
</a>
</g>
</g>
<!-- Node1&#45;&gt;Node2 -->
<g id="edge1" class="edge"><title>Node1&#45;&gt;Node2</title>
<path fill="none" stroke="midnightblue" d="M145.331,-39.9928C153.989,-40.2011 162.684,-40.3783 171,-40.5 251.436,-41.6769 271.566,-41.797 352,-40.5 363.63,-40.3125 376.074,-39.9931 387.955,-39.6309"/>
<polygon fill="midnightblue" stroke="midnightblue" points="145.295,-36.4908 135.209,-39.7353 145.117,-43.4886 145.295,-36.4908"/>
</g>
<!-- Node3 -->
<g id="node3" class="node"><title>Node3</title>
<g id="a_node3"><a xlink:href="../../d5/d55/classlms7002__pnlR3__view.html#a315b7ff4c97516a95bac5d15e7b35a3f" target="_top" xlink:title="lms7002_pnlR3_view\l::ParameterChangeHandlerCMPRead">
<polygon fill="white" stroke="black" points="171,-0.5 171,-30.5 352,-30.5 352,-0.5 171,-0.5"/>
<text text-anchor="start" x="179" y="-18.5" font-family="Helvetica,sans-Serif" font-size="10.00">lms7002_pnlR3_view</text>
<text text-anchor="middle" x="261.5" y="-7.5" font-family="Helvetica,sans-Serif" font-size="10.00">::ParameterChangeHandlerCMPRead</text>
</a>
</g>
</g>
<!-- Node1&#45;&gt;Node3 -->
<g id="edge2" class="edge"><title>Node1&#45;&gt;Node3</title>
<path fill="none" stroke="midnightblue" d="M145.207,-28.7107C153.58,-27.7513 162.156,-26.7685 170.668,-25.7932"/>
<polygon fill="midnightblue" stroke="midnightblue" points="144.65,-25.2515 135.113,-29.8672 145.447,-32.206 144.65,-25.2515"/>
</g>
<!-- Node3&#45;&gt;Node2 -->
<g id="edge3" class="edge"><title>Node3&#45;&gt;Node2</title>
<path fill="none" stroke="midnightblue" d="M362.12,-27.5089C370.929,-28.5709 379.634,-29.6203 387.902,-30.617"/>
<polygon fill="midnightblue" stroke="midnightblue" points="362.493,-24.0287 352.146,-26.3066 361.655,-30.9784 362.493,-24.0287"/>
</g>
</g>
</svg>
