<?xml version="1.0" encoding="UTF-8" standalone="no"?>
<!DOCTYPE svg PUBLIC "-//W3C//DTD SVG 1.1//EN"
 "http://www.w3.org/Graphics/SVG/1.1/DTD/svg11.dtd">
<!-- Generated by graphviz version 2.38.0 (20140413.2041)
 -->
<!-- Title: lms7002_pnlR3_view::ParameterChangeHandlerCMPRead Pages: 1 -->
<svg width="341pt" height="39pt"
 viewBox="0.00 0.00 341.00 39.00" xmlns="http://www.w3.org/2000/svg" xmlns:xlink="http://www.w3.org/1999/xlink">
<g id="graph0" class="graph" transform="scale(1 1) rotate(0) translate(4 35)">
<title>lms7002_pnlR3_view::ParameterChangeHandlerCMPRead</title>
<polygon fill="white" stroke="none" points="-4,4 -4,-35 337,-35 337,4 -4,4"/>
<!-- Node1 -->
<g id="node1" class="node"><title>Node1</title>
<polygon fill="#bfbfbf" stroke="black" points="0,-0.5 0,-30.5 181,-30.5 181,-0.5 0,-0.5"/>
<text text-anchor="start" x="8" y="-18.5" font-family="Helvetica,sans-Serif" font-size="10.00">lms7002_pnlR3_view</text>
<text text-anchor="middle" x="90.5" y="-7.5" font-family="Helvetica,sans-Serif" font-size="10.00">::ParameterChangeHandlerCMPRead</text>
</g>
<!-- Node2 -->
<g id="node2" class="node"><title>Node2</title>
<g id="a_node2"><a xlink:href="../../d5/d55/classlms7002__pnlR3__view.html#a703fbd25b7293045f44bcb15c2ee3a54" target="_top" xlink:title="lms7002_pnlR3_view\l::lms7002_pnlR3_view">
<polygon fill="white" stroke="black" points="217,-0.5 217,-30.5 333,-30.5 333,-0.5 217,-0.5"/>
<text text-anchor="start" x="225" y="-18.5" font-family="Helvetica,sans-Serif" font-size="10.00">lms7002_pnlR3_view</text>
<text text-anchor="middle" x="275" y="-7.5" font-family="Helvetica,sans-Serif" font-size="10.00">::lms7002_pnlR3_view</text>
</a>
</g>
</g>
<!-- Node1&#45;&gt;Node2 -->
<g id="edge1" class="edge"><title>Node1&#45;&gt;Node2</title>
<path fill="none" stroke="midnightblue" d="M191.404,-15.5C200.117,-15.5 208.723,-15.5 216.902,-15.5"/>
<polygon fill="midnightblue" stroke="midnightblue" points="191.146,-12.0001 181.146,-15.5 191.146,-19.0001 191.146,-12.0001"/>
</g>
</g>
</svg>
