<?xml version="1.0" encoding="UTF-8" standalone="no"?>
<!DOCTYPE svg PUBLIC "-//W3C//DTD SVG 1.1//EN"
 "http://www.w3.org/Graphics/SVG/1.1/DTD/svg11.dtd">
<!-- Generated by graphviz version 2.38.0 (20140413.2041)
 -->
<!-- Title: LMS_IsOpen Pages: 1 -->
<!--zoomable 560 -->
<svg id="main" version="1.1" xmlns="http://www.w3.org/2000/svg" xmlns:xlink="http://www.w3.org/1999/xlink" xml:space="preserve" onload="init(evt)">
<style type="text/css"><![CDATA[
.edge:hover path { stroke: red; }
.edge:hover polygon { stroke: red; fill: red; }
]]></style>
<script type="text/javascript"><![CDATA[
var edges = document.getElementsByTagName('g');
if (edges && edges.length) {
  for (var i=0;i<edges.length;i++) {
    if (edges[i].id.substr(0,4)=='edge') {
      edges[i].setAttribute('class','edge');
    }
  }
}
]]></script>
        <defs>
                <circle id="rim" cx="0" cy="0" r="7"/>
                <circle id="rim2" cx="0" cy="0" r="3.5"/>
                <g id="zoomPlus">
                        <use xlink:href="#rim" fill="#404040">
                                <set attributeName="fill" to="#808080" begin="zoomplus.mouseover" end="zoomplus.mouseout"/>
                        </use>
                        <path d="M-4,0h8M0,-4v8" fill="none" stroke="white" stroke-width="1.5" pointer-events="none"/>
                </g>
                <g id="zoomMin">
                        <use xlink:href="#rim" fill="#404040">
                                <set attributeName="fill" to="#808080" begin="zoomminus.mouseover" end="zoomminus.mouseout"/>
                        </use>
                        <path d="M-4,0h8" fill="none" stroke="white" stroke-width="1.5" pointer-events="none"/>
                </g>
                <g id="dirArrow">
                        <path fill="none" stroke="white" stroke-width="1.5" d="M0,-3.0v7 M-2.5,-0.5L0,-3.0L2.5,-0.5"/>
                </g>
               <g id="resetDef">
                       <use xlink:href="#rim2" fill="#404040">
                               <set attributeName="fill" to="#808080" begin="reset.mouseover" end="reset.mouseout"/>
                       </use>
               </g>
        </defs>

<script type="text/javascript">
var viewWidth = 511;
var viewHeight = 560;
var sectionId = 'dynsection-68';
</script>
<script xlink:href="../../svgpan.js"/>
<svg id="graph" class="graph">
<g id="viewport">
<title>LMS_IsOpen</title>
<polygon fill="white" stroke="none" points="-4,4 -4,-556 507,-556 507,4 -4,4"/>
<!-- Node1 -->
<g id="node1" class="node"><title>Node1</title>
<polygon fill="#bfbfbf" stroke="black" points="0,-288.5 0,-307.5 74,-307.5 74,-288.5 0,-288.5"/>
<text text-anchor="middle" x="37" y="-295.5" font-family="Helvetica,sans-Serif" font-size="10.00">LMS_IsOpen</text>
</g>
<!-- Node2 -->
<g id="node2" class="node"><title>Node2</title>
<g id="a_node2"><a xlink:href="../../d3/d22/classlime_1_1LMS7__Device.html#a4fb66a6ab68f16a0b6506329b05a08b2" target="_top" xlink:title="lime::LMS7_Device::\lGetConnection">
<polygon fill="white" stroke="black" points="110,-354 110,-384 218,-384 218,-354 110,-354"/>
<text text-anchor="start" x="118" y="-372" font-family="Helvetica,sans-Serif" font-size="10.00">lime::LMS7_Device::</text>
<text text-anchor="middle" x="164" y="-361" font-family="Helvetica,sans-Serif" font-size="10.00">GetConnection</text>
</a>
</g>
</g>
<!-- Node1&#45;&gt;Node2 -->
<g id="edge1" class="edge"><title>Node1&#45;&gt;Node2</title>
<path fill="none" stroke="midnightblue" d="M51.4179,-307.652C65.5975,-317.637 88.7983,-333.369 110,-345 112.834,-346.555 115.787,-348.096 118.786,-349.602"/>
<polygon fill="midnightblue" stroke="midnightblue" points="117.321,-352.781 127.845,-353.997 120.376,-346.483 117.321,-352.781"/>
</g>
<!-- Node3 -->
<g id="node3" class="node"><title>Node3</title>
<g id="a_node3"><a xlink:href="../../d2/de5/classlime_1_1IConnection.html#abf1c25c85e31e262ded3e33e65cc58e3" target="_top" xlink:title="lime::IConnection::\lIsOpen">
<polygon fill="white" stroke="black" points="114.5,-305 114.5,-335 213.5,-335 213.5,-305 114.5,-305"/>
<text text-anchor="start" x="122.5" y="-323" font-family="Helvetica,sans-Serif" font-size="10.00">lime::IConnection::</text>
<text text-anchor="middle" x="164" y="-312" font-family="Helvetica,sans-Serif" font-size="10.00">IsOpen</text>
</a>
</g>
</g>
<!-- Node1&#45;&gt;Node3 -->
<g id="edge2" class="edge"><title>Node1&#45;&gt;Node3</title>
<path fill="none" stroke="midnightblue" d="M74.1552,-304.363C83.5648,-306.019 93.9495,-307.847 104.201,-309.651"/>
<polygon fill="midnightblue" stroke="midnightblue" points="103.912,-313.154 114.367,-311.441 105.125,-306.26 103.912,-313.154"/>
</g>
<!-- Node4 -->
<g id="node4" class="node"><title>Node4</title>
<g id="a_node4"><a xlink:href="../../d4/d67/lms_8c.html#a0e01e477b1f10e0a63e54de2dd2f8240" target="_top" xlink:title="lms">
<polygon fill="white" stroke="black" points="148,-266.5 148,-285.5 180,-285.5 180,-266.5 148,-266.5"/>
<text text-anchor="middle" x="164" y="-273.5" font-family="Helvetica,sans-Serif" font-size="10.00">lms</text>
</a>
</g>
</g>
<!-- Node1&#45;&gt;Node4 -->
<g id="edge3" class="edge"><title>Node1&#45;&gt;Node4</title>
<path fill="none" stroke="midnightblue" d="M74.1552,-291.637C94.6485,-288.03 119.767,-283.609 138.061,-280.389"/>
<polygon fill="midnightblue" stroke="midnightblue" points="138.715,-283.828 147.957,-278.648 137.502,-276.934 138.715,-283.828"/>
</g>
<!-- Node24 -->
<g id="node24" class="node"><title>Node24</title>
<g id="a_node24"><a xlink:href="../../d5/d6c/namespacelime.html#a377f6c27785115833f62864ba9f37553" target="_top" xlink:title="Log a warning message with formatting. ">
<polygon fill="white" stroke="black" points="127,-114.5 127,-133.5 201,-133.5 201,-114.5 127,-114.5"/>
<text text-anchor="middle" x="164" y="-121.5" font-family="Helvetica,sans-Serif" font-size="10.00">lime::warning</text>
</a>
</g>
</g>
<!-- Node1&#45;&gt;Node24 -->
<g id="edge26" class="edge"><title>Node1&#45;&gt;Node24</title>
<path fill="none" stroke="midnightblue" d="M44.8986,-288.397C64.9985,-260.418 123.747,-178.64 150.029,-142.055"/>
<polygon fill="midnightblue" stroke="midnightblue" points="152.977,-143.951 155.969,-133.788 147.292,-139.867 152.977,-143.951"/>
</g>
<!-- Node5 -->
<g id="node5" class="node"><title>Node5</title>
<g id="a_node5"><a xlink:href="../../d4/d67/lms_8c.html#a433227191fe883dcb8aa15d291bb29a1" target="_top" xlink:title="Case1F">
<polygon fill="white" stroke="black" points="262.5,-532.5 262.5,-551.5 313.5,-551.5 313.5,-532.5 262.5,-532.5"/>
<text text-anchor="middle" x="288" y="-539.5" font-family="Helvetica,sans-Serif" font-size="10.00">Case1F</text>
</a>
</g>
</g>
<!-- Node4&#45;&gt;Node5 -->
<g id="edge4" class="edge"><title>Node4&#45;&gt;Node5</title>
<path fill="none" stroke="midnightblue" d="M180.431,-277.65C192.529,-279.794 208.807,-284.715 218,-296 282.518,-375.196 196.083,-438.856 254,-523 254.637,-523.926 255.335,-524.812 256.083,-525.661"/>
<polygon fill="midnightblue" stroke="midnightblue" points="253.991,-528.477 263.872,-532.301 258.533,-523.15 253.991,-528.477"/>
</g>
<!-- Node6 -->
<g id="node6" class="node"><title>Node6</title>
<g id="a_node6"><a xlink:href="../../d4/d67/lms_8c.html#ace0cd8bf61cb9b86b98f0cef03b5a9d9" target="_top" xlink:title="Case2F">
<polygon fill="white" stroke="black" points="262.5,-494.5 262.5,-513.5 313.5,-513.5 313.5,-494.5 262.5,-494.5"/>
<text text-anchor="middle" x="288" y="-501.5" font-family="Helvetica,sans-Serif" font-size="10.00">Case2F</text>
</a>
</g>
</g>
<!-- Node4&#45;&gt;Node6 -->
<g id="edge5" class="edge"><title>Node4&#45;&gt;Node6</title>
<path fill="none" stroke="midnightblue" d="M180.338,-277.727C192.383,-279.915 208.633,-284.859 218,-296 273.028,-361.452 204.433,-415.321 254,-485 254.754,-486.061 255.588,-487.07 256.484,-488.031"/>
<polygon fill="midnightblue" stroke="midnightblue" points="254.353,-490.81 264.301,-494.457 258.799,-485.403 254.353,-490.81"/>
</g>
<!-- Node7 -->
<g id="node7" class="node"><title>Node7</title>
<g id="a_node7"><a xlink:href="../../d4/d67/lms_8c.html#a5f53b53ccc591e3643c4af2aee2e7f32" target="_top" xlink:title="Case3F">
<polygon fill="white" stroke="black" points="262.5,-456.5 262.5,-475.5 313.5,-475.5 313.5,-456.5 262.5,-456.5"/>
<text text-anchor="middle" x="288" y="-463.5" font-family="Helvetica,sans-Serif" font-size="10.00">Case3F</text>
</a>
</g>
</g>
<!-- Node4&#45;&gt;Node7 -->
<g id="edge6" class="edge"><title>Node4&#45;&gt;Node7</title>
<path fill="none" stroke="midnightblue" d="M180.203,-277.843C192.169,-280.099 208.381,-285.076 218,-296 263.596,-347.777 212.731,-391.712 254,-447 254.779,-448.043 255.632,-449.038 256.546,-449.986"/>
<polygon fill="midnightblue" stroke="midnightblue" points="254.457,-452.798 264.437,-456.358 258.855,-447.352 254.457,-452.798"/>
</g>
<!-- Node8 -->
<g id="node8" class="node"><title>Node8</title>
<g id="a_node8"><a xlink:href="../../d4/d67/lms_8c.html#a5086763d5b258349bc13d6be7e7d0665" target="_top" xlink:title="Case4F">
<polygon fill="white" stroke="black" points="262.5,-418.5 262.5,-437.5 313.5,-437.5 313.5,-418.5 262.5,-418.5"/>
<text text-anchor="middle" x="288" y="-425.5" font-family="Helvetica,sans-Serif" font-size="10.00">Case4F</text>
</a>
</g>
</g>
<!-- Node4&#45;&gt;Node8 -->
<g id="edge7" class="edge"><title>Node4&#45;&gt;Node8</title>
<path fill="none" stroke="midnightblue" d="M180.473,-278.135C192.268,-280.544 208.116,-285.584 218,-296 254.282,-334.235 220.922,-367.962 254,-409 254.933,-410.158 255.958,-411.259 257.05,-412.305"/>
<polygon fill="midnightblue" stroke="midnightblue" points="254.93,-415.09 264.992,-418.407 259.194,-409.539 254.93,-415.09"/>
</g>
<!-- Node9 -->
<g id="node9" class="node"><title>Node9</title>
<g id="a_node9"><a xlink:href="../../d4/d67/lms_8c.html#ac81ca32708341eb34b25d515d00bc748" target="_top" xlink:title="vector">
<polygon fill="white" stroke="black" points="266,-380.5 266,-399.5 310,-399.5 310,-380.5 266,-380.5"/>
<text text-anchor="middle" x="288" y="-387.5" font-family="Helvetica,sans-Serif" font-size="10.00">vector</text>
</a>
</g>
</g>
<!-- Node4&#45;&gt;Node9 -->
<g id="edge8" class="edge"><title>Node4&#45;&gt;Node9</title>
<path fill="none" stroke="midnightblue" d="M180.085,-278.53C191.666,-281.156 207.416,-286.296 218,-296 245.253,-320.988 228.852,-343.895 254,-371 255.175,-372.266 256.453,-373.472 257.802,-374.616"/>
<polygon fill="midnightblue" stroke="midnightblue" points="255.889,-377.55 266.067,-380.492 259.945,-371.845 255.889,-377.55"/>
</g>
<!-- Node10 -->
<g id="node10" class="node"><title>Node10</title>
<g id="a_node10"><a xlink:href="../../d4/d67/lms_8c.html#a37bcb1539d76b53344102435e2ab9c91" target="_top" xlink:title="matrix">
<polygon fill="white" stroke="black" points="266,-342.5 266,-361.5 310,-361.5 310,-342.5 266,-342.5"/>
<text text-anchor="middle" x="288" y="-349.5" font-family="Helvetica,sans-Serif" font-size="10.00">matrix</text>
</a>
</g>
</g>
<!-- Node4&#45;&gt;Node10 -->
<g id="edge9" class="edge"><title>Node4&#45;&gt;Node10</title>
<path fill="none" stroke="midnightblue" d="M180.22,-279.813C191.289,-283.031 206.318,-288.347 218,-296 237.192,-308.573 235.885,-318.919 254,-333 255.781,-334.385 257.674,-335.738 259.617,-337.043"/>
<polygon fill="midnightblue" stroke="midnightblue" points="257.922,-340.111 268.265,-342.41 261.614,-334.163 257.922,-340.111"/>
</g>
<!-- Node11 -->
<g id="node11" class="node"><title>Node11</title>
<g id="a_node11"><a xlink:href="../../d4/d67/lms_8c.html#ad1d6c875ff429888b51dd1155f0311ad" target="_top" xlink:title="ivector">
<polygon fill="white" stroke="black" points="265,-304.5 265,-323.5 311,-323.5 311,-304.5 265,-304.5"/>
<text text-anchor="middle" x="288" y="-311.5" font-family="Helvetica,sans-Serif" font-size="10.00">ivector</text>
</a>
</g>
</g>
<!-- Node4&#45;&gt;Node11 -->
<g id="edge10" class="edge"><title>Node4&#45;&gt;Node11</title>
<path fill="none" stroke="midnightblue" d="M180.451,-280.813C199.078,-286.614 230.868,-296.516 254.888,-303.998"/>
<polygon fill="midnightblue" stroke="midnightblue" points="254.057,-307.405 264.646,-307.037 256.139,-300.722 254.057,-307.405"/>
</g>
<!-- Node12 -->
<g id="node12" class="node"><title>Node12</title>
<g id="a_node12"><a xlink:href="../../db/de5/recipes_8c.html#a623fec796d9d53e5e4a4d30226547da7" target="_top" xlink:title="ludcmp">
<polygon fill="white" stroke="black" points="264,-266.5 264,-285.5 312,-285.5 312,-266.5 264,-266.5"/>
<text text-anchor="middle" x="288" y="-273.5" font-family="Helvetica,sans-Serif" font-size="10.00">ludcmp</text>
</a>
</g>
</g>
<!-- Node4&#45;&gt;Node12 -->
<g id="edge11" class="edge"><title>Node4&#45;&gt;Node12</title>
<path fill="none" stroke="midnightblue" d="M180.451,-276C198.771,-276 229.825,-276 253.696,-276"/>
<polygon fill="midnightblue" stroke="midnightblue" points="253.757,-279.5 263.757,-276 253.757,-272.5 253.757,-279.5"/>
</g>
<!-- Node15 -->
<g id="node15" class="node"><title>Node15</title>
<g id="a_node15"><a xlink:href="../../db/de5/recipes_8c.html#a8214a52d888e820222c0382648329c0c" target="_top" xlink:title="free_vector">
<polygon fill="white" stroke="black" points="358,-228.5 358,-247.5 423,-247.5 423,-228.5 358,-228.5"/>
<text text-anchor="middle" x="390.5" y="-235.5" font-family="Helvetica,sans-Serif" font-size="10.00">free_vector</text>
</a>
</g>
</g>
<!-- Node4&#45;&gt;Node15 -->
<g id="edge23" class="edge"><title>Node4&#45;&gt;Node15</title>
<path fill="none" stroke="midnightblue" d="M180.054,-272.445C197.701,-268.357 227.861,-261.617 254,-257 285.286,-251.474 320.867,-246.536 347.714,-243.08"/>
<polygon fill="midnightblue" stroke="midnightblue" points="348.435,-246.517 357.914,-241.784 347.552,-239.573 348.435,-246.517"/>
</g>
<!-- Node16 -->
<g id="node16" class="node"><title>Node16</title>
<g id="a_node16"><a xlink:href="../../db/de5/recipes_8c.html#a66ff65ad0355ec1f4a7722bcdafc8cd3" target="_top" xlink:title="lubksb">
<polygon fill="white" stroke="black" points="265.5,-190.5 265.5,-209.5 310.5,-209.5 310.5,-190.5 265.5,-190.5"/>
<text text-anchor="middle" x="288" y="-197.5" font-family="Helvetica,sans-Serif" font-size="10.00">lubksb</text>
</a>
</g>
</g>
<!-- Node4&#45;&gt;Node16 -->
<g id="edge16" class="edge"><title>Node4&#45;&gt;Node16</title>
<path fill="none" stroke="midnightblue" d="M180.451,-266.375C201.26,-253.412 238.499,-230.214 262.978,-214.965"/>
<polygon fill="midnightblue" stroke="midnightblue" points="265.037,-217.806 271.674,-209.547 261.336,-211.864 265.037,-217.806"/>
</g>
<!-- Node17 -->
<g id="node17" class="node"><title>Node17</title>
<g id="a_node17"><a xlink:href="../../d8/d91/rounding_8c.html#aca2670cc0fbf948a6b9cb670047c9d5b" target="_top" xlink:title="round2int">
<polygon fill="white" stroke="black" points="260,-152.5 260,-171.5 316,-171.5 316,-152.5 260,-152.5"/>
<text text-anchor="middle" x="288" y="-159.5" font-family="Helvetica,sans-Serif" font-size="10.00">round2int</text>
</a>
</g>
</g>
<!-- Node4&#45;&gt;Node17 -->
<g id="edge17" class="edge"><title>Node4&#45;&gt;Node17</title>
<path fill="none" stroke="midnightblue" d="M172.306,-266.494C186.59,-248.33 219.816,-208.093 254,-181 255.768,-179.599 257.651,-178.233 259.587,-176.919"/>
<polygon fill="midnightblue" stroke="midnightblue" points="261.588,-179.796 268.221,-171.534 257.884,-173.857 261.588,-179.796"/>
</g>
<!-- Node19 -->
<g id="node19" class="node"><title>Node19</title>
<g id="a_node19"><a xlink:href="../../d8/d91/rounding_8c.html#aa8d7512cdf5bfbf811cef6a8a091c679" target="_top" xlink:title="round2csd">
<polygon fill="white" stroke="black" points="257,-114.5 257,-133.5 319,-133.5 319,-114.5 257,-114.5"/>
<text text-anchor="middle" x="288" y="-121.5" font-family="Helvetica,sans-Serif" font-size="10.00">round2csd</text>
</a>
</g>
</g>
<!-- Node4&#45;&gt;Node19 -->
<g id="edge19" class="edge"><title>Node4&#45;&gt;Node19</title>
<path fill="none" stroke="midnightblue" d="M169.567,-266.211C180.977,-242.578 212.799,-181.516 254,-143 255.295,-141.79 256.68,-140.624 258.124,-139.508"/>
<polygon fill="midnightblue" stroke="midnightblue" points="260.446,-142.164 266.787,-133.676 256.537,-136.357 260.446,-142.164"/>
</g>
<!-- Node22 -->
<g id="node22" class="node"><title>Node22</title>
<g id="a_node22"><a xlink:href="../../db/de5/recipes_8c.html#a3e0d121b098c19c0bdc2429e5b9f1625" target="_top" xlink:title="free_matrix">
<polygon fill="white" stroke="black" points="255.5,-76.5 255.5,-95.5 320.5,-95.5 320.5,-76.5 255.5,-76.5"/>
<text text-anchor="middle" x="288" y="-83.5" font-family="Helvetica,sans-Serif" font-size="10.00">free_matrix</text>
</a>
</g>
</g>
<!-- Node4&#45;&gt;Node22 -->
<g id="edge24" class="edge"><title>Node4&#45;&gt;Node22</title>
<path fill="none" stroke="midnightblue" d="M167.878,-266.336C176.635,-238.304 205.37,-155.742 254,-105 255.195,-103.753 256.49,-102.563 257.852,-101.431"/>
<polygon fill="midnightblue" stroke="midnightblue" points="259.989,-104.206 266.154,-95.5906 255.961,-98.4809 259.989,-104.206"/>
</g>
<!-- Node23 -->
<g id="node23" class="node"><title>Node23</title>
<g id="a_node23"><a xlink:href="../../db/de5/recipes_8c.html#aee25e218394217a134e805ea09fb0fe9" target="_top" xlink:title="free_ivector">
<polygon fill="white" stroke="black" points="254,-38.5 254,-57.5 322,-57.5 322,-38.5 254,-38.5"/>
<text text-anchor="middle" x="288" y="-45.5" font-family="Helvetica,sans-Serif" font-size="10.00">free_ivector</text>
</a>
</g>
</g>
<!-- Node4&#45;&gt;Node23 -->
<g id="edge25" class="edge"><title>Node4&#45;&gt;Node23</title>
<path fill="none" stroke="midnightblue" d="M168.908,-266.353C185.142,-226.346 246.739,-75.188 254,-67 255.014,-65.8562 256.115,-64.764 257.277,-63.7234"/>
<polygon fill="midnightblue" stroke="midnightblue" points="259.616,-66.3484 265.6,-57.6052 255.47,-60.7084 259.616,-66.3484"/>
</g>
<!-- Node13 -->
<g id="node13" class="node"><title>Node13</title>
<g id="a_node13"><a xlink:href="../../db/de5/recipes_8c.html#a5e6092211a5f7e2d6ae9282379d3c604" target="_top" xlink:title="vector">
<polygon fill="white" stroke="black" points="368.5,-304.5 368.5,-323.5 412.5,-323.5 412.5,-304.5 368.5,-304.5"/>
<text text-anchor="middle" x="390.5" y="-311.5" font-family="Helvetica,sans-Serif" font-size="10.00">vector</text>
</a>
</g>
</g>
<!-- Node12&#45;&gt;Node13 -->
<g id="edge12" class="edge"><title>Node12&#45;&gt;Node13</title>
<path fill="none" stroke="midnightblue" d="M312.057,-284.718C325.938,-289.967 343.781,-296.713 358.84,-302.407"/>
<polygon fill="midnightblue" stroke="midnightblue" points="357.674,-305.708 368.265,-305.971 360.149,-299.16 357.674,-305.708"/>
</g>
<!-- Node14 -->
<g id="node14" class="node"><title>Node14</title>
<g id="a_node14"><a xlink:href="../../db/de5/recipes_8c.html#a208e98f19b2f252315399d02c0594a46" target="_top" xlink:title="nrerror">
<polygon fill="white" stroke="black" points="459,-285.5 459,-304.5 503,-304.5 503,-285.5 459,-285.5"/>
<text text-anchor="middle" x="481" y="-292.5" font-family="Helvetica,sans-Serif" font-size="10.00">nrerror</text>
</a>
</g>
</g>
<!-- Node12&#45;&gt;Node14 -->
<g id="edge15" class="edge"><title>Node12&#45;&gt;Node14</title>
<path fill="none" stroke="midnightblue" d="M312.039,-278.292C346.23,-281.693 410.482,-288.085 448.842,-291.9"/>
<polygon fill="midnightblue" stroke="midnightblue" points="448.631,-295.397 458.928,-292.904 449.324,-288.431 448.631,-295.397"/>
</g>
<!-- Node12&#45;&gt;Node15 -->
<g id="edge14" class="edge"><title>Node12&#45;&gt;Node15</title>
<path fill="none" stroke="midnightblue" d="M312.057,-267.282C324.676,-262.511 340.569,-256.501 354.668,-251.17"/>
<polygon fill="midnightblue" stroke="midnightblue" points="355.965,-254.422 364.081,-247.611 353.489,-247.874 355.965,-254.422"/>
</g>
<!-- Node13&#45;&gt;Node14 -->
<g id="edge13" class="edge"><title>Node13&#45;&gt;Node14</title>
<path fill="none" stroke="midnightblue" d="M412.923,-309.401C423.685,-307.09 436.928,-304.247 448.796,-301.699"/>
<polygon fill="midnightblue" stroke="midnightblue" points="449.731,-305.078 458.774,-299.557 448.262,-298.234 449.731,-305.078"/>
</g>
<!-- Node18 -->
<g id="node18" class="node"><title>Node18</title>
<g id="a_node18"><a xlink:href="../../db/d82/wglew_8h.html#a500a82aecba06f4550f6849b8099ca21" target="_top" xlink:title="int">
<polygon fill="white" stroke="black" points="376,-152.5 376,-171.5 405,-171.5 405,-152.5 376,-152.5"/>
<text text-anchor="middle" x="390.5" y="-159.5" font-family="Helvetica,sans-Serif" font-size="10.00">int</text>
</a>
</g>
</g>
<!-- Node17&#45;&gt;Node18 -->
<g id="edge18" class="edge"><title>Node17&#45;&gt;Node18</title>
<path fill="none" stroke="midnightblue" d="M316.197,-162C331.576,-162 350.634,-162 365.462,-162"/>
<polygon fill="midnightblue" stroke="midnightblue" points="365.846,-165.5 375.846,-162 365.846,-158.5 365.846,-165.5"/>
</g>
<!-- Node19&#45;&gt;Node18 -->
<g id="edge20" class="edge"><title>Node19&#45;&gt;Node18</title>
<path fill="none" stroke="midnightblue" d="M314.36,-133.589C330.388,-139.649 350.934,-147.418 366.49,-153.3"/>
<polygon fill="midnightblue" stroke="midnightblue" points="365.302,-156.592 375.894,-156.855 367.778,-150.045 365.302,-156.592"/>
</g>
<!-- Node20 -->
<g id="node20" class="node"><title>Node20</title>
<g id="a_node20"><a xlink:href="../../d8/d91/rounding_8c.html#ab3a64ec72c5600bc114621e93309c8c3" target="_top" xlink:title="int2csd">
<polygon fill="white" stroke="black" points="366.5,-114.5 366.5,-133.5 414.5,-133.5 414.5,-114.5 366.5,-114.5"/>
<text text-anchor="middle" x="390.5" y="-121.5" font-family="Helvetica,sans-Serif" font-size="10.00">int2csd</text>
</a>
</g>
</g>
<!-- Node19&#45;&gt;Node20 -->
<g id="edge21" class="edge"><title>Node19&#45;&gt;Node20</title>
<path fill="none" stroke="midnightblue" d="M319.153,-124C330.87,-124 344.331,-124 356.321,-124"/>
<polygon fill="midnightblue" stroke="midnightblue" points="356.398,-127.5 366.398,-124 356.398,-120.5 356.398,-127.5"/>
</g>
<!-- Node21 -->
<g id="node21" class="node"><title>Node21</title>
<g id="a_node21"><a xlink:href="../../d8/d91/rounding_8c.html#a2cff6b77e73872659c44b0c99f6bd97f" target="_top" xlink:title="csd2int">
<polygon fill="white" stroke="black" points="366.5,-76.5 366.5,-95.5 414.5,-95.5 414.5,-76.5 366.5,-76.5"/>
<text text-anchor="middle" x="390.5" y="-83.5" font-family="Helvetica,sans-Serif" font-size="10.00">csd2int</text>
</a>
</g>
</g>
<!-- Node19&#45;&gt;Node21 -->
<g id="edge22" class="edge"><title>Node19&#45;&gt;Node21</title>
<path fill="none" stroke="midnightblue" d="M314.36,-114.411C327.181,-109.563 342.894,-103.622 356.631,-98.4281"/>
<polygon fill="midnightblue" stroke="midnightblue" points="358.099,-101.615 366.214,-94.8045 355.623,-95.0675 358.099,-101.615"/>
</g>
<!-- Node25 -->
<g id="node25" class="node"><title>Node25</title>
<g id="a_node25"><a xlink:href="../../d5/d6c/namespacelime.html#abec841ac666fc9321a10e1881cff2da0" target="_top" xlink:title="Log a message with formatting and specified logging level. ">
<polygon fill="white" stroke="black" points="261.5,-0.5 261.5,-19.5 314.5,-19.5 314.5,-0.5 261.5,-0.5"/>
<text text-anchor="middle" x="288" y="-7.5" font-family="Helvetica,sans-Serif" font-size="10.00">lime::log</text>
</a>
</g>
</g>
<!-- Node24&#45;&gt;Node25 -->
<g id="edge27" class="edge"><title>Node24&#45;&gt;Node25</title>
<path fill="none" stroke="midnightblue" d="M172.306,-114.494C186.59,-96.3305 219.816,-56.0931 254,-29 255.768,-27.5987 257.651,-26.2334 259.587,-24.9194"/>
<polygon fill="midnightblue" stroke="midnightblue" points="261.588,-27.7962 268.221,-19.5343 257.884,-21.8567 261.588,-27.7962"/>
</g>
</g>
</svg>
        <g id="navigator" transform="translate(0 0)" fill="#404254">
                <rect fill="#f2f5e9" fill-opacity="0.5" stroke="#606060" stroke-width=".5" x="0" y="0" width="60" height="60"/>
                <use id="zoomplus" xlink:href="#zoomPlus" x="17" y="9" onmousedown="handleZoom(evt,'in')"/>
                <use id="zoomminus" xlink:href="#zoomMin" x="42" y="9" onmousedown="handleZoom(evt,'out')"/>
                <use id="reset" xlink:href="#resetDef" x="30" y="36" onmousedown="handleReset()"/>
                <g id="arrowUp" xlink:href="#dirArrow" transform="translate(30 24)" onmousedown="handlePan(0,-1)">
                  <use xlink:href="#rim" fill="#404040">
                        <set attributeName="fill" to="#808080" begin="arrowUp.mouseover" end="arrowUp.mouseout"/>
                  </use>
                  <path fill="none" stroke="white" stroke-width="1.5" d="M0,-3.0v7 M-2.5,-0.5L0,-3.0L2.5,-0.5"/>
                </g>
                <g id="arrowRight" xlink:href="#dirArrow" transform="rotate(90) translate(36 -43)" onmousedown="handlePan(1,0)">
                  <use xlink:href="#rim" fill="#404040">
                        <set attributeName="fill" to="#808080" begin="arrowRight.mouseover" end="arrowRight.mouseout"/>
                  </use>
                  <path fill="none" stroke="white" stroke-width="1.5" d="M0,-3.0v7 M-2.5,-0.5L0,-3.0L2.5,-0.5"/>
                </g>
                <g id="arrowDown" xlink:href="#dirArrow" transform="rotate(180) translate(-30 -48)" onmousedown="handlePan(0,1)">
                  <use xlink:href="#rim" fill="#404040">
                        <set attributeName="fill" to="#808080" begin="arrowDown.mouseover" end="arrowDown.mouseout"/>
                  </use>
                  <path fill="none" stroke="white" stroke-width="1.5" d="M0,-3.0v7 M-2.5,-0.5L0,-3.0L2.5,-0.5"/>
                </g>
                <g id="arrowLeft" xlink:href="#dirArrow" transform="rotate(270) translate(-36 17)" onmousedown="handlePan(-1,0)">
                  <use xlink:href="#rim" fill="#404040">
                        <set attributeName="fill" to="#808080" begin="arrowLeft.mouseover" end="arrowLeft.mouseout"/>
                  </use>
                  <path fill="none" stroke="white" stroke-width="1.5" d="M0,-3.0v7 M-2.5,-0.5L0,-3.0L2.5,-0.5"/>
                </g>
        </g>
        <svg viewBox="0 0 15 15" width="100%" height="30px" preserveAspectRatio="xMaxYMin meet">
         <g id="arrow_out" transform="scale(0.3 0.3)">
          <a xlink:href="lms7__api_8cpp_ac1ada16ec7c071bc36a4ebf28c43b31f_cgraph_org.svg" target="_base">
           <rect id="button" ry="5" rx="5" y="6" x="6" height="38" width="38"
                fill="#f2f5e9" fill-opacity="0.5" stroke="#606060" stroke-width="1.0"/>
           <path id="arrow"
             d="M 11.500037,31.436501 C 11.940474,20.09759 22.043105,11.32322 32.158766,21.979434 L 37.068811,17.246167 C 37.068811,17.246167 37.088388,32 37.088388,32 L 22.160133,31.978069 C 22.160133,31.978069 26.997745,27.140456 26.997745,27.140456 C 18.528582,18.264221 13.291696,25.230495 11.500037,31.436501 z"
             style="fill:#404040;"/>
          </a>
         </g>
        </svg>
</svg>
