<?xml version="1.0" encoding="UTF-8" standalone="no"?>
<!DOCTYPE svg PUBLIC "-//W3C//DTD SVG 1.1//EN"
 "http://www.w3.org/Graphics/SVG/1.1/DTD/svg11.dtd">
<!-- Generated by graphviz version 2.38.0 (20140413.2041)
 -->
<!-- Title: LMS_SetGFIR Pages: 1 -->
<svg width="827pt" height="522pt"
 viewBox="0.00 0.00 827.00 522.00" xmlns="http://www.w3.org/2000/svg" xmlns:xlink="http://www.w3.org/1999/xlink">
<g id="graph0" class="graph" transform="scale(1 1) rotate(0) translate(4 518)">
<title>LMS_SetGFIR</title>
<polygon fill="white" stroke="none" points="-4,4 -4,-518 823,-518 823,4 -4,4"/>
<!-- Node1 -->
<g id="node1" class="node"><title>Node1</title>
<polygon fill="#bfbfbf" stroke="black" points="0,-304.5 0,-323.5 81,-323.5 81,-304.5 0,-304.5"/>
<text text-anchor="middle" x="40.5" y="-311.5" font-family="Helvetica,sans-Serif" font-size="10.00">LMS_SetGFIR</text>
</g>
<!-- Node2 -->
<g id="node2" class="node"><title>Node2</title>
<g id="a_node2"><a xlink:href="../../d3/d22/classlime_1_1LMS7__Device.html#a18c438fe361134090c3e1071d6833c9d" target="_top" xlink:title="lime::LMS7_Device::\lGetNumChannels">
<polygon fill="white" stroke="black" points="117,-362 117,-392 225,-392 225,-362 117,-362"/>
<text text-anchor="start" x="125" y="-380" font-family="Helvetica,sans-Serif" font-size="10.00">lime::LMS7_Device::</text>
<text text-anchor="middle" x="171" y="-369" font-family="Helvetica,sans-Serif" font-size="10.00">GetNumChannels</text>
</a>
</g>
</g>
<!-- Node1&#45;&gt;Node2 -->
<g id="edge1" class="edge"><title>Node1&#45;&gt;Node2</title>
<path fill="none" stroke="midnightblue" d="M61.0164,-323.568C79.2819,-332.523 107.123,-346.173 130.093,-357.435"/>
<polygon fill="midnightblue" stroke="midnightblue" points="128.752,-360.675 139.272,-361.935 131.834,-354.39 128.752,-360.675"/>
</g>
<!-- Node3 -->
<g id="node3" class="node"><title>Node3</title>
<g id="a_node3"><a xlink:href="../../d4/d67/lms_8c.html#a0e01e477b1f10e0a63e54de2dd2f8240" target="_top" xlink:title="lms">
<polygon fill="white" stroke="black" points="455.5,-247.5 455.5,-266.5 487.5,-266.5 487.5,-247.5 455.5,-247.5"/>
<text text-anchor="middle" x="471.5" y="-254.5" font-family="Helvetica,sans-Serif" font-size="10.00">lms</text>
</a>
</g>
</g>
<!-- Node1&#45;&gt;Node3 -->
<g id="edge2" class="edge"><title>Node1&#45;&gt;Node3</title>
<path fill="none" stroke="midnightblue" d="M81.161,-320.57C144.252,-329.573 270.787,-341.686 373,-314 402.408,-306.034 432.039,-286.738 450.786,-272.801"/>
<polygon fill="midnightblue" stroke="midnightblue" points="453.013,-275.504 458.83,-266.649 448.76,-269.943 453.013,-275.504"/>
</g>
<!-- Node23 -->
<g id="node23" class="node"><title>Node23</title>
<g id="a_node23"><a xlink:href="../../d5/d6c/namespacelime.html#adc6af0cf8e0a70f3ef09fac1244f8c48" target="_top" xlink:title="lime::ReportError">
<polygon fill="white" stroke="black" points="125.5,-285.5 125.5,-304.5 216.5,-304.5 216.5,-285.5 125.5,-285.5"/>
<text text-anchor="middle" x="171" y="-292.5" font-family="Helvetica,sans-Serif" font-size="10.00">lime::ReportError</text>
</a>
</g>
</g>
<!-- Node1&#45;&gt;Node23 -->
<g id="edge25" class="edge"><title>Node1&#45;&gt;Node23</title>
<path fill="none" stroke="midnightblue" d="M81.1028,-308.144C91.9395,-306.542 103.879,-304.777 115.395,-303.074"/>
<polygon fill="midnightblue" stroke="midnightblue" points="115.988,-306.524 125.368,-301.599 114.964,-299.6 115.988,-306.524"/>
</g>
<!-- Node25 -->
<g id="node25" class="node"><title>Node25</title>
<g id="a_node25"><a xlink:href="../../d3/d22/classlime_1_1LMS7__Device.html#a86b0bf6d0162d61b5971851624d2e5cd" target="_top" xlink:title="lime::LMS7_Device::\lSetGFIR">
<polygon fill="white" stroke="black" points="117,-198 117,-228 225,-228 225,-198 117,-198"/>
<text text-anchor="start" x="125" y="-216" font-family="Helvetica,sans-Serif" font-size="10.00">lime::LMS7_Device::</text>
<text text-anchor="middle" x="171" y="-205" font-family="Helvetica,sans-Serif" font-size="10.00">SetGFIR</text>
</a>
</g>
</g>
<!-- Node1&#45;&gt;Node25 -->
<g id="edge27" class="edge"><title>Node1&#45;&gt;Node25</title>
<path fill="none" stroke="midnightblue" d="M53.8211,-304.316C74.2014,-288.297 115.403,-255.913 142.855,-234.336"/>
<polygon fill="midnightblue" stroke="midnightblue" points="145.195,-236.948 150.895,-228.017 140.87,-231.445 145.195,-236.948"/>
</g>
<!-- Node4 -->
<g id="node4" class="node"><title>Node4</title>
<g id="a_node4"><a xlink:href="../../d4/d67/lms_8c.html#a433227191fe883dcb8aa15d291bb29a1" target="_top" xlink:title="Case1F">
<polygon fill="white" stroke="black" points="578.5,-494.5 578.5,-513.5 629.5,-513.5 629.5,-494.5 578.5,-494.5"/>
<text text-anchor="middle" x="604" y="-501.5" font-family="Helvetica,sans-Serif" font-size="10.00">Case1F</text>
</a>
</g>
</g>
<!-- Node3&#45;&gt;Node4 -->
<g id="edge3" class="edge"><title>Node3&#45;&gt;Node4</title>
<path fill="none" stroke="midnightblue" d="M474.374,-266.867C481.291,-300.957 508.249,-415.474 570,-485 571.015,-486.143 572.116,-487.235 573.279,-488.275"/>
<polygon fill="midnightblue" stroke="midnightblue" points="571.473,-491.291 581.604,-494.391 575.618,-485.649 571.473,-491.291"/>
</g>
<!-- Node5 -->
<g id="node5" class="node"><title>Node5</title>
<g id="a_node5"><a xlink:href="../../d4/d67/lms_8c.html#ace0cd8bf61cb9b86b98f0cef03b5a9d9" target="_top" xlink:title="Case2F">
<polygon fill="white" stroke="black" points="578.5,-456.5 578.5,-475.5 629.5,-475.5 629.5,-456.5 578.5,-456.5"/>
<text text-anchor="middle" x="604" y="-463.5" font-family="Helvetica,sans-Serif" font-size="10.00">Case2F</text>
</a>
</g>
</g>
<!-- Node3&#45;&gt;Node5 -->
<g id="edge4" class="edge"><title>Node3&#45;&gt;Node5</title>
<path fill="none" stroke="midnightblue" d="M475.345,-266.866C484.497,-297.139 515.779,-390.096 570,-447 571.191,-448.25 572.483,-449.443 573.843,-450.578"/>
<polygon fill="midnightblue" stroke="midnightblue" points="571.949,-453.525 582.139,-456.424 575.981,-447.803 571.949,-453.525"/>
</g>
<!-- Node6 -->
<g id="node6" class="node"><title>Node6</title>
<g id="a_node6"><a xlink:href="../../d4/d67/lms_8c.html#a5f53b53ccc591e3643c4af2aee2e7f32" target="_top" xlink:title="Case3F">
<polygon fill="white" stroke="black" points="578.5,-418.5 578.5,-437.5 629.5,-437.5 629.5,-418.5 578.5,-418.5"/>
<text text-anchor="middle" x="604" y="-425.5" font-family="Helvetica,sans-Serif" font-size="10.00">Case3F</text>
</a>
</g>
</g>
<!-- Node3&#45;&gt;Node6 -->
<g id="edge5" class="edge"><title>Node3&#45;&gt;Node6</title>
<path fill="none" stroke="midnightblue" d="M476.686,-266.653C488.269,-292.478 523.024,-364.224 570,-409 571.283,-410.223 572.659,-411.398 574.095,-412.522"/>
<polygon fill="midnightblue" stroke="midnightblue" points="572.495,-415.666 582.737,-418.377 576.421,-409.87 572.495,-415.666"/>
</g>
<!-- Node7 -->
<g id="node7" class="node"><title>Node7</title>
<g id="a_node7"><a xlink:href="../../d4/d67/lms_8c.html#a5086763d5b258349bc13d6be7e7d0665" target="_top" xlink:title="Case4F">
<polygon fill="white" stroke="black" points="578.5,-380.5 578.5,-399.5 629.5,-399.5 629.5,-380.5 578.5,-380.5"/>
<text text-anchor="middle" x="604" y="-387.5" font-family="Helvetica,sans-Serif" font-size="10.00">Case4F</text>
</a>
</g>
</g>
<!-- Node3&#45;&gt;Node7 -->
<g id="edge6" class="edge"><title>Node3&#45;&gt;Node7</title>
<path fill="none" stroke="midnightblue" d="M478.918,-266.515C493.327,-287.373 530.123,-337.898 570,-371 571.564,-372.298 573.229,-373.559 574.947,-374.772"/>
<polygon fill="midnightblue" stroke="midnightblue" points="573.456,-377.972 583.769,-380.398 577.219,-372.07 573.456,-377.972"/>
</g>
<!-- Node8 -->
<g id="node8" class="node"><title>Node8</title>
<g id="a_node8"><a xlink:href="../../d4/d67/lms_8c.html#ac81ca32708341eb34b25d515d00bc748" target="_top" xlink:title="vector">
<polygon fill="white" stroke="black" points="582,-342.5 582,-361.5 626,-361.5 626,-342.5 582,-342.5"/>
<text text-anchor="middle" x="604" y="-349.5" font-family="Helvetica,sans-Serif" font-size="10.00">vector</text>
</a>
</g>
</g>
<!-- Node3&#45;&gt;Node8 -->
<g id="edge7" class="edge"><title>Node3&#45;&gt;Node8</title>
<path fill="none" stroke="midnightblue" d="M483.814,-266.667C501.593,-281.66 537.414,-311.075 570,-333 572.112,-334.421 574.335,-335.844 576.588,-337.237"/>
<polygon fill="midnightblue" stroke="midnightblue" points="574.869,-340.287 585.254,-342.388 578.446,-334.27 574.869,-340.287"/>
</g>
<!-- Node9 -->
<g id="node9" class="node"><title>Node9</title>
<g id="a_node9"><a xlink:href="../../d4/d67/lms_8c.html#a37bcb1539d76b53344102435e2ab9c91" target="_top" xlink:title="matrix">
<polygon fill="white" stroke="black" points="582,-304.5 582,-323.5 626,-323.5 626,-304.5 582,-304.5"/>
<text text-anchor="middle" x="604" y="-311.5" font-family="Helvetica,sans-Serif" font-size="10.00">matrix</text>
</a>
</g>
</g>
<!-- Node3&#45;&gt;Node9 -->
<g id="edge8" class="edge"><title>Node3&#45;&gt;Node9</title>
<path fill="none" stroke="midnightblue" d="M487.725,-263.65C508.444,-272.7 545.981,-289.095 572.586,-300.716"/>
<polygon fill="midnightblue" stroke="midnightblue" points="571.276,-303.963 581.841,-304.758 574.078,-297.548 571.276,-303.963"/>
</g>
<!-- Node10 -->
<g id="node10" class="node"><title>Node10</title>
<g id="a_node10"><a xlink:href="../../d4/d67/lms_8c.html#ad1d6c875ff429888b51dd1155f0311ad" target="_top" xlink:title="ivector">
<polygon fill="white" stroke="black" points="581,-266.5 581,-285.5 627,-285.5 627,-266.5 581,-266.5"/>
<text text-anchor="middle" x="604" y="-273.5" font-family="Helvetica,sans-Serif" font-size="10.00">ivector</text>
</a>
</g>
</g>
<!-- Node3&#45;&gt;Node10 -->
<g id="edge9" class="edge"><title>Node3&#45;&gt;Node10</title>
<path fill="none" stroke="midnightblue" d="M487.725,-259.217C508.025,-262.172 544.469,-267.478 570.958,-271.335"/>
<polygon fill="midnightblue" stroke="midnightblue" points="570.519,-274.808 580.919,-272.785 571.528,-267.881 570.519,-274.808"/>
</g>
<!-- Node11 -->
<g id="node11" class="node"><title>Node11</title>
<g id="a_node11"><a xlink:href="../../db/de5/recipes_8c.html#a623fec796d9d53e5e4a4d30226547da7" target="_top" xlink:title="ludcmp">
<polygon fill="white" stroke="black" points="580,-228.5 580,-247.5 628,-247.5 628,-228.5 580,-228.5"/>
<text text-anchor="middle" x="604" y="-235.5" font-family="Helvetica,sans-Serif" font-size="10.00">ludcmp</text>
</a>
</g>
</g>
<!-- Node3&#45;&gt;Node11 -->
<g id="edge10" class="edge"><title>Node3&#45;&gt;Node11</title>
<path fill="none" stroke="midnightblue" d="M487.725,-254.783C507.788,-251.862 543.619,-246.646 570.024,-242.801"/>
<polygon fill="midnightblue" stroke="midnightblue" points="570.591,-246.256 579.982,-241.351 569.583,-239.329 570.591,-246.256"/>
</g>
<!-- Node14 -->
<g id="node14" class="node"><title>Node14</title>
<g id="a_node14"><a xlink:href="../../db/de5/recipes_8c.html#a8214a52d888e820222c0382648329c0c" target="_top" xlink:title="free_vector">
<polygon fill="white" stroke="black" points="674,-190.5 674,-209.5 739,-209.5 739,-190.5 674,-190.5"/>
<text text-anchor="middle" x="706.5" y="-197.5" font-family="Helvetica,sans-Serif" font-size="10.00">free_vector</text>
</a>
</g>
</g>
<!-- Node3&#45;&gt;Node14 -->
<g id="edge22" class="edge"><title>Node3&#45;&gt;Node14</title>
<path fill="none" stroke="midnightblue" d="M487.668,-249.81C506.537,-241.168 539.942,-226.85 570,-219 600.841,-210.945 636.579,-206.114 663.607,-203.34"/>
<polygon fill="midnightblue" stroke="midnightblue" points="664.264,-206.793 673.878,-202.342 663.586,-199.826 664.264,-206.793"/>
</g>
<!-- Node15 -->
<g id="node15" class="node"><title>Node15</title>
<g id="a_node15"><a xlink:href="../../db/de5/recipes_8c.html#a66ff65ad0355ec1f4a7722bcdafc8cd3" target="_top" xlink:title="lubksb">
<polygon fill="white" stroke="black" points="581.5,-152.5 581.5,-171.5 626.5,-171.5 626.5,-152.5 581.5,-152.5"/>
<text text-anchor="middle" x="604" y="-159.5" font-family="Helvetica,sans-Serif" font-size="10.00">lubksb</text>
</a>
</g>
</g>
<!-- Node3&#45;&gt;Node15 -->
<g id="edge15" class="edge"><title>Node3&#45;&gt;Node15</title>
<path fill="none" stroke="midnightblue" d="M487.14,-247.473C499.745,-239.159 518.325,-226.638 534,-215 550.496,-202.753 553.687,-198.49 570,-186 573.544,-183.287 577.342,-180.456 581.054,-177.729"/>
<polygon fill="midnightblue" stroke="midnightblue" points="583.372,-180.371 589.402,-171.66 579.256,-174.709 583.372,-180.371"/>
</g>
<!-- Node16 -->
<g id="node16" class="node"><title>Node16</title>
<g id="a_node16"><a xlink:href="../../d8/d91/rounding_8c.html#aca2670cc0fbf948a6b9cb670047c9d5b" target="_top" xlink:title="round2int">
<polygon fill="white" stroke="black" points="576,-114.5 576,-133.5 632,-133.5 632,-114.5 576,-114.5"/>
<text text-anchor="middle" x="604" y="-121.5" font-family="Helvetica,sans-Serif" font-size="10.00">round2int</text>
</a>
</g>
</g>
<!-- Node3&#45;&gt;Node16 -->
<g id="edge16" class="edge"><title>Node3&#45;&gt;Node16</title>
<path fill="none" stroke="midnightblue" d="M487.511,-249.596C501.056,-242.31 520.821,-230.098 534,-215 557.527,-188.047 545.456,-169.03 570,-143 571.185,-141.743 572.472,-140.545 573.827,-139.407"/>
<polygon fill="midnightblue" stroke="midnightblue" points="575.967,-142.181 582.111,-133.549 571.925,-136.465 575.967,-142.181"/>
</g>
<!-- Node18 -->
<g id="node18" class="node"><title>Node18</title>
<g id="a_node18"><a xlink:href="../../d8/d91/rounding_8c.html#aa8d7512cdf5bfbf811cef6a8a091c679" target="_top" xlink:title="round2csd">
<polygon fill="white" stroke="black" points="573,-76.5 573,-95.5 635,-95.5 635,-76.5 573,-76.5"/>
<text text-anchor="middle" x="604" y="-83.5" font-family="Helvetica,sans-Serif" font-size="10.00">round2csd</text>
</a>
</g>
</g>
<!-- Node3&#45;&gt;Node18 -->
<g id="edge18" class="edge"><title>Node3&#45;&gt;Node18</title>
<path fill="none" stroke="midnightblue" d="M487.511,-250.298C501.443,-243.353 521.813,-231.234 534,-215 564.883,-173.862 537.561,-144.923 570,-105 570.938,-103.846 571.966,-102.747 573.061,-101.704"/>
<polygon fill="midnightblue" stroke="midnightblue" points="575.205,-104.471 581.015,-95.6114 570.948,-98.9142 575.205,-104.471"/>
</g>
<!-- Node21 -->
<g id="node21" class="node"><title>Node21</title>
<g id="a_node21"><a xlink:href="../../db/de5/recipes_8c.html#a3e0d121b098c19c0bdc2429e5b9f1625" target="_top" xlink:title="free_matrix">
<polygon fill="white" stroke="black" points="571.5,-38.5 571.5,-57.5 636.5,-57.5 636.5,-38.5 571.5,-38.5"/>
<text text-anchor="middle" x="604" y="-45.5" font-family="Helvetica,sans-Serif" font-size="10.00">free_matrix</text>
</a>
</g>
</g>
<!-- Node3&#45;&gt;Node21 -->
<g id="edge23" class="edge"><title>Node3&#45;&gt;Node21</title>
<path fill="none" stroke="midnightblue" d="M487.528,-250.634C501.676,-243.862 522.379,-231.801 534,-215 572.509,-159.325 529.383,-121.157 570,-67 570.781,-65.9588 571.637,-64.9653 572.552,-64.0185"/>
<polygon fill="midnightblue" stroke="midnightblue" points="574.861,-66.6528 580.45,-57.6521 570.468,-61.2028 574.861,-66.6528"/>
</g>
<!-- Node22 -->
<g id="node22" class="node"><title>Node22</title>
<g id="a_node22"><a xlink:href="../../db/de5/recipes_8c.html#aee25e218394217a134e805ea09fb0fe9" target="_top" xlink:title="free_ivector">
<polygon fill="white" stroke="black" points="570,-0.5 570,-19.5 638,-19.5 638,-0.5 570,-0.5"/>
<text text-anchor="middle" x="604" y="-7.5" font-family="Helvetica,sans-Serif" font-size="10.00">free_ivector</text>
</a>
</g>
</g>
<!-- Node3&#45;&gt;Node22 -->
<g id="edge24" class="edge"><title>Node3&#45;&gt;Node22</title>
<path fill="none" stroke="midnightblue" d="M487.705,-250.753C501.984,-244.069 522.781,-232.072 534,-215 580.243,-144.634 521.091,-97.5396 570,-29 570.756,-27.9406 571.591,-26.9317 572.488,-25.9719"/>
<polygon fill="midnightblue" stroke="midnightblue" points="574.802,-28.6005 580.31,-19.5495 570.36,-23.1905 574.802,-28.6005"/>
</g>
<!-- Node12 -->
<g id="node12" class="node"><title>Node12</title>
<g id="a_node12"><a xlink:href="../../db/de5/recipes_8c.html#a5e6092211a5f7e2d6ae9282379d3c604" target="_top" xlink:title="vector">
<polygon fill="white" stroke="black" points="684.5,-266.5 684.5,-285.5 728.5,-285.5 728.5,-266.5 684.5,-266.5"/>
<text text-anchor="middle" x="706.5" y="-273.5" font-family="Helvetica,sans-Serif" font-size="10.00">vector</text>
</a>
</g>
</g>
<!-- Node11&#45;&gt;Node12 -->
<g id="edge11" class="edge"><title>Node11&#45;&gt;Node12</title>
<path fill="none" stroke="midnightblue" d="M628.057,-246.718C641.938,-251.967 659.781,-258.713 674.84,-264.407"/>
<polygon fill="midnightblue" stroke="midnightblue" points="673.674,-267.708 684.265,-267.971 676.149,-261.16 673.674,-267.708"/>
</g>
<!-- Node13 -->
<g id="node13" class="node"><title>Node13</title>
<g id="a_node13"><a xlink:href="../../db/de5/recipes_8c.html#a208e98f19b2f252315399d02c0594a46" target="_top" xlink:title="nrerror">
<polygon fill="white" stroke="black" points="775,-247.5 775,-266.5 819,-266.5 819,-247.5 775,-247.5"/>
<text text-anchor="middle" x="797" y="-254.5" font-family="Helvetica,sans-Serif" font-size="10.00">nrerror</text>
</a>
</g>
</g>
<!-- Node11&#45;&gt;Node13 -->
<g id="edge14" class="edge"><title>Node11&#45;&gt;Node13</title>
<path fill="none" stroke="midnightblue" d="M628.039,-240.292C662.23,-243.693 726.482,-250.085 764.842,-253.9"/>
<polygon fill="midnightblue" stroke="midnightblue" points="764.631,-257.397 774.928,-254.904 765.324,-250.431 764.631,-257.397"/>
</g>
<!-- Node11&#45;&gt;Node14 -->
<g id="edge13" class="edge"><title>Node11&#45;&gt;Node14</title>
<path fill="none" stroke="midnightblue" d="M628.057,-229.282C640.676,-224.511 656.569,-218.501 670.668,-213.17"/>
<polygon fill="midnightblue" stroke="midnightblue" points="671.965,-216.422 680.081,-209.611 669.489,-209.874 671.965,-216.422"/>
</g>
<!-- Node12&#45;&gt;Node13 -->
<g id="edge12" class="edge"><title>Node12&#45;&gt;Node13</title>
<path fill="none" stroke="midnightblue" d="M728.923,-271.401C739.685,-269.09 752.928,-266.247 764.796,-263.699"/>
<polygon fill="midnightblue" stroke="midnightblue" points="765.731,-267.078 774.774,-261.557 764.262,-260.234 765.731,-267.078"/>
</g>
<!-- Node17 -->
<g id="node17" class="node"><title>Node17</title>
<g id="a_node17"><a xlink:href="../../db/d82/wglew_8h.html#a500a82aecba06f4550f6849b8099ca21" target="_top" xlink:title="int">
<polygon fill="white" stroke="black" points="692,-114.5 692,-133.5 721,-133.5 721,-114.5 692,-114.5"/>
<text text-anchor="middle" x="706.5" y="-121.5" font-family="Helvetica,sans-Serif" font-size="10.00">int</text>
</a>
</g>
</g>
<!-- Node16&#45;&gt;Node17 -->
<g id="edge17" class="edge"><title>Node16&#45;&gt;Node17</title>
<path fill="none" stroke="midnightblue" d="M632.197,-124C647.576,-124 666.634,-124 681.462,-124"/>
<polygon fill="midnightblue" stroke="midnightblue" points="681.846,-127.5 691.846,-124 681.846,-120.5 681.846,-127.5"/>
</g>
<!-- Node18&#45;&gt;Node17 -->
<g id="edge19" class="edge"><title>Node18&#45;&gt;Node17</title>
<path fill="none" stroke="midnightblue" d="M630.36,-95.589C646.388,-101.649 666.934,-109.418 682.49,-115.3"/>
<polygon fill="midnightblue" stroke="midnightblue" points="681.302,-118.592 691.894,-118.855 683.778,-112.045 681.302,-118.592"/>
</g>
<!-- Node19 -->
<g id="node19" class="node"><title>Node19</title>
<g id="a_node19"><a xlink:href="../../d8/d91/rounding_8c.html#ab3a64ec72c5600bc114621e93309c8c3" target="_top" xlink:title="int2csd">
<polygon fill="white" stroke="black" points="682.5,-76.5 682.5,-95.5 730.5,-95.5 730.5,-76.5 682.5,-76.5"/>
<text text-anchor="middle" x="706.5" y="-83.5" font-family="Helvetica,sans-Serif" font-size="10.00">int2csd</text>
</a>
</g>
</g>
<!-- Node18&#45;&gt;Node19 -->
<g id="edge20" class="edge"><title>Node18&#45;&gt;Node19</title>
<path fill="none" stroke="midnightblue" d="M635.153,-86C646.87,-86 660.331,-86 672.321,-86"/>
<polygon fill="midnightblue" stroke="midnightblue" points="672.398,-89.5001 682.398,-86 672.398,-82.5001 672.398,-89.5001"/>
</g>
<!-- Node20 -->
<g id="node20" class="node"><title>Node20</title>
<g id="a_node20"><a xlink:href="../../d8/d91/rounding_8c.html#a2cff6b77e73872659c44b0c99f6bd97f" target="_top" xlink:title="csd2int">
<polygon fill="white" stroke="black" points="682.5,-38.5 682.5,-57.5 730.5,-57.5 730.5,-38.5 682.5,-38.5"/>
<text text-anchor="middle" x="706.5" y="-45.5" font-family="Helvetica,sans-Serif" font-size="10.00">csd2int</text>
</a>
</g>
</g>
<!-- Node18&#45;&gt;Node20 -->
<g id="edge21" class="edge"><title>Node18&#45;&gt;Node20</title>
<path fill="none" stroke="midnightblue" d="M630.36,-76.411C643.181,-71.5633 658.894,-65.6221 672.631,-60.4281"/>
<polygon fill="midnightblue" stroke="midnightblue" points="674.099,-63.6151 682.214,-56.8045 671.623,-57.0675 674.099,-63.6151"/>
</g>
<!-- Node24 -->
<g id="node24" class="node"><title>Node24</title>
<g id="a_node24"><a xlink:href="../../d9/df5/Logger_8cpp.html#ada38bf01d6d691de953ed69268ea6516" target="_top" xlink:title="errToStr">
<polygon fill="white" stroke="black" points="291,-285.5 291,-304.5 343,-304.5 343,-285.5 291,-285.5"/>
<text text-anchor="middle" x="317" y="-292.5" font-family="Helvetica,sans-Serif" font-size="10.00">errToStr</text>
</a>
</g>
</g>
<!-- Node23&#45;&gt;Node24 -->
<g id="edge26" class="edge"><title>Node23&#45;&gt;Node24</title>
<path fill="none" stroke="midnightblue" d="M216.773,-295C237.393,-295 261.507,-295 280.799,-295"/>
<polygon fill="midnightblue" stroke="midnightblue" points="280.969,-298.5 290.969,-295 280.968,-291.5 280.969,-298.5"/>
</g>
<!-- Node25&#45;&gt;Node3 -->
<g id="edge28" class="edge"><title>Node25&#45;&gt;Node3</title>
<path fill="none" stroke="midnightblue" d="M222.027,-228.072C234.652,-231.437 248.245,-234.688 261,-237 326.888,-248.941 405.808,-254.035 445.333,-255.966"/>
<polygon fill="midnightblue" stroke="midnightblue" points="445.243,-259.465 455.393,-256.43 445.565,-252.473 445.243,-259.465"/>
</g>
<!-- Node26 -->
<g id="node26" class="node"><title>Node26</title>
<g id="a_node26"><a xlink:href="../../d3/d22/classlime_1_1LMS7__Device.html#a4ac84063a505d3686527f8ffc28bb9d7" target="_top" xlink:title="lime::LMS7_Device::\lSelectChannel">
<polygon fill="white" stroke="black" points="263,-198 263,-228 371,-228 371,-198 263,-198"/>
<text text-anchor="start" x="271" y="-216" font-family="Helvetica,sans-Serif" font-size="10.00">lime::LMS7_Device::</text>
<text text-anchor="middle" x="317" y="-205" font-family="Helvetica,sans-Serif" font-size="10.00">SelectChannel</text>
</a>
</g>
</g>
<!-- Node25&#45;&gt;Node26 -->
<g id="edge29" class="edge"><title>Node25&#45;&gt;Node26</title>
<path fill="none" stroke="midnightblue" d="M225.211,-213C234.059,-213 243.314,-213 252.389,-213"/>
<polygon fill="midnightblue" stroke="midnightblue" points="252.527,-216.5 262.527,-213 252.527,-209.5 252.527,-216.5"/>
</g>
<!-- Node27 -->
<g id="node27" class="node"><title>Node27</title>
<g id="a_node27"><a xlink:href="../../db/d1d/classlime_1_1LMS7002M.html#afaf3843f7acef055ebbe0c0576ec8fee" target="_top" xlink:title="Change given parameter value. ">
<polygon fill="white" stroke="black" points="409,-176 409,-206 534,-206 534,-176 409,-176"/>
<text text-anchor="start" x="417" y="-194" font-family="Helvetica,sans-Serif" font-size="10.00">lime::LMS7002M::Modify</text>
<text text-anchor="middle" x="471.5" y="-183" font-family="Helvetica,sans-Serif" font-size="10.00">_SPI_Reg_bits</text>
</a>
</g>
</g>
<!-- Node25&#45;&gt;Node27 -->
<g id="edge32" class="edge"><title>Node25&#45;&gt;Node27</title>
<path fill="none" stroke="midnightblue" d="M216.314,-197.979C230.425,-193.894 246.214,-190.037 261,-188 306.511,-181.729 358.107,-182.376 398.707,-184.641"/>
<polygon fill="midnightblue" stroke="midnightblue" points="398.589,-188.14 408.782,-185.249 399.011,-181.153 398.589,-188.14"/>
</g>
<!-- Node28 -->
<g id="node28" class="node"><title>Node28</title>
<g id="a_node28"><a xlink:href="../../db/d1d/classlime_1_1LMS7002M.html#a770393845fa2d4aab5e74c33c31247e9" target="_top" xlink:title="Returns given parameter value from chip register. ">
<polygon fill="white" stroke="black" points="261,-110 261,-140 373,-140 373,-110 261,-110"/>
<text text-anchor="start" x="269" y="-128" font-family="Helvetica,sans-Serif" font-size="10.00">lime::LMS7002M::Get</text>
<text text-anchor="middle" x="317" y="-117" font-family="Helvetica,sans-Serif" font-size="10.00">_SPI_Reg_bits</text>
</a>
</g>
</g>
<!-- Node25&#45;&gt;Node28 -->
<g id="edge33" class="edge"><title>Node25&#45;&gt;Node28</title>
<path fill="none" stroke="midnightblue" d="M194.006,-197.971C211.834,-185.963 237.725,-168.903 261,-155 266.515,-151.706 272.413,-148.335 278.223,-145.098"/>
<polygon fill="midnightblue" stroke="midnightblue" points="280.14,-148.038 287.214,-140.151 276.766,-141.905 280.14,-148.038"/>
</g>
<!-- Node26&#45;&gt;Node3 -->
<g id="edge30" class="edge"><title>Node26&#45;&gt;Node3</title>
<path fill="none" stroke="midnightblue" d="M370.055,-228.019C395.625,-235.397 425.245,-243.943 445.661,-249.833"/>
<polygon fill="midnightblue" stroke="midnightblue" points="444.849,-253.242 455.428,-252.651 446.79,-246.516 444.849,-253.242"/>
</g>
<!-- Node26&#45;&gt;Node27 -->
<g id="edge31" class="edge"><title>Node26&#45;&gt;Node27</title>
<path fill="none" stroke="midnightblue" d="M371.337,-205.305C380.231,-204.022 389.583,-202.673 398.845,-201.337"/>
<polygon fill="midnightblue" stroke="midnightblue" points="399.435,-204.788 408.833,-199.896 398.436,-197.86 399.435,-204.788"/>
</g>
</g>
</svg>
