<?xml version="1.0" encoding="UTF-8" standalone="no"?>
<!DOCTYPE svg PUBLIC "-//W3C//DTD SVG 1.1//EN"
 "http://www.w3.org/Graphics/SVG/1.1/DTD/svg11.dtd">
<!-- Generated by graphviz version 2.38.0 (20140413.2041)
 -->
<!-- Title: LMS_WriteFPGAReg Pages: 1 -->
<svg width="1220pt" height="798pt"
 viewBox="0.00 0.00 1220.00 797.50" xmlns="http://www.w3.org/2000/svg" xmlns:xlink="http://www.w3.org/1999/xlink">
<g id="graph0" class="graph" transform="scale(1 1) rotate(0) translate(4 793.5)">
<title>LMS_WriteFPGAReg</title>
<polygon fill="white" stroke="none" points="-4,4 -4,-793.5 1216,-793.5 1216,4 -4,4"/>
<!-- Node1 -->
<g id="node1" class="node"><title>Node1</title>
<polygon fill="#bfbfbf" stroke="black" points="0,-342.5 0,-361.5 110,-361.5 110,-342.5 0,-342.5"/>
<text text-anchor="middle" x="55" y="-349.5" font-family="Helvetica,sans-Serif" font-size="10.00">LMS_WriteFPGAReg</text>
</g>
<!-- Node2 -->
<g id="node2" class="node"><title>Node2</title>
<g id="a_node2"><a xlink:href="../../d5/d92/classpnlQSpark.html#a240f40e2967cfd78e5609101c28b3463" target="_top" xlink:title="pnlQSpark::Initialize">
<polygon fill="white" stroke="black" points="180,-627.5 180,-646.5 284,-646.5 284,-627.5 180,-627.5"/>
<text text-anchor="middle" x="232" y="-634.5" font-family="Helvetica,sans-Serif" font-size="10.00">pnlQSpark::Initialize</text>
</a>
</g>
</g>
<!-- Node1&#45;&gt;Node2 -->
<g id="edge1" class="edge"><title>Node1&#45;&gt;Node2</title>
<path fill="none" stroke="midnightblue" d="M61.0243,-371.538C71.794,-410.822 99.9348,-500.997 146,-564 165.748,-591.008 197.33,-614.678 215.929,-627.303"/>
<polygon fill="midnightblue" stroke="midnightblue" points="64.3514,-370.43 58.3944,-361.669 57.5875,-372.233 64.3514,-370.43"/>
</g>
<!-- Node13 -->
<g id="node13" class="node"><title>Node13</title>
<g id="a_node13"><a xlink:href="../../df/de1/lms7__api_8cpp.html#abd52e9c4a89706ff53c3c59894f1b932" target="_top" xlink:title="LMS_EnableTxWFM">
<polygon fill="white" stroke="black" points="178.5,-535.5 178.5,-554.5 285.5,-554.5 285.5,-535.5 178.5,-535.5"/>
<text text-anchor="middle" x="232" y="-542.5" font-family="Helvetica,sans-Serif" font-size="10.00">LMS_EnableTxWFM</text>
</a>
</g>
</g>
<!-- Node1&#45;&gt;Node13 -->
<g id="edge15" class="edge"><title>Node1&#45;&gt;Node13</title>
<path fill="none" stroke="midnightblue" d="M62.6859,-371.294C74.6945,-403.403 102.768,-468.11 146,-507 160.541,-520.081 180.326,-529.285 197.149,-535.356"/>
<polygon fill="midnightblue" stroke="midnightblue" points="65.9227,-369.953 59.2306,-361.739 59.3399,-372.333 65.9227,-369.953"/>
</g>
<!-- Node22 -->
<g id="node22" class="node"><title>Node22</title>
<g id="a_node22"><a xlink:href="../../df/dc8/classSPI__wxgui.html#aa8be3c74577417b233dfe0586ca0f572" target="_top" xlink:title="SPI_wxgui::onBoardWrite">
<polygon fill="white" stroke="black" points="167.5,-418.5 167.5,-437.5 296.5,-437.5 296.5,-418.5 167.5,-418.5"/>
<text text-anchor="middle" x="232" y="-425.5" font-family="Helvetica,sans-Serif" font-size="10.00">SPI_wxgui::onBoardWrite</text>
</a>
</g>
</g>
<!-- Node1&#45;&gt;Node22 -->
<g id="edge25" class="edge"><title>Node1&#45;&gt;Node22</title>
<path fill="none" stroke="midnightblue" d="M78.5784,-367.165C96.3059,-378.54 121.934,-393.838 146,-404 159.702,-409.786 175.224,-414.633 189.22,-418.422"/>
<polygon fill="midnightblue" stroke="midnightblue" points="80.3665,-364.153 70.0783,-361.622 76.5429,-370.016 80.3665,-364.153"/>
</g>
<!-- Node23 -->
<g id="node23" class="node"><title>Node23</title>
<g id="a_node23"><a xlink:href="../../d5/d92/classpnlQSpark.html#ad6c8ad2aaa8af15adaa95e5a86eb9853" target="_top" xlink:title="pnlQSpark::OnbtnUpdateAll">
<polygon fill="white" stroke="black" points="163.5,-304.5 163.5,-323.5 300.5,-323.5 300.5,-304.5 163.5,-304.5"/>
<text text-anchor="middle" x="232" y="-311.5" font-family="Helvetica,sans-Serif" font-size="10.00">pnlQSpark::OnbtnUpdateAll</text>
</a>
</g>
</g>
<!-- Node1&#45;&gt;Node23 -->
<g id="edge26" class="edge"><title>Node1&#45;&gt;Node23</title>
<path fill="none" stroke="midnightblue" d="M110.124,-340.247C134.869,-334.874 163.803,-328.591 187.158,-323.52"/>
<polygon fill="midnightblue" stroke="midnightblue" points="109.189,-336.869 100.16,-342.411 110.675,-343.709 109.189,-336.869"/>
</g>
<!-- Node26 -->
<g id="node26" class="node"><title>Node26</title>
<g id="a_node26"><a xlink:href="../../d5/d92/classpnlQSpark.html#a1c69c7c0f0e1ea927c44c303cedf1666" target="_top" xlink:title="pnlQSpark::OnSwitchToChannelA">
<polygon fill="white" stroke="black" points="354,-342.5 354,-361.5 519,-361.5 519,-342.5 354,-342.5"/>
<text text-anchor="middle" x="436.5" y="-349.5" font-family="Helvetica,sans-Serif" font-size="10.00">pnlQSpark::OnSwitchToChannelA</text>
</a>
</g>
</g>
<!-- Node1&#45;&gt;Node26 -->
<g id="edge49" class="edge"><title>Node1&#45;&gt;Node26</title>
<path fill="none" stroke="midnightblue" d="M120.403,-352C184.821,-352 284.116,-352 353.989,-352"/>
<polygon fill="midnightblue" stroke="midnightblue" points="120.373,-348.5 110.373,-352 120.373,-355.5 120.373,-348.5"/>
</g>
<!-- Node27 -->
<g id="node27" class="node"><title>Node27</title>
<g id="a_node27"><a xlink:href="../../d5/d92/classpnlQSpark.html#a42d295e1f72099d688b738b3e9b85958" target="_top" xlink:title="pnlQSpark::OnSwitchToChannelB">
<polygon fill="white" stroke="black" points="354,-266.5 354,-285.5 519,-285.5 519,-266.5 354,-266.5"/>
<text text-anchor="middle" x="436.5" y="-273.5" font-family="Helvetica,sans-Serif" font-size="10.00">pnlQSpark::OnSwitchToChannelB</text>
</a>
</g>
</g>
<!-- Node1&#45;&gt;Node27 -->
<g id="edge50" class="edge"><title>Node1&#45;&gt;Node27</title>
<path fill="none" stroke="midnightblue" d="M75.1117,-335.85C92.4033,-322.277 119.196,-303.736 146,-295 213.644,-272.954 294.776,-269.452 353.919,-270.742"/>
<polygon fill="midnightblue" stroke="midnightblue" points="72.5638,-333.409 66.9856,-342.416 76.9634,-338.853 72.5638,-333.409"/>
</g>
<!-- Node28 -->
<g id="node28" class="node"><title>Node28</title>
<g id="a_node28"><a xlink:href="../../d7/db5/classFPGAcontrols__wxgui.html#ad95c780119f7697abbe4236d07951389" target="_top" xlink:title="FPGAcontrols_wxgui\l::OnChkDigitalLoopbackEnable\lClick">
<polygon fill="white" stroke="black" points="155.5,-456.5 155.5,-497.5 308.5,-497.5 308.5,-456.5 155.5,-456.5"/>
<text text-anchor="start" x="163.5" y="-485.5" font-family="Helvetica,sans-Serif" font-size="10.00">FPGAcontrols_wxgui</text>
<text text-anchor="start" x="163.5" y="-474.5" font-family="Helvetica,sans-Serif" font-size="10.00">::OnChkDigitalLoopbackEnable</text>
<text text-anchor="middle" x="232" y="-463.5" font-family="Helvetica,sans-Serif" font-size="10.00">Click</text>
</a>
</g>
</g>
<!-- Node1&#45;&gt;Node28 -->
<g id="edge33" class="edge"><title>Node1&#45;&gt;Node28</title>
<path fill="none" stroke="midnightblue" d="M68.5046,-369.607C84.3337,-390.719 113.487,-425.891 146,-447 151.381,-450.494 157.219,-453.638 163.229,-456.455"/>
<polygon fill="midnightblue" stroke="midnightblue" points="71.2995,-367.499 62.5656,-361.502 65.6531,-371.637 71.2995,-367.499"/>
</g>
<!-- Node29 -->
<g id="node29" class="node"><title>Node29</title>
<g id="a_node29"><a xlink:href="../../de/d23/classpnlLimeSDR.html#a810bf1926e3bfc29c40acaf1139fe911" target="_top" xlink:title="pnlLimeSDR::OnGPIOChange">
<polygon fill="white" stroke="black" points="157.5,-114.5 157.5,-133.5 306.5,-133.5 306.5,-114.5 157.5,-114.5"/>
<text text-anchor="middle" x="232" y="-121.5" font-family="Helvetica,sans-Serif" font-size="10.00">pnlLimeSDR::OnGPIOChange</text>
</a>
</g>
</g>
<!-- Node1&#45;&gt;Node29 -->
<g id="edge35" class="edge"><title>Node1&#45;&gt;Node29</title>
<path fill="none" stroke="midnightblue" d="M63.6449,-333.08C77.0623,-301.374 107.152,-236.518 146,-191 166.615,-166.846 197.055,-145.384 215.364,-133.586"/>
<polygon fill="midnightblue" stroke="midnightblue" points="60.3421,-331.907 59.7453,-342.485 66.8084,-334.588 60.3421,-331.907"/>
</g>
<!-- Node32 -->
<g id="node32" class="node"><title>Node32</title>
<g id="a_node32"><a xlink:href="../../d9/d93/classpnluLimeSDR.html#a902fe0cb32c87cab407cdaa9c312e4d2" target="_top" xlink:title="pnluLimeSDR::OnLoopbackChange">
<polygon fill="white" stroke="black" points="146,-38.5 146,-57.5 318,-57.5 318,-38.5 146,-38.5"/>
<text text-anchor="middle" x="232" y="-45.5" font-family="Helvetica,sans-Serif" font-size="10.00">pnluLimeSDR::OnLoopbackChange</text>
</a>
</g>
</g>
<!-- Node1&#45;&gt;Node32 -->
<g id="edge38" class="edge"><title>Node1&#45;&gt;Node32</title>
<path fill="none" stroke="midnightblue" d="M58.892,-332.39C66.3079,-287.788 89.5399,-177.039 146,-105 162.879,-83.4639 190.21,-67.2114 209.31,-57.6791"/>
<polygon fill="midnightblue" stroke="midnightblue" points="55.4038,-332.042 57.3034,-342.465 62.3183,-333.132 55.4038,-332.042"/>
</g>
<!-- Node35 -->
<g id="node35" class="node"><title>Node35</title>
<g id="a_node35"><a xlink:href="../../d5/d92/classpnlQSpark.html#ae7cb54dd959f523c60d3a9f12bdb7faf" target="_top" xlink:title="pnlQSpark::OnNcoFrequency\lChanged">
<polygon fill="white" stroke="black" points="159.5,-201 159.5,-231 304.5,-231 304.5,-201 159.5,-201"/>
<text text-anchor="start" x="167.5" y="-219" font-family="Helvetica,sans-Serif" font-size="10.00">pnlQSpark::OnNcoFrequency</text>
<text text-anchor="middle" x="232" y="-208" font-family="Helvetica,sans-Serif" font-size="10.00">Changed</text>
</a>
</g>
</g>
<!-- Node1&#45;&gt;Node35 -->
<g id="edge41" class="edge"><title>Node1&#45;&gt;Node35</title>
<path fill="none" stroke="midnightblue" d="M70.5311,-334.713C87.3486,-315.403 116.527,-283.977 146,-262 162.007,-250.064 181.499,-239.285 197.778,-231.167"/>
<polygon fill="midnightblue" stroke="midnightblue" points="67.7736,-332.552 63.9163,-342.419 73.0853,-337.111 67.7736,-332.552"/>
</g>
<!-- Node39 -->
<g id="node39" class="node"><title>Node39</title>
<g id="a_node39"><a xlink:href="../../d5/d92/classpnlQSpark.html#a9fed15521f17df0770bea81381a0def7" target="_top" xlink:title="pnlQSpark::RegisterParameter\lChangeHandler">
<polygon fill="white" stroke="black" points="555,-381 555,-411 705,-411 705,-381 555,-381"/>
<text text-anchor="start" x="563" y="-399" font-family="Helvetica,sans-Serif" font-size="10.00">pnlQSpark::RegisterParameter</text>
<text text-anchor="middle" x="630" y="-388" font-family="Helvetica,sans-Serif" font-size="10.00">ChangeHandler</text>
</a>
</g>
</g>
<!-- Node1&#45;&gt;Node39 -->
<g id="edge51" class="edge"><title>Node1&#45;&gt;Node39</title>
<path fill="none" stroke="midnightblue" d="M120.216,-362.728C128.867,-363.957 137.639,-365.092 146,-366 290.289,-381.67 459.784,-389.852 554.763,-393.517"/>
<polygon fill="midnightblue" stroke="midnightblue" points="120.55,-359.24 110.148,-361.251 119.534,-366.166 120.55,-359.24"/>
</g>
<!-- Node3 -->
<g id="node3" class="node"><title>Node3</title>
<g id="a_node3"><a xlink:href="../../df/d93/classpnlBoardControls.html#a9b3b02be9d2210cbb83e313bde4af24e" target="_top" xlink:title="pnlBoardControls::SetupControls">
<polygon fill="white" stroke="black" points="356.5,-681.5 356.5,-700.5 516.5,-700.5 516.5,-681.5 356.5,-681.5"/>
<text text-anchor="middle" x="436.5" y="-688.5" font-family="Helvetica,sans-Serif" font-size="10.00">pnlBoardControls::SetupControls</text>
</a>
</g>
</g>
<!-- Node2&#45;&gt;Node3 -->
<g id="edge2" class="edge"><title>Node2&#45;&gt;Node3</title>
<path fill="none" stroke="midnightblue" d="M275.635,-649.354C298.77,-655.963 327.897,-664.132 354,-671 367.526,-674.559 382.368,-678.261 395.638,-681.499"/>
<polygon fill="midnightblue" stroke="midnightblue" points="276.364,-645.922 265.787,-646.532 274.436,-652.651 276.364,-645.922"/>
</g>
<!-- Node4 -->
<g id="node4" class="node"><title>Node4</title>
<g id="a_node4"><a xlink:href="../../df/d93/classpnlBoardControls.html#a8f1a27f7a4201cd55658f48bdf41ae20" target="_top" xlink:title="pnlBoardControls::pnlBoard\lControls">
<polygon fill="white" stroke="black" points="741,-710 741,-740 877,-740 877,-710 741,-710"/>
<text text-anchor="start" x="749" y="-728" font-family="Helvetica,sans-Serif" font-size="10.00">pnlBoardControls::pnlBoard</text>
<text text-anchor="middle" x="809" y="-717" font-family="Helvetica,sans-Serif" font-size="10.00">Controls</text>
</a>
</g>
</g>
<!-- Node3&#45;&gt;Node4 -->
<g id="edge3" class="edge"><title>Node3&#45;&gt;Node4</title>
<path fill="none" stroke="midnightblue" d="M526.494,-699.167C592.414,-705.216 680.849,-713.332 740.883,-718.841"/>
<polygon fill="midnightblue" stroke="midnightblue" points="526.805,-695.681 516.527,-698.252 526.165,-702.651 526.805,-695.681"/>
</g>
<!-- Node5 -->
<g id="node5" class="node"><title>Node5</title>
<g id="a_node5"><a xlink:href="../../df/d93/classpnlBoardControls.html#ad4e318fad186d4b2d50fcbf20e0b88be" target="_top" xlink:title="pnlBoardControls::Initialize">
<polygon fill="white" stroke="black" points="563,-627.5 563,-646.5 697,-646.5 697,-627.5 563,-627.5"/>
<text text-anchor="middle" x="630" y="-634.5" font-family="Helvetica,sans-Serif" font-size="10.00">pnlBoardControls::Initialize</text>
</a>
</g>
</g>
<!-- Node3&#45;&gt;Node5 -->
<g id="edge4" class="edge"><title>Node3&#45;&gt;Node5</title>
<path fill="none" stroke="midnightblue" d="M488.595,-678.952C498.7,-676.432 509.207,-673.713 519,-671 546.547,-663.37 577.641,-653.655 599.725,-646.566"/>
<polygon fill="midnightblue" stroke="midnightblue" points="487.538,-675.608 478.666,-681.399 489.213,-682.405 487.538,-675.608"/>
</g>
<!-- Node8 -->
<g id="node8" class="node"><title>Node8</title>
<g id="a_node8"><a xlink:href="../../d1/df3/classLMS7SuiteAppFrame.html#a819f017d3e706c433d9b7f4f9bc1f9c3" target="_top" xlink:title="LMS7SuiteAppFrame::\lOnControlBoardConnect">
<polygon fill="white" stroke="black" points="913,-619 913,-649 1036,-649 1036,-619 913,-619"/>
<text text-anchor="start" x="921" y="-637" font-family="Helvetica,sans-Serif" font-size="10.00">LMS7SuiteAppFrame::</text>
<text text-anchor="middle" x="974.5" y="-626" font-family="Helvetica,sans-Serif" font-size="10.00">OnControlBoardConnect</text>
</a>
</g>
</g>
<!-- Node3&#45;&gt;Node8 -->
<g id="edge14" class="edge"><title>Node3&#45;&gt;Node8</title>
<path fill="none" stroke="midnightblue" d="M526.761,-690.242C616.01,-688.237 756.89,-681.678 877,-661 893.459,-658.167 911.144,-653.661 926.821,-649.137"/>
<polygon fill="midnightblue" stroke="midnightblue" points="526.6,-686.745 516.676,-690.454 526.747,-693.743 526.6,-686.745"/>
</g>
<!-- Node11 -->
<g id="node11" class="node"><title>Node11</title>
<g id="a_node11"><a xlink:href="../../df/d93/classpnlBoardControls.html#a51e925b6e13e8d7540a102ac4fce8ca0" target="_top" xlink:title="pnlBoardControls::OnUser\lChangedBoardType">
<polygon fill="white" stroke="black" points="564.5,-748 564.5,-778 695.5,-778 695.5,-748 564.5,-748"/>
<text text-anchor="start" x="572.5" y="-766" font-family="Helvetica,sans-Serif" font-size="10.00">pnlBoardControls::OnUser</text>
<text text-anchor="middle" x="630" y="-755" font-family="Helvetica,sans-Serif" font-size="10.00">ChangedBoardType</text>
</a>
</g>
</g>
<!-- Node3&#45;&gt;Node11 -->
<g id="edge11" class="edge"><title>Node3&#45;&gt;Node11</title>
<path fill="none" stroke="midnightblue" d="M472.56,-704.182C505.372,-716.519 554.362,-734.938 588.757,-747.869"/>
<polygon fill="midnightblue" stroke="midnightblue" points="473.522,-700.804 462.93,-700.561 471.058,-707.356 473.522,-700.804"/>
</g>
<!-- Node6 -->
<g id="node6" class="node"><title>Node6</title>
<g id="a_node6"><a xlink:href="../../d1/df3/classLMS7SuiteAppFrame.html#aeaeb613a8c9139f0e60b02f1f612ed5d" target="_top" xlink:title="LMS7SuiteAppFrame::\lUpdateConnections">
<polygon fill="white" stroke="black" points="751,-573 751,-603 867,-603 867,-573 751,-573"/>
<text text-anchor="start" x="759" y="-591" font-family="Helvetica,sans-Serif" font-size="10.00">LMS7SuiteAppFrame::</text>
<text text-anchor="middle" x="809" y="-580" font-family="Helvetica,sans-Serif" font-size="10.00">UpdateConnections</text>
</a>
</g>
</g>
<!-- Node5&#45;&gt;Node6 -->
<g id="edge5" class="edge"><title>Node5&#45;&gt;Node6</title>
<path fill="none" stroke="midnightblue" d="M675.35,-624.722C699.104,-618.146 728.564,-609.991 753.683,-603.037"/>
<polygon fill="midnightblue" stroke="midnightblue" points="674.251,-621.395 665.548,-627.436 676.119,-628.141 674.251,-621.395"/>
</g>
<!-- Node10 -->
<g id="node10" class="node"><title>Node10</title>
<g id="a_node10"><a xlink:href="../../d1/df3/classLMS7SuiteAppFrame.html#a09672f8ba8960dff6646f0faaec54e1d" target="_top" xlink:title="LMS7SuiteAppFrame::\lOnShowBoardControls">
<polygon fill="white" stroke="black" points="751,-622 751,-652 867,-652 867,-622 751,-622"/>
<text text-anchor="start" x="759" y="-640" font-family="Helvetica,sans-Serif" font-size="10.00">LMS7SuiteAppFrame::</text>
<text text-anchor="middle" x="809" y="-629" font-family="Helvetica,sans-Serif" font-size="10.00">OnShowBoardControls</text>
</a>
</g>
</g>
<!-- Node5&#45;&gt;Node10 -->
<g id="edge10" class="edge"><title>Node5&#45;&gt;Node10</title>
<path fill="none" stroke="midnightblue" d="M707.216,-637C721.876,-637 736.995,-637 750.921,-637"/>
<polygon fill="midnightblue" stroke="midnightblue" points="707.16,-633.5 697.16,-637 707.16,-640.5 707.16,-633.5"/>
</g>
<!-- Node7 -->
<g id="node7" class="node"><title>Node7</title>
<g id="a_node7"><a xlink:href="../../d1/df3/classLMS7SuiteAppFrame.html#ad380f4e547c66fcfffdec0da53fe5b3e" target="_top" xlink:title="Constructor. ">
<polygon fill="white" stroke="black" points="1084,-573 1084,-603 1200,-603 1200,-573 1084,-573"/>
<text text-anchor="start" x="1092" y="-591" font-family="Helvetica,sans-Serif" font-size="10.00">LMS7SuiteAppFrame::</text>
<text text-anchor="middle" x="1142" y="-580" font-family="Helvetica,sans-Serif" font-size="10.00">LMS7SuiteAppFrame</text>
</a>
</g>
</g>
<!-- Node6&#45;&gt;Node7 -->
<g id="edge6" class="edge"><title>Node6&#45;&gt;Node7</title>
<path fill="none" stroke="midnightblue" d="M877.534,-588C938.285,-588 1026.55,-588 1083.87,-588"/>
<polygon fill="midnightblue" stroke="midnightblue" points="877.278,-584.5 867.278,-588 877.278,-591.5 877.278,-584.5"/>
</g>
<!-- Node6&#45;&gt;Node8 -->
<g id="edge7" class="edge"><title>Node6&#45;&gt;Node8</title>
<path fill="none" stroke="midnightblue" d="M873.506,-605.867C888.915,-610.202 905.236,-614.794 920.123,-618.983"/>
<polygon fill="midnightblue" stroke="midnightblue" points="874.11,-602.401 863.536,-603.062 872.214,-609.14 874.11,-602.401"/>
</g>
<!-- Node8&#45;&gt;Node7 -->
<g id="edge8" class="edge"><title>Node8&#45;&gt;Node7</title>
<path fill="none" stroke="midnightblue" d="M1039.34,-616.257C1055.07,-611.885 1071.76,-607.246 1086.97,-603.017"/>
<polygon fill="midnightblue" stroke="midnightblue" points="1038.39,-612.888 1029.69,-618.938 1040.26,-619.632 1038.39,-612.888"/>
</g>
<!-- Node9 -->
<g id="node9" class="node"><title>Node9</title>
<g id="a_node9"><a xlink:href="../../d1/df3/classLMS7SuiteAppFrame.html#a08626f72855857180d80ab271f481d08" target="_top" xlink:title="LMS7SuiteAppFrame::\lOnShowConnectionSettings">
<polygon fill="white" stroke="black" points="1072,-622 1072,-652 1212,-652 1212,-622 1072,-622"/>
<text text-anchor="start" x="1080" y="-640" font-family="Helvetica,sans-Serif" font-size="10.00">LMS7SuiteAppFrame::</text>
<text text-anchor="middle" x="1142" y="-629" font-family="Helvetica,sans-Serif" font-size="10.00">OnShowConnectionSettings</text>
</a>
</g>
</g>
<!-- Node8&#45;&gt;Node9 -->
<g id="edge9" class="edge"><title>Node8&#45;&gt;Node9</title>
<path fill="none" stroke="midnightblue" d="M1046.4,-635.285C1054.86,-635.439 1063.49,-635.595 1071.93,-635.748"/>
<polygon fill="midnightblue" stroke="midnightblue" points="1046.25,-631.782 1036.19,-635.1 1046.12,-638.781 1046.25,-631.782"/>
</g>
<!-- Node11&#45;&gt;Node4 -->
<g id="edge12" class="edge"><title>Node11&#45;&gt;Node4</title>
<path fill="none" stroke="midnightblue" d="M705.779,-746.946C717.421,-744.446 729.389,-741.877 740.848,-739.417"/>
<polygon fill="midnightblue" stroke="midnightblue" points="704.695,-743.599 695.652,-749.12 706.164,-750.443 704.695,-743.599"/>
</g>
<!-- Node12 -->
<g id="node12" class="node"><title>Node12</title>
<g id="a_node12"><a xlink:href="../../df/d93/classpnlBoardControls.html#a1b0e1d30fd18cb7bd50f27600095f4ab" target="_top" xlink:title="pnlBoardControls::\l~pnlBoardControls">
<polygon fill="white" stroke="black" points="760,-759 760,-789 858,-789 858,-759 760,-759"/>
<text text-anchor="start" x="768" y="-777" font-family="Helvetica,sans-Serif" font-size="10.00">pnlBoardControls::</text>
<text text-anchor="middle" x="809" y="-766" font-family="Helvetica,sans-Serif" font-size="10.00">~pnlBoardControls</text>
</a>
</g>
</g>
<!-- Node11&#45;&gt;Node12 -->
<g id="edge13" class="edge"><title>Node11&#45;&gt;Node12</title>
<path fill="none" stroke="midnightblue" d="M705.729,-767.644C724.055,-768.783 743.187,-769.972 759.88,-771.009"/>
<polygon fill="midnightblue" stroke="midnightblue" points="705.85,-764.145 695.652,-767.018 705.416,-771.132 705.85,-764.145"/>
</g>
<!-- Node14 -->
<g id="node14" class="node"><title>Node14</title>
<g id="a_node14"><a xlink:href="../../db/d92/LimeSuite_8cc.html#ab4d4f98a87a4940ae5b5b0b36335ac6e" target="_top" xlink:title="DEFUN_DLD">
<polygon fill="white" stroke="black" points="398,-593.5 398,-612.5 475,-612.5 475,-593.5 398,-593.5"/>
<text text-anchor="middle" x="436.5" y="-600.5" font-family="Helvetica,sans-Serif" font-size="10.00">DEFUN_DLD</text>
</a>
</g>
</g>
<!-- Node13&#45;&gt;Node14 -->
<g id="edge16" class="edge"><title>Node13&#45;&gt;Node14</title>
<path fill="none" stroke="midnightblue" d="M270.366,-557.927C294.158,-565.938 325.712,-576.158 354,-584 368.141,-587.92 383.809,-591.704 397.599,-594.85"/>
<polygon fill="midnightblue" stroke="midnightblue" points="271.271,-554.539 260.677,-554.643 269.024,-561.168 271.271,-554.539"/>
</g>
<!-- Node15 -->
<g id="node15" class="node"><title>Node15</title>
<g id="a_node15"><a xlink:href="../../db/d92/LimeSuite_8cc.html#a600901608dd432caf717ac1d4f09c6aa" target="_top" xlink:title="FreeResources">
<polygon fill="white" stroke="black" points="395,-555.5 395,-574.5 478,-574.5 478,-555.5 395,-555.5"/>
<text text-anchor="middle" x="436.5" y="-562.5" font-family="Helvetica,sans-Serif" font-size="10.00">FreeResources</text>
</a>
</g>
</g>
<!-- Node13&#45;&gt;Node15 -->
<g id="edge17" class="edge"><title>Node13&#45;&gt;Node15</title>
<path fill="none" stroke="midnightblue" d="M295.922,-551.214C328.202,-554.403 366.58,-558.193 394.916,-560.992"/>
<polygon fill="midnightblue" stroke="midnightblue" points="295.971,-547.702 285.676,-550.203 295.283,-554.669 295.971,-547.702"/>
</g>
<!-- Node18 -->
<g id="node18" class="node"><title>Node18</title>
<g id="a_node18"><a xlink:href="../../d7/db5/classFPGAcontrols__wxgui.html#aee6646ee533e931ea6003804683e9c05" target="_top" xlink:title="FPGAcontrols_wxgui\l::OnbtnPlayWFMClick">
<polygon fill="white" stroke="black" points="379,-506 379,-536 494,-536 494,-506 379,-506"/>
<text text-anchor="start" x="387" y="-524" font-family="Helvetica,sans-Serif" font-size="10.00">FPGAcontrols_wxgui</text>
<text text-anchor="middle" x="436.5" y="-513" font-family="Helvetica,sans-Serif" font-size="10.00">::OnbtnPlayWFMClick</text>
</a>
</g>
</g>
<!-- Node13&#45;&gt;Node18 -->
<g id="edge20" class="edge"><title>Node13&#45;&gt;Node18</title>
<path fill="none" stroke="midnightblue" d="M295.635,-537.577C322.203,-534.428 352.943,-530.784 378.827,-527.717"/>
<polygon fill="midnightblue" stroke="midnightblue" points="295.194,-534.104 285.676,-538.757 296.018,-541.056 295.194,-534.104"/>
</g>
<!-- Node20 -->
<g id="node20" class="node"><title>Node20</title>
<g id="a_node20"><a xlink:href="../../d7/db5/classFPGAcontrols__wxgui.html#a0fa030c03abad5ce458e7284fc3e8a5e" target="_top" xlink:title="FPGAcontrols_wxgui\l::OnbtnStopWFMClick">
<polygon fill="white" stroke="black" points="378.5,-457 378.5,-487 494.5,-487 494.5,-457 378.5,-457"/>
<text text-anchor="start" x="386.5" y="-475" font-family="Helvetica,sans-Serif" font-size="10.00">FPGAcontrols_wxgui</text>
<text text-anchor="middle" x="436.5" y="-464" font-family="Helvetica,sans-Serif" font-size="10.00">::OnbtnStopWFMClick</text>
</a>
</g>
</g>
<!-- Node13&#45;&gt;Node20 -->
<g id="edge22" class="edge"><title>Node13&#45;&gt;Node20</title>
<path fill="none" stroke="midnightblue" d="M264.007,-531.46C288.263,-521.109 322.966,-506.824 354,-496 362.913,-492.891 372.464,-489.837 381.776,-487.004"/>
<polygon fill="midnightblue" stroke="midnightblue" points="262.42,-528.333 254.613,-535.495 265.183,-534.764 262.42,-528.333"/>
</g>
<!-- Node21 -->
<g id="node21" class="node"><title>Node21</title>
<g id="a_node21"><a xlink:href="../../d7/db5/classFPGAcontrols__wxgui.html#a38956cbf989877796b156f8e5cfec9ab" target="_top" xlink:title="FPGAcontrols_wxgui\l::UploadFile">
<polygon fill="white" stroke="black" points="382,-632 382,-662 491,-662 491,-632 382,-632"/>
<text text-anchor="start" x="390" y="-650" font-family="Helvetica,sans-Serif" font-size="10.00">FPGAcontrols_wxgui</text>
<text text-anchor="middle" x="436.5" y="-639" font-family="Helvetica,sans-Serif" font-size="10.00">::UploadFile</text>
</a>
</g>
</g>
<!-- Node13&#45;&gt;Node21 -->
<g id="edge24" class="edge"><title>Node13&#45;&gt;Node21</title>
<path fill="none" stroke="midnightblue" d="M253.511,-560.496C276.82,-577.511 316.508,-604.706 354,-622 362.735,-626.029 372.289,-629.624 381.682,-632.746"/>
<polygon fill="midnightblue" stroke="midnightblue" points="255.54,-557.644 245.418,-554.516 251.38,-563.274 255.54,-557.644"/>
</g>
<!-- Node16 -->
<g id="node16" class="node"><title>Node16</title>
<g id="a_node16"><a xlink:href="../../db/d92/LimeSuite_8cc.html#a8264622f1c2c5bfc25727870d85ee938" target="_top" xlink:title="DEFUN_DLD">
<polygon fill="white" stroke="black" points="591.5,-530.5 591.5,-549.5 668.5,-549.5 668.5,-530.5 591.5,-530.5"/>
<text text-anchor="middle" x="630" y="-537.5" font-family="Helvetica,sans-Serif" font-size="10.00">DEFUN_DLD</text>
</a>
</g>
</g>
<!-- Node15&#45;&gt;Node16 -->
<g id="edge18" class="edge"><title>Node15&#45;&gt;Node16</title>
<path fill="none" stroke="midnightblue" d="M488.287,-558.37C520.666,-554.143 561.921,-548.757 591.373,-544.912"/>
<polygon fill="midnightblue" stroke="midnightblue" points="487.575,-554.933 478.112,-559.698 488.481,-561.874 487.575,-554.933"/>
</g>
<!-- Node17 -->
<g id="node17" class="node"><title>Node17</title>
<g id="a_node17"><a xlink:href="../../d6/d8b/classResourceDeallocator.html#abd5270f9c3ae0e00ad42437e6b7f3bbe" target="_top" xlink:title="ResourceDeallocator\l::~ResourceDeallocator">
<polygon fill="white" stroke="black" points="570,-569 570,-599 690,-599 690,-569 570,-569"/>
<text text-anchor="start" x="578" y="-587" font-family="Helvetica,sans-Serif" font-size="10.00">ResourceDeallocator</text>
<text text-anchor="middle" x="630" y="-576" font-family="Helvetica,sans-Serif" font-size="10.00">::~ResourceDeallocator</text>
</a>
</g>
</g>
<!-- Node15&#45;&gt;Node17 -->
<g id="edge19" class="edge"><title>Node15&#45;&gt;Node17</title>
<path fill="none" stroke="midnightblue" d="M488.16,-570.026C513.269,-572.518 543.74,-575.541 569.908,-578.137"/>
<polygon fill="midnightblue" stroke="midnightblue" points="488.409,-566.534 478.112,-569.029 487.718,-573.5 488.409,-566.534"/>
</g>
<!-- Node19 -->
<g id="node19" class="node"><title>Node19</title>
<g id="a_node19"><a xlink:href="../../d7/db5/classFPGAcontrols__wxgui.html#a43e7af94389a04863d5208aad44137f5" target="_top" xlink:title="FPGAcontrols_wxgui\l::FPGAcontrols_wxgui">
<polygon fill="white" stroke="black" points="572.5,-457 572.5,-487 687.5,-487 687.5,-457 572.5,-457"/>
<text text-anchor="start" x="580.5" y="-475" font-family="Helvetica,sans-Serif" font-size="10.00">FPGAcontrols_wxgui</text>
<text text-anchor="middle" x="630" y="-464" font-family="Helvetica,sans-Serif" font-size="10.00">::FPGAcontrols_wxgui</text>
</a>
</g>
</g>
<!-- Node18&#45;&gt;Node19 -->
<g id="edge21" class="edge"><title>Node18&#45;&gt;Node19</title>
<path fill="none" stroke="midnightblue" d="M503.924,-504.004C526.263,-498.288 550.96,-491.968 572.466,-486.466"/>
<polygon fill="midnightblue" stroke="midnightblue" points="502.999,-500.628 494.179,-506.497 504.735,-507.409 502.999,-500.628"/>
</g>
<!-- Node20&#45;&gt;Node19 -->
<g id="edge23" class="edge"><title>Node20&#45;&gt;Node19</title>
<path fill="none" stroke="midnightblue" d="M504.985,-472C527.03,-472 551.27,-472 572.428,-472"/>
<polygon fill="midnightblue" stroke="midnightblue" points="504.697,-468.5 494.697,-472 504.697,-475.5 504.697,-468.5"/>
</g>
<!-- Node24 -->
<g id="node24" class="node"><title>Node24</title>
<g id="a_node24"><a xlink:href="../../d5/d92/classpnlQSpark.html#a56c0402e3ff7b5cdd7503b81a2f7840f" target="_top" xlink:title="pnlQSpark::OnReadAll">
<polygon fill="white" stroke="black" points="572,-304.5 572,-323.5 688,-323.5 688,-304.5 572,-304.5"/>
<text text-anchor="middle" x="630" y="-311.5" font-family="Helvetica,sans-Serif" font-size="10.00">pnlQSpark::OnReadAll</text>
</a>
</g>
</g>
<!-- Node23&#45;&gt;Node24 -->
<g id="edge27" class="edge"><title>Node23&#45;&gt;Node24</title>
<path fill="none" stroke="midnightblue" d="M310.728,-314C387.541,-314 503.233,-314 571.932,-314"/>
<polygon fill="midnightblue" stroke="midnightblue" points="310.625,-310.5 300.625,-314 310.625,-317.5 310.625,-310.5"/>
</g>
<!-- Node23&#45;&gt;Node26 -->
<g id="edge29" class="edge"><title>Node23&#45;&gt;Node26</title>
<path fill="none" stroke="midnightblue" d="M293.847,-325.418C322.821,-330.855 357.075,-337.283 384.641,-342.456"/>
<polygon fill="midnightblue" stroke="midnightblue" points="294.312,-321.944 283.838,-323.54 293.021,-328.824 294.312,-321.944"/>
</g>
<!-- Node23&#45;&gt;Node27 -->
<g id="edge31" class="edge"><title>Node23&#45;&gt;Node27</title>
<path fill="none" stroke="midnightblue" d="M293.847,-302.582C322.821,-297.145 357.075,-290.717 384.641,-285.544"/>
<polygon fill="midnightblue" stroke="midnightblue" points="293.021,-299.176 283.838,-304.46 294.312,-306.056 293.021,-299.176"/>
</g>
<!-- Node25 -->
<g id="node25" class="node"><title>Node25</title>
<g id="a_node25"><a xlink:href="../../d5/d92/classpnlQSpark.html#a144727146c22d930542be934f1166e59" target="_top" xlink:title="pnlQSpark::pnlQSpark">
<polygon fill="white" stroke="black" points="752,-266.5 752,-285.5 866,-285.5 866,-266.5 752,-266.5"/>
<text text-anchor="middle" x="809" y="-273.5" font-family="Helvetica,sans-Serif" font-size="10.00">pnlQSpark::pnlQSpark</text>
</a>
</g>
</g>
<!-- Node24&#45;&gt;Node25 -->
<g id="edge28" class="edge"><title>Node24&#45;&gt;Node25</title>
<path fill="none" stroke="midnightblue" d="M685.742,-302.247C710.77,-296.874 740.035,-290.591 763.657,-285.52"/>
<polygon fill="midnightblue" stroke="midnightblue" points="684.707,-298.89 675.665,-304.411 686.176,-305.734 684.707,-298.89"/>
</g>
<!-- Node26&#45;&gt;Node25 -->
<g id="edge30" class="edge"><title>Node26&#45;&gt;Node25</title>
<path fill="none" stroke="midnightblue" d="M529.304,-355.193C581.755,-354.632 648.191,-349.84 705,-333 740.075,-322.603 776.457,-298.878 795.17,-285.546"/>
<polygon fill="midnightblue" stroke="midnightblue" points="528.987,-351.695 519.007,-355.252 529.027,-358.695 528.987,-351.695"/>
</g>
<!-- Node27&#45;&gt;Node25 -->
<g id="edge32" class="edge"><title>Node27&#45;&gt;Node25</title>
<path fill="none" stroke="midnightblue" d="M529.389,-276C599.22,-276 693.015,-276 751.986,-276"/>
<polygon fill="midnightblue" stroke="midnightblue" points="529.266,-272.5 519.266,-276 529.266,-279.5 529.266,-272.5"/>
</g>
<!-- Node28&#45;&gt;Node19 -->
<g id="edge34" class="edge"><title>Node28&#45;&gt;Node19</title>
<path fill="none" stroke="midnightblue" d="M313.617,-454.136C327.004,-451.171 340.818,-448.61 354,-447 426.793,-438.111 446.124,-438.823 519,-447 537.1,-449.031 556.566,-452.886 574.017,-456.971"/>
<polygon fill="midnightblue" stroke="midnightblue" points="312.44,-450.815 303.482,-456.472 314.013,-457.637 312.44,-450.815"/>
</g>
<!-- Node30 -->
<g id="node30" class="node"><title>Node30</title>
<g id="a_node30"><a xlink:href="../../de/d23/classpnlLimeSDR.html#a9087aa1d9d0c0acb5e4a86ed433f57d3" target="_top" xlink:title="pnlLimeSDR::pnlLimeSDR">
<polygon fill="white" stroke="black" points="369.5,-114.5 369.5,-133.5 503.5,-133.5 503.5,-114.5 369.5,-114.5"/>
<text text-anchor="middle" x="436.5" y="-121.5" font-family="Helvetica,sans-Serif" font-size="10.00">pnlLimeSDR::pnlLimeSDR</text>
</a>
</g>
</g>
<!-- Node29&#45;&gt;Node30 -->
<g id="edge36" class="edge"><title>Node29&#45;&gt;Node30</title>
<path fill="none" stroke="midnightblue" d="M316.869,-124C334.343,-124 352.528,-124 369.259,-124"/>
<polygon fill="midnightblue" stroke="midnightblue" points="316.68,-120.5 306.68,-124 316.68,-127.5 316.68,-120.5"/>
</g>
<!-- Node31 -->
<g id="node31" class="node"><title>Node31</title>
<g id="a_node31"><a xlink:href="../../de/d23/classpnlLimeSDR.html#a11d2a5d675951ad24453b2a70c7a5bb0" target="_top" xlink:title="pnlLimeSDR::~pnlLimeSDR">
<polygon fill="white" stroke="black" points="366.5,-76.5 366.5,-95.5 506.5,-95.5 506.5,-76.5 366.5,-76.5"/>
<text text-anchor="middle" x="436.5" y="-83.5" font-family="Helvetica,sans-Serif" font-size="10.00">pnlLimeSDR::~pnlLimeSDR</text>
</a>
</g>
</g>
<!-- Node29&#45;&gt;Node31 -->
<g id="edge37" class="edge"><title>Node29&#45;&gt;Node31</title>
<path fill="none" stroke="midnightblue" d="M293.847,-112.582C322.821,-107.145 357.075,-100.717 384.641,-95.5439"/>
<polygon fill="midnightblue" stroke="midnightblue" points="293.021,-109.176 283.838,-114.46 294.312,-116.056 293.021,-109.176"/>
</g>
<!-- Node33 -->
<g id="node33" class="node"><title>Node33</title>
<g id="a_node33"><a xlink:href="../../d9/d93/classpnluLimeSDR.html#a3db6325957734ee8ee5325a57e833bd3" target="_top" xlink:title="pnluLimeSDR::pnluLimeSDR">
<polygon fill="white" stroke="black" points="364.5,-38.5 364.5,-57.5 508.5,-57.5 508.5,-38.5 364.5,-38.5"/>
<text text-anchor="middle" x="436.5" y="-45.5" font-family="Helvetica,sans-Serif" font-size="10.00">pnluLimeSDR::pnluLimeSDR</text>
</a>
</g>
</g>
<!-- Node32&#45;&gt;Node33 -->
<g id="edge39" class="edge"><title>Node32&#45;&gt;Node33</title>
<path fill="none" stroke="midnightblue" d="M328.421,-48C340.529,-48 352.749,-48 364.384,-48"/>
<polygon fill="midnightblue" stroke="midnightblue" points="328.291,-44.5001 318.291,-48 328.291,-51.5001 328.291,-44.5001"/>
</g>
<!-- Node34 -->
<g id="node34" class="node"><title>Node34</title>
<g id="a_node34"><a xlink:href="../../d9/d93/classpnluLimeSDR.html#a506942ac170df480e06109e1a674ac2f" target="_top" xlink:title="pnluLimeSDR::~pnluLimeSDR">
<polygon fill="white" stroke="black" points="361.5,-0.5 361.5,-19.5 511.5,-19.5 511.5,-0.5 361.5,-0.5"/>
<text text-anchor="middle" x="436.5" y="-7.5" font-family="Helvetica,sans-Serif" font-size="10.00">pnluLimeSDR::~pnluLimeSDR</text>
</a>
</g>
</g>
<!-- Node32&#45;&gt;Node34 -->
<g id="edge40" class="edge"><title>Node32&#45;&gt;Node34</title>
<path fill="none" stroke="midnightblue" d="M293.847,-36.5819C322.821,-31.1448 357.075,-24.7168 384.641,-19.5439"/>
<polygon fill="midnightblue" stroke="midnightblue" points="293.021,-33.1757 283.838,-38.46 294.312,-40.0556 293.021,-33.1757"/>
</g>
<!-- Node35&#45;&gt;Node25 -->
<g id="edge42" class="edge"><title>Node35&#45;&gt;Node25</title>
<path fill="none" stroke="midnightblue" d="M314.769,-224.532C433.282,-236.899 649.742,-259.486 751.85,-270.141"/>
<polygon fill="midnightblue" stroke="midnightblue" points="314.971,-221.035 304.662,-223.478 314.244,-227.997 314.971,-221.035"/>
</g>
<!-- Node36 -->
<g id="node36" class="node"><title>Node36</title>
<g id="a_node36"><a xlink:href="../../d5/d92/classpnlQSpark.html#ae4202dc6695f6d6e011251a0004b5974" target="_top" xlink:title="pnlQSpark::OnConfigurePLL">
<polygon fill="white" stroke="black" points="366.5,-190.5 366.5,-209.5 506.5,-209.5 506.5,-190.5 366.5,-190.5"/>
<text text-anchor="middle" x="436.5" y="-197.5" font-family="Helvetica,sans-Serif" font-size="10.00">pnlQSpark::OnConfigurePLL</text>
</a>
</g>
</g>
<!-- Node35&#45;&gt;Node36 -->
<g id="edge43" class="edge"><title>Node35&#45;&gt;Node36</title>
<path fill="none" stroke="midnightblue" d="M314.656,-209.548C331.779,-208.195 349.681,-206.781 366.298,-205.468"/>
<polygon fill="midnightblue" stroke="midnightblue" points="314.372,-206.06 304.679,-210.336 314.924,-213.038 314.372,-206.06"/>
</g>
<!-- Node38 -->
<g id="node38" class="node"><title>Node38</title>
<g id="a_node38"><a xlink:href="../../d5/d92/classpnlQSpark.html#af88d796ea159c52bea44f564e89cfe99" target="_top" xlink:title="pnlQSpark::OnWriteAll">
<polygon fill="white" stroke="black" points="572,-114.5 572,-133.5 688,-133.5 688,-114.5 572,-114.5"/>
<text text-anchor="middle" x="630" y="-121.5" font-family="Helvetica,sans-Serif" font-size="10.00">pnlQSpark::OnWriteAll</text>
</a>
</g>
</g>
<!-- Node35&#45;&gt;Node38 -->
<g id="edge48" class="edge"><title>Node35&#45;&gt;Node38</title>
<path fill="none" stroke="midnightblue" d="M291.688,-198.036C311.403,-192.266 333.572,-186.063 354,-181 431.141,-161.879 521.536,-143.999 577.033,-133.531"/>
<polygon fill="midnightblue" stroke="midnightblue" points="290.527,-194.73 281.926,-200.916 292.508,-201.444 290.527,-194.73"/>
</g>
<!-- Node36&#45;&gt;Node25 -->
<g id="edge44" class="edge"><title>Node36&#45;&gt;Node25</title>
<path fill="none" stroke="midnightblue" d="M516.887,-199.34C570.873,-200.767 643.405,-206.388 705,-224 738.512,-233.582 774.052,-254.161 793.382,-266.362"/>
<polygon fill="midnightblue" stroke="midnightblue" points="516.763,-195.836 506.688,-199.114 516.608,-202.835 516.763,-195.836"/>
</g>
<!-- Node37 -->
<g id="node37" class="node"><title>Node37</title>
<g id="a_node37"><a xlink:href="../../d5/d92/classpnlQSpark.html#ab405a75a83b70dfac5b56c2e56d62c95" target="_top" xlink:title="pnlQSpark::~pnlQSpark">
<polygon fill="white" stroke="black" points="570,-152.5 570,-171.5 690,-171.5 690,-152.5 570,-152.5"/>
<text text-anchor="middle" x="630" y="-159.5" font-family="Helvetica,sans-Serif" font-size="10.00">pnlQSpark::~pnlQSpark</text>
</a>
</g>
</g>
<!-- Node36&#45;&gt;Node37 -->
<g id="edge45" class="edge"><title>Node36&#45;&gt;Node37</title>
<path fill="none" stroke="midnightblue" d="M495.646,-188.462C522.959,-183.042 555.126,-176.659 581.024,-171.52"/>
<polygon fill="midnightblue" stroke="midnightblue" points="494.951,-185.031 485.824,-190.411 496.314,-191.898 494.951,-185.031"/>
</g>
<!-- Node36&#45;&gt;Node38 -->
<g id="edge46" class="edge"><title>Node36&#45;&gt;Node38</title>
<path fill="none" stroke="midnightblue" d="M493.075,-187.352C502.03,-184.275 510.983,-180.528 519,-176 537.899,-165.325 535.917,-153.342 555,-143 562.114,-139.145 570.039,-136.048 577.985,-133.567"/>
<polygon fill="midnightblue" stroke="midnightblue" points="491.866,-184.064 483.4,-190.434 493.99,-190.734 491.866,-184.064"/>
</g>
<!-- Node38&#45;&gt;Node25 -->
<g id="edge47" class="edge"><title>Node38&#45;&gt;Node25</title>
<path fill="none" stroke="midnightblue" d="M695.096,-137.486C698.55,-139.118 701.879,-140.948 705,-143 755.027,-175.889 790.981,-241.391 803.322,-266.184"/>
<polygon fill="midnightblue" stroke="midnightblue" points="696.296,-134.195 685.717,-133.609 693.622,-140.664 696.296,-134.195"/>
</g>
<!-- Node39&#45;&gt;Node25 -->
<g id="edge52" class="edge"><title>Node39&#45;&gt;Node25</title>
<path fill="none" stroke="midnightblue" d="M684.75,-376.702C691.743,-373.476 698.669,-369.896 705,-366 743.83,-342.105 782.353,-303.427 799.187,-285.582"/>
<polygon fill="midnightblue" stroke="midnightblue" points="682.975,-373.658 675.22,-380.877 685.784,-380.07 682.975,-373.658"/>
</g>
</g>
</svg>
