<?xml version="1.0" encoding="UTF-8" standalone="no"?>
<!DOCTYPE svg PUBLIC "-//W3C//DTD SVG 1.1//EN"
 "http://www.w3.org/Graphics/SVG/1.1/DTD/svg11.dtd">
<!-- Generated by graphviz version 2.38.0 (20140413.2041)
 -->
<!-- Title: LMS_GetLPFBWRange Pages: 1 -->
<!--zoomable 560 -->
<svg id="main" version="1.1" xmlns="http://www.w3.org/2000/svg" xmlns:xlink="http://www.w3.org/1999/xlink" xml:space="preserve" onload="init(evt)">
<style type="text/css"><![CDATA[
.edge:hover path { stroke: red; }
.edge:hover polygon { stroke: red; fill: red; }
]]></style>
<script type="text/javascript"><![CDATA[
var edges = document.getElementsByTagName('g');
if (edges && edges.length) {
  for (var i=0;i<edges.length;i++) {
    if (edges[i].id.substr(0,4)=='edge') {
      edges[i].setAttribute('class','edge');
    }
  }
}
]]></script>
        <defs>
                <circle id="rim" cx="0" cy="0" r="7"/>
                <circle id="rim2" cx="0" cy="0" r="3.5"/>
                <g id="zoomPlus">
                        <use xlink:href="#rim" fill="#404040">
                                <set attributeName="fill" to="#808080" begin="zoomplus.mouseover" end="zoomplus.mouseout"/>
                        </use>
                        <path d="M-4,0h8M0,-4v8" fill="none" stroke="white" stroke-width="1.5" pointer-events="none"/>
                </g>
                <g id="zoomMin">
                        <use xlink:href="#rim" fill="#404040">
                                <set attributeName="fill" to="#808080" begin="zoomminus.mouseover" end="zoomminus.mouseout"/>
                        </use>
                        <path d="M-4,0h8" fill="none" stroke="white" stroke-width="1.5" pointer-events="none"/>
                </g>
                <g id="dirArrow">
                        <path fill="none" stroke="white" stroke-width="1.5" d="M0,-3.0v7 M-2.5,-0.5L0,-3.0L2.5,-0.5"/>
                </g>
               <g id="resetDef">
                       <use xlink:href="#rim2" fill="#404040">
                               <set attributeName="fill" to="#808080" begin="reset.mouseover" end="reset.mouseout"/>
                       </use>
               </g>
        </defs>

<script type="text/javascript">
var viewWidth = 558;
var viewHeight = 560;
var sectionId = 'dynsection-39';
</script>
<script xlink:href="../../svgpan.js"/>
<svg id="graph" class="graph">
<g id="viewport">
<title>LMS_GetLPFBWRange</title>
<polygon fill="white" stroke="none" points="-4,4 -4,-556 554,-556 554,4 -4,4"/>
<!-- Node1 -->
<g id="node1" class="node"><title>Node1</title>
<polygon fill="#bfbfbf" stroke="black" points="0,-266.5 0,-285.5 121,-285.5 121,-266.5 0,-266.5"/>
<text text-anchor="middle" x="60.5" y="-273.5" font-family="Helvetica,sans-Serif" font-size="10.00">LMS_GetLPFBWRange</text>
</g>
<!-- Node2 -->
<g id="node2" class="node"><title>Node2</title>
<g id="a_node2"><a xlink:href="../../d3/d22/classlime_1_1LMS7__Device.html#a0103c4a02886a92ca8ca09cc4bea67ef" target="_top" xlink:title="lime::LMS7_Device::\lGetLPFRange">
<polygon fill="white" stroke="black" points="157,-305 157,-335 265,-335 265,-305 157,-305"/>
<text text-anchor="start" x="165" y="-323" font-family="Helvetica,sans-Serif" font-size="10.00">lime::LMS7_Device::</text>
<text text-anchor="middle" x="211" y="-312" font-family="Helvetica,sans-Serif" font-size="10.00">GetLPFRange</text>
</a>
</g>
</g>
<!-- Node1&#45;&gt;Node2 -->
<g id="edge1" class="edge"><title>Node1&#45;&gt;Node2</title>
<path fill="none" stroke="midnightblue" d="M93.7223,-285.547C109.994,-290.369 130.28,-296.379 149.332,-302.024"/>
<polygon fill="midnightblue" stroke="midnightblue" points="148.572,-305.449 159.154,-304.935 150.561,-298.738 148.572,-305.449"/>
</g>
<!-- Node3 -->
<g id="node3" class="node"><title>Node3</title>
<g id="a_node3"><a xlink:href="../../d4/d67/lms_8c.html#a0e01e477b1f10e0a63e54de2dd2f8240" target="_top" xlink:title="lms">
<polygon fill="white" stroke="black" points="195,-266.5 195,-285.5 227,-285.5 227,-266.5 195,-266.5"/>
<text text-anchor="middle" x="211" y="-273.5" font-family="Helvetica,sans-Serif" font-size="10.00">lms</text>
</a>
</g>
</g>
<!-- Node1&#45;&gt;Node3 -->
<g id="edge2" class="edge"><title>Node1&#45;&gt;Node3</title>
<path fill="none" stroke="midnightblue" d="M121.045,-276C143.153,-276 167.073,-276 184.535,-276"/>
<polygon fill="midnightblue" stroke="midnightblue" points="184.993,-279.5 194.993,-276 184.993,-272.5 184.993,-279.5"/>
</g>
<!-- Node23 -->
<g id="node23" class="node"><title>Node23</title>
<g id="a_node23"><a xlink:href="../../d5/d6c/namespacelime.html#adc6af0cf8e0a70f3ef09fac1244f8c48" target="_top" xlink:title="lime::ReportError">
<polygon fill="white" stroke="black" points="165.5,-114.5 165.5,-133.5 256.5,-133.5 256.5,-114.5 165.5,-114.5"/>
<text text-anchor="middle" x="211" y="-121.5" font-family="Helvetica,sans-Serif" font-size="10.00">lime::ReportError</text>
</a>
</g>
</g>
<!-- Node1&#45;&gt;Node23 -->
<g id="edge25" class="edge"><title>Node1&#45;&gt;Node23</title>
<path fill="none" stroke="midnightblue" d="M70.7893,-266.492C95.3744,-241.327 162.387,-172.735 193.598,-140.788"/>
<polygon fill="midnightblue" stroke="midnightblue" points="196.229,-143.104 200.714,-133.505 191.222,-138.212 196.229,-143.104"/>
</g>
<!-- Node4 -->
<g id="node4" class="node"><title>Node4</title>
<g id="a_node4"><a xlink:href="../../d4/d67/lms_8c.html#a433227191fe883dcb8aa15d291bb29a1" target="_top" xlink:title="Case1F">
<polygon fill="white" stroke="black" points="309.5,-532.5 309.5,-551.5 360.5,-551.5 360.5,-532.5 309.5,-532.5"/>
<text text-anchor="middle" x="335" y="-539.5" font-family="Helvetica,sans-Serif" font-size="10.00">Case1F</text>
</a>
</g>
</g>
<!-- Node3&#45;&gt;Node4 -->
<g id="edge3" class="edge"><title>Node3&#45;&gt;Node4</title>
<path fill="none" stroke="midnightblue" d="M227.431,-277.65C239.529,-279.794 255.807,-284.715 265,-296 329.518,-375.196 243.083,-438.856 301,-523 301.637,-523.926 302.335,-524.812 303.083,-525.661"/>
<polygon fill="midnightblue" stroke="midnightblue" points="300.991,-528.477 310.872,-532.301 305.533,-523.15 300.991,-528.477"/>
</g>
<!-- Node5 -->
<g id="node5" class="node"><title>Node5</title>
<g id="a_node5"><a xlink:href="../../d4/d67/lms_8c.html#ace0cd8bf61cb9b86b98f0cef03b5a9d9" target="_top" xlink:title="Case2F">
<polygon fill="white" stroke="black" points="309.5,-494.5 309.5,-513.5 360.5,-513.5 360.5,-494.5 309.5,-494.5"/>
<text text-anchor="middle" x="335" y="-501.5" font-family="Helvetica,sans-Serif" font-size="10.00">Case2F</text>
</a>
</g>
</g>
<!-- Node3&#45;&gt;Node5 -->
<g id="edge4" class="edge"><title>Node3&#45;&gt;Node5</title>
<path fill="none" stroke="midnightblue" d="M227.338,-277.727C239.383,-279.915 255.633,-284.859 265,-296 320.028,-361.452 251.433,-415.321 301,-485 301.754,-486.061 302.588,-487.07 303.484,-488.031"/>
<polygon fill="midnightblue" stroke="midnightblue" points="301.353,-490.81 311.301,-494.457 305.799,-485.403 301.353,-490.81"/>
</g>
<!-- Node6 -->
<g id="node6" class="node"><title>Node6</title>
<g id="a_node6"><a xlink:href="../../d4/d67/lms_8c.html#a5f53b53ccc591e3643c4af2aee2e7f32" target="_top" xlink:title="Case3F">
<polygon fill="white" stroke="black" points="309.5,-456.5 309.5,-475.5 360.5,-475.5 360.5,-456.5 309.5,-456.5"/>
<text text-anchor="middle" x="335" y="-463.5" font-family="Helvetica,sans-Serif" font-size="10.00">Case3F</text>
</a>
</g>
</g>
<!-- Node3&#45;&gt;Node6 -->
<g id="edge5" class="edge"><title>Node3&#45;&gt;Node6</title>
<path fill="none" stroke="midnightblue" d="M227.203,-277.843C239.169,-280.099 255.381,-285.076 265,-296 310.596,-347.777 259.731,-391.712 301,-447 301.779,-448.043 302.632,-449.038 303.546,-449.986"/>
<polygon fill="midnightblue" stroke="midnightblue" points="301.457,-452.798 311.437,-456.358 305.855,-447.352 301.457,-452.798"/>
</g>
<!-- Node7 -->
<g id="node7" class="node"><title>Node7</title>
<g id="a_node7"><a xlink:href="../../d4/d67/lms_8c.html#a5086763d5b258349bc13d6be7e7d0665" target="_top" xlink:title="Case4F">
<polygon fill="white" stroke="black" points="309.5,-418.5 309.5,-437.5 360.5,-437.5 360.5,-418.5 309.5,-418.5"/>
<text text-anchor="middle" x="335" y="-425.5" font-family="Helvetica,sans-Serif" font-size="10.00">Case4F</text>
</a>
</g>
</g>
<!-- Node3&#45;&gt;Node7 -->
<g id="edge6" class="edge"><title>Node3&#45;&gt;Node7</title>
<path fill="none" stroke="midnightblue" d="M227.473,-278.135C239.268,-280.544 255.116,-285.584 265,-296 301.282,-334.235 267.922,-367.962 301,-409 301.933,-410.158 302.958,-411.259 304.05,-412.305"/>
<polygon fill="midnightblue" stroke="midnightblue" points="301.93,-415.09 311.992,-418.407 306.194,-409.539 301.93,-415.09"/>
</g>
<!-- Node8 -->
<g id="node8" class="node"><title>Node8</title>
<g id="a_node8"><a xlink:href="../../d4/d67/lms_8c.html#ac81ca32708341eb34b25d515d00bc748" target="_top" xlink:title="vector">
<polygon fill="white" stroke="black" points="313,-380.5 313,-399.5 357,-399.5 357,-380.5 313,-380.5"/>
<text text-anchor="middle" x="335" y="-387.5" font-family="Helvetica,sans-Serif" font-size="10.00">vector</text>
</a>
</g>
</g>
<!-- Node3&#45;&gt;Node8 -->
<g id="edge7" class="edge"><title>Node3&#45;&gt;Node8</title>
<path fill="none" stroke="midnightblue" d="M227.085,-278.53C238.666,-281.156 254.416,-286.296 265,-296 292.253,-320.988 275.852,-343.895 301,-371 302.175,-372.266 303.453,-373.472 304.802,-374.616"/>
<polygon fill="midnightblue" stroke="midnightblue" points="302.889,-377.55 313.067,-380.492 306.945,-371.845 302.889,-377.55"/>
</g>
<!-- Node9 -->
<g id="node9" class="node"><title>Node9</title>
<g id="a_node9"><a xlink:href="../../d4/d67/lms_8c.html#a37bcb1539d76b53344102435e2ab9c91" target="_top" xlink:title="matrix">
<polygon fill="white" stroke="black" points="313,-342.5 313,-361.5 357,-361.5 357,-342.5 313,-342.5"/>
<text text-anchor="middle" x="335" y="-349.5" font-family="Helvetica,sans-Serif" font-size="10.00">matrix</text>
</a>
</g>
</g>
<!-- Node3&#45;&gt;Node9 -->
<g id="edge8" class="edge"><title>Node3&#45;&gt;Node9</title>
<path fill="none" stroke="midnightblue" d="M227.22,-279.813C238.289,-283.031 253.318,-288.347 265,-296 284.192,-308.573 282.885,-318.919 301,-333 302.781,-334.385 304.674,-335.738 306.617,-337.043"/>
<polygon fill="midnightblue" stroke="midnightblue" points="304.922,-340.111 315.265,-342.41 308.614,-334.163 304.922,-340.111"/>
</g>
<!-- Node10 -->
<g id="node10" class="node"><title>Node10</title>
<g id="a_node10"><a xlink:href="../../d4/d67/lms_8c.html#ad1d6c875ff429888b51dd1155f0311ad" target="_top" xlink:title="ivector">
<polygon fill="white" stroke="black" points="312,-304.5 312,-323.5 358,-323.5 358,-304.5 312,-304.5"/>
<text text-anchor="middle" x="335" y="-311.5" font-family="Helvetica,sans-Serif" font-size="10.00">ivector</text>
</a>
</g>
</g>
<!-- Node3&#45;&gt;Node10 -->
<g id="edge9" class="edge"><title>Node3&#45;&gt;Node10</title>
<path fill="none" stroke="midnightblue" d="M227.451,-280.813C246.078,-286.614 277.868,-296.516 301.888,-303.998"/>
<polygon fill="midnightblue" stroke="midnightblue" points="301.057,-307.405 311.646,-307.037 303.139,-300.722 301.057,-307.405"/>
</g>
<!-- Node11 -->
<g id="node11" class="node"><title>Node11</title>
<g id="a_node11"><a xlink:href="../../db/de5/recipes_8c.html#a623fec796d9d53e5e4a4d30226547da7" target="_top" xlink:title="ludcmp">
<polygon fill="white" stroke="black" points="311,-266.5 311,-285.5 359,-285.5 359,-266.5 311,-266.5"/>
<text text-anchor="middle" x="335" y="-273.5" font-family="Helvetica,sans-Serif" font-size="10.00">ludcmp</text>
</a>
</g>
</g>
<!-- Node3&#45;&gt;Node11 -->
<g id="edge10" class="edge"><title>Node3&#45;&gt;Node11</title>
<path fill="none" stroke="midnightblue" d="M227.451,-276C245.771,-276 276.825,-276 300.696,-276"/>
<polygon fill="midnightblue" stroke="midnightblue" points="300.757,-279.5 310.757,-276 300.757,-272.5 300.757,-279.5"/>
</g>
<!-- Node14 -->
<g id="node14" class="node"><title>Node14</title>
<g id="a_node14"><a xlink:href="../../db/de5/recipes_8c.html#a8214a52d888e820222c0382648329c0c" target="_top" xlink:title="free_vector">
<polygon fill="white" stroke="black" points="405,-228.5 405,-247.5 470,-247.5 470,-228.5 405,-228.5"/>
<text text-anchor="middle" x="437.5" y="-235.5" font-family="Helvetica,sans-Serif" font-size="10.00">free_vector</text>
</a>
</g>
</g>
<!-- Node3&#45;&gt;Node14 -->
<g id="edge22" class="edge"><title>Node3&#45;&gt;Node14</title>
<path fill="none" stroke="midnightblue" d="M227.054,-272.445C244.701,-268.357 274.861,-261.617 301,-257 332.286,-251.474 367.867,-246.536 394.714,-243.08"/>
<polygon fill="midnightblue" stroke="midnightblue" points="395.435,-246.517 404.914,-241.784 394.552,-239.573 395.435,-246.517"/>
</g>
<!-- Node15 -->
<g id="node15" class="node"><title>Node15</title>
<g id="a_node15"><a xlink:href="../../db/de5/recipes_8c.html#a66ff65ad0355ec1f4a7722bcdafc8cd3" target="_top" xlink:title="lubksb">
<polygon fill="white" stroke="black" points="312.5,-190.5 312.5,-209.5 357.5,-209.5 357.5,-190.5 312.5,-190.5"/>
<text text-anchor="middle" x="335" y="-197.5" font-family="Helvetica,sans-Serif" font-size="10.00">lubksb</text>
</a>
</g>
</g>
<!-- Node3&#45;&gt;Node15 -->
<g id="edge15" class="edge"><title>Node3&#45;&gt;Node15</title>
<path fill="none" stroke="midnightblue" d="M227.451,-266.375C248.26,-253.412 285.499,-230.214 309.978,-214.965"/>
<polygon fill="midnightblue" stroke="midnightblue" points="312.037,-217.806 318.674,-209.547 308.336,-211.864 312.037,-217.806"/>
</g>
<!-- Node16 -->
<g id="node16" class="node"><title>Node16</title>
<g id="a_node16"><a xlink:href="../../d8/d91/rounding_8c.html#aca2670cc0fbf948a6b9cb670047c9d5b" target="_top" xlink:title="round2int">
<polygon fill="white" stroke="black" points="307,-152.5 307,-171.5 363,-171.5 363,-152.5 307,-152.5"/>
<text text-anchor="middle" x="335" y="-159.5" font-family="Helvetica,sans-Serif" font-size="10.00">round2int</text>
</a>
</g>
</g>
<!-- Node3&#45;&gt;Node16 -->
<g id="edge16" class="edge"><title>Node3&#45;&gt;Node16</title>
<path fill="none" stroke="midnightblue" d="M219.306,-266.494C233.59,-248.33 266.816,-208.093 301,-181 302.768,-179.599 304.651,-178.233 306.587,-176.919"/>
<polygon fill="midnightblue" stroke="midnightblue" points="308.588,-179.796 315.221,-171.534 304.884,-173.857 308.588,-179.796"/>
</g>
<!-- Node18 -->
<g id="node18" class="node"><title>Node18</title>
<g id="a_node18"><a xlink:href="../../d8/d91/rounding_8c.html#aa8d7512cdf5bfbf811cef6a8a091c679" target="_top" xlink:title="round2csd">
<polygon fill="white" stroke="black" points="304,-114.5 304,-133.5 366,-133.5 366,-114.5 304,-114.5"/>
<text text-anchor="middle" x="335" y="-121.5" font-family="Helvetica,sans-Serif" font-size="10.00">round2csd</text>
</a>
</g>
</g>
<!-- Node3&#45;&gt;Node18 -->
<g id="edge18" class="edge"><title>Node3&#45;&gt;Node18</title>
<path fill="none" stroke="midnightblue" d="M216.567,-266.211C227.977,-242.578 259.799,-181.516 301,-143 302.295,-141.79 303.68,-140.624 305.124,-139.508"/>
<polygon fill="midnightblue" stroke="midnightblue" points="307.446,-142.164 313.787,-133.676 303.537,-136.357 307.446,-142.164"/>
</g>
<!-- Node21 -->
<g id="node21" class="node"><title>Node21</title>
<g id="a_node21"><a xlink:href="../../db/de5/recipes_8c.html#a3e0d121b098c19c0bdc2429e5b9f1625" target="_top" xlink:title="free_matrix">
<polygon fill="white" stroke="black" points="302.5,-76.5 302.5,-95.5 367.5,-95.5 367.5,-76.5 302.5,-76.5"/>
<text text-anchor="middle" x="335" y="-83.5" font-family="Helvetica,sans-Serif" font-size="10.00">free_matrix</text>
</a>
</g>
</g>
<!-- Node3&#45;&gt;Node21 -->
<g id="edge23" class="edge"><title>Node3&#45;&gt;Node21</title>
<path fill="none" stroke="midnightblue" d="M214.878,-266.336C223.635,-238.304 252.37,-155.742 301,-105 302.195,-103.753 303.49,-102.563 304.852,-101.431"/>
<polygon fill="midnightblue" stroke="midnightblue" points="306.989,-104.206 313.154,-95.5906 302.961,-98.4809 306.989,-104.206"/>
</g>
<!-- Node22 -->
<g id="node22" class="node"><title>Node22</title>
<g id="a_node22"><a xlink:href="../../db/de5/recipes_8c.html#aee25e218394217a134e805ea09fb0fe9" target="_top" xlink:title="free_ivector">
<polygon fill="white" stroke="black" points="301,-38.5 301,-57.5 369,-57.5 369,-38.5 301,-38.5"/>
<text text-anchor="middle" x="335" y="-45.5" font-family="Helvetica,sans-Serif" font-size="10.00">free_ivector</text>
</a>
</g>
</g>
<!-- Node3&#45;&gt;Node22 -->
<g id="edge24" class="edge"><title>Node3&#45;&gt;Node22</title>
<path fill="none" stroke="midnightblue" d="M215.908,-266.353C232.142,-226.346 293.739,-75.188 301,-67 302.014,-65.8562 303.115,-64.764 304.277,-63.7234"/>
<polygon fill="midnightblue" stroke="midnightblue" points="306.616,-66.3484 312.6,-57.6052 302.47,-60.7084 306.616,-66.3484"/>
</g>
<!-- Node12 -->
<g id="node12" class="node"><title>Node12</title>
<g id="a_node12"><a xlink:href="../../db/de5/recipes_8c.html#a5e6092211a5f7e2d6ae9282379d3c604" target="_top" xlink:title="vector">
<polygon fill="white" stroke="black" points="415.5,-304.5 415.5,-323.5 459.5,-323.5 459.5,-304.5 415.5,-304.5"/>
<text text-anchor="middle" x="437.5" y="-311.5" font-family="Helvetica,sans-Serif" font-size="10.00">vector</text>
</a>
</g>
</g>
<!-- Node11&#45;&gt;Node12 -->
<g id="edge11" class="edge"><title>Node11&#45;&gt;Node12</title>
<path fill="none" stroke="midnightblue" d="M359.057,-284.718C372.938,-289.967 390.781,-296.713 405.84,-302.407"/>
<polygon fill="midnightblue" stroke="midnightblue" points="404.674,-305.708 415.265,-305.971 407.149,-299.16 404.674,-305.708"/>
</g>
<!-- Node13 -->
<g id="node13" class="node"><title>Node13</title>
<g id="a_node13"><a xlink:href="../../db/de5/recipes_8c.html#a208e98f19b2f252315399d02c0594a46" target="_top" xlink:title="nrerror">
<polygon fill="white" stroke="black" points="506,-285.5 506,-304.5 550,-304.5 550,-285.5 506,-285.5"/>
<text text-anchor="middle" x="528" y="-292.5" font-family="Helvetica,sans-Serif" font-size="10.00">nrerror</text>
</a>
</g>
</g>
<!-- Node11&#45;&gt;Node13 -->
<g id="edge14" class="edge"><title>Node11&#45;&gt;Node13</title>
<path fill="none" stroke="midnightblue" d="M359.039,-278.292C393.23,-281.693 457.482,-288.085 495.842,-291.9"/>
<polygon fill="midnightblue" stroke="midnightblue" points="495.631,-295.397 505.928,-292.904 496.324,-288.431 495.631,-295.397"/>
</g>
<!-- Node11&#45;&gt;Node14 -->
<g id="edge13" class="edge"><title>Node11&#45;&gt;Node14</title>
<path fill="none" stroke="midnightblue" d="M359.057,-267.282C371.676,-262.511 387.569,-256.501 401.668,-251.17"/>
<polygon fill="midnightblue" stroke="midnightblue" points="402.965,-254.422 411.081,-247.611 400.489,-247.874 402.965,-254.422"/>
</g>
<!-- Node12&#45;&gt;Node13 -->
<g id="edge12" class="edge"><title>Node12&#45;&gt;Node13</title>
<path fill="none" stroke="midnightblue" d="M459.923,-309.401C470.685,-307.09 483.928,-304.247 495.796,-301.699"/>
<polygon fill="midnightblue" stroke="midnightblue" points="496.731,-305.078 505.774,-299.557 495.262,-298.234 496.731,-305.078"/>
</g>
<!-- Node17 -->
<g id="node17" class="node"><title>Node17</title>
<g id="a_node17"><a xlink:href="../../db/d82/wglew_8h.html#a500a82aecba06f4550f6849b8099ca21" target="_top" xlink:title="int">
<polygon fill="white" stroke="black" points="423,-152.5 423,-171.5 452,-171.5 452,-152.5 423,-152.5"/>
<text text-anchor="middle" x="437.5" y="-159.5" font-family="Helvetica,sans-Serif" font-size="10.00">int</text>
</a>
</g>
</g>
<!-- Node16&#45;&gt;Node17 -->
<g id="edge17" class="edge"><title>Node16&#45;&gt;Node17</title>
<path fill="none" stroke="midnightblue" d="M363.197,-162C378.576,-162 397.634,-162 412.462,-162"/>
<polygon fill="midnightblue" stroke="midnightblue" points="412.846,-165.5 422.846,-162 412.846,-158.5 412.846,-165.5"/>
</g>
<!-- Node18&#45;&gt;Node17 -->
<g id="edge19" class="edge"><title>Node18&#45;&gt;Node17</title>
<path fill="none" stroke="midnightblue" d="M361.36,-133.589C377.388,-139.649 397.934,-147.418 413.49,-153.3"/>
<polygon fill="midnightblue" stroke="midnightblue" points="412.302,-156.592 422.894,-156.855 414.778,-150.045 412.302,-156.592"/>
</g>
<!-- Node19 -->
<g id="node19" class="node"><title>Node19</title>
<g id="a_node19"><a xlink:href="../../d8/d91/rounding_8c.html#ab3a64ec72c5600bc114621e93309c8c3" target="_top" xlink:title="int2csd">
<polygon fill="white" stroke="black" points="413.5,-114.5 413.5,-133.5 461.5,-133.5 461.5,-114.5 413.5,-114.5"/>
<text text-anchor="middle" x="437.5" y="-121.5" font-family="Helvetica,sans-Serif" font-size="10.00">int2csd</text>
</a>
</g>
</g>
<!-- Node18&#45;&gt;Node19 -->
<g id="edge20" class="edge"><title>Node18&#45;&gt;Node19</title>
<path fill="none" stroke="midnightblue" d="M366.153,-124C377.87,-124 391.331,-124 403.321,-124"/>
<polygon fill="midnightblue" stroke="midnightblue" points="403.398,-127.5 413.398,-124 403.398,-120.5 403.398,-127.5"/>
</g>
<!-- Node20 -->
<g id="node20" class="node"><title>Node20</title>
<g id="a_node20"><a xlink:href="../../d8/d91/rounding_8c.html#a2cff6b77e73872659c44b0c99f6bd97f" target="_top" xlink:title="csd2int">
<polygon fill="white" stroke="black" points="413.5,-76.5 413.5,-95.5 461.5,-95.5 461.5,-76.5 413.5,-76.5"/>
<text text-anchor="middle" x="437.5" y="-83.5" font-family="Helvetica,sans-Serif" font-size="10.00">csd2int</text>
</a>
</g>
</g>
<!-- Node18&#45;&gt;Node20 -->
<g id="edge21" class="edge"><title>Node18&#45;&gt;Node20</title>
<path fill="none" stroke="midnightblue" d="M361.36,-114.411C374.181,-109.563 389.894,-103.622 403.631,-98.4281"/>
<polygon fill="midnightblue" stroke="midnightblue" points="405.099,-101.615 413.214,-94.8045 402.623,-95.0675 405.099,-101.615"/>
</g>
<!-- Node24 -->
<g id="node24" class="node"><title>Node24</title>
<g id="a_node24"><a xlink:href="../../d9/df5/Logger_8cpp.html#ada38bf01d6d691de953ed69268ea6516" target="_top" xlink:title="errToStr">
<polygon fill="white" stroke="black" points="309,-0.5 309,-19.5 361,-19.5 361,-0.5 309,-0.5"/>
<text text-anchor="middle" x="335" y="-7.5" font-family="Helvetica,sans-Serif" font-size="10.00">errToStr</text>
</a>
</g>
</g>
<!-- Node23&#45;&gt;Node24 -->
<g id="edge26" class="edge"><title>Node23&#45;&gt;Node24</title>
<path fill="none" stroke="midnightblue" d="M219.306,-114.494C233.59,-96.3305 266.816,-56.0931 301,-29 302.768,-27.5987 304.651,-26.2334 306.587,-24.9194"/>
<polygon fill="midnightblue" stroke="midnightblue" points="308.588,-27.7962 315.221,-19.5343 304.884,-21.8567 308.588,-27.7962"/>
</g>
</g>
</svg>
        <g id="navigator" transform="translate(0 0)" fill="#404254">
                <rect fill="#f2f5e9" fill-opacity="0.5" stroke="#606060" stroke-width=".5" x="0" y="0" width="60" height="60"/>
                <use id="zoomplus" xlink:href="#zoomPlus" x="17" y="9" onmousedown="handleZoom(evt,'in')"/>
                <use id="zoomminus" xlink:href="#zoomMin" x="42" y="9" onmousedown="handleZoom(evt,'out')"/>
                <use id="reset" xlink:href="#resetDef" x="30" y="36" onmousedown="handleReset()"/>
                <g id="arrowUp" xlink:href="#dirArrow" transform="translate(30 24)" onmousedown="handlePan(0,-1)">
                  <use xlink:href="#rim" fill="#404040">
                        <set attributeName="fill" to="#808080" begin="arrowUp.mouseover" end="arrowUp.mouseout"/>
                  </use>
                  <path fill="none" stroke="white" stroke-width="1.5" d="M0,-3.0v7 M-2.5,-0.5L0,-3.0L2.5,-0.5"/>
                </g>
                <g id="arrowRight" xlink:href="#dirArrow" transform="rotate(90) translate(36 -43)" onmousedown="handlePan(1,0)">
                  <use xlink:href="#rim" fill="#404040">
                        <set attributeName="fill" to="#808080" begin="arrowRight.mouseover" end="arrowRight.mouseout"/>
                  </use>
                  <path fill="none" stroke="white" stroke-width="1.5" d="M0,-3.0v7 M-2.5,-0.5L0,-3.0L2.5,-0.5"/>
                </g>
                <g id="arrowDown" xlink:href="#dirArrow" transform="rotate(180) translate(-30 -48)" onmousedown="handlePan(0,1)">
                  <use xlink:href="#rim" fill="#404040">
                        <set attributeName="fill" to="#808080" begin="arrowDown.mouseover" end="arrowDown.mouseout"/>
                  </use>
                  <path fill="none" stroke="white" stroke-width="1.5" d="M0,-3.0v7 M-2.5,-0.5L0,-3.0L2.5,-0.5"/>
                </g>
                <g id="arrowLeft" xlink:href="#dirArrow" transform="rotate(270) translate(-36 17)" onmousedown="handlePan(-1,0)">
                  <use xlink:href="#rim" fill="#404040">
                        <set attributeName="fill" to="#808080" begin="arrowLeft.mouseover" end="arrowLeft.mouseout"/>
                  </use>
                  <path fill="none" stroke="white" stroke-width="1.5" d="M0,-3.0v7 M-2.5,-0.5L0,-3.0L2.5,-0.5"/>
                </g>
        </g>
        <svg viewBox="0 0 15 15" width="100%" height="30px" preserveAspectRatio="xMaxYMin meet">
         <g id="arrow_out" transform="scale(0.3 0.3)">
          <a xlink:href="lms7__api_8cpp_aa1ef3ea17a29cb1b087d4bcfbf481169_cgraph_org.svg" target="_base">
           <rect id="button" ry="5" rx="5" y="6" x="6" height="38" width="38"
                fill="#f2f5e9" fill-opacity="0.5" stroke="#606060" stroke-width="1.0"/>
           <path id="arrow"
             d="M 11.500037,31.436501 C 11.940474,20.09759 22.043105,11.32322 32.158766,21.979434 L 37.068811,17.246167 C 37.068811,17.246167 37.088388,32 37.088388,32 L 22.160133,31.978069 C 22.160133,31.978069 26.997745,27.140456 26.997745,27.140456 C 18.528582,18.264221 13.291696,25.230495 11.500037,31.436501 z"
             style="fill:#404040;"/>
          </a>
         </g>
        </svg>
</svg>
