<?xml version="1.0" encoding="UTF-8" standalone="no"?>
<!DOCTYPE svg PUBLIC "-//W3C//DTD SVG 1.1//EN"
 "http://www.w3.org/Graphics/SVG/1.1/DTD/svg11.dtd">
<!-- Generated by graphviz version 2.38.0 (20140413.2041)
 -->
<!-- Title: LMS_EnableTxWFM Pages: 1 -->
<svg width="423pt" height="214pt"
 viewBox="0.00 0.00 423.00 213.50" xmlns="http://www.w3.org/2000/svg" xmlns:xlink="http://www.w3.org/1999/xlink">
<g id="graph0" class="graph" transform="scale(1 1) rotate(0) translate(4 209.5)">
<title>LMS_EnableTxWFM</title>
<polygon fill="white" stroke="none" points="-4,4 -4,-209.5 419,-209.5 419,4 -4,4"/>
<!-- Node1 -->
<g id="node1" class="node"><title>Node1</title>
<polygon fill="#bfbfbf" stroke="black" points="0,-104 0,-123 107,-123 107,-104 0,-104"/>
<text text-anchor="middle" x="53.5" y="-111" font-family="Helvetica,sans-Serif" font-size="10.00">LMS_EnableTxWFM</text>
</g>
<!-- Node2 -->
<g id="node2" class="node"><title>Node2</title>
<g id="a_node2"><a xlink:href="../../db/d92/LimeSuite_8cc.html#ab4d4f98a87a4940ae5b5b0b36335ac6e" target="_top" xlink:title="DEFUN_DLD">
<polygon fill="white" stroke="black" points="162.5,-186 162.5,-205 239.5,-205 239.5,-186 162.5,-186"/>
<text text-anchor="middle" x="201" y="-193" font-family="Helvetica,sans-Serif" font-size="10.00">DEFUN_DLD</text>
</a>
</g>
</g>
<!-- Node1&#45;&gt;Node2 -->
<g id="edge1" class="edge"><title>Node1&#45;&gt;Node2</title>
<path fill="none" stroke="midnightblue" d="M73.6512,-129.696C90.8866,-143.625 117.372,-163.475 143,-176.5 150.16,-180.139 158.17,-183.308 165.87,-185.96"/>
<polygon fill="midnightblue" stroke="midnightblue" points="75.4811,-126.669 65.5349,-123.019 71.0339,-132.075 75.4811,-126.669"/>
</g>
<!-- Node3 -->
<g id="node3" class="node"><title>Node3</title>
<g id="a_node3"><a xlink:href="../../db/d92/LimeSuite_8cc.html#a600901608dd432caf717ac1d4f09c6aa" target="_top" xlink:title="FreeResources">
<polygon fill="white" stroke="black" points="159.5,-148 159.5,-167 242.5,-167 242.5,-148 159.5,-148"/>
<text text-anchor="middle" x="201" y="-155" font-family="Helvetica,sans-Serif" font-size="10.00">FreeResources</text>
</a>
</g>
</g>
<!-- Node1&#45;&gt;Node3 -->
<g id="edge2" class="edge"><title>Node1&#45;&gt;Node3</title>
<path fill="none" stroke="midnightblue" d="M95.9293,-126.028C118.992,-133.003 147.245,-141.546 168.49,-147.971"/>
<polygon fill="midnightblue" stroke="midnightblue" points="96.6564,-122.592 86.0713,-123.047 94.6301,-129.292 96.6564,-122.592"/>
</g>
<!-- Node6 -->
<g id="node6" class="node"><title>Node6</title>
<g id="a_node6"><a xlink:href="../../d7/db5/classFPGAcontrols__wxgui.html#aee6646ee533e931ea6003804683e9c05" target="_top" xlink:title="FPGAcontrols_wxgui\l::OnbtnPlayWFMClick">
<polygon fill="white" stroke="black" points="143.5,-98.5 143.5,-128.5 258.5,-128.5 258.5,-98.5 143.5,-98.5"/>
<text text-anchor="start" x="151.5" y="-116.5" font-family="Helvetica,sans-Serif" font-size="10.00">FPGAcontrols_wxgui</text>
<text text-anchor="middle" x="201" y="-105.5" font-family="Helvetica,sans-Serif" font-size="10.00">::OnbtnPlayWFMClick</text>
</a>
</g>
</g>
<!-- Node1&#45;&gt;Node6 -->
<g id="edge5" class="edge"><title>Node1&#45;&gt;Node6</title>
<path fill="none" stroke="midnightblue" d="M117.069,-113.5C125.725,-113.5 134.576,-113.5 143.121,-113.5"/>
<polygon fill="midnightblue" stroke="midnightblue" points="117.029,-110 107.029,-113.5 117.029,-117 117.029,-110"/>
</g>
<!-- Node8 -->
<g id="node8" class="node"><title>Node8</title>
<g id="a_node8"><a xlink:href="../../d7/db5/classFPGAcontrols__wxgui.html#a0fa030c03abad5ce458e7284fc3e8a5e" target="_top" xlink:title="FPGAcontrols_wxgui\l::OnbtnStopWFMClick">
<polygon fill="white" stroke="black" points="143,-49.5 143,-79.5 259,-79.5 259,-49.5 143,-49.5"/>
<text text-anchor="start" x="151" y="-67.5" font-family="Helvetica,sans-Serif" font-size="10.00">FPGAcontrols_wxgui</text>
<text text-anchor="middle" x="201" y="-56.5" font-family="Helvetica,sans-Serif" font-size="10.00">::OnbtnStopWFMClick</text>
</a>
</g>
</g>
<!-- Node1&#45;&gt;Node8 -->
<g id="edge7" class="edge"><title>Node1&#45;&gt;Node8</title>
<path fill="none" stroke="midnightblue" d="M92.5359,-100.691C111.779,-94.2103 135.254,-86.3045 155.349,-79.537"/>
<polygon fill="midnightblue" stroke="midnightblue" points="91.2592,-97.4274 82.8993,-103.936 93.4934,-104.061 91.2592,-97.4274"/>
</g>
<!-- Node9 -->
<g id="node9" class="node"><title>Node9</title>
<g id="a_node9"><a xlink:href="../../d7/db5/classFPGAcontrols__wxgui.html#a38956cbf989877796b156f8e5cfec9ab" target="_top" xlink:title="FPGAcontrols_wxgui\l::UploadFile">
<polygon fill="white" stroke="black" points="146.5,-0.5 146.5,-30.5 255.5,-30.5 255.5,-0.5 146.5,-0.5"/>
<text text-anchor="start" x="154.5" y="-18.5" font-family="Helvetica,sans-Serif" font-size="10.00">FPGAcontrols_wxgui</text>
<text text-anchor="middle" x="201" y="-7.5" font-family="Helvetica,sans-Serif" font-size="10.00">::UploadFile</text>
</a>
</g>
</g>
<!-- Node1&#45;&gt;Node9 -->
<g id="edge9" class="edge"><title>Node1&#45;&gt;Node9</title>
<path fill="none" stroke="midnightblue" d="M71.5592,-96.5496C88.5585,-80.3376 115.959,-55.9846 143,-39.5 148.317,-36.2584 154.151,-33.2537 159.995,-30.545"/>
<polygon fill="midnightblue" stroke="midnightblue" points="68.8405,-94.3105 64.0967,-103.784 73.7129,-99.3364 68.8405,-94.3105"/>
</g>
<!-- Node4 -->
<g id="node4" class="node"><title>Node4</title>
<g id="a_node4"><a xlink:href="../../db/d92/LimeSuite_8cc.html#a8264622f1c2c5bfc25727870d85ee938" target="_top" xlink:title="DEFUN_DLD">
<polygon fill="white" stroke="black" points="316.5,-170 316.5,-189 393.5,-189 393.5,-170 316.5,-170"/>
<text text-anchor="middle" x="355" y="-177" font-family="Helvetica,sans-Serif" font-size="10.00">DEFUN_DLD</text>
</a>
</g>
</g>
<!-- Node3&#45;&gt;Node4 -->
<g id="edge3" class="edge"><title>Node3&#45;&gt;Node4</title>
<path fill="none" stroke="midnightblue" d="M252.672,-164.834C273.448,-167.841 297.076,-171.261 316.287,-174.041"/>
<polygon fill="midnightblue" stroke="midnightblue" points="253.131,-161.364 242.733,-163.396 252.129,-168.292 253.131,-161.364"/>
</g>
<!-- Node5 -->
<g id="node5" class="node"><title>Node5</title>
<g id="a_node5"><a xlink:href="../../d6/d8b/classResourceDeallocator.html#abd5270f9c3ae0e00ad42437e6b7f3bbe" target="_top" xlink:title="ResourceDeallocator\l::~ResourceDeallocator">
<polygon fill="white" stroke="black" points="295,-120.5 295,-150.5 415,-150.5 415,-120.5 295,-120.5"/>
<text text-anchor="start" x="303" y="-138.5" font-family="Helvetica,sans-Serif" font-size="10.00">ResourceDeallocator</text>
<text text-anchor="middle" x="355" y="-127.5" font-family="Helvetica,sans-Serif" font-size="10.00">::~ResourceDeallocator</text>
</a>
</g>
</g>
<!-- Node3&#45;&gt;Node5 -->
<g id="edge4" class="edge"><title>Node3&#45;&gt;Node5</title>
<path fill="none" stroke="midnightblue" d="M252.785,-150.15C266.278,-148.197 280.966,-146.071 294.862,-144.059"/>
<polygon fill="midnightblue" stroke="midnightblue" points="252.129,-146.708 242.733,-151.604 253.131,-153.636 252.129,-146.708"/>
</g>
<!-- Node7 -->
<g id="node7" class="node"><title>Node7</title>
<g id="a_node7"><a xlink:href="../../d7/db5/classFPGAcontrols__wxgui.html#a43e7af94389a04863d5208aad44137f5" target="_top" xlink:title="FPGAcontrols_wxgui\l::FPGAcontrols_wxgui">
<polygon fill="white" stroke="black" points="297.5,-60.5 297.5,-90.5 412.5,-90.5 412.5,-60.5 297.5,-60.5"/>
<text text-anchor="start" x="305.5" y="-78.5" font-family="Helvetica,sans-Serif" font-size="10.00">FPGAcontrols_wxgui</text>
<text text-anchor="middle" x="355" y="-67.5" font-family="Helvetica,sans-Serif" font-size="10.00">::FPGAcontrols_wxgui</text>
</a>
</g>
</g>
<!-- Node6&#45;&gt;Node7 -->
<g id="edge6" class="edge"><title>Node6&#45;&gt;Node7</title>
<path fill="none" stroke="midnightblue" d="M268.519,-96.8703C278.134,-94.4664 287.955,-92.0112 297.354,-89.6616"/>
<polygon fill="midnightblue" stroke="midnightblue" points="267.452,-93.5293 258.599,-99.3502 269.15,-100.32 267.452,-93.5293"/>
</g>
<!-- Node8&#45;&gt;Node7 -->
<g id="edge8" class="edge"><title>Node8&#45;&gt;Node7</title>
<path fill="none" stroke="midnightblue" d="M269.162,-69.3604C278.59,-70.0427 288.202,-70.7383 297.407,-71.4044"/>
<polygon fill="midnightblue" stroke="midnightblue" points="269.258,-65.8583 259.032,-68.6273 268.753,-72.84 269.258,-65.8583"/>
</g>
</g>
</svg>
