<?xml version="1.0" encoding="UTF-8" standalone="no"?>
<!DOCTYPE svg PUBLIC "-//W3C//DTD SVG 1.1//EN"
 "http://www.w3.org/Graphics/SVG/1.1/DTD/svg11.dtd">
<!-- Generated by graphviz version 2.38.0 (20140413.2041)
 -->
<!-- Title: LMS_GetSampleRateRange Pages: 1 -->
<!--zoomable 560 -->
<svg id="main" version="1.1" xmlns="http://www.w3.org/2000/svg" xmlns:xlink="http://www.w3.org/1999/xlink" xml:space="preserve" onload="init(evt)">
<style type="text/css"><![CDATA[
.edge:hover path { stroke: red; }
.edge:hover polygon { stroke: red; fill: red; }
]]></style>
<script type="text/javascript"><![CDATA[
var edges = document.getElementsByTagName('g');
if (edges && edges.length) {
  for (var i=0;i<edges.length;i++) {
    if (edges[i].id.substr(0,4)=='edge') {
      edges[i].setAttribute('class','edge');
    }
  }
}
]]></script>
        <defs>
                <circle id="rim" cx="0" cy="0" r="7"/>
                <circle id="rim2" cx="0" cy="0" r="3.5"/>
                <g id="zoomPlus">
                        <use xlink:href="#rim" fill="#404040">
                                <set attributeName="fill" to="#808080" begin="zoomplus.mouseover" end="zoomplus.mouseout"/>
                        </use>
                        <path d="M-4,0h8M0,-4v8" fill="none" stroke="white" stroke-width="1.5" pointer-events="none"/>
                </g>
                <g id="zoomMin">
                        <use xlink:href="#rim" fill="#404040">
                                <set attributeName="fill" to="#808080" begin="zoomminus.mouseover" end="zoomminus.mouseout"/>
                        </use>
                        <path d="M-4,0h8" fill="none" stroke="white" stroke-width="1.5" pointer-events="none"/>
                </g>
                <g id="dirArrow">
                        <path fill="none" stroke="white" stroke-width="1.5" d="M0,-3.0v7 M-2.5,-0.5L0,-3.0L2.5,-0.5"/>
                </g>
               <g id="resetDef">
                       <use xlink:href="#rim2" fill="#404040">
                               <set attributeName="fill" to="#808080" begin="reset.mouseover" end="reset.mouseout"/>
                       </use>
               </g>
        </defs>

<script type="text/javascript">
var viewWidth = 577;
var viewHeight = 560;
var sectionId = 'dynsection-54';
</script>
<script xlink:href="../../svgpan.js"/>
<svg id="graph" class="graph">
<g id="viewport">
<title>LMS_GetSampleRateRange</title>
<polygon fill="white" stroke="none" points="-4,4 -4,-556 573,-556 573,4 -4,4"/>
<!-- Node1 -->
<g id="node1" class="node"><title>Node1</title>
<polygon fill="#bfbfbf" stroke="black" points="0,-266.5 0,-285.5 140,-285.5 140,-266.5 0,-266.5"/>
<text text-anchor="middle" x="70" y="-273.5" font-family="Helvetica,sans-Serif" font-size="10.00">LMS_GetSampleRateRange</text>
</g>
<!-- Node2 -->
<g id="node2" class="node"><title>Node2</title>
<g id="a_node2"><a xlink:href="../../d3/d22/classlime_1_1LMS7__Device.html#a391b7d00bd75219e6719c803418e057d" target="_top" xlink:title="lime::LMS7_Device::\lGetRateRange">
<polygon fill="white" stroke="black" points="176,-305 176,-335 284,-335 284,-305 176,-305"/>
<text text-anchor="start" x="184" y="-323" font-family="Helvetica,sans-Serif" font-size="10.00">lime::LMS7_Device::</text>
<text text-anchor="middle" x="230" y="-312" font-family="Helvetica,sans-Serif" font-size="10.00">GetRateRange</text>
</a>
</g>
</g>
<!-- Node1&#45;&gt;Node2 -->
<g id="edge1" class="edge"><title>Node1&#45;&gt;Node2</title>
<path fill="none" stroke="midnightblue" d="M105.284,-285.547C123.069,-290.5 145.364,-296.709 166.11,-302.486"/>
<polygon fill="midnightblue" stroke="midnightblue" points="165.254,-305.881 175.827,-305.192 167.132,-299.138 165.254,-305.881"/>
</g>
<!-- Node3 -->
<g id="node3" class="node"><title>Node3</title>
<g id="a_node3"><a xlink:href="../../d4/d67/lms_8c.html#a0e01e477b1f10e0a63e54de2dd2f8240" target="_top" xlink:title="lms">
<polygon fill="white" stroke="black" points="214,-266.5 214,-285.5 246,-285.5 246,-266.5 214,-266.5"/>
<text text-anchor="middle" x="230" y="-273.5" font-family="Helvetica,sans-Serif" font-size="10.00">lms</text>
</a>
</g>
</g>
<!-- Node1&#45;&gt;Node3 -->
<g id="edge2" class="edge"><title>Node1&#45;&gt;Node3</title>
<path fill="none" stroke="midnightblue" d="M140.301,-276C162.747,-276 186.252,-276 203.423,-276"/>
<polygon fill="midnightblue" stroke="midnightblue" points="203.717,-279.5 213.717,-276 203.717,-272.5 203.717,-279.5"/>
</g>
<!-- Node23 -->
<g id="node23" class="node"><title>Node23</title>
<g id="a_node23"><a xlink:href="../../d5/d6c/namespacelime.html#adc6af0cf8e0a70f3ef09fac1244f8c48" target="_top" xlink:title="lime::ReportError">
<polygon fill="white" stroke="black" points="184.5,-114.5 184.5,-133.5 275.5,-133.5 275.5,-114.5 184.5,-114.5"/>
<text text-anchor="middle" x="230" y="-121.5" font-family="Helvetica,sans-Serif" font-size="10.00">lime::ReportError</text>
</a>
</g>
</g>
<!-- Node1&#45;&gt;Node23 -->
<g id="edge25" class="edge"><title>Node1&#45;&gt;Node23</title>
<path fill="none" stroke="midnightblue" d="M80.8836,-266.492C107.041,-241.327 178.341,-172.735 211.549,-140.788"/>
<polygon fill="midnightblue" stroke="midnightblue" points="214.34,-142.96 219.12,-133.505 209.487,-137.915 214.34,-142.96"/>
</g>
<!-- Node4 -->
<g id="node4" class="node"><title>Node4</title>
<g id="a_node4"><a xlink:href="../../d4/d67/lms_8c.html#a433227191fe883dcb8aa15d291bb29a1" target="_top" xlink:title="Case1F">
<polygon fill="white" stroke="black" points="328.5,-532.5 328.5,-551.5 379.5,-551.5 379.5,-532.5 328.5,-532.5"/>
<text text-anchor="middle" x="354" y="-539.5" font-family="Helvetica,sans-Serif" font-size="10.00">Case1F</text>
</a>
</g>
</g>
<!-- Node3&#45;&gt;Node4 -->
<g id="edge3" class="edge"><title>Node3&#45;&gt;Node4</title>
<path fill="none" stroke="midnightblue" d="M246.431,-277.65C258.529,-279.794 274.807,-284.715 284,-296 348.518,-375.196 262.083,-438.856 320,-523 320.637,-523.926 321.335,-524.812 322.083,-525.661"/>
<polygon fill="midnightblue" stroke="midnightblue" points="319.991,-528.477 329.872,-532.301 324.533,-523.15 319.991,-528.477"/>
</g>
<!-- Node5 -->
<g id="node5" class="node"><title>Node5</title>
<g id="a_node5"><a xlink:href="../../d4/d67/lms_8c.html#ace0cd8bf61cb9b86b98f0cef03b5a9d9" target="_top" xlink:title="Case2F">
<polygon fill="white" stroke="black" points="328.5,-494.5 328.5,-513.5 379.5,-513.5 379.5,-494.5 328.5,-494.5"/>
<text text-anchor="middle" x="354" y="-501.5" font-family="Helvetica,sans-Serif" font-size="10.00">Case2F</text>
</a>
</g>
</g>
<!-- Node3&#45;&gt;Node5 -->
<g id="edge4" class="edge"><title>Node3&#45;&gt;Node5</title>
<path fill="none" stroke="midnightblue" d="M246.338,-277.727C258.383,-279.915 274.633,-284.859 284,-296 339.028,-361.452 270.433,-415.321 320,-485 320.754,-486.061 321.588,-487.07 322.484,-488.031"/>
<polygon fill="midnightblue" stroke="midnightblue" points="320.353,-490.81 330.301,-494.457 324.799,-485.403 320.353,-490.81"/>
</g>
<!-- Node6 -->
<g id="node6" class="node"><title>Node6</title>
<g id="a_node6"><a xlink:href="../../d4/d67/lms_8c.html#a5f53b53ccc591e3643c4af2aee2e7f32" target="_top" xlink:title="Case3F">
<polygon fill="white" stroke="black" points="328.5,-456.5 328.5,-475.5 379.5,-475.5 379.5,-456.5 328.5,-456.5"/>
<text text-anchor="middle" x="354" y="-463.5" font-family="Helvetica,sans-Serif" font-size="10.00">Case3F</text>
</a>
</g>
</g>
<!-- Node3&#45;&gt;Node6 -->
<g id="edge5" class="edge"><title>Node3&#45;&gt;Node6</title>
<path fill="none" stroke="midnightblue" d="M246.203,-277.843C258.169,-280.099 274.381,-285.076 284,-296 329.596,-347.777 278.731,-391.712 320,-447 320.779,-448.043 321.632,-449.038 322.546,-449.986"/>
<polygon fill="midnightblue" stroke="midnightblue" points="320.457,-452.798 330.437,-456.358 324.855,-447.352 320.457,-452.798"/>
</g>
<!-- Node7 -->
<g id="node7" class="node"><title>Node7</title>
<g id="a_node7"><a xlink:href="../../d4/d67/lms_8c.html#a5086763d5b258349bc13d6be7e7d0665" target="_top" xlink:title="Case4F">
<polygon fill="white" stroke="black" points="328.5,-418.5 328.5,-437.5 379.5,-437.5 379.5,-418.5 328.5,-418.5"/>
<text text-anchor="middle" x="354" y="-425.5" font-family="Helvetica,sans-Serif" font-size="10.00">Case4F</text>
</a>
</g>
</g>
<!-- Node3&#45;&gt;Node7 -->
<g id="edge6" class="edge"><title>Node3&#45;&gt;Node7</title>
<path fill="none" stroke="midnightblue" d="M246.473,-278.135C258.268,-280.544 274.116,-285.584 284,-296 320.282,-334.235 286.922,-367.962 320,-409 320.933,-410.158 321.958,-411.259 323.05,-412.305"/>
<polygon fill="midnightblue" stroke="midnightblue" points="320.93,-415.09 330.992,-418.407 325.194,-409.539 320.93,-415.09"/>
</g>
<!-- Node8 -->
<g id="node8" class="node"><title>Node8</title>
<g id="a_node8"><a xlink:href="../../d4/d67/lms_8c.html#ac81ca32708341eb34b25d515d00bc748" target="_top" xlink:title="vector">
<polygon fill="white" stroke="black" points="332,-380.5 332,-399.5 376,-399.5 376,-380.5 332,-380.5"/>
<text text-anchor="middle" x="354" y="-387.5" font-family="Helvetica,sans-Serif" font-size="10.00">vector</text>
</a>
</g>
</g>
<!-- Node3&#45;&gt;Node8 -->
<g id="edge7" class="edge"><title>Node3&#45;&gt;Node8</title>
<path fill="none" stroke="midnightblue" d="M246.085,-278.53C257.666,-281.156 273.416,-286.296 284,-296 311.253,-320.988 294.852,-343.895 320,-371 321.175,-372.266 322.453,-373.472 323.802,-374.616"/>
<polygon fill="midnightblue" stroke="midnightblue" points="321.889,-377.55 332.067,-380.492 325.945,-371.845 321.889,-377.55"/>
</g>
<!-- Node9 -->
<g id="node9" class="node"><title>Node9</title>
<g id="a_node9"><a xlink:href="../../d4/d67/lms_8c.html#a37bcb1539d76b53344102435e2ab9c91" target="_top" xlink:title="matrix">
<polygon fill="white" stroke="black" points="332,-342.5 332,-361.5 376,-361.5 376,-342.5 332,-342.5"/>
<text text-anchor="middle" x="354" y="-349.5" font-family="Helvetica,sans-Serif" font-size="10.00">matrix</text>
</a>
</g>
</g>
<!-- Node3&#45;&gt;Node9 -->
<g id="edge8" class="edge"><title>Node3&#45;&gt;Node9</title>
<path fill="none" stroke="midnightblue" d="M246.22,-279.813C257.289,-283.031 272.318,-288.347 284,-296 303.192,-308.573 301.885,-318.919 320,-333 321.781,-334.385 323.674,-335.738 325.617,-337.043"/>
<polygon fill="midnightblue" stroke="midnightblue" points="323.922,-340.111 334.265,-342.41 327.614,-334.163 323.922,-340.111"/>
</g>
<!-- Node10 -->
<g id="node10" class="node"><title>Node10</title>
<g id="a_node10"><a xlink:href="../../d4/d67/lms_8c.html#ad1d6c875ff429888b51dd1155f0311ad" target="_top" xlink:title="ivector">
<polygon fill="white" stroke="black" points="331,-304.5 331,-323.5 377,-323.5 377,-304.5 331,-304.5"/>
<text text-anchor="middle" x="354" y="-311.5" font-family="Helvetica,sans-Serif" font-size="10.00">ivector</text>
</a>
</g>
</g>
<!-- Node3&#45;&gt;Node10 -->
<g id="edge9" class="edge"><title>Node3&#45;&gt;Node10</title>
<path fill="none" stroke="midnightblue" d="M246.451,-280.813C265.078,-286.614 296.868,-296.516 320.888,-303.998"/>
<polygon fill="midnightblue" stroke="midnightblue" points="320.057,-307.405 330.646,-307.037 322.139,-300.722 320.057,-307.405"/>
</g>
<!-- Node11 -->
<g id="node11" class="node"><title>Node11</title>
<g id="a_node11"><a xlink:href="../../db/de5/recipes_8c.html#a623fec796d9d53e5e4a4d30226547da7" target="_top" xlink:title="ludcmp">
<polygon fill="white" stroke="black" points="330,-266.5 330,-285.5 378,-285.5 378,-266.5 330,-266.5"/>
<text text-anchor="middle" x="354" y="-273.5" font-family="Helvetica,sans-Serif" font-size="10.00">ludcmp</text>
</a>
</g>
</g>
<!-- Node3&#45;&gt;Node11 -->
<g id="edge10" class="edge"><title>Node3&#45;&gt;Node11</title>
<path fill="none" stroke="midnightblue" d="M246.451,-276C264.771,-276 295.825,-276 319.696,-276"/>
<polygon fill="midnightblue" stroke="midnightblue" points="319.757,-279.5 329.757,-276 319.757,-272.5 319.757,-279.5"/>
</g>
<!-- Node14 -->
<g id="node14" class="node"><title>Node14</title>
<g id="a_node14"><a xlink:href="../../db/de5/recipes_8c.html#a8214a52d888e820222c0382648329c0c" target="_top" xlink:title="free_vector">
<polygon fill="white" stroke="black" points="424,-228.5 424,-247.5 489,-247.5 489,-228.5 424,-228.5"/>
<text text-anchor="middle" x="456.5" y="-235.5" font-family="Helvetica,sans-Serif" font-size="10.00">free_vector</text>
</a>
</g>
</g>
<!-- Node3&#45;&gt;Node14 -->
<g id="edge22" class="edge"><title>Node3&#45;&gt;Node14</title>
<path fill="none" stroke="midnightblue" d="M246.054,-272.445C263.701,-268.357 293.861,-261.617 320,-257 351.286,-251.474 386.867,-246.536 413.714,-243.08"/>
<polygon fill="midnightblue" stroke="midnightblue" points="414.435,-246.517 423.914,-241.784 413.552,-239.573 414.435,-246.517"/>
</g>
<!-- Node15 -->
<g id="node15" class="node"><title>Node15</title>
<g id="a_node15"><a xlink:href="../../db/de5/recipes_8c.html#a66ff65ad0355ec1f4a7722bcdafc8cd3" target="_top" xlink:title="lubksb">
<polygon fill="white" stroke="black" points="331.5,-190.5 331.5,-209.5 376.5,-209.5 376.5,-190.5 331.5,-190.5"/>
<text text-anchor="middle" x="354" y="-197.5" font-family="Helvetica,sans-Serif" font-size="10.00">lubksb</text>
</a>
</g>
</g>
<!-- Node3&#45;&gt;Node15 -->
<g id="edge15" class="edge"><title>Node3&#45;&gt;Node15</title>
<path fill="none" stroke="midnightblue" d="M246.451,-266.375C267.26,-253.412 304.499,-230.214 328.978,-214.965"/>
<polygon fill="midnightblue" stroke="midnightblue" points="331.037,-217.806 337.674,-209.547 327.336,-211.864 331.037,-217.806"/>
</g>
<!-- Node16 -->
<g id="node16" class="node"><title>Node16</title>
<g id="a_node16"><a xlink:href="../../d8/d91/rounding_8c.html#aca2670cc0fbf948a6b9cb670047c9d5b" target="_top" xlink:title="round2int">
<polygon fill="white" stroke="black" points="326,-152.5 326,-171.5 382,-171.5 382,-152.5 326,-152.5"/>
<text text-anchor="middle" x="354" y="-159.5" font-family="Helvetica,sans-Serif" font-size="10.00">round2int</text>
</a>
</g>
</g>
<!-- Node3&#45;&gt;Node16 -->
<g id="edge16" class="edge"><title>Node3&#45;&gt;Node16</title>
<path fill="none" stroke="midnightblue" d="M238.306,-266.494C252.59,-248.33 285.816,-208.093 320,-181 321.768,-179.599 323.651,-178.233 325.587,-176.919"/>
<polygon fill="midnightblue" stroke="midnightblue" points="327.588,-179.796 334.221,-171.534 323.884,-173.857 327.588,-179.796"/>
</g>
<!-- Node18 -->
<g id="node18" class="node"><title>Node18</title>
<g id="a_node18"><a xlink:href="../../d8/d91/rounding_8c.html#aa8d7512cdf5bfbf811cef6a8a091c679" target="_top" xlink:title="round2csd">
<polygon fill="white" stroke="black" points="323,-114.5 323,-133.5 385,-133.5 385,-114.5 323,-114.5"/>
<text text-anchor="middle" x="354" y="-121.5" font-family="Helvetica,sans-Serif" font-size="10.00">round2csd</text>
</a>
</g>
</g>
<!-- Node3&#45;&gt;Node18 -->
<g id="edge18" class="edge"><title>Node3&#45;&gt;Node18</title>
<path fill="none" stroke="midnightblue" d="M235.567,-266.211C246.977,-242.578 278.799,-181.516 320,-143 321.295,-141.79 322.68,-140.624 324.124,-139.508"/>
<polygon fill="midnightblue" stroke="midnightblue" points="326.446,-142.164 332.787,-133.676 322.537,-136.357 326.446,-142.164"/>
</g>
<!-- Node21 -->
<g id="node21" class="node"><title>Node21</title>
<g id="a_node21"><a xlink:href="../../db/de5/recipes_8c.html#a3e0d121b098c19c0bdc2429e5b9f1625" target="_top" xlink:title="free_matrix">
<polygon fill="white" stroke="black" points="321.5,-76.5 321.5,-95.5 386.5,-95.5 386.5,-76.5 321.5,-76.5"/>
<text text-anchor="middle" x="354" y="-83.5" font-family="Helvetica,sans-Serif" font-size="10.00">free_matrix</text>
</a>
</g>
</g>
<!-- Node3&#45;&gt;Node21 -->
<g id="edge23" class="edge"><title>Node3&#45;&gt;Node21</title>
<path fill="none" stroke="midnightblue" d="M233.878,-266.336C242.635,-238.304 271.37,-155.742 320,-105 321.195,-103.753 322.49,-102.563 323.852,-101.431"/>
<polygon fill="midnightblue" stroke="midnightblue" points="325.989,-104.206 332.154,-95.5906 321.961,-98.4809 325.989,-104.206"/>
</g>
<!-- Node22 -->
<g id="node22" class="node"><title>Node22</title>
<g id="a_node22"><a xlink:href="../../db/de5/recipes_8c.html#aee25e218394217a134e805ea09fb0fe9" target="_top" xlink:title="free_ivector">
<polygon fill="white" stroke="black" points="320,-38.5 320,-57.5 388,-57.5 388,-38.5 320,-38.5"/>
<text text-anchor="middle" x="354" y="-45.5" font-family="Helvetica,sans-Serif" font-size="10.00">free_ivector</text>
</a>
</g>
</g>
<!-- Node3&#45;&gt;Node22 -->
<g id="edge24" class="edge"><title>Node3&#45;&gt;Node22</title>
<path fill="none" stroke="midnightblue" d="M234.908,-266.353C251.142,-226.346 312.739,-75.188 320,-67 321.014,-65.8562 322.115,-64.764 323.277,-63.7234"/>
<polygon fill="midnightblue" stroke="midnightblue" points="325.616,-66.3484 331.6,-57.6052 321.47,-60.7084 325.616,-66.3484"/>
</g>
<!-- Node12 -->
<g id="node12" class="node"><title>Node12</title>
<g id="a_node12"><a xlink:href="../../db/de5/recipes_8c.html#a5e6092211a5f7e2d6ae9282379d3c604" target="_top" xlink:title="vector">
<polygon fill="white" stroke="black" points="434.5,-304.5 434.5,-323.5 478.5,-323.5 478.5,-304.5 434.5,-304.5"/>
<text text-anchor="middle" x="456.5" y="-311.5" font-family="Helvetica,sans-Serif" font-size="10.00">vector</text>
</a>
</g>
</g>
<!-- Node11&#45;&gt;Node12 -->
<g id="edge11" class="edge"><title>Node11&#45;&gt;Node12</title>
<path fill="none" stroke="midnightblue" d="M378.057,-284.718C391.938,-289.967 409.781,-296.713 424.84,-302.407"/>
<polygon fill="midnightblue" stroke="midnightblue" points="423.674,-305.708 434.265,-305.971 426.149,-299.16 423.674,-305.708"/>
</g>
<!-- Node13 -->
<g id="node13" class="node"><title>Node13</title>
<g id="a_node13"><a xlink:href="../../db/de5/recipes_8c.html#a208e98f19b2f252315399d02c0594a46" target="_top" xlink:title="nrerror">
<polygon fill="white" stroke="black" points="525,-285.5 525,-304.5 569,-304.5 569,-285.5 525,-285.5"/>
<text text-anchor="middle" x="547" y="-292.5" font-family="Helvetica,sans-Serif" font-size="10.00">nrerror</text>
</a>
</g>
</g>
<!-- Node11&#45;&gt;Node13 -->
<g id="edge14" class="edge"><title>Node11&#45;&gt;Node13</title>
<path fill="none" stroke="midnightblue" d="M378.039,-278.292C412.23,-281.693 476.482,-288.085 514.842,-291.9"/>
<polygon fill="midnightblue" stroke="midnightblue" points="514.631,-295.397 524.928,-292.904 515.324,-288.431 514.631,-295.397"/>
</g>
<!-- Node11&#45;&gt;Node14 -->
<g id="edge13" class="edge"><title>Node11&#45;&gt;Node14</title>
<path fill="none" stroke="midnightblue" d="M378.057,-267.282C390.676,-262.511 406.569,-256.501 420.668,-251.17"/>
<polygon fill="midnightblue" stroke="midnightblue" points="421.965,-254.422 430.081,-247.611 419.489,-247.874 421.965,-254.422"/>
</g>
<!-- Node12&#45;&gt;Node13 -->
<g id="edge12" class="edge"><title>Node12&#45;&gt;Node13</title>
<path fill="none" stroke="midnightblue" d="M478.923,-309.401C489.685,-307.09 502.928,-304.247 514.796,-301.699"/>
<polygon fill="midnightblue" stroke="midnightblue" points="515.731,-305.078 524.774,-299.557 514.262,-298.234 515.731,-305.078"/>
</g>
<!-- Node17 -->
<g id="node17" class="node"><title>Node17</title>
<g id="a_node17"><a xlink:href="../../db/d82/wglew_8h.html#a500a82aecba06f4550f6849b8099ca21" target="_top" xlink:title="int">
<polygon fill="white" stroke="black" points="442,-152.5 442,-171.5 471,-171.5 471,-152.5 442,-152.5"/>
<text text-anchor="middle" x="456.5" y="-159.5" font-family="Helvetica,sans-Serif" font-size="10.00">int</text>
</a>
</g>
</g>
<!-- Node16&#45;&gt;Node17 -->
<g id="edge17" class="edge"><title>Node16&#45;&gt;Node17</title>
<path fill="none" stroke="midnightblue" d="M382.197,-162C397.576,-162 416.634,-162 431.462,-162"/>
<polygon fill="midnightblue" stroke="midnightblue" points="431.846,-165.5 441.846,-162 431.846,-158.5 431.846,-165.5"/>
</g>
<!-- Node18&#45;&gt;Node17 -->
<g id="edge19" class="edge"><title>Node18&#45;&gt;Node17</title>
<path fill="none" stroke="midnightblue" d="M380.36,-133.589C396.388,-139.649 416.934,-147.418 432.49,-153.3"/>
<polygon fill="midnightblue" stroke="midnightblue" points="431.302,-156.592 441.894,-156.855 433.778,-150.045 431.302,-156.592"/>
</g>
<!-- Node19 -->
<g id="node19" class="node"><title>Node19</title>
<g id="a_node19"><a xlink:href="../../d8/d91/rounding_8c.html#ab3a64ec72c5600bc114621e93309c8c3" target="_top" xlink:title="int2csd">
<polygon fill="white" stroke="black" points="432.5,-114.5 432.5,-133.5 480.5,-133.5 480.5,-114.5 432.5,-114.5"/>
<text text-anchor="middle" x="456.5" y="-121.5" font-family="Helvetica,sans-Serif" font-size="10.00">int2csd</text>
</a>
</g>
</g>
<!-- Node18&#45;&gt;Node19 -->
<g id="edge20" class="edge"><title>Node18&#45;&gt;Node19</title>
<path fill="none" stroke="midnightblue" d="M385.153,-124C396.87,-124 410.331,-124 422.321,-124"/>
<polygon fill="midnightblue" stroke="midnightblue" points="422.398,-127.5 432.398,-124 422.398,-120.5 422.398,-127.5"/>
</g>
<!-- Node20 -->
<g id="node20" class="node"><title>Node20</title>
<g id="a_node20"><a xlink:href="../../d8/d91/rounding_8c.html#a2cff6b77e73872659c44b0c99f6bd97f" target="_top" xlink:title="csd2int">
<polygon fill="white" stroke="black" points="432.5,-76.5 432.5,-95.5 480.5,-95.5 480.5,-76.5 432.5,-76.5"/>
<text text-anchor="middle" x="456.5" y="-83.5" font-family="Helvetica,sans-Serif" font-size="10.00">csd2int</text>
</a>
</g>
</g>
<!-- Node18&#45;&gt;Node20 -->
<g id="edge21" class="edge"><title>Node18&#45;&gt;Node20</title>
<path fill="none" stroke="midnightblue" d="M380.36,-114.411C393.181,-109.563 408.894,-103.622 422.631,-98.4281"/>
<polygon fill="midnightblue" stroke="midnightblue" points="424.099,-101.615 432.214,-94.8045 421.623,-95.0675 424.099,-101.615"/>
</g>
<!-- Node24 -->
<g id="node24" class="node"><title>Node24</title>
<g id="a_node24"><a xlink:href="../../d9/df5/Logger_8cpp.html#ada38bf01d6d691de953ed69268ea6516" target="_top" xlink:title="errToStr">
<polygon fill="white" stroke="black" points="328,-0.5 328,-19.5 380,-19.5 380,-0.5 328,-0.5"/>
<text text-anchor="middle" x="354" y="-7.5" font-family="Helvetica,sans-Serif" font-size="10.00">errToStr</text>
</a>
</g>
</g>
<!-- Node23&#45;&gt;Node24 -->
<g id="edge26" class="edge"><title>Node23&#45;&gt;Node24</title>
<path fill="none" stroke="midnightblue" d="M238.306,-114.494C252.59,-96.3305 285.816,-56.0931 320,-29 321.768,-27.5987 323.651,-26.2334 325.587,-24.9194"/>
<polygon fill="midnightblue" stroke="midnightblue" points="327.588,-27.7962 334.221,-19.5343 323.884,-21.8567 327.588,-27.7962"/>
</g>
</g>
</svg>
        <g id="navigator" transform="translate(0 0)" fill="#404254">
                <rect fill="#f2f5e9" fill-opacity="0.5" stroke="#606060" stroke-width=".5" x="0" y="0" width="60" height="60"/>
                <use id="zoomplus" xlink:href="#zoomPlus" x="17" y="9" onmousedown="handleZoom(evt,'in')"/>
                <use id="zoomminus" xlink:href="#zoomMin" x="42" y="9" onmousedown="handleZoom(evt,'out')"/>
                <use id="reset" xlink:href="#resetDef" x="30" y="36" onmousedown="handleReset()"/>
                <g id="arrowUp" xlink:href="#dirArrow" transform="translate(30 24)" onmousedown="handlePan(0,-1)">
                  <use xlink:href="#rim" fill="#404040">
                        <set attributeName="fill" to="#808080" begin="arrowUp.mouseover" end="arrowUp.mouseout"/>
                  </use>
                  <path fill="none" stroke="white" stroke-width="1.5" d="M0,-3.0v7 M-2.5,-0.5L0,-3.0L2.5,-0.5"/>
                </g>
                <g id="arrowRight" xlink:href="#dirArrow" transform="rotate(90) translate(36 -43)" onmousedown="handlePan(1,0)">
                  <use xlink:href="#rim" fill="#404040">
                        <set attributeName="fill" to="#808080" begin="arrowRight.mouseover" end="arrowRight.mouseout"/>
                  </use>
                  <path fill="none" stroke="white" stroke-width="1.5" d="M0,-3.0v7 M-2.5,-0.5L0,-3.0L2.5,-0.5"/>
                </g>
                <g id="arrowDown" xlink:href="#dirArrow" transform="rotate(180) translate(-30 -48)" onmousedown="handlePan(0,1)">
                  <use xlink:href="#rim" fill="#404040">
                        <set attributeName="fill" to="#808080" begin="arrowDown.mouseover" end="arrowDown.mouseout"/>
                  </use>
                  <path fill="none" stroke="white" stroke-width="1.5" d="M0,-3.0v7 M-2.5,-0.5L0,-3.0L2.5,-0.5"/>
                </g>
                <g id="arrowLeft" xlink:href="#dirArrow" transform="rotate(270) translate(-36 17)" onmousedown="handlePan(-1,0)">
                  <use xlink:href="#rim" fill="#404040">
                        <set attributeName="fill" to="#808080" begin="arrowLeft.mouseover" end="arrowLeft.mouseout"/>
                  </use>
                  <path fill="none" stroke="white" stroke-width="1.5" d="M0,-3.0v7 M-2.5,-0.5L0,-3.0L2.5,-0.5"/>
                </g>
        </g>
        <svg viewBox="0 0 15 15" width="100%" height="30px" preserveAspectRatio="xMaxYMin meet">
         <g id="arrow_out" transform="scale(0.3 0.3)">
          <a xlink:href="lms7__api_8cpp_a2be0ab821f7a13e137c807521bb0e467_cgraph_org.svg" target="_base">
           <rect id="button" ry="5" rx="5" y="6" x="6" height="38" width="38"
                fill="#f2f5e9" fill-opacity="0.5" stroke="#606060" stroke-width="1.0"/>
           <path id="arrow"
             d="M 11.500037,31.436501 C 11.940474,20.09759 22.043105,11.32322 32.158766,21.979434 L 37.068811,17.246167 C 37.068811,17.246167 37.088388,32 37.088388,32 L 22.160133,31.978069 C 22.160133,31.978069 26.997745,27.140456 26.997745,27.140456 C 18.528582,18.264221 13.291696,25.230495 11.500037,31.436501 z"
             style="fill:#404040;"/>
          </a>
         </g>
        </svg>
</svg>
