<?xml version="1.0" encoding="UTF-8" standalone="no"?>
<!DOCTYPE svg PUBLIC "-//W3C//DTD SVG 1.1//EN"
 "http://www.w3.org/Graphics/SVG/1.1/DTD/svg11.dtd">
<!-- Generated by graphviz version 2.38.0 (20140413.2041)
 -->
<!-- Title: LMS_GPIODirRead Pages: 1 -->
<svg width="540pt" height="560pt"
 viewBox="0.00 0.00 540.00 560.00" xmlns="http://www.w3.org/2000/svg" xmlns:xlink="http://www.w3.org/1999/xlink">
<g id="graph0" class="graph" transform="scale(1 1) rotate(0) translate(4 556)">
<title>LMS_GPIODirRead</title>
<polygon fill="white" stroke="none" points="-4,4 -4,-556 536,-556 536,4 -4,4"/>
<!-- Node1 -->
<g id="node1" class="node"><title>Node1</title>
<polygon fill="#bfbfbf" stroke="black" points="0,-266.5 0,-285.5 103,-285.5 103,-266.5 0,-266.5"/>
<text text-anchor="middle" x="51.5" y="-273.5" font-family="Helvetica,sans-Serif" font-size="10.00">LMS_GPIODirRead</text>
</g>
<!-- Node2 -->
<g id="node2" class="node"><title>Node2</title>
<g id="a_node2"><a xlink:href="../../d3/d22/classlime_1_1LMS7__Device.html#a4fb66a6ab68f16a0b6506329b05a08b2" target="_top" xlink:title="lime::LMS7_Device::\lGetConnection">
<polygon fill="white" stroke="black" points="139,-305 139,-335 247,-335 247,-305 139,-305"/>
<text text-anchor="start" x="147" y="-323" font-family="Helvetica,sans-Serif" font-size="10.00">lime::LMS7_Device::</text>
<text text-anchor="middle" x="193" y="-312" font-family="Helvetica,sans-Serif" font-size="10.00">GetConnection</text>
</a>
</g>
</g>
<!-- Node1&#45;&gt;Node2 -->
<g id="edge1" class="edge"><title>Node1&#45;&gt;Node2</title>
<path fill="none" stroke="midnightblue" d="M82.7694,-285.547C97.9145,-290.324 116.763,-296.269 134.516,-301.869"/>
<polygon fill="midnightblue" stroke="midnightblue" points="133.646,-305.264 144.236,-304.935 135.752,-298.589 133.646,-305.264"/>
</g>
<!-- Node3 -->
<g id="node3" class="node"><title>Node3</title>
<g id="a_node3"><a xlink:href="../../d4/d67/lms_8c.html#a0e01e477b1f10e0a63e54de2dd2f8240" target="_top" xlink:title="lms">
<polygon fill="white" stroke="black" points="177,-266.5 177,-285.5 209,-285.5 209,-266.5 177,-266.5"/>
<text text-anchor="middle" x="193" y="-273.5" font-family="Helvetica,sans-Serif" font-size="10.00">lms</text>
</a>
</g>
</g>
<!-- Node1&#45;&gt;Node3 -->
<g id="edge2" class="edge"><title>Node1&#45;&gt;Node3</title>
<path fill="none" stroke="midnightblue" d="M103.257,-276C124.805,-276 148.97,-276 166.636,-276"/>
<polygon fill="midnightblue" stroke="midnightblue" points="166.715,-279.5 176.715,-276 166.715,-272.5 166.715,-279.5"/>
</g>
<!-- Node23 -->
<g id="node23" class="node"><title>Node23</title>
<g id="a_node23"><a xlink:href="../../d5/d6c/namespacelime.html#adc6af0cf8e0a70f3ef09fac1244f8c48" target="_top" xlink:title="lime::ReportError">
<polygon fill="white" stroke="black" points="147.5,-114.5 147.5,-133.5 238.5,-133.5 238.5,-114.5 147.5,-114.5"/>
<text text-anchor="middle" x="193" y="-121.5" font-family="Helvetica,sans-Serif" font-size="10.00">lime::ReportError</text>
</a>
</g>
</g>
<!-- Node1&#45;&gt;Node23 -->
<g id="edge25" class="edge"><title>Node1&#45;&gt;Node23</title>
<path fill="none" stroke="midnightblue" d="M61.2263,-266.492C84.2236,-241.434 146.74,-173.316 176.218,-141.196"/>
<polygon fill="midnightblue" stroke="midnightblue" points="179.094,-143.239 183.277,-133.505 173.937,-138.506 179.094,-143.239"/>
</g>
<!-- Node4 -->
<g id="node4" class="node"><title>Node4</title>
<g id="a_node4"><a xlink:href="../../d4/d67/lms_8c.html#a433227191fe883dcb8aa15d291bb29a1" target="_top" xlink:title="Case1F">
<polygon fill="white" stroke="black" points="291.5,-532.5 291.5,-551.5 342.5,-551.5 342.5,-532.5 291.5,-532.5"/>
<text text-anchor="middle" x="317" y="-539.5" font-family="Helvetica,sans-Serif" font-size="10.00">Case1F</text>
</a>
</g>
</g>
<!-- Node3&#45;&gt;Node4 -->
<g id="edge3" class="edge"><title>Node3&#45;&gt;Node4</title>
<path fill="none" stroke="midnightblue" d="M209.431,-277.65C221.529,-279.794 237.807,-284.715 247,-296 311.518,-375.196 225.083,-438.856 283,-523 283.637,-523.926 284.335,-524.812 285.083,-525.661"/>
<polygon fill="midnightblue" stroke="midnightblue" points="282.991,-528.477 292.872,-532.301 287.533,-523.15 282.991,-528.477"/>
</g>
<!-- Node5 -->
<g id="node5" class="node"><title>Node5</title>
<g id="a_node5"><a xlink:href="../../d4/d67/lms_8c.html#ace0cd8bf61cb9b86b98f0cef03b5a9d9" target="_top" xlink:title="Case2F">
<polygon fill="white" stroke="black" points="291.5,-494.5 291.5,-513.5 342.5,-513.5 342.5,-494.5 291.5,-494.5"/>
<text text-anchor="middle" x="317" y="-501.5" font-family="Helvetica,sans-Serif" font-size="10.00">Case2F</text>
</a>
</g>
</g>
<!-- Node3&#45;&gt;Node5 -->
<g id="edge4" class="edge"><title>Node3&#45;&gt;Node5</title>
<path fill="none" stroke="midnightblue" d="M209.338,-277.727C221.383,-279.915 237.633,-284.859 247,-296 302.028,-361.452 233.433,-415.321 283,-485 283.754,-486.061 284.588,-487.07 285.484,-488.031"/>
<polygon fill="midnightblue" stroke="midnightblue" points="283.353,-490.81 293.301,-494.457 287.799,-485.403 283.353,-490.81"/>
</g>
<!-- Node6 -->
<g id="node6" class="node"><title>Node6</title>
<g id="a_node6"><a xlink:href="../../d4/d67/lms_8c.html#a5f53b53ccc591e3643c4af2aee2e7f32" target="_top" xlink:title="Case3F">
<polygon fill="white" stroke="black" points="291.5,-456.5 291.5,-475.5 342.5,-475.5 342.5,-456.5 291.5,-456.5"/>
<text text-anchor="middle" x="317" y="-463.5" font-family="Helvetica,sans-Serif" font-size="10.00">Case3F</text>
</a>
</g>
</g>
<!-- Node3&#45;&gt;Node6 -->
<g id="edge5" class="edge"><title>Node3&#45;&gt;Node6</title>
<path fill="none" stroke="midnightblue" d="M209.203,-277.843C221.169,-280.099 237.381,-285.076 247,-296 292.596,-347.777 241.731,-391.712 283,-447 283.779,-448.043 284.632,-449.038 285.546,-449.986"/>
<polygon fill="midnightblue" stroke="midnightblue" points="283.457,-452.798 293.437,-456.358 287.855,-447.352 283.457,-452.798"/>
</g>
<!-- Node7 -->
<g id="node7" class="node"><title>Node7</title>
<g id="a_node7"><a xlink:href="../../d4/d67/lms_8c.html#a5086763d5b258349bc13d6be7e7d0665" target="_top" xlink:title="Case4F">
<polygon fill="white" stroke="black" points="291.5,-418.5 291.5,-437.5 342.5,-437.5 342.5,-418.5 291.5,-418.5"/>
<text text-anchor="middle" x="317" y="-425.5" font-family="Helvetica,sans-Serif" font-size="10.00">Case4F</text>
</a>
</g>
</g>
<!-- Node3&#45;&gt;Node7 -->
<g id="edge6" class="edge"><title>Node3&#45;&gt;Node7</title>
<path fill="none" stroke="midnightblue" d="M209.473,-278.135C221.268,-280.544 237.116,-285.584 247,-296 283.282,-334.235 249.922,-367.962 283,-409 283.933,-410.158 284.958,-411.259 286.05,-412.305"/>
<polygon fill="midnightblue" stroke="midnightblue" points="283.93,-415.09 293.992,-418.407 288.194,-409.539 283.93,-415.09"/>
</g>
<!-- Node8 -->
<g id="node8" class="node"><title>Node8</title>
<g id="a_node8"><a xlink:href="../../d4/d67/lms_8c.html#ac81ca32708341eb34b25d515d00bc748" target="_top" xlink:title="vector">
<polygon fill="white" stroke="black" points="295,-380.5 295,-399.5 339,-399.5 339,-380.5 295,-380.5"/>
<text text-anchor="middle" x="317" y="-387.5" font-family="Helvetica,sans-Serif" font-size="10.00">vector</text>
</a>
</g>
</g>
<!-- Node3&#45;&gt;Node8 -->
<g id="edge7" class="edge"><title>Node3&#45;&gt;Node8</title>
<path fill="none" stroke="midnightblue" d="M209.085,-278.53C220.666,-281.156 236.416,-286.296 247,-296 274.253,-320.988 257.852,-343.895 283,-371 284.175,-372.266 285.453,-373.472 286.802,-374.616"/>
<polygon fill="midnightblue" stroke="midnightblue" points="284.889,-377.55 295.067,-380.492 288.945,-371.845 284.889,-377.55"/>
</g>
<!-- Node9 -->
<g id="node9" class="node"><title>Node9</title>
<g id="a_node9"><a xlink:href="../../d4/d67/lms_8c.html#a37bcb1539d76b53344102435e2ab9c91" target="_top" xlink:title="matrix">
<polygon fill="white" stroke="black" points="295,-342.5 295,-361.5 339,-361.5 339,-342.5 295,-342.5"/>
<text text-anchor="middle" x="317" y="-349.5" font-family="Helvetica,sans-Serif" font-size="10.00">matrix</text>
</a>
</g>
</g>
<!-- Node3&#45;&gt;Node9 -->
<g id="edge8" class="edge"><title>Node3&#45;&gt;Node9</title>
<path fill="none" stroke="midnightblue" d="M209.22,-279.813C220.289,-283.031 235.318,-288.347 247,-296 266.192,-308.573 264.885,-318.919 283,-333 284.781,-334.385 286.674,-335.738 288.617,-337.043"/>
<polygon fill="midnightblue" stroke="midnightblue" points="286.922,-340.111 297.265,-342.41 290.614,-334.163 286.922,-340.111"/>
</g>
<!-- Node10 -->
<g id="node10" class="node"><title>Node10</title>
<g id="a_node10"><a xlink:href="../../d4/d67/lms_8c.html#ad1d6c875ff429888b51dd1155f0311ad" target="_top" xlink:title="ivector">
<polygon fill="white" stroke="black" points="294,-304.5 294,-323.5 340,-323.5 340,-304.5 294,-304.5"/>
<text text-anchor="middle" x="317" y="-311.5" font-family="Helvetica,sans-Serif" font-size="10.00">ivector</text>
</a>
</g>
</g>
<!-- Node3&#45;&gt;Node10 -->
<g id="edge9" class="edge"><title>Node3&#45;&gt;Node10</title>
<path fill="none" stroke="midnightblue" d="M209.451,-280.813C228.078,-286.614 259.868,-296.516 283.888,-303.998"/>
<polygon fill="midnightblue" stroke="midnightblue" points="283.057,-307.405 293.646,-307.037 285.139,-300.722 283.057,-307.405"/>
</g>
<!-- Node11 -->
<g id="node11" class="node"><title>Node11</title>
<g id="a_node11"><a xlink:href="../../db/de5/recipes_8c.html#a623fec796d9d53e5e4a4d30226547da7" target="_top" xlink:title="ludcmp">
<polygon fill="white" stroke="black" points="293,-266.5 293,-285.5 341,-285.5 341,-266.5 293,-266.5"/>
<text text-anchor="middle" x="317" y="-273.5" font-family="Helvetica,sans-Serif" font-size="10.00">ludcmp</text>
</a>
</g>
</g>
<!-- Node3&#45;&gt;Node11 -->
<g id="edge10" class="edge"><title>Node3&#45;&gt;Node11</title>
<path fill="none" stroke="midnightblue" d="M209.451,-276C227.771,-276 258.825,-276 282.696,-276"/>
<polygon fill="midnightblue" stroke="midnightblue" points="282.757,-279.5 292.757,-276 282.757,-272.5 282.757,-279.5"/>
</g>
<!-- Node14 -->
<g id="node14" class="node"><title>Node14</title>
<g id="a_node14"><a xlink:href="../../db/de5/recipes_8c.html#a8214a52d888e820222c0382648329c0c" target="_top" xlink:title="free_vector">
<polygon fill="white" stroke="black" points="387,-228.5 387,-247.5 452,-247.5 452,-228.5 387,-228.5"/>
<text text-anchor="middle" x="419.5" y="-235.5" font-family="Helvetica,sans-Serif" font-size="10.00">free_vector</text>
</a>
</g>
</g>
<!-- Node3&#45;&gt;Node14 -->
<g id="edge22" class="edge"><title>Node3&#45;&gt;Node14</title>
<path fill="none" stroke="midnightblue" d="M209.054,-272.445C226.701,-268.357 256.861,-261.617 283,-257 314.286,-251.474 349.867,-246.536 376.714,-243.08"/>
<polygon fill="midnightblue" stroke="midnightblue" points="377.435,-246.517 386.914,-241.784 376.552,-239.573 377.435,-246.517"/>
</g>
<!-- Node15 -->
<g id="node15" class="node"><title>Node15</title>
<g id="a_node15"><a xlink:href="../../db/de5/recipes_8c.html#a66ff65ad0355ec1f4a7722bcdafc8cd3" target="_top" xlink:title="lubksb">
<polygon fill="white" stroke="black" points="294.5,-190.5 294.5,-209.5 339.5,-209.5 339.5,-190.5 294.5,-190.5"/>
<text text-anchor="middle" x="317" y="-197.5" font-family="Helvetica,sans-Serif" font-size="10.00">lubksb</text>
</a>
</g>
</g>
<!-- Node3&#45;&gt;Node15 -->
<g id="edge15" class="edge"><title>Node3&#45;&gt;Node15</title>
<path fill="none" stroke="midnightblue" d="M209.451,-266.375C230.26,-253.412 267.499,-230.214 291.978,-214.965"/>
<polygon fill="midnightblue" stroke="midnightblue" points="294.037,-217.806 300.674,-209.547 290.336,-211.864 294.037,-217.806"/>
</g>
<!-- Node16 -->
<g id="node16" class="node"><title>Node16</title>
<g id="a_node16"><a xlink:href="../../d8/d91/rounding_8c.html#aca2670cc0fbf948a6b9cb670047c9d5b" target="_top" xlink:title="round2int">
<polygon fill="white" stroke="black" points="289,-152.5 289,-171.5 345,-171.5 345,-152.5 289,-152.5"/>
<text text-anchor="middle" x="317" y="-159.5" font-family="Helvetica,sans-Serif" font-size="10.00">round2int</text>
</a>
</g>
</g>
<!-- Node3&#45;&gt;Node16 -->
<g id="edge16" class="edge"><title>Node3&#45;&gt;Node16</title>
<path fill="none" stroke="midnightblue" d="M201.306,-266.494C215.59,-248.33 248.816,-208.093 283,-181 284.768,-179.599 286.651,-178.233 288.587,-176.919"/>
<polygon fill="midnightblue" stroke="midnightblue" points="290.588,-179.796 297.221,-171.534 286.884,-173.857 290.588,-179.796"/>
</g>
<!-- Node18 -->
<g id="node18" class="node"><title>Node18</title>
<g id="a_node18"><a xlink:href="../../d8/d91/rounding_8c.html#aa8d7512cdf5bfbf811cef6a8a091c679" target="_top" xlink:title="round2csd">
<polygon fill="white" stroke="black" points="286,-114.5 286,-133.5 348,-133.5 348,-114.5 286,-114.5"/>
<text text-anchor="middle" x="317" y="-121.5" font-family="Helvetica,sans-Serif" font-size="10.00">round2csd</text>
</a>
</g>
</g>
<!-- Node3&#45;&gt;Node18 -->
<g id="edge18" class="edge"><title>Node3&#45;&gt;Node18</title>
<path fill="none" stroke="midnightblue" d="M198.567,-266.211C209.977,-242.578 241.799,-181.516 283,-143 284.295,-141.79 285.68,-140.624 287.124,-139.508"/>
<polygon fill="midnightblue" stroke="midnightblue" points="289.446,-142.164 295.787,-133.676 285.537,-136.357 289.446,-142.164"/>
</g>
<!-- Node21 -->
<g id="node21" class="node"><title>Node21</title>
<g id="a_node21"><a xlink:href="../../db/de5/recipes_8c.html#a3e0d121b098c19c0bdc2429e5b9f1625" target="_top" xlink:title="free_matrix">
<polygon fill="white" stroke="black" points="284.5,-76.5 284.5,-95.5 349.5,-95.5 349.5,-76.5 284.5,-76.5"/>
<text text-anchor="middle" x="317" y="-83.5" font-family="Helvetica,sans-Serif" font-size="10.00">free_matrix</text>
</a>
</g>
</g>
<!-- Node3&#45;&gt;Node21 -->
<g id="edge23" class="edge"><title>Node3&#45;&gt;Node21</title>
<path fill="none" stroke="midnightblue" d="M196.878,-266.336C205.635,-238.304 234.37,-155.742 283,-105 284.195,-103.753 285.49,-102.563 286.852,-101.431"/>
<polygon fill="midnightblue" stroke="midnightblue" points="288.989,-104.206 295.154,-95.5906 284.961,-98.4809 288.989,-104.206"/>
</g>
<!-- Node22 -->
<g id="node22" class="node"><title>Node22</title>
<g id="a_node22"><a xlink:href="../../db/de5/recipes_8c.html#aee25e218394217a134e805ea09fb0fe9" target="_top" xlink:title="free_ivector">
<polygon fill="white" stroke="black" points="283,-38.5 283,-57.5 351,-57.5 351,-38.5 283,-38.5"/>
<text text-anchor="middle" x="317" y="-45.5" font-family="Helvetica,sans-Serif" font-size="10.00">free_ivector</text>
</a>
</g>
</g>
<!-- Node3&#45;&gt;Node22 -->
<g id="edge24" class="edge"><title>Node3&#45;&gt;Node22</title>
<path fill="none" stroke="midnightblue" d="M197.908,-266.353C214.142,-226.346 275.739,-75.188 283,-67 284.014,-65.8562 285.115,-64.764 286.277,-63.7234"/>
<polygon fill="midnightblue" stroke="midnightblue" points="288.616,-66.3484 294.6,-57.6052 284.47,-60.7084 288.616,-66.3484"/>
</g>
<!-- Node12 -->
<g id="node12" class="node"><title>Node12</title>
<g id="a_node12"><a xlink:href="../../db/de5/recipes_8c.html#a5e6092211a5f7e2d6ae9282379d3c604" target="_top" xlink:title="vector">
<polygon fill="white" stroke="black" points="397.5,-304.5 397.5,-323.5 441.5,-323.5 441.5,-304.5 397.5,-304.5"/>
<text text-anchor="middle" x="419.5" y="-311.5" font-family="Helvetica,sans-Serif" font-size="10.00">vector</text>
</a>
</g>
</g>
<!-- Node11&#45;&gt;Node12 -->
<g id="edge11" class="edge"><title>Node11&#45;&gt;Node12</title>
<path fill="none" stroke="midnightblue" d="M341.057,-284.718C354.938,-289.967 372.781,-296.713 387.84,-302.407"/>
<polygon fill="midnightblue" stroke="midnightblue" points="386.674,-305.708 397.265,-305.971 389.149,-299.16 386.674,-305.708"/>
</g>
<!-- Node13 -->
<g id="node13" class="node"><title>Node13</title>
<g id="a_node13"><a xlink:href="../../db/de5/recipes_8c.html#a208e98f19b2f252315399d02c0594a46" target="_top" xlink:title="nrerror">
<polygon fill="white" stroke="black" points="488,-285.5 488,-304.5 532,-304.5 532,-285.5 488,-285.5"/>
<text text-anchor="middle" x="510" y="-292.5" font-family="Helvetica,sans-Serif" font-size="10.00">nrerror</text>
</a>
</g>
</g>
<!-- Node11&#45;&gt;Node13 -->
<g id="edge14" class="edge"><title>Node11&#45;&gt;Node13</title>
<path fill="none" stroke="midnightblue" d="M341.039,-278.292C375.23,-281.693 439.482,-288.085 477.842,-291.9"/>
<polygon fill="midnightblue" stroke="midnightblue" points="477.631,-295.397 487.928,-292.904 478.324,-288.431 477.631,-295.397"/>
</g>
<!-- Node11&#45;&gt;Node14 -->
<g id="edge13" class="edge"><title>Node11&#45;&gt;Node14</title>
<path fill="none" stroke="midnightblue" d="M341.057,-267.282C353.676,-262.511 369.569,-256.501 383.668,-251.17"/>
<polygon fill="midnightblue" stroke="midnightblue" points="384.965,-254.422 393.081,-247.611 382.489,-247.874 384.965,-254.422"/>
</g>
<!-- Node12&#45;&gt;Node13 -->
<g id="edge12" class="edge"><title>Node12&#45;&gt;Node13</title>
<path fill="none" stroke="midnightblue" d="M441.923,-309.401C452.685,-307.09 465.928,-304.247 477.796,-301.699"/>
<polygon fill="midnightblue" stroke="midnightblue" points="478.731,-305.078 487.774,-299.557 477.262,-298.234 478.731,-305.078"/>
</g>
<!-- Node17 -->
<g id="node17" class="node"><title>Node17</title>
<g id="a_node17"><a xlink:href="../../db/d82/wglew_8h.html#a500a82aecba06f4550f6849b8099ca21" target="_top" xlink:title="int">
<polygon fill="white" stroke="black" points="405,-152.5 405,-171.5 434,-171.5 434,-152.5 405,-152.5"/>
<text text-anchor="middle" x="419.5" y="-159.5" font-family="Helvetica,sans-Serif" font-size="10.00">int</text>
</a>
</g>
</g>
<!-- Node16&#45;&gt;Node17 -->
<g id="edge17" class="edge"><title>Node16&#45;&gt;Node17</title>
<path fill="none" stroke="midnightblue" d="M345.197,-162C360.576,-162 379.634,-162 394.462,-162"/>
<polygon fill="midnightblue" stroke="midnightblue" points="394.846,-165.5 404.846,-162 394.846,-158.5 394.846,-165.5"/>
</g>
<!-- Node18&#45;&gt;Node17 -->
<g id="edge19" class="edge"><title>Node18&#45;&gt;Node17</title>
<path fill="none" stroke="midnightblue" d="M343.36,-133.589C359.388,-139.649 379.934,-147.418 395.49,-153.3"/>
<polygon fill="midnightblue" stroke="midnightblue" points="394.302,-156.592 404.894,-156.855 396.778,-150.045 394.302,-156.592"/>
</g>
<!-- Node19 -->
<g id="node19" class="node"><title>Node19</title>
<g id="a_node19"><a xlink:href="../../d8/d91/rounding_8c.html#ab3a64ec72c5600bc114621e93309c8c3" target="_top" xlink:title="int2csd">
<polygon fill="white" stroke="black" points="395.5,-114.5 395.5,-133.5 443.5,-133.5 443.5,-114.5 395.5,-114.5"/>
<text text-anchor="middle" x="419.5" y="-121.5" font-family="Helvetica,sans-Serif" font-size="10.00">int2csd</text>
</a>
</g>
</g>
<!-- Node18&#45;&gt;Node19 -->
<g id="edge20" class="edge"><title>Node18&#45;&gt;Node19</title>
<path fill="none" stroke="midnightblue" d="M348.153,-124C359.87,-124 373.331,-124 385.321,-124"/>
<polygon fill="midnightblue" stroke="midnightblue" points="385.398,-127.5 395.398,-124 385.398,-120.5 385.398,-127.5"/>
</g>
<!-- Node20 -->
<g id="node20" class="node"><title>Node20</title>
<g id="a_node20"><a xlink:href="../../d8/d91/rounding_8c.html#a2cff6b77e73872659c44b0c99f6bd97f" target="_top" xlink:title="csd2int">
<polygon fill="white" stroke="black" points="395.5,-76.5 395.5,-95.5 443.5,-95.5 443.5,-76.5 395.5,-76.5"/>
<text text-anchor="middle" x="419.5" y="-83.5" font-family="Helvetica,sans-Serif" font-size="10.00">csd2int</text>
</a>
</g>
</g>
<!-- Node18&#45;&gt;Node20 -->
<g id="edge21" class="edge"><title>Node18&#45;&gt;Node20</title>
<path fill="none" stroke="midnightblue" d="M343.36,-114.411C356.181,-109.563 371.894,-103.622 385.631,-98.4281"/>
<polygon fill="midnightblue" stroke="midnightblue" points="387.099,-101.615 395.214,-94.8045 384.623,-95.0675 387.099,-101.615"/>
</g>
<!-- Node24 -->
<g id="node24" class="node"><title>Node24</title>
<g id="a_node24"><a xlink:href="../../d9/df5/Logger_8cpp.html#ada38bf01d6d691de953ed69268ea6516" target="_top" xlink:title="errToStr">
<polygon fill="white" stroke="black" points="291,-0.5 291,-19.5 343,-19.5 343,-0.5 291,-0.5"/>
<text text-anchor="middle" x="317" y="-7.5" font-family="Helvetica,sans-Serif" font-size="10.00">errToStr</text>
</a>
</g>
</g>
<!-- Node23&#45;&gt;Node24 -->
<g id="edge26" class="edge"><title>Node23&#45;&gt;Node24</title>
<path fill="none" stroke="midnightblue" d="M201.306,-114.494C215.59,-96.3305 248.816,-56.0931 283,-29 284.768,-27.5987 286.651,-26.2334 288.587,-24.9194"/>
<polygon fill="midnightblue" stroke="midnightblue" points="290.588,-27.7962 297.221,-19.5343 286.884,-21.8567 290.588,-27.7962"/>
</g>
</g>
</svg>
