<?xml version="1.0" encoding="UTF-8" standalone="no"?>
<!DOCTYPE svg PUBLIC "-//W3C//DTD SVG 1.1//EN"
 "http://www.w3.org/Graphics/SVG/1.1/DTD/svg11.dtd">
<!-- Generated by graphviz version 2.38.0 (20140413.2041)
 -->
<!-- Title: LMS_TransferLMS64C Pages: 1 -->
<!--zoomable 958 -->
<svg id="main" version="1.1" xmlns="http://www.w3.org/2000/svg" xmlns:xlink="http://www.w3.org/1999/xlink" xml:space="preserve" onload="init(evt)">
<style type="text/css"><![CDATA[
.edge:hover path { stroke: red; }
.edge:hover polygon { stroke: red; fill: red; }
]]></style>
<script type="text/javascript"><![CDATA[
var edges = document.getElementsByTagName('g');
if (edges && edges.length) {
  for (var i=0;i<edges.length;i++) {
    if (edges[i].id.substr(0,4)=='edge') {
      edges[i].setAttribute('class','edge');
    }
  }
}
]]></script>
        <defs>
                <circle id="rim" cx="0" cy="0" r="7"/>
                <circle id="rim2" cx="0" cy="0" r="3.5"/>
                <g id="zoomPlus">
                        <use xlink:href="#rim" fill="#404040">
                                <set attributeName="fill" to="#808080" begin="zoomplus.mouseover" end="zoomplus.mouseout"/>
                        </use>
                        <path d="M-4,0h8M0,-4v8" fill="none" stroke="white" stroke-width="1.5" pointer-events="none"/>
                </g>
                <g id="zoomMin">
                        <use xlink:href="#rim" fill="#404040">
                                <set attributeName="fill" to="#808080" begin="zoomminus.mouseover" end="zoomminus.mouseout"/>
                        </use>
                        <path d="M-4,0h8" fill="none" stroke="white" stroke-width="1.5" pointer-events="none"/>
                </g>
                <g id="dirArrow">
                        <path fill="none" stroke="white" stroke-width="1.5" d="M0,-3.0v7 M-2.5,-0.5L0,-3.0L2.5,-0.5"/>
                </g>
               <g id="resetDef">
                       <use xlink:href="#rim2" fill="#404040">
                               <set attributeName="fill" to="#808080" begin="reset.mouseover" end="reset.mouseout"/>
                       </use>
               </g>
        </defs>

<script type="text/javascript">
var viewWidth = 647;
var viewHeight = 958;
var sectionId = 'dynsection-124';
</script>
<script xlink:href="../../svgpan.js"/>
<svg id="graph" class="graph">
<g id="viewport">
<title>LMS_TransferLMS64C</title>
<polygon fill="white" stroke="none" points="-4,4 -4,-954.327 643,-954.327 643,4 -4,4"/>
<!-- Node1 -->
<g id="node1" class="node"><title>Node1</title>
<polygon fill="#bfbfbf" stroke="black" points="0,-398.827 0,-417.827 116,-417.827 116,-398.827 0,-398.827"/>
<text text-anchor="middle" x="58" y="-405.827" font-family="Helvetica,sans-Serif" font-size="10.00">LMS_TransferLMS64C</text>
</g>
<!-- Node2 -->
<g id="node2" class="node"><title>Node2</title>
<g id="a_node2"><a xlink:href="../../d3/d22/classlime_1_1LMS7__Device.html#a4fb66a6ab68f16a0b6506329b05a08b2" target="_top" xlink:title="lime::LMS7_Device::\lGetConnection">
<polygon fill="white" stroke="black" points="155.5,-684.327 155.5,-714.327 263.5,-714.327 263.5,-684.327 155.5,-684.327"/>
<text text-anchor="start" x="163.5" y="-702.327" font-family="Helvetica,sans-Serif" font-size="10.00">lime::LMS7_Device::</text>
<text text-anchor="middle" x="209.5" y="-691.327" font-family="Helvetica,sans-Serif" font-size="10.00">GetConnection</text>
</a>
</g>
</g>
<!-- Node1&#45;&gt;Node2 -->
<g id="edge1" class="edge"><title>Node1&#45;&gt;Node2</title>
<path fill="none" stroke="midnightblue" d="M59.6698,-417.936C62.7886,-455.634 79.0095,-595.231 152,-674.327 153.337,-675.775 154.773,-677.145 156.286,-678.439"/>
<polygon fill="midnightblue" stroke="midnightblue" points="154.252,-681.287 164.409,-684.3 158.348,-675.61 154.252,-681.287"/>
</g>
<!-- Node3 -->
<g id="node3" class="node"><title>Node3</title>
<g id="a_node3"><a xlink:href="../../d4/d67/lms_8c.html#a0e01e477b1f10e0a63e54de2dd2f8240" target="_top" xlink:title="lms">
<polygon fill="white" stroke="black" points="193.5,-645.827 193.5,-664.827 225.5,-664.827 225.5,-645.827 193.5,-645.827"/>
<text text-anchor="middle" x="209.5" y="-652.827" font-family="Helvetica,sans-Serif" font-size="10.00">lms</text>
</a>
</g>
</g>
<!-- Node1&#45;&gt;Node3 -->
<g id="edge2" class="edge"><title>Node1&#45;&gt;Node3</title>
<path fill="none" stroke="midnightblue" d="M64.8606,-418.01C87.2813,-455.053 167.84,-588.149 197.466,-637.097"/>
<polygon fill="midnightblue" stroke="midnightblue" points="194.508,-638.969 202.68,-645.711 200.496,-635.344 194.508,-638.969"/>
</g>
<!-- Node23 -->
<g id="node23" class="node"><title>Node23</title>
<g id="a_node23"><a xlink:href="../../d5/d6c/namespacelime.html#adc6af0cf8e0a70f3ef09fac1244f8c48" target="_top" xlink:title="lime::ReportError">
<polygon fill="white" stroke="black" points="457,-360.827 457,-379.827 548,-379.827 548,-360.827 457,-360.827"/>
<text text-anchor="middle" x="502.5" y="-367.827" font-family="Helvetica,sans-Serif" font-size="10.00">lime::ReportError</text>
</a>
</g>
</g>
<!-- Node1&#45;&gt;Node23 -->
<g id="edge25" class="edge"><title>Node1&#45;&gt;Node23</title>
<path fill="none" stroke="midnightblue" d="M116.396,-403.398C202.148,-396.034 362.613,-382.254 446.781,-375.026"/>
<polygon fill="midnightblue" stroke="midnightblue" points="447.239,-378.5 456.903,-374.157 446.64,-371.525 447.239,-378.5"/>
</g>
<!-- Node25 -->
<g id="node25" class="node"><title>Node25</title>
<g id="a_node25"><a xlink:href="../../d5/d6c/namespacelime.html#ad336711d447db6515582bd4de9a6b30c" target="_top" xlink:title="lime::status2string">
<polygon fill="white" stroke="black" points="454,-156.827 454,-175.827 551,-175.827 551,-156.827 454,-156.827"/>
<text text-anchor="middle" x="502.5" y="-163.827" font-family="Helvetica,sans-Serif" font-size="10.00">lime::status2string</text>
</a>
</g>
</g>
<!-- Node1&#45;&gt;Node25 -->
<g id="edge27" class="edge"><title>Node1&#45;&gt;Node25</title>
<path fill="none" stroke="midnightblue" d="M61.173,-398.582C73.4244,-346.346 139.244,-98.8854 303,-18.327 348.862,4.23447 373.864,7.44795 418,-18.327 466.066,-46.3967 488.637,-113.481 497.185,-146.825"/>
<polygon fill="midnightblue" stroke="midnightblue" points="493.826,-147.828 499.563,-156.735 500.633,-146.194 493.826,-147.828"/>
</g>
<!-- Node26 -->
<g id="node26" class="node"><title>Node26</title>
<g id="a_node26"><a xlink:href="../../de/d46/classlime_1_1LMS64CProtocol.html#a9ef0f354db0f6460e100f3062d46cdeb" target="_top" xlink:title="Transfers data between packet and connected device. ">
<polygon fill="white" stroke="black" points="152,-224.327 152,-254.327 267,-254.327 267,-224.327 152,-224.327"/>
<text text-anchor="start" x="160" y="-242.327" font-family="Helvetica,sans-Serif" font-size="10.00">lime::LMS64CProtocol</text>
<text text-anchor="middle" x="209.5" y="-231.327" font-family="Helvetica,sans-Serif" font-size="10.00">::TransferPacket</text>
</a>
</g>
</g>
<!-- Node1&#45;&gt;Node26 -->
<g id="edge28" class="edge"><title>Node1&#45;&gt;Node26</title>
<path fill="none" stroke="midnightblue" d="M67.4661,-398.757C90.5514,-372.66 155.081,-299.714 188.25,-262.218"/>
<polygon fill="midnightblue" stroke="midnightblue" points="191.202,-264.164 195.206,-254.355 185.959,-259.526 191.202,-264.164"/>
</g>
<!-- Node4 -->
<g id="node4" class="node"><title>Node4</title>
<g id="a_node4"><a xlink:href="../../d4/d67/lms_8c.html#a433227191fe883dcb8aa15d291bb29a1" target="_top" xlink:title="Case1F">
<polygon fill="white" stroke="black" points="335,-550.827 335,-569.827 386,-569.827 386,-550.827 335,-550.827"/>
<text text-anchor="middle" x="360.5" y="-557.827" font-family="Helvetica,sans-Serif" font-size="10.00">Case1F</text>
</a>
</g>
</g>
<!-- Node3&#45;&gt;Node4 -->
<g id="edge3" class="edge"><title>Node3&#45;&gt;Node4</title>
<path fill="none" stroke="midnightblue" d="M219.882,-645.591C235.679,-629.696 269.187,-598.067 303,-579.327 309.86,-575.525 317.61,-572.309 325.122,-569.665"/>
<polygon fill="midnightblue" stroke="midnightblue" points="326.345,-572.948 334.766,-566.518 324.173,-566.293 326.345,-572.948"/>
</g>
<!-- Node5 -->
<g id="node5" class="node"><title>Node5</title>
<g id="a_node5"><a xlink:href="../../d4/d67/lms_8c.html#ace0cd8bf61cb9b86b98f0cef03b5a9d9" target="_top" xlink:title="Case2F">
<polygon fill="white" stroke="black" points="335,-512.827 335,-531.827 386,-531.827 386,-512.827 335,-512.827"/>
<text text-anchor="middle" x="360.5" y="-519.827" font-family="Helvetica,sans-Serif" font-size="10.00">Case2F</text>
</a>
</g>
</g>
<!-- Node3&#45;&gt;Node5 -->
<g id="edge4" class="edge"><title>Node3&#45;&gt;Node5</title>
<path fill="none" stroke="midnightblue" d="M215.831,-645.521C228.222,-623.624 261.125,-570.394 303,-541.327 309.635,-536.721 317.476,-533.158 325.171,-530.429"/>
<polygon fill="midnightblue" stroke="midnightblue" points="326.258,-533.757 334.737,-527.404 324.147,-527.082 326.258,-533.757"/>
</g>
<!-- Node6 -->
<g id="node6" class="node"><title>Node6</title>
<g id="a_node6"><a xlink:href="../../d4/d67/lms_8c.html#a5f53b53ccc591e3643c4af2aee2e7f32" target="_top" xlink:title="Case3F">
<polygon fill="white" stroke="black" points="335,-474.827 335,-493.827 386,-493.827 386,-474.827 335,-474.827"/>
<text text-anchor="middle" x="360.5" y="-481.827" font-family="Helvetica,sans-Serif" font-size="10.00">Case3F</text>
</a>
</g>
</g>
<!-- Node3&#45;&gt;Node6 -->
<g id="edge5" class="edge"><title>Node3&#45;&gt;Node6</title>
<path fill="none" stroke="midnightblue" d="M213.743,-645.531C223.113,-618.714 252.807,-543.442 303,-503.327 309.423,-498.194 317.302,-494.416 325.113,-491.648"/>
<polygon fill="midnightblue" stroke="midnightblue" points="326.327,-494.937 334.858,-488.655 324.271,-488.246 326.327,-494.937"/>
</g>
<!-- Node7 -->
<g id="node7" class="node"><title>Node7</title>
<g id="a_node7"><a xlink:href="../../d4/d67/lms_8c.html#a5086763d5b258349bc13d6be7e7d0665" target="_top" xlink:title="Case4F">
<polygon fill="white" stroke="black" points="335,-436.827 335,-455.827 386,-455.827 386,-436.827 335,-436.827"/>
<text text-anchor="middle" x="360.5" y="-443.827" font-family="Helvetica,sans-Serif" font-size="10.00">Case4F</text>
</a>
</g>
</g>
<!-- Node3&#45;&gt;Node7 -->
<g id="edge6" class="edge"><title>Node3&#45;&gt;Node7</title>
<path fill="none" stroke="midnightblue" d="M212.485,-645.413C219.247,-614.19 244.306,-516.917 303,-465.327 309.3,-459.79 317.274,-455.854 325.23,-453.061"/>
<polygon fill="midnightblue" stroke="midnightblue" points="326.238,-456.413 334.813,-450.19 324.229,-449.707 326.238,-456.413"/>
</g>
<!-- Node8 -->
<g id="node8" class="node"><title>Node8</title>
<g id="a_node8"><a xlink:href="../../d4/d67/lms_8c.html#ac81ca32708341eb34b25d515d00bc748" target="_top" xlink:title="vector">
<polygon fill="white" stroke="black" points="338.5,-930.827 338.5,-949.827 382.5,-949.827 382.5,-930.827 338.5,-930.827"/>
<text text-anchor="middle" x="360.5" y="-937.827" font-family="Helvetica,sans-Serif" font-size="10.00">vector</text>
</a>
</g>
</g>
<!-- Node3&#45;&gt;Node8 -->
<g id="edge7" class="edge"><title>Node3&#45;&gt;Node8</title>
<path fill="none" stroke="midnightblue" d="M225.67,-656.462C238.684,-658.286 256.891,-663.028 267,-675.327 337.161,-760.692 232.167,-836.519 303,-921.327 309.45,-929.05 319.15,-933.647 328.702,-936.379"/>
<polygon fill="midnightblue" stroke="midnightblue" points="327.931,-939.793 338.459,-938.603 329.487,-932.968 327.931,-939.793"/>
</g>
<!-- Node9 -->
<g id="node9" class="node"><title>Node9</title>
<g id="a_node9"><a xlink:href="../../d4/d67/lms_8c.html#a37bcb1539d76b53344102435e2ab9c91" target="_top" xlink:title="matrix">
<polygon fill="white" stroke="black" points="338.5,-892.827 338.5,-911.827 382.5,-911.827 382.5,-892.827 338.5,-892.827"/>
<text text-anchor="middle" x="360.5" y="-899.827" font-family="Helvetica,sans-Serif" font-size="10.00">matrix</text>
</a>
</g>
</g>
<!-- Node3&#45;&gt;Node9 -->
<g id="edge8" class="edge"><title>Node3&#45;&gt;Node9</title>
<path fill="none" stroke="midnightblue" d="M225.592,-656.526C238.556,-658.393 256.732,-663.16 267,-675.327 327.51,-747.024 241.925,-812.11 303,-883.327 309.432,-890.827 318.924,-895.375 328.3,-898.13"/>
<polygon fill="midnightblue" stroke="midnightblue" points="327.742,-901.595 338.277,-900.471 329.341,-894.78 327.742,-901.595"/>
</g>
<!-- Node10 -->
<g id="node10" class="node"><title>Node10</title>
<g id="a_node10"><a xlink:href="../../d4/d67/lms_8c.html#ad1d6c875ff429888b51dd1155f0311ad" target="_top" xlink:title="ivector">
<polygon fill="white" stroke="black" points="337.5,-854.827 337.5,-873.827 383.5,-873.827 383.5,-854.827 337.5,-854.827"/>
<text text-anchor="middle" x="360.5" y="-861.827" font-family="Helvetica,sans-Serif" font-size="10.00">ivector</text>
</a>
</g>
</g>
<!-- Node3&#45;&gt;Node10 -->
<g id="edge9" class="edge"><title>Node3&#45;&gt;Node10</title>
<path fill="none" stroke="midnightblue" d="M225.736,-656.658C238.612,-658.612 256.575,-663.432 267,-675.327 317.904,-733.409 251.639,-787.65 303,-845.327 309.301,-852.402 318.32,-856.847 327.308,-859.638"/>
<polygon fill="midnightblue" stroke="midnightblue" points="326.746,-863.105 337.297,-862.138 328.446,-856.314 326.746,-863.105"/>
</g>
<!-- Node11 -->
<g id="node11" class="node"><title>Node11</title>
<g id="a_node11"><a xlink:href="../../db/de5/recipes_8c.html#a623fec796d9d53e5e4a4d30226547da7" target="_top" xlink:title="ludcmp">
<polygon fill="white" stroke="black" points="336.5,-816.827 336.5,-835.827 384.5,-835.827 384.5,-816.827 336.5,-816.827"/>
<text text-anchor="middle" x="360.5" y="-823.827" font-family="Helvetica,sans-Serif" font-size="10.00">ludcmp</text>
</a>
</g>
</g>
<!-- Node3&#45;&gt;Node11 -->
<g id="edge10" class="edge"><title>Node3&#45;&gt;Node11</title>
<path fill="none" stroke="midnightblue" d="M225.541,-656.836C238.29,-658.903 256.18,-663.791 267,-675.327 307.136,-718.118 264.198,-758.323 303,-802.327 309.248,-809.412 317.943,-814.469 326.641,-818.051"/>
<polygon fill="midnightblue" stroke="midnightblue" points="325.739,-821.445 336.333,-821.5 328.085,-814.85 325.739,-821.445"/>
</g>
<!-- Node14 -->
<g id="node14" class="node"><title>Node14</title>
<g id="a_node14"><a xlink:href="../../db/de5/recipes_8c.html#a8214a52d888e820222c0382648329c0c" target="_top" xlink:title="free_vector">
<polygon fill="white" stroke="black" points="470,-778.827 470,-797.827 535,-797.827 535,-778.827 470,-778.827"/>
<text text-anchor="middle" x="502.5" y="-785.827" font-family="Helvetica,sans-Serif" font-size="10.00">free_vector</text>
</a>
</g>
</g>
<!-- Node3&#45;&gt;Node14 -->
<g id="edge22" class="edge"><title>Node3&#45;&gt;Node14</title>
<path fill="none" stroke="midnightblue" d="M225.539,-657.126C238.113,-659.372 255.749,-664.359 267,-675.327 299.035,-706.554 267.392,-742.244 303,-769.327 347.897,-803.475 416.055,-801.851 459.676,-796.158"/>
<polygon fill="midnightblue" stroke="midnightblue" points="460.266,-799.609 469.669,-794.727 459.274,-792.68 460.266,-799.609"/>
</g>
<!-- Node15 -->
<g id="node15" class="node"><title>Node15</title>
<g id="a_node15"><a xlink:href="../../db/de5/recipes_8c.html#a66ff65ad0355ec1f4a7722bcdafc8cd3" target="_top" xlink:title="lubksb">
<polygon fill="white" stroke="black" points="338,-740.827 338,-759.827 383,-759.827 383,-740.827 338,-740.827"/>
<text text-anchor="middle" x="360.5" y="-747.827" font-family="Helvetica,sans-Serif" font-size="10.00">lubksb</text>
</a>
</g>
</g>
<!-- Node3&#45;&gt;Node15 -->
<g id="edge15" class="edge"><title>Node3&#45;&gt;Node15</title>
<path fill="none" stroke="midnightblue" d="M225.737,-657.897C237.93,-660.575 254.928,-665.766 267,-675.327 290.195,-693.697 279.661,-713.141 303,-731.327 310.355,-737.058 319.53,-741.108 328.334,-743.951"/>
<polygon fill="midnightblue" stroke="midnightblue" points="327.426,-747.331 338,-746.673 329.323,-740.593 327.426,-747.331"/>
</g>
<!-- Node16 -->
<g id="node16" class="node"><title>Node16</title>
<g id="a_node16"><a xlink:href="../../d8/d91/rounding_8c.html#aca2670cc0fbf948a6b9cb670047c9d5b" target="_top" xlink:title="round2int">
<polygon fill="white" stroke="black" points="332.5,-702.827 332.5,-721.827 388.5,-721.827 388.5,-702.827 332.5,-702.827"/>
<text text-anchor="middle" x="360.5" y="-709.827" font-family="Helvetica,sans-Serif" font-size="10.00">round2int</text>
</a>
</g>
</g>
<!-- Node3&#45;&gt;Node16 -->
<g id="edge16" class="edge"><title>Node3&#45;&gt;Node16</title>
<path fill="none" stroke="midnightblue" d="M225.562,-660.096C237.057,-663.87 253.21,-669.465 267,-675.327 283.463,-682.325 286.482,-686.459 303,-693.327 309.356,-695.97 316.224,-698.522 322.907,-700.852"/>
<polygon fill="midnightblue" stroke="midnightblue" points="321.894,-704.204 332.488,-704.092 324.136,-697.573 321.894,-704.204"/>
</g>
<!-- Node18 -->
<g id="node18" class="node"><title>Node18</title>
<g id="a_node18"><a xlink:href="../../d8/d91/rounding_8c.html#aa8d7512cdf5bfbf811cef6a8a091c679" target="_top" xlink:title="round2csd">
<polygon fill="white" stroke="black" points="329.5,-664.827 329.5,-683.827 391.5,-683.827 391.5,-664.827 329.5,-664.827"/>
<text text-anchor="middle" x="360.5" y="-671.827" font-family="Helvetica,sans-Serif" font-size="10.00">round2csd</text>
</a>
</g>
</g>
<!-- Node3&#45;&gt;Node18 -->
<g id="edge18" class="edge"><title>Node3&#45;&gt;Node18</title>
<path fill="none" stroke="midnightblue" d="M225.607,-657.253C247.409,-660.034 288.469,-665.269 319.397,-669.213"/>
<polygon fill="midnightblue" stroke="midnightblue" points="319.092,-672.703 329.454,-670.496 319.977,-665.759 319.092,-672.703"/>
</g>
<!-- Node21 -->
<g id="node21" class="node"><title>Node21</title>
<g id="a_node21"><a xlink:href="../../db/de5/recipes_8c.html#a3e0d121b098c19c0bdc2429e5b9f1625" target="_top" xlink:title="free_matrix">
<polygon fill="white" stroke="black" points="328,-626.827 328,-645.827 393,-645.827 393,-626.827 328,-626.827"/>
<text text-anchor="middle" x="360.5" y="-633.827" font-family="Helvetica,sans-Serif" font-size="10.00">free_matrix</text>
</a>
</g>
</g>
<!-- Node3&#45;&gt;Node21 -->
<g id="edge23" class="edge"><title>Node3&#45;&gt;Node21</title>
<path fill="none" stroke="midnightblue" d="M225.607,-653.401C247.01,-650.671 286.974,-645.575 317.689,-641.659"/>
<polygon fill="midnightblue" stroke="midnightblue" points="318.234,-645.117 327.711,-640.381 317.349,-638.174 318.234,-645.117"/>
</g>
<!-- Node22 -->
<g id="node22" class="node"><title>Node22</title>
<g id="a_node22"><a xlink:href="../../db/de5/recipes_8c.html#aee25e218394217a134e805ea09fb0fe9" target="_top" xlink:title="free_ivector">
<polygon fill="white" stroke="black" points="326.5,-588.827 326.5,-607.827 394.5,-607.827 394.5,-588.827 326.5,-588.827"/>
<text text-anchor="middle" x="360.5" y="-595.827" font-family="Helvetica,sans-Serif" font-size="10.00">free_ivector</text>
</a>
</g>
</g>
<!-- Node3&#45;&gt;Node22 -->
<g id="edge24" class="edge"><title>Node3&#45;&gt;Node22</title>
<path fill="none" stroke="midnightblue" d="M225.764,-648.697C244.004,-640.859 275.51,-627.583 303,-617.327 308.528,-615.264 314.397,-613.178 320.179,-611.181"/>
<polygon fill="midnightblue" stroke="midnightblue" points="321.415,-614.458 329.755,-607.924 319.161,-607.831 321.415,-614.458"/>
</g>
<!-- Node12 -->
<g id="node12" class="node"><title>Node12</title>
<g id="a_node12"><a xlink:href="../../db/de5/recipes_8c.html#a5e6092211a5f7e2d6ae9282379d3c604" target="_top" xlink:title="vector">
<polygon fill="white" stroke="black" points="480.5,-854.827 480.5,-873.827 524.5,-873.827 524.5,-854.827 480.5,-854.827"/>
<text text-anchor="middle" x="502.5" y="-861.827" font-family="Helvetica,sans-Serif" font-size="10.00">vector</text>
</a>
</g>
</g>
<!-- Node11&#45;&gt;Node12 -->
<g id="edge11" class="edge"><title>Node11&#45;&gt;Node12</title>
<path fill="none" stroke="midnightblue" d="M384.618,-832.602C408.067,-838.967 444.504,-848.857 470.458,-855.901"/>
<polygon fill="midnightblue" stroke="midnightblue" points="469.617,-859.3 480.185,-858.541 471.451,-852.544 469.617,-859.3"/>
</g>
<!-- Node13 -->
<g id="node13" class="node"><title>Node13</title>
<g id="a_node13"><a xlink:href="../../db/de5/recipes_8c.html#a208e98f19b2f252315399d02c0594a46" target="_top" xlink:title="nrerror">
<polygon fill="white" stroke="black" points="591,-835.827 591,-854.827 635,-854.827 635,-835.827 591,-835.827"/>
<text text-anchor="middle" x="613" y="-842.827" font-family="Helvetica,sans-Serif" font-size="10.00">nrerror</text>
</a>
</g>
</g>
<!-- Node11&#45;&gt;Node13 -->
<g id="edge14" class="edge"><title>Node11&#45;&gt;Node13</title>
<path fill="none" stroke="midnightblue" d="M384.617,-828.08C429.735,-831.503 529.561,-839.074 580.608,-842.946"/>
<polygon fill="midnightblue" stroke="midnightblue" points="580.487,-846.447 590.724,-843.713 581.017,-839.467 580.487,-846.447"/>
</g>
<!-- Node11&#45;&gt;Node14 -->
<g id="edge13" class="edge"><title>Node11&#45;&gt;Node14</title>
<path fill="none" stroke="midnightblue" d="M384.618,-820.052C405.096,-814.494 435.48,-806.247 460.137,-799.554"/>
<polygon fill="midnightblue" stroke="midnightblue" points="461.227,-802.885 469.961,-796.888 459.394,-796.129 461.227,-802.885"/>
</g>
<!-- Node12&#45;&gt;Node13 -->
<g id="edge12" class="edge"><title>Node12&#45;&gt;Node13</title>
<path fill="none" stroke="midnightblue" d="M524.677,-860.619C540.659,-857.82 562.832,-853.937 580.836,-850.784"/>
<polygon fill="midnightblue" stroke="midnightblue" points="581.63,-854.199 590.876,-849.026 580.422,-847.304 581.63,-854.199"/>
</g>
<!-- Node17 -->
<g id="node17" class="node"><title>Node17</title>
<g id="a_node17"><a xlink:href="../../db/d82/wglew_8h.html#a500a82aecba06f4550f6849b8099ca21" target="_top" xlink:title="int">
<polygon fill="white" stroke="black" points="488,-702.827 488,-721.827 517,-721.827 517,-702.827 488,-702.827"/>
<text text-anchor="middle" x="502.5" y="-709.827" font-family="Helvetica,sans-Serif" font-size="10.00">int</text>
</a>
</g>
</g>
<!-- Node16&#45;&gt;Node17 -->
<g id="edge17" class="edge"><title>Node16&#45;&gt;Node17</title>
<path fill="none" stroke="midnightblue" d="M388.826,-712.327C414.634,-712.327 452.958,-712.327 477.585,-712.327"/>
<polygon fill="midnightblue" stroke="midnightblue" points="477.842,-715.827 487.842,-712.327 477.842,-708.827 477.842,-715.827"/>
</g>
<!-- Node18&#45;&gt;Node17 -->
<g id="edge19" class="edge"><title>Node18&#45;&gt;Node17</title>
<path fill="none" stroke="midnightblue" d="M391.534,-682.479C417.313,-689.476 453.968,-699.426 477.744,-705.879"/>
<polygon fill="midnightblue" stroke="midnightblue" points="477.108,-709.333 487.676,-708.575 478.942,-702.577 477.108,-709.333"/>
</g>
<!-- Node19 -->
<g id="node19" class="node"><title>Node19</title>
<g id="a_node19"><a xlink:href="../../d8/d91/rounding_8c.html#ab3a64ec72c5600bc114621e93309c8c3" target="_top" xlink:title="int2csd">
<polygon fill="white" stroke="black" points="478.5,-664.827 478.5,-683.827 526.5,-683.827 526.5,-664.827 478.5,-664.827"/>
<text text-anchor="middle" x="502.5" y="-671.827" font-family="Helvetica,sans-Serif" font-size="10.00">int2csd</text>
</a>
</g>
</g>
<!-- Node18&#45;&gt;Node19 -->
<g id="edge20" class="edge"><title>Node18&#45;&gt;Node19</title>
<path fill="none" stroke="midnightblue" d="M391.534,-674.327C414.108,-674.327 445.022,-674.327 468.325,-674.327"/>
<polygon fill="midnightblue" stroke="midnightblue" points="468.438,-677.827 478.438,-674.327 468.438,-670.827 468.438,-677.827"/>
</g>
<!-- Node20 -->
<g id="node20" class="node"><title>Node20</title>
<g id="a_node20"><a xlink:href="../../d8/d91/rounding_8c.html#a2cff6b77e73872659c44b0c99f6bd97f" target="_top" xlink:title="csd2int">
<polygon fill="white" stroke="black" points="478.5,-626.827 478.5,-645.827 526.5,-645.827 526.5,-626.827 478.5,-626.827"/>
<text text-anchor="middle" x="502.5" y="-633.827" font-family="Helvetica,sans-Serif" font-size="10.00">csd2int</text>
</a>
</g>
</g>
<!-- Node18&#45;&gt;Node20 -->
<g id="edge21" class="edge"><title>Node18&#45;&gt;Node20</title>
<path fill="none" stroke="midnightblue" d="M391.534,-666.175C414.21,-660.02 445.301,-651.581 468.639,-645.246"/>
<polygon fill="midnightblue" stroke="midnightblue" points="469.704,-648.584 478.438,-642.587 467.871,-641.828 469.704,-648.584"/>
</g>
<!-- Node24 -->
<g id="node24" class="node"><title>Node24</title>
<g id="a_node24"><a xlink:href="../../d9/df5/Logger_8cpp.html#ada38bf01d6d691de953ed69268ea6516" target="_top" xlink:title="errToStr">
<polygon fill="white" stroke="black" points="587,-360.827 587,-379.827 639,-379.827 639,-360.827 587,-360.827"/>
<text text-anchor="middle" x="613" y="-367.827" font-family="Helvetica,sans-Serif" font-size="10.00">errToStr</text>
</a>
</g>
</g>
<!-- Node23&#45;&gt;Node24 -->
<g id="edge26" class="edge"><title>Node23&#45;&gt;Node24</title>
<path fill="none" stroke="midnightblue" d="M548.258,-370.327C557.74,-370.327 567.621,-370.327 576.694,-370.327"/>
<polygon fill="midnightblue" stroke="midnightblue" points="576.901,-373.827 586.901,-370.327 576.901,-366.827 576.901,-373.827"/>
</g>
<!-- Node26&#45;&gt;Node23 -->
<g id="edge30" class="edge"><title>Node26&#45;&gt;Node23</title>
<path fill="none" stroke="midnightblue" d="M217.959,-254.532C231.189,-279.648 261.345,-329.218 303,-351.327 347.352,-374.867 405.166,-377.832 446.95,-375.98"/>
<polygon fill="midnightblue" stroke="midnightblue" points="447.148,-379.474 456.942,-375.432 446.765,-372.485 447.148,-379.474"/>
</g>
<!-- Node27 -->
<g id="node27" class="node"><title>Node27</title>
<g id="a_node27"><a xlink:href="../../d2/de5/classlime_1_1IConnection.html#abf1c25c85e31e262ded3e33e65cc58e3" target="_top" xlink:title="lime::IConnection::\lIsOpen">
<polygon fill="white" stroke="black" points="311,-273.327 311,-303.327 410,-303.327 410,-273.327 311,-273.327"/>
<text text-anchor="start" x="319" y="-291.327" font-family="Helvetica,sans-Serif" font-size="10.00">lime::IConnection::</text>
<text text-anchor="middle" x="360.5" y="-280.327" font-family="Helvetica,sans-Serif" font-size="10.00">IsOpen</text>
</a>
</g>
</g>
<!-- Node26&#45;&gt;Node27 -->
<g id="edge29" class="edge"><title>Node26&#45;&gt;Node27</title>
<path fill="none" stroke="midnightblue" d="M256.421,-254.428C271.503,-259.389 288.428,-264.954 304.136,-270.12"/>
<polygon fill="midnightblue" stroke="midnightblue" points="303.138,-273.476 313.731,-273.275 305.325,-266.827 303.138,-273.476"/>
</g>
<!-- Node28 -->
<g id="node28" class="node"><title>Node28</title>
<g id="a_node28"><a xlink:href="../../de/d46/classlime_1_1LMS64CProtocol.html#ab766d6322a66164891a296359c2b9019" target="_top" xlink:title="implement in base class ">
<polygon fill="white" stroke="black" points="303,-224.327 303,-254.327 418,-254.327 418,-224.327 303,-224.327"/>
<text text-anchor="start" x="311" y="-242.327" font-family="Helvetica,sans-Serif" font-size="10.00">lime::LMS64CProtocol</text>
<text text-anchor="middle" x="360.5" y="-231.327" font-family="Helvetica,sans-Serif" font-size="10.00">::GetType</text>
</a>
</g>
</g>
<!-- Node26&#45;&gt;Node28 -->
<g id="edge31" class="edge"><title>Node26&#45;&gt;Node28</title>
<path fill="none" stroke="midnightblue" d="M267.256,-239.327C275.558,-239.327 284.173,-239.327 292.654,-239.327"/>
<polygon fill="midnightblue" stroke="midnightblue" points="292.902,-242.827 302.902,-239.327 292.902,-235.827 292.902,-242.827"/>
</g>
<!-- Node29 -->
<g id="node29" class="node"><title>Node29</title>
<g id="a_node29"><a xlink:href="../../de/d46/classlime_1_1LMS64CProtocol.html#afba3d83e1e35b6e70c7171e31cc6cea3" target="_top" xlink:title="Takes generic packet and converts to specific protocol buffer. ">
<polygon fill="white" stroke="black" points="303,-175.327 303,-205.327 418,-205.327 418,-175.327 303,-175.327"/>
<text text-anchor="start" x="311" y="-193.327" font-family="Helvetica,sans-Serif" font-size="10.00">lime::LMS64CProtocol</text>
<text text-anchor="middle" x="360.5" y="-182.327" font-family="Helvetica,sans-Serif" font-size="10.00">::PreparePacket</text>
</a>
</g>
</g>
<!-- Node26&#45;&gt;Node29 -->
<g id="edge32" class="edge"><title>Node26&#45;&gt;Node29</title>
<path fill="none" stroke="midnightblue" d="M256.421,-224.226C271.503,-219.265 288.428,-213.7 304.136,-208.534"/>
<polygon fill="midnightblue" stroke="midnightblue" points="305.325,-211.827 313.731,-205.379 303.138,-205.178 305.325,-211.827"/>
</g>
<!-- Node30 -->
<g id="node30" class="node"><title>Node30</title>
<g id="a_node30"><a xlink:href="../../de/d46/classlime_1_1LMS64CProtocol.html#aa78b82a017792421b61bc6a99b4c55c0" target="_top" xlink:title="virtual write function to be implemented by the base class ">
<polygon fill="white" stroke="black" points="303,-126.327 303,-156.327 418,-156.327 418,-126.327 303,-126.327"/>
<text text-anchor="start" x="311" y="-144.327" font-family="Helvetica,sans-Serif" font-size="10.00">lime::LMS64CProtocol</text>
<text text-anchor="middle" x="360.5" y="-133.327" font-family="Helvetica,sans-Serif" font-size="10.00">::Write</text>
</a>
</g>
</g>
<!-- Node26&#45;&gt;Node30 -->
<g id="edge33" class="edge"><title>Node26&#45;&gt;Node30</title>
<path fill="none" stroke="midnightblue" d="M226.532,-224.223C244.223,-208.123 274.041,-182.616 303,-165.327 305.615,-163.766 308.35,-162.254 311.147,-160.8"/>
<polygon fill="midnightblue" stroke="midnightblue" points="312.767,-163.904 320.211,-156.364 309.691,-157.616 312.767,-163.904"/>
</g>
<!-- Node31 -->
<g id="node31" class="node"><title>Node31</title>
<g id="a_node31"><a xlink:href="../../de/d46/classlime_1_1LMS64CProtocol.html#ab9e954443ee121eff8e1e6d4f8de3d4b" target="_top" xlink:title="virtual read function to be implemented by the base class ">
<polygon fill="white" stroke="black" points="303,-77.327 303,-107.327 418,-107.327 418,-77.327 303,-77.327"/>
<text text-anchor="start" x="311" y="-95.327" font-family="Helvetica,sans-Serif" font-size="10.00">lime::LMS64CProtocol</text>
<text text-anchor="middle" x="360.5" y="-84.327" font-family="Helvetica,sans-Serif" font-size="10.00">::Read</text>
</a>
</g>
</g>
<!-- Node26&#45;&gt;Node31 -->
<g id="edge34" class="edge"><title>Node26&#45;&gt;Node31</title>
<path fill="none" stroke="midnightblue" d="M218.46,-224.046C232.43,-198.553 263.647,-147.112 303,-116.327 304.605,-115.071 306.286,-113.869 308.022,-112.72"/>
<polygon fill="midnightblue" stroke="midnightblue" points="310.219,-115.489 317.069,-107.407 306.674,-109.453 310.219,-115.489"/>
</g>
<!-- Node32 -->
<g id="node32" class="node"><title>Node32</title>
<g id="a_node32"><a xlink:href="../../de/d46/classlime_1_1LMS64CProtocol.html#a5f902d9f4553498a6035f767d1d9e880" target="_top" xlink:title="Parses given data buffer into generic packet. ">
<polygon fill="white" stroke="black" points="303,-28.327 303,-58.327 418,-58.327 418,-28.327 303,-28.327"/>
<text text-anchor="start" x="311" y="-46.327" font-family="Helvetica,sans-Serif" font-size="10.00">lime::LMS64CProtocol</text>
<text text-anchor="middle" x="360.5" y="-35.327" font-family="Helvetica,sans-Serif" font-size="10.00">::ParsePacket</text>
</a>
</g>
</g>
<!-- Node26&#45;&gt;Node32 -->
<g id="edge35" class="edge"><title>Node26&#45;&gt;Node32</title>
<path fill="none" stroke="midnightblue" d="M214.802,-224.306C224.908,-191.51 253.153,-112.799 303,-67.327 304.272,-66.1666 305.609,-65.0571 306.996,-63.9966"/>
<polygon fill="midnightblue" stroke="midnightblue" points="308.991,-66.8737 315.413,-58.4472 305.138,-61.0296 308.991,-66.8737"/>
</g>
<!-- Node33 -->
<g id="node33" class="node"><title>Node33</title>
<g id="a_node33"><a xlink:href="../../d2/d65/LMS64CProtocol_8cpp.html#af62b1cc795d9086a8ad8d7164b0cad8b" target="_top" xlink:title="convertStatus">
<polygon fill="white" stroke="black" points="322,-322.827 322,-341.827 399,-341.827 399,-322.827 322,-322.827"/>
<text text-anchor="middle" x="360.5" y="-329.827" font-family="Helvetica,sans-Serif" font-size="10.00">convertStatus</text>
</a>
</g>
</g>
<!-- Node26&#45;&gt;Node33 -->
<g id="edge36" class="edge"><title>Node26&#45;&gt;Node33</title>
<path fill="none" stroke="midnightblue" d="M225.964,-254.569C243.397,-271.029 273.214,-297.071 303,-313.327 306.781,-315.391 310.827,-317.285 314.95,-319.012"/>
<polygon fill="midnightblue" stroke="midnightblue" points="314.037,-322.41 324.626,-322.735 316.55,-315.877 314.037,-322.41"/>
</g>
<!-- Node33&#45;&gt;Node23 -->
<g id="edge37" class="edge"><title>Node33&#45;&gt;Node23</title>
<path fill="none" stroke="midnightblue" d="M396.828,-341.916C414.901,-346.821 437.098,-352.847 456.395,-358.084"/>
<polygon fill="midnightblue" stroke="midnightblue" points="455.616,-361.499 466.183,-360.741 457.449,-354.744 455.616,-361.499"/>
</g>
<!-- Node33&#45;&gt;Node25 -->
<g id="edge38" class="edge"><title>Node33&#45;&gt;Node25</title>
<path fill="none" stroke="midnightblue" d="M399.078,-323.994C405.845,-321.342 412.49,-317.869 418,-313.327 459.94,-278.761 484.894,-217.292 495.492,-185.922"/>
<polygon fill="midnightblue" stroke="midnightblue" points="498.898,-186.767 498.647,-176.175 492.238,-184.611 498.898,-186.767"/>
</g>
</g>
</svg>
        <g id="navigator" transform="translate(0 0)" fill="#404254">
                <rect fill="#f2f5e9" fill-opacity="0.5" stroke="#606060" stroke-width=".5" x="0" y="0" width="60" height="60"/>
                <use id="zoomplus" xlink:href="#zoomPlus" x="17" y="9" onmousedown="handleZoom(evt,'in')"/>
                <use id="zoomminus" xlink:href="#zoomMin" x="42" y="9" onmousedown="handleZoom(evt,'out')"/>
                <use id="reset" xlink:href="#resetDef" x="30" y="36" onmousedown="handleReset()"/>
                <g id="arrowUp" xlink:href="#dirArrow" transform="translate(30 24)" onmousedown="handlePan(0,-1)">
                  <use xlink:href="#rim" fill="#404040">
                        <set attributeName="fill" to="#808080" begin="arrowUp.mouseover" end="arrowUp.mouseout"/>
                  </use>
                  <path fill="none" stroke="white" stroke-width="1.5" d="M0,-3.0v7 M-2.5,-0.5L0,-3.0L2.5,-0.5"/>
                </g>
                <g id="arrowRight" xlink:href="#dirArrow" transform="rotate(90) translate(36 -43)" onmousedown="handlePan(1,0)">
                  <use xlink:href="#rim" fill="#404040">
                        <set attributeName="fill" to="#808080" begin="arrowRight.mouseover" end="arrowRight.mouseout"/>
                  </use>
                  <path fill="none" stroke="white" stroke-width="1.5" d="M0,-3.0v7 M-2.5,-0.5L0,-3.0L2.5,-0.5"/>
                </g>
                <g id="arrowDown" xlink:href="#dirArrow" transform="rotate(180) translate(-30 -48)" onmousedown="handlePan(0,1)">
                  <use xlink:href="#rim" fill="#404040">
                        <set attributeName="fill" to="#808080" begin="arrowDown.mouseover" end="arrowDown.mouseout"/>
                  </use>
                  <path fill="none" stroke="white" stroke-width="1.5" d="M0,-3.0v7 M-2.5,-0.5L0,-3.0L2.5,-0.5"/>
                </g>
                <g id="arrowLeft" xlink:href="#dirArrow" transform="rotate(270) translate(-36 17)" onmousedown="handlePan(-1,0)">
                  <use xlink:href="#rim" fill="#404040">
                        <set attributeName="fill" to="#808080" begin="arrowLeft.mouseover" end="arrowLeft.mouseout"/>
                  </use>
                  <path fill="none" stroke="white" stroke-width="1.5" d="M0,-3.0v7 M-2.5,-0.5L0,-3.0L2.5,-0.5"/>
                </g>
        </g>
        <svg viewBox="0 0 15 15" width="100%" height="30px" preserveAspectRatio="xMaxYMin meet">
         <g id="arrow_out" transform="scale(0.3 0.3)">
          <a xlink:href="lms7__api_8cpp_acdd37504896783997722571ef56f0717_cgraph_org.svg" target="_base">
           <rect id="button" ry="5" rx="5" y="6" x="6" height="38" width="38"
                fill="#f2f5e9" fill-opacity="0.5" stroke="#606060" stroke-width="1.0"/>
           <path id="arrow"
             d="M 11.500037,31.436501 C 11.940474,20.09759 22.043105,11.32322 32.158766,21.979434 L 37.068811,17.246167 C 37.068811,17.246167 37.088388,32 37.088388,32 L 22.160133,31.978069 C 22.160133,31.978069 26.997745,27.140456 26.997745,27.140456 C 18.528582,18.264221 13.291696,25.230495 11.500037,31.436501 z"
             style="fill:#404040;"/>
          </a>
         </g>
        </svg>
</svg>
