<?xml version="1.0" encoding="UTF-8" standalone="no"?>
<!DOCTYPE svg PUBLIC "-//W3C//DTD SVG 1.1//EN"
 "http://www.w3.org/Graphics/SVG/1.1/DTD/svg11.dtd">
<!-- Generated by graphviz version 2.38.0 (20140413.2041)
 -->
<!-- Title: LMS_ReadLMSReg Pages: 1 -->
<svg width="541pt" height="560pt"
 viewBox="0.00 0.00 541.00 560.00" xmlns="http://www.w3.org/2000/svg" xmlns:xlink="http://www.w3.org/1999/xlink">
<g id="graph0" class="graph" transform="scale(1 1) rotate(0) translate(4 556)">
<title>LMS_ReadLMSReg</title>
<polygon fill="white" stroke="none" points="-4,4 -4,-556 537,-556 537,4 -4,4"/>
<!-- Node1 -->
<g id="node1" class="node"><title>Node1</title>
<polygon fill="#bfbfbf" stroke="black" points="0,-178.5 0,-197.5 104,-197.5 104,-178.5 0,-178.5"/>
<text text-anchor="middle" x="52" y="-185.5" font-family="Helvetica,sans-Serif" font-size="10.00">LMS_ReadLMSReg</text>
</g>
<!-- Node2 -->
<g id="node2" class="node"><title>Node2</title>
<g id="a_node2"><a xlink:href="../../d4/d67/lms_8c.html#a0e01e477b1f10e0a63e54de2dd2f8240" target="_top" xlink:title="lms">
<polygon fill="white" stroke="black" points="178,-266.5 178,-285.5 210,-285.5 210,-266.5 178,-266.5"/>
<text text-anchor="middle" x="194" y="-273.5" font-family="Helvetica,sans-Serif" font-size="10.00">lms</text>
</a>
</g>
</g>
<!-- Node1&#45;&gt;Node2 -->
<g id="edge1" class="edge"><title>Node1&#45;&gt;Node2</title>
<path fill="none" stroke="midnightblue" d="M68.249,-197.585C92.5493,-212.86 140.253,-242.845 169.115,-260.986"/>
<polygon fill="midnightblue" stroke="midnightblue" points="167.441,-264.068 177.77,-266.427 171.166,-258.142 167.441,-264.068"/>
</g>
<!-- Node22 -->
<g id="node22" class="node"><title>Node22</title>
<g id="a_node22"><a xlink:href="../../d3/d22/classlime_1_1LMS7__Device.html#af78a3911e1f973d9f8fe88523988fd82" target="_top" xlink:title="lime::LMS7_Device::\lReadLMSReg">
<polygon fill="white" stroke="black" points="140,-173 140,-203 248,-203 248,-173 140,-173"/>
<text text-anchor="start" x="148" y="-191" font-family="Helvetica,sans-Serif" font-size="10.00">lime::LMS7_Device::</text>
<text text-anchor="middle" x="194" y="-180" font-family="Helvetica,sans-Serif" font-size="10.00">ReadLMSReg</text>
</a>
</g>
</g>
<!-- Node1&#45;&gt;Node22 -->
<g id="edge24" class="edge"><title>Node1&#45;&gt;Node22</title>
<path fill="none" stroke="midnightblue" d="M104.336,-188C112.547,-188 121.128,-188 129.58,-188"/>
<polygon fill="midnightblue" stroke="midnightblue" points="129.791,-191.5 139.791,-188 129.791,-184.5 129.791,-191.5"/>
</g>
<!-- Node23 -->
<g id="node23" class="node"><title>Node23</title>
<g id="a_node23"><a xlink:href="../../d5/d6c/namespacelime.html#adc6af0cf8e0a70f3ef09fac1244f8c48" target="_top" xlink:title="lime::ReportError">
<polygon fill="white" stroke="black" points="148.5,-45.5 148.5,-64.5 239.5,-64.5 239.5,-45.5 148.5,-45.5"/>
<text text-anchor="middle" x="194" y="-52.5" font-family="Helvetica,sans-Serif" font-size="10.00">lime::ReportError</text>
</a>
</g>
</g>
<!-- Node1&#45;&gt;Node23 -->
<g id="edge25" class="edge"><title>Node1&#45;&gt;Node23</title>
<path fill="none" stroke="midnightblue" d="M63.0685,-178.435C86.565,-156.113 145.278,-100.336 175.064,-72.039"/>
<polygon fill="midnightblue" stroke="midnightblue" points="177.806,-74.2622 182.645,-64.8372 172.984,-69.1872 177.806,-74.2622"/>
</g>
<!-- Node3 -->
<g id="node3" class="node"><title>Node3</title>
<g id="a_node3"><a xlink:href="../../d4/d67/lms_8c.html#a433227191fe883dcb8aa15d291bb29a1" target="_top" xlink:title="Case1F">
<polygon fill="white" stroke="black" points="292.5,-532.5 292.5,-551.5 343.5,-551.5 343.5,-532.5 292.5,-532.5"/>
<text text-anchor="middle" x="318" y="-539.5" font-family="Helvetica,sans-Serif" font-size="10.00">Case1F</text>
</a>
</g>
</g>
<!-- Node2&#45;&gt;Node3 -->
<g id="edge2" class="edge"><title>Node2&#45;&gt;Node3</title>
<path fill="none" stroke="midnightblue" d="M196.084,-285.675C200.522,-321.269 220.206,-446.816 284,-523 284.955,-524.14 285.997,-525.227 287.103,-526.261"/>
<polygon fill="midnightblue" stroke="midnightblue" points="285.015,-529.069 295.099,-532.319 289.242,-523.49 285.015,-529.069"/>
</g>
<!-- Node4 -->
<g id="node4" class="node"><title>Node4</title>
<g id="a_node4"><a xlink:href="../../d4/d67/lms_8c.html#ace0cd8bf61cb9b86b98f0cef03b5a9d9" target="_top" xlink:title="Case2F">
<polygon fill="white" stroke="black" points="292.5,-494.5 292.5,-513.5 343.5,-513.5 343.5,-494.5 292.5,-494.5"/>
<text text-anchor="middle" x="318" y="-501.5" font-family="Helvetica,sans-Serif" font-size="10.00">Case2F</text>
</a>
</g>
</g>
<!-- Node2&#45;&gt;Node4 -->
<g id="edge3" class="edge"><title>Node2&#45;&gt;Node4</title>
<path fill="none" stroke="midnightblue" d="M196.879,-285.932C203.434,-318.234 228.003,-421.856 284,-485 285.014,-486.144 286.115,-487.236 287.277,-488.277"/>
<polygon fill="midnightblue" stroke="midnightblue" points="285.47,-491.292 295.6,-494.395 289.616,-485.652 285.47,-491.292"/>
</g>
<!-- Node5 -->
<g id="node5" class="node"><title>Node5</title>
<g id="a_node5"><a xlink:href="../../d4/d67/lms_8c.html#a5f53b53ccc591e3643c4af2aee2e7f32" target="_top" xlink:title="Case3F">
<polygon fill="white" stroke="black" points="292.5,-456.5 292.5,-475.5 343.5,-475.5 343.5,-456.5 292.5,-456.5"/>
<text text-anchor="middle" x="318" y="-463.5" font-family="Helvetica,sans-Serif" font-size="10.00">Case3F</text>
</a>
</g>
</g>
<!-- Node2&#45;&gt;Node5 -->
<g id="edge4" class="edge"><title>Node2&#45;&gt;Node5</title>
<path fill="none" stroke="midnightblue" d="M197.878,-285.664C206.635,-313.696 235.37,-396.258 284,-447 285.195,-448.247 286.49,-449.437 287.852,-450.569"/>
<polygon fill="midnightblue" stroke="midnightblue" points="285.961,-453.519 296.154,-456.409 289.989,-447.794 285.961,-453.519"/>
</g>
<!-- Node6 -->
<g id="node6" class="node"><title>Node6</title>
<g id="a_node6"><a xlink:href="../../d4/d67/lms_8c.html#a5086763d5b258349bc13d6be7e7d0665" target="_top" xlink:title="Case4F">
<polygon fill="white" stroke="black" points="292.5,-418.5 292.5,-437.5 343.5,-437.5 343.5,-418.5 292.5,-418.5"/>
<text text-anchor="middle" x="318" y="-425.5" font-family="Helvetica,sans-Serif" font-size="10.00">Case4F</text>
</a>
</g>
</g>
<!-- Node2&#45;&gt;Node6 -->
<g id="edge5" class="edge"><title>Node2&#45;&gt;Node6</title>
<path fill="none" stroke="midnightblue" d="M199.567,-285.789C210.977,-309.422 242.799,-370.484 284,-409 285.295,-410.21 286.68,-411.376 288.124,-412.492"/>
<polygon fill="midnightblue" stroke="midnightblue" points="286.537,-415.643 296.787,-418.324 290.446,-409.836 286.537,-415.643"/>
</g>
<!-- Node7 -->
<g id="node7" class="node"><title>Node7</title>
<g id="a_node7"><a xlink:href="../../d4/d67/lms_8c.html#ac81ca32708341eb34b25d515d00bc748" target="_top" xlink:title="vector">
<polygon fill="white" stroke="black" points="296,-380.5 296,-399.5 340,-399.5 340,-380.5 296,-380.5"/>
<text text-anchor="middle" x="318" y="-387.5" font-family="Helvetica,sans-Serif" font-size="10.00">vector</text>
</a>
</g>
</g>
<!-- Node2&#45;&gt;Node7 -->
<g id="edge6" class="edge"><title>Node2&#45;&gt;Node7</title>
<path fill="none" stroke="midnightblue" d="M202.306,-285.506C216.59,-303.67 249.816,-343.907 284,-371 285.768,-372.401 287.651,-373.767 289.587,-375.081"/>
<polygon fill="midnightblue" stroke="midnightblue" points="287.884,-378.143 298.221,-380.466 291.588,-372.204 287.884,-378.143"/>
</g>
<!-- Node8 -->
<g id="node8" class="node"><title>Node8</title>
<g id="a_node8"><a xlink:href="../../d4/d67/lms_8c.html#a37bcb1539d76b53344102435e2ab9c91" target="_top" xlink:title="matrix">
<polygon fill="white" stroke="black" points="296,-342.5 296,-361.5 340,-361.5 340,-342.5 296,-342.5"/>
<text text-anchor="middle" x="318" y="-349.5" font-family="Helvetica,sans-Serif" font-size="10.00">matrix</text>
</a>
</g>
</g>
<!-- Node2&#45;&gt;Node8 -->
<g id="edge7" class="edge"><title>Node2&#45;&gt;Node8</title>
<path fill="none" stroke="midnightblue" d="M209.668,-285.696C227.201,-297.214 257.5,-316.897 284,-333 286.355,-334.431 288.818,-335.9 291.292,-337.356"/>
<polygon fill="midnightblue" stroke="midnightblue" points="289.717,-340.489 300.122,-342.486 293.234,-334.436 289.717,-340.489"/>
</g>
<!-- Node9 -->
<g id="node9" class="node"><title>Node9</title>
<g id="a_node9"><a xlink:href="../../d4/d67/lms_8c.html#ad1d6c875ff429888b51dd1155f0311ad" target="_top" xlink:title="ivector">
<polygon fill="white" stroke="black" points="295,-304.5 295,-323.5 341,-323.5 341,-304.5 295,-304.5"/>
<text text-anchor="middle" x="318" y="-311.5" font-family="Helvetica,sans-Serif" font-size="10.00">ivector</text>
</a>
</g>
</g>
<!-- Node2&#45;&gt;Node9 -->
<g id="edge8" class="edge"><title>Node2&#45;&gt;Node9</title>
<path fill="none" stroke="midnightblue" d="M210.451,-280.813C229.078,-286.614 260.868,-296.516 284.888,-303.998"/>
<polygon fill="midnightblue" stroke="midnightblue" points="284.057,-307.405 294.646,-307.037 286.139,-300.722 284.057,-307.405"/>
</g>
<!-- Node10 -->
<g id="node10" class="node"><title>Node10</title>
<g id="a_node10"><a xlink:href="../../db/de5/recipes_8c.html#a623fec796d9d53e5e4a4d30226547da7" target="_top" xlink:title="ludcmp">
<polygon fill="white" stroke="black" points="294,-266.5 294,-285.5 342,-285.5 342,-266.5 294,-266.5"/>
<text text-anchor="middle" x="318" y="-273.5" font-family="Helvetica,sans-Serif" font-size="10.00">ludcmp</text>
</a>
</g>
</g>
<!-- Node2&#45;&gt;Node10 -->
<g id="edge9" class="edge"><title>Node2&#45;&gt;Node10</title>
<path fill="none" stroke="midnightblue" d="M210.451,-276C228.771,-276 259.825,-276 283.696,-276"/>
<polygon fill="midnightblue" stroke="midnightblue" points="283.757,-279.5 293.757,-276 283.757,-272.5 283.757,-279.5"/>
</g>
<!-- Node13 -->
<g id="node13" class="node"><title>Node13</title>
<g id="a_node13"><a xlink:href="../../db/de5/recipes_8c.html#a8214a52d888e820222c0382648329c0c" target="_top" xlink:title="free_vector">
<polygon fill="white" stroke="black" points="388,-228.5 388,-247.5 453,-247.5 453,-228.5 388,-228.5"/>
<text text-anchor="middle" x="420.5" y="-235.5" font-family="Helvetica,sans-Serif" font-size="10.00">free_vector</text>
</a>
</g>
</g>
<!-- Node2&#45;&gt;Node13 -->
<g id="edge21" class="edge"><title>Node2&#45;&gt;Node13</title>
<path fill="none" stroke="midnightblue" d="M210.054,-272.445C227.701,-268.357 257.861,-261.617 284,-257 315.286,-251.474 350.867,-246.536 377.714,-243.08"/>
<polygon fill="midnightblue" stroke="midnightblue" points="378.435,-246.517 387.914,-241.784 377.552,-239.573 378.435,-246.517"/>
</g>
<!-- Node14 -->
<g id="node14" class="node"><title>Node14</title>
<g id="a_node14"><a xlink:href="../../db/de5/recipes_8c.html#a66ff65ad0355ec1f4a7722bcdafc8cd3" target="_top" xlink:title="lubksb">
<polygon fill="white" stroke="black" points="295.5,-190.5 295.5,-209.5 340.5,-209.5 340.5,-190.5 295.5,-190.5"/>
<text text-anchor="middle" x="318" y="-197.5" font-family="Helvetica,sans-Serif" font-size="10.00">lubksb</text>
</a>
</g>
</g>
<!-- Node2&#45;&gt;Node14 -->
<g id="edge14" class="edge"><title>Node2&#45;&gt;Node14</title>
<path fill="none" stroke="midnightblue" d="M210.451,-266.375C231.26,-253.412 268.499,-230.214 292.978,-214.965"/>
<polygon fill="midnightblue" stroke="midnightblue" points="295.037,-217.806 301.674,-209.547 291.336,-211.864 295.037,-217.806"/>
</g>
<!-- Node15 -->
<g id="node15" class="node"><title>Node15</title>
<g id="a_node15"><a xlink:href="../../d8/d91/rounding_8c.html#aca2670cc0fbf948a6b9cb670047c9d5b" target="_top" xlink:title="round2int">
<polygon fill="white" stroke="black" points="290,-152.5 290,-171.5 346,-171.5 346,-152.5 290,-152.5"/>
<text text-anchor="middle" x="318" y="-159.5" font-family="Helvetica,sans-Serif" font-size="10.00">round2int</text>
</a>
</g>
</g>
<!-- Node2&#45;&gt;Node15 -->
<g id="edge15" class="edge"><title>Node2&#45;&gt;Node15</title>
<path fill="none" stroke="midnightblue" d="M202.306,-266.494C216.59,-248.33 249.816,-208.093 284,-181 285.768,-179.599 287.651,-178.233 289.587,-176.919"/>
<polygon fill="midnightblue" stroke="midnightblue" points="291.588,-179.796 298.221,-171.534 287.884,-173.857 291.588,-179.796"/>
</g>
<!-- Node17 -->
<g id="node17" class="node"><title>Node17</title>
<g id="a_node17"><a xlink:href="../../d8/d91/rounding_8c.html#aa8d7512cdf5bfbf811cef6a8a091c679" target="_top" xlink:title="round2csd">
<polygon fill="white" stroke="black" points="287,-114.5 287,-133.5 349,-133.5 349,-114.5 287,-114.5"/>
<text text-anchor="middle" x="318" y="-121.5" font-family="Helvetica,sans-Serif" font-size="10.00">round2csd</text>
</a>
</g>
</g>
<!-- Node2&#45;&gt;Node17 -->
<g id="edge17" class="edge"><title>Node2&#45;&gt;Node17</title>
<path fill="none" stroke="midnightblue" d="M204.331,-266.101C215.512,-253.949 234.431,-232.43 248,-212 267.137,-183.187 260.054,-167.961 284,-143 285.196,-141.754 286.491,-140.564 287.853,-139.432"/>
<polygon fill="midnightblue" stroke="midnightblue" points="289.99,-142.208 296.157,-133.593 285.964,-136.482 289.99,-142.208"/>
</g>
<!-- Node20 -->
<g id="node20" class="node"><title>Node20</title>
<g id="a_node20"><a xlink:href="../../db/de5/recipes_8c.html#a3e0d121b098c19c0bdc2429e5b9f1625" target="_top" xlink:title="free_matrix">
<polygon fill="white" stroke="black" points="285.5,-76.5 285.5,-95.5 350.5,-95.5 350.5,-76.5 285.5,-76.5"/>
<text text-anchor="middle" x="318" y="-83.5" font-family="Helvetica,sans-Serif" font-size="10.00">free_matrix</text>
</a>
</g>
</g>
<!-- Node2&#45;&gt;Node20 -->
<g id="edge22" class="edge"><title>Node2&#45;&gt;Node20</title>
<path fill="none" stroke="midnightblue" d="M204.885,-266.439C216.611,-254.619 236.068,-233.427 248,-212 272.411,-168.164 252.198,-143.81 284,-105 284.943,-103.849 285.975,-102.754 287.073,-101.714"/>
<polygon fill="midnightblue" stroke="midnightblue" points="289.215,-104.482 295.038,-95.6307 284.967,-98.9187 289.215,-104.482"/>
</g>
<!-- Node21 -->
<g id="node21" class="node"><title>Node21</title>
<g id="a_node21"><a xlink:href="../../db/de5/recipes_8c.html#aee25e218394217a134e805ea09fb0fe9" target="_top" xlink:title="free_ivector">
<polygon fill="white" stroke="black" points="284,-38.5 284,-57.5 352,-57.5 352,-38.5 284,-38.5"/>
<text text-anchor="middle" x="318" y="-45.5" font-family="Helvetica,sans-Serif" font-size="10.00">free_ivector</text>
</a>
</g>
</g>
<!-- Node2&#45;&gt;Node21 -->
<g id="edge23" class="edge"><title>Node2&#45;&gt;Node21</title>
<path fill="none" stroke="midnightblue" d="M205.611,-266.181C217.666,-254.437 237.078,-233.636 248,-212 277.924,-152.724 244.033,-120.026 284,-67 284.783,-65.9606 285.641,-64.9688 286.558,-64.0232"/>
<polygon fill="midnightblue" stroke="midnightblue" points="288.866,-66.6582 294.464,-57.6626 284.478,-61.2042 288.866,-66.6582"/>
</g>
<!-- Node11 -->
<g id="node11" class="node"><title>Node11</title>
<g id="a_node11"><a xlink:href="../../db/de5/recipes_8c.html#a5e6092211a5f7e2d6ae9282379d3c604" target="_top" xlink:title="vector">
<polygon fill="white" stroke="black" points="398.5,-304.5 398.5,-323.5 442.5,-323.5 442.5,-304.5 398.5,-304.5"/>
<text text-anchor="middle" x="420.5" y="-311.5" font-family="Helvetica,sans-Serif" font-size="10.00">vector</text>
</a>
</g>
</g>
<!-- Node10&#45;&gt;Node11 -->
<g id="edge10" class="edge"><title>Node10&#45;&gt;Node11</title>
<path fill="none" stroke="midnightblue" d="M342.057,-284.718C355.938,-289.967 373.781,-296.713 388.84,-302.407"/>
<polygon fill="midnightblue" stroke="midnightblue" points="387.674,-305.708 398.265,-305.971 390.149,-299.16 387.674,-305.708"/>
</g>
<!-- Node12 -->
<g id="node12" class="node"><title>Node12</title>
<g id="a_node12"><a xlink:href="../../db/de5/recipes_8c.html#a208e98f19b2f252315399d02c0594a46" target="_top" xlink:title="nrerror">
<polygon fill="white" stroke="black" points="489,-285.5 489,-304.5 533,-304.5 533,-285.5 489,-285.5"/>
<text text-anchor="middle" x="511" y="-292.5" font-family="Helvetica,sans-Serif" font-size="10.00">nrerror</text>
</a>
</g>
</g>
<!-- Node10&#45;&gt;Node12 -->
<g id="edge13" class="edge"><title>Node10&#45;&gt;Node12</title>
<path fill="none" stroke="midnightblue" d="M342.039,-278.292C376.23,-281.693 440.482,-288.085 478.842,-291.9"/>
<polygon fill="midnightblue" stroke="midnightblue" points="478.631,-295.397 488.928,-292.904 479.324,-288.431 478.631,-295.397"/>
</g>
<!-- Node10&#45;&gt;Node13 -->
<g id="edge12" class="edge"><title>Node10&#45;&gt;Node13</title>
<path fill="none" stroke="midnightblue" d="M342.057,-267.282C354.676,-262.511 370.569,-256.501 384.668,-251.17"/>
<polygon fill="midnightblue" stroke="midnightblue" points="385.965,-254.422 394.081,-247.611 383.489,-247.874 385.965,-254.422"/>
</g>
<!-- Node11&#45;&gt;Node12 -->
<g id="edge11" class="edge"><title>Node11&#45;&gt;Node12</title>
<path fill="none" stroke="midnightblue" d="M442.923,-309.401C453.685,-307.09 466.928,-304.247 478.796,-301.699"/>
<polygon fill="midnightblue" stroke="midnightblue" points="479.731,-305.078 488.774,-299.557 478.262,-298.234 479.731,-305.078"/>
</g>
<!-- Node16 -->
<g id="node16" class="node"><title>Node16</title>
<g id="a_node16"><a xlink:href="../../db/d82/wglew_8h.html#a500a82aecba06f4550f6849b8099ca21" target="_top" xlink:title="int">
<polygon fill="white" stroke="black" points="406,-152.5 406,-171.5 435,-171.5 435,-152.5 406,-152.5"/>
<text text-anchor="middle" x="420.5" y="-159.5" font-family="Helvetica,sans-Serif" font-size="10.00">int</text>
</a>
</g>
</g>
<!-- Node15&#45;&gt;Node16 -->
<g id="edge16" class="edge"><title>Node15&#45;&gt;Node16</title>
<path fill="none" stroke="midnightblue" d="M346.197,-162C361.576,-162 380.634,-162 395.462,-162"/>
<polygon fill="midnightblue" stroke="midnightblue" points="395.846,-165.5 405.846,-162 395.846,-158.5 395.846,-165.5"/>
</g>
<!-- Node17&#45;&gt;Node16 -->
<g id="edge18" class="edge"><title>Node17&#45;&gt;Node16</title>
<path fill="none" stroke="midnightblue" d="M344.36,-133.589C360.388,-139.649 380.934,-147.418 396.49,-153.3"/>
<polygon fill="midnightblue" stroke="midnightblue" points="395.302,-156.592 405.894,-156.855 397.778,-150.045 395.302,-156.592"/>
</g>
<!-- Node18 -->
<g id="node18" class="node"><title>Node18</title>
<g id="a_node18"><a xlink:href="../../d8/d91/rounding_8c.html#ab3a64ec72c5600bc114621e93309c8c3" target="_top" xlink:title="int2csd">
<polygon fill="white" stroke="black" points="396.5,-114.5 396.5,-133.5 444.5,-133.5 444.5,-114.5 396.5,-114.5"/>
<text text-anchor="middle" x="420.5" y="-121.5" font-family="Helvetica,sans-Serif" font-size="10.00">int2csd</text>
</a>
</g>
</g>
<!-- Node17&#45;&gt;Node18 -->
<g id="edge19" class="edge"><title>Node17&#45;&gt;Node18</title>
<path fill="none" stroke="midnightblue" d="M349.153,-124C360.87,-124 374.331,-124 386.321,-124"/>
<polygon fill="midnightblue" stroke="midnightblue" points="386.398,-127.5 396.398,-124 386.398,-120.5 386.398,-127.5"/>
</g>
<!-- Node19 -->
<g id="node19" class="node"><title>Node19</title>
<g id="a_node19"><a xlink:href="../../d8/d91/rounding_8c.html#a2cff6b77e73872659c44b0c99f6bd97f" target="_top" xlink:title="csd2int">
<polygon fill="white" stroke="black" points="396.5,-76.5 396.5,-95.5 444.5,-95.5 444.5,-76.5 396.5,-76.5"/>
<text text-anchor="middle" x="420.5" y="-83.5" font-family="Helvetica,sans-Serif" font-size="10.00">csd2int</text>
</a>
</g>
</g>
<!-- Node17&#45;&gt;Node19 -->
<g id="edge20" class="edge"><title>Node17&#45;&gt;Node19</title>
<path fill="none" stroke="midnightblue" d="M344.36,-114.411C357.181,-109.563 372.894,-103.622 386.631,-98.4281"/>
<polygon fill="midnightblue" stroke="midnightblue" points="388.099,-101.615 396.214,-94.8045 385.623,-95.0675 388.099,-101.615"/>
</g>
<!-- Node24 -->
<g id="node24" class="node"><title>Node24</title>
<g id="a_node24"><a xlink:href="../../d9/df5/Logger_8cpp.html#ada38bf01d6d691de953ed69268ea6516" target="_top" xlink:title="errToStr">
<polygon fill="white" stroke="black" points="292,-0.5 292,-19.5 344,-19.5 344,-0.5 292,-0.5"/>
<text text-anchor="middle" x="318" y="-7.5" font-family="Helvetica,sans-Serif" font-size="10.00">errToStr</text>
</a>
</g>
</g>
<!-- Node23&#45;&gt;Node24 -->
<g id="edge26" class="edge"><title>Node23&#45;&gt;Node24</title>
<path fill="none" stroke="midnightblue" d="M220.873,-45.4567C238.824,-38.8355 262.931,-29.9434 282.513,-22.7207"/>
<polygon fill="midnightblue" stroke="midnightblue" points="283.828,-25.9662 291.999,-19.2218 281.405,-19.3987 283.828,-25.9662"/>
</g>
</g>
</svg>
