<?xml version="1.0" encoding="UTF-8" standalone="no"?>
<!DOCTYPE svg PUBLIC "-//W3C//DTD SVG 1.1//EN"
 "http://www.w3.org/Graphics/SVG/1.1/DTD/svg11.dtd">
<!-- Generated by graphviz version 2.38.0 (20140413.2041)
 -->
<!-- Title: lime::IConnection::GetDeviceInfo Pages: 1 -->
<svg width="1522pt" height="522pt"
 viewBox="0.00 0.00 1522.00 522.00" xmlns="http://www.w3.org/2000/svg" xmlns:xlink="http://www.w3.org/1999/xlink">
<g id="graph0" class="graph" transform="scale(1 1) rotate(0) translate(4 518)">
<title>lime::IConnection::GetDeviceInfo</title>
<polygon fill="white" stroke="none" points="-4,4 -4,-518 1518,-518 1518,4 -4,4"/>
<!-- Node1 -->
<g id="node1" class="node"><title>Node1</title>
<polygon fill="#bfbfbf" stroke="black" points="0,-210 0,-240 99,-240 99,-210 0,-210"/>
<text text-anchor="start" x="8" y="-228" font-family="Helvetica,sans-Serif" font-size="10.00">lime::IConnection::</text>
<text text-anchor="middle" x="49.5" y="-217" font-family="Helvetica,sans-Serif" font-size="10.00">GetDeviceInfo</text>
</g>
<!-- Node2 -->
<g id="node2" class="node"><title>Node2</title>
<g id="a_node2"><a xlink:href="../../d6/d0b/LMS7002M__RxTxCalibrations_8cpp.html#adcd77ca8ab1c1d39ebc6012d3c6d0f55" target="_top" xlink:title="GetExtLoopPair">
<polygon fill="white" stroke="black" points="162.5,-312.5 162.5,-331.5 248.5,-331.5 248.5,-312.5 162.5,-312.5"/>
<text text-anchor="middle" x="205.5" y="-319.5" font-family="Helvetica,sans-Serif" font-size="10.00">GetExtLoopPair</text>
</a>
</g>
</g>
<!-- Node1&#45;&gt;Node2 -->
<g id="edge1" class="edge"><title>Node1&#45;&gt;Node2</title>
<path fill="none" stroke="midnightblue" d="M69.5956,-247.801C85.4254,-265.308 109.409,-288.815 135,-303 143.424,-307.67 153.068,-311.249 162.436,-313.972"/>
<polygon fill="midnightblue" stroke="midnightblue" points="72.1603,-245.418 62.9198,-240.235 66.9113,-250.049 72.1603,-245.418"/>
</g>
<!-- Node14 -->
<g id="node14" class="node"><title>Node14</title>
<g id="a_node14"><a xlink:href="../../d3/d22/classlime_1_1LMS7__Device.html#a98db5e68bc4addb1d9c1149edd3590eb" target="_top" xlink:title="lime::LMS7_Device::\lGetInfo">
<polygon fill="white" stroke="black" points="151.5,-210 151.5,-240 259.5,-240 259.5,-210 151.5,-210"/>
<text text-anchor="start" x="159.5" y="-228" font-family="Helvetica,sans-Serif" font-size="10.00">lime::LMS7_Device::</text>
<text text-anchor="middle" x="205.5" y="-217" font-family="Helvetica,sans-Serif" font-size="10.00">GetInfo</text>
</a>
</g>
</g>
<!-- Node1&#45;&gt;Node14 -->
<g id="edge14" class="edge"><title>Node1&#45;&gt;Node14</title>
<path fill="none" stroke="midnightblue" d="M109.542,-225C123.277,-225 137.82,-225 151.286,-225"/>
<polygon fill="midnightblue" stroke="midnightblue" points="109.227,-221.5 99.2266,-225 109.227,-228.5 109.227,-221.5"/>
</g>
<!-- Node37 -->
<g id="node37" class="node"><title>Node37</title>
<g id="a_node37"><a xlink:href="../../dd/d0b/mcu__program_2host__src_2main_8cpp.html#a3c04138a5bfe5d72780bb7e82a18e627" target="_top" xlink:title="main">
<polygon fill="white" stroke="black" points="186.5,-171.5 186.5,-190.5 224.5,-190.5 224.5,-171.5 186.5,-171.5"/>
<text text-anchor="middle" x="205.5" y="-178.5" font-family="Helvetica,sans-Serif" font-size="10.00">main</text>
</a>
</g>
</g>
<!-- Node1&#45;&gt;Node37 -->
<g id="edge42" class="edge"><title>Node1&#45;&gt;Node37</title>
<path fill="none" stroke="midnightblue" d="M108.912,-207.547C117.648,-204.986 126.554,-202.404 135,-200 152.445,-195.035 172.425,-189.599 186.471,-185.818"/>
<polygon fill="midnightblue" stroke="midnightblue" points="107.76,-204.237 99.1547,-210.417 109.736,-210.952 107.76,-204.237"/>
</g>
<!-- Node38 -->
<g id="node38" class="node"><title>Node38</title>
<g id="a_node38"><a xlink:href="../../d6/d0b/LMS7002M__RxTxCalibrations_8cpp.html#a6b3de4343e7fdcbfb5bc8cf53d5a5ea6" target="_top" xlink:title="SetExtLoopback">
<polygon fill="white" stroke="black" points="161,-274.5 161,-293.5 250,-293.5 250,-274.5 161,-274.5"/>
<text text-anchor="middle" x="205.5" y="-281.5" font-family="Helvetica,sans-Serif" font-size="10.00">SetExtLoopback</text>
</a>
</g>
</g>
<!-- Node1&#45;&gt;Node38 -->
<g id="edge43" class="edge"><title>Node1&#45;&gt;Node38</title>
<path fill="none" stroke="midnightblue" d="M99.2918,-243.693C125.883,-253.88 157.682,-266.063 179.31,-274.349"/>
<polygon fill="midnightblue" stroke="midnightblue" points="100.349,-240.35 89.7592,-240.041 97.8451,-246.887 100.349,-240.35"/>
</g>
<!-- Node39 -->
<g id="node39" class="node"><title>Node39</title>
<g id="a_node39"><a xlink:href="../../d5/dba/classStreamingFixture.html#a5551dd297bc4cda9a9e677b2d2fffd61" target="_top" xlink:title="StreamingFixture::Streaming\lFixture">
<polygon fill="white" stroke="black" points="135,-122 135,-152 276,-152 276,-122 135,-122"/>
<text text-anchor="start" x="143" y="-140" font-family="Helvetica,sans-Serif" font-size="10.00">StreamingFixture::Streaming</text>
<text text-anchor="middle" x="205.5" y="-129" font-family="Helvetica,sans-Serif" font-size="10.00">Fixture</text>
</a>
</g>
</g>
<!-- Node1&#45;&gt;Node39 -->
<g id="edge46" class="edge"><title>Node1&#45;&gt;Node39</title>
<path fill="none" stroke="midnightblue" d="M75.4848,-203.275C91.6421,-190.033 113.586,-173.504 135,-162 141.778,-158.359 149.196,-155.051 156.582,-152.121"/>
<polygon fill="midnightblue" stroke="midnightblue" points="73.0333,-200.762 67.5965,-209.855 77.5175,-206.137 73.0333,-200.762"/>
</g>
<!-- Node3 -->
<g id="node3" class="node"><title>Node3</title>
<g id="a_node3"><a xlink:href="../../db/d1d/classlime_1_1LMS7002M.html#ae900374ba557db30583c2ff6ec6d2a2e" target="_top" xlink:title="Calibrates Receiver. ">
<polygon fill="white" stroke="black" points="312.5,-331.5 312.5,-350.5 460.5,-350.5 460.5,-331.5 312.5,-331.5"/>
<text text-anchor="middle" x="386.5" y="-338.5" font-family="Helvetica,sans-Serif" font-size="10.00">lime::LMS7002M::CalibrateRx</text>
</a>
</g>
</g>
<!-- Node2&#45;&gt;Node3 -->
<g id="edge2" class="edge"><title>Node2&#45;&gt;Node3</title>
<path fill="none" stroke="midnightblue" d="M258.997,-327.572C275.654,-329.34 294.386,-331.329 312.228,-333.223"/>
<polygon fill="midnightblue" stroke="midnightblue" points="259.234,-324.078 248.921,-326.503 258.495,-331.039 259.234,-324.078"/>
</g>
<!-- Node13 -->
<g id="node13" class="node"><title>Node13</title>
<g id="a_node13"><a xlink:href="../../db/d1d/classlime_1_1LMS7002M.html#a276f35266dd79876341c84c2e2ef9ade" target="_top" xlink:title="Calibrates Transmitter. ">
<polygon fill="white" stroke="black" points="313.5,-293.5 313.5,-312.5 459.5,-312.5 459.5,-293.5 313.5,-293.5"/>
<text text-anchor="middle" x="386.5" y="-300.5" font-family="Helvetica,sans-Serif" font-size="10.00">lime::LMS7002M::CalibrateTx</text>
</a>
</g>
</g>
<!-- Node2&#45;&gt;Node13 -->
<g id="edge12" class="edge"><title>Node2&#45;&gt;Node13</title>
<path fill="none" stroke="midnightblue" d="M259.167,-316.41C276.111,-314.611 295.189,-312.586 313.286,-310.665"/>
<polygon fill="midnightblue" stroke="midnightblue" points="258.495,-312.961 248.921,-317.497 259.234,-319.922 258.495,-312.961"/>
</g>
<!-- Node4 -->
<g id="node4" class="node"><title>Node4</title>
<g id="a_node4"><a xlink:href="../../d3/d22/classlime_1_1LMS7__Device.html#a0686d1e959e189bda8174aab28e79077" target="_top" xlink:title="lime::LMS7_Device::\lCalibrate">
<polygon fill="white" stroke="black" points="515,-379 515,-409 623,-409 623,-379 515,-379"/>
<text text-anchor="start" x="523" y="-397" font-family="Helvetica,sans-Serif" font-size="10.00">lime::LMS7_Device::</text>
<text text-anchor="middle" x="569" y="-386" font-family="Helvetica,sans-Serif" font-size="10.00">Calibrate</text>
</a>
</g>
</g>
<!-- Node3&#45;&gt;Node4 -->
<g id="edge3" class="edge"><title>Node3&#45;&gt;Node4</title>
<path fill="none" stroke="midnightblue" d="M430.104,-353.51C456.063,-361.132 489.396,-370.92 516.786,-378.962"/>
<polygon fill="midnightblue" stroke="midnightblue" points="430.768,-350.057 420.187,-350.598 428.796,-356.774 430.768,-350.057"/>
</g>
<!-- Node5 -->
<g id="node5" class="node"><title>Node5</title>
<g id="a_node5"><a xlink:href="../../d9/d90/classSoapyLMS7.html#a3ed334e7d2f7c168515f4b9ee6f46545" target="_top" xlink:title="SoapyLMS7::writeSetting">
<polygon fill="white" stroke="black" points="693,-374.5 693,-393.5 821,-393.5 821,-374.5 693,-374.5"/>
<text text-anchor="middle" x="757" y="-381.5" font-family="Helvetica,sans-Serif" font-size="10.00">SoapyLMS7::writeSetting</text>
</a>
</g>
</g>
<!-- Node4&#45;&gt;Node5 -->
<g id="edge4" class="edge"><title>Node4&#45;&gt;Node5</title>
<path fill="none" stroke="midnightblue" d="M633.436,-390.589C652.611,-389.559 673.657,-388.427 692.816,-387.397"/>
<polygon fill="midnightblue" stroke="midnightblue" points="633.098,-387.102 623.3,-391.134 633.474,-394.092 633.098,-387.102"/>
</g>
<!-- Node6 -->
<g id="node6" class="node"><title>Node6</title>
<g id="a_node6"><a xlink:href="../../df/de1/lms7__api_8cpp.html#a30253e6e7221c70d726b6bb06c69e43e" target="_top" xlink:title="LMS_Calibrate">
<polygon fill="white" stroke="black" points="716.5,-412.5 716.5,-431.5 797.5,-431.5 797.5,-412.5 716.5,-412.5"/>
<text text-anchor="middle" x="757" y="-419.5" font-family="Helvetica,sans-Serif" font-size="10.00">LMS_Calibrate</text>
</a>
</g>
</g>
<!-- Node4&#45;&gt;Node6 -->
<g id="edge5" class="edge"><title>Node4&#45;&gt;Node6</title>
<path fill="none" stroke="midnightblue" d="M633.239,-403.52C660.748,-407.661 692.141,-412.387 716.294,-416.023"/>
<polygon fill="midnightblue" stroke="midnightblue" points="633.71,-400.051 623.3,-402.024 632.668,-406.973 633.71,-400.051"/>
</g>
<!-- Node7 -->
<g id="node7" class="node"><title>Node7</title>
<g id="a_node7"><a xlink:href="../../d0/d43/LimeUtilCalSweep_8cpp.html#aa1ddf17da91809067879ee6cf16f04d1" target="_top" xlink:title="deviceCalSweep">
<polygon fill="white" stroke="black" points="895,-494.5 895,-513.5 985,-513.5 985,-494.5 895,-494.5"/>
<text text-anchor="middle" x="940" y="-501.5" font-family="Helvetica,sans-Serif" font-size="10.00">deviceCalSweep</text>
</a>
</g>
</g>
<!-- Node6&#45;&gt;Node7 -->
<g id="edge6" class="edge"><title>Node6&#45;&gt;Node7</title>
<path fill="none" stroke="midnightblue" d="M781.708,-437.018C804.44,-450.922 840.07,-471.435 873,-485 881.71,-488.588 891.329,-491.77 900.467,-494.457"/>
<polygon fill="midnightblue" stroke="midnightblue" points="783.433,-433.97 773.087,-431.683 779.749,-439.922 783.433,-433.97"/>
</g>
<!-- Node9 -->
<g id="node9" class="node"><title>Node9</title>
<g id="a_node9"><a xlink:href="../../d1/d1f/singleRX_8cpp.html#a3c04138a5bfe5d72780bb7e82a18e627" target="_top" xlink:title="main">
<polygon fill="white" stroke="black" points="921,-456.5 921,-475.5 959,-475.5 959,-456.5 921,-456.5"/>
<text text-anchor="middle" x="940" y="-463.5" font-family="Helvetica,sans-Serif" font-size="10.00">main</text>
</a>
</g>
</g>
<!-- Node6&#45;&gt;Node9 -->
<g id="edge8" class="edge"><title>Node6&#45;&gt;Node9</title>
<path fill="none" stroke="midnightblue" d="M807.033,-433.92C844.615,-443.056 894.37,-455.151 920.754,-461.564"/>
<polygon fill="midnightblue" stroke="midnightblue" points="807.818,-430.509 797.274,-431.547 806.165,-437.311 807.818,-430.509"/>
</g>
<!-- Node10 -->
<g id="node10" class="node"><title>Node10</title>
<g id="a_node10"><a xlink:href="../../da/dd0/classlms7002__pnlCalibrations__view.html#ae3b090e81fe2c5165051d0de1ef70147" target="_top" xlink:title="lms7002_pnlCalibrations\l_view::OnbtnCalibrateAll">
<polygon fill="white" stroke="black" points="877.5,-407 877.5,-437 1002.5,-437 1002.5,-407 877.5,-407"/>
<text text-anchor="start" x="885.5" y="-425" font-family="Helvetica,sans-Serif" font-size="10.00">lms7002_pnlCalibrations</text>
<text text-anchor="middle" x="940" y="-414" font-family="Helvetica,sans-Serif" font-size="10.00">_view::OnbtnCalibrateAll</text>
</a>
</g>
</g>
<!-- Node6&#45;&gt;Node10 -->
<g id="edge9" class="edge"><title>Node6&#45;&gt;Node10</title>
<path fill="none" stroke="midnightblue" d="M807.921,-422C829.385,-422 854.689,-422 877.311,-422"/>
<polygon fill="midnightblue" stroke="midnightblue" points="807.721,-418.5 797.721,-422 807.721,-425.5 807.721,-418.5"/>
</g>
<!-- Node11 -->
<g id="node11" class="node"><title>Node11</title>
<g id="a_node11"><a xlink:href="../../da/dd0/classlms7002__pnlCalibrations__view.html#a5e1f35ed3deee842da3ceb80c907285f" target="_top" xlink:title="lms7002_pnlCalibrations\l_view::OnbtnCalibrateRx">
<polygon fill="white" stroke="black" points="877,-358 877,-388 1003,-388 1003,-358 877,-358"/>
<text text-anchor="start" x="885" y="-376" font-family="Helvetica,sans-Serif" font-size="10.00">lms7002_pnlCalibrations</text>
<text text-anchor="middle" x="940" y="-365" font-family="Helvetica,sans-Serif" font-size="10.00">_view::OnbtnCalibrateRx</text>
</a>
</g>
</g>
<!-- Node6&#45;&gt;Node11 -->
<g id="edge10" class="edge"><title>Node6&#45;&gt;Node11</title>
<path fill="none" stroke="midnightblue" d="M807.814,-410.42C817.516,-408.052 827.593,-405.513 837,-403 854.209,-398.403 872.937,-393.009 889.595,-388.072"/>
<polygon fill="midnightblue" stroke="midnightblue" points="806.781,-407.069 797.882,-412.819 808.424,-413.873 806.781,-407.069"/>
</g>
<!-- Node12 -->
<g id="node12" class="node"><title>Node12</title>
<g id="a_node12"><a xlink:href="../../da/dd0/classlms7002__pnlCalibrations__view.html#a66789914ffb16b2eb0f508cdac365210" target="_top" xlink:title="lms7002_pnlCalibrations\l_view::OnbtnCalibrateTx">
<polygon fill="white" stroke="black" points="877.5,-309 877.5,-339 1002.5,-339 1002.5,-309 877.5,-309"/>
<text text-anchor="start" x="885.5" y="-327" font-family="Helvetica,sans-Serif" font-size="10.00">lms7002_pnlCalibrations</text>
<text text-anchor="middle" x="940" y="-316" font-family="Helvetica,sans-Serif" font-size="10.00">_view::OnbtnCalibrateTx</text>
</a>
</g>
</g>
<!-- Node6&#45;&gt;Node12 -->
<g id="edge11" class="edge"><title>Node6&#45;&gt;Node12</title>
<path fill="none" stroke="midnightblue" d="M807.611,-416.021C817.946,-413.196 828.322,-409.058 837,-403 860.652,-386.49 850.435,-366.967 873,-349 877.793,-345.184 883.231,-341.905 888.88,-339.098"/>
<polygon fill="midnightblue" stroke="midnightblue" points="806.7,-412.64 797.773,-418.346 808.31,-419.452 806.7,-412.64"/>
</g>
<!-- Node8 -->
<g id="node8" class="node"><title>Node8</title>
<g id="a_node8"><a xlink:href="../../d5/db6/LimeUtil_8cpp.html#a0ddf1224851353fc92bfbff6f499fa97" target="_top" xlink:title="main">
<polygon fill="white" stroke="black" points="1092,-494.5 1092,-513.5 1130,-513.5 1130,-494.5 1092,-494.5"/>
<text text-anchor="middle" x="1111" y="-501.5" font-family="Helvetica,sans-Serif" font-size="10.00">main</text>
</a>
</g>
</g>
<!-- Node7&#45;&gt;Node8 -->
<g id="edge7" class="edge"><title>Node7&#45;&gt;Node8</title>
<path fill="none" stroke="midnightblue" d="M995.421,-504C1028.52,-504 1068.7,-504 1091.62,-504"/>
<polygon fill="midnightblue" stroke="midnightblue" points="995.403,-500.5 985.403,-504 995.403,-507.5 995.403,-500.5"/>
</g>
<!-- Node13&#45;&gt;Node4 -->
<g id="edge13" class="edge"><title>Node13&#45;&gt;Node4</title>
<path fill="none" stroke="midnightblue" d="M451.201,-316.454C454.622,-318.094 457.917,-319.935 461,-322 483.156,-336.839 475.4,-354.362 497,-370 502.375,-373.891 508.426,-377.185 514.671,-379.964"/>
<polygon fill="midnightblue" stroke="midnightblue" points="452.481,-313.195 441.905,-312.561 449.777,-319.652 452.481,-313.195"/>
</g>
<!-- Node15 -->
<g id="node15" class="node"><title>Node15</title>
<g id="a_node15"><a xlink:href="../../d9/d90/classSoapyLMS7.html#aecb2f51c55690daeb2b7b99ae6565b43" target="_top" xlink:title="SoapyLMS7::getHardwareKey">
<polygon fill="white" stroke="black" points="312,-158.5 312,-177.5 461,-177.5 461,-158.5 312,-158.5"/>
<text text-anchor="middle" x="386.5" y="-165.5" font-family="Helvetica,sans-Serif" font-size="10.00">SoapyLMS7::getHardwareKey</text>
</a>
</g>
</g>
<!-- Node14&#45;&gt;Node15 -->
<g id="edge15" class="edge"><title>Node14&#45;&gt;Node15</title>
<path fill="none" stroke="midnightblue" d="M257.907,-206.516C264.005,-204.321 270.142,-202.111 276,-200 292.004,-194.232 295.747,-192.023 312,-187 322.829,-183.653 334.677,-180.411 345.638,-177.58"/>
<polygon fill="midnightblue" stroke="midnightblue" points="256.624,-203.258 248.4,-209.938 258.994,-209.845 256.624,-203.258"/>
</g>
<!-- Node16 -->
<g id="node16" class="node"><title>Node16</title>
<g id="a_node16"><a xlink:href="../../d9/d90/classSoapyLMS7.html#a231f46299555a247d4f4f955f2ad35d8" target="_top" xlink:title="SoapyLMS7::getHardwareInfo">
<polygon fill="white" stroke="black" points="312.5,-120.5 312.5,-139.5 460.5,-139.5 460.5,-120.5 312.5,-120.5"/>
<text text-anchor="middle" x="386.5" y="-127.5" font-family="Helvetica,sans-Serif" font-size="10.00">SoapyLMS7::getHardwareInfo</text>
</a>
</g>
</g>
<!-- Node14&#45;&gt;Node16 -->
<g id="edge16" class="edge"><title>Node14&#45;&gt;Node16</title>
<path fill="none" stroke="midnightblue" d="M268.597,-205.003C271.174,-203.449 273.657,-201.784 276,-200 298.075,-183.193 289.173,-164.77 312,-149 317.639,-145.105 324.019,-142.008 330.608,-139.546"/>
<polygon fill="midnightblue" stroke="midnightblue" points="266.69,-202.053 259.53,-209.863 269.997,-208.223 266.69,-202.053"/>
</g>
<!-- Node17 -->
<g id="node17" class="node"><title>Node17</title>
<g id="a_node17"><a xlink:href="../../df/de1/lms7__api_8cpp.html#a9b072759ccce533468db9bb3c97a417d" target="_top" xlink:title="LMS_GetDeviceInfo">
<polygon fill="white" stroke="black" points="334,-234.5 334,-253.5 439,-253.5 439,-234.5 334,-234.5"/>
<text text-anchor="middle" x="386.5" y="-241.5" font-family="Helvetica,sans-Serif" font-size="10.00">LMS_GetDeviceInfo</text>
</a>
</g>
</g>
<!-- Node14&#45;&gt;Node17 -->
<g id="edge17" class="edge"><title>Node14&#45;&gt;Node17</title>
<path fill="none" stroke="midnightblue" d="M269.804,-231.719C290.732,-233.941 313.755,-236.385 333.715,-238.503"/>
<polygon fill="midnightblue" stroke="midnightblue" points="270.035,-228.224 259.721,-230.649 269.296,-235.185 270.035,-228.224"/>
</g>
<!-- Node36 -->
<g id="node36" class="node"><title>Node36</title>
<g id="a_node36"><a xlink:href="../../d4/d8f/pll__sweep_8cpp.html#a3c04138a5bfe5d72780bb7e82a18e627" target="_top" xlink:title="main">
<polygon fill="white" stroke="black" points="367.5,-196.5 367.5,-215.5 405.5,-215.5 405.5,-196.5 367.5,-196.5"/>
<text text-anchor="middle" x="386.5" y="-203.5" font-family="Helvetica,sans-Serif" font-size="10.00">main</text>
</a>
</g>
</g>
<!-- Node14&#45;&gt;Node36 -->
<g id="edge41" class="edge"><title>Node14&#45;&gt;Node36</title>
<path fill="none" stroke="midnightblue" d="M269.766,-218.285C304.327,-214.616 344.612,-210.34 367.381,-207.923"/>
<polygon fill="midnightblue" stroke="midnightblue" points="269.296,-214.815 259.721,-219.351 270.035,-221.776 269.296,-214.815"/>
</g>
<!-- Node18 -->
<g id="node18" class="node"><title>Node18</title>
<g id="a_node18"><a xlink:href="../../de/d23/classpnlLimeSDR.html#a7351cc86b031fbf834059fa679cc16c8" target="_top" xlink:title="pnlLimeSDR::Initialize">
<polygon fill="white" stroke="black" points="512,-177.5 512,-196.5 626,-196.5 626,-177.5 512,-177.5"/>
<text text-anchor="middle" x="569" y="-184.5" font-family="Helvetica,sans-Serif" font-size="10.00">pnlLimeSDR::Initialize</text>
</a>
</g>
</g>
<!-- Node17&#45;&gt;Node18 -->
<g id="edge18" class="edge"><title>Node17&#45;&gt;Node18</title>
<path fill="none" stroke="midnightblue" d="M437.637,-231.884C445.501,-229.742 453.503,-227.417 461,-225 477.339,-219.731 480.864,-216.861 497,-211 510.697,-206.024 525.999,-200.809 538.88,-196.515"/>
<polygon fill="midnightblue" stroke="midnightblue" points="436.568,-228.547 427.8,-234.495 438.363,-235.313 436.568,-228.547"/>
</g>
<!-- Node20 -->
<g id="node20" class="node"><title>Node20</title>
<g id="a_node20"><a xlink:href="../../df/d93/classpnlBoardControls.html#ad4e318fad186d4b2d50fcbf20e0b88be" target="_top" xlink:title="pnlBoardControls::Initialize">
<polygon fill="white" stroke="black" points="873,-266.5 873,-285.5 1007,-285.5 1007,-266.5 873,-266.5"/>
<text text-anchor="middle" x="940" y="-273.5" font-family="Helvetica,sans-Serif" font-size="10.00">pnlBoardControls::Initialize</text>
</a>
</g>
</g>
<!-- Node17&#45;&gt;Node20 -->
<g id="edge32" class="edge"><title>Node17&#45;&gt;Node20</title>
<path fill="none" stroke="midnightblue" d="M449.276,-242.157C500.636,-241.068 575.627,-240.5 641,-244 721.017,-248.284 812.603,-258.994 872.883,-266.848"/>
<polygon fill="midnightblue" stroke="midnightblue" points="448.926,-238.664 439.008,-242.389 449.084,-245.662 448.926,-238.664"/>
</g>
<!-- Node24 -->
<g id="node24" class="node"><title>Node24</title>
<g id="a_node24"><a xlink:href="../../d1/df3/classLMS7SuiteAppFrame.html#a819f017d3e706c433d9b7f4f9bc1f9c3" target="_top" xlink:title="LMS7SuiteAppFrame::\lOnControlBoardConnect">
<polygon fill="white" stroke="black" points="1215,-225 1215,-255 1338,-255 1338,-225 1215,-225"/>
<text text-anchor="start" x="1223" y="-243" font-family="Helvetica,sans-Serif" font-size="10.00">LMS7SuiteAppFrame::</text>
<text text-anchor="middle" x="1276.5" y="-232" font-family="Helvetica,sans-Serif" font-size="10.00">OnControlBoardConnect</text>
</a>
</g>
</g>
<!-- Node17&#45;&gt;Node24 -->
<g id="edge35" class="edge"><title>Node17&#45;&gt;Node24</title>
<path fill="none" stroke="midnightblue" d="M448.475,-232.254C452.907,-230.211 457.143,-227.813 461,-225 485.207,-207.342 472.891,-185.791 497,-168 592.947,-97.1995 636.759,-98 756,-98 756,-98 756,-98 941,-98 1047.11,-98 1085.5,-66.8162 1179,-117 1224.68,-141.517 1255.91,-197.919 1268.83,-224.98"/>
<polygon fill="midnightblue" stroke="midnightblue" points="447.154,-229.013 439.163,-235.969 449.748,-235.514 447.154,-229.013"/>
</g>
<!-- Node29 -->
<g id="node29" class="node"><title>Node29</title>
<g id="a_node29"><a xlink:href="../../db/d33/classLMS__Programing__wxgui.html#a3b557352b3babbfe819c188dbd44fdb7" target="_top" xlink:title="LMS_Programing_wxgui\l::OnbtnOpenClick">
<polygon fill="white" stroke="black" points="508,-39 508,-69 630,-69 630,-39 508,-39"/>
<text text-anchor="start" x="516" y="-57" font-family="Helvetica,sans-Serif" font-size="10.00">LMS_Programing_wxgui</text>
<text text-anchor="middle" x="569" y="-46" font-family="Helvetica,sans-Serif" font-size="10.00">::OnbtnOpenClick</text>
</a>
</g>
</g>
<!-- Node17&#45;&gt;Node29 -->
<g id="edge33" class="edge"><title>Node17&#45;&gt;Node29</title>
<path fill="none" stroke="midnightblue" d="M448.365,-234.148C453.009,-231.705 457.314,-228.697 461,-225 506.665,-179.198 454.817,-133.028 497,-84 502.237,-77.9138 508.919,-73.0325 516.081,-69.1257"/>
<polygon fill="midnightblue" stroke="midnightblue" points="446.863,-230.985 439.09,-238.184 449.656,-237.403 446.863,-230.985"/>
</g>
<!-- Node31 -->
<g id="node31" class="node"><title>Node31</title>
<g id="a_node31"><a xlink:href="../../d8/d18/classdlgDeviceInfo.html#ac288932b20535a4c02ac3ab86533e2c9" target="_top" xlink:title="dlgDeviceInfo::OnGetInfo">
<polygon fill="white" stroke="black" points="505,-0.5 505,-19.5 633,-19.5 633,-0.5 505,-0.5"/>
<text text-anchor="middle" x="569" y="-7.5" font-family="Helvetica,sans-Serif" font-size="10.00">dlgDeviceInfo::OnGetInfo</text>
</a>
</g>
</g>
<!-- Node17&#45;&gt;Node31 -->
<g id="edge36" class="edge"><title>Node17&#45;&gt;Node31</title>
<path fill="none" stroke="midnightblue" d="M448.429,-234.528C453.096,-232.009 457.388,-228.879 461,-225 521.355,-160.18 436.922,-94.0765 497,-29 500.549,-25.156 504.782,-22.0559 509.389,-19.5601"/>
<polygon fill="midnightblue" stroke="midnightblue" points="446.804,-231.419 439.067,-238.658 449.629,-237.824 446.804,-231.419"/>
</g>
<!-- Node32 -->
<g id="node32" class="node"><title>Node32</title>
<g id="a_node32"><a xlink:href="../../d1/df3/classLMS7SuiteAppFrame.html#aea8a8c7f900e742257e230d597fa865b" target="_top" xlink:title="LMS7SuiteAppFrame::\lOnShowSi5351C">
<polygon fill="white" stroke="black" points="511,-330 511,-360 627,-360 627,-330 511,-330"/>
<text text-anchor="start" x="519" y="-348" font-family="Helvetica,sans-Serif" font-size="10.00">LMS7SuiteAppFrame::</text>
<text text-anchor="middle" x="569" y="-337" font-family="Helvetica,sans-Serif" font-size="10.00">OnShowSi5351C</text>
</a>
</g>
</g>
<!-- Node17&#45;&gt;Node32 -->
<g id="edge37" class="edge"><title>Node17&#45;&gt;Node32</title>
<path fill="none" stroke="midnightblue" d="M417.808,-258.013C431.55,-264.979 447.669,-274.035 461,-284 479.124,-297.547 477.853,-307.943 497,-320 502.972,-323.76 509.583,-327.047 516.299,-329.892"/>
<polygon fill="midnightblue" stroke="midnightblue" points="419.255,-254.824 408.738,-253.539 416.158,-261.102 419.255,-254.824"/>
</g>
<!-- Node33 -->
<g id="node33" class="node"><title>Node33</title>
<g id="a_node33"><a xlink:href="../../db/d92/LimeSuite_8cc.html#ab0d65a7462daf4ea21cb0a45e5060a38" target="_top" xlink:title="PrintDeviceInfo">
<polygon fill="white" stroke="black" points="527,-291.5 527,-310.5 611,-310.5 611,-291.5 527,-291.5"/>
<text text-anchor="middle" x="569" y="-298.5" font-family="Helvetica,sans-Serif" font-size="10.00">PrintDeviceInfo</text>
</a>
</g>
</g>
<!-- Node17&#45;&gt;Node33 -->
<g id="edge38" class="edge"><title>Node17&#45;&gt;Node33</title>
<path fill="none" stroke="midnightblue" d="M423.043,-257.067C444.363,-264.722 472.089,-274.356 497,-282 507.735,-285.294 519.479,-288.569 530.27,-291.448"/>
<polygon fill="midnightblue" stroke="midnightblue" points="424.026,-253.701 413.432,-253.595 421.648,-260.285 424.026,-253.701"/>
</g>
<!-- Node35 -->
<g id="node35" class="node"><title>Node35</title>
<g id="a_node35"><a xlink:href="../../df/d82/classMyriad7__wxgui.html#ae5812f47e7bf56357e4f97cdec419d89" target="_top" xlink:title="Myriad7_wxgui::UpdatePanel">
<polygon fill="white" stroke="black" points="497,-253.5 497,-272.5 641,-272.5 641,-253.5 497,-253.5"/>
<text text-anchor="middle" x="569" y="-260.5" font-family="Helvetica,sans-Serif" font-size="10.00">Myriad7_wxgui::UpdatePanel</text>
</a>
</g>
</g>
<!-- Node17&#45;&gt;Node35 -->
<g id="edge40" class="edge"><title>Node17&#45;&gt;Node35</title>
<path fill="none" stroke="midnightblue" d="M449.542,-250.531C464.754,-252.132 481.156,-253.859 496.763,-255.501"/>
<polygon fill="midnightblue" stroke="midnightblue" points="449.536,-247.011 439.224,-249.445 448.803,-253.972 449.536,-247.011"/>
</g>
<!-- Node19 -->
<g id="node19" class="node"><title>Node19</title>
<g id="a_node19"><a xlink:href="../../df/d93/classpnlBoardControls.html#a9b3b02be9d2210cbb83e313bde4af24e" target="_top" xlink:title="pnlBoardControls::SetupControls">
<polygon fill="white" stroke="black" points="677,-177.5 677,-196.5 837,-196.5 837,-177.5 677,-177.5"/>
<text text-anchor="middle" x="757" y="-184.5" font-family="Helvetica,sans-Serif" font-size="10.00">pnlBoardControls::SetupControls</text>
</a>
</g>
</g>
<!-- Node18&#45;&gt;Node19 -->
<g id="edge19" class="edge"><title>Node18&#45;&gt;Node19</title>
<path fill="none" stroke="midnightblue" d="M636.353,-187C649.421,-187 663.257,-187 676.701,-187"/>
<polygon fill="midnightblue" stroke="midnightblue" points="636.058,-183.5 626.058,-187 636.058,-190.5 636.058,-183.5"/>
</g>
<!-- Node19&#45;&gt;Node20 -->
<g id="edge20" class="edge"><title>Node19&#45;&gt;Node20</title>
<path fill="none" stroke="midnightblue" d="M813.592,-199.873C821.749,-202.889 829.814,-206.558 837,-211 856.789,-223.233 853.804,-235.857 873,-249 883.624,-256.274 896.508,-262.094 908.063,-266.441"/>
<polygon fill="midnightblue" stroke="midnightblue" points="814.614,-196.524 804.02,-196.625 812.365,-203.152 814.614,-196.524"/>
</g>
<!-- Node19&#45;&gt;Node24 -->
<g id="edge27" class="edge"><title>Node19&#45;&gt;Node24</title>
<path fill="none" stroke="midnightblue" d="M828.023,-198.008C842.852,-200.155 858.426,-202.272 873,-204 993.877,-218.328 1135.79,-229.771 1214.7,-235.658"/>
<polygon fill="midnightblue" stroke="midnightblue" points="828.299,-194.511 817.897,-196.521 827.282,-201.437 828.299,-194.511"/>
</g>
<!-- Node26 -->
<g id="node26" class="node"><title>Node26</title>
<g id="a_node26"><a xlink:href="../../df/d93/classpnlBoardControls.html#a51e925b6e13e8d7540a102ac4fce8ca0" target="_top" xlink:title="pnlBoardControls::OnUser\lChangedBoardType">
<polygon fill="white" stroke="black" points="874.5,-132 874.5,-162 1005.5,-162 1005.5,-132 874.5,-132"/>
<text text-anchor="start" x="882.5" y="-150" font-family="Helvetica,sans-Serif" font-size="10.00">pnlBoardControls::OnUser</text>
<text text-anchor="middle" x="940" y="-139" font-family="Helvetica,sans-Serif" font-size="10.00">ChangedBoardType</text>
</a>
</g>
</g>
<!-- Node19&#45;&gt;Node26 -->
<g id="edge28" class="edge"><title>Node19&#45;&gt;Node26</title>
<path fill="none" stroke="midnightblue" d="M811.127,-175.259C830.946,-170.879 853.665,-165.859 874.402,-161.276"/>
<polygon fill="midnightblue" stroke="midnightblue" points="810.363,-171.844 801.354,-177.419 811.874,-178.679 810.363,-171.844"/>
</g>
<!-- Node27 -->
<g id="node27" class="node"><title>Node27</title>
<g id="a_node27"><a xlink:href="../../df/d93/classpnlBoardControls.html#a8f1a27f7a4201cd55658f48bdf41ae20" target="_top" xlink:title="pnlBoardControls::pnlBoard\lControls">
<polygon fill="white" stroke="black" points="1043,-176 1043,-206 1179,-206 1179,-176 1043,-176"/>
<text text-anchor="start" x="1051" y="-194" font-family="Helvetica,sans-Serif" font-size="10.00">pnlBoardControls::pnlBoard</text>
<text text-anchor="middle" x="1111" y="-183" font-family="Helvetica,sans-Serif" font-size="10.00">Controls</text>
</a>
</g>
</g>
<!-- Node19&#45;&gt;Node27 -->
<g id="edge31" class="edge"><title>Node19&#45;&gt;Node27</title>
<path fill="none" stroke="midnightblue" d="M847.797,-188.02C908.606,-188.711 987.645,-189.61 1042.98,-190.238"/>
<polygon fill="midnightblue" stroke="midnightblue" points="847.474,-184.517 837.435,-187.903 847.394,-191.516 847.474,-184.517"/>
</g>
<!-- Node21 -->
<g id="node21" class="node"><title>Node21</title>
<g id="a_node21"><a xlink:href="../../d1/df3/classLMS7SuiteAppFrame.html#a09672f8ba8960dff6646f0faaec54e1d" target="_top" xlink:title="LMS7SuiteAppFrame::\lOnShowBoardControls">
<polygon fill="white" stroke="black" points="1053,-264 1053,-294 1169,-294 1169,-264 1053,-264"/>
<text text-anchor="start" x="1061" y="-282" font-family="Helvetica,sans-Serif" font-size="10.00">LMS7SuiteAppFrame::</text>
<text text-anchor="middle" x="1111" y="-271" font-family="Helvetica,sans-Serif" font-size="10.00">OnShowBoardControls</text>
</a>
</g>
</g>
<!-- Node20&#45;&gt;Node21 -->
<g id="edge21" class="edge"><title>Node20&#45;&gt;Node21</title>
<path fill="none" stroke="midnightblue" d="M1017.65,-277.361C1029.52,-277.571 1041.58,-277.786 1052.92,-277.987"/>
<polygon fill="midnightblue" stroke="midnightblue" points="1017.37,-273.855 1007.31,-277.177 1017.24,-280.854 1017.37,-273.855"/>
</g>
<!-- Node22 -->
<g id="node22" class="node"><title>Node22</title>
<g id="a_node22"><a xlink:href="../../d1/df3/classLMS7SuiteAppFrame.html#aeaeb613a8c9139f0e60b02f1f612ed5d" target="_top" xlink:title="LMS7SuiteAppFrame::\lUpdateConnections">
<polygon fill="white" stroke="black" points="1053,-313 1053,-343 1169,-343 1169,-313 1053,-313"/>
<text text-anchor="start" x="1061" y="-331" font-family="Helvetica,sans-Serif" font-size="10.00">LMS7SuiteAppFrame::</text>
<text text-anchor="middle" x="1111" y="-320" font-family="Helvetica,sans-Serif" font-size="10.00">UpdateConnections</text>
</a>
</g>
</g>
<!-- Node20&#45;&gt;Node22 -->
<g id="edge22" class="edge"><title>Node20&#45;&gt;Node22</title>
<path fill="none" stroke="midnightblue" d="M981.783,-288.549C1005.61,-295.879 1035.83,-305.179 1060.95,-312.908"/>
<polygon fill="midnightblue" stroke="midnightblue" points="982.584,-285.133 971.997,-285.538 980.526,-291.824 982.584,-285.133"/>
</g>
<!-- Node23 -->
<g id="node23" class="node"><title>Node23</title>
<g id="a_node23"><a xlink:href="../../d1/df3/classLMS7SuiteAppFrame.html#ad380f4e547c66fcfffdec0da53fe5b3e" target="_top" xlink:title="Constructor. ">
<polygon fill="white" stroke="black" points="1386,-285 1386,-315 1502,-315 1502,-285 1386,-285"/>
<text text-anchor="start" x="1394" y="-303" font-family="Helvetica,sans-Serif" font-size="10.00">LMS7SuiteAppFrame::</text>
<text text-anchor="middle" x="1444" y="-292" font-family="Helvetica,sans-Serif" font-size="10.00">LMS7SuiteAppFrame</text>
</a>
</g>
</g>
<!-- Node22&#45;&gt;Node23 -->
<g id="edge23" class="edge"><title>Node22&#45;&gt;Node23</title>
<path fill="none" stroke="midnightblue" d="M1179.53,-322.287C1240.28,-317.148 1328.55,-309.681 1385.87,-304.833"/>
<polygon fill="midnightblue" stroke="midnightblue" points="1178.95,-318.824 1169.28,-323.155 1179.54,-325.799 1178.95,-318.824"/>
</g>
<!-- Node22&#45;&gt;Node24 -->
<g id="edge24" class="edge"><title>Node22&#45;&gt;Node24</title>
<path fill="none" stroke="midnightblue" d="M1165.85,-309.117C1170.35,-307.174 1174.79,-305.127 1179,-303 1206.68,-289.017 1236.22,-268.871 1255.22,-255.152"/>
<polygon fill="midnightblue" stroke="midnightblue" points="1164.47,-305.899 1156.56,-312.952 1167.14,-312.369 1164.47,-305.899"/>
</g>
<!-- Node24&#45;&gt;Node23 -->
<g id="edge25" class="edge"><title>Node24&#45;&gt;Node23</title>
<path fill="none" stroke="midnightblue" d="M1328.69,-258.557C1352.09,-267.041 1379.45,-276.961 1401.54,-284.968"/>
<polygon fill="midnightblue" stroke="midnightblue" points="1329.86,-255.258 1319.26,-255.141 1327.47,-261.839 1329.86,-255.258"/>
</g>
<!-- Node25 -->
<g id="node25" class="node"><title>Node25</title>
<g id="a_node25"><a xlink:href="../../d1/df3/classLMS7SuiteAppFrame.html#a08626f72855857180d80ab271f481d08" target="_top" xlink:title="LMS7SuiteAppFrame::\lOnShowConnectionSettings">
<polygon fill="white" stroke="black" points="1374,-225 1374,-255 1514,-255 1514,-225 1374,-225"/>
<text text-anchor="start" x="1382" y="-243" font-family="Helvetica,sans-Serif" font-size="10.00">LMS7SuiteAppFrame::</text>
<text text-anchor="middle" x="1444" y="-232" font-family="Helvetica,sans-Serif" font-size="10.00">OnShowConnectionSettings</text>
</a>
</g>
</g>
<!-- Node24&#45;&gt;Node25 -->
<g id="edge26" class="edge"><title>Node24&#45;&gt;Node25</title>
<path fill="none" stroke="midnightblue" d="M1348.4,-240C1356.86,-240 1365.49,-240 1373.93,-240"/>
<polygon fill="midnightblue" stroke="midnightblue" points="1348.19,-236.5 1338.19,-240 1348.19,-243.5 1348.19,-236.5"/>
</g>
<!-- Node26&#45;&gt;Node27 -->
<g id="edge29" class="edge"><title>Node26&#45;&gt;Node27</title>
<path fill="none" stroke="midnightblue" d="M1008.58,-164.594C1023.05,-168.363 1038.22,-172.312 1052.29,-175.974"/>
<polygon fill="midnightblue" stroke="midnightblue" points="1009.25,-161.152 998.688,-162.019 1007.48,-167.926 1009.25,-161.152"/>
</g>
<!-- Node28 -->
<g id="node28" class="node"><title>Node28</title>
<g id="a_node28"><a xlink:href="../../df/d93/classpnlBoardControls.html#a1b0e1d30fd18cb7bd50f27600095f4ab" target="_top" xlink:title="pnlBoardControls::\l~pnlBoardControls">
<polygon fill="white" stroke="black" points="1062,-127 1062,-157 1160,-157 1160,-127 1062,-127"/>
<text text-anchor="start" x="1070" y="-145" font-family="Helvetica,sans-Serif" font-size="10.00">pnlBoardControls::</text>
<text text-anchor="middle" x="1111" y="-134" font-family="Helvetica,sans-Serif" font-size="10.00">~pnlBoardControls</text>
</a>
</g>
</g>
<!-- Node26&#45;&gt;Node28 -->
<g id="edge30" class="edge"><title>Node26&#45;&gt;Node28</title>
<path fill="none" stroke="midnightblue" d="M1016,-144.781C1031.57,-144.321 1047.57,-143.847 1061.85,-143.424"/>
<polygon fill="midnightblue" stroke="midnightblue" points="1015.75,-141.287 1005.86,-145.081 1015.96,-148.284 1015.75,-141.287"/>
</g>
<!-- Node30 -->
<g id="node30" class="node"><title>Node30</title>
<g id="a_node30"><a xlink:href="../../db/d33/classLMS__Programing__wxgui.html#a9a42815a49ad27193b6d1ac2c4b99f44" target="_top" xlink:title="LMS_Programing_wxgui\l::LMS_Programing_wxgui">
<polygon fill="white" stroke="black" points="693,-39 693,-69 821,-69 821,-39 693,-39"/>
<text text-anchor="start" x="701" y="-57" font-family="Helvetica,sans-Serif" font-size="10.00">LMS_Programing_wxgui</text>
<text text-anchor="middle" x="757" y="-46" font-family="Helvetica,sans-Serif" font-size="10.00">::LMS_Programing_wxgui</text>
</a>
</g>
</g>
<!-- Node29&#45;&gt;Node30 -->
<g id="edge34" class="edge"><title>Node29&#45;&gt;Node30</title>
<path fill="none" stroke="midnightblue" d="M640.175,-54C657.485,-54 675.921,-54 692.874,-54"/>
<polygon fill="midnightblue" stroke="midnightblue" points="640.132,-50.5001 630.132,-54 640.132,-57.5001 640.132,-50.5001"/>
</g>
<!-- Node34 -->
<g id="node34" class="node"><title>Node34</title>
<g id="a_node34"><a xlink:href="../../db/d92/LimeSuite_8cc.html#a8264622f1c2c5bfc25727870d85ee938" target="_top" xlink:title="DEFUN_DLD">
<polygon fill="white" stroke="black" points="718.5,-291.5 718.5,-310.5 795.5,-310.5 795.5,-291.5 718.5,-291.5"/>
<text text-anchor="middle" x="757" y="-298.5" font-family="Helvetica,sans-Serif" font-size="10.00">DEFUN_DLD</text>
</a>
</g>
</g>
<!-- Node33&#45;&gt;Node34 -->
<g id="edge39" class="edge"><title>Node33&#45;&gt;Node34</title>
<path fill="none" stroke="midnightblue" d="M621.374,-301C652.08,-301 690.414,-301 718.315,-301"/>
<polygon fill="midnightblue" stroke="midnightblue" points="621.279,-297.5 611.279,-301 621.279,-304.5 621.279,-297.5"/>
</g>
<!-- Node38&#45;&gt;Node3 -->
<g id="edge44" class="edge"><title>Node38&#45;&gt;Node3</title>
<path fill="none" stroke="midnightblue" d="M257.34,-296.507C263.693,-298.476 270.045,-300.647 276,-303 292.826,-309.647 295.128,-315.47 312,-322 321.464,-325.663 331.885,-328.842 341.83,-331.496"/>
<polygon fill="midnightblue" stroke="midnightblue" points="257.996,-293.052 247.414,-293.584 256.018,-299.767 257.996,-293.052"/>
</g>
<!-- Node38&#45;&gt;Node13 -->
<g id="edge45" class="edge"><title>Node38&#45;&gt;Node13</title>
<path fill="none" stroke="midnightblue" d="M260.36,-289.717C276.983,-291.481 295.568,-293.454 313.223,-295.328"/>
<polygon fill="midnightblue" stroke="midnightblue" points="260.602,-286.223 250.288,-288.648 259.863,-293.184 260.602,-286.223"/>
</g>
</g>
</svg>
