<?xml version="1.0" encoding="UTF-8" standalone="no"?>
<!DOCTYPE svg PUBLIC "-//W3C//DTD SVG 1.1//EN"
 "http://www.w3.org/Graphics/SVG/1.1/DTD/svg11.dtd">
<!-- Generated by graphviz version 2.38.0 (20140413.2041)
 -->
<!-- Title: lime::IConnection::TransactSPI Pages: 1 -->
<!--zoomable 468 -->
<svg id="main" version="1.1" xmlns="http://www.w3.org/2000/svg" xmlns:xlink="http://www.w3.org/1999/xlink" xml:space="preserve" onload="init(evt)">
<style type="text/css"><![CDATA[
.edge:hover path { stroke: red; }
.edge:hover polygon { stroke: red; fill: red; }
]]></style>
<script type="text/javascript"><![CDATA[
var edges = document.getElementsByTagName('g');
if (edges && edges.length) {
  for (var i=0;i<edges.length;i++) {
    if (edges[i].id.substr(0,4)=='edge') {
      edges[i].setAttribute('class','edge');
    }
  }
}
]]></script>
        <defs>
                <circle id="rim" cx="0" cy="0" r="7"/>
                <circle id="rim2" cx="0" cy="0" r="3.5"/>
                <g id="zoomPlus">
                        <use xlink:href="#rim" fill="#404040">
                                <set attributeName="fill" to="#808080" begin="zoomplus.mouseover" end="zoomplus.mouseout"/>
                        </use>
                        <path d="M-4,0h8M0,-4v8" fill="none" stroke="white" stroke-width="1.5" pointer-events="none"/>
                </g>
                <g id="zoomMin">
                        <use xlink:href="#rim" fill="#404040">
                                <set attributeName="fill" to="#808080" begin="zoomminus.mouseover" end="zoomminus.mouseout"/>
                        </use>
                        <path d="M-4,0h8" fill="none" stroke="white" stroke-width="1.5" pointer-events="none"/>
                </g>
                <g id="dirArrow">
                        <path fill="none" stroke="white" stroke-width="1.5" d="M0,-3.0v7 M-2.5,-0.5L0,-3.0L2.5,-0.5"/>
                </g>
               <g id="resetDef">
                       <use xlink:href="#rim2" fill="#404040">
                               <set attributeName="fill" to="#808080" begin="reset.mouseover" end="reset.mouseout"/>
                       </use>
               </g>
        </defs>

<script type="text/javascript">
var viewWidth = 1005;
var viewHeight = 468;
var sectionId = 'dynsection-40';
</script>
<script xlink:href="../../svgpan.js"/>
<svg id="graph" class="graph">
<g id="viewport">
<title>lime::IConnection::TransactSPI</title>
<polygon fill="white" stroke="none" points="-4,4 -4,-463.5 1001,-463.5 1001,4 -4,4"/>
<!-- Node1 -->
<g id="node1" class="node"><title>Node1</title>
<polygon fill="#bfbfbf" stroke="black" points="0,-197 0,-227 99,-227 99,-197 0,-197"/>
<text text-anchor="start" x="8" y="-215" font-family="Helvetica,sans-Serif" font-size="10.00">lime::IConnection::</text>
<text text-anchor="middle" x="49.5" y="-204" font-family="Helvetica,sans-Serif" font-size="10.00">TransactSPI</text>
</g>
<!-- Node2 -->
<g id="node2" class="node"><title>Node2</title>
<g id="a_node2"><a xlink:href="../../d3/d22/classlime_1_1LMS7__Device.html#a6a129789df1b09a743b874c68b0c198a" target="_top" xlink:title="lime::LMS7_Device::\lSetClockFreq">
<polygon fill="white" stroke="black" points="135,-311 135,-341 243,-341 243,-311 135,-311"/>
<text text-anchor="start" x="143" y="-329" font-family="Helvetica,sans-Serif" font-size="10.00">lime::LMS7_Device::</text>
<text text-anchor="middle" x="189" y="-318" font-family="Helvetica,sans-Serif" font-size="10.00">SetClockFreq</text>
</a>
</g>
</g>
<!-- Node1&#45;&gt;Node2 -->
<g id="edge1" class="edge"><title>Node1&#45;&gt;Node2</title>
<path fill="none" stroke="midnightblue" d="M76.6985,-233.721C103.915,-256.286 145.794,-291.008 169.666,-310.799"/>
<polygon fill="midnightblue" stroke="midnightblue" points="78.6911,-230.827 68.7589,-227.138 74.2233,-236.215 78.6911,-230.827"/>
</g>
<!-- Node10 -->
<g id="node10" class="node"><title>Node10</title>
<g id="a_node10"><a xlink:href="../../dd/d7e/spi_8cpp.html#a7dee89a3e8018d75340f8ffd14015284" target="_top" xlink:title="SPI_read">
<polygon fill="white" stroke="black" points="160.5,-240.5 160.5,-259.5 217.5,-259.5 217.5,-240.5 160.5,-240.5"/>
<text text-anchor="middle" x="189" y="-247.5" font-family="Helvetica,sans-Serif" font-size="10.00">SPI_read</text>
</a>
</g>
</g>
<!-- Node1&#45;&gt;Node10 -->
<g id="edge9" class="edge"><title>Node1&#45;&gt;Node10</title>
<path fill="none" stroke="midnightblue" d="M109.147,-228.208C126.985,-233.138 145.75,-238.324 160.498,-242.399"/>
<polygon fill="midnightblue" stroke="midnightblue" points="109.936,-224.795 99.3645,-225.504 108.071,-231.542 109.936,-224.795"/>
</g>
<!-- Node14 -->
<g id="node14" class="node"><title>Node14</title>
<g id="a_node14"><a xlink:href="../../dd/d7e/spi_8cpp.html#a9c4cc9e15dab47ea2a8cc137d10bc000" target="_top" xlink:title="SPI_read_batch">
<polygon fill="white" stroke="black" points="146,-202.5 146,-221.5 232,-221.5 232,-202.5 146,-202.5"/>
<text text-anchor="middle" x="189" y="-209.5" font-family="Helvetica,sans-Serif" font-size="10.00">SPI_read_batch</text>
</a>
</g>
</g>
<!-- Node1&#45;&gt;Node14 -->
<g id="edge13" class="edge"><title>Node1&#45;&gt;Node14</title>
<path fill="none" stroke="midnightblue" d="M109.46,-212C121.638,-212 134.233,-212 145.676,-212"/>
<polygon fill="midnightblue" stroke="midnightblue" points="109.365,-208.5 99.3645,-212 109.364,-215.5 109.365,-208.5"/>
</g>
<!-- Node15 -->
<g id="node15" class="node"><title>Node15</title>
<g id="a_node15"><a xlink:href="../../dd/d7e/spi_8cpp.html#abf635d9f0da08fb2a479532b69852e60" target="_top" xlink:title="SPI_write">
<polygon fill="white" stroke="black" points="159.5,-164.5 159.5,-183.5 218.5,-183.5 218.5,-164.5 159.5,-164.5"/>
<text text-anchor="middle" x="189" y="-171.5" font-family="Helvetica,sans-Serif" font-size="10.00">SPI_write</text>
</a>
</g>
</g>
<!-- Node1&#45;&gt;Node15 -->
<g id="edge14" class="edge"><title>Node1&#45;&gt;Node15</title>
<path fill="none" stroke="midnightblue" d="M109.408,-195.72C126.691,-190.944 144.82,-185.933 159.306,-181.93"/>
<polygon fill="midnightblue" stroke="midnightblue" points="108.071,-192.458 99.3645,-198.496 109.936,-199.205 108.071,-192.458"/>
</g>
<!-- Node17 -->
<g id="node17" class="node"><title>Node17</title>
<g id="a_node17"><a xlink:href="../../dd/d7e/spi_8cpp.html#a436d1cddc5e8437f75c92f6b65db2798" target="_top" xlink:title="SPI_write_batch">
<polygon fill="white" stroke="black" points="144.5,-76.5 144.5,-95.5 233.5,-95.5 233.5,-76.5 144.5,-76.5"/>
<text text-anchor="middle" x="189" y="-83.5" font-family="Helvetica,sans-Serif" font-size="10.00">SPI_write_batch</text>
</a>
</g>
</g>
<!-- Node1&#45;&gt;Node17 -->
<g id="edge18" class="edge"><title>Node1&#45;&gt;Node17</title>
<path fill="none" stroke="midnightblue" d="M74.7112,-189.814C105.11,-161.957 155.905,-115.411 177.631,-95.5019"/>
<polygon fill="midnightblue" stroke="midnightblue" points="72.0938,-187.465 67.0857,-196.801 76.823,-192.626 72.0938,-187.465"/>
</g>
<!-- Node3 -->
<g id="node3" class="node"><title>Node3</title>
<g id="a_node3"><a xlink:href="../../d9/d90/classSoapyLMS7.html#a31b4e80863c7c9755e77c77a61df7e49" target="_top" xlink:title="SoapyLMS7::setFrequency">
<polygon fill="white" stroke="black" points="294.5,-335.5 294.5,-354.5 429.5,-354.5 429.5,-335.5 294.5,-335.5"/>
<text text-anchor="middle" x="362" y="-342.5" font-family="Helvetica,sans-Serif" font-size="10.00">SoapyLMS7::setFrequency</text>
</a>
</g>
</g>
<!-- Node2&#45;&gt;Node3 -->
<g id="edge2" class="edge"><title>Node2&#45;&gt;Node3</title>
<path fill="none" stroke="midnightblue" d="M253.226,-333.025C266.61,-334.512 280.776,-336.086 294.284,-337.587"/>
<polygon fill="midnightblue" stroke="midnightblue" points="253.493,-329.533 243.168,-331.908 252.72,-336.491 253.493,-329.533"/>
</g>
<!-- Node4 -->
<g id="node4" class="node"><title>Node4</title>
<g id="a_node4"><a xlink:href="../../d9/d90/classSoapyLMS7.html#aad0f89a59ee147487cf243ccb3ff94d5" target="_top" xlink:title="SoapyLMS7::setMasterClockRate">
<polygon fill="white" stroke="black" points="279,-297.5 279,-316.5 445,-316.5 445,-297.5 279,-297.5"/>
<text text-anchor="middle" x="362" y="-304.5" font-family="Helvetica,sans-Serif" font-size="10.00">SoapyLMS7::setMasterClockRate</text>
</a>
</g>
</g>
<!-- Node2&#45;&gt;Node4 -->
<g id="edge3" class="edge"><title>Node2&#45;&gt;Node4</title>
<path fill="none" stroke="midnightblue" d="M253.231,-318.974C261.625,-318.042 270.328,-317.075 278.982,-316.113"/>
<polygon fill="midnightblue" stroke="midnightblue" points="252.72,-315.509 243.168,-320.092 253.493,-322.467 252.72,-315.509"/>
</g>
<!-- Node6 -->
<g id="node6" class="node"><title>Node6</title>
<g id="a_node6"><a xlink:href="../../df/de1/lms7__api_8cpp.html#af73c9ae3c39c8e5843b2ee6fb4774ec2" target="_top" xlink:title="LMS_SetClockFreq">
<polygon fill="white" stroke="black" points="311,-381.5 311,-400.5 413,-400.5 413,-381.5 311,-381.5"/>
<text text-anchor="middle" x="362" y="-388.5" font-family="Helvetica,sans-Serif" font-size="10.00">LMS_SetClockFreq</text>
</a>
</g>
</g>
<!-- Node2&#45;&gt;Node6 -->
<g id="edge5" class="edge"><title>Node2&#45;&gt;Node6</title>
<path fill="none" stroke="midnightblue" d="M232.796,-345.149C247.351,-351.426 263.784,-358.259 279,-364 295.687,-370.297 314.579,-376.573 330.02,-381.488"/>
<polygon fill="midnightblue" stroke="midnightblue" points="234.1,-341.899 223.534,-341.121 231.309,-348.319 234.1,-341.899"/>
</g>
<!-- Node5 -->
<g id="node5" class="node"><title>Node5</title>
<g id="a_node5"><a xlink:href="../../d9/d90/classSoapyLMS7.html#a1c9bb20e7fe357b53f4d44e7ca72ef25" target="_top" xlink:title="SoapyLMS7::SoapyLMS7">
<polygon fill="white" stroke="black" points="484.5,-292.5 484.5,-311.5 613.5,-311.5 613.5,-292.5 484.5,-292.5"/>
<text text-anchor="middle" x="549" y="-299.5" font-family="Helvetica,sans-Serif" font-size="10.00">SoapyLMS7::SoapyLMS7</text>
</a>
</g>
</g>
<!-- Node4&#45;&gt;Node5 -->
<g id="edge4" class="edge"><title>Node4&#45;&gt;Node5</title>
<path fill="none" stroke="midnightblue" d="M455.409,-304.502C465.204,-304.238 475,-303.973 484.358,-303.72"/>
<polygon fill="midnightblue" stroke="midnightblue" points="455.123,-301.009 445.221,-304.778 455.312,-308.006 455.123,-301.009"/>
</g>
<!-- Node7 -->
<g id="node7" class="node"><title>Node7</title>
<g id="a_node7"><a xlink:href="../../d5/d03/classlms7002__pnlSX__view.html#ae222f6d1364758204863400857ba8f8c" target="_top" xlink:title="lms7002_pnlSX_view\l::OnbtnCalculateClick">
<polygon fill="white" stroke="black" points="492.5,-429 492.5,-459 605.5,-459 605.5,-429 492.5,-429"/>
<text text-anchor="start" x="500.5" y="-447" font-family="Helvetica,sans-Serif" font-size="10.00">lms7002_pnlSX_view</text>
<text text-anchor="middle" x="549" y="-436" font-family="Helvetica,sans-Serif" font-size="10.00">::OnbtnCalculateClick</text>
</a>
</g>
</g>
<!-- Node6&#45;&gt;Node7 -->
<g id="edge6" class="edge"><title>Node6&#45;&gt;Node7</title>
<path fill="none" stroke="midnightblue" d="M406.313,-403.409C432.97,-411.045 467.312,-420.884 495.509,-428.962"/>
<polygon fill="midnightblue" stroke="midnightblue" points="407.079,-399.987 396.502,-400.598 405.151,-406.717 407.079,-399.987"/>
</g>
<!-- Node8 -->
<g id="node8" class="node"><title>Node8</title>
<g id="a_node8"><a xlink:href="../../d5/d03/classlms7002__pnlSX__view.html#a477cc4f62b3fce497c8b95a78035d3b0" target="_top" xlink:title="lms7002_pnlSX_view\l::OnbtnChangeRefClkClick">
<polygon fill="white" stroke="black" points="481,-380 481,-410 617,-410 617,-380 481,-380"/>
<text text-anchor="start" x="489" y="-398" font-family="Helvetica,sans-Serif" font-size="10.00">lms7002_pnlSX_view</text>
<text text-anchor="middle" x="549" y="-387" font-family="Helvetica,sans-Serif" font-size="10.00">::OnbtnChangeRefClkClick</text>
</a>
</g>
</g>
<!-- Node6&#45;&gt;Node8 -->
<g id="edge7" class="edge"><title>Node6&#45;&gt;Node8</title>
<path fill="none" stroke="midnightblue" d="M423.092,-392.299C441.548,-392.698 461.975,-393.14 480.87,-393.549"/>
<polygon fill="midnightblue" stroke="midnightblue" points="423.137,-388.8 413.064,-392.082 422.986,-395.798 423.137,-388.8"/>
</g>
<!-- Node9 -->
<g id="node9" class="node"><title>Node9</title>
<g id="a_node9"><a xlink:href="../../d5/d03/classlms7002__pnlSX__view.html#aafa62745a64da5bdbe5b8a8c2c711e31" target="_top" xlink:title="lms7002_pnlSX_view\l::OnbtnTuneClick">
<polygon fill="white" stroke="black" points="494,-331 494,-361 604,-361 604,-331 494,-331"/>
<text text-anchor="start" x="502" y="-349" font-family="Helvetica,sans-Serif" font-size="10.00">lms7002_pnlSX_view</text>
<text text-anchor="middle" x="549" y="-338" font-family="Helvetica,sans-Serif" font-size="10.00">::OnbtnTuneClick</text>
</a>
</g>
</g>
<!-- Node6&#45;&gt;Node9 -->
<g id="edge8" class="edge"><title>Node6&#45;&gt;Node9</title>
<path fill="none" stroke="midnightblue" d="M412.271,-379.015C437.375,-372.909 467.959,-365.469 493.736,-359.199"/>
<polygon fill="midnightblue" stroke="midnightblue" points="411.123,-375.692 402.234,-381.457 412.778,-382.494 411.123,-375.692"/>
</g>
<!-- Node11 -->
<g id="node11" class="node"><title>Node11</title>
<g id="a_node11"><a xlink:href="../../dd/d7e/spi_8cpp.html#a6ca6565d9a3c9b39a4ad5239f27665c7" target="_top" xlink:title="Get_SPI_Reg_bits">
<polygon fill="white" stroke="black" points="313,-259.5 313,-278.5 411,-278.5 411,-259.5 313,-259.5"/>
<text text-anchor="middle" x="362" y="-266.5" font-family="Helvetica,sans-Serif" font-size="10.00">Get_SPI_Reg_bits</text>
</a>
</g>
</g>
<!-- Node10&#45;&gt;Node11 -->
<g id="edge10" class="edge"><title>Node10&#45;&gt;Node11</title>
<path fill="none" stroke="midnightblue" d="M228.039,-254.227C253.028,-257.003 285.934,-260.659 312.758,-263.64"/>
<polygon fill="midnightblue" stroke="midnightblue" points="228.18,-250.721 217.855,-253.095 227.407,-257.678 228.18,-250.721"/>
</g>
<!-- Node12 -->
<g id="node12" class="node"><title>Node12</title>
<g id="a_node12"><a xlink:href="../../dd/d7e/spi_8cpp.html#aaf76507507e6a960fa0c8cb26585095d" target="_top" xlink:title="Modify_SPI_Reg_bits">
<polygon fill="white" stroke="black" points="306,-221.5 306,-240.5 418,-240.5 418,-221.5 306,-221.5"/>
<text text-anchor="middle" x="362" y="-228.5" font-family="Helvetica,sans-Serif" font-size="10.00">Modify_SPI_Reg_bits</text>
</a>
</g>
</g>
<!-- Node10&#45;&gt;Node12 -->
<g id="edge11" class="edge"><title>Node10&#45;&gt;Node12</title>
<path fill="none" stroke="midnightblue" d="M227.868,-245.792C250.773,-243.247 280.376,-239.958 305.849,-237.128"/>
<polygon fill="midnightblue" stroke="midnightblue" points="227.407,-242.322 217.855,-246.905 228.18,-249.279 227.407,-242.322"/>
</g>
<!-- Node13 -->
<g id="node13" class="node"><title>Node13</title>
<g id="a_node13"><a xlink:href="../../dd/d7e/spi_8cpp.html#a78bf31e1a4e17567af1df56c9ecf7966" target="_top" xlink:title="Modifies given registers with values applied using masks. ">
<polygon fill="white" stroke="black" points="302,-183.5 302,-202.5 422,-202.5 422,-183.5 302,-183.5"/>
<text text-anchor="middle" x="362" y="-190.5" font-family="Helvetica,sans-Serif" font-size="10.00">Modify_SPI_Reg_mask</text>
</a>
</g>
</g>
<!-- Node10&#45;&gt;Node13 -->
<g id="edge12" class="edge"><title>Node10&#45;&gt;Node13</title>
<path fill="none" stroke="midnightblue" d="M227.08,-237.464C232.469,-235.424 237.912,-233.241 243,-231 259.557,-223.707 262.047,-218.317 279,-212 288.996,-208.275 299.959,-205.13 310.525,-202.536"/>
<polygon fill="midnightblue" stroke="midnightblue" points="225.711,-234.238 217.525,-240.964 228.119,-240.811 225.711,-234.238"/>
</g>
<!-- Node15&#45;&gt;Node12 -->
<g id="edge15" class="edge"><title>Node15&#45;&gt;Node12</title>
<path fill="none" stroke="midnightblue" d="M228.178,-186.953C233.206,-188.872 238.258,-190.911 243,-193 259.557,-200.293 262.047,-205.683 279,-212 288.996,-215.725 299.959,-218.87 310.525,-221.464"/>
<polygon fill="midnightblue" stroke="midnightblue" points="229.215,-183.605 218.622,-183.426 226.792,-190.172 229.215,-183.605"/>
</g>
<!-- Node15&#45;&gt;Node13 -->
<g id="edge17" class="edge"><title>Node15&#45;&gt;Node13</title>
<path fill="none" stroke="midnightblue" d="M228.706,-178.301C250.267,-180.696 277.565,-183.729 301.757,-186.417"/>
<polygon fill="midnightblue" stroke="midnightblue" points="228.947,-174.806 218.622,-177.18 228.174,-181.763 228.947,-174.806"/>
</g>
<!-- Node16 -->
<g id="node16" class="node"><title>Node16</title>
<g id="a_node16"><a xlink:href="../../dd/d7e/spi_8cpp.html#a1f07f3b59393a3b284a11fda0be6f835" target="_top" xlink:title="Modify_SPI_Reg_bits\l_WrOnly">
<polygon fill="white" stroke="black" points="306,-134 306,-164 418,-164 418,-134 306,-134"/>
<text text-anchor="start" x="314" y="-152" font-family="Helvetica,sans-Serif" font-size="10.00">Modify_SPI_Reg_bits</text>
<text text-anchor="middle" x="362" y="-141" font-family="Helvetica,sans-Serif" font-size="10.00">_WrOnly</text>
</a>
</g>
</g>
<!-- Node15&#45;&gt;Node16 -->
<g id="edge16" class="edge"><title>Node15&#45;&gt;Node16</title>
<path fill="none" stroke="midnightblue" d="M228.622,-168.353C251.46,-165.015 280.757,-160.731 305.981,-157.044"/>
<polygon fill="midnightblue" stroke="midnightblue" points="228.01,-164.906 218.622,-169.816 229.023,-171.832 228.01,-164.906"/>
</g>
<!-- Node18 -->
<g id="node18" class="node"><title>Node18</title>
<g id="a_node18"><a xlink:href="../../d1/d10/mcu_8h.html#a83fb66b64992ec22031ebf80a21d9e17" target="_top" xlink:title="MCU_RunProcedure">
<polygon fill="white" stroke="black" points="308.5,-57.5 308.5,-76.5 415.5,-76.5 415.5,-57.5 308.5,-57.5"/>
<text text-anchor="middle" x="362" y="-64.5" font-family="Helvetica,sans-Serif" font-size="10.00">MCU_RunProcedure</text>
</a>
</g>
</g>
<!-- Node17&#45;&gt;Node18 -->
<g id="edge19" class="edge"><title>Node17&#45;&gt;Node18</title>
<path fill="none" stroke="midnightblue" d="M243.763,-80.0264C264.367,-77.737 287.837,-75.1292 308.337,-72.8514"/>
<polygon fill="midnightblue" stroke="midnightblue" points="243.145,-76.5733 233.593,-81.1563 243.918,-83.5305 243.145,-76.5733"/>
</g>
<!-- Node24 -->
<g id="node24" class="node"><title>Node24</title>
<g id="a_node24"><a xlink:href="../../d1/d10/mcu_8h.html#ae8fc27f94340dac8fb46a2cad3ce509a" target="_top" xlink:title="MCU_UploadProgram">
<polygon fill="white" stroke="black" points="810,-0.5 810,-19.5 923,-19.5 923,-0.5 810,-0.5"/>
<text text-anchor="middle" x="866.5" y="-7.5" font-family="Helvetica,sans-Serif" font-size="10.00">MCU_UploadProgram</text>
</a>
</g>
</g>
<!-- Node17&#45;&gt;Node24 -->
<g id="edge29" class="edge"><title>Node17&#45;&gt;Node24</title>
<path fill="none" stroke="midnightblue" d="M218.032,-71.8758C235.233,-63.7582 257.931,-54.0107 279,-48 467.639,5.81644 703.717,0.23381 809.597,-5.8839"/>
<polygon fill="midnightblue" stroke="midnightblue" points="216.082,-68.9307 208.594,-76.4264 219.122,-75.2361 216.082,-68.9307"/>
</g>
<!-- Node25 -->
<g id="node25" class="node"><title>Node25</title>
<g id="a_node25"><a xlink:href="../../d3/d86/lms7002m__controls_8h.html#a1ed7dc939bfc16c3178b901647de0640" target="_top" xlink:title="SaveChipState">
<polygon fill="white" stroke="black" points="507.5,-190.5 507.5,-209.5 590.5,-209.5 590.5,-190.5 507.5,-190.5"/>
<text text-anchor="middle" x="549" y="-197.5" font-family="Helvetica,sans-Serif" font-size="10.00">SaveChipState</text>
</a>
</g>
</g>
<!-- Node17&#45;&gt;Node25 -->
<g id="edge31" class="edge"><title>Node17&#45;&gt;Node25</title>
<path fill="none" stroke="midnightblue" d="M243.851,-86.5314C296.884,-88.7562 379.264,-96.8397 445,-124 483.818,-140.039 521.46,-173.82 538.504,-190.403"/>
<polygon fill="midnightblue" stroke="midnightblue" points="243.77,-83.0263 233.65,-86.1607 243.516,-90.0217 243.77,-83.0263"/>
</g>
<!-- Node19 -->
<g id="node19" class="node"><title>Node19</title>
<g id="a_node19"><a xlink:href="../../dd/d0b/mcu__program_2host__src_2main_8cpp.html#a2bb1d2fcd6182ef32aff315f85d13c53" target="_top" xlink:title="DCIQ">
<polygon fill="white" stroke="black" points="845.5,-95.5 845.5,-114.5 887.5,-114.5 887.5,-95.5 845.5,-95.5"/>
<text text-anchor="middle" x="866.5" y="-102.5" font-family="Helvetica,sans-Serif" font-size="10.00">DCIQ</text>
</a>
</g>
</g>
<!-- Node18&#45;&gt;Node19 -->
<g id="edge20" class="edge"><title>Node18&#45;&gt;Node19</title>
<path fill="none" stroke="midnightblue" d="M426.002,-77.9438C443.754,-80.8098 463.104,-83.7294 481,-86 557.164,-95.6634 576.335,-97.8994 653,-102 723.555,-105.774 807.463,-105.58 845.265,-105.243"/>
<polygon fill="midnightblue" stroke="midnightblue" points="426.191,-74.4283 415.757,-76.2679 425.061,-81.3365 426.191,-74.4283"/>
</g>
<!-- Node21 -->
<g id="node21" class="node"><title>Node21</title>
<g id="a_node21"><a xlink:href="../../dd/d0b/mcu__program_2host__src_2main_8cpp.html#ad4dcf2055b7114f8eacfa8cb11e5bbd5" target="_top" xlink:title="Filters">
<polygon fill="white" stroke="black" points="844.5,-57.5 844.5,-76.5 888.5,-76.5 888.5,-57.5 844.5,-57.5"/>
<text text-anchor="middle" x="866.5" y="-64.5" font-family="Helvetica,sans-Serif" font-size="10.00">Filters</text>
</a>
</g>
</g>
<!-- Node18&#45;&gt;Node21 -->
<g id="edge22" class="edge"><title>Node18&#45;&gt;Node21</title>
<path fill="none" stroke="midnightblue" d="M406.444,-54.8511C481.902,-35.5513 641.777,-2.63548 774,-29 801.159,-34.4153 830.347,-48.0491 848.271,-57.4221"/>
<polygon fill="midnightblue" stroke="midnightblue" points="405.163,-51.568 396.369,-57.4764 406.928,-58.3418 405.163,-51.568"/>
</g>
<!-- Node22 -->
<g id="node22" class="node"><title>Node22</title>
<g id="a_node22"><a xlink:href="../../d1/d10/mcu_8h.html#a6217894b4b31634cfdd60789e8978468" target="_top" xlink:title="MCU_SetParameter">
<polygon fill="white" stroke="black" points="496.5,-57.5 496.5,-76.5 601.5,-76.5 601.5,-57.5 496.5,-57.5"/>
<text text-anchor="middle" x="549" y="-64.5" font-family="Helvetica,sans-Serif" font-size="10.00">MCU_SetParameter</text>
</a>
</g>
</g>
<!-- Node18&#45;&gt;Node22 -->
<g id="edge24" class="edge"><title>Node18&#45;&gt;Node22</title>
<path fill="none" stroke="midnightblue" d="M425.535,-67C448.555,-67 474.351,-67 496.31,-67"/>
<polygon fill="midnightblue" stroke="midnightblue" points="425.519,-63.5001 415.519,-67 425.519,-70.5001 425.519,-63.5001"/>
</g>
<!-- Node20 -->
<g id="node20" class="node"><title>Node20</title>
<g id="a_node20"><a xlink:href="../../dd/d0b/mcu__program_2host__src_2main_8cpp.html#a3c04138a5bfe5d72780bb7e82a18e627" target="_top" xlink:title="main">
<polygon fill="white" stroke="black" points="959,-57.5 959,-76.5 997,-76.5 997,-57.5 959,-57.5"/>
<text text-anchor="middle" x="978" y="-64.5" font-family="Helvetica,sans-Serif" font-size="10.00">main</text>
</a>
</g>
</g>
<!-- Node19&#45;&gt;Node20 -->
<g id="edge21" class="edge"><title>Node19&#45;&gt;Node20</title>
<path fill="none" stroke="midnightblue" d="M897.26,-94.8639C905.594,-92.0113 914.655,-88.8965 923,-86 934.83,-81.8939 948.096,-77.227 958.519,-73.5461"/>
<polygon fill="midnightblue" stroke="midnightblue" points="895.883,-91.6358 887.552,-98.1813 898.146,-98.2597 895.883,-91.6358"/>
</g>
<!-- Node21&#45;&gt;Node20 -->
<g id="edge23" class="edge"><title>Node21&#45;&gt;Node20</title>
<path fill="none" stroke="midnightblue" d="M898.83,-67C918.267,-67 942.557,-67 958.857,-67"/>
<polygon fill="midnightblue" stroke="midnightblue" points="898.613,-63.5001 888.613,-67 898.613,-70.5001 898.613,-63.5001"/>
</g>
<!-- Node22&#45;&gt;Node19 -->
<g id="edge25" class="edge"><title>Node22&#45;&gt;Node19</title>
<path fill="none" stroke="midnightblue" d="M612.064,-74.4752C684.204,-83.164 799.252,-97.0208 845.392,-102.578"/>
<polygon fill="midnightblue" stroke="midnightblue" points="612.092,-70.9534 601.745,-73.2324 611.255,-77.9031 612.092,-70.9534"/>
</g>
<!-- Node23 -->
<g id="node23" class="node"><title>Node23</title>
<g id="a_node23"><a xlink:href="../../dd/d0b/mcu__program_2host__src_2main_8cpp.html#afec3045ef2caa0e35ae650a25a908aac" target="_top" xlink:title="UploadMCUParameters">
<polygon fill="white" stroke="black" points="653,-38.5 653,-57.5 774,-57.5 774,-38.5 653,-38.5"/>
<text text-anchor="middle" x="713.5" y="-45.5" font-family="Helvetica,sans-Serif" font-size="10.00">UploadMCUParameters</text>
</a>
</g>
</g>
<!-- Node22&#45;&gt;Node23 -->
<g id="edge26" class="edge"><title>Node22&#45;&gt;Node23</title>
<path fill="none" stroke="midnightblue" d="M611.966,-59.7547C625.403,-58.1836 639.587,-56.5252 652.929,-54.9652"/>
<polygon fill="midnightblue" stroke="midnightblue" points="611.389,-56.2983 601.863,-60.936 612.202,-63.251 611.389,-56.2983"/>
</g>
<!-- Node23&#45;&gt;Node19 -->
<g id="edge27" class="edge"><title>Node23&#45;&gt;Node19</title>
<path fill="none" stroke="midnightblue" d="M747.498,-61.3287C770.133,-70.4333 798.138,-81.6127 810,-86 821.653,-90.3103 834.804,-94.8274 845.379,-98.3754"/>
<polygon fill="midnightblue" stroke="midnightblue" points="748.772,-58.0689 738.189,-57.5796 746.157,-64.5621 748.772,-58.0689"/>
</g>
<!-- Node23&#45;&gt;Node21 -->
<g id="edge28" class="edge"><title>Node23&#45;&gt;Node21</title>
<path fill="none" stroke="midnightblue" d="M784.132,-56.7616C805.952,-59.5072 828.43,-62.3355 844.216,-64.3218"/>
<polygon fill="midnightblue" stroke="midnightblue" points="784.538,-53.2852 774.179,-55.5093 783.664,-60.2304 784.538,-53.2852"/>
</g>
<!-- Node24&#45;&gt;Node20 -->
<g id="edge30" class="edge"><title>Node24&#45;&gt;Node20</title>
<path fill="none" stroke="midnightblue" d="M894.993,-24.3116C914.917,-34.6827 941.305,-48.419 958.699,-57.4735"/>
<polygon fill="midnightblue" stroke="midnightblue" points="896.561,-21.1821 886.075,-19.6693 893.329,-27.3912 896.561,-21.1821"/>
</g>
<!-- Node26 -->
<g id="node26" class="node"><title>Node26</title>
<g id="a_node26"><a xlink:href="../../d1/dc7/lms7002m__calibrations_8h.html#a69b1e143409bc9a1c0b53f360bf608cf" target="_top" xlink:title="CalibrateRx">
<polygon fill="white" stroke="black" points="679.5,-266.5 679.5,-285.5 747.5,-285.5 747.5,-266.5 679.5,-266.5"/>
<text text-anchor="middle" x="713.5" y="-273.5" font-family="Helvetica,sans-Serif" font-size="10.00">CalibrateRx</text>
</a>
</g>
</g>
<!-- Node25&#45;&gt;Node26 -->
<g id="edge32" class="edge"><title>Node25&#45;&gt;Node26</title>
<path fill="none" stroke="midnightblue" d="M573.866,-214.973C594.318,-227.369 624.847,-244.855 653,-257 661.364,-260.608 670.645,-263.894 679.341,-266.681"/>
<polygon fill="midnightblue" stroke="midnightblue" points="575.577,-211.917 565.223,-209.673 571.918,-217.885 575.577,-211.917"/>
</g>
<!-- Node29 -->
<g id="node29" class="node"><title>Node29</title>
<g id="a_node29"><a xlink:href="../../d1/dc7/lms7002m__calibrations_8h.html#a208452a11189052c6dcd2fe639e4fcae" target="_top" xlink:title="CalibrateTx">
<polygon fill="white" stroke="black" points="680,-228.5 680,-247.5 747,-247.5 747,-228.5 680,-228.5"/>
<text text-anchor="middle" x="713.5" y="-235.5" font-family="Helvetica,sans-Serif" font-size="10.00">CalibrateTx</text>
</a>
</g>
</g>
<!-- Node25&#45;&gt;Node29 -->
<g id="edge37" class="edge"><title>Node25&#45;&gt;Node29</title>
<path fill="none" stroke="midnightblue" d="M600.586,-211.829C626.414,-217.869 657.087,-225.042 679.784,-230.35"/>
<polygon fill="midnightblue" stroke="midnightblue" points="601.121,-208.36 590.586,-209.491 599.527,-215.176 601.121,-208.36"/>
</g>
<!-- Node30 -->
<g id="node30" class="node"><title>Node30</title>
<g id="a_node30"><a xlink:href="../../d8/d1f/lms7002m__filters_8h.html#a9424d257383be4943c2846bb47253bf3" target="_top" xlink:title="TuneRxFilter">
<polygon fill="white" stroke="black" points="677,-190.5 677,-209.5 750,-209.5 750,-190.5 677,-190.5"/>
<text text-anchor="middle" x="713.5" y="-197.5" font-family="Helvetica,sans-Serif" font-size="10.00">TuneRxFilter</text>
</a>
</g>
</g>
<!-- Node25&#45;&gt;Node30 -->
<g id="edge40" class="edge"><title>Node25&#45;&gt;Node30</title>
<path fill="none" stroke="midnightblue" d="M600.86,-200C625.531,-200 654.57,-200 676.847,-200"/>
<polygon fill="midnightblue" stroke="midnightblue" points="600.586,-196.5 590.586,-200 600.586,-203.5 600.586,-196.5"/>
</g>
<!-- Node31 -->
<g id="node31" class="node"><title>Node31</title>
<g id="a_node31"><a xlink:href="../../d8/d1f/lms7002m__filters_8h.html#afa61c92a783434057226329fb950593e" target="_top" xlink:title="TuneTxFilter">
<polygon fill="white" stroke="black" points="678,-152.5 678,-171.5 749,-171.5 749,-152.5 678,-152.5"/>
<text text-anchor="middle" x="713.5" y="-159.5" font-family="Helvetica,sans-Serif" font-size="10.00">TuneTxFilter</text>
</a>
</g>
</g>
<!-- Node25&#45;&gt;Node31 -->
<g id="edge43" class="edge"><title>Node25&#45;&gt;Node31</title>
<path fill="none" stroke="midnightblue" d="M600.34,-188.228C625.521,-182.34 655.358,-175.363 677.925,-170.085"/>
<polygon fill="midnightblue" stroke="midnightblue" points="599.527,-184.824 590.586,-190.509 601.121,-191.64 599.527,-184.824"/>
</g>
<!-- Node26&#45;&gt;Node19 -->
<g id="edge33" class="edge"><title>Node26&#45;&gt;Node19</title>
<path fill="none" stroke="midnightblue" d="M757.242,-266.536C763.234,-264.053 769.032,-260.928 774,-257 824.256,-217.265 853.25,-141.756 862.356,-114.837"/>
<polygon fill="midnightblue" stroke="midnightblue" points="755.994,-263.266 747.761,-269.934 758.355,-269.855 755.994,-263.266"/>
</g>
<!-- Node27 -->
<g id="node27" class="node"><title>Node27</title>
<g id="a_node27"><a xlink:href="../../d0/d29/main_8c.html#acdef7a1fd863a6d3770c1268cb06add3" target="_top" xlink:title="main">
<polygon fill="white" stroke="black" points="959,-228.5 959,-247.5 997,-247.5 997,-228.5 959,-228.5"/>
<text text-anchor="middle" x="978" y="-235.5" font-family="Helvetica,sans-Serif" font-size="10.00">main</text>
</a>
</g>
</g>
<!-- Node26&#45;&gt;Node27 -->
<g id="edge34" class="edge"><title>Node26&#45;&gt;Node27</title>
<path fill="none" stroke="midnightblue" d="M748.762,-288.838C791.422,-302.687 865.658,-319.664 923,-295 945.54,-285.305 963.08,-261.064 971.508,-247.525"/>
<polygon fill="midnightblue" stroke="midnightblue" points="749.73,-285.471 739.136,-285.591 747.493,-292.104 749.73,-285.471"/>
</g>
<!-- Node28 -->
<g id="node28" class="node"><title>Node28</title>
<g id="a_node28"><a xlink:href="../../d1/dc7/lms7002m__calibrations_8h.html#adce4a8efb4d0eb17b578b99489f4ef77" target="_top" xlink:title="RunAGC">
<polygon fill="white" stroke="black" points="838.5,-266.5 838.5,-285.5 894.5,-285.5 894.5,-266.5 838.5,-266.5"/>
<text text-anchor="middle" x="866.5" y="-273.5" font-family="Helvetica,sans-Serif" font-size="10.00">RunAGC</text>
</a>
</g>
</g>
<!-- Node26&#45;&gt;Node28 -->
<g id="edge35" class="edge"><title>Node26&#45;&gt;Node28</title>
<path fill="none" stroke="midnightblue" d="M757.978,-276C783.951,-276 816.131,-276 838.484,-276"/>
<polygon fill="midnightblue" stroke="midnightblue" points="757.638,-272.5 747.638,-276 757.638,-279.5 757.638,-272.5"/>
</g>
<!-- Node28&#45;&gt;Node27 -->
<g id="edge36" class="edge"><title>Node28&#45;&gt;Node27</title>
<path fill="none" stroke="midnightblue" d="M904.124,-263.29C922.505,-256.911 943.959,-249.466 958.807,-244.314"/>
<polygon fill="midnightblue" stroke="midnightblue" points="902.867,-260.022 894.567,-266.607 905.162,-266.635 902.867,-260.022"/>
</g>
<!-- Node29&#45;&gt;Node19 -->
<g id="edge38" class="edge"><title>Node29&#45;&gt;Node19</title>
<path fill="none" stroke="midnightblue" d="M756.791,-227.924C762.843,-225.524 768.779,-222.585 774,-219 816.05,-190.123 848.475,-136.314 860.467,-114.526"/>
<polygon fill="midnightblue" stroke="midnightblue" points="755.545,-224.652 747.269,-231.268 757.864,-231.256 755.545,-224.652"/>
</g>
<!-- Node29&#45;&gt;Node27 -->
<g id="edge39" class="edge"><title>Node29&#45;&gt;Node27</title>
<path fill="none" stroke="midnightblue" d="M757.575,-238C815.882,-238 917.38,-238 958.706,-238"/>
<polygon fill="midnightblue" stroke="midnightblue" points="757.215,-234.5 747.215,-238 757.215,-241.5 757.215,-234.5"/>
</g>
<!-- Node30&#45;&gt;Node21 -->
<g id="edge41" class="edge"><title>Node30&#45;&gt;Node21</title>
<path fill="none" stroke="midnightblue" d="M759.688,-190.495C764.93,-188.027 769.869,-184.917 774,-181 806.764,-149.932 777.56,-117.406 810,-86 819.22,-77.0743 832.808,-72.3321 844.232,-69.8175"/>
<polygon fill="midnightblue" stroke="midnightblue" points="758.066,-187.372 750.034,-194.282 760.622,-193.889 758.066,-187.372"/>
</g>
<!-- Node30&#45;&gt;Node27 -->
<g id="edge42" class="edge"><title>Node30&#45;&gt;Node27</title>
<path fill="none" stroke="midnightblue" d="M760.302,-206.63C819.071,-215.138 918.267,-229.498 958.86,-235.374"/>
<polygon fill="midnightblue" stroke="midnightblue" points="760.573,-203.133 750.175,-205.164 759.57,-210.061 760.573,-203.133"/>
</g>
<!-- Node31&#45;&gt;Node21 -->
<g id="edge44" class="edge"><title>Node31&#45;&gt;Node21</title>
<path fill="none" stroke="midnightblue" d="M731.731,-145.233C749.909,-128.316 780.023,-102.416 810,-86 820.809,-80.0811 833.799,-75.5127 844.493,-72.3405"/>
<polygon fill="midnightblue" stroke="midnightblue" points="729.116,-142.889 724.262,-152.307 733.93,-147.971 729.116,-142.889"/>
</g>
<!-- Node31&#45;&gt;Node27 -->
<g id="edge45" class="edge"><title>Node31&#45;&gt;Node27</title>
<path fill="none" stroke="midnightblue" d="M759.257,-169.396C802.08,-177.196 868.087,-191.127 923,-211 936.01,-215.708 949.96,-222.74 960.422,-228.447"/>
<polygon fill="midnightblue" stroke="midnightblue" points="759.616,-165.904 749.157,-167.591 758.385,-172.795 759.616,-165.904"/>
</g>
</g>
</svg>
        <g id="navigator" transform="translate(0 0)" fill="#404254">
                <rect fill="#f2f5e9" fill-opacity="0.5" stroke="#606060" stroke-width=".5" x="0" y="0" width="60" height="60"/>
                <use id="zoomplus" xlink:href="#zoomPlus" x="17" y="9" onmousedown="handleZoom(evt,'in')"/>
                <use id="zoomminus" xlink:href="#zoomMin" x="42" y="9" onmousedown="handleZoom(evt,'out')"/>
                <use id="reset" xlink:href="#resetDef" x="30" y="36" onmousedown="handleReset()"/>
                <g id="arrowUp" xlink:href="#dirArrow" transform="translate(30 24)" onmousedown="handlePan(0,-1)">
                  <use xlink:href="#rim" fill="#404040">
                        <set attributeName="fill" to="#808080" begin="arrowUp.mouseover" end="arrowUp.mouseout"/>
                  </use>
                  <path fill="none" stroke="white" stroke-width="1.5" d="M0,-3.0v7 M-2.5,-0.5L0,-3.0L2.5,-0.5"/>
                </g>
                <g id="arrowRight" xlink:href="#dirArrow" transform="rotate(90) translate(36 -43)" onmousedown="handlePan(1,0)">
                  <use xlink:href="#rim" fill="#404040">
                        <set attributeName="fill" to="#808080" begin="arrowRight.mouseover" end="arrowRight.mouseout"/>
                  </use>
                  <path fill="none" stroke="white" stroke-width="1.5" d="M0,-3.0v7 M-2.5,-0.5L0,-3.0L2.5,-0.5"/>
                </g>
                <g id="arrowDown" xlink:href="#dirArrow" transform="rotate(180) translate(-30 -48)" onmousedown="handlePan(0,1)">
                  <use xlink:href="#rim" fill="#404040">
                        <set attributeName="fill" to="#808080" begin="arrowDown.mouseover" end="arrowDown.mouseout"/>
                  </use>
                  <path fill="none" stroke="white" stroke-width="1.5" d="M0,-3.0v7 M-2.5,-0.5L0,-3.0L2.5,-0.5"/>
                </g>
                <g id="arrowLeft" xlink:href="#dirArrow" transform="rotate(270) translate(-36 17)" onmousedown="handlePan(-1,0)">
                  <use xlink:href="#rim" fill="#404040">
                        <set attributeName="fill" to="#808080" begin="arrowLeft.mouseover" end="arrowLeft.mouseout"/>
                  </use>
                  <path fill="none" stroke="white" stroke-width="1.5" d="M0,-3.0v7 M-2.5,-0.5L0,-3.0L2.5,-0.5"/>
                </g>
        </g>
        <svg viewBox="0 0 15 15" width="100%" height="30px" preserveAspectRatio="xMaxYMin meet">
         <g id="arrow_out" transform="scale(0.3 0.3)">
          <a xlink:href="classlime_1_1IConnection_af3dfb39cc643d88c1196ded5d5cbecea_icgraph_org.svg" target="_base">
           <rect id="button" ry="5" rx="5" y="6" x="6" height="38" width="38"
                fill="#f2f5e9" fill-opacity="0.5" stroke="#606060" stroke-width="1.0"/>
           <path id="arrow"
             d="M 11.500037,31.436501 C 11.940474,20.09759 22.043105,11.32322 32.158766,21.979434 L 37.068811,17.246167 C 37.068811,17.246167 37.088388,32 37.088388,32 L 22.160133,31.978069 C 22.160133,31.978069 26.997745,27.140456 26.997745,27.140456 C 18.528582,18.264221 13.291696,25.230495 11.500037,31.436501 z"
             style="fill:#404040;"/>
          </a>
         </g>
        </svg>
</svg>
