<?xml version="1.0" encoding="UTF-8" standalone="no"?>
<!DOCTYPE svg PUBLIC "-//W3C//DTD SVG 1.1//EN"
 "http://www.w3.org/Graphics/SVG/1.1/DTD/svg11.dtd">
<!-- Generated by graphviz version 2.38.0 (20140413.2041)
 -->
<!-- Title: __loadAllConnections Pages: 1 -->
<svg width="322pt" height="252pt"
 viewBox="0.00 0.00 322.00 251.50" xmlns="http://www.w3.org/2000/svg" xmlns:xlink="http://www.w3.org/1999/xlink">
<g id="graph0" class="graph" transform="scale(1 1) rotate(0) translate(4 247.5)">
<title>__loadAllConnections</title>
<polygon fill="white" stroke="none" points="-4,4 -4,-247.5 318,-247.5 318,4 -4,4"/>
<!-- Node1 -->
<g id="node1" class="node"><title>Node1</title>
<polygon fill="#bfbfbf" stroke="black" points="0,-126 0,-145 111,-145 111,-126 0,-126"/>
<text text-anchor="middle" x="55.5" y="-133" font-family="Helvetica,sans-Serif" font-size="10.00">__loadAllConnections</text>
</g>
<!-- Node2 -->
<g id="node2" class="node"><title>Node2</title>
<g id="a_node2"><a xlink:href="../../d6/d7b/BuiltinConnections_8in_8cpp.html#aafab0a44fc1f7320af30da07cb979574" target="_top" xlink:title="make a static&#45;initialized entry in the registry ">
<polygon fill="white" stroke="black" points="147,-224 147,-243 314,-243 314,-224 147,-224"/>
<text text-anchor="middle" x="230.5" y="-231" font-family="Helvetica,sans-Serif" font-size="10.00">__loadConnectionEVB7COMEntry</text>
</a>
</g>
</g>
<!-- Node1&#45;&gt;Node2 -->
<g id="edge1" class="edge"><title>Node1&#45;&gt;Node2</title>
<path fill="none" stroke="midnightblue" d="M64.6378,-145.218C79.2955,-162.059 111.892,-196.578 147,-214.5 151.627,-216.862 156.549,-218.934 161.596,-220.751"/>
<polygon fill="midnightblue" stroke="midnightblue" points="160.819,-224.179 171.411,-223.94 162.982,-217.521 160.819,-224.179"/>
</g>
<!-- Node3 -->
<g id="node3" class="node"><title>Node3</title>
<g id="a_node3"><a xlink:href="../../d6/d7b/BuiltinConnections_8in_8cpp.html#abbfa4cb1eee49942395e8844101b99e1" target="_top" xlink:title="make a static&#45;initialized entry in the registry ">
<polygon fill="white" stroke="black" points="157.5,-186 157.5,-205 303.5,-205 303.5,-186 157.5,-186"/>
<text text-anchor="middle" x="230.5" y="-193" font-family="Helvetica,sans-Serif" font-size="10.00">__loadConnectionFT601Entry</text>
</a>
</g>
</g>
<!-- Node1&#45;&gt;Node3 -->
<g id="edge2" class="edge"><title>Node1&#45;&gt;Node3</title>
<path fill="none" stroke="midnightblue" d="M74.7821,-145.089C92.7589,-154.202 121.181,-167.775 147,-176.5 154.622,-179.076 162.757,-181.419 170.837,-183.511"/>
<polygon fill="midnightblue" stroke="midnightblue" points="170.079,-186.929 180.627,-185.937 171.763,-180.134 170.079,-186.929"/>
</g>
<!-- Node4 -->
<g id="node4" class="node"><title>Node4</title>
<g id="a_node4"><a xlink:href="../../d6/d7b/BuiltinConnections_8in_8cpp.html#a52c35dd464a2d8bd7fad6625cf30265c" target="_top" xlink:title="make a static&#45;initialized entry in the registry ">
<polygon fill="white" stroke="black" points="162.5,-148 162.5,-167 298.5,-167 298.5,-148 162.5,-148"/>
<text text-anchor="middle" x="230.5" y="-155" font-family="Helvetica,sans-Serif" font-size="10.00">__loadConnectionFX3Entry</text>
</a>
</g>
</g>
<!-- Node1&#45;&gt;Node4 -->
<g id="edge3" class="edge"><title>Node1&#45;&gt;Node4</title>
<path fill="none" stroke="midnightblue" d="M111.238,-142.461C124.302,-144.122 138.488,-145.926 152.35,-147.689"/>
<polygon fill="midnightblue" stroke="midnightblue" points="152.004,-151.173 162.366,-148.963 152.888,-144.229 152.004,-151.173"/>
</g>
<!-- Node5 -->
<g id="node5" class="node"><title>Node5</title>
<g id="a_node5"><a xlink:href="../../d6/d7b/BuiltinConnections_8in_8cpp.html#a4029c016de66cd0c9aa695c4212f0029" target="_top" xlink:title="make a static&#45;initialized entry in the registry ">
<polygon fill="white" stroke="black" points="157,-98.5 157,-128.5 304,-128.5 304,-98.5 157,-98.5"/>
<text text-anchor="start" x="165" y="-116.5" font-family="Helvetica,sans-Serif" font-size="10.00">__loadConnectionNovenaRF7</text>
<text text-anchor="middle" x="230.5" y="-105.5" font-family="Helvetica,sans-Serif" font-size="10.00">Entry</text>
</a>
</g>
</g>
<!-- Node1&#45;&gt;Node5 -->
<g id="edge4" class="edge"><title>Node1&#45;&gt;Node5</title>
<path fill="none" stroke="midnightblue" d="M111.238,-128.539C122.529,-127.103 134.659,-125.561 146.693,-124.03"/>
<polygon fill="midnightblue" stroke="midnightblue" points="147.281,-127.484 156.759,-122.75 146.397,-120.54 147.281,-127.484"/>
</g>
<!-- Node6 -->
<g id="node6" class="node"><title>Node6</title>
<g id="a_node6"><a xlink:href="../../d6/d7b/BuiltinConnections_8in_8cpp.html#a86c8aaa38f814e66a6501109b0419128" target="_top" xlink:title="make a static&#45;initialized entry in the registry ">
<polygon fill="white" stroke="black" points="162,-49.5 162,-79.5 299,-79.5 299,-49.5 162,-49.5"/>
<text text-anchor="start" x="170" y="-67.5" font-family="Helvetica,sans-Serif" font-size="10.00">__loadConnectionSTREAM</text>
<text text-anchor="middle" x="230.5" y="-56.5" font-family="Helvetica,sans-Serif" font-size="10.00">_UNITEEntry</text>
</a>
</g>
</g>
<!-- Node1&#45;&gt;Node6 -->
<g id="edge5" class="edge"><title>Node1&#45;&gt;Node6</title>
<path fill="none" stroke="midnightblue" d="M73.0996,-125.941C90.9436,-115.935 120.345,-100.216 147,-89.5 152.832,-87.1554 158.971,-84.9072 165.159,-82.7869"/>
<polygon fill="midnightblue" stroke="midnightblue" points="166.495,-86.0315 174.887,-79.5647 164.294,-79.3866 166.495,-86.0315"/>
</g>
<!-- Node7 -->
<g id="node7" class="node"><title>Node7</title>
<g id="a_node7"><a xlink:href="../../d6/d7b/BuiltinConnections_8in_8cpp.html#af9ac641bc1febe4c158ee95b289bb04c" target="_top" xlink:title="make a static&#45;initialized entry in the registry ">
<polygon fill="white" stroke="black" points="166,-0.5 166,-30.5 295,-30.5 295,-0.5 166,-0.5"/>
<text text-anchor="start" x="174" y="-18.5" font-family="Helvetica,sans-Serif" font-size="10.00">__loadConnectionXillybus</text>
<text text-anchor="middle" x="230.5" y="-7.5" font-family="Helvetica,sans-Serif" font-size="10.00">Entry</text>
</a>
</g>
</g>
<!-- Node1&#45;&gt;Node7 -->
<g id="edge6" class="edge"><title>Node1&#45;&gt;Node7</title>
<path fill="none" stroke="midnightblue" d="M63.0239,-125.856C76.4654,-106.72 109.177,-63.7908 147,-40.5 150.415,-38.3972 154.019,-36.4606 157.735,-34.6786"/>
<polygon fill="midnightblue" stroke="midnightblue" points="159.397,-37.772 167.159,-30.5606 156.594,-31.3577 159.397,-37.772"/>
</g>
</g>
</svg>
