<?xml version="1.0" encoding="UTF-8" standalone="no"?>
<!DOCTYPE svg PUBLIC "-//W3C//DTD SVG 1.1//EN"
 "http://www.w3.org/Graphics/SVG/1.1/DTD/svg11.dtd">
<!-- Generated by graphviz version 2.38.0 (20140413.2041)
 -->
<!-- Title: LMS_Programing_wxgui::SetConnection Pages: 1 -->
<svg width="617pt" height="115pt"
 viewBox="0.00 0.00 617.00 115.00" xmlns="http://www.w3.org/2000/svg" xmlns:xlink="http://www.w3.org/1999/xlink">
<g id="graph0" class="graph" transform="scale(1 1) rotate(0) translate(4 111)">
<title>LMS_Programing_wxgui::SetConnection</title>
<polygon fill="white" stroke="none" points="-4,4 -4,-111 613,-111 613,4 -4,4"/>
<!-- Node1 -->
<g id="node1" class="node"><title>Node1</title>
<polygon fill="#bfbfbf" stroke="black" points="0,-51.5 0,-81.5 122,-81.5 122,-51.5 0,-51.5"/>
<text text-anchor="start" x="8" y="-69.5" font-family="Helvetica,sans-Serif" font-size="10.00">LMS_Programing_wxgui</text>
<text text-anchor="middle" x="61" y="-58.5" font-family="Helvetica,sans-Serif" font-size="10.00">::SetConnection</text>
</g>
<!-- Node2 -->
<g id="node2" class="node"><title>Node2</title>
<g id="a_node2"><a xlink:href="../../d1/df3/classLMS7SuiteAppFrame.html#a9aba26731989c63cf7da0ffb7128b734" target="_top" xlink:title="LMS7SuiteAppFrame::\lOnShowPrograming">
<polygon fill="white" stroke="black" points="158,-76.5 158,-106.5 274,-106.5 274,-76.5 158,-76.5"/>
<text text-anchor="start" x="166" y="-94.5" font-family="Helvetica,sans-Serif" font-size="10.00">LMS7SuiteAppFrame::</text>
<text text-anchor="middle" x="216" y="-83.5" font-family="Helvetica,sans-Serif" font-size="10.00">OnShowPrograming</text>
</a>
</g>
</g>
<!-- Node1&#45;&gt;Node2 -->
<g id="edge1" class="edge"><title>Node1&#45;&gt;Node2</title>
<path fill="none" stroke="midnightblue" d="M132.022,-77.9415C140.599,-79.3429 149.284,-80.7622 157.644,-82.1281"/>
<polygon fill="midnightblue" stroke="midnightblue" points="132.464,-74.4674 122.031,-76.3089 131.335,-81.3758 132.464,-74.4674"/>
</g>
<!-- Node3 -->
<g id="node3" class="node"><title>Node3</title>
<g id="a_node3"><a xlink:href="../../d1/df3/classLMS7SuiteAppFrame.html#aeaeb613a8c9139f0e60b02f1f612ed5d" target="_top" xlink:title="LMS7SuiteAppFrame::\lUpdateConnections">
<polygon fill="white" stroke="black" points="158,-27.5 158,-57.5 274,-57.5 274,-27.5 158,-27.5"/>
<text text-anchor="start" x="166" y="-45.5" font-family="Helvetica,sans-Serif" font-size="10.00">LMS7SuiteAppFrame::</text>
<text text-anchor="middle" x="216" y="-34.5" font-family="Helvetica,sans-Serif" font-size="10.00">UpdateConnections</text>
</a>
</g>
</g>
<!-- Node1&#45;&gt;Node3 -->
<g id="edge2" class="edge"><title>Node1&#45;&gt;Node3</title>
<path fill="none" stroke="midnightblue" d="M132.022,-55.5161C140.599,-54.1708 149.284,-52.8083 157.644,-51.497"/>
<polygon fill="midnightblue" stroke="midnightblue" points="131.367,-52.076 122.031,-57.0834 132.452,-58.9914 131.367,-52.076"/>
</g>
<!-- Node4 -->
<g id="node4" class="node"><title>Node4</title>
<g id="a_node4"><a xlink:href="../../d1/df3/classLMS7SuiteAppFrame.html#ad380f4e547c66fcfffdec0da53fe5b3e" target="_top" xlink:title="Constructor. ">
<polygon fill="white" stroke="black" points="481,-49.5 481,-79.5 597,-79.5 597,-49.5 481,-49.5"/>
<text text-anchor="start" x="489" y="-67.5" font-family="Helvetica,sans-Serif" font-size="10.00">LMS7SuiteAppFrame::</text>
<text text-anchor="middle" x="539" y="-56.5" font-family="Helvetica,sans-Serif" font-size="10.00">LMS7SuiteAppFrame</text>
</a>
</g>
</g>
<!-- Node3&#45;&gt;Node4 -->
<g id="edge3" class="edge"><title>Node3&#45;&gt;Node4</title>
<path fill="none" stroke="midnightblue" d="M284.232,-47.1078C342.507,-51.1017 425.904,-56.8174 480.973,-60.5916"/>
<polygon fill="midnightblue" stroke="midnightblue" points="284.234,-43.5998 274.018,-46.4078 283.756,-50.5835 284.234,-43.5998"/>
</g>
<!-- Node5 -->
<g id="node5" class="node"><title>Node5</title>
<g id="a_node5"><a xlink:href="../../d1/df3/classLMS7SuiteAppFrame.html#a819f017d3e706c433d9b7f4f9bc1f9c3" target="_top" xlink:title="LMS7SuiteAppFrame::\lOnControlBoardConnect">
<polygon fill="white" stroke="black" points="310,-5.5 310,-35.5 433,-35.5 433,-5.5 310,-5.5"/>
<text text-anchor="start" x="318" y="-23.5" font-family="Helvetica,sans-Serif" font-size="10.00">LMS7SuiteAppFrame::</text>
<text text-anchor="middle" x="371.5" y="-12.5" font-family="Helvetica,sans-Serif" font-size="10.00">OnControlBoardConnect</text>
</a>
</g>
</g>
<!-- Node3&#45;&gt;Node5 -->
<g id="edge4" class="edge"><title>Node3&#45;&gt;Node5</title>
<path fill="none" stroke="midnightblue" d="M284.138,-32.8776C292.727,-31.6467 301.478,-30.3924 309.953,-29.1777"/>
<polygon fill="midnightblue" stroke="midnightblue" points="283.56,-29.4246 274.158,-34.308 284.553,-36.3538 283.56,-29.4246"/>
</g>
<!-- Node5&#45;&gt;Node4 -->
<g id="edge5" class="edge"><title>Node5&#45;&gt;Node4</title>
<path fill="none" stroke="midnightblue" d="M438.678,-38.0941C452.855,-41.8632 467.709,-45.8122 481.481,-49.4738"/>
<polygon fill="midnightblue" stroke="midnightblue" points="439.556,-34.7062 428.993,-35.5192 437.758,-41.4712 439.556,-34.7062"/>
</g>
<!-- Node6 -->
<g id="node6" class="node"><title>Node6</title>
<g id="a_node6"><a xlink:href="../../d1/df3/classLMS7SuiteAppFrame.html#a08626f72855857180d80ab271f481d08" target="_top" xlink:title="LMS7SuiteAppFrame::\lOnShowConnectionSettings">
<polygon fill="white" stroke="black" points="469,-0.5 469,-30.5 609,-30.5 609,-0.5 469,-0.5"/>
<text text-anchor="start" x="477" y="-18.5" font-family="Helvetica,sans-Serif" font-size="10.00">LMS7SuiteAppFrame::</text>
<text text-anchor="middle" x="539" y="-7.5" font-family="Helvetica,sans-Serif" font-size="10.00">OnShowConnectionSettings</text>
</a>
</g>
</g>
<!-- Node5&#45;&gt;Node6 -->
<g id="edge6" class="edge"><title>Node5&#45;&gt;Node6</title>
<path fill="none" stroke="midnightblue" d="M443.399,-18.358C451.86,-18.1024 460.49,-17.8417 468.925,-17.5868"/>
<polygon fill="midnightblue" stroke="midnightblue" points="443.076,-14.8661 433.186,-18.6666 443.287,-21.8629 443.076,-14.8661"/>
</g>
</g>
</svg>
