<?xml version="1.0" encoding="UTF-8" standalone="no"?>
<!DOCTYPE svg PUBLIC "-//W3C//DTD SVG 1.1//EN"
 "http://www.w3.org/Graphics/SVG/1.1/DTD/svg11.dtd">
<!-- Generated by graphviz version 2.38.0 (20140413.2041)
 -->
<!-- Title: LMS_Programing_wxgui::LMS_Programing_wxgui Pages: 1 -->
<!--zoomable 724 -->
<svg id="main" version="1.1" xmlns="http://www.w3.org/2000/svg" xmlns:xlink="http://www.w3.org/1999/xlink" xml:space="preserve" onload="init(evt)">
<style type="text/css"><![CDATA[
.edge:hover path { stroke: red; }
.edge:hover polygon { stroke: red; fill: red; }
]]></style>
<script type="text/javascript"><![CDATA[
var edges = document.getElementsByTagName('g');
if (edges && edges.length) {
  for (var i=0;i<edges.length;i++) {
    if (edges[i].id.substr(0,4)=='edge') {
      edges[i].setAttribute('class','edge');
    }
  }
}
]]></script>
        <defs>
                <circle id="rim" cx="0" cy="0" r="7"/>
                <circle id="rim2" cx="0" cy="0" r="3.5"/>
                <g id="zoomPlus">
                        <use xlink:href="#rim" fill="#404040">
                                <set attributeName="fill" to="#808080" begin="zoomplus.mouseover" end="zoomplus.mouseout"/>
                        </use>
                        <path d="M-4,0h8M0,-4v8" fill="none" stroke="white" stroke-width="1.5" pointer-events="none"/>
                </g>
                <g id="zoomMin">
                        <use xlink:href="#rim" fill="#404040">
                                <set attributeName="fill" to="#808080" begin="zoomminus.mouseover" end="zoomminus.mouseout"/>
                        </use>
                        <path d="M-4,0h8" fill="none" stroke="white" stroke-width="1.5" pointer-events="none"/>
                </g>
                <g id="dirArrow">
                        <path fill="none" stroke="white" stroke-width="1.5" d="M0,-3.0v7 M-2.5,-0.5L0,-3.0L2.5,-0.5"/>
                </g>
               <g id="resetDef">
                       <use xlink:href="#rim2" fill="#404040">
                               <set attributeName="fill" to="#808080" begin="reset.mouseover" end="reset.mouseout"/>
                       </use>
               </g>
        </defs>

<script type="text/javascript">
var viewWidth = 1577;
var viewHeight = 724;
var sectionId = 'dynsection-2';
</script>
<script xlink:href="../../svgpan.js"/>
<svg id="graph" class="graph">
<g id="viewport">
<title>LMS_Programing_wxgui::LMS_Programing_wxgui</title>
<polygon fill="white" stroke="none" points="-4,4 -4,-720 1573,-720 1573,4 -4,4"/>
<!-- Node1 -->
<g id="node1" class="node"><title>Node1</title>
<polygon fill="#bfbfbf" stroke="black" points="0,-474 0,-504 128,-504 128,-474 0,-474"/>
<text text-anchor="start" x="8" y="-492" font-family="Helvetica,sans-Serif" font-size="10.00">LMS_Programing_wxgui</text>
<text text-anchor="middle" x="64" y="-481" font-family="Helvetica,sans-Serif" font-size="10.00">::LMS_Programing_wxgui</text>
</g>
<!-- Node2 -->
<g id="node2" class="node"><title>Node2</title>
<g id="a_node2"><a xlink:href="../../db/d33/classLMS__Programing__wxgui.html#a3b557352b3babbfe819c188dbd44fdb7" target="_top" xlink:title="LMS_Programing_wxgui\l::OnbtnOpenClick">
<polygon fill="white" stroke="black" points="693.5,-587 693.5,-617 815.5,-617 815.5,-587 693.5,-587"/>
<text text-anchor="start" x="701.5" y="-605" font-family="Helvetica,sans-Serif" font-size="10.00">LMS_Programing_wxgui</text>
<text text-anchor="middle" x="754.5" y="-594" font-family="Helvetica,sans-Serif" font-size="10.00">::OnbtnOpenClick</text>
</a>
</g>
</g>
<!-- Node1&#45;&gt;Node2 -->
<g id="edge1" class="edge"><title>Node1&#45;&gt;Node2</title>
<path fill="none" stroke="midnightblue" d="M95.4645,-504.145C114.672,-513.051 140.251,-523.756 164,-530 347.241,-578.175 571.165,-594.287 682.947,-599.544"/>
<polygon fill="midnightblue" stroke="midnightblue" points="682.934,-603.047 693.083,-600.006 683.253,-596.054 682.934,-603.047"/>
</g>
<!-- Node33 -->
<g id="node33" class="node"><title>Node33</title>
<g id="a_node33"><a xlink:href="../../db/d33/classLMS__Programing__wxgui.html#a19e7fd119068f89e511792ac90b80572" target="_top" xlink:title="LMS_Programing_wxgui\l::OnbtnStartProgrammingClick">
<polygon fill="white" stroke="black" points="345,-489 345,-519 495,-519 495,-489 345,-489"/>
<text text-anchor="start" x="353" y="-507" font-family="Helvetica,sans-Serif" font-size="10.00">LMS_Programing_wxgui</text>
<text text-anchor="middle" x="420" y="-496" font-family="Helvetica,sans-Serif" font-size="10.00">::OnbtnStartProgrammingClick</text>
</a>
</g>
</g>
<!-- Node1&#45;&gt;Node33 -->
<g id="edge37" class="edge"><title>Node1&#45;&gt;Node33</title>
<path fill="none" stroke="midnightblue" d="M114.399,-504.026C130.101,-508.111 147.64,-511.966 164,-514 220.66,-521.044 284.896,-518.461 334.721,-514.16"/>
<polygon fill="midnightblue" stroke="midnightblue" points="335.162,-517.634 344.806,-513.249 334.532,-510.663 335.162,-517.634"/>
</g>
<!-- Node42 -->
<g id="node42" class="node"><title>Node42</title>
<g id="a_node42"><a xlink:href="../../db/d33/classLMS__Programing__wxgui.html#a29e2a59c7e251fc40454fb27ff8e03bb" target="_top" xlink:title="Change programming modes according to selected device. ">
<polygon fill="white" stroke="black" points="175.5,-425 175.5,-455 297.5,-455 297.5,-425 175.5,-425"/>
<text text-anchor="start" x="183.5" y="-443" font-family="Helvetica,sans-Serif" font-size="10.00">LMS_Programing_wxgui</text>
<text text-anchor="middle" x="236.5" y="-432" font-family="Helvetica,sans-Serif" font-size="10.00">::OncmbDeviceSelect</text>
</a>
</g>
</g>
<!-- Node1&#45;&gt;Node42 -->
<g id="edge52" class="edge"><title>Node1&#45;&gt;Node42</title>
<path fill="none" stroke="midnightblue" d="M117.547,-473.899C135.213,-468.821 155.087,-463.11 173.416,-457.842"/>
<polygon fill="midnightblue" stroke="midnightblue" points="174.482,-461.178 183.127,-455.052 172.549,-454.45 174.482,-461.178"/>
</g>
<!-- Node43 -->
<g id="node43" class="node"><title>Node43</title>
<g id="a_node43"><a xlink:href="../../db/d33/classLMS__Programing__wxgui.html#ad8cce5235c464cca222634b82be854ec" target="_top" xlink:title="LMS_Programing_wxgui\l::OnProgramingFinished">
<polygon fill="white" stroke="black" points="175.5,-474 175.5,-504 297.5,-504 297.5,-474 175.5,-474"/>
<text text-anchor="start" x="183.5" y="-492" font-family="Helvetica,sans-Serif" font-size="10.00">LMS_Programing_wxgui</text>
<text text-anchor="middle" x="236.5" y="-481" font-family="Helvetica,sans-Serif" font-size="10.00">::OnProgramingFinished</text>
</a>
</g>
</g>
<!-- Node1&#45;&gt;Node43 -->
<g id="edge53" class="edge"><title>Node1&#45;&gt;Node43</title>
<path fill="none" stroke="midnightblue" d="M128.003,-489C140.084,-489 152.804,-489 165.1,-489"/>
<polygon fill="midnightblue" stroke="midnightblue" points="165.305,-492.5 175.305,-489 165.305,-485.5 165.305,-492.5"/>
</g>
<!-- Node44 -->
<g id="node44" class="node"><title>Node44</title>
<g id="a_node44"><a xlink:href="../../db/d33/classLMS__Programing__wxgui.html#a504c44729b317631e005161b4f3269ba" target="_top" xlink:title="Updates GUI elements with programming status. ">
<polygon fill="white" stroke="black" points="164,-376 164,-406 309,-406 309,-376 164,-376"/>
<text text-anchor="start" x="172" y="-394" font-family="Helvetica,sans-Serif" font-size="10.00">LMS_Programing_wxgui</text>
<text text-anchor="middle" x="236.5" y="-383" font-family="Helvetica,sans-Serif" font-size="10.00">::OnProgramingStatusUpdate</text>
</a>
</g>
</g>
<!-- Node1&#45;&gt;Node44 -->
<g id="edge56" class="edge"><title>Node1&#45;&gt;Node44</title>
<path fill="none" stroke="midnightblue" d="M82.1689,-473.829C101.111,-457.714 133.031,-432.354 164,-416 168.034,-413.87 172.287,-411.858 176.626,-409.972"/>
<polygon fill="midnightblue" stroke="midnightblue" points="178.284,-413.075 186.211,-406.045 175.631,-406.597 178.284,-413.075"/>
</g>
<!-- Node3 -->
<g id="node3" class="node"><title>Node3</title>
<g id="a_node3"><a xlink:href="../../df/de1/lms7__api_8cpp.html#a9b072759ccce533468db9bb3c97a417d" target="_top" xlink:title="LMS_GetDeviceInfo">
<polygon fill="white" stroke="black" points="857.5,-592.5 857.5,-611.5 962.5,-611.5 962.5,-592.5 857.5,-592.5"/>
<text text-anchor="middle" x="910" y="-599.5" font-family="Helvetica,sans-Serif" font-size="10.00">LMS_GetDeviceInfo</text>
</a>
</g>
</g>
<!-- Node2&#45;&gt;Node3 -->
<g id="edge2" class="edge"><title>Node2&#45;&gt;Node3</title>
<path fill="none" stroke="midnightblue" d="M815.727,-602C826.058,-602 836.808,-602 847.18,-602"/>
<polygon fill="midnightblue" stroke="midnightblue" points="847.396,-605.5 857.396,-602 847.396,-598.5 847.396,-605.5"/>
</g>
<!-- Node9 -->
<g id="node9" class="node"><title>Node9</title>
<g id="a_node9"><a xlink:href="../../d5/d6c/namespacelime.html#a3a1fa645a1d28f577ef2be92471421c2" target="_top" xlink:title="lime::GetDeviceName">
<polygon fill="white" stroke="black" points="1346.5,-696.5 1346.5,-715.5 1459.5,-715.5 1459.5,-696.5 1346.5,-696.5"/>
<text text-anchor="middle" x="1403" y="-703.5" font-family="Helvetica,sans-Serif" font-size="10.00">lime::GetDeviceName</text>
</a>
</g>
</g>
<!-- Node2&#45;&gt;Node9 -->
<g id="edge36" class="edge"><title>Node2&#45;&gt;Node9</title>
<path fill="none" stroke="midnightblue" d="M787.425,-617.073C833.274,-637.882 920.962,-674.584 1000,-690 1116.62,-712.747 1255.76,-712.328 1336,-709.487"/>
<polygon fill="midnightblue" stroke="midnightblue" points="1336.58,-712.967 1346.44,-709.091 1336.31,-705.972 1336.58,-712.967"/>
</g>
<!-- Node4 -->
<g id="node4" class="node"><title>Node4</title>
<g id="a_node4"><a xlink:href="../../d3/d22/classlime_1_1LMS7__Device.html#a4fb66a6ab68f16a0b6506329b05a08b2" target="_top" xlink:title="lime::LMS7_Device::\lGetConnection">
<polygon fill="white" stroke="black" points="1023.5,-601 1023.5,-631 1131.5,-631 1131.5,-601 1023.5,-601"/>
<text text-anchor="start" x="1031.5" y="-619" font-family="Helvetica,sans-Serif" font-size="10.00">lime::LMS7_Device::</text>
<text text-anchor="middle" x="1077.5" y="-608" font-family="Helvetica,sans-Serif" font-size="10.00">GetConnection</text>
</a>
</g>
</g>
<!-- Node3&#45;&gt;Node4 -->
<g id="edge3" class="edge"><title>Node3&#45;&gt;Node4</title>
<path fill="none" stroke="midnightblue" d="M962.911,-606.391C978.847,-607.739 996.564,-609.238 1013.17,-610.643"/>
<polygon fill="midnightblue" stroke="midnightblue" points="1013.09,-614.148 1023.35,-611.504 1013.68,-607.173 1013.09,-614.148"/>
</g>
<!-- Node5 -->
<g id="node5" class="node"><title>Node5</title>
<g id="a_node5"><a xlink:href="../../d3/d22/classlime_1_1LMS7__Device.html#a98db5e68bc4addb1d9c1149edd3590eb" target="_top" xlink:title="lime::LMS7_Device::\lGetInfo">
<polygon fill="white" stroke="black" points="1023.5,-650 1023.5,-680 1131.5,-680 1131.5,-650 1023.5,-650"/>
<text text-anchor="start" x="1031.5" y="-668" font-family="Helvetica,sans-Serif" font-size="10.00">lime::LMS7_Device::</text>
<text text-anchor="middle" x="1077.5" y="-657" font-family="Helvetica,sans-Serif" font-size="10.00">GetInfo</text>
</a>
</g>
</g>
<!-- Node3&#45;&gt;Node5 -->
<g id="edge4" class="edge"><title>Node3&#45;&gt;Node5</title>
<path fill="none" stroke="midnightblue" d="M931.242,-611.625C949.114,-619.941 975.988,-632.003 1000,-641 1005.13,-642.923 1010.5,-644.822 1015.9,-646.66"/>
<polygon fill="midnightblue" stroke="midnightblue" points="1015.03,-650.059 1025.62,-649.892 1017.24,-643.416 1015.03,-650.059"/>
</g>
<!-- Node11 -->
<g id="node11" class="node"><title>Node11</title>
<g id="a_node11"><a xlink:href="../../d4/d67/lms_8c.html#a0e01e477b1f10e0a63e54de2dd2f8240" target="_top" xlink:title="lms">
<polygon fill="white" stroke="black" points="1061.5,-304.5 1061.5,-323.5 1093.5,-323.5 1093.5,-304.5 1061.5,-304.5"/>
<text text-anchor="middle" x="1077.5" y="-311.5" font-family="Helvetica,sans-Serif" font-size="10.00">lms</text>
</a>
</g>
</g>
<!-- Node3&#45;&gt;Node11 -->
<g id="edge11" class="edge"><title>Node3&#45;&gt;Node11</title>
<path fill="none" stroke="midnightblue" d="M915.176,-592.219C924.572,-570.021 947.819,-514.029 964,-466 982.594,-410.807 959.845,-382.185 1000,-340 1013.33,-325.998 1034.48,-319.536 1051.16,-316.555"/>
<polygon fill="midnightblue" stroke="midnightblue" points="1051.97,-319.973 1061.36,-315.054 1050.95,-313.048 1051.97,-319.973"/>
</g>
<!-- Node31 -->
<g id="node31" class="node"><title>Node31</title>
<g id="a_node31"><a xlink:href="../../d5/d6c/namespacelime.html#adc6af0cf8e0a70f3ef09fac1244f8c48" target="_top" xlink:title="lime::ReportError">
<polygon fill="white" stroke="black" points="1195,-532.5 1195,-551.5 1286,-551.5 1286,-532.5 1195,-532.5"/>
<text text-anchor="middle" x="1240.5" y="-539.5" font-family="Helvetica,sans-Serif" font-size="10.00">lime::ReportError</text>
</a>
</g>
</g>
<!-- Node3&#45;&gt;Node31 -->
<g id="edge34" class="edge"><title>Node3&#45;&gt;Node31</title>
<path fill="none" stroke="midnightblue" d="M962.689,-592.559C1023.28,-581.492 1123.24,-563.234 1185.01,-551.952"/>
<polygon fill="midnightblue" stroke="midnightblue" points="1185.75,-555.375 1194.96,-550.135 1184.49,-548.489 1185.75,-555.375"/>
</g>
<!-- Node6 -->
<g id="node6" class="node"><title>Node6</title>
<g id="a_node6"><a xlink:href="../../d5/d6c/namespacelime.html#af0395b1ab55d42fb76210f0cd9a44a6f" target="_top" xlink:title="Log an information message with formatting. ">
<polygon fill="white" stroke="black" points="1375,-614.5 1375,-633.5 1431,-633.5 1431,-614.5 1375,-614.5"/>
<text text-anchor="middle" x="1403" y="-621.5" font-family="Helvetica,sans-Serif" font-size="10.00">lime::info</text>
</a>
</g>
</g>
<!-- Node5&#45;&gt;Node6 -->
<g id="edge5" class="edge"><title>Node5&#45;&gt;Node6</title>
<path fill="none" stroke="midnightblue" d="M1131.75,-652.159C1150.4,-648.057 1171.54,-643.848 1191,-641 1251.51,-632.146 1322.5,-627.62 1364.79,-625.536"/>
<polygon fill="midnightblue" stroke="midnightblue" points="1365.07,-629.027 1374.89,-625.058 1364.74,-622.034 1365.07,-629.027"/>
</g>
<!-- Node8 -->
<g id="node8" class="node"><title>Node8</title>
<g id="a_node8"><a xlink:href="../../d2/de5/classlime_1_1IConnection.html#a80aa127bb4300c5edc0b741ff3af97b7" target="_top" xlink:title="lime::IConnection::\lGetDeviceInfo">
<polygon fill="white" stroke="black" points="1191,-650 1191,-680 1290,-680 1290,-650 1191,-650"/>
<text text-anchor="start" x="1199" y="-668" font-family="Helvetica,sans-Serif" font-size="10.00">lime::IConnection::</text>
<text text-anchor="middle" x="1240.5" y="-657" font-family="Helvetica,sans-Serif" font-size="10.00">GetDeviceInfo</text>
</a>
</g>
</g>
<!-- Node5&#45;&gt;Node8 -->
<g id="edge7" class="edge"><title>Node5&#45;&gt;Node8</title>
<path fill="none" stroke="midnightblue" d="M1131.66,-665C1147.29,-665 1164.48,-665 1180.45,-665"/>
<polygon fill="midnightblue" stroke="midnightblue" points="1180.74,-668.5 1190.74,-665 1180.74,-661.5 1180.74,-668.5"/>
</g>
<!-- Node7 -->
<g id="node7" class="node"><title>Node7</title>
<g id="a_node7"><a xlink:href="../../d5/d6c/namespacelime.html#abec841ac666fc9321a10e1881cff2da0" target="_top" xlink:title="Log a message with formatting and specified logging level. ">
<polygon fill="white" stroke="black" points="1516,-614.5 1516,-633.5 1569,-633.5 1569,-614.5 1516,-614.5"/>
<text text-anchor="middle" x="1542.5" y="-621.5" font-family="Helvetica,sans-Serif" font-size="10.00">lime::log</text>
</a>
</g>
</g>
<!-- Node6&#45;&gt;Node7 -->
<g id="edge6" class="edge"><title>Node6&#45;&gt;Node7</title>
<path fill="none" stroke="midnightblue" d="M1431.17,-624C1452.48,-624 1482.33,-624 1505.61,-624"/>
<polygon fill="midnightblue" stroke="midnightblue" points="1505.79,-627.5 1515.79,-624 1505.79,-620.5 1505.79,-627.5"/>
</g>
<!-- Node8&#45;&gt;Node6 -->
<g id="edge8" class="edge"><title>Node8&#45;&gt;Node6</title>
<path fill="none" stroke="midnightblue" d="M1290.09,-652.587C1314.09,-646.456 1342.6,-639.175 1364.83,-633.495"/>
<polygon fill="midnightblue" stroke="midnightblue" points="1365.74,-636.874 1374.57,-631.008 1364.01,-630.092 1365.74,-636.874"/>
</g>
<!-- Node8&#45;&gt;Node9 -->
<g id="edge9" class="edge"><title>Node8&#45;&gt;Node9</title>
<path fill="none" stroke="midnightblue" d="M1290.09,-677.413C1310.71,-682.679 1334.64,-688.793 1355.07,-694.012"/>
<polygon fill="midnightblue" stroke="midnightblue" points="1354.24,-697.411 1364.79,-696.495 1355.97,-690.629 1354.24,-697.411"/>
</g>
<!-- Node10 -->
<g id="node10" class="node"><title>Node10</title>
<g id="a_node10"><a xlink:href="../../d5/d6c/namespacelime.html#a076efa9b9d3d7a72bf71dcaa469ccf26" target="_top" xlink:title="lime::GetExpansionBoardName">
<polygon fill="white" stroke="black" points="1326,-655.5 1326,-674.5 1480,-674.5 1480,-655.5 1326,-655.5"/>
<text text-anchor="middle" x="1403" y="-662.5" font-family="Helvetica,sans-Serif" font-size="10.00">lime::GetExpansionBoardName</text>
</a>
</g>
</g>
<!-- Node8&#45;&gt;Node10 -->
<g id="edge10" class="edge"><title>Node8&#45;&gt;Node10</title>
<path fill="none" stroke="midnightblue" d="M1290.09,-665C1298.18,-665 1306.78,-665 1315.48,-665"/>
<polygon fill="midnightblue" stroke="midnightblue" points="1315.72,-668.5 1325.72,-665 1315.72,-661.5 1315.72,-668.5"/>
</g>
<!-- Node12 -->
<g id="node12" class="node"><title>Node12</title>
<g id="a_node12"><a xlink:href="../../d4/d67/lms_8c.html#a433227191fe883dcb8aa15d291bb29a1" target="_top" xlink:title="Case1F">
<polygon fill="white" stroke="black" points="1215,-76.5 1215,-95.5 1266,-95.5 1266,-76.5 1215,-76.5"/>
<text text-anchor="middle" x="1240.5" y="-83.5" font-family="Helvetica,sans-Serif" font-size="10.00">Case1F</text>
</a>
</g>
</g>
<!-- Node11&#45;&gt;Node12 -->
<g id="edge12" class="edge"><title>Node11&#45;&gt;Node12</title>
<path fill="none" stroke="midnightblue" d="M1081.13,-304.156C1090.41,-271.238 1124.7,-163.764 1191,-105 1195.23,-101.251 1200.29,-98.2003 1205.51,-95.7301"/>
<polygon fill="midnightblue" stroke="midnightblue" points="1207.02,-98.8964 1214.96,-91.8855 1204.38,-92.4126 1207.02,-98.8964"/>
</g>
<!-- Node13 -->
<g id="node13" class="node"><title>Node13</title>
<g id="a_node13"><a xlink:href="../../d4/d67/lms_8c.html#ace0cd8bf61cb9b86b98f0cef03b5a9d9" target="_top" xlink:title="Case2F">
<polygon fill="white" stroke="black" points="1215,-38.5 1215,-57.5 1266,-57.5 1266,-38.5 1215,-38.5"/>
<text text-anchor="middle" x="1240.5" y="-45.5" font-family="Helvetica,sans-Serif" font-size="10.00">Case2F</text>
</a>
</g>
</g>
<!-- Node11&#45;&gt;Node13 -->
<g id="edge13" class="edge"><title>Node11&#45;&gt;Node13</title>
<path fill="none" stroke="midnightblue" d="M1080.18,-304.46C1087.02,-268.277 1116.09,-137.972 1191,-67 1195.1,-63.1128 1200.09,-59.9912 1205.29,-57.493"/>
<polygon fill="midnightblue" stroke="midnightblue" points="1206.8,-60.6592 1214.73,-53.6389 1204.15,-54.1785 1206.8,-60.6592"/>
</g>
<!-- Node14 -->
<g id="node14" class="node"><title>Node14</title>
<g id="a_node14"><a xlink:href="../../d4/d67/lms_8c.html#a5f53b53ccc591e3643c4af2aee2e7f32" target="_top" xlink:title="Case3F">
<polygon fill="white" stroke="black" points="1215,-0.5 1215,-19.5 1266,-19.5 1266,-0.5 1215,-0.5"/>
<text text-anchor="middle" x="1240.5" y="-7.5" font-family="Helvetica,sans-Serif" font-size="10.00">Case3F</text>
</a>
</g>
</g>
<!-- Node11&#45;&gt;Node14 -->
<g id="edge14" class="edge"><title>Node11&#45;&gt;Node14</title>
<path fill="none" stroke="midnightblue" d="M1079.53,-304.4C1084.29,-264.787 1107.58,-112.208 1191,-29 1195.04,-24.9687 1200.04,-21.7702 1205.28,-19.239"/>
<polygon fill="midnightblue" stroke="midnightblue" points="1206.86,-22.3746 1214.8,-15.3676 1204.22,-15.8895 1206.86,-22.3746"/>
</g>
<!-- Node15 -->
<g id="node15" class="node"><title>Node15</title>
<g id="a_node15"><a xlink:href="../../d4/d67/lms_8c.html#a5086763d5b258349bc13d6be7e7d0665" target="_top" xlink:title="Case4F">
<polygon fill="white" stroke="black" points="1215,-494.5 1215,-513.5 1266,-513.5 1266,-494.5 1215,-494.5"/>
<text text-anchor="middle" x="1240.5" y="-501.5" font-family="Helvetica,sans-Serif" font-size="10.00">Case4F</text>
</a>
</g>
</g>
<!-- Node11&#45;&gt;Node15 -->
<g id="edge15" class="edge"><title>Node11&#45;&gt;Node15</title>
<path fill="none" stroke="midnightblue" d="M1093.75,-314.954C1111.09,-316.874 1139.05,-322.649 1155,-340 1199.93,-388.889 1147.2,-435.096 1191,-485 1194.94,-489.485 1200.07,-492.92 1205.51,-495.548"/>
<polygon fill="midnightblue" stroke="midnightblue" points="1204.23,-498.807 1214.82,-499.254 1206.82,-492.303 1204.23,-498.807"/>
</g>
<!-- Node16 -->
<g id="node16" class="node"><title>Node16</title>
<g id="a_node16"><a xlink:href="../../db/de5/recipes_8c.html#aee25e218394217a134e805ea09fb0fe9" target="_top" xlink:title="free_ivector">
<polygon fill="white" stroke="black" points="1206.5,-456.5 1206.5,-475.5 1274.5,-475.5 1274.5,-456.5 1206.5,-456.5"/>
<text text-anchor="middle" x="1240.5" y="-463.5" font-family="Helvetica,sans-Serif" font-size="10.00">free_ivector</text>
</a>
</g>
</g>
<!-- Node11&#45;&gt;Node16 -->
<g id="edge16" class="edge"><title>Node11&#45;&gt;Node16</title>
<path fill="none" stroke="midnightblue" d="M1093.51,-315.188C1110.62,-317.329 1138.36,-323.311 1155,-340 1190.42,-375.533 1156.4,-410.665 1191,-447 1192.86,-448.948 1194.93,-450.7 1197.16,-452.275"/>
<polygon fill="midnightblue" stroke="midnightblue" points="1195.89,-455.582 1206.31,-457.514 1199.37,-449.508 1195.89,-455.582"/>
</g>
<!-- Node17 -->
<g id="node17" class="node"><title>Node17</title>
<g id="a_node17"><a xlink:href="../../db/de5/recipes_8c.html#a3e0d121b098c19c0bdc2429e5b9f1625" target="_top" xlink:title="free_matrix">
<polygon fill="white" stroke="black" points="1208,-418.5 1208,-437.5 1273,-437.5 1273,-418.5 1208,-418.5"/>
<text text-anchor="middle" x="1240.5" y="-425.5" font-family="Helvetica,sans-Serif" font-size="10.00">free_matrix</text>
</a>
</g>
</g>
<!-- Node11&#45;&gt;Node17 -->
<g id="edge17" class="edge"><title>Node11&#45;&gt;Node17</title>
<path fill="none" stroke="midnightblue" d="M1093.66,-315.761C1110.4,-318.411 1137.32,-324.844 1155,-340 1181.26,-362.514 1165.26,-385.891 1191,-409 1193.35,-411.107 1195.95,-412.993 1198.71,-414.678"/>
<polygon fill="midnightblue" stroke="midnightblue" points="1197.37,-417.926 1207.86,-419.405 1200.58,-411.706 1197.37,-417.926"/>
</g>
<!-- Node18 -->
<g id="node18" class="node"><title>Node18</title>
<g id="a_node18"><a xlink:href="../../db/de5/recipes_8c.html#a8214a52d888e820222c0382648329c0c" target="_top" xlink:title="free_vector">
<polygon fill="white" stroke="black" points="1370.5,-342.5 1370.5,-361.5 1435.5,-361.5 1435.5,-342.5 1370.5,-342.5"/>
<text text-anchor="middle" x="1403" y="-349.5" font-family="Helvetica,sans-Serif" font-size="10.00">free_vector</text>
</a>
</g>
</g>
<!-- Node11&#45;&gt;Node18 -->
<g id="edge18" class="edge"><title>Node11&#45;&gt;Node18</title>
<path fill="none" stroke="midnightblue" d="M1093.73,-316.958C1115.3,-321.06 1156.03,-328.48 1191,-333 1249.63,-340.58 1317.83,-346.132 1360.46,-349.214"/>
<polygon fill="midnightblue" stroke="midnightblue" points="1360.24,-352.707 1370.46,-349.926 1360.73,-345.725 1360.24,-352.707"/>
</g>
<!-- Node19 -->
<g id="node19" class="node"><title>Node19</title>
<g id="a_node19"><a xlink:href="../../d4/d67/lms_8c.html#ad1d6c875ff429888b51dd1155f0311ad" target="_top" xlink:title="ivector">
<polygon fill="white" stroke="black" points="1217.5,-304.5 1217.5,-323.5 1263.5,-323.5 1263.5,-304.5 1217.5,-304.5"/>
<text text-anchor="middle" x="1240.5" y="-311.5" font-family="Helvetica,sans-Serif" font-size="10.00">ivector</text>
</a>
</g>
</g>
<!-- Node11&#45;&gt;Node19 -->
<g id="edge19" class="edge"><title>Node11&#45;&gt;Node19</title>
<path fill="none" stroke="midnightblue" d="M1093.65,-314C1119.54,-314 1172.85,-314 1207.35,-314"/>
<polygon fill="midnightblue" stroke="midnightblue" points="1207.4,-317.5 1217.4,-314 1207.4,-310.5 1207.4,-317.5"/>
</g>
<!-- Node20 -->
<g id="node20" class="node"><title>Node20</title>
<g id="a_node20"><a xlink:href="../../db/de5/recipes_8c.html#a66ff65ad0355ec1f4a7722bcdafc8cd3" target="_top" xlink:title="lubksb">
<polygon fill="white" stroke="black" points="1218,-266.5 1218,-285.5 1263,-285.5 1263,-266.5 1218,-266.5"/>
<text text-anchor="middle" x="1240.5" y="-273.5" font-family="Helvetica,sans-Serif" font-size="10.00">lubksb</text>
</a>
</g>
</g>
<!-- Node11&#45;&gt;Node20 -->
<g id="edge20" class="edge"><title>Node11&#45;&gt;Node20</title>
<path fill="none" stroke="midnightblue" d="M1093.65,-310.425C1119.68,-304.28 1173.44,-291.592 1207.92,-283.455"/>
<polygon fill="midnightblue" stroke="midnightblue" points="1209.02,-286.791 1217.94,-281.088 1207.41,-279.979 1209.02,-286.791"/>
</g>
<!-- Node21 -->
<g id="node21" class="node"><title>Node21</title>
<g id="a_node21"><a xlink:href="../../db/de5/recipes_8c.html#a623fec796d9d53e5e4a4d30226547da7" target="_top" xlink:title="ludcmp">
<polygon fill="white" stroke="black" points="1216.5,-380.5 1216.5,-399.5 1264.5,-399.5 1264.5,-380.5 1216.5,-380.5"/>
<text text-anchor="middle" x="1240.5" y="-387.5" font-family="Helvetica,sans-Serif" font-size="10.00">ludcmp</text>
</a>
</g>
</g>
<!-- Node11&#45;&gt;Node21 -->
<g id="edge21" class="edge"><title>Node11&#45;&gt;Node21</title>
<path fill="none" stroke="midnightblue" d="M1093.7,-317.726C1109.54,-321.933 1134.81,-329.576 1155,-340 1172.54,-349.054 1174.1,-355.81 1191,-366 1196.7,-369.438 1202.96,-372.811 1209.04,-375.893"/>
<polygon fill="midnightblue" stroke="midnightblue" points="1207.81,-379.187 1218.33,-380.463 1210.9,-372.907 1207.81,-379.187"/>
</g>
<!-- Node24 -->
<g id="node24" class="node"><title>Node24</title>
<g id="a_node24"><a xlink:href="../../d4/d67/lms_8c.html#a37bcb1539d76b53344102435e2ab9c91" target="_top" xlink:title="matrix">
<polygon fill="white" stroke="black" points="1218.5,-228.5 1218.5,-247.5 1262.5,-247.5 1262.5,-228.5 1218.5,-228.5"/>
<text text-anchor="middle" x="1240.5" y="-235.5" font-family="Helvetica,sans-Serif" font-size="10.00">matrix</text>
</a>
</g>
</g>
<!-- Node11&#45;&gt;Node24 -->
<g id="edge26" class="edge"><title>Node11&#45;&gt;Node24</title>
<path fill="none" stroke="midnightblue" d="M1093.56,-305.787C1114.94,-294.267 1155.43,-272.933 1191,-257 1196.6,-254.489 1202.65,-251.974 1208.5,-249.633"/>
<polygon fill="midnightblue" stroke="midnightblue" points="1210.03,-252.793 1218.07,-245.889 1207.48,-246.274 1210.03,-252.793"/>
</g>
<!-- Node25 -->
<g id="node25" class="node"><title>Node25</title>
<g id="a_node25"><a xlink:href="../../d8/d91/rounding_8c.html#aa8d7512cdf5bfbf811cef6a8a091c679" target="_top" xlink:title="round2csd">
<polygon fill="white" stroke="black" points="1209.5,-152.5 1209.5,-171.5 1271.5,-171.5 1271.5,-152.5 1209.5,-152.5"/>
<text text-anchor="middle" x="1240.5" y="-159.5" font-family="Helvetica,sans-Serif" font-size="10.00">round2csd</text>
</a>
</g>
</g>
<!-- Node11&#45;&gt;Node25 -->
<g id="edge27" class="edge"><title>Node11&#45;&gt;Node25</title>
<path fill="none" stroke="midnightblue" d="M1084.33,-304.21C1099.18,-280.04 1140.82,-216.9 1191,-181 1193.84,-178.965 1196.94,-177.111 1200.14,-175.431"/>
<polygon fill="midnightblue" stroke="midnightblue" points="1201.74,-178.545 1209.32,-171.145 1198.78,-172.201 1201.74,-178.545"/>
</g>
<!-- Node29 -->
<g id="node29" class="node"><title>Node29</title>
<g id="a_node29"><a xlink:href="../../d8/d91/rounding_8c.html#aca2670cc0fbf948a6b9cb670047c9d5b" target="_top" xlink:title="round2int">
<polygon fill="white" stroke="black" points="1212.5,-190.5 1212.5,-209.5 1268.5,-209.5 1268.5,-190.5 1212.5,-190.5"/>
<text text-anchor="middle" x="1240.5" y="-197.5" font-family="Helvetica,sans-Serif" font-size="10.00">round2int</text>
</a>
</g>
</g>
<!-- Node11&#45;&gt;Node29 -->
<g id="edge31" class="edge"><title>Node11&#45;&gt;Node29</title>
<path fill="none" stroke="midnightblue" d="M1087.6,-304.449C1105.76,-285.852 1148.4,-244.383 1191,-219 1194.71,-216.787 1198.73,-214.738 1202.81,-212.868"/>
<polygon fill="midnightblue" stroke="midnightblue" points="1204.48,-215.962 1212.33,-208.841 1201.76,-209.515 1204.48,-215.962"/>
</g>
<!-- Node30 -->
<g id="node30" class="node"><title>Node30</title>
<g id="a_node30"><a xlink:href="../../d4/d67/lms_8c.html#ac81ca32708341eb34b25d515d00bc748" target="_top" xlink:title="vector">
<polygon fill="white" stroke="black" points="1218.5,-114.5 1218.5,-133.5 1262.5,-133.5 1262.5,-114.5 1218.5,-114.5"/>
<text text-anchor="middle" x="1240.5" y="-121.5" font-family="Helvetica,sans-Serif" font-size="10.00">vector</text>
</a>
</g>
</g>
<!-- Node11&#45;&gt;Node30 -->
<g id="edge33" class="edge"><title>Node11&#45;&gt;Node30</title>
<path fill="none" stroke="midnightblue" d="M1082.31,-304.383C1094.1,-275.765 1132.75,-190.214 1191,-143 1196.16,-138.815 1202.36,-135.466 1208.57,-132.82"/>
<polygon fill="midnightblue" stroke="midnightblue" points="1210.06,-136.001 1218.2,-129.218 1207.6,-129.445 1210.06,-136.001"/>
</g>
<!-- Node21&#45;&gt;Node18 -->
<g id="edge22" class="edge"><title>Node21&#45;&gt;Node18</title>
<path fill="none" stroke="midnightblue" d="M1264.84,-384.474C1289.83,-378.556 1330.01,-369.045 1360.43,-361.842"/>
<polygon fill="midnightblue" stroke="midnightblue" points="1361.41,-365.206 1370.34,-359.496 1359.8,-358.394 1361.41,-365.206"/>
</g>
<!-- Node22 -->
<g id="node22" class="node"><title>Node22</title>
<g id="a_node22"><a xlink:href="../../db/de5/recipes_8c.html#a208e98f19b2f252315399d02c0594a46" target="_top" xlink:title="nrerror">
<polygon fill="white" stroke="black" points="1520.5,-399.5 1520.5,-418.5 1564.5,-418.5 1564.5,-399.5 1520.5,-399.5"/>
<text text-anchor="middle" x="1542.5" y="-406.5" font-family="Helvetica,sans-Serif" font-size="10.00">nrerror</text>
</a>
</g>
</g>
<!-- Node21&#45;&gt;Node22 -->
<g id="edge23" class="edge"><title>Node21&#45;&gt;Node22</title>
<path fill="none" stroke="midnightblue" d="M1264.58,-396.641C1281.43,-401.134 1304.93,-406.66 1326,-409 1391.16,-416.236 1468.1,-413.565 1510.15,-411.16"/>
<polygon fill="midnightblue" stroke="midnightblue" points="1510.54,-414.643 1520.31,-410.545 1510.12,-407.656 1510.54,-414.643"/>
</g>
<!-- Node23 -->
<g id="node23" class="node"><title>Node23</title>
<g id="a_node23"><a xlink:href="../../db/de5/recipes_8c.html#a5e6092211a5f7e2d6ae9282379d3c604" target="_top" xlink:title="vector">
<polygon fill="white" stroke="black" points="1381,-380.5 1381,-399.5 1425,-399.5 1425,-380.5 1381,-380.5"/>
<text text-anchor="middle" x="1403" y="-387.5" font-family="Helvetica,sans-Serif" font-size="10.00">vector</text>
</a>
</g>
</g>
<!-- Node21&#45;&gt;Node23 -->
<g id="edge24" class="edge"><title>Node21&#45;&gt;Node23</title>
<path fill="none" stroke="midnightblue" d="M1264.84,-390C1292.76,-390 1339.61,-390 1370.67,-390"/>
<polygon fill="midnightblue" stroke="midnightblue" points="1370.94,-393.5 1380.94,-390 1370.94,-386.5 1370.94,-393.5"/>
</g>
<!-- Node23&#45;&gt;Node22 -->
<g id="edge25" class="edge"><title>Node23&#45;&gt;Node22</title>
<path fill="none" stroke="midnightblue" d="M1425.18,-392.927C1447.83,-396.056 1483.97,-401.051 1509.96,-404.642"/>
<polygon fill="midnightblue" stroke="midnightblue" points="1509.68,-408.136 1520.07,-406.038 1510.64,-401.202 1509.68,-408.136"/>
</g>
<!-- Node26 -->
<g id="node26" class="node"><title>Node26</title>
<g id="a_node26"><a xlink:href="../../d8/d91/rounding_8c.html#a2cff6b77e73872659c44b0c99f6bd97f" target="_top" xlink:title="csd2int">
<polygon fill="white" stroke="black" points="1379,-152.5 1379,-171.5 1427,-171.5 1427,-152.5 1379,-152.5"/>
<text text-anchor="middle" x="1403" y="-159.5" font-family="Helvetica,sans-Serif" font-size="10.00">csd2int</text>
</a>
</g>
</g>
<!-- Node25&#45;&gt;Node26 -->
<g id="edge28" class="edge"><title>Node25&#45;&gt;Node26</title>
<path fill="none" stroke="midnightblue" d="M1271.69,-162C1299.23,-162 1339.86,-162 1368.41,-162"/>
<polygon fill="midnightblue" stroke="midnightblue" points="1368.71,-165.5 1378.71,-162 1368.71,-158.5 1368.71,-165.5"/>
</g>
<!-- Node27 -->
<g id="node27" class="node"><title>Node27</title>
<g id="a_node27"><a xlink:href="../../db/d82/wglew_8h.html#a500a82aecba06f4550f6849b8099ca21" target="_top" xlink:title="int">
<polygon fill="white" stroke="black" points="1388.5,-190.5 1388.5,-209.5 1417.5,-209.5 1417.5,-190.5 1388.5,-190.5"/>
<text text-anchor="middle" x="1403" y="-197.5" font-family="Helvetica,sans-Serif" font-size="10.00">int</text>
</a>
</g>
</g>
<!-- Node25&#45;&gt;Node27 -->
<g id="edge29" class="edge"><title>Node25&#45;&gt;Node27</title>
<path fill="none" stroke="midnightblue" d="M1271.69,-169.148C1302.61,-176.468 1350.04,-187.697 1378.34,-194.398"/>
<polygon fill="midnightblue" stroke="midnightblue" points="1377.64,-197.829 1388.18,-196.727 1379.25,-191.017 1377.64,-197.829"/>
</g>
<!-- Node28 -->
<g id="node28" class="node"><title>Node28</title>
<g id="a_node28"><a xlink:href="../../d8/d91/rounding_8c.html#ab3a64ec72c5600bc114621e93309c8c3" target="_top" xlink:title="int2csd">
<polygon fill="white" stroke="black" points="1379,-114.5 1379,-133.5 1427,-133.5 1427,-114.5 1379,-114.5"/>
<text text-anchor="middle" x="1403" y="-121.5" font-family="Helvetica,sans-Serif" font-size="10.00">int2csd</text>
</a>
</g>
</g>
<!-- Node25&#45;&gt;Node28 -->
<g id="edge30" class="edge"><title>Node25&#45;&gt;Node28</title>
<path fill="none" stroke="midnightblue" d="M1271.69,-154.852C1299.35,-148.304 1340.22,-138.628 1368.79,-131.863"/>
<polygon fill="midnightblue" stroke="midnightblue" points="1369.79,-135.223 1378.71,-129.513 1368.18,-128.412 1369.79,-135.223"/>
</g>
<!-- Node29&#45;&gt;Node27 -->
<g id="edge32" class="edge"><title>Node29&#45;&gt;Node27</title>
<path fill="none" stroke="midnightblue" d="M1268.73,-200C1299.5,-200 1349.09,-200 1378.32,-200"/>
<polygon fill="midnightblue" stroke="midnightblue" points="1378.44,-203.5 1388.44,-200 1378.44,-196.5 1378.44,-203.5"/>
</g>
<!-- Node32 -->
<g id="node32" class="node"><title>Node32</title>
<g id="a_node32"><a xlink:href="../../d9/df5/Logger_8cpp.html#ada38bf01d6d691de953ed69268ea6516" target="_top" xlink:title="errToStr">
<polygon fill="white" stroke="black" points="1377,-532.5 1377,-551.5 1429,-551.5 1429,-532.5 1377,-532.5"/>
<text text-anchor="middle" x="1403" y="-539.5" font-family="Helvetica,sans-Serif" font-size="10.00">errToStr</text>
</a>
</g>
</g>
<!-- Node31&#45;&gt;Node32 -->
<g id="edge35" class="edge"><title>Node31&#45;&gt;Node32</title>
<path fill="none" stroke="midnightblue" d="M1286.21,-542C1311.63,-542 1343.01,-542 1366.68,-542"/>
<polygon fill="midnightblue" stroke="midnightblue" points="1366.97,-545.5 1376.97,-542 1366.97,-538.5 1366.97,-545.5"/>
</g>
<!-- Node34 -->
<g id="node34" class="node"><title>Node34</title>
<g id="a_node34"><a xlink:href="../../db/d33/classLMS__Programing__wxgui.html#a60df7bf68dc5716a6d6967b1f30e27c8" target="_top" xlink:title="LMS_Programing_wxgui\l::DoProgramming">
<polygon fill="white" stroke="black" points="531,-491 531,-521 653,-521 653,-491 531,-491"/>
<text text-anchor="start" x="539" y="-509" font-family="Helvetica,sans-Serif" font-size="10.00">LMS_Programing_wxgui</text>
<text text-anchor="middle" x="592" y="-498" font-family="Helvetica,sans-Serif" font-size="10.00">::DoProgramming</text>
</a>
</g>
</g>
<!-- Node33&#45;&gt;Node34 -->
<g id="edge38" class="edge"><title>Node33&#45;&gt;Node34</title>
<path fill="none" stroke="midnightblue" d="M495.07,-504.871C503.594,-504.972 512.267,-505.074 520.739,-505.173"/>
<polygon fill="midnightblue" stroke="midnightblue" points="520.908,-508.676 530.949,-505.294 520.99,-501.676 520.908,-508.676"/>
</g>
<!-- Node41 -->
<g id="node41" class="node"><title>Node41</title>
<g id="a_node41"><a xlink:href="../../db/d33/classLMS__Programing__wxgui.html#a3938bb067849fe84d73828f9ab3df3c3" target="_top" xlink:title="LMS_Programing_wxgui\l::OnAbortProgramming">
<polygon fill="white" stroke="black" points="531,-442 531,-472 653,-472 653,-442 531,-442"/>
<text text-anchor="start" x="539" y="-460" font-family="Helvetica,sans-Serif" font-size="10.00">LMS_Programing_wxgui</text>
<text text-anchor="middle" x="592" y="-449" font-family="Helvetica,sans-Serif" font-size="10.00">::OnAbortProgramming</text>
</a>
</g>
</g>
<!-- Node33&#45;&gt;Node41 -->
<g id="edge51" class="edge"><title>Node33&#45;&gt;Node41</title>
<path fill="none" stroke="midnightblue" d="M475.256,-489C491.665,-484.463 509.839,-479.439 526.831,-474.741"/>
<polygon fill="midnightblue" stroke="midnightblue" points="527.97,-478.057 536.676,-472.019 526.105,-471.31 527.97,-478.057"/>
</g>
<!-- Node35 -->
<g id="node35" class="node"><title>Node35</title>
<g id="a_node35"><a xlink:href="../../df/de1/lms7__api_8cpp.html#a1f9be91569904f87e02b61153f8f24c3" target="_top" xlink:title="LMS_Program">
<polygon fill="white" stroke="black" points="715,-444.5 715,-463.5 794,-463.5 794,-444.5 715,-444.5"/>
<text text-anchor="middle" x="754.5" y="-451.5" font-family="Helvetica,sans-Serif" font-size="10.00">LMS_Program</text>
</a>
</g>
</g>
<!-- Node34&#45;&gt;Node35 -->
<g id="edge39" class="edge"><title>Node34&#45;&gt;Node35</title>
<path fill="none" stroke="midnightblue" d="M639.423,-490.959C663.134,-483.278 691.666,-474.033 714.264,-466.712"/>
<polygon fill="midnightblue" stroke="midnightblue" points="715.437,-470.011 723.872,-463.599 713.28,-463.352 715.437,-470.011"/>
</g>
<!-- Node40 -->
<g id="node40" class="node"><title>Node40</title>
<g id="a_node40"><a xlink:href="../../db/d33/classLMS__Programing__wxgui.html#ad2cddcd8b574192fba7d3f9f2a4156de" target="_top" xlink:title="LMS_Programing_wxgui\l::OnProgrammingCallback">
<polygon fill="white" stroke="black" points="689,-491 689,-521 820,-521 820,-491 689,-491"/>
<text text-anchor="start" x="697" y="-509" font-family="Helvetica,sans-Serif" font-size="10.00">LMS_Programing_wxgui</text>
<text text-anchor="middle" x="754.5" y="-498" font-family="Helvetica,sans-Serif" font-size="10.00">::OnProgrammingCallback</text>
</a>
</g>
</g>
<!-- Node34&#45;&gt;Node40 -->
<g id="edge50" class="edge"><title>Node34&#45;&gt;Node40</title>
<path fill="none" stroke="midnightblue" d="M653.221,-506C661.596,-506 670.282,-506 678.882,-506"/>
<polygon fill="midnightblue" stroke="midnightblue" points="678.913,-509.5 688.913,-506 678.913,-502.5 678.913,-509.5"/>
</g>
<!-- Node35&#45;&gt;Node11 -->
<g id="edge40" class="edge"><title>Node35&#45;&gt;Node11</title>
<path fill="none" stroke="midnightblue" d="M774.213,-444.419C814.747,-423.858 913.949,-374.565 1000,-340 1017.03,-333.16 1036.63,-326.522 1051.73,-321.665"/>
<polygon fill="midnightblue" stroke="midnightblue" points="1052.9,-324.965 1061.37,-318.606 1050.78,-318.293 1052.9,-324.965"/>
</g>
<!-- Node35&#45;&gt;Node31 -->
<g id="edge49" class="edge"><title>Node35&#45;&gt;Node31</title>
<path fill="none" stroke="midnightblue" d="M788.026,-463.577C834.597,-476.954 923.147,-501.144 1000,-515 1062.86,-526.333 1135.9,-533.75 1184.64,-537.892"/>
<polygon fill="midnightblue" stroke="midnightblue" points="1184.41,-541.385 1194.66,-538.727 1184.99,-534.409 1184.41,-541.385"/>
</g>
<!-- Node36 -->
<g id="node36" class="node"><title>Node36</title>
<g id="a_node36"><a xlink:href="../../d3/d22/classlime_1_1LMS7__Device.html#ae5b3dcdfed80de7f5969fccc36b9c88b" target="_top" xlink:title="lime::LMS7_Device::\lProgram">
<polygon fill="white" stroke="black" points="856,-426 856,-456 964,-456 964,-426 856,-426"/>
<text text-anchor="start" x="864" y="-444" font-family="Helvetica,sans-Serif" font-size="10.00">lime::LMS7_Device::</text>
<text text-anchor="middle" x="910" y="-433" font-family="Helvetica,sans-Serif" font-size="10.00">Program</text>
</a>
</g>
</g>
<!-- Node35&#45;&gt;Node36 -->
<g id="edge41" class="edge"><title>Node35&#45;&gt;Node36</title>
<path fill="none" stroke="midnightblue" d="M794.235,-450.72C809.826,-449.399 828.217,-447.842 845.655,-446.365"/>
<polygon fill="midnightblue" stroke="midnightblue" points="846.115,-449.838 855.784,-445.507 845.525,-442.863 846.115,-449.838"/>
</g>
<!-- Node36&#45;&gt;Node11 -->
<g id="edge47" class="edge"><title>Node36&#45;&gt;Node11</title>
<path fill="none" stroke="midnightblue" d="M920.62,-425.751C935.217,-403.789 964.998,-363.337 1000,-340 1015.55,-329.631 1035.64,-323.012 1051.33,-319.049"/>
<polygon fill="midnightblue" stroke="midnightblue" points="1052.43,-322.387 1061.38,-316.716 1050.84,-315.568 1052.43,-322.387"/>
</g>
<!-- Node36&#45;&gt;Node31 -->
<g id="edge42" class="edge"><title>Node36&#45;&gt;Node31</title>
<path fill="none" stroke="midnightblue" d="M964.183,-444.245C1025.97,-448.805 1123.49,-458.68 1155,-477 1177.44,-490.048 1170.18,-507.495 1191,-523 1193.46,-524.831 1196.12,-526.511 1198.88,-528.047"/>
<polygon fill="midnightblue" stroke="midnightblue" points="1197.42,-531.226 1207.94,-532.472 1200.49,-524.937 1197.42,-531.226"/>
</g>
<!-- Node37 -->
<g id="node37" class="node"><title>Node37</title>
<g id="a_node37"><a xlink:href="../../d2/de5/classlime_1_1IConnection.html#a2df4c866684ed9828976fb37be1b0862" target="_top" xlink:title="lime::IConnection::\lProgramUpdate">
<polygon fill="white" stroke="black" points="1028,-399 1028,-429 1127,-429 1127,-399 1028,-399"/>
<text text-anchor="start" x="1036" y="-417" font-family="Helvetica,sans-Serif" font-size="10.00">lime::IConnection::</text>
<text text-anchor="middle" x="1077.5" y="-406" font-family="Helvetica,sans-Serif" font-size="10.00">ProgramUpdate</text>
</a>
</g>
</g>
<!-- Node36&#45;&gt;Node37 -->
<g id="edge43" class="edge"><title>Node36&#45;&gt;Node37</title>
<path fill="none" stroke="midnightblue" d="M964.276,-432.308C981.338,-429.525 1000.32,-426.428 1017.75,-423.584"/>
<polygon fill="midnightblue" stroke="midnightblue" points="1018.5,-427.008 1027.81,-421.943 1017.38,-420.099 1018.5,-427.008"/>
</g>
<!-- Node38 -->
<g id="node38" class="node"><title>Node38</title>
<g id="a_node38"><a xlink:href="../../d2/de5/classlime_1_1IConnection.html#adf4ca97b70925ee50e955187f7811fb2" target="_top" xlink:title="Uploads program to selected device. ">
<polygon fill="white" stroke="black" points="1028,-350 1028,-380 1127,-380 1127,-350 1028,-350"/>
<text text-anchor="start" x="1036" y="-368" font-family="Helvetica,sans-Serif" font-size="10.00">lime::IConnection::</text>
<text text-anchor="middle" x="1077.5" y="-357" font-family="Helvetica,sans-Serif" font-size="10.00">ProgramWrite</text>
</a>
</g>
</g>
<!-- Node36&#45;&gt;Node38 -->
<g id="edge45" class="edge"><title>Node36&#45;&gt;Node38</title>
<path fill="none" stroke="midnightblue" d="M934.48,-425.775C952.035,-414.836 976.89,-400.268 1000,-390 1005.78,-387.431 1011.91,-384.989 1018.09,-382.709"/>
<polygon fill="midnightblue" stroke="midnightblue" points="1019.53,-385.91 1027.78,-379.264 1017.19,-379.314 1019.53,-385.91"/>
</g>
<!-- Node39 -->
<g id="node39" class="node"><title>Node39</title>
<g id="a_node39"><a xlink:href="../../d8/d9c/classlime_1_1MCU__BD.html#a725c7209bf1f88302539353da14f1fcc" target="_top" xlink:title="Upload program code from memory into MCU. ">
<polygon fill="white" stroke="black" points="1000,-486.5 1000,-505.5 1155,-505.5 1155,-486.5 1000,-486.5"/>
<text text-anchor="middle" x="1077.5" y="-493.5" font-family="Helvetica,sans-Serif" font-size="10.00">lime::MCU_BD::Program_MCU</text>
</a>
</g>
</g>
<!-- Node36&#45;&gt;Node39 -->
<g id="edge48" class="edge"><title>Node36&#45;&gt;Node39</title>
<path fill="none" stroke="midnightblue" d="M953.462,-456.093C968.167,-461.239 984.777,-466.962 1000,-472 1011.45,-475.788 1023.91,-479.761 1035.38,-483.359"/>
<polygon fill="midnightblue" stroke="midnightblue" points="1034.58,-486.774 1045.16,-486.411 1036.66,-480.091 1034.58,-486.774"/>
</g>
<!-- Node37&#45;&gt;Node31 -->
<g id="edge44" class="edge"><title>Node37&#45;&gt;Node31</title>
<path fill="none" stroke="midnightblue" d="M1127.1,-426.577C1137.19,-430.869 1147.13,-436.543 1155,-444 1183.01,-470.539 1162.99,-496.466 1191,-523 1192.65,-524.566 1194.45,-526.008 1196.35,-527.336"/>
<polygon fill="midnightblue" stroke="midnightblue" points="1194.76,-530.461 1205.17,-532.446 1198.27,-524.404 1194.76,-530.461"/>
</g>
<!-- Node38&#45;&gt;Node31 -->
<g id="edge46" class="edge"><title>Node38&#45;&gt;Node31</title>
<path fill="none" stroke="midnightblue" d="M1127.14,-372.99C1137.46,-376.69 1147.49,-382.098 1155,-390 1197.17,-434.403 1150.12,-477.403 1191,-523 1192.2,-524.342 1193.51,-525.591 1194.91,-526.752"/>
<polygon fill="midnightblue" stroke="midnightblue" points="1193.35,-529.916 1203.62,-532.493 1197.2,-524.07 1193.35,-529.916"/>
</g>
<!-- Node43&#45;&gt;Node33 -->
<g id="edge55" class="edge"><title>Node43&#45;&gt;Node33</title>
<path fill="none" stroke="midnightblue" d="M297.685,-493.974C309.573,-494.956 322.253,-496.004 334.766,-497.039"/>
<polygon fill="midnightblue" stroke="midnightblue" points="334.494,-500.528 344.748,-497.864 335.071,-493.552 334.494,-500.528"/>
</g>
<!-- Node43&#45;&gt;Node41 -->
<g id="edge54" class="edge"><title>Node43&#45;&gt;Node41</title>
<path fill="none" stroke="midnightblue" d="M297.867,-483.535C359.637,-477.944 455.545,-469.262 520.699,-463.364"/>
<polygon fill="midnightblue" stroke="midnightblue" points="521.238,-466.829 530.882,-462.442 520.607,-459.858 521.238,-466.829"/>
</g>
</g>
</svg>
        <g id="navigator" transform="translate(0 0)" fill="#404254">
                <rect fill="#f2f5e9" fill-opacity="0.5" stroke="#606060" stroke-width=".5" x="0" y="0" width="60" height="60"/>
                <use id="zoomplus" xlink:href="#zoomPlus" x="17" y="9" onmousedown="handleZoom(evt,'in')"/>
                <use id="zoomminus" xlink:href="#zoomMin" x="42" y="9" onmousedown="handleZoom(evt,'out')"/>
                <use id="reset" xlink:href="#resetDef" x="30" y="36" onmousedown="handleReset()"/>
                <g id="arrowUp" xlink:href="#dirArrow" transform="translate(30 24)" onmousedown="handlePan(0,-1)">
                  <use xlink:href="#rim" fill="#404040">
                        <set attributeName="fill" to="#808080" begin="arrowUp.mouseover" end="arrowUp.mouseout"/>
                  </use>
                  <path fill="none" stroke="white" stroke-width="1.5" d="M0,-3.0v7 M-2.5,-0.5L0,-3.0L2.5,-0.5"/>
                </g>
                <g id="arrowRight" xlink:href="#dirArrow" transform="rotate(90) translate(36 -43)" onmousedown="handlePan(1,0)">
                  <use xlink:href="#rim" fill="#404040">
                        <set attributeName="fill" to="#808080" begin="arrowRight.mouseover" end="arrowRight.mouseout"/>
                  </use>
                  <path fill="none" stroke="white" stroke-width="1.5" d="M0,-3.0v7 M-2.5,-0.5L0,-3.0L2.5,-0.5"/>
                </g>
                <g id="arrowDown" xlink:href="#dirArrow" transform="rotate(180) translate(-30 -48)" onmousedown="handlePan(0,1)">
                  <use xlink:href="#rim" fill="#404040">
                        <set attributeName="fill" to="#808080" begin="arrowDown.mouseover" end="arrowDown.mouseout"/>
                  </use>
                  <path fill="none" stroke="white" stroke-width="1.5" d="M0,-3.0v7 M-2.5,-0.5L0,-3.0L2.5,-0.5"/>
                </g>
                <g id="arrowLeft" xlink:href="#dirArrow" transform="rotate(270) translate(-36 17)" onmousedown="handlePan(-1,0)">
                  <use xlink:href="#rim" fill="#404040">
                        <set attributeName="fill" to="#808080" begin="arrowLeft.mouseover" end="arrowLeft.mouseout"/>
                  </use>
                  <path fill="none" stroke="white" stroke-width="1.5" d="M0,-3.0v7 M-2.5,-0.5L0,-3.0L2.5,-0.5"/>
                </g>
        </g>
        <svg viewBox="0 0 15 15" width="100%" height="30px" preserveAspectRatio="xMaxYMin meet">
         <g id="arrow_out" transform="scale(0.3 0.3)">
          <a xlink:href="classLMS__Programing__wxgui_a9a42815a49ad27193b6d1ac2c4b99f44_cgraph_org.svg" target="_base">
           <rect id="button" ry="5" rx="5" y="6" x="6" height="38" width="38"
                fill="#f2f5e9" fill-opacity="0.5" stroke="#606060" stroke-width="1.0"/>
           <path id="arrow"
             d="M 11.500037,31.436501 C 11.940474,20.09759 22.043105,11.32322 32.158766,21.979434 L 37.068811,17.246167 C 37.068811,17.246167 37.088388,32 37.088388,32 L 22.160133,31.978069 C 22.160133,31.978069 26.997745,27.140456 26.997745,27.140456 C 18.528582,18.264221 13.291696,25.230495 11.500037,31.436501 z"
             style="fill:#404040;"/>
          </a>
         </g>
        </svg>
</svg>
