<?xml version="1.0" encoding="UTF-8" standalone="no"?>
<!DOCTYPE svg PUBLIC "-//W3C//DTD SVG 1.1//EN"
 "http://www.w3.org/Graphics/SVG/1.1/DTD/svg11.dtd">
<!-- Generated by graphviz version 2.38.0 (20140413.2041)
 -->
<!-- Title: /home/erik/prefix/default/src/limesuite&#45;dev/mcu_program/common_src/LMS7002M_parameters_compact.h Pages: 1 -->
<svg width="177pt" height="173pt"
 viewBox="0.00 0.00 177.00 173.00" xmlns="http://www.w3.org/2000/svg" xmlns:xlink="http://www.w3.org/1999/xlink">
<g id="graph0" class="graph" transform="scale(1 1) rotate(0) translate(4 169)">
<title>/home/erik/prefix/default/src/limesuite&#45;dev/mcu_program/common_src/LMS7002M_parameters_compact.h</title>
<polygon fill="white" stroke="none" points="-4,4 -4,-169 173,-169 173,4 -4,4"/>
<!-- Node1 -->
<g id="node1" class="node"><title>Node1</title>
<polygon fill="#bfbfbf" stroke="black" points="-1.42109e-14,-112.5 -1.42109e-14,-164.5 169,-164.5 169,-112.5 -1.42109e-14,-112.5"/>
<text text-anchor="start" x="8" y="-152.5" font-family="Helvetica,sans-Serif" font-size="10.00">/home/erik/prefix/default</text>
<text text-anchor="start" x="8" y="-141.5" font-family="Helvetica,sans-Serif" font-size="10.00">/src/limesuite&#45;dev/mcu</text>
<text text-anchor="start" x="8" y="-130.5" font-family="Helvetica,sans-Serif" font-size="10.00">_program/common_src/LMS7002M</text>
<text text-anchor="middle" x="84.5" y="-119.5" font-family="Helvetica,sans-Serif" font-size="10.00">_parameters_compact.h</text>
</g>
<!-- Node2 -->
<g id="node2" class="node"><title>Node2</title>
<g id="a_node2"><a xlink:href="../../d7/d69/typedefs_8h.html" target="_top" xlink:title="typedefs.h">
<polygon fill="white" stroke="black" points="53.5,-56.5 53.5,-75.5 115.5,-75.5 115.5,-56.5 53.5,-56.5"/>
<text text-anchor="middle" x="84.5" y="-63.5" font-family="Helvetica,sans-Serif" font-size="10.00">typedefs.h</text>
</a>
</g>
</g>
<!-- Node1&#45;&gt;Node2 -->
<g id="edge1" class="edge"><title>Node1&#45;&gt;Node2</title>
<path fill="none" stroke="midnightblue" d="M84.5,-112.446C84.5,-103.73 84.5,-94.1045 84.5,-85.9641"/>
<polygon fill="midnightblue" stroke="midnightblue" points="88.0001,-85.6954 84.5,-75.6955 81.0001,-85.6955 88.0001,-85.6954"/>
</g>
<!-- Node3 -->
<g id="node3" class="node"><title>Node3</title>
<polygon fill="white" stroke="#bfbfbf" points="25,-0.5 25,-19.5 74,-19.5 74,-0.5 25,-0.5"/>
<text text-anchor="middle" x="49.5" y="-7.5" font-family="Helvetica,sans-Serif" font-size="10.00">stdint.h</text>
</g>
<!-- Node2&#45;&gt;Node3 -->
<g id="edge2" class="edge"><title>Node2&#45;&gt;Node3</title>
<path fill="none" stroke="midnightblue" d="M78.7205,-56.083C73.8276,-48.5341 66.6726,-37.4948 60.6674,-28.2298"/>
<polygon fill="midnightblue" stroke="midnightblue" points="63.548,-26.239 55.172,-19.7511 57.674,-30.0463 63.548,-26.239"/>
</g>
<!-- Node4 -->
<g id="node4" class="node"><title>Node4</title>
<polygon fill="white" stroke="#bfbfbf" points="92.5,-0.5 92.5,-19.5 148.5,-19.5 148.5,-0.5 92.5,-0.5"/>
<text text-anchor="middle" x="120.5" y="-7.5" font-family="Helvetica,sans-Serif" font-size="10.00">stdbool.h</text>
</g>
<!-- Node2&#45;&gt;Node4 -->
<g id="edge3" class="edge"><title>Node2&#45;&gt;Node4</title>
<path fill="none" stroke="midnightblue" d="M90.4447,-56.083C95.4773,-48.5341 102.837,-37.4948 109.013,-28.2298"/>
<polygon fill="midnightblue" stroke="midnightblue" points="112.031,-30.0131 114.666,-19.7511 106.207,-26.1301 112.031,-30.0131"/>
</g>
</g>
</svg>
