<?xml version="1.0" encoding="UTF-8" standalone="no"?>
<!DOCTYPE svg PUBLIC "-//W3C//DTD SVG 1.1//EN"
 "http://www.w3.org/Graphics/SVG/1.1/DTD/svg11.dtd">
<!-- Generated by graphviz version 2.38.0 (20140413.2041)
 -->
<!-- Title: /home/erik/prefix/default/src/limesuite&#45;dev/src/FPGA_common/FPGA_common.h Pages: 1 -->
<!--zoomable 217 -->
<svg id="main" version="1.1" xmlns="http://www.w3.org/2000/svg" xmlns:xlink="http://www.w3.org/1999/xlink" xml:space="preserve" onload="init(evt)">
<style type="text/css"><![CDATA[
.edge:hover path { stroke: red; }
.edge:hover polygon { stroke: red; fill: red; }
]]></style>
<script type="text/javascript"><![CDATA[
var edges = document.getElementsByTagName('g');
if (edges && edges.length) {
  for (var i=0;i<edges.length;i++) {
    if (edges[i].id.substr(0,4)=='edge') {
      edges[i].setAttribute('class','edge');
    }
  }
}
]]></script>
        <defs>
                <circle id="rim" cx="0" cy="0" r="7"/>
                <circle id="rim2" cx="0" cy="0" r="3.5"/>
                <g id="zoomPlus">
                        <use xlink:href="#rim" fill="#404040">
                                <set attributeName="fill" to="#808080" begin="zoomplus.mouseover" end="zoomplus.mouseout"/>
                        </use>
                        <path d="M-4,0h8M0,-4v8" fill="none" stroke="white" stroke-width="1.5" pointer-events="none"/>
                </g>
                <g id="zoomMin">
                        <use xlink:href="#rim" fill="#404040">
                                <set attributeName="fill" to="#808080" begin="zoomminus.mouseover" end="zoomminus.mouseout"/>
                        </use>
                        <path d="M-4,0h8" fill="none" stroke="white" stroke-width="1.5" pointer-events="none"/>
                </g>
                <g id="dirArrow">
                        <path fill="none" stroke="white" stroke-width="1.5" d="M0,-3.0v7 M-2.5,-0.5L0,-3.0L2.5,-0.5"/>
                </g>
               <g id="resetDef">
                       <use xlink:href="#rim2" fill="#404040">
                               <set attributeName="fill" to="#808080" begin="reset.mouseover" end="reset.mouseout"/>
                       </use>
               </g>
        </defs>

<script type="text/javascript">
var viewWidth = 2217;
var viewHeight = 217;
var sectionId = 'dynsection-1';
</script>
<script xlink:href="../../svgpan.js"/>
<svg id="graph" class="graph">
<g id="viewport">
<title>/home/erik/prefix/default/src/limesuite&#45;dev/src/FPGA_common/FPGA_common.h</title>
<polygon fill="white" stroke="none" points="-4,4 -4,-213 2213,-213 2213,4 -4,4"/>
<!-- Node1 -->
<g id="node1" class="node"><title>Node1</title>
<polygon fill="#bfbfbf" stroke="black" points="1009,-167.5 1009,-208.5 1179,-208.5 1179,-167.5 1009,-167.5"/>
<text text-anchor="start" x="1017" y="-196.5" font-family="Helvetica,sans-Serif" font-size="10.00">/home/erik/prefix/default</text>
<text text-anchor="start" x="1017" y="-185.5" font-family="Helvetica,sans-Serif" font-size="10.00">/src/limesuite&#45;dev/src</text>
<text text-anchor="middle" x="1094" y="-174.5" font-family="Helvetica,sans-Serif" font-size="10.00">/FPGA_common/FPGA_common.h</text>
</g>
<!-- Node2 -->
<g id="node2" class="node"><title>Node2</title>
<g id="a_node2"><a xlink:href="../../d7/d8e/LimeSDR_8cpp.html" target="_top" xlink:title="/home/erik/prefix/default\l/src/limesuite&#45;dev/src\l/API/LimeSDR.cpp">
<polygon fill="white" stroke="black" points="0,-84 0,-125 122,-125 122,-84 0,-84"/>
<text text-anchor="start" x="8" y="-113" font-family="Helvetica,sans-Serif" font-size="10.00">/home/erik/prefix/default</text>
<text text-anchor="start" x="8" y="-102" font-family="Helvetica,sans-Serif" font-size="10.00">/src/limesuite&#45;dev/src</text>
<text text-anchor="middle" x="61" y="-91" font-family="Helvetica,sans-Serif" font-size="10.00">/API/LimeSDR.cpp</text>
</a>
</g>
</g>
<!-- Node1&#45;&gt;Node2 -->
<g id="edge1" class="edge"><title>Node1&#45;&gt;Node2</title>
<path fill="none" stroke="midnightblue" d="M998.61,-184.977C789.179,-179.961 294.785,-164.835 131,-131 123.78,-129.508 116.305,-127.417 109.046,-125.067"/>
<polygon fill="midnightblue" stroke="midnightblue" points="998.588,-188.477 1008.67,-185.215 998.754,-181.479 998.588,-188.477"/>
</g>
<!-- Node3 -->
<g id="node3" class="node"><title>Node3</title>
<g id="a_node3"><a xlink:href="../../d4/d65/lms7__device_8cpp.html" target="_top" xlink:title="/home/erik/prefix/default\l/src/limesuite&#45;dev/src\l/API/lms7_device.cpp">
<polygon fill="white" stroke="black" points="140,-84 140,-125 262,-125 262,-84 140,-84"/>
<text text-anchor="start" x="148" y="-113" font-family="Helvetica,sans-Serif" font-size="10.00">/home/erik/prefix/default</text>
<text text-anchor="start" x="148" y="-102" font-family="Helvetica,sans-Serif" font-size="10.00">/src/limesuite&#45;dev/src</text>
<text text-anchor="middle" x="201" y="-91" font-family="Helvetica,sans-Serif" font-size="10.00">/API/lms7_device.cpp</text>
</a>
</g>
</g>
<!-- Node1&#45;&gt;Node3 -->
<g id="edge2" class="edge"><title>Node1&#45;&gt;Node3</title>
<path fill="none" stroke="midnightblue" d="M998.755,-183.882C812.748,-177.238 407.457,-159.891 271,-131 263.787,-129.473 256.316,-127.362 249.06,-125.002"/>
<polygon fill="midnightblue" stroke="midnightblue" points="998.678,-187.381 1008.8,-184.237 998.926,-180.385 998.678,-187.381"/>
</g>
<!-- Node4 -->
<g id="node4" class="node"><title>Node4</title>
<g id="a_node4"><a xlink:href="../../d7/d36/LmsGeneric_8cpp.html" target="_top" xlink:title="/home/erik/prefix/default\l/src/limesuite&#45;dev/src\l/API/LmsGeneric.cpp">
<polygon fill="white" stroke="black" points="280,-84 280,-125 402,-125 402,-84 280,-84"/>
<text text-anchor="start" x="288" y="-113" font-family="Helvetica,sans-Serif" font-size="10.00">/home/erik/prefix/default</text>
<text text-anchor="start" x="288" y="-102" font-family="Helvetica,sans-Serif" font-size="10.00">/src/limesuite&#45;dev/src</text>
<text text-anchor="middle" x="341" y="-91" font-family="Helvetica,sans-Serif" font-size="10.00">/API/LmsGeneric.cpp</text>
</a>
</g>
</g>
<!-- Node1&#45;&gt;Node4 -->
<g id="edge3" class="edge"><title>Node1&#45;&gt;Node4</title>
<path fill="none" stroke="midnightblue" d="M998.809,-187.025C865.922,-185.293 617.95,-175.622 412,-131 404.832,-129.447 397.402,-127.353 390.169,-125.029"/>
<polygon fill="midnightblue" stroke="midnightblue" points="998.917,-190.526 1008.96,-187.144 999,-183.527 998.917,-190.526"/>
</g>
<!-- Node5 -->
<g id="node5" class="node"><title>Node5</title>
<g id="a_node5"><a xlink:href="../../d3/d3f/pnlQSpark_8cpp.html" target="_top" xlink:title="/home/erik/prefix/default\l/src/limesuite&#45;dev/src\l/boards_wxgui/pnlQSpark.cpp">
<polygon fill="white" stroke="black" points="420.5,-84 420.5,-125 567.5,-125 567.5,-84 420.5,-84"/>
<text text-anchor="start" x="428.5" y="-113" font-family="Helvetica,sans-Serif" font-size="10.00">/home/erik/prefix/default</text>
<text text-anchor="start" x="428.5" y="-102" font-family="Helvetica,sans-Serif" font-size="10.00">/src/limesuite&#45;dev/src</text>
<text text-anchor="middle" x="494" y="-91" font-family="Helvetica,sans-Serif" font-size="10.00">/boards_wxgui/pnlQSpark.cpp</text>
</a>
</g>
</g>
<!-- Node1&#45;&gt;Node5 -->
<g id="edge4" class="edge"><title>Node1&#45;&gt;Node5</title>
<path fill="none" stroke="midnightblue" d="M998.402,-182.1C893.996,-175.486 722.27,-160.9 577,-131 569.027,-129.359 560.724,-127.276 552.586,-125.01"/>
<polygon fill="midnightblue" stroke="midnightblue" points="998.407,-185.607 1008.6,-182.734 998.841,-178.62 998.407,-185.607"/>
</g>
<!-- Node6 -->
<g id="node6" class="node"><title>Node6</title>
<g id="a_node6"><a xlink:href="../../d6/d90/ConnectionFT601_8cpp.html" target="_top" xlink:title="/home/erik/prefix/default\l/src/limesuite&#45;dev/src\l/ConnectionFTDI/ConnectionFT601.cpp">
<polygon fill="white" stroke="black" points="585.5,-84 585.5,-125 776.5,-125 776.5,-84 585.5,-84"/>
<text text-anchor="start" x="593.5" y="-113" font-family="Helvetica,sans-Serif" font-size="10.00">/home/erik/prefix/default</text>
<text text-anchor="start" x="593.5" y="-102" font-family="Helvetica,sans-Serif" font-size="10.00">/src/limesuite&#45;dev/src</text>
<text text-anchor="middle" x="681" y="-91" font-family="Helvetica,sans-Serif" font-size="10.00">/ConnectionFTDI/ConnectionFT601.cpp</text>
</a>
</g>
</g>
<!-- Node1&#45;&gt;Node6 -->
<g id="edge5" class="edge"><title>Node1&#45;&gt;Node6</title>
<path fill="none" stroke="midnightblue" d="M998.764,-171.162C937.764,-160.654 857.01,-146.065 786,-131 777.283,-129.151 768.187,-127.11 759.151,-125.012"/>
<polygon fill="midnightblue" stroke="midnightblue" points="998.315,-174.636 1008.76,-172.879 999.499,-167.737 998.315,-174.636"/>
</g>
<!-- Node7 -->
<g id="node7" class="node"><title>Node7</title>
<g id="a_node7"><a xlink:href="../../dc/d59/ConnectionFX3_8cpp.html" target="_top" xlink:title="/home/erik/prefix/default\l/src/limesuite&#45;dev/src\l/ConnectionFX3/ConnectionFX3.cpp">
<polygon fill="white" stroke="black" points="795,-84 795,-125 971,-125 971,-84 795,-84"/>
<text text-anchor="start" x="803" y="-113" font-family="Helvetica,sans-Serif" font-size="10.00">/home/erik/prefix/default</text>
<text text-anchor="start" x="803" y="-102" font-family="Helvetica,sans-Serif" font-size="10.00">/src/limesuite&#45;dev/src</text>
<text text-anchor="middle" x="883" y="-91" font-family="Helvetica,sans-Serif" font-size="10.00">/ConnectionFX3/ConnectionFX3.cpp</text>
</a>
</g>
</g>
<!-- Node1&#45;&gt;Node7 -->
<g id="edge6" class="edge"><title>Node1&#45;&gt;Node7</title>
<path fill="none" stroke="midnightblue" d="M1033.85,-163.766C1002.13,-151.513 963.647,-136.651 933.493,-125.003"/>
<polygon fill="midnightblue" stroke="midnightblue" points="1032.87,-167.14 1043.46,-167.479 1035.39,-160.611 1032.87,-167.14"/>
</g>
<!-- Node8 -->
<g id="node8" class="node"><title>Node8</title>
<g id="a_node8"><a xlink:href="../../dc/d8d/ConnectionXillybus_8cpp.html" target="_top" xlink:title="/home/erik/prefix/default\l/src/limesuite&#45;dev/src\l/ConnectionXillybus/ConnectionXillybus.cpp">
<polygon fill="white" stroke="black" points="989.5,-84 989.5,-125 1198.5,-125 1198.5,-84 989.5,-84"/>
<text text-anchor="start" x="997.5" y="-113" font-family="Helvetica,sans-Serif" font-size="10.00">/home/erik/prefix/default</text>
<text text-anchor="start" x="997.5" y="-102" font-family="Helvetica,sans-Serif" font-size="10.00">/src/limesuite&#45;dev/src</text>
<text text-anchor="middle" x="1094" y="-91" font-family="Helvetica,sans-Serif" font-size="10.00">/ConnectionXillybus/ConnectionXillybus.cpp</text>
</a>
</g>
</g>
<!-- Node1&#45;&gt;Node8 -->
<g id="edge7" class="edge"><title>Node1&#45;&gt;Node8</title>
<path fill="none" stroke="midnightblue" d="M1094,-157.065C1094,-146.382 1094,-134.63 1094,-125.047"/>
<polygon fill="midnightblue" stroke="midnightblue" points="1090.5,-157.271 1094,-167.271 1097.5,-157.271 1090.5,-157.271"/>
</g>
<!-- Node9 -->
<g id="node9" class="node"><title>Node9</title>
<g id="a_node9"><a xlink:href="../../dc/dc0/FPGA__common_8cpp.html" target="_top" xlink:title="/home/erik/prefix/default\l/src/limesuite&#45;dev/src\l/FPGA_common/FPGA_common.cpp">
<polygon fill="white" stroke="black" points="1216.5,-84 1216.5,-125 1397.5,-125 1397.5,-84 1216.5,-84"/>
<text text-anchor="start" x="1224.5" y="-113" font-family="Helvetica,sans-Serif" font-size="10.00">/home/erik/prefix/default</text>
<text text-anchor="start" x="1224.5" y="-102" font-family="Helvetica,sans-Serif" font-size="10.00">/src/limesuite&#45;dev/src</text>
<text text-anchor="middle" x="1307" y="-91" font-family="Helvetica,sans-Serif" font-size="10.00">/FPGA_common/FPGA_common.cpp</text>
</a>
</g>
</g>
<!-- Node1&#45;&gt;Node9 -->
<g id="edge8" class="edge"><title>Node1&#45;&gt;Node9</title>
<path fill="none" stroke="midnightblue" d="M1154.72,-163.766C1186.74,-151.513 1225.59,-136.651 1256.03,-125.003"/>
<polygon fill="midnightblue" stroke="midnightblue" points="1153.11,-160.636 1145.02,-167.479 1155.61,-167.174 1153.11,-160.636"/>
</g>
<!-- Node10 -->
<g id="node10" class="node"><title>Node10</title>
<g id="a_node10"><a xlink:href="../../d8/d8f/FPGA__Mini_8h.html" target="_top" xlink:title="/home/erik/prefix/default\l/src/limesuite&#45;dev/src\l/FPGA_common/FPGA_Mini.h">
<polygon fill="white" stroke="black" points="1415.5,-84 1415.5,-125 1566.5,-125 1566.5,-84 1415.5,-84"/>
<text text-anchor="start" x="1423.5" y="-113" font-family="Helvetica,sans-Serif" font-size="10.00">/home/erik/prefix/default</text>
<text text-anchor="start" x="1423.5" y="-102" font-family="Helvetica,sans-Serif" font-size="10.00">/src/limesuite&#45;dev/src</text>
<text text-anchor="middle" x="1491" y="-91" font-family="Helvetica,sans-Serif" font-size="10.00">/FPGA_common/FPGA_Mini.h</text>
</a>
</g>
</g>
<!-- Node1&#45;&gt;Node10 -->
<g id="edge9" class="edge"><title>Node1&#45;&gt;Node10</title>
<path fill="none" stroke="midnightblue" d="M1189.46,-172.912C1251.77,-162.983 1334.67,-148.384 1407,-131 1414.41,-129.219 1422.13,-127.161 1429.75,-125.002"/>
<polygon fill="midnightblue" stroke="midnightblue" points="1188.58,-169.507 1179.25,-174.526 1189.67,-176.421 1188.58,-169.507"/>
</g>
<!-- Node13 -->
<g id="node13" class="node"><title>Node13</title>
<g id="a_node13"><a xlink:href="../../df/d28/FPGA__Q_8h.html" target="_top" xlink:title="/home/erik/prefix/default\l/src/limesuite&#45;dev/src\l/FPGA_common/FPGA_Q.h">
<polygon fill="white" stroke="black" points="1585,-84 1585,-125 1725,-125 1725,-84 1585,-84"/>
<text text-anchor="start" x="1593" y="-113" font-family="Helvetica,sans-Serif" font-size="10.00">/home/erik/prefix/default</text>
<text text-anchor="start" x="1593" y="-102" font-family="Helvetica,sans-Serif" font-size="10.00">/src/limesuite&#45;dev/src</text>
<text text-anchor="middle" x="1655" y="-91" font-family="Helvetica,sans-Serif" font-size="10.00">/FPGA_common/FPGA_Q.h</text>
</a>
</g>
</g>
<!-- Node1&#45;&gt;Node13 -->
<g id="edge12" class="edge"><title>Node1&#45;&gt;Node13</title>
<path fill="none" stroke="midnightblue" d="M1189.46,-181.46C1287.36,-174.487 1443.62,-159.763 1576,-131 1583.46,-129.378 1591.22,-127.335 1598.84,-125.114"/>
<polygon fill="midnightblue" stroke="midnightblue" points="1189.02,-177.982 1179.29,-182.172 1189.51,-184.965 1189.02,-177.982"/>
</g>
<!-- Node16 -->
<g id="node16" class="node"><title>Node16</title>
<g id="a_node16"><a xlink:href="../../d0/d76/lms7002__pnlCLKGEN__view_8cpp.html" target="_top" xlink:title="/home/erik/prefix/default\l/src/limesuite&#45;dev/src\l/lms7002_wxgui/lms7002_pnlCLKGEN\l_view.cpp">
<polygon fill="white" stroke="black" points="1743,-78.5 1743,-130.5 1929,-130.5 1929,-78.5 1743,-78.5"/>
<text text-anchor="start" x="1751" y="-118.5" font-family="Helvetica,sans-Serif" font-size="10.00">/home/erik/prefix/default</text>
<text text-anchor="start" x="1751" y="-107.5" font-family="Helvetica,sans-Serif" font-size="10.00">/src/limesuite&#45;dev/src</text>
<text text-anchor="start" x="1751" y="-96.5" font-family="Helvetica,sans-Serif" font-size="10.00">/lms7002_wxgui/lms7002_pnlCLKGEN</text>
<text text-anchor="middle" x="1836" y="-85.5" font-family="Helvetica,sans-Serif" font-size="10.00">_view.cpp</text>
</a>
</g>
</g>
<!-- Node1&#45;&gt;Node16 -->
<g id="edge15" class="edge"><title>Node1&#45;&gt;Node16</title>
<path fill="none" stroke="midnightblue" d="M1189.52,-183.345C1315.13,-177.467 1542.35,-163.135 1734,-131 1736.88,-130.517 1739.8,-129.995 1742.74,-129.44"/>
<polygon fill="midnightblue" stroke="midnightblue" points="1189,-179.865 1179.17,-183.821 1189.32,-186.858 1189,-179.865"/>
</g>
<!-- Node17 -->
<g id="node17" class="node"><title>Node17</title>
<g id="a_node17"><a xlink:href="../../d3/d01/Streamer_8cpp.html" target="_top" xlink:title="/home/erik/prefix/default\l/src/limesuite&#45;dev/src\l/protocols/Streamer.cpp">
<polygon fill="white" stroke="black" points="1947,-84 1947,-125 2069,-125 2069,-84 1947,-84"/>
<text text-anchor="start" x="1955" y="-113" font-family="Helvetica,sans-Serif" font-size="10.00">/home/erik/prefix/default</text>
<text text-anchor="start" x="1955" y="-102" font-family="Helvetica,sans-Serif" font-size="10.00">/src/limesuite&#45;dev/src</text>
<text text-anchor="middle" x="2008" y="-91" font-family="Helvetica,sans-Serif" font-size="10.00">/protocols/Streamer.cpp</text>
</a>
</g>
</g>
<!-- Node1&#45;&gt;Node17 -->
<g id="edge16" class="edge"><title>Node1&#45;&gt;Node17</title>
<path fill="none" stroke="midnightblue" d="M1189.52,-184.06C1379.28,-177.661 1797.52,-160.619 1938,-131 1945.21,-129.479 1952.69,-127.371 1959.94,-125.013"/>
<polygon fill="midnightblue" stroke="midnightblue" points="1189.16,-180.57 1179.28,-184.402 1189.39,-187.566 1189.16,-180.57"/>
</g>
<!-- Node18 -->
<g id="node18" class="node"><title>Node18</title>
<g id="a_node18"><a xlink:href="../../d4/d8f/pll__sweep_8cpp.html" target="_top" xlink:title="/home/erik/prefix/default\l/src/limesuite&#45;dev/src\l/utilities/pll_sweep.cpp">
<polygon fill="white" stroke="black" points="2087,-84 2087,-125 2209,-125 2209,-84 2087,-84"/>
<text text-anchor="start" x="2095" y="-113" font-family="Helvetica,sans-Serif" font-size="10.00">/home/erik/prefix/default</text>
<text text-anchor="start" x="2095" y="-102" font-family="Helvetica,sans-Serif" font-size="10.00">/src/limesuite&#45;dev/src</text>
<text text-anchor="middle" x="2148" y="-91" font-family="Helvetica,sans-Serif" font-size="10.00">/utilities/pll_sweep.cpp</text>
</a>
</g>
</g>
<!-- Node1&#45;&gt;Node18 -->
<g id="edge17" class="edge"><title>Node1&#45;&gt;Node18</title>
<path fill="none" stroke="midnightblue" d="M1189.5,-185.113C1402.35,-180.33 1910.12,-165.573 2078,-131 2085.22,-129.513 2092.7,-127.424 2099.96,-125.075"/>
<polygon fill="midnightblue" stroke="midnightblue" points="1189.2,-181.618 1179.28,-185.34 1189.36,-188.617 1189.2,-181.618"/>
</g>
<!-- Node11 -->
<g id="node11" class="node"><title>Node11</title>
<g id="a_node11"><a xlink:href="../../dd/d51/LimeSDR__mini_8cpp.html" target="_top" xlink:title="/home/erik/prefix/default\l/src/limesuite&#45;dev/src\l/API/LimeSDR_mini.cpp">
<polygon fill="white" stroke="black" points="1269,-0.5 1269,-41.5 1393,-41.5 1393,-0.5 1269,-0.5"/>
<text text-anchor="start" x="1277" y="-29.5" font-family="Helvetica,sans-Serif" font-size="10.00">/home/erik/prefix/default</text>
<text text-anchor="start" x="1277" y="-18.5" font-family="Helvetica,sans-Serif" font-size="10.00">/src/limesuite&#45;dev/src</text>
<text text-anchor="middle" x="1331" y="-7.5" font-family="Helvetica,sans-Serif" font-size="10.00">/API/LimeSDR_mini.cpp</text>
</a>
</g>
</g>
<!-- Node10&#45;&gt;Node11 -->
<g id="edge10" class="edge"><title>Node10&#45;&gt;Node11</title>
<path fill="none" stroke="midnightblue" d="M1443.51,-79.3105C1419.83,-67.2466 1391.56,-52.8493 1369.29,-41.5031"/>
<polygon fill="midnightblue" stroke="midnightblue" points="1442.18,-82.5585 1452.68,-83.9787 1445.35,-76.3211 1442.18,-82.5585"/>
</g>
<!-- Node12 -->
<g id="node12" class="node"><title>Node12</title>
<g id="a_node12"><a xlink:href="../../df/db8/FPGA__Mini_8cpp.html" target="_top" xlink:title="/home/erik/prefix/default\l/src/limesuite&#45;dev/src\l/FPGA_common/FPGA_Mini.cpp">
<polygon fill="white" stroke="black" points="1411.5,-0.5 1411.5,-41.5 1572.5,-41.5 1572.5,-0.5 1411.5,-0.5"/>
<text text-anchor="start" x="1419.5" y="-29.5" font-family="Helvetica,sans-Serif" font-size="10.00">/home/erik/prefix/default</text>
<text text-anchor="start" x="1419.5" y="-18.5" font-family="Helvetica,sans-Serif" font-size="10.00">/src/limesuite&#45;dev/src</text>
<text text-anchor="middle" x="1492" y="-7.5" font-family="Helvetica,sans-Serif" font-size="10.00">/FPGA_common/FPGA_Mini.cpp</text>
</a>
</g>
</g>
<!-- Node10&#45;&gt;Node12 -->
<g id="edge11" class="edge"><title>Node10&#45;&gt;Node12</title>
<path fill="none" stroke="midnightblue" d="M1491.37,-73.5646C1491.5,-62.8819 1491.64,-51.1303 1491.76,-41.5472"/>
<polygon fill="midnightblue" stroke="midnightblue" points="1487.87,-73.7289 1491.24,-83.7711 1494.86,-73.8149 1487.87,-73.7289"/>
</g>
<!-- Node14 -->
<g id="node14" class="node"><title>Node14</title>
<g id="a_node14"><a xlink:href="../../df/d5c/qLimeSDR_8cpp.html" target="_top" xlink:title="/home/erik/prefix/default\l/src/limesuite&#45;dev/src\l/API/qLimeSDR.cpp">
<polygon fill="white" stroke="black" points="1593,-0.5 1593,-41.5 1715,-41.5 1715,-0.5 1593,-0.5"/>
<text text-anchor="start" x="1601" y="-29.5" font-family="Helvetica,sans-Serif" font-size="10.00">/home/erik/prefix/default</text>
<text text-anchor="start" x="1601" y="-18.5" font-family="Helvetica,sans-Serif" font-size="10.00">/src/limesuite&#45;dev/src</text>
<text text-anchor="middle" x="1654" y="-7.5" font-family="Helvetica,sans-Serif" font-size="10.00">/API/qLimeSDR.cpp</text>
</a>
</g>
</g>
<!-- Node13&#45;&gt;Node14 -->
<g id="edge13" class="edge"><title>Node13&#45;&gt;Node14</title>
<path fill="none" stroke="midnightblue" d="M1654.63,-73.5646C1654.5,-62.8819 1654.36,-51.1303 1654.24,-41.5472"/>
<polygon fill="midnightblue" stroke="midnightblue" points="1651.14,-73.8149 1654.76,-83.7711 1658.13,-73.7289 1651.14,-73.8149"/>
</g>
<!-- Node15 -->
<g id="node15" class="node"><title>Node15</title>
<g id="a_node15"><a xlink:href="../../d6/d3c/FPGA__Q_8cpp.html" target="_top" xlink:title="/home/erik/prefix/default\l/src/limesuite&#45;dev/src\l/FPGA_common/FPGA_Q.cpp">
<polygon fill="white" stroke="black" points="1733.5,-0.5 1733.5,-41.5 1884.5,-41.5 1884.5,-0.5 1733.5,-0.5"/>
<text text-anchor="start" x="1741.5" y="-29.5" font-family="Helvetica,sans-Serif" font-size="10.00">/home/erik/prefix/default</text>
<text text-anchor="start" x="1741.5" y="-18.5" font-family="Helvetica,sans-Serif" font-size="10.00">/src/limesuite&#45;dev/src</text>
<text text-anchor="middle" x="1809" y="-7.5" font-family="Helvetica,sans-Serif" font-size="10.00">/FPGA_common/FPGA_Q.cpp</text>
</a>
</g>
</g>
<!-- Node13&#45;&gt;Node15 -->
<g id="edge14" class="edge"><title>Node13&#45;&gt;Node15</title>
<path fill="none" stroke="midnightblue" d="M1701.01,-79.1502C1723.74,-67.1192 1750.8,-52.7991 1772.15,-41.5031"/>
<polygon fill="midnightblue" stroke="midnightblue" points="1699.09,-76.2076 1691.89,-83.9787 1702.36,-82.3946 1699.09,-76.2076"/>
</g>
</g>
</svg>
        <g id="navigator" transform="translate(0 0)" fill="#404254">
                <rect fill="#f2f5e9" fill-opacity="0.5" stroke="#606060" stroke-width=".5" x="0" y="0" width="60" height="60"/>
                <use id="zoomplus" xlink:href="#zoomPlus" x="17" y="9" onmousedown="handleZoom(evt,'in')"/>
                <use id="zoomminus" xlink:href="#zoomMin" x="42" y="9" onmousedown="handleZoom(evt,'out')"/>
                <use id="reset" xlink:href="#resetDef" x="30" y="36" onmousedown="handleReset()"/>
                <g id="arrowUp" xlink:href="#dirArrow" transform="translate(30 24)" onmousedown="handlePan(0,-1)">
                  <use xlink:href="#rim" fill="#404040">
                        <set attributeName="fill" to="#808080" begin="arrowUp.mouseover" end="arrowUp.mouseout"/>
                  </use>
                  <path fill="none" stroke="white" stroke-width="1.5" d="M0,-3.0v7 M-2.5,-0.5L0,-3.0L2.5,-0.5"/>
                </g>
                <g id="arrowRight" xlink:href="#dirArrow" transform="rotate(90) translate(36 -43)" onmousedown="handlePan(1,0)">
                  <use xlink:href="#rim" fill="#404040">
                        <set attributeName="fill" to="#808080" begin="arrowRight.mouseover" end="arrowRight.mouseout"/>
                  </use>
                  <path fill="none" stroke="white" stroke-width="1.5" d="M0,-3.0v7 M-2.5,-0.5L0,-3.0L2.5,-0.5"/>
                </g>
                <g id="arrowDown" xlink:href="#dirArrow" transform="rotate(180) translate(-30 -48)" onmousedown="handlePan(0,1)">
                  <use xlink:href="#rim" fill="#404040">
                        <set attributeName="fill" to="#808080" begin="arrowDown.mouseover" end="arrowDown.mouseout"/>
                  </use>
                  <path fill="none" stroke="white" stroke-width="1.5" d="M0,-3.0v7 M-2.5,-0.5L0,-3.0L2.5,-0.5"/>
                </g>
                <g id="arrowLeft" xlink:href="#dirArrow" transform="rotate(270) translate(-36 17)" onmousedown="handlePan(-1,0)">
                  <use xlink:href="#rim" fill="#404040">
                        <set attributeName="fill" to="#808080" begin="arrowLeft.mouseover" end="arrowLeft.mouseout"/>
                  </use>
                  <path fill="none" stroke="white" stroke-width="1.5" d="M0,-3.0v7 M-2.5,-0.5L0,-3.0L2.5,-0.5"/>
                </g>
        </g>
        <svg viewBox="0 0 15 15" width="100%" height="30px" preserveAspectRatio="xMaxYMin meet">
         <g id="arrow_out" transform="scale(0.3 0.3)">
          <a xlink:href="FPGA__common_8h__dep__incl_org.svg" target="_base">
           <rect id="button" ry="5" rx="5" y="6" x="6" height="38" width="38"
                fill="#f2f5e9" fill-opacity="0.5" stroke="#606060" stroke-width="1.0"/>
           <path id="arrow"
             d="M 11.500037,31.436501 C 11.940474,20.09759 22.043105,11.32322 32.158766,21.979434 L 37.068811,17.246167 C 37.068811,17.246167 37.088388,32 37.088388,32 L 22.160133,31.978069 C 22.160133,31.978069 26.997745,27.140456 26.997745,27.140456 C 18.528582,18.264221 13.291696,25.230495 11.500037,31.436501 z"
             style="fill:#404040;"/>
          </a>
         </g>
        </svg>
</svg>
