<?xml version="1.0" encoding="UTF-8" standalone="no"?>
<!DOCTYPE svg PUBLIC "-//W3C//DTD SVG 1.1//EN"
 "http://www.w3.org/Graphics/SVG/1.1/DTD/svg11.dtd">
<!-- Generated by graphviz version 2.38.0 (20140413.2041)
 -->
<!-- Title: /home/erik/prefix/default/src/limesuite&#45;dev/src/ConnectionEVB7COM/ConnectionEVB7COMEntry.cpp Pages: 1 -->
<svg width="605pt" height="341pt"
 viewBox="0.00 0.00 605.24 341.00" xmlns="http://www.w3.org/2000/svg" xmlns:xlink="http://www.w3.org/1999/xlink">
<g id="graph0" class="graph" transform="scale(1 1) rotate(0) translate(4 337)">
<title>/home/erik/prefix/default/src/limesuite&#45;dev/src/ConnectionEVB7COM/ConnectionEVB7COMEntry.cpp</title>
<polygon fill="white" stroke="none" points="-4,4 -4,-337 601.24,-337 601.24,4 -4,4"/>
<!-- Node1 -->
<g id="node1" class="node"><title>Node1</title>
<polygon fill="#bfbfbf" stroke="black" points="232.24,-280.5 232.24,-332.5 428.24,-332.5 428.24,-280.5 232.24,-280.5"/>
<text text-anchor="start" x="240.24" y="-320.5" font-family="Helvetica,sans-Serif" font-size="10.00">/home/erik/prefix/default</text>
<text text-anchor="start" x="240.24" y="-309.5" font-family="Helvetica,sans-Serif" font-size="10.00">/src/limesuite&#45;dev/src</text>
<text text-anchor="start" x="240.24" y="-298.5" font-family="Helvetica,sans-Serif" font-size="10.00">/ConnectionEVB7COM/ConnectionEVB7</text>
<text text-anchor="middle" x="330.24" y="-287.5" font-family="Helvetica,sans-Serif" font-size="10.00">COMEntry.cpp</text>
</g>
<!-- Node2 -->
<g id="node2" class="node"><title>Node2</title>
<g id="a_node2"><a xlink:href="../../d5/d1e/ConnectionEVB7COM_8h.html" target="_top" xlink:title="Implementation of EVB7 connection of serial COM port. ">
<polygon fill="white" stroke="black" points="163.74,-224.5 163.74,-243.5 286.74,-243.5 286.74,-224.5 163.74,-224.5"/>
<text text-anchor="middle" x="225.24" y="-231.5" font-family="Helvetica,sans-Serif" font-size="10.00">ConnectionEVB7COM.h</text>
</a>
</g>
</g>
<!-- Node1&#45;&gt;Node2 -->
<g id="edge1" class="edge"><title>Node1&#45;&gt;Node2</title>
<path fill="none" stroke="midnightblue" d="M292.925,-280.446C277.408,-270.027 259.954,-258.308 246.657,-249.38"/>
<polygon fill="midnightblue" stroke="midnightblue" points="248.444,-246.364 238.191,-243.695 244.542,-252.176 248.444,-246.364"/>
</g>
<!-- Node17 -->
<g id="node17" class="node"><title>Node17</title>
<polygon fill="white" stroke="#bfbfbf" points="305.24,-224.5 305.24,-243.5 355.24,-243.5 355.24,-224.5 305.24,-224.5"/>
<text text-anchor="middle" x="330.24" y="-231.5" font-family="Helvetica,sans-Serif" font-size="10.00">fstream</text>
</g>
<!-- Node1&#45;&gt;Node17 -->
<g id="edge25" class="edge"><title>Node1&#45;&gt;Node17</title>
<path fill="none" stroke="midnightblue" d="M330.24,-280.446C330.24,-271.73 330.24,-262.104 330.24,-253.964"/>
<polygon fill="midnightblue" stroke="midnightblue" points="333.74,-253.695 330.24,-243.695 326.74,-253.696 333.74,-253.695"/>
</g>
<!-- Node18 -->
<g id="node18" class="node"><title>Node18</title>
<polygon fill="white" stroke="#bfbfbf" points="373.24,-224.5 373.24,-243.5 427.24,-243.5 427.24,-224.5 373.24,-224.5"/>
<text text-anchor="middle" x="400.24" y="-231.5" font-family="Helvetica,sans-Serif" font-size="10.00">iostream</text>
</g>
<!-- Node1&#45;&gt;Node18 -->
<g id="edge26" class="edge"><title>Node1&#45;&gt;Node18</title>
<path fill="none" stroke="midnightblue" d="M355.117,-280.446C364.865,-270.628 375.759,-259.656 384.401,-250.952"/>
<polygon fill="midnightblue" stroke="midnightblue" points="387.044,-253.258 391.606,-243.695 382.077,-248.326 387.044,-253.258"/>
</g>
<!-- Node3 -->
<g id="node3" class="node"><title>Node3</title>
<g id="a_node3"><a xlink:href="../../dc/d17/ConnectionRegistry_8h.html" target="_top" xlink:title="Registration and access for possible connection types. ">
<polygon fill="white" stroke="black" points="63.7401,-112.5 63.7401,-131.5 174.74,-131.5 174.74,-112.5 63.7401,-112.5"/>
<text text-anchor="middle" x="119.24" y="-119.5" font-family="Helvetica,sans-Serif" font-size="10.00">ConnectionRegistry.h</text>
</a>
</g>
</g>
<!-- Node2&#45;&gt;Node3 -->
<g id="edge2" class="edge"><title>Node2&#45;&gt;Node3</title>
<path fill="none" stroke="midnightblue" d="M216.922,-224.368C199.197,-205.974 157.469,-162.671 134.708,-139.052"/>
<polygon fill="midnightblue" stroke="midnightblue" points="136.978,-136.364 127.519,-131.591 131.938,-141.221 136.978,-136.364"/>
</g>
<!-- Node6 -->
<g id="node6" class="node"><title>Node6</title>
<polygon fill="white" stroke="#bfbfbf" points="7.74014,-0.5 7.74014,-19.5 48.7401,-19.5 48.7401,-0.5 7.74014,-0.5"/>
<text text-anchor="middle" x="28.2401" y="-7.5" font-family="Helvetica,sans-Serif" font-size="10.00">string</text>
</g>
<!-- Node2&#45;&gt;Node6 -->
<g id="edge23" class="edge"><title>Node2&#45;&gt;Node6</title>
<path fill="none" stroke="midnightblue" d="M197.034,-224.472C144.859,-206.861 35.5551,-160.838 2.24014,-76 -4.18484,-59.6386 4.94778,-41.0183 14.1103,-27.9133"/>
<polygon fill="midnightblue" stroke="midnightblue" points="16.9999,-29.8957 20.2676,-19.8173 11.4282,-25.6582 16.9999,-29.8957"/>
</g>
<!-- Node7 -->
<g id="node7" class="node"><title>Node7</title>
<polygon fill="white" stroke="#bfbfbf" points="181.24,-56.5 181.24,-75.5 225.24,-75.5 225.24,-56.5 181.24,-56.5"/>
<text text-anchor="middle" x="203.24" y="-63.5" font-family="Helvetica,sans-Serif" font-size="10.00">vector</text>
</g>
<!-- Node2&#45;&gt;Node7 -->
<g id="edge22" class="edge"><title>Node2&#45;&gt;Node7</title>
<path fill="none" stroke="midnightblue" d="M224.057,-224.075C220.594,-197.945 210.425,-121.211 205.702,-85.577"/>
<polygon fill="midnightblue" stroke="midnightblue" points="209.159,-85.0216 204.376,-75.5681 202.22,-85.9413 209.159,-85.0216"/>
</g>
<!-- Node8 -->
<g id="node8" class="node"><title>Node8</title>
<g id="a_node8"><a xlink:href="../../d3/d1e/IConnection_8h.html" target="_top" xlink:title="Interface class for connection types. ">
<polygon fill="white" stroke="black" points="231.74,-112.5 231.74,-131.5 308.74,-131.5 308.74,-112.5 231.74,-112.5"/>
<text text-anchor="middle" x="270.24" y="-119.5" font-family="Helvetica,sans-Serif" font-size="10.00">IConnection.h</text>
</a>
</g>
</g>
<!-- Node2&#45;&gt;Node8 -->
<g id="edge9" class="edge"><title>Node2&#45;&gt;Node8</title>
<path fill="none" stroke="midnightblue" d="M228.771,-224.368C236.099,-206.456 253.09,-164.923 262.898,-140.948"/>
<polygon fill="midnightblue" stroke="midnightblue" points="266.178,-142.172 266.725,-131.591 259.7,-139.522 266.178,-142.172"/>
</g>
<!-- Node12 -->
<g id="node12" class="node"><title>Node12</title>
<g id="a_node12"><a xlink:href="../../d1/d56/LMS64CProtocol_8h.html" target="_top" xlink:title="Implementation of LMS64C protocol. ">
<polygon fill="white" stroke="black" points="291.74,-168.5 291.74,-187.5 390.74,-187.5 390.74,-168.5 291.74,-168.5"/>
<text text-anchor="middle" x="341.24" y="-175.5" font-family="Helvetica,sans-Serif" font-size="10.00">LMS64CProtocol.h</text>
</a>
</g>
</g>
<!-- Node2&#45;&gt;Node12 -->
<g id="edge17" class="edge"><title>Node2&#45;&gt;Node12</title>
<path fill="none" stroke="midnightblue" d="M243.621,-224.444C262.457,-215.675 291.971,-201.935 313.619,-191.858"/>
<polygon fill="midnightblue" stroke="midnightblue" points="315.357,-194.91 322.946,-187.516 312.403,-188.564 315.357,-194.91"/>
</g>
<!-- Node16 -->
<g id="node16" class="node"><title>Node16</title>
<polygon fill="white" stroke="#bfbfbf" points="408.74,-168.5 408.74,-187.5 471.74,-187.5 471.74,-168.5 408.74,-168.5"/>
<text text-anchor="middle" x="440.24" y="-175.5" font-family="Helvetica,sans-Serif" font-size="10.00">windows.h</text>
</g>
<!-- Node2&#45;&gt;Node16 -->
<g id="edge24" class="edge"><title>Node2&#45;&gt;Node16</title>
<path fill="none" stroke="midnightblue" d="M259.308,-224.444C297.076,-214.958 358.008,-199.654 398.584,-189.462"/>
<polygon fill="midnightblue" stroke="midnightblue" points="399.589,-192.819 408.435,-186.988 397.883,-186.03 399.589,-192.819"/>
</g>
<!-- Node4 -->
<g id="node4" class="node"><title>Node4</title>
<g id="a_node4"><a xlink:href="../../dd/d40/LimeSuiteConfig_8h.html" target="_top" xlink:title="Configuration constants and macros for lime suite library. ">
<polygon fill="white" stroke="black" points="104.74,-0.5 104.74,-19.5 201.74,-19.5 201.74,-0.5 104.74,-0.5"/>
<text text-anchor="middle" x="153.24" y="-7.5" font-family="Helvetica,sans-Serif" font-size="10.00">LimeSuiteConfig.h</text>
</a>
</g>
</g>
<!-- Node3&#45;&gt;Node4 -->
<g id="edge3" class="edge"><title>Node3&#45;&gt;Node4</title>
<path fill="none" stroke="midnightblue" d="M121.932,-112.376C124.757,-103.319 129.322,-88.6624 133.24,-76 138.093,-60.3147 143.575,-42.4901 147.571,-29.4788"/>
<polygon fill="midnightblue" stroke="midnightblue" points="150.943,-30.4209 150.532,-19.8341 144.251,-28.3668 150.943,-30.4209"/>
</g>
<!-- Node5 -->
<g id="node5" class="node"><title>Node5</title>
<g id="a_node5"><a xlink:href="../../d1/d5d/ConnectionHandle_8h.html" target="_top" xlink:title="Represent a connection to a device. ">
<polygon fill="white" stroke="black" points="19.7401,-56.5 19.7401,-75.5 124.74,-75.5 124.74,-56.5 19.7401,-56.5"/>
<text text-anchor="middle" x="72.2401" y="-63.5" font-family="Helvetica,sans-Serif" font-size="10.00">ConnectionHandle.h</text>
</a>
</g>
</g>
<!-- Node3&#45;&gt;Node5 -->
<g id="edge4" class="edge"><title>Node3&#45;&gt;Node5</title>
<path fill="none" stroke="midnightblue" d="M111.479,-112.083C104.703,-104.298 94.697,-92.8015 86.4851,-83.3665"/>
<polygon fill="midnightblue" stroke="midnightblue" points="89.0622,-80.9963 79.8568,-75.7511 83.782,-85.592 89.0622,-80.9963"/>
</g>
<!-- Node3&#45;&gt;Node6 -->
<g id="edge7" class="edge"><title>Node3&#45;&gt;Node6</title>
<path fill="none" stroke="midnightblue" d="M66.9616,-112.478C45.648,-106.151 23.0472,-95.1429 10.2401,-76 0.611852,-61.6085 8.11282,-42.1549 16.1667,-28.2893"/>
<polygon fill="midnightblue" stroke="midnightblue" points="19.2084,-30.0287 21.6271,-19.7137 13.3037,-26.269 19.2084,-30.0287"/>
</g>
<!-- Node3&#45;&gt;Node7 -->
<g id="edge8" class="edge"><title>Node3&#45;&gt;Node7</title>
<path fill="none" stroke="midnightblue" d="M132.736,-112.324C145.84,-103.9 165.952,-90.9709 181.347,-81.0741"/>
<polygon fill="midnightblue" stroke="midnightblue" points="183.258,-84.0063 189.778,-75.6545 179.473,-78.118 183.258,-84.0063"/>
</g>
<!-- Node5&#45;&gt;Node4 -->
<g id="edge5" class="edge"><title>Node5&#45;&gt;Node4</title>
<path fill="none" stroke="midnightblue" d="M85.2542,-56.324C97.7717,-47.979 116.922,-35.2122 131.712,-25.3524"/>
<polygon fill="midnightblue" stroke="midnightblue" points="133.879,-28.1137 140.258,-19.6545 129.996,-22.2894 133.879,-28.1137"/>
</g>
<!-- Node5&#45;&gt;Node6 -->
<g id="edge6" class="edge"><title>Node5&#45;&gt;Node6</title>
<path fill="none" stroke="midnightblue" d="M64.9744,-56.083C58.6953,-48.3768 49.4525,-37.0333 41.8093,-27.6531"/>
<polygon fill="midnightblue" stroke="midnightblue" points="44.4007,-25.2926 35.3706,-19.7511 38.9741,-29.7143 44.4007,-25.2926"/>
</g>
<!-- Node8&#45;&gt;Node4 -->
<g id="edge10" class="edge"><title>Node8&#45;&gt;Node4</title>
<path fill="none" stroke="midnightblue" d="M272.53,-112.481C275.588,-99.0918 279.326,-72.9115 267.24,-56 254.211,-37.7673 232.607,-26.9202 211.689,-20.4678"/>
<polygon fill="midnightblue" stroke="midnightblue" points="212.412,-17.0359 201.839,-17.7209 210.531,-23.7786 212.412,-17.0359"/>
</g>
<!-- Node8&#45;&gt;Node5 -->
<g id="edge11" class="edge"><title>Node8&#45;&gt;Node5</title>
<path fill="none" stroke="midnightblue" d="M238.866,-112.444C204.978,-103.201 150.837,-88.4356 113.517,-78.2572"/>
<polygon fill="midnightblue" stroke="midnightblue" points="114.036,-74.771 103.467,-75.5164 112.194,-81.5243 114.036,-74.771"/>
</g>
<!-- Node8&#45;&gt;Node6 -->
<g id="edge12" class="edge"><title>Node8&#45;&gt;Node6</title>
<path fill="none" stroke="midnightblue" d="M267.954,-112.292C263.769,-98.1496 253.485,-70.3297 234.24,-56 220.236,-45.5725 112.696,-25.6948 58.8112,-16.2435"/>
<polygon fill="midnightblue" stroke="midnightblue" points="59.2455,-12.7665 48.7932,-14.4981 58.044,-19.6626 59.2455,-12.7665"/>
</g>
<!-- Node8&#45;&gt;Node7 -->
<g id="edge13" class="edge"><title>Node8&#45;&gt;Node7</title>
<path fill="none" stroke="midnightblue" d="M259.475,-112.324C249.474,-104.263 234.354,-92.0765 222.31,-82.3695"/>
<polygon fill="midnightblue" stroke="midnightblue" points="224.183,-79.3841 214.201,-75.8339 219.79,-84.8343 224.183,-79.3841"/>
</g>
<!-- Node9 -->
<g id="node9" class="node"><title>Node9</title>
<polygon fill="white" stroke="#bfbfbf" points="319.24,-56.5 319.24,-75.5 365.24,-75.5 365.24,-56.5 319.24,-56.5"/>
<text text-anchor="middle" x="342.24" y="-63.5" font-family="Helvetica,sans-Serif" font-size="10.00">cstring</text>
</g>
<!-- Node8&#45;&gt;Node9 -->
<g id="edge14" class="edge"><title>Node8&#45;&gt;Node9</title>
<path fill="none" stroke="midnightblue" d="M281.808,-112.324C292.66,-104.185 309.121,-91.8395 322.124,-82.0874"/>
<polygon fill="midnightblue" stroke="midnightblue" points="324.562,-84.6339 330.462,-75.8339 320.362,-79.0339 324.562,-84.6339"/>
</g>
<!-- Node10 -->
<g id="node10" class="node"><title>Node10</title>
<polygon fill="white" stroke="#bfbfbf" points="383.74,-56.5 383.74,-75.5 442.74,-75.5 442.74,-56.5 383.74,-56.5"/>
<text text-anchor="middle" x="413.24" y="-63.5" font-family="Helvetica,sans-Serif" font-size="10.00">functional</text>
</g>
<!-- Node8&#45;&gt;Node10 -->
<g id="edge15" class="edge"><title>Node8&#45;&gt;Node10</title>
<path fill="none" stroke="midnightblue" d="M292.899,-112.444C316.642,-103.478 354.149,-89.314 380.979,-79.1827"/>
<polygon fill="midnightblue" stroke="midnightblue" points="382.569,-82.3235 390.687,-75.5164 380.096,-75.7749 382.569,-82.3235"/>
</g>
<!-- Node11 -->
<g id="node11" class="node"><title>Node11</title>
<polygon fill="white" stroke="#bfbfbf" points="460.74,-56.5 460.74,-75.5 509.74,-75.5 509.74,-56.5 460.74,-56.5"/>
<text text-anchor="middle" x="485.24" y="-63.5" font-family="Helvetica,sans-Serif" font-size="10.00">stdint.h</text>
</g>
<!-- Node8&#45;&gt;Node11 -->
<g id="edge16" class="edge"><title>Node8&#45;&gt;Node11</title>
<path fill="none" stroke="midnightblue" d="M305.875,-112.455C340.532,-104.086 394.92,-90.7976 450.391,-76.4418"/>
<polygon fill="midnightblue" stroke="midnightblue" points="451.592,-79.7463 460.391,-73.8453 449.832,-72.971 451.592,-79.7463"/>
</g>
<!-- Node12&#45;&gt;Node8 -->
<g id="edge18" class="edge"><title>Node12&#45;&gt;Node8</title>
<path fill="none" stroke="midnightblue" d="M329.833,-168.324C319.131,-160.185 302.899,-147.839 290.077,-138.087"/>
<polygon fill="midnightblue" stroke="midnightblue" points="291.933,-135.102 281.855,-131.834 287.696,-140.673 291.933,-135.102"/>
</g>
<!-- Node13 -->
<g id="node13" class="node"><title>Node13</title>
<polygon fill="white" stroke="#bfbfbf" points="327.24,-112.5 327.24,-131.5 371.24,-131.5 371.24,-112.5 327.24,-112.5"/>
<text text-anchor="middle" x="349.24" y="-119.5" font-family="Helvetica,sans-Serif" font-size="10.00">mutex</text>
</g>
<!-- Node12&#45;&gt;Node13 -->
<g id="edge19" class="edge"><title>Node12&#45;&gt;Node13</title>
<path fill="none" stroke="midnightblue" d="M342.561,-168.083C343.621,-160.927 345.146,-150.635 346.471,-141.691"/>
<polygon fill="midnightblue" stroke="midnightblue" points="349.94,-142.156 347.944,-131.751 343.016,-141.13 349.94,-142.156"/>
</g>
<!-- Node14 -->
<g id="node14" class="node"><title>Node14</title>
<g id="a_node14"><a xlink:href="../../de/dd5/LMS64CCommands_8h.html" target="_top" xlink:title="enumerations of LMS64C command options ">
<polygon fill="white" stroke="black" points="389.74,-112.5 389.74,-131.5 502.74,-131.5 502.74,-112.5 389.74,-112.5"/>
<text text-anchor="middle" x="446.24" y="-119.5" font-family="Helvetica,sans-Serif" font-size="10.00">LMS64CCommands.h</text>
</a>
</g>
</g>
<!-- Node12&#45;&gt;Node14 -->
<g id="edge20" class="edge"><title>Node12&#45;&gt;Node14</title>
<path fill="none" stroke="midnightblue" d="M358.11,-168.324C374.949,-159.664 401.047,-146.242 420.478,-136.249"/>
<polygon fill="midnightblue" stroke="midnightblue" points="422.12,-139.341 429.412,-131.655 418.918,-133.116 422.12,-139.341"/>
</g>
<!-- Node15 -->
<g id="node15" class="node"><title>Node15</title>
<g id="a_node15"><a xlink:href="../../d8/df2/LMSBoards_8h.html" target="_top" xlink:title="enumerations of available LMS7002M hardware ">
<polygon fill="white" stroke="black" points="521.24,-112.5 521.24,-131.5 597.24,-131.5 597.24,-112.5 521.24,-112.5"/>
<text text-anchor="middle" x="559.24" y="-119.5" font-family="Helvetica,sans-Serif" font-size="10.00">LMSBoards.h</text>
</a>
</g>
</g>
<!-- Node12&#45;&gt;Node15 -->
<g id="edge21" class="edge"><title>Node12&#45;&gt;Node15</title>
<path fill="none" stroke="midnightblue" d="M375.783,-168.444C413.494,-159.102 473.98,-144.119 515.105,-133.933"/>
<polygon fill="midnightblue" stroke="midnightblue" points="515.994,-137.318 524.859,-131.516 514.311,-130.524 515.994,-137.318"/>
</g>
</g>
</svg>
