<?xml version="1.0" encoding="UTF-8" standalone="no"?>
<!DOCTYPE svg PUBLIC "-//W3C//DTD SVG 1.1//EN"
 "http://www.w3.org/Graphics/SVG/1.1/DTD/svg11.dtd">
<!-- Generated by graphviz version 2.38.0 (20140413.2041)
 -->
<!-- Title: lms7002_pnlBIAS_view Pages: 1 -->
<svg width="151pt" height="452pt"
 viewBox="0.00 0.00 151.00 452.00" xmlns="http://www.w3.org/2000/svg" xmlns:xlink="http://www.w3.org/1999/xlink">
<g id="graph0" class="graph" transform="scale(1 1) rotate(0) translate(4 448)">
<title>lms7002_pnlBIAS_view</title>
<polygon fill="white" stroke="none" points="-4,4 -4,-448 147,-448 147,4 -4,4"/>
<!-- Node1 -->
<g id="node1" class="node"><title>Node1</title>
<polygon fill="#bfbfbf" stroke="black" points="0,-0.5 0,-123.5 143,-123.5 143,-0.5 0,-0.5"/>
<text text-anchor="middle" x="71.5" y="-111.5" font-family="Helvetica,sans-Serif" font-size="10.00">lms7002_pnlBIAS_view</text>
<polyline fill="none" stroke="black" points="0,-104.5 143,-104.5 "/>
<text text-anchor="start" x="8" y="-92.5" font-family="Helvetica,sans-Serif" font-size="10.00"># lmsControl</text>
<text text-anchor="start" x="8" y="-81.5" font-family="Helvetica,sans-Serif" font-size="10.00"># wndId2Enum</text>
<polyline fill="none" stroke="black" points="0,-74.5 143,-74.5 "/>
<text text-anchor="start" x="8" y="-62.5" font-family="Helvetica,sans-Serif" font-size="10.00">+ lms7002_pnlBIAS_view()</text>
<text text-anchor="start" x="8" y="-51.5" font-family="Helvetica,sans-Serif" font-size="10.00">+ lms7002_pnlBIAS_view()</text>
<text text-anchor="start" x="8" y="-40.5" font-family="Helvetica,sans-Serif" font-size="10.00">+ Initialize()</text>
<text text-anchor="start" x="8" y="-29.5" font-family="Helvetica,sans-Serif" font-size="10.00">+ UpdateGUI()</text>
<text text-anchor="start" x="8" y="-18.5" font-family="Helvetica,sans-Serif" font-size="10.00"># ParameterChangeHandler()</text>
<text text-anchor="start" x="8" y="-7.5" font-family="Helvetica,sans-Serif" font-size="10.00"># OnCalibrateRP_BIAS()</text>
</g>
<!-- Node2 -->
<g id="node2" class="node"><title>Node2</title>
<g id="a_node2"><a xlink:href="../../d0/de6/classpnlBIAS__view.html" target="_top" xlink:title="Class pnlBIAS_view. ">
<polygon fill="white" stroke="black" points="0,-160.5 0,-349.5 143,-349.5 143,-160.5 0,-160.5"/>
<text text-anchor="middle" x="71.5" y="-337.5" font-family="Helvetica,sans-Serif" font-size="10.00">pnlBIAS_view</text>
<polyline fill="none" stroke="black" points="0,-330.5 143,-330.5 "/>
<text text-anchor="start" x="8" y="-318.5" font-family="Helvetica,sans-Serif" font-size="10.00"># chkPD_FRP_BIAS</text>
<text text-anchor="start" x="8" y="-307.5" font-family="Helvetica,sans-Serif" font-size="10.00"># chkPD_F_BIAS</text>
<text text-anchor="start" x="8" y="-296.5" font-family="Helvetica,sans-Serif" font-size="10.00"># chkPD_PTRP_BIAS</text>
<text text-anchor="start" x="8" y="-285.5" font-family="Helvetica,sans-Serif" font-size="10.00"># chkPD_PT_BIAS</text>
<text text-anchor="start" x="8" y="-274.5" font-family="Helvetica,sans-Serif" font-size="10.00"># chkPD_BIAS_MASTER</text>
<text text-anchor="start" x="8" y="-263.5" font-family="Helvetica,sans-Serif" font-size="10.00"># ID_STATICTEXT1</text>
<text text-anchor="start" x="8" y="-252.5" font-family="Helvetica,sans-Serif" font-size="10.00"># cmbMUX_BIAS_OUT</text>
<text text-anchor="start" x="8" y="-241.5" font-family="Helvetica,sans-Serif" font-size="10.00"># ID_STATICTEXT2</text>
<text text-anchor="start" x="8" y="-230.5" font-family="Helvetica,sans-Serif" font-size="10.00"># cmbRP_CALIB_BIAS</text>
<text text-anchor="start" x="8" y="-219.5" font-family="Helvetica,sans-Serif" font-size="10.00"># btnCalibrateRP_BIAS</text>
<polyline fill="none" stroke="black" points="0,-212.5 143,-212.5 "/>
<text text-anchor="start" x="8" y="-200.5" font-family="Helvetica,sans-Serif" font-size="10.00">+ pnlBIAS_view()</text>
<text text-anchor="start" x="8" y="-189.5" font-family="Helvetica,sans-Serif" font-size="10.00">+ ~pnlBIAS_view()</text>
<text text-anchor="start" x="8" y="-178.5" font-family="Helvetica,sans-Serif" font-size="10.00"># ParameterChangeHandler()</text>
<text text-anchor="start" x="8" y="-167.5" font-family="Helvetica,sans-Serif" font-size="10.00"># OnCalibrateRP_BIAS()</text>
</a>
</g>
</g>
<!-- Node2&#45;&gt;Node1 -->
<g id="edge1" class="edge"><title>Node2&#45;&gt;Node1</title>
<path fill="none" stroke="midnightblue" d="M71.5,-150.231C71.5,-141.195 71.5,-132.258 71.5,-123.747"/>
<polygon fill="none" stroke="midnightblue" points="68.0001,-150.458 71.5,-160.458 75.0001,-150.458 68.0001,-150.458"/>
</g>
<!-- Node3 -->
<g id="node3" class="node"><title>Node3</title>
<polygon fill="white" stroke="#bfbfbf" points="44.5,-386.5 44.5,-443.5 98.5,-443.5 98.5,-386.5 44.5,-386.5"/>
<text text-anchor="middle" x="71.5" y="-431.5" font-family="Helvetica,sans-Serif" font-size="10.00">wxPanel</text>
<polyline fill="none" stroke="#bfbfbf" points="44.5,-424.5 98.5,-424.5 "/>
<text text-anchor="middle" x="71.5" y="-412.5" font-family="Helvetica,sans-Serif" font-size="10.00"> </text>
<polyline fill="none" stroke="#bfbfbf" points="44.5,-405.5 98.5,-405.5 "/>
<text text-anchor="middle" x="71.5" y="-393.5" font-family="Helvetica,sans-Serif" font-size="10.00"> </text>
</g>
<!-- Node3&#45;&gt;Node2 -->
<g id="edge2" class="edge"><title>Node3&#45;&gt;Node2</title>
<path fill="none" stroke="midnightblue" d="M71.5,-376.215C71.5,-368.012 71.5,-358.986 71.5,-349.678"/>
<polygon fill="none" stroke="midnightblue" points="68.0001,-376.478 71.5,-386.479 75.0001,-376.479 68.0001,-376.478"/>
</g>
</g>
</svg>
