<?xml version="1.0" encoding="UTF-8" standalone="no"?>
<!DOCTYPE svg PUBLIC "-//W3C//DTD SVG 1.1//EN"
 "http://www.w3.org/Graphics/SVG/1.1/DTD/svg11.dtd">
<!-- Generated by graphviz version 2.38.0 (20140413.2041)
 -->
<!-- Title: CalibrateRxSetup Pages: 1 -->
<svg width="1345pt" height="795pt"
 viewBox="0.00 0.00 1345.00 795.04" xmlns="http://www.w3.org/2000/svg" xmlns:xlink="http://www.w3.org/1999/xlink">
<g id="graph0" class="graph" transform="scale(1 1) rotate(0) translate(4 791.035)">
<title>CalibrateRxSetup</title>
<polygon fill="white" stroke="none" points="-4,4 -4,-791.035 1341,-791.035 1341,4 -4,4"/>
<!-- Node1 -->
<g id="node1" class="node"><title>Node1</title>
<polygon fill="#bfbfbf" stroke="black" points="0,-492.321 0,-511.321 94,-511.321 94,-492.321 0,-492.321"/>
<text text-anchor="middle" x="47" y="-499.321" font-family="Helvetica,sans-Serif" font-size="10.00">CalibrateRxSetup</text>
</g>
<!-- Node2 -->
<g id="node2" class="node"><title>Node2</title>
<g id="a_node2"><a xlink:href="../../d7/db8/lms7002m__controls_8c.html#a31e8e152e3dd8db0b33ab0afe9fe0dfe" target="_top" xlink:title="EnableChannelPowerControls">
<polygon fill="white" stroke="black" points="135.5,-606.321 135.5,-625.321 282.5,-625.321 282.5,-606.321 135.5,-606.321"/>
<text text-anchor="middle" x="209" y="-613.321" font-family="Helvetica,sans-Serif" font-size="10.00">EnableChannelPowerControls</text>
</a>
</g>
</g>
<!-- Node1&#45;&gt;Node2 -->
<g id="edge1" class="edge"><title>Node1&#45;&gt;Node2</title>
<path fill="none" stroke="midnightblue" d="M53.398,-511.359C64.8557,-530.691 93.5683,-574.544 130,-596.821 133.446,-598.929 137.112,-600.802 140.904,-602.468"/>
<polygon fill="midnightblue" stroke="midnightblue" points="139.944,-605.85 150.534,-606.197 142.472,-599.322 139.944,-605.85"/>
</g>
<!-- Node3 -->
<g id="node3" class="node"><title>Node3</title>
<g id="a_node3"><a xlink:href="../../da/d87/spi_8h.html#abde20a13293589ccb0a691e2711098bf" target="_top" xlink:title="SPI_read">
<polygon fill="white" stroke="black" points="367,-568.321 367,-587.321 424,-587.321 424,-568.321 367,-568.321"/>
<text text-anchor="middle" x="395.5" y="-575.321" font-family="Helvetica,sans-Serif" font-size="10.00">SPI_read</text>
</a>
</g>
</g>
<!-- Node1&#45;&gt;Node3 -->
<g id="edge61" class="edge"><title>Node1&#45;&gt;Node3</title>
<path fill="none" stroke="midnightblue" d="M50.4738,-511.566C57.6176,-537.385 80.9712,-607.451 130,-634.821 191.315,-669.05 222.555,-660.278 288,-634.821 308.229,-626.953 305.328,-612.888 324,-601.821 334.134,-595.815 345.984,-591.044 357.045,-587.39"/>
<polygon fill="midnightblue" stroke="midnightblue" points="358.388,-590.639 366.91,-584.345 356.323,-583.95 358.388,-590.639"/>
</g>
<!-- Node4 -->
<g id="node4" class="node"><title>Node4</title>
<g id="a_node4"><a xlink:href="../../da/d87/spi_8h.html#ac7475dd5b46ee34421fb4cc4fb228b4d" target="_top" xlink:title="SPI_write">
<polygon fill="white" stroke="black" points="366,-530.321 366,-549.321 425,-549.321 425,-530.321 366,-530.321"/>
<text text-anchor="middle" x="395.5" y="-537.321" font-family="Helvetica,sans-Serif" font-size="10.00">SPI_write</text>
</a>
</g>
</g>
<!-- Node1&#45;&gt;Node4 -->
<g id="edge62" class="edge"><title>Node1&#45;&gt;Node4</title>
<path fill="none" stroke="midnightblue" d="M83.6904,-511.367C97.9919,-514.856 114.683,-518.511 130,-520.821 209.642,-532.833 303.958,-537.301 355.697,-538.926"/>
<polygon fill="midnightblue" stroke="midnightblue" points="355.667,-542.426 365.766,-539.223 355.873,-535.429 355.667,-542.426"/>
</g>
<!-- Node5 -->
<g id="node5" class="node"><title>Node5</title>
<g id="a_node5"><a xlink:href="../../d7/db8/lms7002m__controls_8c.html#a750d732f1af936250aef94df6f56bf9b" target="_top" xlink:title="EnableMIMOBuffersIfNecessary">
<polygon fill="white" stroke="black" points="130,-682.321 130,-701.321 288,-701.321 288,-682.321 130,-682.321"/>
<text text-anchor="middle" x="209" y="-689.321" font-family="Helvetica,sans-Serif" font-size="10.00">EnableMIMOBuffersIfNecessary</text>
</a>
</g>
</g>
<!-- Node1&#45;&gt;Node5 -->
<g id="edge4" class="edge"><title>Node1&#45;&gt;Node5</title>
<path fill="none" stroke="midnightblue" d="M49.9231,-511.33C56.1381,-539.595 78.3553,-623.857 130,-667.821 134.885,-671.98 140.482,-675.418 146.387,-678.261"/>
<polygon fill="midnightblue" stroke="midnightblue" points="145.287,-681.595 155.861,-682.256 148.007,-675.145 145.287,-681.595"/>
</g>
<!-- Node6 -->
<g id="node6" class="node"><title>Node6</title>
<g id="a_node6"><a xlink:href="../../da/d87/spi_8h.html#aaf76507507e6a960fa0c8cb26585095d" target="_top" xlink:title="Modify_SPI_Reg_bits">
<polygon fill="white" stroke="black" points="646,-397.321 646,-416.321 758,-416.321 758,-397.321 646,-397.321"/>
<text text-anchor="middle" x="702" y="-404.321" font-family="Helvetica,sans-Serif" font-size="10.00">Modify_SPI_Reg_bits</text>
</a>
</g>
</g>
<!-- Node1&#45;&gt;Node6 -->
<g id="edge32" class="edge"><title>Node1&#45;&gt;Node6</title>
<path fill="none" stroke="midnightblue" d="M52.68,-492.167C63.1741,-471.788 90.7766,-424.779 130,-406.821 141.34,-401.629 487.881,-404.602 635.472,-406.11"/>
<polygon fill="midnightblue" stroke="midnightblue" points="635.712,-409.612 645.748,-406.216 635.784,-402.613 635.712,-409.612"/>
</g>
<!-- Node12 -->
<g id="node12" class="node"><title>Node12</title>
<g id="a_node12"><a xlink:href="../../da/d87/spi_8h.html#a6ca6565d9a3c9b39a4ad5239f27665c7" target="_top" xlink:title="Get_SPI_Reg_bits">
<polygon fill="white" stroke="black" points="794,-150.321 794,-169.321 892,-169.321 892,-150.321 794,-150.321"/>
<text text-anchor="middle" x="843" y="-157.321" font-family="Helvetica,sans-Serif" font-size="10.00">Get_SPI_Reg_bits</text>
</a>
</g>
</g>
<!-- Node1&#45;&gt;Node12 -->
<g id="edge14" class="edge"><title>Node1&#45;&gt;Node12</title>
<path fill="none" stroke="midnightblue" d="M47.7535,-511.481C47.3719,-549.243 51.5324,-687.798 130,-748.821 223.036,-821.174 276.642,-767.821 394.5,-767.821 394.5,-767.821 394.5,-767.821 557.5,-767.821 823.72,-767.821 841.362,-283.699 842.074,-179.449"/>
<polygon fill="midnightblue" stroke="midnightblue" points="845.575,-179.379 842.095,-169.371 838.575,-179.364 845.575,-179.379"/>
</g>
<!-- Node13 -->
<g id="node13" class="node"><title>Node13</title>
<g id="a_node13"><a xlink:href="../../d7/db8/lms7002m__controls_8c.html#aeb1d40ef2cb6c1544facf83bfc0082e8" target="_top" xlink:title="GetFrequencySX">
<polygon fill="white" stroke="black" points="163,-720.321 163,-739.321 255,-739.321 255,-720.321 163,-720.321"/>
<text text-anchor="middle" x="209" y="-727.321" font-family="Helvetica,sans-Serif" font-size="10.00">GetFrequencySX</text>
</a>
</g>
</g>
<!-- Node1&#45;&gt;Node13 -->
<g id="edge16" class="edge"><title>Node1&#45;&gt;Node13</title>
<path fill="none" stroke="midnightblue" d="M48.7359,-511.478C51.8072,-544.724 66.5891,-655.438 130,-710.821 136.636,-716.617 144.75,-720.708 153.208,-723.585"/>
<polygon fill="midnightblue" stroke="midnightblue" points="152.266,-726.956 162.843,-726.342 154.192,-720.226 152.266,-726.956"/>
</g>
<!-- Node15 -->
<g id="node15" class="node"><title>Node15</title>
<g id="a_node15"><a xlink:href="../../d3/dec/lms7002m__calibrations_8c.html#a0bf61e6c75e7b27588ed2da1696fcc44" target="_top" xlink:title="IsPLLTuned">
<polygon fill="white" stroke="black" points="361,-36.3212 361,-55.3212 430,-55.3212 430,-36.3212 361,-36.3212"/>
<text text-anchor="middle" x="395.5" y="-43.3212" font-family="Helvetica,sans-Serif" font-size="10.00">IsPLLTuned</text>
</a>
</g>
</g>
<!-- Node1&#45;&gt;Node15 -->
<g id="edge22" class="edge"><title>Node1&#45;&gt;Node15</title>
<path fill="none" stroke="midnightblue" d="M48.5947,-492.098C52.1854,-436.627 72.7692,-160.602 130,-102.821 188.315,-43.9461 291.859,-39.1455 350.607,-41.8514"/>
<polygon fill="midnightblue" stroke="midnightblue" points="350.507,-45.3511 360.685,-42.4099 350.894,-38.3618 350.507,-45.3511"/>
</g>
<!-- Node18 -->
<g id="node18" class="node"><title>Node18</title>
<g id="a_node18"><a xlink:href="../../d3/dec/lms7002m__calibrations_8c.html#a9c51685034dd7ae8c5406902e8e95ba7" target="_top" xlink:title="LoadDC_REG_TX_IQ">
<polygon fill="white" stroke="black" points="152.5,-454.321 152.5,-473.321 265.5,-473.321 265.5,-454.321 152.5,-454.321"/>
<text text-anchor="middle" x="209" y="-461.321" font-family="Helvetica,sans-Serif" font-size="10.00">LoadDC_REG_TX_IQ</text>
</a>
</g>
</g>
<!-- Node1&#45;&gt;Node18 -->
<g id="edge28" class="edge"><title>Node1&#45;&gt;Node18</title>
<path fill="none" stroke="midnightblue" d="M88.3748,-492.232C109.488,-487.218 135.529,-481.033 157.917,-475.716"/>
<polygon fill="midnightblue" stroke="midnightblue" points="158.995,-479.057 167.916,-473.341 157.377,-472.247 158.995,-479.057"/>
</g>
<!-- Node20 -->
<g id="node20" class="node"><title>Node20</title>
<g id="a_node20"><a xlink:href="../../d7/db8/lms7002m__controls_8c.html#a75b389cad766cf873450437f2d5fea65" target="_top" xlink:title="SetDefaultsSX">
<polygon fill="white" stroke="black" points="168,-416.321 168,-435.321 250,-435.321 250,-416.321 168,-416.321"/>
<text text-anchor="middle" x="209" y="-423.321" font-family="Helvetica,sans-Serif" font-size="10.00">SetDefaultsSX</text>
</a>
</g>
</g>
<!-- Node1&#45;&gt;Node20 -->
<g id="edge33" class="edge"><title>Node1&#45;&gt;Node20</title>
<path fill="none" stroke="midnightblue" d="M58.8675,-492.272C73.8532,-479.595 102.178,-457.353 130,-444.821 138.772,-440.87 148.483,-437.669 157.991,-435.1"/>
<polygon fill="midnightblue" stroke="midnightblue" points="158.928,-438.473 167.777,-432.646 157.226,-431.683 158.928,-438.473"/>
</g>
<!-- Node21 -->
<g id="node21" class="node"><title>Node21</title>
<g id="a_node21"><a xlink:href="../../d7/db8/lms7002m__controls_8c.html#abce6715205de56bbe62e2afe6eadeb30" target="_top" xlink:title="SetFrequencySX">
<polygon fill="white" stroke="black" points="163.5,-340.321 163.5,-359.321 254.5,-359.321 254.5,-340.321 163.5,-340.321"/>
<text text-anchor="middle" x="209" y="-347.321" font-family="Helvetica,sans-Serif" font-size="10.00">SetFrequencySX</text>
</a>
</g>
</g>
<!-- Node1&#45;&gt;Node21 -->
<g id="edge36" class="edge"><title>Node1&#45;&gt;Node21</title>
<path fill="none" stroke="midnightblue" d="M51.4694,-492.155C60.5145,-468.335 87.1329,-406.393 130,-373.821 137.049,-368.465 145.304,-364.294 153.756,-361.048"/>
<polygon fill="midnightblue" stroke="midnightblue" points="155.006,-364.32 163.328,-357.763 152.734,-357.699 155.006,-364.32"/>
</g>
<!-- Node22 -->
<g id="node22" class="node"><title>Node22</title>
<g id="a_node22"><a xlink:href="../../d7/db8/lms7002m__controls_8c.html#aaf5a942c74a7bb3044ffce5cd6f5829a" target="_top" xlink:title="SetNCOFrequency">
<polygon fill="white" stroke="black" points="159,-302.321 159,-321.321 259,-321.321 259,-302.321 159,-302.321"/>
<text text-anchor="middle" x="209" y="-309.321" font-family="Helvetica,sans-Serif" font-size="10.00">SetNCOFrequency</text>
</a>
</g>
</g>
<!-- Node1&#45;&gt;Node22 -->
<g id="edge43" class="edge"><title>Node1&#45;&gt;Node22</title>
<path fill="none" stroke="midnightblue" d="M49.6295,-492.299C55.1279,-463.203 75.7826,-374.781 130,-330.821 135.657,-326.235 142.254,-322.729 149.171,-320.054"/>
<polygon fill="midnightblue" stroke="midnightblue" points="150.344,-323.353 158.745,-316.897 148.152,-316.705 150.344,-323.353"/>
</g>
<!-- Node25 -->
<g id="node25" class="node"><title>Node25</title>
<g id="a_node25"><a xlink:href="../../d3/dec/lms7002m__calibrations_8c.html#aad629027d35cff4c7c633225f5887b40" target="_top" xlink:title="SetRxGFIR3Coefficients">
<polygon fill="white" stroke="black" points="146,-492.321 146,-511.321 272,-511.321 272,-492.321 146,-492.321"/>
<text text-anchor="middle" x="209" y="-499.321" font-family="Helvetica,sans-Serif" font-size="10.00">SetRxGFIR3Coefficients</text>
</a>
</g>
</g>
<!-- Node1&#45;&gt;Node25 -->
<g id="edge50" class="edge"><title>Node1&#45;&gt;Node25</title>
<path fill="none" stroke="midnightblue" d="M94.2786,-501.821C107.201,-501.821 121.56,-501.821 135.604,-501.821"/>
<polygon fill="midnightblue" stroke="midnightblue" points="135.75,-505.321 145.75,-501.821 135.75,-498.321 135.75,-505.321"/>
</g>
<!-- Node26 -->
<g id="node26" class="node"><title>Node26</title>
<g id="a_node26"><a xlink:href="../../d3/dec/lms7002m__calibrations_8c.html#a42909940a5d69231e9e987ca534e20c8" target="_top" xlink:title="SetupCGEN">
<polygon fill="white" stroke="black" points="173.5,-112.321 173.5,-131.321 244.5,-131.321 244.5,-112.321 173.5,-112.321"/>
<text text-anchor="middle" x="209" y="-119.321" font-family="Helvetica,sans-Serif" font-size="10.00">SetupCGEN</text>
</a>
</g>
</g>
<!-- Node1&#45;&gt;Node26 -->
<g id="edge52" class="edge"><title>Node1&#45;&gt;Node26</title>
<path fill="none" stroke="midnightblue" d="M51.5764,-492.164C62.6797,-462.304 97.7515,-368.901 130,-292.821 153.683,-236.949 184.121,-172.009 199.001,-140.663"/>
<polygon fill="midnightblue" stroke="midnightblue" points="202.281,-141.916 203.418,-131.382 195.96,-138.907 202.281,-141.916"/>
</g>
<!-- Node29 -->
<g id="node29" class="node"><title>Node29</title>
<g id="a_node29"><a xlink:href="../../d7/db8/lms7002m__controls_8c.html#a6da6f3d264a9c184fe58dc2945efda1f" target="_top" xlink:title="WriteMaskedRegs">
<polygon fill="white" stroke="black" points="160,-568.321 160,-587.321 258,-587.321 258,-568.321 160,-568.321"/>
<text text-anchor="middle" x="209" y="-575.321" font-family="Helvetica,sans-Serif" font-size="10.00">WriteMaskedRegs</text>
</a>
</g>
</g>
<!-- Node1&#45;&gt;Node29 -->
<g id="edge63" class="edge"><title>Node1&#45;&gt;Node29</title>
<path fill="none" stroke="midnightblue" d="M60.7329,-511.423C76.353,-522.832 103.973,-541.827 130,-553.821 139.556,-558.225 150.132,-562.093 160.332,-565.367"/>
<polygon fill="midnightblue" stroke="midnightblue" points="159.364,-568.731 169.951,-568.32 161.419,-562.039 159.364,-568.731"/>
</g>
<!-- Node2&#45;&gt;Node3 -->
<g id="edge2" class="edge"><title>Node2&#45;&gt;Node3</title>
<path fill="none" stroke="midnightblue" d="M256.557,-606.232C287.552,-599.848 327.753,-591.569 356.752,-585.596"/>
<polygon fill="midnightblue" stroke="midnightblue" points="357.803,-588.953 366.891,-583.508 356.39,-582.097 357.803,-588.953"/>
</g>
<!-- Node2&#45;&gt;Node4 -->
<g id="edge3" class="edge"><title>Node2&#45;&gt;Node4</title>
<path fill="none" stroke="midnightblue" d="M266.483,-606.189C273.987,-603.739 281.369,-600.668 288,-596.821 308.123,-585.147 304.02,-570.739 324,-558.821 333.752,-553.004 345.311,-548.932 356.219,-546.095"/>
<polygon fill="midnightblue" stroke="midnightblue" points="357.036,-549.499 365.983,-543.823 355.45,-542.681 357.036,-549.499"/>
</g>
<!-- Node5&#45;&gt;Node3 -->
<g id="edge5" class="edge"><title>Node5&#45;&gt;Node3</title>
<path fill="none" stroke="midnightblue" d="M261.124,-682.306C270.741,-678.865 280.21,-674.185 288,-667.821 313.876,-646.682 298.44,-623.341 324,-601.821 333.333,-593.964 345.364,-588.638 356.836,-585.045"/>
<polygon fill="midnightblue" stroke="midnightblue" points="357.99,-588.357 366.692,-582.314 356.12,-581.612 357.99,-588.357"/>
</g>
<!-- Node5&#45;&gt;Node4 -->
<g id="edge13" class="edge"><title>Node5&#45;&gt;Node4</title>
<path fill="none" stroke="midnightblue" d="M228.115,-682.135C245.357,-672.168 271.11,-655.241 288,-634.821 311.821,-606.02 295.314,-582.78 324,-558.821 332.939,-551.356 344.542,-546.801 355.746,-544.03"/>
<polygon fill="midnightblue" stroke="midnightblue" points="356.745,-547.398 365.835,-541.955 355.335,-540.542 356.745,-547.398"/>
</g>
<!-- Node5&#45;&gt;Node6 -->
<g id="edge6" class="edge"><title>Node5&#45;&gt;Node6</title>
<path fill="none" stroke="midnightblue" d="M252.188,-682.318C330.093,-663.057 498.715,-613.196 610,-520.821 644.232,-492.406 674.336,-449.304 689.857,-425.054"/>
<polygon fill="midnightblue" stroke="midnightblue" points="692.891,-426.803 695.242,-416.472 686.962,-423.082 692.891,-426.803"/>
</g>
<!-- Node7 -->
<g id="node7" class="node"><title>Node7</title>
<g id="a_node7"><a xlink:href="../../dd/d7e/spi_8cpp.html#a7dee89a3e8018d75340f8ffd14015284" target="_top" xlink:title="SPI_read">
<polygon fill="white" stroke="black" points="929,-359.321 929,-378.321 986,-378.321 986,-359.321 929,-359.321"/>
<text text-anchor="middle" x="957.5" y="-366.321" font-family="Helvetica,sans-Serif" font-size="10.00">SPI_read</text>
</a>
</g>
</g>
<!-- Node6&#45;&gt;Node7 -->
<g id="edge7" class="edge"><title>Node6&#45;&gt;Node7</title>
<path fill="none" stroke="midnightblue" d="M758.006,-398.576C806.704,-391.276 876.471,-380.818 919.006,-374.442"/>
<polygon fill="midnightblue" stroke="midnightblue" points="919.575,-377.896 928.945,-372.952 918.537,-370.973 919.575,-377.896"/>
</g>
<!-- Node11 -->
<g id="node11" class="node"><title>Node11</title>
<g id="a_node11"><a xlink:href="../../dd/d7e/spi_8cpp.html#abf635d9f0da08fb2a479532b69852e60" target="_top" xlink:title="SPI_write">
<polygon fill="white" stroke="black" points="928,-397.321 928,-416.321 987,-416.321 987,-397.321 928,-397.321"/>
<text text-anchor="middle" x="957.5" y="-404.321" font-family="Helvetica,sans-Serif" font-size="10.00">SPI_write</text>
</a>
</g>
</g>
<!-- Node6&#45;&gt;Node11 -->
<g id="edge11" class="edge"><title>Node6&#45;&gt;Node11</title>
<path fill="none" stroke="midnightblue" d="M758.006,-406.821C806.198,-406.821 875.024,-406.821 917.672,-406.821"/>
<polygon fill="midnightblue" stroke="midnightblue" points="917.923,-410.321 927.923,-406.821 917.923,-403.321 917.923,-410.321"/>
</g>
<!-- Node8 -->
<g id="node8" class="node"><title>Node8</title>
<g id="a_node8"><a xlink:href="../../d2/de5/classlime_1_1IConnection.html#af3dfb39cc643d88c1196ded5d5cbecea" target="_top" xlink:title="Bulk SPI write/read transaction. ">
<polygon fill="white" stroke="black" points="1023,-372.821 1023,-402.821 1122,-402.821 1122,-372.821 1023,-372.821"/>
<text text-anchor="start" x="1031" y="-390.821" font-family="Helvetica,sans-Serif" font-size="10.00">lime::IConnection::</text>
<text text-anchor="middle" x="1072.5" y="-379.821" font-family="Helvetica,sans-Serif" font-size="10.00">TransactSPI</text>
</a>
</g>
</g>
<!-- Node7&#45;&gt;Node8 -->
<g id="edge8" class="edge"><title>Node7&#45;&gt;Node8</title>
<path fill="none" stroke="midnightblue" d="M986.143,-373.469C994.3,-374.841 1003.55,-376.397 1012.89,-377.966"/>
<polygon fill="midnightblue" stroke="midnightblue" points="1012.55,-381.458 1022.99,-379.665 1013.71,-374.555 1012.55,-381.458"/>
</g>
<!-- Node9 -->
<g id="node9" class="node"><title>Node9</title>
<g id="a_node9"><a xlink:href="../../d5/d6c/namespacelime.html#adc6af0cf8e0a70f3ef09fac1244f8c48" target="_top" xlink:title="lime::ReportError">
<polygon fill="white" stroke="black" points="1158,-378.321 1158,-397.321 1249,-397.321 1249,-378.321 1158,-378.321"/>
<text text-anchor="middle" x="1203.5" y="-385.321" font-family="Helvetica,sans-Serif" font-size="10.00">lime::ReportError</text>
</a>
</g>
</g>
<!-- Node8&#45;&gt;Node9 -->
<g id="edge9" class="edge"><title>Node8&#45;&gt;Node9</title>
<path fill="none" stroke="midnightblue" d="M1122.27,-387.821C1130.59,-387.821 1139.28,-387.821 1147.74,-387.821"/>
<polygon fill="midnightblue" stroke="midnightblue" points="1147.91,-391.321 1157.91,-387.821 1147.91,-384.321 1147.91,-391.321"/>
</g>
<!-- Node10 -->
<g id="node10" class="node"><title>Node10</title>
<g id="a_node10"><a xlink:href="../../d9/df5/Logger_8cpp.html#ada38bf01d6d691de953ed69268ea6516" target="_top" xlink:title="errToStr">
<polygon fill="white" stroke="black" points="1285,-378.321 1285,-397.321 1337,-397.321 1337,-378.321 1285,-378.321"/>
<text text-anchor="middle" x="1311" y="-385.321" font-family="Helvetica,sans-Serif" font-size="10.00">errToStr</text>
</a>
</g>
</g>
<!-- Node9&#45;&gt;Node10 -->
<g id="edge10" class="edge"><title>Node9&#45;&gt;Node10</title>
<path fill="none" stroke="midnightblue" d="M1249.24,-387.821C1257.68,-387.821 1266.39,-387.821 1274.49,-387.821"/>
<polygon fill="midnightblue" stroke="midnightblue" points="1274.72,-391.321 1284.72,-387.821 1274.72,-384.321 1274.72,-391.321"/>
</g>
<!-- Node11&#45;&gt;Node8 -->
<g id="edge12" class="edge"><title>Node11&#45;&gt;Node8</title>
<path fill="none" stroke="midnightblue" d="M987.015,-402.027C994.9,-400.701 1003.76,-399.211 1012.69,-397.709"/>
<polygon fill="midnightblue" stroke="midnightblue" points="1013.49,-401.125 1022.77,-396.015 1012.33,-394.222 1013.49,-401.125"/>
</g>
<!-- Node12&#45;&gt;Node7 -->
<g id="edge15" class="edge"><title>Node12&#45;&gt;Node7</title>
<path fill="none" stroke="midnightblue" d="M849.126,-169.345C866.513,-201.646 923.444,-307.41 946.586,-350.402"/>
<polygon fill="midnightblue" stroke="midnightblue" points="943.522,-352.095 951.344,-359.242 949.686,-348.778 943.522,-352.095"/>
</g>
<!-- Node13&#45;&gt;Node3 -->
<g id="edge17" class="edge"><title>Node13&#45;&gt;Node3</title>
<path fill="none" stroke="midnightblue" d="M255.042,-726.761C266.954,-723.985 278.987,-719.14 288,-710.821 325.49,-676.218 288.09,-638.061 324,-601.821 332.887,-592.852 345.253,-587.234 357.151,-583.714"/>
<polygon fill="midnightblue" stroke="midnightblue" points="358.118,-587.08 366.947,-581.225 356.393,-580.296 358.118,-587.08"/>
</g>
<!-- Node13&#45;&gt;Node4 -->
<g id="edge20" class="edge"><title>Node13&#45;&gt;Node4</title>
<path fill="none" stroke="midnightblue" d="M255.11,-727.347C267.165,-724.598 279.257,-719.62 288,-710.821 336.934,-661.574 275.669,-608.659 324,-558.821 332.395,-550.164 344.287,-545.317 355.917,-542.645"/>
<polygon fill="midnightblue" stroke="midnightblue" points="356.763,-546.048 365.975,-540.814 355.51,-539.161 356.763,-546.048"/>
</g>
<!-- Node13&#45;&gt;Node6 -->
<g id="edge18" class="edge"><title>Node13&#45;&gt;Node6</title>
<path fill="none" stroke="midnightblue" d="M255.016,-723.436C336.404,-709.634 508.942,-669.703 610,-568.821 652.869,-526.027 681.809,-458.854 694.189,-426.089"/>
<polygon fill="midnightblue" stroke="midnightblue" points="697.592,-426.975 697.749,-416.381 691.02,-424.565 697.592,-426.975"/>
</g>
<!-- Node13&#45;&gt;Node12 -->
<g id="edge19" class="edge"><title>Node13&#45;&gt;Node12</title>
<path fill="none" stroke="midnightblue" d="M255.264,-729.922C307.526,-728.821 395.478,-723.189 467,-699.821 536.431,-677.136 554.893,-666.764 610,-618.821 691.552,-547.871 708.081,-521.699 758,-425.821 802.946,-339.495 829.091,-224.777 838.255,-179.445"/>
<polygon fill="midnightblue" stroke="midnightblue" points="841.72,-179.962 840.22,-169.474 834.852,-178.609 841.72,-179.962"/>
</g>
<!-- Node14 -->
<g id="node14" class="node"><title>Node14</title>
<g id="a_node14"><a xlink:href="../../d7/db8/lms7002m__controls_8c.html#a90cb8ace2a72d2eb3609f2d1b50a0e39" target="_top" xlink:title="pow2">
<polygon fill="white" stroke="black" points="536.5,-283.321 536.5,-302.321 576.5,-302.321 576.5,-283.321 536.5,-283.321"/>
<text text-anchor="middle" x="556.5" y="-290.321" font-family="Helvetica,sans-Serif" font-size="10.00">pow2</text>
</a>
</g>
</g>
<!-- Node13&#45;&gt;Node14 -->
<g id="edge21" class="edge"><title>Node13&#45;&gt;Node14</title>
<path fill="none" stroke="midnightblue" d="M255.146,-722.881C266.292,-720.088 277.918,-716.204 288,-710.821 307.147,-700.598 306.445,-690.585 324,-677.821 383.079,-634.867 421.678,-654.103 467,-596.821 471.605,-591.002 531.445,-378.573 550.032,-312.338"/>
<polygon fill="midnightblue" stroke="midnightblue" points="553.494,-312.952 552.824,-302.378 546.754,-311.062 553.494,-312.952"/>
</g>
<!-- Node15&#45;&gt;Node12 -->
<g id="edge23" class="edge"><title>Node15&#45;&gt;Node12</title>
<path fill="none" stroke="midnightblue" d="M430.034,-52.0574C450.983,-55.8902 478.534,-60.8166 503,-64.8212 616.08,-83.3298 651.255,-61.165 758,-102.821 782.519,-112.39 807.018,-130.193 823.176,-143.366"/>
<polygon fill="midnightblue" stroke="midnightblue" points="821.329,-146.385 831.241,-150.127 825.826,-141.021 821.329,-146.385"/>
</g>
<!-- Node16 -->
<g id="node16" class="node"><title>Node16</title>
<g id="a_node16"><a xlink:href="../../d7/db8/lms7002m__controls_8c.html#aaec3b1294b24c7f3b9db2c9af59402d4" target="_top" xlink:title="TuneVCO">
<polygon fill="white" stroke="black" points="526.5,-112.321 526.5,-131.321 586.5,-131.321 586.5,-112.321 526.5,-112.321"/>
<text text-anchor="middle" x="556.5" y="-119.321" font-family="Helvetica,sans-Serif" font-size="10.00">TuneVCO</text>
</a>
</g>
</g>
<!-- Node15&#45;&gt;Node16 -->
<g id="edge24" class="edge"><title>Node15&#45;&gt;Node16</title>
<path fill="none" stroke="midnightblue" d="M430.041,-51.4142C442.176,-54.3114 455.669,-58.5928 467,-64.8212 486.021,-75.2766 484.909,-85.8291 503,-97.8212 508.537,-101.491 514.726,-104.87 520.858,-107.861"/>
<polygon fill="midnightblue" stroke="midnightblue" points="519.799,-111.227 530.346,-112.231 522.727,-104.869 519.799,-111.227"/>
</g>
<!-- Node16&#45;&gt;Node6 -->
<g id="edge25" class="edge"><title>Node16&#45;&gt;Node6</title>
<path fill="none" stroke="midnightblue" d="M567.491,-131.58C578.944,-143.19 597.715,-163.559 610,-183.821 652.405,-253.764 683.137,-347.018 695.276,-387.124"/>
<polygon fill="midnightblue" stroke="midnightblue" points="691.997,-388.374 698.202,-396.962 698.707,-386.38 691.997,-388.374"/>
</g>
<!-- Node17 -->
<g id="node17" class="node"><title>Node17</title>
<g id="a_node17"><a xlink:href="../../d7/db8/lms7002m__controls_8c.html#ac911f4b8718fda93faacd6f94699d564" target="_top" xlink:title="Performs VCO tuning operations for CLKGEN, SXR, SXT modules. ">
<polygon fill="white" stroke="black" points="671,-112.321 671,-131.321 733,-131.321 733,-112.321 671,-112.321"/>
<text text-anchor="middle" x="702" y="-119.321" font-family="Helvetica,sans-Serif" font-size="10.00">ReadCMP</text>
</a>
</g>
</g>
<!-- Node16&#45;&gt;Node17 -->
<g id="edge26" class="edge"><title>Node16&#45;&gt;Node17</title>
<path fill="none" stroke="midnightblue" d="M586.539,-121.821C607.799,-121.821 636.923,-121.821 660.473,-121.821"/>
<polygon fill="midnightblue" stroke="midnightblue" points="660.518,-125.321 670.518,-121.821 660.518,-118.321 660.518,-125.321"/>
</g>
<!-- Node17&#45;&gt;Node12 -->
<g id="edge27" class="edge"><title>Node17&#45;&gt;Node12</title>
<path fill="none" stroke="midnightblue" d="M733.161,-130.067C751.91,-135.192 776.354,-141.875 797.325,-147.608"/>
<polygon fill="midnightblue" stroke="midnightblue" points="796.423,-150.99 806.992,-150.251 798.269,-144.237 796.423,-150.99"/>
</g>
<!-- Node18&#45;&gt;Node4 -->
<g id="edge29" class="edge"><title>Node18&#45;&gt;Node4</title>
<path fill="none" stroke="midnightblue" d="M264.594,-473.378C272.693,-475.851 280.746,-478.948 288,-482.821 307.147,-493.045 305.328,-504.754 324,-515.821 333.878,-521.676 345.388,-526.357 356.207,-529.974"/>
<polygon fill="midnightblue" stroke="midnightblue" points="355.295,-533.356 365.883,-533 357.384,-526.675 355.295,-533.356"/>
</g>
<!-- Node19 -->
<g id="node19" class="node"><title>Node19</title>
<g id="a_node19"><a xlink:href="../../d3/dec/lms7002m__calibrations_8c.html#af20d931e0e2448c2240c95f2b4c45a86" target="_top" xlink:title="FlipRisingEdge">
<polygon fill="white" stroke="black" points="515,-492.321 515,-511.321 598,-511.321 598,-492.321 515,-492.321"/>
<text text-anchor="middle" x="556.5" y="-499.321" font-family="Helvetica,sans-Serif" font-size="10.00">FlipRisingEdge</text>
</a>
</g>
</g>
<!-- Node18&#45;&gt;Node19 -->
<g id="edge30" class="edge"><title>Node18&#45;&gt;Node19</title>
<path fill="none" stroke="midnightblue" d="M265.639,-470.868C284.192,-473.16 304.979,-475.667 324,-477.821 386.149,-484.858 457.78,-492.16 504.703,-496.833"/>
<polygon fill="midnightblue" stroke="midnightblue" points="504.614,-500.342 514.911,-497.847 505.306,-493.376 504.614,-500.342"/>
</g>
<!-- Node19&#45;&gt;Node6 -->
<g id="edge31" class="edge"><title>Node19&#45;&gt;Node6</title>
<path fill="none" stroke="midnightblue" d="M581.624,-492.207C590.756,-488.206 601.091,-483.23 610,-477.821 636.79,-461.555 664.813,-438.663 682.562,-423.312"/>
<polygon fill="midnightblue" stroke="midnightblue" points="685.185,-425.667 690.399,-416.444 680.571,-420.403 685.185,-425.667"/>
</g>
<!-- Node20&#45;&gt;Node4 -->
<g id="edge34" class="edge"><title>Node20&#45;&gt;Node4</title>
<path fill="none" stroke="midnightblue" d="M250.289,-431.604C262.857,-434.449 276.443,-438.65 288,-444.821 307.147,-455.045 307.85,-463.32 324,-477.821 341.438,-493.478 361.527,-511.105 375.788,-523.551"/>
<polygon fill="midnightblue" stroke="midnightblue" points="373.609,-526.294 383.448,-530.226 378.208,-521.017 373.609,-526.294"/>
</g>
<!-- Node20&#45;&gt;Node6 -->
<g id="edge35" class="edge"><title>Node20&#45;&gt;Node6</title>
<path fill="none" stroke="midnightblue" d="M250.123,-432.689C322.615,-443.891 479.967,-462.671 610,-439.821 631.169,-436.101 653.9,-427.861 671.348,-420.546"/>
<polygon fill="midnightblue" stroke="midnightblue" points="673.171,-423.571 680.959,-416.388 670.391,-417.147 673.171,-423.571"/>
</g>
<!-- Node21&#45;&gt;Node3 -->
<g id="edge37" class="edge"><title>Node21&#45;&gt;Node3</title>
<path fill="none" stroke="midnightblue" d="M230.128,-359.324C248.059,-368.836 273.62,-385.164 288,-406.821 326.402,-464.658 275.669,-508.983 324,-558.821 332.532,-567.619 344.674,-572.482 356.484,-575.126"/>
<polygon fill="midnightblue" stroke="midnightblue" points="356.221,-578.634 366.677,-576.923 357.436,-571.74 356.221,-578.634"/>
</g>
<!-- Node21&#45;&gt;Node4 -->
<g id="edge40" class="edge"><title>Node21&#45;&gt;Node4</title>
<path fill="none" stroke="midnightblue" d="M225.582,-359.44C242.026,-369.981 268.247,-387.921 288,-406.821 326.62,-443.774 363.78,-494.823 382.301,-521.659"/>
<polygon fill="midnightblue" stroke="midnightblue" points="379.518,-523.791 388.046,-530.079 385.301,-519.846 379.518,-523.791"/>
</g>
<!-- Node21&#45;&gt;Node6 -->
<g id="edge38" class="edge"><title>Node21&#45;&gt;Node6</title>
<path fill="none" stroke="midnightblue" d="M254.656,-355.396C275.69,-357.998 301.129,-361.113 324,-363.821 433.184,-376.752 560.243,-391.099 635.462,-399.52"/>
<polygon fill="midnightblue" stroke="midnightblue" points="635.398,-403.034 645.725,-400.668 636.176,-396.077 635.398,-403.034"/>
</g>
<!-- Node21&#45;&gt;Node12 -->
<g id="edge42" class="edge"><title>Node21&#45;&gt;Node12</title>
<path fill="none" stroke="midnightblue" d="M254.63,-353.104C330.407,-357.057 487.887,-358.19 610,-311.821 697.469,-278.607 785.811,-208.247 823.312,-176.263"/>
<polygon fill="midnightblue" stroke="midnightblue" points="825.638,-178.879 830.925,-169.698 821.067,-173.578 825.638,-178.879"/>
</g>
<!-- Node21&#45;&gt;Node14 -->
<g id="edge39" class="edge"><title>Node21&#45;&gt;Node14</title>
<path fill="none" stroke="midnightblue" d="M254.814,-342.428C326.64,-330.578 465.595,-307.653 526.126,-297.667"/>
<polygon fill="midnightblue" stroke="midnightblue" points="526.853,-301.095 536.15,-296.014 525.713,-294.188 526.853,-301.095"/>
</g>
<!-- Node21&#45;&gt;Node16 -->
<g id="edge41" class="edge"><title>Node21&#45;&gt;Node16</title>
<path fill="none" stroke="midnightblue" d="M254.863,-342.326C266.015,-339.543 277.714,-335.804 288,-330.821 295.03,-327.416 473.984,-186.227 535.193,-137.871"/>
<polygon fill="midnightblue" stroke="midnightblue" points="537.659,-140.384 543.336,-131.438 533.319,-134.891 537.659,-140.384"/>
</g>
<!-- Node22&#45;&gt;Node4 -->
<g id="edge49" class="edge"><title>Node22&#45;&gt;Node4</title>
<path fill="none" stroke="midnightblue" d="M259.136,-317.045C269.443,-319.905 279.692,-324.25 288,-330.821 351.196,-380.809 380.324,-478.374 390.294,-520.112"/>
<polygon fill="midnightblue" stroke="midnightblue" points="386.936,-521.129 392.565,-530.105 393.762,-519.578 386.936,-521.129"/>
</g>
<!-- Node23 -->
<g id="node23" class="node"><title>Node23</title>
<g id="a_node23"><a xlink:href="../../d7/db8/lms7002m__controls_8c.html#aba69dada15c144130b08cff13cb54a4c" target="_top" xlink:title="GetReferenceClk_TSP_MHz">
<polygon fill="white" stroke="black" points="324,-150.321 324,-169.321 467,-169.321 467,-150.321 324,-150.321"/>
<text text-anchor="middle" x="395.5" y="-157.321" font-family="Helvetica,sans-Serif" font-size="10.00">GetReferenceClk_TSP_MHz</text>
</a>
</g>
</g>
<!-- Node22&#45;&gt;Node23 -->
<g id="edge44" class="edge"><title>Node22&#45;&gt;Node23</title>
<path fill="none" stroke="midnightblue" d="M221.541,-302.313C252.345,-276.935 336.76,-207.39 375.098,-175.805"/>
<polygon fill="midnightblue" stroke="midnightblue" points="377.47,-178.386 382.963,-169.326 373.019,-172.983 377.47,-178.386"/>
</g>
<!-- Node23&#45;&gt;Node12 -->
<g id="edge48" class="edge"><title>Node23&#45;&gt;Node12</title>
<path fill="none" stroke="midnightblue" d="M467.091,-159.821C554.617,-159.821 702.183,-159.821 783.63,-159.821"/>
<polygon fill="midnightblue" stroke="midnightblue" points="783.708,-163.321 793.708,-159.821 783.708,-156.321 783.708,-163.321"/>
</g>
<!-- Node23&#45;&gt;Node14 -->
<g id="edge47" class="edge"><title>Node23&#45;&gt;Node14</title>
<path fill="none" stroke="midnightblue" d="M407.935,-169.386C434.848,-191.899 502.444,-248.441 535.99,-276.502"/>
<polygon fill="midnightblue" stroke="midnightblue" points="533.824,-279.252 543.74,-282.984 538.315,-273.883 533.824,-279.252"/>
</g>
<!-- Node24 -->
<g id="node24" class="node"><title>Node24</title>
<g id="a_node24"><a xlink:href="../../d7/db8/lms7002m__controls_8c.html#a595e621678235b67d352591a896d2376" target="_top" xlink:title="GetFrequencyCGEN">
<polygon fill="white" stroke="black" points="503,-36.3212 503,-55.3212 610,-55.3212 610,-36.3212 503,-36.3212"/>
<text text-anchor="middle" x="556.5" y="-43.3212" font-family="Helvetica,sans-Serif" font-size="10.00">GetFrequencyCGEN</text>
</a>
</g>
</g>
<!-- Node23&#45;&gt;Node24 -->
<g id="edge45" class="edge"><title>Node23&#45;&gt;Node24</title>
<path fill="none" stroke="midnightblue" d="M446.11,-150.238C453.395,-147.768 460.593,-144.679 467,-140.821 469.242,-139.471 514.839,-90.0485 539.684,-63.0377"/>
<polygon fill="midnightblue" stroke="midnightblue" points="542.466,-65.1832 546.657,-55.4526 537.312,-60.4456 542.466,-65.1832"/>
</g>
<!-- Node24&#45;&gt;Node12 -->
<g id="edge46" class="edge"><title>Node24&#45;&gt;Node12</title>
<path fill="none" stroke="midnightblue" d="M610.168,-42.4925C652.35,-42.0223 711.885,-46.4255 758,-69.8212 790.377,-86.2471 816.77,-120.499 830.866,-141.689"/>
<polygon fill="midnightblue" stroke="midnightblue" points="827.945,-143.618 836.296,-150.138 833.834,-139.833 827.945,-143.618"/>
</g>
<!-- Node25&#45;&gt;Node4 -->
<g id="edge51" class="edge"><title>Node25&#45;&gt;Node4</title>
<path fill="none" stroke="midnightblue" d="M256.557,-511.41C287.171,-517.716 326.768,-525.871 355.679,-531.826"/>
<polygon fill="midnightblue" stroke="midnightblue" points="355.311,-535.323 365.811,-533.912 356.723,-528.467 355.311,-535.323"/>
</g>
<!-- Node26&#45;&gt;Node6 -->
<g id="edge57" class="edge"><title>Node26&#45;&gt;Node6</title>
<path fill="none" stroke="midnightblue" d="M226.072,-131.394C247.669,-143.892 287.561,-165.717 324,-178.821 450.038,-224.147 506.693,-188.571 610,-273.821 649.207,-306.175 678.599,-359.596 692.359,-387.885"/>
<polygon fill="midnightblue" stroke="midnightblue" points="689.27,-389.541 696.71,-397.084 695.598,-386.548 689.27,-389.541"/>
</g>
<!-- Node26&#45;&gt;Node12 -->
<g id="edge55" class="edge"><title>Node26&#45;&gt;Node12</title>
<path fill="none" stroke="midnightblue" d="M215.979,-112.317C230.881,-89.6448 272.23,-32.7254 324,-11.8212 382.932,11.9753 403.518,-8.77405 467,-11.8212 596.781,-18.0505 645.764,25.6385 758,-39.8212 797.737,-62.9967 823.257,-113.335 834.812,-140.878"/>
<polygon fill="midnightblue" stroke="midnightblue" points="831.586,-142.236 838.557,-150.214 838.083,-139.63 831.586,-142.236"/>
</g>
<!-- Node26&#45;&gt;Node14 -->
<g id="edge56" class="edge"><title>Node26&#45;&gt;Node14</title>
<path fill="none" stroke="midnightblue" d="M219.857,-131.512C238.659,-149.539 281.569,-188.506 324,-211.821 392.376,-249.392 481.466,-274.675 526.591,-286.014"/>
<polygon fill="midnightblue" stroke="midnightblue" points="525.758,-289.414 536.305,-288.409 527.433,-282.617 525.758,-289.414"/>
</g>
<!-- Node26&#45;&gt;Node24 -->
<g id="edge54" class="edge"><title>Node26&#45;&gt;Node24</title>
<path fill="none" stroke="midnightblue" d="M217.517,-112.076C234.071,-91.5194 276.036,-44.1865 324,-26.8212 389.176,-3.22437 471.195,-19.8808 518.056,-33.3735"/>
<polygon fill="midnightblue" stroke="midnightblue" points="517.2,-36.7704 527.783,-36.2754 519.201,-30.0626 517.2,-36.7704"/>
</g>
<!-- Node27 -->
<g id="node27" class="node"><title>Node27</title>
<g id="a_node27"><a xlink:href="../../d3/dec/lms7002m__calibrations_8c.html#a95a4619c54b4149b4fb43670c8467fd3" target="_top" xlink:title="clamp">
<polygon fill="white" stroke="black" points="374,-74.3212 374,-93.3212 417,-93.3212 417,-74.3212 374,-74.3212"/>
<text text-anchor="middle" x="395.5" y="-81.3212" font-family="Helvetica,sans-Serif" font-size="10.00">clamp</text>
</a>
</g>
</g>
<!-- Node26&#45;&gt;Node27 -->
<g id="edge53" class="edge"><title>Node26&#45;&gt;Node27</title>
<path fill="none" stroke="midnightblue" d="M244.703,-114.674C279.083,-107.593 331.217,-96.855 364.038,-90.0952"/>
<polygon fill="midnightblue" stroke="midnightblue" points="364.88,-93.4953 373.968,-88.0499 363.468,-86.6392 364.88,-93.4953"/>
</g>
<!-- Node28 -->
<g id="node28" class="node"><title>Node28</title>
<g id="a_node28"><a xlink:href="../../d7/db8/lms7002m__controls_8c.html#a642726a10aa97f369c0dcb7d1480c875" target="_top" xlink:title="SetFrequencyCGEN">
<polygon fill="white" stroke="black" points="342,-112.321 342,-131.321 449,-131.321 449,-112.321 342,-112.321"/>
<text text-anchor="middle" x="395.5" y="-119.321" font-family="Helvetica,sans-Serif" font-size="10.00">SetFrequencyCGEN</text>
</a>
</g>
</g>
<!-- Node26&#45;&gt;Node28 -->
<g id="edge58" class="edge"><title>Node26&#45;&gt;Node28</title>
<path fill="none" stroke="midnightblue" d="M244.703,-121.821C269.167,-121.821 302.622,-121.821 331.711,-121.821"/>
<polygon fill="midnightblue" stroke="midnightblue" points="331.796,-125.321 341.796,-121.821 331.796,-118.321 331.796,-125.321"/>
</g>
<!-- Node28&#45;&gt;Node6 -->
<g id="edge59" class="edge"><title>Node28&#45;&gt;Node6</title>
<path fill="none" stroke="midnightblue" d="M438.113,-131.416C485.612,-144.368 562.813,-171.803 610,-221.821 657.19,-271.842 684.803,-350.981 695.645,-387.359"/>
<polygon fill="midnightblue" stroke="midnightblue" points="692.346,-388.553 698.474,-397.196 699.074,-386.618 692.346,-388.553"/>
</g>
<!-- Node28&#45;&gt;Node16 -->
<g id="edge60" class="edge"><title>Node28&#45;&gt;Node16</title>
<path fill="none" stroke="midnightblue" d="M449.003,-121.821C470.879,-121.821 495.85,-121.821 516.111,-121.821"/>
<polygon fill="midnightblue" stroke="midnightblue" points="516.236,-125.321 526.236,-121.821 516.236,-118.321 516.236,-125.321"/>
</g>
<!-- Node29&#45;&gt;Node3 -->
<g id="edge65" class="edge"><title>Node29&#45;&gt;Node3</title>
<path fill="none" stroke="midnightblue" d="M258.475,-577.821C289.149,-577.821 328.228,-577.821 356.622,-577.821"/>
<polygon fill="midnightblue" stroke="midnightblue" points="356.941,-581.321 366.941,-577.821 356.941,-574.321 356.941,-581.321"/>
</g>
<!-- Node29&#45;&gt;Node4 -->
<g id="edge64" class="edge"><title>Node29&#45;&gt;Node4</title>
<path fill="none" stroke="midnightblue" d="M256.557,-568.232C287.171,-561.927 326.768,-553.771 355.679,-547.817"/>
<polygon fill="midnightblue" stroke="midnightblue" points="356.723,-551.175 365.811,-545.73 355.311,-544.319 356.723,-551.175"/>
</g>
</g>
</svg>
