<?xml version="1.0" encoding="UTF-8" standalone="no"?>
<!DOCTYPE svg PUBLIC "-//W3C//DTD SVG 1.1//EN"
 "http://www.w3.org/Graphics/SVG/1.1/DTD/svg11.dtd">
<!-- Generated by graphviz version 2.38.0 (20140413.2041)
 -->
<!-- Title: /home/erik/prefix/default/src/limesuite&#45;dev/src/Si5351C/Si5351C_wxgui.cpp Pages: 1 -->
<svg width="1680pt" height="330pt"
 viewBox="0.00 0.00 1679.50 330.00" xmlns="http://www.w3.org/2000/svg" xmlns:xlink="http://www.w3.org/1999/xlink">
<g id="graph0" class="graph" transform="scale(1 1) rotate(0) translate(4 326)">
<title>/home/erik/prefix/default/src/limesuite&#45;dev/src/Si5351C/Si5351C_wxgui.cpp</title>
<polygon fill="white" stroke="none" points="-4,4 -4,-326 1675.5,-326 1675.5,4 -4,4"/>
<!-- Node1 -->
<g id="node1" class="node"><title>Node1</title>
<polygon fill="#bfbfbf" stroke="black" points="1249.5,-280.5 1249.5,-321.5 1396.5,-321.5 1396.5,-280.5 1249.5,-280.5"/>
<text text-anchor="start" x="1257.5" y="-309.5" font-family="Helvetica,sans-Serif" font-size="10.00">/home/erik/prefix/default</text>
<text text-anchor="start" x="1257.5" y="-298.5" font-family="Helvetica,sans-Serif" font-size="10.00">/src/limesuite&#45;dev/src</text>
<text text-anchor="middle" x="1323" y="-287.5" font-family="Helvetica,sans-Serif" font-size="10.00">/Si5351C/Si5351C_wxgui.cpp</text>
</g>
<!-- Node2 -->
<g id="node2" class="node"><title>Node2</title>
<g id="a_node2"><a xlink:href="../../d7/dfe/Si5351C__wxgui_8h.html" target="_top" xlink:title="Si5351C_wxgui.h">
<polygon fill="white" stroke="black" points="405.5,-224.5 405.5,-243.5 498.5,-243.5 498.5,-224.5 405.5,-224.5"/>
<text text-anchor="middle" x="452" y="-231.5" font-family="Helvetica,sans-Serif" font-size="10.00">Si5351C_wxgui.h</text>
</a>
</g>
</g>
<!-- Node1&#45;&gt;Node2 -->
<g id="edge1" class="edge"><title>Node1&#45;&gt;Node2</title>
<path fill="none" stroke="midnightblue" d="M1249.49,-294.514C1079.3,-281.813 661.128,-250.607 508.737,-239.234"/>
<polygon fill="midnightblue" stroke="midnightblue" points="508.892,-235.736 498.66,-238.482 508.371,-242.717 508.892,-235.736"/>
</g>
<!-- Node14 -->
<g id="node14" class="node"><title>Node14</title>
<g id="a_node14"><a xlink:href="../../df/df8/Si5351C_8h.html" target="_top" xlink:title="Header for Si5351C.cpp. ">
<polygon fill="white" stroke="black" points="0,-112.5 0,-131.5 62,-131.5 62,-112.5 0,-112.5"/>
<text text-anchor="middle" x="31" y="-119.5" font-family="Helvetica,sans-Serif" font-size="10.00">Si5351C.h</text>
</a>
</g>
</g>
<!-- Node1&#45;&gt;Node14 -->
<g id="edge13" class="edge"><title>Node1&#45;&gt;Node14</title>
<path fill="none" stroke="midnightblue" d="M1249.43,-298.554C1092.22,-294.808 712.126,-282.241 396,-244 258.308,-227.344 209.955,-255.87 89,-188 68.6839,-176.6 51.8182,-155.387 41.6056,-140.297"/>
<polygon fill="midnightblue" stroke="midnightblue" points="44.5035,-138.332 36.1353,-131.834 38.6249,-142.133 44.5035,-138.332"/>
</g>
<!-- Node17 -->
<g id="node17" class="node"><title>Node17</title>
<g id="a_node17"><a xlink:href="../../dc/d5e/lms7__device_8h.html" target="_top" xlink:title="lms7_device.h">
<polygon fill="white" stroke="black" points="975,-224.5 975,-243.5 1055,-243.5 1055,-224.5 975,-224.5"/>
<text text-anchor="middle" x="1015" y="-231.5" font-family="Helvetica,sans-Serif" font-size="10.00">lms7_device.h</text>
</a>
</g>
</g>
<!-- Node1&#45;&gt;Node17 -->
<g id="edge17" class="edge"><title>Node1&#45;&gt;Node17</title>
<path fill="none" stroke="midnightblue" d="M1249.23,-284.431C1192.28,-272.414 1115.04,-256.112 1065.11,-245.574"/>
<polygon fill="midnightblue" stroke="midnightblue" points="1065.7,-242.122 1055.19,-243.481 1064.25,-248.971 1065.7,-242.122"/>
</g>
<!-- Node23 -->
<g id="node23" class="node"><title>Node23</title>
<polygon fill="white" stroke="#bfbfbf" points="1004,-56.5 1004,-75.5 1048,-75.5 1048,-56.5 1004,-56.5"/>
<text text-anchor="middle" x="1026" y="-63.5" font-family="Helvetica,sans-Serif" font-size="10.00">vector</text>
</g>
<!-- Node1&#45;&gt;Node23 -->
<g id="edge57" class="edge"><title>Node1&#45;&gt;Node23</title>
<path fill="none" stroke="midnightblue" d="M1302.89,-280.25C1293.57,-270.151 1283.04,-257.22 1276,-244 1247.31,-190.113 1282.94,-153.318 1238,-112 1179.98,-58.6567 1139.91,-92.5522 1058.43,-75.9983"/>
<polygon fill="midnightblue" stroke="midnightblue" points="1058.81,-72.4963 1048.29,-73.7202 1057.28,-79.3262 1058.81,-72.4963"/>
</g>
<!-- Node38 -->
<g id="node38" class="node"><title>Node38</title>
<g id="a_node38"><a xlink:href="../../d8/df2/LMSBoards_8h.html" target="_top" xlink:title="enumerations of available LMS7002M hardware ">
<polygon fill="white" stroke="black" points="1285,-224.5 1285,-243.5 1361,-243.5 1361,-224.5 1285,-224.5"/>
<text text-anchor="middle" x="1323" y="-231.5" font-family="Helvetica,sans-Serif" font-size="10.00">LMSBoards.h</text>
</a>
</g>
</g>
<!-- Node1&#45;&gt;Node38 -->
<g id="edge52" class="edge"><title>Node1&#45;&gt;Node38</title>
<path fill="none" stroke="midnightblue" d="M1323,-280.498C1323,-272.065 1323,-262.235 1323,-253.874"/>
<polygon fill="midnightblue" stroke="midnightblue" points="1326.5,-253.652 1323,-243.652 1319.5,-253.653 1326.5,-253.652"/>
</g>
<!-- Node39 -->
<g id="node39" class="node"><title>Node39</title>
<polygon fill="white" stroke="#bfbfbf" points="1379.5,-224.5 1379.5,-243.5 1432.5,-243.5 1432.5,-224.5 1379.5,-224.5"/>
<text text-anchor="middle" x="1406" y="-231.5" font-family="Helvetica,sans-Serif" font-size="10.00">wx/intl.h</text>
</g>
<!-- Node1&#45;&gt;Node39 -->
<g id="edge53" class="edge"><title>Node1&#45;&gt;Node39</title>
<path fill="none" stroke="midnightblue" d="M1347.9,-280.498C1360.38,-270.724 1375.26,-259.072 1386.84,-250.007"/>
<polygon fill="midnightblue" stroke="midnightblue" points="1389.24,-252.574 1394.95,-243.652 1384.92,-247.063 1389.24,-252.574"/>
</g>
<!-- Node40 -->
<g id="node40" class="node"><title>Node40</title>
<polygon fill="white" stroke="#bfbfbf" points="1450.5,-224.5 1450.5,-243.5 1515.5,-243.5 1515.5,-224.5 1450.5,-224.5"/>
<text text-anchor="middle" x="1483" y="-231.5" font-family="Helvetica,sans-Serif" font-size="10.00">wx/string.h</text>
</g>
<!-- Node1&#45;&gt;Node40 -->
<g id="edge54" class="edge"><title>Node1&#45;&gt;Node40</title>
<path fill="none" stroke="midnightblue" d="M1371.01,-280.498C1397.42,-269.766 1429.41,-256.769 1452.43,-247.419"/>
<polygon fill="midnightblue" stroke="midnightblue" points="1453.75,-250.659 1461.7,-243.652 1451.12,-244.174 1453.75,-250.659"/>
</g>
<!-- Node41 -->
<g id="node41" class="node"><title>Node41</title>
<polygon fill="white" stroke="#bfbfbf" points="1534,-224.5 1534,-243.5 1600,-243.5 1600,-224.5 1534,-224.5"/>
<text text-anchor="middle" x="1567" y="-231.5" font-family="Helvetica,sans-Serif" font-size="10.00">wx/filedlg.h</text>
</g>
<!-- Node1&#45;&gt;Node41 -->
<g id="edge55" class="edge"><title>Node1&#45;&gt;Node41</title>
<path fill="none" stroke="midnightblue" d="M1396.21,-280.498C1438.24,-269.3 1489.53,-255.638 1524.87,-246.224"/>
<polygon fill="midnightblue" stroke="midnightblue" points="1526.08,-249.523 1534.84,-243.567 1524.28,-242.759 1526.08,-249.523"/>
</g>
<!-- Node42 -->
<g id="node42" class="node"><title>Node42</title>
<polygon fill="white" stroke="#bfbfbf" points="1618.5,-224.5 1618.5,-243.5 1671.5,-243.5 1671.5,-224.5 1618.5,-224.5"/>
<text text-anchor="middle" x="1645" y="-231.5" font-family="Helvetica,sans-Serif" font-size="10.00">wx/wx.h</text>
</g>
<!-- Node1&#45;&gt;Node42 -->
<g id="edge56" class="edge"><title>Node1&#45;&gt;Node42</title>
<path fill="none" stroke="midnightblue" d="M1396.69,-286.653C1452.21,-276.348 1530.41,-261.301 1608.31,-244.062"/>
<polygon fill="midnightblue" stroke="midnightblue" points="1609.3,-247.427 1618.3,-241.838 1607.78,-240.594 1609.3,-247.427"/>
</g>
<!-- Node3 -->
<g id="node3" class="node"><title>Node3</title>
<polygon fill="white" stroke="#bfbfbf" points="378,-168.5 378,-187.5 440,-187.5 440,-168.5 378,-168.5"/>
<text text-anchor="middle" x="409" y="-175.5" font-family="Helvetica,sans-Serif" font-size="10.00">wx/sizer.h</text>
</g>
<!-- Node2&#45;&gt;Node3 -->
<g id="edge2" class="edge"><title>Node2&#45;&gt;Node3</title>
<path fill="none" stroke="midnightblue" d="M444.899,-224.083C438.763,-216.377 429.73,-205.033 422.261,-195.653"/>
<polygon fill="midnightblue" stroke="midnightblue" points="424.936,-193.394 415.968,-187.751 419.46,-197.754 424.936,-193.394"/>
</g>
<!-- Node4 -->
<g id="node4" class="node"><title>Node4</title>
<polygon fill="white" stroke="#bfbfbf" points="458,-168.5 458,-187.5 532,-187.5 532,-168.5 458,-168.5"/>
<text text-anchor="middle" x="495" y="-175.5" font-family="Helvetica,sans-Serif" font-size="10.00">wx/stattext.h</text>
</g>
<!-- Node2&#45;&gt;Node4 -->
<g id="edge3" class="edge"><title>Node2&#45;&gt;Node4</title>
<path fill="none" stroke="midnightblue" d="M459.101,-224.083C465.237,-216.377 474.27,-205.033 481.739,-195.653"/>
<polygon fill="midnightblue" stroke="midnightblue" points="484.54,-197.754 488.032,-187.751 479.064,-193.394 484.54,-197.754"/>
</g>
<!-- Node5 -->
<g id="node5" class="node"><title>Node5</title>
<polygon fill="white" stroke="#bfbfbf" points="550.5,-168.5 550.5,-187.5 621.5,-187.5 621.5,-168.5 550.5,-168.5"/>
<text text-anchor="middle" x="586" y="-175.5" font-family="Helvetica,sans-Serif" font-size="10.00">wx/textctrl.h</text>
</g>
<!-- Node2&#45;&gt;Node5 -->
<g id="edge4" class="edge"><title>Node2&#45;&gt;Node5</title>
<path fill="none" stroke="midnightblue" d="M473.233,-224.444C495.384,-215.517 530.319,-201.439 555.436,-191.317"/>
<polygon fill="midnightblue" stroke="midnightblue" points="556.9,-194.501 564.867,-187.516 554.283,-188.008 556.9,-194.501"/>
</g>
<!-- Node6 -->
<g id="node6" class="node"><title>Node6</title>
<polygon fill="white" stroke="#bfbfbf" points="639.5,-168.5 639.5,-187.5 722.5,-187.5 722.5,-168.5 639.5,-168.5"/>
<text text-anchor="middle" x="681" y="-175.5" font-family="Helvetica,sans-Serif" font-size="10.00">wx/checkbox.h</text>
</g>
<!-- Node2&#45;&gt;Node6 -->
<g id="edge5" class="edge"><title>Node2&#45;&gt;Node6</title>
<path fill="none" stroke="midnightblue" d="M488.286,-224.444C527.983,-215.083 591.707,-200.056 634.912,-189.868"/>
<polygon fill="midnightblue" stroke="midnightblue" points="635.954,-193.218 644.884,-187.516 634.348,-186.405 635.954,-193.218"/>
</g>
<!-- Node7 -->
<g id="node7" class="node"><title>Node7</title>
<polygon fill="white" stroke="#bfbfbf" points="112.5,-168.5 112.5,-187.5 177.5,-187.5 177.5,-168.5 112.5,-168.5"/>
<text text-anchor="middle" x="145" y="-175.5" font-family="Helvetica,sans-Serif" font-size="10.00">wx/frame.h</text>
</g>
<!-- Node2&#45;&gt;Node7 -->
<g id="edge6" class="edge"><title>Node2&#45;&gt;Node7</title>
<path fill="none" stroke="midnightblue" d="M405.457,-225.716C354.522,-217.607 270.214,-203.781 187.596,-188.043"/>
<polygon fill="midnightblue" stroke="midnightblue" points="188.011,-184.559 177.531,-186.115 186.694,-191.434 188.011,-184.559"/>
</g>
<!-- Node8 -->
<g id="node8" class="node"><title>Node8</title>
<polygon fill="white" stroke="#bfbfbf" points="196,-168.5 196,-187.5 264,-187.5 264,-168.5 196,-168.5"/>
<text text-anchor="middle" x="230" y="-175.5" font-family="Helvetica,sans-Serif" font-size="10.00">wx/button.h</text>
</g>
<!-- Node2&#45;&gt;Node8 -->
<g id="edge7" class="edge"><title>Node2&#45;&gt;Node8</title>
<path fill="none" stroke="midnightblue" d="M416.823,-224.444C378.195,-215.047 316.099,-199.943 274.208,-189.753"/>
<polygon fill="midnightblue" stroke="midnightblue" points="274.826,-186.302 264.283,-187.339 273.172,-193.103 274.826,-186.302"/>
</g>
<!-- Node9 -->
<g id="node9" class="node"><title>Node9</title>
<polygon fill="white" stroke="#bfbfbf" points="282.5,-168.5 282.5,-187.5 359.5,-187.5 359.5,-168.5 282.5,-168.5"/>
<text text-anchor="middle" x="321" y="-175.5" font-family="Helvetica,sans-Serif" font-size="10.00">wx/radiobox.h</text>
</g>
<!-- Node2&#45;&gt;Node9 -->
<g id="edge8" class="edge"><title>Node2&#45;&gt;Node9</title>
<path fill="none" stroke="midnightblue" d="M431.243,-224.444C409.684,-215.557 375.737,-201.563 351.206,-191.451"/>
<polygon fill="midnightblue" stroke="midnightblue" points="352.239,-188.092 341.66,-187.516 349.572,-194.563 352.239,-188.092"/>
</g>
<!-- Node10 -->
<g id="node10" class="node"><title>Node10</title>
<polygon fill="white" stroke="#bfbfbf" points="282.5,-56.5 282.5,-75.5 323.5,-75.5 323.5,-56.5 282.5,-56.5"/>
<text text-anchor="middle" x="303" y="-63.5" font-family="Helvetica,sans-Serif" font-size="10.00">string</text>
</g>
<!-- Node2&#45;&gt;Node10 -->
<g id="edge9" class="edge"><title>Node2&#45;&gt;Node10</title>
<path fill="none" stroke="midnightblue" d="M405.347,-230.362C314.868,-224.768 122.667,-210.365 103,-188 49.0723,-126.672 203.508,-86.9936 272.053,-72.8235"/>
<polygon fill="midnightblue" stroke="midnightblue" points="273.158,-76.1715 282.271,-70.7689 271.778,-69.3089 273.158,-76.1715"/>
</g>
<!-- Node11 -->
<g id="node11" class="node"><title>Node11</title>
<g id="a_node11"><a xlink:href="../../d5/d07/LimeSuite_8h.html" target="_top" xlink:title="LMS API library. ">
<polygon fill="white" stroke="black" points="840.5,-168.5 840.5,-187.5 929.5,-187.5 929.5,-168.5 840.5,-168.5"/>
<text text-anchor="middle" x="885" y="-175.5" font-family="Helvetica,sans-Serif" font-size="10.00">lime/LimeSuite.h</text>
</a>
</g>
</g>
<!-- Node2&#45;&gt;Node11 -->
<g id="edge10" class="edge"><title>Node2&#45;&gt;Node11</title>
<path fill="none" stroke="midnightblue" d="M498.706,-227.861C569.553,-219.956 708.39,-204.042 826,-188 827.299,-187.823 828.614,-187.641 829.941,-187.456"/>
<polygon fill="midnightblue" stroke="midnightblue" points="830.841,-190.863 840.244,-185.979 829.848,-183.933 830.841,-190.863"/>
</g>
<!-- Node12 -->
<g id="node12" class="node"><title>Node12</title>
<g id="a_node12"><a xlink:href="../../d1/d2e/LMS7002M__parameters_8h.html" target="_top" xlink:title="List of LMS7002M transceiver control parameters. ">
<polygon fill="white" stroke="black" points="821,-112.5 821,-131.5 949,-131.5 949,-112.5 821,-112.5"/>
<text text-anchor="middle" x="885" y="-119.5" font-family="Helvetica,sans-Serif" font-size="10.00">LMS7002M_parameters.h</text>
</a>
</g>
</g>
<!-- Node11&#45;&gt;Node12 -->
<g id="edge11" class="edge"><title>Node11&#45;&gt;Node12</title>
<path fill="none" stroke="midnightblue" d="M885,-168.083C885,-161.006 885,-150.861 885,-141.986"/>
<polygon fill="midnightblue" stroke="midnightblue" points="888.5,-141.751 885,-131.751 881.5,-141.751 888.5,-141.751"/>
</g>
<!-- Node13 -->
<g id="node13" class="node"><title>Node13</title>
<polygon fill="white" stroke="#bfbfbf" points="860.5,-0.5 860.5,-19.5 909.5,-19.5 909.5,-0.5 860.5,-0.5"/>
<text text-anchor="middle" x="885" y="-7.5" font-family="Helvetica,sans-Serif" font-size="10.00">stdint.h</text>
</g>
<!-- Node12&#45;&gt;Node13 -->
<g id="edge12" class="edge"><title>Node12&#45;&gt;Node13</title>
<path fill="none" stroke="midnightblue" d="M885,-112.368C885,-94.617 885,-53.6664 885,-29.5974"/>
<polygon fill="midnightblue" stroke="midnightblue" points="888.5,-29.5914 885,-19.5914 881.5,-29.5915 888.5,-29.5914"/>
</g>
<!-- Node14&#45;&gt;Node10 -->
<g id="edge15" class="edge"><title>Node14&#45;&gt;Node10</title>
<path fill="none" stroke="midnightblue" d="M62.4699,-114.699C67.0096,-113.792 71.6243,-112.871 76,-112 146.255,-98.0109 228.762,-81.6792 272.374,-73.054"/>
<polygon fill="midnightblue" stroke="midnightblue" points="273.209,-76.4568 282.34,-71.0833 271.851,-69.5898 273.209,-76.4568"/>
</g>
<!-- Node15 -->
<g id="node15" class="node"><title>Node15</title>
<polygon fill="white" stroke="#bfbfbf" points="8,-56.5 8,-75.5 54,-75.5 54,-56.5 8,-56.5"/>
<text text-anchor="middle" x="31" y="-63.5" font-family="Helvetica,sans-Serif" font-size="10.00">stdio.h</text>
</g>
<!-- Node14&#45;&gt;Node15 -->
<g id="edge14" class="edge"><title>Node14&#45;&gt;Node15</title>
<path fill="none" stroke="midnightblue" d="M31,-112.083C31,-105.006 31,-94.8611 31,-85.9865"/>
<polygon fill="midnightblue" stroke="midnightblue" points="34.5001,-85.751 31,-75.7511 27.5001,-85.7511 34.5001,-85.751"/>
</g>
<!-- Node16 -->
<g id="node16" class="node"><title>Node16</title>
<g id="a_node16"><a xlink:href="../../dd/d40/LimeSuiteConfig_8h.html" target="_top" xlink:title="Configuration constants and macros for lime suite library. ">
<polygon fill="white" stroke="black" points="498.5,-56.5 498.5,-75.5 595.5,-75.5 595.5,-56.5 498.5,-56.5"/>
<text text-anchor="middle" x="547" y="-63.5" font-family="Helvetica,sans-Serif" font-size="10.00">LimeSuiteConfig.h</text>
</a>
</g>
</g>
<!-- Node14&#45;&gt;Node16 -->
<g id="edge16" class="edge"><title>Node14&#45;&gt;Node16</title>
<path fill="none" stroke="midnightblue" d="M62.1161,-117.744C146.126,-108.952 378.58,-84.6254 488.265,-73.1467"/>
<polygon fill="midnightblue" stroke="midnightblue" points="488.905,-76.5989 498.487,-72.077 488.177,-69.6369 488.905,-76.5989"/>
</g>
<!-- Node17&#45;&gt;Node11 -->
<g id="edge26" class="edge"><title>Node17&#45;&gt;Node11</title>
<path fill="none" stroke="midnightblue" d="M994.401,-224.444C973.007,-215.557 939.319,-201.563 914.976,-191.451"/>
<polygon fill="midnightblue" stroke="midnightblue" points="916.08,-188.12 905.503,-187.516 913.395,-194.585 916.08,-188.12"/>
</g>
<!-- Node18 -->
<g id="node18" class="node"><title>Node18</title>
<g id="a_node18"><a xlink:href="../../d1/d7e/LMS7002M_8h.html" target="_top" xlink:title="LMS7002M transceiver configuration interface. ">
<polygon fill="white" stroke="black" points="978,-168.5 978,-187.5 1052,-187.5 1052,-168.5 978,-168.5"/>
<text text-anchor="middle" x="1015" y="-175.5" font-family="Helvetica,sans-Serif" font-size="10.00">LMS7002M.h</text>
</a>
</g>
</g>
<!-- Node17&#45;&gt;Node18 -->
<g id="edge18" class="edge"><title>Node17&#45;&gt;Node18</title>
<path fill="none" stroke="midnightblue" d="M1015,-224.083C1015,-217.006 1015,-206.861 1015,-197.986"/>
<polygon fill="midnightblue" stroke="midnightblue" points="1018.5,-197.751 1015,-187.751 1011.5,-197.751 1018.5,-197.751"/>
</g>
<!-- Node24 -->
<g id="node24" class="node"><title>Node24</title>
<g id="a_node24"><a xlink:href="../../d2/dbf/Streamer_8h.html" target="_top" xlink:title="Streamer.h">
<polygon fill="white" stroke="black" points="1297.5,-168.5 1297.5,-187.5 1362.5,-187.5 1362.5,-168.5 1297.5,-168.5"/>
<text text-anchor="middle" x="1330" y="-175.5" font-family="Helvetica,sans-Serif" font-size="10.00">Streamer.h</text>
</a>
</g>
</g>
<!-- Node17&#45;&gt;Node24 -->
<g id="edge27" class="edge"><title>Node17&#45;&gt;Node24</title>
<path fill="none" stroke="midnightblue" d="M1055.21,-226.106C1114.79,-215.892 1226.03,-196.823 1287.11,-186.352"/>
<polygon fill="midnightblue" stroke="midnightblue" points="1287.93,-189.764 1297.19,-184.624 1286.74,-182.864 1287.93,-189.764"/>
</g>
<!-- Node35 -->
<g id="node35" class="node"><title>Node35</title>
<g id="a_node35"><a xlink:href="../../d3/d1e/IConnection_8h.html" target="_top" xlink:title="Interface class for connection types. ">
<polygon fill="white" stroke="black" points="740.5,-168.5 740.5,-187.5 817.5,-187.5 817.5,-168.5 740.5,-168.5"/>
<text text-anchor="middle" x="779" y="-175.5" font-family="Helvetica,sans-Serif" font-size="10.00">IConnection.h</text>
</a>
</g>
</g>
<!-- Node17&#45;&gt;Node35 -->
<g id="edge42" class="edge"><title>Node17&#45;&gt;Node35</title>
<path fill="none" stroke="midnightblue" d="M977.605,-224.444C936.608,-215.063 870.746,-199.993 826.216,-189.804"/>
<polygon fill="midnightblue" stroke="midnightblue" points="826.749,-186.335 816.22,-187.516 825.187,-193.159 826.749,-186.335"/>
</g>
<!-- Node18&#45;&gt;Node12 -->
<g id="edge20" class="edge"><title>Node18&#45;&gt;Node12</title>
<path fill="none" stroke="midnightblue" d="M994.401,-168.444C973.007,-159.557 939.319,-145.563 914.976,-135.451"/>
<polygon fill="midnightblue" stroke="midnightblue" points="916.08,-132.12 905.503,-131.516 913.395,-138.585 916.08,-132.12"/>
</g>
<!-- Node18&#45;&gt;Node16 -->
<g id="edge19" class="edge"><title>Node18&#45;&gt;Node16</title>
<path fill="none" stroke="midnightblue" d="M1010.37,-168.436C1002.04,-153.977 983.029,-125.029 958,-112 898.12,-80.8285 704.357,-71.17 605.775,-68.2392"/>
<polygon fill="midnightblue" stroke="midnightblue" points="605.772,-64.7378 595.677,-67.9527 605.573,-71.735 605.772,-64.7378"/>
</g>
<!-- Node19 -->
<g id="node19" class="node"><title>Node19</title>
<polygon fill="white" stroke="#bfbfbf" points="1183,-112.5 1183,-131.5 1229,-131.5 1229,-112.5 1183,-112.5"/>
<text text-anchor="middle" x="1206" y="-119.5" font-family="Helvetica,sans-Serif" font-size="10.00">cstdint</text>
</g>
<!-- Node18&#45;&gt;Node19 -->
<g id="edge21" class="edge"><title>Node18&#45;&gt;Node19</title>
<path fill="none" stroke="midnightblue" d="M1045.26,-168.444C1080.02,-158.618 1136.85,-142.551 1172.79,-132.388"/>
<polygon fill="midnightblue" stroke="midnightblue" points="1174.12,-135.652 1182.79,-129.563 1172.21,-128.916 1174.12,-135.652"/>
</g>
<!-- Node20 -->
<g id="node20" class="node"><title>Node20</title>
<polygon fill="white" stroke="#bfbfbf" points="1043,-112.5 1043,-131.5 1095,-131.5 1095,-112.5 1043,-112.5"/>
<text text-anchor="middle" x="1069" y="-119.5" font-family="Helvetica,sans-Serif" font-size="10.00">sstream</text>
</g>
<!-- Node18&#45;&gt;Node20 -->
<g id="edge22" class="edge"><title>Node18&#45;&gt;Node20</title>
<path fill="none" stroke="midnightblue" d="M1023.92,-168.083C1031.78,-160.22 1043.43,-148.569 1052.92,-139.081"/>
<polygon fill="midnightblue" stroke="midnightblue" points="1055.65,-141.297 1060.25,-131.751 1050.7,-136.347 1055.65,-141.297"/>
</g>
<!-- Node21 -->
<g id="node21" class="node"><title>Node21</title>
<polygon fill="white" stroke="#bfbfbf" points="1113,-112.5 1113,-131.5 1165,-131.5 1165,-112.5 1113,-112.5"/>
<text text-anchor="middle" x="1139" y="-119.5" font-family="Helvetica,sans-Serif" font-size="10.00">stdarg.h</text>
</g>
<!-- Node18&#45;&gt;Node21 -->
<g id="edge23" class="edge"><title>Node18&#45;&gt;Node21</title>
<path fill="none" stroke="midnightblue" d="M1034.65,-168.444C1054.96,-159.596 1086.9,-145.687 1110.1,-135.586"/>
<polygon fill="midnightblue" stroke="midnightblue" points="1111.67,-138.718 1119.44,-131.516 1108.88,-132.3 1111.67,-138.718"/>
</g>
<!-- Node22 -->
<g id="node22" class="node"><title>Node22</title>
<polygon fill="white" stroke="#bfbfbf" points="743.5,-112.5 743.5,-131.5 802.5,-131.5 802.5,-112.5 743.5,-112.5"/>
<text text-anchor="middle" x="773" y="-119.5" font-family="Helvetica,sans-Serif" font-size="10.00">functional</text>
</g>
<!-- Node18&#45;&gt;Node22 -->
<g id="edge24" class="edge"><title>Node18&#45;&gt;Node22</title>
<path fill="none" stroke="midnightblue" d="M977.936,-168.885C939.211,-160.383 876.428,-146.538 812.634,-132.129"/>
<polygon fill="midnightblue" stroke="midnightblue" points="813.33,-128.698 802.804,-129.906 811.786,-135.525 813.33,-128.698"/>
</g>
<!-- Node18&#45;&gt;Node23 -->
<g id="edge25" class="edge"><title>Node18&#45;&gt;Node23</title>
<path fill="none" stroke="midnightblue" d="M1015.86,-168.368C1017.64,-150.617 1021.73,-109.666 1024.14,-85.5974"/>
<polygon fill="midnightblue" stroke="midnightblue" points="1027.63,-85.8901 1025.14,-75.5914 1020.66,-85.1935 1027.63,-85.8901"/>
</g>
<!-- Node24&#45;&gt;Node23 -->
<g id="edge41" class="edge"><title>Node24&#45;&gt;Node23</title>
<path fill="none" stroke="midnightblue" d="M1324.76,-168.127C1315.75,-153.748 1295.87,-125.595 1271,-112 1189.18,-67.2791 1153.43,-95.4597 1058.29,-75.9808"/>
<polygon fill="midnightblue" stroke="midnightblue" points="1058.79,-72.5075 1048.27,-73.8004 1057.3,-79.3474 1058.79,-72.5075"/>
</g>
<!-- Node25 -->
<g id="node25" class="node"><title>Node25</title>
<g id="a_node25"><a xlink:href="../../d4/dbd/dataTypes_8h.html" target="_top" xlink:title="dataTypes.h">
<polygon fill="white" stroke="black" points="1561.5,-56.5 1561.5,-75.5 1632.5,-75.5 1632.5,-56.5 1561.5,-56.5"/>
<text text-anchor="middle" x="1597" y="-63.5" font-family="Helvetica,sans-Serif" font-size="10.00">dataTypes.h</text>
</a>
</g>
</g>
<!-- Node24&#45;&gt;Node25 -->
<g id="edge28" class="edge"><title>Node24&#45;&gt;Node25</title>
<path fill="none" stroke="midnightblue" d="M1350.95,-168.368C1397.94,-149.01 1511.89,-102.065 1566.64,-79.5074"/>
<polygon fill="midnightblue" stroke="midnightblue" points="1568.23,-82.6368 1576.15,-75.5914 1565.57,-76.1646 1568.23,-82.6368"/>
</g>
<!-- Node27 -->
<g id="node27" class="node"><title>Node27</title>
<g id="a_node27"><a xlink:href="../../d0/dd8/fifo_8h.html" target="_top" xlink:title="fifo.h">
<polygon fill="white" stroke="black" points="1323,-112.5 1323,-131.5 1361,-131.5 1361,-112.5 1323,-112.5"/>
<text text-anchor="middle" x="1342" y="-119.5" font-family="Helvetica,sans-Serif" font-size="10.00">fifo.h</text>
</a>
</g>
</g>
<!-- Node24&#45;&gt;Node27 -->
<g id="edge31" class="edge"><title>Node24&#45;&gt;Node27</title>
<path fill="none" stroke="midnightblue" d="M1331.98,-168.083C1333.57,-160.927 1335.86,-150.635 1337.85,-141.691"/>
<polygon fill="midnightblue" stroke="midnightblue" points="1341.3,-142.272 1340.06,-131.751 1334.47,-140.754 1341.3,-142.272"/>
</g>
<!-- Node25&#45;&gt;Node13 -->
<g id="edge30" class="edge"><title>Node25&#45;&gt;Node13</title>
<path fill="none" stroke="midnightblue" d="M1561.05,-57.2362C1558.33,-56.7754 1555.63,-56.3555 1553,-56 1312.11,-23.4008 1019.01,-14.0324 919.752,-11.6947"/>
<polygon fill="midnightblue" stroke="midnightblue" points="919.763,-8.19415 909.687,-11.4664 919.605,-15.1924 919.763,-8.19415"/>
</g>
<!-- Node26 -->
<g id="node26" class="node"><title>Node26</title>
<polygon fill="white" stroke="#bfbfbf" points="1572.5,-0.5 1572.5,-19.5 1621.5,-19.5 1621.5,-0.5 1572.5,-0.5"/>
<text text-anchor="middle" x="1597" y="-7.5" font-family="Helvetica,sans-Serif" font-size="10.00">string.h</text>
</g>
<!-- Node25&#45;&gt;Node26 -->
<g id="edge29" class="edge"><title>Node25&#45;&gt;Node26</title>
<path fill="none" stroke="midnightblue" d="M1597,-56.083C1597,-49.0059 1597,-38.8611 1597,-29.9865"/>
<polygon fill="midnightblue" stroke="midnightblue" points="1600.5,-29.751 1597,-19.7511 1593.5,-29.7511 1600.5,-29.751"/>
</g>
<!-- Node27&#45;&gt;Node23 -->
<g id="edge35" class="edge"><title>Node27&#45;&gt;Node23</title>
<path fill="none" stroke="midnightblue" d="M1322.9,-115.359C1318.37,-114.141 1313.54,-112.939 1309,-112 1201.35,-89.7209 1169.4,-99.2484 1058.19,-75.9866"/>
<polygon fill="midnightblue" stroke="midnightblue" points="1058.77,-72.5317 1048.26,-73.8675 1057.3,-79.3776 1058.77,-72.5317"/>
</g>
<!-- Node27&#45;&gt;Node25 -->
<g id="edge38" class="edge"><title>Node27&#45;&gt;Node25</title>
<path fill="none" stroke="midnightblue" d="M1361.17,-116.941C1401.18,-108.467 1494.58,-88.6887 1551.1,-76.721"/>
<polygon fill="midnightblue" stroke="midnightblue" points="1552.14,-80.0776 1561.2,-74.5818 1550.69,-73.2295 1552.14,-80.0776"/>
</g>
<!-- Node28 -->
<g id="node28" class="node"><title>Node28</title>
<polygon fill="white" stroke="#bfbfbf" points="1386,-56.5 1386,-75.5 1430,-75.5 1430,-56.5 1386,-56.5"/>
<text text-anchor="middle" x="1408" y="-63.5" font-family="Helvetica,sans-Serif" font-size="10.00">mutex</text>
</g>
<!-- Node27&#45;&gt;Node28 -->
<g id="edge32" class="edge"><title>Node27&#45;&gt;Node28</title>
<path fill="none" stroke="midnightblue" d="M1352.6,-112.324C1362.46,-104.263 1377.35,-92.0765 1389.22,-82.3695"/>
<polygon fill="midnightblue" stroke="midnightblue" points="1391.68,-84.8752 1397.2,-75.8339 1387.25,-79.4575 1391.68,-84.8752"/>
</g>
<!-- Node29 -->
<g id="node29" class="node"><title>Node29</title>
<polygon fill="white" stroke="#bfbfbf" points="1448.5,-56.5 1448.5,-75.5 1543.5,-75.5 1543.5,-56.5 1448.5,-56.5"/>
<text text-anchor="middle" x="1496" y="-63.5" font-family="Helvetica,sans-Serif" font-size="10.00">condition_variable</text>
</g>
<!-- Node27&#45;&gt;Node29 -->
<g id="edge33" class="edge"><title>Node27&#45;&gt;Node29</title>
<path fill="none" stroke="midnightblue" d="M1361.19,-114.27C1386.44,-105.417 1431.22,-89.7138 1462.21,-78.8494"/>
<polygon fill="midnightblue" stroke="midnightblue" points="1463.46,-82.1188 1471.74,-75.5069 1461.14,-75.5131 1463.46,-82.1188"/>
</g>
<!-- Node30 -->
<g id="node30" class="node"><title>Node30</title>
<polygon fill="white" stroke="#bfbfbf" points="1066,-56.5 1066,-75.5 1112,-75.5 1112,-56.5 1066,-56.5"/>
<text text-anchor="middle" x="1089" y="-63.5" font-family="Helvetica,sans-Serif" font-size="10.00">atomic</text>
</g>
<!-- Node27&#45;&gt;Node30 -->
<g id="edge34" class="edge"><title>Node27&#45;&gt;Node30</title>
<path fill="none" stroke="midnightblue" d="M1322.87,-115.514C1318.34,-114.29 1313.51,-113.046 1309,-112 1229.2,-93.5063 1205.54,-95.3611 1121.95,-76.0532"/>
<polygon fill="midnightblue" stroke="midnightblue" points="1122.55,-72.5982 1112.01,-73.7241 1120.95,-79.4135 1122.55,-72.5982"/>
</g>
<!-- Node31 -->
<g id="node31" class="node"><title>Node31</title>
<polygon fill="white" stroke="#bfbfbf" points="1130,-56.5 1130,-75.5 1174,-75.5 1174,-56.5 1130,-56.5"/>
<text text-anchor="middle" x="1152" y="-63.5" font-family="Helvetica,sans-Serif" font-size="10.00">thread</text>
</g>
<!-- Node27&#45;&gt;Node31 -->
<g id="edge36" class="edge"><title>Node27&#45;&gt;Node31</title>
<path fill="none" stroke="midnightblue" d="M1322.74,-115.525C1290.1,-106.251 1223.64,-87.3608 1183.95,-76.08"/>
<polygon fill="midnightblue" stroke="midnightblue" points="1184.81,-72.6856 1174.23,-73.3184 1182.89,-79.419 1184.81,-72.6856"/>
</g>
<!-- Node32 -->
<g id="node32" class="node"><title>Node32</title>
<polygon fill="white" stroke="#bfbfbf" points="1192.5,-56.5 1192.5,-75.5 1235.5,-75.5 1235.5,-56.5 1192.5,-56.5"/>
<text text-anchor="middle" x="1214" y="-63.5" font-family="Helvetica,sans-Serif" font-size="10.00">queue</text>
</g>
<!-- Node27&#45;&gt;Node32 -->
<g id="edge37" class="edge"><title>Node27&#45;&gt;Node32</title>
<path fill="none" stroke="midnightblue" d="M1322.84,-112.916C1302,-104.123 1268.41,-89.9534 1244.05,-79.6781"/>
<polygon fill="midnightblue" stroke="midnightblue" points="1245.14,-76.3393 1234.57,-75.677 1242.42,-82.7888 1245.14,-76.3393"/>
</g>
<!-- Node33 -->
<g id="node33" class="node"><title>Node33</title>
<polygon fill="white" stroke="#bfbfbf" points="1254,-56.5 1254,-75.5 1298,-75.5 1298,-56.5 1254,-56.5"/>
<text text-anchor="middle" x="1276" y="-63.5" font-family="Helvetica,sans-Serif" font-size="10.00">cmath</text>
</g>
<!-- Node27&#45;&gt;Node33 -->
<g id="edge39" class="edge"><title>Node27&#45;&gt;Node33</title>
<path fill="none" stroke="midnightblue" d="M1331.4,-112.324C1321.54,-104.263 1306.65,-92.0765 1294.78,-82.3695"/>
<polygon fill="midnightblue" stroke="midnightblue" points="1296.75,-79.4575 1286.8,-75.8339 1292.32,-84.8752 1296.75,-79.4575"/>
</g>
<!-- Node34 -->
<g id="node34" class="node"><title>Node34</title>
<polygon fill="white" stroke="#bfbfbf" points="1316,-56.5 1316,-75.5 1368,-75.5 1368,-56.5 1316,-56.5"/>
<text text-anchor="middle" x="1342" y="-63.5" font-family="Helvetica,sans-Serif" font-size="10.00">assert.h</text>
</g>
<!-- Node27&#45;&gt;Node34 -->
<g id="edge40" class="edge"><title>Node27&#45;&gt;Node34</title>
<path fill="none" stroke="midnightblue" d="M1342,-112.083C1342,-105.006 1342,-94.8611 1342,-85.9865"/>
<polygon fill="midnightblue" stroke="midnightblue" points="1345.5,-85.751 1342,-75.7511 1338.5,-85.7511 1345.5,-85.751"/>
</g>
<!-- Node35&#45;&gt;Node10 -->
<g id="edge47" class="edge"><title>Node35&#45;&gt;Node10</title>
<path fill="none" stroke="midnightblue" d="M740.265,-169.512C737.134,-168.975 734.017,-168.464 731,-168 598.707,-147.656 560.133,-170.695 432,-132 392.192,-119.978 349.832,-96.2597 324.927,-81.0406"/>
<polygon fill="midnightblue" stroke="midnightblue" points="326.619,-77.9715 316.278,-75.6659 322.925,-83.917 326.619,-77.9715"/>
</g>
<!-- Node35&#45;&gt;Node13 -->
<g id="edge51" class="edge"><title>Node35&#45;&gt;Node13</title>
<path fill="none" stroke="midnightblue" d="M762.754,-168.303C743.002,-156.506 713.729,-134.332 726,-112 752.383,-63.9847 812.328,-35.5592 850.609,-21.6468"/>
<polygon fill="midnightblue" stroke="midnightblue" points="852.025,-24.8599 860.314,-18.2611 849.719,-18.2506 852.025,-24.8599"/>
</g>
<!-- Node35&#45;&gt;Node16 -->
<g id="edge43" class="edge"><title>Node35&#45;&gt;Node16</title>
<path fill="none" stroke="midnightblue" d="M753.681,-168.341C729.89,-159.933 693.482,-146.366 663,-132 629.597,-116.258 592.647,-94.8103 569.624,-80.9337"/>
<polygon fill="midnightblue" stroke="midnightblue" points="571.311,-77.8633 560.947,-75.6639 567.678,-83.8464 571.311,-77.8633"/>
</g>
<!-- Node35&#45;&gt;Node22 -->
<g id="edge50" class="edge"><title>Node35&#45;&gt;Node22</title>
<path fill="none" stroke="midnightblue" d="M778.009,-168.083C777.214,-160.927 776.071,-150.635 775.077,-141.691"/>
<polygon fill="midnightblue" stroke="midnightblue" points="778.555,-141.303 773.972,-131.751 771.598,-142.076 778.555,-141.303"/>
</g>
<!-- Node35&#45;&gt;Node23 -->
<g id="edge48" class="edge"><title>Node35&#45;&gt;Node23</title>
<path fill="none" stroke="midnightblue" d="M765.511,-168.387C747.019,-155.542 717.827,-130.857 734,-112 767.124,-73.3802 924.268,-67.5926 993.322,-66.9436"/>
<polygon fill="midnightblue" stroke="midnightblue" points="993.638,-70.4418 1003.62,-66.8793 993.594,-63.4419 993.638,-70.4418"/>
</g>
<!-- Node36 -->
<g id="node36" class="node"><title>Node36</title>
<g id="a_node36"><a xlink:href="../../d1/d5d/ConnectionHandle_8h.html" target="_top" xlink:title="Represent a connection to a device. ">
<polygon fill="white" stroke="black" points="441.5,-112.5 441.5,-131.5 546.5,-131.5 546.5,-112.5 441.5,-112.5"/>
<text text-anchor="middle" x="494" y="-119.5" font-family="Helvetica,sans-Serif" font-size="10.00">ConnectionHandle.h</text>
</a>
</g>
</g>
<!-- Node35&#45;&gt;Node36 -->
<g id="edge44" class="edge"><title>Node35&#45;&gt;Node36</title>
<path fill="none" stroke="midnightblue" d="M740.267,-169.661C690.979,-160.322 605.518,-144.13 549.362,-133.49"/>
<polygon fill="midnightblue" stroke="midnightblue" points="549.71,-129.993 539.233,-131.57 548.406,-136.871 549.71,-129.993"/>
</g>
<!-- Node37 -->
<g id="node37" class="node"><title>Node37</title>
<polygon fill="white" stroke="#bfbfbf" points="565,-112.5 565,-131.5 611,-131.5 611,-112.5 565,-112.5"/>
<text text-anchor="middle" x="588" y="-119.5" font-family="Helvetica,sans-Serif" font-size="10.00">cstring</text>
</g>
<!-- Node35&#45;&gt;Node37 -->
<g id="edge49" class="edge"><title>Node35&#45;&gt;Node37</title>
<path fill="none" stroke="midnightblue" d="M748.735,-168.444C713.982,-158.618 657.151,-142.551 621.206,-132.388"/>
<polygon fill="midnightblue" stroke="midnightblue" points="621.789,-128.916 611.214,-129.563 619.884,-135.652 621.789,-128.916"/>
</g>
<!-- Node36&#45;&gt;Node10 -->
<g id="edge46" class="edge"><title>Node36&#45;&gt;Node10</title>
<path fill="none" stroke="midnightblue" d="M463.735,-112.444C428.121,-102.374 369.32,-85.7501 333.572,-75.6434"/>
<polygon fill="midnightblue" stroke="midnightblue" points="334.279,-72.2062 323.704,-72.8536 332.375,-78.9422 334.279,-72.2062"/>
</g>
<!-- Node36&#45;&gt;Node16 -->
<g id="edge45" class="edge"><title>Node36&#45;&gt;Node16</title>
<path fill="none" stroke="midnightblue" d="M502.752,-112.083C510.47,-104.22 521.905,-92.5688 531.217,-83.0813"/>
<polygon fill="midnightblue" stroke="midnightblue" points="533.904,-85.3396 538.411,-75.7511 528.908,-80.4363 533.904,-85.3396"/>
</g>
</g>
</svg>
