<?xml version="1.0" encoding="UTF-8" standalone="no"?>
<!DOCTYPE svg PUBLIC "-//W3C//DTD SVG 1.1//EN"
 "http://www.w3.org/Graphics/SVG/1.1/DTD/svg11.dtd">
<!-- Generated by graphviz version 2.38.0 (20140413.2041)
 -->
<!-- Title: pnlBoardControls::OnSetDACvaluesENTER Pages: 1 -->
<!--zoomable 560 -->
<svg id="main" version="1.1" xmlns="http://www.w3.org/2000/svg" xmlns:xlink="http://www.w3.org/1999/xlink" xml:space="preserve" onload="init(evt)">
<style type="text/css"><![CDATA[
.edge:hover path { stroke: red; }
.edge:hover polygon { stroke: red; fill: red; }
]]></style>
<script type="text/javascript"><![CDATA[
var edges = document.getElementsByTagName('g');
if (edges && edges.length) {
  for (var i=0;i<edges.length;i++) {
    if (edges[i].id.substr(0,4)=='edge') {
      edges[i].setAttribute('class','edge');
    }
  }
}
]]></script>
        <defs>
                <circle id="rim" cx="0" cy="0" r="7"/>
                <circle id="rim2" cx="0" cy="0" r="3.5"/>
                <g id="zoomPlus">
                        <use xlink:href="#rim" fill="#404040">
                                <set attributeName="fill" to="#808080" begin="zoomplus.mouseover" end="zoomplus.mouseout"/>
                        </use>
                        <path d="M-4,0h8M0,-4v8" fill="none" stroke="white" stroke-width="1.5" pointer-events="none"/>
                </g>
                <g id="zoomMin">
                        <use xlink:href="#rim" fill="#404040">
                                <set attributeName="fill" to="#808080" begin="zoomminus.mouseover" end="zoomminus.mouseout"/>
                        </use>
                        <path d="M-4,0h8" fill="none" stroke="white" stroke-width="1.5" pointer-events="none"/>
                </g>
                <g id="dirArrow">
                        <path fill="none" stroke="white" stroke-width="1.5" d="M0,-3.0v7 M-2.5,-0.5L0,-3.0L2.5,-0.5"/>
                </g>
               <g id="resetDef">
                       <use xlink:href="#rim2" fill="#404040">
                               <set attributeName="fill" to="#808080" begin="reset.mouseover" end="reset.mouseout"/>
                       </use>
               </g>
        </defs>

<script type="text/javascript">
var viewWidth = 1015;
var viewHeight = 560;
var sectionId = 'dynsection-16';
</script>
<script xlink:href="../../svgpan.js"/>
<svg id="graph" class="graph">
<g id="viewport">
<title>pnlBoardControls::OnSetDACvaluesENTER</title>
<polygon fill="white" stroke="none" points="-4,4 -4,-556 1011,-556 1011,4 -4,4"/>
<!-- Node1 -->
<g id="node1" class="node"><title>Node1</title>
<polygon fill="#bfbfbf" stroke="black" points="0,-261 0,-291 176,-291 176,-261 0,-261"/>
<text text-anchor="start" x="8" y="-279" font-family="Helvetica,sans-Serif" font-size="10.00">pnlBoardControls::OnSetDACvalues</text>
<text text-anchor="middle" x="88" y="-268" font-family="Helvetica,sans-Serif" font-size="10.00">ENTER</text>
</g>
<!-- Node2 -->
<g id="node2" class="node"><title>Node2</title>
<g id="a_node2"><a xlink:href="../../df/d93/classpnlBoardControls.html#ab1f3aeef9b75c8d6212cc6e654282e12" target="_top" xlink:title="pnlBoardControls::OnSetDACvalues">
<polygon fill="white" stroke="black" points="212,-266.5 212,-285.5 388,-285.5 388,-266.5 212,-266.5"/>
<text text-anchor="middle" x="300" y="-273.5" font-family="Helvetica,sans-Serif" font-size="10.00">pnlBoardControls::OnSetDACvalues</text>
</a>
</g>
</g>
<!-- Node1&#45;&gt;Node2 -->
<g id="edge1" class="edge"><title>Node1&#45;&gt;Node2</title>
<path fill="none" stroke="midnightblue" d="M176.235,-276C184.567,-276 193.052,-276 201.474,-276"/>
<polygon fill="midnightblue" stroke="midnightblue" points="201.699,-279.5 211.699,-276 201.699,-272.5 201.699,-279.5"/>
</g>
<!-- Node3 -->
<g id="node3" class="node"><title>Node3</title>
<g id="a_node3"><a xlink:href="../../df/de1/lms7__api_8cpp.html#a33751cada624efd567e37df81a57c639" target="_top" xlink:title="LMS_WriteCustomBoardParam">
<polygon fill="white" stroke="black" points="424,-266.5 424,-285.5 578,-285.5 578,-266.5 424,-266.5"/>
<text text-anchor="middle" x="501" y="-273.5" font-family="Helvetica,sans-Serif" font-size="10.00">LMS_WriteCustomBoardParam</text>
</a>
</g>
</g>
<!-- Node2&#45;&gt;Node3 -->
<g id="edge2" class="edge"><title>Node2&#45;&gt;Node3</title>
<path fill="none" stroke="midnightblue" d="M388.284,-276C396.674,-276 405.181,-276 413.562,-276"/>
<polygon fill="midnightblue" stroke="midnightblue" points="413.707,-279.5 423.707,-276 413.707,-272.5 413.707,-279.5"/>
</g>
<!-- Node4 -->
<g id="node4" class="node"><title>Node4</title>
<g id="a_node4"><a xlink:href="../../d3/d22/classlime_1_1LMS7__Device.html#a4fb66a6ab68f16a0b6506329b05a08b2" target="_top" xlink:title="lime::LMS7_Device::\lGetConnection">
<polygon fill="white" stroke="black" points="614,-305 614,-335 722,-335 722,-305 614,-305"/>
<text text-anchor="start" x="622" y="-323" font-family="Helvetica,sans-Serif" font-size="10.00">lime::LMS7_Device::</text>
<text text-anchor="middle" x="668" y="-312" font-family="Helvetica,sans-Serif" font-size="10.00">GetConnection</text>
</a>
</g>
</g>
<!-- Node3&#45;&gt;Node4 -->
<g id="edge3" class="edge"><title>Node3&#45;&gt;Node4</title>
<path fill="none" stroke="midnightblue" d="M537.803,-285.547C557.122,-290.699 581.536,-297.21 603.927,-303.18"/>
<polygon fill="midnightblue" stroke="midnightblue" points="603.146,-306.595 613.71,-305.789 604.95,-299.831 603.146,-306.595"/>
</g>
<!-- Node5 -->
<g id="node5" class="node"><title>Node5</title>
<g id="a_node5"><a xlink:href="../../d4/d67/lms_8c.html#a0e01e477b1f10e0a63e54de2dd2f8240" target="_top" xlink:title="lms">
<polygon fill="white" stroke="black" points="652,-266.5 652,-285.5 684,-285.5 684,-266.5 652,-266.5"/>
<text text-anchor="middle" x="668" y="-273.5" font-family="Helvetica,sans-Serif" font-size="10.00">lms</text>
</a>
</g>
</g>
<!-- Node3&#45;&gt;Node5 -->
<g id="edge4" class="edge"><title>Node3&#45;&gt;Node5</title>
<path fill="none" stroke="midnightblue" d="M578.221,-276C601.079,-276 624.584,-276 641.661,-276"/>
<polygon fill="midnightblue" stroke="midnightblue" points="641.884,-279.5 651.884,-276 641.884,-272.5 641.884,-279.5"/>
</g>
<!-- Node25 -->
<g id="node25" class="node"><title>Node25</title>
<g id="a_node25"><a xlink:href="../../d5/d6c/namespacelime.html#adc6af0cf8e0a70f3ef09fac1244f8c48" target="_top" xlink:title="lime::ReportError">
<polygon fill="white" stroke="black" points="622.5,-114.5 622.5,-133.5 713.5,-133.5 713.5,-114.5 622.5,-114.5"/>
<text text-anchor="middle" x="668" y="-121.5" font-family="Helvetica,sans-Serif" font-size="10.00">lime::ReportError</text>
</a>
</g>
</g>
<!-- Node3&#45;&gt;Node25 -->
<g id="edge27" class="edge"><title>Node3&#45;&gt;Node25</title>
<path fill="none" stroke="midnightblue" d="M512.321,-266.492C539.754,-241.221 614.729,-172.153 649.214,-140.384"/>
<polygon fill="midnightblue" stroke="midnightblue" points="651.699,-142.854 656.682,-133.505 646.956,-137.706 651.699,-142.854"/>
</g>
<!-- Node6 -->
<g id="node6" class="node"><title>Node6</title>
<g id="a_node6"><a xlink:href="../../d4/d67/lms_8c.html#a433227191fe883dcb8aa15d291bb29a1" target="_top" xlink:title="Case1F">
<polygon fill="white" stroke="black" points="766.5,-532.5 766.5,-551.5 817.5,-551.5 817.5,-532.5 766.5,-532.5"/>
<text text-anchor="middle" x="792" y="-539.5" font-family="Helvetica,sans-Serif" font-size="10.00">Case1F</text>
</a>
</g>
</g>
<!-- Node5&#45;&gt;Node6 -->
<g id="edge5" class="edge"><title>Node5&#45;&gt;Node6</title>
<path fill="none" stroke="midnightblue" d="M684.431,-277.65C696.529,-279.794 712.807,-284.715 722,-296 786.518,-375.196 700.083,-438.856 758,-523 758.637,-523.926 759.335,-524.812 760.083,-525.661"/>
<polygon fill="midnightblue" stroke="midnightblue" points="757.991,-528.477 767.872,-532.301 762.533,-523.15 757.991,-528.477"/>
</g>
<!-- Node7 -->
<g id="node7" class="node"><title>Node7</title>
<g id="a_node7"><a xlink:href="../../d4/d67/lms_8c.html#ace0cd8bf61cb9b86b98f0cef03b5a9d9" target="_top" xlink:title="Case2F">
<polygon fill="white" stroke="black" points="766.5,-494.5 766.5,-513.5 817.5,-513.5 817.5,-494.5 766.5,-494.5"/>
<text text-anchor="middle" x="792" y="-501.5" font-family="Helvetica,sans-Serif" font-size="10.00">Case2F</text>
</a>
</g>
</g>
<!-- Node5&#45;&gt;Node7 -->
<g id="edge6" class="edge"><title>Node5&#45;&gt;Node7</title>
<path fill="none" stroke="midnightblue" d="M684.338,-277.727C696.383,-279.915 712.633,-284.859 722,-296 777.028,-361.452 708.433,-415.321 758,-485 758.754,-486.061 759.588,-487.07 760.484,-488.031"/>
<polygon fill="midnightblue" stroke="midnightblue" points="758.353,-490.81 768.301,-494.457 762.799,-485.403 758.353,-490.81"/>
</g>
<!-- Node8 -->
<g id="node8" class="node"><title>Node8</title>
<g id="a_node8"><a xlink:href="../../d4/d67/lms_8c.html#a5f53b53ccc591e3643c4af2aee2e7f32" target="_top" xlink:title="Case3F">
<polygon fill="white" stroke="black" points="766.5,-456.5 766.5,-475.5 817.5,-475.5 817.5,-456.5 766.5,-456.5"/>
<text text-anchor="middle" x="792" y="-463.5" font-family="Helvetica,sans-Serif" font-size="10.00">Case3F</text>
</a>
</g>
</g>
<!-- Node5&#45;&gt;Node8 -->
<g id="edge7" class="edge"><title>Node5&#45;&gt;Node8</title>
<path fill="none" stroke="midnightblue" d="M684.203,-277.843C696.169,-280.099 712.381,-285.076 722,-296 767.596,-347.777 716.731,-391.712 758,-447 758.779,-448.043 759.632,-449.038 760.546,-449.986"/>
<polygon fill="midnightblue" stroke="midnightblue" points="758.457,-452.798 768.437,-456.358 762.855,-447.352 758.457,-452.798"/>
</g>
<!-- Node9 -->
<g id="node9" class="node"><title>Node9</title>
<g id="a_node9"><a xlink:href="../../d4/d67/lms_8c.html#a5086763d5b258349bc13d6be7e7d0665" target="_top" xlink:title="Case4F">
<polygon fill="white" stroke="black" points="766.5,-418.5 766.5,-437.5 817.5,-437.5 817.5,-418.5 766.5,-418.5"/>
<text text-anchor="middle" x="792" y="-425.5" font-family="Helvetica,sans-Serif" font-size="10.00">Case4F</text>
</a>
</g>
</g>
<!-- Node5&#45;&gt;Node9 -->
<g id="edge8" class="edge"><title>Node5&#45;&gt;Node9</title>
<path fill="none" stroke="midnightblue" d="M684.473,-278.135C696.268,-280.544 712.116,-285.584 722,-296 758.282,-334.235 724.922,-367.962 758,-409 758.933,-410.158 759.958,-411.259 761.05,-412.305"/>
<polygon fill="midnightblue" stroke="midnightblue" points="758.93,-415.09 768.992,-418.407 763.194,-409.539 758.93,-415.09"/>
</g>
<!-- Node10 -->
<g id="node10" class="node"><title>Node10</title>
<g id="a_node10"><a xlink:href="../../db/de5/recipes_8c.html#aee25e218394217a134e805ea09fb0fe9" target="_top" xlink:title="free_ivector">
<polygon fill="white" stroke="black" points="758,-380.5 758,-399.5 826,-399.5 826,-380.5 758,-380.5"/>
<text text-anchor="middle" x="792" y="-387.5" font-family="Helvetica,sans-Serif" font-size="10.00">free_ivector</text>
</a>
</g>
</g>
<!-- Node5&#45;&gt;Node10 -->
<g id="edge9" class="edge"><title>Node5&#45;&gt;Node10</title>
<path fill="none" stroke="midnightblue" d="M684.085,-278.53C695.666,-281.156 711.416,-286.296 722,-296 749.253,-320.988 732.852,-343.895 758,-371 759.175,-372.266 760.453,-373.472 761.802,-374.616"/>
<polygon fill="midnightblue" stroke="midnightblue" points="759.889,-377.55 770.067,-380.492 763.945,-371.845 759.889,-377.55"/>
</g>
<!-- Node11 -->
<g id="node11" class="node"><title>Node11</title>
<g id="a_node11"><a xlink:href="../../db/de5/recipes_8c.html#a3e0d121b098c19c0bdc2429e5b9f1625" target="_top" xlink:title="free_matrix">
<polygon fill="white" stroke="black" points="759.5,-342.5 759.5,-361.5 824.5,-361.5 824.5,-342.5 759.5,-342.5"/>
<text text-anchor="middle" x="792" y="-349.5" font-family="Helvetica,sans-Serif" font-size="10.00">free_matrix</text>
</a>
</g>
</g>
<!-- Node5&#45;&gt;Node11 -->
<g id="edge10" class="edge"><title>Node5&#45;&gt;Node11</title>
<path fill="none" stroke="midnightblue" d="M684.06,-280.068C695.049,-283.412 710.049,-288.775 722,-296 740.32,-307.075 741.324,-314.577 758,-328 761.477,-330.798 765.241,-333.673 768.94,-336.417"/>
<polygon fill="midnightblue" stroke="midnightblue" points="767.142,-339.437 777.289,-342.484 771.257,-333.774 767.142,-339.437"/>
</g>
<!-- Node12 -->
<g id="node12" class="node"><title>Node12</title>
<g id="a_node12"><a xlink:href="../../db/de5/recipes_8c.html#a8214a52d888e820222c0382648329c0c" target="_top" xlink:title="free_vector">
<polygon fill="white" stroke="black" points="862,-285.5 862,-304.5 927,-304.5 927,-285.5 862,-285.5"/>
<text text-anchor="middle" x="894.5" y="-292.5" font-family="Helvetica,sans-Serif" font-size="10.00">free_vector</text>
</a>
</g>
</g>
<!-- Node5&#45;&gt;Node12 -->
<g id="edge11" class="edge"><title>Node5&#45;&gt;Node12</title>
<path fill="none" stroke="midnightblue" d="M684.277,-280.288C701.881,-284.989 731.76,-292.23 758,-295 789.289,-298.303 824.869,-298.154 851.716,-297.26"/>
<polygon fill="midnightblue" stroke="midnightblue" points="852.056,-300.749 861.915,-296.87 851.789,-293.754 852.056,-300.749"/>
</g>
<!-- Node13 -->
<g id="node13" class="node"><title>Node13</title>
<g id="a_node13"><a xlink:href="../../d4/d67/lms_8c.html#ad1d6c875ff429888b51dd1155f0311ad" target="_top" xlink:title="ivector">
<polygon fill="white" stroke="black" points="769,-266.5 769,-285.5 815,-285.5 815,-266.5 769,-266.5"/>
<text text-anchor="middle" x="792" y="-273.5" font-family="Helvetica,sans-Serif" font-size="10.00">ivector</text>
</a>
</g>
</g>
<!-- Node5&#45;&gt;Node13 -->
<g id="edge12" class="edge"><title>Node5&#45;&gt;Node13</title>
<path fill="none" stroke="midnightblue" d="M684.451,-276C702.995,-276 734.584,-276 758.566,-276"/>
<polygon fill="midnightblue" stroke="midnightblue" points="758.646,-279.5 768.646,-276 758.645,-272.5 758.646,-279.5"/>
</g>
<!-- Node14 -->
<g id="node14" class="node"><title>Node14</title>
<g id="a_node14"><a xlink:href="../../db/de5/recipes_8c.html#a66ff65ad0355ec1f4a7722bcdafc8cd3" target="_top" xlink:title="lubksb">
<polygon fill="white" stroke="black" points="769.5,-228.5 769.5,-247.5 814.5,-247.5 814.5,-228.5 769.5,-228.5"/>
<text text-anchor="middle" x="792" y="-235.5" font-family="Helvetica,sans-Serif" font-size="10.00">lubksb</text>
</a>
</g>
</g>
<!-- Node5&#45;&gt;Node14 -->
<g id="edge13" class="edge"><title>Node5&#45;&gt;Node14</title>
<path fill="none" stroke="midnightblue" d="M684.451,-271.187C703.19,-265.351 735.251,-255.364 759.321,-247.867"/>
<polygon fill="midnightblue" stroke="midnightblue" points="760.579,-251.141 769.085,-244.826 758.497,-244.458 760.579,-251.141"/>
</g>
<!-- Node15 -->
<g id="node15" class="node"><title>Node15</title>
<g id="a_node15"><a xlink:href="../../db/de5/recipes_8c.html#a623fec796d9d53e5e4a4d30226547da7" target="_top" xlink:title="ludcmp">
<polygon fill="white" stroke="black" points="768,-190.5 768,-209.5 816,-209.5 816,-190.5 768,-190.5"/>
<text text-anchor="middle" x="792" y="-197.5" font-family="Helvetica,sans-Serif" font-size="10.00">ludcmp</text>
</a>
</g>
</g>
<!-- Node5&#45;&gt;Node15 -->
<g id="edge14" class="edge"><title>Node5&#45;&gt;Node15</title>
<path fill="none" stroke="midnightblue" d="M683.668,-266.304C701.201,-254.786 731.5,-235.103 758,-219 760.355,-217.569 762.818,-216.1 765.292,-214.644"/>
<polygon fill="midnightblue" stroke="midnightblue" points="767.234,-217.564 774.122,-209.514 763.717,-211.511 767.234,-217.564"/>
</g>
<!-- Node18 -->
<g id="node18" class="node"><title>Node18</title>
<g id="a_node18"><a xlink:href="../../d4/d67/lms_8c.html#a37bcb1539d76b53344102435e2ab9c91" target="_top" xlink:title="matrix">
<polygon fill="white" stroke="black" points="770,-152.5 770,-171.5 814,-171.5 814,-152.5 770,-152.5"/>
<text text-anchor="middle" x="792" y="-159.5" font-family="Helvetica,sans-Serif" font-size="10.00">matrix</text>
</a>
</g>
</g>
<!-- Node5&#45;&gt;Node18 -->
<g id="edge19" class="edge"><title>Node5&#45;&gt;Node18</title>
<path fill="none" stroke="midnightblue" d="M676.306,-266.494C690.59,-248.33 723.816,-208.093 758,-181 759.768,-179.599 761.651,-178.233 763.587,-176.919"/>
<polygon fill="midnightblue" stroke="midnightblue" points="765.588,-179.796 772.221,-171.534 761.884,-173.857 765.588,-179.796"/>
</g>
<!-- Node19 -->
<g id="node19" class="node"><title>Node19</title>
<g id="a_node19"><a xlink:href="../../d8/d91/rounding_8c.html#aa8d7512cdf5bfbf811cef6a8a091c679" target="_top" xlink:title="round2csd">
<polygon fill="white" stroke="black" points="761,-114.5 761,-133.5 823,-133.5 823,-114.5 761,-114.5"/>
<text text-anchor="middle" x="792" y="-121.5" font-family="Helvetica,sans-Serif" font-size="10.00">round2csd</text>
</a>
</g>
</g>
<!-- Node5&#45;&gt;Node19 -->
<g id="edge20" class="edge"><title>Node5&#45;&gt;Node19</title>
<path fill="none" stroke="midnightblue" d="M673.567,-266.211C684.977,-242.578 716.799,-181.516 758,-143 759.295,-141.79 760.68,-140.624 762.124,-139.508"/>
<polygon fill="midnightblue" stroke="midnightblue" points="764.446,-142.164 770.787,-133.676 760.537,-136.357 764.446,-142.164"/>
</g>
<!-- Node23 -->
<g id="node23" class="node"><title>Node23</title>
<g id="a_node23"><a xlink:href="../../d8/d91/rounding_8c.html#aca2670cc0fbf948a6b9cb670047c9d5b" target="_top" xlink:title="round2int">
<polygon fill="white" stroke="black" points="764,-76.5 764,-95.5 820,-95.5 820,-76.5 764,-76.5"/>
<text text-anchor="middle" x="792" y="-83.5" font-family="Helvetica,sans-Serif" font-size="10.00">round2int</text>
</a>
</g>
</g>
<!-- Node5&#45;&gt;Node23 -->
<g id="edge24" class="edge"><title>Node5&#45;&gt;Node23</title>
<path fill="none" stroke="midnightblue" d="M671.878,-266.336C680.635,-238.304 709.37,-155.742 758,-105 759.195,-103.753 760.49,-102.563 761.852,-101.431"/>
<polygon fill="midnightblue" stroke="midnightblue" points="763.989,-104.206 770.154,-95.5906 759.961,-98.4809 763.989,-104.206"/>
</g>
<!-- Node24 -->
<g id="node24" class="node"><title>Node24</title>
<g id="a_node24"><a xlink:href="../../d4/d67/lms_8c.html#ac81ca32708341eb34b25d515d00bc748" target="_top" xlink:title="vector">
<polygon fill="white" stroke="black" points="770,-38.5 770,-57.5 814,-57.5 814,-38.5 770,-38.5"/>
<text text-anchor="middle" x="792" y="-45.5" font-family="Helvetica,sans-Serif" font-size="10.00">vector</text>
</a>
</g>
</g>
<!-- Node5&#45;&gt;Node24 -->
<g id="edge26" class="edge"><title>Node5&#45;&gt;Node24</title>
<path fill="none" stroke="midnightblue" d="M672.908,-266.353C689.142,-226.346 750.739,-75.188 758,-67 759.146,-65.7078 760.402,-64.4815 761.733,-63.3211"/>
<polygon fill="midnightblue" stroke="midnightblue" points="763.883,-66.0859 769.943,-57.3953 759.786,-60.4099 763.883,-66.0859"/>
</g>
<!-- Node15&#45;&gt;Node12 -->
<g id="edge15" class="edge"><title>Node15&#45;&gt;Node12</title>
<path fill="none" stroke="midnightblue" d="M812.186,-209.656C816.9,-212.397 821.797,-215.577 826,-219 847.243,-236.301 867.546,-260.569 880.236,-276.991"/>
<polygon fill="midnightblue" stroke="midnightblue" points="877.633,-279.352 886.46,-285.212 883.214,-275.127 877.633,-279.352"/>
</g>
<!-- Node16 -->
<g id="node16" class="node"><title>Node16</title>
<g id="a_node16"><a xlink:href="../../db/de5/recipes_8c.html#a208e98f19b2f252315399d02c0594a46" target="_top" xlink:title="nrerror">
<polygon fill="white" stroke="black" points="963,-209.5 963,-228.5 1007,-228.5 1007,-209.5 963,-209.5"/>
<text text-anchor="middle" x="985" y="-216.5" font-family="Helvetica,sans-Serif" font-size="10.00">nrerror</text>
</a>
</g>
</g>
<!-- Node15&#45;&gt;Node16 -->
<g id="edge16" class="edge"><title>Node15&#45;&gt;Node16</title>
<path fill="none" stroke="midnightblue" d="M816.306,-208.1C829.528,-212.267 846.486,-216.903 862,-219 892.534,-223.127 927.761,-222.564 952.488,-221.308"/>
<polygon fill="midnightblue" stroke="midnightblue" points="952.944,-224.788 962.726,-220.718 952.541,-217.799 952.944,-224.788"/>
</g>
<!-- Node17 -->
<g id="node17" class="node"><title>Node17</title>
<g id="a_node17"><a xlink:href="../../db/de5/recipes_8c.html#a5e6092211a5f7e2d6ae9282379d3c604" target="_top" xlink:title="vector">
<polygon fill="white" stroke="black" points="872.5,-190.5 872.5,-209.5 916.5,-209.5 916.5,-190.5 872.5,-190.5"/>
<text text-anchor="middle" x="894.5" y="-197.5" font-family="Helvetica,sans-Serif" font-size="10.00">vector</text>
</a>
</g>
</g>
<!-- Node15&#45;&gt;Node17 -->
<g id="edge17" class="edge"><title>Node15&#45;&gt;Node17</title>
<path fill="none" stroke="midnightblue" d="M816.057,-200C829.673,-200 847.102,-200 861.977,-200"/>
<polygon fill="midnightblue" stroke="midnightblue" points="862.265,-203.5 872.265,-200 862.265,-196.5 862.265,-203.5"/>
</g>
<!-- Node17&#45;&gt;Node16 -->
<g id="edge18" class="edge"><title>Node17&#45;&gt;Node16</title>
<path fill="none" stroke="midnightblue" d="M916.923,-204.599C927.685,-206.91 940.928,-209.753 952.796,-212.301"/>
<polygon fill="midnightblue" stroke="midnightblue" points="952.262,-215.766 962.774,-214.443 953.731,-208.922 952.262,-215.766"/>
</g>
<!-- Node20 -->
<g id="node20" class="node"><title>Node20</title>
<g id="a_node20"><a xlink:href="../../d8/d91/rounding_8c.html#a2cff6b77e73872659c44b0c99f6bd97f" target="_top" xlink:title="csd2int">
<polygon fill="white" stroke="black" points="870.5,-152.5 870.5,-171.5 918.5,-171.5 918.5,-152.5 870.5,-152.5"/>
<text text-anchor="middle" x="894.5" y="-159.5" font-family="Helvetica,sans-Serif" font-size="10.00">csd2int</text>
</a>
</g>
</g>
<!-- Node19&#45;&gt;Node20 -->
<g id="edge21" class="edge"><title>Node19&#45;&gt;Node20</title>
<path fill="none" stroke="midnightblue" d="M818.36,-133.589C831.181,-138.437 846.894,-144.378 860.631,-149.572"/>
<polygon fill="midnightblue" stroke="midnightblue" points="859.623,-152.933 870.214,-153.195 862.099,-146.385 859.623,-152.933"/>
</g>
<!-- Node21 -->
<g id="node21" class="node"><title>Node21</title>
<g id="a_node21"><a xlink:href="../../db/d82/wglew_8h.html#a500a82aecba06f4550f6849b8099ca21" target="_top" xlink:title="int">
<polygon fill="white" stroke="black" points="880,-76.5 880,-95.5 909,-95.5 909,-76.5 880,-76.5"/>
<text text-anchor="middle" x="894.5" y="-83.5" font-family="Helvetica,sans-Serif" font-size="10.00">int</text>
</a>
</g>
</g>
<!-- Node19&#45;&gt;Node21 -->
<g id="edge22" class="edge"><title>Node19&#45;&gt;Node21</title>
<path fill="none" stroke="midnightblue" d="M818.36,-114.411C834.388,-108.351 854.934,-100.582 870.49,-94.7003"/>
<polygon fill="midnightblue" stroke="midnightblue" points="871.778,-97.9552 879.894,-91.1446 869.302,-91.4076 871.778,-97.9552"/>
</g>
<!-- Node22 -->
<g id="node22" class="node"><title>Node22</title>
<g id="a_node22"><a xlink:href="../../d8/d91/rounding_8c.html#ab3a64ec72c5600bc114621e93309c8c3" target="_top" xlink:title="int2csd">
<polygon fill="white" stroke="black" points="870.5,-114.5 870.5,-133.5 918.5,-133.5 918.5,-114.5 870.5,-114.5"/>
<text text-anchor="middle" x="894.5" y="-121.5" font-family="Helvetica,sans-Serif" font-size="10.00">int2csd</text>
</a>
</g>
</g>
<!-- Node19&#45;&gt;Node22 -->
<g id="edge23" class="edge"><title>Node19&#45;&gt;Node22</title>
<path fill="none" stroke="midnightblue" d="M823.153,-124C834.87,-124 848.331,-124 860.321,-124"/>
<polygon fill="midnightblue" stroke="midnightblue" points="860.398,-127.5 870.398,-124 860.398,-120.5 860.398,-127.5"/>
</g>
<!-- Node23&#45;&gt;Node21 -->
<g id="edge25" class="edge"><title>Node23&#45;&gt;Node21</title>
<path fill="none" stroke="midnightblue" d="M820.197,-86C835.576,-86 854.634,-86 869.462,-86"/>
<polygon fill="midnightblue" stroke="midnightblue" points="869.846,-89.5001 879.846,-86 869.846,-82.5001 869.846,-89.5001"/>
</g>
<!-- Node26 -->
<g id="node26" class="node"><title>Node26</title>
<g id="a_node26"><a xlink:href="../../d9/df5/Logger_8cpp.html#ada38bf01d6d691de953ed69268ea6516" target="_top" xlink:title="errToStr">
<polygon fill="white" stroke="black" points="766,-0.5 766,-19.5 818,-19.5 818,-0.5 766,-0.5"/>
<text text-anchor="middle" x="792" y="-7.5" font-family="Helvetica,sans-Serif" font-size="10.00">errToStr</text>
</a>
</g>
</g>
<!-- Node25&#45;&gt;Node26 -->
<g id="edge28" class="edge"><title>Node25&#45;&gt;Node26</title>
<path fill="none" stroke="midnightblue" d="M676.306,-114.494C690.59,-96.3305 723.816,-56.0931 758,-29 759.768,-27.5987 761.651,-26.2334 763.587,-24.9194"/>
<polygon fill="midnightblue" stroke="midnightblue" points="765.588,-27.7962 772.221,-19.5343 761.884,-21.8567 765.588,-27.7962"/>
</g>
</g>
</svg>
        <g id="navigator" transform="translate(0 0)" fill="#404254">
                <rect fill="#f2f5e9" fill-opacity="0.5" stroke="#606060" stroke-width=".5" x="0" y="0" width="60" height="60"/>
                <use id="zoomplus" xlink:href="#zoomPlus" x="17" y="9" onmousedown="handleZoom(evt,'in')"/>
                <use id="zoomminus" xlink:href="#zoomMin" x="42" y="9" onmousedown="handleZoom(evt,'out')"/>
                <use id="reset" xlink:href="#resetDef" x="30" y="36" onmousedown="handleReset()"/>
                <g id="arrowUp" xlink:href="#dirArrow" transform="translate(30 24)" onmousedown="handlePan(0,-1)">
                  <use xlink:href="#rim" fill="#404040">
                        <set attributeName="fill" to="#808080" begin="arrowUp.mouseover" end="arrowUp.mouseout"/>
                  </use>
                  <path fill="none" stroke="white" stroke-width="1.5" d="M0,-3.0v7 M-2.5,-0.5L0,-3.0L2.5,-0.5"/>
                </g>
                <g id="arrowRight" xlink:href="#dirArrow" transform="rotate(90) translate(36 -43)" onmousedown="handlePan(1,0)">
                  <use xlink:href="#rim" fill="#404040">
                        <set attributeName="fill" to="#808080" begin="arrowRight.mouseover" end="arrowRight.mouseout"/>
                  </use>
                  <path fill="none" stroke="white" stroke-width="1.5" d="M0,-3.0v7 M-2.5,-0.5L0,-3.0L2.5,-0.5"/>
                </g>
                <g id="arrowDown" xlink:href="#dirArrow" transform="rotate(180) translate(-30 -48)" onmousedown="handlePan(0,1)">
                  <use xlink:href="#rim" fill="#404040">
                        <set attributeName="fill" to="#808080" begin="arrowDown.mouseover" end="arrowDown.mouseout"/>
                  </use>
                  <path fill="none" stroke="white" stroke-width="1.5" d="M0,-3.0v7 M-2.5,-0.5L0,-3.0L2.5,-0.5"/>
                </g>
                <g id="arrowLeft" xlink:href="#dirArrow" transform="rotate(270) translate(-36 17)" onmousedown="handlePan(-1,0)">
                  <use xlink:href="#rim" fill="#404040">
                        <set attributeName="fill" to="#808080" begin="arrowLeft.mouseover" end="arrowLeft.mouseout"/>
                  </use>
                  <path fill="none" stroke="white" stroke-width="1.5" d="M0,-3.0v7 M-2.5,-0.5L0,-3.0L2.5,-0.5"/>
                </g>
        </g>
        <svg viewBox="0 0 15 15" width="100%" height="30px" preserveAspectRatio="xMaxYMin meet">
         <g id="arrow_out" transform="scale(0.3 0.3)">
          <a xlink:href="classpnlBoardControls_ac88d242daa497d1aa66e3ddd03e29f98_cgraph_org.svg" target="_base">
           <rect id="button" ry="5" rx="5" y="6" x="6" height="38" width="38"
                fill="#f2f5e9" fill-opacity="0.5" stroke="#606060" stroke-width="1.0"/>
           <path id="arrow"
             d="M 11.500037,31.436501 C 11.940474,20.09759 22.043105,11.32322 32.158766,21.979434 L 37.068811,17.246167 C 37.068811,17.246167 37.088388,32 37.088388,32 L 22.160133,31.978069 C 22.160133,31.978069 26.997745,27.140456 26.997745,27.140456 C 18.528582,18.264221 13.291696,25.230495 11.500037,31.436501 z"
             style="fill:#404040;"/>
          </a>
         </g>
        </svg>
</svg>
