<?xml version="1.0" encoding="UTF-8" standalone="no"?>
<!DOCTYPE svg PUBLIC "-//W3C//DTD SVG 1.1//EN"
 "http://www.w3.org/Graphics/SVG/1.1/DTD/svg11.dtd">
<!-- Generated by graphviz version 2.38.0 (20140413.2041)
 -->
<!-- Title: pnlBoardControls::getBoardParams Pages: 1 -->
<!--zoomable 221 -->
<svg id="main" version="1.1" xmlns="http://www.w3.org/2000/svg" xmlns:xlink="http://www.w3.org/1999/xlink" xml:space="preserve" onload="init(evt)">
<style type="text/css"><![CDATA[
.edge:hover path { stroke: red; }
.edge:hover polygon { stroke: red; fill: red; }
]]></style>
<script type="text/javascript"><![CDATA[
var edges = document.getElementsByTagName('g');
if (edges && edges.length) {
  for (var i=0;i<edges.length;i++) {
    if (edges[i].id.substr(0,4)=='edge') {
      edges[i].setAttribute('class','edge');
    }
  }
}
]]></script>
        <defs>
                <circle id="rim" cx="0" cy="0" r="7"/>
                <circle id="rim2" cx="0" cy="0" r="3.5"/>
                <g id="zoomPlus">
                        <use xlink:href="#rim" fill="#404040">
                                <set attributeName="fill" to="#808080" begin="zoomplus.mouseover" end="zoomplus.mouseout"/>
                        </use>
                        <path d="M-4,0h8M0,-4v8" fill="none" stroke="white" stroke-width="1.5" pointer-events="none"/>
                </g>
                <g id="zoomMin">
                        <use xlink:href="#rim" fill="#404040">
                                <set attributeName="fill" to="#808080" begin="zoomminus.mouseover" end="zoomminus.mouseout"/>
                        </use>
                        <path d="M-4,0h8" fill="none" stroke="white" stroke-width="1.5" pointer-events="none"/>
                </g>
                <g id="dirArrow">
                        <path fill="none" stroke="white" stroke-width="1.5" d="M0,-3.0v7 M-2.5,-0.5L0,-3.0L2.5,-0.5"/>
                </g>
               <g id="resetDef">
                       <use xlink:href="#rim2" fill="#404040">
                               <set attributeName="fill" to="#808080" begin="reset.mouseover" end="reset.mouseout"/>
                       </use>
               </g>
        </defs>

<script type="text/javascript">
var viewWidth = 1018;
var viewHeight = 221;
var sectionId = 'dynsection-5';
</script>
<script xlink:href="../../svgpan.js"/>
<svg id="graph" class="graph">
<g id="viewport">
<title>pnlBoardControls::getBoardParams</title>
<polygon fill="white" stroke="none" points="-4,4 -4,-217.346 1014,-217.346 1014,4 -4,4"/>
<!-- Node1 -->
<g id="node1" class="node"><title>Node1</title>
<polygon fill="#bfbfbf" stroke="black" points="0,-62.8465 0,-92.8465 137,-92.8465 137,-62.8465 0,-62.8465"/>
<text text-anchor="start" x="8" y="-80.8465" font-family="Helvetica,sans-Serif" font-size="10.00">pnlBoardControls::getBoard</text>
<text text-anchor="middle" x="68.5" y="-69.8465" font-family="Helvetica,sans-Serif" font-size="10.00">Params</text>
</g>
<!-- Node2 -->
<g id="node2" class="node"><title>Node2</title>
<g id="a_node2"><a xlink:href="../../df/d93/classpnlBoardControls.html#a9b3b02be9d2210cbb83e313bde4af24e" target="_top" xlink:title="pnlBoardControls::SetupControls">
<polygon fill="white" stroke="black" points="173,-68.3465 173,-87.3465 333,-87.3465 333,-68.3465 173,-68.3465"/>
<text text-anchor="middle" x="253" y="-75.3465" font-family="Helvetica,sans-Serif" font-size="10.00">pnlBoardControls::SetupControls</text>
</a>
</g>
</g>
<!-- Node1&#45;&gt;Node2 -->
<g id="edge1" class="edge"><title>Node1&#45;&gt;Node2</title>
<path fill="none" stroke="midnightblue" d="M147.341,-77.8465C155.737,-77.8465 164.288,-77.8465 172.7,-77.8465"/>
<polygon fill="midnightblue" stroke="midnightblue" points="147.197,-74.3466 137.197,-77.8465 147.197,-81.3466 147.197,-74.3466"/>
</g>
<!-- Node3 -->
<g id="node3" class="node"><title>Node3</title>
<g id="a_node3"><a xlink:href="../../df/d93/classpnlBoardControls.html#a8f1a27f7a4201cd55658f48bdf41ae20" target="_top" xlink:title="pnlBoardControls::pnlBoard\lControls">
<polygon fill="white" stroke="black" points="539,-84.8465 539,-114.846 675,-114.846 675,-84.8465 539,-84.8465"/>
<text text-anchor="start" x="547" y="-102.846" font-family="Helvetica,sans-Serif" font-size="10.00">pnlBoardControls::pnlBoard</text>
<text text-anchor="middle" x="607" y="-91.8465" font-family="Helvetica,sans-Serif" font-size="10.00">Controls</text>
</a>
</g>
</g>
<!-- Node2&#45;&gt;Node3 -->
<g id="edge2" class="edge"><title>Node2&#45;&gt;Node3</title>
<path fill="none" stroke="midnightblue" d="M343.42,-83.4352C404.279,-87.2389 483.531,-92.1921 538.982,-95.6578"/>
<polygon fill="midnightblue" stroke="midnightblue" points="343.633,-79.9418 333.435,-82.8111 343.197,-86.9282 343.633,-79.9418"/>
</g>
<!-- Node4 -->
<g id="node4" class="node"><title>Node4</title>
<g id="a_node4"><a xlink:href="../../df/d93/classpnlBoardControls.html#ad4e318fad186d4b2d50fcbf20e0b88be" target="_top" xlink:title="pnlBoardControls::Initialize">
<polygon fill="white" stroke="black" points="369,-139.346 369,-158.346 503,-158.346 503,-139.346 369,-139.346"/>
<text text-anchor="middle" x="436" y="-146.346" font-family="Helvetica,sans-Serif" font-size="10.00">pnlBoardControls::Initialize</text>
</a>
</g>
</g>
<!-- Node2&#45;&gt;Node4 -->
<g id="edge3" class="edge"><title>Node2&#45;&gt;Node4</title>
<path fill="none" stroke="midnightblue" d="M287.935,-91.1579C323.678,-105.179 379.073,-126.908 410.688,-139.31"/>
<polygon fill="midnightblue" stroke="midnightblue" points="288.998,-87.8154 278.41,-87.4218 286.442,-94.3319 288.998,-87.8154"/>
</g>
<!-- Node7 -->
<g id="node7" class="node"><title>Node7</title>
<g id="a_node7"><a xlink:href="../../d1/df3/classLMS7SuiteAppFrame.html#a819f017d3e706c433d9b7f4f9bc1f9c3" target="_top" xlink:title="LMS7SuiteAppFrame::\lOnControlBoardConnect">
<polygon fill="white" stroke="black" points="711,-86.8465 711,-116.846 834,-116.846 834,-86.8465 711,-86.8465"/>
<text text-anchor="start" x="719" y="-104.846" font-family="Helvetica,sans-Serif" font-size="10.00">LMS7SuiteAppFrame::</text>
<text text-anchor="middle" x="772.5" y="-93.8465" font-family="Helvetica,sans-Serif" font-size="10.00">OnControlBoardConnect</text>
</a>
</g>
</g>
<!-- Node2&#45;&gt;Node7 -->
<g id="edge13" class="edge"><title>Node2&#45;&gt;Node7</title>
<path fill="none" stroke="midnightblue" d="M280.713,-63.7084C303.477,-52.4585 337.429,-37.5325 369,-30.8465 502.067,-2.66621 546.479,18.6866 675,-25.8465 709.658,-37.8556 741.306,-68.0351 758.343,-86.5474"/>
<polygon fill="midnightblue" stroke="midnightblue" points="279.03,-60.6375 271.682,-68.27 282.186,-66.8858 279.03,-60.6375"/>
</g>
<!-- Node10 -->
<g id="node10" class="node"><title>Node10</title>
<g id="a_node10"><a xlink:href="../../df/d93/classpnlBoardControls.html#a51e925b6e13e8d7540a102ac4fce8ca0" target="_top" xlink:title="pnlBoardControls::OnUser\lChangedBoardType">
<polygon fill="white" stroke="black" points="370.5,-40.8465 370.5,-70.8465 501.5,-70.8465 501.5,-40.8465 370.5,-40.8465"/>
<text text-anchor="start" x="378.5" y="-58.8465" font-family="Helvetica,sans-Serif" font-size="10.00">pnlBoardControls::OnUser</text>
<text text-anchor="middle" x="436" y="-47.8465" font-family="Helvetica,sans-Serif" font-size="10.00">ChangedBoardType</text>
</a>
</g>
</g>
<!-- Node2&#45;&gt;Node10 -->
<g id="edge10" class="edge"><title>Node2&#45;&gt;Node10</title>
<path fill="none" stroke="midnightblue" d="M342.512,-67.0881C351.918,-65.9449 361.352,-64.7981 370.408,-63.6974"/>
<polygon fill="midnightblue" stroke="midnightblue" points="341.841,-63.6438 332.337,-68.3249 342.686,-70.5927 341.841,-63.6438"/>
</g>
<!-- Node5 -->
<g id="node5" class="node"><title>Node5</title>
<g id="a_node5"><a xlink:href="../../d1/df3/classLMS7SuiteAppFrame.html#aeaeb613a8c9139f0e60b02f1f612ed5d" target="_top" xlink:title="LMS7SuiteAppFrame::\lUpdateConnections">
<polygon fill="white" stroke="black" points="549,-133.846 549,-163.846 665,-163.846 665,-133.846 549,-133.846"/>
<text text-anchor="start" x="557" y="-151.846" font-family="Helvetica,sans-Serif" font-size="10.00">LMS7SuiteAppFrame::</text>
<text text-anchor="middle" x="607" y="-140.846" font-family="Helvetica,sans-Serif" font-size="10.00">UpdateConnections</text>
</a>
</g>
</g>
<!-- Node4&#45;&gt;Node5 -->
<g id="edge4" class="edge"><title>Node4&#45;&gt;Node5</title>
<path fill="none" stroke="midnightblue" d="M513.654,-148.846C525.515,-148.846 537.585,-148.846 548.916,-148.846"/>
<polygon fill="midnightblue" stroke="midnightblue" points="513.308,-145.347 503.308,-148.846 513.308,-152.347 513.308,-145.347"/>
</g>
<!-- Node9 -->
<g id="node9" class="node"><title>Node9</title>
<g id="a_node9"><a xlink:href="../../d1/df3/classLMS7SuiteAppFrame.html#a09672f8ba8960dff6646f0faaec54e1d" target="_top" xlink:title="LMS7SuiteAppFrame::\lOnShowBoardControls">
<polygon fill="white" stroke="black" points="549,-182.846 549,-212.846 665,-212.846 665,-182.846 549,-182.846"/>
<text text-anchor="start" x="557" y="-200.846" font-family="Helvetica,sans-Serif" font-size="10.00">LMS7SuiteAppFrame::</text>
<text text-anchor="middle" x="607" y="-189.846" font-family="Helvetica,sans-Serif" font-size="10.00">OnShowBoardControls</text>
</a>
</g>
</g>
<!-- Node4&#45;&gt;Node9 -->
<g id="edge9" class="edge"><title>Node4&#45;&gt;Node9</title>
<path fill="none" stroke="midnightblue" d="M479.649,-161.212C502.277,-167.773 530.261,-175.887 554.138,-182.81"/>
<polygon fill="midnightblue" stroke="midnightblue" points="480.565,-157.834 469.986,-158.41 478.616,-164.557 480.565,-157.834"/>
</g>
<!-- Node6 -->
<g id="node6" class="node"><title>Node6</title>
<g id="a_node6"><a xlink:href="../../d1/df3/classLMS7SuiteAppFrame.html#ad380f4e547c66fcfffdec0da53fe5b3e" target="_top" xlink:title="Constructor. ">
<polygon fill="white" stroke="black" points="882,-133.846 882,-163.846 998,-163.846 998,-133.846 882,-133.846"/>
<text text-anchor="start" x="890" y="-151.846" font-family="Helvetica,sans-Serif" font-size="10.00">LMS7SuiteAppFrame::</text>
<text text-anchor="middle" x="940" y="-140.846" font-family="Helvetica,sans-Serif" font-size="10.00">LMS7SuiteAppFrame</text>
</a>
</g>
</g>
<!-- Node5&#45;&gt;Node6 -->
<g id="edge5" class="edge"><title>Node5&#45;&gt;Node6</title>
<path fill="none" stroke="midnightblue" d="M675.534,-148.846C736.285,-148.846 824.551,-148.846 881.869,-148.846"/>
<polygon fill="midnightblue" stroke="midnightblue" points="675.278,-145.347 665.278,-148.846 675.278,-152.347 675.278,-145.347"/>
</g>
<!-- Node5&#45;&gt;Node7 -->
<g id="edge6" class="edge"><title>Node5&#45;&gt;Node7</title>
<path fill="none" stroke="midnightblue" d="M670.107,-130.993C686.313,-126.334 703.615,-121.361 719.253,-116.865"/>
<polygon fill="midnightblue" stroke="midnightblue" points="668.826,-127.72 660.182,-133.846 670.76,-134.447 668.826,-127.72"/>
</g>
<!-- Node7&#45;&gt;Node6 -->
<g id="edge7" class="edge"><title>Node7&#45;&gt;Node6</title>
<path fill="none" stroke="midnightblue" d="M836.366,-119.7C852.771,-124.359 870.285,-129.332 886.114,-133.827"/>
<polygon fill="midnightblue" stroke="midnightblue" points="836.896,-116.212 826.32,-116.847 834.984,-122.946 836.896,-116.212"/>
</g>
<!-- Node8 -->
<g id="node8" class="node"><title>Node8</title>
<g id="a_node8"><a xlink:href="../../d1/df3/classLMS7SuiteAppFrame.html#a08626f72855857180d80ab271f481d08" target="_top" xlink:title="LMS7SuiteAppFrame::\lOnShowConnectionSettings">
<polygon fill="white" stroke="black" points="870,-84.8465 870,-114.846 1010,-114.846 1010,-84.8465 870,-84.8465"/>
<text text-anchor="start" x="878" y="-102.846" font-family="Helvetica,sans-Serif" font-size="10.00">LMS7SuiteAppFrame::</text>
<text text-anchor="middle" x="940" y="-91.8465" font-family="Helvetica,sans-Serif" font-size="10.00">OnShowConnectionSettings</text>
</a>
</g>
</g>
<!-- Node7&#45;&gt;Node8 -->
<g id="edge8" class="edge"><title>Node7&#45;&gt;Node8</title>
<path fill="none" stroke="midnightblue" d="M844.399,-100.99C852.86,-100.887 861.49,-100.783 869.925,-100.681"/>
<polygon fill="midnightblue" stroke="midnightblue" points="844.143,-97.4924 834.186,-101.113 844.228,-104.492 844.143,-97.4924"/>
</g>
<!-- Node10&#45;&gt;Node3 -->
<g id="edge11" class="edge"><title>Node10&#45;&gt;Node3</title>
<path fill="none" stroke="midnightblue" d="M504.577,-73.4406C519.054,-77.2097 534.222,-81.1587 548.286,-84.8203"/>
<polygon fill="midnightblue" stroke="midnightblue" points="505.247,-69.9983 494.688,-70.8657 503.483,-76.7724 505.247,-69.9983"/>
</g>
<!-- Node11 -->
<g id="node11" class="node"><title>Node11</title>
<g id="a_node11"><a xlink:href="../../df/d93/classpnlBoardControls.html#a1b0e1d30fd18cb7bd50f27600095f4ab" target="_top" xlink:title="pnlBoardControls::\l~pnlBoardControls">
<polygon fill="white" stroke="black" points="558,-35.8465 558,-65.8465 656,-65.8465 656,-35.8465 558,-35.8465"/>
<text text-anchor="start" x="566" y="-53.8465" font-family="Helvetica,sans-Serif" font-size="10.00">pnlBoardControls::</text>
<text text-anchor="middle" x="607" y="-42.8465" font-family="Helvetica,sans-Serif" font-size="10.00">~pnlBoardControls</text>
</a>
</g>
</g>
<!-- Node10&#45;&gt;Node11 -->
<g id="edge12" class="edge"><title>Node10&#45;&gt;Node11</title>
<path fill="none" stroke="midnightblue" d="M512,-53.6275C527.565,-53.167 543.566,-52.6936 557.854,-52.2709"/>
<polygon fill="midnightblue" stroke="midnightblue" points="511.749,-50.1333 501.856,-53.9276 511.956,-57.1303 511.749,-50.1333"/>
</g>
</g>
</svg>
        <g id="navigator" transform="translate(0 0)" fill="#404254">
                <rect fill="#f2f5e9" fill-opacity="0.5" stroke="#606060" stroke-width=".5" x="0" y="0" width="60" height="60"/>
                <use id="zoomplus" xlink:href="#zoomPlus" x="17" y="9" onmousedown="handleZoom(evt,'in')"/>
                <use id="zoomminus" xlink:href="#zoomMin" x="42" y="9" onmousedown="handleZoom(evt,'out')"/>
                <use id="reset" xlink:href="#resetDef" x="30" y="36" onmousedown="handleReset()"/>
                <g id="arrowUp" xlink:href="#dirArrow" transform="translate(30 24)" onmousedown="handlePan(0,-1)">
                  <use xlink:href="#rim" fill="#404040">
                        <set attributeName="fill" to="#808080" begin="arrowUp.mouseover" end="arrowUp.mouseout"/>
                  </use>
                  <path fill="none" stroke="white" stroke-width="1.5" d="M0,-3.0v7 M-2.5,-0.5L0,-3.0L2.5,-0.5"/>
                </g>
                <g id="arrowRight" xlink:href="#dirArrow" transform="rotate(90) translate(36 -43)" onmousedown="handlePan(1,0)">
                  <use xlink:href="#rim" fill="#404040">
                        <set attributeName="fill" to="#808080" begin="arrowRight.mouseover" end="arrowRight.mouseout"/>
                  </use>
                  <path fill="none" stroke="white" stroke-width="1.5" d="M0,-3.0v7 M-2.5,-0.5L0,-3.0L2.5,-0.5"/>
                </g>
                <g id="arrowDown" xlink:href="#dirArrow" transform="rotate(180) translate(-30 -48)" onmousedown="handlePan(0,1)">
                  <use xlink:href="#rim" fill="#404040">
                        <set attributeName="fill" to="#808080" begin="arrowDown.mouseover" end="arrowDown.mouseout"/>
                  </use>
                  <path fill="none" stroke="white" stroke-width="1.5" d="M0,-3.0v7 M-2.5,-0.5L0,-3.0L2.5,-0.5"/>
                </g>
                <g id="arrowLeft" xlink:href="#dirArrow" transform="rotate(270) translate(-36 17)" onmousedown="handlePan(-1,0)">
                  <use xlink:href="#rim" fill="#404040">
                        <set attributeName="fill" to="#808080" begin="arrowLeft.mouseover" end="arrowLeft.mouseout"/>
                  </use>
                  <path fill="none" stroke="white" stroke-width="1.5" d="M0,-3.0v7 M-2.5,-0.5L0,-3.0L2.5,-0.5"/>
                </g>
        </g>
        <svg viewBox="0 0 15 15" width="100%" height="30px" preserveAspectRatio="xMaxYMin meet">
         <g id="arrow_out" transform="scale(0.3 0.3)">
          <a xlink:href="classpnlBoardControls_a5fb19d0164c35dbf8dcf96a6822ac6e8_icgraph_org.svg" target="_base">
           <rect id="button" ry="5" rx="5" y="6" x="6" height="38" width="38"
                fill="#f2f5e9" fill-opacity="0.5" stroke="#606060" stroke-width="1.0"/>
           <path id="arrow"
             d="M 11.500037,31.436501 C 11.940474,20.09759 22.043105,11.32322 32.158766,21.979434 L 37.068811,17.246167 C 37.068811,17.246167 37.088388,32 37.088388,32 L 22.160133,31.978069 C 22.160133,31.978069 26.997745,27.140456 26.997745,27.140456 C 18.528582,18.264221 13.291696,25.230495 11.500037,31.436501 z"
             style="fill:#404040;"/>
          </a>
         </g>
        </svg>
</svg>
