<?xml version="1.0" encoding="UTF-8" standalone="no"?>
<!DOCTYPE svg PUBLIC "-//W3C//DTD SVG 1.1//EN"
 "http://www.w3.org/Graphics/SVG/1.1/DTD/svg11.dtd">
<!-- Generated by graphviz version 2.38.0 (20140413.2041)
 -->
<!-- Title: pnlSX_view Pages: 1 -->
<svg width="169pt" height="628pt"
 viewBox="0.00 0.00 169.00 628.00" xmlns="http://www.w3.org/2000/svg" xmlns:xlink="http://www.w3.org/1999/xlink">
<g id="graph0" class="graph" transform="scale(1 1) rotate(0) translate(4 624)">
<title>pnlSX_view</title>
<polygon fill="white" stroke="none" points="-4,4 -4,-624 165,-624 165,4 -4,4"/>
<!-- Node1 -->
<g id="node1" class="node"><title>Node1</title>
<polygon fill="#bfbfbf" stroke="black" points="0,-248.5 0,-525.5 161,-525.5 161,-248.5 0,-248.5"/>
<text text-anchor="middle" x="80.5" y="-513.5" font-family="Helvetica,sans-Serif" font-size="10.00">pnlSX_view</text>
<polyline fill="none" stroke="black" points="0,-506.5 161,-506.5 "/>
<text text-anchor="start" x="8" y="-494.5" font-family="Helvetica,sans-Serif" font-size="10.00"># chkPD_FBDIV</text>
<text text-anchor="start" x="8" y="-483.5" font-family="Helvetica,sans-Serif" font-size="10.00"># chkPD_LOCH_T2RBUF</text>
<text text-anchor="start" x="8" y="-472.5" font-family="Helvetica,sans-Serif" font-size="10.00"># chkPD_CP</text>
<text text-anchor="start" x="8" y="-461.5" font-family="Helvetica,sans-Serif" font-size="10.00"># chkPD_FDIV</text>
<text text-anchor="start" x="8" y="-450.5" font-family="Helvetica,sans-Serif" font-size="10.00"># chkPD_SDM</text>
<text text-anchor="start" x="8" y="-439.5" font-family="Helvetica,sans-Serif" font-size="10.00"># chkPD_VCO_COMP</text>
<text text-anchor="start" x="8" y="-428.5" font-family="Helvetica,sans-Serif" font-size="10.00"># chkPD_VCO</text>
<text text-anchor="start" x="8" y="-417.5" font-family="Helvetica,sans-Serif" font-size="10.00"># chkEN_G</text>
<text text-anchor="start" x="8" y="-406.5" font-family="Helvetica,sans-Serif" font-size="10.00"># chkEN_DIR_SXRSXT</text>
<text text-anchor="start" x="8" y="-395.5" font-family="Helvetica,sans-Serif" font-size="10.00"># chkRESET_N</text>
<text text-anchor="start" x="8" y="-384.5" font-family="Helvetica,sans-Serif" font-size="10.00">and 67 more...</text>
<polyline fill="none" stroke="black" points="0,-377.5 161,-377.5 "/>
<text text-anchor="start" x="8" y="-365.5" font-family="Helvetica,sans-Serif" font-size="10.00">+ pnlSX_view()</text>
<text text-anchor="start" x="8" y="-354.5" font-family="Helvetica,sans-Serif" font-size="10.00">+ ~pnlSX_view()</text>
<text text-anchor="start" x="8" y="-343.5" font-family="Helvetica,sans-Serif" font-size="10.00"># ParameterChangeHandler()</text>
<text text-anchor="start" x="8" y="-332.5" font-family="Helvetica,sans-Serif" font-size="10.00"># OnDIV2PrescalerChange()</text>
<text text-anchor="start" x="8" y="-321.5" font-family="Helvetica,sans-Serif" font-size="10.00"># ParameterChangeHandler()</text>
<text text-anchor="start" x="8" y="-310.5" font-family="Helvetica,sans-Serif" font-size="10.00"># OnbtnCalculateClick()</text>
<text text-anchor="start" x="8" y="-299.5" font-family="Helvetica,sans-Serif" font-size="10.00"># OnbtnTuneClick()</text>
<text text-anchor="start" x="8" y="-288.5" font-family="Helvetica,sans-Serif" font-size="10.00"># OnEnableRefSpurCancelation()</text>
<text text-anchor="start" x="8" y="-277.5" font-family="Helvetica,sans-Serif" font-size="10.00"># OnbtnChangeRefClkClick()</text>
<text text-anchor="start" x="8" y="-266.5" font-family="Helvetica,sans-Serif" font-size="10.00"># OnbtnReadComparators()</text>
<text text-anchor="start" x="8" y="-255.5" font-family="Helvetica,sans-Serif" font-size="10.00"># OnShowVCOclicked()</text>
</g>
<!-- Node3 -->
<g id="node3" class="node"><title>Node3</title>
<g id="a_node3"><a xlink:href="../../d5/d03/classlms7002__pnlSX__view.html" target="_top" xlink:title="Implementing pnlSX_view. ">
<polygon fill="white" stroke="black" points="0,-0.5 0,-211.5 161,-211.5 161,-0.5 0,-0.5"/>
<text text-anchor="middle" x="80.5" y="-199.5" font-family="Helvetica,sans-Serif" font-size="10.00">lms7002_pnlSX_view</text>
<polyline fill="none" stroke="black" points="0,-192.5 161,-192.5 "/>
<text text-anchor="start" x="8" y="-180.5" font-family="Helvetica,sans-Serif" font-size="10.00"># cmbRZ_CTRL</text>
<text text-anchor="start" x="8" y="-169.5" font-family="Helvetica,sans-Serif" font-size="10.00"># cmbCMPLO_CTRL</text>
<text text-anchor="start" x="8" y="-158.5" font-family="Helvetica,sans-Serif" font-size="10.00"># lmsControl</text>
<text text-anchor="start" x="8" y="-147.5" font-family="Helvetica,sans-Serif" font-size="10.00"># wndId2Enum</text>
<polyline fill="none" stroke="black" points="0,-140.5 161,-140.5 "/>
<text text-anchor="start" x="8" y="-128.5" font-family="Helvetica,sans-Serif" font-size="10.00">+ lms7002_pnlSX_view()</text>
<text text-anchor="start" x="8" y="-117.5" font-family="Helvetica,sans-Serif" font-size="10.00">+ lms7002_pnlSX_view()</text>
<text text-anchor="start" x="8" y="-106.5" font-family="Helvetica,sans-Serif" font-size="10.00">+ Initialize()</text>
<text text-anchor="start" x="8" y="-95.5" font-family="Helvetica,sans-Serif" font-size="10.00">+ UpdateGUI()</text>
<text text-anchor="start" x="8" y="-84.5" font-family="Helvetica,sans-Serif" font-size="10.00"># ParameterChangeHandler()</text>
<text text-anchor="start" x="8" y="-73.5" font-family="Helvetica,sans-Serif" font-size="10.00"># ParameterChangeHandler()</text>
<text text-anchor="start" x="8" y="-62.5" font-family="Helvetica,sans-Serif" font-size="10.00"># OnbtnReadComparators()</text>
<text text-anchor="start" x="8" y="-51.5" font-family="Helvetica,sans-Serif" font-size="10.00"># OnbtnChangeRefClkClick()</text>
<text text-anchor="start" x="8" y="-40.5" font-family="Helvetica,sans-Serif" font-size="10.00"># OnbtnCalculateClick()</text>
<text text-anchor="start" x="8" y="-29.5" font-family="Helvetica,sans-Serif" font-size="10.00"># OnbtnTuneClick()</text>
<text text-anchor="start" x="8" y="-18.5" font-family="Helvetica,sans-Serif" font-size="10.00"># OnShowVCOclicked()</text>
<text text-anchor="start" x="8" y="-7.5" font-family="Helvetica,sans-Serif" font-size="10.00"># OnEnableRefSpurCancelation()</text>
</a>
</g>
</g>
<!-- Node1&#45;&gt;Node3 -->
<g id="edge2" class="edge"><title>Node1&#45;&gt;Node3</title>
<path fill="none" stroke="midnightblue" d="M80.5,-238.116C80.5,-229.252 80.5,-220.433 80.5,-211.804"/>
<polygon fill="none" stroke="midnightblue" points="77.0001,-238.135 80.5,-248.135 84.0001,-238.135 77.0001,-238.135"/>
</g>
<!-- Node2 -->
<g id="node2" class="node"><title>Node2</title>
<polygon fill="white" stroke="#bfbfbf" points="53.5,-562.5 53.5,-619.5 107.5,-619.5 107.5,-562.5 53.5,-562.5"/>
<text text-anchor="middle" x="80.5" y="-607.5" font-family="Helvetica,sans-Serif" font-size="10.00">wxPanel</text>
<polyline fill="none" stroke="#bfbfbf" points="53.5,-600.5 107.5,-600.5 "/>
<text text-anchor="middle" x="80.5" y="-588.5" font-family="Helvetica,sans-Serif" font-size="10.00"> </text>
<polyline fill="none" stroke="#bfbfbf" points="53.5,-581.5 107.5,-581.5 "/>
<text text-anchor="middle" x="80.5" y="-569.5" font-family="Helvetica,sans-Serif" font-size="10.00"> </text>
</g>
<!-- Node2&#45;&gt;Node1 -->
<g id="edge1" class="edge"><title>Node2&#45;&gt;Node1</title>
<path fill="none" stroke="midnightblue" d="M80.5,-552.265C80.5,-544.182 80.5,-535.193 80.5,-525.704"/>
<polygon fill="none" stroke="midnightblue" points="77.0001,-552.336 80.5,-562.336 84.0001,-552.336 77.0001,-552.336"/>
</g>
</g>
</svg>
