<?xml version="1.0" encoding="UTF-8" standalone="no"?>
<!DOCTYPE svg PUBLIC "-//W3C//DTD SVG 1.1//EN"
 "http://www.w3.org/Graphics/SVG/1.1/DTD/svg11.dtd">
<!-- Generated by graphviz version 2.38.0 (20140413.2041)
 -->
<!-- Title: sRect&lt; T &gt; Pages: 1 -->
<svg width="75pt" height="215pt"
 viewBox="0.00 0.00 75.00 215.00" xmlns="http://www.w3.org/2000/svg" xmlns:xlink="http://www.w3.org/1999/xlink">
<g id="graph0" class="graph" transform="scale(1 1) rotate(0) translate(4 211)">
<title>sRect&lt; T &gt;</title>
<polygon fill="white" stroke="none" points="-4,4 -4,-211 71,-211 71,4 -4,4"/>
<!-- Node1 -->
<g id="node1" class="node"><title>Node1</title>
<polygon fill="#bfbfbf" stroke="black" points="0,-0.5 0,-68.5 67,-68.5 67,-0.5 0,-0.5"/>
<text text-anchor="middle" x="33.5" y="-56.5" font-family="Helvetica,sans-Serif" font-size="10.00">sRect&lt; T &gt;</text>
<polyline fill="none" stroke="black" points="0,-49.5 67,-49.5 "/>
<text text-anchor="middle" x="33.5" y="-37.5" font-family="Helvetica,sans-Serif" font-size="10.00"> </text>
<polyline fill="none" stroke="black" points="0,-30.5 67,-30.5 "/>
<text text-anchor="start" x="8" y="-18.5" font-family="Helvetica,sans-Serif" font-size="10.00">+ sRect()</text>
<text text-anchor="start" x="8" y="-7.5" font-family="Helvetica,sans-Serif" font-size="10.00">+ set()</text>
</g>
<!-- Node2 -->
<g id="node2" class="node"><title>Node2</title>
<polygon fill="white" stroke="#bfbfbf" points="19,-149.5 19,-206.5 48,-206.5 48,-149.5 19,-149.5"/>
<text text-anchor="middle" x="33.5" y="-194.5" font-family="Helvetica,sans-Serif" font-size="10.00">T</text>
<polyline fill="none" stroke="#bfbfbf" points="19,-187.5 48,-187.5 "/>
<text text-anchor="middle" x="33.5" y="-175.5" font-family="Helvetica,sans-Serif" font-size="10.00"> </text>
<polyline fill="none" stroke="#bfbfbf" points="19,-168.5 48,-168.5 "/>
<text text-anchor="middle" x="33.5" y="-156.5" font-family="Helvetica,sans-Serif" font-size="10.00"> </text>
</g>
<!-- Node2&#45;&gt;Node1 -->
<g id="edge1" class="edge"><title>Node2&#45;&gt;Node1</title>
<path fill="none" stroke="#404040" d="M33.5,-149.381C33.5,-129.837 33.5,-103.193 33.5,-80.5898"/>
<polygon fill="none" stroke="#404040" points="33.5001,-80.5192 29.5,-74.5192 33.5,-68.5192 37.5,-74.5192 33.5001,-80.5192"/>
<text text-anchor="middle" x="43.5" y="-123" font-family="Helvetica,sans-Serif" font-size="10.00"> +y1</text>
<text text-anchor="middle" x="43.5" y="-112" font-family="Helvetica,sans-Serif" font-size="10.00">+y2</text>
<text text-anchor="middle" x="43.5" y="-101" font-family="Helvetica,sans-Serif" font-size="10.00">+x1</text>
<text text-anchor="middle" x="43.5" y="-90" font-family="Helvetica,sans-Serif" font-size="10.00">+x2</text>
</g>
</g>
</svg>
