<?xml version="1.0" encoding="UTF-8" standalone="no"?>
<!DOCTYPE svg PUBLIC "-//W3C//DTD SVG 1.1//EN"
 "http://www.w3.org/Graphics/SVG/1.1/DTD/svg11.dtd">
<!-- Generated by graphviz version 2.38.0 (20140413.2041)
 -->
<!-- Title: lime::LMS7002M::DownloadAll Pages: 1 -->
<!--zoomable 650 -->
<svg id="main" version="1.1" xmlns="http://www.w3.org/2000/svg" xmlns:xlink="http://www.w3.org/1999/xlink" xml:space="preserve" onload="init(evt)">
<style type="text/css"><![CDATA[
.edge:hover path { stroke: red; }
.edge:hover polygon { stroke: red; fill: red; }
]]></style>
<script type="text/javascript"><![CDATA[
var edges = document.getElementsByTagName('g');
if (edges && edges.length) {
  for (var i=0;i<edges.length;i++) {
    if (edges[i].id.substr(0,4)=='edge') {
      edges[i].setAttribute('class','edge');
    }
  }
}
]]></script>
        <defs>
                <circle id="rim" cx="0" cy="0" r="7"/>
                <circle id="rim2" cx="0" cy="0" r="3.5"/>
                <g id="zoomPlus">
                        <use xlink:href="#rim" fill="#404040">
                                <set attributeName="fill" to="#808080" begin="zoomplus.mouseover" end="zoomplus.mouseout"/>
                        </use>
                        <path d="M-4,0h8M0,-4v8" fill="none" stroke="white" stroke-width="1.5" pointer-events="none"/>
                </g>
                <g id="zoomMin">
                        <use xlink:href="#rim" fill="#404040">
                                <set attributeName="fill" to="#808080" begin="zoomminus.mouseover" end="zoomminus.mouseout"/>
                        </use>
                        <path d="M-4,0h8" fill="none" stroke="white" stroke-width="1.5" pointer-events="none"/>
                </g>
                <g id="dirArrow">
                        <path fill="none" stroke="white" stroke-width="1.5" d="M0,-3.0v7 M-2.5,-0.5L0,-3.0L2.5,-0.5"/>
                </g>
               <g id="resetDef">
                       <use xlink:href="#rim2" fill="#404040">
                               <set attributeName="fill" to="#808080" begin="reset.mouseover" end="reset.mouseout"/>
                       </use>
               </g>
        </defs>

<script type="text/javascript">
var viewWidth = 1595;
var viewHeight = 650;
var sectionId = 'dynsection-23';
</script>
<script xlink:href="../../svgpan.js"/>
<svg id="graph" class="graph">
<g id="viewport">
<title>lime::LMS7002M::DownloadAll</title>
<polygon fill="white" stroke="none" points="-4,4 -4,-645.5 1591,-645.5 1591,4 -4,4"/>
<!-- Node1 -->
<g id="node1" class="node"><title>Node1</title>
<polygon fill="#bfbfbf" stroke="black" points="0,-480 0,-499 151,-499 151,-480 0,-480"/>
<text text-anchor="middle" x="75.5" y="-487" font-family="Helvetica,sans-Serif" font-size="10.00">lime::LMS7002M::DownloadAll</text>
</g>
<!-- Node2 -->
<g id="node2" class="node"><title>Node2</title>
<g id="a_node2"><a xlink:href="../../d3/d22/classlime_1_1LMS7__Device.html#aa1cb84b31acb31de7b8999a04e9812aa" target="_top" xlink:title="lime::LMS7_Device::\lSynchronize">
<polygon fill="white" stroke="black" points="187,-474.5 187,-504.5 295,-504.5 295,-474.5 187,-474.5"/>
<text text-anchor="start" x="195" y="-492.5" font-family="Helvetica,sans-Serif" font-size="10.00">lime::LMS7_Device::</text>
<text text-anchor="middle" x="241" y="-481.5" font-family="Helvetica,sans-Serif" font-size="10.00">Synchronize</text>
</a>
</g>
</g>
<!-- Node1&#45;&gt;Node2 -->
<g id="edge1" class="edge"><title>Node1&#45;&gt;Node2</title>
<path fill="none" stroke="midnightblue" d="M161.19,-489.5C169.81,-489.5 178.387,-489.5 186.536,-489.5"/>
<polygon fill="midnightblue" stroke="midnightblue" points="161.073,-486 151.073,-489.5 161.073,-493 161.073,-486"/>
</g>
<!-- Node3 -->
<g id="node3" class="node"><title>Node3</title>
<g id="a_node3"><a xlink:href="../../df/de1/lms7__api_8cpp.html#a2ccb0cffc848f216211007df824b3c65" target="_top" xlink:title="LMS_Synchronize">
<polygon fill="white" stroke="black" points="331,-480 331,-499 427,-499 427,-480 331,-480"/>
<text text-anchor="middle" x="379" y="-487" font-family="Helvetica,sans-Serif" font-size="10.00">LMS_Synchronize</text>
</a>
</g>
</g>
<!-- Node2&#45;&gt;Node3 -->
<g id="edge2" class="edge"><title>Node2&#45;&gt;Node3</title>
<path fill="none" stroke="midnightblue" d="M305.393,-489.5C314.007,-489.5 322.719,-489.5 330.975,-489.5"/>
<polygon fill="midnightblue" stroke="midnightblue" points="305.36,-486 295.36,-489.5 305.36,-493 305.36,-486"/>
</g>
<!-- Node4 -->
<g id="node4" class="node"><title>Node4</title>
<g id="a_node4"><a xlink:href="../../db/d92/LimeSuite_8cc.html#a8264622f1c2c5bfc25727870d85ee938" target="_top" xlink:title="DEFUN_DLD">
<polygon fill="white" stroke="black" points="483.5,-622 483.5,-641 560.5,-641 560.5,-622 483.5,-622"/>
<text text-anchor="middle" x="522" y="-629" font-family="Helvetica,sans-Serif" font-size="10.00">DEFUN_DLD</text>
</a>
</g>
</g>
<!-- Node3&#45;&gt;Node4 -->
<g id="edge3" class="edge"><title>Node3&#45;&gt;Node4</title>
<path fill="none" stroke="midnightblue" d="M387.98,-508.551C400.224,-535.53 426.16,-584.675 463,-612.5 469.003,-617.034 476.138,-620.515 483.315,-623.177"/>
<polygon fill="midnightblue" stroke="midnightblue" points="391.05,-506.837 383.834,-499.08 384.638,-509.645 391.05,-506.837"/>
</g>
<!-- Node5 -->
<g id="node5" class="node"><title>Node5</title>
<g id="a_node5"><a xlink:href="../../d5/d6a/classlms7002__pnlTBB__view.html#a0a3923122ca545d188709c9443130c72" target="_top" xlink:title="lms7002_pnlTBB_view\l::OnbtnTuneFilter">
<polygon fill="white" stroke="black" points="464,-572.5 464,-602.5 580,-602.5 580,-572.5 464,-572.5"/>
<text text-anchor="start" x="472" y="-590.5" font-family="Helvetica,sans-Serif" font-size="10.00">lms7002_pnlTBB_view</text>
<text text-anchor="middle" x="522" y="-579.5" font-family="Helvetica,sans-Serif" font-size="10.00">::OnbtnTuneFilter</text>
</a>
</g>
</g>
<!-- Node3&#45;&gt;Node5 -->
<g id="edge4" class="edge"><title>Node3&#45;&gt;Node5</title>
<path fill="none" stroke="midnightblue" d="M395.78,-506.566C411.56,-522.864 437.14,-547.279 463,-563.5 468.17,-566.743 473.853,-569.715 479.578,-572.381"/>
<polygon fill="midnightblue" stroke="midnightblue" points="398.289,-504.125 388.862,-499.289 393.215,-508.948 398.289,-504.125"/>
</g>
<!-- Node6 -->
<g id="node6" class="node"><title>Node6</title>
<g id="a_node6"><a xlink:href="../../d9/d08/classlms7002__pnlRBB__view.html#a94ddb128eafecd0e6c8e11d6d6a2f5b9" target="_top" xlink:title="lms7002_pnlRBB_view\l::OnbtnTuneFilter">
<polygon fill="white" stroke="black" points="463,-523.5 463,-553.5 581,-553.5 581,-523.5 463,-523.5"/>
<text text-anchor="start" x="471" y="-541.5" font-family="Helvetica,sans-Serif" font-size="10.00">lms7002_pnlRBB_view</text>
<text text-anchor="middle" x="522" y="-530.5" font-family="Helvetica,sans-Serif" font-size="10.00">::OnbtnTuneFilter</text>
</a>
</g>
</g>
<!-- Node3&#45;&gt;Node6 -->
<g id="edge5" class="edge"><title>Node3&#45;&gt;Node6</title>
<path fill="none" stroke="midnightblue" d="M417.116,-502.399C435.716,-508.862 458.346,-516.727 477.73,-523.463"/>
<polygon fill="midnightblue" stroke="midnightblue" points="418.116,-499.041 407.521,-499.064 415.818,-505.653 418.116,-499.041"/>
</g>
<!-- Node7 -->
<g id="node7" class="node"><title>Node7</title>
<g id="a_node7"><a xlink:href="../../d5/d6a/classlms7002__pnlTBB__view.html#a3b29ddea657517b7330fe6168a1a32a1" target="_top" xlink:title="lms7002_pnlTBB_view\l::OnbtnTuneTxGain">
<polygon fill="white" stroke="black" points="464,-474.5 464,-504.5 580,-504.5 580,-474.5 464,-474.5"/>
<text text-anchor="start" x="472" y="-492.5" font-family="Helvetica,sans-Serif" font-size="10.00">lms7002_pnlTBB_view</text>
<text text-anchor="middle" x="522" y="-481.5" font-family="Helvetica,sans-Serif" font-size="10.00">::OnbtnTuneTxGain</text>
</a>
</g>
</g>
<!-- Node3&#45;&gt;Node7 -->
<g id="edge6" class="edge"><title>Node3&#45;&gt;Node7</title>
<path fill="none" stroke="midnightblue" d="M437.392,-489.5C446.088,-489.5 455.06,-489.5 463.753,-489.5"/>
<polygon fill="midnightblue" stroke="midnightblue" points="437.343,-486 427.343,-489.5 437.343,-493 437.343,-486"/>
</g>
<!-- Node8 -->
<g id="node8" class="node"><title>Node8</title>
<g id="a_node8"><a xlink:href="../../d8/d3c/classlms7002__mainPanel.html#a44397c4b4ab5cfedcaf684f284955586" target="_top" xlink:title="lms7002_mainPanel::\lOnDownloadAll">
<polygon fill="white" stroke="black" points="812.5,-441.5 812.5,-471.5 922.5,-471.5 922.5,-441.5 812.5,-441.5"/>
<text text-anchor="start" x="820.5" y="-459.5" font-family="Helvetica,sans-Serif" font-size="10.00">lms7002_mainPanel::</text>
<text text-anchor="middle" x="867.5" y="-448.5" font-family="Helvetica,sans-Serif" font-size="10.00">OnDownloadAll</text>
</a>
</g>
</g>
<!-- Node3&#45;&gt;Node8 -->
<g id="edge7" class="edge"><title>Node3&#45;&gt;Node8</title>
<path fill="none" stroke="midnightblue" d="M416.059,-476.867C430.471,-472.402 447.339,-467.897 463,-465.5 586.807,-446.549 734.443,-449.675 812.27,-453.287"/>
<polygon fill="midnightblue" stroke="midnightblue" points="414.973,-473.54 406.519,-479.925 417.11,-480.206 414.973,-473.54"/>
</g>
<!-- Node9 -->
<g id="node9" class="node"><title>Node9</title>
<g id="a_node9"><a xlink:href="../../d8/d3c/classlms7002__mainPanel.html#a3acbef587578b6d24d5e8a9b8f79cbd8" target="_top" xlink:title="lms7002_mainPanel::\lOnUploadAll">
<polygon fill="white" stroke="black" points="812.5,-392.5 812.5,-422.5 922.5,-422.5 922.5,-392.5 812.5,-392.5"/>
<text text-anchor="start" x="820.5" y="-410.5" font-family="Helvetica,sans-Serif" font-size="10.00">lms7002_mainPanel::</text>
<text text-anchor="middle" x="867.5" y="-399.5" font-family="Helvetica,sans-Serif" font-size="10.00">OnUploadAll</text>
</a>
</g>
</g>
<!-- Node3&#45;&gt;Node9 -->
<g id="edge8" class="edge"><title>Node3&#45;&gt;Node9</title>
<path fill="none" stroke="midnightblue" d="M404.324,-475.007C420.414,-466.128 442.289,-455.375 463,-449.5 584.455,-415.048 733.651,-408.251 812.193,-407.272"/>
<polygon fill="midnightblue" stroke="midnightblue" points="402.546,-471.991 395.571,-479.966 405.997,-478.082 402.546,-471.991"/>
</g>
<!-- Node10 -->
<g id="node10" class="node"><title>Node10</title>
<g id="a_node10"><a xlink:href="../../d5/d55/classlms7002__pnlR3__view.html#a1ef4dc35f280d8e3999104436d286365" target="_top" xlink:title="lms7002_pnlR3_view\l::UpdateGUI">
<polygon fill="white" stroke="black" points="467,-147.5 467,-177.5 577,-177.5 577,-147.5 467,-147.5"/>
<text text-anchor="start" x="475" y="-165.5" font-family="Helvetica,sans-Serif" font-size="10.00">lms7002_pnlR3_view</text>
<text text-anchor="middle" x="522" y="-154.5" font-family="Helvetica,sans-Serif" font-size="10.00">::UpdateGUI</text>
</a>
</g>
</g>
<!-- Node3&#45;&gt;Node10 -->
<g id="edge9" class="edge"><title>Node3&#45;&gt;Node10</title>
<path fill="none" stroke="midnightblue" d="M388.24,-470.39C413.816,-411.076 491.502,-230.91 514.512,-177.547"/>
<polygon fill="midnightblue" stroke="midnightblue" points="384.965,-469.145 384.22,-479.714 391.393,-471.917 384.965,-469.145"/>
</g>
<!-- Node11 -->
<g id="node11" class="node"><title>Node11</title>
<g id="a_node11"><a xlink:href="../../d5/d55/classlms7002__pnlR3__view.html#a44dfc19844a4dccd37b119e782d74ab7" target="_top" xlink:title="lms7002_pnlR3_view\l::OnCalibrateAnalogRSSI">
<polygon fill="white" stroke="black" points="617,-0.5 617,-30.5 745,-30.5 745,-0.5 617,-0.5"/>
<text text-anchor="start" x="625" y="-18.5" font-family="Helvetica,sans-Serif" font-size="10.00">lms7002_pnlR3_view</text>
<text text-anchor="middle" x="681" y="-7.5" font-family="Helvetica,sans-Serif" font-size="10.00">::OnCalibrateAnalogRSSI</text>
</a>
</g>
</g>
<!-- Node10&#45;&gt;Node11 -->
<g id="edge10" class="edge"><title>Node10&#45;&gt;Node11</title>
<path fill="none" stroke="midnightblue" d="M535.81,-138.547C551.58,-111.129 580.777,-66.5325 617,-39.5 621.502,-36.1399 626.531,-33.1961 631.731,-30.6306"/>
<polygon fill="midnightblue" stroke="midnightblue" points="532.643,-137.038 530.802,-147.472 538.748,-140.463 532.643,-137.038"/>
</g>
<!-- Node13 -->
<g id="node13" class="node"><title>Node13</title>
<g id="a_node13"><a xlink:href="../../d5/d55/classlms7002__pnlR3__view.html#a0b35a2caef9d41d4b718c8621c17380f" target="_top" xlink:title="lms7002_pnlR3_view\l::OnDCCMPCFGRead">
<polygon fill="white" stroke="black" points="622.5,-98.5 622.5,-128.5 739.5,-128.5 739.5,-98.5 622.5,-98.5"/>
<text text-anchor="start" x="630.5" y="-116.5" font-family="Helvetica,sans-Serif" font-size="10.00">lms7002_pnlR3_view</text>
<text text-anchor="middle" x="681" y="-105.5" font-family="Helvetica,sans-Serif" font-size="10.00">::OnDCCMPCFGRead</text>
</a>
</g>
</g>
<!-- Node10&#45;&gt;Node13 -->
<g id="edge12" class="edge"><title>Node10&#45;&gt;Node13</title>
<path fill="none" stroke="midnightblue" d="M581.035,-144.387C597.726,-139.178 615.744,-133.554 631.774,-128.552"/>
<polygon fill="midnightblue" stroke="midnightblue" points="579.889,-141.078 571.386,-147.399 581.975,-147.76 579.889,-141.078"/>
</g>
<!-- Node14 -->
<g id="node14" class="node"><title>Node14</title>
<g id="a_node14"><a xlink:href="../../d5/d55/classlms7002__pnlR3__view.html#ace8e8ff3673a651c65b7543e70f07b15" target="_top" xlink:title="lms7002_pnlR3_view\l::OnReadDC">
<polygon fill="white" stroke="black" points="626,-196.5 626,-226.5 736,-226.5 736,-196.5 626,-196.5"/>
<text text-anchor="start" x="634" y="-214.5" font-family="Helvetica,sans-Serif" font-size="10.00">lms7002_pnlR3_view</text>
<text text-anchor="middle" x="681" y="-203.5" font-family="Helvetica,sans-Serif" font-size="10.00">::OnReadDC</text>
</a>
</g>
</g>
<!-- Node10&#45;&gt;Node14 -->
<g id="edge13" class="edge"><title>Node10&#45;&gt;Node14</title>
<path fill="none" stroke="midnightblue" d="M581.035,-180.613C597.726,-185.822 615.744,-191.446 631.774,-196.448"/>
<polygon fill="midnightblue" stroke="midnightblue" points="581.975,-177.24 571.386,-177.601 579.889,-183.922 581.975,-177.24"/>
</g>
<!-- Node15 -->
<g id="node15" class="node"><title>Node15</title>
<g id="a_node15"><a xlink:href="../../d5/d55/classlms7002__pnlR3__view.html#a538ae670f5a9f2dbcedf330e0ddece19" target="_top" xlink:title="lms7002_pnlR3_view\l::OnReadDCCMP">
<polygon fill="white" stroke="black" points="626,-49.5 626,-79.5 736,-79.5 736,-49.5 626,-49.5"/>
<text text-anchor="start" x="634" y="-67.5" font-family="Helvetica,sans-Serif" font-size="10.00">lms7002_pnlR3_view</text>
<text text-anchor="middle" x="681" y="-56.5" font-family="Helvetica,sans-Serif" font-size="10.00">::OnReadDCCMP</text>
</a>
</g>
</g>
<!-- Node10&#45;&gt;Node15 -->
<g id="edge15" class="edge"><title>Node10&#45;&gt;Node15</title>
<path fill="none" stroke="midnightblue" d="M546.638,-140.56C564.825,-124.54 591.143,-103.149 617,-88.5 622.703,-85.2692 628.925,-82.3034 635.167,-79.6414"/>
<polygon fill="midnightblue" stroke="midnightblue" points="544.003,-138.222 538.886,-147.5 548.671,-143.438 544.003,-138.222"/>
</g>
<!-- Node16 -->
<g id="node16" class="node"><title>Node16</title>
<g id="a_node16"><a xlink:href="../../d5/d55/classlms7002__pnlR3__view.html#a0e59e56a0312e1112d92646af826394c" target="_top" xlink:title="lms7002_pnlR3_view\l::OnReadRSSICMP">
<polygon fill="white" stroke="black" points="626,-147.5 626,-177.5 736,-177.5 736,-147.5 626,-147.5"/>
<text text-anchor="start" x="634" y="-165.5" font-family="Helvetica,sans-Serif" font-size="10.00">lms7002_pnlR3_view</text>
<text text-anchor="middle" x="681" y="-154.5" font-family="Helvetica,sans-Serif" font-size="10.00">::OnReadRSSICMP</text>
</a>
</g>
</g>
<!-- Node10&#45;&gt;Node16 -->
<g id="edge17" class="edge"><title>Node10&#45;&gt;Node16</title>
<path fill="none" stroke="midnightblue" d="M587.19,-162.5C600.034,-162.5 613.407,-162.5 625.87,-162.5"/>
<polygon fill="midnightblue" stroke="midnightblue" points="587.031,-159 577.03,-162.5 587.03,-166 587.031,-159"/>
</g>
<!-- Node17 -->
<g id="node17" class="node"><title>Node17</title>
<g id="a_node17"><a xlink:href="../../d8/d3c/classlms7002__mainPanel.html#abb8c5306cebfa58d153414b6c1b50db9" target="_top" xlink:title="lms7002_mainPanel::\lUpdateVisiblePanel">
<polygon fill="white" stroke="black" points="626,-245.5 626,-275.5 736,-275.5 736,-245.5 626,-245.5"/>
<text text-anchor="start" x="634" y="-263.5" font-family="Helvetica,sans-Serif" font-size="10.00">lms7002_mainPanel::</text>
<text text-anchor="middle" x="681" y="-252.5" font-family="Helvetica,sans-Serif" font-size="10.00">UpdateVisiblePanel</text>
</a>
</g>
</g>
<!-- Node10&#45;&gt;Node17 -->
<g id="edge19" class="edge"><title>Node10&#45;&gt;Node17</title>
<path fill="none" stroke="midnightblue" d="M547.414,-184.592C565.627,-200.267 591.64,-221.012 617,-235.5 623.335,-239.119 630.296,-242.451 637.21,-245.424"/>
<polygon fill="midnightblue" stroke="midnightblue" points="549.458,-181.731 539.625,-177.788 544.853,-187.003 549.458,-181.731"/>
</g>
<!-- Node12 -->
<g id="node12" class="node"><title>Node12</title>
<g id="a_node12"><a xlink:href="../../d5/d55/classlms7002__pnlR3__view.html#a703fbd25b7293045f44bcb15c2ee3a54" target="_top" xlink:title="lms7002_pnlR3_view\l::lms7002_pnlR3_view">
<polygon fill="white" stroke="black" points="809.5,-49.5 809.5,-79.5 925.5,-79.5 925.5,-49.5 809.5,-49.5"/>
<text text-anchor="start" x="817.5" y="-67.5" font-family="Helvetica,sans-Serif" font-size="10.00">lms7002_pnlR3_view</text>
<text text-anchor="middle" x="867.5" y="-56.5" font-family="Helvetica,sans-Serif" font-size="10.00">::lms7002_pnlR3_view</text>
</a>
</g>
</g>
<!-- Node11&#45;&gt;Node12 -->
<g id="edge11" class="edge"><title>Node11&#45;&gt;Node12</title>
<path fill="none" stroke="midnightblue" d="M748.356,-33.1229C768.541,-38.4837 790.526,-44.3225 809.997,-49.4938"/>
<polygon fill="midnightblue" stroke="midnightblue" points="749.173,-29.7188 738.61,-30.5346 747.376,-36.4843 749.173,-29.7188"/>
</g>
<!-- Node14&#45;&gt;Node12 -->
<g id="edge14" class="edge"><title>Node14&#45;&gt;Node12</title>
<path fill="none" stroke="midnightblue" d="M740.484,-190.618C742.071,-189.325 743.583,-187.954 745,-186.5 777.386,-153.27 746.929,-120 781,-88.5 788.924,-81.1736 798.908,-76.0594 809.232,-72.4954"/>
<polygon fill="midnightblue" stroke="midnightblue" points="738.254,-187.904 732.002,-196.457 742.224,-193.67 738.254,-187.904"/>
</g>
<!-- Node15&#45;&gt;Node12 -->
<g id="edge16" class="edge"><title>Node15&#45;&gt;Node12</title>
<path fill="none" stroke="midnightblue" d="M746.529,-64.5C766.977,-64.5 789.429,-64.5 809.324,-64.5"/>
<polygon fill="midnightblue" stroke="midnightblue" points="746.358,-61.0001 736.358,-64.5 746.358,-68.0001 746.358,-61.0001"/>
</g>
<!-- Node16&#45;&gt;Node12 -->
<g id="edge18" class="edge"><title>Node16&#45;&gt;Node12</title>
<path fill="none" stroke="midnightblue" d="M737.675,-142.53C740.228,-140.962 742.686,-139.287 745,-137.5 766.39,-120.986 758.779,-103.879 781,-88.5 789.494,-82.6214 799.398,-78.1759 809.393,-74.8161"/>
<polygon fill="midnightblue" stroke="midnightblue" points="735.783,-139.577 728.705,-147.461 739.154,-145.711 735.783,-139.577"/>
</g>
<!-- Node17&#45;&gt;Node8 -->
<g id="edge20" class="edge"><title>Node17&#45;&gt;Node8</title>
<path fill="none" stroke="midnightblue" d="M689.458,-285.153C702.088,-322.676 731.283,-393.827 781,-432.5 790.127,-439.6 801.245,-444.599 812.403,-448.12"/>
<polygon fill="midnightblue" stroke="midnightblue" points="692.746,-283.949 686.331,-275.517 686.088,-286.109 692.746,-283.949"/>
</g>
<!-- Node17&#45;&gt;Node9 -->
<g id="edge28" class="edge"><title>Node17&#45;&gt;Node9</title>
<path fill="none" stroke="midnightblue" d="M695.257,-284.396C711.798,-312.033 742.634,-356.99 781,-382.5 790.401,-388.751 801.393,-393.47 812.304,-397.022"/>
<polygon fill="midnightblue" stroke="midnightblue" points="698.269,-282.613 690.206,-275.741 692.224,-286.142 698.269,-282.613"/>
</g>
<!-- Node18 -->
<g id="node18" class="node"><title>Node18</title>
<g id="a_node18"><a xlink:href="../../d8/d3c/classlms7002__mainPanel.html#a43c4592235060266a985096ea4f3ecfb" target="_top" xlink:title="lms7002_mainPanel::\lOnEnableMIMOchecked">
<polygon fill="white" stroke="black" points="806,-343.5 806,-373.5 929,-373.5 929,-343.5 806,-343.5"/>
<text text-anchor="start" x="814" y="-361.5" font-family="Helvetica,sans-Serif" font-size="10.00">lms7002_mainPanel::</text>
<text text-anchor="middle" x="867.5" y="-350.5" font-family="Helvetica,sans-Serif" font-size="10.00">OnEnableMIMOchecked</text>
</a>
</g>
</g>
<!-- Node17&#45;&gt;Node18 -->
<g id="edge21" class="edge"><title>Node17&#45;&gt;Node18</title>
<path fill="none" stroke="midnightblue" d="M706.295,-282.228C725.419,-298.347 753.373,-319.815 781,-333.5 788.761,-337.344 797.217,-340.703 805.694,-343.604"/>
<polygon fill="midnightblue" stroke="midnightblue" points="708.535,-279.539 698.666,-275.686 703.978,-284.853 708.535,-279.539"/>
</g>
<!-- Node19 -->
<g id="node19" class="node"><title>Node19</title>
<g id="a_node19"><a xlink:href="../../d8/d3c/classlms7002__mainPanel.html#a4de4742979a2f25a74dc4543b34a2ce2" target="_top" xlink:title="lms7002_mainPanel::\lOnLmsDeviceSelect">
<polygon fill="white" stroke="black" points="812.5,-294.5 812.5,-324.5 922.5,-324.5 922.5,-294.5 812.5,-294.5"/>
<text text-anchor="start" x="820.5" y="-312.5" font-family="Helvetica,sans-Serif" font-size="10.00">lms7002_mainPanel::</text>
<text text-anchor="middle" x="867.5" y="-301.5" font-family="Helvetica,sans-Serif" font-size="10.00">OnLmsDeviceSelect</text>
</a>
</g>
</g>
<!-- Node17&#45;&gt;Node19 -->
<g id="edge22" class="edge"><title>Node17&#45;&gt;Node19</title>
<path fill="none" stroke="midnightblue" d="M746.086,-277.52C767.647,-283.246 791.479,-289.576 812.212,-295.082"/>
<polygon fill="midnightblue" stroke="midnightblue" points="746.922,-274.121 736.358,-274.937 745.125,-280.886 746.922,-274.121"/>
</g>
<!-- Node20 -->
<g id="node20" class="node"><title>Node20</title>
<g id="a_node20"><a xlink:href="../../d8/d3c/classlms7002__mainPanel.html#a6102ca7439ecabfba330dae9de95b419" target="_top" xlink:title="lms7002_mainPanel::\lOnnotebook_modulesPageChanged">
<polygon fill="white" stroke="black" points="781,-245.5 781,-275.5 954,-275.5 954,-245.5 781,-245.5"/>
<text text-anchor="start" x="789" y="-263.5" font-family="Helvetica,sans-Serif" font-size="10.00">lms7002_mainPanel::</text>
<text text-anchor="middle" x="867.5" y="-252.5" font-family="Helvetica,sans-Serif" font-size="10.00">Onnotebook_modulesPageChanged</text>
</a>
</g>
</g>
<!-- Node17&#45;&gt;Node20 -->
<g id="edge23" class="edge"><title>Node17&#45;&gt;Node20</title>
<path fill="none" stroke="midnightblue" d="M746.698,-260.5C757.689,-260.5 769.256,-260.5 780.689,-260.5"/>
<polygon fill="midnightblue" stroke="midnightblue" points="746.358,-257 736.358,-260.5 746.358,-264 746.358,-257"/>
</g>
<!-- Node23 -->
<g id="node23" class="node"><title>Node23</title>
<g id="a_node23"><a xlink:href="../../d8/d3c/classlms7002__mainPanel.html#aa95a38c6fd2f0a119c940e0fe3a45e1a" target="_top" xlink:title="lms7002_mainPanel::\lOnSwitchToChannelA">
<polygon fill="white" stroke="black" points="811,-196.5 811,-226.5 924,-226.5 924,-196.5 811,-196.5"/>
<text text-anchor="start" x="819" y="-214.5" font-family="Helvetica,sans-Serif" font-size="10.00">lms7002_mainPanel::</text>
<text text-anchor="middle" x="867.5" y="-203.5" font-family="Helvetica,sans-Serif" font-size="10.00">OnSwitchToChannelA</text>
</a>
</g>
</g>
<!-- Node17&#45;&gt;Node23 -->
<g id="edge26" class="edge"><title>Node17&#45;&gt;Node23</title>
<path fill="none" stroke="midnightblue" d="M746.196,-243.451C767.286,-237.85 790.538,-231.674 810.933,-226.258"/>
<polygon fill="midnightblue" stroke="midnightblue" points="745.125,-240.114 736.358,-246.063 746.922,-246.879 745.125,-240.114"/>
</g>
<!-- Node24 -->
<g id="node24" class="node"><title>Node24</title>
<g id="a_node24"><a xlink:href="../../d8/d3c/classlms7002__mainPanel.html#a28dc31b61c070c31433142620232788c" target="_top" xlink:title="lms7002_mainPanel::\lOnSwitchToChannelB">
<polygon fill="white" stroke="black" points="811,-147.5 811,-177.5 924,-177.5 924,-147.5 811,-147.5"/>
<text text-anchor="start" x="819" y="-165.5" font-family="Helvetica,sans-Serif" font-size="10.00">lms7002_mainPanel::</text>
<text text-anchor="middle" x="867.5" y="-154.5" font-family="Helvetica,sans-Serif" font-size="10.00">OnSwitchToChannelB</text>
</a>
</g>
</g>
<!-- Node17&#45;&gt;Node24 -->
<g id="edge27" class="edge"><title>Node17&#45;&gt;Node24</title>
<path fill="none" stroke="midnightblue" d="M737.675,-240.53C740.228,-238.962 742.686,-237.287 745,-235.5 766.39,-218.986 758.779,-201.879 781,-186.5 789.874,-180.358 800.288,-175.781 810.736,-172.371"/>
<polygon fill="midnightblue" stroke="midnightblue" points="735.783,-237.577 728.705,-245.461 739.154,-243.711 735.783,-237.577"/>
</g>
<!-- Node25 -->
<g id="node25" class="node"><title>Node25</title>
<g id="a_node25"><a xlink:href="../../d8/d3c/classlms7002__mainPanel.html#a262803ea9a5a7a2c0e400d8ea921d66c" target="_top" xlink:title="lms7002_mainPanel::\lUpdateGUI">
<polygon fill="white" stroke="black" points="812.5,-98.5 812.5,-128.5 922.5,-128.5 922.5,-98.5 812.5,-98.5"/>
<text text-anchor="start" x="820.5" y="-116.5" font-family="Helvetica,sans-Serif" font-size="10.00">lms7002_mainPanel::</text>
<text text-anchor="middle" x="867.5" y="-105.5" font-family="Helvetica,sans-Serif" font-size="10.00">UpdateGUI</text>
</a>
</g>
</g>
<!-- Node17&#45;&gt;Node25 -->
<g id="edge29" class="edge"><title>Node17&#45;&gt;Node25</title>
<path fill="none" stroke="midnightblue" d="M740.484,-239.618C742.071,-238.325 743.583,-236.954 745,-235.5 777.386,-202.27 746.929,-169 781,-137.5 789.717,-129.441 800.925,-124.059 812.337,-120.472"/>
<polygon fill="midnightblue" stroke="midnightblue" points="738.254,-236.904 732.002,-245.457 742.224,-242.67 738.254,-236.904"/>
</g>
<!-- Node21 -->
<g id="node21" class="node"><title>Node21</title>
<g id="a_node21"><a xlink:href="../../d8/d3c/classlms7002__mainPanel.html#aff2ae64c885239df71be67c69f9a2c81" target="_top" xlink:title="lms7002_mainPanel::\lOnLoadDefault">
<polygon fill="white" stroke="black" points="990,-220.5 990,-250.5 1100,-250.5 1100,-220.5 990,-220.5"/>
<text text-anchor="start" x="998" y="-238.5" font-family="Helvetica,sans-Serif" font-size="10.00">lms7002_mainPanel::</text>
<text text-anchor="middle" x="1045" y="-227.5" font-family="Helvetica,sans-Serif" font-size="10.00">OnLoadDefault</text>
</a>
</g>
</g>
<!-- Node20&#45;&gt;Node21 -->
<g id="edge24" class="edge"><title>Node20&#45;&gt;Node21</title>
<path fill="none" stroke="midnightblue" d="M964.179,-246.871C972.999,-245.614 981.712,-244.373 989.957,-243.198"/>
<polygon fill="midnightblue" stroke="midnightblue" points="963.6,-243.418 954.194,-248.293 964.587,-250.348 963.6,-243.418"/>
</g>
<!-- Node22 -->
<g id="node22" class="node"><title>Node22</title>
<g id="a_node22"><a xlink:href="../../d8/d3c/classlms7002__mainPanel.html#ab702fe2f9725c2e7aade97270472ac9e" target="_top" xlink:title="lms7002_mainPanel::\lOnResetChip">
<polygon fill="white" stroke="black" points="990,-269.5 990,-299.5 1100,-299.5 1100,-269.5 990,-269.5"/>
<text text-anchor="start" x="998" y="-287.5" font-family="Helvetica,sans-Serif" font-size="10.00">lms7002_mainPanel::</text>
<text text-anchor="middle" x="1045" y="-276.5" font-family="Helvetica,sans-Serif" font-size="10.00">OnResetChip</text>
</a>
</g>
</g>
<!-- Node20&#45;&gt;Node22 -->
<g id="edge25" class="edge"><title>Node20&#45;&gt;Node22</title>
<path fill="none" stroke="midnightblue" d="M964.179,-273.584C972.999,-274.791 981.712,-275.982 989.957,-277.11"/>
<polygon fill="midnightblue" stroke="midnightblue" points="964.576,-270.106 954.194,-272.219 963.627,-277.041 964.576,-270.106"/>
</g>
<!-- Node26 -->
<g id="node26" class="node"><title>Node26</title>
<g id="a_node26"><a xlink:href="../../d8/d3c/classlms7002__mainPanel.html#a38ef18df694e067998a0bbad1813a031" target="_top" xlink:title="lms7002_mainPanel::\lInitialize">
<polygon fill="white" stroke="black" points="990,-49.5 990,-79.5 1100,-79.5 1100,-49.5 990,-49.5"/>
<text text-anchor="start" x="998" y="-67.5" font-family="Helvetica,sans-Serif" font-size="10.00">lms7002_mainPanel::</text>
<text text-anchor="middle" x="1045" y="-56.5" font-family="Helvetica,sans-Serif" font-size="10.00">Initialize</text>
</a>
</g>
</g>
<!-- Node25&#45;&gt;Node26 -->
<g id="edge30" class="edge"><title>Node25&#45;&gt;Node26</title>
<path fill="none" stroke="midnightblue" d="M932.329,-95.6788C951.278,-90.3882 971.838,-84.6478 990.091,-79.5516"/>
<polygon fill="midnightblue" stroke="midnightblue" points="931.278,-92.3382 922.588,-98.3986 933.161,-99.0804 931.278,-92.3382"/>
</g>
<!-- Node31 -->
<g id="node31" class="node"><title>Node31</title>
<g id="a_node31"><a xlink:href="../../d8/d3c/classlms7002__mainPanel.html#a7a90f8fb05946924fa257e8323bfdf45" target="_top" xlink:title="lms7002_mainPanel::\lOnNewProject">
<polygon fill="white" stroke="black" points="990,-147.5 990,-177.5 1100,-177.5 1100,-147.5 990,-147.5"/>
<text text-anchor="start" x="998" y="-165.5" font-family="Helvetica,sans-Serif" font-size="10.00">lms7002_mainPanel::</text>
<text text-anchor="middle" x="1045" y="-154.5" font-family="Helvetica,sans-Serif" font-size="10.00">OnNewProject</text>
</a>
</g>
</g>
<!-- Node25&#45;&gt;Node31 -->
<g id="edge36" class="edge"><title>Node25&#45;&gt;Node31</title>
<path fill="none" stroke="midnightblue" d="M932.329,-131.321C951.278,-136.612 971.838,-142.352 990.091,-147.448"/>
<polygon fill="midnightblue" stroke="midnightblue" points="933.161,-127.92 922.588,-128.601 931.278,-134.662 933.161,-127.92"/>
</g>
<!-- Node32 -->
<g id="node32" class="node"><title>Node32</title>
<g id="a_node32"><a xlink:href="../../d8/d3c/classlms7002__mainPanel.html#a6b98c7113ae45b9d23f5ccf747c56797" target="_top" xlink:title="lms7002_mainPanel::\lOnOpenProject">
<polygon fill="white" stroke="black" points="990,-98.5 990,-128.5 1100,-128.5 1100,-98.5 990,-98.5"/>
<text text-anchor="start" x="998" y="-116.5" font-family="Helvetica,sans-Serif" font-size="10.00">lms7002_mainPanel::</text>
<text text-anchor="middle" x="1045" y="-105.5" font-family="Helvetica,sans-Serif" font-size="10.00">OnOpenProject</text>
</a>
</g>
</g>
<!-- Node25&#45;&gt;Node32 -->
<g id="edge37" class="edge"><title>Node25&#45;&gt;Node32</title>
<path fill="none" stroke="midnightblue" d="M932.802,-113.5C951.515,-113.5 971.763,-113.5 989.789,-113.5"/>
<polygon fill="midnightblue" stroke="midnightblue" points="932.588,-110 922.588,-113.5 932.588,-117 932.588,-110"/>
</g>
<!-- Node27 -->
<g id="node27" class="node"><title>Node27</title>
<g id="a_node27"><a xlink:href="../../d1/df3/classLMS7SuiteAppFrame.html#aeaeb613a8c9139f0e60b02f1f612ed5d" target="_top" xlink:title="LMS7SuiteAppFrame::\lUpdateConnections">
<polygon fill="white" stroke="black" points="1136,-49.5 1136,-79.5 1252,-79.5 1252,-49.5 1136,-49.5"/>
<text text-anchor="start" x="1144" y="-67.5" font-family="Helvetica,sans-Serif" font-size="10.00">LMS7SuiteAppFrame::</text>
<text text-anchor="middle" x="1194" y="-56.5" font-family="Helvetica,sans-Serif" font-size="10.00">UpdateConnections</text>
</a>
</g>
</g>
<!-- Node26&#45;&gt;Node27 -->
<g id="edge31" class="edge"><title>Node26&#45;&gt;Node27</title>
<path fill="none" stroke="midnightblue" d="M1110.53,-64.5C1119,-64.5 1127.62,-64.5 1135.95,-64.5"/>
<polygon fill="midnightblue" stroke="midnightblue" points="1110.32,-61.0001 1100.32,-64.5 1110.32,-68.0001 1110.32,-61.0001"/>
</g>
<!-- Node28 -->
<g id="node28" class="node"><title>Node28</title>
<g id="a_node28"><a xlink:href="../../d1/df3/classLMS7SuiteAppFrame.html#ad380f4e547c66fcfffdec0da53fe5b3e" target="_top" xlink:title="Constructor. ">
<polygon fill="white" stroke="black" points="1459,-71.5 1459,-101.5 1575,-101.5 1575,-71.5 1459,-71.5"/>
<text text-anchor="start" x="1467" y="-89.5" font-family="Helvetica,sans-Serif" font-size="10.00">LMS7SuiteAppFrame::</text>
<text text-anchor="middle" x="1517" y="-78.5" font-family="Helvetica,sans-Serif" font-size="10.00">LMS7SuiteAppFrame</text>
</a>
</g>
</g>
<!-- Node27&#45;&gt;Node28 -->
<g id="edge32" class="edge"><title>Node27&#45;&gt;Node28</title>
<path fill="none" stroke="midnightblue" d="M1262.23,-69.1078C1320.51,-73.1017 1403.9,-78.8174 1458.97,-82.5916"/>
<polygon fill="midnightblue" stroke="midnightblue" points="1262.23,-65.5998 1252.02,-68.4078 1261.76,-72.5835 1262.23,-65.5998"/>
</g>
<!-- Node29 -->
<g id="node29" class="node"><title>Node29</title>
<g id="a_node29"><a xlink:href="../../d1/df3/classLMS7SuiteAppFrame.html#a819f017d3e706c433d9b7f4f9bc1f9c3" target="_top" xlink:title="LMS7SuiteAppFrame::\lOnControlBoardConnect">
<polygon fill="white" stroke="black" points="1288,-27.5 1288,-57.5 1411,-57.5 1411,-27.5 1288,-27.5"/>
<text text-anchor="start" x="1296" y="-45.5" font-family="Helvetica,sans-Serif" font-size="10.00">LMS7SuiteAppFrame::</text>
<text text-anchor="middle" x="1349.5" y="-34.5" font-family="Helvetica,sans-Serif" font-size="10.00">OnControlBoardConnect</text>
</a>
</g>
</g>
<!-- Node27&#45;&gt;Node29 -->
<g id="edge33" class="edge"><title>Node27&#45;&gt;Node29</title>
<path fill="none" stroke="midnightblue" d="M1262.14,-54.8776C1270.73,-53.6467 1279.48,-52.3924 1287.95,-51.1777"/>
<polygon fill="midnightblue" stroke="midnightblue" points="1261.56,-51.4246 1252.16,-56.308 1262.55,-58.3538 1261.56,-51.4246"/>
</g>
<!-- Node29&#45;&gt;Node28 -->
<g id="edge34" class="edge"><title>Node29&#45;&gt;Node28</title>
<path fill="none" stroke="midnightblue" d="M1416.68,-60.0941C1430.85,-63.8632 1445.71,-67.8122 1459.48,-71.4738"/>
<polygon fill="midnightblue" stroke="midnightblue" points="1417.56,-56.7062 1406.99,-57.5192 1415.76,-63.4712 1417.56,-56.7062"/>
</g>
<!-- Node30 -->
<g id="node30" class="node"><title>Node30</title>
<g id="a_node30"><a xlink:href="../../d1/df3/classLMS7SuiteAppFrame.html#a08626f72855857180d80ab271f481d08" target="_top" xlink:title="LMS7SuiteAppFrame::\lOnShowConnectionSettings">
<polygon fill="white" stroke="black" points="1447,-22.5 1447,-52.5 1587,-52.5 1587,-22.5 1447,-22.5"/>
<text text-anchor="start" x="1455" y="-40.5" font-family="Helvetica,sans-Serif" font-size="10.00">LMS7SuiteAppFrame::</text>
<text text-anchor="middle" x="1517" y="-29.5" font-family="Helvetica,sans-Serif" font-size="10.00">OnShowConnectionSettings</text>
</a>
</g>
</g>
<!-- Node29&#45;&gt;Node30 -->
<g id="edge35" class="edge"><title>Node29&#45;&gt;Node30</title>
<path fill="none" stroke="midnightblue" d="M1421.4,-40.358C1429.86,-40.1024 1438.49,-39.8417 1446.93,-39.5868"/>
<polygon fill="midnightblue" stroke="midnightblue" points="1421.08,-36.8661 1411.19,-40.6666 1421.29,-43.8629 1421.08,-36.8661"/>
</g>
</g>
</svg>
        <g id="navigator" transform="translate(0 0)" fill="#404254">
                <rect fill="#f2f5e9" fill-opacity="0.5" stroke="#606060" stroke-width=".5" x="0" y="0" width="60" height="60"/>
                <use id="zoomplus" xlink:href="#zoomPlus" x="17" y="9" onmousedown="handleZoom(evt,'in')"/>
                <use id="zoomminus" xlink:href="#zoomMin" x="42" y="9" onmousedown="handleZoom(evt,'out')"/>
                <use id="reset" xlink:href="#resetDef" x="30" y="36" onmousedown="handleReset()"/>
                <g id="arrowUp" xlink:href="#dirArrow" transform="translate(30 24)" onmousedown="handlePan(0,-1)">
                  <use xlink:href="#rim" fill="#404040">
                        <set attributeName="fill" to="#808080" begin="arrowUp.mouseover" end="arrowUp.mouseout"/>
                  </use>
                  <path fill="none" stroke="white" stroke-width="1.5" d="M0,-3.0v7 M-2.5,-0.5L0,-3.0L2.5,-0.5"/>
                </g>
                <g id="arrowRight" xlink:href="#dirArrow" transform="rotate(90) translate(36 -43)" onmousedown="handlePan(1,0)">
                  <use xlink:href="#rim" fill="#404040">
                        <set attributeName="fill" to="#808080" begin="arrowRight.mouseover" end="arrowRight.mouseout"/>
                  </use>
                  <path fill="none" stroke="white" stroke-width="1.5" d="M0,-3.0v7 M-2.5,-0.5L0,-3.0L2.5,-0.5"/>
                </g>
                <g id="arrowDown" xlink:href="#dirArrow" transform="rotate(180) translate(-30 -48)" onmousedown="handlePan(0,1)">
                  <use xlink:href="#rim" fill="#404040">
                        <set attributeName="fill" to="#808080" begin="arrowDown.mouseover" end="arrowDown.mouseout"/>
                  </use>
                  <path fill="none" stroke="white" stroke-width="1.5" d="M0,-3.0v7 M-2.5,-0.5L0,-3.0L2.5,-0.5"/>
                </g>
                <g id="arrowLeft" xlink:href="#dirArrow" transform="rotate(270) translate(-36 17)" onmousedown="handlePan(-1,0)">
                  <use xlink:href="#rim" fill="#404040">
                        <set attributeName="fill" to="#808080" begin="arrowLeft.mouseover" end="arrowLeft.mouseout"/>
                  </use>
                  <path fill="none" stroke="white" stroke-width="1.5" d="M0,-3.0v7 M-2.5,-0.5L0,-3.0L2.5,-0.5"/>
                </g>
        </g>
        <svg viewBox="0 0 15 15" width="100%" height="30px" preserveAspectRatio="xMaxYMin meet">
         <g id="arrow_out" transform="scale(0.3 0.3)">
          <a xlink:href="classlime_1_1LMS7002M_acd1077fce3d488ba4eecdb5a2e30ff54_icgraph_org.svg" target="_base">
           <rect id="button" ry="5" rx="5" y="6" x="6" height="38" width="38"
                fill="#f2f5e9" fill-opacity="0.5" stroke="#606060" stroke-width="1.0"/>
           <path id="arrow"
             d="M 11.500037,31.436501 C 11.940474,20.09759 22.043105,11.32322 32.158766,21.979434 L 37.068811,17.246167 C 37.068811,17.246167 37.088388,32 37.088388,32 L 22.160133,31.978069 C 22.160133,31.978069 26.997745,27.140456 26.997745,27.140456 C 18.528582,18.264221 13.291696,25.230495 11.500037,31.436501 z"
             style="fill:#404040;"/>
          </a>
         </g>
        </svg>
</svg>
