<?xml version="1.0" encoding="UTF-8" standalone="no"?>
<!DOCTYPE svg PUBLIC "-//W3C//DTD SVG 1.1//EN"
 "http://www.w3.org/Graphics/SVG/1.1/DTD/svg11.dtd">
<!-- Generated by graphviz version 2.38.0 (20140413.2041)
 -->
<!-- Title: lime::LMS7002M::GetNCOPhaseOffset_Deg Pages: 1 -->
<svg width="1801pt" height="455pt"
 viewBox="0.00 0.00 1801.00 455.00" xmlns="http://www.w3.org/2000/svg" xmlns:xlink="http://www.w3.org/1999/xlink">
<g id="graph0" class="graph" transform="scale(1 1) rotate(0) translate(4 451)">
<title>lime::LMS7002M::GetNCOPhaseOffset_Deg</title>
<polygon fill="white" stroke="none" points="-4,4 -4,-451 1797,-451 1797,4 -4,4"/>
<!-- Node1 -->
<g id="node1" class="node"><title>Node1</title>
<polygon fill="#bfbfbf" stroke="black" points="0,-250.5 0,-280.5 162,-280.5 162,-250.5 0,-250.5"/>
<text text-anchor="start" x="8" y="-268.5" font-family="Helvetica,sans-Serif" font-size="10.00">lime::LMS7002M::GetNCOPhase</text>
<text text-anchor="middle" x="81" y="-257.5" font-family="Helvetica,sans-Serif" font-size="10.00">Offset_Deg</text>
</g>
<!-- Node2 -->
<g id="node2" class="node"><title>Node2</title>
<g id="a_node2"><a xlink:href="../../d3/d22/classlime_1_1LMS7__Device.html#a5d2dbfc35e5324985be6c6847128c356" target="_top" xlink:title="lime::LMS7_Device::\lGetNCOPhase">
<polygon fill="white" stroke="black" points="198,-250.5 198,-280.5 306,-280.5 306,-250.5 198,-250.5"/>
<text text-anchor="start" x="206" y="-268.5" font-family="Helvetica,sans-Serif" font-size="10.00">lime::LMS7_Device::</text>
<text text-anchor="middle" x="252" y="-257.5" font-family="Helvetica,sans-Serif" font-size="10.00">GetNCOPhase</text>
</a>
</g>
</g>
<!-- Node1&#45;&gt;Node2 -->
<g id="edge1" class="edge"><title>Node1&#45;&gt;Node2</title>
<path fill="none" stroke="midnightblue" d="M172.274,-265.5C180.975,-265.5 189.593,-265.5 197.757,-265.5"/>
<polygon fill="midnightblue" stroke="midnightblue" points="172.046,-262 162.046,-265.5 172.046,-269 172.046,-262"/>
</g>
<!-- Node3 -->
<g id="node3" class="node"><title>Node3</title>
<g id="a_node3"><a xlink:href="../../df/de1/lms7__api_8cpp.html#a7c4442adb41c97eaf877ddf5fedfb26e" target="_top" xlink:title="LMS_GetNCOPhase">
<polygon fill="white" stroke="black" points="342,-256 342,-275 450,-275 450,-256 342,-256"/>
<text text-anchor="middle" x="396" y="-263" font-family="Helvetica,sans-Serif" font-size="10.00">LMS_GetNCOPhase</text>
</a>
</g>
</g>
<!-- Node2&#45;&gt;Node3 -->
<g id="edge2" class="edge"><title>Node2&#45;&gt;Node3</title>
<path fill="none" stroke="midnightblue" d="M316.517,-265.5C324.996,-265.5 333.618,-265.5 341.894,-265.5"/>
<polygon fill="midnightblue" stroke="midnightblue" points="316.28,-262 306.28,-265.5 316.28,-269 316.28,-262"/>
</g>
<!-- Node4 -->
<g id="node4" class="node"><title>Node4</title>
<g id="a_node4"><a xlink:href="../../df/d5f/classlms7002__pnlTxTSP__view.html#ab401f93273eb70bacb1e80ed38d11f4c" target="_top" xlink:title="lms7002_pnlTxTSP_view\l::UpdateNCOinputs">
<polygon fill="white" stroke="black" points="486.5,-287.5 486.5,-317.5 614.5,-317.5 614.5,-287.5 486.5,-287.5"/>
<text text-anchor="start" x="494.5" y="-305.5" font-family="Helvetica,sans-Serif" font-size="10.00">lms7002_pnlTxTSP_view</text>
<text text-anchor="middle" x="550.5" y="-294.5" font-family="Helvetica,sans-Serif" font-size="10.00">::UpdateNCOinputs</text>
</a>
</g>
</g>
<!-- Node3&#45;&gt;Node4 -->
<g id="edge3" class="edge"><title>Node3&#45;&gt;Node4</title>
<path fill="none" stroke="midnightblue" d="M446.098,-277.412C459.306,-280.617 473.765,-284.125 487.574,-287.475"/>
<polygon fill="midnightblue" stroke="midnightblue" points="446.816,-273.985 436.273,-275.028 445.165,-280.788 446.816,-273.985"/>
</g>
<!-- Node29 -->
<g id="node29" class="node"><title>Node29</title>
<g id="a_node29"><a xlink:href="../../df/d64/classlms7002__pnlRxTSP__view.html#a4d9db62a7d1d8d262ef3afa67b59ee23" target="_top" xlink:title="lms7002_pnlRxTSP_view\l::UpdateNCOinputs">
<polygon fill="white" stroke="black" points="486,-214.5 486,-244.5 615,-244.5 615,-214.5 486,-214.5"/>
<text text-anchor="start" x="494" y="-232.5" font-family="Helvetica,sans-Serif" font-size="10.00">lms7002_pnlRxTSP_view</text>
<text text-anchor="middle" x="550.5" y="-221.5" font-family="Helvetica,sans-Serif" font-size="10.00">::UpdateNCOinputs</text>
</a>
</g>
</g>
<!-- Node3&#45;&gt;Node29 -->
<g id="edge29" class="edge"><title>Node3&#45;&gt;Node29</title>
<path fill="none" stroke="midnightblue" d="M447.498,-253.579C459.76,-250.685 473.029,-247.552 485.813,-244.534"/>
<polygon fill="midnightblue" stroke="midnightblue" points="446.395,-250.243 437.467,-255.947 448.003,-257.056 446.395,-250.243"/>
</g>
<!-- Node5 -->
<g id="node5" class="node"><title>Node5</title>
<g id="a_node5"><a xlink:href="../../df/d5f/classlms7002__pnlTxTSP__view.html#af39e2c0515df4b15869c334e7e994f1f" target="_top" xlink:title="lms7002_pnlTxTSP_view\l::ParameterChangeHandler">
<polygon fill="white" stroke="black" points="651,-336.5 651,-366.5 786,-366.5 786,-336.5 651,-336.5"/>
<text text-anchor="start" x="659" y="-354.5" font-family="Helvetica,sans-Serif" font-size="10.00">lms7002_pnlTxTSP_view</text>
<text text-anchor="middle" x="718.5" y="-343.5" font-family="Helvetica,sans-Serif" font-size="10.00">::ParameterChangeHandler</text>
</a>
</g>
</g>
<!-- Node4&#45;&gt;Node5 -->
<g id="edge4" class="edge"><title>Node4&#45;&gt;Node5</title>
<path fill="none" stroke="midnightblue" d="M612.368,-320.467C630.154,-325.717 649.402,-331.399 666.509,-336.448"/>
<polygon fill="midnightblue" stroke="midnightblue" points="613.242,-317.076 602.66,-317.601 611.26,-323.789 613.242,-317.076"/>
</g>
<!-- Node6 -->
<g id="node6" class="node"><title>Node6</title>
<g id="a_node6"><a xlink:href="../../df/d5f/classlms7002__pnlTxTSP__view.html#af5aedf568953bcab213b8a2dfe1870b1" target="_top" xlink:title="lms7002_pnlTxTSP_view\l::UpdateGUI">
<polygon fill="white" stroke="black" points="654.5,-287.5 654.5,-317.5 782.5,-317.5 782.5,-287.5 654.5,-287.5"/>
<text text-anchor="start" x="662.5" y="-305.5" font-family="Helvetica,sans-Serif" font-size="10.00">lms7002_pnlTxTSP_view</text>
<text text-anchor="middle" x="718.5" y="-294.5" font-family="Helvetica,sans-Serif" font-size="10.00">::UpdateGUI</text>
</a>
</g>
</g>
<!-- Node4&#45;&gt;Node6 -->
<g id="edge5" class="edge"><title>Node4&#45;&gt;Node6</title>
<path fill="none" stroke="midnightblue" d="M624.907,-302.5C634.759,-302.5 644.793,-302.5 654.445,-302.5"/>
<polygon fill="midnightblue" stroke="midnightblue" points="624.731,-299 614.731,-302.5 624.731,-306 624.731,-299"/>
</g>
<!-- Node7 -->
<g id="node7" class="node"><title>Node7</title>
<g id="a_node7"><a xlink:href="../../df/d5f/classlms7002__pnlTxTSP__view.html#a3e06b0516f68b60615ba3b4ff1b64153" target="_top" xlink:title="lms7002_pnlTxTSP_view\l::onbtnGFIR1Coef">
<polygon fill="white" stroke="black" points="822.5,-416.5 822.5,-446.5 950.5,-446.5 950.5,-416.5 822.5,-416.5"/>
<text text-anchor="start" x="830.5" y="-434.5" font-family="Helvetica,sans-Serif" font-size="10.00">lms7002_pnlTxTSP_view</text>
<text text-anchor="middle" x="886.5" y="-423.5" font-family="Helvetica,sans-Serif" font-size="10.00">::onbtnGFIR1Coef</text>
</a>
</g>
</g>
<!-- Node6&#45;&gt;Node7 -->
<g id="edge6" class="edge"><title>Node6&#45;&gt;Node7</title>
<path fill="none" stroke="midnightblue" d="M782.018,-323.141C783.4,-324.206 784.731,-325.324 786,-326.5 814.604,-352.995 793.779,-379.597 822,-406.5 826.03,-410.342 830.721,-413.616 835.694,-416.402"/>
<polygon fill="midnightblue" stroke="midnightblue" points="783.895,-320.186 773.617,-317.614 780.048,-326.034 783.895,-320.186"/>
</g>
<!-- Node8 -->
<g id="node8" class="node"><title>Node8</title>
<g id="a_node8"><a xlink:href="../../df/d5f/classlms7002__pnlTxTSP__view.html#a6326c7ce611d17130beadd1ea66fac04" target="_top" xlink:title="lms7002_pnlTxTSP_view\l::onbtnGFIR2Coef">
<polygon fill="white" stroke="black" points="822.5,-367.5 822.5,-397.5 950.5,-397.5 950.5,-367.5 822.5,-367.5"/>
<text text-anchor="start" x="830.5" y="-385.5" font-family="Helvetica,sans-Serif" font-size="10.00">lms7002_pnlTxTSP_view</text>
<text text-anchor="middle" x="886.5" y="-374.5" font-family="Helvetica,sans-Serif" font-size="10.00">::onbtnGFIR2Coef</text>
</a>
</g>
</g>
<!-- Node6&#45;&gt;Node8 -->
<g id="edge7" class="edge"><title>Node6&#45;&gt;Node8</title>
<path fill="none" stroke="midnightblue" d="M777.067,-321.743C780.141,-323.243 783.138,-324.829 786,-326.5 804.232,-337.149 803.922,-346.59 822,-357.5 828.086,-361.173 834.808,-364.498 841.532,-367.435"/>
<polygon fill="midnightblue" stroke="midnightblue" points="778.236,-318.43 767.681,-317.503 775.354,-324.81 778.236,-318.43"/>
</g>
<!-- Node9 -->
<g id="node9" class="node"><title>Node9</title>
<g id="a_node9"><a xlink:href="../../df/d5f/classlms7002__pnlTxTSP__view.html#ae7ca31c0b5e960d5dea7822cf8161438" target="_top" xlink:title="lms7002_pnlTxTSP_view\l::onbtnGFIR3Coef">
<polygon fill="white" stroke="black" points="822.5,-318.5 822.5,-348.5 950.5,-348.5 950.5,-318.5 822.5,-318.5"/>
<text text-anchor="start" x="830.5" y="-336.5" font-family="Helvetica,sans-Serif" font-size="10.00">lms7002_pnlTxTSP_view</text>
<text text-anchor="middle" x="886.5" y="-325.5" font-family="Helvetica,sans-Serif" font-size="10.00">::onbtnGFIR3Coef</text>
</a>
</g>
</g>
<!-- Node6&#45;&gt;Node9 -->
<g id="edge8" class="edge"><title>Node6&#45;&gt;Node9</title>
<path fill="none" stroke="midnightblue" d="M792.596,-316.151C802.548,-318.009 812.691,-319.903 822.445,-321.725"/>
<polygon fill="midnightblue" stroke="midnightblue" points="793.204,-312.703 782.731,-314.308 791.919,-319.585 793.204,-312.703"/>
</g>
<!-- Node10 -->
<g id="node10" class="node"><title>Node10</title>
<g id="a_node10"><a xlink:href="../../df/d5f/classlms7002__pnlTxTSP__view.html#ab65a709233861b4e20d226c2a0f298f7" target="_top" xlink:title="lms7002_pnlTxTSP_view\l::OnbtnUploadNCOClick">
<polygon fill="white" stroke="black" points="822.5,-269.5 822.5,-299.5 950.5,-299.5 950.5,-269.5 822.5,-269.5"/>
<text text-anchor="start" x="830.5" y="-287.5" font-family="Helvetica,sans-Serif" font-size="10.00">lms7002_pnlTxTSP_view</text>
<text text-anchor="middle" x="886.5" y="-276.5" font-family="Helvetica,sans-Serif" font-size="10.00">::OnbtnUploadNCOClick</text>
</a>
</g>
</g>
<!-- Node6&#45;&gt;Node10 -->
<g id="edge9" class="edge"><title>Node6&#45;&gt;Node10</title>
<path fill="none" stroke="midnightblue" d="M792.907,-294.54C802.759,-293.472 812.793,-292.384 822.445,-291.337"/>
<polygon fill="midnightblue" stroke="midnightblue" points="792.295,-291.086 782.731,-295.644 793.05,-298.045 792.295,-291.086"/>
</g>
<!-- Node11 -->
<g id="node11" class="node"><title>Node11</title>
<g id="a_node11"><a xlink:href="../../d8/d3c/classlms7002__mainPanel.html#abb8c5306cebfa58d153414b6c1b50db9" target="_top" xlink:title="lms7002_mainPanel::\lUpdateVisiblePanel">
<polygon fill="white" stroke="black" points="831.5,-220.5 831.5,-250.5 941.5,-250.5 941.5,-220.5 831.5,-220.5"/>
<text text-anchor="start" x="839.5" y="-238.5" font-family="Helvetica,sans-Serif" font-size="10.00">lms7002_mainPanel::</text>
<text text-anchor="middle" x="886.5" y="-227.5" font-family="Helvetica,sans-Serif" font-size="10.00">UpdateVisiblePanel</text>
</a>
</g>
</g>
<!-- Node6&#45;&gt;Node11 -->
<g id="edge10" class="edge"><title>Node6&#45;&gt;Node11</title>
<path fill="none" stroke="midnightblue" d="M764.103,-283.379C782.036,-275.799 802.942,-267.096 822,-259.5 829.445,-256.533 837.414,-253.448 845.106,-250.519"/>
<polygon fill="midnightblue" stroke="midnightblue" points="762.318,-280.335 754.477,-287.461 765.05,-286.779 762.318,-280.335"/>
</g>
<!-- Node12 -->
<g id="node12" class="node"><title>Node12</title>
<g id="a_node12"><a xlink:href="../../d8/d3c/classlms7002__mainPanel.html#a44397c4b4ab5cfedcaf684f284955586" target="_top" xlink:title="lms7002_mainPanel::\lOnDownloadAll">
<polygon fill="white" stroke="black" points="1018.5,-392.5 1018.5,-422.5 1128.5,-422.5 1128.5,-392.5 1018.5,-392.5"/>
<text text-anchor="start" x="1026.5" y="-410.5" font-family="Helvetica,sans-Serif" font-size="10.00">lms7002_mainPanel::</text>
<text text-anchor="middle" x="1073.5" y="-399.5" font-family="Helvetica,sans-Serif" font-size="10.00">OnDownloadAll</text>
</a>
</g>
</g>
<!-- Node11&#45;&gt;Node12 -->
<g id="edge11" class="edge"><title>Node11&#45;&gt;Node12</title>
<path fill="none" stroke="midnightblue" d="M948.172,-256.698C949.155,-257.594 950.099,-258.527 951,-259.5 989.705,-301.29 946.718,-342.228 987,-382.5 995.531,-391.029 1006.8,-396.681 1018.35,-400.418"/>
<polygon fill="midnightblue" stroke="midnightblue" points="950.086,-253.757 939.992,-250.538 945.876,-259.35 950.086,-253.757"/>
</g>
<!-- Node13 -->
<g id="node13" class="node"><title>Node13</title>
<g id="a_node13"><a xlink:href="../../d8/d3c/classlms7002__mainPanel.html#a43c4592235060266a985096ea4f3ecfb" target="_top" xlink:title="lms7002_mainPanel::\lOnEnableMIMOchecked">
<polygon fill="white" stroke="black" points="1012,-343.5 1012,-373.5 1135,-373.5 1135,-343.5 1012,-343.5"/>
<text text-anchor="start" x="1020" y="-361.5" font-family="Helvetica,sans-Serif" font-size="10.00">lms7002_mainPanel::</text>
<text text-anchor="middle" x="1073.5" y="-350.5" font-family="Helvetica,sans-Serif" font-size="10.00">OnEnableMIMOchecked</text>
</a>
</g>
</g>
<!-- Node11&#45;&gt;Node13 -->
<g id="edge12" class="edge"><title>Node11&#45;&gt;Node13</title>
<path fill="none" stroke="midnightblue" d="M946.962,-256.142C948.363,-257.207 949.713,-258.326 951,-259.5 978.017,-284.153 959.056,-309.903 987,-333.5 994.208,-339.586 1002.84,-344.192 1011.8,-347.676"/>
<polygon fill="midnightblue" stroke="midnightblue" points="948.743,-253.125 938.453,-250.602 944.924,-258.991 948.743,-253.125"/>
</g>
<!-- Node14 -->
<g id="node14" class="node"><title>Node14</title>
<g id="a_node14"><a xlink:href="../../d8/d3c/classlms7002__mainPanel.html#a4de4742979a2f25a74dc4543b34a2ce2" target="_top" xlink:title="lms7002_mainPanel::\lOnLmsDeviceSelect">
<polygon fill="white" stroke="black" points="1018.5,-294.5 1018.5,-324.5 1128.5,-324.5 1128.5,-294.5 1018.5,-294.5"/>
<text text-anchor="start" x="1026.5" y="-312.5" font-family="Helvetica,sans-Serif" font-size="10.00">lms7002_mainPanel::</text>
<text text-anchor="middle" x="1073.5" y="-301.5" font-family="Helvetica,sans-Serif" font-size="10.00">OnLmsDeviceSelect</text>
</a>
</g>
</g>
<!-- Node11&#45;&gt;Node14 -->
<g id="edge13" class="edge"><title>Node11&#45;&gt;Node14</title>
<path fill="none" stroke="midnightblue" d="M940.824,-254.536C944.31,-256.122 947.731,-257.781 951,-259.5 968.241,-268.567 969.424,-276.102 987,-284.5 996.768,-289.167 1007.59,-293.151 1018.15,-296.477"/>
<polygon fill="midnightblue" stroke="midnightblue" points="942.071,-251.263 931.503,-250.513 939.297,-257.689 942.071,-251.263"/>
</g>
<!-- Node15 -->
<g id="node15" class="node"><title>Node15</title>
<g id="a_node15"><a xlink:href="../../d8/d3c/classlms7002__mainPanel.html#a6102ca7439ecabfba330dae9de95b419" target="_top" xlink:title="lms7002_mainPanel::\lOnnotebook_modulesPageChanged">
<polygon fill="white" stroke="black" points="987,-245.5 987,-275.5 1160,-275.5 1160,-245.5 987,-245.5"/>
<text text-anchor="start" x="995" y="-263.5" font-family="Helvetica,sans-Serif" font-size="10.00">lms7002_mainPanel::</text>
<text text-anchor="middle" x="1073.5" y="-252.5" font-family="Helvetica,sans-Serif" font-size="10.00">Onnotebook_modulesPageChanged</text>
</a>
</g>
</g>
<!-- Node11&#45;&gt;Node15 -->
<g id="edge14" class="edge"><title>Node11&#45;&gt;Node15</title>
<path fill="none" stroke="midnightblue" d="M951.701,-244.176C963.016,-245.705 974.956,-247.318 986.749,-248.912"/>
<polygon fill="midnightblue" stroke="midnightblue" points="951.886,-240.669 941.507,-242.798 950.948,-247.606 951.886,-240.669"/>
</g>
<!-- Node18 -->
<g id="node18" class="node"><title>Node18</title>
<g id="a_node18"><a xlink:href="../../d8/d3c/classlms7002__mainPanel.html#aa95a38c6fd2f0a119c940e0fe3a45e1a" target="_top" xlink:title="lms7002_mainPanel::\lOnSwitchToChannelA">
<polygon fill="white" stroke="black" points="1017,-196.5 1017,-226.5 1130,-226.5 1130,-196.5 1017,-196.5"/>
<text text-anchor="start" x="1025" y="-214.5" font-family="Helvetica,sans-Serif" font-size="10.00">lms7002_mainPanel::</text>
<text text-anchor="middle" x="1073.5" y="-203.5" font-family="Helvetica,sans-Serif" font-size="10.00">OnSwitchToChannelA</text>
</a>
</g>
</g>
<!-- Node11&#45;&gt;Node18 -->
<g id="edge17" class="edge"><title>Node11&#45;&gt;Node18</title>
<path fill="none" stroke="midnightblue" d="M951.427,-227.207C972.704,-224.446 996.218,-221.396 1016.82,-218.723"/>
<polygon fill="midnightblue" stroke="midnightblue" points="950.974,-223.736 941.507,-228.494 951.874,-230.678 950.974,-223.736"/>
</g>
<!-- Node19 -->
<g id="node19" class="node"><title>Node19</title>
<g id="a_node19"><a xlink:href="../../d8/d3c/classlms7002__mainPanel.html#a28dc31b61c070c31433142620232788c" target="_top" xlink:title="lms7002_mainPanel::\lOnSwitchToChannelB">
<polygon fill="white" stroke="black" points="1017,-147.5 1017,-177.5 1130,-177.5 1130,-147.5 1017,-147.5"/>
<text text-anchor="start" x="1025" y="-165.5" font-family="Helvetica,sans-Serif" font-size="10.00">lms7002_mainPanel::</text>
<text text-anchor="middle" x="1073.5" y="-154.5" font-family="Helvetica,sans-Serif" font-size="10.00">OnSwitchToChannelB</text>
</a>
</g>
</g>
<!-- Node11&#45;&gt;Node19 -->
<g id="edge18" class="edge"><title>Node11&#45;&gt;Node19</title>
<path fill="none" stroke="midnightblue" d="M938.679,-216.461C942.898,-214.557 947.054,-212.562 951,-210.5 968.043,-201.594 969.528,-194.531 987,-186.5 996.386,-182.186 1006.72,-178.486 1016.85,-175.375"/>
<polygon fill="midnightblue" stroke="midnightblue" points="937.189,-213.292 929.399,-220.473 939.967,-219.717 937.189,-213.292"/>
</g>
<!-- Node20 -->
<g id="node20" class="node"><title>Node20</title>
<g id="a_node20"><a xlink:href="../../d8/d3c/classlms7002__mainPanel.html#a3acbef587578b6d24d5e8a9b8f79cbd8" target="_top" xlink:title="lms7002_mainPanel::\lOnUploadAll">
<polygon fill="white" stroke="black" points="1018.5,-98.5 1018.5,-128.5 1128.5,-128.5 1128.5,-98.5 1018.5,-98.5"/>
<text text-anchor="start" x="1026.5" y="-116.5" font-family="Helvetica,sans-Serif" font-size="10.00">lms7002_mainPanel::</text>
<text text-anchor="middle" x="1073.5" y="-105.5" font-family="Helvetica,sans-Serif" font-size="10.00">OnUploadAll</text>
</a>
</g>
</g>
<!-- Node11&#45;&gt;Node20 -->
<g id="edge19" class="edge"><title>Node11&#45;&gt;Node20</title>
<path fill="none" stroke="midnightblue" d="M945.598,-214.919C947.49,-213.536 949.3,-212.064 951,-210.5 977.62,-186.005 959.173,-160.615 987,-137.5 995.895,-130.112 1006.92,-124.992 1018.05,-121.447"/>
<polygon fill="midnightblue" stroke="midnightblue" points="943.444,-212.139 936.852,-220.434 947.177,-218.06 943.444,-212.139"/>
</g>
<!-- Node21 -->
<g id="node21" class="node"><title>Node21</title>
<g id="a_node21"><a xlink:href="../../d8/d3c/classlms7002__mainPanel.html#a262803ea9a5a7a2c0e400d8ea921d66c" target="_top" xlink:title="lms7002_mainPanel::\lUpdateGUI">
<polygon fill="white" stroke="black" points="1018.5,-49.5 1018.5,-79.5 1128.5,-79.5 1128.5,-49.5 1018.5,-49.5"/>
<text text-anchor="start" x="1026.5" y="-67.5" font-family="Helvetica,sans-Serif" font-size="10.00">lms7002_mainPanel::</text>
<text text-anchor="middle" x="1073.5" y="-56.5" font-family="Helvetica,sans-Serif" font-size="10.00">UpdateGUI</text>
</a>
</g>
</g>
<!-- Node11&#45;&gt;Node21 -->
<g id="edge20" class="edge"><title>Node11&#45;&gt;Node21</title>
<path fill="none" stroke="midnightblue" d="M947.147,-214.262C948.501,-213.075 949.79,-211.822 951,-210.5 989.176,-168.803 946.76,-128.209 987,-88.5 995.56,-80.0533 1006.84,-74.5257 1018.39,-70.9226"/>
<polygon fill="midnightblue" stroke="midnightblue" points="944.789,-211.65 938.775,-220.372 948.916,-217.304 944.789,-211.65"/>
</g>
<!-- Node16 -->
<g id="node16" class="node"><title>Node16</title>
<g id="a_node16"><a xlink:href="../../d8/d3c/classlms7002__mainPanel.html#aff2ae64c885239df71be67c69f9a2c81" target="_top" xlink:title="lms7002_mainPanel::\lOnLoadDefault">
<polygon fill="white" stroke="black" points="1196,-269.5 1196,-299.5 1306,-299.5 1306,-269.5 1196,-269.5"/>
<text text-anchor="start" x="1204" y="-287.5" font-family="Helvetica,sans-Serif" font-size="10.00">lms7002_mainPanel::</text>
<text text-anchor="middle" x="1251" y="-276.5" font-family="Helvetica,sans-Serif" font-size="10.00">OnLoadDefault</text>
</a>
</g>
</g>
<!-- Node15&#45;&gt;Node16 -->
<g id="edge15" class="edge"><title>Node15&#45;&gt;Node16</title>
<path fill="none" stroke="midnightblue" d="M1170.18,-273.584C1179,-274.791 1187.71,-275.982 1195.96,-277.11"/>
<polygon fill="midnightblue" stroke="midnightblue" points="1170.58,-270.106 1160.19,-272.219 1169.63,-277.041 1170.58,-270.106"/>
</g>
<!-- Node17 -->
<g id="node17" class="node"><title>Node17</title>
<g id="a_node17"><a xlink:href="../../d8/d3c/classlms7002__mainPanel.html#ab702fe2f9725c2e7aade97270472ac9e" target="_top" xlink:title="lms7002_mainPanel::\lOnResetChip">
<polygon fill="white" stroke="black" points="1196,-220.5 1196,-250.5 1306,-250.5 1306,-220.5 1196,-220.5"/>
<text text-anchor="start" x="1204" y="-238.5" font-family="Helvetica,sans-Serif" font-size="10.00">lms7002_mainPanel::</text>
<text text-anchor="middle" x="1251" y="-227.5" font-family="Helvetica,sans-Serif" font-size="10.00">OnResetChip</text>
</a>
</g>
</g>
<!-- Node15&#45;&gt;Node17 -->
<g id="edge16" class="edge"><title>Node15&#45;&gt;Node17</title>
<path fill="none" stroke="midnightblue" d="M1170.18,-246.871C1179,-245.614 1187.71,-244.373 1195.96,-243.198"/>
<polygon fill="midnightblue" stroke="midnightblue" points="1169.6,-243.418 1160.19,-248.293 1170.59,-250.348 1169.6,-243.418"/>
</g>
<!-- Node22 -->
<g id="node22" class="node"><title>Node22</title>
<g id="a_node22"><a xlink:href="../../d8/d3c/classlms7002__mainPanel.html#a38ef18df694e067998a0bbad1813a031" target="_top" xlink:title="lms7002_mainPanel::\lInitialize">
<polygon fill="white" stroke="black" points="1196,-98.5 1196,-128.5 1306,-128.5 1306,-98.5 1196,-98.5"/>
<text text-anchor="start" x="1204" y="-116.5" font-family="Helvetica,sans-Serif" font-size="10.00">lms7002_mainPanel::</text>
<text text-anchor="middle" x="1251" y="-105.5" font-family="Helvetica,sans-Serif" font-size="10.00">Initialize</text>
</a>
</g>
</g>
<!-- Node21&#45;&gt;Node22 -->
<g id="edge21" class="edge"><title>Node21&#45;&gt;Node22</title>
<path fill="none" stroke="midnightblue" d="M1138.33,-82.3212C1157.28,-87.6118 1177.84,-93.3522 1196.09,-98.4484"/>
<polygon fill="midnightblue" stroke="midnightblue" points="1139.16,-78.9196 1128.59,-79.6014 1137.28,-85.6618 1139.16,-78.9196"/>
</g>
<!-- Node27 -->
<g id="node27" class="node"><title>Node27</title>
<g id="a_node27"><a xlink:href="../../d8/d3c/classlms7002__mainPanel.html#a7a90f8fb05946924fa257e8323bfdf45" target="_top" xlink:title="lms7002_mainPanel::\lOnNewProject">
<polygon fill="white" stroke="black" points="1196,-49.5 1196,-79.5 1306,-79.5 1306,-49.5 1196,-49.5"/>
<text text-anchor="start" x="1204" y="-67.5" font-family="Helvetica,sans-Serif" font-size="10.00">lms7002_mainPanel::</text>
<text text-anchor="middle" x="1251" y="-56.5" font-family="Helvetica,sans-Serif" font-size="10.00">OnNewProject</text>
</a>
</g>
</g>
<!-- Node21&#45;&gt;Node27 -->
<g id="edge27" class="edge"><title>Node21&#45;&gt;Node27</title>
<path fill="none" stroke="midnightblue" d="M1138.8,-64.5C1157.51,-64.5 1177.76,-64.5 1195.79,-64.5"/>
<polygon fill="midnightblue" stroke="midnightblue" points="1138.59,-61.0001 1128.59,-64.5 1138.59,-68.0001 1138.59,-61.0001"/>
</g>
<!-- Node28 -->
<g id="node28" class="node"><title>Node28</title>
<g id="a_node28"><a xlink:href="../../d8/d3c/classlms7002__mainPanel.html#a6b98c7113ae45b9d23f5ccf747c56797" target="_top" xlink:title="lms7002_mainPanel::\lOnOpenProject">
<polygon fill="white" stroke="black" points="1196,-0.5 1196,-30.5 1306,-30.5 1306,-0.5 1196,-0.5"/>
<text text-anchor="start" x="1204" y="-18.5" font-family="Helvetica,sans-Serif" font-size="10.00">lms7002_mainPanel::</text>
<text text-anchor="middle" x="1251" y="-7.5" font-family="Helvetica,sans-Serif" font-size="10.00">OnOpenProject</text>
</a>
</g>
</g>
<!-- Node21&#45;&gt;Node28 -->
<g id="edge28" class="edge"><title>Node21&#45;&gt;Node28</title>
<path fill="none" stroke="midnightblue" d="M1138.33,-46.6788C1157.28,-41.3882 1177.84,-35.6478 1196.09,-30.5516"/>
<polygon fill="midnightblue" stroke="midnightblue" points="1137.28,-43.3382 1128.59,-49.3986 1139.16,-50.0804 1137.28,-43.3382"/>
</g>
<!-- Node23 -->
<g id="node23" class="node"><title>Node23</title>
<g id="a_node23"><a xlink:href="../../d1/df3/classLMS7SuiteAppFrame.html#aeaeb613a8c9139f0e60b02f1f612ed5d" target="_top" xlink:title="LMS7SuiteAppFrame::\lUpdateConnections">
<polygon fill="white" stroke="black" points="1342,-98.5 1342,-128.5 1458,-128.5 1458,-98.5 1342,-98.5"/>
<text text-anchor="start" x="1350" y="-116.5" font-family="Helvetica,sans-Serif" font-size="10.00">LMS7SuiteAppFrame::</text>
<text text-anchor="middle" x="1400" y="-105.5" font-family="Helvetica,sans-Serif" font-size="10.00">UpdateConnections</text>
</a>
</g>
</g>
<!-- Node22&#45;&gt;Node23 -->
<g id="edge22" class="edge"><title>Node22&#45;&gt;Node23</title>
<path fill="none" stroke="midnightblue" d="M1316.53,-113.5C1325,-113.5 1333.62,-113.5 1341.95,-113.5"/>
<polygon fill="midnightblue" stroke="midnightblue" points="1316.32,-110 1306.32,-113.5 1316.32,-117 1316.32,-110"/>
</g>
<!-- Node24 -->
<g id="node24" class="node"><title>Node24</title>
<g id="a_node24"><a xlink:href="../../d1/df3/classLMS7SuiteAppFrame.html#ad380f4e547c66fcfffdec0da53fe5b3e" target="_top" xlink:title="Constructor. ">
<polygon fill="white" stroke="black" points="1665,-120.5 1665,-150.5 1781,-150.5 1781,-120.5 1665,-120.5"/>
<text text-anchor="start" x="1673" y="-138.5" font-family="Helvetica,sans-Serif" font-size="10.00">LMS7SuiteAppFrame::</text>
<text text-anchor="middle" x="1723" y="-127.5" font-family="Helvetica,sans-Serif" font-size="10.00">LMS7SuiteAppFrame</text>
</a>
</g>
</g>
<!-- Node23&#45;&gt;Node24 -->
<g id="edge23" class="edge"><title>Node23&#45;&gt;Node24</title>
<path fill="none" stroke="midnightblue" d="M1468.23,-118.108C1526.51,-122.102 1609.9,-127.817 1664.97,-131.592"/>
<polygon fill="midnightblue" stroke="midnightblue" points="1468.23,-114.6 1458.02,-117.408 1467.76,-121.583 1468.23,-114.6"/>
</g>
<!-- Node25 -->
<g id="node25" class="node"><title>Node25</title>
<g id="a_node25"><a xlink:href="../../d1/df3/classLMS7SuiteAppFrame.html#a819f017d3e706c433d9b7f4f9bc1f9c3" target="_top" xlink:title="LMS7SuiteAppFrame::\lOnControlBoardConnect">
<polygon fill="white" stroke="black" points="1494,-76.5 1494,-106.5 1617,-106.5 1617,-76.5 1494,-76.5"/>
<text text-anchor="start" x="1502" y="-94.5" font-family="Helvetica,sans-Serif" font-size="10.00">LMS7SuiteAppFrame::</text>
<text text-anchor="middle" x="1555.5" y="-83.5" font-family="Helvetica,sans-Serif" font-size="10.00">OnControlBoardConnect</text>
</a>
</g>
</g>
<!-- Node23&#45;&gt;Node25 -->
<g id="edge24" class="edge"><title>Node23&#45;&gt;Node25</title>
<path fill="none" stroke="midnightblue" d="M1468.14,-103.878C1476.73,-102.647 1485.48,-101.392 1493.95,-100.178"/>
<polygon fill="midnightblue" stroke="midnightblue" points="1467.56,-100.425 1458.16,-105.308 1468.55,-107.354 1467.56,-100.425"/>
</g>
<!-- Node25&#45;&gt;Node24 -->
<g id="edge25" class="edge"><title>Node25&#45;&gt;Node24</title>
<path fill="none" stroke="midnightblue" d="M1622.68,-109.094C1636.85,-112.863 1651.71,-116.812 1665.48,-120.474"/>
<polygon fill="midnightblue" stroke="midnightblue" points="1623.56,-105.706 1612.99,-106.519 1621.76,-112.471 1623.56,-105.706"/>
</g>
<!-- Node26 -->
<g id="node26" class="node"><title>Node26</title>
<g id="a_node26"><a xlink:href="../../d1/df3/classLMS7SuiteAppFrame.html#a08626f72855857180d80ab271f481d08" target="_top" xlink:title="LMS7SuiteAppFrame::\lOnShowConnectionSettings">
<polygon fill="white" stroke="black" points="1653,-71.5 1653,-101.5 1793,-101.5 1793,-71.5 1653,-71.5"/>
<text text-anchor="start" x="1661" y="-89.5" font-family="Helvetica,sans-Serif" font-size="10.00">LMS7SuiteAppFrame::</text>
<text text-anchor="middle" x="1723" y="-78.5" font-family="Helvetica,sans-Serif" font-size="10.00">OnShowConnectionSettings</text>
</a>
</g>
</g>
<!-- Node25&#45;&gt;Node26 -->
<g id="edge26" class="edge"><title>Node25&#45;&gt;Node26</title>
<path fill="none" stroke="midnightblue" d="M1627.4,-89.358C1635.86,-89.1024 1644.49,-88.8417 1652.93,-88.5868"/>
<polygon fill="midnightblue" stroke="midnightblue" points="1627.08,-85.8661 1617.19,-89.6666 1627.29,-92.8629 1627.08,-85.8661"/>
</g>
<!-- Node30 -->
<g id="node30" class="node"><title>Node30</title>
<g id="a_node30"><a xlink:href="../../df/d64/classlms7002__pnlRxTSP__view.html#ac6d013bd264e4eb32228c36818a6b111" target="_top" xlink:title="lms7002_pnlRxTSP_view\l::ParameterChangeHandler">
<polygon fill="white" stroke="black" points="651,-214.5 651,-244.5 786,-244.5 786,-214.5 651,-214.5"/>
<text text-anchor="start" x="659" y="-232.5" font-family="Helvetica,sans-Serif" font-size="10.00">lms7002_pnlRxTSP_view</text>
<text text-anchor="middle" x="718.5" y="-221.5" font-family="Helvetica,sans-Serif" font-size="10.00">::ParameterChangeHandler</text>
</a>
</g>
</g>
<!-- Node29&#45;&gt;Node30 -->
<g id="edge30" class="edge"><title>Node29&#45;&gt;Node30</title>
<path fill="none" stroke="midnightblue" d="M625.466,-229.5C633.949,-229.5 642.56,-229.5 650.938,-229.5"/>
<polygon fill="midnightblue" stroke="midnightblue" points="625.205,-226 615.205,-229.5 625.205,-233 625.205,-226"/>
</g>
<!-- Node31 -->
<g id="node31" class="node"><title>Node31</title>
<g id="a_node31"><a xlink:href="../../df/d64/classlms7002__pnlRxTSP__view.html#a4e800390b694e30eb492a4de0f209c19" target="_top" xlink:title="lms7002_pnlRxTSP_view\l::UpdateGUI">
<polygon fill="white" stroke="black" points="654,-153.5 654,-183.5 783,-183.5 783,-153.5 654,-153.5"/>
<text text-anchor="start" x="662" y="-171.5" font-family="Helvetica,sans-Serif" font-size="10.00">lms7002_pnlRxTSP_view</text>
<text text-anchor="middle" x="718.5" y="-160.5" font-family="Helvetica,sans-Serif" font-size="10.00">::UpdateGUI</text>
</a>
</g>
</g>
<!-- Node29&#45;&gt;Node31 -->
<g id="edge31" class="edge"><title>Node29&#45;&gt;Node31</title>
<path fill="none" stroke="midnightblue" d="M602.139,-210.892C626.025,-202.114 654.151,-191.779 676.651,-183.511"/>
<polygon fill="midnightblue" stroke="midnightblue" points="600.713,-207.687 592.534,-214.421 603.127,-214.257 600.713,-207.687"/>
</g>
<!-- Node31&#45;&gt;Node11 -->
<g id="edge36" class="edge"><title>Node31&#45;&gt;Node11</title>
<path fill="none" stroke="midnightblue" d="M765.479,-187.498C783.131,-194.75 803.48,-203.06 822,-210.5 830.026,-213.724 838.638,-217.142 846.849,-220.382"/>
<polygon fill="midnightblue" stroke="midnightblue" points="766.558,-184.158 755.978,-183.59 763.895,-190.631 766.558,-184.158"/>
</g>
<!-- Node32 -->
<g id="node32" class="node"><title>Node32</title>
<g id="a_node32"><a xlink:href="../../df/d64/classlms7002__pnlRxTSP__view.html#a4f9993eadcbf100d41ec805ba0a4a384" target="_top" xlink:title="lms7002_pnlRxTSP_view\l::onbtnGFIR1Coef">
<polygon fill="white" stroke="black" points="822,-171.5 822,-201.5 951,-201.5 951,-171.5 822,-171.5"/>
<text text-anchor="start" x="830" y="-189.5" font-family="Helvetica,sans-Serif" font-size="10.00">lms7002_pnlRxTSP_view</text>
<text text-anchor="middle" x="886.5" y="-178.5" font-family="Helvetica,sans-Serif" font-size="10.00">::onbtnGFIR1Coef</text>
</a>
</g>
</g>
<!-- Node31&#45;&gt;Node32 -->
<g id="edge32" class="edge"><title>Node31&#45;&gt;Node32</title>
<path fill="none" stroke="midnightblue" d="M793.444,-176.518C802.96,-177.55 812.636,-178.599 821.965,-179.611"/>
<polygon fill="midnightblue" stroke="midnightblue" points="793.524,-173.006 783.205,-175.408 792.77,-179.965 793.524,-173.006"/>
</g>
<!-- Node33 -->
<g id="node33" class="node"><title>Node33</title>
<g id="a_node33"><a xlink:href="../../df/d64/classlms7002__pnlRxTSP__view.html#a7a2aa039e3f41facc28795dd98482fef" target="_top" xlink:title="lms7002_pnlRxTSP_view\l::onbtnGFIR2Coef">
<polygon fill="white" stroke="black" points="822,-122.5 822,-152.5 951,-152.5 951,-122.5 822,-122.5"/>
<text text-anchor="start" x="830" y="-140.5" font-family="Helvetica,sans-Serif" font-size="10.00">lms7002_pnlRxTSP_view</text>
<text text-anchor="middle" x="886.5" y="-129.5" font-family="Helvetica,sans-Serif" font-size="10.00">::onbtnGFIR2Coef</text>
</a>
</g>
</g>
<!-- Node31&#45;&gt;Node33 -->
<g id="edge33" class="edge"><title>Node31&#45;&gt;Node33</title>
<path fill="none" stroke="midnightblue" d="M793.14,-154.748C802.754,-152.953 812.537,-151.126 821.965,-149.365"/>
<polygon fill="midnightblue" stroke="midnightblue" points="792.393,-151.327 783.205,-156.603 793.678,-158.208 792.393,-151.327"/>
</g>
<!-- Node34 -->
<g id="node34" class="node"><title>Node34</title>
<g id="a_node34"><a xlink:href="../../df/d64/classlms7002__pnlRxTSP__view.html#ab6eb405deb9b67960ff91d5e28b19f73" target="_top" xlink:title="lms7002_pnlRxTSP_view\l::onbtnGFIR3Coef">
<polygon fill="white" stroke="black" points="822,-73.5 822,-103.5 951,-103.5 951,-73.5 822,-73.5"/>
<text text-anchor="start" x="830" y="-91.5" font-family="Helvetica,sans-Serif" font-size="10.00">lms7002_pnlRxTSP_view</text>
<text text-anchor="middle" x="886.5" y="-80.5" font-family="Helvetica,sans-Serif" font-size="10.00">::onbtnGFIR3Coef</text>
</a>
</g>
</g>
<!-- Node31&#45;&gt;Node34 -->
<g id="edge34" class="edge"><title>Node31&#45;&gt;Node34</title>
<path fill="none" stroke="midnightblue" d="M753.57,-148.336C773.229,-137.097 798.617,-123.244 822,-112.5 828.747,-109.4 836.019,-106.372 843.148,-103.569"/>
<polygon fill="midnightblue" stroke="midnightblue" points="751.605,-145.429 744.691,-153.457 755.103,-151.493 751.605,-145.429"/>
</g>
<!-- Node35 -->
<g id="node35" class="node"><title>Node35</title>
<g id="a_node35"><a xlink:href="../../df/d64/classlms7002__pnlRxTSP__view.html#a009505fe644e44d48ec06d4699a4238c" target="_top" xlink:title="lms7002_pnlRxTSP_view\l::OnbtnUploadNCOClick">
<polygon fill="white" stroke="black" points="822,-24.5 822,-54.5 951,-54.5 951,-24.5 822,-24.5"/>
<text text-anchor="start" x="830" y="-42.5" font-family="Helvetica,sans-Serif" font-size="10.00">lms7002_pnlRxTSP_view</text>
<text text-anchor="middle" x="886.5" y="-31.5" font-family="Helvetica,sans-Serif" font-size="10.00">::OnbtnUploadNCOClick</text>
</a>
</g>
</g>
<!-- Node31&#45;&gt;Node35 -->
<g id="edge35" class="edge"><title>Node31&#45;&gt;Node35</title>
<path fill="none" stroke="midnightblue" d="M737.12,-145.219C755.907,-121.787 787.636,-85.9847 822,-63.5 827.128,-60.1445 832.793,-57.162 838.565,-54.5393"/>
<polygon fill="midnightblue" stroke="midnightblue" points="734.238,-143.222 730.803,-153.245 739.738,-147.551 734.238,-143.222"/>
</g>
</g>
</svg>
