<?xml version="1.0" encoding="UTF-8" standalone="no"?>
<!DOCTYPE svg PUBLIC "-//W3C//DTD SVG 1.1//EN"
 "http://www.w3.org/Graphics/SVG/1.1/DTD/svg11.dtd">
<!-- Generated by graphviz version 2.38.0 (20140413.2041)
 -->
<!-- Title: lime::LMS7002M::SetGFIRCoefficients Pages: 1 -->
<!--zoomable 284 -->
<svg id="main" version="1.1" xmlns="http://www.w3.org/2000/svg" xmlns:xlink="http://www.w3.org/1999/xlink" xml:space="preserve" onload="init(evt)">
<style type="text/css"><![CDATA[
.edge:hover path { stroke: red; }
.edge:hover polygon { stroke: red; fill: red; }
]]></style>
<script type="text/javascript"><![CDATA[
var edges = document.getElementsByTagName('g');
if (edges && edges.length) {
  for (var i=0;i<edges.length;i++) {
    if (edges[i].id.substr(0,4)=='edge') {
      edges[i].setAttribute('class','edge');
    }
  }
}
]]></script>
        <defs>
                <circle id="rim" cx="0" cy="0" r="7"/>
                <circle id="rim2" cx="0" cy="0" r="3.5"/>
                <g id="zoomPlus">
                        <use xlink:href="#rim" fill="#404040">
                                <set attributeName="fill" to="#808080" begin="zoomplus.mouseover" end="zoomplus.mouseout"/>
                        </use>
                        <path d="M-4,0h8M0,-4v8" fill="none" stroke="white" stroke-width="1.5" pointer-events="none"/>
                </g>
                <g id="zoomMin">
                        <use xlink:href="#rim" fill="#404040">
                                <set attributeName="fill" to="#808080" begin="zoomminus.mouseover" end="zoomminus.mouseout"/>
                        </use>
                        <path d="M-4,0h8" fill="none" stroke="white" stroke-width="1.5" pointer-events="none"/>
                </g>
                <g id="dirArrow">
                        <path fill="none" stroke="white" stroke-width="1.5" d="M0,-3.0v7 M-2.5,-0.5L0,-3.0L2.5,-0.5"/>
                </g>
               <g id="resetDef">
                       <use xlink:href="#rim2" fill="#404040">
                               <set attributeName="fill" to="#808080" begin="reset.mouseover" end="reset.mouseout"/>
                       </use>
               </g>
        </defs>

<script type="text/javascript">
var viewWidth = 669;
var viewHeight = 284;
var sectionId = 'dynsection-116';
</script>
<script xlink:href="../../svgpan.js"/>
<svg id="graph" class="graph">
<g id="viewport">
<title>lime::LMS7002M::SetGFIRCoefficients</title>
<polygon fill="white" stroke="none" points="-4,4 -4,-280 665,-280 665,4 -4,4"/>
<!-- Node1 -->
<g id="node1" class="node"><title>Node1</title>
<polygon fill="#bfbfbf" stroke="black" points="0,-152 0,-171 188,-171 188,-152 0,-152"/>
<text text-anchor="middle" x="94" y="-159" font-family="Helvetica,sans-Serif" font-size="10.00">lime::LMS7002M::SetGFIRCoefficients</text>
</g>
<!-- Node2 -->
<g id="node2" class="node"><title>Node2</title>
<g id="a_node2"><a xlink:href="../../d3/d22/classlime_1_1LMS7__Device.html#abc43b4cf1a17d26842a58b95d51a6f17" target="_top" xlink:title="lime::LMS7_Device::\lConfigureGFIR">
<polygon fill="white" stroke="black" points="224,-171.5 224,-201.5 332,-201.5 332,-171.5 224,-171.5"/>
<text text-anchor="start" x="232" y="-189.5" font-family="Helvetica,sans-Serif" font-size="10.00">lime::LMS7_Device::</text>
<text text-anchor="middle" x="278" y="-178.5" font-family="Helvetica,sans-Serif" font-size="10.00">ConfigureGFIR</text>
</a>
</g>
</g>
<!-- Node1&#45;&gt;Node2 -->
<g id="edge1" class="edge"><title>Node1&#45;&gt;Node2</title>
<path fill="none" stroke="midnightblue" d="M174.585,-172.432C191.202,-174.715 208.335,-177.068 223.72,-179.181"/>
<polygon fill="midnightblue" stroke="midnightblue" points="174.709,-168.916 164.326,-171.023 173.756,-175.851 174.709,-168.916"/>
</g>
<!-- Node5 -->
<g id="node5" class="node"><title>Node5</title>
<g id="a_node5"><a xlink:href="../../d3/d22/classlime_1_1LMS7__Device.html#ab21669869c7d14d9905fdcfcaa158281" target="_top" xlink:title="lime::LMS7_Device::\lSetGFIRCoef">
<polygon fill="white" stroke="black" points="224,-122.5 224,-152.5 332,-152.5 332,-122.5 224,-122.5"/>
<text text-anchor="start" x="232" y="-140.5" font-family="Helvetica,sans-Serif" font-size="10.00">lime::LMS7_Device::</text>
<text text-anchor="middle" x="278" y="-129.5" font-family="Helvetica,sans-Serif" font-size="10.00">SetGFIRCoef</text>
</a>
</g>
</g>
<!-- Node1&#45;&gt;Node5 -->
<g id="edge4" class="edge"><title>Node1&#45;&gt;Node5</title>
<path fill="none" stroke="midnightblue" d="M177.501,-150.621C193.294,-148.538 209.431,-146.41 223.988,-144.491"/>
<polygon fill="midnightblue" stroke="midnightblue" points="176.649,-147.203 167.193,-151.98 177.564,-154.143 176.649,-147.203"/>
</g>
<!-- Node3 -->
<g id="node3" class="node"><title>Node3</title>
<g id="a_node3"><a xlink:href="../../d9/d90/classSoapyLMS7.html#a3ed334e7d2f7c168515f4b9ee6f46545" target="_top" xlink:title="SoapyLMS7::writeSetting">
<polygon fill="white" stroke="black" points="368,-209 368,-228 496,-228 496,-209 368,-209"/>
<text text-anchor="middle" x="432" y="-216" font-family="Helvetica,sans-Serif" font-size="10.00">SoapyLMS7::writeSetting</text>
</a>
</g>
</g>
<!-- Node2&#45;&gt;Node3 -->
<g id="edge2" class="edge"><title>Node2&#45;&gt;Node3</title>
<path fill="none" stroke="midnightblue" d="M342.145,-199.794C356.756,-202.87 372.02,-206.083 385.691,-208.961"/>
<polygon fill="midnightblue" stroke="midnightblue" points="342.669,-196.327 332.162,-197.692 341.227,-203.177 342.669,-196.327"/>
</g>
<!-- Node4 -->
<g id="node4" class="node"><title>Node4</title>
<g id="a_node4"><a xlink:href="../../df/de1/lms7__api_8cpp.html#abf1f79d0561a8242ffe356d497f5f970" target="_top" xlink:title="LMS_SetGFIRLPF">
<polygon fill="white" stroke="black" points="382.5,-171 382.5,-190 481.5,-190 481.5,-171 382.5,-171"/>
<text text-anchor="middle" x="432" y="-178" font-family="Helvetica,sans-Serif" font-size="10.00">LMS_SetGFIRLPF</text>
</a>
</g>
</g>
<!-- Node2&#45;&gt;Node4 -->
<g id="edge3" class="edge"><title>Node2&#45;&gt;Node4</title>
<path fill="none" stroke="midnightblue" d="M342.29,-184.002C355.711,-183.472 369.675,-182.921 382.446,-182.417"/>
<polygon fill="midnightblue" stroke="midnightblue" points="342.016,-180.51 332.162,-184.401 342.293,-187.504 342.016,-180.51"/>
</g>
<!-- Node6 -->
<g id="node6" class="node"><title>Node6</title>
<g id="a_node6"><a xlink:href="../../df/de1/lms7__api_8cpp.html#ad9538f07489ca171e270728fa1f6cc32" target="_top" xlink:title="LMS_SetGFIRCoeff">
<polygon fill="white" stroke="black" points="379.5,-128 379.5,-147 484.5,-147 484.5,-128 379.5,-128"/>
<text text-anchor="middle" x="432" y="-135" font-family="Helvetica,sans-Serif" font-size="10.00">LMS_SetGFIRCoeff</text>
</a>
</g>
</g>
<!-- Node5&#45;&gt;Node6 -->
<g id="edge5" class="edge"><title>Node5&#45;&gt;Node6</title>
<path fill="none" stroke="midnightblue" d="M342.385,-137.5C354.718,-137.5 367.507,-137.5 379.404,-137.5"/>
<polygon fill="midnightblue" stroke="midnightblue" points="342.162,-134 332.162,-137.5 342.162,-141 342.162,-134"/>
</g>
<!-- Node7 -->
<g id="node7" class="node"><title>Node7</title>
<g id="a_node7"><a xlink:href="../../df/d64/classlms7002__pnlRxTSP__view.html#a4f9993eadcbf100d41ec805ba0a4a384" target="_top" xlink:title="lms7002_pnlRxTSP_view\l::onbtnGFIR1Coef">
<polygon fill="white" stroke="black" points="532,-245.5 532,-275.5 661,-275.5 661,-245.5 532,-245.5"/>
<text text-anchor="start" x="540" y="-263.5" font-family="Helvetica,sans-Serif" font-size="10.00">lms7002_pnlRxTSP_view</text>
<text text-anchor="middle" x="596.5" y="-252.5" font-family="Helvetica,sans-Serif" font-size="10.00">::onbtnGFIR1Coef</text>
</a>
</g>
</g>
<!-- Node6&#45;&gt;Node7 -->
<g id="edge6" class="edge"><title>Node6&#45;&gt;Node7</title>
<path fill="none" stroke="midnightblue" d="M481.168,-151.313C486.542,-154.128 491.64,-157.49 496,-161.5 523.214,-186.53 504.753,-211.505 532,-236.5 535.734,-239.926 540.006,-242.878 544.529,-245.419"/>
<polygon fill="midnightblue" stroke="midnightblue" points="482.493,-148.07 471.944,-147.077 479.571,-154.431 482.493,-148.07"/>
</g>
<!-- Node8 -->
<g id="node8" class="node"><title>Node8</title>
<g id="a_node8"><a xlink:href="../../df/d5f/classlms7002__pnlTxTSP__view.html#a3e06b0516f68b60615ba3b4ff1b64153" target="_top" xlink:title="lms7002_pnlTxTSP_view\l::onbtnGFIR1Coef">
<polygon fill="white" stroke="black" points="532.5,-196.5 532.5,-226.5 660.5,-226.5 660.5,-196.5 532.5,-196.5"/>
<text text-anchor="start" x="540.5" y="-214.5" font-family="Helvetica,sans-Serif" font-size="10.00">lms7002_pnlTxTSP_view</text>
<text text-anchor="middle" x="596.5" y="-203.5" font-family="Helvetica,sans-Serif" font-size="10.00">::onbtnGFIR1Coef</text>
</a>
</g>
</g>
<!-- Node6&#45;&gt;Node8 -->
<g id="edge7" class="edge"><title>Node6&#45;&gt;Node8</title>
<path fill="none" stroke="midnightblue" d="M472.424,-150.697C480.4,-153.87 488.603,-157.51 496,-161.5 513.37,-170.871 514.618,-178.152 532,-187.5 538.02,-190.738 544.572,-193.74 551.105,-196.448"/>
<polygon fill="midnightblue" stroke="midnightblue" points="473.468,-147.35 462.877,-147.068 470.98,-153.893 473.468,-147.35"/>
</g>
<!-- Node9 -->
<g id="node9" class="node"><title>Node9</title>
<g id="a_node9"><a xlink:href="../../df/d5f/classlms7002__pnlTxTSP__view.html#a6326c7ce611d17130beadd1ea66fac04" target="_top" xlink:title="lms7002_pnlTxTSP_view\l::onbtnGFIR2Coef">
<polygon fill="white" stroke="black" points="532.5,-147.5 532.5,-177.5 660.5,-177.5 660.5,-147.5 532.5,-147.5"/>
<text text-anchor="start" x="540.5" y="-165.5" font-family="Helvetica,sans-Serif" font-size="10.00">lms7002_pnlTxTSP_view</text>
<text text-anchor="middle" x="596.5" y="-154.5" font-family="Helvetica,sans-Serif" font-size="10.00">::onbtnGFIR2Coef</text>
</a>
</g>
</g>
<!-- Node6&#45;&gt;Node9 -->
<g id="edge8" class="edge"><title>Node6&#45;&gt;Node9</title>
<path fill="none" stroke="midnightblue" d="M494.998,-147.038C507.269,-148.926 520.162,-150.91 532.467,-152.803"/>
<polygon fill="midnightblue" stroke="midnightblue" points="495.279,-143.54 484.863,-145.479 494.214,-150.459 495.279,-143.54"/>
</g>
<!-- Node10 -->
<g id="node10" class="node"><title>Node10</title>
<g id="a_node10"><a xlink:href="../../df/d64/classlms7002__pnlRxTSP__view.html#a7a2aa039e3f41facc28795dd98482fef" target="_top" xlink:title="lms7002_pnlRxTSP_view\l::onbtnGFIR2Coef">
<polygon fill="white" stroke="black" points="532,-98.5 532,-128.5 661,-128.5 661,-98.5 532,-98.5"/>
<text text-anchor="start" x="540" y="-116.5" font-family="Helvetica,sans-Serif" font-size="10.00">lms7002_pnlRxTSP_view</text>
<text text-anchor="middle" x="596.5" y="-105.5" font-family="Helvetica,sans-Serif" font-size="10.00">::onbtnGFIR2Coef</text>
</a>
</g>
</g>
<!-- Node6&#45;&gt;Node10 -->
<g id="edge9" class="edge"><title>Node6&#45;&gt;Node10</title>
<path fill="none" stroke="midnightblue" d="M494.871,-128.362C506.988,-126.573 519.715,-124.693 531.887,-122.895"/>
<polygon fill="midnightblue" stroke="midnightblue" points="494.244,-124.917 484.863,-129.84 495.267,-131.842 494.244,-124.917"/>
</g>
<!-- Node11 -->
<g id="node11" class="node"><title>Node11</title>
<g id="a_node11"><a xlink:href="../../df/d64/classlms7002__pnlRxTSP__view.html#ab6eb405deb9b67960ff91d5e28b19f73" target="_top" xlink:title="lms7002_pnlRxTSP_view\l::onbtnGFIR3Coef">
<polygon fill="white" stroke="black" points="532,-49.5 532,-79.5 661,-79.5 661,-49.5 532,-49.5"/>
<text text-anchor="start" x="540" y="-67.5" font-family="Helvetica,sans-Serif" font-size="10.00">lms7002_pnlRxTSP_view</text>
<text text-anchor="middle" x="596.5" y="-56.5" font-family="Helvetica,sans-Serif" font-size="10.00">::onbtnGFIR3Coef</text>
</a>
</g>
</g>
<!-- Node6&#45;&gt;Node11 -->
<g id="edge10" class="edge"><title>Node6&#45;&gt;Node11</title>
<path fill="none" stroke="midnightblue" d="M460.805,-123.314C480.502,-113.439 507.646,-100.179 532,-89.5 539.704,-86.1218 548.019,-82.6944 556.013,-79.505"/>
<polygon fill="midnightblue" stroke="midnightblue" points="459.133,-120.238 451.779,-127.864 462.284,-126.488 459.133,-120.238"/>
</g>
<!-- Node12 -->
<g id="node12" class="node"><title>Node12</title>
<g id="a_node12"><a xlink:href="../../df/d5f/classlms7002__pnlTxTSP__view.html#ae7ca31c0b5e960d5dea7822cf8161438" target="_top" xlink:title="lms7002_pnlTxTSP_view\l::onbtnGFIR3Coef">
<polygon fill="white" stroke="black" points="532.5,-0.5 532.5,-30.5 660.5,-30.5 660.5,-0.5 532.5,-0.5"/>
<text text-anchor="start" x="540.5" y="-18.5" font-family="Helvetica,sans-Serif" font-size="10.00">lms7002_pnlTxTSP_view</text>
<text text-anchor="middle" x="596.5" y="-7.5" font-family="Helvetica,sans-Serif" font-size="10.00">::onbtnGFIR3Coef</text>
</a>
</g>
</g>
<!-- Node6&#45;&gt;Node12 -->
<g id="edge11" class="edge"><title>Node6&#45;&gt;Node12</title>
<path fill="none" stroke="midnightblue" d="M446.955,-120.067C464.752,-98.8043 497.395,-62.9322 532,-40.5 537.766,-36.7621 544.179,-33.4347 550.65,-30.5236"/>
<polygon fill="midnightblue" stroke="midnightblue" points="444.122,-118.001 440.478,-127.95 449.53,-122.445 444.122,-118.001"/>
</g>
</g>
</svg>
        <g id="navigator" transform="translate(0 0)" fill="#404254">
                <rect fill="#f2f5e9" fill-opacity="0.5" stroke="#606060" stroke-width=".5" x="0" y="0" width="60" height="60"/>
                <use id="zoomplus" xlink:href="#zoomPlus" x="17" y="9" onmousedown="handleZoom(evt,'in')"/>
                <use id="zoomminus" xlink:href="#zoomMin" x="42" y="9" onmousedown="handleZoom(evt,'out')"/>
                <use id="reset" xlink:href="#resetDef" x="30" y="36" onmousedown="handleReset()"/>
                <g id="arrowUp" xlink:href="#dirArrow" transform="translate(30 24)" onmousedown="handlePan(0,-1)">
                  <use xlink:href="#rim" fill="#404040">
                        <set attributeName="fill" to="#808080" begin="arrowUp.mouseover" end="arrowUp.mouseout"/>
                  </use>
                  <path fill="none" stroke="white" stroke-width="1.5" d="M0,-3.0v7 M-2.5,-0.5L0,-3.0L2.5,-0.5"/>
                </g>
                <g id="arrowRight" xlink:href="#dirArrow" transform="rotate(90) translate(36 -43)" onmousedown="handlePan(1,0)">
                  <use xlink:href="#rim" fill="#404040">
                        <set attributeName="fill" to="#808080" begin="arrowRight.mouseover" end="arrowRight.mouseout"/>
                  </use>
                  <path fill="none" stroke="white" stroke-width="1.5" d="M0,-3.0v7 M-2.5,-0.5L0,-3.0L2.5,-0.5"/>
                </g>
                <g id="arrowDown" xlink:href="#dirArrow" transform="rotate(180) translate(-30 -48)" onmousedown="handlePan(0,1)">
                  <use xlink:href="#rim" fill="#404040">
                        <set attributeName="fill" to="#808080" begin="arrowDown.mouseover" end="arrowDown.mouseout"/>
                  </use>
                  <path fill="none" stroke="white" stroke-width="1.5" d="M0,-3.0v7 M-2.5,-0.5L0,-3.0L2.5,-0.5"/>
                </g>
                <g id="arrowLeft" xlink:href="#dirArrow" transform="rotate(270) translate(-36 17)" onmousedown="handlePan(-1,0)">
                  <use xlink:href="#rim" fill="#404040">
                        <set attributeName="fill" to="#808080" begin="arrowLeft.mouseover" end="arrowLeft.mouseout"/>
                  </use>
                  <path fill="none" stroke="white" stroke-width="1.5" d="M0,-3.0v7 M-2.5,-0.5L0,-3.0L2.5,-0.5"/>
                </g>
        </g>
        <svg viewBox="0 0 15 15" width="100%" height="30px" preserveAspectRatio="xMaxYMin meet">
         <g id="arrow_out" transform="scale(0.3 0.3)">
          <a xlink:href="classlime_1_1LMS7002M_acdbdf345c5572af70c7f739aeefe3da4_icgraph_org.svg" target="_base">
           <rect id="button" ry="5" rx="5" y="6" x="6" height="38" width="38"
                fill="#f2f5e9" fill-opacity="0.5" stroke="#606060" stroke-width="1.0"/>
           <path id="arrow"
             d="M 11.500037,31.436501 C 11.940474,20.09759 22.043105,11.32322 32.158766,21.979434 L 37.068811,17.246167 C 37.068811,17.246167 37.088388,32 37.088388,32 L 22.160133,31.978069 C 22.160133,31.978069 26.997745,27.140456 26.997745,27.140456 C 18.528582,18.264221 13.291696,25.230495 11.500037,31.436501 z"
             style="fill:#404040;"/>
          </a>
         </g>
        </svg>
</svg>
