<?xml version="1.0" encoding="UTF-8" standalone="no"?>
<!DOCTYPE svg PUBLIC "-//W3C//DTD SVG 1.1//EN"
 "http://www.w3.org/Graphics/SVG/1.1/DTD/svg11.dtd">
<!-- Generated by graphviz version 2.38.0 (20140413.2041)
 -->
<!-- Title: lime::LMS7002M::RegistersTestInterval Pages: 1 -->
<svg width="557pt" height="264pt"
 viewBox="0.00 0.00 557.00 263.50" xmlns="http://www.w3.org/2000/svg" xmlns:xlink="http://www.w3.org/1999/xlink">
<g id="graph0" class="graph" transform="scale(1 1) rotate(0) translate(4 259.5)">
<title>lime::LMS7002M::RegistersTestInterval</title>
<polygon fill="white" stroke="none" points="-4,4 -4,-259.5 553,-259.5 553,4 -4,4"/>
<!-- Node1 -->
<g id="node1" class="node"><title>Node1</title>
<polygon fill="#bfbfbf" stroke="black" points="0,-142.5 0,-172.5 138,-172.5 138,-142.5 0,-142.5"/>
<text text-anchor="start" x="8" y="-160.5" font-family="Helvetica,sans-Serif" font-size="10.00">lime::LMS7002M::Registers</text>
<text text-anchor="middle" x="69" y="-149.5" font-family="Helvetica,sans-Serif" font-size="10.00">TestInterval</text>
</g>
<!-- Node2 -->
<g id="node2" class="node"><title>Node2</title>
<g id="a_node2"><a xlink:href="../../d5/d6c/namespacelime.html#adc6af0cf8e0a70f3ef09fac1244f8c48" target="_top" xlink:title="lime::ReportError">
<polygon fill="white" stroke="black" points="185,-214 185,-233 276,-233 276,-214 185,-214"/>
<text text-anchor="middle" x="230.5" y="-221" font-family="Helvetica,sans-Serif" font-size="10.00">lime::ReportError</text>
</a>
</g>
</g>
<!-- Node1&#45;&gt;Node2 -->
<g id="edge1" class="edge"><title>Node1&#45;&gt;Node2</title>
<path fill="none" stroke="midnightblue" d="M106.593,-172.642C133.831,-183.913 170.683,-199.162 196.912,-210.015"/>
<polygon fill="midnightblue" stroke="midnightblue" points="195.823,-213.353 206.402,-213.942 198.5,-206.885 195.823,-213.353"/>
</g>
<!-- Node4 -->
<g id="node4" class="node"><title>Node4</title>
<g id="a_node4"><a xlink:href="../../db/d1d/classlime_1_1LMS7002M.html#a61f634f3d5f245993d78f16921d57cac" target="_top" xlink:title="Batches multiple register reads into least amount of transactions. ">
<polygon fill="white" stroke="black" points="174,-93.5 174,-123.5 287,-123.5 287,-93.5 174,-93.5"/>
<text text-anchor="start" x="182" y="-111.5" font-family="Helvetica,sans-Serif" font-size="10.00">lime::LMS7002M::SPI</text>
<text text-anchor="middle" x="230.5" y="-100.5" font-family="Helvetica,sans-Serif" font-size="10.00">_read_batch</text>
</a>
</g>
</g>
<!-- Node1&#45;&gt;Node4 -->
<g id="edge3" class="edge"><title>Node1&#45;&gt;Node4</title>
<path fill="none" stroke="midnightblue" d="M119.157,-142.399C135.455,-137.392 153.762,-131.768 170.71,-126.561"/>
<polygon fill="midnightblue" stroke="midnightblue" points="171.974,-129.834 180.506,-123.552 169.919,-123.143 171.974,-129.834"/>
</g>
<!-- Node10 -->
<g id="node10" class="node"><title>Node10</title>
<g id="a_node10"><a xlink:href="../../db/d1d/classlime_1_1LMS7002M.html#a331f2caeff8d5777c9780dba6f5a42e8" target="_top" xlink:title="Batches multiple register writes into least amount of transactions. ">
<polygon fill="white" stroke="black" points="174,-142.5 174,-172.5 287,-172.5 287,-142.5 174,-142.5"/>
<text text-anchor="start" x="182" y="-160.5" font-family="Helvetica,sans-Serif" font-size="10.00">lime::LMS7002M::SPI</text>
<text text-anchor="middle" x="230.5" y="-149.5" font-family="Helvetica,sans-Serif" font-size="10.00">_write_batch</text>
</a>
</g>
</g>
<!-- Node1&#45;&gt;Node10 -->
<g id="edge9" class="edge"><title>Node1&#45;&gt;Node10</title>
<path fill="none" stroke="midnightblue" d="M138.105,-157.5C146.532,-157.5 155.137,-157.5 163.532,-157.5"/>
<polygon fill="midnightblue" stroke="midnightblue" points="163.641,-161 173.641,-157.5 163.641,-154 163.641,-161"/>
</g>
<!-- Node3 -->
<g id="node3" class="node"><title>Node3</title>
<g id="a_node3"><a xlink:href="../../d9/df5/Logger_8cpp.html#ada38bf01d6d691de953ed69268ea6516" target="_top" xlink:title="errToStr">
<polygon fill="white" stroke="black" points="365.5,-236 365.5,-255 417.5,-255 417.5,-236 365.5,-236"/>
<text text-anchor="middle" x="391.5" y="-243" font-family="Helvetica,sans-Serif" font-size="10.00">errToStr</text>
</a>
</g>
</g>
<!-- Node2&#45;&gt;Node3 -->
<g id="edge2" class="edge"><title>Node2&#45;&gt;Node3</title>
<path fill="none" stroke="midnightblue" d="M276.213,-229.687C301.225,-233.147 331.957,-237.4 355.252,-240.623"/>
<polygon fill="midnightblue" stroke="midnightblue" points="354.999,-244.121 365.384,-242.025 355.958,-237.187 354.999,-244.121"/>
</g>
<!-- Node5 -->
<g id="node5" class="node"><title>Node5</title>
<g id="a_node5"><a xlink:href="../../d5/d6c/namespacelime.html#ae9d8b86234e3827271197852facdc649" target="_top" xlink:title="Log an error message with formatting. ">
<polygon fill="white" stroke="black" points="361.5,-148 361.5,-167 421.5,-167 421.5,-148 361.5,-148"/>
<text text-anchor="middle" x="391.5" y="-155" font-family="Helvetica,sans-Serif" font-size="10.00">lime::error</text>
</a>
</g>
</g>
<!-- Node4&#45;&gt;Node5 -->
<g id="edge4" class="edge"><title>Node4&#45;&gt;Node5</title>
<path fill="none" stroke="midnightblue" d="M278.466,-123.572C292.749,-128.106 308.502,-133.055 323,-137.5 332.182,-140.315 342.087,-143.286 351.406,-146.053"/>
<polygon fill="midnightblue" stroke="midnightblue" points="350.644,-149.477 361.226,-148.957 352.629,-142.765 350.644,-149.477"/>
</g>
<!-- Node7 -->
<g id="node7" class="node"><title>Node7</title>
<g id="a_node7"><a xlink:href="../../d2/de5/classlime_1_1IConnection.html#a19573cf864645415907886dd71f8d020" target="_top" xlink:title="lime::IConnection::\lReadLMS7002MSPI">
<polygon fill="white" stroke="black" points="338.5,-0.5 338.5,-30.5 444.5,-30.5 444.5,-0.5 338.5,-0.5"/>
<text text-anchor="start" x="346.5" y="-18.5" font-family="Helvetica,sans-Serif" font-size="10.00">lime::IConnection::</text>
<text text-anchor="middle" x="391.5" y="-7.5" font-family="Helvetica,sans-Serif" font-size="10.00">ReadLMS7002MSPI</text>
</a>
</g>
</g>
<!-- Node4&#45;&gt;Node7 -->
<g id="edge6" class="edge"><title>Node4&#45;&gt;Node7</title>
<path fill="none" stroke="midnightblue" d="M248.297,-93.3194C265.876,-78.0608 294.795,-54.6845 323,-39.5 326.258,-37.746 329.67,-36.0756 333.157,-34.4929"/>
<polygon fill="midnightblue" stroke="midnightblue" points="334.677,-37.6499 342.506,-30.5116 331.934,-31.2096 334.677,-37.6499"/>
</g>
<!-- Node8 -->
<g id="node8" class="node"><title>Node8</title>
<g id="a_node8"><a xlink:href="../../da/de5/classlime_1_1LMS7002M__RegistersMap.html#af728e4d3d45fc8d2a32d6112c77d60b0" target="_top" xlink:title="lime::LMS7002M_Registers\lMap::GetValue">
<polygon fill="white" stroke="black" points="323,-98.5 323,-128.5 460,-128.5 460,-98.5 323,-98.5"/>
<text text-anchor="start" x="331" y="-116.5" font-family="Helvetica,sans-Serif" font-size="10.00">lime::LMS7002M_Registers</text>
<text text-anchor="middle" x="391.5" y="-105.5" font-family="Helvetica,sans-Serif" font-size="10.00">Map::GetValue</text>
</a>
</g>
</g>
<!-- Node4&#45;&gt;Node8 -->
<g id="edge7" class="edge"><title>Node4&#45;&gt;Node8</title>
<path fill="none" stroke="midnightblue" d="M287.11,-110.249C295.414,-110.51 304.1,-110.783 312.759,-111.055"/>
<polygon fill="midnightblue" stroke="midnightblue" points="312.781,-114.558 322.886,-111.374 313.001,-107.561 312.781,-114.558"/>
</g>
<!-- Node9 -->
<g id="node9" class="node"><title>Node9</title>
<g id="a_node9"><a xlink:href="../../da/de5/classlime_1_1LMS7002M__RegistersMap.html#a97f5d0ffbaa6c0e67f2ccccb9475a540" target="_top" xlink:title="lime::LMS7002M_Registers\lMap::SetValue">
<polygon fill="white" stroke="black" points="323,-49.5 323,-79.5 460,-79.5 460,-49.5 323,-49.5"/>
<text text-anchor="start" x="331" y="-67.5" font-family="Helvetica,sans-Serif" font-size="10.00">lime::LMS7002M_Registers</text>
<text text-anchor="middle" x="391.5" y="-56.5" font-family="Helvetica,sans-Serif" font-size="10.00">Map::SetValue</text>
</a>
</g>
</g>
<!-- Node4&#45;&gt;Node9 -->
<g id="edge8" class="edge"><title>Node4&#45;&gt;Node9</title>
<path fill="none" stroke="midnightblue" d="M285.774,-93.4808C298.877,-89.8548 313,-85.9466 326.502,-82.2101"/>
<polygon fill="midnightblue" stroke="midnightblue" points="327.496,-85.5666 336.201,-79.5262 325.629,-78.8201 327.496,-85.5666"/>
</g>
<!-- Node6 -->
<g id="node6" class="node"><title>Node6</title>
<g id="a_node6"><a xlink:href="../../d5/d6c/namespacelime.html#abec841ac666fc9321a10e1881cff2da0" target="_top" xlink:title="Log a message with formatting and specified logging level. ">
<polygon fill="white" stroke="black" points="496,-148 496,-167 549,-167 549,-148 496,-148"/>
<text text-anchor="middle" x="522.5" y="-155" font-family="Helvetica,sans-Serif" font-size="10.00">lime::log</text>
</a>
</g>
</g>
<!-- Node5&#45;&gt;Node6 -->
<g id="edge5" class="edge"><title>Node5&#45;&gt;Node6</title>
<path fill="none" stroke="midnightblue" d="M421.772,-157.5C440.763,-157.5 465.631,-157.5 485.783,-157.5"/>
<polygon fill="midnightblue" stroke="midnightblue" points="485.835,-161 495.835,-157.5 485.835,-154 485.835,-161"/>
</g>
<!-- Node10&#45;&gt;Node5 -->
<g id="edge12" class="edge"><title>Node10&#45;&gt;Node5</title>
<path fill="none" stroke="midnightblue" d="M287.11,-157.5C308.267,-157.5 331.913,-157.5 351.245,-157.5"/>
<polygon fill="midnightblue" stroke="midnightblue" points="351.499,-161 361.499,-157.5 351.499,-154 351.499,-161"/>
</g>
<!-- Node10&#45;&gt;Node8 -->
<g id="edge10" class="edge"><title>Node10&#45;&gt;Node8</title>
<path fill="none" stroke="midnightblue" d="M285.774,-142.481C298.877,-138.855 313,-134.947 326.502,-131.21"/>
<polygon fill="midnightblue" stroke="midnightblue" points="327.496,-134.567 336.201,-128.526 325.629,-127.82 327.496,-134.567"/>
</g>
<!-- Node10&#45;&gt;Node9 -->
<g id="edge11" class="edge"><title>Node10&#45;&gt;Node9</title>
<path fill="none" stroke="midnightblue" d="M271.015,-142.462C276.627,-139.552 282.136,-136.23 287,-132.5 307.051,-117.125 302.338,-103.044 323,-88.5 325.091,-87.0279 327.282,-85.6375 329.543,-84.3251"/>
<polygon fill="midnightblue" stroke="midnightblue" points="331.291,-87.3611 338.548,-79.6422 328.061,-81.1506 331.291,-87.3611"/>
</g>
<!-- Node11 -->
<g id="node11" class="node"><title>Node11</title>
<g id="a_node11"><a xlink:href="../../d2/de5/classlime_1_1IConnection.html#ad2f9f69f344e4c9acea10392f7fb500d" target="_top" xlink:title="lime::IConnection::\lWriteLMS7002MSPI">
<polygon fill="white" stroke="black" points="338.5,-186.5 338.5,-216.5 444.5,-216.5 444.5,-186.5 338.5,-186.5"/>
<text text-anchor="start" x="346.5" y="-204.5" font-family="Helvetica,sans-Serif" font-size="10.00">lime::IConnection::</text>
<text text-anchor="middle" x="391.5" y="-193.5" font-family="Helvetica,sans-Serif" font-size="10.00">WriteLMS7002MSPI</text>
</a>
</g>
</g>
<!-- Node10&#45;&gt;Node11 -->
<g id="edge13" class="edge"><title>Node10&#45;&gt;Node11</title>
<path fill="none" stroke="midnightblue" d="M285.774,-172.519C299.589,-176.342 314.538,-180.479 328.697,-184.397"/>
<polygon fill="midnightblue" stroke="midnightblue" points="327.779,-187.775 338.351,-187.069 329.646,-181.028 327.779,-187.775"/>
</g>
</g>
</svg>
