<?xml version="1.0" encoding="UTF-8" standalone="no"?>
<!DOCTYPE svg PUBLIC "-//W3C//DTD SVG 1.1//EN"
 "http://www.w3.org/Graphics/SVG/1.1/DTD/svg11.dtd">
<!-- Generated by graphviz version 2.38.0 (20140413.2041)
 -->
<!-- Title: lime::LMS7002M::SetRFELNA_dB Pages: 1 -->
<svg width="337pt" height="39pt"
 viewBox="0.00 0.00 337.00 39.00" xmlns="http://www.w3.org/2000/svg" xmlns:xlink="http://www.w3.org/1999/xlink">
<g id="graph0" class="graph" transform="scale(1 1) rotate(0) translate(4 35)">
<title>lime::LMS7002M::SetRFELNA_dB</title>
<polygon fill="white" stroke="none" points="-4,4 -4,-35 333,-35 333,4 -4,4"/>
<!-- Node1 -->
<g id="node1" class="node"><title>Node1</title>
<polygon fill="#bfbfbf" stroke="black" points="-2.84217e-14,-6 -2.84217e-14,-25 168,-25 168,-6 -2.84217e-14,-6"/>
<text text-anchor="middle" x="84" y="-13" font-family="Helvetica,sans-Serif" font-size="10.00">lime::LMS7002M::SetRFELNA_dB</text>
</g>
<!-- Node2 -->
<g id="node2" class="node"><title>Node2</title>
<g id="a_node2"><a xlink:href="../../db/d1d/classlime_1_1LMS7002M.html#afaf3843f7acef055ebbe0c0576ec8fee" target="_top" xlink:title="Change given parameter value. ">
<polygon fill="white" stroke="black" points="204,-0.5 204,-30.5 329,-30.5 329,-0.5 204,-0.5"/>
<text text-anchor="start" x="212" y="-18.5" font-family="Helvetica,sans-Serif" font-size="10.00">lime::LMS7002M::Modify</text>
<text text-anchor="middle" x="266.5" y="-7.5" font-family="Helvetica,sans-Serif" font-size="10.00">_SPI_Reg_bits</text>
</a>
</g>
</g>
<!-- Node1&#45;&gt;Node2 -->
<g id="edge1" class="edge"><title>Node1&#45;&gt;Node2</title>
<path fill="none" stroke="midnightblue" d="M168.118,-15.5C176.669,-15.5 185.306,-15.5 193.72,-15.5"/>
<polygon fill="midnightblue" stroke="midnightblue" points="193.851,-19.0001 203.851,-15.5 193.85,-12.0001 193.851,-19.0001"/>
</g>
</g>
</svg>
