<?xml version="1.0" encoding="UTF-8" standalone="no"?>
<!DOCTYPE svg PUBLIC "-//W3C//DTD SVG 1.1//EN"
 "http://www.w3.org/Graphics/SVG/1.1/DTD/svg11.dtd">
<!-- Generated by graphviz version 2.38.0 (20140413.2041)
 -->
<!-- Title: lime::LMS7002M::GetParam Pages: 1 -->
<svg width="292pt" height="88pt"
 viewBox="0.00 0.00 292.00 88.00" xmlns="http://www.w3.org/2000/svg" xmlns:xlink="http://www.w3.org/1999/xlink">
<g id="graph0" class="graph" transform="scale(1 1) rotate(0) translate(4 84)">
<title>lime::LMS7002M::GetParam</title>
<polygon fill="white" stroke="none" points="-4,4 -4,-84 288,-84 288,4 -4,4"/>
<!-- Node1 -->
<g id="node1" class="node"><title>Node1</title>
<polygon fill="#bfbfbf" stroke="black" points="0,-30 0,-49 140,-49 140,-30 0,-30"/>
<text text-anchor="middle" x="70" y="-37" font-family="Helvetica,sans-Serif" font-size="10.00">lime::LMS7002M::GetParam</text>
</g>
<!-- Node2 -->
<g id="node2" class="node"><title>Node2</title>
<g id="a_node2"><a xlink:href="../../d3/d22/classlime_1_1LMS7__Device.html#ae18eebfaef70f6e0048556eb8e8b1a6b" target="_top" xlink:title="lime::LMS7_Device::\lReadParam">
<polygon fill="white" stroke="black" points="176,-49.5 176,-79.5 284,-79.5 284,-49.5 176,-49.5"/>
<text text-anchor="start" x="184" y="-67.5" font-family="Helvetica,sans-Serif" font-size="10.00">lime::LMS7_Device::</text>
<text text-anchor="middle" x="230" y="-56.5" font-family="Helvetica,sans-Serif" font-size="10.00">ReadParam</text>
</a>
</g>
</g>
<!-- Node1&#45;&gt;Node2 -->
<g id="edge1" class="edge"><title>Node1&#45;&gt;Node2</title>
<path fill="none" stroke="midnightblue" d="M141.318,-50.6263C152.954,-52.4675 164.845,-54.3489 175.963,-56.1081"/>
<polygon fill="midnightblue" stroke="midnightblue" points="141.608,-47.1287 131.184,-49.0227 140.514,-54.0427 141.608,-47.1287"/>
</g>
<!-- Node3 -->
<g id="node3" class="node"><title>Node3</title>
<g id="a_node3"><a xlink:href="../../d3/d22/classlime_1_1LMS7__Device.html#a638b87e681c6f4b6331e04551e916b99" target="_top" xlink:title="lime::LMS7_Device::\lWriteParam">
<polygon fill="white" stroke="black" points="176,-0.5 176,-30.5 284,-30.5 284,-0.5 176,-0.5"/>
<text text-anchor="start" x="184" y="-18.5" font-family="Helvetica,sans-Serif" font-size="10.00">lime::LMS7_Device::</text>
<text text-anchor="middle" x="230" y="-7.5" font-family="Helvetica,sans-Serif" font-size="10.00">WriteParam</text>
</a>
</g>
</g>
<!-- Node1&#45;&gt;Node3 -->
<g id="edge2" class="edge"><title>Node1&#45;&gt;Node3</title>
<path fill="none" stroke="midnightblue" d="M143.794,-28.4427C154.641,-26.7951 165.645,-25.1235 175.981,-23.5535"/>
<polygon fill="midnightblue" stroke="midnightblue" points="143.261,-24.9835 133.9,-29.9456 144.312,-31.9041 143.261,-24.9835"/>
</g>
</g>
</svg>
