<?xml version="1.0" encoding="UTF-8" standalone="no"?>
<!DOCTYPE svg PUBLIC "-//W3C//DTD SVG 1.1//EN"
 "http://www.w3.org/Graphics/SVG/1.1/DTD/svg11.dtd">
<!-- Generated by graphviz version 2.38.0 (20140413.2041)
 -->
<!-- Title: lime::LMS7002M::GetTRFLoopbackPAD_dB Pages: 1 -->
<svg width="800pt" height="104pt"
 viewBox="0.00 0.00 800.00 104.00" xmlns="http://www.w3.org/2000/svg" xmlns:xlink="http://www.w3.org/1999/xlink">
<g id="graph0" class="graph" transform="scale(1 1) rotate(0) translate(4 100)">
<title>lime::LMS7002M::GetTRFLoopbackPAD_dB</title>
<polygon fill="white" stroke="none" points="-4,4 -4,-100 796,-100 796,4 -4,4"/>
<!-- Node1 -->
<g id="node1" class="node"><title>Node1</title>
<polygon fill="#bfbfbf" stroke="black" points="0,-33 0,-63 173,-63 173,-33 0,-33"/>
<text text-anchor="start" x="8" y="-51" font-family="Helvetica,sans-Serif" font-size="10.00">lime::LMS7002M::GetTRFLoopback</text>
<text text-anchor="middle" x="86.5" y="-40" font-family="Helvetica,sans-Serif" font-size="10.00">PAD_dB</text>
</g>
<!-- Node2 -->
<g id="node2" class="node"><title>Node2</title>
<g id="a_node2"><a xlink:href="../../d3/d22/classlime_1_1LMS7__Device.html#a88c6a8b6a14b1e4151c34d2559c4e08c" target="_top" xlink:title="lime::LMS7_Device::\lGetGain">
<polygon fill="white" stroke="black" points="209,-33 209,-63 317,-63 317,-33 209,-33"/>
<text text-anchor="start" x="217" y="-51" font-family="Helvetica,sans-Serif" font-size="10.00">lime::LMS7_Device::</text>
<text text-anchor="middle" x="263" y="-40" font-family="Helvetica,sans-Serif" font-size="10.00">GetGain</text>
</a>
</g>
</g>
<!-- Node1&#45;&gt;Node2 -->
<g id="edge1" class="edge"><title>Node1&#45;&gt;Node2</title>
<path fill="none" stroke="midnightblue" d="M183.387,-48C192.023,-48 200.545,-48 208.611,-48"/>
<polygon fill="midnightblue" stroke="midnightblue" points="183.216,-44.5001 173.216,-48 183.216,-51.5001 183.216,-44.5001"/>
</g>
<!-- Node3 -->
<g id="node3" class="node"><title>Node3</title>
<g id="a_node3"><a xlink:href="../../d9/d90/classSoapyLMS7.html#ac32ddc0e99489455a4682d18c82eb802" target="_top" xlink:title="SoapyLMS7::getGain">
<polygon fill="white" stroke="black" points="362,-76.5 362,-95.5 472,-95.5 472,-76.5 362,-76.5"/>
<text text-anchor="middle" x="417" y="-83.5" font-family="Helvetica,sans-Serif" font-size="10.00">SoapyLMS7::getGain</text>
</a>
</g>
</g>
<!-- Node2&#45;&gt;Node3 -->
<g id="edge2" class="edge"><title>Node2&#45;&gt;Node3</title>
<path fill="none" stroke="midnightblue" d="M327.183,-63.7957C344.427,-68.1067 362.577,-72.6444 377.944,-76.4861"/>
<polygon fill="midnightblue" stroke="midnightblue" points="327.713,-60.3205 317.162,-61.2906 326.015,-67.1115 327.713,-60.3205"/>
</g>
<!-- Node6 -->
<g id="node6" class="node"><title>Node6</title>
<g id="a_node6"><a xlink:href="../../df/de1/lms7__api_8cpp.html#a8f560ebdc5a13f2337926acbe13a4120" target="_top" xlink:title="LMS_GetNormalizedGain">
<polygon fill="white" stroke="black" points="353,-38.5 353,-57.5 481,-57.5 481,-38.5 353,-38.5"/>
<text text-anchor="middle" x="417" y="-45.5" font-family="Helvetica,sans-Serif" font-size="10.00">LMS_GetNormalizedGain</text>
</a>
</g>
</g>
<!-- Node2&#45;&gt;Node6 -->
<g id="edge5" class="edge"><title>Node2&#45;&gt;Node6</title>
<path fill="none" stroke="midnightblue" d="M327.35,-48C335.814,-48 344.493,-48 352.952,-48"/>
<polygon fill="midnightblue" stroke="midnightblue" points="327.162,-44.5001 317.162,-48 327.162,-51.5001 327.162,-44.5001"/>
</g>
<!-- Node8 -->
<g id="node8" class="node"><title>Node8</title>
<g id="a_node8"><a xlink:href="../../df/de1/lms7__api_8cpp.html#a234cd6b4e32973d627ae369c353bbd56" target="_top" xlink:title="LMS_GetGaindB">
<polygon fill="white" stroke="black" points="372,-0.5 372,-19.5 462,-19.5 462,-0.5 372,-0.5"/>
<text text-anchor="middle" x="417" y="-7.5" font-family="Helvetica,sans-Serif" font-size="10.00">LMS_GetGaindB</text>
</a>
</g>
</g>
<!-- Node2&#45;&gt;Node8 -->
<g id="edge7" class="edge"><title>Node2&#45;&gt;Node8</title>
<path fill="none" stroke="midnightblue" d="M327.183,-32.2043C344.427,-27.8933 362.577,-23.3556 377.944,-19.5139"/>
<polygon fill="midnightblue" stroke="midnightblue" points="326.015,-28.8885 317.162,-34.7094 327.713,-35.6795 326.015,-28.8885"/>
</g>
<!-- Node4 -->
<g id="node4" class="node"><title>Node4</title>
<g id="a_node4"><a xlink:href="../../d9/d90/classSoapyLMS7.html#ac7dee88fdc416b8852dd53f39edeb81d" target="_top" xlink:title="SoapyLMS7::setGain">
<polygon fill="white" stroke="black" points="517,-76.5 517,-95.5 627,-95.5 627,-76.5 517,-76.5"/>
<text text-anchor="middle" x="572" y="-83.5" font-family="Helvetica,sans-Serif" font-size="10.00">SoapyLMS7::setGain</text>
</a>
</g>
</g>
<!-- Node3&#45;&gt;Node4 -->
<g id="edge3" class="edge"><title>Node3&#45;&gt;Node4</title>
<path fill="none" stroke="midnightblue" d="M482.679,-86C494.042,-86 505.762,-86 516.802,-86"/>
<polygon fill="midnightblue" stroke="midnightblue" points="482.373,-82.5001 472.373,-86 482.373,-89.5001 482.373,-82.5001"/>
</g>
<!-- Node5 -->
<g id="node5" class="node"><title>Node5</title>
<g id="a_node5"><a xlink:href="../../d9/d90/classSoapyLMS7.html#a1c9bb20e7fe357b53f4d44e7ca72ef25" target="_top" xlink:title="SoapyLMS7::SoapyLMS7">
<polygon fill="white" stroke="black" points="663,-76.5 663,-95.5 792,-95.5 792,-76.5 663,-76.5"/>
<text text-anchor="middle" x="727.5" y="-83.5" font-family="Helvetica,sans-Serif" font-size="10.00">SoapyLMS7::SoapyLMS7</text>
</a>
</g>
</g>
<!-- Node4&#45;&gt;Node5 -->
<g id="edge4" class="edge"><title>Node4&#45;&gt;Node5</title>
<path fill="none" stroke="midnightblue" d="M637.309,-86C645.771,-86 654.44,-86 662.89,-86"/>
<polygon fill="midnightblue" stroke="midnightblue" points="637.118,-82.5001 627.118,-86 637.118,-89.5001 637.118,-82.5001"/>
</g>
<!-- Node7 -->
<g id="node7" class="node"><title>Node7</title>
<g id="a_node7"><a xlink:href="../../d1/d1f/singleRX_8cpp.html#a3c04138a5bfe5d72780bb7e82a18e627" target="_top" xlink:title="main">
<polygon fill="white" stroke="black" points="553,-19.5 553,-38.5 591,-38.5 591,-19.5 553,-19.5"/>
<text text-anchor="middle" x="572" y="-26.5" font-family="Helvetica,sans-Serif" font-size="10.00">main</text>
</a>
</g>
</g>
<!-- Node6&#45;&gt;Node7 -->
<g id="edge6" class="edge"><title>Node6&#45;&gt;Node7</title>
<path fill="none" stroke="midnightblue" d="M491.188,-38.9112C513.998,-36.0787 537.201,-33.1972 552.666,-31.2768"/>
<polygon fill="midnightblue" stroke="midnightblue" points="490.607,-35.4565 481.114,-40.1623 491.469,-42.4031 490.607,-35.4565"/>
</g>
<!-- Node8&#45;&gt;Node7 -->
<g id="edge8" class="edge"><title>Node8&#45;&gt;Node7</title>
<path fill="none" stroke="midnightblue" d="M472.42,-16.7581C500.639,-20.2624 533.242,-24.3111 552.978,-26.762"/>
<polygon fill="midnightblue" stroke="midnightblue" points="472.609,-13.2547 462.254,-15.4956 471.746,-20.2014 472.609,-13.2547"/>
</g>
</g>
</svg>
