<?xml version="1.0" encoding="UTF-8" standalone="no"?>
<!DOCTYPE svg PUBLIC "-//W3C//DTD SVG 1.1//EN"
 "http://www.w3.org/Graphics/SVG/1.1/DTD/svg11.dtd">
<!-- Generated by graphviz version 2.38.0 (20140413.2041)
 -->
<!-- Title: lime::LMS7002M::Modify_SPI_Reg_bits Pages: 1 -->
<svg width="1096pt" height="329pt"
 viewBox="0.00 0.00 1096.00 329.21" xmlns="http://www.w3.org/2000/svg" xmlns:xlink="http://www.w3.org/1999/xlink">
<g id="graph0" class="graph" transform="scale(1 1) rotate(0) translate(4 325.213)">
<title>lime::LMS7002M::Modify_SPI_Reg_bits</title>
<polygon fill="white" stroke="none" points="-4,4 -4,-325.213 1092,-325.213 1092,4 -4,4"/>
<!-- Node1 -->
<g id="node1" class="node"><title>Node1</title>
<polygon fill="#bfbfbf" stroke="black" points="0,-176.5 0,-206.5 125,-206.5 125,-176.5 0,-176.5"/>
<text text-anchor="start" x="8" y="-194.5" font-family="Helvetica,sans-Serif" font-size="10.00">lime::LMS7002M::Modify</text>
<text text-anchor="middle" x="62.5" y="-183.5" font-family="Helvetica,sans-Serif" font-size="10.00">_SPI_Reg_bits</text>
</g>
<!-- Node2 -->
<g id="node2" class="node"><title>Node2</title>
<g id="a_node2"><a xlink:href="../../db/d1d/classlime_1_1LMS7002M.html#ab7ec3bb576c6970023b22e02f70df5e0" target="_top" xlink:title="Reads whole register value from given address. ">
<polygon fill="white" stroke="black" points="161,-162 161,-181 298,-181 298,-162 161,-162"/>
<text text-anchor="middle" x="229.5" y="-169" font-family="Helvetica,sans-Serif" font-size="10.00">lime::LMS7002M::SPI_read</text>
</a>
</g>
</g>
<!-- Node1&#45;&gt;Node2 -->
<g id="edge1" class="edge"><title>Node1&#45;&gt;Node2</title>
<path fill="none" stroke="midnightblue" d="M125.409,-183.996C133.756,-182.984 142.404,-181.936 150.98,-180.896"/>
<polygon fill="midnightblue" stroke="midnightblue" points="151.485,-184.361 160.991,-179.683 150.643,-177.412 151.485,-184.361"/>
</g>
<!-- Node13 -->
<g id="node13" class="node"><title>Node13</title>
<g id="a_node13"><a xlink:href="../../db/d1d/classlime_1_1LMS7002M.html#a8ba94232164ee3fddfdf1a6bd0df3b3c" target="_top" xlink:title="Write given data value to whole register. ">
<polygon fill="white" stroke="black" points="334,-199.5 334,-229.5 447,-229.5 447,-199.5 334,-199.5"/>
<text text-anchor="start" x="342" y="-217.5" font-family="Helvetica,sans-Serif" font-size="10.00">lime::LMS7002M::SPI</text>
<text text-anchor="middle" x="390.5" y="-206.5" font-family="Helvetica,sans-Serif" font-size="10.00">_write</text>
</a>
</g>
</g>
<!-- Node1&#45;&gt;Node13 -->
<g id="edge30" class="edge"><title>Node1&#45;&gt;Node13</title>
<path fill="none" stroke="midnightblue" d="M125.201,-195.853C181.883,-199.852 265.64,-205.761 323.609,-209.851"/>
<polygon fill="midnightblue" stroke="midnightblue" points="323.538,-213.355 333.76,-210.567 324.031,-206.372 323.538,-213.355"/>
</g>
<!-- Node3 -->
<g id="node3" class="node"><title>Node3</title>
<g id="a_node3"><a xlink:href="../../d5/d6c/namespacelime.html#adc6af0cf8e0a70f3ef09fac1244f8c48" target="_top" xlink:title="lime::ReportError">
<polygon fill="white" stroke="black" points="886.5,-287 886.5,-306 977.5,-306 977.5,-287 886.5,-287"/>
<text text-anchor="middle" x="932" y="-294" font-family="Helvetica,sans-Serif" font-size="10.00">lime::ReportError</text>
</a>
</g>
</g>
<!-- Node2&#45;&gt;Node3 -->
<g id="edge2" class="edge"><title>Node2&#45;&gt;Node3</title>
<path fill="none" stroke="midnightblue" d="M237.77,-181.196C253.074,-200.763 290.787,-244.71 334,-263.5 519.13,-343.999 767.515,-321.237 876.209,-305.646"/>
<polygon fill="midnightblue" stroke="midnightblue" points="876.901,-309.082 886.285,-304.164 875.882,-302.157 876.901,-309.082"/>
</g>
<!-- Node5 -->
<g id="node5" class="node"><title>Node5</title>
<g id="a_node5"><a xlink:href="../../da/de5/classlime_1_1LMS7002M__RegistersMap.html#af728e4d3d45fc8d2a32d6112c77d60b0" target="_top" xlink:title="lime::LMS7002M_Registers\lMap::GetValue">
<polygon fill="white" stroke="black" points="691,-49.5 691,-79.5 828,-79.5 828,-49.5 691,-49.5"/>
<text text-anchor="start" x="699" y="-67.5" font-family="Helvetica,sans-Serif" font-size="10.00">lime::LMS7002M_Registers</text>
<text text-anchor="middle" x="759.5" y="-56.5" font-family="Helvetica,sans-Serif" font-size="10.00">Map::GetValue</text>
</a>
</g>
</g>
<!-- Node2&#45;&gt;Node5 -->
<g id="edge4" class="edge"><title>Node2&#45;&gt;Node5</title>
<path fill="none" stroke="midnightblue" d="M238.614,-161.736C254.859,-142.765 293.323,-100.673 334,-76.5 394.171,-40.7424 413.955,-36.9892 483,-25.5 558.408,-12.952 579.866,-11.4048 655,-25.5 671.873,-28.6654 674.95,-33.4075 691,-39.5 696.464,-41.574 702.184,-43.7246 707.884,-45.8545"/>
<polygon fill="midnightblue" stroke="midnightblue" points="706.818,-49.1921 717.41,-49.4023 709.261,-42.6323 706.818,-49.1921"/>
</g>
<!-- Node6 -->
<g id="node6" class="node"><title>Node6</title>
<g id="a_node6"><a xlink:href="../../db/d1d/classlime_1_1LMS7002M.html#a925943ddbeff30698959d3f4d75ab52c" target="_top" xlink:title="lime::LMS7002M::GetMCUControls">
<polygon fill="white" stroke="black" points="483,-123 483,-142 655,-142 655,-123 483,-123"/>
<text text-anchor="middle" x="569" y="-130" font-family="Helvetica,sans-Serif" font-size="10.00">lime::LMS7002M::GetMCUControls</text>
</a>
</g>
</g>
<!-- Node2&#45;&gt;Node6 -->
<g id="edge5" class="edge"><title>Node2&#45;&gt;Node6</title>
<path fill="none" stroke="midnightblue" d="M298.392,-163.655C349.222,-157.781 419.336,-149.679 475.322,-143.209"/>
<polygon fill="midnightblue" stroke="midnightblue" points="476.072,-146.646 485.604,-142.021 475.268,-139.692 476.072,-146.646"/>
</g>
<!-- Node7 -->
<g id="node7" class="node"><title>Node7</title>
<g id="a_node7"><a xlink:href="../../d8/d9c/classlime_1_1MCU__BD.html#ac52855dc71d1134c32cdc8b22197f57a" target="_top" xlink:title="Starts algorithm in MCU. ">
<polygon fill="white" stroke="black" points="493,-85 493,-104 645,-104 645,-85 493,-85"/>
<text text-anchor="middle" x="569" y="-92" font-family="Helvetica,sans-Serif" font-size="10.00">lime::MCU_BD::RunProcedure</text>
</a>
</g>
</g>
<!-- Node2&#45;&gt;Node7 -->
<g id="edge6" class="edge"><title>Node2&#45;&gt;Node7</title>
<path fill="none" stroke="midnightblue" d="M263.935,-161.928C284.146,-156.274 310.468,-149.142 334,-143.5 392.849,-129.391 460.568,-115.459 507.964,-106.079"/>
<polygon fill="midnightblue" stroke="midnightblue" points="508.923,-109.457 518.058,-104.089 507.569,-102.589 508.923,-109.457"/>
</g>
<!-- Node8 -->
<g id="node8" class="node"><title>Node8</title>
<g id="a_node8"><a xlink:href="../../d8/d9c/classlime_1_1MCU__BD.html#a493b37b20fd7cc215a8dbcda5e0a49dc" target="_top" xlink:title="Waits for MCU to finish executing program. ">
<polygon fill="white" stroke="black" points="495.5,-249 495.5,-268 642.5,-268 642.5,-249 495.5,-249"/>
<text text-anchor="middle" x="569" y="-256" font-family="Helvetica,sans-Serif" font-size="10.00">lime::MCU_BD::WaitForMCU</text>
</a>
</g>
</g>
<!-- Node2&#45;&gt;Node8 -->
<g id="edge7" class="edge"><title>Node2&#45;&gt;Node8</title>
<path fill="none" stroke="midnightblue" d="M241.322,-181.142C259.168,-196.395 296.536,-225.672 334,-238.5 382.414,-255.077 439.601,-260.207 485.322,-261.129"/>
<polygon fill="midnightblue" stroke="midnightblue" points="485.443,-264.631 495.49,-261.27 485.539,-257.632 485.443,-264.631"/>
</g>
<!-- Node12 -->
<g id="node12" class="node"><title>Node12</title>
<g id="a_node12"><a xlink:href="../../d8/d9c/classlime_1_1MCU__BD.html#a725c7209bf1f88302539353da14f1fcc" target="_top" xlink:title="Upload program code from memory into MCU. ">
<polygon fill="white" stroke="black" points="491.5,-161 491.5,-180 646.5,-180 646.5,-161 491.5,-161"/>
<text text-anchor="middle" x="569" y="-168" font-family="Helvetica,sans-Serif" font-size="10.00">lime::MCU_BD::Program_MCU</text>
</a>
</g>
</g>
<!-- Node2&#45;&gt;Node12 -->
<g id="edge12" class="edge"><title>Node2&#45;&gt;Node12</title>
<path fill="none" stroke="midnightblue" d="M298.392,-171.299C351.053,-171.143 424.412,-170.925 481.315,-170.757"/>
<polygon fill="midnightblue" stroke="midnightblue" points="481.389,-174.257 491.378,-170.727 481.368,-167.257 481.389,-174.257"/>
</g>
<!-- Node2&#45;&gt;Node13 -->
<g id="edge13" class="edge"><title>Node2&#45;&gt;Node13</title>
<path fill="none" stroke="midnightblue" d="M290.158,-181.074C308.426,-185.657 328.188,-191.147 345.238,-196.408"/>
<polygon fill="midnightblue" stroke="midnightblue" points="344.342,-199.795 354.932,-199.469 346.451,-193.12 344.342,-199.795"/>
</g>
<!-- Node18 -->
<g id="node18" class="node"><title>Node18</title>
<g id="a_node18"><a xlink:href="../../db/d1d/classlime_1_1LMS7002M.html#a61f634f3d5f245993d78f16921d57cac" target="_top" xlink:title="Batches multiple register reads into least amount of transactions. ">
<polygon fill="white" stroke="black" points="512.5,-35.5 512.5,-65.5 625.5,-65.5 625.5,-35.5 512.5,-35.5"/>
<text text-anchor="start" x="520.5" y="-53.5" font-family="Helvetica,sans-Serif" font-size="10.00">lime::LMS7002M::SPI</text>
<text text-anchor="middle" x="569" y="-42.5" font-family="Helvetica,sans-Serif" font-size="10.00">_read_batch</text>
</a>
</g>
</g>
<!-- Node2&#45;&gt;Node18 -->
<g id="edge25" class="edge"><title>Node2&#45;&gt;Node18</title>
<path fill="none" stroke="midnightblue" d="M245.748,-161.827C265.479,-149.649 301.222,-128.723 334,-115.5 389.305,-93.189 454.927,-75.6901 502.585,-64.4964"/>
<polygon fill="midnightblue" stroke="midnightblue" points="503.52,-67.8724 512.471,-62.204 501.939,-61.0533 503.52,-67.8724"/>
</g>
<!-- Node4 -->
<g id="node4" class="node"><title>Node4</title>
<g id="a_node4"><a xlink:href="../../d9/df5/Logger_8cpp.html#ada38bf01d6d691de953ed69268ea6516" target="_top" xlink:title="errToStr">
<polygon fill="white" stroke="black" points="1036,-287 1036,-306 1088,-306 1088,-287 1036,-287"/>
<text text-anchor="middle" x="1062" y="-294" font-family="Helvetica,sans-Serif" font-size="10.00">errToStr</text>
</a>
</g>
</g>
<!-- Node3&#45;&gt;Node4 -->
<g id="edge3" class="edge"><title>Node3&#45;&gt;Node4</title>
<path fill="none" stroke="midnightblue" d="M977.768,-296.5C993.431,-296.5 1010.79,-296.5 1025.58,-296.5"/>
<polygon fill="midnightblue" stroke="midnightblue" points="1025.84,-300 1035.84,-296.5 1025.84,-293 1025.84,-300"/>
</g>
<!-- Node9 -->
<g id="node9" class="node"><title>Node9</title>
<g id="a_node9"><a xlink:href="../../d5/d6c/namespacelime.html#ab9de5f0d548dc93d20d3a0173e752fbd" target="_top" xlink:title="Log a debug message with formatting. ">
<polygon fill="white" stroke="black" points="726,-249 726,-268 793,-268 793,-249 726,-249"/>
<text text-anchor="middle" x="759.5" y="-256" font-family="Helvetica,sans-Serif" font-size="10.00">lime::debug</text>
</a>
</g>
</g>
<!-- Node8&#45;&gt;Node9 -->
<g id="edge8" class="edge"><title>Node8&#45;&gt;Node9</title>
<path fill="none" stroke="midnightblue" d="M642.609,-258.5C667.209,-258.5 693.888,-258.5 715.44,-258.5"/>
<polygon fill="midnightblue" stroke="midnightblue" points="715.577,-262 725.577,-258.5 715.577,-255 715.577,-262"/>
</g>
<!-- Node9&#45;&gt;Node3 -->
<g id="edge11" class="edge"><title>Node9&#45;&gt;Node3</title>
<path fill="none" stroke="midnightblue" d="M793.374,-265.827C817.42,-271.186 850.541,-278.568 878.266,-284.747"/>
<polygon fill="midnightblue" stroke="midnightblue" points="877.688,-288.204 888.209,-286.963 879.21,-281.371 877.688,-288.204"/>
</g>
<!-- Node10 -->
<g id="node10" class="node"><title>Node10</title>
<g id="a_node10"><a xlink:href="../../d5/d6c/namespacelime.html#a6e854173a1d66443d7c96d8eabef993b" target="_top" xlink:title="lime::GetLastErrorMessage">
<polygon fill="white" stroke="black" points="864,-249 864,-268 1000,-268 1000,-249 864,-249"/>
<text text-anchor="middle" x="932" y="-256" font-family="Helvetica,sans-Serif" font-size="10.00">lime::GetLastErrorMessage</text>
</a>
</g>
</g>
<!-- Node9&#45;&gt;Node10 -->
<g id="edge9" class="edge"><title>Node9&#45;&gt;Node10</title>
<path fill="none" stroke="midnightblue" d="M793.374,-258.5C810.667,-258.5 832.653,-258.5 853.951,-258.5"/>
<polygon fill="midnightblue" stroke="midnightblue" points="853.996,-262 863.996,-258.5 853.996,-255 853.996,-262"/>
</g>
<!-- Node11 -->
<g id="node11" class="node"><title>Node11</title>
<g id="a_node11"><a xlink:href="../../d5/d6c/namespacelime.html#abec841ac666fc9321a10e1881cff2da0" target="_top" xlink:title="Log a message with formatting and specified logging level. ">
<polygon fill="white" stroke="black" points="905.5,-162 905.5,-181 958.5,-181 958.5,-162 905.5,-162"/>
<text text-anchor="middle" x="932" y="-169" font-family="Helvetica,sans-Serif" font-size="10.00">lime::log</text>
</a>
</g>
</g>
<!-- Node9&#45;&gt;Node11 -->
<g id="edge10" class="edge"><title>Node9&#45;&gt;Node11</title>
<path fill="none" stroke="midnightblue" d="M793.127,-250.881C804.43,-247.71 817.013,-243.57 828,-238.5 858.539,-224.406 890.531,-202.258 910.602,-187.323"/>
<polygon fill="midnightblue" stroke="midnightblue" points="912.816,-190.037 918.685,-181.216 908.597,-184.451 912.816,-190.037"/>
</g>
<!-- Node13&#45;&gt;Node2 -->
<g id="edge18" class="edge"><title>Node13&#45;&gt;Node2</title>
<path fill="none" stroke="midnightblue" d="M333.951,-205.947C308.481,-199.672 279.393,-191.412 258.561,-184.38"/>
<polygon fill="midnightblue" stroke="midnightblue" points="259.645,-181.052 249.051,-181.041 257.326,-187.656 259.645,-181.052"/>
</g>
<!-- Node13&#45;&gt;Node6 -->
<g id="edge14" class="edge"><title>Node13&#45;&gt;Node6</title>
<path fill="none" stroke="midnightblue" d="M409.182,-199.229C426.762,-184.829 455.07,-163.687 483,-151.5 488.73,-149 494.826,-146.811 501.021,-144.9"/>
<polygon fill="midnightblue" stroke="midnightblue" points="502.137,-148.221 510.798,-142.118 500.221,-141.488 502.137,-148.221"/>
</g>
<!-- Node13&#45;&gt;Node7 -->
<g id="edge15" class="edge"><title>Node13&#45;&gt;Node7</title>
<path fill="none" stroke="midnightblue" d="M400.688,-199.493C415.239,-177.076 445.788,-135.169 483,-113.5 486.853,-111.256 490.946,-109.278 495.172,-107.533"/>
<polygon fill="midnightblue" stroke="midnightblue" points="496.415,-110.805 504.597,-104.073 494.003,-104.233 496.415,-110.805"/>
</g>
<!-- Node13&#45;&gt;Node8 -->
<g id="edge16" class="edge"><title>Node13&#45;&gt;Node8</title>
<path fill="none" stroke="midnightblue" d="M447.087,-229.322C458.927,-232.411 471.366,-235.606 483,-238.5 493.813,-241.19 505.424,-243.984 516.483,-246.6"/>
<polygon fill="midnightblue" stroke="midnightblue" points="515.909,-250.061 526.445,-248.945 517.513,-243.247 515.909,-250.061"/>
</g>
<!-- Node13&#45;&gt;Node12 -->
<g id="edge17" class="edge"><title>Node13&#45;&gt;Node12</title>
<path fill="none" stroke="midnightblue" d="M445.095,-199.405C457.512,-196.034 470.693,-192.555 483,-189.5 492.796,-187.068 503.262,-184.613 513.384,-182.312"/>
<polygon fill="midnightblue" stroke="midnightblue" points="514.365,-185.678 523.352,-180.068 512.828,-178.849 514.365,-185.678"/>
</g>
<!-- Node14 -->
<g id="node14" class="node"><title>Node14</title>
<g id="a_node14"><a xlink:href="../../db/d1d/classlime_1_1LMS7002M.html#a331f2caeff8d5777c9780dba6f5a42e8" target="_top" xlink:title="Batches multiple register writes into least amount of transactions. ">
<polygon fill="white" stroke="black" points="512.5,-199.5 512.5,-229.5 625.5,-229.5 625.5,-199.5 512.5,-199.5"/>
<text text-anchor="start" x="520.5" y="-217.5" font-family="Helvetica,sans-Serif" font-size="10.00">lime::LMS7002M::SPI</text>
<text text-anchor="middle" x="569" y="-206.5" font-family="Helvetica,sans-Serif" font-size="10.00">_write_batch</text>
</a>
</g>
</g>
<!-- Node13&#45;&gt;Node14 -->
<g id="edge19" class="edge"><title>Node13&#45;&gt;Node14</title>
<path fill="none" stroke="midnightblue" d="M447.346,-214.5C464.734,-214.5 484.071,-214.5 502.08,-214.5"/>
<polygon fill="midnightblue" stroke="midnightblue" points="502.215,-218 512.215,-214.5 502.215,-211 502.215,-218"/>
</g>
<!-- Node14&#45;&gt;Node5 -->
<g id="edge20" class="edge"><title>Node14&#45;&gt;Node5</title>
<path fill="none" stroke="midnightblue" d="M625.847,-205.795C636.437,-202.121 646.764,-196.904 655,-189.5 686.12,-161.524 663.244,-133.816 691,-102.5 697.158,-95.5526 704.902,-89.5889 712.931,-84.5835"/>
<polygon fill="midnightblue" stroke="midnightblue" points="714.78,-87.5571 721.692,-79.5271 711.281,-81.4943 714.78,-87.5571"/>
</g>
<!-- Node15 -->
<g id="node15" class="node"><title>Node15</title>
<g id="a_node15"><a xlink:href="../../da/de5/classlime_1_1LMS7002M__RegistersMap.html#a97f5d0ffbaa6c0e67f2ccccb9475a540" target="_top" xlink:title="lime::LMS7002M_Registers\lMap::SetValue">
<polygon fill="white" stroke="black" points="691,-150.5 691,-180.5 828,-180.5 828,-150.5 691,-150.5"/>
<text text-anchor="start" x="699" y="-168.5" font-family="Helvetica,sans-Serif" font-size="10.00">lime::LMS7002M_Registers</text>
<text text-anchor="middle" x="759.5" y="-157.5" font-family="Helvetica,sans-Serif" font-size="10.00">Map::SetValue</text>
</a>
</g>
</g>
<!-- Node14&#45;&gt;Node15 -->
<g id="edge21" class="edge"><title>Node14&#45;&gt;Node15</title>
<path fill="none" stroke="midnightblue" d="M625.537,-200.063C646.067,-194.727 669.564,-188.619 691.037,-183.037"/>
<polygon fill="midnightblue" stroke="midnightblue" points="691.945,-186.417 700.743,-180.514 690.184,-179.642 691.945,-186.417"/>
</g>
<!-- Node16 -->
<g id="node16" class="node"><title>Node16</title>
<g id="a_node16"><a xlink:href="../../d5/d6c/namespacelime.html#ae9d8b86234e3827271197852facdc649" target="_top" xlink:title="Log an error message with formatting. ">
<polygon fill="white" stroke="black" points="729.5,-112 729.5,-131 789.5,-131 789.5,-112 729.5,-112"/>
<text text-anchor="middle" x="759.5" y="-119" font-family="Helvetica,sans-Serif" font-size="10.00">lime::error</text>
</a>
</g>
</g>
<!-- Node14&#45;&gt;Node16 -->
<g id="edge22" class="edge"><title>Node14&#45;&gt;Node16</title>
<path fill="none" stroke="midnightblue" d="M625.894,-203.725C636.13,-200.219 646.31,-195.594 655,-189.5 677.125,-173.984 668.785,-155.887 691,-140.5 699.482,-134.625 709.745,-130.558 719.682,-127.745"/>
<polygon fill="midnightblue" stroke="midnightblue" points="720.566,-131.132 729.431,-125.33 718.882,-124.337 720.566,-131.132"/>
</g>
<!-- Node17 -->
<g id="node17" class="node"><title>Node17</title>
<g id="a_node17"><a xlink:href="../../d2/de5/classlime_1_1IConnection.html#ad2f9f69f344e4c9acea10392f7fb500d" target="_top" xlink:title="lime::IConnection::\lWriteLMS7002MSPI">
<polygon fill="white" stroke="black" points="706.5,-199.5 706.5,-229.5 812.5,-229.5 812.5,-199.5 706.5,-199.5"/>
<text text-anchor="start" x="714.5" y="-217.5" font-family="Helvetica,sans-Serif" font-size="10.00">lime::IConnection::</text>
<text text-anchor="middle" x="759.5" y="-206.5" font-family="Helvetica,sans-Serif" font-size="10.00">WriteLMS7002MSPI</text>
</a>
</g>
</g>
<!-- Node14&#45;&gt;Node17 -->
<g id="edge24" class="edge"><title>Node14&#45;&gt;Node17</title>
<path fill="none" stroke="midnightblue" d="M625.537,-214.5C647.668,-214.5 673.246,-214.5 696.021,-214.5"/>
<polygon fill="midnightblue" stroke="midnightblue" points="696.266,-218 706.266,-214.5 696.266,-211 696.266,-218"/>
</g>
<!-- Node16&#45;&gt;Node11 -->
<g id="edge23" class="edge"><title>Node16&#45;&gt;Node11</title>
<path fill="none" stroke="midnightblue" d="M789.771,-129.616C801.649,-132.941 815.493,-136.858 828,-140.5 850.444,-147.036 875.566,-154.592 895.381,-160.608"/>
<polygon fill="midnightblue" stroke="midnightblue" points="894.631,-164.038 905.217,-163.6 896.669,-157.341 894.631,-164.038"/>
</g>
<!-- Node18&#45;&gt;Node5 -->
<g id="edge28" class="edge"><title>Node18&#45;&gt;Node5</title>
<path fill="none" stroke="midnightblue" d="M625.537,-54.6247C642.763,-55.9042 662.078,-57.3387 680.534,-58.7094"/>
<polygon fill="midnightblue" stroke="midnightblue" points="680.448,-62.2126 690.68,-59.463 680.967,-55.2318 680.448,-62.2126"/>
</g>
<!-- Node18&#45;&gt;Node15 -->
<g id="edge29" class="edge"><title>Node18&#45;&gt;Node15</title>
<path fill="none" stroke="midnightblue" d="M625.66,-60.0985C636.144,-63.7068 646.477,-68.6709 655,-75.5 680.771,-96.1501 665.953,-118.978 691,-140.5 692.949,-142.175 695.02,-143.742 697.182,-145.207"/>
<polygon fill="midnightblue" stroke="midnightblue" points="695.51,-148.285 705.898,-150.373 699.079,-142.263 695.51,-148.285"/>
</g>
<!-- Node18&#45;&gt;Node16 -->
<g id="edge26" class="edge"><title>Node18&#45;&gt;Node16</title>
<path fill="none" stroke="midnightblue" d="M625.217,-65.5854C635.205,-68.6408 645.471,-71.9985 655,-75.5 680.812,-84.9848 709.311,-97.8348 729.857,-107.543"/>
<polygon fill="midnightblue" stroke="midnightblue" points="728.446,-110.747 738.978,-111.893 731.459,-104.429 728.446,-110.747"/>
</g>
<!-- Node19 -->
<g id="node19" class="node"><title>Node19</title>
<g id="a_node19"><a xlink:href="../../d2/de5/classlime_1_1IConnection.html#a19573cf864645415907886dd71f8d020" target="_top" xlink:title="lime::IConnection::\lReadLMS7002MSPI">
<polygon fill="white" stroke="black" points="706.5,-0.5 706.5,-30.5 812.5,-30.5 812.5,-0.5 706.5,-0.5"/>
<text text-anchor="start" x="714.5" y="-18.5" font-family="Helvetica,sans-Serif" font-size="10.00">lime::IConnection::</text>
<text text-anchor="middle" x="759.5" y="-7.5" font-family="Helvetica,sans-Serif" font-size="10.00">ReadLMS7002MSPI</text>
</a>
</g>
</g>
<!-- Node18&#45;&gt;Node19 -->
<g id="edge27" class="edge"><title>Node18&#45;&gt;Node19</title>
<path fill="none" stroke="midnightblue" d="M625.537,-40.1881C647.768,-36.0604 673.477,-31.2868 696.329,-27.0437"/>
<polygon fill="midnightblue" stroke="midnightblue" points="697.073,-30.4654 706.266,-25.1986 695.795,-23.5831 697.073,-30.4654"/>
</g>
</g>
</svg>
