<?xml version="1.0" encoding="UTF-8" standalone="no"?>
<!DOCTYPE svg PUBLIC "-//W3C//DTD SVG 1.1//EN"
 "http://www.w3.org/Graphics/SVG/1.1/DTD/svg11.dtd">
<!-- Generated by graphviz version 2.38.0 (20140413.2041)
 -->
<!-- Title: lime::LMS7002M::RestoreRegisterMap Pages: 1 -->
<svg width="693pt" height="307pt"
 viewBox="0.00 0.00 693.00 307.00" xmlns="http://www.w3.org/2000/svg" xmlns:xlink="http://www.w3.org/1999/xlink">
<g id="graph0" class="graph" transform="scale(1 1) rotate(0) translate(4 303)">
<title>lime::LMS7002M::RestoreRegisterMap</title>
<polygon fill="white" stroke="none" points="-4,4 -4,-303 689,-303 689,4 -4,4"/>
<!-- Node1 -->
<g id="node1" class="node"><title>Node1</title>
<polygon fill="#bfbfbf" stroke="black" points="0,-159 0,-178 186,-178 186,-159 0,-159"/>
<text text-anchor="middle" x="93" y="-166" font-family="Helvetica,sans-Serif" font-size="10.00">lime::LMS7002M::RestoreRegisterMap</text>
</g>
<!-- Node2 -->
<g id="node2" class="node"><title>Node2</title>
<g id="a_node2"><a xlink:href="../../db/d1d/classlime_1_1LMS7002M.html#abf38539b5505ed1314297b5439b1ae9d" target="_top" xlink:title="lime::LMS7002M::GetActive\lChannel">
<polygon fill="white" stroke="black" points="397,-268.5 397,-298.5 537,-298.5 537,-268.5 397,-268.5"/>
<text text-anchor="start" x="405" y="-286.5" font-family="Helvetica,sans-Serif" font-size="10.00">lime::LMS7002M::GetActive</text>
<text text-anchor="middle" x="467" y="-275.5" font-family="Helvetica,sans-Serif" font-size="10.00">Channel</text>
</a>
</g>
</g>
<!-- Node1&#45;&gt;Node2 -->
<g id="edge1" class="edge"><title>Node1&#45;&gt;Node2</title>
<path fill="none" stroke="midnightblue" d="M102.809,-178.062C122.111,-198.279 170.537,-245.094 222,-264.5 274.52,-284.305 337.81,-288.73 386.77,-288.373"/>
<polygon fill="midnightblue" stroke="midnightblue" points="387.041,-291.87 396.99,-288.229 386.942,-284.871 387.041,-291.87"/>
</g>
<!-- Node4 -->
<g id="node4" class="node"><title>Node4</title>
<g id="a_node4"><a xlink:href="../../da/de5/classlime_1_1LMS7002M__RegistersMap.html#a65aed323596678ab3f13c889d415f096" target="_top" xlink:title="lime::LMS7002M_Registers\lMap::GetUsedAddresses">
<polygon fill="white" stroke="black" points="223,-175.5 223,-205.5 360,-205.5 360,-175.5 223,-175.5"/>
<text text-anchor="start" x="231" y="-193.5" font-family="Helvetica,sans-Serif" font-size="10.00">lime::LMS7002M_Registers</text>
<text text-anchor="middle" x="291.5" y="-182.5" font-family="Helvetica,sans-Serif" font-size="10.00">Map::GetUsedAddresses</text>
</a>
</g>
</g>
<!-- Node1&#45;&gt;Node4 -->
<g id="edge3" class="edge"><title>Node1&#45;&gt;Node4</title>
<path fill="none" stroke="midnightblue" d="M179.045,-178.022C190.242,-179.275 201.672,-180.555 212.74,-181.794"/>
<polygon fill="midnightblue" stroke="midnightblue" points="212.457,-185.284 222.785,-182.919 213.236,-178.328 212.457,-185.284"/>
</g>
<!-- Node5 -->
<g id="node5" class="node"><title>Node5</title>
<g id="a_node5"><a xlink:href="../../da/de5/classlime_1_1LMS7002M__RegistersMap.html#af728e4d3d45fc8d2a32d6112c77d60b0" target="_top" xlink:title="lime::LMS7002M_Registers\lMap::GetValue">
<polygon fill="white" stroke="black" points="398.5,-137.5 398.5,-167.5 535.5,-167.5 535.5,-137.5 398.5,-137.5"/>
<text text-anchor="start" x="406.5" y="-155.5" font-family="Helvetica,sans-Serif" font-size="10.00">lime::LMS7002M_Registers</text>
<text text-anchor="middle" x="467" y="-144.5" font-family="Helvetica,sans-Serif" font-size="10.00">Map::GetValue</text>
</a>
</g>
</g>
<!-- Node1&#45;&gt;Node5 -->
<g id="edge4" class="edge"><title>Node1&#45;&gt;Node5</title>
<path fill="none" stroke="midnightblue" d="M186.433,-164.524C248.447,-161.857 329.225,-158.383 387.995,-155.855"/>
<polygon fill="midnightblue" stroke="midnightblue" points="388.494,-159.337 398.334,-155.41 388.193,-152.343 388.494,-159.337"/>
</g>
<!-- Node6 -->
<g id="node6" class="node"><title>Node6</title>
<g id="a_node6"><a xlink:href="../../db/d1d/classlime_1_1LMS7002M.html#ac1a58f0eaceb678852f1460e09b4e4ba" target="_top" xlink:title="lime::LMS7002M::SetActive\lChannel">
<polygon fill="white" stroke="black" points="222,-224.5 222,-254.5 361,-254.5 361,-224.5 222,-224.5"/>
<text text-anchor="start" x="230" y="-242.5" font-family="Helvetica,sans-Serif" font-size="10.00">lime::LMS7002M::SetActive</text>
<text text-anchor="middle" x="291.5" y="-231.5" font-family="Helvetica,sans-Serif" font-size="10.00">Channel</text>
</a>
</g>
</g>
<!-- Node1&#45;&gt;Node6 -->
<g id="edge5" class="edge"><title>Node1&#45;&gt;Node6</title>
<path fill="none" stroke="midnightblue" d="M120.501,-178.075C150.697,-188.986 200.773,-207.079 238.775,-220.811"/>
<polygon fill="midnightblue" stroke="midnightblue" points="238.056,-224.272 248.651,-224.379 240.435,-217.689 238.056,-224.272"/>
</g>
<!-- Node8 -->
<g id="node8" class="node"><title>Node8</title>
<g id="a_node8"><a xlink:href="../../da/de5/classlime_1_1LMS7002M__RegistersMap.html#a97f5d0ffbaa6c0e67f2ccccb9475a540" target="_top" xlink:title="lime::LMS7002M_Registers\lMap::SetValue">
<polygon fill="white" stroke="black" points="398.5,-88.5 398.5,-118.5 535.5,-118.5 535.5,-88.5 398.5,-88.5"/>
<text text-anchor="start" x="406.5" y="-106.5" font-family="Helvetica,sans-Serif" font-size="10.00">lime::LMS7002M_Registers</text>
<text text-anchor="middle" x="467" y="-95.5" font-family="Helvetica,sans-Serif" font-size="10.00">Map::SetValue</text>
</a>
</g>
</g>
<!-- Node1&#45;&gt;Node8 -->
<g id="edge8" class="edge"><title>Node1&#45;&gt;Node8</title>
<path fill="none" stroke="midnightblue" d="M148.49,-158.979C211.807,-147.915 316.75,-129.579 388.528,-117.037"/>
<polygon fill="midnightblue" stroke="midnightblue" points="389.18,-120.476 398.428,-115.307 387.975,-113.58 389.18,-120.476"/>
</g>
<!-- Node9 -->
<g id="node9" class="node"><title>Node9</title>
<g id="a_node9"><a xlink:href="../../db/d1d/classlime_1_1LMS7002M.html#a331f2caeff8d5777c9780dba6f5a42e8" target="_top" xlink:title="Batches multiple register writes into least amount of transactions. ">
<polygon fill="white" stroke="black" points="235,-49.5 235,-79.5 348,-79.5 348,-49.5 235,-49.5"/>
<text text-anchor="start" x="243" y="-67.5" font-family="Helvetica,sans-Serif" font-size="10.00">lime::LMS7002M::SPI</text>
<text text-anchor="middle" x="291.5" y="-56.5" font-family="Helvetica,sans-Serif" font-size="10.00">_write_batch</text>
</a>
</g>
</g>
<!-- Node1&#45;&gt;Node9 -->
<g id="edge9" class="edge"><title>Node1&#45;&gt;Node9</title>
<path fill="none" stroke="midnightblue" d="M109.454,-158.813C133.207,-144.097 180.317,-115.594 222,-94.5 229.247,-90.8324 237.043,-87.1657 244.687,-83.7186"/>
<polygon fill="midnightblue" stroke="midnightblue" points="246.166,-86.8914 253.888,-79.6373 243.328,-80.4926 246.166,-86.8914"/>
</g>
<!-- Node3 -->
<g id="node3" class="node"><title>Node3</title>
<g id="a_node3"><a xlink:href="../../db/d1d/classlime_1_1LMS7002M.html#a770393845fa2d4aab5e74c33c31247e9" target="_top" xlink:title="Returns given parameter value from chip register. ">
<polygon fill="white" stroke="black" points="573,-268.5 573,-298.5 685,-298.5 685,-268.5 573,-268.5"/>
<text text-anchor="start" x="581" y="-286.5" font-family="Helvetica,sans-Serif" font-size="10.00">lime::LMS7002M::Get</text>
<text text-anchor="middle" x="629" y="-275.5" font-family="Helvetica,sans-Serif" font-size="10.00">_SPI_Reg_bits</text>
</a>
</g>
</g>
<!-- Node2&#45;&gt;Node3 -->
<g id="edge2" class="edge"><title>Node2&#45;&gt;Node3</title>
<path fill="none" stroke="midnightblue" d="M537.248,-283.5C545.654,-283.5 554.221,-283.5 562.57,-283.5"/>
<polygon fill="midnightblue" stroke="midnightblue" points="562.618,-287 572.618,-283.5 562.618,-280 562.618,-287"/>
</g>
<!-- Node6&#45;&gt;Node2 -->
<g id="edge6" class="edge"><title>Node6&#45;&gt;Node2</title>
<path fill="none" stroke="midnightblue" d="M351.724,-254.519C366.299,-258.216 382.031,-262.205 397.023,-266.007"/>
<polygon fill="midnightblue" stroke="midnightblue" points="396.195,-269.408 406.749,-268.474 397.916,-262.623 396.195,-269.408"/>
</g>
<!-- Node7 -->
<g id="node7" class="node"><title>Node7</title>
<g id="a_node7"><a xlink:href="../../db/d1d/classlime_1_1LMS7002M.html#afaf3843f7acef055ebbe0c0576ec8fee" target="_top" xlink:title="Change given parameter value. ">
<polygon fill="white" stroke="black" points="404.5,-219.5 404.5,-249.5 529.5,-249.5 529.5,-219.5 404.5,-219.5"/>
<text text-anchor="start" x="412.5" y="-237.5" font-family="Helvetica,sans-Serif" font-size="10.00">lime::LMS7002M::Modify</text>
<text text-anchor="middle" x="467" y="-226.5" font-family="Helvetica,sans-Serif" font-size="10.00">_SPI_Reg_bits</text>
</a>
</g>
</g>
<!-- Node6&#45;&gt;Node7 -->
<g id="edge7" class="edge"><title>Node6&#45;&gt;Node7</title>
<path fill="none" stroke="midnightblue" d="M361.072,-237.524C372.022,-237.208 383.377,-236.881 394.396,-236.564"/>
<polygon fill="midnightblue" stroke="midnightblue" points="394.504,-240.062 404.399,-236.275 394.302,-233.065 394.504,-240.062"/>
</g>
<!-- Node9&#45;&gt;Node5 -->
<g id="edge10" class="edge"><title>Node9&#45;&gt;Node5</title>
<path fill="none" stroke="midnightblue" d="M314.624,-79.5798C335.306,-93.2502 367.363,-113.364 397,-127.5 401.555,-129.673 406.352,-131.772 411.208,-133.767"/>
<polygon fill="midnightblue" stroke="midnightblue" points="409.983,-137.047 420.569,-137.471 412.558,-130.537 409.983,-137.047"/>
</g>
<!-- Node9&#45;&gt;Node8 -->
<g id="edge11" class="edge"><title>Node9&#45;&gt;Node8</title>
<path fill="none" stroke="midnightblue" d="M348.352,-77.0545C361.345,-79.9752 375.402,-83.135 389.125,-86.2198"/>
<polygon fill="midnightblue" stroke="midnightblue" points="388.514,-89.6698 399.039,-88.4482 390.05,-82.8402 388.514,-89.6698"/>
</g>
<!-- Node10 -->
<g id="node10" class="node"><title>Node10</title>
<g id="a_node10"><a xlink:href="../../d5/d6c/namespacelime.html#ae9d8b86234e3827271197852facdc649" target="_top" xlink:title="Log an error message with formatting. ">
<polygon fill="white" stroke="black" points="437,-50 437,-69 497,-69 497,-50 437,-50"/>
<text text-anchor="middle" x="467" y="-57" font-family="Helvetica,sans-Serif" font-size="10.00">lime::error</text>
</a>
</g>
</g>
<!-- Node9&#45;&gt;Node10 -->
<g id="edge12" class="edge"><title>Node9&#45;&gt;Node10</title>
<path fill="none" stroke="midnightblue" d="M348.352,-62.8904C373.951,-62.1527 403.68,-61.296 426.849,-60.6283"/>
<polygon fill="midnightblue" stroke="midnightblue" points="427.099,-64.1226 436.994,-60.3359 426.897,-57.1255 427.099,-64.1226"/>
</g>
<!-- Node12 -->
<g id="node12" class="node"><title>Node12</title>
<g id="a_node12"><a xlink:href="../../d2/de5/classlime_1_1IConnection.html#ad2f9f69f344e4c9acea10392f7fb500d" target="_top" xlink:title="lime::IConnection::\lWriteLMS7002MSPI">
<polygon fill="white" stroke="black" points="414,-0.5 414,-30.5 520,-30.5 520,-0.5 414,-0.5"/>
<text text-anchor="start" x="422" y="-18.5" font-family="Helvetica,sans-Serif" font-size="10.00">lime::IConnection::</text>
<text text-anchor="middle" x="467" y="-7.5" font-family="Helvetica,sans-Serif" font-size="10.00">WriteLMS7002MSPI</text>
</a>
</g>
</g>
<!-- Node9&#45;&gt;Node12 -->
<g id="edge14" class="edge"><title>Node9&#45;&gt;Node12</title>
<path fill="none" stroke="midnightblue" d="M345.971,-49.3986C364.37,-44.2023 385.123,-38.3412 404.134,-32.9721"/>
<polygon fill="midnightblue" stroke="midnightblue" points="405.223,-36.3016 413.896,-30.2154 403.321,-29.5651 405.223,-36.3016"/>
</g>
<!-- Node11 -->
<g id="node11" class="node"><title>Node11</title>
<g id="a_node11"><a xlink:href="../../d5/d6c/namespacelime.html#abec841ac666fc9321a10e1881cff2da0" target="_top" xlink:title="Log a message with formatting and specified logging level. ">
<polygon fill="white" stroke="black" points="602.5,-50 602.5,-69 655.5,-69 655.5,-50 602.5,-50"/>
<text text-anchor="middle" x="629" y="-57" font-family="Helvetica,sans-Serif" font-size="10.00">lime::log</text>
</a>
</g>
</g>
<!-- Node10&#45;&gt;Node11 -->
<g id="edge13" class="edge"><title>Node10&#45;&gt;Node11</title>
<path fill="none" stroke="midnightblue" d="M497.346,-59.5C523.985,-59.5 563.353,-59.5 591.908,-59.5"/>
<polygon fill="midnightblue" stroke="midnightblue" points="592.274,-63.0001 602.274,-59.5 592.274,-56.0001 592.274,-63.0001"/>
</g>
</g>
</svg>
