<?xml version="1.0" encoding="UTF-8" standalone="no"?>
<!DOCTYPE svg PUBLIC "-//W3C//DTD SVG 1.1//EN"
 "http://www.w3.org/Graphics/SVG/1.1/DTD/svg11.dtd">
<!-- Generated by graphviz version 2.38.0 (20140413.2041)
 -->
<!-- Title: lime::LMS7002M::SetGFIRCoefficients Pages: 1 -->
<svg width="607pt" height="215pt"
 viewBox="0.00 0.00 607.00 214.50" xmlns="http://www.w3.org/2000/svg" xmlns:xlink="http://www.w3.org/1999/xlink">
<g id="graph0" class="graph" transform="scale(1 1) rotate(0) translate(4 210.5)">
<title>lime::LMS7002M::SetGFIRCoefficients</title>
<polygon fill="white" stroke="none" points="-4,4 -4,-210.5 603,-210.5 603,4 -4,4"/>
<!-- Node1 -->
<g id="node1" class="node"><title>Node1</title>
<polygon fill="#bfbfbf" stroke="black" points="0,-128 0,-147 188,-147 188,-128 0,-128"/>
<text text-anchor="middle" x="94" y="-135" font-family="Helvetica,sans-Serif" font-size="10.00">lime::LMS7002M::SetGFIRCoefficients</text>
</g>
<!-- Node2 -->
<g id="node2" class="node"><title>Node2</title>
<g id="a_node2"><a xlink:href="../../d5/d6c/namespacelime.html#adc6af0cf8e0a70f3ef09fac1244f8c48" target="_top" xlink:title="lime::ReportError">
<polygon fill="white" stroke="black" points="235,-162 235,-181 326,-181 326,-162 235,-162"/>
<text text-anchor="middle" x="280.5" y="-169" font-family="Helvetica,sans-Serif" font-size="10.00">lime::ReportError</text>
</a>
</g>
</g>
<!-- Node1&#45;&gt;Node2 -->
<g id="edge1" class="edge"><title>Node1&#45;&gt;Node2</title>
<path fill="none" stroke="midnightblue" d="M146.885,-147.061C171.24,-151.55 200.272,-156.9 224.955,-161.448"/>
<polygon fill="midnightblue" stroke="midnightblue" points="224.417,-164.908 234.885,-163.278 225.685,-158.024 224.417,-164.908"/>
</g>
<!-- Node4 -->
<g id="node4" class="node"><title>Node4</title>
<g id="a_node4"><a xlink:href="../../db/d1d/classlime_1_1LMS7002M.html#a331f2caeff8d5777c9780dba6f5a42e8" target="_top" xlink:title="Batches multiple register writes into least amount of transactions. ">
<polygon fill="white" stroke="black" points="224,-88.5 224,-118.5 337,-118.5 337,-88.5 224,-88.5"/>
<text text-anchor="start" x="232" y="-106.5" font-family="Helvetica,sans-Serif" font-size="10.00">lime::LMS7002M::SPI</text>
<text text-anchor="middle" x="280.5" y="-95.5" font-family="Helvetica,sans-Serif" font-size="10.00">_write_batch</text>
</a>
</g>
</g>
<!-- Node1&#45;&gt;Node4 -->
<g id="edge3" class="edge"><title>Node1&#45;&gt;Node4</title>
<path fill="none" stroke="midnightblue" d="M146.885,-127.939C167.681,-124.106 191.886,-119.646 213.882,-115.592"/>
<polygon fill="midnightblue" stroke="midnightblue" points="214.612,-119.017 223.813,-113.762 213.344,-112.133 214.612,-119.017"/>
</g>
<!-- Node3 -->
<g id="node3" class="node"><title>Node3</title>
<g id="a_node3"><a xlink:href="../../d9/df5/Logger_8cpp.html#ada38bf01d6d691de953ed69268ea6516" target="_top" xlink:title="errToStr">
<polygon fill="white" stroke="black" points="415.5,-187 415.5,-206 467.5,-206 467.5,-187 415.5,-187"/>
<text text-anchor="middle" x="441.5" y="-194" font-family="Helvetica,sans-Serif" font-size="10.00">errToStr</text>
</a>
</g>
</g>
<!-- Node2&#45;&gt;Node3 -->
<g id="edge2" class="edge"><title>Node2&#45;&gt;Node3</title>
<path fill="none" stroke="midnightblue" d="M326.213,-178.53C351.225,-182.463 381.957,-187.295 405.252,-190.958"/>
<polygon fill="midnightblue" stroke="midnightblue" points="404.962,-194.455 415.384,-192.551 406.049,-187.54 404.962,-194.455"/>
</g>
<!-- Node5 -->
<g id="node5" class="node"><title>Node5</title>
<g id="a_node5"><a xlink:href="../../da/de5/classlime_1_1LMS7002M__RegistersMap.html#af728e4d3d45fc8d2a32d6112c77d60b0" target="_top" xlink:title="lime::LMS7002M_Registers\lMap::GetValue">
<polygon fill="white" stroke="black" points="373,-137.5 373,-167.5 510,-167.5 510,-137.5 373,-137.5"/>
<text text-anchor="start" x="381" y="-155.5" font-family="Helvetica,sans-Serif" font-size="10.00">lime::LMS7002M_Registers</text>
<text text-anchor="middle" x="441.5" y="-144.5" font-family="Helvetica,sans-Serif" font-size="10.00">Map::GetValue</text>
</a>
</g>
</g>
<!-- Node4&#45;&gt;Node5 -->
<g id="edge4" class="edge"><title>Node4&#45;&gt;Node5</title>
<path fill="none" stroke="midnightblue" d="M330.503,-118.601C346.749,-123.608 364.999,-129.232 381.894,-134.439"/>
<polygon fill="midnightblue" stroke="midnightblue" points="381.072,-137.848 391.659,-137.448 383.133,-131.159 381.072,-137.848"/>
</g>
<!-- Node6 -->
<g id="node6" class="node"><title>Node6</title>
<g id="a_node6"><a xlink:href="../../da/de5/classlime_1_1LMS7002M__RegistersMap.html#a97f5d0ffbaa6c0e67f2ccccb9475a540" target="_top" xlink:title="lime::LMS7002M_Registers\lMap::SetValue">
<polygon fill="white" stroke="black" points="373,-88.5 373,-118.5 510,-118.5 510,-88.5 373,-88.5"/>
<text text-anchor="start" x="381" y="-106.5" font-family="Helvetica,sans-Serif" font-size="10.00">lime::LMS7002M_Registers</text>
<text text-anchor="middle" x="441.5" y="-95.5" font-family="Helvetica,sans-Serif" font-size="10.00">Map::SetValue</text>
</a>
</g>
</g>
<!-- Node4&#45;&gt;Node6 -->
<g id="edge5" class="edge"><title>Node4&#45;&gt;Node6</title>
<path fill="none" stroke="midnightblue" d="M337.11,-103.5C345.414,-103.5 354.1,-103.5 362.759,-103.5"/>
<polygon fill="midnightblue" stroke="midnightblue" points="362.886,-107 372.886,-103.5 362.886,-100 362.886,-107"/>
</g>
<!-- Node7 -->
<g id="node7" class="node"><title>Node7</title>
<g id="a_node7"><a xlink:href="../../d5/d6c/namespacelime.html#ae9d8b86234e3827271197852facdc649" target="_top" xlink:title="Log an error message with formatting. ">
<polygon fill="white" stroke="black" points="411.5,-50 411.5,-69 471.5,-69 471.5,-50 411.5,-50"/>
<text text-anchor="middle" x="441.5" y="-57" font-family="Helvetica,sans-Serif" font-size="10.00">lime::error</text>
</a>
</g>
</g>
<!-- Node4&#45;&gt;Node7 -->
<g id="edge6" class="edge"><title>Node4&#45;&gt;Node7</title>
<path fill="none" stroke="midnightblue" d="M335.774,-88.4808C357.378,-82.5024 381.754,-75.7567 401.55,-70.2786"/>
<polygon fill="midnightblue" stroke="midnightblue" points="402.741,-73.5806 411.445,-67.5403 400.874,-66.8342 402.741,-73.5806"/>
</g>
<!-- Node9 -->
<g id="node9" class="node"><title>Node9</title>
<g id="a_node9"><a xlink:href="../../d2/de5/classlime_1_1IConnection.html#ad2f9f69f344e4c9acea10392f7fb500d" target="_top" xlink:title="lime::IConnection::\lWriteLMS7002MSPI">
<polygon fill="white" stroke="black" points="388.5,-0.5 388.5,-30.5 494.5,-30.5 494.5,-0.5 388.5,-0.5"/>
<text text-anchor="start" x="396.5" y="-18.5" font-family="Helvetica,sans-Serif" font-size="10.00">lime::IConnection::</text>
<text text-anchor="middle" x="441.5" y="-7.5" font-family="Helvetica,sans-Serif" font-size="10.00">WriteLMS7002MSPI</text>
</a>
</g>
</g>
<!-- Node4&#45;&gt;Node9 -->
<g id="edge8" class="edge"><title>Node4&#45;&gt;Node9</title>
<path fill="none" stroke="midnightblue" d="M300.6,-88.2509C318.521,-74.4638 346.468,-54.2739 373,-40.5 377.04,-38.4029 381.296,-36.3964 385.626,-34.4973"/>
<polygon fill="midnightblue" stroke="midnightblue" points="387.284,-37.5979 395.166,-30.5177 384.59,-31.1374 387.284,-37.5979"/>
</g>
<!-- Node8 -->
<g id="node8" class="node"><title>Node8</title>
<g id="a_node8"><a xlink:href="../../d5/d6c/namespacelime.html#abec841ac666fc9321a10e1881cff2da0" target="_top" xlink:title="Log a message with formatting and specified logging level. ">
<polygon fill="white" stroke="black" points="546,-50 546,-69 599,-69 599,-50 546,-50"/>
<text text-anchor="middle" x="572.5" y="-57" font-family="Helvetica,sans-Serif" font-size="10.00">lime::log</text>
</a>
</g>
</g>
<!-- Node7&#45;&gt;Node8 -->
<g id="edge7" class="edge"><title>Node7&#45;&gt;Node8</title>
<path fill="none" stroke="midnightblue" d="M471.772,-59.5C490.763,-59.5 515.631,-59.5 535.783,-59.5"/>
<polygon fill="midnightblue" stroke="midnightblue" points="535.835,-63.0001 545.835,-59.5 535.835,-56.0001 535.835,-63.0001"/>
</g>
</g>
</svg>
