<?xml version="1.0" encoding="UTF-8" standalone="no"?>
<!DOCTYPE svg PUBLIC "-//W3C//DTD SVG 1.1//EN"
 "http://www.w3.org/Graphics/SVG/1.1/DTD/svg11.dtd">
<!-- Generated by graphviz version 2.38.0 (20140413.2041)
 -->
<!-- Title: lime::LMS7002M::TuneRxFilter Pages: 1 -->
<!--zoomable 842 -->
<svg id="main" version="1.1" xmlns="http://www.w3.org/2000/svg" xmlns:xlink="http://www.w3.org/1999/xlink" xml:space="preserve" onload="init(evt)">
<style type="text/css"><![CDATA[
.edge:hover path { stroke: red; }
.edge:hover polygon { stroke: red; fill: red; }
]]></style>
<script type="text/javascript"><![CDATA[
var edges = document.getElementsByTagName('g');
if (edges && edges.length) {
  for (var i=0;i<edges.length;i++) {
    if (edges[i].id.substr(0,4)=='edge') {
      edges[i].setAttribute('class','edge');
    }
  }
}
]]></script>
        <defs>
                <circle id="rim" cx="0" cy="0" r="7"/>
                <circle id="rim2" cx="0" cy="0" r="3.5"/>
                <g id="zoomPlus">
                        <use xlink:href="#rim" fill="#404040">
                                <set attributeName="fill" to="#808080" begin="zoomplus.mouseover" end="zoomplus.mouseout"/>
                        </use>
                        <path d="M-4,0h8M0,-4v8" fill="none" stroke="white" stroke-width="1.5" pointer-events="none"/>
                </g>
                <g id="zoomMin">
                        <use xlink:href="#rim" fill="#404040">
                                <set attributeName="fill" to="#808080" begin="zoomminus.mouseover" end="zoomminus.mouseout"/>
                        </use>
                        <path d="M-4,0h8" fill="none" stroke="white" stroke-width="1.5" pointer-events="none"/>
                </g>
                <g id="dirArrow">
                        <path fill="none" stroke="white" stroke-width="1.5" d="M0,-3.0v7 M-2.5,-0.5L0,-3.0L2.5,-0.5"/>
                </g>
               <g id="resetDef">
                       <use xlink:href="#rim2" fill="#404040">
                               <set attributeName="fill" to="#808080" begin="reset.mouseover" end="reset.mouseout"/>
                       </use>
               </g>
        </defs>

<script type="text/javascript">
var viewWidth = 1169;
var viewHeight = 842;
var sectionId = 'dynsection-157';
</script>
<script xlink:href="../../svgpan.js"/>
<svg id="graph" class="graph">
<g id="viewport">
<title>lime::LMS7002M::TuneRxFilter</title>
<polygon fill="white" stroke="none" points="-4,4 -4,-837.578 1165,-837.578 1165,4 -4,4"/>
<!-- Node1 -->
<g id="node1" class="node"><title>Node1</title>
<polygon fill="#bfbfbf" stroke="black" points="0,-289.5 0,-308.5 152,-308.5 152,-289.5 0,-289.5"/>
<text text-anchor="middle" x="76" y="-296.5" font-family="Helvetica,sans-Serif" font-size="10.00">lime::LMS7002M::TuneRxFilter</text>
</g>
<!-- Node2 -->
<g id="node2" class="node"><title>Node2</title>
<g id="a_node2"><a xlink:href="../../d5/d6c/namespacelime.html#ab9de5f0d548dc93d20d3a0173e752fbd" target="_top" xlink:title="Log a debug message with formatting. ">
<polygon fill="white" stroke="black" points="799,-681.5 799,-700.5 866,-700.5 866,-681.5 799,-681.5"/>
<text text-anchor="middle" x="832.5" y="-688.5" font-family="Helvetica,sans-Serif" font-size="10.00">lime::debug</text>
</a>
</g>
</g>
<!-- Node1&#45;&gt;Node2 -->
<g id="edge1" class="edge"><title>Node1&#45;&gt;Node2</title>
<path fill="none" stroke="midnightblue" d="M79.2,-308.909C87.2902,-343.054 118.6,-457.005 188,-517 368.656,-673.175 676.156,-690.631 788.65,-691.528"/>
<polygon fill="midnightblue" stroke="midnightblue" points="788.904,-695.029 798.917,-691.567 788.93,-688.029 788.904,-695.029"/>
</g>
<!-- Node5 -->
<g id="node5" class="node"><title>Node5</title>
<g id="a_node5"><a xlink:href="../../d5/d6c/namespacelime.html#adc6af0cf8e0a70f3ef09fac1244f8c48" target="_top" xlink:title="lime::ReportError">
<polygon fill="white" stroke="black" points="959.5,-251.5 959.5,-270.5 1050.5,-270.5 1050.5,-251.5 959.5,-251.5"/>
<text text-anchor="middle" x="1005" y="-258.5" font-family="Helvetica,sans-Serif" font-size="10.00">lime::ReportError</text>
</a>
</g>
</g>
<!-- Node1&#45;&gt;Node5 -->
<g id="edge20" class="edge"><title>Node1&#45;&gt;Node5</title>
<path fill="none" stroke="midnightblue" d="M95.2818,-289.477C149.633,-262.078 315.588,-185 462.5,-185 462.5,-185 462.5,-185 643,-185 763.982,-185 902.973,-226.378 967.528,-248.071"/>
<polygon fill="midnightblue" stroke="midnightblue" points="966.641,-251.466 977.235,-251.375 968.896,-244.84 966.641,-251.466"/>
</g>
<!-- Node7 -->
<g id="node7" class="node"><title>Node7</title>
<g id="a_node7"><a xlink:href="../../d5/d6c/namespacelime.html#ae9d8b86234e3827271197852facdc649" target="_top" xlink:title="Log an error message with formatting. ">
<polygon fill="white" stroke="black" points="802.5,-643.5 802.5,-662.5 862.5,-662.5 862.5,-643.5 802.5,-643.5"/>
<text text-anchor="middle" x="832.5" y="-650.5" font-family="Helvetica,sans-Serif" font-size="10.00">lime::error</text>
</a>
</g>
</g>
<!-- Node1&#45;&gt;Node7 -->
<g id="edge6" class="edge"><title>Node1&#45;&gt;Node7</title>
<path fill="none" stroke="midnightblue" d="M78.0299,-308.508C84.3833,-365.217 120.223,-658.099 188,-710 283.165,-782.873 668.004,-694.324 792.464,-663.104"/>
<polygon fill="midnightblue" stroke="midnightblue" points="793.493,-666.454 802.331,-660.612 791.778,-659.667 793.493,-666.454"/>
</g>
<!-- Node8 -->
<g id="node8" class="node"><title>Node8</title>
<g id="a_node8"><a xlink:href="../../db/d1d/classlime_1_1LMS7002M.html#a770393845fa2d4aab5e74c33c31247e9" target="_top" xlink:title="Returns given parameter value from chip register. ">
<polygon fill="white" stroke="black" points="223.5,-126 223.5,-156 335.5,-156 335.5,-126 223.5,-126"/>
<text text-anchor="start" x="231.5" y="-144" font-family="Helvetica,sans-Serif" font-size="10.00">lime::LMS7002M::Get</text>
<text text-anchor="middle" x="279.5" y="-133" font-family="Helvetica,sans-Serif" font-size="10.00">_SPI_Reg_bits</text>
</a>
</g>
</g>
<!-- Node1&#45;&gt;Node8 -->
<g id="edge8" class="edge"><title>Node1&#45;&gt;Node8</title>
<path fill="none" stroke="midnightblue" d="M82.7,-289.423C97.2344,-265.808 138.081,-204.297 188,-171 195.87,-165.751 204.736,-161.35 213.761,-157.681"/>
<polygon fill="midnightblue" stroke="midnightblue" points="215.073,-160.927 223.189,-154.117 212.597,-154.379 215.073,-160.927"/>
</g>
<!-- Node9 -->
<g id="node9" class="node"><title>Node9</title>
<g id="a_node9"><a xlink:href="../../db/d1d/classlime_1_1LMS7002M.html#a68a6787a00fe743034350b6e83183c7c" target="_top" xlink:title="Returns reference clock in Hz used for SXT or SXR. ">
<polygon fill="white" stroke="black" points="201,-77 201,-107 358,-107 358,-77 201,-77"/>
<text text-anchor="start" x="209" y="-95" font-family="Helvetica,sans-Serif" font-size="10.00">lime::LMS7002M::GetReference</text>
<text text-anchor="middle" x="279.5" y="-84" font-family="Helvetica,sans-Serif" font-size="10.00">Clk_SX</text>
</a>
</g>
</g>
<!-- Node1&#45;&gt;Node9 -->
<g id="edge9" class="edge"><title>Node1&#45;&gt;Node9</title>
<path fill="none" stroke="midnightblue" d="M79.9793,-289.259C89.8689,-258.616 124.63,-163.419 188,-116 189.851,-114.615 191.775,-113.31 193.759,-112.081"/>
<polygon fill="midnightblue" stroke="midnightblue" points="195.69,-115.014 202.797,-107.156 192.341,-108.867 195.69,-115.014"/>
</g>
<!-- Node10 -->
<g id="node10" class="node"><title>Node10</title>
<g id="a_node10"><a xlink:href="../../db/d1d/classlime_1_1LMS7002M.html#a1708d5d001f1ac2018e2db90a619209a" target="_top" xlink:title="Simple logging function to print status messages. ">
<polygon fill="white" stroke="black" points="586,-757.5 586,-776.5 698,-776.5 698,-757.5 586,-757.5"/>
<text text-anchor="middle" x="642" y="-764.5" font-family="Helvetica,sans-Serif" font-size="10.00">lime::LMS7002M::Log</text>
</a>
</g>
</g>
<!-- Node1&#45;&gt;Node10 -->
<g id="edge10" class="edge"><title>Node1&#45;&gt;Node10</title>
<path fill="none" stroke="midnightblue" d="M77.6598,-308.868C82.1036,-372.018 109.893,-718.836 188,-781 314.197,-881.438 528.737,-812.056 609.234,-780.413"/>
<polygon fill="midnightblue" stroke="midnightblue" points="610.829,-783.545 618.81,-776.576 608.225,-777.047 610.829,-783.545"/>
</g>
<!-- Node13 -->
<g id="node13" class="node"><title>Node13</title>
<g id="a_node13"><a xlink:href="../../d8/d9c/classlime_1_1MCU__BD.html#a62561786644bd4b2e0b160a17b17bde9" target="_top" xlink:title="lime::MCU_BD::MCUStatusMessage">
<polygon fill="white" stroke="black" points="189,-38.5 189,-57.5 370,-57.5 370,-38.5 189,-38.5"/>
<text text-anchor="middle" x="279.5" y="-45.5" font-family="Helvetica,sans-Serif" font-size="10.00">lime::MCU_BD::MCUStatusMessage</text>
</a>
</g>
</g>
<!-- Node1&#45;&gt;Node13 -->
<g id="edge17" class="edge"><title>Node1&#45;&gt;Node13</title>
<path fill="none" stroke="midnightblue" d="M78.5509,-289.156C84.7809,-253.085 111.447,-127.12 188,-67 190.099,-65.3515 192.307,-63.837 194.601,-62.446"/>
<polygon fill="midnightblue" stroke="midnightblue" points="196.555,-65.3757 203.828,-57.6712 193.338,-59.1589 196.555,-65.3757"/>
</g>
<!-- Node14 -->
<g id="node14" class="node"><title>Node14</title>
<g id="a_node14"><a xlink:href="../../d8/d9c/classlime_1_1MCU__BD.html#a725c7209bf1f88302539353da14f1fcc" target="_top" xlink:title="Upload program code from memory into MCU. ">
<polygon fill="white" stroke="black" points="564.5,-403.5 564.5,-422.5 719.5,-422.5 719.5,-403.5 564.5,-403.5"/>
<text text-anchor="middle" x="642" y="-410.5" font-family="Helvetica,sans-Serif" font-size="10.00">lime::MCU_BD::Program_MCU</text>
</a>
</g>
</g>
<!-- Node1&#45;&gt;Node14 -->
<g id="edge18" class="edge"><title>Node1&#45;&gt;Node14</title>
<path fill="none" stroke="midnightblue" d="M124.116,-308.523C227.067,-329.333 471.791,-378.798 583.551,-401.388"/>
<polygon fill="midnightblue" stroke="midnightblue" points="583.126,-404.873 593.621,-403.423 584.513,-398.012 583.126,-404.873"/>
</g>
<!-- Node15 -->
<g id="node15" class="node"><title>Node15</title>
<g id="a_node15"><a xlink:href="../../d8/d9c/classlime_1_1MCU__BD.html#a97b9d0dfe2cf9eb1430ec24b5c7e3e9d" target="_top" xlink:title="lime::MCU_BD::ReadMCUProgramID">
<polygon fill="white" stroke="black" points="188,-0.5 188,-19.5 371,-19.5 371,-0.5 188,-0.5"/>
<text text-anchor="middle" x="279.5" y="-7.5" font-family="Helvetica,sans-Serif" font-size="10.00">lime::MCU_BD::ReadMCUProgramID</text>
</a>
</g>
</g>
<!-- Node1&#45;&gt;Node15 -->
<g id="edge19" class="edge"><title>Node1&#45;&gt;Node15</title>
<path fill="none" stroke="midnightblue" d="M77.8284,-289.256C81.7311,-249.804 101.89,-100.628 188,-29 189.998,-27.3381 192.105,-25.8104 194.3,-24.4065"/>
<polygon fill="midnightblue" stroke="midnightblue" points="196.044,-27.4418 203.151,-19.5841 192.695,-21.2949 196.044,-27.4418"/>
</g>
<!-- Node16 -->
<g id="node16" class="node"><title>Node16</title>
<g id="a_node16"><a xlink:href="../../d8/d9c/classlime_1_1MCU__BD.html#ac52855dc71d1134c32cdc8b22197f57a" target="_top" xlink:title="Starts algorithm in MCU. ">
<polygon fill="white" stroke="black" points="566,-365.5 566,-384.5 718,-384.5 718,-365.5 566,-365.5"/>
<text text-anchor="middle" x="642" y="-372.5" font-family="Helvetica,sans-Serif" font-size="10.00">lime::MCU_BD::RunProcedure</text>
</a>
</g>
</g>
<!-- Node1&#45;&gt;Node16 -->
<g id="edge21" class="edge"><title>Node1&#45;&gt;Node16</title>
<path fill="none" stroke="midnightblue" d="M114.11,-289.45C191.803,-271.241 376.279,-237.41 520,-285 563.607,-299.439 604.277,-336.361 625.553,-358.166"/>
<polygon fill="midnightblue" stroke="midnightblue" points="623.053,-360.616 632.483,-365.446 628.123,-355.79 623.053,-360.616"/>
</g>
<!-- Node17 -->
<g id="node17" class="node"><title>Node17</title>
<g id="a_node17"><a xlink:href="../../d8/d9c/classlime_1_1MCU__BD.html#ad4bff788d7e2763b110940935f42361b" target="_top" xlink:title="lime::MCU_BD::SetParameter">
<polygon fill="white" stroke="black" points="205,-681.5 205,-700.5 354,-700.5 354,-681.5 205,-681.5"/>
<text text-anchor="middle" x="279.5" y="-688.5" font-family="Helvetica,sans-Serif" font-size="10.00">lime::MCU_BD::SetParameter</text>
</a>
</g>
</g>
<!-- Node1&#45;&gt;Node17 -->
<g id="edge22" class="edge"><title>Node1&#45;&gt;Node17</title>
<path fill="none" stroke="midnightblue" d="M76.7488,-308.658C76.0792,-355.627 79.5752,-562.172 188,-667 192.017,-670.884 196.587,-674.157 201.489,-676.915"/>
<polygon fill="midnightblue" stroke="midnightblue" points="200.098,-680.13 210.624,-681.34 203.15,-673.83 200.098,-680.13"/>
</g>
<!-- Node19 -->
<g id="node19" class="node"><title>Node19</title>
<g id="a_node19"><a xlink:href="../../db/d1d/classlime_1_1LMS7002M.html#ab7ec3bb576c6970023b22e02f70df5e0" target="_top" xlink:title="Reads whole register value from given address. ">
<polygon fill="white" stroke="black" points="211,-425.5 211,-444.5 348,-444.5 348,-425.5 211,-425.5"/>
<text text-anchor="middle" x="279.5" y="-432.5" font-family="Helvetica,sans-Serif" font-size="10.00">lime::LMS7002M::SPI_read</text>
</a>
</g>
</g>
<!-- Node1&#45;&gt;Node19 -->
<g id="edge25" class="edge"><title>Node1&#45;&gt;Node19</title>
<path fill="none" stroke="midnightblue" d="M91.1691,-308.563C125.637,-331.827 214.095,-391.531 255.93,-419.767"/>
<polygon fill="midnightblue" stroke="midnightblue" points="254.1,-422.754 264.347,-425.447 258.016,-416.952 254.1,-422.754"/>
</g>
<!-- Node28 -->
<g id="node28" class="node"><title>Node28</title>
<g id="a_node28"><a xlink:href="../../d8/d9c/classlime_1_1MCU__BD.html#a493b37b20fd7cc215a8dbcda5e0a49dc" target="_top" xlink:title="Waits for MCU to finish executing program. ">
<polygon fill="white" stroke="black" points="568.5,-592.5 568.5,-611.5 715.5,-611.5 715.5,-592.5 568.5,-592.5"/>
<text text-anchor="middle" x="642" y="-599.5" font-family="Helvetica,sans-Serif" font-size="10.00">lime::MCU_BD::WaitForMCU</text>
</a>
</g>
</g>
<!-- Node1&#45;&gt;Node28 -->
<g id="edge49" class="edge"><title>Node1&#45;&gt;Node28</title>
<path fill="none" stroke="midnightblue" d="M81.7335,-308.576C95.1311,-334.863 135.756,-409.166 188,-454 270.809,-525.065 303.179,-531.403 407,-565 455.932,-580.834 512.89,-590.028 558.36,-595.29"/>
<polygon fill="midnightblue" stroke="midnightblue" points="558.145,-598.787 568.471,-596.417 558.921,-591.831 558.145,-598.787"/>
</g>
<!-- Node3 -->
<g id="node3" class="node"><title>Node3</title>
<g id="a_node3"><a xlink:href="../../d5/d6c/namespacelime.html#a6e854173a1d66443d7c96d8eabef993b" target="_top" xlink:title="lime::GetLastErrorMessage">
<polygon fill="white" stroke="black" points="937,-681.5 937,-700.5 1073,-700.5 1073,-681.5 937,-681.5"/>
<text text-anchor="middle" x="1005" y="-688.5" font-family="Helvetica,sans-Serif" font-size="10.00">lime::GetLastErrorMessage</text>
</a>
</g>
</g>
<!-- Node2&#45;&gt;Node3 -->
<g id="edge2" class="edge"><title>Node2&#45;&gt;Node3</title>
<path fill="none" stroke="midnightblue" d="M866.374,-691C883.667,-691 905.653,-691 926.951,-691"/>
<polygon fill="midnightblue" stroke="midnightblue" points="926.996,-694.5 936.996,-691 926.996,-687.5 926.996,-694.5"/>
</g>
<!-- Node4 -->
<g id="node4" class="node"><title>Node4</title>
<g id="a_node4"><a xlink:href="../../d5/d6c/namespacelime.html#abec841ac666fc9321a10e1881cff2da0" target="_top" xlink:title="Log a message with formatting and specified logging level. ">
<polygon fill="white" stroke="black" points="978.5,-719.5 978.5,-738.5 1031.5,-738.5 1031.5,-719.5 978.5,-719.5"/>
<text text-anchor="middle" x="1005" y="-726.5" font-family="Helvetica,sans-Serif" font-size="10.00">lime::log</text>
</a>
</g>
</g>
<!-- Node2&#45;&gt;Node4 -->
<g id="edge3" class="edge"><title>Node2&#45;&gt;Node4</title>
<path fill="none" stroke="midnightblue" d="M866.374,-698.327C895.632,-704.848 938.328,-714.364 968.388,-721.063"/>
<polygon fill="midnightblue" stroke="midnightblue" points="967.929,-724.547 978.451,-723.306 969.452,-717.714 967.929,-724.547"/>
</g>
<!-- Node2&#45;&gt;Node5 -->
<g id="edge4" class="edge"><title>Node2&#45;&gt;Node5</title>
<path fill="none" stroke="midnightblue" d="M866.256,-688.678C878.641,-686.195 891.923,-681.343 901,-672 957.077,-614.282 992.537,-355.006 1001.66,-280.862"/>
<polygon fill="midnightblue" stroke="midnightblue" points="1005.17,-280.959 1002.9,-270.612 998.223,-280.12 1005.17,-280.959"/>
</g>
<!-- Node6 -->
<g id="node6" class="node"><title>Node6</title>
<g id="a_node6"><a xlink:href="../../d9/df5/Logger_8cpp.html#ada38bf01d6d691de953ed69268ea6516" target="_top" xlink:title="errToStr">
<polygon fill="white" stroke="black" points="1109,-251.5 1109,-270.5 1161,-270.5 1161,-251.5 1109,-251.5"/>
<text text-anchor="middle" x="1135" y="-258.5" font-family="Helvetica,sans-Serif" font-size="10.00">errToStr</text>
</a>
</g>
</g>
<!-- Node5&#45;&gt;Node6 -->
<g id="edge5" class="edge"><title>Node5&#45;&gt;Node6</title>
<path fill="none" stroke="midnightblue" d="M1050.77,-261C1066.43,-261 1083.79,-261 1098.58,-261"/>
<polygon fill="midnightblue" stroke="midnightblue" points="1098.84,-264.5 1108.84,-261 1098.84,-257.5 1098.84,-264.5"/>
</g>
<!-- Node7&#45;&gt;Node4 -->
<g id="edge7" class="edge"><title>Node7&#45;&gt;Node4</title>
<path fill="none" stroke="midnightblue" d="M862.802,-657.657C875.207,-660.513 889.433,-665.013 901,-672 920.913,-684.029 917.098,-697.952 937,-710 946.484,-715.742 957.77,-719.808 968.35,-722.662"/>
<polygon fill="midnightblue" stroke="midnightblue" points="967.653,-726.094 978.196,-725.042 969.298,-719.29 967.653,-726.094"/>
</g>
<!-- Node10&#45;&gt;Node2 -->
<g id="edge11" class="edge"><title>Node10&#45;&gt;Node2</title>
<path fill="none" stroke="midnightblue" d="M691.759,-757.423C704.04,-753.899 716.884,-749.197 728,-743 746.958,-732.431 745.038,-720.561 764,-710 771.644,-705.742 780.317,-702.378 788.838,-699.74"/>
<polygon fill="midnightblue" stroke="midnightblue" points="790.021,-703.044 798.701,-696.968 788.127,-696.305 790.021,-703.044"/>
</g>
<!-- Node10&#45;&gt;Node7 -->
<g id="edge12" class="edge"><title>Node10&#45;&gt;Node7</title>
<path fill="none" stroke="midnightblue" d="M657.199,-757.37C674.375,-745.557 703.974,-724.671 728,-705 744.794,-691.25 745.038,-682.561 764,-672 772.762,-667.12 782.875,-663.413 792.562,-660.63"/>
<polygon fill="midnightblue" stroke="midnightblue" points="793.637,-663.966 802.428,-658.053 791.868,-657.194 793.637,-663.966"/>
</g>
<!-- Node11 -->
<g id="node11" class="node"><title>Node11</title>
<g id="a_node11"><a xlink:href="../../d5/d6c/namespacelime.html#af0395b1ab55d42fb76210f0cd9a44a6f" target="_top" xlink:title="Log an information message with formatting. ">
<polygon fill="white" stroke="black" points="804.5,-757.5 804.5,-776.5 860.5,-776.5 860.5,-757.5 804.5,-757.5"/>
<text text-anchor="middle" x="832.5" y="-764.5" font-family="Helvetica,sans-Serif" font-size="10.00">lime::info</text>
</a>
</g>
</g>
<!-- Node10&#45;&gt;Node11 -->
<g id="edge13" class="edge"><title>Node10&#45;&gt;Node11</title>
<path fill="none" stroke="midnightblue" d="M698.029,-767C728.92,-767 766.652,-767 794.107,-767"/>
<polygon fill="midnightblue" stroke="midnightblue" points="794.457,-770.5 804.457,-767 794.456,-763.5 794.457,-770.5"/>
</g>
<!-- Node12 -->
<g id="node12" class="node"><title>Node12</title>
<g id="a_node12"><a xlink:href="../../d5/d6c/namespacelime.html#a377f6c27785115833f62864ba9f37553" target="_top" xlink:title="Log a warning message with formatting. ">
<polygon fill="white" stroke="black" points="795.5,-719.5 795.5,-738.5 869.5,-738.5 869.5,-719.5 795.5,-719.5"/>
<text text-anchor="middle" x="832.5" y="-726.5" font-family="Helvetica,sans-Serif" font-size="10.00">lime::warning</text>
</a>
</g>
</g>
<!-- Node10&#45;&gt;Node12 -->
<g id="edge15" class="edge"><title>Node10&#45;&gt;Node12</title>
<path fill="none" stroke="midnightblue" d="M690.567,-757.411C719.64,-751.55 756.643,-744.091 785.437,-738.286"/>
<polygon fill="midnightblue" stroke="midnightblue" points="786.142,-741.714 795.253,-736.307 784.758,-734.852 786.142,-741.714"/>
</g>
<!-- Node11&#45;&gt;Node4 -->
<g id="edge14" class="edge"><title>Node11&#45;&gt;Node4</title>
<path fill="none" stroke="midnightblue" d="M860.516,-760.979C889.663,-754.483 936.207,-744.109 968.34,-736.948"/>
<polygon fill="midnightblue" stroke="midnightblue" points="969.227,-740.336 978.226,-734.744 967.704,-733.504 969.227,-740.336"/>
</g>
<!-- Node12&#45;&gt;Node4 -->
<g id="edge16" class="edge"><title>Node12&#45;&gt;Node4</title>
<path fill="none" stroke="midnightblue" d="M869.659,-729C898.737,-729 939.374,-729 968.323,-729"/>
<polygon fill="midnightblue" stroke="midnightblue" points="968.417,-732.5 978.417,-729 968.417,-725.5 968.417,-732.5"/>
</g>
<!-- Node17&#45;&gt;Node2 -->
<g id="edge24" class="edge"><title>Node17&#45;&gt;Node2</title>
<path fill="none" stroke="midnightblue" d="M332.003,-700.514C354.883,-704.279 382.196,-708.148 407,-710 546.47,-720.416 712.176,-704.984 788.77,-696.276"/>
<polygon fill="midnightblue" stroke="midnightblue" points="789.443,-699.722 798.974,-695.096 788.638,-692.768 789.443,-699.722"/>
</g>
<!-- Node18 -->
<g id="node18" class="node"><title>Node18</title>
<g id="a_node18"><a xlink:href="../../db/d82/wglew_8h.html#a500a82aecba06f4550f6849b8099ca21" target="_top" xlink:title="int">
<polygon fill="white" stroke="black" points="449,-681.5 449,-700.5 478,-700.5 478,-681.5 449,-681.5"/>
<text text-anchor="middle" x="463.5" y="-688.5" font-family="Helvetica,sans-Serif" font-size="10.00">int</text>
</a>
</g>
</g>
<!-- Node17&#45;&gt;Node18 -->
<g id="edge23" class="edge"><title>Node17&#45;&gt;Node18</title>
<path fill="none" stroke="midnightblue" d="M354.002,-691C384.246,-691 417.17,-691 438.722,-691"/>
<polygon fill="midnightblue" stroke="midnightblue" points="438.881,-694.5 448.881,-691 438.881,-687.5 438.881,-694.5"/>
</g>
<!-- Node19&#45;&gt;Node5 -->
<g id="edge29" class="edge"><title>Node19&#45;&gt;Node5</title>
<path fill="none" stroke="midnightblue" d="M288.156,-425.474C306.202,-403.795 353.904,-350.883 407,-328 593.27,-247.723 841.062,-250.748 949.406,-256.839"/>
<polygon fill="midnightblue" stroke="midnightblue" points="949.259,-260.337 959.449,-257.436 949.674,-253.349 949.259,-260.337"/>
</g>
<!-- Node19&#45;&gt;Node14 -->
<g id="edge28" class="edge"><title>Node19&#45;&gt;Node14</title>
<path fill="none" stroke="midnightblue" d="M348.307,-430.862C406.559,-427.307 490.896,-422.16 554.092,-418.304"/>
<polygon fill="midnightblue" stroke="midnightblue" points="554.674,-421.775 564.442,-417.672 554.247,-414.788 554.674,-421.775"/>
</g>
<!-- Node19&#45;&gt;Node16 -->
<g id="edge30" class="edge"><title>Node19&#45;&gt;Node16</title>
<path fill="none" stroke="midnightblue" d="M337.622,-425.493C401.735,-414.822 505.656,-397.526 573.667,-386.207"/>
<polygon fill="midnightblue" stroke="midnightblue" points="574.558,-389.607 583.847,-384.512 573.408,-382.702 574.558,-389.607"/>
</g>
<!-- Node20 -->
<g id="node20" class="node"><title>Node20</title>
<g id="a_node20"><a xlink:href="../../db/d1d/classlime_1_1LMS7002M.html#a925943ddbeff30698959d3f4d75ab52c" target="_top" xlink:title="lime::LMS7002M::GetMCUControls">
<polygon fill="white" stroke="black" points="556,-491.5 556,-510.5 728,-510.5 728,-491.5 556,-491.5"/>
<text text-anchor="middle" x="642" y="-498.5" font-family="Helvetica,sans-Serif" font-size="10.00">lime::LMS7002M::GetMCUControls</text>
</a>
</g>
</g>
<!-- Node19&#45;&gt;Node20 -->
<g id="edge26" class="edge"><title>Node19&#45;&gt;Node20</title>
<path fill="none" stroke="midnightblue" d="M301.007,-444.623C325.598,-455.687 368.346,-473.422 407,-482 452.034,-491.994 502.984,-496.865 545.818,-499.189"/>
<polygon fill="midnightblue" stroke="midnightblue" points="545.792,-502.692 555.956,-499.7 546.145,-495.701 545.792,-502.692"/>
</g>
<!-- Node21 -->
<g id="node21" class="node"><title>Node21</title>
<g id="a_node21"><a xlink:href="../../da/de5/classlime_1_1LMS7002M__RegistersMap.html#af728e4d3d45fc8d2a32d6112c77d60b0" target="_top" xlink:title="lime::LMS7002M_Registers\lMap::GetValue">
<polygon fill="white" stroke="black" points="764,-442 764,-472 901,-472 901,-442 764,-442"/>
<text text-anchor="start" x="772" y="-460" font-family="Helvetica,sans-Serif" font-size="10.00">lime::LMS7002M_Registers</text>
<text text-anchor="middle" x="832.5" y="-449" font-family="Helvetica,sans-Serif" font-size="10.00">Map::GetValue</text>
</a>
</g>
</g>
<!-- Node19&#45;&gt;Node21 -->
<g id="edge27" class="edge"><title>Node19&#45;&gt;Node21</title>
<path fill="none" stroke="midnightblue" d="M295.463,-425.476C355.303,-388.707 581.239,-262.606 728,-356 759.872,-376.282 736.04,-407.596 764,-433 765.297,-434.179 766.656,-435.3 768.067,-436.368"/>
<polygon fill="midnightblue" stroke="midnightblue" points="766.329,-439.412 776.626,-441.906 770.131,-433.535 766.329,-439.412"/>
</g>
<!-- Node22 -->
<g id="node22" class="node"><title>Node22</title>
<g id="a_node22"><a xlink:href="../../db/d1d/classlime_1_1LMS7002M.html#a61f634f3d5f245993d78f16921d57cac" target="_top" xlink:title="Batches multiple register reads into least amount of transactions. ">
<polygon fill="white" stroke="black" points="585.5,-530 585.5,-560 698.5,-560 698.5,-530 585.5,-530"/>
<text text-anchor="start" x="593.5" y="-548" font-family="Helvetica,sans-Serif" font-size="10.00">lime::LMS7002M::SPI</text>
<text text-anchor="middle" x="642" y="-537" font-family="Helvetica,sans-Serif" font-size="10.00">_read_batch</text>
</a>
</g>
</g>
<!-- Node19&#45;&gt;Node22 -->
<g id="edge31" class="edge"><title>Node19&#45;&gt;Node22</title>
<path fill="none" stroke="midnightblue" d="M294.61,-444.527C317.282,-459.377 363.679,-487.899 407,-503 462.009,-522.176 527.492,-532.974 575.177,-538.803"/>
<polygon fill="midnightblue" stroke="midnightblue" points="575.034,-542.31 585.375,-540.007 575.855,-535.359 575.034,-542.31"/>
</g>
<!-- Node25 -->
<g id="node25" class="node"><title>Node25</title>
<g id="a_node25"><a xlink:href="../../db/d1d/classlime_1_1LMS7002M.html#a8ba94232164ee3fddfdf1a6bd0df3b3c" target="_top" xlink:title="Write given data value to whole register. ">
<polygon fill="white" stroke="black" points="407,-442 407,-472 520,-472 520,-442 407,-442"/>
<text text-anchor="start" x="415" y="-460" font-family="Helvetica,sans-Serif" font-size="10.00">lime::LMS7002M::SPI</text>
<text text-anchor="middle" x="463.5" y="-449" font-family="Helvetica,sans-Serif" font-size="10.00">_write</text>
</a>
</g>
</g>
<!-- Node19&#45;&gt;Node25 -->
<g id="edge36" class="edge"><title>Node19&#45;&gt;Node25</title>
<path fill="none" stroke="midnightblue" d="M348.011,-436.615C363.945,-438.258 380.909,-440.32 396.762,-442.54"/>
<polygon fill="midnightblue" stroke="midnightblue" points="396.6,-446.053 406.998,-444.02 397.602,-439.125 396.6,-446.053"/>
</g>
<!-- Node19&#45;&gt;Node28 -->
<g id="edge48" class="edge"><title>Node19&#45;&gt;Node28</title>
<path fill="none" stroke="midnightblue" d="M290.812,-444.76C311.359,-463.725 359.527,-505.807 407,-530 463.922,-559.009 534.67,-578.774 583.385,-590.15"/>
<polygon fill="midnightblue" stroke="midnightblue" points="582.904,-593.63 593.433,-592.45 584.466,-586.807 582.904,-593.63"/>
</g>
<!-- Node22&#45;&gt;Node7 -->
<g id="edge32" class="edge"><title>Node22&#45;&gt;Node7</title>
<path fill="none" stroke="midnightblue" d="M680.503,-560.091C695.555,-566.576 712.884,-574.594 728,-583 757.891,-599.623 790.222,-622.323 810.65,-637.308"/>
<polygon fill="midnightblue" stroke="midnightblue" points="808.771,-640.272 818.89,-643.41 812.936,-634.646 808.771,-640.272"/>
</g>
<!-- Node22&#45;&gt;Node21 -->
<g id="edge33" class="edge"><title>Node22&#45;&gt;Node21</title>
<path fill="none" stroke="midnightblue" d="M698.76,-533.189C708.899,-529.784 719.079,-525.46 728,-520 747.843,-507.855 744.586,-494.819 764,-482 766.957,-480.047 770.088,-478.22 773.317,-476.515"/>
<polygon fill="midnightblue" stroke="midnightblue" points="775.13,-479.527 782.616,-472.03 772.088,-473.222 775.13,-479.527"/>
</g>
<!-- Node23 -->
<g id="node23" class="node"><title>Node23</title>
<g id="a_node23"><a xlink:href="../../d2/de5/classlime_1_1IConnection.html#a19573cf864645415907886dd71f8d020" target="_top" xlink:title="lime::IConnection::\lReadLMS7002MSPI">
<polygon fill="white" stroke="black" points="779.5,-540 779.5,-570 885.5,-570 885.5,-540 779.5,-540"/>
<text text-anchor="start" x="787.5" y="-558" font-family="Helvetica,sans-Serif" font-size="10.00">lime::IConnection::</text>
<text text-anchor="middle" x="832.5" y="-547" font-family="Helvetica,sans-Serif" font-size="10.00">ReadLMS7002MSPI</text>
</a>
</g>
</g>
<!-- Node22&#45;&gt;Node23 -->
<g id="edge34" class="edge"><title>Node22&#45;&gt;Node23</title>
<path fill="none" stroke="midnightblue" d="M698.537,-547.946C720.668,-549.12 746.246,-550.477 769.021,-551.685"/>
<polygon fill="midnightblue" stroke="midnightblue" points="769.095,-555.194 779.266,-552.229 769.466,-548.204 769.095,-555.194"/>
</g>
<!-- Node24 -->
<g id="node24" class="node"><title>Node24</title>
<g id="a_node24"><a xlink:href="../../da/de5/classlime_1_1LMS7002M__RegistersMap.html#a97f5d0ffbaa6c0e67f2ccccb9475a540" target="_top" xlink:title="lime::LMS7002M_Registers\lMap::SetValue">
<polygon fill="white" stroke="black" points="764,-491 764,-521 901,-521 901,-491 764,-491"/>
<text text-anchor="start" x="772" y="-509" font-family="Helvetica,sans-Serif" font-size="10.00">lime::LMS7002M_Registers</text>
<text text-anchor="middle" x="832.5" y="-498" font-family="Helvetica,sans-Serif" font-size="10.00">Map::SetValue</text>
</a>
</g>
</g>
<!-- Node22&#45;&gt;Node24 -->
<g id="edge35" class="edge"><title>Node22&#45;&gt;Node24</title>
<path fill="none" stroke="midnightblue" d="M698.537,-533.51C715.843,-529.929 735.257,-525.912 753.79,-522.078"/>
<polygon fill="midnightblue" stroke="midnightblue" points="754.597,-525.485 763.68,-520.032 753.178,-518.63 754.597,-525.485"/>
</g>
<!-- Node25&#45;&gt;Node14 -->
<g id="edge38" class="edge"><title>Node25&#45;&gt;Node14</title>
<path fill="none" stroke="midnightblue" d="M520.087,-442.178C531.927,-439.089 544.366,-435.894 556,-433 566.813,-430.31 578.424,-427.516 589.483,-424.9"/>
<polygon fill="midnightblue" stroke="midnightblue" points="590.513,-428.253 599.445,-422.555 588.909,-421.439 590.513,-428.253"/>
</g>
<!-- Node25&#45;&gt;Node16 -->
<g id="edge39" class="edge"><title>Node25&#45;&gt;Node16</title>
<path fill="none" stroke="midnightblue" d="M482.182,-441.729C499.762,-427.329 528.07,-406.187 556,-394 561.73,-391.5 567.826,-389.311 574.021,-387.4"/>
<polygon fill="midnightblue" stroke="midnightblue" points="575.137,-390.721 583.798,-384.618 573.221,-383.988 575.137,-390.721"/>
</g>
<!-- Node25&#45;&gt;Node19 -->
<g id="edge40" class="edge"><title>Node25&#45;&gt;Node19</title>
<path fill="none" stroke="midnightblue" d="M406.959,-456.558C380.643,-454.123 349.636,-450.248 324.912,-446.261"/>
<polygon fill="midnightblue" stroke="midnightblue" points="325.175,-442.756 314.733,-444.549 324.014,-449.659 325.175,-442.756"/>
</g>
<!-- Node25&#45;&gt;Node20 -->
<g id="edge37" class="edge"><title>Node25&#45;&gt;Node20</title>
<path fill="none" stroke="midnightblue" d="M518.095,-472.095C530.512,-475.466 543.693,-478.945 556,-482 565.796,-484.432 576.262,-486.887 586.384,-489.188"/>
<polygon fill="midnightblue" stroke="midnightblue" points="585.828,-492.651 596.352,-491.432 587.365,-485.822 585.828,-492.651"/>
</g>
<!-- Node26 -->
<g id="node26" class="node"><title>Node26</title>
<g id="a_node26"><a xlink:href="../../db/d1d/classlime_1_1LMS7002M.html#a331f2caeff8d5777c9780dba6f5a42e8" target="_top" xlink:title="Batches multiple register writes into least amount of transactions. ">
<polygon fill="white" stroke="black" points="585.5,-442 585.5,-472 698.5,-472 698.5,-442 585.5,-442"/>
<text text-anchor="start" x="593.5" y="-460" font-family="Helvetica,sans-Serif" font-size="10.00">lime::LMS7002M::SPI</text>
<text text-anchor="middle" x="642" y="-449" font-family="Helvetica,sans-Serif" font-size="10.00">_write_batch</text>
</a>
</g>
</g>
<!-- Node25&#45;&gt;Node26 -->
<g id="edge41" class="edge"><title>Node25&#45;&gt;Node26</title>
<path fill="none" stroke="midnightblue" d="M520.346,-457C537.734,-457 557.071,-457 575.08,-457"/>
<polygon fill="midnightblue" stroke="midnightblue" points="575.215,-460.5 585.215,-457 575.215,-453.5 575.215,-460.5"/>
</g>
<!-- Node25&#45;&gt;Node28 -->
<g id="edge46" class="edge"><title>Node25&#45;&gt;Node28</title>
<path fill="none" stroke="midnightblue" d="M473.204,-472.338C487.545,-496.335 518.336,-542.82 556,-570 567.106,-578.015 580.461,-584.275 593.26,-589.048"/>
<polygon fill="midnightblue" stroke="midnightblue" points="592.298,-592.419 602.893,-592.412 594.607,-585.811 592.298,-592.419"/>
</g>
<!-- Node26&#45;&gt;Node7 -->
<g id="edge42" class="edge"><title>Node26&#45;&gt;Node7</title>
<path fill="none" stroke="midnightblue" d="M698.64,-465.297C709.368,-468.996 719.802,-474.326 728,-482 761.875,-513.71 739.78,-540.421 764,-580 777.304,-601.74 797.716,-622.687 812.612,-636.523"/>
<polygon fill="midnightblue" stroke="midnightblue" points="810.48,-639.315 820.239,-643.438 815.181,-634.129 810.48,-639.315"/>
</g>
<!-- Node26&#45;&gt;Node21 -->
<g id="edge43" class="edge"><title>Node26&#45;&gt;Node21</title>
<path fill="none" stroke="midnightblue" d="M698.537,-457C715.763,-457 735.078,-457 753.534,-457"/>
<polygon fill="midnightblue" stroke="midnightblue" points="753.68,-460.5 763.68,-457 753.68,-453.5 753.68,-460.5"/>
</g>
<!-- Node26&#45;&gt;Node24 -->
<g id="edge44" class="edge"><title>Node26&#45;&gt;Node24</title>
<path fill="none" stroke="midnightblue" d="M698.537,-471.437C719.067,-476.773 742.564,-482.881 764.037,-488.463"/>
<polygon fill="midnightblue" stroke="midnightblue" points="763.184,-491.858 773.743,-490.986 764.945,-485.083 763.184,-491.858"/>
</g>
<!-- Node27 -->
<g id="node27" class="node"><title>Node27</title>
<g id="a_node27"><a xlink:href="../../d2/de5/classlime_1_1IConnection.html#ad2f9f69f344e4c9acea10392f7fb500d" target="_top" xlink:title="lime::IConnection::\lWriteLMS7002MSPI">
<polygon fill="white" stroke="black" points="779.5,-393 779.5,-423 885.5,-423 885.5,-393 779.5,-393"/>
<text text-anchor="start" x="787.5" y="-411" font-family="Helvetica,sans-Serif" font-size="10.00">lime::IConnection::</text>
<text text-anchor="middle" x="832.5" y="-400" font-family="Helvetica,sans-Serif" font-size="10.00">WriteLMS7002MSPI</text>
</a>
</g>
</g>
<!-- Node26&#45;&gt;Node27 -->
<g id="edge45" class="edge"><title>Node26&#45;&gt;Node27</title>
<path fill="none" stroke="midnightblue" d="M698.537,-442.563C720.768,-436.785 746.477,-430.102 769.329,-424.161"/>
<polygon fill="midnightblue" stroke="midnightblue" points="770.468,-427.481 779.266,-421.578 768.707,-420.707 770.468,-427.481"/>
</g>
<!-- Node28&#45;&gt;Node2 -->
<g id="edge47" class="edge"><title>Node28&#45;&gt;Node2</title>
<path fill="none" stroke="midnightblue" d="M671.361,-611.633C688.478,-618.092 710.321,-627.512 728,-639 746.2,-650.827 745.038,-661.439 764,-672 771.644,-676.258 780.317,-679.622 788.838,-682.26"/>
<polygon fill="midnightblue" stroke="midnightblue" points="788.127,-685.695 798.701,-685.032 790.021,-678.956 788.127,-685.695"/>
</g>
</g>
</svg>
        <g id="navigator" transform="translate(0 0)" fill="#404254">
                <rect fill="#f2f5e9" fill-opacity="0.5" stroke="#606060" stroke-width=".5" x="0" y="0" width="60" height="60"/>
                <use id="zoomplus" xlink:href="#zoomPlus" x="17" y="9" onmousedown="handleZoom(evt,'in')"/>
                <use id="zoomminus" xlink:href="#zoomMin" x="42" y="9" onmousedown="handleZoom(evt,'out')"/>
                <use id="reset" xlink:href="#resetDef" x="30" y="36" onmousedown="handleReset()"/>
                <g id="arrowUp" xlink:href="#dirArrow" transform="translate(30 24)" onmousedown="handlePan(0,-1)">
                  <use xlink:href="#rim" fill="#404040">
                        <set attributeName="fill" to="#808080" begin="arrowUp.mouseover" end="arrowUp.mouseout"/>
                  </use>
                  <path fill="none" stroke="white" stroke-width="1.5" d="M0,-3.0v7 M-2.5,-0.5L0,-3.0L2.5,-0.5"/>
                </g>
                <g id="arrowRight" xlink:href="#dirArrow" transform="rotate(90) translate(36 -43)" onmousedown="handlePan(1,0)">
                  <use xlink:href="#rim" fill="#404040">
                        <set attributeName="fill" to="#808080" begin="arrowRight.mouseover" end="arrowRight.mouseout"/>
                  </use>
                  <path fill="none" stroke="white" stroke-width="1.5" d="M0,-3.0v7 M-2.5,-0.5L0,-3.0L2.5,-0.5"/>
                </g>
                <g id="arrowDown" xlink:href="#dirArrow" transform="rotate(180) translate(-30 -48)" onmousedown="handlePan(0,1)">
                  <use xlink:href="#rim" fill="#404040">
                        <set attributeName="fill" to="#808080" begin="arrowDown.mouseover" end="arrowDown.mouseout"/>
                  </use>
                  <path fill="none" stroke="white" stroke-width="1.5" d="M0,-3.0v7 M-2.5,-0.5L0,-3.0L2.5,-0.5"/>
                </g>
                <g id="arrowLeft" xlink:href="#dirArrow" transform="rotate(270) translate(-36 17)" onmousedown="handlePan(-1,0)">
                  <use xlink:href="#rim" fill="#404040">
                        <set attributeName="fill" to="#808080" begin="arrowLeft.mouseover" end="arrowLeft.mouseout"/>
                  </use>
                  <path fill="none" stroke="white" stroke-width="1.5" d="M0,-3.0v7 M-2.5,-0.5L0,-3.0L2.5,-0.5"/>
                </g>
        </g>
        <svg viewBox="0 0 15 15" width="100%" height="30px" preserveAspectRatio="xMaxYMin meet">
         <g id="arrow_out" transform="scale(0.3 0.3)">
          <a xlink:href="classlime_1_1LMS7002M_abbdc49aa63483777bc13eea18a9ae477_cgraph_org.svg" target="_base">
           <rect id="button" ry="5" rx="5" y="6" x="6" height="38" width="38"
                fill="#f2f5e9" fill-opacity="0.5" stroke="#606060" stroke-width="1.0"/>
           <path id="arrow"
             d="M 11.500037,31.436501 C 11.940474,20.09759 22.043105,11.32322 32.158766,21.979434 L 37.068811,17.246167 C 37.068811,17.246167 37.088388,32 37.088388,32 L 22.160133,31.978069 C 22.160133,31.978069 26.997745,27.140456 26.997745,27.140456 C 18.528582,18.264221 13.291696,25.230495 11.500037,31.436501 z"
             style="fill:#404040;"/>
          </a>
         </g>
        </svg>
</svg>
