<?xml version="1.0" encoding="UTF-8" standalone="no"?>
<!DOCTYPE svg PUBLIC "-//W3C//DTD SVG 1.1//EN"
 "http://www.w3.org/Graphics/SVG/1.1/DTD/svg11.dtd">
<!-- Generated by graphviz version 2.38.0 (20140413.2041)
 -->
<!-- Title: lime::LMS7002M::GetFrequencyCGEN Pages: 1 -->
<svg width="388pt" height="88pt"
 viewBox="0.00 0.00 388.00 88.00" xmlns="http://www.w3.org/2000/svg" xmlns:xlink="http://www.w3.org/1999/xlink">
<g id="graph0" class="graph" transform="scale(1 1) rotate(0) translate(4 84)">
<title>lime::LMS7002M::GetFrequencyCGEN</title>
<polygon fill="white" stroke="none" points="-4,4 -4,-84 384,-84 384,4 -4,4"/>
<!-- Node1 -->
<g id="node1" class="node"><title>Node1</title>
<polygon fill="#bfbfbf" stroke="black" points="0,-30 0,-49 187,-49 187,-30 0,-30"/>
<text text-anchor="middle" x="93.5" y="-37" font-family="Helvetica,sans-Serif" font-size="10.00">lime::LMS7002M::GetFrequencyCGEN</text>
</g>
<!-- Node2 -->
<g id="node2" class="node"><title>Node2</title>
<g id="a_node2"><a xlink:href="../../db/d1d/classlime_1_1LMS7002M.html#a770393845fa2d4aab5e74c33c31247e9" target="_top" xlink:title="Returns given parameter value from chip register. ">
<polygon fill="white" stroke="black" points="245.5,-49.5 245.5,-79.5 357.5,-79.5 357.5,-49.5 245.5,-49.5"/>
<text text-anchor="start" x="253.5" y="-67.5" font-family="Helvetica,sans-Serif" font-size="10.00">lime::LMS7002M::Get</text>
<text text-anchor="middle" x="301.5" y="-56.5" font-family="Helvetica,sans-Serif" font-size="10.00">_SPI_Reg_bits</text>
</a>
</g>
</g>
<!-- Node1&#45;&gt;Node2 -->
<g id="edge1" class="edge"><title>Node1&#45;&gt;Node2</title>
<path fill="none" stroke="midnightblue" d="M172.967,-49.0227C193.494,-51.5139 215.401,-54.1725 235.163,-56.5708"/>
<polygon fill="midnightblue" stroke="midnightblue" points="234.934,-60.0686 245.283,-57.7989 235.778,-53.1196 234.934,-60.0686"/>
</g>
<!-- Node3 -->
<g id="node3" class="node"><title>Node3</title>
<g id="a_node3"><a xlink:href="../../db/d1d/classlime_1_1LMS7002M.html#a68a6787a00fe743034350b6e83183c7c" target="_top" xlink:title="Returns reference clock in Hz used for SXT or SXR. ">
<polygon fill="white" stroke="black" points="223,-0.5 223,-30.5 380,-30.5 380,-0.5 223,-0.5"/>
<text text-anchor="start" x="231" y="-18.5" font-family="Helvetica,sans-Serif" font-size="10.00">lime::LMS7002M::GetReference</text>
<text text-anchor="middle" x="301.5" y="-7.5" font-family="Helvetica,sans-Serif" font-size="10.00">Clk_SX</text>
</a>
</g>
</g>
<!-- Node1&#45;&gt;Node3 -->
<g id="edge2" class="edge"><title>Node1&#45;&gt;Node3</title>
<path fill="none" stroke="midnightblue" d="M176.213,-29.9801C188.236,-28.5794 200.663,-27.1315 212.801,-25.7174"/>
<polygon fill="midnightblue" stroke="midnightblue" points="213.385,-29.173 222.913,-24.5392 212.575,-22.2201 213.385,-29.173"/>
</g>
</g>
</svg>
