<?xml version="1.0" encoding="UTF-8" standalone="no"?>
<!DOCTYPE svg PUBLIC "-//W3C//DTD SVG 1.1//EN"
 "http://www.w3.org/Graphics/SVG/1.1/DTD/svg11.dtd">
<!-- Generated by graphviz version 2.38.0 (20140413.2041)
 -->
<!-- Title: lime::LMS7002M::GetTBBIAMP_dB Pages: 1 -->
<svg width="815pt" height="219pt"
 viewBox="0.00 0.00 815.00 218.50" xmlns="http://www.w3.org/2000/svg" xmlns:xlink="http://www.w3.org/1999/xlink">
<g id="graph0" class="graph" transform="scale(1 1) rotate(0) translate(4 214.5)">
<title>lime::LMS7002M::GetTBBIAMP_dB</title>
<polygon fill="white" stroke="none" points="-4,4 -4,-214.5 811,-214.5 811,4 -4,4"/>
<!-- Node1 -->
<g id="node1" class="node"><title>Node1</title>
<polygon fill="#bfbfbf" stroke="black" points="0,-105 0,-124 173,-124 173,-105 0,-105"/>
<text text-anchor="middle" x="86.5" y="-112" font-family="Helvetica,sans-Serif" font-size="10.00">lime::LMS7002M::GetTBBIAMP_dB</text>
</g>
<!-- Node2 -->
<g id="node2" class="node"><title>Node2</title>
<g id="a_node2"><a xlink:href="../../d3/d22/classlime_1_1LMS7__Device.html#a88c6a8b6a14b1e4151c34d2559c4e08c" target="_top" xlink:title="lime::LMS7_Device::\lGetGain">
<polygon fill="white" stroke="black" points="209,-128.5 209,-158.5 317,-158.5 317,-128.5 209,-128.5"/>
<text text-anchor="start" x="217" y="-146.5" font-family="Helvetica,sans-Serif" font-size="10.00">lime::LMS7_Device::</text>
<text text-anchor="middle" x="263" y="-135.5" font-family="Helvetica,sans-Serif" font-size="10.00">GetGain</text>
</a>
</g>
</g>
<!-- Node1&#45;&gt;Node2 -->
<g id="edge1" class="edge"><title>Node1&#45;&gt;Node2</title>
<path fill="none" stroke="midnightblue" d="M155.413,-125.786C173.153,-128.735 192.016,-131.869 208.864,-134.669"/>
<polygon fill="midnightblue" stroke="midnightblue" points="155.56,-122.263 145.121,-124.076 154.412,-129.168 155.56,-122.263"/>
</g>
<!-- Node9 -->
<g id="node9" class="node"><title>Node9</title>
<g id="a_node9"><a xlink:href="../../d3/d22/classlime_1_1LMS7__Device.html#a780ffcbacad93e26e1cb2c988d2c647d" target="_top" xlink:title="lime::LMS7_Device::\lSetLPF">
<polygon fill="white" stroke="black" points="209,-52.5 209,-82.5 317,-82.5 317,-52.5 209,-52.5"/>
<text text-anchor="start" x="217" y="-70.5" font-family="Helvetica,sans-Serif" font-size="10.00">lime::LMS7_Device::</text>
<text text-anchor="middle" x="263" y="-59.5" font-family="Helvetica,sans-Serif" font-size="10.00">SetLPF</text>
</a>
</g>
</g>
<!-- Node1&#45;&gt;Node9 -->
<g id="edge9" class="edge"><title>Node1&#45;&gt;Node9</title>
<path fill="none" stroke="midnightblue" d="M132.769,-102.307C156.037,-96.0402 184.536,-88.3643 208.845,-81.817"/>
<polygon fill="midnightblue" stroke="midnightblue" points="131.558,-99.0085 122.813,-104.989 133.379,-105.768 131.558,-99.0085"/>
</g>
<!-- Node3 -->
<g id="node3" class="node"><title>Node3</title>
<g id="a_node3"><a xlink:href="../../d9/d90/classSoapyLMS7.html#ac32ddc0e99489455a4682d18c82eb802" target="_top" xlink:title="SoapyLMS7::getGain">
<polygon fill="white" stroke="black" points="365.5,-191 365.5,-210 475.5,-210 475.5,-191 365.5,-191"/>
<text text-anchor="middle" x="420.5" y="-198" font-family="Helvetica,sans-Serif" font-size="10.00">SoapyLMS7::getGain</text>
</a>
</g>
</g>
<!-- Node2&#45;&gt;Node3 -->
<g id="edge2" class="edge"><title>Node2&#45;&gt;Node3</title>
<path fill="none" stroke="midnightblue" d="M305.929,-162.681C320.654,-169.075 337.413,-175.97 353,-181.5 362.619,-184.912 373.181,-188.153 383,-190.961"/>
<polygon fill="midnightblue" stroke="midnightblue" points="307.142,-159.391 296.579,-158.572 304.325,-165.799 307.142,-159.391"/>
</g>
<!-- Node6 -->
<g id="node6" class="node"><title>Node6</title>
<g id="a_node6"><a xlink:href="../../df/de1/lms7__api_8cpp.html#a8f560ebdc5a13f2337926acbe13a4120" target="_top" xlink:title="LMS_GetNormalizedGain">
<polygon fill="white" stroke="black" points="356.5,-153 356.5,-172 484.5,-172 484.5,-153 356.5,-153"/>
<text text-anchor="middle" x="420.5" y="-160" font-family="Helvetica,sans-Serif" font-size="10.00">LMS_GetNormalizedGain</text>
</a>
</g>
</g>
<!-- Node2&#45;&gt;Node6 -->
<g id="edge5" class="edge"><title>Node2&#45;&gt;Node6</title>
<path fill="none" stroke="midnightblue" d="M327.046,-151.203C336.746,-152.389 346.763,-153.612 356.462,-154.798"/>
<polygon fill="midnightblue" stroke="midnightblue" points="327.43,-147.724 317.079,-149.986 326.581,-154.673 327.43,-147.724"/>
</g>
<!-- Node8 -->
<g id="node8" class="node"><title>Node8</title>
<g id="a_node8"><a xlink:href="../../df/de1/lms7__api_8cpp.html#a234cd6b4e32973d627ae369c353bbd56" target="_top" xlink:title="LMS_GetGaindB">
<polygon fill="white" stroke="black" points="375.5,-115 375.5,-134 465.5,-134 465.5,-115 375.5,-115"/>
<text text-anchor="middle" x="420.5" y="-122" font-family="Helvetica,sans-Serif" font-size="10.00">LMS_GetGaindB</text>
</a>
</g>
</g>
<!-- Node2&#45;&gt;Node8 -->
<g id="edge7" class="edge"><title>Node2&#45;&gt;Node8</title>
<path fill="none" stroke="midnightblue" d="M327.046,-135.797C343.281,-133.813 360.403,-131.721 375.44,-129.884"/>
<polygon fill="midnightblue" stroke="midnightblue" points="326.581,-132.327 317.079,-137.014 327.43,-139.276 326.581,-132.327"/>
</g>
<!-- Node4 -->
<g id="node4" class="node"><title>Node4</title>
<g id="a_node4"><a xlink:href="../../d9/d90/classSoapyLMS7.html#ac7dee88fdc416b8852dd53f39edeb81d" target="_top" xlink:title="SoapyLMS7::setGain">
<polygon fill="white" stroke="black" points="528,-191 528,-210 638,-210 638,-191 528,-191"/>
<text text-anchor="middle" x="583" y="-198" font-family="Helvetica,sans-Serif" font-size="10.00">SoapyLMS7::setGain</text>
</a>
</g>
</g>
<!-- Node3&#45;&gt;Node4 -->
<g id="edge3" class="edge"><title>Node3&#45;&gt;Node4</title>
<path fill="none" stroke="midnightblue" d="M485.865,-200.5C499.833,-200.5 514.47,-200.5 527.991,-200.5"/>
<polygon fill="midnightblue" stroke="midnightblue" points="485.838,-197 475.838,-200.5 485.838,-204 485.838,-197"/>
</g>
<!-- Node5 -->
<g id="node5" class="node"><title>Node5</title>
<g id="a_node5"><a xlink:href="../../d9/d90/classSoapyLMS7.html#a1c9bb20e7fe357b53f4d44e7ca72ef25" target="_top" xlink:title="SoapyLMS7::SoapyLMS7">
<polygon fill="white" stroke="black" points="678,-191 678,-210 807,-210 807,-191 678,-191"/>
<text text-anchor="middle" x="742.5" y="-198" font-family="Helvetica,sans-Serif" font-size="10.00">SoapyLMS7::SoapyLMS7</text>
</a>
</g>
</g>
<!-- Node4&#45;&gt;Node5 -->
<g id="edge4" class="edge"><title>Node4&#45;&gt;Node5</title>
<path fill="none" stroke="midnightblue" d="M648.278,-200.5C658.08,-200.5 668.192,-200.5 677.978,-200.5"/>
<polygon fill="midnightblue" stroke="midnightblue" points="648.203,-197 638.203,-200.5 648.203,-204 648.203,-197"/>
</g>
<!-- Node7 -->
<g id="node7" class="node"><title>Node7</title>
<g id="a_node7"><a xlink:href="../../d1/d1f/singleRX_8cpp.html#a3c04138a5bfe5d72780bb7e82a18e627" target="_top" xlink:title="main">
<polygon fill="white" stroke="black" points="564,-115 564,-134 602,-134 602,-115 564,-115"/>
<text text-anchor="middle" x="583" y="-122" font-family="Helvetica,sans-Serif" font-size="10.00">main</text>
</a>
</g>
</g>
<!-- Node6&#45;&gt;Node7 -->
<g id="edge6" class="edge"><title>Node6&#45;&gt;Node7</title>
<path fill="none" stroke="midnightblue" d="M471.885,-150.571C503.184,-143.161 541.551,-134.077 563.745,-128.822"/>
<polygon fill="midnightblue" stroke="midnightblue" points="470.926,-147.201 462.001,-152.911 472.538,-154.013 470.926,-147.201"/>
</g>
<!-- Node8&#45;&gt;Node7 -->
<g id="edge8" class="edge"><title>Node8&#45;&gt;Node7</title>
<path fill="none" stroke="midnightblue" d="M475.894,-124.5C506.431,-124.5 542.559,-124.5 563.806,-124.5"/>
<polygon fill="midnightblue" stroke="midnightblue" points="475.782,-121 465.782,-124.5 475.782,-128 475.782,-121"/>
</g>
<!-- Node10 -->
<g id="node10" class="node"><title>Node10</title>
<g id="a_node10"><a xlink:href="../../d9/d90/classSoapyLMS7.html#a7244e8625357021c5c6ba08b3e5b01e2" target="_top" xlink:title="SoapyLMS7::setBandwidth">
<polygon fill="white" stroke="black" points="353,-77 353,-96 488,-96 488,-77 353,-77"/>
<text text-anchor="middle" x="420.5" y="-84" font-family="Helvetica,sans-Serif" font-size="10.00">SoapyLMS7::setBandwidth</text>
</a>
</g>
</g>
<!-- Node9&#45;&gt;Node10 -->
<g id="edge10" class="edge"><title>Node9&#45;&gt;Node10</title>
<path fill="none" stroke="midnightblue" d="M327.248,-75.2281C335.705,-76.2614 344.398,-77.3236 352.91,-78.3636"/>
<polygon fill="midnightblue" stroke="midnightblue" points="327.43,-71.7243 317.079,-73.9856 326.581,-78.6727 327.43,-71.7243"/>
</g>
<!-- Node11 -->
<g id="node11" class="node"><title>Node11</title>
<g id="a_node11"><a xlink:href="../../df/de1/lms7__api_8cpp.html#ad7c91857ba6e83bf060e5359420925a7" target="_top" xlink:title="LMS_SetLPFBW">
<polygon fill="white" stroke="black" points="374.5,-39 374.5,-58 466.5,-58 466.5,-39 374.5,-39"/>
<text text-anchor="middle" x="420.5" y="-46" font-family="Helvetica,sans-Serif" font-size="10.00">LMS_SetLPFBW</text>
</a>
</g>
</g>
<!-- Node9&#45;&gt;Node11 -->
<g id="edge11" class="edge"><title>Node9&#45;&gt;Node11</title>
<path fill="none" stroke="midnightblue" d="M327.31,-59.7644C343.103,-57.8347 359.719,-55.8044 374.428,-54.0071"/>
<polygon fill="midnightblue" stroke="midnightblue" points="326.581,-56.3273 317.079,-61.0144 327.43,-63.2757 326.581,-56.3273"/>
</g>
<!-- Node14 -->
<g id="node14" class="node"><title>Node14</title>
<g id="a_node14"><a xlink:href="../../df/de1/lms7__api_8cpp.html#a034c656a4f48a2b5591e3f2256147dc0" target="_top" xlink:title="LMS_SetLPF">
<polygon fill="white" stroke="black" points="383,-1 383,-20 458,-20 458,-1 383,-1"/>
<text text-anchor="middle" x="420.5" y="-8" font-family="Helvetica,sans-Serif" font-size="10.00">LMS_SetLPF</text>
</a>
</g>
</g>
<!-- Node9&#45;&gt;Node14 -->
<g id="edge15" class="edge"><title>Node9&#45;&gt;Node14</title>
<path fill="none" stroke="midnightblue" d="M305.929,-48.3189C320.654,-41.9253 337.413,-35.0296 353,-29.5 362.619,-26.0876 373.181,-22.8466 383,-20.0394"/>
<polygon fill="midnightblue" stroke="midnightblue" points="304.325,-45.2005 296.579,-52.4284 307.142,-51.6089 304.325,-45.2005"/>
</g>
<!-- Node11&#45;&gt;Node7 -->
<g id="edge12" class="edge"><title>Node11&#45;&gt;Node7</title>
<path fill="none" stroke="midnightblue" d="M471.159,-61.0972C476.918,-63.0239 482.643,-65.1606 488,-67.5 496.133,-71.0514 542.07,-99.5321 566.583,-114.842"/>
<polygon fill="midnightblue" stroke="midnightblue" points="472.083,-57.719 461.494,-58.0546 469.981,-64.3959 472.083,-57.719"/>
</g>
<!-- Node12 -->
<g id="node12" class="node"><title>Node12</title>
<g id="a_node12"><a xlink:href="../../d5/d6a/classlms7002__pnlTBB__view.html#a0a3923122ca545d188709c9443130c72" target="_top" xlink:title="lms7002_pnlTBB_view\l::OnbtnTuneFilter">
<polygon fill="white" stroke="black" points="525,-49.5 525,-79.5 641,-79.5 641,-49.5 525,-49.5"/>
<text text-anchor="start" x="533" y="-67.5" font-family="Helvetica,sans-Serif" font-size="10.00">lms7002_pnlTBB_view</text>
<text text-anchor="middle" x="583" y="-56.5" font-family="Helvetica,sans-Serif" font-size="10.00">::OnbtnTuneFilter</text>
</a>
</g>
</g>
<!-- Node11&#45;&gt;Node12 -->
<g id="edge13" class="edge"><title>Node11&#45;&gt;Node12</title>
<path fill="none" stroke="midnightblue" d="M476.64,-53.9968C492.216,-55.5495 509.194,-57.2421 524.883,-58.8061"/>
<polygon fill="midnightblue" stroke="midnightblue" points="476.933,-50.5088 466.635,-52.9995 476.239,-57.4743 476.933,-50.5088"/>
</g>
<!-- Node13 -->
<g id="node13" class="node"><title>Node13</title>
<g id="a_node13"><a xlink:href="../../d9/d08/classlms7002__pnlRBB__view.html#a94ddb128eafecd0e6c8e11d6d6a2f5b9" target="_top" xlink:title="lms7002_pnlRBB_view\l::OnbtnTuneFilter">
<polygon fill="white" stroke="black" points="524,-0.5 524,-30.5 642,-30.5 642,-0.5 524,-0.5"/>
<text text-anchor="start" x="532" y="-18.5" font-family="Helvetica,sans-Serif" font-size="10.00">lms7002_pnlRBB_view</text>
<text text-anchor="middle" x="583" y="-7.5" font-family="Helvetica,sans-Serif" font-size="10.00">::OnbtnTuneFilter</text>
</a>
</g>
</g>
<!-- Node11&#45;&gt;Node13 -->
<g id="edge14" class="edge"><title>Node11&#45;&gt;Node13</title>
<path fill="none" stroke="midnightblue" d="M476.483,-37.1951C491.809,-34.0439 508.505,-30.6111 523.999,-27.4254"/>
<polygon fill="midnightblue" stroke="midnightblue" points="475.726,-33.7775 466.635,-39.2198 477.135,-40.6341 475.726,-33.7775"/>
</g>
</g>
</svg>
