<?xml version="1.0" encoding="UTF-8" standalone="no"?>
<!DOCTYPE svg PUBLIC "-//W3C//DTD SVG 1.1//EN"
 "http://www.w3.org/Graphics/SVG/1.1/DTD/svg11.dtd">
<!-- Generated by graphviz version 2.38.0 (20140413.2041)
 -->
<!-- Title: lime::LMS7002M::TuneTxFilter Pages: 1 -->
<!--zoomable 137 -->
<svg id="main" version="1.1" xmlns="http://www.w3.org/2000/svg" xmlns:xlink="http://www.w3.org/1999/xlink" xml:space="preserve" onload="init(evt)">
<style type="text/css"><![CDATA[
.edge:hover path { stroke: red; }
.edge:hover polygon { stroke: red; fill: red; }
]]></style>
<script type="text/javascript"><![CDATA[
var edges = document.getElementsByTagName('g');
if (edges && edges.length) {
  for (var i=0;i<edges.length;i++) {
    if (edges[i].id.substr(0,4)=='edge') {
      edges[i].setAttribute('class','edge');
    }
  }
}
]]></script>
        <defs>
                <circle id="rim" cx="0" cy="0" r="7"/>
                <circle id="rim2" cx="0" cy="0" r="3.5"/>
                <g id="zoomPlus">
                        <use xlink:href="#rim" fill="#404040">
                                <set attributeName="fill" to="#808080" begin="zoomplus.mouseover" end="zoomplus.mouseout"/>
                        </use>
                        <path d="M-4,0h8M0,-4v8" fill="none" stroke="white" stroke-width="1.5" pointer-events="none"/>
                </g>
                <g id="zoomMin">
                        <use xlink:href="#rim" fill="#404040">
                                <set attributeName="fill" to="#808080" begin="zoomminus.mouseover" end="zoomminus.mouseout"/>
                        </use>
                        <path d="M-4,0h8" fill="none" stroke="white" stroke-width="1.5" pointer-events="none"/>
                </g>
                <g id="dirArrow">
                        <path fill="none" stroke="white" stroke-width="1.5" d="M0,-3.0v7 M-2.5,-0.5L0,-3.0L2.5,-0.5"/>
                </g>
               <g id="resetDef">
                       <use xlink:href="#rim2" fill="#404040">
                               <set attributeName="fill" to="#808080" begin="reset.mouseover" end="reset.mouseout"/>
                       </use>
               </g>
        </defs>

<script type="text/javascript">
var viewWidth = 628;
var viewHeight = 137;
var sectionId = 'dynsection-160';
</script>
<script xlink:href="../../svgpan.js"/>
<svg id="graph" class="graph">
<g id="viewport">
<title>lime::LMS7002M::TuneTxFilter</title>
<polygon fill="white" stroke="none" points="-4,4 -4,-133 624,-133 624,4 -4,4"/>
<!-- Node1 -->
<g id="node1" class="node"><title>Node1</title>
<polygon fill="#bfbfbf" stroke="black" points="0,-79 0,-98 151,-98 151,-79 0,-79"/>
<text text-anchor="middle" x="75.5" y="-86" font-family="Helvetica,sans-Serif" font-size="10.00">lime::LMS7002M::TuneTxFilter</text>
</g>
<!-- Node2 -->
<g id="node2" class="node"><title>Node2</title>
<g id="a_node2"><a xlink:href="../../d3/d22/classlime_1_1LMS7__Device.html#a7146d8fec703bf34bc861841748587f8" target="_top" xlink:title="lime::LMS7_Device::\lConfigureTXLPF">
<polygon fill="white" stroke="black" points="187,-98.5 187,-128.5 295,-128.5 295,-98.5 187,-98.5"/>
<text text-anchor="start" x="195" y="-116.5" font-family="Helvetica,sans-Serif" font-size="10.00">lime::LMS7_Device::</text>
<text text-anchor="middle" x="241" y="-105.5" font-family="Helvetica,sans-Serif" font-size="10.00">ConfigureTXLPF</text>
</a>
</g>
</g>
<!-- Node1&#45;&gt;Node2 -->
<g id="edge1" class="edge"><title>Node1&#45;&gt;Node2</title>
<path fill="none" stroke="midnightblue" d="M148.944,-99.5771C161.733,-101.533 174.829,-103.535 186.959,-105.39"/>
<polygon fill="midnightblue" stroke="midnightblue" points="149.193,-96.0745 138.779,-98.0227 148.135,-102.994 149.193,-96.0745"/>
</g>
<!-- Node3 -->
<g id="node3" class="node"><title>Node3</title>
<g id="a_node3"><a xlink:href="../../d3/d22/classlime_1_1LMS7__Device.html#a780ffcbacad93e26e1cb2c988d2c647d" target="_top" xlink:title="lime::LMS7_Device::\lSetLPF">
<polygon fill="white" stroke="black" points="187,-49.5 187,-79.5 295,-79.5 295,-49.5 187,-49.5"/>
<text text-anchor="start" x="195" y="-67.5" font-family="Helvetica,sans-Serif" font-size="10.00">lime::LMS7_Device::</text>
<text text-anchor="middle" x="241" y="-56.5" font-family="Helvetica,sans-Serif" font-size="10.00">SetLPF</text>
</a>
</g>
</g>
<!-- Node1&#45;&gt;Node3 -->
<g id="edge2" class="edge"><title>Node1&#45;&gt;Node3</title>
<path fill="none" stroke="midnightblue" d="M151.556,-77.4826C163.502,-75.7291 175.64,-73.9474 186.94,-72.2886"/>
<polygon fill="midnightblue" stroke="midnightblue" points="150.975,-74.0303 141.589,-78.9456 151.992,-80.9561 150.975,-74.0303"/>
</g>
<!-- Node4 -->
<g id="node4" class="node"><title>Node4</title>
<g id="a_node4"><a xlink:href="../../d9/d90/classSoapyLMS7.html#a7244e8625357021c5c6ba08b3e5b01e2" target="_top" xlink:title="SoapyLMS7::setBandwidth">
<polygon fill="white" stroke="black" points="331,-93 331,-112 466,-112 466,-93 331,-93"/>
<text text-anchor="middle" x="398.5" y="-100" font-family="Helvetica,sans-Serif" font-size="10.00">SoapyLMS7::setBandwidth</text>
</a>
</g>
</g>
<!-- Node3&#45;&gt;Node4 -->
<g id="edge3" class="edge"><title>Node3&#45;&gt;Node4</title>
<path fill="none" stroke="midnightblue" d="M304.978,-79.8902C323.048,-84.3059 342.222,-88.9916 358.402,-92.9455"/>
<polygon fill="midnightblue" stroke="midnightblue" points="305.624,-76.4452 295.079,-77.4712 303.963,-83.2451 305.624,-76.4452"/>
</g>
<!-- Node5 -->
<g id="node5" class="node"><title>Node5</title>
<g id="a_node5"><a xlink:href="../../df/de1/lms7__api_8cpp.html#ad7c91857ba6e83bf060e5359420925a7" target="_top" xlink:title="LMS_SetLPFBW">
<polygon fill="white" stroke="black" points="352.5,-55 352.5,-74 444.5,-74 444.5,-55 352.5,-55"/>
<text text-anchor="middle" x="398.5" y="-62" font-family="Helvetica,sans-Serif" font-size="10.00">LMS_SetLPFBW</text>
</a>
</g>
</g>
<!-- Node3&#45;&gt;Node5 -->
<g id="edge4" class="edge"><title>Node3&#45;&gt;Node5</title>
<path fill="none" stroke="midnightblue" d="M305.31,-64.5C321.103,-64.5 337.719,-64.5 352.428,-64.5"/>
<polygon fill="midnightblue" stroke="midnightblue" points="305.079,-61.0001 295.079,-64.5 305.079,-68.0001 305.079,-61.0001"/>
</g>
<!-- Node9 -->
<g id="node9" class="node"><title>Node9</title>
<g id="a_node9"><a xlink:href="../../df/de1/lms7__api_8cpp.html#a034c656a4f48a2b5591e3f2256147dc0" target="_top" xlink:title="LMS_SetLPF">
<polygon fill="white" stroke="black" points="361,-17 361,-36 436,-36 436,-17 361,-17"/>
<text text-anchor="middle" x="398.5" y="-24" font-family="Helvetica,sans-Serif" font-size="10.00">LMS_SetLPF</text>
</a>
</g>
</g>
<!-- Node3&#45;&gt;Node9 -->
<g id="edge8" class="edge"><title>Node3&#45;&gt;Node9</title>
<path fill="none" stroke="midnightblue" d="M304.88,-49.1337C323.886,-44.4893 344.122,-39.5441 360.816,-35.4645"/>
<polygon fill="midnightblue" stroke="midnightblue" points="303.963,-45.7549 295.079,-51.5288 305.624,-52.5548 303.963,-45.7549"/>
</g>
<!-- Node6 -->
<g id="node6" class="node"><title>Node6</title>
<g id="a_node6"><a xlink:href="../../d1/d1f/singleRX_8cpp.html#a3c04138a5bfe5d72780bb7e82a18e627" target="_top" xlink:title="main">
<polygon fill="white" stroke="black" points="542,-99 542,-118 580,-118 580,-99 542,-99"/>
<text text-anchor="middle" x="561" y="-106" font-family="Helvetica,sans-Serif" font-size="10.00">main</text>
</a>
</g>
</g>
<!-- Node5&#45;&gt;Node6 -->
<g id="edge5" class="edge"><title>Node5&#45;&gt;Node6</title>
<path fill="none" stroke="midnightblue" d="M443.981,-76.6942C476.192,-85.5245 518.068,-97.0046 541.689,-103.48"/>
<polygon fill="midnightblue" stroke="midnightblue" points="444.896,-73.3158 434.326,-74.0473 443.045,-80.0668 444.896,-73.3158"/>
</g>
<!-- Node7 -->
<g id="node7" class="node"><title>Node7</title>
<g id="a_node7"><a xlink:href="../../d5/d6a/classlms7002__pnlTBB__view.html#a0a3923122ca545d188709c9443130c72" target="_top" xlink:title="lms7002_pnlTBB_view\l::OnbtnTuneFilter">
<polygon fill="white" stroke="black" points="503,-49.5 503,-79.5 619,-79.5 619,-49.5 503,-49.5"/>
<text text-anchor="start" x="511" y="-67.5" font-family="Helvetica,sans-Serif" font-size="10.00">lms7002_pnlTBB_view</text>
<text text-anchor="middle" x="561" y="-56.5" font-family="Helvetica,sans-Serif" font-size="10.00">::OnbtnTuneFilter</text>
</a>
</g>
</g>
<!-- Node5&#45;&gt;Node7 -->
<g id="edge6" class="edge"><title>Node5&#45;&gt;Node7</title>
<path fill="none" stroke="midnightblue" d="M454.64,-64.5C470.216,-64.5 487.194,-64.5 502.883,-64.5"/>
<polygon fill="midnightblue" stroke="midnightblue" points="454.635,-61.0001 444.635,-64.5 454.635,-68.0001 454.635,-61.0001"/>
</g>
<!-- Node8 -->
<g id="node8" class="node"><title>Node8</title>
<g id="a_node8"><a xlink:href="../../d9/d08/classlms7002__pnlRBB__view.html#a94ddb128eafecd0e6c8e11d6d6a2f5b9" target="_top" xlink:title="lms7002_pnlRBB_view\l::OnbtnTuneFilter">
<polygon fill="white" stroke="black" points="502,-0.5 502,-30.5 620,-30.5 620,-0.5 502,-0.5"/>
<text text-anchor="start" x="510" y="-18.5" font-family="Helvetica,sans-Serif" font-size="10.00">lms7002_pnlRBB_view</text>
<text text-anchor="middle" x="561" y="-7.5" font-family="Helvetica,sans-Serif" font-size="10.00">::OnbtnTuneFilter</text>
</a>
</g>
</g>
<!-- Node5&#45;&gt;Node8 -->
<g id="edge7" class="edge"><title>Node5&#45;&gt;Node8</title>
<path fill="none" stroke="midnightblue" d="M443.456,-52.1469C450.988,-49.9713 458.728,-47.6988 466,-45.5 481.577,-40.7901 498.538,-35.4445 513.711,-30.5836"/>
<polygon fill="midnightblue" stroke="midnightblue" points="442.378,-48.8148 433.731,-54.9366 444.308,-55.5435 442.378,-48.8148"/>
</g>
</g>
</svg>
        <g id="navigator" transform="translate(0 0)" fill="#404254">
                <rect fill="#f2f5e9" fill-opacity="0.5" stroke="#606060" stroke-width=".5" x="0" y="0" width="60" height="60"/>
                <use id="zoomplus" xlink:href="#zoomPlus" x="17" y="9" onmousedown="handleZoom(evt,'in')"/>
                <use id="zoomminus" xlink:href="#zoomMin" x="42" y="9" onmousedown="handleZoom(evt,'out')"/>
                <use id="reset" xlink:href="#resetDef" x="30" y="36" onmousedown="handleReset()"/>
                <g id="arrowUp" xlink:href="#dirArrow" transform="translate(30 24)" onmousedown="handlePan(0,-1)">
                  <use xlink:href="#rim" fill="#404040">
                        <set attributeName="fill" to="#808080" begin="arrowUp.mouseover" end="arrowUp.mouseout"/>
                  </use>
                  <path fill="none" stroke="white" stroke-width="1.5" d="M0,-3.0v7 M-2.5,-0.5L0,-3.0L2.5,-0.5"/>
                </g>
                <g id="arrowRight" xlink:href="#dirArrow" transform="rotate(90) translate(36 -43)" onmousedown="handlePan(1,0)">
                  <use xlink:href="#rim" fill="#404040">
                        <set attributeName="fill" to="#808080" begin="arrowRight.mouseover" end="arrowRight.mouseout"/>
                  </use>
                  <path fill="none" stroke="white" stroke-width="1.5" d="M0,-3.0v7 M-2.5,-0.5L0,-3.0L2.5,-0.5"/>
                </g>
                <g id="arrowDown" xlink:href="#dirArrow" transform="rotate(180) translate(-30 -48)" onmousedown="handlePan(0,1)">
                  <use xlink:href="#rim" fill="#404040">
                        <set attributeName="fill" to="#808080" begin="arrowDown.mouseover" end="arrowDown.mouseout"/>
                  </use>
                  <path fill="none" stroke="white" stroke-width="1.5" d="M0,-3.0v7 M-2.5,-0.5L0,-3.0L2.5,-0.5"/>
                </g>
                <g id="arrowLeft" xlink:href="#dirArrow" transform="rotate(270) translate(-36 17)" onmousedown="handlePan(-1,0)">
                  <use xlink:href="#rim" fill="#404040">
                        <set attributeName="fill" to="#808080" begin="arrowLeft.mouseover" end="arrowLeft.mouseout"/>
                  </use>
                  <path fill="none" stroke="white" stroke-width="1.5" d="M0,-3.0v7 M-2.5,-0.5L0,-3.0L2.5,-0.5"/>
                </g>
        </g>
        <svg viewBox="0 0 15 15" width="100%" height="30px" preserveAspectRatio="xMaxYMin meet">
         <g id="arrow_out" transform="scale(0.3 0.3)">
          <a xlink:href="classlime_1_1LMS7002M_aa0402e659a404652d67e24e9d7ca2923_icgraph_org.svg" target="_base">
           <rect id="button" ry="5" rx="5" y="6" x="6" height="38" width="38"
                fill="#f2f5e9" fill-opacity="0.5" stroke="#606060" stroke-width="1.0"/>
           <path id="arrow"
             d="M 11.500037,31.436501 C 11.940474,20.09759 22.043105,11.32322 32.158766,21.979434 L 37.068811,17.246167 C 37.068811,17.246167 37.088388,32 37.088388,32 L 22.160133,31.978069 C 22.160133,31.978069 26.997745,27.140456 26.997745,27.140456 C 18.528582,18.264221 13.291696,25.230495 11.500037,31.436501 z"
             style="fill:#404040;"/>
          </a>
         </g>
        </svg>
</svg>
