<?xml version="1.0" encoding="UTF-8" standalone="no"?>
<!DOCTYPE svg PUBLIC "-//W3C//DTD SVG 1.1//EN"
 "http://www.w3.org/Graphics/SVG/1.1/DTD/svg11.dtd">
<!-- Generated by graphviz version 2.38.0 (20140413.2041)
 -->
<!-- Title: lime::LMS7002M::CalibrateInternalADC Pages: 1 -->
<svg width="736pt" height="218pt"
 viewBox="0.00 0.00 736.00 218.00" xmlns="http://www.w3.org/2000/svg" xmlns:xlink="http://www.w3.org/1999/xlink">
<g id="graph0" class="graph" transform="scale(1 1) rotate(0) translate(4 214)">
<title>lime::LMS7002M::CalibrateInternalADC</title>
<polygon fill="white" stroke="none" points="-4,4 -4,-214 732,-214 732,4 -4,4"/>
<!-- Node1 -->
<g id="node1" class="node"><title>Node1</title>
<polygon fill="#bfbfbf" stroke="black" points="0,-90 0,-120 135,-120 135,-90 0,-90"/>
<text text-anchor="start" x="8" y="-108" font-family="Helvetica,sans-Serif" font-size="10.00">lime::LMS7002M::Calibrate</text>
<text text-anchor="middle" x="67.5" y="-97" font-family="Helvetica,sans-Serif" font-size="10.00">InternalADC</text>
</g>
<!-- Node2 -->
<g id="node2" class="node"><title>Node2</title>
<g id="a_node2"><a xlink:href="../../d5/d6c/namespacelime.html#ae9d8b86234e3827271197852facdc649" target="_top" xlink:title="Log an error message with formatting. ">
<polygon fill="white" stroke="black" points="197,-190.5 197,-209.5 257,-209.5 257,-190.5 197,-190.5"/>
<text text-anchor="middle" x="227" y="-197.5" font-family="Helvetica,sans-Serif" font-size="10.00">lime::error</text>
</a>
</g>
</g>
<!-- Node1&#45;&gt;Node2 -->
<g id="edge1" class="edge"><title>Node1&#45;&gt;Node2</title>
<path fill="none" stroke="midnightblue" d="M85.5373,-120.214C105.031,-136.982 138.472,-163.845 171,-181 176.026,-183.651 181.499,-186.054 186.98,-188.191"/>
<polygon fill="midnightblue" stroke="midnightblue" points="186.164,-191.618 196.758,-191.744 188.555,-185.039 186.164,-191.618"/>
</g>
<!-- Node4 -->
<g id="node4" class="node"><title>Node4</title>
<g id="a_node4"><a xlink:href="../../da/d87/spi_8h.html#a6ca6565d9a3c9b39a4ad5239f27665c7" target="_top" xlink:title="Get_SPI_Reg_bits">
<polygon fill="white" stroke="black" points="178,-152.5 178,-171.5 276,-171.5 276,-152.5 178,-152.5"/>
<text text-anchor="middle" x="227" y="-159.5" font-family="Helvetica,sans-Serif" font-size="10.00">Get_SPI_Reg_bits</text>
</a>
</g>
</g>
<!-- Node1&#45;&gt;Node4 -->
<g id="edge3" class="edge"><title>Node1&#45;&gt;Node4</title>
<path fill="none" stroke="midnightblue" d="M108.339,-120.006C127.285,-127.081 150.273,-135.579 171,-143 176.606,-145.007 182.545,-147.097 188.368,-149.125"/>
<polygon fill="midnightblue" stroke="midnightblue" points="187.383,-152.488 197.978,-152.455 189.675,-145.874 187.383,-152.488"/>
</g>
<!-- Node7 -->
<g id="node7" class="node"><title>Node7</title>
<g id="a_node7"><a xlink:href="../../d5/d6c/namespacelime.html#adc6af0cf8e0a70f3ef09fac1244f8c48" target="_top" xlink:title="lime::ReportError">
<polygon fill="white" stroke="black" points="549,-98.5 549,-117.5 640,-117.5 640,-98.5 549,-98.5"/>
<text text-anchor="middle" x="594.5" y="-105.5" font-family="Helvetica,sans-Serif" font-size="10.00">lime::ReportError</text>
</a>
</g>
</g>
<!-- Node1&#45;&gt;Node7 -->
<g id="edge12" class="edge"><title>Node1&#45;&gt;Node7</title>
<path fill="none" stroke="midnightblue" d="M135.151,-104.574C222.094,-104.15 378.934,-103.838 513,-106 521.339,-106.134 530.163,-106.315 538.793,-106.512"/>
<polygon fill="midnightblue" stroke="midnightblue" points="538.713,-110.012 548.794,-106.751 538.88,-103.013 538.713,-110.012"/>
</g>
<!-- Node9 -->
<g id="node9" class="node"><title>Node9</title>
<g id="a_node9"><a xlink:href="../../da/d87/spi_8h.html#aaf76507507e6a960fa0c8cb26585095d" target="_top" xlink:title="Modify_SPI_Reg_bits">
<polygon fill="white" stroke="black" points="171,-114.5 171,-133.5 283,-133.5 283,-114.5 171,-114.5"/>
<text text-anchor="middle" x="227" y="-121.5" font-family="Helvetica,sans-Serif" font-size="10.00">Modify_SPI_Reg_bits</text>
</a>
</g>
</g>
<!-- Node1&#45;&gt;Node9 -->
<g id="edge8" class="edge"><title>Node1&#45;&gt;Node9</title>
<path fill="none" stroke="midnightblue" d="M135.294,-113.058C143.639,-114.064 152.167,-115.093 160.492,-116.097"/>
<polygon fill="midnightblue" stroke="midnightblue" points="160.173,-119.584 170.52,-117.307 161.011,-112.635 160.173,-119.584"/>
</g>
<!-- Node11 -->
<g id="node11" class="node"><title>Node11</title>
<g id="a_node11"><a xlink:href="../../da/d87/spi_8h.html#abde20a13293589ccb0a691e2711098bf" target="_top" xlink:title="SPI_read">
<polygon fill="white" stroke="black" points="198.5,-38.5 198.5,-57.5 255.5,-57.5 255.5,-38.5 198.5,-38.5"/>
<text text-anchor="middle" x="227" y="-45.5" font-family="Helvetica,sans-Serif" font-size="10.00">SPI_read</text>
</a>
</g>
</g>
<!-- Node1&#45;&gt;Node11 -->
<g id="edge13" class="edge"><title>Node1&#45;&gt;Node11</title>
<path fill="none" stroke="midnightblue" d="M110.294,-89.8747C135.013,-80.9285 166.016,-69.7083 189.707,-61.1346"/>
<polygon fill="midnightblue" stroke="midnightblue" points="191.161,-64.3307 199.373,-57.6365 188.779,-57.7485 191.161,-64.3307"/>
</g>
<!-- Node12 -->
<g id="node12" class="node"><title>Node12</title>
<g id="a_node12"><a xlink:href="../../da/d87/spi_8h.html#ac7475dd5b46ee34421fb4cc4fb228b4d" target="_top" xlink:title="SPI_write">
<polygon fill="white" stroke="black" points="197.5,-0.5 197.5,-19.5 256.5,-19.5 256.5,-0.5 197.5,-0.5"/>
<text text-anchor="middle" x="227" y="-7.5" font-family="Helvetica,sans-Serif" font-size="10.00">SPI_write</text>
</a>
</g>
</g>
<!-- Node1&#45;&gt;Node12 -->
<g id="edge14" class="edge"><title>Node1&#45;&gt;Node12</title>
<path fill="none" stroke="midnightblue" d="M85.5373,-89.7855C105.031,-73.0177 138.472,-46.1548 171,-29 176.267,-26.2225 182.023,-23.7168 187.765,-21.505"/>
<polygon fill="midnightblue" stroke="midnightblue" points="189.102,-24.7438 197.326,-18.0641 186.732,-18.1574 189.102,-24.7438"/>
</g>
<!-- Node3 -->
<g id="node3" class="node"><title>Node3</title>
<g id="a_node3"><a xlink:href="../../d5/d6c/namespacelime.html#abec841ac666fc9321a10e1881cff2da0" target="_top" xlink:title="Log a message with formatting and specified logging level. ">
<polygon fill="white" stroke="black" points="322,-190.5 322,-209.5 375,-209.5 375,-190.5 322,-190.5"/>
<text text-anchor="middle" x="348.5" y="-197.5" font-family="Helvetica,sans-Serif" font-size="10.00">lime::log</text>
</a>
</g>
</g>
<!-- Node2&#45;&gt;Node3 -->
<g id="edge2" class="edge"><title>Node2&#45;&gt;Node3</title>
<path fill="none" stroke="midnightblue" d="M257.233,-200C273.598,-200 294.139,-200 311.49,-200"/>
<polygon fill="midnightblue" stroke="midnightblue" points="311.815,-203.5 321.815,-200 311.815,-196.5 311.815,-203.5"/>
</g>
<!-- Node5 -->
<g id="node5" class="node"><title>Node5</title>
<g id="a_node5"><a xlink:href="../../dd/d7e/spi_8cpp.html#a7dee89a3e8018d75340f8ffd14015284" target="_top" xlink:title="SPI_read">
<polygon fill="white" stroke="black" points="320,-152.5 320,-171.5 377,-171.5 377,-152.5 320,-152.5"/>
<text text-anchor="middle" x="348.5" y="-159.5" font-family="Helvetica,sans-Serif" font-size="10.00">SPI_read</text>
</a>
</g>
</g>
<!-- Node4&#45;&gt;Node5 -->
<g id="edge4" class="edge"><title>Node4&#45;&gt;Node5</title>
<path fill="none" stroke="midnightblue" d="M276.261,-162C287.338,-162 298.962,-162 309.532,-162"/>
<polygon fill="midnightblue" stroke="midnightblue" points="309.692,-165.5 319.692,-162 309.692,-158.5 309.692,-165.5"/>
</g>
<!-- Node6 -->
<g id="node6" class="node"><title>Node6</title>
<g id="a_node6"><a xlink:href="../../d2/de5/classlime_1_1IConnection.html#af3dfb39cc643d88c1196ded5d5cbecea" target="_top" xlink:title="Bulk SPI write/read transaction. ">
<polygon fill="white" stroke="black" points="414,-115 414,-145 513,-145 513,-115 414,-115"/>
<text text-anchor="start" x="422" y="-133" font-family="Helvetica,sans-Serif" font-size="10.00">lime::IConnection::</text>
<text text-anchor="middle" x="463.5" y="-122" font-family="Helvetica,sans-Serif" font-size="10.00">TransactSPI</text>
</a>
</g>
</g>
<!-- Node5&#45;&gt;Node6 -->
<g id="edge5" class="edge"><title>Node5&#45;&gt;Node6</title>
<path fill="none" stroke="midnightblue" d="M377.143,-154.172C385.387,-151.837 394.751,-149.186 404.183,-146.515"/>
<polygon fill="midnightblue" stroke="midnightblue" points="405.325,-149.829 413.993,-143.737 403.417,-143.094 405.325,-149.829"/>
</g>
<!-- Node6&#45;&gt;Node7 -->
<g id="edge6" class="edge"><title>Node6&#45;&gt;Node7</title>
<path fill="none" stroke="midnightblue" d="M513.269,-121.683C521.68,-120.248 530.47,-118.749 539.019,-117.291"/>
<polygon fill="midnightblue" stroke="midnightblue" points="539.639,-120.736 548.908,-115.605 538.462,-113.836 539.639,-120.736"/>
</g>
<!-- Node8 -->
<g id="node8" class="node"><title>Node8</title>
<g id="a_node8"><a xlink:href="../../d9/df5/Logger_8cpp.html#ada38bf01d6d691de953ed69268ea6516" target="_top" xlink:title="errToStr">
<polygon fill="white" stroke="black" points="676,-98.5 676,-117.5 728,-117.5 728,-98.5 676,-98.5"/>
<text text-anchor="middle" x="702" y="-105.5" font-family="Helvetica,sans-Serif" font-size="10.00">errToStr</text>
</a>
</g>
</g>
<!-- Node7&#45;&gt;Node8 -->
<g id="edge7" class="edge"><title>Node7&#45;&gt;Node8</title>
<path fill="none" stroke="midnightblue" d="M640.241,-108C648.676,-108 657.39,-108 665.494,-108"/>
<polygon fill="midnightblue" stroke="midnightblue" points="665.722,-111.5 675.722,-108 665.722,-104.5 665.722,-111.5"/>
</g>
<!-- Node9&#45;&gt;Node5 -->
<g id="edge9" class="edge"><title>Node9&#45;&gt;Node5</title>
<path fill="none" stroke="midnightblue" d="M258.155,-133.589C273.844,-138.578 293.175,-144.725 309.838,-150.024"/>
<polygon fill="midnightblue" stroke="midnightblue" points="309.222,-153.5 319.812,-153.195 311.343,-146.83 309.222,-153.5"/>
</g>
<!-- Node10 -->
<g id="node10" class="node"><title>Node10</title>
<g id="a_node10"><a xlink:href="../../dd/d7e/spi_8cpp.html#abf635d9f0da08fb2a479532b69852e60" target="_top" xlink:title="SPI_write">
<polygon fill="white" stroke="black" points="319,-114.5 319,-133.5 378,-133.5 378,-114.5 319,-114.5"/>
<text text-anchor="middle" x="348.5" y="-121.5" font-family="Helvetica,sans-Serif" font-size="10.00">SPI_write</text>
</a>
</g>
</g>
<!-- Node9&#45;&gt;Node10 -->
<g id="edge10" class="edge"><title>Node9&#45;&gt;Node10</title>
<path fill="none" stroke="midnightblue" d="M283.203,-124C291.889,-124 300.703,-124 308.907,-124"/>
<polygon fill="midnightblue" stroke="midnightblue" points="308.916,-127.5 318.916,-124 308.916,-120.5 308.916,-127.5"/>
</g>
<!-- Node10&#45;&gt;Node6 -->
<g id="edge11" class="edge"><title>Node10&#45;&gt;Node6</title>
<path fill="none" stroke="midnightblue" d="M378.015,-125.514C385.9,-125.933 394.759,-126.403 403.695,-126.878"/>
<polygon fill="midnightblue" stroke="midnightblue" points="403.597,-130.377 413.768,-127.412 403.968,-123.387 403.597,-130.377"/>
</g>
</g>
</svg>
