<?xml version="1.0" encoding="UTF-8" standalone="no"?>
<!DOCTYPE svg PUBLIC "-//W3C//DTD SVG 1.1//EN"
 "http://www.w3.org/Graphics/SVG/1.1/DTD/svg11.dtd">
<!-- Generated by graphviz version 2.38.0 (20140413.2041)
 -->
<!-- Title: lime::LMS7002M::CalibrateTx Pages: 1 -->
<svg width="698pt" height="214pt"
 viewBox="0.00 0.00 698.00 213.50" xmlns="http://www.w3.org/2000/svg" xmlns:xlink="http://www.w3.org/1999/xlink">
<g id="graph0" class="graph" transform="scale(1 1) rotate(0) translate(4 209.5)">
<title>lime::LMS7002M::CalibrateTx</title>
<polygon fill="white" stroke="none" points="-4,4 -4,-209.5 694,-209.5 694,4 -4,4"/>
<!-- Node1 -->
<g id="node1" class="node"><title>Node1</title>
<polygon fill="#bfbfbf" stroke="black" points="0,-123 0,-142 146,-142 146,-123 0,-123"/>
<text text-anchor="middle" x="73" y="-130" font-family="Helvetica,sans-Serif" font-size="10.00">lime::LMS7002M::CalibrateTx</text>
</g>
<!-- Node2 -->
<g id="node2" class="node"><title>Node2</title>
<g id="a_node2"><a xlink:href="../../d3/d22/classlime_1_1LMS7__Device.html#a0686d1e959e189bda8174aab28e79077" target="_top" xlink:title="lime::LMS7_Device::\lCalibrate">
<polygon fill="white" stroke="black" points="182,-117.5 182,-147.5 290,-147.5 290,-117.5 182,-117.5"/>
<text text-anchor="start" x="190" y="-135.5" font-family="Helvetica,sans-Serif" font-size="10.00">lime::LMS7_Device::</text>
<text text-anchor="middle" x="236" y="-124.5" font-family="Helvetica,sans-Serif" font-size="10.00">Calibrate</text>
</a>
</g>
</g>
<!-- Node1&#45;&gt;Node2 -->
<g id="edge1" class="edge"><title>Node1&#45;&gt;Node2</title>
<path fill="none" stroke="midnightblue" d="M156.233,-132.5C164.94,-132.5 173.619,-132.5 181.864,-132.5"/>
<polygon fill="midnightblue" stroke="midnightblue" points="156.024,-129 146.024,-132.5 156.024,-136 156.024,-129"/>
</g>
<!-- Node3 -->
<g id="node3" class="node"><title>Node3</title>
<g id="a_node3"><a xlink:href="../../d9/d90/classSoapyLMS7.html#a3ed334e7d2f7c168515f4b9ee6f46545" target="_top" xlink:title="SoapyLMS7::writeSetting">
<polygon fill="white" stroke="black" points="326,-142 326,-161 454,-161 454,-142 326,-142"/>
<text text-anchor="middle" x="390" y="-149" font-family="Helvetica,sans-Serif" font-size="10.00">SoapyLMS7::writeSetting</text>
</a>
</g>
</g>
<!-- Node2&#45;&gt;Node3 -->
<g id="edge2" class="edge"><title>Node2&#45;&gt;Node3</title>
<path fill="none" stroke="midnightblue" d="M300.35,-140.419C308.814,-141.477 317.493,-142.562 325.952,-143.619"/>
<polygon fill="midnightblue" stroke="midnightblue" points="300.519,-136.913 290.162,-139.145 299.651,-143.859 300.519,-136.913"/>
</g>
<!-- Node4 -->
<g id="node4" class="node"><title>Node4</title>
<g id="a_node4"><a xlink:href="../../df/de1/lms7__api_8cpp.html#a30253e6e7221c70d726b6bb06c69e43e" target="_top" xlink:title="LMS_Calibrate">
<polygon fill="white" stroke="black" points="349.5,-104 349.5,-123 430.5,-123 430.5,-104 349.5,-104"/>
<text text-anchor="middle" x="390" y="-111" font-family="Helvetica,sans-Serif" font-size="10.00">LMS_Calibrate</text>
</a>
</g>
</g>
<!-- Node2&#45;&gt;Node4 -->
<g id="edge3" class="edge"><title>Node2&#45;&gt;Node4</title>
<path fill="none" stroke="midnightblue" d="M300.303,-124.587C316.805,-122.524 334.13,-120.359 349.045,-118.494"/>
<polygon fill="midnightblue" stroke="midnightblue" points="299.651,-121.141 290.162,-125.855 300.519,-128.087 299.651,-121.141"/>
</g>
<!-- Node5 -->
<g id="node5" class="node"><title>Node5</title>
<g id="a_node5"><a xlink:href="../../d0/d43/LimeUtilCalSweep_8cpp.html#aa1ddf17da91809067879ee6cf16f04d1" target="_top" xlink:title="deviceCalSweep">
<polygon fill="white" stroke="black" points="508,-186 508,-205 598,-205 598,-186 508,-186"/>
<text text-anchor="middle" x="553" y="-193" font-family="Helvetica,sans-Serif" font-size="10.00">deviceCalSweep</text>
</a>
</g>
</g>
<!-- Node4&#45;&gt;Node5 -->
<g id="edge4" class="edge"><title>Node4&#45;&gt;Node5</title>
<path fill="none" stroke="midnightblue" d="M440.102,-125.112C444.987,-127.195 449.716,-129.638 454,-132.5 475.01,-146.536 469.022,-162.417 490,-176.5 495.702,-180.328 502.206,-183.41 508.808,-185.885"/>
<polygon fill="midnightblue" stroke="midnightblue" points="441.184,-121.78 430.592,-121.534 438.719,-128.331 441.184,-121.78"/>
</g>
<!-- Node7 -->
<g id="node7" class="node"><title>Node7</title>
<g id="a_node7"><a xlink:href="../../d1/d1f/singleRX_8cpp.html#a3c04138a5bfe5d72780bb7e82a18e627" target="_top" xlink:title="main">
<polygon fill="white" stroke="black" points="534,-148 534,-167 572,-167 572,-148 534,-148"/>
<text text-anchor="middle" x="553" y="-155" font-family="Helvetica,sans-Serif" font-size="10.00">main</text>
</a>
</g>
</g>
<!-- Node4&#45;&gt;Node7 -->
<g id="edge6" class="edge"><title>Node4&#45;&gt;Node7</title>
<path fill="none" stroke="midnightblue" d="M435.62,-125.694C467.931,-134.525 509.937,-146.005 533.632,-152.48"/>
<polygon fill="midnightblue" stroke="midnightblue" points="436.504,-122.307 425.935,-123.047 434.658,-129.06 436.504,-122.307"/>
</g>
<!-- Node8 -->
<g id="node8" class="node"><title>Node8</title>
<g id="a_node8"><a xlink:href="../../da/dd0/classlms7002__pnlCalibrations__view.html#ae3b090e81fe2c5165051d0de1ef70147" target="_top" xlink:title="lms7002_pnlCalibrations\l_view::OnbtnCalibrateAll">
<polygon fill="white" stroke="black" points="490.5,-98.5 490.5,-128.5 615.5,-128.5 615.5,-98.5 490.5,-98.5"/>
<text text-anchor="start" x="498.5" y="-116.5" font-family="Helvetica,sans-Serif" font-size="10.00">lms7002_pnlCalibrations</text>
<text text-anchor="middle" x="553" y="-105.5" font-family="Helvetica,sans-Serif" font-size="10.00">_view::OnbtnCalibrateAll</text>
</a>
</g>
</g>
<!-- Node4&#45;&gt;Node8 -->
<g id="edge7" class="edge"><title>Node4&#45;&gt;Node8</title>
<path fill="none" stroke="midnightblue" d="M440.811,-113.5C456.495,-113.5 474.007,-113.5 490.41,-113.5"/>
<polygon fill="midnightblue" stroke="midnightblue" points="440.798,-110 430.798,-113.5 440.798,-117 440.798,-110"/>
</g>
<!-- Node9 -->
<g id="node9" class="node"><title>Node9</title>
<g id="a_node9"><a xlink:href="../../da/dd0/classlms7002__pnlCalibrations__view.html#a5e1f35ed3deee842da3ceb80c907285f" target="_top" xlink:title="lms7002_pnlCalibrations\l_view::OnbtnCalibrateRx">
<polygon fill="white" stroke="black" points="490,-49.5 490,-79.5 616,-79.5 616,-49.5 490,-49.5"/>
<text text-anchor="start" x="498" y="-67.5" font-family="Helvetica,sans-Serif" font-size="10.00">lms7002_pnlCalibrations</text>
<text text-anchor="middle" x="553" y="-56.5" font-family="Helvetica,sans-Serif" font-size="10.00">_view::OnbtnCalibrateRx</text>
</a>
</g>
</g>
<!-- Node4&#45;&gt;Node9 -->
<g id="edge8" class="edge"><title>Node4&#45;&gt;Node9</title>
<path fill="none" stroke="midnightblue" d="M432.211,-100.957C453.665,-94.4281 480.051,-86.3976 502.593,-79.537"/>
<polygon fill="midnightblue" stroke="midnightblue" points="430.972,-97.6759 422.425,-103.936 433.01,-104.373 430.972,-97.6759"/>
</g>
<!-- Node10 -->
<g id="node10" class="node"><title>Node10</title>
<g id="a_node10"><a xlink:href="../../da/dd0/classlms7002__pnlCalibrations__view.html#a66789914ffb16b2eb0f508cdac365210" target="_top" xlink:title="lms7002_pnlCalibrations\l_view::OnbtnCalibrateTx">
<polygon fill="white" stroke="black" points="490.5,-0.5 490.5,-30.5 615.5,-30.5 615.5,-0.5 490.5,-0.5"/>
<text text-anchor="start" x="498.5" y="-18.5" font-family="Helvetica,sans-Serif" font-size="10.00">lms7002_pnlCalibrations</text>
<text text-anchor="middle" x="553" y="-7.5" font-family="Helvetica,sans-Serif" font-size="10.00">_view::OnbtnCalibrateTx</text>
</a>
</g>
</g>
<!-- Node4&#45;&gt;Node10 -->
<g id="edge9" class="edge"><title>Node4&#45;&gt;Node10</title>
<path fill="none" stroke="midnightblue" d="M409.638,-97.5146C428.845,-81.5962 460.117,-57.1892 490,-40.5 496.384,-36.9348 503.38,-33.6104 510.301,-30.624"/>
<polygon fill="midnightblue" stroke="midnightblue" points="407.356,-94.8609 401.947,-103.971 411.857,-100.222 407.356,-94.8609"/>
</g>
<!-- Node6 -->
<g id="node6" class="node"><title>Node6</title>
<g id="a_node6"><a xlink:href="../../d5/db6/LimeUtil_8cpp.html#a0ddf1224851353fc92bfbff6f499fa97" target="_top" xlink:title="main">
<polygon fill="white" stroke="black" points="652,-186 652,-205 690,-205 690,-186 652,-186"/>
<text text-anchor="middle" x="671" y="-193" font-family="Helvetica,sans-Serif" font-size="10.00">main</text>
</a>
</g>
</g>
<!-- Node5&#45;&gt;Node6 -->
<g id="edge5" class="edge"><title>Node5&#45;&gt;Node6</title>
<path fill="none" stroke="midnightblue" d="M608.412,-195.5C624.125,-195.5 640.191,-195.5 651.972,-195.5"/>
<polygon fill="midnightblue" stroke="midnightblue" points="608.186,-192 598.186,-195.5 608.186,-199 608.186,-192"/>
</g>
</g>
</svg>
