<?xml version="1.0" encoding="UTF-8" standalone="no"?>
<!DOCTYPE svg PUBLIC "-//W3C//DTD SVG 1.1//EN"
 "http://www.w3.org/Graphics/SVG/1.1/DTD/svg11.dtd">
<!-- Generated by graphviz version 2.38.0 (20140413.2041)
 -->
<!-- Title: lime::LMS7002M::SaveConfig Pages: 1 -->
<svg width="672pt" height="148pt"
 viewBox="0.00 0.00 672.00 148.00" xmlns="http://www.w3.org/2000/svg" xmlns:xlink="http://www.w3.org/1999/xlink">
<g id="graph0" class="graph" transform="scale(1 1) rotate(0) translate(4 144)">
<title>lime::LMS7002M::SaveConfig</title>
<polygon fill="white" stroke="none" points="-4,4 -4,-144 668,-144 668,4 -4,4"/>
<!-- Node1 -->
<g id="node1" class="node"><title>Node1</title>
<polygon fill="#bfbfbf" stroke="black" points="0,-77 0,-96 147,-96 147,-77 0,-77"/>
<text text-anchor="middle" x="73.5" y="-84" font-family="Helvetica,sans-Serif" font-size="10.00">lime::LMS7002M::SaveConfig</text>
</g>
<!-- Node2 -->
<g id="node2" class="node"><title>Node2</title>
<g id="a_node2"><a xlink:href="../../db/d1d/classlime_1_1LMS7002M.html#a770393845fa2d4aab5e74c33c31247e9" target="_top" xlink:title="Returns given parameter value from chip register. ">
<polygon fill="white" stroke="black" points="552,-109.5 552,-139.5 664,-139.5 664,-109.5 552,-109.5"/>
<text text-anchor="start" x="560" y="-127.5" font-family="Helvetica,sans-Serif" font-size="10.00">lime::LMS7002M::Get</text>
<text text-anchor="middle" x="608" y="-116.5" font-family="Helvetica,sans-Serif" font-size="10.00">_SPI_Reg_bits</text>
</a>
</g>
</g>
<!-- Node1&#45;&gt;Node2 -->
<g id="edge1" class="edge"><title>Node1&#45;&gt;Node2</title>
<path fill="none" stroke="midnightblue" d="M116.316,-96.0156C136.398,-100.319 160.857,-105.174 183,-108.5 329.596,-130.52 367.779,-129.943 516,-127.5 524.293,-127.363 533.009,-127.157 541.626,-126.914"/>
<polygon fill="midnightblue" stroke="midnightblue" points="541.775,-130.412 551.666,-126.616 541.566,-123.415 541.775,-130.412"/>
</g>
<!-- Node3 -->
<g id="node3" class="node"><title>Node3</title>
<g id="a_node3"><a xlink:href="../../db/d1d/classlime_1_1LMS7002M.html#abf38539b5505ed1314297b5439b1ae9d" target="_top" xlink:title="lime::LMS7002M::GetActive\lChannel">
<polygon fill="white" stroke="black" points="376,-87.5 376,-117.5 516,-117.5 516,-87.5 376,-87.5"/>
<text text-anchor="start" x="384" y="-105.5" font-family="Helvetica,sans-Serif" font-size="10.00">lime::LMS7002M::GetActive</text>
<text text-anchor="middle" x="446" y="-94.5" font-family="Helvetica,sans-Serif" font-size="10.00">Channel</text>
</a>
</g>
</g>
<!-- Node1&#45;&gt;Node3 -->
<g id="edge2" class="edge"><title>Node1&#45;&gt;Node3</title>
<path fill="none" stroke="midnightblue" d="M147.257,-89.642C210.169,-92.3589 300.94,-96.2788 365.694,-99.0752"/>
<polygon fill="midnightblue" stroke="midnightblue" points="365.714,-102.579 375.855,-99.514 366.016,-95.5857 365.714,-102.579"/>
</g>
<!-- Node4 -->
<g id="node4" class="node"><title>Node4</title>
<g id="a_node4"><a xlink:href="../../db/d1d/classlime_1_1LMS7002M.html#a68a6787a00fe743034350b6e83183c7c" target="_top" xlink:title="Returns reference clock in Hz used for SXT or SXR. ">
<polygon fill="white" stroke="black" points="183,-49.5 183,-79.5 340,-79.5 340,-49.5 183,-49.5"/>
<text text-anchor="start" x="191" y="-67.5" font-family="Helvetica,sans-Serif" font-size="10.00">lime::LMS7002M::GetReference</text>
<text text-anchor="middle" x="261.5" y="-56.5" font-family="Helvetica,sans-Serif" font-size="10.00">Clk_SX</text>
</a>
</g>
</g>
<!-- Node1&#45;&gt;Node4 -->
<g id="edge4" class="edge"><title>Node1&#45;&gt;Node4</title>
<path fill="none" stroke="midnightblue" d="M147.212,-77.8997C155.633,-76.9036 164.289,-75.8798 172.882,-74.8634"/>
<polygon fill="midnightblue" stroke="midnightblue" points="173.405,-78.3261 182.925,-73.6756 172.583,-71.3745 173.405,-78.3261"/>
</g>
<!-- Node5 -->
<g id="node5" class="node"><title>Node5</title>
<g id="a_node5"><a xlink:href="../../db/d1d/classlime_1_1LMS7002M.html#ac1a58f0eaceb678852f1460e09b4e4ba" target="_top" xlink:title="lime::LMS7002M::SetActive\lChannel">
<polygon fill="white" stroke="black" points="192,-0.5 192,-30.5 331,-30.5 331,-0.5 192,-0.5"/>
<text text-anchor="start" x="200" y="-18.5" font-family="Helvetica,sans-Serif" font-size="10.00">lime::LMS7002M::SetActive</text>
<text text-anchor="middle" x="261.5" y="-7.5" font-family="Helvetica,sans-Serif" font-size="10.00">Channel</text>
</a>
</g>
</g>
<!-- Node1&#45;&gt;Node5 -->
<g id="edge5" class="edge"><title>Node1&#45;&gt;Node5</title>
<path fill="none" stroke="midnightblue" d="M94.6297,-76.9976C116.214,-66.9944 151.62,-51.1164 183,-39.5 188.201,-37.5746 193.636,-35.6737 199.109,-33.8354"/>
<polygon fill="midnightblue" stroke="midnightblue" points="200.55,-37.046 208.96,-30.6021 198.367,-30.3951 200.55,-37.046"/>
</g>
<!-- Node3&#45;&gt;Node2 -->
<g id="edge3" class="edge"><title>Node3&#45;&gt;Node2</title>
<path fill="none" stroke="midnightblue" d="M516.248,-112.022C524.654,-113.177 533.221,-114.355 541.57,-115.503"/>
<polygon fill="midnightblue" stroke="midnightblue" points="541.235,-118.99 551.618,-116.885 542.188,-112.055 541.235,-118.99"/>
</g>
<!-- Node5&#45;&gt;Node3 -->
<g id="edge6" class="edge"><title>Node5&#45;&gt;Node3</title>
<path fill="none" stroke="midnightblue" d="M316.898,-30.5209C324.763,-33.2164 332.67,-36.2236 340,-39.5 366.374,-51.2892 394.334,-68.3142 414.765,-81.6945"/>
<polygon fill="midnightblue" stroke="midnightblue" points="413.044,-84.7528 423.311,-87.3664 416.915,-78.9204 413.044,-84.7528"/>
</g>
<!-- Node6 -->
<g id="node6" class="node"><title>Node6</title>
<g id="a_node6"><a xlink:href="../../db/d1d/classlime_1_1LMS7002M.html#afaf3843f7acef055ebbe0c0576ec8fee" target="_top" xlink:title="Change given parameter value. ">
<polygon fill="white" stroke="black" points="383.5,-0.5 383.5,-30.5 508.5,-30.5 508.5,-0.5 383.5,-0.5"/>
<text text-anchor="start" x="391.5" y="-18.5" font-family="Helvetica,sans-Serif" font-size="10.00">lime::LMS7002M::Modify</text>
<text text-anchor="middle" x="446" y="-7.5" font-family="Helvetica,sans-Serif" font-size="10.00">_SPI_Reg_bits</text>
</a>
</g>
</g>
<!-- Node5&#45;&gt;Node6 -->
<g id="edge7" class="edge"><title>Node5&#45;&gt;Node6</title>
<path fill="none" stroke="midnightblue" d="M331.235,-15.5C344.843,-15.5 359.163,-15.5 372.879,-15.5"/>
<polygon fill="midnightblue" stroke="midnightblue" points="373.228,-19.0001 383.228,-15.5 373.228,-12.0001 373.228,-19.0001"/>
</g>
</g>
</svg>
