<?xml version="1.0" encoding="UTF-8" standalone="no"?>
<!DOCTYPE svg PUBLIC "-//W3C//DTD SVG 1.1//EN"
 "http://www.w3.org/Graphics/SVG/1.1/DTD/svg11.dtd">
<!-- Generated by graphviz version 2.38.0 (20140413.2041)
 -->
<!-- Title: lime::LMS7002M::LMS7002M Pages: 1 -->
<svg width="329pt" height="78pt"
 viewBox="0.00 0.00 329.00 77.50" xmlns="http://www.w3.org/2000/svg" xmlns:xlink="http://www.w3.org/1999/xlink">
<g id="graph0" class="graph" transform="scale(1 1) rotate(0) translate(4 73.5)">
<title>lime::LMS7002M::LMS7002M</title>
<polygon fill="white" stroke="none" points="-4,4 -4,-73.5 325,-73.5 325,4 -4,4"/>
<!-- Node1 -->
<g id="node1" class="node"><title>Node1</title>
<polygon fill="#bfbfbf" stroke="black" points="0,-28 0,-47 146,-47 146,-28 0,-28"/>
<text text-anchor="middle" x="73" y="-35" font-family="Helvetica,sans-Serif" font-size="10.00">lime::LMS7002M::LMS7002M</text>
</g>
<!-- Node2 -->
<g id="node2" class="node"><title>Node2</title>
<g id="a_node2"><a xlink:href="../../d8/d9c/classlime_1_1MCU__BD.html#a13deb3b4c7fd4e9c8fb418e34a994df5" target="_top" xlink:title="lime::MCU_BD::Initialize">
<polygon fill="white" stroke="black" points="189,-50 189,-69 314,-69 314,-50 189,-50"/>
<text text-anchor="middle" x="251.5" y="-57" font-family="Helvetica,sans-Serif" font-size="10.00">lime::MCU_BD::Initialize</text>
</a>
</g>
</g>
<!-- Node1&#45;&gt;Node2 -->
<g id="edge1" class="edge"><title>Node1&#45;&gt;Node2</title>
<path fill="none" stroke="midnightblue" d="M146.044,-46.48C156.807,-47.8215 167.903,-49.2046 178.662,-50.5457"/>
<polygon fill="midnightblue" stroke="midnightblue" points="178.495,-54.0519 188.852,-51.8158 179.361,-47.1057 178.495,-54.0519"/>
</g>
<!-- Node3 -->
<g id="node3" class="node"><title>Node3</title>
<g id="a_node3"><a xlink:href="../../da/de5/classlime_1_1LMS7002M__RegistersMap.html#a75dcf9adfe17a3470af4e85d54fb7bc7" target="_top" xlink:title="lime::LMS7002M_Registers\lMap::InitializeDefaultValues">
<polygon fill="white" stroke="black" points="182,-0.5 182,-30.5 321,-30.5 321,-0.5 182,-0.5"/>
<text text-anchor="start" x="190" y="-18.5" font-family="Helvetica,sans-Serif" font-size="10.00">lime::LMS7002M_Registers</text>
<text text-anchor="middle" x="251.5" y="-7.5" font-family="Helvetica,sans-Serif" font-size="10.00">Map::InitializeDefaultValues</text>
</a>
</g>
</g>
<!-- Node1&#45;&gt;Node3 -->
<g id="edge2" class="edge"><title>Node1&#45;&gt;Node3</title>
<path fill="none" stroke="midnightblue" d="M146.044,-28.52C154.539,-27.4611 163.242,-26.3763 171.823,-25.3068"/>
<polygon fill="midnightblue" stroke="midnightblue" points="172.33,-28.7707 181.82,-24.0606 171.464,-21.8245 172.33,-28.7707"/>
</g>
</g>
</svg>
