<?xml version="1.0" encoding="UTF-8" standalone="no"?>
<!DOCTYPE svg PUBLIC "-//W3C//DTD SVG 1.1//EN"
 "http://www.w3.org/Graphics/SVG/1.1/DTD/svg11.dtd">
<!-- Generated by graphviz version 2.38.0 (20140413.2041)
 -->
<!-- Title: lms7002_pnlBIST_view Pages: 1 -->
<!--zoomable 645 -->
<svg id="main" version="1.1" xmlns="http://www.w3.org/2000/svg" xmlns:xlink="http://www.w3.org/1999/xlink" xml:space="preserve" onload="init(evt)">
<style type="text/css"><![CDATA[
.edge:hover path { stroke: red; }
.edge:hover polygon { stroke: red; fill: red; }
]]></style>
<script type="text/javascript"><![CDATA[
var edges = document.getElementsByTagName('g');
if (edges && edges.length) {
  for (var i=0;i<edges.length;i++) {
    if (edges[i].id.substr(0,4)=='edge') {
      edges[i].setAttribute('class','edge');
    }
  }
}
]]></script>
        <defs>
                <circle id="rim" cx="0" cy="0" r="7"/>
                <circle id="rim2" cx="0" cy="0" r="3.5"/>
                <g id="zoomPlus">
                        <use xlink:href="#rim" fill="#404040">
                                <set attributeName="fill" to="#808080" begin="zoomplus.mouseover" end="zoomplus.mouseout"/>
                        </use>
                        <path d="M-4,0h8M0,-4v8" fill="none" stroke="white" stroke-width="1.5" pointer-events="none"/>
                </g>
                <g id="zoomMin">
                        <use xlink:href="#rim" fill="#404040">
                                <set attributeName="fill" to="#808080" begin="zoomminus.mouseover" end="zoomminus.mouseout"/>
                        </use>
                        <path d="M-4,0h8" fill="none" stroke="white" stroke-width="1.5" pointer-events="none"/>
                </g>
                <g id="dirArrow">
                        <path fill="none" stroke="white" stroke-width="1.5" d="M0,-3.0v7 M-2.5,-0.5L0,-3.0L2.5,-0.5"/>
                </g>
               <g id="resetDef">
                       <use xlink:href="#rim2" fill="#404040">
                               <set attributeName="fill" to="#808080" begin="reset.mouseover" end="reset.mouseout"/>
                       </use>
               </g>
        </defs>

<script type="text/javascript">
var viewWidth = 427;
var viewHeight = 645;
var sectionId = 'dynsection-1';
</script>
<script xlink:href="../../svgpan.js"/>
<svg id="graph" class="graph">
<g id="viewport">
<title>lms7002_pnlBIST_view</title>
<polygon fill="white" stroke="none" points="-4,4 -4,-641 422.5,-641 422.5,4 -4,4"/>
<!-- Node1 -->
<g id="node1" class="node"><title>Node1</title>
<polygon fill="#bfbfbf" stroke="black" points="86,-0.5 86,-112.5 229,-112.5 229,-0.5 86,-0.5"/>
<text text-anchor="middle" x="157.5" y="-100.5" font-family="Helvetica,sans-Serif" font-size="10.00">lms7002_pnlBIST_view</text>
<polyline fill="none" stroke="black" points="86,-93.5 229,-93.5 "/>
<text text-anchor="start" x="94" y="-81.5" font-family="Helvetica,sans-Serif" font-size="10.00"># lmsControl</text>
<polyline fill="none" stroke="black" points="86,-74.5 229,-74.5 "/>
<text text-anchor="start" x="94" y="-62.5" font-family="Helvetica,sans-Serif" font-size="10.00">+ lms7002_pnlBIST_view()</text>
<text text-anchor="start" x="94" y="-51.5" font-family="Helvetica,sans-Serif" font-size="10.00">+ lms7002_pnlBIST_view()</text>
<text text-anchor="start" x="94" y="-40.5" font-family="Helvetica,sans-Serif" font-size="10.00">+ Initialize()</text>
<text text-anchor="start" x="94" y="-29.5" font-family="Helvetica,sans-Serif" font-size="10.00">+ UpdateGUI()</text>
<text text-anchor="start" x="94" y="-18.5" font-family="Helvetica,sans-Serif" font-size="10.00"># ParameterChangeHandler()</text>
<text text-anchor="start" x="94" y="-7.5" font-family="Helvetica,sans-Serif" font-size="10.00"># onbtnReadSignature()</text>
</g>
<!-- Node2 -->
<g id="node2" class="node"><title>Node2</title>
<g id="a_node2"><a xlink:href="../../dc/db9/classpnlBIST__view.html" target="_top" xlink:title="Class pnlBIST_view. ">
<polygon fill="white" stroke="black" points="0,-160.5 0,-360.5 143,-360.5 143,-160.5 0,-160.5"/>
<text text-anchor="middle" x="71.5" y="-348.5" font-family="Helvetica,sans-Serif" font-size="10.00">pnlBIST_view</text>
<polyline fill="none" stroke="black" points="0,-341.5 143,-341.5 "/>
<text text-anchor="start" x="8" y="-329.5" font-family="Helvetica,sans-Serif" font-size="10.00"># chkBENC</text>
<text text-anchor="start" x="8" y="-318.5" font-family="Helvetica,sans-Serif" font-size="10.00"># chkSDM_TSTO_CGEN</text>
<text text-anchor="start" x="8" y="-307.5" font-family="Helvetica,sans-Serif" font-size="10.00"># chkBENR</text>
<text text-anchor="start" x="8" y="-296.5" font-family="Helvetica,sans-Serif" font-size="10.00"># chkSDM_TSTO_SXR</text>
<text text-anchor="start" x="8" y="-285.5" font-family="Helvetica,sans-Serif" font-size="10.00"># chkBENT</text>
<text text-anchor="start" x="8" y="-274.5" font-family="Helvetica,sans-Serif" font-size="10.00"># chkSDM_TSTO_SXT</text>
<text text-anchor="start" x="8" y="-263.5" font-family="Helvetica,sans-Serif" font-size="10.00"># chkBSTART</text>
<text text-anchor="start" x="8" y="-252.5" font-family="Helvetica,sans-Serif" font-size="10.00"># ID_STATICTEXT2</text>
<text text-anchor="start" x="8" y="-241.5" font-family="Helvetica,sans-Serif" font-size="10.00"># lblBSTATE</text>
<text text-anchor="start" x="8" y="-230.5" font-family="Helvetica,sans-Serif" font-size="10.00"># ID_STATICTEXT1</text>
<text text-anchor="start" x="8" y="-219.5" font-family="Helvetica,sans-Serif" font-size="10.00">and 6 more...</text>
<polyline fill="none" stroke="black" points="0,-212.5 143,-212.5 "/>
<text text-anchor="start" x="8" y="-200.5" font-family="Helvetica,sans-Serif" font-size="10.00">+ pnlBIST_view()</text>
<text text-anchor="start" x="8" y="-189.5" font-family="Helvetica,sans-Serif" font-size="10.00">+ ~pnlBIST_view()</text>
<text text-anchor="start" x="8" y="-178.5" font-family="Helvetica,sans-Serif" font-size="10.00"># ParameterChangeHandler()</text>
<text text-anchor="start" x="8" y="-167.5" font-family="Helvetica,sans-Serif" font-size="10.00"># onbtnReadSignature()</text>
</a>
</g>
</g>
<!-- Node2&#45;&gt;Node1 -->
<g id="edge1" class="edge"><title>Node2&#45;&gt;Node1</title>
<path fill="none" stroke="midnightblue" d="M117.824,-150.693C123.415,-137.559 128.932,-124.602 133.991,-112.718"/>
<polygon fill="none" stroke="midnightblue" points="114.441,-149.703 113.744,-160.275 120.882,-152.445 114.441,-149.703"/>
</g>
<!-- Node3 -->
<g id="node3" class="node"><title>Node3</title>
<polygon fill="white" stroke="#bfbfbf" points="44.5,-441.5 44.5,-498.5 98.5,-498.5 98.5,-441.5 44.5,-441.5"/>
<text text-anchor="middle" x="71.5" y="-486.5" font-family="Helvetica,sans-Serif" font-size="10.00">wxPanel</text>
<polyline fill="none" stroke="#bfbfbf" points="44.5,-479.5 98.5,-479.5 "/>
<text text-anchor="middle" x="71.5" y="-467.5" font-family="Helvetica,sans-Serif" font-size="10.00"> </text>
<polyline fill="none" stroke="#bfbfbf" points="44.5,-460.5 98.5,-460.5 "/>
<text text-anchor="middle" x="71.5" y="-448.5" font-family="Helvetica,sans-Serif" font-size="10.00"> </text>
</g>
<!-- Node3&#45;&gt;Node2 -->
<g id="edge2" class="edge"><title>Node3&#45;&gt;Node2</title>
<path fill="none" stroke="midnightblue" d="M71.5,-431.264C71.5,-411.316 71.5,-385.798 71.5,-360.642"/>
<polygon fill="none" stroke="midnightblue" points="68.0001,-431.446 71.5,-441.446 75.0001,-431.446 68.0001,-431.446"/>
</g>
<!-- Node4 -->
<g id="node4" class="node"><title>Node4</title>
<polygon fill="white" stroke="#bfbfbf" points="161.5,-226.5 161.5,-294.5 273.5,-294.5 273.5,-226.5 161.5,-226.5"/>
<text text-anchor="start" x="169.5" y="-282.5" font-family="Helvetica,sans-Serif" font-size="10.00">std::map&lt; wxWindow</text>
<text text-anchor="middle" x="217.5" y="-271.5" font-family="Helvetica,sans-Serif" font-size="10.00"> *, LMS7Parameter &gt;</text>
<polyline fill="none" stroke="#bfbfbf" points="161.5,-264.5 273.5,-264.5 "/>
<text text-anchor="start" x="169.5" y="-252.5" font-family="Helvetica,sans-Serif" font-size="10.00">+ keys</text>
<polyline fill="none" stroke="#bfbfbf" points="161.5,-245.5 273.5,-245.5 "/>
<text text-anchor="middle" x="217.5" y="-233.5" font-family="Helvetica,sans-Serif" font-size="10.00"> </text>
</g>
<!-- Node4&#45;&gt;Node1 -->
<g id="edge3" class="edge"><title>Node4&#45;&gt;Node1</title>
<path fill="none" stroke="#404040" d="M207.592,-226.144C199.404,-198.578 187.521,-158.571 177.383,-124.44"/>
<polygon fill="none" stroke="#404040" points="177.296,-124.146 171.753,-119.534 173.879,-112.643 179.422,-117.256 177.296,-124.146"/>
<text text-anchor="middle" x="215.5" y="-134" font-family="Helvetica,sans-Serif" font-size="10.00"> #wndId2Enum</text>
</g>
<!-- Node5 -->
<g id="node5" class="node"><title>Node5</title>
<g id="a_node5"><a xlink:href="../../d5/d45/structLMS7Parameter.html" target="_top" xlink:title="{LMS7Parameter\n|+ address\l+ msb\l+ lsb\l+ defaultValue\l+ name\l+ tooltip\l+ msblsb\l|}">
<polygon fill="white" stroke="black" points="145,-408.5 145,-531.5 232,-531.5 232,-408.5 145,-408.5"/>
<text text-anchor="middle" x="188.5" y="-519.5" font-family="Helvetica,sans-Serif" font-size="10.00">LMS7Parameter</text>
<polyline fill="none" stroke="black" points="145,-512.5 232,-512.5 "/>
<text text-anchor="start" x="153" y="-500.5" font-family="Helvetica,sans-Serif" font-size="10.00">+ address</text>
<text text-anchor="start" x="153" y="-489.5" font-family="Helvetica,sans-Serif" font-size="10.00">+ msb</text>
<text text-anchor="start" x="153" y="-478.5" font-family="Helvetica,sans-Serif" font-size="10.00">+ lsb</text>
<text text-anchor="start" x="153" y="-467.5" font-family="Helvetica,sans-Serif" font-size="10.00">+ defaultValue</text>
<text text-anchor="start" x="153" y="-456.5" font-family="Helvetica,sans-Serif" font-size="10.00">+ name</text>
<text text-anchor="start" x="153" y="-445.5" font-family="Helvetica,sans-Serif" font-size="10.00">+ tooltip</text>
<text text-anchor="start" x="153" y="-434.5" font-family="Helvetica,sans-Serif" font-size="10.00">+ msblsb</text>
<polyline fill="none" stroke="black" points="145,-427.5 232,-427.5 "/>
<text text-anchor="middle" x="188.5" y="-415.5" font-family="Helvetica,sans-Serif" font-size="10.00"> </text>
</a>
</g>
</g>
<!-- Node5&#45;&gt;Node4 -->
<g id="edge4" class="edge"><title>Node5&#45;&gt;Node4</title>
<path fill="none" stroke="#404040" d="M196.966,-408.425C201.501,-375.977 206.994,-336.672 211.157,-306.883"/>
<polygon fill="none" stroke="#404040" points="211.192,-306.631 208.061,-300.135 212.853,-294.747 215.984,-301.243 211.192,-306.631"/>
<text text-anchor="middle" x="225" y="-382" font-family="Helvetica,sans-Serif" font-size="10.00"> +elements</text>
</g>
<!-- Node6 -->
<g id="node6" class="node"><title>Node6</title>
<g id="a_node6"><a xlink:title="STL class. ">
<polygon fill="white" stroke="#bfbfbf" points="250.5,-441.5 250.5,-498.5 342.5,-498.5 342.5,-441.5 250.5,-441.5"/>
<text text-anchor="middle" x="296.5" y="-486.5" font-family="Helvetica,sans-Serif" font-size="10.00">std::map&lt; K, T &gt;</text>
<polyline fill="none" stroke="#bfbfbf" points="250.5,-479.5 342.5,-479.5 "/>
<text text-anchor="middle" x="296.5" y="-467.5" font-family="Helvetica,sans-Serif" font-size="10.00"> </text>
<polyline fill="none" stroke="#bfbfbf" points="250.5,-460.5 342.5,-460.5 "/>
<text text-anchor="middle" x="296.5" y="-448.5" font-family="Helvetica,sans-Serif" font-size="10.00"> </text>
</a>
</g>
</g>
<!-- Node6&#45;&gt;Node4 -->
<g id="edge5" class="edge"><title>Node6&#45;&gt;Node4</title>
<path fill="none" stroke="orange" d="M282.425,-432.031C267.578,-393.035 244.398,-332.151 230.124,-294.659"/>
<polygon fill="orange" stroke="orange" points="279.18,-433.345 286.009,-441.446 285.722,-430.855 279.18,-433.345"/>
<text text-anchor="middle" x="342" y="-382" font-family="Helvetica,sans-Serif" font-size="10.00"> &lt; wxWindow *, LMS7Parameter &gt;</text>
</g>
<!-- Node7 -->
<g id="node7" class="node"><title>Node7</title>
<polygon fill="white" stroke="#bfbfbf" points="255,-579.5 255,-636.5 284,-636.5 284,-579.5 255,-579.5"/>
<text text-anchor="middle" x="269.5" y="-624.5" font-family="Helvetica,sans-Serif" font-size="10.00">K</text>
<polyline fill="none" stroke="#bfbfbf" points="255,-617.5 284,-617.5 "/>
<text text-anchor="middle" x="269.5" y="-605.5" font-family="Helvetica,sans-Serif" font-size="10.00"> </text>
<polyline fill="none" stroke="#bfbfbf" points="255,-598.5 284,-598.5 "/>
<text text-anchor="middle" x="269.5" y="-586.5" font-family="Helvetica,sans-Serif" font-size="10.00"> </text>
</g>
<!-- Node7&#45;&gt;Node6 -->
<g id="edge6" class="edge"><title>Node7&#45;&gt;Node6</title>
<path fill="none" stroke="#404040" d="M268.323,-579.303C268.365,-569.942 268.897,-559.466 270.5,-550 272.747,-536.73 276.805,-522.65 281.056,-510.11"/>
<polygon fill="none" stroke="#404040" points="281.117,-509.94 279.36,-502.946 285.14,-498.634 286.897,-505.628 281.117,-509.94"/>
<text text-anchor="middle" x="286" y="-553" font-family="Helvetica,sans-Serif" font-size="10.00"> +keys</text>
</g>
<!-- Node8 -->
<g id="node8" class="node"><title>Node8</title>
<polygon fill="white" stroke="#bfbfbf" points="309,-579.5 309,-636.5 338,-636.5 338,-579.5 309,-579.5"/>
<text text-anchor="middle" x="323.5" y="-624.5" font-family="Helvetica,sans-Serif" font-size="10.00">T</text>
<polyline fill="none" stroke="#bfbfbf" points="309,-617.5 338,-617.5 "/>
<text text-anchor="middle" x="323.5" y="-605.5" font-family="Helvetica,sans-Serif" font-size="10.00"> </text>
<polyline fill="none" stroke="#bfbfbf" points="309,-598.5 338,-598.5 "/>
<text text-anchor="middle" x="323.5" y="-586.5" font-family="Helvetica,sans-Serif" font-size="10.00"> </text>
</g>
<!-- Node8&#45;&gt;Node6 -->
<g id="edge7" class="edge"><title>Node8&#45;&gt;Node6</title>
<path fill="none" stroke="#404040" d="M318.036,-579.478C314.128,-559.792 308.807,-532.99 304.432,-510.953"/>
<polygon fill="none" stroke="#404040" points="304.385,-510.718 299.293,-505.612 302.048,-498.947 307.14,-504.054 304.385,-510.718"/>
<text text-anchor="middle" x="338" y="-553" font-family="Helvetica,sans-Serif" font-size="10.00"> +elements</text>
</g>
</g>
</svg>
        <g id="navigator" transform="translate(0 0)" fill="#404254">
                <rect fill="#f2f5e9" fill-opacity="0.5" stroke="#606060" stroke-width=".5" x="0" y="0" width="60" height="60"/>
                <use id="zoomplus" xlink:href="#zoomPlus" x="17" y="9" onmousedown="handleZoom(evt,'in')"/>
                <use id="zoomminus" xlink:href="#zoomMin" x="42" y="9" onmousedown="handleZoom(evt,'out')"/>
                <use id="reset" xlink:href="#resetDef" x="30" y="36" onmousedown="handleReset()"/>
                <g id="arrowUp" xlink:href="#dirArrow" transform="translate(30 24)" onmousedown="handlePan(0,-1)">
                  <use xlink:href="#rim" fill="#404040">
                        <set attributeName="fill" to="#808080" begin="arrowUp.mouseover" end="arrowUp.mouseout"/>
                  </use>
                  <path fill="none" stroke="white" stroke-width="1.5" d="M0,-3.0v7 M-2.5,-0.5L0,-3.0L2.5,-0.5"/>
                </g>
                <g id="arrowRight" xlink:href="#dirArrow" transform="rotate(90) translate(36 -43)" onmousedown="handlePan(1,0)">
                  <use xlink:href="#rim" fill="#404040">
                        <set attributeName="fill" to="#808080" begin="arrowRight.mouseover" end="arrowRight.mouseout"/>
                  </use>
                  <path fill="none" stroke="white" stroke-width="1.5" d="M0,-3.0v7 M-2.5,-0.5L0,-3.0L2.5,-0.5"/>
                </g>
                <g id="arrowDown" xlink:href="#dirArrow" transform="rotate(180) translate(-30 -48)" onmousedown="handlePan(0,1)">
                  <use xlink:href="#rim" fill="#404040">
                        <set attributeName="fill" to="#808080" begin="arrowDown.mouseover" end="arrowDown.mouseout"/>
                  </use>
                  <path fill="none" stroke="white" stroke-width="1.5" d="M0,-3.0v7 M-2.5,-0.5L0,-3.0L2.5,-0.5"/>
                </g>
                <g id="arrowLeft" xlink:href="#dirArrow" transform="rotate(270) translate(-36 17)" onmousedown="handlePan(-1,0)">
                  <use xlink:href="#rim" fill="#404040">
                        <set attributeName="fill" to="#808080" begin="arrowLeft.mouseover" end="arrowLeft.mouseout"/>
                  </use>
                  <path fill="none" stroke="white" stroke-width="1.5" d="M0,-3.0v7 M-2.5,-0.5L0,-3.0L2.5,-0.5"/>
                </g>
        </g>
        <svg viewBox="0 0 15 15" width="100%" height="30px" preserveAspectRatio="xMaxYMin meet">
         <g id="arrow_out" transform="scale(0.3 0.3)">
          <a xlink:href="classlms7002__pnlBIST__view__coll__graph_org.svg" target="_base">
           <rect id="button" ry="5" rx="5" y="6" x="6" height="38" width="38"
                fill="#f2f5e9" fill-opacity="0.5" stroke="#606060" stroke-width="1.0"/>
           <path id="arrow"
             d="M 11.500037,31.436501 C 11.940474,20.09759 22.043105,11.32322 32.158766,21.979434 L 37.068811,17.246167 C 37.068811,17.246167 37.088388,32 37.088388,32 L 22.160133,31.978069 C 22.160133,31.978069 26.997745,27.140456 26.997745,27.140456 C 18.528582,18.264221 13.291696,25.230495 11.500037,31.436501 z"
             style="fill:#404040;"/>
          </a>
         </g>
        </svg>
</svg>
