<?xml version="1.0" encoding="UTF-8" standalone="no"?>
<!DOCTYPE svg PUBLIC "-//W3C//DTD SVG 1.1//EN"
 "http://www.w3.org/Graphics/SVG/1.1/DTD/svg11.dtd">
<!-- Generated by graphviz version 2.38.0 (20140413.2041)
 -->
<!-- Title: dlgConnectionSettings_view::~dlgConnectionSettings_view Pages: 1 -->
<svg width="545pt" height="39pt"
 viewBox="0.00 0.00 545.00 39.00" xmlns="http://www.w3.org/2000/svg" xmlns:xlink="http://www.w3.org/1999/xlink">
<g id="graph0" class="graph" transform="scale(1 1) rotate(0) translate(4 35)">
<title>dlgConnectionSettings_view::~dlgConnectionSettings_view</title>
<polygon fill="white" stroke="none" points="-4,4 -4,-35 541,-35 541,4 -4,4"/>
<!-- Node1 -->
<g id="node1" class="node"><title>Node1</title>
<polygon fill="#bfbfbf" stroke="black" points="0,-0.5 0,-30.5 178,-30.5 178,-0.5 0,-0.5"/>
<text text-anchor="start" x="8" y="-18.5" font-family="Helvetica,sans-Serif" font-size="10.00">dlgConnectionSettings</text>
<text text-anchor="middle" x="89" y="-7.5" font-family="Helvetica,sans-Serif" font-size="10.00">_view::~dlgConnectionSettings_view</text>
</g>
<!-- Node2 -->
<g id="node2" class="node"><title>Node2</title>
<g id="a_node2"><a xlink:href="../../db/d52/classdlgConnectionSettings__view.html#a279fdf6862e9be2026ef3407c38fa07b" target="_top" xlink:title="dlgConnectionSettings\l_view::OnDisconnect">
<polygon fill="white" stroke="black" points="214,-0.5 214,-30.5 329,-30.5 329,-0.5 214,-0.5"/>
<text text-anchor="start" x="222" y="-18.5" font-family="Helvetica,sans-Serif" font-size="10.00">dlgConnectionSettings</text>
<text text-anchor="middle" x="271.5" y="-7.5" font-family="Helvetica,sans-Serif" font-size="10.00">_view::OnDisconnect</text>
</a>
</g>
</g>
<!-- Node1&#45;&gt;Node2 -->
<g id="edge1" class="edge"><title>Node1&#45;&gt;Node2</title>
<path fill="none" stroke="midnightblue" d="M188.396,-8.7745C197.114,-8.82707 205.73,-8.96424 213.915,-9.186"/>
<polygon fill="midnightblue" stroke="midnightblue" points="188.143,-5.27403 178.135,-8.75165 188.127,-12.274 188.143,-5.27403"/>
</g>
<!-- Node2&#45;&gt;Node1 -->
<g id="edge4" class="edge"><title>Node2&#45;&gt;Node1</title>
<path fill="none" stroke="midnightblue" d="M203.852,-22.0405C195.466,-22.1926 186.788,-22.2618 178.135,-22.2484"/>
<polygon fill="midnightblue" stroke="midnightblue" points="203.996,-25.5383 213.915,-21.814 203.839,-18.54 203.996,-25.5383"/>
</g>
<!-- Node3 -->
<g id="node3" class="node"><title>Node3</title>
<g id="a_node3"><a xlink:href="../../db/d52/classdlgConnectionSettings__view.html#a25f214435470afaf77ce96274f02c3e0" target="_top" xlink:title="dlgConnectionSettings\l_view::dlgConnectionSettings_view">
<polygon fill="white" stroke="black" points="365,-0.5 365,-30.5 537,-30.5 537,-0.5 365,-0.5"/>
<text text-anchor="start" x="373" y="-18.5" font-family="Helvetica,sans-Serif" font-size="10.00">dlgConnectionSettings</text>
<text text-anchor="middle" x="451" y="-7.5" font-family="Helvetica,sans-Serif" font-size="10.00">_view::dlgConnectionSettings_view</text>
</a>
</g>
</g>
<!-- Node2&#45;&gt;Node3 -->
<g id="edge2" class="edge"><title>Node2&#45;&gt;Node3</title>
<path fill="none" stroke="midnightblue" d="M339.186,-8.93893C347.545,-8.79303 356.182,-8.73164 364.776,-8.75474"/>
<polygon fill="midnightblue" stroke="midnightblue" points="339.071,-5.44051 329.15,-9.15879 339.224,-12.4388 339.071,-5.44051"/>
</g>
<!-- Node3&#45;&gt;Node2 -->
<g id="edge3" class="edge"><title>Node3&#45;&gt;Node2</title>
<path fill="none" stroke="midnightblue" d="M354.576,-22.233C345.904,-22.1888 337.318,-22.0582 329.15,-21.8412"/>
<polygon fill="midnightblue" stroke="midnightblue" points="354.771,-25.7331 364.776,-22.2453 354.78,-18.7332 354.771,-25.7331"/>
</g>
</g>
</svg>
