<?xml version="1.0" encoding="UTF-8" standalone="no"?>
<!DOCTYPE svg PUBLIC "-//W3C//DTD SVG 1.1//EN"
 "http://www.w3.org/Graphics/SVG/1.1/DTD/svg11.dtd">
<!-- Generated by graphviz version 2.38.0 (20140413.2041)
 -->
<!-- Title: dlgConnectionSettings_view::dlgConnectionSettings_view Pages: 1 -->
<!--zoomable 147 -->
<svg id="main" version="1.1" xmlns="http://www.w3.org/2000/svg" xmlns:xlink="http://www.w3.org/1999/xlink" xml:space="preserve" onload="init(evt)">
<style type="text/css"><![CDATA[
.edge:hover path { stroke: red; }
.edge:hover polygon { stroke: red; fill: red; }
]]></style>
<script type="text/javascript"><![CDATA[
var edges = document.getElementsByTagName('g');
if (edges && edges.length) {
  for (var i=0;i<edges.length;i++) {
    if (edges[i].id.substr(0,4)=='edge') {
      edges[i].setAttribute('class','edge');
    }
  }
}
]]></script>
        <defs>
                <circle id="rim" cx="0" cy="0" r="7"/>
                <circle id="rim2" cx="0" cy="0" r="3.5"/>
                <g id="zoomPlus">
                        <use xlink:href="#rim" fill="#404040">
                                <set attributeName="fill" to="#808080" begin="zoomplus.mouseover" end="zoomplus.mouseout"/>
                        </use>
                        <path d="M-4,0h8M0,-4v8" fill="none" stroke="white" stroke-width="1.5" pointer-events="none"/>
                </g>
                <g id="zoomMin">
                        <use xlink:href="#rim" fill="#404040">
                                <set attributeName="fill" to="#808080" begin="zoomminus.mouseover" end="zoomminus.mouseout"/>
                        </use>
                        <path d="M-4,0h8" fill="none" stroke="white" stroke-width="1.5" pointer-events="none"/>
                </g>
                <g id="dirArrow">
                        <path fill="none" stroke="white" stroke-width="1.5" d="M0,-3.0v7 M-2.5,-0.5L0,-3.0L2.5,-0.5"/>
                </g>
               <g id="resetDef">
                       <use xlink:href="#rim2" fill="#404040">
                               <set attributeName="fill" to="#808080" begin="reset.mouseover" end="reset.mouseout"/>
                       </use>
               </g>
        </defs>

<script type="text/javascript">
var viewWidth = 696;
var viewHeight = 147;
var sectionId = 'dynsection-2';
</script>
<script xlink:href="../../svgpan.js"/>
<svg id="graph" class="graph">
<g id="viewport">
<title>dlgConnectionSettings_view::dlgConnectionSettings_view</title>
<polygon fill="white" stroke="none" points="-4,4 -4,-143 692,-143 692,4 -4,4"/>
<!-- Node1 -->
<g id="node1" class="node"><title>Node1</title>
<polygon fill="#bfbfbf" stroke="black" points="0,-68.5 0,-98.5 172,-98.5 172,-68.5 0,-68.5"/>
<text text-anchor="start" x="8" y="-86.5" font-family="Helvetica,sans-Serif" font-size="10.00">dlgConnectionSettings</text>
<text text-anchor="middle" x="86" y="-75.5" font-family="Helvetica,sans-Serif" font-size="10.00">_view::dlgConnectionSettings_view</text>
</g>
<!-- Node2 -->
<g id="node2" class="node"><title>Node2</title>
<g id="a_node2"><a xlink:href="../../db/d52/classdlgConnectionSettings__view.html#a96a983fb0c57cc61e80023eb5a11360e" target="_top" xlink:title="dlgConnectionSettings\l_view::GetDeviceList">
<polygon fill="white" stroke="black" points="573,-108.5 573,-138.5 688,-138.5 688,-108.5 573,-108.5"/>
<text text-anchor="start" x="581" y="-126.5" font-family="Helvetica,sans-Serif" font-size="10.00">dlgConnectionSettings</text>
<text text-anchor="middle" x="630.5" y="-115.5" font-family="Helvetica,sans-Serif" font-size="10.00">_view::GetDeviceList</text>
</a>
</g>
</g>
<!-- Node1&#45;&gt;Node2 -->
<g id="edge1" class="edge"><title>Node1&#45;&gt;Node2</title>
<path fill="none" stroke="midnightblue" d="M152.955,-98.5405C170.736,-102.058 190.027,-105.39 208,-107.5 332.625,-122.132 479.258,-124.345 562.602,-124.208"/>
<polygon fill="midnightblue" stroke="midnightblue" points="562.704,-127.708 572.694,-124.18 562.684,-120.708 562.704,-127.708"/>
</g>
<!-- Node3 -->
<g id="node3" class="node"><title>Node3</title>
<g id="a_node3"><a xlink:href="../../db/d52/classdlgConnectionSettings__view.html#a84e14dc695167be03393629f5989f01e" target="_top" xlink:title="dlgConnectionSettings\l_view::OnCancel">
<polygon fill="white" stroke="black" points="573,-56.5 573,-86.5 688,-86.5 688,-56.5 573,-56.5"/>
<text text-anchor="start" x="581" y="-74.5" font-family="Helvetica,sans-Serif" font-size="10.00">dlgConnectionSettings</text>
<text text-anchor="middle" x="630.5" y="-63.5" font-family="Helvetica,sans-Serif" font-size="10.00">_view::OnCancel</text>
</a>
</g>
</g>
<!-- Node1&#45;&gt;Node3 -->
<g id="edge2" class="edge"><title>Node1&#45;&gt;Node3</title>
<path fill="none" stroke="midnightblue" d="M147.559,-68.4683C166.759,-64.3828 188.154,-60.5287 208,-58.5 353.464,-43.6298 391.134,-48.3001 537,-58.5 545.372,-59.0854 554.139,-59.9654 562.799,-60.9969"/>
<polygon fill="midnightblue" stroke="midnightblue" points="562.527,-64.4902 572.887,-62.2688 563.403,-57.5452 562.527,-64.4902"/>
</g>
<!-- Node4 -->
<g id="node4" class="node"><title>Node4</title>
<g id="a_node4"><a xlink:href="../../db/d52/classdlgConnectionSettings__view.html#a2d30afbc8d849ea8a69cf52820c01550" target="_top" xlink:title="dlgConnectionSettings\l_view::OnConnect">
<polygon fill="white" stroke="black" points="573,-0.5 573,-30.5 688,-30.5 688,-0.5 573,-0.5"/>
<text text-anchor="start" x="581" y="-18.5" font-family="Helvetica,sans-Serif" font-size="10.00">dlgConnectionSettings</text>
<text text-anchor="middle" x="630.5" y="-7.5" font-family="Helvetica,sans-Serif" font-size="10.00">_view::OnConnect</text>
</a>
</g>
</g>
<!-- Node1&#45;&gt;Node4 -->
<g id="edge3" class="edge"><title>Node1&#45;&gt;Node4</title>
<path fill="none" stroke="midnightblue" d="M128.147,-68.4133C151.293,-60.5648 180.902,-51.5735 208,-46.5 331.756,-23.3295 478.981,-17.2929 562.611,-15.8312"/>
<polygon fill="midnightblue" stroke="midnightblue" points="562.794,-19.3288 572.738,-15.6712 562.684,-12.3297 562.794,-19.3288"/>
</g>
<!-- Node5 -->
<g id="node5" class="node"><title>Node5</title>
<g id="a_node5"><a xlink:href="../../db/d52/classdlgConnectionSettings__view.html#a279fdf6862e9be2026ef3407c38fa07b" target="_top" xlink:title="dlgConnectionSettings\l_view::OnDisconnect">
<polygon fill="white" stroke="black" points="208,-68.5 208,-98.5 323,-98.5 323,-68.5 208,-68.5"/>
<text text-anchor="start" x="216" y="-86.5" font-family="Helvetica,sans-Serif" font-size="10.00">dlgConnectionSettings</text>
<text text-anchor="middle" x="265.5" y="-75.5" font-family="Helvetica,sans-Serif" font-size="10.00">_view::OnDisconnect</text>
</a>
</g>
</g>
<!-- Node1&#45;&gt;Node5 -->
<g id="edge4" class="edge"><title>Node1&#45;&gt;Node5</title>
<path fill="none" stroke="midnightblue" d="M172.111,-76.755C180.713,-76.7312 189.362,-76.792 197.732,-76.9375"/>
<polygon fill="midnightblue" stroke="midnightblue" points="197.707,-80.4377 207.781,-77.157 197.86,-73.4394 197.707,-80.4377"/>
</g>
<!-- Node5&#45;&gt;Node1 -->
<g id="edge5" class="edge"><title>Node5&#45;&gt;Node1</title>
<path fill="none" stroke="midnightblue" d="M207.781,-89.843C199.602,-90.0598 191.004,-90.1899 182.322,-90.2335"/>
<polygon fill="midnightblue" stroke="midnightblue" points="182.107,-86.7337 172.111,-90.245 182.115,-93.7337 182.107,-86.7337"/>
</g>
<!-- Node6 -->
<g id="node6" class="node"><title>Node6</title>
<g id="a_node6"><a xlink:href="../../db/d52/classdlgConnectionSettings__view.html#a852ac3f44bb5b58fd36c326b839c6615" target="_top" xlink:title="dlgConnectionSettings\l_view::~dlgConnectionSettings_view">
<polygon fill="white" stroke="black" points="359,-68.5 359,-98.5 537,-98.5 537,-68.5 359,-68.5"/>
<text text-anchor="start" x="367" y="-86.5" font-family="Helvetica,sans-Serif" font-size="10.00">dlgConnectionSettings</text>
<text text-anchor="middle" x="448" y="-75.5" font-family="Helvetica,sans-Serif" font-size="10.00">_view::~dlgConnectionSettings_view</text>
</a>
</g>
</g>
<!-- Node5&#45;&gt;Node6 -->
<g id="edge6" class="edge"><title>Node5&#45;&gt;Node6</title>
<path fill="none" stroke="midnightblue" d="M323.116,-77.1852C331.29,-76.9639 339.894,-76.827 348.6,-76.7745"/>
<polygon fill="midnightblue" stroke="midnightblue" points="348.854,-80.2741 358.846,-76.7516 348.839,-73.2741 348.854,-80.2741"/>
</g>
<!-- Node6&#45;&gt;Node2 -->
<g id="edge7" class="edge"><title>Node6&#45;&gt;Node2</title>
<path fill="none" stroke="midnightblue" d="M516.725,-98.5083C531.906,-101.873 547.995,-105.438 563.121,-108.79"/>
<polygon fill="midnightblue" stroke="midnightblue" points="562.382,-112.211 572.902,-110.958 563.896,-105.377 562.382,-112.211"/>
</g>
<!-- Node6&#45;&gt;Node3 -->
<g id="edge9" class="edge"><title>Node6&#45;&gt;Node3</title>
<path fill="none" stroke="midnightblue" d="M537.135,-77.6406C545.788,-77.0654 554.466,-76.4884 562.852,-75.9309"/>
<polygon fill="midnightblue" stroke="midnightblue" points="563.169,-79.4176 572.915,-75.2619 562.705,-72.4331 563.169,-79.4176"/>
</g>
<!-- Node6&#45;&gt;Node4 -->
<g id="edge8" class="edge"><title>Node6&#45;&gt;Node4</title>
<path fill="none" stroke="midnightblue" d="M489.059,-68.4086C515.933,-58.2843 551.513,-44.8802 580.136,-34.0971"/>
<polygon fill="midnightblue" stroke="midnightblue" points="581.429,-37.35 589.553,-30.5492 578.961,-30.7994 581.429,-37.35"/>
</g>
<!-- Node6&#45;&gt;Node5 -->
<g id="edge10" class="edge"><title>Node6&#45;&gt;Node5</title>
<path fill="none" stroke="midnightblue" d="M358.846,-90.2484C350.206,-90.2617 341.54,-90.1925 333.165,-90.0408"/>
<polygon fill="midnightblue" stroke="midnightblue" points="333.192,-86.5406 323.116,-89.8148 333.035,-93.5389 333.192,-86.5406"/>
</g>
</g>
</svg>
        <g id="navigator" transform="translate(0 0)" fill="#404254">
                <rect fill="#f2f5e9" fill-opacity="0.5" stroke="#606060" stroke-width=".5" x="0" y="0" width="60" height="60"/>
                <use id="zoomplus" xlink:href="#zoomPlus" x="17" y="9" onmousedown="handleZoom(evt,'in')"/>
                <use id="zoomminus" xlink:href="#zoomMin" x="42" y="9" onmousedown="handleZoom(evt,'out')"/>
                <use id="reset" xlink:href="#resetDef" x="30" y="36" onmousedown="handleReset()"/>
                <g id="arrowUp" xlink:href="#dirArrow" transform="translate(30 24)" onmousedown="handlePan(0,-1)">
                  <use xlink:href="#rim" fill="#404040">
                        <set attributeName="fill" to="#808080" begin="arrowUp.mouseover" end="arrowUp.mouseout"/>
                  </use>
                  <path fill="none" stroke="white" stroke-width="1.5" d="M0,-3.0v7 M-2.5,-0.5L0,-3.0L2.5,-0.5"/>
                </g>
                <g id="arrowRight" xlink:href="#dirArrow" transform="rotate(90) translate(36 -43)" onmousedown="handlePan(1,0)">
                  <use xlink:href="#rim" fill="#404040">
                        <set attributeName="fill" to="#808080" begin="arrowRight.mouseover" end="arrowRight.mouseout"/>
                  </use>
                  <path fill="none" stroke="white" stroke-width="1.5" d="M0,-3.0v7 M-2.5,-0.5L0,-3.0L2.5,-0.5"/>
                </g>
                <g id="arrowDown" xlink:href="#dirArrow" transform="rotate(180) translate(-30 -48)" onmousedown="handlePan(0,1)">
                  <use xlink:href="#rim" fill="#404040">
                        <set attributeName="fill" to="#808080" begin="arrowDown.mouseover" end="arrowDown.mouseout"/>
                  </use>
                  <path fill="none" stroke="white" stroke-width="1.5" d="M0,-3.0v7 M-2.5,-0.5L0,-3.0L2.5,-0.5"/>
                </g>
                <g id="arrowLeft" xlink:href="#dirArrow" transform="rotate(270) translate(-36 17)" onmousedown="handlePan(-1,0)">
                  <use xlink:href="#rim" fill="#404040">
                        <set attributeName="fill" to="#808080" begin="arrowLeft.mouseover" end="arrowLeft.mouseout"/>
                  </use>
                  <path fill="none" stroke="white" stroke-width="1.5" d="M0,-3.0v7 M-2.5,-0.5L0,-3.0L2.5,-0.5"/>
                </g>
        </g>
        <svg viewBox="0 0 15 15" width="100%" height="30px" preserveAspectRatio="xMaxYMin meet">
         <g id="arrow_out" transform="scale(0.3 0.3)">
          <a xlink:href="classdlgConnectionSettings__view_a25f214435470afaf77ce96274f02c3e0_cgraph_org.svg" target="_base">
           <rect id="button" ry="5" rx="5" y="6" x="6" height="38" width="38"
                fill="#f2f5e9" fill-opacity="0.5" stroke="#606060" stroke-width="1.0"/>
           <path id="arrow"
             d="M 11.500037,31.436501 C 11.940474,20.09759 22.043105,11.32322 32.158766,21.979434 L 37.068811,17.246167 C 37.068811,17.246167 37.088388,32 37.088388,32 L 22.160133,31.978069 C 22.160133,31.978069 26.997745,27.140456 26.997745,27.140456 C 18.528582,18.264221 13.291696,25.230495 11.500037,31.436501 z"
             style="fill:#404040;"/>
          </a>
         </g>
        </svg>
</svg>
