<?xml version="1.0" encoding="UTF-8" standalone="no"?>
<!DOCTYPE svg PUBLIC "-//W3C//DTD SVG 1.1//EN"
 "http://www.w3.org/Graphics/SVG/1.1/DTD/svg11.dtd">
<!-- Generated by graphviz version 2.38.0 (20140413.2041)
 -->
<!-- Title: dlgConnectionSettings_view::OnDisconnect Pages: 1 -->
<svg width="488pt" height="137pt"
 viewBox="0.00 0.00 488.00 137.00" xmlns="http://www.w3.org/2000/svg" xmlns:xlink="http://www.w3.org/1999/xlink">
<g id="graph0" class="graph" transform="scale(1 1) rotate(0) translate(4 133)">
<title>dlgConnectionSettings_view::OnDisconnect</title>
<polygon fill="white" stroke="none" points="-4,4 -4,-133 484,-133 484,4 -4,4"/>
<!-- Node1 -->
<g id="node1" class="node"><title>Node1</title>
<polygon fill="#bfbfbf" stroke="black" points="0,-48.5 0,-78.5 115,-78.5 115,-48.5 0,-48.5"/>
<text text-anchor="start" x="8" y="-66.5" font-family="Helvetica,sans-Serif" font-size="10.00">dlgConnectionSettings</text>
<text text-anchor="middle" x="57.5" y="-55.5" font-family="Helvetica,sans-Serif" font-size="10.00">_view::OnDisconnect</text>
</g>
<!-- Node2 -->
<g id="node2" class="node"><title>Node2</title>
<g id="a_node2"><a xlink:href="../../db/d52/classdlgConnectionSettings__view.html#a25f214435470afaf77ce96274f02c3e0" target="_top" xlink:title="dlgConnectionSettings\l_view::dlgConnectionSettings_view">
<polygon fill="white" stroke="black" points="154,-73.5 154,-103.5 326,-103.5 326,-73.5 154,-73.5"/>
<text text-anchor="start" x="162" y="-91.5" font-family="Helvetica,sans-Serif" font-size="10.00">dlgConnectionSettings</text>
<text text-anchor="middle" x="240" y="-80.5" font-family="Helvetica,sans-Serif" font-size="10.00">_view::dlgConnectionSettings_view</text>
</a>
</g>
</g>
<!-- Node1&#45;&gt;Node2 -->
<g id="edge1" class="edge"><title>Node1&#45;&gt;Node2</title>
<path fill="none" stroke="midnightblue" d="M115.116,-65.0267C131.537,-66.8567 149.692,-69.2671 166.924,-71.8903"/>
<polygon fill="midnightblue" stroke="midnightblue" points="166.523,-75.37 176.943,-73.4566 167.604,-68.454 166.523,-75.37"/>
</g>
<!-- Node6 -->
<g id="node6" class="node"><title>Node6</title>
<g id="a_node6"><a xlink:href="../../db/d52/classdlgConnectionSettings__view.html#a852ac3f44bb5b58fd36c326b839c6615" target="_top" xlink:title="dlgConnectionSettings\l_view::~dlgConnectionSettings_view">
<polygon fill="white" stroke="black" points="151,-24.5 151,-54.5 329,-54.5 329,-24.5 151,-24.5"/>
<text text-anchor="start" x="159" y="-42.5" font-family="Helvetica,sans-Serif" font-size="10.00">dlgConnectionSettings</text>
<text text-anchor="middle" x="240" y="-31.5" font-family="Helvetica,sans-Serif" font-size="10.00">_view::~dlgConnectionSettings_view</text>
</a>
</g>
</g>
<!-- Node1&#45;&gt;Node6 -->
<g id="edge6" class="edge"><title>Node1&#45;&gt;Node6</title>
<path fill="none" stroke="midnightblue" d="M115.116,-49.6573C123.379,-48.3349 132.081,-47.0405 140.883,-45.8188"/>
<polygon fill="midnightblue" stroke="midnightblue" points="141.405,-49.2802 150.846,-44.4729 140.468,-42.3432 141.405,-49.2802"/>
</g>
<!-- Node2&#45;&gt;Node1 -->
<g id="edge5" class="edge"><title>Node2&#45;&gt;Node1</title>
<path fill="none" stroke="midnightblue" d="M153.828,-83.4438C144.184,-82.1442 134.462,-80.7308 125.105,-79.2648"/>
<polygon fill="midnightblue" stroke="midnightblue" points="125.545,-75.7907 115.116,-77.6564 124.432,-82.7017 125.545,-75.7907"/>
</g>
<!-- Node3 -->
<g id="node3" class="node"><title>Node3</title>
<g id="a_node3"><a xlink:href="../../db/d52/classdlgConnectionSettings__view.html#a96a983fb0c57cc61e80023eb5a11360e" target="_top" xlink:title="dlgConnectionSettings\l_view::GetDeviceList">
<polygon fill="white" stroke="black" points="365,-98.5 365,-128.5 480,-128.5 480,-98.5 365,-98.5"/>
<text text-anchor="start" x="373" y="-116.5" font-family="Helvetica,sans-Serif" font-size="10.00">dlgConnectionSettings</text>
<text text-anchor="middle" x="422.5" y="-105.5" font-family="Helvetica,sans-Serif" font-size="10.00">_view::GetDeviceList</text>
</a>
</g>
</g>
<!-- Node2&#45;&gt;Node3 -->
<g id="edge2" class="edge"><title>Node2&#45;&gt;Node3</title>
<path fill="none" stroke="midnightblue" d="M326.229,-100.305C335.881,-101.641 345.611,-102.989 354.974,-104.286"/>
<polygon fill="midnightblue" stroke="midnightblue" points="354.583,-107.765 364.969,-105.67 355.544,-100.831 354.583,-107.765"/>
</g>
<!-- Node4 -->
<g id="node4" class="node"><title>Node4</title>
<g id="a_node4"><a xlink:href="../../db/d52/classdlgConnectionSettings__view.html#a84e14dc695167be03393629f5989f01e" target="_top" xlink:title="dlgConnectionSettings\l_view::OnCancel">
<polygon fill="white" stroke="black" points="365,-49.5 365,-79.5 480,-79.5 480,-49.5 365,-49.5"/>
<text text-anchor="start" x="373" y="-67.5" font-family="Helvetica,sans-Serif" font-size="10.00">dlgConnectionSettings</text>
<text text-anchor="middle" x="422.5" y="-56.5" font-family="Helvetica,sans-Serif" font-size="10.00">_view::OnCancel</text>
</a>
</g>
</g>
<!-- Node2&#45;&gt;Node4 -->
<g id="edge3" class="edge"><title>Node2&#45;&gt;Node4</title>
<path fill="none" stroke="midnightblue" d="M326.229,-77.1677C335.881,-75.8842 345.611,-74.5905 354.974,-73.3456"/>
<polygon fill="midnightblue" stroke="midnightblue" points="355.518,-76.8042 364.969,-72.0166 354.595,-69.8653 355.518,-76.8042"/>
</g>
<!-- Node5 -->
<g id="node5" class="node"><title>Node5</title>
<g id="a_node5"><a xlink:href="../../db/d52/classdlgConnectionSettings__view.html#a2d30afbc8d849ea8a69cf52820c01550" target="_top" xlink:title="dlgConnectionSettings\l_view::OnConnect">
<polygon fill="white" stroke="black" points="365,-0.5 365,-30.5 480,-30.5 480,-0.5 365,-0.5"/>
<text text-anchor="start" x="373" y="-18.5" font-family="Helvetica,sans-Serif" font-size="10.00">dlgConnectionSettings</text>
<text text-anchor="middle" x="422.5" y="-7.5" font-family="Helvetica,sans-Serif" font-size="10.00">_view::OnConnect</text>
</a>
</g>
</g>
<!-- Node2&#45;&gt;Node5 -->
<g id="edge4" class="edge"><title>Node2&#45;&gt;Node5</title>
<path fill="none" stroke="midnightblue" d="M305.773,-73.4142C313.735,-70.8108 321.649,-67.8456 329,-64.5 346.502,-56.534 348.146,-49.7578 365,-40.5 368.445,-38.6079 372.061,-36.7452 375.729,-34.9424"/>
<polygon fill="midnightblue" stroke="midnightblue" points="377.348,-38.0482 384.884,-30.6015 374.349,-31.7231 377.348,-38.0482"/>
</g>
<!-- Node6&#45;&gt;Node1 -->
<g id="edge10" class="edge"><title>Node6&#45;&gt;Node1</title>
<path fill="none" stroke="midnightblue" d="M174.718,-54.5424C158.754,-56.9864 141.606,-59.2839 125.515,-61.1366"/>
<polygon fill="midnightblue" stroke="midnightblue" points="124.671,-57.7085 115.116,-62.2869 125.44,-64.6661 124.671,-57.7085"/>
</g>
<!-- Node6&#45;&gt;Node3 -->
<g id="edge7" class="edge"><title>Node6&#45;&gt;Node3</title>
<path fill="none" stroke="midnightblue" d="M303.956,-54.6252C312.539,-57.4799 321.104,-60.7643 329,-64.5 346.609,-72.8305 347.946,-80.0869 365,-89.5 367.846,-91.0707 370.815,-92.6078 373.839,-94.097"/>
<polygon fill="midnightblue" stroke="midnightblue" points="372.463,-97.3177 383.002,-98.4067 375.443,-90.9834 372.463,-97.3177"/>
</g>
<!-- Node6&#45;&gt;Node4 -->
<g id="edge8" class="edge"><title>Node6&#45;&gt;Node4</title>
<path fill="none" stroke="midnightblue" d="M329.135,-51.7071C337.788,-52.9055 346.466,-54.1075 354.852,-55.269"/>
<polygon fill="midnightblue" stroke="midnightblue" points="354.529,-58.7576 364.915,-56.6627 355.49,-51.8238 354.529,-58.7576"/>
</g>
<!-- Node6&#45;&gt;Node5 -->
<g id="edge9" class="edge"><title>Node6&#45;&gt;Node5</title>
<path fill="none" stroke="midnightblue" d="M329.135,-27.7812C337.788,-26.6307 346.466,-25.4768 354.852,-24.3618"/>
<polygon fill="midnightblue" stroke="midnightblue" points="355.463,-27.8114 364.915,-23.0238 354.541,-20.8724 355.463,-27.8114"/>
</g>
</g>
</svg>
