<?xml version="1.0" encoding="UTF-8" standalone="no"?>
<!DOCTYPE svg PUBLIC "-//W3C//DTD SVG 1.1//EN"
 "http://www.w3.org/Graphics/SVG/1.1/DTD/svg11.dtd">
<!-- Generated by graphviz version 2.38.0 (20140413.2041)
 -->
<!-- Title: dlgConnectionSettings_view::OnDisconnect Pages: 1 -->
<svg width="337pt" height="88pt"
 viewBox="0.00 0.00 337.00 88.00" xmlns="http://www.w3.org/2000/svg" xmlns:xlink="http://www.w3.org/1999/xlink">
<g id="graph0" class="graph" transform="scale(1 1) rotate(0) translate(4 84)">
<title>dlgConnectionSettings_view::OnDisconnect</title>
<polygon fill="white" stroke="none" points="-4,4 -4,-84 333,-84 333,4 -4,4"/>
<!-- Node1 -->
<g id="node1" class="node"><title>Node1</title>
<polygon fill="#bfbfbf" stroke="black" points="0,-24.5 0,-54.5 115,-54.5 115,-24.5 0,-24.5"/>
<text text-anchor="start" x="8" y="-42.5" font-family="Helvetica,sans-Serif" font-size="10.00">dlgConnectionSettings</text>
<text text-anchor="middle" x="57.5" y="-31.5" font-family="Helvetica,sans-Serif" font-size="10.00">_view::OnDisconnect</text>
</g>
<!-- Node2 -->
<g id="node2" class="node"><title>Node2</title>
<g id="a_node2"><a xlink:href="../../db/d52/classdlgConnectionSettings__view.html#a25f214435470afaf77ce96274f02c3e0" target="_top" xlink:title="dlgConnectionSettings\l_view::dlgConnectionSettings_view">
<polygon fill="white" stroke="black" points="154,-49.5 154,-79.5 326,-79.5 326,-49.5 154,-49.5"/>
<text text-anchor="start" x="162" y="-67.5" font-family="Helvetica,sans-Serif" font-size="10.00">dlgConnectionSettings</text>
<text text-anchor="middle" x="240" y="-56.5" font-family="Helvetica,sans-Serif" font-size="10.00">_view::dlgConnectionSettings_view</text>
</a>
</g>
</g>
<!-- Node1&#45;&gt;Node2 -->
<g id="edge1" class="edge"><title>Node1&#45;&gt;Node2</title>
<path fill="none" stroke="midnightblue" d="M125.442,-42.2259C142.304,-44.2598 160.332,-46.7892 176.943,-49.4566"/>
<polygon fill="midnightblue" stroke="midnightblue" points="125.453,-38.7038 115.116,-41.0267 124.646,-45.6571 125.453,-38.7038"/>
</g>
<!-- Node3 -->
<g id="node3" class="node"><title>Node3</title>
<g id="a_node3"><a xlink:href="../../db/d52/classdlgConnectionSettings__view.html#a852ac3f44bb5b58fd36c326b839c6615" target="_top" xlink:title="dlgConnectionSettings\l_view::~dlgConnectionSettings_view">
<polygon fill="white" stroke="black" points="151,-0.5 151,-30.5 329,-30.5 329,-0.5 151,-0.5"/>
<text text-anchor="start" x="159" y="-18.5" font-family="Helvetica,sans-Serif" font-size="10.00">dlgConnectionSettings</text>
<text text-anchor="middle" x="240" y="-7.5" font-family="Helvetica,sans-Serif" font-size="10.00">_view::~dlgConnectionSettings_view</text>
</a>
</g>
</g>
<!-- Node1&#45;&gt;Node3 -->
<g id="edge3" class="edge"><title>Node1&#45;&gt;Node3</title>
<path fill="none" stroke="midnightblue" d="M125.165,-24.0951C133.54,-22.8298 142.206,-21.6084 150.846,-20.4729"/>
<polygon fill="midnightblue" stroke="midnightblue" points="124.46,-20.6626 115.116,-25.6573 125.535,-27.5796 124.46,-20.6626"/>
</g>
<!-- Node2&#45;&gt;Node1 -->
<g id="edge2" class="edge"><title>Node2&#45;&gt;Node1</title>
<path fill="none" stroke="midnightblue" d="M143.661,-58.0357C133.915,-56.6491 124.247,-55.1683 115.116,-53.6564"/>
<polygon fill="midnightblue" stroke="midnightblue" points="143.442,-61.5387 153.828,-59.4438 144.403,-54.6049 143.442,-61.5387"/>
</g>
<!-- Node3&#45;&gt;Node1 -->
<g id="edge4" class="edge"><title>Node3&#45;&gt;Node1</title>
<path fill="none" stroke="midnightblue" d="M164.548,-32.0566C148.031,-34.4487 130.784,-36.6277 115.116,-38.2869"/>
<polygon fill="midnightblue" stroke="midnightblue" points="165.343,-35.477 174.718,-30.5424 164.312,-28.5533 165.343,-35.477"/>
</g>
</g>
</svg>
