<?xml version="1.0" encoding="UTF-8" standalone="no"?>
<!DOCTYPE svg PUBLIC "-//W3C//DTD SVG 1.1//EN"
 "http://www.w3.org/Graphics/SVG/1.1/DTD/svg11.dtd">
<!-- Generated by graphviz version 2.38.0 (20140413.2041)
 -->
<!-- Title: /home/erik/prefix/default/src/limesuite&#45;dev/src/HPM7/HPM7_wxgui.h Pages: 1 -->
<!--zoomable 274 -->
<svg id="main" version="1.1" xmlns="http://www.w3.org/2000/svg" xmlns:xlink="http://www.w3.org/1999/xlink" xml:space="preserve" onload="init(evt)">
<style type="text/css"><![CDATA[
.edge:hover path { stroke: red; }
.edge:hover polygon { stroke: red; fill: red; }
]]></style>
<script type="text/javascript"><![CDATA[
var edges = document.getElementsByTagName('g');
if (edges && edges.length) {
  for (var i=0;i<edges.length;i++) {
    if (edges[i].id.substr(0,4)=='edge') {
      edges[i].setAttribute('class','edge');
    }
  }
}
]]></script>
        <defs>
                <circle id="rim" cx="0" cy="0" r="7"/>
                <circle id="rim2" cx="0" cy="0" r="3.5"/>
                <g id="zoomPlus">
                        <use xlink:href="#rim" fill="#404040">
                                <set attributeName="fill" to="#808080" begin="zoomplus.mouseover" end="zoomplus.mouseout"/>
                        </use>
                        <path d="M-4,0h8M0,-4v8" fill="none" stroke="white" stroke-width="1.5" pointer-events="none"/>
                </g>
                <g id="zoomMin">
                        <use xlink:href="#rim" fill="#404040">
                                <set attributeName="fill" to="#808080" begin="zoomminus.mouseover" end="zoomminus.mouseout"/>
                        </use>
                        <path d="M-4,0h8" fill="none" stroke="white" stroke-width="1.5" pointer-events="none"/>
                </g>
                <g id="dirArrow">
                        <path fill="none" stroke="white" stroke-width="1.5" d="M0,-3.0v7 M-2.5,-0.5L0,-3.0L2.5,-0.5"/>
                </g>
               <g id="resetDef">
                       <use xlink:href="#rim2" fill="#404040">
                               <set attributeName="fill" to="#808080" begin="reset.mouseover" end="reset.mouseout"/>
                       </use>
               </g>
        </defs>

<script type="text/javascript">
var viewWidth = 548;
var viewHeight = 274;
var sectionId = 'dynsection-0';
</script>
<script xlink:href="../../svgpan.js"/>
<svg id="graph" class="graph">
<g id="viewport">
<title>/home/erik/prefix/default/src/limesuite&#45;dev/src/HPM7/HPM7_wxgui.h</title>
<polygon fill="white" stroke="none" points="-4,4 -4,-270 543.569,-270 543.569,4 -4,4"/>
<!-- Node1 -->
<g id="node1" class="node"><title>Node1</title>
<polygon fill="#bfbfbf" stroke="black" points="99.5219,-224.5 99.5219,-265.5 221.522,-265.5 221.522,-224.5 99.5219,-224.5"/>
<text text-anchor="start" x="107.522" y="-253.5" font-family="Helvetica,sans-Serif" font-size="10.00">/home/erik/prefix/default</text>
<text text-anchor="start" x="107.522" y="-242.5" font-family="Helvetica,sans-Serif" font-size="10.00">/src/limesuite&#45;dev/src</text>
<text text-anchor="middle" x="160.522" y="-231.5" font-family="Helvetica,sans-Serif" font-size="10.00">/HPM7/HPM7_wxgui.h</text>
</g>
<!-- Node2 -->
<g id="node2" class="node"><title>Node2</title>
<polygon fill="white" stroke="#bfbfbf" points="37.5219,-56.5 37.5219,-75.5 81.5219,-75.5 81.5219,-56.5 37.5219,-56.5"/>
<text text-anchor="middle" x="59.5219" y="-63.5" font-family="Helvetica,sans-Serif" font-size="10.00">vector</text>
</g>
<!-- Node1&#45;&gt;Node2 -->
<g id="edge1" class="edge"><title>Node1&#45;&gt;Node2</title>
<path fill="none" stroke="midnightblue" d="M99.4227,-224.965C78.0959,-216.174 55.1175,-204.049 37.5219,-188 10.4434,-163.302 -10.0234,-145.19 5.52186,-112 11.5667,-99.0941 23.3337,-88.5985 34.3444,-80.9999"/>
<polygon fill="midnightblue" stroke="midnightblue" points="36.3494,-83.8723 42.8888,-75.5364 32.5784,-77.9748 36.3494,-83.8723"/>
</g>
<!-- Node3 -->
<g id="node3" class="node"><title>Node3</title>
<polygon fill="white" stroke="#bfbfbf" points="341.022,-168.5 341.022,-187.5 406.022,-187.5 406.022,-168.5 341.022,-168.5"/>
<text text-anchor="middle" x="373.522" y="-175.5" font-family="Helvetica,sans-Serif" font-size="10.00">wx/frame.h</text>
</g>
<!-- Node1&#45;&gt;Node3 -->
<g id="edge2" class="edge"><title>Node1&#45;&gt;Node3</title>
<path fill="none" stroke="midnightblue" d="M221.559,-225.374C258.387,-214.135 304.143,-200.172 335.772,-190.52"/>
<polygon fill="midnightblue" stroke="midnightblue" points="336.972,-193.813 345.515,-187.547 334.929,-187.118 336.972,-193.813"/>
</g>
<!-- Node4 -->
<g id="node4" class="node"><title>Node4</title>
<g id="a_node4"><a xlink:href="../../d5/d07/LimeSuite_8h.html" target="_top" xlink:title="LMS API library. ">
<polygon fill="white" stroke="black" points="47.0219,-168.5 47.0219,-187.5 136.022,-187.5 136.022,-168.5 47.0219,-168.5"/>
<text text-anchor="middle" x="91.5219" y="-175.5" font-family="Helvetica,sans-Serif" font-size="10.00">lime/LimeSuite.h</text>
</a>
</g>
</g>
<!-- Node1&#45;&gt;Node4 -->
<g id="edge3" class="edge"><title>Node1&#45;&gt;Node4</title>
<path fill="none" stroke="midnightblue" d="M139.82,-224.498C129.647,-214.915 117.559,-203.528 108.021,-194.543"/>
<polygon fill="midnightblue" stroke="midnightblue" points="110.386,-191.962 100.707,-187.652 105.586,-197.057 110.386,-191.962"/>
</g>
<!-- Node7 -->
<g id="node7" class="node"><title>Node7</title>
<g id="a_node7"><a xlink:href="../../d1/d56/LMS64CProtocol_8h.html" target="_top" xlink:title="Implementation of LMS64C protocol. ">
<polygon fill="white" stroke="black" points="224.022,-168.5 224.022,-187.5 323.022,-187.5 323.022,-168.5 224.022,-168.5"/>
<text text-anchor="middle" x="273.522" y="-175.5" font-family="Helvetica,sans-Serif" font-size="10.00">LMS64CProtocol.h</text>
</a>
</g>
</g>
<!-- Node1&#45;&gt;Node7 -->
<g id="edge6" class="edge"><title>Node1&#45;&gt;Node7</title>
<path fill="none" stroke="midnightblue" d="M194.426,-224.498C212.25,-214.245 233.668,-201.925 249.718,-192.693"/>
<polygon fill="midnightblue" stroke="midnightblue" points="251.557,-195.673 258.48,-187.652 248.066,-189.605 251.557,-195.673"/>
</g>
<!-- Node5 -->
<g id="node5" class="node"><title>Node5</title>
<g id="a_node5"><a xlink:href="../../d1/d2e/LMS7002M__parameters_8h.html" target="_top" xlink:title="List of LMS7002M transceiver control parameters. ">
<polygon fill="white" stroke="black" points="14.5219,-112.5 14.5219,-131.5 142.522,-131.5 142.522,-112.5 14.5219,-112.5"/>
<text text-anchor="middle" x="78.5219" y="-119.5" font-family="Helvetica,sans-Serif" font-size="10.00">LMS7002M_parameters.h</text>
</a>
</g>
</g>
<!-- Node4&#45;&gt;Node5 -->
<g id="edge4" class="edge"><title>Node4&#45;&gt;Node5</title>
<path fill="none" stroke="midnightblue" d="M89.3752,-168.083C87.6525,-160.927 85.1748,-150.635 83.0216,-141.691"/>
<polygon fill="midnightblue" stroke="midnightblue" points="86.372,-140.654 80.6286,-131.751 79.5664,-142.293 86.372,-140.654"/>
</g>
<!-- Node6 -->
<g id="node6" class="node"><title>Node6</title>
<polygon fill="white" stroke="#bfbfbf" points="113.022,-56.5 113.022,-75.5 162.022,-75.5 162.022,-56.5 113.022,-56.5"/>
<text text-anchor="middle" x="137.522" y="-63.5" font-family="Helvetica,sans-Serif" font-size="10.00">stdint.h</text>
</g>
<!-- Node5&#45;&gt;Node6 -->
<g id="edge5" class="edge"><title>Node5&#45;&gt;Node6</title>
<path fill="none" stroke="midnightblue" d="M88.0012,-112.324C96.7229,-104.341 109.865,-92.3128 120.42,-82.6529"/>
<polygon fill="midnightblue" stroke="midnightblue" points="122.856,-85.1674 127.87,-75.8339 118.13,-80.0036 122.856,-85.1674"/>
</g>
<!-- Node8 -->
<g id="node8" class="node"><title>Node8</title>
<g id="a_node8"><a xlink:href="../../d3/d1e/IConnection_8h.html" target="_top" xlink:title="Interface class for connection types. ">
<polygon fill="white" stroke="black" points="387.022,-112.5 387.022,-131.5 464.022,-131.5 464.022,-112.5 387.022,-112.5"/>
<text text-anchor="middle" x="425.522" y="-119.5" font-family="Helvetica,sans-Serif" font-size="10.00">IConnection.h</text>
</a>
</g>
</g>
<!-- Node7&#45;&gt;Node8 -->
<g id="edge7" class="edge"><title>Node7&#45;&gt;Node8</title>
<path fill="none" stroke="midnightblue" d="M297.607,-168.444C323.067,-159.399 363.416,-145.064 391.981,-134.916"/>
<polygon fill="midnightblue" stroke="midnightblue" points="393.298,-138.162 401.55,-131.516 390.955,-131.566 393.298,-138.162"/>
</g>
<!-- Node14 -->
<g id="node14" class="node"><title>Node14</title>
<polygon fill="white" stroke="#bfbfbf" points="482.522,-112.5 482.522,-131.5 526.522,-131.5 526.522,-112.5 482.522,-112.5"/>
<text text-anchor="middle" x="504.522" y="-119.5" font-family="Helvetica,sans-Serif" font-size="10.00">mutex</text>
</g>
<!-- Node7&#45;&gt;Node14 -->
<g id="edge17" class="edge"><title>Node7&#45;&gt;Node14</title>
<path fill="none" stroke="midnightblue" d="M314.069,-168.475C352.338,-160.285 411.536,-147.248 472.402,-131.921"/>
<polygon fill="midnightblue" stroke="midnightblue" points="473.349,-135.292 482.182,-129.442 471.628,-128.507 473.349,-135.292"/>
</g>
<!-- Node15 -->
<g id="node15" class="node"><title>Node15</title>
<g id="a_node15"><a xlink:href="../../de/dd5/LMS64CCommands_8h.html" target="_top" xlink:title="enumerations of LMS64C command options ">
<polygon fill="white" stroke="black" points="161.022,-112.5 161.022,-131.5 274.022,-131.5 274.022,-112.5 161.022,-112.5"/>
<text text-anchor="middle" x="217.522" y="-119.5" font-family="Helvetica,sans-Serif" font-size="10.00">LMS64CCommands.h</text>
</a>
</g>
</g>
<!-- Node7&#45;&gt;Node15 -->
<g id="edge18" class="edge"><title>Node7&#45;&gt;Node15</title>
<path fill="none" stroke="midnightblue" d="M264.524,-168.324C256.327,-160.42 244.016,-148.548 234.05,-138.938"/>
<polygon fill="midnightblue" stroke="midnightblue" points="236.311,-136.256 226.683,-131.834 231.452,-141.295 236.311,-136.256"/>
</g>
<!-- Node16 -->
<g id="node16" class="node"><title>Node16</title>
<g id="a_node16"><a xlink:href="../../d8/df2/LMSBoards_8h.html" target="_top" xlink:title="enumerations of available LMS7002M hardware ">
<polygon fill="white" stroke="black" points="292.522,-112.5 292.522,-131.5 368.522,-131.5 368.522,-112.5 292.522,-112.5"/>
<text text-anchor="middle" x="330.522" y="-119.5" font-family="Helvetica,sans-Serif" font-size="10.00">LMSBoards.h</text>
</a>
</g>
</g>
<!-- Node7&#45;&gt;Node16 -->
<g id="edge19" class="edge"><title>Node7&#45;&gt;Node16</title>
<path fill="none" stroke="midnightblue" d="M282.68,-168.324C291.023,-160.42 303.554,-148.548 313.699,-138.938"/>
<polygon fill="midnightblue" stroke="midnightblue" points="316.345,-141.252 321.197,-131.834 311.531,-136.171 316.345,-141.252"/>
</g>
<!-- Node8&#45;&gt;Node2 -->
<g id="edge13" class="edge"><title>Node8&#45;&gt;Node2</title>
<path fill="none" stroke="midnightblue" d="M386.781,-113.548C383.652,-113.003 380.536,-112.48 377.522,-112 256.227,-92.6752 224.654,-96.3196 103.522,-76 99.7636,-75.3696 95.8365,-74.6518 91.9422,-73.903"/>
<polygon fill="midnightblue" stroke="midnightblue" points="92.3401,-70.4135 81.8483,-71.8873 90.9693,-77.2779 92.3401,-70.4135"/>
</g>
<!-- Node8&#45;&gt;Node6 -->
<g id="edge16" class="edge"><title>Node8&#45;&gt;Node6</title>
<path fill="none" stroke="midnightblue" d="M386.98,-113.773C330.651,-103.212 226.664,-83.7142 172.456,-73.5501"/>
<polygon fill="midnightblue" stroke="midnightblue" points="172.78,-70.05 162.306,-71.6471 171.49,-76.9301 172.78,-70.05"/>
</g>
<!-- Node9 -->
<g id="node9" class="node"><title>Node9</title>
<g id="a_node9"><a xlink:href="../../dd/d40/LimeSuiteConfig_8h.html" target="_top" xlink:title="Configuration constants and macros for lime suite library. ">
<polygon fill="white" stroke="black" points="437.022,-0.5 437.022,-19.5 534.022,-19.5 534.022,-0.5 437.022,-0.5"/>
<text text-anchor="middle" x="485.522" y="-7.5" font-family="Helvetica,sans-Serif" font-size="10.00">LimeSuiteConfig.h</text>
</a>
</g>
</g>
<!-- Node8&#45;&gt;Node9 -->
<g id="edge8" class="edge"><title>Node8&#45;&gt;Node9</title>
<path fill="none" stroke="midnightblue" d="M456.719,-112.462C485.906,-103.768 526.35,-89.6619 535.522,-76 547.661,-57.9184 527.441,-38.2375 509.198,-25.3246"/>
<polygon fill="midnightblue" stroke="midnightblue" points="510.816,-22.1964 500.552,-19.5658 506.935,-28.0224 510.816,-22.1964"/>
</g>
<!-- Node10 -->
<g id="node10" class="node"><title>Node10</title>
<g id="a_node10"><a xlink:href="../../d1/d5d/ConnectionHandle_8h.html" target="_top" xlink:title="Represent a connection to a device. ">
<polygon fill="white" stroke="black" points="279.022,-56.5 279.022,-75.5 384.022,-75.5 384.022,-56.5 279.022,-56.5"/>
<text text-anchor="middle" x="331.522" y="-63.5" font-family="Helvetica,sans-Serif" font-size="10.00">ConnectionHandle.h</text>
</a>
</g>
</g>
<!-- Node8&#45;&gt;Node10 -->
<g id="edge9" class="edge"><title>Node8&#45;&gt;Node10</title>
<path fill="none" stroke="midnightblue" d="M410.419,-112.324C395.619,-103.822 372.828,-90.7288 355.54,-80.7975"/>
<polygon fill="midnightblue" stroke="midnightblue" points="357.002,-77.6009 346.587,-75.6545 353.515,-83.6707 357.002,-77.6009"/>
</g>
<!-- Node11 -->
<g id="node11" class="node"><title>Node11</title>
<polygon fill="white" stroke="#bfbfbf" points="270.022,-0.5 270.022,-19.5 311.022,-19.5 311.022,-0.5 270.022,-0.5"/>
<text text-anchor="middle" x="290.522" y="-7.5" font-family="Helvetica,sans-Serif" font-size="10.00">string</text>
</g>
<!-- Node8&#45;&gt;Node11 -->
<g id="edge12" class="edge"><title>Node8&#45;&gt;Node11</title>
<path fill="none" stroke="midnightblue" d="M386.973,-112.418C343.153,-102.276 276.724,-85.5732 269.522,-76 258.878,-61.8516 267.791,-42.0984 277.071,-28.0897"/>
<polygon fill="midnightblue" stroke="midnightblue" points="280.015,-29.9902 283.02,-19.8302 274.335,-25.899 280.015,-29.9902"/>
</g>
<!-- Node12 -->
<g id="node12" class="node"><title>Node12</title>
<polygon fill="white" stroke="#bfbfbf" points="402.522,-56.5 402.522,-75.5 448.522,-75.5 448.522,-56.5 402.522,-56.5"/>
<text text-anchor="middle" x="425.522" y="-63.5" font-family="Helvetica,sans-Serif" font-size="10.00">cstring</text>
</g>
<!-- Node8&#45;&gt;Node12 -->
<g id="edge14" class="edge"><title>Node8&#45;&gt;Node12</title>
<path fill="none" stroke="midnightblue" d="M425.522,-112.083C425.522,-105.006 425.522,-94.8611 425.522,-85.9865"/>
<polygon fill="midnightblue" stroke="midnightblue" points="429.022,-85.751 425.522,-75.7511 422.022,-85.7511 429.022,-85.751"/>
</g>
<!-- Node13 -->
<g id="node13" class="node"><title>Node13</title>
<polygon fill="white" stroke="#bfbfbf" points="467.022,-56.5 467.022,-75.5 526.022,-75.5 526.022,-56.5 467.022,-56.5"/>
<text text-anchor="middle" x="496.522" y="-63.5" font-family="Helvetica,sans-Serif" font-size="10.00">functional</text>
</g>
<!-- Node8&#45;&gt;Node13 -->
<g id="edge15" class="edge"><title>Node8&#45;&gt;Node13</title>
<path fill="none" stroke="midnightblue" d="M436.929,-112.324C447.631,-104.185 463.863,-91.8395 476.685,-82.0874"/>
<polygon fill="midnightblue" stroke="midnightblue" points="479.066,-84.6734 484.907,-75.8339 474.829,-79.1018 479.066,-84.6734"/>
</g>
<!-- Node10&#45;&gt;Node9 -->
<g id="edge10" class="edge"><title>Node10&#45;&gt;Node9</title>
<path fill="none" stroke="midnightblue" d="M355.924,-56.4435C381.718,-47.3986 422.598,-33.064 451.54,-22.9158"/>
<polygon fill="midnightblue" stroke="midnightblue" points="452.956,-26.1283 461.234,-19.5164 450.639,-19.5226 452.956,-26.1283"/>
</g>
<!-- Node10&#45;&gt;Node11 -->
<g id="edge11" class="edge"><title>Node10&#45;&gt;Node11</title>
<path fill="none" stroke="midnightblue" d="M324.752,-56.083C318.96,-48.4554 310.463,-37.2645 303.384,-27.9408"/>
<polygon fill="midnightblue" stroke="midnightblue" points="306.001,-25.5991 297.166,-19.7511 300.426,-29.8321 306.001,-25.5991"/>
</g>
</g>
</svg>
        <g id="navigator" transform="translate(0 0)" fill="#404254">
                <rect fill="#f2f5e9" fill-opacity="0.5" stroke="#606060" stroke-width=".5" x="0" y="0" width="60" height="60"/>
                <use id="zoomplus" xlink:href="#zoomPlus" x="17" y="9" onmousedown="handleZoom(evt,'in')"/>
                <use id="zoomminus" xlink:href="#zoomMin" x="42" y="9" onmousedown="handleZoom(evt,'out')"/>
                <use id="reset" xlink:href="#resetDef" x="30" y="36" onmousedown="handleReset()"/>
                <g id="arrowUp" xlink:href="#dirArrow" transform="translate(30 24)" onmousedown="handlePan(0,-1)">
                  <use xlink:href="#rim" fill="#404040">
                        <set attributeName="fill" to="#808080" begin="arrowUp.mouseover" end="arrowUp.mouseout"/>
                  </use>
                  <path fill="none" stroke="white" stroke-width="1.5" d="M0,-3.0v7 M-2.5,-0.5L0,-3.0L2.5,-0.5"/>
                </g>
                <g id="arrowRight" xlink:href="#dirArrow" transform="rotate(90) translate(36 -43)" onmousedown="handlePan(1,0)">
                  <use xlink:href="#rim" fill="#404040">
                        <set attributeName="fill" to="#808080" begin="arrowRight.mouseover" end="arrowRight.mouseout"/>
                  </use>
                  <path fill="none" stroke="white" stroke-width="1.5" d="M0,-3.0v7 M-2.5,-0.5L0,-3.0L2.5,-0.5"/>
                </g>
                <g id="arrowDown" xlink:href="#dirArrow" transform="rotate(180) translate(-30 -48)" onmousedown="handlePan(0,1)">
                  <use xlink:href="#rim" fill="#404040">
                        <set attributeName="fill" to="#808080" begin="arrowDown.mouseover" end="arrowDown.mouseout"/>
                  </use>
                  <path fill="none" stroke="white" stroke-width="1.5" d="M0,-3.0v7 M-2.5,-0.5L0,-3.0L2.5,-0.5"/>
                </g>
                <g id="arrowLeft" xlink:href="#dirArrow" transform="rotate(270) translate(-36 17)" onmousedown="handlePan(-1,0)">
                  <use xlink:href="#rim" fill="#404040">
                        <set attributeName="fill" to="#808080" begin="arrowLeft.mouseover" end="arrowLeft.mouseout"/>
                  </use>
                  <path fill="none" stroke="white" stroke-width="1.5" d="M0,-3.0v7 M-2.5,-0.5L0,-3.0L2.5,-0.5"/>
                </g>
        </g>
        <svg viewBox="0 0 15 15" width="100%" height="30px" preserveAspectRatio="xMaxYMin meet">
         <g id="arrow_out" transform="scale(0.3 0.3)">
          <a xlink:href="HPM7__wxgui_8h__incl_org.svg" target="_base">
           <rect id="button" ry="5" rx="5" y="6" x="6" height="38" width="38"
                fill="#f2f5e9" fill-opacity="0.5" stroke="#606060" stroke-width="1.0"/>
           <path id="arrow"
             d="M 11.500037,31.436501 C 11.940474,20.09759 22.043105,11.32322 32.158766,21.979434 L 37.068811,17.246167 C 37.068811,17.246167 37.088388,32 37.088388,32 L 22.160133,31.978069 C 22.160133,31.978069 26.997745,27.140456 26.997745,27.140456 C 18.528582,18.264221 13.291696,25.230495 11.500037,31.436501 z"
             style="fill:#404040;"/>
          </a>
         </g>
        </svg>
</svg>
