<?xml version="1.0" encoding="UTF-8" standalone="no"?>
<!DOCTYPE svg PUBLIC "-//W3C//DTD SVG 1.1//EN"
 "http://www.w3.org/Graphics/SVG/1.1/DTD/svg11.dtd">
<!-- Generated by graphviz version 2.38.0 (20140413.2041)
 -->
<!-- Title: pnlMCU_BD_view::OnDebugModeClick Pages: 1 -->
<svg width="359pt" height="88pt"
 viewBox="0.00 0.00 359.00 88.00" xmlns="http://www.w3.org/2000/svg" xmlns:xlink="http://www.w3.org/1999/xlink">
<g id="graph0" class="graph" transform="scale(1 1) rotate(0) translate(4 84)">
<title>pnlMCU_BD_view::OnDebugModeClick</title>
<polygon fill="white" stroke="none" points="-4,4 -4,-84 355,-84 355,4 -4,4"/>
<!-- Node1 -->
<g id="node1" class="node"><title>Node1</title>
<polygon fill="#bfbfbf" stroke="black" points="0,-24.5 0,-54.5 169,-54.5 169,-24.5 0,-24.5"/>
<text text-anchor="start" x="8" y="-42.5" font-family="Helvetica,sans-Serif" font-size="10.00">pnlMCU_BD_view::OnDebugMode</text>
<text text-anchor="middle" x="84.5" y="-31.5" font-family="Helvetica,sans-Serif" font-size="10.00">Click</text>
</g>
<!-- Node2 -->
<g id="node2" class="node"><title>Node2</title>
<g id="a_node2"><a xlink:href="../../d8/dfe/classpnlMCU__BD__view.html#a8572be2427ad469f580702542459ef90" target="_top" xlink:title="pnlMCU_BD_view::pnlMCU\l_BD_view">
<polygon fill="white" stroke="black" points="208,-49.5 208,-79.5 348,-79.5 348,-49.5 208,-49.5"/>
<text text-anchor="start" x="216" y="-67.5" font-family="Helvetica,sans-Serif" font-size="10.00">pnlMCU_BD_view::pnlMCU</text>
<text text-anchor="middle" x="278" y="-56.5" font-family="Helvetica,sans-Serif" font-size="10.00">_BD_view</text>
</a>
</g>
</g>
<!-- Node1&#45;&gt;Node2 -->
<g id="edge1" class="edge"><title>Node1&#45;&gt;Node2</title>
<path fill="none" stroke="midnightblue" d="M179.222,-51.7353C188.85,-52.9921 198.504,-54.2525 207.796,-55.4656"/>
<polygon fill="midnightblue" stroke="midnightblue" points="179.585,-48.253 169.216,-50.429 178.679,-55.1941 179.585,-48.253"/>
</g>
<!-- Node3 -->
<g id="node3" class="node"><title>Node3</title>
<g id="a_node3"><a xlink:href="../../d8/dfe/classpnlMCU__BD__view.html#ae0142698a380c418c2bb4c87f0b884a1" target="_top" xlink:title="pnlMCU_BD_view::~pnlMCU\l_BD_view">
<polygon fill="white" stroke="black" points="205,-0.5 205,-30.5 351,-30.5 351,-0.5 205,-0.5"/>
<text text-anchor="start" x="213" y="-18.5" font-family="Helvetica,sans-Serif" font-size="10.00">pnlMCU_BD_view::~pnlMCU</text>
<text text-anchor="middle" x="278" y="-7.5" font-family="Helvetica,sans-Serif" font-size="10.00">_BD_view</text>
</a>
</g>
</g>
<!-- Node1&#45;&gt;Node3 -->
<g id="edge2" class="edge"><title>Node1&#45;&gt;Node3</title>
<path fill="none" stroke="midnightblue" d="M179.279,-27.747C187.874,-26.6698 196.49,-25.59 204.85,-24.5422"/>
<polygon fill="midnightblue" stroke="midnightblue" points="178.703,-24.2917 169.216,-29.0082 179.574,-31.2374 178.703,-24.2917"/>
</g>
</g>
</svg>
