<?xml version="1.0" encoding="UTF-8" standalone="no"?>
<!DOCTYPE svg PUBLIC "-//W3C//DTD SVG 1.1//EN"
 "http://www.w3.org/Graphics/SVG/1.1/DTD/svg11.dtd">
<!-- Generated by graphviz version 2.38.0 (20140413.2041)
 -->
<!-- Title: HPM7_wxgui::SelectRxPath Pages: 1 -->
<svg width="846pt" height="362pt"
 viewBox="0.00 0.00 846.00 361.50" xmlns="http://www.w3.org/2000/svg" xmlns:xlink="http://www.w3.org/1999/xlink">
<g id="graph0" class="graph" transform="scale(1 1) rotate(0) translate(4 357.5)">
<title>HPM7_wxgui::SelectRxPath</title>
<polygon fill="white" stroke="none" points="-4,4 -4,-357.5 842,-357.5 842,4 -4,4"/>
<!-- Node1 -->
<g id="node1" class="node"><title>Node1</title>
<polygon fill="#bfbfbf" stroke="black" points="0,-236.5 0,-255.5 142,-255.5 142,-236.5 0,-236.5"/>
<text text-anchor="middle" x="71" y="-243.5" font-family="Helvetica,sans-Serif" font-size="10.00">HPM7_wxgui::SelectRxPath</text>
</g>
<!-- Node2 -->
<g id="node2" class="node"><title>Node2</title>
<g id="a_node2"><a xlink:href="../../de/dd7/classHPM7__wxgui.html#a4d71c05e7839a7006e397df82c4abfaa" target="_top" xlink:title="HPM7_wxgui::UploadGPIO">
<polygon fill="white" stroke="black" points="178,-236.5 178,-255.5 315,-255.5 315,-236.5 178,-236.5"/>
<text text-anchor="middle" x="246.5" y="-243.5" font-family="Helvetica,sans-Serif" font-size="10.00">HPM7_wxgui::UploadGPIO</text>
</a>
</g>
</g>
<!-- Node1&#45;&gt;Node2 -->
<g id="edge1" class="edge"><title>Node1&#45;&gt;Node2</title>
<path fill="none" stroke="midnightblue" d="M142.069,-246C150.586,-246 159.326,-246 167.944,-246"/>
<polygon fill="midnightblue" stroke="midnightblue" points="167.984,-249.5 177.984,-246 167.984,-242.5 167.984,-249.5"/>
</g>
<!-- Node3 -->
<g id="node3" class="node"><title>Node3</title>
<g id="a_node3"><a xlink:href="../../d2/de5/classlime_1_1IConnection.html#abf1c25c85e31e262ded3e33e65cc58e3" target="_top" xlink:title="lime::IConnection::\lIsOpen">
<polygon fill="white" stroke="black" points="510,-323 510,-353 609,-353 609,-323 510,-323"/>
<text text-anchor="start" x="518" y="-341" font-family="Helvetica,sans-Serif" font-size="10.00">lime::IConnection::</text>
<text text-anchor="middle" x="559.5" y="-330" font-family="Helvetica,sans-Serif" font-size="10.00">IsOpen</text>
</a>
</g>
</g>
<!-- Node2&#45;&gt;Node3 -->
<g id="edge2" class="edge"><title>Node2&#45;&gt;Node3</title>
<path fill="none" stroke="midnightblue" d="M279.902,-255.585C331.991,-270.994 435.09,-301.493 500.211,-320.757"/>
<polygon fill="midnightblue" stroke="midnightblue" points="499.346,-324.151 509.928,-323.631 501.331,-317.438 499.346,-324.151"/>
</g>
<!-- Node4 -->
<g id="node4" class="node"><title>Node4</title>
<g id="a_node4"><a xlink:href="../../de/d46/classlime_1_1LMS64CProtocol.html#a9ef0f354db0f6460e100f3062d46cdeb" target="_top" xlink:title="Transfers data between packet and connected device. ">
<polygon fill="white" stroke="black" points="351,-186 351,-216 466,-216 466,-186 351,-186"/>
<text text-anchor="start" x="359" y="-204" font-family="Helvetica,sans-Serif" font-size="10.00">lime::LMS64CProtocol</text>
<text text-anchor="middle" x="408.5" y="-193" font-family="Helvetica,sans-Serif" font-size="10.00">::TransferPacket</text>
</a>
</g>
</g>
<!-- Node2&#45;&gt;Node4 -->
<g id="edge3" class="edge"><title>Node2&#45;&gt;Node4</title>
<path fill="none" stroke="midnightblue" d="M281.432,-236.457C299.728,-231.311 322.901,-224.794 344.374,-218.754"/>
<polygon fill="midnightblue" stroke="midnightblue" points="345.418,-222.096 354.097,-216.02 343.523,-215.358 345.418,-222.096"/>
</g>
<!-- Node4&#45;&gt;Node3 -->
<g id="edge4" class="edge"><title>Node4&#45;&gt;Node3</title>
<path fill="none" stroke="midnightblue" d="M419.717,-216.036C435.397,-238.278 467.247,-280.294 502,-308 506.396,-311.505 511.263,-314.797 516.243,-317.823"/>
<polygon fill="midnightblue" stroke="midnightblue" points="514.832,-321.048 525.251,-322.971 518.306,-314.97 514.832,-321.048"/>
</g>
<!-- Node5 -->
<g id="node5" class="node"><title>Node5</title>
<g id="a_node5"><a xlink:href="../../d5/d6c/namespacelime.html#adc6af0cf8e0a70f3ef09fac1244f8c48" target="_top" xlink:title="lime::ReportError">
<polygon fill="white" stroke="black" points="656,-161.5 656,-180.5 747,-180.5 747,-161.5 656,-161.5"/>
<text text-anchor="middle" x="701.5" y="-168.5" font-family="Helvetica,sans-Serif" font-size="10.00">lime::ReportError</text>
</a>
</g>
</g>
<!-- Node4&#45;&gt;Node5 -->
<g id="edge5" class="edge"><title>Node4&#45;&gt;Node5</title>
<path fill="none" stroke="midnightblue" d="M422.346,-216.207C438.691,-234.252 468.815,-263.359 502,-275 550.23,-291.918 570.914,-297.1 617,-275 653.884,-257.313 679.626,-214.511 692.039,-189.679"/>
<polygon fill="midnightblue" stroke="midnightblue" points="695.247,-191.083 696.405,-180.552 688.932,-188.063 695.247,-191.083"/>
</g>
<!-- Node7 -->
<g id="node7" class="node"><title>Node7</title>
<g id="a_node7"><a xlink:href="../../de/d46/classlime_1_1LMS64CProtocol.html#ab766d6322a66164891a296359c2b9019" target="_top" xlink:title="implement in base class ">
<polygon fill="white" stroke="black" points="502,-235 502,-265 617,-265 617,-235 502,-235"/>
<text text-anchor="start" x="510" y="-253" font-family="Helvetica,sans-Serif" font-size="10.00">lime::LMS64CProtocol</text>
<text text-anchor="middle" x="559.5" y="-242" font-family="Helvetica,sans-Serif" font-size="10.00">::GetType</text>
</a>
</g>
</g>
<!-- Node4&#45;&gt;Node7 -->
<g id="edge7" class="edge"><title>Node4&#45;&gt;Node7</title>
<path fill="none" stroke="midnightblue" d="M455.421,-216.101C470.503,-221.062 487.428,-226.627 503.136,-231.793"/>
<polygon fill="midnightblue" stroke="midnightblue" points="502.138,-235.149 512.731,-234.948 504.325,-228.5 502.138,-235.149"/>
</g>
<!-- Node8 -->
<g id="node8" class="node"><title>Node8</title>
<g id="a_node8"><a xlink:href="../../de/d46/classlime_1_1LMS64CProtocol.html#afba3d83e1e35b6e70c7171e31cc6cea3" target="_top" xlink:title="Takes generic packet and converts to specific protocol buffer. ">
<polygon fill="white" stroke="black" points="502,-186 502,-216 617,-216 617,-186 502,-186"/>
<text text-anchor="start" x="510" y="-204" font-family="Helvetica,sans-Serif" font-size="10.00">lime::LMS64CProtocol</text>
<text text-anchor="middle" x="559.5" y="-193" font-family="Helvetica,sans-Serif" font-size="10.00">::PreparePacket</text>
</a>
</g>
</g>
<!-- Node4&#45;&gt;Node8 -->
<g id="edge8" class="edge"><title>Node4&#45;&gt;Node8</title>
<path fill="none" stroke="midnightblue" d="M466.256,-201C474.558,-201 483.173,-201 491.654,-201"/>
<polygon fill="midnightblue" stroke="midnightblue" points="491.902,-204.5 501.902,-201 491.902,-197.5 491.902,-204.5"/>
</g>
<!-- Node9 -->
<g id="node9" class="node"><title>Node9</title>
<g id="a_node9"><a xlink:href="../../de/d46/classlime_1_1LMS64CProtocol.html#aa78b82a017792421b61bc6a99b4c55c0" target="_top" xlink:title="virtual write function to be implemented by the base class ">
<polygon fill="white" stroke="black" points="502,-137 502,-167 617,-167 617,-137 502,-137"/>
<text text-anchor="start" x="510" y="-155" font-family="Helvetica,sans-Serif" font-size="10.00">lime::LMS64CProtocol</text>
<text text-anchor="middle" x="559.5" y="-144" font-family="Helvetica,sans-Serif" font-size="10.00">::Write</text>
</a>
</g>
</g>
<!-- Node4&#45;&gt;Node9 -->
<g id="edge9" class="edge"><title>Node4&#45;&gt;Node9</title>
<path fill="none" stroke="midnightblue" d="M455.421,-185.899C470.503,-180.938 487.428,-175.373 503.136,-170.207"/>
<polygon fill="midnightblue" stroke="midnightblue" points="504.325,-173.5 512.731,-167.052 502.138,-166.851 504.325,-173.5"/>
</g>
<!-- Node10 -->
<g id="node10" class="node"><title>Node10</title>
<g id="a_node10"><a xlink:href="../../de/d46/classlime_1_1LMS64CProtocol.html#ab9e954443ee121eff8e1e6d4f8de3d4b" target="_top" xlink:title="virtual read function to be implemented by the base class ">
<polygon fill="white" stroke="black" points="502,-88 502,-118 617,-118 617,-88 502,-88"/>
<text text-anchor="start" x="510" y="-106" font-family="Helvetica,sans-Serif" font-size="10.00">lime::LMS64CProtocol</text>
<text text-anchor="middle" x="559.5" y="-95" font-family="Helvetica,sans-Serif" font-size="10.00">::Read</text>
</a>
</g>
</g>
<!-- Node4&#45;&gt;Node10 -->
<g id="edge10" class="edge"><title>Node4&#45;&gt;Node10</title>
<path fill="none" stroke="midnightblue" d="M425.945,-185.912C443.748,-170.1 473.439,-145.211 502,-128 505.124,-126.118 508.414,-124.294 511.772,-122.547"/>
<polygon fill="midnightblue" stroke="midnightblue" points="513.333,-125.68 520.75,-118.114 510.234,-119.404 513.333,-125.68"/>
</g>
<!-- Node11 -->
<g id="node11" class="node"><title>Node11</title>
<g id="a_node11"><a xlink:href="../../de/d46/classlime_1_1LMS64CProtocol.html#a5f902d9f4553498a6035f767d1d9e880" target="_top" xlink:title="Parses given data buffer into generic packet. ">
<polygon fill="white" stroke="black" points="502,-39 502,-69 617,-69 617,-39 502,-39"/>
<text text-anchor="start" x="510" y="-57" font-family="Helvetica,sans-Serif" font-size="10.00">lime::LMS64CProtocol</text>
<text text-anchor="middle" x="559.5" y="-46" font-family="Helvetica,sans-Serif" font-size="10.00">::ParsePacket</text>
</a>
</g>
</g>
<!-- Node4&#45;&gt;Node11 -->
<g id="edge11" class="edge"><title>Node4&#45;&gt;Node11</title>
<path fill="none" stroke="midnightblue" d="M417.542,-185.91C431.63,-160.722 463.019,-109.84 502,-79 504.061,-77.3695 506.245,-75.822 508.509,-74.3568"/>
<polygon fill="midnightblue" stroke="midnightblue" points="510.66,-77.1556 517.554,-69.1103 507.147,-71.1006 510.66,-77.1556"/>
</g>
<!-- Node12 -->
<g id="node12" class="node"><title>Node12</title>
<g id="a_node12"><a xlink:href="../../d2/d65/LMS64CProtocol_8cpp.html#af62b1cc795d9086a8ad8d7164b0cad8b" target="_top" xlink:title="convertStatus">
<polygon fill="white" stroke="black" points="521,-0.5 521,-19.5 598,-19.5 598,-0.5 521,-0.5"/>
<text text-anchor="middle" x="559.5" y="-7.5" font-family="Helvetica,sans-Serif" font-size="10.00">convertStatus</text>
</a>
</g>
</g>
<!-- Node4&#45;&gt;Node12 -->
<g id="edge12" class="edge"><title>Node4&#45;&gt;Node12</title>
<path fill="none" stroke="midnightblue" d="M413.474,-185.938C423.005,-152.711 450.304,-72.6217 502,-29 504.899,-26.5536 508.127,-24.4182 511.529,-22.555"/>
<polygon fill="midnightblue" stroke="midnightblue" points="513.242,-25.6185 520.837,-18.2317 510.293,-19.2698 513.242,-25.6185"/>
</g>
<!-- Node6 -->
<g id="node6" class="node"><title>Node6</title>
<g id="a_node6"><a xlink:href="../../d9/df5/Logger_8cpp.html#ada38bf01d6d691de953ed69268ea6516" target="_top" xlink:title="errToStr">
<polygon fill="white" stroke="black" points="786,-161.5 786,-180.5 838,-180.5 838,-161.5 786,-161.5"/>
<text text-anchor="middle" x="812" y="-168.5" font-family="Helvetica,sans-Serif" font-size="10.00">errToStr</text>
</a>
</g>
</g>
<!-- Node5&#45;&gt;Node6 -->
<g id="edge6" class="edge"><title>Node5&#45;&gt;Node6</title>
<path fill="none" stroke="midnightblue" d="M747.258,-171C756.74,-171 766.621,-171 775.694,-171"/>
<polygon fill="midnightblue" stroke="midnightblue" points="775.901,-174.5 785.901,-171 775.901,-167.5 775.901,-174.5"/>
</g>
<!-- Node12&#45;&gt;Node5 -->
<g id="edge13" class="edge"><title>Node12&#45;&gt;Node5</title>
<path fill="none" stroke="midnightblue" d="M598.024,-18.3997C604.796,-21.0454 611.456,-24.4999 617,-29 657.937,-62.2275 683.217,-121.241 694.16,-151.669"/>
<polygon fill="midnightblue" stroke="midnightblue" points="690.976,-153.173 697.546,-161.485 697.594,-150.89 690.976,-153.173"/>
</g>
<!-- Node13 -->
<g id="node13" class="node"><title>Node13</title>
<g id="a_node13"><a xlink:href="../../d5/d6c/namespacelime.html#ad336711d447db6515582bd4de9a6b30c" target="_top" xlink:title="lime::status2string">
<polygon fill="white" stroke="black" points="653,-0.5 653,-19.5 750,-19.5 750,-0.5 653,-0.5"/>
<text text-anchor="middle" x="701.5" y="-7.5" font-family="Helvetica,sans-Serif" font-size="10.00">lime::status2string</text>
</a>
</g>
</g>
<!-- Node12&#45;&gt;Node13 -->
<g id="edge14" class="edge"><title>Node12&#45;&gt;Node13</title>
<path fill="none" stroke="midnightblue" d="M598.017,-10C611.706,-10 627.523,-10 642.573,-10"/>
<polygon fill="midnightblue" stroke="midnightblue" points="642.834,-13.5001 652.834,-10 642.834,-6.5001 642.834,-13.5001"/>
</g>
</g>
</svg>
