<?xml version="1.0" encoding="UTF-8" standalone="no"?>
<!DOCTYPE svg PUBLIC "-//W3C//DTD SVG 1.1//EN"
 "http://www.w3.org/Graphics/SVG/1.1/DTD/svg11.dtd">
<!-- Generated by graphviz version 2.38.0 (20140413.2041)
 -->
<!-- Title: HPM7_wxgui::Initialize Pages: 1 -->
<svg width="612pt" height="115pt"
 viewBox="0.00 0.00 612.00 115.00" xmlns="http://www.w3.org/2000/svg" xmlns:xlink="http://www.w3.org/1999/xlink">
<g id="graph0" class="graph" transform="scale(1 1) rotate(0) translate(4 111)">
<title>HPM7_wxgui::Initialize</title>
<polygon fill="white" stroke="none" points="-4,4 -4,-111 608,-111 608,4 -4,4"/>
<!-- Node1 -->
<g id="node1" class="node"><title>Node1</title>
<polygon fill="#bfbfbf" stroke="black" points="0,-57 0,-76 117,-76 117,-57 0,-57"/>
<text text-anchor="middle" x="58.5" y="-64" font-family="Helvetica,sans-Serif" font-size="10.00">HPM7_wxgui::Initialize</text>
</g>
<!-- Node2 -->
<g id="node2" class="node"><title>Node2</title>
<g id="a_node2"><a xlink:href="../../d1/df3/classLMS7SuiteAppFrame.html#a6e036201fa9a029f7b0045fe81404c9f" target="_top" xlink:title="LMS7SuiteAppFrame::\lOnShowHPM7">
<polygon fill="white" stroke="black" points="153,-76.5 153,-106.5 269,-106.5 269,-76.5 153,-76.5"/>
<text text-anchor="start" x="161" y="-94.5" font-family="Helvetica,sans-Serif" font-size="10.00">LMS7SuiteAppFrame::</text>
<text text-anchor="middle" x="211" y="-83.5" font-family="Helvetica,sans-Serif" font-size="10.00">OnShowHPM7</text>
</a>
</g>
</g>
<!-- Node1&#45;&gt;Node2 -->
<g id="edge1" class="edge"><title>Node1&#45;&gt;Node2</title>
<path fill="none" stroke="midnightblue" d="M126.9,-77.696C135.559,-79.1344 144.358,-80.5961 152.832,-82.0037"/>
<polygon fill="midnightblue" stroke="midnightblue" points="127.265,-74.2088 116.827,-76.0227 126.118,-81.1142 127.265,-74.2088"/>
</g>
<!-- Node3 -->
<g id="node3" class="node"><title>Node3</title>
<g id="a_node3"><a xlink:href="../../d1/df3/classLMS7SuiteAppFrame.html#aeaeb613a8c9139f0e60b02f1f612ed5d" target="_top" xlink:title="LMS7SuiteAppFrame::\lUpdateConnections">
<polygon fill="white" stroke="black" points="153,-27.5 153,-57.5 269,-57.5 269,-27.5 153,-27.5"/>
<text text-anchor="start" x="161" y="-45.5" font-family="Helvetica,sans-Serif" font-size="10.00">LMS7SuiteAppFrame::</text>
<text text-anchor="middle" x="211" y="-34.5" font-family="Helvetica,sans-Serif" font-size="10.00">UpdateConnections</text>
</a>
</g>
</g>
<!-- Node1&#45;&gt;Node3 -->
<g id="edge2" class="edge"><title>Node1&#45;&gt;Node3</title>
<path fill="none" stroke="midnightblue" d="M127.162,-55.7101C135.673,-54.3528 144.315,-52.9747 152.646,-51.6461"/>
<polygon fill="midnightblue" stroke="midnightblue" points="126.581,-52.2584 117.257,-57.2896 127.683,-59.1711 126.581,-52.2584"/>
</g>
<!-- Node4 -->
<g id="node4" class="node"><title>Node4</title>
<g id="a_node4"><a xlink:href="../../d1/df3/classLMS7SuiteAppFrame.html#ad380f4e547c66fcfffdec0da53fe5b3e" target="_top" xlink:title="Constructor. ">
<polygon fill="white" stroke="black" points="476,-49.5 476,-79.5 592,-79.5 592,-49.5 476,-49.5"/>
<text text-anchor="start" x="484" y="-67.5" font-family="Helvetica,sans-Serif" font-size="10.00">LMS7SuiteAppFrame::</text>
<text text-anchor="middle" x="534" y="-56.5" font-family="Helvetica,sans-Serif" font-size="10.00">LMS7SuiteAppFrame</text>
</a>
</g>
</g>
<!-- Node3&#45;&gt;Node4 -->
<g id="edge3" class="edge"><title>Node3&#45;&gt;Node4</title>
<path fill="none" stroke="midnightblue" d="M279.232,-47.1078C337.507,-51.1017 420.904,-56.8174 475.973,-60.5916"/>
<polygon fill="midnightblue" stroke="midnightblue" points="279.234,-43.5998 269.018,-46.4078 278.756,-50.5835 279.234,-43.5998"/>
</g>
<!-- Node5 -->
<g id="node5" class="node"><title>Node5</title>
<g id="a_node5"><a xlink:href="../../d1/df3/classLMS7SuiteAppFrame.html#a819f017d3e706c433d9b7f4f9bc1f9c3" target="_top" xlink:title="LMS7SuiteAppFrame::\lOnControlBoardConnect">
<polygon fill="white" stroke="black" points="305,-5.5 305,-35.5 428,-35.5 428,-5.5 305,-5.5"/>
<text text-anchor="start" x="313" y="-23.5" font-family="Helvetica,sans-Serif" font-size="10.00">LMS7SuiteAppFrame::</text>
<text text-anchor="middle" x="366.5" y="-12.5" font-family="Helvetica,sans-Serif" font-size="10.00">OnControlBoardConnect</text>
</a>
</g>
</g>
<!-- Node3&#45;&gt;Node5 -->
<g id="edge4" class="edge"><title>Node3&#45;&gt;Node5</title>
<path fill="none" stroke="midnightblue" d="M279.138,-32.8776C287.727,-31.6467 296.478,-30.3924 304.953,-29.1777"/>
<polygon fill="midnightblue" stroke="midnightblue" points="278.56,-29.4246 269.158,-34.308 279.553,-36.3538 278.56,-29.4246"/>
</g>
<!-- Node5&#45;&gt;Node4 -->
<g id="edge5" class="edge"><title>Node5&#45;&gt;Node4</title>
<path fill="none" stroke="midnightblue" d="M433.678,-38.0941C447.855,-41.8632 462.709,-45.8122 476.481,-49.4738"/>
<polygon fill="midnightblue" stroke="midnightblue" points="434.556,-34.7062 423.993,-35.5192 432.758,-41.4712 434.556,-34.7062"/>
</g>
<!-- Node6 -->
<g id="node6" class="node"><title>Node6</title>
<g id="a_node6"><a xlink:href="../../d1/df3/classLMS7SuiteAppFrame.html#a08626f72855857180d80ab271f481d08" target="_top" xlink:title="LMS7SuiteAppFrame::\lOnShowConnectionSettings">
<polygon fill="white" stroke="black" points="464,-0.5 464,-30.5 604,-30.5 604,-0.5 464,-0.5"/>
<text text-anchor="start" x="472" y="-18.5" font-family="Helvetica,sans-Serif" font-size="10.00">LMS7SuiteAppFrame::</text>
<text text-anchor="middle" x="534" y="-7.5" font-family="Helvetica,sans-Serif" font-size="10.00">OnShowConnectionSettings</text>
</a>
</g>
</g>
<!-- Node5&#45;&gt;Node6 -->
<g id="edge6" class="edge"><title>Node5&#45;&gt;Node6</title>
<path fill="none" stroke="midnightblue" d="M438.399,-18.358C446.86,-18.1024 455.49,-17.8417 463.925,-17.5868"/>
<polygon fill="midnightblue" stroke="midnightblue" points="438.076,-14.8661 428.186,-18.6666 438.287,-21.8629 438.076,-14.8661"/>
</g>
</g>
</svg>
