<?xml version="1.0" encoding="UTF-8" standalone="no"?>
<!DOCTYPE svg PUBLIC "-//W3C//DTD SVG 1.1//EN"
 "http://www.w3.org/Graphics/SVG/1.1/DTD/svg11.dtd">
<!-- Generated by graphviz version 2.38.0 (20140413.2041)
 -->
<!-- Title: _glewInit_GL_EXT_transform_feedback Pages: 1 -->
<svg width="1156pt" height="107pt"
 viewBox="0.00 0.00 1156.00 107.00" xmlns="http://www.w3.org/2000/svg" xmlns:xlink="http://www.w3.org/1999/xlink">
<g id="graph0" class="graph" transform="scale(1 1) rotate(0) translate(4 103)">
<title>_glewInit_GL_EXT_transform_feedback</title>
<polygon fill="white" stroke="none" points="-4,4 -4,-103 1152,-103 1152,4 -4,4"/>
<!-- Node1 -->
<g id="node1" class="node"><title>Node1</title>
<polygon fill="#bfbfbf" stroke="black" points="0,-36 0,-66 145,-66 145,-36 0,-36"/>
<text text-anchor="start" x="8" y="-54" font-family="Helvetica,sans-Serif" font-size="10.00">_glewInit_GL_EXT_transform</text>
<text text-anchor="middle" x="72.5" y="-43" font-family="Helvetica,sans-Serif" font-size="10.00">_feedback</text>
</g>
<!-- Node2 -->
<g id="node2" class="node"><title>Node2</title>
<g id="a_node2"><a xlink:href="../../de/dd7/glew_8c.html#a3ed8f1ee7fe64ca5bdcfba71ea7fc9c9" target="_top" xlink:title="glewContextInit">
<polygon fill="white" stroke="black" points="181,-41.5 181,-60.5 266,-60.5 266,-41.5 181,-41.5"/>
<text text-anchor="middle" x="223.5" y="-48.5" font-family="Helvetica,sans-Serif" font-size="10.00">glewContextInit</text>
</a>
</g>
</g>
<!-- Node1&#45;&gt;Node2 -->
<g id="edge1" class="edge"><title>Node1&#45;&gt;Node2</title>
<path fill="none" stroke="midnightblue" d="M155.387,-51C164.221,-51 172.914,-51 180.964,-51"/>
<polygon fill="midnightblue" stroke="midnightblue" points="155.381,-47.5001 145.381,-51 155.381,-54.5001 155.381,-47.5001"/>
</g>
<!-- Node3 -->
<g id="node3" class="node"><title>Node3</title>
<g id="a_node3"><a xlink:href="../../de/dd7/glew_8c.html#a474186dcb39f7b56a9c473adf1bd5cae" target="_top" xlink:title="glewInit">
<polygon fill="white" stroke="black" points="302,-41.5 302,-60.5 352,-60.5 352,-41.5 302,-41.5"/>
<text text-anchor="middle" x="327" y="-48.5" font-family="Helvetica,sans-Serif" font-size="10.00">glewInit</text>
</a>
</g>
</g>
<!-- Node2&#45;&gt;Node3 -->
<g id="edge2" class="edge"><title>Node2&#45;&gt;Node3</title>
<path fill="none" stroke="midnightblue" d="M276.15,-51C285.111,-51 294.034,-51 301.802,-51"/>
<polygon fill="midnightblue" stroke="midnightblue" points="276.077,-47.5001 266.077,-51 276.077,-54.5001 276.077,-47.5001"/>
</g>
<!-- Node4 -->
<g id="node4" class="node"><title>Node4</title>
<g id="a_node4"><a xlink:href="../../d8/d9b/classGLFont.html#ad00733f5e361fa6ed73dc79906180bad" target="_top" xlink:title="loads opengl font file ">
<polygon fill="white" stroke="black" points="411,-79.5 411,-98.5 484,-98.5 484,-79.5 411,-79.5"/>
<text text-anchor="middle" x="447.5" y="-86.5" font-family="Helvetica,sans-Serif" font-size="10.00">GLFont::load</text>
</a>
</g>
</g>
<!-- Node3&#45;&gt;Node4 -->
<g id="edge3" class="edge"><title>Node3&#45;&gt;Node4</title>
<path fill="none" stroke="midnightblue" d="M361.99,-61.8998C379.299,-67.4505 400.147,-74.1359 416.805,-79.4777"/>
<polygon fill="midnightblue" stroke="midnightblue" points="362.857,-58.5024 352.266,-58.7816 360.72,-65.1681 362.857,-58.5024"/>
</g>
<!-- Node5 -->
<g id="node5" class="node"><title>Node5</title>
<g id="a_node5"><a xlink:href="../../d8/d9b/classGLFont.html#a94999edbe6ed99c8e8af8acd2f09ce90" target="_top" xlink:title="GLFont::loadFromArray">
<polygon fill="white" stroke="black" points="388,-41.5 388,-60.5 507,-60.5 507,-41.5 388,-41.5"/>
<text text-anchor="middle" x="447.5" y="-48.5" font-family="Helvetica,sans-Serif" font-size="10.00">GLFont::loadFromArray</text>
</a>
</g>
</g>
<!-- Node3&#45;&gt;Node5 -->
<g id="edge4" class="edge"><title>Node3&#45;&gt;Node5</title>
<path fill="none" stroke="midnightblue" d="M362.491,-51C370.361,-51 378.942,-51 387.516,-51"/>
<polygon fill="midnightblue" stroke="midnightblue" points="362.266,-47.5001 352.266,-51 362.266,-54.5001 362.266,-47.5001"/>
</g>
<!-- Node6 -->
<g id="node6" class="node"><title>Node6</title>
<g id="a_node6"><a xlink:href="../../d9/d73/classOpenGLGraph.html#acaad9aa036130e655da7e5be30e6efec" target="_top" xlink:title="OpenGLGraph::Initialize">
<polygon fill="white" stroke="black" points="543,-22.5 543,-41.5 664,-41.5 664,-22.5 543,-22.5"/>
<text text-anchor="middle" x="603.5" y="-29.5" font-family="Helvetica,sans-Serif" font-size="10.00">OpenGLGraph::Initialize</text>
</a>
</g>
</g>
<!-- Node3&#45;&gt;Node6 -->
<g id="edge11" class="edge"><title>Node3&#45;&gt;Node6</title>
<path fill="none" stroke="midnightblue" d="M361.677,-38.3488C370.149,-35.7207 379.307,-33.3435 388,-32 439.892,-23.9801 499.692,-24.7946 542.948,-27.1448"/>
<polygon fill="midnightblue" stroke="midnightblue" points="360.516,-35.046 352.116,-41.5023 362.709,-41.6938 360.516,-35.046"/>
</g>
<!-- Node5&#45;&gt;Node6 -->
<g id="edge5" class="edge"><title>Node5&#45;&gt;Node6</title>
<path fill="none" stroke="midnightblue" d="M517.174,-42.5272C525.782,-41.4652 534.53,-40.3859 542.982,-39.3431"/>
<polygon fill="midnightblue" stroke="midnightblue" points="516.656,-39.0645 507.16,-43.7627 517.513,-46.0118 516.656,-39.0645"/>
</g>
<!-- Node7 -->
<g id="node7" class="node"><title>Node7</title>
<g id="a_node7"><a xlink:href="../../d9/d73/classOpenGLGraph.html#af2f1cb689fb6884d8509877ecdf29fb8" target="_top" xlink:title="Draw graph data series. ">
<polygon fill="white" stroke="black" points="700,-22.5 700,-41.5 808,-41.5 808,-22.5 700,-22.5"/>
<text text-anchor="middle" x="754" y="-29.5" font-family="Helvetica,sans-Serif" font-size="10.00">OpenGLGraph::Draw</text>
</a>
</g>
</g>
<!-- Node6&#45;&gt;Node7 -->
<g id="edge6" class="edge"><title>Node6&#45;&gt;Node7</title>
<path fill="none" stroke="midnightblue" d="M674.079,-32C682.684,-32 691.372,-32 699.68,-32"/>
<polygon fill="midnightblue" stroke="midnightblue" points="674.045,-28.5001 664.045,-32 674.045,-35.5001 674.045,-28.5001"/>
</g>
<!-- Node8 -->
<g id="node8" class="node"><title>Node8</title>
<g id="a_node8"><a xlink:href="../../d5/d45/classfftviewer__frFFTviewer.html#aa01d7b5ad35c15051574834869accae0" target="_top" xlink:title="fftviewer_frFFTviewer\l::OnUpdatePlots">
<polygon fill="white" stroke="black" points="844,-39 844,-69 956,-69 956,-39 844,-39"/>
<text text-anchor="start" x="852" y="-57" font-family="Helvetica,sans-Serif" font-size="10.00">fftviewer_frFFTviewer</text>
<text text-anchor="middle" x="900" y="-46" font-family="Helvetica,sans-Serif" font-size="10.00">::OnUpdatePlots</text>
</a>
</g>
</g>
<!-- Node7&#45;&gt;Node8 -->
<g id="edge7" class="edge"><title>Node7&#45;&gt;Node8</title>
<path fill="none" stroke="midnightblue" d="M818.358,-41.6797C826.767,-42.9644 835.336,-44.2735 843.596,-45.5355"/>
<polygon fill="midnightblue" stroke="midnightblue" points="818.625,-38.18 808.211,-40.1295 817.568,-45.0997 818.625,-38.18"/>
</g>
<!-- Node10 -->
<g id="node10" class="node"><title>Node10</title>
<g id="a_node10"><a xlink:href="../../d9/d73/classOpenGLGraph.html#a3ec7e57bd2baa9fffbd14a0fb952e8a8" target="_top" xlink:title="OpenGLGraph::render">
<polygon fill="white" stroke="black" points="844,-0.5 844,-19.5 956,-19.5 956,-0.5 844,-0.5"/>
<text text-anchor="middle" x="900" y="-7.5" font-family="Helvetica,sans-Serif" font-size="10.00">OpenGLGraph::render</text>
</a>
</g>
</g>
<!-- Node7&#45;&gt;Node10 -->
<g id="edge9" class="edge"><title>Node7&#45;&gt;Node10</title>
<path fill="none" stroke="midnightblue" d="M818.358,-22.3203C826.767,-21.0356 835.336,-19.7265 843.596,-18.4645"/>
<polygon fill="midnightblue" stroke="midnightblue" points="817.568,-18.9003 808.211,-23.8705 818.625,-25.82 817.568,-18.9003"/>
</g>
<!-- Node9 -->
<g id="node9" class="node"><title>Node9</title>
<g id="a_node9"><a xlink:href="../../d5/d45/classfftviewer__frFFTviewer.html#a4bcd0ebcddfbe4227a156a426db9d5b9" target="_top" xlink:title="Constructor. ">
<polygon fill="white" stroke="black" points="1011,-39 1011,-69 1129,-69 1129,-39 1011,-39"/>
<text text-anchor="start" x="1019" y="-57" font-family="Helvetica,sans-Serif" font-size="10.00">fftviewer_frFFTviewer</text>
<text text-anchor="middle" x="1070" y="-46" font-family="Helvetica,sans-Serif" font-size="10.00">::fftviewer_frFFTviewer</text>
</a>
</g>
</g>
<!-- Node8&#45;&gt;Node9 -->
<g id="edge8" class="edge"><title>Node8&#45;&gt;Node9</title>
<path fill="none" stroke="midnightblue" d="M966.094,-54C980.886,-54 996.503,-54 1010.98,-54"/>
<polygon fill="midnightblue" stroke="midnightblue" points="966.01,-50.5001 956.009,-54 966.009,-57.5001 966.01,-50.5001"/>
</g>
<!-- Node11 -->
<g id="node11" class="node"><title>Node11</title>
<g id="a_node11"><a xlink:href="../../d9/d73/classOpenGLGraph.html#ae8a4b37513a42fc6604a56ba03a24238" target="_top" xlink:title="OpenGLGraph::SetInfoMessage">
<polygon fill="white" stroke="black" points="992,-0.5 992,-19.5 1148,-19.5 1148,-0.5 992,-0.5"/>
<text text-anchor="middle" x="1070" y="-7.5" font-family="Helvetica,sans-Serif" font-size="10.00">OpenGLGraph::SetInfoMessage</text>
</a>
</g>
</g>
<!-- Node10&#45;&gt;Node11 -->
<g id="edge10" class="edge"><title>Node10&#45;&gt;Node11</title>
<path fill="none" stroke="midnightblue" d="M966.15,-10C974.592,-10 983.302,-10 991.914,-10"/>
<polygon fill="midnightblue" stroke="midnightblue" points="966.01,-6.5001 956.009,-10 966.009,-13.5001 966.01,-6.5001"/>
</g>
</g>
</svg>
