<?xml version="1.0" encoding="UTF-8" standalone="no"?>
<!DOCTYPE svg PUBLIC "-//W3C//DTD SVG 1.1//EN"
 "http://www.w3.org/Graphics/SVG/1.1/DTD/svg11.dtd">
<!-- Generated by graphviz version 2.38.0 (20140413.2041)
 -->
<!-- Title: _glewInit_GL_SGIS_multisample Pages: 1 -->
<svg width="1172pt" height="107pt"
 viewBox="0.00 0.00 1172.00 107.00" xmlns="http://www.w3.org/2000/svg" xmlns:xlink="http://www.w3.org/1999/xlink">
<g id="graph0" class="graph" transform="scale(1 1) rotate(0) translate(4 103)">
<title>_glewInit_GL_SGIS_multisample</title>
<polygon fill="white" stroke="none" points="-4,4 -4,-103 1168,-103 1168,4 -4,4"/>
<!-- Node1 -->
<g id="node1" class="node"><title>Node1</title>
<polygon fill="#bfbfbf" stroke="black" points="0,-41.5 0,-60.5 161,-60.5 161,-41.5 0,-41.5"/>
<text text-anchor="middle" x="80.5" y="-48.5" font-family="Helvetica,sans-Serif" font-size="10.00">_glewInit_GL_SGIS_multisample</text>
</g>
<!-- Node2 -->
<g id="node2" class="node"><title>Node2</title>
<g id="a_node2"><a xlink:href="../../de/dd7/glew_8c.html#a3ed8f1ee7fe64ca5bdcfba71ea7fc9c9" target="_top" xlink:title="glewContextInit">
<polygon fill="white" stroke="black" points="197,-41.5 197,-60.5 282,-60.5 282,-41.5 197,-41.5"/>
<text text-anchor="middle" x="239.5" y="-48.5" font-family="Helvetica,sans-Serif" font-size="10.00">glewContextInit</text>
</a>
</g>
</g>
<!-- Node1&#45;&gt;Node2 -->
<g id="edge1" class="edge"><title>Node1&#45;&gt;Node2</title>
<path fill="none" stroke="midnightblue" d="M171.412,-51C180.245,-51 188.881,-51 196.86,-51"/>
<polygon fill="midnightblue" stroke="midnightblue" points="171.38,-47.5001 161.38,-51 171.38,-54.5001 171.38,-47.5001"/>
</g>
<!-- Node3 -->
<g id="node3" class="node"><title>Node3</title>
<g id="a_node3"><a xlink:href="../../de/dd7/glew_8c.html#a474186dcb39f7b56a9c473adf1bd5cae" target="_top" xlink:title="glewInit">
<polygon fill="white" stroke="black" points="318,-41.5 318,-60.5 368,-60.5 368,-41.5 318,-41.5"/>
<text text-anchor="middle" x="343" y="-48.5" font-family="Helvetica,sans-Serif" font-size="10.00">glewInit</text>
</a>
</g>
</g>
<!-- Node2&#45;&gt;Node3 -->
<g id="edge2" class="edge"><title>Node2&#45;&gt;Node3</title>
<path fill="none" stroke="midnightblue" d="M292.15,-51C301.111,-51 310.034,-51 317.802,-51"/>
<polygon fill="midnightblue" stroke="midnightblue" points="292.077,-47.5001 282.077,-51 292.077,-54.5001 292.077,-47.5001"/>
</g>
<!-- Node4 -->
<g id="node4" class="node"><title>Node4</title>
<g id="a_node4"><a xlink:href="../../d8/d9b/classGLFont.html#ad00733f5e361fa6ed73dc79906180bad" target="_top" xlink:title="loads opengl font file ">
<polygon fill="white" stroke="black" points="427,-79.5 427,-98.5 500,-98.5 500,-79.5 427,-79.5"/>
<text text-anchor="middle" x="463.5" y="-86.5" font-family="Helvetica,sans-Serif" font-size="10.00">GLFont::load</text>
</a>
</g>
</g>
<!-- Node3&#45;&gt;Node4 -->
<g id="edge3" class="edge"><title>Node3&#45;&gt;Node4</title>
<path fill="none" stroke="midnightblue" d="M377.99,-61.8998C395.299,-67.4505 416.147,-74.1359 432.805,-79.4777"/>
<polygon fill="midnightblue" stroke="midnightblue" points="378.857,-58.5024 368.266,-58.7816 376.72,-65.1681 378.857,-58.5024"/>
</g>
<!-- Node5 -->
<g id="node5" class="node"><title>Node5</title>
<g id="a_node5"><a xlink:href="../../d8/d9b/classGLFont.html#a94999edbe6ed99c8e8af8acd2f09ce90" target="_top" xlink:title="GLFont::loadFromArray">
<polygon fill="white" stroke="black" points="404,-41.5 404,-60.5 523,-60.5 523,-41.5 404,-41.5"/>
<text text-anchor="middle" x="463.5" y="-48.5" font-family="Helvetica,sans-Serif" font-size="10.00">GLFont::loadFromArray</text>
</a>
</g>
</g>
<!-- Node3&#45;&gt;Node5 -->
<g id="edge4" class="edge"><title>Node3&#45;&gt;Node5</title>
<path fill="none" stroke="midnightblue" d="M378.491,-51C386.361,-51 394.942,-51 403.516,-51"/>
<polygon fill="midnightblue" stroke="midnightblue" points="378.266,-47.5001 368.266,-51 378.266,-54.5001 378.266,-47.5001"/>
</g>
<!-- Node6 -->
<g id="node6" class="node"><title>Node6</title>
<g id="a_node6"><a xlink:href="../../d9/d73/classOpenGLGraph.html#acaad9aa036130e655da7e5be30e6efec" target="_top" xlink:title="OpenGLGraph::Initialize">
<polygon fill="white" stroke="black" points="559,-22.5 559,-41.5 680,-41.5 680,-22.5 559,-22.5"/>
<text text-anchor="middle" x="619.5" y="-29.5" font-family="Helvetica,sans-Serif" font-size="10.00">OpenGLGraph::Initialize</text>
</a>
</g>
</g>
<!-- Node3&#45;&gt;Node6 -->
<g id="edge11" class="edge"><title>Node3&#45;&gt;Node6</title>
<path fill="none" stroke="midnightblue" d="M377.677,-38.3488C386.149,-35.7207 395.307,-33.3435 404,-32 455.892,-23.9801 515.692,-24.7946 558.948,-27.1448"/>
<polygon fill="midnightblue" stroke="midnightblue" points="376.516,-35.046 368.116,-41.5023 378.709,-41.6938 376.516,-35.046"/>
</g>
<!-- Node5&#45;&gt;Node6 -->
<g id="edge5" class="edge"><title>Node5&#45;&gt;Node6</title>
<path fill="none" stroke="midnightblue" d="M533.174,-42.5272C541.782,-41.4652 550.53,-40.3859 558.982,-39.3431"/>
<polygon fill="midnightblue" stroke="midnightblue" points="532.656,-39.0645 523.16,-43.7627 533.513,-46.0118 532.656,-39.0645"/>
</g>
<!-- Node7 -->
<g id="node7" class="node"><title>Node7</title>
<g id="a_node7"><a xlink:href="../../d9/d73/classOpenGLGraph.html#af2f1cb689fb6884d8509877ecdf29fb8" target="_top" xlink:title="Draw graph data series. ">
<polygon fill="white" stroke="black" points="716,-22.5 716,-41.5 824,-41.5 824,-22.5 716,-22.5"/>
<text text-anchor="middle" x="770" y="-29.5" font-family="Helvetica,sans-Serif" font-size="10.00">OpenGLGraph::Draw</text>
</a>
</g>
</g>
<!-- Node6&#45;&gt;Node7 -->
<g id="edge6" class="edge"><title>Node6&#45;&gt;Node7</title>
<path fill="none" stroke="midnightblue" d="M690.079,-32C698.684,-32 707.372,-32 715.68,-32"/>
<polygon fill="midnightblue" stroke="midnightblue" points="690.045,-28.5001 680.045,-32 690.045,-35.5001 690.045,-28.5001"/>
</g>
<!-- Node8 -->
<g id="node8" class="node"><title>Node8</title>
<g id="a_node8"><a xlink:href="../../d5/d45/classfftviewer__frFFTviewer.html#aa01d7b5ad35c15051574834869accae0" target="_top" xlink:title="fftviewer_frFFTviewer\l::OnUpdatePlots">
<polygon fill="white" stroke="black" points="860,-39 860,-69 972,-69 972,-39 860,-39"/>
<text text-anchor="start" x="868" y="-57" font-family="Helvetica,sans-Serif" font-size="10.00">fftviewer_frFFTviewer</text>
<text text-anchor="middle" x="916" y="-46" font-family="Helvetica,sans-Serif" font-size="10.00">::OnUpdatePlots</text>
</a>
</g>
</g>
<!-- Node7&#45;&gt;Node8 -->
<g id="edge7" class="edge"><title>Node7&#45;&gt;Node8</title>
<path fill="none" stroke="midnightblue" d="M834.358,-41.6797C842.767,-42.9644 851.336,-44.2735 859.596,-45.5355"/>
<polygon fill="midnightblue" stroke="midnightblue" points="834.625,-38.18 824.211,-40.1295 833.568,-45.0997 834.625,-38.18"/>
</g>
<!-- Node10 -->
<g id="node10" class="node"><title>Node10</title>
<g id="a_node10"><a xlink:href="../../d9/d73/classOpenGLGraph.html#a3ec7e57bd2baa9fffbd14a0fb952e8a8" target="_top" xlink:title="OpenGLGraph::render">
<polygon fill="white" stroke="black" points="860,-0.5 860,-19.5 972,-19.5 972,-0.5 860,-0.5"/>
<text text-anchor="middle" x="916" y="-7.5" font-family="Helvetica,sans-Serif" font-size="10.00">OpenGLGraph::render</text>
</a>
</g>
</g>
<!-- Node7&#45;&gt;Node10 -->
<g id="edge9" class="edge"><title>Node7&#45;&gt;Node10</title>
<path fill="none" stroke="midnightblue" d="M834.358,-22.3203C842.767,-21.0356 851.336,-19.7265 859.596,-18.4645"/>
<polygon fill="midnightblue" stroke="midnightblue" points="833.568,-18.9003 824.211,-23.8705 834.625,-25.82 833.568,-18.9003"/>
</g>
<!-- Node9 -->
<g id="node9" class="node"><title>Node9</title>
<g id="a_node9"><a xlink:href="../../d5/d45/classfftviewer__frFFTviewer.html#a4bcd0ebcddfbe4227a156a426db9d5b9" target="_top" xlink:title="Constructor. ">
<polygon fill="white" stroke="black" points="1027,-39 1027,-69 1145,-69 1145,-39 1027,-39"/>
<text text-anchor="start" x="1035" y="-57" font-family="Helvetica,sans-Serif" font-size="10.00">fftviewer_frFFTviewer</text>
<text text-anchor="middle" x="1086" y="-46" font-family="Helvetica,sans-Serif" font-size="10.00">::fftviewer_frFFTviewer</text>
</a>
</g>
</g>
<!-- Node8&#45;&gt;Node9 -->
<g id="edge8" class="edge"><title>Node8&#45;&gt;Node9</title>
<path fill="none" stroke="midnightblue" d="M982.094,-54C996.886,-54 1012.5,-54 1026.98,-54"/>
<polygon fill="midnightblue" stroke="midnightblue" points="982.01,-50.5001 972.009,-54 982.009,-57.5001 982.01,-50.5001"/>
</g>
<!-- Node11 -->
<g id="node11" class="node"><title>Node11</title>
<g id="a_node11"><a xlink:href="../../d9/d73/classOpenGLGraph.html#ae8a4b37513a42fc6604a56ba03a24238" target="_top" xlink:title="OpenGLGraph::SetInfoMessage">
<polygon fill="white" stroke="black" points="1008,-0.5 1008,-19.5 1164,-19.5 1164,-0.5 1008,-0.5"/>
<text text-anchor="middle" x="1086" y="-7.5" font-family="Helvetica,sans-Serif" font-size="10.00">OpenGLGraph::SetInfoMessage</text>
</a>
</g>
</g>
<!-- Node10&#45;&gt;Node11 -->
<g id="edge10" class="edge"><title>Node10&#45;&gt;Node11</title>
<path fill="none" stroke="midnightblue" d="M982.15,-10C990.592,-10 999.302,-10 1007.91,-10"/>
<polygon fill="midnightblue" stroke="midnightblue" points="982.01,-6.5001 972.009,-10 982.009,-13.5001 982.01,-6.5001"/>
</g>
</g>
</svg>
