<?xml version="1.0" encoding="UTF-8" standalone="no"?>
<!DOCTYPE svg PUBLIC "-//W3C//DTD SVG 1.1//EN"
 "http://www.w3.org/Graphics/SVG/1.1/DTD/svg11.dtd">
<!-- Generated by graphviz version 2.38.0 (20140413.2041)
 -->
<!-- Title: _glewSearchExtension Pages: 1 -->
<svg width="1143pt" height="142pt"
 viewBox="0.00 0.00 1143.00 142.00" xmlns="http://www.w3.org/2000/svg" xmlns:xlink="http://www.w3.org/1999/xlink">
<g id="graph0" class="graph" transform="scale(1 1) rotate(0) translate(4 138)">
<title>_glewSearchExtension</title>
<polygon fill="white" stroke="none" points="-4,4 -4,-138 1139,-138 1139,4 -4,4"/>
<!-- Node1 -->
<g id="node1" class="node"><title>Node1</title>
<polygon fill="#bfbfbf" stroke="black" points="0,-57.5 0,-76.5 116,-76.5 116,-57.5 0,-57.5"/>
<text text-anchor="middle" x="58" y="-64.5" font-family="Helvetica,sans-Serif" font-size="10.00">_glewSearchExtension</text>
</g>
<!-- Node2 -->
<g id="node2" class="node"><title>Node2</title>
<g id="a_node2"><a xlink:href="../../de/dd7/glew_8c.html#a3ed8f1ee7fe64ca5bdcfba71ea7fc9c9" target="_top" xlink:title="glewContextInit">
<polygon fill="white" stroke="black" points="160,-114.5 160,-133.5 245,-133.5 245,-114.5 160,-114.5"/>
<text text-anchor="middle" x="202.5" y="-121.5" font-family="Helvetica,sans-Serif" font-size="10.00">glewContextInit</text>
</a>
</g>
</g>
<!-- Node1&#45;&gt;Node2 -->
<g id="edge1" class="edge"><title>Node1&#45;&gt;Node2</title>
<path fill="none" stroke="midnightblue" d="M91.2651,-80.3818C109.128,-87.7403 131.751,-96.978 152,-105 159.873,-108.119 168.481,-111.45 176.278,-114.438"/>
<polygon fill="midnightblue" stroke="midnightblue" points="92.4553,-77.0867 81.8764,-76.5067 89.7846,-83.5572 92.4553,-77.0867"/>
</g>
<!-- Node12 -->
<g id="node12" class="node"><title>Node12</title>
<g id="a_node12"><a xlink:href="../../de/dd7/glew_8c.html#a395b872e5b641671d4be9e3179817cfc" target="_top" xlink:title="glewGetExtension">
<polygon fill="white" stroke="black" points="154.5,-76.5 154.5,-95.5 250.5,-95.5 250.5,-76.5 154.5,-76.5"/>
<text text-anchor="middle" x="202.5" y="-83.5" font-family="Helvetica,sans-Serif" font-size="10.00">glewGetExtension</text>
</a>
</g>
</g>
<!-- Node1&#45;&gt;Node12 -->
<g id="edge12" class="edge"><title>Node1&#45;&gt;Node12</title>
<path fill="none" stroke="midnightblue" d="M126.056,-75.9408C135.635,-77.218 145.316,-78.5088 154.402,-79.7203"/>
<polygon fill="midnightblue" stroke="midnightblue" points="126.514,-72.471 116.139,-74.6185 125.589,-79.4096 126.514,-72.471"/>
</g>
<!-- Node13 -->
<g id="node13" class="node"><title>Node13</title>
<g id="a_node13"><a xlink:href="../../de/dd7/glew_8c.html#aac5568f7a9e9194ee6bf3c7d6d571c85" target="_top" xlink:title="glxewGetExtension">
<polygon fill="white" stroke="black" points="152,-38.5 152,-57.5 253,-57.5 253,-38.5 152,-38.5"/>
<text text-anchor="middle" x="202.5" y="-45.5" font-family="Helvetica,sans-Serif" font-size="10.00">glxewGetExtension</text>
</a>
</g>
</g>
<!-- Node1&#45;&gt;Node13 -->
<g id="edge13" class="edge"><title>Node1&#45;&gt;Node13</title>
<path fill="none" stroke="midnightblue" d="M126.166,-58.0445C134.765,-56.898 143.443,-55.7409 151.698,-54.6403"/>
<polygon fill="midnightblue" stroke="midnightblue" points="125.589,-54.5904 116.139,-59.3815 126.514,-61.529 125.589,-54.5904"/>
</g>
<!-- Node14 -->
<g id="node14" class="node"><title>Node14</title>
<g id="a_node14"><a xlink:href="../../de/dd7/glew_8c.html#aa19d2de0582d1d430c20007237d7ad68" target="_top" xlink:title="glxewInit">
<polygon fill="white" stroke="black" points="174.5,-0.5 174.5,-19.5 230.5,-19.5 230.5,-0.5 174.5,-0.5"/>
<text text-anchor="middle" x="202.5" y="-7.5" font-family="Helvetica,sans-Serif" font-size="10.00">glxewInit</text>
</a>
</g>
</g>
<!-- Node1&#45;&gt;Node14 -->
<g id="edge14" class="edge"><title>Node1&#45;&gt;Node14</title>
<path fill="none" stroke="midnightblue" d="M91.2651,-53.6182C109.128,-46.2597 131.751,-37.022 152,-29 159.873,-25.8808 168.481,-22.5497 176.278,-19.5618"/>
<polygon fill="midnightblue" stroke="midnightblue" points="89.7846,-50.4428 81.8764,-57.4933 92.4553,-56.9133 89.7846,-50.4428"/>
</g>
<!-- Node3 -->
<g id="node3" class="node"><title>Node3</title>
<g id="a_node3"><a xlink:href="../../de/dd7/glew_8c.html#a474186dcb39f7b56a9c473adf1bd5cae" target="_top" xlink:title="glewInit">
<polygon fill="white" stroke="black" points="289,-57.5 289,-76.5 339,-76.5 339,-57.5 289,-57.5"/>
<text text-anchor="middle" x="314" y="-64.5" font-family="Helvetica,sans-Serif" font-size="10.00">glewInit</text>
</a>
</g>
</g>
<!-- Node2&#45;&gt;Node3 -->
<g id="edge2" class="edge"><title>Node2&#45;&gt;Node3</title>
<path fill="none" stroke="midnightblue" d="M240.464,-110.744C244.745,-108.936 249.005,-107.007 253,-105 269.747,-96.5869 287.759,-84.7678 299.63,-76.5534"/>
<polygon fill="midnightblue" stroke="midnightblue" points="239.12,-107.512 231.152,-114.495 241.736,-114.005 239.12,-107.512"/>
</g>
<!-- Node4 -->
<g id="node4" class="node"><title>Node4</title>
<g id="a_node4"><a xlink:href="../../d8/d9b/classGLFont.html#ad00733f5e361fa6ed73dc79906180bad" target="_top" xlink:title="loads opengl font file ">
<polygon fill="white" stroke="black" points="398,-95.5 398,-114.5 471,-114.5 471,-95.5 398,-95.5"/>
<text text-anchor="middle" x="434.5" y="-102.5" font-family="Helvetica,sans-Serif" font-size="10.00">GLFont::load</text>
</a>
</g>
</g>
<!-- Node3&#45;&gt;Node4 -->
<g id="edge3" class="edge"><title>Node3&#45;&gt;Node4</title>
<path fill="none" stroke="midnightblue" d="M348.99,-77.8998C366.299,-83.4505 387.147,-90.1359 403.805,-95.4777"/>
<polygon fill="midnightblue" stroke="midnightblue" points="349.857,-74.5024 339.266,-74.7816 347.72,-81.1681 349.857,-74.5024"/>
</g>
<!-- Node5 -->
<g id="node5" class="node"><title>Node5</title>
<g id="a_node5"><a xlink:href="../../d8/d9b/classGLFont.html#a94999edbe6ed99c8e8af8acd2f09ce90" target="_top" xlink:title="GLFont::loadFromArray">
<polygon fill="white" stroke="black" points="375,-57.5 375,-76.5 494,-76.5 494,-57.5 375,-57.5"/>
<text text-anchor="middle" x="434.5" y="-64.5" font-family="Helvetica,sans-Serif" font-size="10.00">GLFont::loadFromArray</text>
</a>
</g>
</g>
<!-- Node3&#45;&gt;Node5 -->
<g id="edge4" class="edge"><title>Node3&#45;&gt;Node5</title>
<path fill="none" stroke="midnightblue" d="M349.491,-67C357.361,-67 365.942,-67 374.516,-67"/>
<polygon fill="midnightblue" stroke="midnightblue" points="349.266,-63.5001 339.266,-67 349.266,-70.5001 349.266,-63.5001"/>
</g>
<!-- Node6 -->
<g id="node6" class="node"><title>Node6</title>
<g id="a_node6"><a xlink:href="../../d9/d73/classOpenGLGraph.html#acaad9aa036130e655da7e5be30e6efec" target="_top" xlink:title="OpenGLGraph::Initialize">
<polygon fill="white" stroke="black" points="530,-38.5 530,-57.5 651,-57.5 651,-38.5 530,-38.5"/>
<text text-anchor="middle" x="590.5" y="-45.5" font-family="Helvetica,sans-Serif" font-size="10.00">OpenGLGraph::Initialize</text>
</a>
</g>
</g>
<!-- Node3&#45;&gt;Node6 -->
<g id="edge11" class="edge"><title>Node3&#45;&gt;Node6</title>
<path fill="none" stroke="midnightblue" d="M348.677,-54.3488C357.149,-51.7207 366.307,-49.3435 375,-48 426.892,-39.9801 486.692,-40.7946 529.948,-43.1448"/>
<polygon fill="midnightblue" stroke="midnightblue" points="347.516,-51.046 339.116,-57.5023 349.709,-57.6938 347.516,-51.046"/>
</g>
<!-- Node5&#45;&gt;Node6 -->
<g id="edge5" class="edge"><title>Node5&#45;&gt;Node6</title>
<path fill="none" stroke="midnightblue" d="M504.174,-58.5272C512.782,-57.4652 521.53,-56.3859 529.982,-55.3431"/>
<polygon fill="midnightblue" stroke="midnightblue" points="503.656,-55.0645 494.16,-59.7627 504.513,-62.0118 503.656,-55.0645"/>
</g>
<!-- Node7 -->
<g id="node7" class="node"><title>Node7</title>
<g id="a_node7"><a xlink:href="../../d9/d73/classOpenGLGraph.html#af2f1cb689fb6884d8509877ecdf29fb8" target="_top" xlink:title="Draw graph data series. ">
<polygon fill="white" stroke="black" points="687,-38.5 687,-57.5 795,-57.5 795,-38.5 687,-38.5"/>
<text text-anchor="middle" x="741" y="-45.5" font-family="Helvetica,sans-Serif" font-size="10.00">OpenGLGraph::Draw</text>
</a>
</g>
</g>
<!-- Node6&#45;&gt;Node7 -->
<g id="edge6" class="edge"><title>Node6&#45;&gt;Node7</title>
<path fill="none" stroke="midnightblue" d="M661.079,-48C669.684,-48 678.372,-48 686.68,-48"/>
<polygon fill="midnightblue" stroke="midnightblue" points="661.045,-44.5001 651.045,-48 661.045,-51.5001 661.045,-44.5001"/>
</g>
<!-- Node8 -->
<g id="node8" class="node"><title>Node8</title>
<g id="a_node8"><a xlink:href="../../d5/d45/classfftviewer__frFFTviewer.html#aa01d7b5ad35c15051574834869accae0" target="_top" xlink:title="fftviewer_frFFTviewer\l::OnUpdatePlots">
<polygon fill="white" stroke="black" points="831,-55 831,-85 943,-85 943,-55 831,-55"/>
<text text-anchor="start" x="839" y="-73" font-family="Helvetica,sans-Serif" font-size="10.00">fftviewer_frFFTviewer</text>
<text text-anchor="middle" x="887" y="-62" font-family="Helvetica,sans-Serif" font-size="10.00">::OnUpdatePlots</text>
</a>
</g>
</g>
<!-- Node7&#45;&gt;Node8 -->
<g id="edge7" class="edge"><title>Node7&#45;&gt;Node8</title>
<path fill="none" stroke="midnightblue" d="M805.358,-57.6797C813.767,-58.9644 822.336,-60.2735 830.596,-61.5355"/>
<polygon fill="midnightblue" stroke="midnightblue" points="805.625,-54.18 795.211,-56.1295 804.568,-61.0997 805.625,-54.18"/>
</g>
<!-- Node10 -->
<g id="node10" class="node"><title>Node10</title>
<g id="a_node10"><a xlink:href="../../d9/d73/classOpenGLGraph.html#a3ec7e57bd2baa9fffbd14a0fb952e8a8" target="_top" xlink:title="OpenGLGraph::render">
<polygon fill="white" stroke="black" points="831,-16.5 831,-35.5 943,-35.5 943,-16.5 831,-16.5"/>
<text text-anchor="middle" x="887" y="-23.5" font-family="Helvetica,sans-Serif" font-size="10.00">OpenGLGraph::render</text>
</a>
</g>
</g>
<!-- Node7&#45;&gt;Node10 -->
<g id="edge9" class="edge"><title>Node7&#45;&gt;Node10</title>
<path fill="none" stroke="midnightblue" d="M805.358,-38.3203C813.767,-37.0356 822.336,-35.7265 830.596,-34.4645"/>
<polygon fill="midnightblue" stroke="midnightblue" points="804.568,-34.9003 795.211,-39.8705 805.625,-41.82 804.568,-34.9003"/>
</g>
<!-- Node9 -->
<g id="node9" class="node"><title>Node9</title>
<g id="a_node9"><a xlink:href="../../d5/d45/classfftviewer__frFFTviewer.html#a4bcd0ebcddfbe4227a156a426db9d5b9" target="_top" xlink:title="Constructor. ">
<polygon fill="white" stroke="black" points="998,-55 998,-85 1116,-85 1116,-55 998,-55"/>
<text text-anchor="start" x="1006" y="-73" font-family="Helvetica,sans-Serif" font-size="10.00">fftviewer_frFFTviewer</text>
<text text-anchor="middle" x="1057" y="-62" font-family="Helvetica,sans-Serif" font-size="10.00">::fftviewer_frFFTviewer</text>
</a>
</g>
</g>
<!-- Node8&#45;&gt;Node9 -->
<g id="edge8" class="edge"><title>Node8&#45;&gt;Node9</title>
<path fill="none" stroke="midnightblue" d="M953.094,-70C967.886,-70 983.503,-70 997.978,-70"/>
<polygon fill="midnightblue" stroke="midnightblue" points="953.01,-66.5001 943.009,-70 953.009,-73.5001 953.01,-66.5001"/>
</g>
<!-- Node11 -->
<g id="node11" class="node"><title>Node11</title>
<g id="a_node11"><a xlink:href="../../d9/d73/classOpenGLGraph.html#ae8a4b37513a42fc6604a56ba03a24238" target="_top" xlink:title="OpenGLGraph::SetInfoMessage">
<polygon fill="white" stroke="black" points="979,-16.5 979,-35.5 1135,-35.5 1135,-16.5 979,-16.5"/>
<text text-anchor="middle" x="1057" y="-23.5" font-family="Helvetica,sans-Serif" font-size="10.00">OpenGLGraph::SetInfoMessage</text>
</a>
</g>
</g>
<!-- Node10&#45;&gt;Node11 -->
<g id="edge10" class="edge"><title>Node10&#45;&gt;Node11</title>
<path fill="none" stroke="midnightblue" d="M953.15,-26C961.592,-26 970.302,-26 978.914,-26"/>
<polygon fill="midnightblue" stroke="midnightblue" points="953.01,-22.5001 943.009,-26 953.009,-29.5001 953.01,-22.5001"/>
</g>
<!-- Node14&#45;&gt;Node3 -->
<g id="edge15" class="edge"><title>Node14&#45;&gt;Node3</title>
<path fill="none" stroke="midnightblue" d="M240.158,-23.1266C244.542,-24.9724 248.91,-26.9455 253,-29 269.747,-37.4131 287.759,-49.2322 299.63,-57.4466"/>
<polygon fill="midnightblue" stroke="midnightblue" points="241.22,-19.7817 230.636,-19.3067 238.614,-26.2784 241.22,-19.7817"/>
</g>
</g>
</svg>
