<?xml version="1.0" encoding="UTF-8" standalone="no"?>
<!DOCTYPE svg PUBLIC "-//W3C//DTD SVG 1.1//EN"
 "http://www.w3.org/Graphics/SVG/1.1/DTD/svg11.dtd">
<!-- Generated by graphviz version 2.38.0 (20140413.2041)
 -->
<!-- Title: _glewInit_GL_SGIS_texture4D Pages: 1 -->
<svg width="1162pt" height="107pt"
 viewBox="0.00 0.00 1162.00 107.00" xmlns="http://www.w3.org/2000/svg" xmlns:xlink="http://www.w3.org/1999/xlink">
<g id="graph0" class="graph" transform="scale(1 1) rotate(0) translate(4 103)">
<title>_glewInit_GL_SGIS_texture4D</title>
<polygon fill="white" stroke="none" points="-4,4 -4,-103 1158,-103 1158,4 -4,4"/>
<!-- Node1 -->
<g id="node1" class="node"><title>Node1</title>
<polygon fill="#bfbfbf" stroke="black" points="0,-41.5 0,-60.5 151,-60.5 151,-41.5 0,-41.5"/>
<text text-anchor="middle" x="75.5" y="-48.5" font-family="Helvetica,sans-Serif" font-size="10.00">_glewInit_GL_SGIS_texture4D</text>
</g>
<!-- Node2 -->
<g id="node2" class="node"><title>Node2</title>
<g id="a_node2"><a xlink:href="../../de/dd7/glew_8c.html#a3ed8f1ee7fe64ca5bdcfba71ea7fc9c9" target="_top" xlink:title="glewContextInit">
<polygon fill="white" stroke="black" points="187,-41.5 187,-60.5 272,-60.5 272,-41.5 187,-41.5"/>
<text text-anchor="middle" x="229.5" y="-48.5" font-family="Helvetica,sans-Serif" font-size="10.00">glewContextInit</text>
</a>
</g>
</g>
<!-- Node1&#45;&gt;Node2 -->
<g id="edge1" class="edge"><title>Node1&#45;&gt;Node2</title>
<path fill="none" stroke="midnightblue" d="M161.249,-51C170.143,-51 178.875,-51 186.95,-51"/>
<polygon fill="midnightblue" stroke="midnightblue" points="161.164,-47.5001 151.164,-51 161.164,-54.5001 161.164,-47.5001"/>
</g>
<!-- Node3 -->
<g id="node3" class="node"><title>Node3</title>
<g id="a_node3"><a xlink:href="../../de/dd7/glew_8c.html#a474186dcb39f7b56a9c473adf1bd5cae" target="_top" xlink:title="glewInit">
<polygon fill="white" stroke="black" points="308,-41.5 308,-60.5 358,-60.5 358,-41.5 308,-41.5"/>
<text text-anchor="middle" x="333" y="-48.5" font-family="Helvetica,sans-Serif" font-size="10.00">glewInit</text>
</a>
</g>
</g>
<!-- Node2&#45;&gt;Node3 -->
<g id="edge2" class="edge"><title>Node2&#45;&gt;Node3</title>
<path fill="none" stroke="midnightblue" d="M282.15,-51C291.111,-51 300.034,-51 307.802,-51"/>
<polygon fill="midnightblue" stroke="midnightblue" points="282.077,-47.5001 272.077,-51 282.077,-54.5001 282.077,-47.5001"/>
</g>
<!-- Node4 -->
<g id="node4" class="node"><title>Node4</title>
<g id="a_node4"><a xlink:href="../../d8/d9b/classGLFont.html#ad00733f5e361fa6ed73dc79906180bad" target="_top" xlink:title="loads opengl font file ">
<polygon fill="white" stroke="black" points="417,-79.5 417,-98.5 490,-98.5 490,-79.5 417,-79.5"/>
<text text-anchor="middle" x="453.5" y="-86.5" font-family="Helvetica,sans-Serif" font-size="10.00">GLFont::load</text>
</a>
</g>
</g>
<!-- Node3&#45;&gt;Node4 -->
<g id="edge3" class="edge"><title>Node3&#45;&gt;Node4</title>
<path fill="none" stroke="midnightblue" d="M367.99,-61.8998C385.299,-67.4505 406.147,-74.1359 422.805,-79.4777"/>
<polygon fill="midnightblue" stroke="midnightblue" points="368.857,-58.5024 358.266,-58.7816 366.72,-65.1681 368.857,-58.5024"/>
</g>
<!-- Node5 -->
<g id="node5" class="node"><title>Node5</title>
<g id="a_node5"><a xlink:href="../../d8/d9b/classGLFont.html#a94999edbe6ed99c8e8af8acd2f09ce90" target="_top" xlink:title="GLFont::loadFromArray">
<polygon fill="white" stroke="black" points="394,-41.5 394,-60.5 513,-60.5 513,-41.5 394,-41.5"/>
<text text-anchor="middle" x="453.5" y="-48.5" font-family="Helvetica,sans-Serif" font-size="10.00">GLFont::loadFromArray</text>
</a>
</g>
</g>
<!-- Node3&#45;&gt;Node5 -->
<g id="edge4" class="edge"><title>Node3&#45;&gt;Node5</title>
<path fill="none" stroke="midnightblue" d="M368.491,-51C376.361,-51 384.942,-51 393.516,-51"/>
<polygon fill="midnightblue" stroke="midnightblue" points="368.266,-47.5001 358.266,-51 368.266,-54.5001 368.266,-47.5001"/>
</g>
<!-- Node6 -->
<g id="node6" class="node"><title>Node6</title>
<g id="a_node6"><a xlink:href="../../d9/d73/classOpenGLGraph.html#acaad9aa036130e655da7e5be30e6efec" target="_top" xlink:title="OpenGLGraph::Initialize">
<polygon fill="white" stroke="black" points="549,-22.5 549,-41.5 670,-41.5 670,-22.5 549,-22.5"/>
<text text-anchor="middle" x="609.5" y="-29.5" font-family="Helvetica,sans-Serif" font-size="10.00">OpenGLGraph::Initialize</text>
</a>
</g>
</g>
<!-- Node3&#45;&gt;Node6 -->
<g id="edge11" class="edge"><title>Node3&#45;&gt;Node6</title>
<path fill="none" stroke="midnightblue" d="M367.677,-38.3488C376.149,-35.7207 385.307,-33.3435 394,-32 445.892,-23.9801 505.692,-24.7946 548.948,-27.1448"/>
<polygon fill="midnightblue" stroke="midnightblue" points="366.516,-35.046 358.116,-41.5023 368.709,-41.6938 366.516,-35.046"/>
</g>
<!-- Node5&#45;&gt;Node6 -->
<g id="edge5" class="edge"><title>Node5&#45;&gt;Node6</title>
<path fill="none" stroke="midnightblue" d="M523.174,-42.5272C531.782,-41.4652 540.53,-40.3859 548.982,-39.3431"/>
<polygon fill="midnightblue" stroke="midnightblue" points="522.656,-39.0645 513.16,-43.7627 523.513,-46.0118 522.656,-39.0645"/>
</g>
<!-- Node7 -->
<g id="node7" class="node"><title>Node7</title>
<g id="a_node7"><a xlink:href="../../d9/d73/classOpenGLGraph.html#af2f1cb689fb6884d8509877ecdf29fb8" target="_top" xlink:title="Draw graph data series. ">
<polygon fill="white" stroke="black" points="706,-22.5 706,-41.5 814,-41.5 814,-22.5 706,-22.5"/>
<text text-anchor="middle" x="760" y="-29.5" font-family="Helvetica,sans-Serif" font-size="10.00">OpenGLGraph::Draw</text>
</a>
</g>
</g>
<!-- Node6&#45;&gt;Node7 -->
<g id="edge6" class="edge"><title>Node6&#45;&gt;Node7</title>
<path fill="none" stroke="midnightblue" d="M680.079,-32C688.684,-32 697.372,-32 705.68,-32"/>
<polygon fill="midnightblue" stroke="midnightblue" points="680.045,-28.5001 670.045,-32 680.045,-35.5001 680.045,-28.5001"/>
</g>
<!-- Node8 -->
<g id="node8" class="node"><title>Node8</title>
<g id="a_node8"><a xlink:href="../../d5/d45/classfftviewer__frFFTviewer.html#aa01d7b5ad35c15051574834869accae0" target="_top" xlink:title="fftviewer_frFFTviewer\l::OnUpdatePlots">
<polygon fill="white" stroke="black" points="850,-39 850,-69 962,-69 962,-39 850,-39"/>
<text text-anchor="start" x="858" y="-57" font-family="Helvetica,sans-Serif" font-size="10.00">fftviewer_frFFTviewer</text>
<text text-anchor="middle" x="906" y="-46" font-family="Helvetica,sans-Serif" font-size="10.00">::OnUpdatePlots</text>
</a>
</g>
</g>
<!-- Node7&#45;&gt;Node8 -->
<g id="edge7" class="edge"><title>Node7&#45;&gt;Node8</title>
<path fill="none" stroke="midnightblue" d="M824.358,-41.6797C832.767,-42.9644 841.336,-44.2735 849.596,-45.5355"/>
<polygon fill="midnightblue" stroke="midnightblue" points="824.625,-38.18 814.211,-40.1295 823.568,-45.0997 824.625,-38.18"/>
</g>
<!-- Node10 -->
<g id="node10" class="node"><title>Node10</title>
<g id="a_node10"><a xlink:href="../../d9/d73/classOpenGLGraph.html#a3ec7e57bd2baa9fffbd14a0fb952e8a8" target="_top" xlink:title="OpenGLGraph::render">
<polygon fill="white" stroke="black" points="850,-0.5 850,-19.5 962,-19.5 962,-0.5 850,-0.5"/>
<text text-anchor="middle" x="906" y="-7.5" font-family="Helvetica,sans-Serif" font-size="10.00">OpenGLGraph::render</text>
</a>
</g>
</g>
<!-- Node7&#45;&gt;Node10 -->
<g id="edge9" class="edge"><title>Node7&#45;&gt;Node10</title>
<path fill="none" stroke="midnightblue" d="M824.358,-22.3203C832.767,-21.0356 841.336,-19.7265 849.596,-18.4645"/>
<polygon fill="midnightblue" stroke="midnightblue" points="823.568,-18.9003 814.211,-23.8705 824.625,-25.82 823.568,-18.9003"/>
</g>
<!-- Node9 -->
<g id="node9" class="node"><title>Node9</title>
<g id="a_node9"><a xlink:href="../../d5/d45/classfftviewer__frFFTviewer.html#a4bcd0ebcddfbe4227a156a426db9d5b9" target="_top" xlink:title="Constructor. ">
<polygon fill="white" stroke="black" points="1017,-39 1017,-69 1135,-69 1135,-39 1017,-39"/>
<text text-anchor="start" x="1025" y="-57" font-family="Helvetica,sans-Serif" font-size="10.00">fftviewer_frFFTviewer</text>
<text text-anchor="middle" x="1076" y="-46" font-family="Helvetica,sans-Serif" font-size="10.00">::fftviewer_frFFTviewer</text>
</a>
</g>
</g>
<!-- Node8&#45;&gt;Node9 -->
<g id="edge8" class="edge"><title>Node8&#45;&gt;Node9</title>
<path fill="none" stroke="midnightblue" d="M972.094,-54C986.886,-54 1002.5,-54 1016.98,-54"/>
<polygon fill="midnightblue" stroke="midnightblue" points="972.01,-50.5001 962.009,-54 972.009,-57.5001 972.01,-50.5001"/>
</g>
<!-- Node11 -->
<g id="node11" class="node"><title>Node11</title>
<g id="a_node11"><a xlink:href="../../d9/d73/classOpenGLGraph.html#ae8a4b37513a42fc6604a56ba03a24238" target="_top" xlink:title="OpenGLGraph::SetInfoMessage">
<polygon fill="white" stroke="black" points="998,-0.5 998,-19.5 1154,-19.5 1154,-0.5 998,-0.5"/>
<text text-anchor="middle" x="1076" y="-7.5" font-family="Helvetica,sans-Serif" font-size="10.00">OpenGLGraph::SetInfoMessage</text>
</a>
</g>
</g>
<!-- Node10&#45;&gt;Node11 -->
<g id="edge10" class="edge"><title>Node10&#45;&gt;Node11</title>
<path fill="none" stroke="midnightblue" d="M972.15,-10C980.592,-10 989.302,-10 997.914,-10"/>
<polygon fill="midnightblue" stroke="midnightblue" points="972.01,-6.5001 962.009,-10 972.009,-13.5001 972.01,-6.5001"/>
</g>
</g>
</svg>
