<?xml version="1.0" encoding="UTF-8" standalone="no"?>
<!DOCTYPE svg PUBLIC "-//W3C//DTD SVG 1.1//EN"
 "http://www.w3.org/Graphics/SVG/1.1/DTD/svg11.dtd">
<!-- Generated by graphviz version 2.38.0 (20140413.2041)
 -->
<!-- Title: _glewInit_GL_AMD_sparse_texture Pages: 1 -->
<!--zoomable 107 -->
<svg id="main" version="1.1" xmlns="http://www.w3.org/2000/svg" xmlns:xlink="http://www.w3.org/1999/xlink" xml:space="preserve" onload="init(evt)">
<style type="text/css"><![CDATA[
.edge:hover path { stroke: red; }
.edge:hover polygon { stroke: red; fill: red; }
]]></style>
<script type="text/javascript"><![CDATA[
var edges = document.getElementsByTagName('g');
if (edges && edges.length) {
  for (var i=0;i<edges.length;i++) {
    if (edges[i].id.substr(0,4)=='edge') {
      edges[i].setAttribute('class','edge');
    }
  }
}
]]></script>
        <defs>
                <circle id="rim" cx="0" cy="0" r="7"/>
                <circle id="rim2" cx="0" cy="0" r="3.5"/>
                <g id="zoomPlus">
                        <use xlink:href="#rim" fill="#404040">
                                <set attributeName="fill" to="#808080" begin="zoomplus.mouseover" end="zoomplus.mouseout"/>
                        </use>
                        <path d="M-4,0h8M0,-4v8" fill="none" stroke="white" stroke-width="1.5" pointer-events="none"/>
                </g>
                <g id="zoomMin">
                        <use xlink:href="#rim" fill="#404040">
                                <set attributeName="fill" to="#808080" begin="zoomminus.mouseover" end="zoomminus.mouseout"/>
                        </use>
                        <path d="M-4,0h8" fill="none" stroke="white" stroke-width="1.5" pointer-events="none"/>
                </g>
                <g id="dirArrow">
                        <path fill="none" stroke="white" stroke-width="1.5" d="M0,-3.0v7 M-2.5,-0.5L0,-3.0L2.5,-0.5"/>
                </g>
               <g id="resetDef">
                       <use xlink:href="#rim2" fill="#404040">
                               <set attributeName="fill" to="#808080" begin="reset.mouseover" end="reset.mouseout"/>
                       </use>
               </g>
        </defs>

<script type="text/javascript">
var viewWidth = 1147;
var viewHeight = 107;
var sectionId = 'dynsection-10';
</script>
<script xlink:href="../../svgpan.js"/>
<svg id="graph" class="graph">
<g id="viewport">
<title>_glewInit_GL_AMD_sparse_texture</title>
<polygon fill="white" stroke="none" points="-4,4 -4,-103 1143,-103 1143,4 -4,4"/>
<!-- Node1 -->
<g id="node1" class="node"><title>Node1</title>
<polygon fill="#bfbfbf" stroke="black" points="0,-36 0,-66 136,-66 136,-36 0,-36"/>
<text text-anchor="start" x="8" y="-54" font-family="Helvetica,sans-Serif" font-size="10.00">_glewInit_GL_AMD_sparse</text>
<text text-anchor="middle" x="68" y="-43" font-family="Helvetica,sans-Serif" font-size="10.00">_texture</text>
</g>
<!-- Node2 -->
<g id="node2" class="node"><title>Node2</title>
<g id="a_node2"><a xlink:href="../../de/dd7/glew_8c.html#a3ed8f1ee7fe64ca5bdcfba71ea7fc9c9" target="_top" xlink:title="glewContextInit">
<polygon fill="white" stroke="black" points="172,-41.5 172,-60.5 257,-60.5 257,-41.5 172,-41.5"/>
<text text-anchor="middle" x="214.5" y="-48.5" font-family="Helvetica,sans-Serif" font-size="10.00">glewContextInit</text>
</a>
</g>
</g>
<!-- Node1&#45;&gt;Node2 -->
<g id="edge1" class="edge"><title>Node1&#45;&gt;Node2</title>
<path fill="none" stroke="midnightblue" d="M146.387,-51C155.074,-51 163.662,-51 171.644,-51"/>
<polygon fill="midnightblue" stroke="midnightblue" points="146.174,-47.5001 136.174,-51 146.174,-54.5001 146.174,-47.5001"/>
</g>
<!-- Node3 -->
<g id="node3" class="node"><title>Node3</title>
<g id="a_node3"><a xlink:href="../../de/dd7/glew_8c.html#a474186dcb39f7b56a9c473adf1bd5cae" target="_top" xlink:title="glewInit">
<polygon fill="white" stroke="black" points="293,-41.5 293,-60.5 343,-60.5 343,-41.5 293,-41.5"/>
<text text-anchor="middle" x="318" y="-48.5" font-family="Helvetica,sans-Serif" font-size="10.00">glewInit</text>
</a>
</g>
</g>
<!-- Node2&#45;&gt;Node3 -->
<g id="edge2" class="edge"><title>Node2&#45;&gt;Node3</title>
<path fill="none" stroke="midnightblue" d="M267.15,-51C276.111,-51 285.034,-51 292.802,-51"/>
<polygon fill="midnightblue" stroke="midnightblue" points="267.077,-47.5001 257.077,-51 267.077,-54.5001 267.077,-47.5001"/>
</g>
<!-- Node4 -->
<g id="node4" class="node"><title>Node4</title>
<g id="a_node4"><a xlink:href="../../d8/d9b/classGLFont.html#ad00733f5e361fa6ed73dc79906180bad" target="_top" xlink:title="loads opengl font file ">
<polygon fill="white" stroke="black" points="402,-79.5 402,-98.5 475,-98.5 475,-79.5 402,-79.5"/>
<text text-anchor="middle" x="438.5" y="-86.5" font-family="Helvetica,sans-Serif" font-size="10.00">GLFont::load</text>
</a>
</g>
</g>
<!-- Node3&#45;&gt;Node4 -->
<g id="edge3" class="edge"><title>Node3&#45;&gt;Node4</title>
<path fill="none" stroke="midnightblue" d="M352.99,-61.8998C370.299,-67.4505 391.147,-74.1359 407.805,-79.4777"/>
<polygon fill="midnightblue" stroke="midnightblue" points="353.857,-58.5024 343.266,-58.7816 351.72,-65.1681 353.857,-58.5024"/>
</g>
<!-- Node5 -->
<g id="node5" class="node"><title>Node5</title>
<g id="a_node5"><a xlink:href="../../d8/d9b/classGLFont.html#a94999edbe6ed99c8e8af8acd2f09ce90" target="_top" xlink:title="GLFont::loadFromArray">
<polygon fill="white" stroke="black" points="379,-41.5 379,-60.5 498,-60.5 498,-41.5 379,-41.5"/>
<text text-anchor="middle" x="438.5" y="-48.5" font-family="Helvetica,sans-Serif" font-size="10.00">GLFont::loadFromArray</text>
</a>
</g>
</g>
<!-- Node3&#45;&gt;Node5 -->
<g id="edge4" class="edge"><title>Node3&#45;&gt;Node5</title>
<path fill="none" stroke="midnightblue" d="M353.491,-51C361.361,-51 369.942,-51 378.516,-51"/>
<polygon fill="midnightblue" stroke="midnightblue" points="353.266,-47.5001 343.266,-51 353.266,-54.5001 353.266,-47.5001"/>
</g>
<!-- Node6 -->
<g id="node6" class="node"><title>Node6</title>
<g id="a_node6"><a xlink:href="../../d9/d73/classOpenGLGraph.html#acaad9aa036130e655da7e5be30e6efec" target="_top" xlink:title="OpenGLGraph::Initialize">
<polygon fill="white" stroke="black" points="534,-22.5 534,-41.5 655,-41.5 655,-22.5 534,-22.5"/>
<text text-anchor="middle" x="594.5" y="-29.5" font-family="Helvetica,sans-Serif" font-size="10.00">OpenGLGraph::Initialize</text>
</a>
</g>
</g>
<!-- Node3&#45;&gt;Node6 -->
<g id="edge11" class="edge"><title>Node3&#45;&gt;Node6</title>
<path fill="none" stroke="midnightblue" d="M352.677,-38.3488C361.149,-35.7207 370.307,-33.3435 379,-32 430.892,-23.9801 490.692,-24.7946 533.948,-27.1448"/>
<polygon fill="midnightblue" stroke="midnightblue" points="351.516,-35.046 343.116,-41.5023 353.709,-41.6938 351.516,-35.046"/>
</g>
<!-- Node5&#45;&gt;Node6 -->
<g id="edge5" class="edge"><title>Node5&#45;&gt;Node6</title>
<path fill="none" stroke="midnightblue" d="M508.174,-42.5272C516.782,-41.4652 525.53,-40.3859 533.982,-39.3431"/>
<polygon fill="midnightblue" stroke="midnightblue" points="507.656,-39.0645 498.16,-43.7627 508.513,-46.0118 507.656,-39.0645"/>
</g>
<!-- Node7 -->
<g id="node7" class="node"><title>Node7</title>
<g id="a_node7"><a xlink:href="../../d9/d73/classOpenGLGraph.html#af2f1cb689fb6884d8509877ecdf29fb8" target="_top" xlink:title="Draw graph data series. ">
<polygon fill="white" stroke="black" points="691,-22.5 691,-41.5 799,-41.5 799,-22.5 691,-22.5"/>
<text text-anchor="middle" x="745" y="-29.5" font-family="Helvetica,sans-Serif" font-size="10.00">OpenGLGraph::Draw</text>
</a>
</g>
</g>
<!-- Node6&#45;&gt;Node7 -->
<g id="edge6" class="edge"><title>Node6&#45;&gt;Node7</title>
<path fill="none" stroke="midnightblue" d="M665.079,-32C673.684,-32 682.372,-32 690.68,-32"/>
<polygon fill="midnightblue" stroke="midnightblue" points="665.045,-28.5001 655.045,-32 665.045,-35.5001 665.045,-28.5001"/>
</g>
<!-- Node8 -->
<g id="node8" class="node"><title>Node8</title>
<g id="a_node8"><a xlink:href="../../d5/d45/classfftviewer__frFFTviewer.html#aa01d7b5ad35c15051574834869accae0" target="_top" xlink:title="fftviewer_frFFTviewer\l::OnUpdatePlots">
<polygon fill="white" stroke="black" points="835,-39 835,-69 947,-69 947,-39 835,-39"/>
<text text-anchor="start" x="843" y="-57" font-family="Helvetica,sans-Serif" font-size="10.00">fftviewer_frFFTviewer</text>
<text text-anchor="middle" x="891" y="-46" font-family="Helvetica,sans-Serif" font-size="10.00">::OnUpdatePlots</text>
</a>
</g>
</g>
<!-- Node7&#45;&gt;Node8 -->
<g id="edge7" class="edge"><title>Node7&#45;&gt;Node8</title>
<path fill="none" stroke="midnightblue" d="M809.358,-41.6797C817.767,-42.9644 826.336,-44.2735 834.596,-45.5355"/>
<polygon fill="midnightblue" stroke="midnightblue" points="809.625,-38.18 799.211,-40.1295 808.568,-45.0997 809.625,-38.18"/>
</g>
<!-- Node10 -->
<g id="node10" class="node"><title>Node10</title>
<g id="a_node10"><a xlink:href="../../d9/d73/classOpenGLGraph.html#a3ec7e57bd2baa9fffbd14a0fb952e8a8" target="_top" xlink:title="OpenGLGraph::render">
<polygon fill="white" stroke="black" points="835,-0.5 835,-19.5 947,-19.5 947,-0.5 835,-0.5"/>
<text text-anchor="middle" x="891" y="-7.5" font-family="Helvetica,sans-Serif" font-size="10.00">OpenGLGraph::render</text>
</a>
</g>
</g>
<!-- Node7&#45;&gt;Node10 -->
<g id="edge9" class="edge"><title>Node7&#45;&gt;Node10</title>
<path fill="none" stroke="midnightblue" d="M809.358,-22.3203C817.767,-21.0356 826.336,-19.7265 834.596,-18.4645"/>
<polygon fill="midnightblue" stroke="midnightblue" points="808.568,-18.9003 799.211,-23.8705 809.625,-25.82 808.568,-18.9003"/>
</g>
<!-- Node9 -->
<g id="node9" class="node"><title>Node9</title>
<g id="a_node9"><a xlink:href="../../d5/d45/classfftviewer__frFFTviewer.html#a4bcd0ebcddfbe4227a156a426db9d5b9" target="_top" xlink:title="Constructor. ">
<polygon fill="white" stroke="black" points="1002,-39 1002,-69 1120,-69 1120,-39 1002,-39"/>
<text text-anchor="start" x="1010" y="-57" font-family="Helvetica,sans-Serif" font-size="10.00">fftviewer_frFFTviewer</text>
<text text-anchor="middle" x="1061" y="-46" font-family="Helvetica,sans-Serif" font-size="10.00">::fftviewer_frFFTviewer</text>
</a>
</g>
</g>
<!-- Node8&#45;&gt;Node9 -->
<g id="edge8" class="edge"><title>Node8&#45;&gt;Node9</title>
<path fill="none" stroke="midnightblue" d="M957.094,-54C971.886,-54 987.503,-54 1001.98,-54"/>
<polygon fill="midnightblue" stroke="midnightblue" points="957.01,-50.5001 947.009,-54 957.009,-57.5001 957.01,-50.5001"/>
</g>
<!-- Node11 -->
<g id="node11" class="node"><title>Node11</title>
<g id="a_node11"><a xlink:href="../../d9/d73/classOpenGLGraph.html#ae8a4b37513a42fc6604a56ba03a24238" target="_top" xlink:title="OpenGLGraph::SetInfoMessage">
<polygon fill="white" stroke="black" points="983,-0.5 983,-19.5 1139,-19.5 1139,-0.5 983,-0.5"/>
<text text-anchor="middle" x="1061" y="-7.5" font-family="Helvetica,sans-Serif" font-size="10.00">OpenGLGraph::SetInfoMessage</text>
</a>
</g>
</g>
<!-- Node10&#45;&gt;Node11 -->
<g id="edge10" class="edge"><title>Node10&#45;&gt;Node11</title>
<path fill="none" stroke="midnightblue" d="M957.15,-10C965.592,-10 974.302,-10 982.914,-10"/>
<polygon fill="midnightblue" stroke="midnightblue" points="957.01,-6.5001 947.009,-10 957.009,-13.5001 957.01,-6.5001"/>
</g>
</g>
</svg>
        <g id="navigator" transform="translate(0 0)" fill="#404254">
                <rect fill="#f2f5e9" fill-opacity="0.5" stroke="#606060" stroke-width=".5" x="0" y="0" width="60" height="60"/>
                <use id="zoomplus" xlink:href="#zoomPlus" x="17" y="9" onmousedown="handleZoom(evt,'in')"/>
                <use id="zoomminus" xlink:href="#zoomMin" x="42" y="9" onmousedown="handleZoom(evt,'out')"/>
                <use id="reset" xlink:href="#resetDef" x="30" y="36" onmousedown="handleReset()"/>
                <g id="arrowUp" xlink:href="#dirArrow" transform="translate(30 24)" onmousedown="handlePan(0,-1)">
                  <use xlink:href="#rim" fill="#404040">
                        <set attributeName="fill" to="#808080" begin="arrowUp.mouseover" end="arrowUp.mouseout"/>
                  </use>
                  <path fill="none" stroke="white" stroke-width="1.5" d="M0,-3.0v7 M-2.5,-0.5L0,-3.0L2.5,-0.5"/>
                </g>
                <g id="arrowRight" xlink:href="#dirArrow" transform="rotate(90) translate(36 -43)" onmousedown="handlePan(1,0)">
                  <use xlink:href="#rim" fill="#404040">
                        <set attributeName="fill" to="#808080" begin="arrowRight.mouseover" end="arrowRight.mouseout"/>
                  </use>
                  <path fill="none" stroke="white" stroke-width="1.5" d="M0,-3.0v7 M-2.5,-0.5L0,-3.0L2.5,-0.5"/>
                </g>
                <g id="arrowDown" xlink:href="#dirArrow" transform="rotate(180) translate(-30 -48)" onmousedown="handlePan(0,1)">
                  <use xlink:href="#rim" fill="#404040">
                        <set attributeName="fill" to="#808080" begin="arrowDown.mouseover" end="arrowDown.mouseout"/>
                  </use>
                  <path fill="none" stroke="white" stroke-width="1.5" d="M0,-3.0v7 M-2.5,-0.5L0,-3.0L2.5,-0.5"/>
                </g>
                <g id="arrowLeft" xlink:href="#dirArrow" transform="rotate(270) translate(-36 17)" onmousedown="handlePan(-1,0)">
                  <use xlink:href="#rim" fill="#404040">
                        <set attributeName="fill" to="#808080" begin="arrowLeft.mouseover" end="arrowLeft.mouseout"/>
                  </use>
                  <path fill="none" stroke="white" stroke-width="1.5" d="M0,-3.0v7 M-2.5,-0.5L0,-3.0L2.5,-0.5"/>
                </g>
        </g>
        <svg viewBox="0 0 15 15" width="100%" height="30px" preserveAspectRatio="xMaxYMin meet">
         <g id="arrow_out" transform="scale(0.3 0.3)">
          <a xlink:href="glew_8c_a4b15a620a1c5a64f54865469c773428c_icgraph_org.svg" target="_base">
           <rect id="button" ry="5" rx="5" y="6" x="6" height="38" width="38"
                fill="#f2f5e9" fill-opacity="0.5" stroke="#606060" stroke-width="1.0"/>
           <path id="arrow"
             d="M 11.500037,31.436501 C 11.940474,20.09759 22.043105,11.32322 32.158766,21.979434 L 37.068811,17.246167 C 37.068811,17.246167 37.088388,32 37.088388,32 L 22.160133,31.978069 C 22.160133,31.978069 26.997745,27.140456 26.997745,27.140456 C 18.528582,18.264221 13.291696,25.230495 11.500037,31.436501 z"
             style="fill:#404040;"/>
          </a>
         </g>
        </svg>
</svg>
