<?xml version="1.0" encoding="UTF-8" standalone="no"?>
<!DOCTYPE svg PUBLIC "-//W3C//DTD SVG 1.1//EN"
 "http://www.w3.org/Graphics/SVG/1.1/DTD/svg11.dtd">
<!-- Generated by graphviz version 2.38.0 (20140413.2041)
 -->
<!-- Title: /home/erik/prefix/default/src/limesuite&#45;dev/src/tests/streaming.cpp Pages: 1 -->
<svg width="915pt" height="274pt"
 viewBox="0.00 0.00 914.92 274.00" xmlns="http://www.w3.org/2000/svg" xmlns:xlink="http://www.w3.org/1999/xlink">
<g id="graph0" class="graph" transform="scale(1 1) rotate(0) translate(4 270)">
<title>/home/erik/prefix/default/src/limesuite&#45;dev/src/tests/streaming.cpp</title>
<polygon fill="white" stroke="none" points="-4,4 -4,-270 910.92,-270 910.92,4 -4,4"/>
<!-- Node1 -->
<g id="node1" class="node"><title>Node1</title>
<polygon fill="#bfbfbf" stroke="black" points="450.42,-224.5 450.42,-265.5 572.42,-265.5 572.42,-224.5 450.42,-224.5"/>
<text text-anchor="start" x="458.42" y="-253.5" font-family="Helvetica,sans-Serif" font-size="10.00">/home/erik/prefix/default</text>
<text text-anchor="start" x="458.42" y="-242.5" font-family="Helvetica,sans-Serif" font-size="10.00">/src/limesuite&#45;dev/src</text>
<text text-anchor="middle" x="511.42" y="-231.5" font-family="Helvetica,sans-Serif" font-size="10.00">/tests/streaming.cpp</text>
</g>
<!-- Node2 -->
<g id="node2" class="node"><title>Node2</title>
<polygon fill="white" stroke="#bfbfbf" points="20.9201,-112.5 20.9201,-131.5 91.9201,-131.5 91.9201,-112.5 20.9201,-112.5"/>
<text text-anchor="middle" x="56.4201" y="-119.5" font-family="Helvetica,sans-Serif" font-size="10.00">gtest/gtest.h</text>
</g>
<!-- Node1&#45;&gt;Node2 -->
<g id="edge1" class="edge"><title>Node1&#45;&gt;Node2</title>
<path fill="none" stroke="midnightblue" d="M450.211,-241.266C379.262,-236.495 259.753,-223.462 163.42,-188 130.194,-175.769 95.9291,-152.786 75.4001,-137.686"/>
<polygon fill="midnightblue" stroke="midnightblue" points="77.336,-134.763 67.2366,-131.561 73.1348,-140.362 77.336,-134.763"/>
</g>
<!-- Node3 -->
<g id="node3" class="node"><title>Node3</title>
<g id="a_node3"><a xlink:href="../../db/daa/streamingFixture_8h.html" target="_top" xlink:title="streamingFixture.h">
<polygon fill="white" stroke="black" points="172.42,-168.5 172.42,-187.5 270.42,-187.5 270.42,-168.5 172.42,-168.5"/>
<text text-anchor="middle" x="221.42" y="-175.5" font-family="Helvetica,sans-Serif" font-size="10.00">streamingFixture.h</text>
</a>
</g>
</g>
<!-- Node1&#45;&gt;Node3 -->
<g id="edge2" class="edge"><title>Node1&#45;&gt;Node3</title>
<path fill="none" stroke="midnightblue" d="M450.273,-230.295C396.326,-218.203 318.785,-200.823 269.258,-189.722"/>
<polygon fill="midnightblue" stroke="midnightblue" points="269.961,-186.293 259.438,-187.521 268.43,-193.124 269.961,-186.293"/>
</g>
<!-- Node4 -->
<g id="node4" class="node"><title>Node4</title>
<g id="a_node4"><a xlink:href="../../d3/d1e/IConnection_8h.html" target="_top" xlink:title="Interface class for connection types. ">
<polygon fill="white" stroke="black" points="238.92,-112.5 238.92,-131.5 315.92,-131.5 315.92,-112.5 238.92,-112.5"/>
<text text-anchor="middle" x="277.42" y="-119.5" font-family="Helvetica,sans-Serif" font-size="10.00">IConnection.h</text>
</a>
</g>
</g>
<!-- Node1&#45;&gt;Node4 -->
<g id="edge19" class="edge"><title>Node1&#45;&gt;Node4</title>
<path fill="none" stroke="midnightblue" d="M473.564,-224.425C425.664,-199.656 344.447,-157.659 303.165,-136.312"/>
<polygon fill="midnightblue" stroke="midnightblue" points="304.534,-133.08 294.044,-131.596 301.319,-139.298 304.534,-133.08"/>
</g>
<!-- Node13 -->
<g id="node13" class="node"><title>Node13</title>
<g id="a_node13"><a xlink:href="../../d1/d7e/LMS7002M_8h.html" target="_top" xlink:title="LMS7002M transceiver configuration interface. ">
<polygon fill="white" stroke="black" points="429.42,-168.5 429.42,-187.5 503.42,-187.5 503.42,-168.5 429.42,-168.5"/>
<text text-anchor="middle" x="466.42" y="-175.5" font-family="Helvetica,sans-Serif" font-size="10.00">LMS7002M.h</text>
</a>
</g>
</g>
<!-- Node1&#45;&gt;Node13 -->
<g id="edge20" class="edge"><title>Node1&#45;&gt;Node13</title>
<path fill="none" stroke="midnightblue" d="M497.919,-224.498C491.616,-215.395 484.186,-204.662 478.126,-195.908"/>
<polygon fill="midnightblue" stroke="midnightblue" points="480.98,-193.882 472.41,-187.652 475.225,-197.867 480.98,-193.882"/>
</g>
<!-- Node18 -->
<g id="node18" class="node"><title>Node18</title>
<polygon fill="white" stroke="#bfbfbf" points="610.92,-168.5 610.92,-187.5 657.92,-187.5 657.92,-168.5 610.92,-168.5"/>
<text text-anchor="middle" x="634.42" y="-175.5" font-family="Helvetica,sans-Serif" font-size="10.00">math.h</text>
</g>
<!-- Node1&#45;&gt;Node18 -->
<g id="edge29" class="edge"><title>Node1&#45;&gt;Node18</title>
<path fill="none" stroke="midnightblue" d="M548.324,-224.498C567.908,-214.149 591.475,-201.695 608.998,-192.435"/>
<polygon fill="midnightblue" stroke="midnightblue" points="610.841,-195.419 618.047,-187.652 607.57,-189.23 610.841,-195.419"/>
</g>
<!-- Node19 -->
<g id="node19" class="node"><title>Node19</title>
<polygon fill="white" stroke="#bfbfbf" points="676.42,-168.5 676.42,-187.5 720.42,-187.5 720.42,-168.5 676.42,-168.5"/>
<text text-anchor="middle" x="698.42" y="-175.5" font-family="Helvetica,sans-Serif" font-size="10.00">thread</text>
</g>
<!-- Node1&#45;&gt;Node19 -->
<g id="edge30" class="edge"><title>Node1&#45;&gt;Node19</title>
<path fill="none" stroke="midnightblue" d="M567.526,-224.498C599.961,-213.224 639.582,-199.452 666.681,-190.032"/>
<polygon fill="midnightblue" stroke="midnightblue" points="668.117,-193.239 676.413,-186.649 665.818,-186.627 668.117,-193.239"/>
</g>
<!-- Node20 -->
<g id="node20" class="node"><title>Node20</title>
<polygon fill="white" stroke="#bfbfbf" points="738.42,-168.5 738.42,-187.5 784.42,-187.5 784.42,-168.5 738.42,-168.5"/>
<text text-anchor="middle" x="761.42" y="-175.5" font-family="Helvetica,sans-Serif" font-size="10.00">chrono</text>
</g>
<!-- Node1&#45;&gt;Node20 -->
<g id="edge31" class="edge"><title>Node1&#45;&gt;Node20</title>
<path fill="none" stroke="midnightblue" d="M572.597,-228.68C614.04,-218.211 670.284,-203.826 728.607,-188.177"/>
<polygon fill="midnightblue" stroke="midnightblue" points="729.618,-191.529 738.365,-185.552 727.799,-184.77 729.618,-191.529"/>
</g>
<!-- Node21 -->
<g id="node21" class="node"><title>Node21</title>
<g id="a_node21"><a xlink:href="../../d4/dbd/dataTypes_8h.html" target="_top" xlink:title="dataTypes.h">
<polygon fill="white" stroke="black" points="521.92,-168.5 521.92,-187.5 592.92,-187.5 592.92,-168.5 521.92,-168.5"/>
<text text-anchor="middle" x="557.42" y="-175.5" font-family="Helvetica,sans-Serif" font-size="10.00">dataTypes.h</text>
</a>
</g>
</g>
<!-- Node1&#45;&gt;Node21 -->
<g id="edge32" class="edge"><title>Node1&#45;&gt;Node21</title>
<path fill="none" stroke="midnightblue" d="M525.222,-224.498C531.664,-215.395 539.259,-204.662 545.454,-195.908"/>
<polygon fill="midnightblue" stroke="midnightblue" points="548.377,-197.837 551.297,-187.652 542.663,-193.793 548.377,-197.837"/>
</g>
<!-- Node3&#45;&gt;Node2 -->
<g id="edge3" class="edge"><title>Node3&#45;&gt;Node2</title>
<path fill="none" stroke="midnightblue" d="M195.275,-168.444C167.397,-159.32 123.072,-144.813 92.0201,-134.651"/>
<polygon fill="midnightblue" stroke="midnightblue" points="93.0351,-131.3 82.4425,-131.516 90.8578,-137.953 93.0351,-131.3"/>
</g>
<!-- Node3&#45;&gt;Node4 -->
<g id="edge4" class="edge"><title>Node3&#45;&gt;Node4</title>
<path fill="none" stroke="midnightblue" d="M230.417,-168.324C238.614,-160.42 250.926,-148.548 260.892,-138.938"/>
<polygon fill="midnightblue" stroke="midnightblue" points="263.49,-141.295 268.259,-131.834 258.631,-136.256 263.49,-141.295"/>
</g>
<!-- Node12 -->
<g id="node12" class="node"><title>Node12</title>
<g id="a_node12"><a xlink:href="../../dc/d17/ConnectionRegistry_8h.html" target="_top" xlink:title="Registration and access for possible connection types. ">
<polygon fill="white" stroke="black" points="109.92,-112.5 109.92,-131.5 220.92,-131.5 220.92,-112.5 109.92,-112.5"/>
<text text-anchor="middle" x="165.42" y="-119.5" font-family="Helvetica,sans-Serif" font-size="10.00">ConnectionRegistry.h</text>
</a>
</g>
</g>
<!-- Node3&#45;&gt;Node12 -->
<g id="edge14" class="edge"><title>Node3&#45;&gt;Node12</title>
<path fill="none" stroke="midnightblue" d="M212.423,-168.324C204.226,-160.42 191.915,-148.548 181.948,-138.938"/>
<polygon fill="midnightblue" stroke="midnightblue" points="184.209,-136.256 174.581,-131.834 179.35,-141.295 184.209,-136.256"/>
</g>
<!-- Node5 -->
<g id="node5" class="node"><title>Node5</title>
<g id="a_node5"><a xlink:href="../../dd/d40/LimeSuiteConfig_8h.html" target="_top" xlink:title="Configuration constants and macros for lime suite library. ">
<polygon fill="white" stroke="black" points="139.92,-0.5 139.92,-19.5 236.92,-19.5 236.92,-0.5 139.92,-0.5"/>
<text text-anchor="middle" x="188.42" y="-7.5" font-family="Helvetica,sans-Serif" font-size="10.00">LimeSuiteConfig.h</text>
</a>
</g>
</g>
<!-- Node4&#45;&gt;Node5 -->
<g id="edge5" class="edge"><title>Node4&#45;&gt;Node5</title>
<path fill="none" stroke="midnightblue" d="M270.436,-112.368C255.684,-94.135 221.128,-51.4257 201.912,-27.6752"/>
<polygon fill="midnightblue" stroke="midnightblue" points="204.382,-25.164 195.371,-19.5914 198.94,-29.567 204.382,-25.164"/>
</g>
<!-- Node6 -->
<g id="node6" class="node"><title>Node6</title>
<g id="a_node6"><a xlink:href="../../d1/d5d/ConnectionHandle_8h.html" target="_top" xlink:title="Represent a connection to a device. ">
<polygon fill="white" stroke="black" points="13.9201,-56.5 13.9201,-75.5 118.92,-75.5 118.92,-56.5 13.9201,-56.5"/>
<text text-anchor="middle" x="66.4201" y="-63.5" font-family="Helvetica,sans-Serif" font-size="10.00">ConnectionHandle.h</text>
</a>
</g>
</g>
<!-- Node4&#45;&gt;Node6 -->
<g id="edge6" class="edge"><title>Node4&#45;&gt;Node6</title>
<path fill="none" stroke="midnightblue" d="M243.986,-112.444C207.564,-103.122 149.19,-88.1828 109.391,-77.9972"/>
<polygon fill="midnightblue" stroke="midnightblue" points="110.253,-74.6051 99.6972,-75.5164 108.517,-81.3866 110.253,-74.6051"/>
</g>
<!-- Node7 -->
<g id="node7" class="node"><title>Node7</title>
<polygon fill="white" stroke="#bfbfbf" points="45.9201,-0.5 45.9201,-19.5 86.9201,-19.5 86.9201,-0.5 45.9201,-0.5"/>
<text text-anchor="middle" x="66.4201" y="-7.5" font-family="Helvetica,sans-Serif" font-size="10.00">string</text>
</g>
<!-- Node4&#45;&gt;Node7 -->
<g id="edge9" class="edge"><title>Node4&#45;&gt;Node7</title>
<path fill="none" stroke="midnightblue" d="M260.863,-112.368C224.116,-93.2113 135.543,-47.0355 91.773,-24.2172"/>
<polygon fill="midnightblue" stroke="midnightblue" points="93.3853,-21.1107 82.9,-19.5914 90.1493,-27.3178 93.3853,-21.1107"/>
</g>
<!-- Node8 -->
<g id="node8" class="node"><title>Node8</title>
<polygon fill="white" stroke="#bfbfbf" points="251.42,-56.5 251.42,-75.5 295.42,-75.5 295.42,-56.5 251.42,-56.5"/>
<text text-anchor="middle" x="273.42" y="-63.5" font-family="Helvetica,sans-Serif" font-size="10.00">vector</text>
</g>
<!-- Node4&#45;&gt;Node8 -->
<g id="edge10" class="edge"><title>Node4&#45;&gt;Node8</title>
<path fill="none" stroke="midnightblue" d="M276.76,-112.083C276.235,-105.006 275.484,-94.8611 274.826,-85.9865"/>
<polygon fill="midnightblue" stroke="midnightblue" points="278.298,-85.4652 274.068,-75.7511 271.317,-85.9823 278.298,-85.4652"/>
</g>
<!-- Node9 -->
<g id="node9" class="node"><title>Node9</title>
<polygon fill="white" stroke="#bfbfbf" points="313.42,-56.5 313.42,-75.5 359.42,-75.5 359.42,-56.5 313.42,-56.5"/>
<text text-anchor="middle" x="336.42" y="-63.5" font-family="Helvetica,sans-Serif" font-size="10.00">cstring</text>
</g>
<!-- Node4&#45;&gt;Node9 -->
<g id="edge11" class="edge"><title>Node4&#45;&gt;Node9</title>
<path fill="none" stroke="midnightblue" d="M286.899,-112.324C295.621,-104.341 308.764,-92.3128 319.318,-82.6529"/>
<polygon fill="midnightblue" stroke="midnightblue" points="321.755,-85.1674 326.768,-75.8339 317.028,-80.0036 321.755,-85.1674"/>
</g>
<!-- Node10 -->
<g id="node10" class="node"><title>Node10</title>
<polygon fill="white" stroke="#bfbfbf" points="377.92,-56.5 377.92,-75.5 436.92,-75.5 436.92,-56.5 377.92,-56.5"/>
<text text-anchor="middle" x="407.42" y="-63.5" font-family="Helvetica,sans-Serif" font-size="10.00">functional</text>
</g>
<!-- Node4&#45;&gt;Node10 -->
<g id="edge12" class="edge"><title>Node4&#45;&gt;Node10</title>
<path fill="none" stroke="midnightblue" d="M298.019,-112.444C319.413,-103.557 353.101,-89.5632 377.444,-79.4514"/>
<polygon fill="midnightblue" stroke="midnightblue" points="379.025,-82.5848 386.918,-75.5164 376.34,-76.1203 379.025,-82.5848"/>
</g>
<!-- Node11 -->
<g id="node11" class="node"><title>Node11</title>
<polygon fill="white" stroke="#bfbfbf" points="712.92,-56.5 712.92,-75.5 761.92,-75.5 761.92,-56.5 712.92,-56.5"/>
<text text-anchor="middle" x="737.42" y="-63.5" font-family="Helvetica,sans-Serif" font-size="10.00">stdint.h</text>
</g>
<!-- Node4&#45;&gt;Node11 -->
<g id="edge13" class="edge"><title>Node4&#45;&gt;Node11</title>
<path fill="none" stroke="midnightblue" d="M316.243,-116.443C404.419,-106.091 618.637,-80.9441 702.723,-71.0731"/>
<polygon fill="midnightblue" stroke="midnightblue" points="703.254,-74.5349 712.778,-69.8928 702.438,-67.5827 703.254,-74.5349"/>
</g>
<!-- Node6&#45;&gt;Node5 -->
<g id="edge7" class="edge"><title>Node6&#45;&gt;Node5</title>
<path fill="none" stroke="midnightblue" d="M85.7513,-56.4435C105.74,-47.5961 137.163,-33.6875 159.984,-23.5865"/>
<polygon fill="midnightblue" stroke="midnightblue" points="161.452,-26.7645 169.179,-19.5164 158.618,-20.3635 161.452,-26.7645"/>
</g>
<!-- Node6&#45;&gt;Node7 -->
<g id="edge8" class="edge"><title>Node6&#45;&gt;Node7</title>
<path fill="none" stroke="midnightblue" d="M66.4201,-56.083C66.4201,-49.0059 66.4201,-38.8611 66.4201,-29.9865"/>
<polygon fill="midnightblue" stroke="midnightblue" points="69.9201,-29.751 66.4201,-19.7511 62.9201,-29.7511 69.9201,-29.751"/>
</g>
<!-- Node12&#45;&gt;Node5 -->
<g id="edge15" class="edge"><title>Node12&#45;&gt;Node5</title>
<path fill="none" stroke="midnightblue" d="M167.225,-112.368C170.937,-94.617 179.499,-53.6664 184.531,-29.5974"/>
<polygon fill="midnightblue" stroke="midnightblue" points="188.003,-30.0961 186.624,-19.5914 181.151,-28.6634 188.003,-30.0961"/>
</g>
<!-- Node12&#45;&gt;Node6 -->
<g id="edge16" class="edge"><title>Node12&#45;&gt;Node6</title>
<path fill="none" stroke="midnightblue" d="M149.514,-112.324C133.782,-103.743 109.478,-90.486 91.2112,-80.5224"/>
<polygon fill="midnightblue" stroke="midnightblue" points="92.7416,-77.3704 82.2866,-75.6545 89.3896,-83.5157 92.7416,-77.3704"/>
</g>
<!-- Node12&#45;&gt;Node7 -->
<g id="edge17" class="edge"><title>Node12&#45;&gt;Node7</title>
<path fill="none" stroke="midnightblue" d="M109.725,-112.715C68.4868,-105.308 17.3148,-92.9931 4.42005,-76 -10.1624,-56.7828 15.5151,-37.057 38.1229,-24.4537"/>
<polygon fill="midnightblue" stroke="midnightblue" points="39.9718,-27.4354 47.1793,-19.6699 36.7024,-21.2459 39.9718,-27.4354"/>
</g>
<!-- Node12&#45;&gt;Node8 -->
<g id="edge18" class="edge"><title>Node12&#45;&gt;Node8</title>
<path fill="none" stroke="midnightblue" d="M182.772,-112.324C200.092,-103.664 226.935,-90.2424 246.922,-80.249"/>
<polygon fill="midnightblue" stroke="midnightblue" points="248.732,-83.2572 256.111,-75.6545 245.601,-76.9962 248.732,-83.2572"/>
</g>
<!-- Node13&#45;&gt;Node5 -->
<g id="edge21" class="edge"><title>Node13&#45;&gt;Node5</title>
<path fill="none" stroke="midnightblue" d="M465.255,-168.246C461.606,-141.118 450.411,-60.0263 446.42,-56 419.248,-28.5858 314.634,-17.7412 247.252,-13.546"/>
<polygon fill="midnightblue" stroke="midnightblue" points="247.374,-10.0472 237.185,-12.9511 246.961,-17.035 247.374,-10.0472"/>
</g>
<!-- Node13&#45;&gt;Node8 -->
<g id="edge28" class="edge"><title>Node13&#45;&gt;Node8</title>
<path fill="none" stroke="midnightblue" d="M451.276,-168.368C417.875,-149.332 337.663,-103.615 297.37,-80.6505"/>
<polygon fill="midnightblue" stroke="midnightblue" points="298.915,-77.5024 288.494,-75.5914 295.449,-83.584 298.915,-77.5024"/>
</g>
<!-- Node13&#45;&gt;Node10 -->
<g id="edge27" class="edge"><title>Node13&#45;&gt;Node10</title>
<path fill="none" stroke="midnightblue" d="M456.797,-168.222C448.012,-159.729 435.241,-146.104 427.42,-132 419.368,-117.48 414.128,-99.2981 411.039,-85.8593"/>
<polygon fill="midnightblue" stroke="midnightblue" points="414.421,-84.9352 408.937,-75.8706 407.571,-86.3771 414.421,-84.9352"/>
</g>
<!-- Node14 -->
<g id="node14" class="node"><title>Node14</title>
<g id="a_node14"><a xlink:href="../../d1/d2e/LMS7002M__parameters_8h.html" target="_top" xlink:title="List of LMS7002M transceiver control parameters. ">
<polygon fill="white" stroke="black" points="673.42,-112.5 673.42,-131.5 801.42,-131.5 801.42,-112.5 673.42,-112.5"/>
<text text-anchor="middle" x="737.42" y="-119.5" font-family="Helvetica,sans-Serif" font-size="10.00">LMS7002M_parameters.h</text>
</a>
</g>
</g>
<!-- Node13&#45;&gt;Node14 -->
<g id="edge22" class="edge"><title>Node13&#45;&gt;Node14</title>
<path fill="none" stroke="midnightblue" d="M503.533,-169.605C550.381,-160.27 631.27,-144.152 684.564,-133.532"/>
<polygon fill="midnightblue" stroke="midnightblue" points="685.384,-136.938 694.507,-131.551 684.016,-130.073 685.384,-136.938"/>
</g>
<!-- Node15 -->
<g id="node15" class="node"><title>Node15</title>
<polygon fill="white" stroke="#bfbfbf" points="469.42,-112.5 469.42,-131.5 515.42,-131.5 515.42,-112.5 469.42,-112.5"/>
<text text-anchor="middle" x="492.42" y="-119.5" font-family="Helvetica,sans-Serif" font-size="10.00">cstdint</text>
</g>
<!-- Node13&#45;&gt;Node15 -->
<g id="edge24" class="edge"><title>Node13&#45;&gt;Node15</title>
<path fill="none" stroke="midnightblue" d="M470.713,-168.083C474.272,-160.691 479.443,-149.953 483.844,-140.811"/>
<polygon fill="midnightblue" stroke="midnightblue" points="487.022,-142.279 488.207,-131.751 480.715,-139.243 487.022,-142.279"/>
</g>
<!-- Node16 -->
<g id="node16" class="node"><title>Node16</title>
<polygon fill="white" stroke="#bfbfbf" points="533.42,-112.5 533.42,-131.5 585.42,-131.5 585.42,-112.5 533.42,-112.5"/>
<text text-anchor="middle" x="559.42" y="-119.5" font-family="Helvetica,sans-Serif" font-size="10.00">sstream</text>
</g>
<!-- Node13&#45;&gt;Node16 -->
<g id="edge25" class="edge"><title>Node13&#45;&gt;Node16</title>
<path fill="none" stroke="midnightblue" d="M481.362,-168.324C496.005,-159.822 518.554,-146.729 535.658,-136.797"/>
<polygon fill="midnightblue" stroke="midnightblue" points="537.625,-139.703 544.515,-131.655 534.11,-133.649 537.625,-139.703"/>
</g>
<!-- Node17 -->
<g id="node17" class="node"><title>Node17</title>
<polygon fill="white" stroke="#bfbfbf" points="603.42,-112.5 603.42,-131.5 655.42,-131.5 655.42,-112.5 603.42,-112.5"/>
<text text-anchor="middle" x="629.42" y="-119.5" font-family="Helvetica,sans-Serif" font-size="10.00">stdarg.h</text>
</g>
<!-- Node13&#45;&gt;Node17 -->
<g id="edge26" class="edge"><title>Node13&#45;&gt;Node17</title>
<path fill="none" stroke="midnightblue" d="M492.248,-168.444C519.669,-159.359 563.198,-144.939 593.852,-134.783"/>
<polygon fill="midnightblue" stroke="midnightblue" points="595.321,-137.984 603.713,-131.516 593.12,-131.339 595.321,-137.984"/>
</g>
<!-- Node14&#45;&gt;Node11 -->
<g id="edge23" class="edge"><title>Node14&#45;&gt;Node11</title>
<path fill="none" stroke="midnightblue" d="M737.42,-112.083C737.42,-105.006 737.42,-94.8611 737.42,-85.9865"/>
<polygon fill="midnightblue" stroke="midnightblue" points="740.92,-85.751 737.42,-75.7511 733.92,-85.7511 740.92,-85.751"/>
</g>
<!-- Node21&#45;&gt;Node11 -->
<g id="edge34" class="edge"><title>Node21&#45;&gt;Node11</title>
<path fill="none" stroke="midnightblue" d="M593.265,-169.744C596.36,-169.144 599.444,-168.555 602.42,-168 648.534,-159.399 780.211,-167.887 810.42,-132 827.528,-111.677 796.416,-91.9038 769.66,-79.6071"/>
<polygon fill="midnightblue" stroke="midnightblue" points="771.028,-76.3854 760.464,-75.5807 768.221,-82.7977 771.028,-76.3854"/>
</g>
<!-- Node22 -->
<g id="node22" class="node"><title>Node22</title>
<polygon fill="white" stroke="#bfbfbf" points="857.92,-112.5 857.92,-131.5 906.92,-131.5 906.92,-112.5 857.92,-112.5"/>
<text text-anchor="middle" x="882.42" y="-119.5" font-family="Helvetica,sans-Serif" font-size="10.00">string.h</text>
</g>
<!-- Node21&#45;&gt;Node22 -->
<g id="edge33" class="edge"><title>Node21&#45;&gt;Node22</title>
<path fill="none" stroke="midnightblue" d="M593.252,-169.669C596.349,-169.085 599.438,-168.521 602.42,-168 709.106,-149.375 737.019,-152.192 843.42,-132 844.871,-131.725 846.349,-131.433 847.841,-131.13"/>
<polygon fill="midnightblue" stroke="midnightblue" points="848.682,-134.529 857.724,-129.007 847.212,-127.685 848.682,-134.529"/>
</g>
</g>
</svg>
