<?xml version="1.0" encoding="UTF-8" standalone="no"?>
<!DOCTYPE svg PUBLIC "-//W3C//DTD SVG 1.1//EN"
 "http://www.w3.org/Graphics/SVG/1.1/DTD/svg11.dtd">
<!-- Generated by graphviz version 2.38.0 (20140413.2041)
 -->
<!-- Title: lime::LMS64CProtocol::GetFPGAInfo Pages: 1 -->
<!--zoomable 400 -->
<svg id="main" version="1.1" xmlns="http://www.w3.org/2000/svg" xmlns:xlink="http://www.w3.org/1999/xlink" xml:space="preserve" onload="init(evt)">
<style type="text/css"><![CDATA[
.edge:hover path { stroke: red; }
.edge:hover polygon { stroke: red; fill: red; }
]]></style>
<script type="text/javascript"><![CDATA[
var edges = document.getElementsByTagName('g');
if (edges && edges.length) {
  for (var i=0;i<edges.length;i++) {
    if (edges[i].id.substr(0,4)=='edge') {
      edges[i].setAttribute('class','edge');
    }
  }
}
]]></script>
        <defs>
                <circle id="rim" cx="0" cy="0" r="7"/>
                <circle id="rim2" cx="0" cy="0" r="3.5"/>
                <g id="zoomPlus">
                        <use xlink:href="#rim" fill="#404040">
                                <set attributeName="fill" to="#808080" begin="zoomplus.mouseover" end="zoomplus.mouseout"/>
                        </use>
                        <path d="M-4,0h8M0,-4v8" fill="none" stroke="white" stroke-width="1.5" pointer-events="none"/>
                </g>
                <g id="zoomMin">
                        <use xlink:href="#rim" fill="#404040">
                                <set attributeName="fill" to="#808080" begin="zoomminus.mouseover" end="zoomminus.mouseout"/>
                        </use>
                        <path d="M-4,0h8" fill="none" stroke="white" stroke-width="1.5" pointer-events="none"/>
                </g>
                <g id="dirArrow">
                        <path fill="none" stroke="white" stroke-width="1.5" d="M0,-3.0v7 M-2.5,-0.5L0,-3.0L2.5,-0.5"/>
                </g>
               <g id="resetDef">
                       <use xlink:href="#rim2" fill="#404040">
                               <set attributeName="fill" to="#808080" begin="reset.mouseover" end="reset.mouseout"/>
                       </use>
               </g>
        </defs>

<script type="text/javascript">
var viewWidth = 646;
var viewHeight = 400;
var sectionId = 'dynsection-8';
</script>
<script xlink:href="../../svgpan.js"/>
<svg id="graph" class="graph">
<g id="viewport">
<title>lime::LMS64CProtocol::GetFPGAInfo</title>
<polygon fill="white" stroke="none" points="-4,4 -4,-396 642,-396 642,4 -4,4"/>
<!-- Node1 -->
<g id="node1" class="node"><title>Node1</title>
<polygon fill="#bfbfbf" stroke="black" points="0,-242 0,-272 115,-272 115,-242 0,-242"/>
<text text-anchor="start" x="8" y="-260" font-family="Helvetica,sans-Serif" font-size="10.00">lime::LMS64CProtocol</text>
<text text-anchor="middle" x="57.5" y="-249" font-family="Helvetica,sans-Serif" font-size="10.00">::GetFPGAInfo</text>
</g>
<!-- Node2 -->
<g id="node2" class="node"><title>Node2</title>
<g id="a_node2"><a xlink:href="../../d5/d6c/namespacelime.html#af0395b1ab55d42fb76210f0cd9a44a6f" target="_top" xlink:title="Log an information message with formatting. ">
<polygon fill="white" stroke="black" points="180.5,-303.5 180.5,-322.5 236.5,-322.5 236.5,-303.5 180.5,-303.5"/>
<text text-anchor="middle" x="208.5" y="-310.5" font-family="Helvetica,sans-Serif" font-size="10.00">lime::info</text>
</a>
</g>
</g>
<!-- Node1&#45;&gt;Node2 -->
<g id="edge1" class="edge"><title>Node1&#45;&gt;Node2</title>
<path fill="none" stroke="midnightblue" d="M98.4293,-272.007C121.557,-280.699 150.396,-291.538 172.61,-299.887"/>
<polygon fill="midnightblue" stroke="midnightblue" points="171.405,-303.173 181.997,-303.415 173.868,-296.621 171.405,-303.173"/>
</g>
<!-- Node4 -->
<g id="node4" class="node"><title>Node4</title>
<g id="a_node4"><a xlink:href="../../de/d46/classlime_1_1LMS64CProtocol.html#a9ef0f354db0f6460e100f3062d46cdeb" target="_top" xlink:title="Transfers data between packet and connected device. ">
<polygon fill="white" stroke="black" points="151,-186 151,-216 266,-216 266,-186 151,-186"/>
<text text-anchor="start" x="159" y="-204" font-family="Helvetica,sans-Serif" font-size="10.00">lime::LMS64CProtocol</text>
<text text-anchor="middle" x="208.5" y="-193" font-family="Helvetica,sans-Serif" font-size="10.00">::TransferPacket</text>
</a>
</g>
</g>
<!-- Node1&#45;&gt;Node4 -->
<g id="edge3" class="edge"><title>Node1&#45;&gt;Node4</title>
<path fill="none" stroke="midnightblue" d="M98.4293,-241.993C116.718,-235.12 138.577,-226.904 157.908,-219.638"/>
<polygon fill="midnightblue" stroke="midnightblue" points="159.331,-222.843 167.461,-216.048 156.868,-216.29 159.331,-222.843"/>
</g>
<!-- Node3 -->
<g id="node3" class="node"><title>Node3</title>
<g id="a_node3"><a xlink:href="../../d5/d6c/namespacelime.html#abec841ac666fc9321a10e1881cff2da0" target="_top" xlink:title="Log a message with formatting and specified logging level. ">
<polygon fill="white" stroke="black" points="333,-372.5 333,-391.5 386,-391.5 386,-372.5 333,-372.5"/>
<text text-anchor="middle" x="359.5" y="-379.5" font-family="Helvetica,sans-Serif" font-size="10.00">lime::log</text>
</a>
</g>
</g>
<!-- Node2&#45;&gt;Node3 -->
<g id="edge2" class="edge"><title>Node2&#45;&gt;Node3</title>
<path fill="none" stroke="midnightblue" d="M225.128,-322.522C243.196,-333.273 274.041,-350.849 302,-363 308.786,-365.949 316.189,-368.733 323.335,-371.214"/>
<polygon fill="midnightblue" stroke="midnightblue" points="322.244,-374.54 332.837,-374.397 324.466,-367.902 322.244,-374.54"/>
</g>
<!-- Node5 -->
<g id="node5" class="node"><title>Node5</title>
<g id="a_node5"><a xlink:href="../../d2/de5/classlime_1_1IConnection.html#abf1c25c85e31e262ded3e33e65cc58e3" target="_top" xlink:title="lime::IConnection::\lIsOpen">
<polygon fill="white" stroke="black" points="310,-323 310,-353 409,-353 409,-323 310,-323"/>
<text text-anchor="start" x="318" y="-341" font-family="Helvetica,sans-Serif" font-size="10.00">lime::IConnection::</text>
<text text-anchor="middle" x="359.5" y="-330" font-family="Helvetica,sans-Serif" font-size="10.00">IsOpen</text>
</a>
</g>
</g>
<!-- Node4&#45;&gt;Node5 -->
<g id="edge4" class="edge"><title>Node4&#45;&gt;Node5</title>
<path fill="none" stroke="midnightblue" d="M219.717,-216.036C235.397,-238.278 267.247,-280.294 302,-308 306.396,-311.505 311.263,-314.797 316.243,-317.823"/>
<polygon fill="midnightblue" stroke="midnightblue" points="314.832,-321.048 325.251,-322.971 318.306,-314.97 314.832,-321.048"/>
</g>
<!-- Node6 -->
<g id="node6" class="node"><title>Node6</title>
<g id="a_node6"><a xlink:href="../../d5/d6c/namespacelime.html#adc6af0cf8e0a70f3ef09fac1244f8c48" target="_top" xlink:title="lime::ReportError">
<polygon fill="white" stroke="black" points="456,-161.5 456,-180.5 547,-180.5 547,-161.5 456,-161.5"/>
<text text-anchor="middle" x="501.5" y="-168.5" font-family="Helvetica,sans-Serif" font-size="10.00">lime::ReportError</text>
</a>
</g>
</g>
<!-- Node4&#45;&gt;Node6 -->
<g id="edge5" class="edge"><title>Node4&#45;&gt;Node6</title>
<path fill="none" stroke="midnightblue" d="M222.346,-216.207C238.691,-234.252 268.815,-263.359 302,-275 350.23,-291.918 370.914,-297.1 417,-275 453.884,-257.313 479.626,-214.511 492.039,-189.679"/>
<polygon fill="midnightblue" stroke="midnightblue" points="495.247,-191.083 496.405,-180.552 488.932,-188.063 495.247,-191.083"/>
</g>
<!-- Node8 -->
<g id="node8" class="node"><title>Node8</title>
<g id="a_node8"><a xlink:href="../../de/d46/classlime_1_1LMS64CProtocol.html#ab766d6322a66164891a296359c2b9019" target="_top" xlink:title="implement in base class ">
<polygon fill="white" stroke="black" points="302,-235 302,-265 417,-265 417,-235 302,-235"/>
<text text-anchor="start" x="310" y="-253" font-family="Helvetica,sans-Serif" font-size="10.00">lime::LMS64CProtocol</text>
<text text-anchor="middle" x="359.5" y="-242" font-family="Helvetica,sans-Serif" font-size="10.00">::GetType</text>
</a>
</g>
</g>
<!-- Node4&#45;&gt;Node8 -->
<g id="edge7" class="edge"><title>Node4&#45;&gt;Node8</title>
<path fill="none" stroke="midnightblue" d="M255.421,-216.101C270.503,-221.062 287.428,-226.627 303.136,-231.793"/>
<polygon fill="midnightblue" stroke="midnightblue" points="302.138,-235.149 312.731,-234.948 304.325,-228.5 302.138,-235.149"/>
</g>
<!-- Node9 -->
<g id="node9" class="node"><title>Node9</title>
<g id="a_node9"><a xlink:href="../../de/d46/classlime_1_1LMS64CProtocol.html#afba3d83e1e35b6e70c7171e31cc6cea3" target="_top" xlink:title="Takes generic packet and converts to specific protocol buffer. ">
<polygon fill="white" stroke="black" points="302,-186 302,-216 417,-216 417,-186 302,-186"/>
<text text-anchor="start" x="310" y="-204" font-family="Helvetica,sans-Serif" font-size="10.00">lime::LMS64CProtocol</text>
<text text-anchor="middle" x="359.5" y="-193" font-family="Helvetica,sans-Serif" font-size="10.00">::PreparePacket</text>
</a>
</g>
</g>
<!-- Node4&#45;&gt;Node9 -->
<g id="edge8" class="edge"><title>Node4&#45;&gt;Node9</title>
<path fill="none" stroke="midnightblue" d="M266.256,-201C274.558,-201 283.173,-201 291.654,-201"/>
<polygon fill="midnightblue" stroke="midnightblue" points="291.902,-204.5 301.902,-201 291.902,-197.5 291.902,-204.5"/>
</g>
<!-- Node10 -->
<g id="node10" class="node"><title>Node10</title>
<g id="a_node10"><a xlink:href="../../de/d46/classlime_1_1LMS64CProtocol.html#aa78b82a017792421b61bc6a99b4c55c0" target="_top" xlink:title="virtual write function to be implemented by the base class ">
<polygon fill="white" stroke="black" points="302,-137 302,-167 417,-167 417,-137 302,-137"/>
<text text-anchor="start" x="310" y="-155" font-family="Helvetica,sans-Serif" font-size="10.00">lime::LMS64CProtocol</text>
<text text-anchor="middle" x="359.5" y="-144" font-family="Helvetica,sans-Serif" font-size="10.00">::Write</text>
</a>
</g>
</g>
<!-- Node4&#45;&gt;Node10 -->
<g id="edge9" class="edge"><title>Node4&#45;&gt;Node10</title>
<path fill="none" stroke="midnightblue" d="M255.421,-185.899C270.503,-180.938 287.428,-175.373 303.136,-170.207"/>
<polygon fill="midnightblue" stroke="midnightblue" points="304.325,-173.5 312.731,-167.052 302.138,-166.851 304.325,-173.5"/>
</g>
<!-- Node11 -->
<g id="node11" class="node"><title>Node11</title>
<g id="a_node11"><a xlink:href="../../de/d46/classlime_1_1LMS64CProtocol.html#ab9e954443ee121eff8e1e6d4f8de3d4b" target="_top" xlink:title="virtual read function to be implemented by the base class ">
<polygon fill="white" stroke="black" points="302,-88 302,-118 417,-118 417,-88 302,-88"/>
<text text-anchor="start" x="310" y="-106" font-family="Helvetica,sans-Serif" font-size="10.00">lime::LMS64CProtocol</text>
<text text-anchor="middle" x="359.5" y="-95" font-family="Helvetica,sans-Serif" font-size="10.00">::Read</text>
</a>
</g>
</g>
<!-- Node4&#45;&gt;Node11 -->
<g id="edge10" class="edge"><title>Node4&#45;&gt;Node11</title>
<path fill="none" stroke="midnightblue" d="M225.945,-185.912C243.748,-170.1 273.439,-145.211 302,-128 305.124,-126.118 308.414,-124.294 311.772,-122.547"/>
<polygon fill="midnightblue" stroke="midnightblue" points="313.333,-125.68 320.75,-118.114 310.234,-119.404 313.333,-125.68"/>
</g>
<!-- Node12 -->
<g id="node12" class="node"><title>Node12</title>
<g id="a_node12"><a xlink:href="../../de/d46/classlime_1_1LMS64CProtocol.html#a5f902d9f4553498a6035f767d1d9e880" target="_top" xlink:title="Parses given data buffer into generic packet. ">
<polygon fill="white" stroke="black" points="302,-39 302,-69 417,-69 417,-39 302,-39"/>
<text text-anchor="start" x="310" y="-57" font-family="Helvetica,sans-Serif" font-size="10.00">lime::LMS64CProtocol</text>
<text text-anchor="middle" x="359.5" y="-46" font-family="Helvetica,sans-Serif" font-size="10.00">::ParsePacket</text>
</a>
</g>
</g>
<!-- Node4&#45;&gt;Node12 -->
<g id="edge11" class="edge"><title>Node4&#45;&gt;Node12</title>
<path fill="none" stroke="midnightblue" d="M217.542,-185.91C231.63,-160.722 263.019,-109.84 302,-79 304.061,-77.3695 306.245,-75.822 308.509,-74.3568"/>
<polygon fill="midnightblue" stroke="midnightblue" points="310.66,-77.1556 317.554,-69.1103 307.147,-71.1006 310.66,-77.1556"/>
</g>
<!-- Node13 -->
<g id="node13" class="node"><title>Node13</title>
<g id="a_node13"><a xlink:href="../../d2/d65/LMS64CProtocol_8cpp.html#af62b1cc795d9086a8ad8d7164b0cad8b" target="_top" xlink:title="convertStatus">
<polygon fill="white" stroke="black" points="321,-0.5 321,-19.5 398,-19.5 398,-0.5 321,-0.5"/>
<text text-anchor="middle" x="359.5" y="-7.5" font-family="Helvetica,sans-Serif" font-size="10.00">convertStatus</text>
</a>
</g>
</g>
<!-- Node4&#45;&gt;Node13 -->
<g id="edge12" class="edge"><title>Node4&#45;&gt;Node13</title>
<path fill="none" stroke="midnightblue" d="M213.474,-185.938C223.005,-152.711 250.304,-72.6217 302,-29 304.899,-26.5536 308.127,-24.4182 311.529,-22.555"/>
<polygon fill="midnightblue" stroke="midnightblue" points="313.242,-25.6185 320.837,-18.2317 310.293,-19.2698 313.242,-25.6185"/>
</g>
<!-- Node7 -->
<g id="node7" class="node"><title>Node7</title>
<g id="a_node7"><a xlink:href="../../d9/df5/Logger_8cpp.html#ada38bf01d6d691de953ed69268ea6516" target="_top" xlink:title="errToStr">
<polygon fill="white" stroke="black" points="586,-161.5 586,-180.5 638,-180.5 638,-161.5 586,-161.5"/>
<text text-anchor="middle" x="612" y="-168.5" font-family="Helvetica,sans-Serif" font-size="10.00">errToStr</text>
</a>
</g>
</g>
<!-- Node6&#45;&gt;Node7 -->
<g id="edge6" class="edge"><title>Node6&#45;&gt;Node7</title>
<path fill="none" stroke="midnightblue" d="M547.258,-171C556.74,-171 566.621,-171 575.694,-171"/>
<polygon fill="midnightblue" stroke="midnightblue" points="575.901,-174.5 585.901,-171 575.901,-167.5 575.901,-174.5"/>
</g>
<!-- Node13&#45;&gt;Node6 -->
<g id="edge13" class="edge"><title>Node13&#45;&gt;Node6</title>
<path fill="none" stroke="midnightblue" d="M398.024,-18.3997C404.796,-21.0454 411.456,-24.4999 417,-29 457.937,-62.2275 483.217,-121.241 494.16,-151.669"/>
<polygon fill="midnightblue" stroke="midnightblue" points="490.976,-153.173 497.546,-161.485 497.594,-150.89 490.976,-153.173"/>
</g>
<!-- Node14 -->
<g id="node14" class="node"><title>Node14</title>
<g id="a_node14"><a xlink:href="../../d5/d6c/namespacelime.html#ad336711d447db6515582bd4de9a6b30c" target="_top" xlink:title="lime::status2string">
<polygon fill="white" stroke="black" points="453,-0.5 453,-19.5 550,-19.5 550,-0.5 453,-0.5"/>
<text text-anchor="middle" x="501.5" y="-7.5" font-family="Helvetica,sans-Serif" font-size="10.00">lime::status2string</text>
</a>
</g>
</g>
<!-- Node13&#45;&gt;Node14 -->
<g id="edge14" class="edge"><title>Node13&#45;&gt;Node14</title>
<path fill="none" stroke="midnightblue" d="M398.017,-10C411.706,-10 427.523,-10 442.573,-10"/>
<polygon fill="midnightblue" stroke="midnightblue" points="442.834,-13.5001 452.834,-10 442.834,-6.5001 442.834,-13.5001"/>
</g>
</g>
</svg>
        <g id="navigator" transform="translate(0 0)" fill="#404254">
                <rect fill="#f2f5e9" fill-opacity="0.5" stroke="#606060" stroke-width=".5" x="0" y="0" width="60" height="60"/>
                <use id="zoomplus" xlink:href="#zoomPlus" x="17" y="9" onmousedown="handleZoom(evt,'in')"/>
                <use id="zoomminus" xlink:href="#zoomMin" x="42" y="9" onmousedown="handleZoom(evt,'out')"/>
                <use id="reset" xlink:href="#resetDef" x="30" y="36" onmousedown="handleReset()"/>
                <g id="arrowUp" xlink:href="#dirArrow" transform="translate(30 24)" onmousedown="handlePan(0,-1)">
                  <use xlink:href="#rim" fill="#404040">
                        <set attributeName="fill" to="#808080" begin="arrowUp.mouseover" end="arrowUp.mouseout"/>
                  </use>
                  <path fill="none" stroke="white" stroke-width="1.5" d="M0,-3.0v7 M-2.5,-0.5L0,-3.0L2.5,-0.5"/>
                </g>
                <g id="arrowRight" xlink:href="#dirArrow" transform="rotate(90) translate(36 -43)" onmousedown="handlePan(1,0)">
                  <use xlink:href="#rim" fill="#404040">
                        <set attributeName="fill" to="#808080" begin="arrowRight.mouseover" end="arrowRight.mouseout"/>
                  </use>
                  <path fill="none" stroke="white" stroke-width="1.5" d="M0,-3.0v7 M-2.5,-0.5L0,-3.0L2.5,-0.5"/>
                </g>
                <g id="arrowDown" xlink:href="#dirArrow" transform="rotate(180) translate(-30 -48)" onmousedown="handlePan(0,1)">
                  <use xlink:href="#rim" fill="#404040">
                        <set attributeName="fill" to="#808080" begin="arrowDown.mouseover" end="arrowDown.mouseout"/>
                  </use>
                  <path fill="none" stroke="white" stroke-width="1.5" d="M0,-3.0v7 M-2.5,-0.5L0,-3.0L2.5,-0.5"/>
                </g>
                <g id="arrowLeft" xlink:href="#dirArrow" transform="rotate(270) translate(-36 17)" onmousedown="handlePan(-1,0)">
                  <use xlink:href="#rim" fill="#404040">
                        <set attributeName="fill" to="#808080" begin="arrowLeft.mouseover" end="arrowLeft.mouseout"/>
                  </use>
                  <path fill="none" stroke="white" stroke-width="1.5" d="M0,-3.0v7 M-2.5,-0.5L0,-3.0L2.5,-0.5"/>
                </g>
        </g>
        <svg viewBox="0 0 15 15" width="100%" height="30px" preserveAspectRatio="xMaxYMin meet">
         <g id="arrow_out" transform="scale(0.3 0.3)">
          <a xlink:href="classlime_1_1LMS64CProtocol_af97b852de079f95e0721c3c6af419c8f_cgraph_org.svg" target="_base">
           <rect id="button" ry="5" rx="5" y="6" x="6" height="38" width="38"
                fill="#f2f5e9" fill-opacity="0.5" stroke="#606060" stroke-width="1.0"/>
           <path id="arrow"
             d="M 11.500037,31.436501 C 11.940474,20.09759 22.043105,11.32322 32.158766,21.979434 L 37.068811,17.246167 C 37.068811,17.246167 37.088388,32 37.088388,32 L 22.160133,31.978069 C 22.160133,31.978069 26.997745,27.140456 26.997745,27.140456 C 18.528582,18.264221 13.291696,25.230495 11.500037,31.436501 z"
             style="fill:#404040;"/>
          </a>
         </g>
        </svg>
</svg>
