<?xml version="1.0" encoding="UTF-8" standalone="no"?>
<!DOCTYPE svg PUBLIC "-//W3C//DTD SVG 1.1//EN"
 "http://www.w3.org/Graphics/SVG/1.1/DTD/svg11.dtd">
<!-- Generated by graphviz version 2.38.0 (20140413.2041)
 -->
<!-- Title: lime::LMS64CProtocol::GetDeviceInfo Pages: 1 -->
<svg width="836pt" height="400pt"
 viewBox="0.00 0.00 836.00 399.50" xmlns="http://www.w3.org/2000/svg" xmlns:xlink="http://www.w3.org/1999/xlink">
<g id="graph0" class="graph" transform="scale(1 1) rotate(0) translate(4 395.5)">
<title>lime::LMS64CProtocol::GetDeviceInfo</title>
<polygon fill="white" stroke="none" points="-4,4 -4,-395.5 832,-395.5 832,4 -4,4"/>
<!-- Node1 -->
<g id="node1" class="node"><title>Node1</title>
<polygon fill="#bfbfbf" stroke="black" points="0,-246.5 0,-276.5 115,-276.5 115,-246.5 0,-246.5"/>
<text text-anchor="start" x="8" y="-264.5" font-family="Helvetica,sans-Serif" font-size="10.00">lime::LMS64CProtocol</text>
<text text-anchor="middle" x="57.5" y="-253.5" font-family="Helvetica,sans-Serif" font-size="10.00">::GetDeviceInfo</text>
</g>
<!-- Node2 -->
<g id="node2" class="node"><title>Node2</title>
<g id="a_node2"><a xlink:href="../../d5/d6c/namespacelime.html#a3a1fa645a1d28f577ef2be92471421c2" target="_top" xlink:title="lime::GetDeviceName">
<polygon fill="white" stroke="black" points="171.5,-312 171.5,-331 284.5,-331 284.5,-312 171.5,-312"/>
<text text-anchor="middle" x="228" y="-319" font-family="Helvetica,sans-Serif" font-size="10.00">lime::GetDeviceName</text>
</a>
</g>
</g>
<!-- Node1&#45;&gt;Node2 -->
<g id="edge1" class="edge"><title>Node1&#45;&gt;Node2</title>
<path fill="none" stroke="midnightblue" d="M88.8027,-276.518C106.612,-284.941 129.737,-295.191 151,-302.5 158.154,-304.959 165.788,-307.247 173.354,-309.321"/>
<polygon fill="midnightblue" stroke="midnightblue" points="172.655,-312.757 183.217,-311.922 174.44,-305.988 172.655,-312.757"/>
</g>
<!-- Node3 -->
<g id="node3" class="node"><title>Node3</title>
<g id="a_node3"><a xlink:href="../../d5/d6c/namespacelime.html#a076efa9b9d3d7a72bf71dcaa469ccf26" target="_top" xlink:title="lime::GetExpansionBoardName">
<polygon fill="white" stroke="black" points="151,-274 151,-293 305,-293 305,-274 151,-274"/>
<text text-anchor="middle" x="228" y="-281" font-family="Helvetica,sans-Serif" font-size="10.00">lime::GetExpansionBoardName</text>
</a>
</g>
</g>
<!-- Node1&#45;&gt;Node3 -->
<g id="edge2" class="edge"><title>Node1&#45;&gt;Node3</title>
<path fill="none" stroke="midnightblue" d="M115.077,-268.887C124.372,-270.101 134.174,-271.38 143.953,-272.657"/>
<polygon fill="midnightblue" stroke="midnightblue" points="143.746,-276.16 154.115,-273.984 144.652,-269.219 143.746,-276.16"/>
</g>
<!-- Node4 -->
<g id="node4" class="node"><title>Node4</title>
<g id="a_node4"><a xlink:href="../../de/d46/classlime_1_1LMS64CProtocol.html#af97b852de079f95e0721c3c6af419c8f" target="_top" xlink:title="Returns information from FPGA gateware. ">
<polygon fill="white" stroke="black" points="170.5,-224.5 170.5,-254.5 285.5,-254.5 285.5,-224.5 170.5,-224.5"/>
<text text-anchor="start" x="178.5" y="-242.5" font-family="Helvetica,sans-Serif" font-size="10.00">lime::LMS64CProtocol</text>
<text text-anchor="middle" x="228" y="-231.5" font-family="Helvetica,sans-Serif" font-size="10.00">::GetFPGAInfo</text>
</a>
</g>
</g>
<!-- Node1&#45;&gt;Node4 -->
<g id="edge3" class="edge"><title>Node1&#45;&gt;Node4</title>
<path fill="none" stroke="midnightblue" d="M115.077,-254.113C129.525,-252.227 145.196,-250.181 160.108,-248.234"/>
<polygon fill="midnightblue" stroke="midnightblue" points="160.823,-251.67 170.286,-246.905 159.917,-244.729 160.823,-251.67"/>
</g>
<!-- Node18 -->
<g id="node18" class="node"><title>Node18</title>
<g id="a_node18"><a xlink:href="../../de/d46/classlime_1_1LMS64CProtocol.html#aba66731a513d9ea0060afa62619c5ec1" target="_top" xlink:title="Returns connected device information. ">
<polygon fill="white" stroke="black" points="170.5,-175.5 170.5,-205.5 285.5,-205.5 285.5,-175.5 170.5,-175.5"/>
<text text-anchor="start" x="178.5" y="-193.5" font-family="Helvetica,sans-Serif" font-size="10.00">lime::LMS64CProtocol</text>
<text text-anchor="middle" x="228" y="-182.5" font-family="Helvetica,sans-Serif" font-size="10.00">::GetInfo</text>
</a>
</g>
</g>
<!-- Node1&#45;&gt;Node18 -->
<g id="edge18" class="edge"><title>Node1&#45;&gt;Node18</title>
<path fill="none" stroke="midnightblue" d="M86.3532,-246.336C104.467,-236.805 128.768,-224.629 151,-215.5 156.433,-213.269 162.144,-211.093 167.894,-209.015"/>
<polygon fill="midnightblue" stroke="midnightblue" points="169.289,-212.234 177.564,-205.617 166.969,-205.63 169.289,-212.234"/>
</g>
<!-- Node5 -->
<g id="node5" class="node"><title>Node5</title>
<g id="a_node5"><a xlink:href="../../d5/d6c/namespacelime.html#af0395b1ab55d42fb76210f0cd9a44a6f" target="_top" xlink:title="Log an information message with formatting. ">
<polygon fill="white" stroke="black" points="370.5,-230 370.5,-249 426.5,-249 426.5,-230 370.5,-230"/>
<text text-anchor="middle" x="398.5" y="-237" font-family="Helvetica,sans-Serif" font-size="10.00">lime::info</text>
</a>
</g>
</g>
<!-- Node4&#45;&gt;Node5 -->
<g id="edge4" class="edge"><title>Node4&#45;&gt;Node5</title>
<path fill="none" stroke="midnightblue" d="M285.577,-239.5C310.061,-239.5 338.054,-239.5 359.919,-239.5"/>
<polygon fill="midnightblue" stroke="midnightblue" points="360.119,-243 370.119,-239.5 360.119,-236 360.119,-243"/>
</g>
<!-- Node7 -->
<g id="node7" class="node"><title>Node7</title>
<g id="a_node7"><a xlink:href="../../de/d46/classlime_1_1LMS64CProtocol.html#a9ef0f354db0f6460e100f3062d46cdeb" target="_top" xlink:title="Transfers data between packet and connected device. ">
<polygon fill="white" stroke="black" points="341,-175.5 341,-205.5 456,-205.5 456,-175.5 341,-175.5"/>
<text text-anchor="start" x="349" y="-193.5" font-family="Helvetica,sans-Serif" font-size="10.00">lime::LMS64CProtocol</text>
<text text-anchor="middle" x="398.5" y="-182.5" font-family="Helvetica,sans-Serif" font-size="10.00">::TransferPacket</text>
</a>
</g>
</g>
<!-- Node4&#45;&gt;Node7 -->
<g id="edge6" class="edge"><title>Node4&#45;&gt;Node7</title>
<path fill="none" stroke="midnightblue" d="M280.93,-224.399C298.309,-219.345 317.85,-213.662 335.894,-208.415"/>
<polygon fill="midnightblue" stroke="midnightblue" points="337.116,-211.705 345.741,-205.552 335.161,-204.983 337.116,-211.705"/>
</g>
<!-- Node6 -->
<g id="node6" class="node"><title>Node6</title>
<g id="a_node6"><a xlink:href="../../d5/d6c/namespacelime.html#abec841ac666fc9321a10e1881cff2da0" target="_top" xlink:title="Log a message with formatting and specified logging level. ">
<polygon fill="white" stroke="black" points="523,-372 523,-391 576,-391 576,-372 523,-372"/>
<text text-anchor="middle" x="549.5" y="-379" font-family="Helvetica,sans-Serif" font-size="10.00">lime::log</text>
</a>
</g>
</g>
<!-- Node5&#45;&gt;Node6 -->
<g id="edge5" class="edge"><title>Node5&#45;&gt;Node6</title>
<path fill="none" stroke="midnightblue" d="M404.097,-249.051C415.626,-272.014 448.02,-330.756 492,-362.5 498.231,-366.997 505.6,-370.484 512.923,-373.168"/>
<polygon fill="midnightblue" stroke="midnightblue" points="512.178,-376.605 522.77,-376.35 514.331,-369.945 512.178,-376.605"/>
</g>
<!-- Node8 -->
<g id="node8" class="node"><title>Node8</title>
<g id="a_node8"><a xlink:href="../../d2/de5/classlime_1_1IConnection.html#abf1c25c85e31e262ded3e33e65cc58e3" target="_top" xlink:title="lime::IConnection::\lIsOpen">
<polygon fill="white" stroke="black" points="500,-175.5 500,-205.5 599,-205.5 599,-175.5 500,-175.5"/>
<text text-anchor="start" x="508" y="-193.5" font-family="Helvetica,sans-Serif" font-size="10.00">lime::IConnection::</text>
<text text-anchor="middle" x="549.5" y="-182.5" font-family="Helvetica,sans-Serif" font-size="10.00">IsOpen</text>
</a>
</g>
</g>
<!-- Node7&#45;&gt;Node8 -->
<g id="edge7" class="edge"><title>Node7&#45;&gt;Node8</title>
<path fill="none" stroke="midnightblue" d="M456.256,-190.5C467.1,-190.5 478.477,-190.5 489.392,-190.5"/>
<polygon fill="midnightblue" stroke="midnightblue" points="489.684,-194 499.684,-190.5 489.684,-187 489.684,-194"/>
</g>
<!-- Node9 -->
<g id="node9" class="node"><title>Node9</title>
<g id="a_node9"><a xlink:href="../../d5/d6c/namespacelime.html#adc6af0cf8e0a70f3ef09fac1244f8c48" target="_top" xlink:title="lime::ReportError">
<polygon fill="white" stroke="black" points="646,-137 646,-156 737,-156 737,-137 646,-137"/>
<text text-anchor="middle" x="691.5" y="-144" font-family="Helvetica,sans-Serif" font-size="10.00">lime::ReportError</text>
</a>
</g>
</g>
<!-- Node7&#45;&gt;Node9 -->
<g id="edge8" class="edge"><title>Node7&#45;&gt;Node9</title>
<path fill="none" stroke="midnightblue" d="M452.02,-175.383C465.003,-172.06 478.935,-168.839 492,-166.5 540.144,-157.881 595.571,-152.686 635.598,-149.759"/>
<polygon fill="midnightblue" stroke="midnightblue" points="635.958,-153.242 645.686,-149.045 635.464,-146.26 635.958,-153.242"/>
</g>
<!-- Node11 -->
<g id="node11" class="node"><title>Node11</title>
<g id="a_node11"><a xlink:href="../../de/d46/classlime_1_1LMS64CProtocol.html#ab766d6322a66164891a296359c2b9019" target="_top" xlink:title="implement in base class ">
<polygon fill="white" stroke="black" points="492,-49.5 492,-79.5 607,-79.5 607,-49.5 492,-49.5"/>
<text text-anchor="start" x="500" y="-67.5" font-family="Helvetica,sans-Serif" font-size="10.00">lime::LMS64CProtocol</text>
<text text-anchor="middle" x="549.5" y="-56.5" font-family="Helvetica,sans-Serif" font-size="10.00">::GetType</text>
</a>
</g>
</g>
<!-- Node7&#45;&gt;Node11 -->
<g id="edge10" class="edge"><title>Node7&#45;&gt;Node11</title>
<path fill="none" stroke="midnightblue" d="M410.189,-175.324C425.982,-153.817 457.433,-114.331 492,-89.5 494.49,-87.7116 497.127,-86.0109 499.849,-84.4007"/>
<polygon fill="midnightblue" stroke="midnightblue" points="501.632,-87.4156 508.751,-79.569 498.292,-81.2635 501.632,-87.4156"/>
</g>
<!-- Node12 -->
<g id="node12" class="node"><title>Node12</title>
<g id="a_node12"><a xlink:href="../../de/d46/classlime_1_1LMS64CProtocol.html#afba3d83e1e35b6e70c7171e31cc6cea3" target="_top" xlink:title="Takes generic packet and converts to specific protocol buffer. ">
<polygon fill="white" stroke="black" points="492,-0.5 492,-30.5 607,-30.5 607,-0.5 492,-0.5"/>
<text text-anchor="start" x="500" y="-18.5" font-family="Helvetica,sans-Serif" font-size="10.00">lime::LMS64CProtocol</text>
<text text-anchor="middle" x="549.5" y="-7.5" font-family="Helvetica,sans-Serif" font-size="10.00">::PreparePacket</text>
</a>
</g>
</g>
<!-- Node7&#45;&gt;Node12 -->
<g id="edge11" class="edge"><title>Node7&#45;&gt;Node12</title>
<path fill="none" stroke="midnightblue" d="M405.2,-175.072C416.998,-145.078 446.826,-78.4409 492,-39.5 493.483,-38.2214 495.045,-37.0027 496.665,-35.8419"/>
<polygon fill="midnightblue" stroke="midnightblue" points="498.559,-38.7857 505.176,-30.511 494.843,-32.8534 498.559,-38.7857"/>
</g>
<!-- Node13 -->
<g id="node13" class="node"><title>Node13</title>
<g id="a_node13"><a xlink:href="../../de/d46/classlime_1_1LMS64CProtocol.html#aa78b82a017792421b61bc6a99b4c55c0" target="_top" xlink:title="virtual write function to be implemented by the base class ">
<polygon fill="white" stroke="black" points="492,-322.5 492,-352.5 607,-352.5 607,-322.5 492,-322.5"/>
<text text-anchor="start" x="500" y="-340.5" font-family="Helvetica,sans-Serif" font-size="10.00">lime::LMS64CProtocol</text>
<text text-anchor="middle" x="549.5" y="-329.5" font-family="Helvetica,sans-Serif" font-size="10.00">::Write</text>
</a>
</g>
</g>
<!-- Node7&#45;&gt;Node13 -->
<g id="edge12" class="edge"><title>Node7&#45;&gt;Node13</title>
<path fill="none" stroke="midnightblue" d="M437.171,-205.619C444.088,-209.67 450.765,-214.603 456,-220.5 485.425,-253.645 461.171,-281.657 492,-313.5 493.042,-314.577 494.141,-315.608 495.286,-316.594"/>
<polygon fill="midnightblue" stroke="midnightblue" points="493.27,-319.456 503.422,-322.486 497.375,-313.786 493.27,-319.456"/>
</g>
<!-- Node14 -->
<g id="node14" class="node"><title>Node14</title>
<g id="a_node14"><a xlink:href="../../de/d46/classlime_1_1LMS64CProtocol.html#ab9e954443ee121eff8e1e6d4f8de3d4b" target="_top" xlink:title="virtual read function to be implemented by the base class ">
<polygon fill="white" stroke="black" points="492,-273.5 492,-303.5 607,-303.5 607,-273.5 492,-273.5"/>
<text text-anchor="start" x="500" y="-291.5" font-family="Helvetica,sans-Serif" font-size="10.00">lime::LMS64CProtocol</text>
<text text-anchor="middle" x="549.5" y="-280.5" font-family="Helvetica,sans-Serif" font-size="10.00">::Read</text>
</a>
</g>
</g>
<!-- Node7&#45;&gt;Node14 -->
<g id="edge13" class="edge"><title>Node7&#45;&gt;Node14</title>
<path fill="none" stroke="midnightblue" d="M433.152,-205.556C441.034,-209.826 449.128,-214.868 456,-220.5 475.542,-236.517 471.785,-249.342 492,-264.5 493.801,-265.851 495.69,-267.142 497.639,-268.374"/>
<polygon fill="midnightblue" stroke="midnightblue" points="496.069,-271.507 506.493,-273.402 499.526,-265.42 496.069,-271.507"/>
</g>
<!-- Node15 -->
<g id="node15" class="node"><title>Node15</title>
<g id="a_node15"><a xlink:href="../../de/d46/classlime_1_1LMS64CProtocol.html#a5f902d9f4553498a6035f767d1d9e880" target="_top" xlink:title="Parses given data buffer into generic packet. ">
<polygon fill="white" stroke="black" points="492,-224.5 492,-254.5 607,-254.5 607,-224.5 492,-224.5"/>
<text text-anchor="start" x="500" y="-242.5" font-family="Helvetica,sans-Serif" font-size="10.00">lime::LMS64CProtocol</text>
<text text-anchor="middle" x="549.5" y="-231.5" font-family="Helvetica,sans-Serif" font-size="10.00">::ParsePacket</text>
</a>
</g>
</g>
<!-- Node7&#45;&gt;Node15 -->
<g id="edge14" class="edge"><title>Node7&#45;&gt;Node15</title>
<path fill="none" stroke="midnightblue" d="M445.421,-205.601C460.503,-210.562 477.428,-216.127 493.136,-221.293"/>
<polygon fill="midnightblue" stroke="midnightblue" points="492.138,-224.649 502.731,-224.448 494.325,-218 492.138,-224.649"/>
</g>
<!-- Node16 -->
<g id="node16" class="node"><title>Node16</title>
<g id="a_node16"><a xlink:href="../../d2/d65/LMS64CProtocol_8cpp.html#af62b1cc795d9086a8ad8d7164b0cad8b" target="_top" xlink:title="convertStatus">
<polygon fill="white" stroke="black" points="511,-99 511,-118 588,-118 588,-99 511,-99"/>
<text text-anchor="middle" x="549.5" y="-106" font-family="Helvetica,sans-Serif" font-size="10.00">convertStatus</text>
</a>
</g>
</g>
<!-- Node7&#45;&gt;Node16 -->
<g id="edge15" class="edge"><title>Node7&#45;&gt;Node16</title>
<path fill="none" stroke="midnightblue" d="M421.347,-175.419C439.733,-163.069 466.96,-145.564 492,-132.5 499.109,-128.791 506.919,-125.19 514.404,-121.952"/>
<polygon fill="midnightblue" stroke="midnightblue" points="515.777,-125.172 523.635,-118.066 513.06,-118.721 515.777,-125.172"/>
</g>
<!-- Node10 -->
<g id="node10" class="node"><title>Node10</title>
<g id="a_node10"><a xlink:href="../../d9/df5/Logger_8cpp.html#ada38bf01d6d691de953ed69268ea6516" target="_top" xlink:title="errToStr">
<polygon fill="white" stroke="black" points="776,-137 776,-156 828,-156 828,-137 776,-137"/>
<text text-anchor="middle" x="802" y="-144" font-family="Helvetica,sans-Serif" font-size="10.00">errToStr</text>
</a>
</g>
</g>
<!-- Node9&#45;&gt;Node10 -->
<g id="edge9" class="edge"><title>Node9&#45;&gt;Node10</title>
<path fill="none" stroke="midnightblue" d="M737.258,-146.5C746.74,-146.5 756.621,-146.5 765.694,-146.5"/>
<polygon fill="midnightblue" stroke="midnightblue" points="765.901,-150 775.901,-146.5 765.901,-143 765.901,-150"/>
</g>
<!-- Node16&#45;&gt;Node9 -->
<g id="edge16" class="edge"><title>Node16&#45;&gt;Node9</title>
<path fill="none" stroke="midnightblue" d="M585.828,-118.089C603.901,-122.994 626.098,-129.02 645.395,-134.257"/>
<polygon fill="midnightblue" stroke="midnightblue" points="644.616,-137.672 655.183,-136.914 646.449,-130.917 644.616,-137.672"/>
</g>
<!-- Node17 -->
<g id="node17" class="node"><title>Node17</title>
<g id="a_node17"><a xlink:href="../../d5/d6c/namespacelime.html#ad336711d447db6515582bd4de9a6b30c" target="_top" xlink:title="lime::status2string">
<polygon fill="white" stroke="black" points="643,-99 643,-118 740,-118 740,-99 643,-99"/>
<text text-anchor="middle" x="691.5" y="-106" font-family="Helvetica,sans-Serif" font-size="10.00">lime::status2string</text>
</a>
</g>
</g>
<!-- Node16&#45;&gt;Node17 -->
<g id="edge17" class="edge"><title>Node16&#45;&gt;Node17</title>
<path fill="none" stroke="midnightblue" d="M588.017,-108.5C601.706,-108.5 617.523,-108.5 632.573,-108.5"/>
<polygon fill="midnightblue" stroke="midnightblue" points="632.834,-112 642.834,-108.5 632.834,-105 632.834,-112"/>
</g>
<!-- Node18&#45;&gt;Node5 -->
<g id="edge19" class="edge"><title>Node18&#45;&gt;Node5</title>
<path fill="none" stroke="midnightblue" d="M280.93,-205.601C306.706,-213.097 337.238,-221.976 360.588,-228.766"/>
<polygon fill="midnightblue" stroke="midnightblue" points="359.864,-232.2 370.444,-231.632 361.819,-225.479 359.864,-232.2"/>
</g>
<!-- Node18&#45;&gt;Node7 -->
<g id="edge20" class="edge"><title>Node18&#45;&gt;Node7</title>
<path fill="none" stroke="midnightblue" d="M285.577,-190.5C300.025,-190.5 315.696,-190.5 330.608,-190.5"/>
<polygon fill="midnightblue" stroke="midnightblue" points="330.786,-194 340.786,-190.5 330.786,-187 330.786,-194"/>
</g>
</g>
</svg>
