<?xml version="1.0" encoding="UTF-8" standalone="no"?>
<!DOCTYPE svg PUBLIC "-//W3C//DTD SVG 1.1//EN"
 "http://www.w3.org/Graphics/SVG/1.1/DTD/svg11.dtd">
<!-- Generated by graphviz version 2.38.0 (20140413.2041)
 -->
<!-- Title: fftviewer_frFFTviewer::OnUpdateStats Pages: 1 -->
<svg width="665pt" height="97pt"
 viewBox="0.00 0.00 665.00 96.50" xmlns="http://www.w3.org/2000/svg" xmlns:xlink="http://www.w3.org/1999/xlink">
<g id="graph0" class="graph" transform="scale(1 1) rotate(0) translate(4 92.5)">
<title>fftviewer_frFFTviewer::OnUpdateStats</title>
<polygon fill="white" stroke="none" points="-4,4 -4,-92.5 661,-92.5 661,4 -4,4"/>
<!-- Node1 -->
<g id="node1" class="node"><title>Node1</title>
<polygon fill="#bfbfbf" stroke="black" points="0,-22.5 0,-52.5 112,-52.5 112,-22.5 0,-22.5"/>
<text text-anchor="start" x="8" y="-40.5" font-family="Helvetica,sans-Serif" font-size="10.00">fftviewer_frFFTviewer</text>
<text text-anchor="middle" x="56" y="-29.5" font-family="Helvetica,sans-Serif" font-size="10.00">::OnUpdateStats</text>
</g>
<!-- Node2 -->
<g id="node2" class="node"><title>Node2</title>
<g id="a_node2"><a xlink:href="../../df/de1/lms7__api_8cpp.html#a3fb6de3c631d876585f137ca3c03a7d9" target="_top" xlink:title="LMS_GetStreamStatus">
<polygon fill="white" stroke="black" points="148,-50 148,-69 266,-69 266,-50 148,-50"/>
<text text-anchor="middle" x="207" y="-57" font-family="Helvetica,sans-Serif" font-size="10.00">LMS_GetStreamStatus</text>
</a>
</g>
</g>
<!-- Node1&#45;&gt;Node2 -->
<g id="edge1" class="edge"><title>Node1&#45;&gt;Node2</title>
<path fill="none" stroke="midnightblue" d="M112.059,-45.6295C120.46,-46.8699 129.216,-48.1628 137.857,-49.4386"/>
<polygon fill="midnightblue" stroke="midnightblue" points="137.516,-52.9262 147.92,-50.9245 138.539,-46.0012 137.516,-52.9262"/>
</g>
<!-- Node7 -->
<g id="node7" class="node"><title>Node7</title>
<g id="a_node7"><a xlink:href="../../d5/d45/classfftviewer__frFFTviewer.html#a1d763f3a32518b5aa70547942047f7b0" target="_top" xlink:title="fftviewer_frFFTviewer\l::printDataRate">
<polygon fill="white" stroke="black" points="151,-0.5 151,-30.5 263,-30.5 263,-0.5 151,-0.5"/>
<text text-anchor="start" x="159" y="-18.5" font-family="Helvetica,sans-Serif" font-size="10.00">fftviewer_frFFTviewer</text>
<text text-anchor="middle" x="207" y="-7.5" font-family="Helvetica,sans-Serif" font-size="10.00">::printDataRate</text>
</a>
</g>
</g>
<!-- Node1&#45;&gt;Node7 -->
<g id="edge6" class="edge"><title>Node1&#45;&gt;Node7</title>
<path fill="none" stroke="midnightblue" d="M112.059,-29.3705C121.312,-28.0042 130.996,-26.5744 140.483,-25.1736"/>
<polygon fill="midnightblue" stroke="midnightblue" points="141.289,-28.5927 150.67,-23.6695 140.266,-21.6678 141.289,-28.5927"/>
</g>
<!-- Node3 -->
<g id="node3" class="node"><title>Node3</title>
<g id="a_node3"><a xlink:href="../../d7/db1/classlime_1_1StreamChannel.html#a2ea4a93bd038ff583821bc451fa91260" target="_top" xlink:title="lime::StreamChannel\l::GetInfo">
<polygon fill="white" stroke="black" points="302,-44.5 302,-74.5 410,-74.5 410,-44.5 302,-44.5"/>
<text text-anchor="start" x="310" y="-62.5" font-family="Helvetica,sans-Serif" font-size="10.00">lime::StreamChannel</text>
<text text-anchor="middle" x="356" y="-51.5" font-family="Helvetica,sans-Serif" font-size="10.00">::GetInfo</text>
</a>
</g>
</g>
<!-- Node2&#45;&gt;Node3 -->
<g id="edge2" class="edge"><title>Node2&#45;&gt;Node3</title>
<path fill="none" stroke="midnightblue" d="M266.098,-59.5C274.428,-59.5 283.034,-59.5 291.463,-59.5"/>
<polygon fill="midnightblue" stroke="midnightblue" points="291.624,-63.0001 301.624,-59.5 291.624,-56.0001 291.624,-63.0001"/>
</g>
<!-- Node4 -->
<g id="node4" class="node"><title>Node4</title>
<g id="a_node4"><a xlink:href="../../d5/d6c/namespacelime.html#af0395b1ab55d42fb76210f0cd9a44a6f" target="_top" xlink:title="Log an information message with formatting. ">
<polygon fill="white" stroke="black" points="479,-69 479,-88 535,-88 535,-69 479,-69"/>
<text text-anchor="middle" x="507" y="-76" font-family="Helvetica,sans-Serif" font-size="10.00">lime::info</text>
</a>
</g>
</g>
<!-- Node3&#45;&gt;Node4 -->
<g id="edge3" class="edge"><title>Node3&#45;&gt;Node4</title>
<path fill="none" stroke="midnightblue" d="M410.372,-66.3058C429.777,-68.7803 451.268,-71.5207 468.953,-73.7758"/>
<polygon fill="midnightblue" stroke="midnightblue" points="468.518,-77.2487 478.881,-75.0419 469.404,-70.305 468.518,-77.2487"/>
</g>
<!-- Node6 -->
<g id="node6" class="node"><title>Node6</title>
<g id="a_node6"><a xlink:href="../../d2/d97/classlime_1_1RingFIFO.html#ae561a1a581ee1a5ceff5cfe2dbe8d721" target="_top" xlink:title="Returns information about FIFO size and fullness. ">
<polygon fill="white" stroke="black" points="446,-31 446,-50 568,-50 568,-31 446,-31"/>
<text text-anchor="middle" x="507" y="-38" font-family="Helvetica,sans-Serif" font-size="10.00">lime::RingFIFO::GetInfo</text>
</a>
</g>
</g>
<!-- Node3&#45;&gt;Node6 -->
<g id="edge5" class="edge"><title>Node3&#45;&gt;Node6</title>
<path fill="none" stroke="midnightblue" d="M410.372,-52.6942C418.654,-51.6381 427.316,-50.5335 435.901,-49.4388"/>
<polygon fill="midnightblue" stroke="midnightblue" points="436.437,-52.8988 445.914,-48.1619 435.552,-45.9551 436.437,-52.8988"/>
</g>
<!-- Node5 -->
<g id="node5" class="node"><title>Node5</title>
<g id="a_node5"><a xlink:href="../../d5/d6c/namespacelime.html#abec841ac666fc9321a10e1881cff2da0" target="_top" xlink:title="Log a message with formatting and specified logging level. ">
<polygon fill="white" stroke="black" points="604,-69 604,-88 657,-88 657,-69 604,-69"/>
<text text-anchor="middle" x="630.5" y="-76" font-family="Helvetica,sans-Serif" font-size="10.00">lime::log</text>
</a>
</g>
</g>
<!-- Node4&#45;&gt;Node5 -->
<g id="edge4" class="edge"><title>Node4&#45;&gt;Node5</title>
<path fill="none" stroke="midnightblue" d="M535.267,-78.5C552.542,-78.5 575.071,-78.5 593.769,-78.5"/>
<polygon fill="midnightblue" stroke="midnightblue" points="593.985,-82.0001 603.985,-78.5 593.984,-75.0001 593.985,-82.0001"/>
</g>
</g>
</svg>
