<?xml version="1.0" encoding="UTF-8" standalone="no"?>
<!DOCTYPE svg PUBLIC "-//W3C//DTD SVG 1.1//EN"
 "http://www.w3.org/Graphics/SVG/1.1/DTD/svg11.dtd">
<!-- Generated by graphviz version 2.38.0 (20140413.2041)
 -->
<!-- Title: fftviewer_frFFTviewer::OnFmtChange Pages: 1 -->
<svg width="717pt" height="66pt"
 viewBox="0.00 0.00 717.00 66.00" xmlns="http://www.w3.org/2000/svg" xmlns:xlink="http://www.w3.org/1999/xlink">
<g id="graph0" class="graph" transform="scale(1 1) rotate(0) translate(4 62)">
<title>fftviewer_frFFTviewer::OnFmtChange</title>
<polygon fill="white" stroke="none" points="-4,4 -4,-62 713,-62 713,4 -4,4"/>
<!-- Node1 -->
<g id="node1" class="node"><title>Node1</title>
<polygon fill="#bfbfbf" stroke="black" points="0,-14 0,-44 112,-44 112,-14 0,-14"/>
<text text-anchor="start" x="8" y="-32" font-family="Helvetica,sans-Serif" font-size="10.00">fftviewer_frFFTviewer</text>
<text text-anchor="middle" x="56" y="-21" font-family="Helvetica,sans-Serif" font-size="10.00">::OnFmtChange</text>
</g>
<!-- Node2 -->
<g id="node2" class="node"><title>Node2</title>
<g id="a_node2"><a xlink:href="../../d9/d73/classOpenGLGraph.html#a282b526993b3d03b772574797f844c85" target="_top" xlink:title="Sets initialy displayed data area, when resetting zoom it will be reset to this area. ">
<polygon fill="white" stroke="black" points="148,-19.5 148,-38.5 324,-38.5 324,-19.5 148,-19.5"/>
<text text-anchor="middle" x="236" y="-26.5" font-family="Helvetica,sans-Serif" font-size="10.00">OpenGLGraph::SetInitialDisplayArea</text>
</a>
</g>
</g>
<!-- Node1&#45;&gt;Node2 -->
<g id="edge1" class="edge"><title>Node1&#45;&gt;Node2</title>
<path fill="none" stroke="midnightblue" d="M112.345,-29C120.487,-29 129.069,-29 137.758,-29"/>
<polygon fill="midnightblue" stroke="midnightblue" points="137.986,-32.5001 147.986,-29 137.986,-25.5001 137.986,-32.5001"/>
</g>
<!-- Node3 -->
<g id="node3" class="node"><title>Node3</title>
<g id="a_node3"><a xlink:href="../../d3/dc3/structsRect.html#a4b8858359827610b4d8d0cec1a073fe9" target="_top" xlink:title="sRect::set">
<polygon fill="white" stroke="black" points="598,-38.5 598,-57.5 660,-57.5 660,-38.5 598,-38.5"/>
<text text-anchor="middle" x="629" y="-45.5" font-family="Helvetica,sans-Serif" font-size="10.00">sRect::set</text>
</a>
</g>
</g>
<!-- Node2&#45;&gt;Node3 -->
<g id="edge2" class="edge"><title>Node2&#45;&gt;Node3</title>
<path fill="none" stroke="midnightblue" d="M324.261,-33.2403C406.388,-37.2311 525.726,-43.0302 587.524,-46.0331"/>
<polygon fill="midnightblue" stroke="midnightblue" points="587.495,-49.5358 597.653,-46.5253 587.835,-42.544 587.495,-49.5358"/>
</g>
<!-- Node4 -->
<g id="node4" class="node"><title>Node4</title>
<g id="a_node4"><a xlink:href="../../d9/d73/classOpenGLGraph.html#a16dcd6f9fd24aed2b3c2b18ba0fa75ab" target="_top" xlink:title="Sets visible area. ">
<polygon fill="white" stroke="black" points="360,-0.5 360,-19.5 513,-19.5 513,-0.5 360,-0.5"/>
<text text-anchor="middle" x="436.5" y="-7.5" font-family="Helvetica,sans-Serif" font-size="10.00">OpenGLGraph::SetDisplayArea</text>
</a>
</g>
</g>
<!-- Node2&#45;&gt;Node4 -->
<g id="edge3" class="edge"><title>Node2&#45;&gt;Node4</title>
<path fill="none" stroke="midnightblue" d="M324.065,-20.6663C332.508,-19.8582 341.07,-19.0387 349.502,-18.2316"/>
<polygon fill="midnightblue" stroke="midnightblue" points="350.085,-21.6919 359.706,-17.2549 349.418,-14.7237 350.085,-21.6919"/>
</g>
<!-- Node4&#45;&gt;Node3 -->
<g id="edge4" class="edge"><title>Node4&#45;&gt;Node3</title>
<path fill="none" stroke="midnightblue" d="M485.571,-19.589C517.122,-25.8827 557.914,-34.0195 587.751,-39.9713"/>
<polygon fill="midnightblue" stroke="midnightblue" points="587.323,-43.4549 597.815,-41.9788 588.693,-36.5901 587.323,-43.4549"/>
</g>
<!-- Node5 -->
<g id="node5" class="node"><title>Node5</title>
<g id="a_node5"><a xlink:href="../../d9/d73/classOpenGLGraph.html#a13a5c28c2a88a3e2bb788744aa2bdb66" target="_top" xlink:title="Signals that settings have changed and needs to be reevaluated. ">
<polygon fill="white" stroke="black" points="549,-0.5 549,-19.5 709,-19.5 709,-0.5 549,-0.5"/>
<text text-anchor="middle" x="629" y="-7.5" font-family="Helvetica,sans-Serif" font-size="10.00">OpenGLGraph::SettingsChanged</text>
</a>
</g>
</g>
<!-- Node4&#45;&gt;Node5 -->
<g id="edge5" class="edge"><title>Node4&#45;&gt;Node5</title>
<path fill="none" stroke="midnightblue" d="M513.064,-10C521.501,-10 530.154,-10 538.741,-10"/>
<polygon fill="midnightblue" stroke="midnightblue" points="538.775,-13.5001 548.775,-10 538.775,-6.5001 538.775,-13.5001"/>
</g>
</g>
</svg>
