<?xml version="1.0" encoding="UTF-8" standalone="no"?>
<!DOCTYPE svg PUBLIC "-//W3C//DTD SVG 1.1//EN"
 "http://www.w3.org/Graphics/SVG/1.1/DTD/svg11.dtd">
<!-- Generated by graphviz version 2.38.0 (20140413.2041)
 -->
<!-- Title: /home/erik/prefix/default/src/limesuite&#45;dev/src/LMS_Programing/LMS_Programing_wxgui.cpp Pages: 1 -->
<!--zoomable 285 -->
<svg id="main" version="1.1" xmlns="http://www.w3.org/2000/svg" xmlns:xlink="http://www.w3.org/1999/xlink" xml:space="preserve" onload="init(evt)">
<style type="text/css"><![CDATA[
.edge:hover path { stroke: red; }
.edge:hover polygon { stroke: red; fill: red; }
]]></style>
<script type="text/javascript"><![CDATA[
var edges = document.getElementsByTagName('g');
if (edges && edges.length) {
  for (var i=0;i<edges.length;i++) {
    if (edges[i].id.substr(0,4)=='edge') {
      edges[i].setAttribute('class','edge');
    }
  }
}
]]></script>
        <defs>
                <circle id="rim" cx="0" cy="0" r="7"/>
                <circle id="rim2" cx="0" cy="0" r="3.5"/>
                <g id="zoomPlus">
                        <use xlink:href="#rim" fill="#404040">
                                <set attributeName="fill" to="#808080" begin="zoomplus.mouseover" end="zoomplus.mouseout"/>
                        </use>
                        <path d="M-4,0h8M0,-4v8" fill="none" stroke="white" stroke-width="1.5" pointer-events="none"/>
                </g>
                <g id="zoomMin">
                        <use xlink:href="#rim" fill="#404040">
                                <set attributeName="fill" to="#808080" begin="zoomminus.mouseover" end="zoomminus.mouseout"/>
                        </use>
                        <path d="M-4,0h8" fill="none" stroke="white" stroke-width="1.5" pointer-events="none"/>
                </g>
                <g id="dirArrow">
                        <path fill="none" stroke="white" stroke-width="1.5" d="M0,-3.0v7 M-2.5,-0.5L0,-3.0L2.5,-0.5"/>
                </g>
               <g id="resetDef">
                       <use xlink:href="#rim2" fill="#404040">
                               <set attributeName="fill" to="#808080" begin="reset.mouseover" end="reset.mouseout"/>
                       </use>
               </g>
        </defs>

<script type="text/javascript">
var viewWidth = 1165;
var viewHeight = 285;
var sectionId = 'dynsection-0';
</script>
<script xlink:href="../../svgpan.js"/>
<svg id="graph" class="graph">
<g id="viewport">
<title>/home/erik/prefix/default/src/limesuite&#45;dev/src/LMS_Programing/LMS_Programing_wxgui.cpp</title>
<polygon fill="white" stroke="none" points="-4,4 -4,-281 1160.5,-281 1160.5,4 -4,4"/>
<!-- Node1 -->
<g id="node1" class="node"><title>Node1</title>
<polygon fill="#bfbfbf" stroke="black" points="584,-224.5 584,-276.5 757,-276.5 757,-224.5 584,-224.5"/>
<text text-anchor="start" x="592" y="-264.5" font-family="Helvetica,sans-Serif" font-size="10.00">/home/erik/prefix/default</text>
<text text-anchor="start" x="592" y="-253.5" font-family="Helvetica,sans-Serif" font-size="10.00">/src/limesuite&#45;dev/src</text>
<text text-anchor="start" x="592" y="-242.5" font-family="Helvetica,sans-Serif" font-size="10.00">/LMS_Programing/LMS_Programing</text>
<text text-anchor="middle" x="670.5" y="-231.5" font-family="Helvetica,sans-Serif" font-size="10.00">_wxgui.cpp</text>
</g>
<!-- Node2 -->
<g id="node2" class="node"><title>Node2</title>
<g id="a_node2"><a xlink:href="../../d6/d0c/LMS__Programing__wxgui_8h.html" target="_top" xlink:title="LMS_Programing_wxgui.h">
<polygon fill="white" stroke="black" points="142,-168.5 142,-187.5 273,-187.5 273,-168.5 142,-168.5"/>
<text text-anchor="middle" x="207.5" y="-175.5" font-family="Helvetica,sans-Serif" font-size="10.00">LMS_Programing_wxgui.h</text>
</a>
</g>
</g>
<!-- Node1&#45;&gt;Node2 -->
<g id="edge1" class="edge"><title>Node1&#45;&gt;Node2</title>
<path fill="none" stroke="midnightblue" d="M583.956,-236.322C493.973,-222.621 355.096,-201.474 273.559,-189.059"/>
<polygon fill="midnightblue" stroke="midnightblue" points="273.833,-185.56 263.42,-187.515 272.779,-192.48 273.833,-185.56"/>
</g>
<!-- Node11 -->
<g id="node11" class="node"><title>Node11</title>
<polygon fill="white" stroke="#bfbfbf" points="291.5,-168.5 291.5,-187.5 353.5,-187.5 353.5,-168.5 291.5,-168.5"/>
<text text-anchor="middle" x="322.5" y="-175.5" font-family="Helvetica,sans-Serif" font-size="10.00">wx/sizer.h</text>
</g>
<!-- Node1&#45;&gt;Node11 -->
<g id="edge10" class="edge"><title>Node1&#45;&gt;Node11</title>
<path fill="none" stroke="midnightblue" d="M583.759,-232.762C524.518,-221.195 443.97,-205.202 364.162,-188.318"/>
<polygon fill="midnightblue" stroke="midnightblue" points="364.436,-184.798 353.927,-186.147 362.983,-191.646 364.436,-184.798"/>
</g>
<!-- Node12 -->
<g id="node12" class="node"><title>Node12</title>
<polygon fill="white" stroke="#bfbfbf" points="371.5,-168.5 371.5,-187.5 445.5,-187.5 445.5,-168.5 371.5,-168.5"/>
<text text-anchor="middle" x="408.5" y="-175.5" font-family="Helvetica,sans-Serif" font-size="10.00">wx/stattext.h</text>
</g>
<!-- Node1&#45;&gt;Node12 -->
<g id="edge11" class="edge"><title>Node1&#45;&gt;Node12</title>
<path fill="none" stroke="midnightblue" d="M583.985,-226.22C539.082,-214.137 486.265,-199.925 450.393,-190.273"/>
<polygon fill="midnightblue" stroke="midnightblue" points="450.856,-186.773 440.29,-187.554 449.037,-193.532 450.856,-186.773"/>
</g>
<!-- Node13 -->
<g id="node13" class="node"><title>Node13</title>
<polygon fill="white" stroke="#bfbfbf" points="464,-168.5 464,-187.5 533,-187.5 533,-168.5 464,-168.5"/>
<text text-anchor="middle" x="498.5" y="-175.5" font-family="Helvetica,sans-Serif" font-size="10.00">wx/choice.h</text>
</g>
<!-- Node1&#45;&gt;Node13 -->
<g id="edge12" class="edge"><title>Node1&#45;&gt;Node13</title>
<path fill="none" stroke="midnightblue" d="M609.375,-224.446C581.955,-213.207 550.843,-200.455 528.57,-191.325"/>
<polygon fill="midnightblue" stroke="midnightblue" points="529.884,-188.081 519.303,-187.527 527.229,-194.558 529.884,-188.081"/>
</g>
<!-- Node14 -->
<g id="node14" class="node"><title>Node14</title>
<polygon fill="white" stroke="#bfbfbf" points="551.5,-168.5 551.5,-187.5 619.5,-187.5 619.5,-168.5 551.5,-168.5"/>
<text text-anchor="middle" x="585.5" y="-175.5" font-family="Helvetica,sans-Serif" font-size="10.00">wx/button.h</text>
</g>
<!-- Node1&#45;&gt;Node14 -->
<g id="edge13" class="edge"><title>Node1&#45;&gt;Node14</title>
<path fill="none" stroke="midnightblue" d="M640.293,-224.446C628.094,-214.328 614.416,-202.983 603.778,-194.16"/>
<polygon fill="midnightblue" stroke="midnightblue" points="605.915,-191.386 595.984,-187.695 601.447,-196.774 605.915,-191.386"/>
</g>
<!-- Node15 -->
<g id="node15" class="node"><title>Node15</title>
<polygon fill="white" stroke="#bfbfbf" points="638,-168.5 638,-187.5 703,-187.5 703,-168.5 638,-168.5"/>
<text text-anchor="middle" x="670.5" y="-175.5" font-family="Helvetica,sans-Serif" font-size="10.00">wx/string.h</text>
</g>
<!-- Node1&#45;&gt;Node15 -->
<g id="edge14" class="edge"><title>Node1&#45;&gt;Node15</title>
<path fill="none" stroke="midnightblue" d="M670.5,-224.446C670.5,-215.73 670.5,-206.104 670.5,-197.964"/>
<polygon fill="midnightblue" stroke="midnightblue" points="674,-197.695 670.5,-187.695 667,-197.696 674,-197.695"/>
</g>
<!-- Node16 -->
<g id="node16" class="node"><title>Node16</title>
<polygon fill="white" stroke="#bfbfbf" points="721,-168.5 721,-187.5 788,-187.5 788,-168.5 721,-168.5"/>
<text text-anchor="middle" x="754.5" y="-175.5" font-family="Helvetica,sans-Serif" font-size="10.00">wx/gauge.h</text>
</g>
<!-- Node1&#45;&gt;Node16 -->
<g id="edge15" class="edge"><title>Node1&#45;&gt;Node16</title>
<path fill="none" stroke="midnightblue" d="M700.352,-224.446C712.408,-214.328 725.924,-202.983 736.438,-194.16"/>
<polygon fill="midnightblue" stroke="midnightblue" points="738.73,-196.805 744.139,-187.695 734.23,-191.443 738.73,-196.805"/>
</g>
<!-- Node17 -->
<g id="node17" class="node"><title>Node17</title>
<polygon fill="white" stroke="#bfbfbf" points="806.5,-168.5 806.5,-187.5 872.5,-187.5 872.5,-168.5 806.5,-168.5"/>
<text text-anchor="middle" x="839.5" y="-175.5" font-family="Helvetica,sans-Serif" font-size="10.00">wx/filedlg.h</text>
</g>
<!-- Node1&#45;&gt;Node17 -->
<g id="edge16" class="edge"><title>Node1&#45;&gt;Node17</title>
<path fill="none" stroke="midnightblue" d="M730.559,-224.446C757.38,-213.257 787.796,-200.569 809.659,-191.448"/>
<polygon fill="midnightblue" stroke="midnightblue" points="811.178,-194.607 819.059,-187.527 808.483,-188.147 811.178,-194.607"/>
</g>
<!-- Node18 -->
<g id="node18" class="node"><title>Node18</title>
<polygon fill="white" stroke="#bfbfbf" points="890.5,-168.5 890.5,-187.5 962.5,-187.5 962.5,-168.5 890.5,-168.5"/>
<text text-anchor="middle" x="926.5" y="-175.5" font-family="Helvetica,sans-Serif" font-size="10.00">wx/msgdlg.h</text>
</g>
<!-- Node1&#45;&gt;Node18 -->
<g id="edge17" class="edge"><title>Node1&#45;&gt;Node18</title>
<path fill="none" stroke="midnightblue" d="M757.17,-225.632C800.605,-213.67 851.153,-199.75 885.637,-190.253"/>
<polygon fill="midnightblue" stroke="midnightblue" points="886.646,-193.606 895.357,-187.576 884.787,-186.857 886.646,-193.606"/>
</g>
<!-- Node19 -->
<g id="node19" class="node"><title>Node19</title>
<polygon fill="white" stroke="#bfbfbf" points="981,-168.5 981,-187.5 1062,-187.5 1062,-168.5 981,-168.5"/>
<text text-anchor="middle" x="1021.5" y="-175.5" font-family="Helvetica,sans-Serif" font-size="10.00">wx/wfstream.h</text>
</g>
<!-- Node1&#45;&gt;Node19 -->
<g id="edge18" class="edge"><title>Node1&#45;&gt;Node19</title>
<path fill="none" stroke="midnightblue" d="M757.264,-232.073C824.345,-218.599 914.899,-200.411 970.687,-189.206"/>
<polygon fill="midnightblue" stroke="midnightblue" points="971.571,-192.598 980.686,-187.198 970.193,-185.735 971.571,-192.598"/>
</g>
<!-- Node20 -->
<g id="node20" class="node"><title>Node20</title>
<g id="a_node20"><a xlink:href="../../d8/df2/LMSBoards_8h.html" target="_top" xlink:title="enumerations of available LMS7002M hardware ">
<polygon fill="white" stroke="black" points="1080.5,-168.5 1080.5,-187.5 1156.5,-187.5 1156.5,-168.5 1080.5,-168.5"/>
<text text-anchor="middle" x="1118.5" y="-175.5" font-family="Helvetica,sans-Serif" font-size="10.00">LMSBoards.h</text>
</a>
</g>
</g>
<!-- Node1&#45;&gt;Node20 -->
<g id="edge19" class="edge"><title>Node1&#45;&gt;Node20</title>
<path fill="none" stroke="midnightblue" d="M757.086,-237.166C836.1,-225.692 956.352,-207.689 1070.35,-188.149"/>
<polygon fill="midnightblue" stroke="midnightblue" points="1071.04,-191.582 1080.3,-186.437 1069.85,-184.684 1071.04,-191.582"/>
</g>
<!-- Node3 -->
<g id="node3" class="node"><title>Node3</title>
<polygon fill="white" stroke="#bfbfbf" points="0,-112.5 0,-131.5 65,-131.5 65,-112.5 0,-112.5"/>
<text text-anchor="middle" x="32.5" y="-119.5" font-family="Helvetica,sans-Serif" font-size="10.00">wx/frame.h</text>
</g>
<!-- Node2&#45;&gt;Node3 -->
<g id="edge2" class="edge"><title>Node2&#45;&gt;Node3</title>
<path fill="none" stroke="midnightblue" d="M179.771,-168.444C150.074,-159.28 102.784,-144.688 69.8307,-134.519"/>
<polygon fill="midnightblue" stroke="midnightblue" points="70.687,-131.121 60.0995,-131.516 68.623,-137.809 70.687,-131.121"/>
</g>
<!-- Node4 -->
<g id="node4" class="node"><title>Node4</title>
<polygon fill="white" stroke="#bfbfbf" points="83,-112.5 83,-131.5 136,-131.5 136,-112.5 83,-112.5"/>
<text text-anchor="middle" x="109.5" y="-119.5" font-family="Helvetica,sans-Serif" font-size="10.00">wx/wx.h</text>
</g>
<!-- Node2&#45;&gt;Node4 -->
<g id="edge3" class="edge"><title>Node2&#45;&gt;Node4</title>
<path fill="none" stroke="midnightblue" d="M191.755,-168.324C176.181,-159.743 152.123,-146.486 134.041,-136.522"/>
<polygon fill="midnightblue" stroke="midnightblue" points="135.654,-133.415 125.206,-131.655 132.276,-139.546 135.654,-133.415"/>
</g>
<!-- Node5 -->
<g id="node5" class="node"><title>Node5</title>
<polygon fill="white" stroke="#bfbfbf" points="154.5,-112.5 154.5,-131.5 198.5,-131.5 198.5,-112.5 154.5,-112.5"/>
<text text-anchor="middle" x="176.5" y="-119.5" font-family="Helvetica,sans-Serif" font-size="10.00">thread</text>
</g>
<!-- Node2&#45;&gt;Node5 -->
<g id="edge4" class="edge"><title>Node2&#45;&gt;Node5</title>
<path fill="none" stroke="midnightblue" d="M202.381,-168.083C198.092,-160.613 191.842,-149.724 186.558,-140.52"/>
<polygon fill="midnightblue" stroke="midnightblue" points="189.538,-138.681 181.524,-131.751 183.467,-142.166 189.538,-138.681"/>
</g>
<!-- Node6 -->
<g id="node6" class="node"><title>Node6</title>
<polygon fill="white" stroke="#bfbfbf" points="216.5,-112.5 216.5,-131.5 262.5,-131.5 262.5,-112.5 216.5,-112.5"/>
<text text-anchor="middle" x="239.5" y="-119.5" font-family="Helvetica,sans-Serif" font-size="10.00">atomic</text>
</g>
<!-- Node2&#45;&gt;Node6 -->
<g id="edge5" class="edge"><title>Node2&#45;&gt;Node6</title>
<path fill="none" stroke="midnightblue" d="M212.784,-168.083C217.211,-160.613 223.663,-149.724 229.118,-140.52"/>
<polygon fill="midnightblue" stroke="midnightblue" points="232.227,-142.138 234.314,-131.751 226.205,-138.57 232.227,-142.138"/>
</g>
<!-- Node7 -->
<g id="node7" class="node"><title>Node7</title>
<polygon fill="white" stroke="#bfbfbf" points="280.5,-112.5 280.5,-131.5 324.5,-131.5 324.5,-112.5 280.5,-112.5"/>
<text text-anchor="middle" x="302.5" y="-119.5" font-family="Helvetica,sans-Serif" font-size="10.00">vector</text>
</g>
<!-- Node2&#45;&gt;Node7 -->
<g id="edge6" class="edge"><title>Node2&#45;&gt;Node7</title>
<path fill="none" stroke="midnightblue" d="M222.763,-168.324C237.721,-159.822 260.755,-146.729 278.227,-136.797"/>
<polygon fill="midnightblue" stroke="midnightblue" points="280.31,-139.639 287.274,-131.655 276.851,-133.553 280.31,-139.639"/>
</g>
<!-- Node8 -->
<g id="node8" class="node"><title>Node8</title>
<g id="a_node8"><a xlink:href="../../d5/d07/LimeSuite_8h.html" target="_top" xlink:title="LMS API library. ">
<polygon fill="white" stroke="black" points="342,-112.5 342,-131.5 431,-131.5 431,-112.5 342,-112.5"/>
<text text-anchor="middle" x="386.5" y="-119.5" font-family="Helvetica,sans-Serif" font-size="10.00">lime/LimeSuite.h</text>
</a>
</g>
</g>
<!-- Node2&#45;&gt;Node8 -->
<g id="edge7" class="edge"><title>Node2&#45;&gt;Node8</title>
<path fill="none" stroke="midnightblue" d="M235.863,-168.444C266.238,-159.28 314.61,-144.688 348.316,-134.519"/>
<polygon fill="midnightblue" stroke="midnightblue" points="349.707,-137.756 358.27,-131.516 347.685,-131.054 349.707,-137.756"/>
</g>
<!-- Node9 -->
<g id="node9" class="node"><title>Node9</title>
<g id="a_node9"><a xlink:href="../../d1/d2e/LMS7002M__parameters_8h.html" target="_top" xlink:title="List of LMS7002M transceiver control parameters. ">
<polygon fill="white" stroke="black" points="322.5,-56.5 322.5,-75.5 450.5,-75.5 450.5,-56.5 322.5,-56.5"/>
<text text-anchor="middle" x="386.5" y="-63.5" font-family="Helvetica,sans-Serif" font-size="10.00">LMS7002M_parameters.h</text>
</a>
</g>
</g>
<!-- Node8&#45;&gt;Node9 -->
<g id="edge8" class="edge"><title>Node8&#45;&gt;Node9</title>
<path fill="none" stroke="midnightblue" d="M386.5,-112.083C386.5,-105.006 386.5,-94.8611 386.5,-85.9865"/>
<polygon fill="midnightblue" stroke="midnightblue" points="390,-85.751 386.5,-75.7511 383,-85.7511 390,-85.751"/>
</g>
<!-- Node10 -->
<g id="node10" class="node"><title>Node10</title>
<polygon fill="white" stroke="#bfbfbf" points="362,-0.5 362,-19.5 411,-19.5 411,-0.5 362,-0.5"/>
<text text-anchor="middle" x="386.5" y="-7.5" font-family="Helvetica,sans-Serif" font-size="10.00">stdint.h</text>
</g>
<!-- Node9&#45;&gt;Node10 -->
<g id="edge9" class="edge"><title>Node9&#45;&gt;Node10</title>
<path fill="none" stroke="midnightblue" d="M386.5,-56.083C386.5,-49.0059 386.5,-38.8611 386.5,-29.9865"/>
<polygon fill="midnightblue" stroke="midnightblue" points="390,-29.751 386.5,-19.7511 383,-29.7511 390,-29.751"/>
</g>
</g>
</svg>
        <g id="navigator" transform="translate(0 0)" fill="#404254">
                <rect fill="#f2f5e9" fill-opacity="0.5" stroke="#606060" stroke-width=".5" x="0" y="0" width="60" height="60"/>
                <use id="zoomplus" xlink:href="#zoomPlus" x="17" y="9" onmousedown="handleZoom(evt,'in')"/>
                <use id="zoomminus" xlink:href="#zoomMin" x="42" y="9" onmousedown="handleZoom(evt,'out')"/>
                <use id="reset" xlink:href="#resetDef" x="30" y="36" onmousedown="handleReset()"/>
                <g id="arrowUp" xlink:href="#dirArrow" transform="translate(30 24)" onmousedown="handlePan(0,-1)">
                  <use xlink:href="#rim" fill="#404040">
                        <set attributeName="fill" to="#808080" begin="arrowUp.mouseover" end="arrowUp.mouseout"/>
                  </use>
                  <path fill="none" stroke="white" stroke-width="1.5" d="M0,-3.0v7 M-2.5,-0.5L0,-3.0L2.5,-0.5"/>
                </g>
                <g id="arrowRight" xlink:href="#dirArrow" transform="rotate(90) translate(36 -43)" onmousedown="handlePan(1,0)">
                  <use xlink:href="#rim" fill="#404040">
                        <set attributeName="fill" to="#808080" begin="arrowRight.mouseover" end="arrowRight.mouseout"/>
                  </use>
                  <path fill="none" stroke="white" stroke-width="1.5" d="M0,-3.0v7 M-2.5,-0.5L0,-3.0L2.5,-0.5"/>
                </g>
                <g id="arrowDown" xlink:href="#dirArrow" transform="rotate(180) translate(-30 -48)" onmousedown="handlePan(0,1)">
                  <use xlink:href="#rim" fill="#404040">
                        <set attributeName="fill" to="#808080" begin="arrowDown.mouseover" end="arrowDown.mouseout"/>
                  </use>
                  <path fill="none" stroke="white" stroke-width="1.5" d="M0,-3.0v7 M-2.5,-0.5L0,-3.0L2.5,-0.5"/>
                </g>
                <g id="arrowLeft" xlink:href="#dirArrow" transform="rotate(270) translate(-36 17)" onmousedown="handlePan(-1,0)">
                  <use xlink:href="#rim" fill="#404040">
                        <set attributeName="fill" to="#808080" begin="arrowLeft.mouseover" end="arrowLeft.mouseout"/>
                  </use>
                  <path fill="none" stroke="white" stroke-width="1.5" d="M0,-3.0v7 M-2.5,-0.5L0,-3.0L2.5,-0.5"/>
                </g>
        </g>
        <svg viewBox="0 0 15 15" width="100%" height="30px" preserveAspectRatio="xMaxYMin meet">
         <g id="arrow_out" transform="scale(0.3 0.3)">
          <a xlink:href="LMS__Programing__wxgui_8cpp__incl_org.svg" target="_base">
           <rect id="button" ry="5" rx="5" y="6" x="6" height="38" width="38"
                fill="#f2f5e9" fill-opacity="0.5" stroke="#606060" stroke-width="1.0"/>
           <path id="arrow"
             d="M 11.500037,31.436501 C 11.940474,20.09759 22.043105,11.32322 32.158766,21.979434 L 37.068811,17.246167 C 37.068811,17.246167 37.088388,32 37.088388,32 L 22.160133,31.978069 C 22.160133,31.978069 26.997745,27.140456 26.997745,27.140456 C 18.528582,18.264221 13.291696,25.230495 11.500037,31.436501 z"
             style="fill:#404040;"/>
          </a>
         </g>
        </svg>
</svg>
