<?xml version="1.0" encoding="UTF-8" standalone="no"?>
<!DOCTYPE svg PUBLIC "-//W3C//DTD SVG 1.1//EN"
 "http://www.w3.org/Graphics/SVG/1.1/DTD/svg11.dtd">
<!-- Generated by graphviz version 2.38.0 (20140413.2041)
 -->
<!-- Title: pnlRBB_view::OnbtnTuneFilter Pages: 1 -->
<svg width="343pt" height="66pt"
 viewBox="0.00 0.00 343.00 66.00" xmlns="http://www.w3.org/2000/svg" xmlns:xlink="http://www.w3.org/1999/xlink">
<g id="graph0" class="graph" transform="scale(1 1) rotate(0) translate(4 62)">
<title>pnlRBB_view::OnbtnTuneFilter</title>
<polygon fill="white" stroke="none" points="-4,4 -4,-62 339,-62 339,4 -4,4"/>
<!-- Node1 -->
<g id="node1" class="node"><title>Node1</title>
<polygon fill="#bfbfbf" stroke="black" points="0,-19.5 0,-38.5 152,-38.5 152,-19.5 0,-19.5"/>
<text text-anchor="middle" x="76" y="-26.5" font-family="Helvetica,sans-Serif" font-size="10.00">pnlRBB_view::OnbtnTuneFilter</text>
</g>
<!-- Node2 -->
<g id="node2" class="node"><title>Node2</title>
<g id="a_node2"><a xlink:href="../../df/d8f/classpnlRBB__view.html#ac7d2b818b1134b9c2e7cc858a3492e29" target="_top" xlink:title="pnlRBB_view::pnlRBB_view">
<polygon fill="white" stroke="black" points="191,-38.5 191,-57.5 332,-57.5 332,-38.5 191,-38.5"/>
<text text-anchor="middle" x="261.5" y="-45.5" font-family="Helvetica,sans-Serif" font-size="10.00">pnlRBB_view::pnlRBB_view</text>
</a>
</g>
</g>
<!-- Node1&#45;&gt;Node2 -->
<g id="edge1" class="edge"><title>Node1&#45;&gt;Node2</title>
<path fill="none" stroke="midnightblue" d="M162.415,-37.844C171.911,-38.8273 181.497,-39.8199 190.766,-40.7796"/>
<polygon fill="midnightblue" stroke="midnightblue" points="162.473,-34.3315 152.166,-36.7828 161.752,-41.2942 162.473,-34.3315"/>
</g>
<!-- Node3 -->
<g id="node3" class="node"><title>Node3</title>
<g id="a_node3"><a xlink:href="../../df/d8f/classpnlRBB__view.html#a8ade569f724aa98a9151a13d2804718f" target="_top" xlink:title="pnlRBB_view::~pnlRBB_view">
<polygon fill="white" stroke="black" points="188,-0.5 188,-19.5 335,-19.5 335,-0.5 188,-0.5"/>
<text text-anchor="middle" x="261.5" y="-7.5" font-family="Helvetica,sans-Serif" font-size="10.00">pnlRBB_view::~pnlRBB_view</text>
</a>
</g>
</g>
<!-- Node1&#45;&gt;Node3 -->
<g id="edge2" class="edge"><title>Node1&#45;&gt;Node3</title>
<path fill="none" stroke="midnightblue" d="M162.175,-20.1808C170.747,-19.2932 179.396,-18.3977 187.821,-17.5254"/>
<polygon fill="midnightblue" stroke="midnightblue" points="161.752,-16.7058 152.166,-21.2172 162.473,-23.6685 161.752,-16.7058"/>
</g>
</g>
</svg>
