<?xml version="1.0" encoding="UTF-8" standalone="no"?>
<!DOCTYPE svg PUBLIC "-//W3C//DTD SVG 1.1//EN"
 "http://www.w3.org/Graphics/SVG/1.1/DTD/svg11.dtd">
<!-- Generated by graphviz version 2.38.0 (20140413.2041)
 -->
<!-- Title: pnlRBB_view::ParameterChangeHandler Pages: 1 -->
<svg width="352pt" height="66pt"
 viewBox="0.00 0.00 352.00 66.00" xmlns="http://www.w3.org/2000/svg" xmlns:xlink="http://www.w3.org/1999/xlink">
<g id="graph0" class="graph" transform="scale(1 1) rotate(0) translate(4 62)">
<title>pnlRBB_view::ParameterChangeHandler</title>
<polygon fill="white" stroke="none" points="-4,4 -4,-62 348,-62 348,4 -4,4"/>
<!-- Node1 -->
<g id="node1" class="node"><title>Node1</title>
<polygon fill="#bfbfbf" stroke="black" points="0,-14 0,-44 161,-44 161,-14 0,-14"/>
<text text-anchor="start" x="8" y="-32" font-family="Helvetica,sans-Serif" font-size="10.00">pnlRBB_view::ParameterChange</text>
<text text-anchor="middle" x="80.5" y="-21" font-family="Helvetica,sans-Serif" font-size="10.00">Handler</text>
</g>
<!-- Node2 -->
<g id="node2" class="node"><title>Node2</title>
<g id="a_node2"><a xlink:href="../../df/d8f/classpnlRBB__view.html#ac7d2b818b1134b9c2e7cc858a3492e29" target="_top" xlink:title="pnlRBB_view::pnlRBB_view">
<polygon fill="white" stroke="black" points="200,-38.5 200,-57.5 341,-57.5 341,-38.5 200,-38.5"/>
<text text-anchor="middle" x="270.5" y="-45.5" font-family="Helvetica,sans-Serif" font-size="10.00">pnlRBB_view::pnlRBB_view</text>
</a>
</g>
</g>
<!-- Node1&#45;&gt;Node2 -->
<g id="edge1" class="edge"><title>Node1&#45;&gt;Node2</title>
<path fill="none" stroke="midnightblue" d="M171.192,-38.0646C180.789,-39.0346 190.447,-40.0106 199.763,-40.9521"/>
<polygon fill="midnightblue" stroke="midnightblue" points="171.53,-34.5811 161.229,-37.0577 170.826,-41.5456 171.53,-34.5811"/>
</g>
<!-- Node3 -->
<g id="node3" class="node"><title>Node3</title>
<g id="a_node3"><a xlink:href="../../df/d8f/classpnlRBB__view.html#a8ade569f724aa98a9151a13d2804718f" target="_top" xlink:title="pnlRBB_view::~pnlRBB_view">
<polygon fill="white" stroke="black" points="197,-0.5 197,-19.5 344,-19.5 344,-0.5 197,-0.5"/>
<text text-anchor="middle" x="270.5" y="-7.5" font-family="Helvetica,sans-Serif" font-size="10.00">pnlRBB_view::~pnlRBB_view</text>
</a>
</g>
</g>
<!-- Node1&#45;&gt;Node3 -->
<g id="edge2" class="edge"><title>Node1&#45;&gt;Node3</title>
<path fill="none" stroke="midnightblue" d="M171.249,-19.9296C179.817,-19.0637 188.433,-18.193 196.81,-17.3463"/>
<polygon fill="midnightblue" stroke="midnightblue" points="170.826,-16.4544 161.229,-20.9423 171.53,-23.4189 170.826,-16.4544"/>
</g>
</g>
</svg>
