<?xml version="1.0" encoding="UTF-8" standalone="no"?>
<!DOCTYPE svg PUBLIC "-//W3C//DTD SVG 1.1//EN"
 "http://www.w3.org/Graphics/SVG/1.1/DTD/svg11.dtd">
<!-- Generated by graphviz version 2.38.0 (20140413.2041)
 -->
<!-- Title: /home/erik/prefix/default/src/limesuite&#45;dev/octave/LimeSuite.cc Pages: 1 -->
<svg width="537pt" height="218pt"
 viewBox="0.00 0.00 536.50 218.00" xmlns="http://www.w3.org/2000/svg" xmlns:xlink="http://www.w3.org/1999/xlink">
<g id="graph0" class="graph" transform="scale(1 1) rotate(0) translate(4 214)">
<title>/home/erik/prefix/default/src/limesuite&#45;dev/octave/LimeSuite.cc</title>
<polygon fill="white" stroke="none" points="-4,4 -4,-214 532.5,-214 532.5,4 -4,4"/>
<!-- Node1 -->
<g id="node1" class="node"><title>Node1</title>
<polygon fill="#bfbfbf" stroke="black" points="140.5,-168.5 140.5,-209.5 266.5,-209.5 266.5,-168.5 140.5,-168.5"/>
<text text-anchor="start" x="148.5" y="-197.5" font-family="Helvetica,sans-Serif" font-size="10.00">/home/erik/prefix/default</text>
<text text-anchor="start" x="148.5" y="-186.5" font-family="Helvetica,sans-Serif" font-size="10.00">/src/limesuite&#45;dev/octave</text>
<text text-anchor="middle" x="203.5" y="-175.5" font-family="Helvetica,sans-Serif" font-size="10.00">/LimeSuite.cc</text>
</g>
<!-- Node2 -->
<g id="node2" class="node"><title>Node2</title>
<polygon fill="white" stroke="#bfbfbf" points="0,-112.5 0,-131.5 71,-131.5 71,-112.5 0,-112.5"/>
<text text-anchor="middle" x="35.5" y="-119.5" font-family="Helvetica,sans-Serif" font-size="10.00">octave/oct.h</text>
</g>
<!-- Node1&#45;&gt;Node2 -->
<g id="edge1" class="edge"><title>Node1&#45;&gt;Node2</title>
<path fill="none" stroke="midnightblue" d="M153.094,-168.498C125.232,-157.718 91.4648,-144.653 67.2756,-135.294"/>
<polygon fill="midnightblue" stroke="midnightblue" points="68.4526,-131.997 57.8634,-131.652 65.9267,-138.525 68.4526,-131.997"/>
</g>
<!-- Node3 -->
<g id="node3" class="node"><title>Node3</title>
<polygon fill="white" stroke="#bfbfbf" points="89.5,-112.5 89.5,-131.5 163.5,-131.5 163.5,-112.5 89.5,-112.5"/>
<text text-anchor="middle" x="126.5" y="-119.5" font-family="Helvetica,sans-Serif" font-size="10.00">octave/Cell.h</text>
</g>
<!-- Node1&#45;&gt;Node3 -->
<g id="edge2" class="edge"><title>Node1&#45;&gt;Node3</title>
<path fill="none" stroke="midnightblue" d="M180.397,-168.498C168.932,-158.82 155.286,-147.3 144.594,-138.274"/>
<polygon fill="midnightblue" stroke="midnightblue" points="146.649,-135.429 136.75,-131.652 142.134,-140.778 146.649,-135.429"/>
</g>
<!-- Node4 -->
<g id="node4" class="node"><title>Node4</title>
<polygon fill="white" stroke="#bfbfbf" points="181.5,-112.5 181.5,-131.5 225.5,-131.5 225.5,-112.5 181.5,-112.5"/>
<text text-anchor="middle" x="203.5" y="-119.5" font-family="Helvetica,sans-Serif" font-size="10.00">vector</text>
</g>
<!-- Node1&#45;&gt;Node4 -->
<g id="edge3" class="edge"><title>Node1&#45;&gt;Node4</title>
<path fill="none" stroke="midnightblue" d="M203.5,-168.498C203.5,-160.065 203.5,-150.235 203.5,-141.874"/>
<polygon fill="midnightblue" stroke="midnightblue" points="207,-141.652 203.5,-131.652 200,-141.653 207,-141.652"/>
</g>
<!-- Node5 -->
<g id="node5" class="node"><title>Node5</title>
<polygon fill="white" stroke="#bfbfbf" points="244,-112.5 244,-131.5 285,-131.5 285,-112.5 244,-112.5"/>
<text text-anchor="middle" x="264.5" y="-119.5" font-family="Helvetica,sans-Serif" font-size="10.00">string</text>
</g>
<!-- Node1&#45;&gt;Node5 -->
<g id="edge4" class="edge"><title>Node1&#45;&gt;Node5</title>
<path fill="none" stroke="midnightblue" d="M221.802,-168.498C230.615,-159.107 241.055,-147.983 249.405,-139.085"/>
<polygon fill="midnightblue" stroke="midnightblue" points="252.089,-141.34 256.38,-131.652 246.985,-136.549 252.089,-141.34"/>
</g>
<!-- Node6 -->
<g id="node6" class="node"><title>Node6</title>
<g id="a_node6"><a xlink:href="../../d5/d07/LimeSuite_8h.html" target="_top" xlink:title="LMS API library. ">
<polygon fill="white" stroke="black" points="303.5,-112.5 303.5,-131.5 371.5,-131.5 371.5,-112.5 303.5,-112.5"/>
<text text-anchor="middle" x="337.5" y="-119.5" font-family="Helvetica,sans-Serif" font-size="10.00">LimeSuite.h</text>
</a>
</g>
</g>
<!-- Node1&#45;&gt;Node6 -->
<g id="edge5" class="edge"><title>Node1&#45;&gt;Node6</title>
<path fill="none" stroke="midnightblue" d="M243.704,-168.498C265.336,-158.005 291.428,-145.348 310.596,-136.051"/>
<polygon fill="midnightblue" stroke="midnightblue" points="312.193,-139.166 319.663,-131.652 309.138,-132.868 312.193,-139.166"/>
</g>
<!-- Node7 -->
<g id="node7" class="node"><title>Node7</title>
<polygon fill="white" stroke="#bfbfbf" points="287,-0.5 287,-19.5 336,-19.5 336,-0.5 287,-0.5"/>
<text text-anchor="middle" x="311.5" y="-7.5" font-family="Helvetica,sans-Serif" font-size="10.00">stdint.h</text>
</g>
<!-- Node6&#45;&gt;Node7 -->
<g id="edge6" class="edge"><title>Node6&#45;&gt;Node7</title>
<path fill="none" stroke="midnightblue" d="M303.316,-112.493C284.507,-105.877 262.757,-94.5958 251.5,-76 239.445,-56.0872 262.698,-36.9683 283.675,-24.6837"/>
<polygon fill="midnightblue" stroke="midnightblue" points="285.649,-27.592 292.716,-19.6985 282.269,-21.462 285.649,-27.592"/>
</g>
<!-- Node8 -->
<g id="node8" class="node"><title>Node8</title>
<polygon fill="white" stroke="#bfbfbf" points="260.5,-56.5 260.5,-75.5 308.5,-75.5 308.5,-56.5 260.5,-56.5"/>
<text text-anchor="middle" x="284.5" y="-63.5" font-family="Helvetica,sans-Serif" font-size="10.00">stdlib.h</text>
</g>
<!-- Node6&#45;&gt;Node8 -->
<g id="edge7" class="edge"><title>Node6&#45;&gt;Node8</title>
<path fill="none" stroke="midnightblue" d="M328.748,-112.083C321.03,-104.22 309.595,-92.5688 300.283,-83.0813"/>
<polygon fill="midnightblue" stroke="midnightblue" points="302.592,-80.4363 293.089,-75.7511 297.596,-85.3396 302.592,-80.4363"/>
</g>
<!-- Node9 -->
<g id="node9" class="node"><title>Node9</title>
<g id="a_node9"><a xlink:href="../../d1/d2e/LMS7002M__parameters_8h.html" target="_top" xlink:title="List of LMS7002M transceiver control parameters. ">
<polygon fill="white" stroke="black" points="326.5,-56.5 326.5,-75.5 454.5,-75.5 454.5,-56.5 326.5,-56.5"/>
<text text-anchor="middle" x="390.5" y="-63.5" font-family="Helvetica,sans-Serif" font-size="10.00">LMS7002M_parameters.h</text>
</a>
</g>
</g>
<!-- Node6&#45;&gt;Node9 -->
<g id="edge8" class="edge"><title>Node6&#45;&gt;Node9</title>
<path fill="none" stroke="midnightblue" d="M346.252,-112.083C353.97,-104.22 365.405,-92.5688 374.717,-83.0813"/>
<polygon fill="midnightblue" stroke="midnightblue" points="377.404,-85.3396 381.911,-75.7511 372.408,-80.4363 377.404,-85.3396"/>
</g>
<!-- Node10 -->
<g id="node10" class="node"><title>Node10</title>
<polygon fill="white" stroke="#bfbfbf" points="472.5,-56.5 472.5,-75.5 528.5,-75.5 528.5,-56.5 472.5,-56.5"/>
<text text-anchor="middle" x="500.5" y="-63.5" font-family="Helvetica,sans-Serif" font-size="10.00">stdbool.h</text>
</g>
<!-- Node6&#45;&gt;Node10 -->
<g id="edge10" class="edge"><title>Node6&#45;&gt;Node10</title>
<path fill="none" stroke="midnightblue" d="M363.328,-112.444C390.749,-103.359 434.277,-88.9388 464.932,-78.7831"/>
<polygon fill="midnightblue" stroke="midnightblue" points="466.401,-81.9837 474.793,-75.5164 464.2,-75.3389 466.401,-81.9837"/>
</g>
<!-- Node9&#45;&gt;Node7 -->
<g id="edge9" class="edge"><title>Node9&#45;&gt;Node7</title>
<path fill="none" stroke="midnightblue" d="M377.807,-56.324C365.599,-47.979 346.922,-35.2122 332.497,-25.3524"/>
<polygon fill="midnightblue" stroke="midnightblue" points="334.392,-22.4082 324.161,-19.6545 330.442,-28.1871 334.392,-22.4082"/>
</g>
</g>
</svg>
