<?xml version="1.0" encoding="UTF-8" standalone="no"?>
<!DOCTYPE svg PUBLIC "-//W3C//DTD SVG 1.1//EN"
 "http://www.w3.org/Graphics/SVG/1.1/DTD/svg11.dtd">
<!-- Generated by graphviz version 2.38.0 (20140413.2041)
 -->
<!-- Title: pnlRxTSP_view::OnNCOSelectionChange Pages: 1 -->
<svg width="383pt" height="66pt"
 viewBox="0.00 0.00 383.00 66.00" xmlns="http://www.w3.org/2000/svg" xmlns:xlink="http://www.w3.org/1999/xlink">
<g id="graph0" class="graph" transform="scale(1 1) rotate(0) translate(4 62)">
<title>pnlRxTSP_view::OnNCOSelectionChange</title>
<polygon fill="white" stroke="none" points="-4,4 -4,-62 379,-62 379,4 -4,4"/>
<!-- Node1 -->
<g id="node1" class="node"><title>Node1</title>
<polygon fill="#bfbfbf" stroke="black" points="0,-14 0,-44 169,-44 169,-14 0,-14"/>
<text text-anchor="start" x="8" y="-32" font-family="Helvetica,sans-Serif" font-size="10.00">pnlRxTSP_view::OnNCOSelection</text>
<text text-anchor="middle" x="84.5" y="-21" font-family="Helvetica,sans-Serif" font-size="10.00">Change</text>
</g>
<!-- Node2 -->
<g id="node2" class="node"><title>Node2</title>
<g id="a_node2"><a xlink:href="../../d0/d0f/classpnlRxTSP__view.html#a583cb03b6eb59b50fd09c7129b8d979e" target="_top" xlink:title="pnlRxTSP_view::pnlRxTSP_view">
<polygon fill="white" stroke="black" points="208,-38.5 208,-57.5 372,-57.5 372,-38.5 208,-38.5"/>
<text text-anchor="middle" x="290" y="-45.5" font-family="Helvetica,sans-Serif" font-size="10.00">pnlRxTSP_view::pnlRxTSP_view</text>
</a>
</g>
</g>
<!-- Node1&#45;&gt;Node2 -->
<g id="edge1" class="edge"><title>Node1&#45;&gt;Node2</title>
<path fill="none" stroke="midnightblue" d="M179.137,-37.7425C188.766,-38.6415 198.493,-39.5497 207.969,-40.4344"/>
<polygon fill="midnightblue" stroke="midnightblue" points="179.434,-34.2551 169.152,-36.8103 178.783,-41.2248 179.434,-34.2551"/>
</g>
<!-- Node3 -->
<g id="node3" class="node"><title>Node3</title>
<g id="a_node3"><a xlink:href="../../d0/d0f/classpnlRxTSP__view.html#af10716fa68d6e58e2485467c75ae2e70" target="_top" xlink:title="pnlRxTSP_view::~pnlRxTSP_view">
<polygon fill="white" stroke="black" points="205,-0.5 205,-19.5 375,-19.5 375,-0.5 205,-0.5"/>
<text text-anchor="middle" x="290" y="-7.5" font-family="Helvetica,sans-Serif" font-size="10.00">pnlRxTSP_view::~pnlRxTSP_view</text>
</a>
</g>
</g>
<!-- Node1&#45;&gt;Node3 -->
<g id="edge2" class="edge"><title>Node1&#45;&gt;Node3</title>
<path fill="none" stroke="midnightblue" d="M179.113,-20.2597C187.641,-19.4635 196.246,-18.6601 204.686,-17.8721"/>
<polygon fill="midnightblue" stroke="midnightblue" points="178.783,-16.7752 169.152,-21.1897 179.434,-23.7449 178.783,-16.7752"/>
</g>
</g>
</svg>
