<?xml version="1.0" encoding="UTF-8" standalone="no"?>
<!DOCTYPE svg PUBLIC "-//W3C//DTD SVG 1.1//EN"
 "http://www.w3.org/Graphics/SVG/1.1/DTD/svg11.dtd">
<!-- Generated by graphviz version 2.38.0 (20140413.2041)
 -->
<!-- Title: /home/erik/prefix/default/src/limesuite&#45;dev/mcu_program/common_src/lms7002m_filters.c Pages: 1 -->
<!--zoomable 240 -->
<svg id="main" version="1.1" xmlns="http://www.w3.org/2000/svg" xmlns:xlink="http://www.w3.org/1999/xlink" xml:space="preserve" onload="init(evt)">
<style type="text/css"><![CDATA[
.edge:hover path { stroke: red; }
.edge:hover polygon { stroke: red; fill: red; }
]]></style>
<script type="text/javascript"><![CDATA[
var edges = document.getElementsByTagName('g');
if (edges && edges.length) {
  for (var i=0;i<edges.length;i++) {
    if (edges[i].id.substr(0,4)=='edge') {
      edges[i].setAttribute('class','edge');
    }
  }
}
]]></script>
        <defs>
                <circle id="rim" cx="0" cy="0" r="7"/>
                <circle id="rim2" cx="0" cy="0" r="3.5"/>
                <g id="zoomPlus">
                        <use xlink:href="#rim" fill="#404040">
                                <set attributeName="fill" to="#808080" begin="zoomplus.mouseover" end="zoomplus.mouseout"/>
                        </use>
                        <path d="M-4,0h8M0,-4v8" fill="none" stroke="white" stroke-width="1.5" pointer-events="none"/>
                </g>
                <g id="zoomMin">
                        <use xlink:href="#rim" fill="#404040">
                                <set attributeName="fill" to="#808080" begin="zoomminus.mouseover" end="zoomminus.mouseout"/>
                        </use>
                        <path d="M-4,0h8" fill="none" stroke="white" stroke-width="1.5" pointer-events="none"/>
                </g>
                <g id="dirArrow">
                        <path fill="none" stroke="white" stroke-width="1.5" d="M0,-3.0v7 M-2.5,-0.5L0,-3.0L2.5,-0.5"/>
                </g>
               <g id="resetDef">
                       <use xlink:href="#rim2" fill="#404040">
                               <set attributeName="fill" to="#808080" begin="reset.mouseover" end="reset.mouseout"/>
                       </use>
               </g>
        </defs>

<script type="text/javascript">
var viewWidth = 737;
var viewHeight = 240;
var sectionId = 'dynsection-0';
</script>
<script xlink:href="../../svgpan.js"/>
<svg id="graph" class="graph">
<g id="viewport">
<title>/home/erik/prefix/default/src/limesuite&#45;dev/mcu_program/common_src/lms7002m_filters.c</title>
<polygon fill="white" stroke="none" points="-4,4 -4,-236 733,-236 733,4 -4,4"/>
<!-- Node1 -->
<g id="node1" class="node"><title>Node1</title>
<polygon fill="#bfbfbf" stroke="black" points="367,-179.5 367,-231.5 531,-231.5 531,-179.5 367,-179.5"/>
<text text-anchor="start" x="375" y="-219.5" font-family="Helvetica,sans-Serif" font-size="10.00">/home/erik/prefix/default</text>
<text text-anchor="start" x="375" y="-208.5" font-family="Helvetica,sans-Serif" font-size="10.00">/src/limesuite&#45;dev/mcu</text>
<text text-anchor="start" x="375" y="-197.5" font-family="Helvetica,sans-Serif" font-size="10.00">_program/common_src/lms7002m</text>
<text text-anchor="middle" x="449" y="-186.5" font-family="Helvetica,sans-Serif" font-size="10.00">_filters.c</text>
</g>
<!-- Node2 -->
<g id="node2" class="node"><title>Node2</title>
<g id="a_node2"><a xlink:href="../../d3/d86/lms7002m__controls_8h.html" target="_top" xlink:title="lms7002m_controls.h">
<polygon fill="white" stroke="black" points="0,-118 0,-137 110,-137 110,-118 0,-118"/>
<text text-anchor="middle" x="55" y="-125" font-family="Helvetica,sans-Serif" font-size="10.00">lms7002m_controls.h</text>
</a>
</g>
</g>
<!-- Node1&#45;&gt;Node2 -->
<g id="edge1" class="edge"><title>Node1&#45;&gt;Node2</title>
<path fill="none" stroke="midnightblue" d="M366.78,-190.085C299.912,-178.144 203.186,-160.375 119,-143 113.282,-141.82 107.288,-140.531 101.358,-139.224"/>
<polygon fill="midnightblue" stroke="midnightblue" points="102.022,-135.786 91.4994,-137.025 100.497,-142.619 102.022,-135.786"/>
</g>
<!-- Node6 -->
<g id="node6" class="node"><title>Node6</title>
<g id="a_node6"><a xlink:href="../../d1/dc7/lms7002m__calibrations_8h.html" target="_top" xlink:title="lms7002m_calibrations.h">
<polygon fill="white" stroke="black" points="128.5,-118 128.5,-137 253.5,-137 253.5,-118 128.5,-118"/>
<text text-anchor="middle" x="191" y="-125" font-family="Helvetica,sans-Serif" font-size="10.00">lms7002m_calibrations.h</text>
</a>
</g>
</g>
<!-- Node1&#45;&gt;Node6 -->
<g id="edge5" class="edge"><title>Node1&#45;&gt;Node6</title>
<path fill="none" stroke="midnightblue" d="M366.658,-180.244C320.692,-166.704 265.591,-150.473 229.513,-139.845"/>
<polygon fill="midnightblue" stroke="midnightblue" points="230.447,-136.471 219.865,-137.003 228.469,-143.186 230.447,-136.471"/>
</g>
<!-- Node7 -->
<g id="node7" class="node"><title>Node7</title>
<g id="a_node7"><a xlink:href="../../d8/d1f/lms7002m__filters_8h.html" target="_top" xlink:title="lms7002m_filters.h">
<polygon fill="white" stroke="black" points="271.5,-118 271.5,-137 370.5,-137 370.5,-118 271.5,-118"/>
<text text-anchor="middle" x="321" y="-125" font-family="Helvetica,sans-Serif" font-size="10.00">lms7002m_filters.h</text>
</a>
</g>
</g>
<!-- Node1&#45;&gt;Node7 -->
<g id="edge7" class="edge"><title>Node1&#45;&gt;Node7</title>
<path fill="none" stroke="midnightblue" d="M406.733,-179.404C385.966,-167.074 361.735,-152.686 344.341,-142.359"/>
<polygon fill="midnightblue" stroke="midnightblue" points="345.832,-139.174 335.447,-137.078 342.259,-145.193 345.832,-139.174"/>
</g>
<!-- Node8 -->
<g id="node8" class="node"><title>Node8</title>
<g id="a_node8"><a xlink:href="../../d4/d84/LMS7002M__parameters__compact_8h.html" target="_top" xlink:title="LMS7002M_parameters\l_compact.h">
<polygon fill="white" stroke="black" points="389,-112.5 389,-142.5 509,-142.5 509,-112.5 389,-112.5"/>
<text text-anchor="start" x="397" y="-130.5" font-family="Helvetica,sans-Serif" font-size="10.00">LMS7002M_parameters</text>
<text text-anchor="middle" x="449" y="-119.5" font-family="Helvetica,sans-Serif" font-size="10.00">_compact.h</text>
</a>
</g>
</g>
<!-- Node1&#45;&gt;Node8 -->
<g id="edge9" class="edge"><title>Node1&#45;&gt;Node8</title>
<path fill="none" stroke="midnightblue" d="M449,-179.193C449,-170.786 449,-161.443 449,-153.091"/>
<polygon fill="midnightblue" stroke="midnightblue" points="452.5,-152.845 449,-142.845 445.5,-152.845 452.5,-152.845"/>
</g>
<!-- Node9 -->
<g id="node9" class="node"><title>Node9</title>
<g id="a_node9"><a xlink:href="../../da/d87/spi_8h.html" target="_top" xlink:title="spi.h">
<polygon fill="white" stroke="black" points="527,-118 527,-137 565,-137 565,-118 527,-118"/>
<text text-anchor="middle" x="546" y="-125" font-family="Helvetica,sans-Serif" font-size="10.00">spi.h</text>
</a>
</g>
</g>
<!-- Node1&#45;&gt;Node9 -->
<g id="edge11" class="edge"><title>Node1&#45;&gt;Node9</title>
<path fill="none" stroke="midnightblue" d="M481.03,-179.404C496.095,-167.601 513.566,-153.912 526.594,-143.705"/>
<polygon fill="midnightblue" stroke="midnightblue" points="529.107,-146.182 534.82,-137.26 524.789,-140.672 529.107,-146.182"/>
</g>
<!-- Node10 -->
<g id="node10" class="node"><title>Node10</title>
<polygon fill="white" stroke="#bfbfbf" points="583.5,-118 583.5,-137 630.5,-137 630.5,-118 583.5,-118"/>
<text text-anchor="middle" x="607" y="-125" font-family="Helvetica,sans-Serif" font-size="10.00">math.h</text>
</g>
<!-- Node1&#45;&gt;Node10 -->
<g id="edge13" class="edge"><title>Node1&#45;&gt;Node10</title>
<path fill="none" stroke="midnightblue" d="M501.173,-179.404C527.52,-166.731 558.383,-151.885 579.958,-141.508"/>
<polygon fill="midnightblue" stroke="midnightblue" points="581.672,-144.567 589.167,-137.078 578.638,-138.259 581.672,-144.567"/>
</g>
<!-- Node11 -->
<g id="node11" class="node"><title>Node11</title>
<g id="a_node11"><a xlink:href="../../d5/d59/mcu__defines_8h.html" target="_top" xlink:title="mcu_defines.h">
<polygon fill="white" stroke="black" points="649,-118 649,-137 729,-137 729,-118 649,-118"/>
<text text-anchor="middle" x="689" y="-125" font-family="Helvetica,sans-Serif" font-size="10.00">mcu_defines.h</text>
</a>
</g>
</g>
<!-- Node1&#45;&gt;Node11 -->
<g id="edge14" class="edge"><title>Node1&#45;&gt;Node11</title>
<path fill="none" stroke="midnightblue" d="M528.25,-179.404C570.073,-166.16 619.389,-150.543 652.264,-140.133"/>
<polygon fill="midnightblue" stroke="midnightblue" points="653.435,-143.434 661.912,-137.078 651.322,-136.76 653.435,-143.434"/>
</g>
<!-- Node3 -->
<g id="node3" class="node"><title>Node3</title>
<g id="a_node3"><a xlink:href="../../d7/d69/typedefs_8h.html" target="_top" xlink:title="typedefs.h">
<polygon fill="white" stroke="black" points="290,-56.5 290,-75.5 352,-75.5 352,-56.5 290,-56.5"/>
<text text-anchor="middle" x="321" y="-63.5" font-family="Helvetica,sans-Serif" font-size="10.00">typedefs.h</text>
</a>
</g>
</g>
<!-- Node2&#45;&gt;Node3 -->
<g id="edge2" class="edge"><title>Node2&#45;&gt;Node3</title>
<path fill="none" stroke="midnightblue" d="M92.5592,-117.967C101.241,-116.001 110.441,-113.923 119,-112 174.746,-99.4757 239.181,-85.147 279.999,-76.0884"/>
<polygon fill="midnightblue" stroke="midnightblue" points="280.843,-79.4863 289.848,-73.9033 279.327,-72.6524 280.843,-79.4863"/>
</g>
<!-- Node4 -->
<g id="node4" class="node"><title>Node4</title>
<polygon fill="white" stroke="#bfbfbf" points="261.5,-0.5 261.5,-19.5 310.5,-19.5 310.5,-0.5 261.5,-0.5"/>
<text text-anchor="middle" x="286" y="-7.5" font-family="Helvetica,sans-Serif" font-size="10.00">stdint.h</text>
</g>
<!-- Node3&#45;&gt;Node4 -->
<g id="edge3" class="edge"><title>Node3&#45;&gt;Node4</title>
<path fill="none" stroke="midnightblue" d="M315.22,-56.083C310.328,-48.5341 303.173,-37.4948 297.167,-28.2298"/>
<polygon fill="midnightblue" stroke="midnightblue" points="300.048,-26.239 291.672,-19.7511 294.174,-30.0463 300.048,-26.239"/>
</g>
<!-- Node5 -->
<g id="node5" class="node"><title>Node5</title>
<polygon fill="white" stroke="#bfbfbf" points="329,-0.5 329,-19.5 385,-19.5 385,-0.5 329,-0.5"/>
<text text-anchor="middle" x="357" y="-7.5" font-family="Helvetica,sans-Serif" font-size="10.00">stdbool.h</text>
</g>
<!-- Node3&#45;&gt;Node5 -->
<g id="edge4" class="edge"><title>Node3&#45;&gt;Node5</title>
<path fill="none" stroke="midnightblue" d="M326.945,-56.083C331.977,-48.5341 339.337,-37.4948 345.513,-28.2298"/>
<polygon fill="midnightblue" stroke="midnightblue" points="348.531,-30.0131 351.166,-19.7511 342.707,-26.1301 348.531,-30.0131"/>
</g>
<!-- Node6&#45;&gt;Node3 -->
<g id="edge6" class="edge"><title>Node6&#45;&gt;Node3</title>
<path fill="none" stroke="midnightblue" d="M209.626,-117.975C231.443,-107.99 267.804,-91.3476 293.017,-79.8075"/>
<polygon fill="midnightblue" stroke="midnightblue" points="294.772,-82.8534 302.409,-75.5091 291.859,-76.4884 294.772,-82.8534"/>
</g>
<!-- Node7&#45;&gt;Node3 -->
<g id="edge8" class="edge"><title>Node7&#45;&gt;Node3</title>
<path fill="none" stroke="midnightblue" d="M321,-117.975C321,-109.58 321,-96.4806 321,-85.6631"/>
<polygon fill="midnightblue" stroke="midnightblue" points="324.5,-85.5091 321,-75.5091 317.5,-85.5091 324.5,-85.5091"/>
</g>
<!-- Node8&#45;&gt;Node3 -->
<g id="edge10" class="edge"><title>Node8&#45;&gt;Node3</title>
<path fill="none" stroke="midnightblue" d="M418.666,-112.399C397.477,-102.55 369.406,-89.5014 348.798,-79.9217"/>
<polygon fill="midnightblue" stroke="midnightblue" points="350.169,-76.6993 339.625,-75.6578 347.218,-83.047 350.169,-76.6993"/>
</g>
<!-- Node9&#45;&gt;Node3 -->
<g id="edge12" class="edge"><title>Node9&#45;&gt;Node3</title>
<path fill="none" stroke="midnightblue" d="M531.205,-117.952C527.031,-115.787 522.42,-113.62 518,-112 465.727,-92.8477 402.564,-80.1485 362.097,-73.2614"/>
<polygon fill="midnightblue" stroke="midnightblue" points="362.506,-69.7814 352.067,-71.5945 361.358,-76.6866 362.506,-69.7814"/>
</g>
</g>
</svg>
        <g id="navigator" transform="translate(0 0)" fill="#404254">
                <rect fill="#f2f5e9" fill-opacity="0.5" stroke="#606060" stroke-width=".5" x="0" y="0" width="60" height="60"/>
                <use id="zoomplus" xlink:href="#zoomPlus" x="17" y="9" onmousedown="handleZoom(evt,'in')"/>
                <use id="zoomminus" xlink:href="#zoomMin" x="42" y="9" onmousedown="handleZoom(evt,'out')"/>
                <use id="reset" xlink:href="#resetDef" x="30" y="36" onmousedown="handleReset()"/>
                <g id="arrowUp" xlink:href="#dirArrow" transform="translate(30 24)" onmousedown="handlePan(0,-1)">
                  <use xlink:href="#rim" fill="#404040">
                        <set attributeName="fill" to="#808080" begin="arrowUp.mouseover" end="arrowUp.mouseout"/>
                  </use>
                  <path fill="none" stroke="white" stroke-width="1.5" d="M0,-3.0v7 M-2.5,-0.5L0,-3.0L2.5,-0.5"/>
                </g>
                <g id="arrowRight" xlink:href="#dirArrow" transform="rotate(90) translate(36 -43)" onmousedown="handlePan(1,0)">
                  <use xlink:href="#rim" fill="#404040">
                        <set attributeName="fill" to="#808080" begin="arrowRight.mouseover" end="arrowRight.mouseout"/>
                  </use>
                  <path fill="none" stroke="white" stroke-width="1.5" d="M0,-3.0v7 M-2.5,-0.5L0,-3.0L2.5,-0.5"/>
                </g>
                <g id="arrowDown" xlink:href="#dirArrow" transform="rotate(180) translate(-30 -48)" onmousedown="handlePan(0,1)">
                  <use xlink:href="#rim" fill="#404040">
                        <set attributeName="fill" to="#808080" begin="arrowDown.mouseover" end="arrowDown.mouseout"/>
                  </use>
                  <path fill="none" stroke="white" stroke-width="1.5" d="M0,-3.0v7 M-2.5,-0.5L0,-3.0L2.5,-0.5"/>
                </g>
                <g id="arrowLeft" xlink:href="#dirArrow" transform="rotate(270) translate(-36 17)" onmousedown="handlePan(-1,0)">
                  <use xlink:href="#rim" fill="#404040">
                        <set attributeName="fill" to="#808080" begin="arrowLeft.mouseover" end="arrowLeft.mouseout"/>
                  </use>
                  <path fill="none" stroke="white" stroke-width="1.5" d="M0,-3.0v7 M-2.5,-0.5L0,-3.0L2.5,-0.5"/>
                </g>
        </g>
        <svg viewBox="0 0 15 15" width="100%" height="30px" preserveAspectRatio="xMaxYMin meet">
         <g id="arrow_out" transform="scale(0.3 0.3)">
          <a xlink:href="lms7002m__filters_8c__incl_org.svg" target="_base">
           <rect id="button" ry="5" rx="5" y="6" x="6" height="38" width="38"
                fill="#f2f5e9" fill-opacity="0.5" stroke="#606060" stroke-width="1.0"/>
           <path id="arrow"
             d="M 11.500037,31.436501 C 11.940474,20.09759 22.043105,11.32322 32.158766,21.979434 L 37.068811,17.246167 C 37.068811,17.246167 37.088388,32 37.088388,32 L 22.160133,31.978069 C 22.160133,31.978069 26.997745,27.140456 26.997745,27.140456 C 18.528582,18.264221 13.291696,25.230495 11.500037,31.436501 z"
             style="fill:#404040;"/>
          </a>
         </g>
        </svg>
</svg>
