<?xml version="1.0" encoding="UTF-8" standalone="no"?>
<!DOCTYPE svg PUBLIC "-//W3C//DTD SVG 1.1//EN"
 "http://www.w3.org/Graphics/SVG/1.1/DTD/svg11.dtd">
<!-- Generated by graphviz version 2.38.0 (20140413.2041)
 -->
<!-- Title: lime::LMS7002M_RegistersMap::InitializeDefaultValues Pages: 1 -->
<svg width="773pt" height="204pt"
 viewBox="0.00 0.00 773.00 203.50" xmlns="http://www.w3.org/2000/svg" xmlns:xlink="http://www.w3.org/1999/xlink">
<g id="graph0" class="graph" transform="scale(1 1) rotate(0) translate(4 199.5)">
<title>lime::LMS7002M_RegistersMap::InitializeDefaultValues</title>
<polygon fill="white" stroke="none" points="-4,4 -4,-199.5 769,-199.5 769,4 -4,4"/>
<!-- Node1 -->
<g id="node1" class="node"><title>Node1</title>
<polygon fill="#bfbfbf" stroke="black" points="0,-102 0,-132 139,-132 139,-102 0,-102"/>
<text text-anchor="start" x="8" y="-120" font-family="Helvetica,sans-Serif" font-size="10.00">lime::LMS7002M_Registers</text>
<text text-anchor="middle" x="69.5" y="-109" font-family="Helvetica,sans-Serif" font-size="10.00">Map::InitializeDefaultValues</text>
</g>
<!-- Node2 -->
<g id="node2" class="node"><title>Node2</title>
<g id="a_node2"><a xlink:href="../../db/d1d/classlime_1_1LMS7002M.html#a17f55d7d316daba9ee05211a217f8e41" target="_top" xlink:title="Creates LMS7002M main control object. ">
<polygon fill="white" stroke="black" points="175,-126.5 175,-145.5 321,-145.5 321,-126.5 175,-126.5"/>
<text text-anchor="middle" x="248" y="-133.5" font-family="Helvetica,sans-Serif" font-size="10.00">lime::LMS7002M::LMS7002M</text>
</a>
</g>
</g>
<!-- Node1&#45;&gt;Node2 -->
<g id="edge1" class="edge"><title>Node1&#45;&gt;Node2</title>
<path fill="none" stroke="midnightblue" d="M149.222,-125.474C157.785,-126.396 166.469,-127.331 174.946,-128.243"/>
<polygon fill="midnightblue" stroke="midnightblue" points="149.562,-121.991 139.245,-124.4 148.813,-128.951 149.562,-121.991"/>
</g>
<!-- Node3 -->
<g id="node3" class="node"><title>Node3</title>
<g id="a_node3"><a xlink:href="../../db/d1d/classlime_1_1LMS7002M.html#af8246e76e9ffa844949fd7cf78ad3d43" target="_top" xlink:title="Sends reset signal to chip, after reset enables B channel controls. ">
<polygon fill="white" stroke="black" points="176.5,-88.5 176.5,-107.5 319.5,-107.5 319.5,-88.5 176.5,-88.5"/>
<text text-anchor="middle" x="248" y="-95.5" font-family="Helvetica,sans-Serif" font-size="10.00">lime::LMS7002M::ResetChip</text>
</a>
</g>
</g>
<!-- Node1&#45;&gt;Node3 -->
<g id="edge2" class="edge"><title>Node1&#45;&gt;Node3</title>
<path fill="none" stroke="midnightblue" d="M149.346,-108.512C158.361,-107.542 167.509,-106.557 176.406,-105.599"/>
<polygon fill="midnightblue" stroke="midnightblue" points="148.813,-105.049 139.245,-109.6 149.562,-112.009 148.813,-105.049"/>
</g>
<!-- Node4 -->
<g id="node4" class="node"><title>Node4</title>
<g id="a_node4"><a xlink:href="../../d1/db7/classlime_1_1LMS7__LimeSDR__mini.html#a849ef012f59369225ed0712b50143283" target="_top" xlink:title="lime::LMS7_LimeSDR\l_mini::Init">
<polygon fill="white" stroke="black" points="379,-165 379,-195 493,-195 493,-165 379,-165"/>
<text text-anchor="start" x="387" y="-183" font-family="Helvetica,sans-Serif" font-size="10.00">lime::LMS7_LimeSDR</text>
<text text-anchor="middle" x="436" y="-172" font-family="Helvetica,sans-Serif" font-size="10.00">_mini::Init</text>
</a>
</g>
</g>
<!-- Node3&#45;&gt;Node4 -->
<g id="edge3" class="edge"><title>Node3&#45;&gt;Node4</title>
<path fill="none" stroke="midnightblue" d="M309.297,-111.152C313.366,-112.872 317.31,-114.812 321,-117 341.011,-128.865 337.305,-142.617 357,-155 363.741,-159.239 371.266,-162.819 378.908,-165.827"/>
<polygon fill="midnightblue" stroke="midnightblue" points="310.226,-107.763 299.634,-107.527 307.767,-114.316 310.226,-107.763"/>
</g>
<!-- Node5 -->
<g id="node5" class="node"><title>Node5</title>
<g id="a_node5"><a xlink:href="../../d3/d22/classlime_1_1LMS7__Device.html#a3f9708aee4fd2fbf553b19ace615309f" target="_top" xlink:title="lime::LMS7_Device::Init">
<polygon fill="white" stroke="black" points="375,-126.5 375,-145.5 497,-145.5 497,-126.5 375,-126.5"/>
<text text-anchor="middle" x="436" y="-133.5" font-family="Helvetica,sans-Serif" font-size="10.00">lime::LMS7_Device::Init</text>
</a>
</g>
</g>
<!-- Node3&#45;&gt;Node5 -->
<g id="edge4" class="edge"><title>Node3&#45;&gt;Node5</title>
<path fill="none" stroke="midnightblue" d="M305.825,-109.61C332.279,-115.014 363.358,-121.364 388.402,-126.48"/>
<polygon fill="midnightblue" stroke="midnightblue" points="306.434,-106.162 295.936,-107.589 305.033,-113.02 306.434,-106.162"/>
</g>
<!-- Node10 -->
<g id="node10" class="node"><title>Node10</title>
<g id="a_node10"><a xlink:href="../../db/d1d/classlime_1_1LMS7002M.html#aed5e5e9440ef6046799a272798f0466b" target="_top" xlink:title="Performs registers test by writing known data and confirming readback data. ">
<polygon fill="white" stroke="black" points="357,-88.5 357,-107.5 515,-107.5 515,-88.5 357,-88.5"/>
<text text-anchor="middle" x="436" y="-95.5" font-family="Helvetica,sans-Serif" font-size="10.00">lime::LMS7002M::RegistersTest</text>
</a>
</g>
</g>
<!-- Node3&#45;&gt;Node10 -->
<g id="edge9" class="edge"><title>Node3&#45;&gt;Node10</title>
<path fill="none" stroke="midnightblue" d="M329.635,-98C338.612,-98 347.746,-98 356.693,-98"/>
<polygon fill="midnightblue" stroke="midnightblue" points="329.584,-94.5001 319.584,-98 329.584,-101.5 329.584,-94.5001"/>
</g>
<!-- Node11 -->
<g id="node11" class="node"><title>Node11</title>
<g id="a_node11"><a xlink:href="../../d3/d22/classlime_1_1LMS7__Device.html#aa62948cebb1a55f40d1d4b59b4f26a44" target="_top" xlink:title="lime::LMS7_Device::\lReset">
<polygon fill="white" stroke="black" points="382,-39 382,-69 490,-69 490,-39 382,-39"/>
<text text-anchor="start" x="390" y="-57" font-family="Helvetica,sans-Serif" font-size="10.00">lime::LMS7_Device::</text>
<text text-anchor="middle" x="436" y="-46" font-family="Helvetica,sans-Serif" font-size="10.00">Reset</text>
</a>
</g>
</g>
<!-- Node3&#45;&gt;Node11 -->
<g id="edge10" class="edge"><title>Node3&#45;&gt;Node11</title>
<path fill="none" stroke="midnightblue" d="M299.242,-86.1147C324.857,-80.0553 356.004,-72.6873 381.999,-66.5378"/>
<polygon fill="midnightblue" stroke="midnightblue" points="298.285,-82.7445 289.359,-88.4527 299.896,-89.5565 298.285,-82.7445"/>
</g>
<!-- Node15 -->
<g id="node15" class="node"><title>Node15</title>
<g id="a_node15"><a xlink:href="../../df/d7d/streaming_8cpp.html#a2a1d481379ef2b25f41edd6058b5f15b" target="_top" xlink:title="TEST_F">
<polygon fill="white" stroke="black" points="409.5,-0.5 409.5,-19.5 462.5,-19.5 462.5,-0.5 409.5,-0.5"/>
<text text-anchor="middle" x="436" y="-7.5" font-family="Helvetica,sans-Serif" font-size="10.00">TEST_F</text>
</a>
</g>
</g>
<!-- Node3&#45;&gt;Node15 -->
<g id="edge14" class="edge"><title>Node3&#45;&gt;Node15</title>
<path fill="none" stroke="midnightblue" d="M269.385,-82.4333C290.337,-67.1106 324.412,-44.027 357,-30 373.821,-22.7596 393.852,-17.6921 409.402,-14.4697"/>
<polygon fill="midnightblue" stroke="midnightblue" points="267.192,-79.7027 261.252,-88.476 271.366,-85.3217 267.192,-79.7027"/>
</g>
<!-- Node6 -->
<g id="node6" class="node"><title>Node6</title>
<g id="a_node6"><a xlink:href="../../df/de1/lms7__api_8cpp.html#a804769c6df1bb5c86829f6211c0c56aa" target="_top" xlink:title="LMS_Init">
<polygon fill="white" stroke="black" points="557,-134.5 557,-153.5 613,-153.5 613,-134.5 557,-134.5"/>
<text text-anchor="middle" x="585" y="-141.5" font-family="Helvetica,sans-Serif" font-size="10.00">LMS_Init</text>
</a>
</g>
</g>
<!-- Node5&#45;&gt;Node6 -->
<g id="edge5" class="edge"><title>Node5&#45;&gt;Node6</title>
<path fill="none" stroke="midnightblue" d="M507.527,-139.838C525.138,-140.797 542.977,-141.767 556.991,-142.53"/>
<polygon fill="midnightblue" stroke="midnightblue" points="507.39,-136.326 497.215,-139.277 507.01,-143.315 507.39,-136.326"/>
</g>
<!-- Node9 -->
<g id="node9" class="node"><title>Node9</title>
<g id="a_node9"><a xlink:href="../../d4/d8f/pll__sweep_8cpp.html#a3c04138a5bfe5d72780bb7e82a18e627" target="_top" xlink:title="main">
<polygon fill="white" stroke="black" points="566,-96.5 566,-115.5 604,-115.5 604,-96.5 566,-96.5"/>
<text text-anchor="middle" x="585" y="-103.5" font-family="Helvetica,sans-Serif" font-size="10.00">main</text>
</a>
</g>
</g>
<!-- Node5&#45;&gt;Node9 -->
<g id="edge8" class="edge"><title>Node5&#45;&gt;Node9</title>
<path fill="none" stroke="midnightblue" d="M493.935,-124.381C519.549,-119.153 547.994,-113.348 565.931,-109.688"/>
<polygon fill="midnightblue" stroke="midnightblue" points="493.014,-120.996 483.916,-126.425 494.414,-127.855 493.014,-120.996"/>
</g>
<!-- Node7 -->
<g id="node7" class="node"><title>Node7</title>
<g id="a_node7"><a xlink:href="../../d4/d20/basicRX_8cpp.html#a3c04138a5bfe5d72780bb7e82a18e627" target="_top" xlink:title="main">
<polygon fill="white" stroke="black" points="691,-158.5 691,-177.5 729,-177.5 729,-158.5 691,-158.5"/>
<text text-anchor="middle" x="710" y="-165.5" font-family="Helvetica,sans-Serif" font-size="10.00">main</text>
</a>
</g>
</g>
<!-- Node6&#45;&gt;Node7 -->
<g id="edge6" class="edge"><title>Node6&#45;&gt;Node7</title>
<path fill="none" stroke="midnightblue" d="M623.186,-151.256C645.611,-155.631 673.177,-161.01 690.913,-164.471"/>
<polygon fill="midnightblue" stroke="midnightblue" points="623.783,-147.806 613.298,-149.326 622.442,-154.677 623.783,-147.806"/>
</g>
<!-- Node8 -->
<g id="node8" class="node"><title>Node8</title>
<g id="a_node8"><a xlink:href="../../d8/d3c/classlms7002__mainPanel.html#aff2ae64c885239df71be67c69f9a2c81" target="_top" xlink:title="lms7002_mainPanel::\lOnLoadDefault">
<polygon fill="white" stroke="black" points="655,-109 655,-139 765,-139 765,-109 655,-109"/>
<text text-anchor="start" x="663" y="-127" font-family="Helvetica,sans-Serif" font-size="10.00">lms7002_mainPanel::</text>
<text text-anchor="middle" x="710" y="-116" font-family="Helvetica,sans-Serif" font-size="10.00">OnLoadDefault</text>
</a>
</g>
</g>
<!-- Node6&#45;&gt;Node8 -->
<g id="edge7" class="edge"><title>Node6&#45;&gt;Node8</title>
<path fill="none" stroke="midnightblue" d="M623.182,-137.954C633.065,-136.347 643.948,-134.578 654.547,-132.854"/>
<polygon fill="midnightblue" stroke="midnightblue" points="622.606,-134.502 613.298,-139.561 623.73,-141.411 622.606,-134.502"/>
</g>
<!-- Node12 -->
<g id="node12" class="node"><title>Node12</title>
<g id="a_node12"><a xlink:href="../../df/de1/lms7__api_8cpp.html#a3c38c0cdc0f0e576ee2933ecb7e5a45d" target="_top" xlink:title="LMS_Reset">
<polygon fill="white" stroke="black" points="551,-44.5 551,-63.5 619,-63.5 619,-44.5 551,-44.5"/>
<text text-anchor="middle" x="585" y="-51.5" font-family="Helvetica,sans-Serif" font-size="10.00">LMS_Reset</text>
</a>
</g>
</g>
<!-- Node11&#45;&gt;Node12 -->
<g id="edge11" class="edge"><title>Node11&#45;&gt;Node12</title>
<path fill="none" stroke="midnightblue" d="M500.179,-54C517.552,-54 535.71,-54 550.666,-54"/>
<polygon fill="midnightblue" stroke="midnightblue" points="500.07,-50.5001 490.07,-54 500.07,-57.5001 500.07,-50.5001"/>
</g>
<!-- Node13 -->
<g id="node13" class="node"><title>Node13</title>
<g id="a_node13"><a xlink:href="../../d8/d3c/classlms7002__mainPanel.html#a7a90f8fb05946924fa257e8323bfdf45" target="_top" xlink:title="lms7002_mainPanel::\lOnNewProject">
<polygon fill="white" stroke="black" points="655,-50 655,-80 765,-80 765,-50 655,-50"/>
<text text-anchor="start" x="663" y="-68" font-family="Helvetica,sans-Serif" font-size="10.00">lms7002_mainPanel::</text>
<text text-anchor="middle" x="710" y="-57" font-family="Helvetica,sans-Serif" font-size="10.00">OnNewProject</text>
</a>
</g>
</g>
<!-- Node12&#45;&gt;Node13 -->
<g id="edge12" class="edge"><title>Node12&#45;&gt;Node13</title>
<path fill="none" stroke="midnightblue" d="M629.397,-57.881C637.619,-58.6164 646.316,-59.3941 654.822,-60.1549"/>
<polygon fill="midnightblue" stroke="midnightblue" points="629.558,-54.3815 619.286,-56.9768 628.934,-61.3537 629.558,-54.3815"/>
</g>
<!-- Node14 -->
<g id="node14" class="node"><title>Node14</title>
<g id="a_node14"><a xlink:href="../../d8/d3c/classlms7002__mainPanel.html#ab702fe2f9725c2e7aade97270472ac9e" target="_top" xlink:title="lms7002_mainPanel::\lOnResetChip">
<polygon fill="white" stroke="black" points="655,-1 655,-31 765,-31 765,-1 655,-1"/>
<text text-anchor="start" x="663" y="-19" font-family="Helvetica,sans-Serif" font-size="10.00">lms7002_mainPanel::</text>
<text text-anchor="middle" x="710" y="-8" font-family="Helvetica,sans-Serif" font-size="10.00">OnResetChip</text>
</a>
</g>
</g>
<!-- Node12&#45;&gt;Node14 -->
<g id="edge13" class="edge"><title>Node12&#45;&gt;Node14</title>
<path fill="none" stroke="midnightblue" d="M626.607,-41.4547C637.372,-38.129 649.106,-34.5039 660.255,-31.0595"/>
<polygon fill="midnightblue" stroke="midnightblue" points="625.559,-38.1151 617.038,-44.411 627.626,-44.8032 625.559,-38.1151"/>
</g>
</g>
</svg>
