<?xml version="1.0" encoding="UTF-8" standalone="no"?>
<!DOCTYPE svg PUBLIC "-//W3C//DTD SVG 1.1//EN"
 "http://www.w3.org/Graphics/SVG/1.1/DTD/svg11.dtd">
<!-- Generated by graphviz version 2.38.0 (20140413.2041)
 -->
<!-- Title: lms7002_pnlXBUF_view::UpdateGUI Pages: 1 -->
<!--zoomable 522 -->
<svg id="main" version="1.1" xmlns="http://www.w3.org/2000/svg" xmlns:xlink="http://www.w3.org/1999/xlink" xml:space="preserve" onload="init(evt)">
<style type="text/css"><![CDATA[
.edge:hover path { stroke: red; }
.edge:hover polygon { stroke: red; fill: red; }
]]></style>
<script type="text/javascript"><![CDATA[
var edges = document.getElementsByTagName('g');
if (edges && edges.length) {
  for (var i=0;i<edges.length;i++) {
    if (edges[i].id.substr(0,4)=='edge') {
      edges[i].setAttribute('class','edge');
    }
  }
}
]]></script>
        <defs>
                <circle id="rim" cx="0" cy="0" r="7"/>
                <circle id="rim2" cx="0" cy="0" r="3.5"/>
                <g id="zoomPlus">
                        <use xlink:href="#rim" fill="#404040">
                                <set attributeName="fill" to="#808080" begin="zoomplus.mouseover" end="zoomplus.mouseout"/>
                        </use>
                        <path d="M-4,0h8M0,-4v8" fill="none" stroke="white" stroke-width="1.5" pointer-events="none"/>
                </g>
                <g id="zoomMin">
                        <use xlink:href="#rim" fill="#404040">
                                <set attributeName="fill" to="#808080" begin="zoomminus.mouseover" end="zoomminus.mouseout"/>
                        </use>
                        <path d="M-4,0h8" fill="none" stroke="white" stroke-width="1.5" pointer-events="none"/>
                </g>
                <g id="dirArrow">
                        <path fill="none" stroke="white" stroke-width="1.5" d="M0,-3.0v7 M-2.5,-0.5L0,-3.0L2.5,-0.5"/>
                </g>
               <g id="resetDef">
                       <use xlink:href="#rim2" fill="#404040">
                               <set attributeName="fill" to="#808080" begin="reset.mouseover" end="reset.mouseout"/>
                       </use>
               </g>
        </defs>

<script type="text/javascript">
var viewWidth = 769;
var viewHeight = 522;
var sectionId = 'dynsection-5';
</script>
<script xlink:href="../../svgpan.js"/>
<svg id="graph" class="graph">
<g id="viewport">
<title>lms7002_pnlXBUF_view::UpdateGUI</title>
<polygon fill="white" stroke="none" points="-4,4 -4,-518 765,-518 765,4 -4,4"/>
<!-- Node1 -->
<g id="node1" class="node"><title>Node1</title>
<polygon fill="#bfbfbf" stroke="black" points="0,-220 0,-250 124,-250 124,-220 0,-220"/>
<text text-anchor="start" x="8" y="-238" font-family="Helvetica,sans-Serif" font-size="10.00">lms7002_pnlXBUF_view</text>
<text text-anchor="middle" x="62" y="-227" font-family="Helvetica,sans-Serif" font-size="10.00">::UpdateGUI</text>
</g>
<!-- Node2 -->
<g id="node2" class="node"><title>Node2</title>
<g id="a_node2"><a xlink:href="../../de/df1/namespaceLMS7002__WXGUI.html#a1802e1e2f9704b2905e1653bdb35f30d" target="_top" xlink:title="LMS7002_WXGUI::UpdateControls\lByMap">
<polygon fill="white" stroke="black" points="160,-220 160,-250 332,-250 332,-220 160,-220"/>
<text text-anchor="start" x="168" y="-238" font-family="Helvetica,sans-Serif" font-size="10.00">LMS7002_WXGUI::UpdateControls</text>
<text text-anchor="middle" x="246" y="-227" font-family="Helvetica,sans-Serif" font-size="10.00">ByMap</text>
</a>
</g>
</g>
<!-- Node1&#45;&gt;Node2 -->
<g id="edge1" class="edge"><title>Node1&#45;&gt;Node2</title>
<path fill="none" stroke="midnightblue" d="M124.11,-235C132.348,-235 140.955,-235 149.615,-235"/>
<polygon fill="midnightblue" stroke="midnightblue" points="149.786,-238.5 159.786,-235 149.786,-231.5 149.786,-238.5"/>
</g>
<!-- Node3 -->
<g id="node3" class="node"><title>Node3</title>
<g id="a_node3"><a xlink:href="../../d4/d67/lms_8c.html#a0e01e477b1f10e0a63e54de2dd2f8240" target="_top" xlink:title="lms">
<polygon fill="white" stroke="black" points="406,-247.5 406,-266.5 438,-266.5 438,-247.5 406,-247.5"/>
<text text-anchor="middle" x="422" y="-254.5" font-family="Helvetica,sans-Serif" font-size="10.00">lms</text>
</a>
</g>
</g>
<!-- Node2&#45;&gt;Node3 -->
<g id="edge2" class="edge"><title>Node2&#45;&gt;Node3</title>
<path fill="none" stroke="midnightblue" d="M332.216,-245.774C355.384,-248.704 378.721,-251.654 395.651,-253.795"/>
<polygon fill="midnightblue" stroke="midnightblue" points="395.425,-257.294 405.785,-255.076 396.303,-250.349 395.425,-257.294"/>
</g>
<!-- Node23 -->
<g id="node23" class="node"><title>Node23</title>
<g id="a_node23"><a xlink:href="../../d3/d22/classlime_1_1LMS7__Device.html#aac9c25a4c8b67b8f0073591d02d2757b" target="_top" xlink:title="lime::LMS7_Device::\lReadParam">
<polygon fill="white" stroke="black" points="368,-198 368,-228 476,-228 476,-198 368,-198"/>
<text text-anchor="start" x="376" y="-216" font-family="Helvetica,sans-Serif" font-size="10.00">lime::LMS7_Device::</text>
<text text-anchor="middle" x="422" y="-205" font-family="Helvetica,sans-Serif" font-size="10.00">ReadParam</text>
</a>
</g>
</g>
<!-- Node2&#45;&gt;Node23 -->
<g id="edge25" class="edge"><title>Node2&#45;&gt;Node23</title>
<path fill="none" stroke="midnightblue" d="M332.216,-224.226C340.786,-223.142 349.38,-222.055 357.663,-221.008"/>
<polygon fill="midnightblue" stroke="midnightblue" points="358.109,-224.48 367.591,-219.753 357.231,-217.535 358.109,-224.48"/>
</g>
<!-- Node4 -->
<g id="node4" class="node"><title>Node4</title>
<g id="a_node4"><a xlink:href="../../d4/d67/lms_8c.html#a433227191fe883dcb8aa15d291bb29a1" target="_top" xlink:title="Case1F">
<polygon fill="white" stroke="black" points="520.5,-494.5 520.5,-513.5 571.5,-513.5 571.5,-494.5 520.5,-494.5"/>
<text text-anchor="middle" x="546" y="-501.5" font-family="Helvetica,sans-Serif" font-size="10.00">Case1F</text>
</a>
</g>
</g>
<!-- Node3&#45;&gt;Node4 -->
<g id="edge3" class="edge"><title>Node3&#45;&gt;Node4</title>
<path fill="none" stroke="midnightblue" d="M424.456,-266.863C429.938,-300.937 452.153,-415.412 512,-485 512.997,-486.159 514.083,-487.264 515.234,-488.315"/>
<polygon fill="midnightblue" stroke="midnightblue" points="513.401,-491.313 523.515,-494.469 517.576,-485.695 513.401,-491.313"/>
</g>
<!-- Node5 -->
<g id="node5" class="node"><title>Node5</title>
<g id="a_node5"><a xlink:href="../../d4/d67/lms_8c.html#ace0cd8bf61cb9b86b98f0cef03b5a9d9" target="_top" xlink:title="Case2F">
<polygon fill="white" stroke="black" points="520.5,-456.5 520.5,-475.5 571.5,-475.5 571.5,-456.5 520.5,-456.5"/>
<text text-anchor="middle" x="546" y="-463.5" font-family="Helvetica,sans-Serif" font-size="10.00">Case2F</text>
</a>
</g>
</g>
<!-- Node3&#45;&gt;Node5 -->
<g id="edge4" class="edge"><title>Node3&#45;&gt;Node5</title>
<path fill="none" stroke="midnightblue" d="M425.353,-266.87C433.002,-297.155 459.746,-390.142 512,-447 513.034,-448.126 514.151,-449.203 515.327,-450.231"/>
<polygon fill="midnightblue" stroke="midnightblue" points="513.549,-453.265 523.697,-456.307 517.66,-447.6 513.549,-453.265"/>
</g>
<!-- Node6 -->
<g id="node6" class="node"><title>Node6</title>
<g id="a_node6"><a xlink:href="../../d4/d67/lms_8c.html#a5f53b53ccc591e3643c4af2aee2e7f32" target="_top" xlink:title="Case3F">
<polygon fill="white" stroke="black" points="520.5,-418.5 520.5,-437.5 571.5,-437.5 571.5,-418.5 520.5,-418.5"/>
<text text-anchor="middle" x="546" y="-425.5" font-family="Helvetica,sans-Serif" font-size="10.00">Case3F</text>
</a>
</g>
</g>
<!-- Node3&#45;&gt;Node6 -->
<g id="edge5" class="edge"><title>Node3&#45;&gt;Node6</title>
<path fill="none" stroke="midnightblue" d="M426.596,-266.673C436.613,-292.547 467.077,-364.404 512,-409 513.258,-410.249 514.614,-411.444 516.035,-412.584"/>
<polygon fill="midnightblue" stroke="midnightblue" points="514.406,-415.712 524.631,-418.486 518.368,-409.941 514.406,-415.712"/>
</g>
<!-- Node7 -->
<g id="node7" class="node"><title>Node7</title>
<g id="a_node7"><a xlink:href="../../d4/d67/lms_8c.html#a5086763d5b258349bc13d6be7e7d0665" target="_top" xlink:title="Case4F">
<polygon fill="white" stroke="black" points="520.5,-380.5 520.5,-399.5 571.5,-399.5 571.5,-380.5 520.5,-380.5"/>
<text text-anchor="middle" x="546" y="-387.5" font-family="Helvetica,sans-Serif" font-size="10.00">Case4F</text>
</a>
</g>
</g>
<!-- Node3&#45;&gt;Node7 -->
<g id="edge6" class="edge"><title>Node3&#45;&gt;Node7</title>
<path fill="none" stroke="midnightblue" d="M428.661,-266.565C441.422,-287.523 474.276,-338.235 512,-371 513.497,-372.301 515.097,-373.557 516.754,-374.762"/>
<polygon fill="midnightblue" stroke="midnightblue" points="515.023,-377.811 525.316,-380.324 518.837,-371.941 515.023,-377.811"/>
</g>
<!-- Node8 -->
<g id="node8" class="node"><title>Node8</title>
<g id="a_node8"><a xlink:href="../../db/de5/recipes_8c.html#aee25e218394217a134e805ea09fb0fe9" target="_top" xlink:title="free_ivector">
<polygon fill="white" stroke="black" points="512,-342.5 512,-361.5 580,-361.5 580,-342.5 512,-342.5"/>
<text text-anchor="middle" x="546" y="-349.5" font-family="Helvetica,sans-Serif" font-size="10.00">free_ivector</text>
</a>
</g>
</g>
<!-- Node3&#45;&gt;Node8 -->
<g id="edge7" class="edge"><title>Node3&#45;&gt;Node8</title>
<path fill="none" stroke="midnightblue" d="M432.912,-266.538C448.841,-281.612 481.455,-311.442 512,-333 513.887,-334.332 515.874,-335.654 517.898,-336.944"/>
<polygon fill="midnightblue" stroke="midnightblue" points="516.446,-340.156 526.815,-342.329 520.064,-334.164 516.446,-340.156"/>
</g>
<!-- Node9 -->
<g id="node9" class="node"><title>Node9</title>
<g id="a_node9"><a xlink:href="../../db/de5/recipes_8c.html#a3e0d121b098c19c0bdc2429e5b9f1625" target="_top" xlink:title="free_matrix">
<polygon fill="white" stroke="black" points="513.5,-304.5 513.5,-323.5 578.5,-323.5 578.5,-304.5 513.5,-304.5"/>
<text text-anchor="middle" x="546" y="-311.5" font-family="Helvetica,sans-Serif" font-size="10.00">free_matrix</text>
</a>
</g>
</g>
<!-- Node3&#45;&gt;Node9 -->
<g id="edge8" class="edge"><title>Node3&#45;&gt;Node9</title>
<path fill="none" stroke="midnightblue" d="M438.451,-264.219C457.697,-273.211 490.996,-288.769 515.257,-300.104"/>
<polygon fill="midnightblue" stroke="midnightblue" points="513.845,-303.307 524.386,-304.369 516.808,-296.965 513.845,-303.307"/>
</g>
<!-- Node10 -->
<g id="node10" class="node"><title>Node10</title>
<g id="a_node10"><a xlink:href="../../db/de5/recipes_8c.html#a8214a52d888e820222c0382648329c0c" target="_top" xlink:title="free_vector">
<polygon fill="white" stroke="black" points="616,-247.5 616,-266.5 681,-266.5 681,-247.5 616,-247.5"/>
<text text-anchor="middle" x="648.5" y="-254.5" font-family="Helvetica,sans-Serif" font-size="10.00">free_vector</text>
</a>
</g>
</g>
<!-- Node3&#45;&gt;Node10 -->
<g id="edge9" class="edge"><title>Node3&#45;&gt;Node10</title>
<path fill="none" stroke="midnightblue" d="M438.079,-257C471.926,-257 554.944,-257 605.702,-257"/>
<polygon fill="midnightblue" stroke="midnightblue" points="605.707,-260.5 615.707,-257 605.707,-253.5 605.707,-260.5"/>
</g>
<!-- Node11 -->
<g id="node11" class="node"><title>Node11</title>
<g id="a_node11"><a xlink:href="../../d4/d67/lms_8c.html#ad1d6c875ff429888b51dd1155f0311ad" target="_top" xlink:title="ivector">
<polygon fill="white" stroke="black" points="523,-228.5 523,-247.5 569,-247.5 569,-228.5 523,-228.5"/>
<text text-anchor="middle" x="546" y="-235.5" font-family="Helvetica,sans-Serif" font-size="10.00">ivector</text>
</a>
</g>
</g>
<!-- Node3&#45;&gt;Node11 -->
<g id="edge10" class="edge"><title>Node3&#45;&gt;Node11</title>
<path fill="none" stroke="midnightblue" d="M438.451,-254.594C456.995,-251.706 488.584,-246.786 512.566,-243.051"/>
<polygon fill="midnightblue" stroke="midnightblue" points="513.303,-246.479 522.646,-241.481 512.226,-239.562 513.303,-246.479"/>
</g>
<!-- Node12 -->
<g id="node12" class="node"><title>Node12</title>
<g id="a_node12"><a xlink:href="../../db/de5/recipes_8c.html#a66ff65ad0355ec1f4a7722bcdafc8cd3" target="_top" xlink:title="lubksb">
<polygon fill="white" stroke="black" points="523.5,-190.5 523.5,-209.5 568.5,-209.5 568.5,-190.5 523.5,-190.5"/>
<text text-anchor="middle" x="546" y="-197.5" font-family="Helvetica,sans-Serif" font-size="10.00">lubksb</text>
</a>
</g>
</g>
<!-- Node3&#45;&gt;Node12 -->
<g id="edge11" class="edge"><title>Node3&#45;&gt;Node12</title>
<path fill="none" stroke="midnightblue" d="M438.063,-251.911C448.789,-248.144 463.465,-242.696 476,-237 490.837,-230.258 506.912,-221.715 519.81,-214.537"/>
<polygon fill="midnightblue" stroke="midnightblue" points="521.584,-217.555 528.578,-209.597 518.147,-211.456 521.584,-217.555"/>
</g>
<!-- Node13 -->
<g id="node13" class="node"><title>Node13</title>
<g id="a_node13"><a xlink:href="../../db/de5/recipes_8c.html#a623fec796d9d53e5e4a4d30226547da7" target="_top" xlink:title="ludcmp">
<polygon fill="white" stroke="black" points="522,-152.5 522,-171.5 570,-171.5 570,-152.5 522,-152.5"/>
<text text-anchor="middle" x="546" y="-159.5" font-family="Helvetica,sans-Serif" font-size="10.00">ludcmp</text>
</a>
</g>
</g>
<!-- Node3&#45;&gt;Node13 -->
<g id="edge12" class="edge"><title>Node3&#45;&gt;Node13</title>
<path fill="none" stroke="midnightblue" d="M438.235,-253.98C449.596,-251.121 464.989,-245.907 476,-237 499.004,-218.392 490.572,-201.404 512,-181 513.284,-179.778 514.66,-178.603 516.097,-177.479"/>
<polygon fill="midnightblue" stroke="midnightblue" points="518.423,-180.131 524.74,-171.626 514.497,-174.335 518.423,-180.131"/>
</g>
<!-- Node16 -->
<g id="node16" class="node"><title>Node16</title>
<g id="a_node16"><a xlink:href="../../d4/d67/lms_8c.html#a37bcb1539d76b53344102435e2ab9c91" target="_top" xlink:title="matrix">
<polygon fill="white" stroke="black" points="524,-114.5 524,-133.5 568,-133.5 568,-114.5 524,-114.5"/>
<text text-anchor="middle" x="546" y="-121.5" font-family="Helvetica,sans-Serif" font-size="10.00">matrix</text>
</a>
</g>
</g>
<!-- Node3&#45;&gt;Node16 -->
<g id="edge17" class="edge"><title>Node3&#45;&gt;Node16</title>
<path fill="none" stroke="midnightblue" d="M438.309,-254.705C450.015,-252.209 465.822,-247.128 476,-237 507.711,-205.444 482.939,-177.012 512,-143 513.122,-141.687 514.359,-140.444 515.675,-139.271"/>
<polygon fill="midnightblue" stroke="midnightblue" points="517.83,-142.031 523.839,-133.305 513.7,-136.379 517.83,-142.031"/>
</g>
<!-- Node17 -->
<g id="node17" class="node"><title>Node17</title>
<g id="a_node17"><a xlink:href="../../d8/d91/rounding_8c.html#aa8d7512cdf5bfbf811cef6a8a091c679" target="_top" xlink:title="round2csd">
<polygon fill="white" stroke="black" points="515,-76.5 515,-95.5 577,-95.5 577,-76.5 515,-76.5"/>
<text text-anchor="middle" x="546" y="-83.5" font-family="Helvetica,sans-Serif" font-size="10.00">round2csd</text>
</a>
</g>
</g>
<!-- Node3&#45;&gt;Node17 -->
<g id="edge18" class="edge"><title>Node3&#45;&gt;Node17</title>
<path fill="none" stroke="midnightblue" d="M438.11,-255.074C450.022,-252.769 466.206,-247.767 476,-237 516.918,-192.017 474.846,-153.139 512,-105 512.795,-103.97 513.663,-102.985 514.588,-102.046"/>
<polygon fill="midnightblue" stroke="midnightblue" points="516.894,-104.684 522.531,-95.7135 512.53,-99.2114 516.894,-104.684"/>
</g>
<!-- Node21 -->
<g id="node21" class="node"><title>Node21</title>
<g id="a_node21"><a xlink:href="../../d8/d91/rounding_8c.html#aca2670cc0fbf948a6b9cb670047c9d5b" target="_top" xlink:title="round2int">
<polygon fill="white" stroke="black" points="518,-38.5 518,-57.5 574,-57.5 574,-38.5 518,-38.5"/>
<text text-anchor="middle" x="546" y="-45.5" font-family="Helvetica,sans-Serif" font-size="10.00">round2int</text>
</a>
</g>
</g>
<!-- Node3&#45;&gt;Node21 -->
<g id="edge22" class="edge"><title>Node3&#45;&gt;Node21</title>
<path fill="none" stroke="midnightblue" d="M438.278,-255.222C450.287,-253.004 466.52,-248.045 476,-237 526.302,-178.397 466.591,-129.471 512,-67 512.765,-65.9472 513.608,-64.944 514.512,-63.9889"/>
<polygon fill="midnightblue" stroke="midnightblue" points="516.824,-66.6195 522.362,-57.587 512.4,-61.1947 516.824,-66.6195"/>
</g>
<!-- Node22 -->
<g id="node22" class="node"><title>Node22</title>
<g id="a_node22"><a xlink:href="../../d4/d67/lms_8c.html#ac81ca32708341eb34b25d515d00bc748" target="_top" xlink:title="vector">
<polygon fill="white" stroke="black" points="524,-0.5 524,-19.5 568,-19.5 568,-0.5 524,-0.5"/>
<text text-anchor="middle" x="546" y="-7.5" font-family="Helvetica,sans-Serif" font-size="10.00">vector</text>
</a>
</g>
</g>
<!-- Node3&#45;&gt;Node22 -->
<g id="edge24" class="edge"><title>Node3&#45;&gt;Node22</title>
<path fill="none" stroke="midnightblue" d="M438.389,-255.315C450.462,-253.151 466.727,-248.22 476,-237 535.768,-164.683 458.263,-105.905 512,-29 513.136,-27.3743 514.459,-25.8687 515.909,-24.4773"/>
<polygon fill="midnightblue" stroke="midnightblue" points="518.05,-27.2467 523.949,-18.446 513.85,-21.6472 518.05,-27.2467"/>
</g>
<!-- Node13&#45;&gt;Node10 -->
<g id="edge13" class="edge"><title>Node13&#45;&gt;Node10</title>
<path fill="none" stroke="midnightblue" d="M566.186,-171.656C570.9,-174.397 575.797,-177.577 580,-181 601.243,-198.301 621.546,-222.569 634.236,-238.991"/>
<polygon fill="midnightblue" stroke="midnightblue" points="631.633,-241.352 640.46,-247.212 637.214,-237.127 631.633,-241.352"/>
</g>
<!-- Node14 -->
<g id="node14" class="node"><title>Node14</title>
<g id="a_node14"><a xlink:href="../../db/de5/recipes_8c.html#a208e98f19b2f252315399d02c0594a46" target="_top" xlink:title="nrerror">
<polygon fill="white" stroke="black" points="717,-171.5 717,-190.5 761,-190.5 761,-171.5 717,-171.5"/>
<text text-anchor="middle" x="739" y="-178.5" font-family="Helvetica,sans-Serif" font-size="10.00">nrerror</text>
</a>
</g>
</g>
<!-- Node13&#45;&gt;Node14 -->
<g id="edge14" class="edge"><title>Node13&#45;&gt;Node14</title>
<path fill="none" stroke="midnightblue" d="M570.306,-170.1C583.528,-174.267 600.486,-178.903 616,-181 646.534,-185.127 681.761,-184.564 706.488,-183.308"/>
<polygon fill="midnightblue" stroke="midnightblue" points="706.944,-186.788 716.726,-182.718 706.541,-179.799 706.944,-186.788"/>
</g>
<!-- Node15 -->
<g id="node15" class="node"><title>Node15</title>
<g id="a_node15"><a xlink:href="../../db/de5/recipes_8c.html#a5e6092211a5f7e2d6ae9282379d3c604" target="_top" xlink:title="vector">
<polygon fill="white" stroke="black" points="626.5,-152.5 626.5,-171.5 670.5,-171.5 670.5,-152.5 626.5,-152.5"/>
<text text-anchor="middle" x="648.5" y="-159.5" font-family="Helvetica,sans-Serif" font-size="10.00">vector</text>
</a>
</g>
</g>
<!-- Node13&#45;&gt;Node15 -->
<g id="edge15" class="edge"><title>Node13&#45;&gt;Node15</title>
<path fill="none" stroke="midnightblue" d="M570.057,-162C583.673,-162 601.102,-162 615.977,-162"/>
<polygon fill="midnightblue" stroke="midnightblue" points="616.265,-165.5 626.265,-162 616.265,-158.5 616.265,-165.5"/>
</g>
<!-- Node15&#45;&gt;Node14 -->
<g id="edge16" class="edge"><title>Node15&#45;&gt;Node14</title>
<path fill="none" stroke="midnightblue" d="M670.923,-166.599C681.685,-168.91 694.928,-171.753 706.796,-174.301"/>
<polygon fill="midnightblue" stroke="midnightblue" points="706.262,-177.766 716.774,-176.443 707.731,-170.922 706.262,-177.766"/>
</g>
<!-- Node18 -->
<g id="node18" class="node"><title>Node18</title>
<g id="a_node18"><a xlink:href="../../d8/d91/rounding_8c.html#a2cff6b77e73872659c44b0c99f6bd97f" target="_top" xlink:title="csd2int">
<polygon fill="white" stroke="black" points="624.5,-114.5 624.5,-133.5 672.5,-133.5 672.5,-114.5 624.5,-114.5"/>
<text text-anchor="middle" x="648.5" y="-121.5" font-family="Helvetica,sans-Serif" font-size="10.00">csd2int</text>
</a>
</g>
</g>
<!-- Node17&#45;&gt;Node18 -->
<g id="edge19" class="edge"><title>Node17&#45;&gt;Node18</title>
<path fill="none" stroke="midnightblue" d="M572.36,-95.589C585.181,-100.437 600.894,-106.378 614.631,-111.572"/>
<polygon fill="midnightblue" stroke="midnightblue" points="613.623,-114.933 624.214,-115.195 616.099,-108.385 613.623,-114.933"/>
</g>
<!-- Node19 -->
<g id="node19" class="node"><title>Node19</title>
<g id="a_node19"><a xlink:href="../../db/d82/wglew_8h.html#a500a82aecba06f4550f6849b8099ca21" target="_top" xlink:title="int">
<polygon fill="white" stroke="black" points="634,-38.5 634,-57.5 663,-57.5 663,-38.5 634,-38.5"/>
<text text-anchor="middle" x="648.5" y="-45.5" font-family="Helvetica,sans-Serif" font-size="10.00">int</text>
</a>
</g>
</g>
<!-- Node17&#45;&gt;Node19 -->
<g id="edge20" class="edge"><title>Node17&#45;&gt;Node19</title>
<path fill="none" stroke="midnightblue" d="M572.36,-76.411C588.388,-70.3509 608.934,-62.582 624.49,-56.7003"/>
<polygon fill="midnightblue" stroke="midnightblue" points="625.778,-59.9552 633.894,-53.1446 623.302,-53.4076 625.778,-59.9552"/>
</g>
<!-- Node20 -->
<g id="node20" class="node"><title>Node20</title>
<g id="a_node20"><a xlink:href="../../d8/d91/rounding_8c.html#ab3a64ec72c5600bc114621e93309c8c3" target="_top" xlink:title="int2csd">
<polygon fill="white" stroke="black" points="624.5,-76.5 624.5,-95.5 672.5,-95.5 672.5,-76.5 624.5,-76.5"/>
<text text-anchor="middle" x="648.5" y="-83.5" font-family="Helvetica,sans-Serif" font-size="10.00">int2csd</text>
</a>
</g>
</g>
<!-- Node17&#45;&gt;Node20 -->
<g id="edge21" class="edge"><title>Node17&#45;&gt;Node20</title>
<path fill="none" stroke="midnightblue" d="M577.153,-86C588.87,-86 602.331,-86 614.321,-86"/>
<polygon fill="midnightblue" stroke="midnightblue" points="614.398,-89.5001 624.398,-86 614.398,-82.5001 614.398,-89.5001"/>
</g>
<!-- Node21&#45;&gt;Node19 -->
<g id="edge23" class="edge"><title>Node21&#45;&gt;Node19</title>
<path fill="none" stroke="midnightblue" d="M574.197,-48C589.576,-48 608.634,-48 623.462,-48"/>
<polygon fill="midnightblue" stroke="midnightblue" points="623.846,-51.5001 633.846,-48 623.846,-44.5001 623.846,-51.5001"/>
</g>
</g>
</svg>
        <g id="navigator" transform="translate(0 0)" fill="#404254">
                <rect fill="#f2f5e9" fill-opacity="0.5" stroke="#606060" stroke-width=".5" x="0" y="0" width="60" height="60"/>
                <use id="zoomplus" xlink:href="#zoomPlus" x="17" y="9" onmousedown="handleZoom(evt,'in')"/>
                <use id="zoomminus" xlink:href="#zoomMin" x="42" y="9" onmousedown="handleZoom(evt,'out')"/>
                <use id="reset" xlink:href="#resetDef" x="30" y="36" onmousedown="handleReset()"/>
                <g id="arrowUp" xlink:href="#dirArrow" transform="translate(30 24)" onmousedown="handlePan(0,-1)">
                  <use xlink:href="#rim" fill="#404040">
                        <set attributeName="fill" to="#808080" begin="arrowUp.mouseover" end="arrowUp.mouseout"/>
                  </use>
                  <path fill="none" stroke="white" stroke-width="1.5" d="M0,-3.0v7 M-2.5,-0.5L0,-3.0L2.5,-0.5"/>
                </g>
                <g id="arrowRight" xlink:href="#dirArrow" transform="rotate(90) translate(36 -43)" onmousedown="handlePan(1,0)">
                  <use xlink:href="#rim" fill="#404040">
                        <set attributeName="fill" to="#808080" begin="arrowRight.mouseover" end="arrowRight.mouseout"/>
                  </use>
                  <path fill="none" stroke="white" stroke-width="1.5" d="M0,-3.0v7 M-2.5,-0.5L0,-3.0L2.5,-0.5"/>
                </g>
                <g id="arrowDown" xlink:href="#dirArrow" transform="rotate(180) translate(-30 -48)" onmousedown="handlePan(0,1)">
                  <use xlink:href="#rim" fill="#404040">
                        <set attributeName="fill" to="#808080" begin="arrowDown.mouseover" end="arrowDown.mouseout"/>
                  </use>
                  <path fill="none" stroke="white" stroke-width="1.5" d="M0,-3.0v7 M-2.5,-0.5L0,-3.0L2.5,-0.5"/>
                </g>
                <g id="arrowLeft" xlink:href="#dirArrow" transform="rotate(270) translate(-36 17)" onmousedown="handlePan(-1,0)">
                  <use xlink:href="#rim" fill="#404040">
                        <set attributeName="fill" to="#808080" begin="arrowLeft.mouseover" end="arrowLeft.mouseout"/>
                  </use>
                  <path fill="none" stroke="white" stroke-width="1.5" d="M0,-3.0v7 M-2.5,-0.5L0,-3.0L2.5,-0.5"/>
                </g>
        </g>
        <svg viewBox="0 0 15 15" width="100%" height="30px" preserveAspectRatio="xMaxYMin meet">
         <g id="arrow_out" transform="scale(0.3 0.3)">
          <a xlink:href="classlms7002__pnlXBUF__view_ada732c4f5ad4a255a87c9a43b24317a1_cgraph_org.svg" target="_base">
           <rect id="button" ry="5" rx="5" y="6" x="6" height="38" width="38"
                fill="#f2f5e9" fill-opacity="0.5" stroke="#606060" stroke-width="1.0"/>
           <path id="arrow"
             d="M 11.500037,31.436501 C 11.940474,20.09759 22.043105,11.32322 32.158766,21.979434 L 37.068811,17.246167 C 37.068811,17.246167 37.088388,32 37.088388,32 L 22.160133,31.978069 C 22.160133,31.978069 26.997745,27.140456 26.997745,27.140456 C 18.528582,18.264221 13.291696,25.230495 11.500037,31.436501 z"
             style="fill:#404040;"/>
          </a>
         </g>
        </svg>
</svg>
