<?xml version="1.0" encoding="UTF-8" standalone="no"?>
<!DOCTYPE svg PUBLIC "-//W3C//DTD SVG 1.1//EN"
 "http://www.w3.org/Graphics/SVG/1.1/DTD/svg11.dtd">
<!-- Generated by graphviz version 2.38.0 (20140413.2041)
 -->
<!-- Title: glxewGetExtension Pages: 1 -->
<svg width="377pt" height="104pt"
 viewBox="0.00 0.00 377.00 104.00" xmlns="http://www.w3.org/2000/svg" xmlns:xlink="http://www.w3.org/1999/xlink">
<g id="graph0" class="graph" transform="scale(1 1) rotate(0) translate(4 100)">
<title>glxewGetExtension</title>
<polygon fill="white" stroke="none" points="-4,4 -4,-100 373,-100 373,4 -4,4"/>
<!-- Node1 -->
<g id="node1" class="node"><title>Node1</title>
<polygon fill="#bfbfbf" stroke="black" points="0,-38.5 0,-57.5 101,-57.5 101,-38.5 0,-38.5"/>
<text text-anchor="middle" x="50.5" y="-45.5" font-family="Helvetica,sans-Serif" font-size="10.00">glxewGetExtension</text>
</g>
<!-- Node2 -->
<g id="node2" class="node"><title>Node2</title>
<g id="a_node2"><a xlink:href="../../de/dd7/glew_8c.html#a648f8e299dba9e985b6a331432a25c73" target="_top" xlink:title="_glewSearchExtension">
<polygon fill="white" stroke="black" points="137,-38.5 137,-57.5 253,-57.5 253,-38.5 137,-38.5"/>
<text text-anchor="middle" x="195" y="-45.5" font-family="Helvetica,sans-Serif" font-size="10.00">_glewSearchExtension</text>
</a>
</g>
</g>
<!-- Node1&#45;&gt;Node2 -->
<g id="edge1" class="edge"><title>Node1&#45;&gt;Node2</title>
<path fill="none" stroke="midnightblue" d="M101.34,-48C109.442,-48 117.952,-48 126.393,-48"/>
<polygon fill="midnightblue" stroke="midnightblue" points="126.624,-51.5001 136.624,-48 126.624,-44.5001 126.624,-51.5001"/>
</g>
<!-- Node3 -->
<g id="node3" class="node"><title>Node3</title>
<g id="a_node3"><a xlink:href="../../de/dd7/glew_8c.html#adfc46f26a24cd02ce8336a23c1dec5cf" target="_top" xlink:title="_glewStrLen">
<polygon fill="white" stroke="black" points="293.5,-76.5 293.5,-95.5 364.5,-95.5 364.5,-76.5 293.5,-76.5"/>
<text text-anchor="middle" x="329" y="-83.5" font-family="Helvetica,sans-Serif" font-size="10.00">_glewStrLen</text>
</a>
</g>
</g>
<!-- Node1&#45;&gt;Node3 -->
<g id="edge5" class="edge"><title>Node1&#45;&gt;Node3</title>
<path fill="none" stroke="midnightblue" d="M90.0435,-57.592C104.674,-60.9618 121.535,-64.5216 137,-67 186.625,-74.953 244.072,-80.1298 282.899,-83.0411"/>
<polygon fill="midnightblue" stroke="midnightblue" points="283.107,-86.5655 293.335,-83.8026 283.616,-79.584 283.107,-86.5655"/>
</g>
<!-- Node6 -->
<g id="node6" class="node"><title>Node6</title>
<g id="a_node6"><a xlink:href="../../d5/d82/glxew_8h.html#ae3fde424d32aa1e0014eff8aeba288e3" target="_top" xlink:title="glXGetClientString">
<polygon fill="white" stroke="black" points="146,-0.5 146,-19.5 244,-19.5 244,-0.5 146,-0.5"/>
<text text-anchor="middle" x="195" y="-7.5" font-family="Helvetica,sans-Serif" font-size="10.00">glXGetClientString</text>
</a>
</g>
</g>
<!-- Node1&#45;&gt;Node6 -->
<g id="edge6" class="edge"><title>Node1&#45;&gt;Node6</title>
<path fill="none" stroke="midnightblue" d="M87.4588,-38.411C105.939,-33.4831 128.656,-27.4251 148.359,-22.1709"/>
<polygon fill="midnightblue" stroke="midnightblue" points="149.292,-25.5445 158.053,-19.5859 147.489,-18.7808 149.292,-25.5445"/>
</g>
<!-- Node2&#45;&gt;Node3 -->
<g id="edge2" class="edge"><title>Node2&#45;&gt;Node3</title>
<path fill="none" stroke="midnightblue" d="M229.309,-57.589C246.193,-62.4494 266.895,-68.4091 284.971,-73.6127"/>
<polygon fill="midnightblue" stroke="midnightblue" points="284.123,-77.011 294.701,-76.4141 286.06,-70.2842 284.123,-77.011"/>
</g>
<!-- Node4 -->
<g id="node4" class="node"><title>Node4</title>
<g id="a_node4"><a xlink:href="../../de/dd7/glew_8c.html#ae88068e72943ed76a7033c4d22a5bde9" target="_top" xlink:title="_glewStrCLen">
<polygon fill="white" stroke="black" points="290,-38.5 290,-57.5 368,-57.5 368,-38.5 290,-38.5"/>
<text text-anchor="middle" x="329" y="-45.5" font-family="Helvetica,sans-Serif" font-size="10.00">_glewStrCLen</text>
</a>
</g>
</g>
<!-- Node2&#45;&gt;Node4 -->
<g id="edge3" class="edge"><title>Node2&#45;&gt;Node4</title>
<path fill="none" stroke="midnightblue" d="M253.129,-48C261.947,-48 270.979,-48 279.582,-48"/>
<polygon fill="midnightblue" stroke="midnightblue" points="279.819,-51.5001 289.819,-48 279.819,-44.5001 279.819,-51.5001"/>
</g>
<!-- Node5 -->
<g id="node5" class="node"><title>Node5</title>
<g id="a_node5"><a xlink:href="../../de/dd7/glew_8c.html#a941ae0b5d6871d2836e728fcfd667ca9" target="_top" xlink:title="_glewStrSame">
<polygon fill="white" stroke="black" points="289,-0.5 289,-19.5 369,-19.5 369,-0.5 289,-0.5"/>
<text text-anchor="middle" x="329" y="-7.5" font-family="Helvetica,sans-Serif" font-size="10.00">_glewStrSame</text>
</a>
</g>
</g>
<!-- Node2&#45;&gt;Node5 -->
<g id="edge4" class="edge"><title>Node2&#45;&gt;Node5</title>
<path fill="none" stroke="midnightblue" d="M229.309,-38.411C246.193,-33.5506 266.895,-27.5909 284.971,-22.3873"/>
<polygon fill="midnightblue" stroke="midnightblue" points="286.06,-25.7158 294.701,-19.5859 284.123,-18.989 286.06,-25.7158"/>
</g>
</g>
</svg>
