<?xml version="1.0" encoding="UTF-8" standalone="no"?>
<!DOCTYPE svg PUBLIC "-//W3C//DTD SVG 1.1//EN"
 "http://www.w3.org/Graphics/SVG/1.1/DTD/svg11.dtd">
<!-- Generated by graphviz version 2.38.0 (20140413.2041)
 -->
<!-- Title: MCU_RunProcedure Pages: 1 -->
<!--zoomable 83 -->
<svg id="main" version="1.1" xmlns="http://www.w3.org/2000/svg" xmlns:xlink="http://www.w3.org/1999/xlink" xml:space="preserve" onload="init(evt)">
<style type="text/css"><![CDATA[
.edge:hover path { stroke: red; }
.edge:hover polygon { stroke: red; fill: red; }
]]></style>
<script type="text/javascript"><![CDATA[
var edges = document.getElementsByTagName('g');
if (edges && edges.length) {
  for (var i=0;i<edges.length;i++) {
    if (edges[i].id.substr(0,4)=='edge') {
      edges[i].setAttribute('class','edge');
    }
  }
}
]]></script>
        <defs>
                <circle id="rim" cx="0" cy="0" r="7"/>
                <circle id="rim2" cx="0" cy="0" r="3.5"/>
                <g id="zoomPlus">
                        <use xlink:href="#rim" fill="#404040">
                                <set attributeName="fill" to="#808080" begin="zoomplus.mouseover" end="zoomplus.mouseout"/>
                        </use>
                        <path d="M-4,0h8M0,-4v8" fill="none" stroke="white" stroke-width="1.5" pointer-events="none"/>
                </g>
                <g id="zoomMin">
                        <use xlink:href="#rim" fill="#404040">
                                <set attributeName="fill" to="#808080" begin="zoomminus.mouseover" end="zoomminus.mouseout"/>
                        </use>
                        <path d="M-4,0h8" fill="none" stroke="white" stroke-width="1.5" pointer-events="none"/>
                </g>
                <g id="dirArrow">
                        <path fill="none" stroke="white" stroke-width="1.5" d="M0,-3.0v7 M-2.5,-0.5L0,-3.0L2.5,-0.5"/>
                </g>
               <g id="resetDef">
                       <use xlink:href="#rim2" fill="#404040">
                               <set attributeName="fill" to="#808080" begin="reset.mouseover" end="reset.mouseout"/>
                       </use>
               </g>
        </defs>

<script type="text/javascript">
var viewWidth = 567;
var viewHeight = 83;
var sectionId = 'dynsection-3';
</script>
<script xlink:href="../../svgpan.js"/>
<svg id="graph" class="graph">
<g id="viewport">
<title>MCU_RunProcedure</title>
<polygon fill="white" stroke="none" points="-4,4 -4,-79.4053 563,-79.4053 563,4 -4,4"/>
<!-- Node1 -->
<g id="node1" class="node"><title>Node1</title>
<polygon fill="#bfbfbf" stroke="black" points="0,-36.9053 0,-55.9053 107,-55.9053 107,-36.9053 0,-36.9053"/>
<text text-anchor="middle" x="53.5" y="-43.9053" font-family="Helvetica,sans-Serif" font-size="10.00">MCU_RunProcedure</text>
</g>
<!-- Node2 -->
<g id="node2" class="node"><title>Node2</title>
<g id="a_node2"><a xlink:href="../../dd/d0b/mcu__program_2host__src_2main_8cpp.html#a2bb1d2fcd6182ef32aff315f85d13c53" target="_top" xlink:title="DCIQ">
<polygon fill="white" stroke="black" points="442,-55.9053 442,-74.9053 484,-74.9053 484,-55.9053 442,-55.9053"/>
<text text-anchor="middle" x="463" y="-62.9053" font-family="Helvetica,sans-Serif" font-size="10.00">DCIQ</text>
</a>
</g>
</g>
<!-- Node1&#45;&gt;Node2 -->
<g id="edge1" class="edge"><title>Node1&#45;&gt;Node2</title>
<path fill="none" stroke="midnightblue" d="M101.61,-58.1263C114.912,-60.9967 129.454,-63.7243 143,-65.4053 258.579,-79.7479 288.646,-75.4987 405,-70.4053 417.306,-69.8665 431.064,-68.6766 441.98,-67.5927"/>
<polygon fill="midnightblue" stroke="midnightblue" points="102.238,-54.6804 91.7155,-55.9184 100.713,-61.5124 102.238,-54.6804"/>
</g>
<!-- Node4 -->
<g id="node4" class="node"><title>Node4</title>
<g id="a_node4"><a xlink:href="../../dd/d0b/mcu__program_2host__src_2main_8cpp.html#ad4dcf2055b7114f8eacfa8cb11e5bbd5" target="_top" xlink:title="Filters">
<polygon fill="white" stroke="black" points="441,-17.9053 441,-36.9053 485,-36.9053 485,-17.9053 441,-17.9053"/>
<text text-anchor="middle" x="463" y="-24.9053" font-family="Helvetica,sans-Serif" font-size="10.00">Filters</text>
</a>
</g>
</g>
<!-- Node1&#45;&gt;Node4 -->
<g id="edge3" class="edge"><title>Node1&#45;&gt;Node4</title>
<path fill="none" stroke="midnightblue" d="M105.787,-34.6896C117.951,-32.1068 130.906,-29.5151 143,-27.4053 258.013,-7.34118 289.757,10.2961 405,-8.40526 417.15,-10.3769 430.209,-14.5677 440.759,-18.513"/>
<polygon fill="midnightblue" stroke="midnightblue" points="104.829,-31.3158 95.792,-36.8463 106.305,-38.1583 104.829,-31.3158"/>
</g>
<!-- Node5 -->
<g id="node5" class="node"><title>Node5</title>
<g id="a_node5"><a xlink:href="../../d1/d10/mcu_8h.html#a6217894b4b31634cfdd60789e8978468" target="_top" xlink:title="MCU_SetParameter">
<polygon fill="white" stroke="black" points="143,-36.9053 143,-55.9053 248,-55.9053 248,-36.9053 143,-36.9053"/>
<text text-anchor="middle" x="195.5" y="-43.9053" font-family="Helvetica,sans-Serif" font-size="10.00">MCU_SetParameter</text>
</a>
</g>
</g>
<!-- Node1&#45;&gt;Node5 -->
<g id="edge5" class="edge"><title>Node1&#45;&gt;Node5</title>
<path fill="none" stroke="midnightblue" d="M117.26,-46.4053C125.734,-46.4053 134.351,-46.4053 142.607,-46.4053"/>
<polygon fill="midnightblue" stroke="midnightblue" points="117.029,-42.9054 107.029,-46.4053 117.029,-49.9054 117.029,-42.9054"/>
</g>
<!-- Node3 -->
<g id="node3" class="node"><title>Node3</title>
<g id="a_node3"><a xlink:href="../../dd/d0b/mcu__program_2host__src_2main_8cpp.html#a3c04138a5bfe5d72780bb7e82a18e627" target="_top" xlink:title="main">
<polygon fill="white" stroke="black" points="521,-36.9053 521,-55.9053 559,-55.9053 559,-36.9053 521,-36.9053"/>
<text text-anchor="middle" x="540" y="-43.9053" font-family="Helvetica,sans-Serif" font-size="10.00">main</text>
</a>
</g>
</g>
<!-- Node2&#45;&gt;Node3 -->
<g id="edge2" class="edge"><title>Node2&#45;&gt;Node3</title>
<path fill="none" stroke="midnightblue" d="M493.999,-57.8056C503.106,-55.4983 512.829,-53.0352 520.898,-50.991"/>
<polygon fill="midnightblue" stroke="midnightblue" points="492.933,-54.465 484.099,-60.3136 494.652,-61.2506 492.933,-54.465"/>
</g>
<!-- Node4&#45;&gt;Node3 -->
<g id="edge4" class="edge"><title>Node4&#45;&gt;Node3</title>
<path fill="none" stroke="midnightblue" d="M495.246,-35.3208C504.01,-37.5412 513.244,-39.8804 520.958,-41.8346"/>
<polygon fill="midnightblue" stroke="midnightblue" points="495.845,-31.8621 485.291,-32.7991 494.126,-38.6477 495.845,-31.8621"/>
</g>
<!-- Node5&#45;&gt;Node2 -->
<g id="edge9" class="edge"><title>Node5&#45;&gt;Node2</title>
<path fill="none" stroke="midnightblue" d="M258.003,-50.8066C317.245,-55.0461 403.388,-61.2108 441.987,-63.973"/>
<polygon fill="midnightblue" stroke="midnightblue" points="258.23,-47.314 248.006,-50.0912 257.731,-54.2961 258.23,-47.314"/>
</g>
<!-- Node6 -->
<g id="node6" class="node"><title>Node6</title>
<g id="a_node6"><a xlink:href="../../dd/d0b/mcu__program_2host__src_2main_8cpp.html#afec3045ef2caa0e35ae650a25a908aac" target="_top" xlink:title="UploadMCUParameters">
<polygon fill="white" stroke="black" points="284,-17.9053 284,-36.9053 405,-36.9053 405,-17.9053 284,-17.9053"/>
<text text-anchor="middle" x="344.5" y="-24.9053" font-family="Helvetica,sans-Serif" font-size="10.00">UploadMCUParameters</text>
</a>
</g>
</g>
<!-- Node5&#45;&gt;Node6 -->
<g id="edge6" class="edge"><title>Node5&#45;&gt;Node6</title>
<path fill="none" stroke="midnightblue" d="M258.454,-38.3975C266.867,-37.3103 275.486,-36.1962 283.856,-35.1143"/>
<polygon fill="midnightblue" stroke="midnightblue" points="257.796,-34.9535 248.327,-39.7066 258.693,-41.8958 257.796,-34.9535"/>
</g>
<!-- Node6&#45;&gt;Node2 -->
<g id="edge7" class="edge"><title>Node6&#45;&gt;Node2</title>
<path fill="none" stroke="midnightblue" d="M384.59,-40.1556C403.765,-46.4102 426.058,-53.6817 441.782,-58.8106"/>
<polygon fill="midnightblue" stroke="midnightblue" points="385.49,-36.7679 374.898,-36.9943 383.32,-43.4228 385.49,-36.7679"/>
</g>
<!-- Node6&#45;&gt;Node4 -->
<g id="edge8" class="edge"><title>Node6&#45;&gt;Node4</title>
<path fill="none" stroke="midnightblue" d="M415.31,-27.4053C424.6,-27.4053 433.482,-27.4053 440.958,-27.4053"/>
<polygon fill="midnightblue" stroke="midnightblue" points="415.115,-23.9054 405.115,-27.4053 415.115,-30.9054 415.115,-23.9054"/>
</g>
</g>
</svg>
        <g id="navigator" transform="translate(0 0)" fill="#404254">
                <rect fill="#f2f5e9" fill-opacity="0.5" stroke="#606060" stroke-width=".5" x="0" y="0" width="60" height="60"/>
                <use id="zoomplus" xlink:href="#zoomPlus" x="17" y="9" onmousedown="handleZoom(evt,'in')"/>
                <use id="zoomminus" xlink:href="#zoomMin" x="42" y="9" onmousedown="handleZoom(evt,'out')"/>
                <use id="reset" xlink:href="#resetDef" x="30" y="36" onmousedown="handleReset()"/>
                <g id="arrowUp" xlink:href="#dirArrow" transform="translate(30 24)" onmousedown="handlePan(0,-1)">
                  <use xlink:href="#rim" fill="#404040">
                        <set attributeName="fill" to="#808080" begin="arrowUp.mouseover" end="arrowUp.mouseout"/>
                  </use>
                  <path fill="none" stroke="white" stroke-width="1.5" d="M0,-3.0v7 M-2.5,-0.5L0,-3.0L2.5,-0.5"/>
                </g>
                <g id="arrowRight" xlink:href="#dirArrow" transform="rotate(90) translate(36 -43)" onmousedown="handlePan(1,0)">
                  <use xlink:href="#rim" fill="#404040">
                        <set attributeName="fill" to="#808080" begin="arrowRight.mouseover" end="arrowRight.mouseout"/>
                  </use>
                  <path fill="none" stroke="white" stroke-width="1.5" d="M0,-3.0v7 M-2.5,-0.5L0,-3.0L2.5,-0.5"/>
                </g>
                <g id="arrowDown" xlink:href="#dirArrow" transform="rotate(180) translate(-30 -48)" onmousedown="handlePan(0,1)">
                  <use xlink:href="#rim" fill="#404040">
                        <set attributeName="fill" to="#808080" begin="arrowDown.mouseover" end="arrowDown.mouseout"/>
                  </use>
                  <path fill="none" stroke="white" stroke-width="1.5" d="M0,-3.0v7 M-2.5,-0.5L0,-3.0L2.5,-0.5"/>
                </g>
                <g id="arrowLeft" xlink:href="#dirArrow" transform="rotate(270) translate(-36 17)" onmousedown="handlePan(-1,0)">
                  <use xlink:href="#rim" fill="#404040">
                        <set attributeName="fill" to="#808080" begin="arrowLeft.mouseover" end="arrowLeft.mouseout"/>
                  </use>
                  <path fill="none" stroke="white" stroke-width="1.5" d="M0,-3.0v7 M-2.5,-0.5L0,-3.0L2.5,-0.5"/>
                </g>
        </g>
        <svg viewBox="0 0 15 15" width="100%" height="30px" preserveAspectRatio="xMaxYMin meet">
         <g id="arrow_out" transform="scale(0.3 0.3)">
          <a xlink:href="mcu_8h_a83fb66b64992ec22031ebf80a21d9e17_icgraph_org.svg" target="_base">
           <rect id="button" ry="5" rx="5" y="6" x="6" height="38" width="38"
                fill="#f2f5e9" fill-opacity="0.5" stroke="#606060" stroke-width="1.0"/>
           <path id="arrow"
             d="M 11.500037,31.436501 C 11.940474,20.09759 22.043105,11.32322 32.158766,21.979434 L 37.068811,17.246167 C 37.068811,17.246167 37.088388,32 37.088388,32 L 22.160133,31.978069 C 22.160133,31.978069 26.997745,27.140456 26.997745,27.140456 C 18.528582,18.264221 13.291696,25.230495 11.500037,31.436501 z"
             style="fill:#404040;"/>
          </a>
         </g>
        </svg>
</svg>
