<?xml version="1.0" encoding="UTF-8" standalone="no"?>
<!DOCTYPE svg PUBLIC "-//W3C//DTD SVG 1.1//EN"
 "http://www.w3.org/Graphics/SVG/1.1/DTD/svg11.dtd">
<!-- Generated by graphviz version 2.38.0 (20140413.2041)
 -->
<!-- Title: LMS7002M_Novena_wxgui::OnWriteAll Pages: 1 -->
<svg width="885pt" height="560pt"
 viewBox="0.00 0.00 885.00 560.00" xmlns="http://www.w3.org/2000/svg" xmlns:xlink="http://www.w3.org/1999/xlink">
<g id="graph0" class="graph" transform="scale(1 1) rotate(0) translate(4 556)">
<title>LMS7002M_Novena_wxgui::OnWriteAll</title>
<polygon fill="white" stroke="none" points="-4,4 -4,-556 881,-556 881,4 -4,4"/>
<!-- Node1 -->
<g id="node1" class="node"><title>Node1</title>
<polygon fill="#bfbfbf" stroke="black" points="0,-109 0,-139 136,-139 136,-109 0,-109"/>
<text text-anchor="start" x="8" y="-127" font-family="Helvetica,sans-Serif" font-size="10.00">LMS7002M_Novena_wxgui</text>
<text text-anchor="middle" x="68" y="-116" font-family="Helvetica,sans-Serif" font-size="10.00">::OnWriteAll</text>
</g>
<!-- Node2 -->
<g id="node2" class="node"><title>Node2</title>
<g id="a_node2"><a xlink:href="../../d1/d8c/classLMS7002M__Novena__wxgui.html#a1176f1816b70793737f520ee9cac5e85" target="_top" xlink:title="RX active paths lms_gpio0 | lms_gpio1 RX_A RX_B 0 0 =&gt; no active path 1 0 =&gt; LNAW_A LNAW_B 0 1 =&gt; LNA...">
<polygon fill="white" stroke="black" points="172,-109 172,-139 308,-139 308,-109 172,-109"/>
<text text-anchor="start" x="180" y="-127" font-family="Helvetica,sans-Serif" font-size="10.00">LMS7002M_Novena_wxgui</text>
<text text-anchor="middle" x="240" y="-116" font-family="Helvetica,sans-Serif" font-size="10.00">::ParameterChangeHandler</text>
</a>
</g>
</g>
<!-- Node1&#45;&gt;Node2 -->
<g id="edge1" class="edge"><title>Node1&#45;&gt;Node2</title>
<path fill="none" stroke="midnightblue" d="M136.189,-124C144.502,-124 153.054,-124 161.506,-124"/>
<polygon fill="midnightblue" stroke="midnightblue" points="161.743,-127.5 171.743,-124 161.743,-120.5 161.743,-127.5"/>
</g>
<!-- Node3 -->
<g id="node3" class="node"><title>Node3</title>
<g id="a_node3"><a xlink:href="../../df/de1/lms7__api_8cpp.html#afd3d3c3227c91840a1c127805c3a3032" target="_top" xlink:title="LMS_WriteLMSReg">
<polygon fill="white" stroke="black" points="344,-114.5 344,-133.5 448,-133.5 448,-114.5 344,-114.5"/>
<text text-anchor="middle" x="396" y="-121.5" font-family="Helvetica,sans-Serif" font-size="10.00">LMS_WriteLMSReg</text>
</a>
</g>
</g>
<!-- Node2&#45;&gt;Node3 -->
<g id="edge2" class="edge"><title>Node2&#45;&gt;Node3</title>
<path fill="none" stroke="midnightblue" d="M308.099,-124C316.627,-124 325.32,-124 333.75,-124"/>
<polygon fill="midnightblue" stroke="midnightblue" points="333.874,-127.5 343.874,-124 333.874,-120.5 333.874,-127.5"/>
</g>
<!-- Node4 -->
<g id="node4" class="node"><title>Node4</title>
<g id="a_node4"><a xlink:href="../../d4/d67/lms_8c.html#a0e01e477b1f10e0a63e54de2dd2f8240" target="_top" xlink:title="lms">
<polygon fill="white" stroke="black" points="522,-266.5 522,-285.5 554,-285.5 554,-266.5 522,-266.5"/>
<text text-anchor="middle" x="538" y="-273.5" font-family="Helvetica,sans-Serif" font-size="10.00">lms</text>
</a>
</g>
</g>
<!-- Node3&#45;&gt;Node4 -->
<g id="edge3" class="edge"><title>Node3&#45;&gt;Node4</title>
<path fill="none" stroke="midnightblue" d="M405.758,-133.508C428.837,-158.566 491.578,-226.684 521.161,-258.804"/>
<polygon fill="midnightblue" stroke="midnightblue" points="518.896,-261.511 528.246,-266.495 524.045,-256.769 518.896,-261.511"/>
</g>
<!-- Node24 -->
<g id="node24" class="node"><title>Node24</title>
<g id="a_node24"><a xlink:href="../../d5/d6c/namespacelime.html#adc6af0cf8e0a70f3ef09fac1244f8c48" target="_top" xlink:title="lime::ReportError">
<polygon fill="white" stroke="black" points="492.5,-114.5 492.5,-133.5 583.5,-133.5 583.5,-114.5 492.5,-114.5"/>
<text text-anchor="middle" x="538" y="-121.5" font-family="Helvetica,sans-Serif" font-size="10.00">lime::ReportError</text>
</a>
</g>
</g>
<!-- Node3&#45;&gt;Node24 -->
<g id="edge26" class="edge"><title>Node3&#45;&gt;Node24</title>
<path fill="none" stroke="midnightblue" d="M448.336,-124C459.33,-124 470.986,-124 482.108,-124"/>
<polygon fill="midnightblue" stroke="midnightblue" points="482.138,-127.5 492.138,-124 482.137,-120.5 482.138,-127.5"/>
</g>
<!-- Node26 -->
<g id="node26" class="node"><title>Node26</title>
<g id="a_node26"><a xlink:href="../../d3/d22/classlime_1_1LMS7__Device.html#a22b857a2c380f576811c6ce4dee1fe47" target="_top" xlink:title="lime::LMS7_Device::\lWriteLMSReg">
<polygon fill="white" stroke="black" points="484,-65 484,-95 592,-95 592,-65 484,-65"/>
<text text-anchor="start" x="492" y="-83" font-family="Helvetica,sans-Serif" font-size="10.00">lime::LMS7_Device::</text>
<text text-anchor="middle" x="538" y="-72" font-family="Helvetica,sans-Serif" font-size="10.00">WriteLMSReg</text>
</a>
</g>
</g>
<!-- Node3&#45;&gt;Node26 -->
<g id="edge28" class="edge"><title>Node3&#45;&gt;Node26</title>
<path fill="none" stroke="midnightblue" d="M427.378,-114.453C442.577,-109.676 461.493,-103.731 479.31,-98.1311"/>
<polygon fill="midnightblue" stroke="midnightblue" points="480.574,-101.403 489.065,-95.0654 478.475,-94.7247 480.574,-101.403"/>
</g>
<!-- Node5 -->
<g id="node5" class="node"><title>Node5</title>
<g id="a_node5"><a xlink:href="../../d4/d67/lms_8c.html#a433227191fe883dcb8aa15d291bb29a1" target="_top" xlink:title="Case1F">
<polygon fill="white" stroke="black" points="636.5,-532.5 636.5,-551.5 687.5,-551.5 687.5,-532.5 636.5,-532.5"/>
<text text-anchor="middle" x="662" y="-539.5" font-family="Helvetica,sans-Serif" font-size="10.00">Case1F</text>
</a>
</g>
</g>
<!-- Node4&#45;&gt;Node5 -->
<g id="edge4" class="edge"><title>Node4&#45;&gt;Node5</title>
<path fill="none" stroke="midnightblue" d="M540.084,-285.675C544.522,-321.269 564.206,-446.816 628,-523 628.955,-524.14 629.997,-525.227 631.103,-526.261"/>
<polygon fill="midnightblue" stroke="midnightblue" points="629.015,-529.069 639.099,-532.319 633.242,-523.49 629.015,-529.069"/>
</g>
<!-- Node6 -->
<g id="node6" class="node"><title>Node6</title>
<g id="a_node6"><a xlink:href="../../d4/d67/lms_8c.html#ace0cd8bf61cb9b86b98f0cef03b5a9d9" target="_top" xlink:title="Case2F">
<polygon fill="white" stroke="black" points="636.5,-494.5 636.5,-513.5 687.5,-513.5 687.5,-494.5 636.5,-494.5"/>
<text text-anchor="middle" x="662" y="-501.5" font-family="Helvetica,sans-Serif" font-size="10.00">Case2F</text>
</a>
</g>
</g>
<!-- Node4&#45;&gt;Node6 -->
<g id="edge5" class="edge"><title>Node4&#45;&gt;Node6</title>
<path fill="none" stroke="midnightblue" d="M540.879,-285.932C547.434,-318.234 572.003,-421.856 628,-485 629.014,-486.144 630.115,-487.236 631.277,-488.277"/>
<polygon fill="midnightblue" stroke="midnightblue" points="629.47,-491.292 639.6,-494.395 633.616,-485.652 629.47,-491.292"/>
</g>
<!-- Node7 -->
<g id="node7" class="node"><title>Node7</title>
<g id="a_node7"><a xlink:href="../../d4/d67/lms_8c.html#a5f53b53ccc591e3643c4af2aee2e7f32" target="_top" xlink:title="Case3F">
<polygon fill="white" stroke="black" points="636.5,-456.5 636.5,-475.5 687.5,-475.5 687.5,-456.5 636.5,-456.5"/>
<text text-anchor="middle" x="662" y="-463.5" font-family="Helvetica,sans-Serif" font-size="10.00">Case3F</text>
</a>
</g>
</g>
<!-- Node4&#45;&gt;Node7 -->
<g id="edge6" class="edge"><title>Node4&#45;&gt;Node7</title>
<path fill="none" stroke="midnightblue" d="M541.878,-285.664C550.635,-313.696 579.37,-396.258 628,-447 629.195,-448.247 630.49,-449.437 631.852,-450.569"/>
<polygon fill="midnightblue" stroke="midnightblue" points="629.961,-453.519 640.154,-456.409 633.989,-447.794 629.961,-453.519"/>
</g>
<!-- Node8 -->
<g id="node8" class="node"><title>Node8</title>
<g id="a_node8"><a xlink:href="../../d4/d67/lms_8c.html#a5086763d5b258349bc13d6be7e7d0665" target="_top" xlink:title="Case4F">
<polygon fill="white" stroke="black" points="636.5,-418.5 636.5,-437.5 687.5,-437.5 687.5,-418.5 636.5,-418.5"/>
<text text-anchor="middle" x="662" y="-425.5" font-family="Helvetica,sans-Serif" font-size="10.00">Case4F</text>
</a>
</g>
</g>
<!-- Node4&#45;&gt;Node8 -->
<g id="edge7" class="edge"><title>Node4&#45;&gt;Node8</title>
<path fill="none" stroke="midnightblue" d="M543.567,-285.789C554.977,-309.422 586.799,-370.484 628,-409 629.295,-410.21 630.68,-411.376 632.124,-412.492"/>
<polygon fill="midnightblue" stroke="midnightblue" points="630.537,-415.643 640.787,-418.324 634.446,-409.836 630.537,-415.643"/>
</g>
<!-- Node9 -->
<g id="node9" class="node"><title>Node9</title>
<g id="a_node9"><a xlink:href="../../db/de5/recipes_8c.html#aee25e218394217a134e805ea09fb0fe9" target="_top" xlink:title="free_ivector">
<polygon fill="white" stroke="black" points="628,-380.5 628,-399.5 696,-399.5 696,-380.5 628,-380.5"/>
<text text-anchor="middle" x="662" y="-387.5" font-family="Helvetica,sans-Serif" font-size="10.00">free_ivector</text>
</a>
</g>
</g>
<!-- Node4&#45;&gt;Node9 -->
<g id="edge8" class="edge"><title>Node4&#45;&gt;Node9</title>
<path fill="none" stroke="midnightblue" d="M546.306,-285.506C560.59,-303.67 593.816,-343.907 628,-371 629.768,-372.401 631.651,-373.767 633.587,-375.081"/>
<polygon fill="midnightblue" stroke="midnightblue" points="631.884,-378.143 642.221,-380.466 635.588,-372.204 631.884,-378.143"/>
</g>
<!-- Node10 -->
<g id="node10" class="node"><title>Node10</title>
<g id="a_node10"><a xlink:href="../../db/de5/recipes_8c.html#a3e0d121b098c19c0bdc2429e5b9f1625" target="_top" xlink:title="free_matrix">
<polygon fill="white" stroke="black" points="629.5,-342.5 629.5,-361.5 694.5,-361.5 694.5,-342.5 629.5,-342.5"/>
<text text-anchor="middle" x="662" y="-349.5" font-family="Helvetica,sans-Serif" font-size="10.00">free_matrix</text>
</a>
</g>
</g>
<!-- Node4&#45;&gt;Node10 -->
<g id="edge9" class="edge"><title>Node4&#45;&gt;Node10</title>
<path fill="none" stroke="midnightblue" d="M554.451,-285.625C575.26,-298.588 612.499,-321.786 636.978,-337.035"/>
<polygon fill="midnightblue" stroke="midnightblue" points="635.336,-340.136 645.674,-342.453 639.037,-334.194 635.336,-340.136"/>
</g>
<!-- Node11 -->
<g id="node11" class="node"><title>Node11</title>
<g id="a_node11"><a xlink:href="../../db/de5/recipes_8c.html#a8214a52d888e820222c0382648329c0c" target="_top" xlink:title="free_vector">
<polygon fill="white" stroke="black" points="732,-285.5 732,-304.5 797,-304.5 797,-285.5 732,-285.5"/>
<text text-anchor="middle" x="764.5" y="-292.5" font-family="Helvetica,sans-Serif" font-size="10.00">free_vector</text>
</a>
</g>
</g>
<!-- Node4&#45;&gt;Node11 -->
<g id="edge10" class="edge"><title>Node4&#45;&gt;Node11</title>
<path fill="none" stroke="midnightblue" d="M554.277,-280.288C571.881,-284.989 601.76,-292.23 628,-295 659.289,-298.303 694.869,-298.154 721.716,-297.26"/>
<polygon fill="midnightblue" stroke="midnightblue" points="722.056,-300.749 731.915,-296.87 721.789,-293.754 722.056,-300.749"/>
</g>
<!-- Node12 -->
<g id="node12" class="node"><title>Node12</title>
<g id="a_node12"><a xlink:href="../../d4/d67/lms_8c.html#ad1d6c875ff429888b51dd1155f0311ad" target="_top" xlink:title="ivector">
<polygon fill="white" stroke="black" points="639,-266.5 639,-285.5 685,-285.5 685,-266.5 639,-266.5"/>
<text text-anchor="middle" x="662" y="-273.5" font-family="Helvetica,sans-Serif" font-size="10.00">ivector</text>
</a>
</g>
</g>
<!-- Node4&#45;&gt;Node12 -->
<g id="edge11" class="edge"><title>Node4&#45;&gt;Node12</title>
<path fill="none" stroke="midnightblue" d="M554.451,-276C572.995,-276 604.584,-276 628.566,-276"/>
<polygon fill="midnightblue" stroke="midnightblue" points="628.646,-279.5 638.646,-276 628.645,-272.5 628.646,-279.5"/>
</g>
<!-- Node13 -->
<g id="node13" class="node"><title>Node13</title>
<g id="a_node13"><a xlink:href="../../db/de5/recipes_8c.html#a66ff65ad0355ec1f4a7722bcdafc8cd3" target="_top" xlink:title="lubksb">
<polygon fill="white" stroke="black" points="639.5,-228.5 639.5,-247.5 684.5,-247.5 684.5,-228.5 639.5,-228.5"/>
<text text-anchor="middle" x="662" y="-235.5" font-family="Helvetica,sans-Serif" font-size="10.00">lubksb</text>
</a>
</g>
</g>
<!-- Node4&#45;&gt;Node13 -->
<g id="edge12" class="edge"><title>Node4&#45;&gt;Node13</title>
<path fill="none" stroke="midnightblue" d="M554.451,-271.187C573.19,-265.351 605.251,-255.364 629.321,-247.867"/>
<polygon fill="midnightblue" stroke="midnightblue" points="630.579,-251.141 639.085,-244.826 628.497,-244.458 630.579,-251.141"/>
</g>
<!-- Node14 -->
<g id="node14" class="node"><title>Node14</title>
<g id="a_node14"><a xlink:href="../../db/de5/recipes_8c.html#a623fec796d9d53e5e4a4d30226547da7" target="_top" xlink:title="ludcmp">
<polygon fill="white" stroke="black" points="638,-190.5 638,-209.5 686,-209.5 686,-190.5 638,-190.5"/>
<text text-anchor="middle" x="662" y="-197.5" font-family="Helvetica,sans-Serif" font-size="10.00">ludcmp</text>
</a>
</g>
</g>
<!-- Node4&#45;&gt;Node14 -->
<g id="edge13" class="edge"><title>Node4&#45;&gt;Node14</title>
<path fill="none" stroke="midnightblue" d="M553.668,-266.304C571.201,-254.786 601.5,-235.103 628,-219 630.355,-217.569 632.818,-216.1 635.292,-214.644"/>
<polygon fill="midnightblue" stroke="midnightblue" points="637.234,-217.564 644.122,-209.514 633.717,-211.511 637.234,-217.564"/>
</g>
<!-- Node17 -->
<g id="node17" class="node"><title>Node17</title>
<g id="a_node17"><a xlink:href="../../d4/d67/lms_8c.html#a37bcb1539d76b53344102435e2ab9c91" target="_top" xlink:title="matrix">
<polygon fill="white" stroke="black" points="640,-152.5 640,-171.5 684,-171.5 684,-152.5 640,-152.5"/>
<text text-anchor="middle" x="662" y="-159.5" font-family="Helvetica,sans-Serif" font-size="10.00">matrix</text>
</a>
</g>
</g>
<!-- Node4&#45;&gt;Node17 -->
<g id="edge18" class="edge"><title>Node4&#45;&gt;Node17</title>
<path fill="none" stroke="midnightblue" d="M546.306,-266.494C560.59,-248.33 593.816,-208.093 628,-181 629.768,-179.599 631.651,-178.233 633.587,-176.919"/>
<polygon fill="midnightblue" stroke="midnightblue" points="635.588,-179.796 642.221,-171.534 631.884,-173.857 635.588,-179.796"/>
</g>
<!-- Node18 -->
<g id="node18" class="node"><title>Node18</title>
<g id="a_node18"><a xlink:href="../../d8/d91/rounding_8c.html#aa8d7512cdf5bfbf811cef6a8a091c679" target="_top" xlink:title="round2csd">
<polygon fill="white" stroke="black" points="631,-114.5 631,-133.5 693,-133.5 693,-114.5 631,-114.5"/>
<text text-anchor="middle" x="662" y="-121.5" font-family="Helvetica,sans-Serif" font-size="10.00">round2csd</text>
</a>
</g>
</g>
<!-- Node4&#45;&gt;Node18 -->
<g id="edge19" class="edge"><title>Node4&#45;&gt;Node18</title>
<path fill="none" stroke="midnightblue" d="M543.567,-266.211C554.977,-242.578 586.799,-181.516 628,-143 629.295,-141.79 630.68,-140.624 632.124,-139.508"/>
<polygon fill="midnightblue" stroke="midnightblue" points="634.446,-142.164 640.787,-133.676 630.537,-136.357 634.446,-142.164"/>
</g>
<!-- Node22 -->
<g id="node22" class="node"><title>Node22</title>
<g id="a_node22"><a xlink:href="../../d8/d91/rounding_8c.html#aca2670cc0fbf948a6b9cb670047c9d5b" target="_top" xlink:title="round2int">
<polygon fill="white" stroke="black" points="634,-76.5 634,-95.5 690,-95.5 690,-76.5 634,-76.5"/>
<text text-anchor="middle" x="662" y="-83.5" font-family="Helvetica,sans-Serif" font-size="10.00">round2int</text>
</a>
</g>
</g>
<!-- Node4&#45;&gt;Node22 -->
<g id="edge23" class="edge"><title>Node4&#45;&gt;Node22</title>
<path fill="none" stroke="midnightblue" d="M541.878,-266.336C550.635,-238.304 579.37,-155.742 628,-105 629.195,-103.753 630.49,-102.563 631.852,-101.431"/>
<polygon fill="midnightblue" stroke="midnightblue" points="633.989,-104.206 640.154,-95.5906 629.961,-98.4809 633.989,-104.206"/>
</g>
<!-- Node23 -->
<g id="node23" class="node"><title>Node23</title>
<g id="a_node23"><a xlink:href="../../d4/d67/lms_8c.html#ac81ca32708341eb34b25d515d00bc748" target="_top" xlink:title="vector">
<polygon fill="white" stroke="black" points="640,-38.5 640,-57.5 684,-57.5 684,-38.5 640,-38.5"/>
<text text-anchor="middle" x="662" y="-45.5" font-family="Helvetica,sans-Serif" font-size="10.00">vector</text>
</a>
</g>
</g>
<!-- Node4&#45;&gt;Node23 -->
<g id="edge25" class="edge"><title>Node4&#45;&gt;Node23</title>
<path fill="none" stroke="midnightblue" d="M542.908,-266.353C559.142,-226.346 620.739,-75.188 628,-67 629.146,-65.7078 630.402,-64.4815 631.733,-63.3211"/>
<polygon fill="midnightblue" stroke="midnightblue" points="633.883,-66.0859 639.943,-57.3953 629.786,-60.4099 633.883,-66.0859"/>
</g>
<!-- Node14&#45;&gt;Node11 -->
<g id="edge14" class="edge"><title>Node14&#45;&gt;Node11</title>
<path fill="none" stroke="midnightblue" d="M682.186,-209.656C686.9,-212.397 691.797,-215.577 696,-219 717.243,-236.301 737.546,-260.569 750.236,-276.991"/>
<polygon fill="midnightblue" stroke="midnightblue" points="747.633,-279.352 756.46,-285.212 753.214,-275.127 747.633,-279.352"/>
</g>
<!-- Node15 -->
<g id="node15" class="node"><title>Node15</title>
<g id="a_node15"><a xlink:href="../../db/de5/recipes_8c.html#a208e98f19b2f252315399d02c0594a46" target="_top" xlink:title="nrerror">
<polygon fill="white" stroke="black" points="833,-209.5 833,-228.5 877,-228.5 877,-209.5 833,-209.5"/>
<text text-anchor="middle" x="855" y="-216.5" font-family="Helvetica,sans-Serif" font-size="10.00">nrerror</text>
</a>
</g>
</g>
<!-- Node14&#45;&gt;Node15 -->
<g id="edge15" class="edge"><title>Node14&#45;&gt;Node15</title>
<path fill="none" stroke="midnightblue" d="M686.306,-208.1C699.528,-212.267 716.486,-216.903 732,-219 762.534,-223.127 797.761,-222.564 822.488,-221.308"/>
<polygon fill="midnightblue" stroke="midnightblue" points="822.944,-224.788 832.726,-220.718 822.541,-217.799 822.944,-224.788"/>
</g>
<!-- Node16 -->
<g id="node16" class="node"><title>Node16</title>
<g id="a_node16"><a xlink:href="../../db/de5/recipes_8c.html#a5e6092211a5f7e2d6ae9282379d3c604" target="_top" xlink:title="vector">
<polygon fill="white" stroke="black" points="742.5,-190.5 742.5,-209.5 786.5,-209.5 786.5,-190.5 742.5,-190.5"/>
<text text-anchor="middle" x="764.5" y="-197.5" font-family="Helvetica,sans-Serif" font-size="10.00">vector</text>
</a>
</g>
</g>
<!-- Node14&#45;&gt;Node16 -->
<g id="edge16" class="edge"><title>Node14&#45;&gt;Node16</title>
<path fill="none" stroke="midnightblue" d="M686.057,-200C699.673,-200 717.102,-200 731.977,-200"/>
<polygon fill="midnightblue" stroke="midnightblue" points="732.265,-203.5 742.265,-200 732.265,-196.5 732.265,-203.5"/>
</g>
<!-- Node16&#45;&gt;Node15 -->
<g id="edge17" class="edge"><title>Node16&#45;&gt;Node15</title>
<path fill="none" stroke="midnightblue" d="M786.923,-204.599C797.685,-206.91 810.928,-209.753 822.796,-212.301"/>
<polygon fill="midnightblue" stroke="midnightblue" points="822.262,-215.766 832.774,-214.443 823.731,-208.922 822.262,-215.766"/>
</g>
<!-- Node19 -->
<g id="node19" class="node"><title>Node19</title>
<g id="a_node19"><a xlink:href="../../d8/d91/rounding_8c.html#a2cff6b77e73872659c44b0c99f6bd97f" target="_top" xlink:title="csd2int">
<polygon fill="white" stroke="black" points="740.5,-152.5 740.5,-171.5 788.5,-171.5 788.5,-152.5 740.5,-152.5"/>
<text text-anchor="middle" x="764.5" y="-159.5" font-family="Helvetica,sans-Serif" font-size="10.00">csd2int</text>
</a>
</g>
</g>
<!-- Node18&#45;&gt;Node19 -->
<g id="edge20" class="edge"><title>Node18&#45;&gt;Node19</title>
<path fill="none" stroke="midnightblue" d="M688.36,-133.589C701.181,-138.437 716.894,-144.378 730.631,-149.572"/>
<polygon fill="midnightblue" stroke="midnightblue" points="729.623,-152.933 740.214,-153.195 732.099,-146.385 729.623,-152.933"/>
</g>
<!-- Node20 -->
<g id="node20" class="node"><title>Node20</title>
<g id="a_node20"><a xlink:href="../../db/d82/wglew_8h.html#a500a82aecba06f4550f6849b8099ca21" target="_top" xlink:title="int">
<polygon fill="white" stroke="black" points="750,-76.5 750,-95.5 779,-95.5 779,-76.5 750,-76.5"/>
<text text-anchor="middle" x="764.5" y="-83.5" font-family="Helvetica,sans-Serif" font-size="10.00">int</text>
</a>
</g>
</g>
<!-- Node18&#45;&gt;Node20 -->
<g id="edge21" class="edge"><title>Node18&#45;&gt;Node20</title>
<path fill="none" stroke="midnightblue" d="M688.36,-114.411C704.388,-108.351 724.934,-100.582 740.49,-94.7003"/>
<polygon fill="midnightblue" stroke="midnightblue" points="741.778,-97.9552 749.894,-91.1446 739.302,-91.4076 741.778,-97.9552"/>
</g>
<!-- Node21 -->
<g id="node21" class="node"><title>Node21</title>
<g id="a_node21"><a xlink:href="../../d8/d91/rounding_8c.html#ab3a64ec72c5600bc114621e93309c8c3" target="_top" xlink:title="int2csd">
<polygon fill="white" stroke="black" points="740.5,-114.5 740.5,-133.5 788.5,-133.5 788.5,-114.5 740.5,-114.5"/>
<text text-anchor="middle" x="764.5" y="-121.5" font-family="Helvetica,sans-Serif" font-size="10.00">int2csd</text>
</a>
</g>
</g>
<!-- Node18&#45;&gt;Node21 -->
<g id="edge22" class="edge"><title>Node18&#45;&gt;Node21</title>
<path fill="none" stroke="midnightblue" d="M693.153,-124C704.87,-124 718.331,-124 730.321,-124"/>
<polygon fill="midnightblue" stroke="midnightblue" points="730.398,-127.5 740.398,-124 730.398,-120.5 730.398,-127.5"/>
</g>
<!-- Node22&#45;&gt;Node20 -->
<g id="edge24" class="edge"><title>Node22&#45;&gt;Node20</title>
<path fill="none" stroke="midnightblue" d="M690.197,-86C705.576,-86 724.634,-86 739.462,-86"/>
<polygon fill="midnightblue" stroke="midnightblue" points="739.846,-89.5001 749.846,-86 739.846,-82.5001 739.846,-89.5001"/>
</g>
<!-- Node25 -->
<g id="node25" class="node"><title>Node25</title>
<g id="a_node25"><a xlink:href="../../d9/df5/Logger_8cpp.html#ada38bf01d6d691de953ed69268ea6516" target="_top" xlink:title="errToStr">
<polygon fill="white" stroke="black" points="636,-0.5 636,-19.5 688,-19.5 688,-0.5 636,-0.5"/>
<text text-anchor="middle" x="662" y="-7.5" font-family="Helvetica,sans-Serif" font-size="10.00">errToStr</text>
</a>
</g>
</g>
<!-- Node24&#45;&gt;Node25 -->
<g id="edge27" class="edge"><title>Node24&#45;&gt;Node25</title>
<path fill="none" stroke="midnightblue" d="M575.616,-114.428C581.552,-111.736 587.288,-108.32 592,-104 619.253,-79.0125 602.852,-56.1053 628,-29 629.175,-27.7339 630.453,-26.5283 631.802,-25.3841"/>
<polygon fill="midnightblue" stroke="midnightblue" points="633.945,-28.1552 640.067,-19.5078 629.889,-22.4503 633.945,-28.1552"/>
</g>
</g>
</svg>
