<?xml version="1.0" encoding="UTF-8" standalone="no"?>
<!DOCTYPE svg PUBLIC "-//W3C//DTD SVG 1.1//EN"
 "http://www.w3.org/Graphics/SVG/1.1/DTD/svg11.dtd">
<!-- Generated by graphviz version 2.38.0 (20140413.2041)
 -->
<!-- Title: lime::ConnectionHandle::serialize Pages: 1 -->
<svg width="701pt" height="116pt"
 viewBox="0.00 0.00 701.00 115.50" xmlns="http://www.w3.org/2000/svg" xmlns:xlink="http://www.w3.org/1999/xlink">
<g id="graph0" class="graph" transform="scale(1 1) rotate(0) translate(4 111.5)">
<title>lime::ConnectionHandle::serialize</title>
<polygon fill="white" stroke="none" points="-4,4 -4,-111.5 697,-111.5 697,4 -4,4"/>
<!-- Node1 -->
<g id="node1" class="node"><title>Node1</title>
<polygon fill="#bfbfbf" stroke="black" points="0,-44.5 0,-74.5 121,-74.5 121,-44.5 0,-44.5"/>
<text text-anchor="start" x="8" y="-62.5" font-family="Helvetica,sans-Serif" font-size="10.00">lime::ConnectionHandle</text>
<text text-anchor="middle" x="60.5" y="-51.5" font-family="Helvetica,sans-Serif" font-size="10.00">::serialize</text>
</g>
<!-- Node2 -->
<g id="node2" class="node"><title>Node2</title>
<g id="a_node2"><a xlink:href="../../d1/d5d/ConnectionHandle_8h.html#abdcdfe84badb52abc8fd69403bc8d949" target="_top" xlink:title="Check two connection handles for equality. ">
<polygon fill="white" stroke="black" points="185.5,-88 185.5,-107 249.5,-107 249.5,-88 185.5,-88"/>
<text text-anchor="middle" x="217.5" y="-95" font-family="Helvetica,sans-Serif" font-size="10.00">operator==</text>
</a>
</g>
</g>
<!-- Node1&#45;&gt;Node2 -->
<g id="edge1" class="edge"><title>Node1&#45;&gt;Node2</title>
<path fill="none" stroke="midnightblue" d="M131.244,-76.5985C150.172,-81.2388 169.723,-86.032 185.32,-89.8558"/>
<polygon fill="midnightblue" stroke="midnightblue" points="131.973,-73.1736 121.427,-74.1918 130.306,-79.9723 131.973,-73.1736"/>
</g>
<!-- Node3 -->
<g id="node3" class="node"><title>Node3</title>
<g id="a_node3"><a xlink:href="../../d9/d90/classSoapyLMS7.html#a1c9bb20e7fe357b53f4d44e7ca72ef25" target="_top" xlink:title="SoapyLMS7::SoapyLMS7">
<polygon fill="white" stroke="black" points="314,-47 314,-66 443,-66 443,-47 314,-47"/>
<text text-anchor="middle" x="378.5" y="-54" font-family="Helvetica,sans-Serif" font-size="10.00">SoapyLMS7::SoapyLMS7</text>
</a>
</g>
</g>
<!-- Node1&#45;&gt;Node3 -->
<g id="edge2" class="edge"><title>Node1&#45;&gt;Node3</title>
<path fill="none" stroke="midnightblue" d="M131.581,-58.8347C186.087,-58.3172 261.073,-57.6053 313.869,-57.1041"/>
<polygon fill="midnightblue" stroke="midnightblue" points="131.275,-55.3373 121.309,-58.9322 131.341,-62.337 131.275,-55.3373"/>
</g>
<!-- Node4 -->
<g id="node4" class="node"><title>Node4</title>
<g id="a_node4"><a xlink:href="../../d6/d37/classlime_1_1ConnectionHandle.html#adb6efd2bc2b1f27ddd7e83ea99d30933" target="_top" xlink:title="lime::ConnectionHandle\l::ToString">
<polygon fill="white" stroke="black" points="157,-0.5 157,-30.5 278,-30.5 278,-0.5 157,-0.5"/>
<text text-anchor="start" x="165" y="-18.5" font-family="Helvetica,sans-Serif" font-size="10.00">lime::ConnectionHandle</text>
<text text-anchor="middle" x="217.5" y="-7.5" font-family="Helvetica,sans-Serif" font-size="10.00">::ToString</text>
</a>
</g>
</g>
<!-- Node1&#45;&gt;Node4 -->
<g id="edge3" class="edge"><title>Node1&#45;&gt;Node4</title>
<path fill="none" stroke="midnightblue" d="M124.246,-41.6882C137.292,-37.985 150.916,-34.1173 163.567,-30.5262"/>
<polygon fill="midnightblue" stroke="midnightblue" points="123.073,-38.3829 114.409,-44.4808 124.984,-45.1168 123.073,-38.3829"/>
</g>
<!-- Node4&#45;&gt;Node3 -->
<g id="edge7" class="edge"><title>Node4&#45;&gt;Node3</title>
<path fill="none" stroke="midnightblue" d="M286.653,-33.074C305.115,-37.8348 324.411,-42.8105 340.447,-46.9455"/>
<polygon fill="midnightblue" stroke="midnightblue" points="287.36,-29.642 276.803,-30.5341 285.612,-36.4202 287.36,-29.642"/>
</g>
<!-- Node5 -->
<g id="node5" class="node"><title>Node5</title>
<g id="a_node5"><a xlink:href="../../da/dc9/Registration_8cpp.html#a33f787eba9a9a730b0b8a61f026f52e6" target="_top" xlink:title="handleToArgs">
<polygon fill="white" stroke="black" points="340,-6 340,-25 417,-25 417,-6 340,-6"/>
<text text-anchor="middle" x="378.5" y="-13" font-family="Helvetica,sans-Serif" font-size="10.00">handleToArgs</text>
</a>
</g>
</g>
<!-- Node4&#45;&gt;Node5 -->
<g id="edge4" class="edge"><title>Node4&#45;&gt;Node5</title>
<path fill="none" stroke="midnightblue" d="M288.434,-15.5C306.057,-15.5 324.316,-15.5 339.679,-15.5"/>
<polygon fill="midnightblue" stroke="midnightblue" points="288.158,-12.0001 278.158,-15.5 288.158,-19.0001 288.158,-12.0001"/>
</g>
<!-- Node6 -->
<g id="node6" class="node"><title>Node6</title>
<g id="a_node6"><a xlink:href="../../da/dc9/Registration_8cpp.html#a1a36014b1338ca8e2194b9d1c901c349" target="_top" xlink:title="findIConnection">
<polygon fill="white" stroke="black" points="479,-6 479,-25 564,-25 564,-6 479,-6"/>
<text text-anchor="middle" x="521.5" y="-13" font-family="Helvetica,sans-Serif" font-size="10.00">findIConnection</text>
</a>
</g>
</g>
<!-- Node5&#45;&gt;Node6 -->
<g id="edge5" class="edge"><title>Node5&#45;&gt;Node6</title>
<path fill="none" stroke="midnightblue" d="M427.408,-15.5C444.121,-15.5 462.729,-15.5 478.888,-15.5"/>
<polygon fill="midnightblue" stroke="midnightblue" points="427.285,-12.0001 417.285,-15.5 427.285,-19.0001 427.285,-12.0001"/>
</g>
<!-- Node7 -->
<g id="node7" class="node"><title>Node7</title>
<g id="a_node7"><a xlink:href="../../da/dc9/Registration_8cpp.html#acd1bbddd8bc17adedce4f57d47ab8b54" target="_top" xlink:title="makeIConnection">
<polygon fill="white" stroke="black" points="600,-6 600,-25 693,-25 693,-6 600,-6"/>
<text text-anchor="middle" x="646.5" y="-13" font-family="Helvetica,sans-Serif" font-size="10.00">makeIConnection</text>
</a>
</g>
</g>
<!-- Node6&#45;&gt;Node7 -->
<g id="edge6" class="edge"><title>Node6&#45;&gt;Node7</title>
<path fill="none" stroke="midnightblue" d="M574.267,-15.5C582.705,-15.5 591.395,-15.5 599.677,-15.5"/>
<polygon fill="midnightblue" stroke="midnightblue" points="574.142,-12.0001 564.142,-15.5 574.142,-19.0001 574.142,-12.0001"/>
</g>
</g>
</svg>
