<?xml version="1.0" encoding="UTF-8" standalone="no"?>
<!DOCTYPE svg PUBLIC "-//W3C//DTD SVG 1.1//EN"
 "http://www.w3.org/Graphics/SVG/1.1/DTD/svg11.dtd">
<!-- Generated by graphviz version 2.38.0 (20140413.2041)
 -->
<!-- Title: frFFTviewer::~frFFTviewer Pages: 1 -->
<svg width="459pt" height="28pt"
 viewBox="0.00 0.00 459.00 28.00" xmlns="http://www.w3.org/2000/svg" xmlns:xlink="http://www.w3.org/1999/xlink">
<g id="graph0" class="graph" transform="scale(1 1) rotate(0) translate(4 24)">
<title>frFFTviewer::~frFFTviewer</title>
<polygon fill="white" stroke="none" points="-4,4 -4,-24 455,-24 455,4 -4,4"/>
<!-- Node1 -->
<g id="node1" class="node"><title>Node1</title>
<polygon fill="#bfbfbf" stroke="black" points="0,-0.5 0,-19.5 134,-19.5 134,-0.5 0,-0.5"/>
<text text-anchor="middle" x="67" y="-7.5" font-family="Helvetica,sans-Serif" font-size="10.00">frFFTviewer::~frFFTviewer</text>
</g>
<!-- Node2 -->
<g id="node2" class="node"><title>Node2</title>
<g id="a_node2"><a xlink:href="../../db/d2f/classfrFFTviewer.html#ab9ba80a04bfa930e1c0c9eda45c3b611" target="_top" xlink:title="frFFTviewer::OnEnPwr">
<polygon fill="white" stroke="black" points="170,-0.5 170,-19.5 287,-19.5 287,-0.5 170,-0.5"/>
<text text-anchor="middle" x="228.5" y="-7.5" font-family="Helvetica,sans-Serif" font-size="10.00">frFFTviewer::OnEnPwr</text>
</a>
</g>
</g>
<!-- Node1&#45;&gt;Node2 -->
<g id="edge1" class="edge"><title>Node1&#45;&gt;Node2</title>
<path fill="none" stroke="midnightblue" d="M144.295,-3.25563C152.888,-3.2276 161.534,-3.30422 169.834,-3.48549"/>
<polygon fill="midnightblue" stroke="midnightblue" points="144.228,0.244039 134.257,-3.33662 144.285,-6.75573 144.228,0.244039"/>
</g>
<!-- Node2&#45;&gt;Node1 -->
<g id="edge4" class="edge"><title>Node2&#45;&gt;Node1</title>
<path fill="none" stroke="midnightblue" d="M159.678,-16.6824C151.257,-16.7785 142.654,-16.7721 134.257,-16.6634"/>
<polygon fill="midnightblue" stroke="midnightblue" points="159.893,-20.1795 169.834,-16.5145 159.778,-13.1804 159.893,-20.1795"/>
</g>
<!-- Node3 -->
<g id="node3" class="node"><title>Node3</title>
<g id="a_node3"><a xlink:href="../../db/d2f/classfrFFTviewer.html#a9ec2c6323cf2c88f0d6201328d24caf8" target="_top" xlink:title="frFFTviewer::frFFTviewer">
<polygon fill="white" stroke="black" points="323,-0.5 323,-19.5 451,-19.5 451,-0.5 323,-0.5"/>
<text text-anchor="middle" x="387" y="-7.5" font-family="Helvetica,sans-Serif" font-size="10.00">frFFTviewer::frFFTviewer</text>
</a>
</g>
</g>
<!-- Node2&#45;&gt;Node3 -->
<g id="edge2" class="edge"><title>Node2&#45;&gt;Node3</title>
<path fill="none" stroke="midnightblue" d="M297.507,-3.30167C305.937,-3.21618 314.529,-3.23677 322.882,-3.36346"/>
<polygon fill="midnightblue" stroke="midnightblue" points="297.275,0.19527 287.33,-3.45857 297.383,-6.8039 297.275,0.19527"/>
</g>
<!-- Node3&#45;&gt;Node2 -->
<g id="edge3" class="edge"><title>Node3&#45;&gt;Node2</title>
<path fill="none" stroke="midnightblue" d="M312.881,-16.7371C304.309,-16.7803 295.654,-16.7151 287.33,-16.5414"/>
<polygon fill="midnightblue" stroke="midnightblue" points="312.918,-20.237 322.882,-16.6365 312.847,-13.2373 312.918,-20.237"/>
</g>
</g>
</svg>
