<?xml version="1.0" encoding="UTF-8" standalone="no"?>
<!DOCTYPE svg PUBLIC "-//W3C//DTD SVG 1.1//EN"
 "http://www.w3.org/Graphics/SVG/1.1/DTD/svg11.dtd">
<!-- Generated by graphviz version 2.38.0 (20140413.2041)
 -->
<!-- Title: frFFTviewer::OnEnTx Pages: 1 -->
<svg width="606pt" height="47pt"
 viewBox="0.00 0.00 606.00 47.00" xmlns="http://www.w3.org/2000/svg" xmlns:xlink="http://www.w3.org/1999/xlink">
<g id="graph0" class="graph" transform="scale(1 1) rotate(0) translate(4 43)">
<title>frFFTviewer::OnEnTx</title>
<polygon fill="white" stroke="none" points="-4,4 -4,-43 602,-43 602,4 -4,4"/>
<!-- Node1 -->
<g id="node1" class="node"><title>Node1</title>
<polygon fill="#bfbfbf" stroke="black" points="0,-0.5 0,-19.5 111,-19.5 111,-0.5 0,-0.5"/>
<text text-anchor="middle" x="55.5" y="-7.5" font-family="Helvetica,sans-Serif" font-size="10.00">frFFTviewer::OnEnTx</text>
</g>
<!-- Node2 -->
<g id="node2" class="node"><title>Node2</title>
<g id="a_node2"><a xlink:href="../../db/d2f/classfrFFTviewer.html#a9ec2c6323cf2c88f0d6201328d24caf8" target="_top" xlink:title="frFFTviewer::frFFTviewer">
<polygon fill="white" stroke="black" points="147,-19.5 147,-38.5 275,-38.5 275,-19.5 147,-19.5"/>
<text text-anchor="middle" x="211" y="-26.5" font-family="Helvetica,sans-Serif" font-size="10.00">frFFTviewer::frFFTviewer</text>
</a>
</g>
</g>
<!-- Node1&#45;&gt;Node2 -->
<g id="edge1" class="edge"><title>Node1&#45;&gt;Node2</title>
<path fill="none" stroke="midnightblue" d="M121.016,-17.9857C129.61,-19.0495 138.414,-20.1392 146.983,-21.1998"/>
<polygon fill="midnightblue" stroke="midnightblue" points="121.405,-14.5072 111.051,-16.7522 120.545,-21.4542 121.405,-14.5072"/>
</g>
<!-- Node4 -->
<g id="node4" class="node"><title>Node4</title>
<g id="a_node4"><a xlink:href="../../db/d2f/classfrFFTviewer.html#a1ccfa24c92d47c95d3692fbd573ff652" target="_top" xlink:title="frFFTviewer::~frFFTviewer">
<polygon fill="white" stroke="black" points="464,-19.5 464,-38.5 598,-38.5 598,-19.5 464,-19.5"/>
<text text-anchor="middle" x="531" y="-26.5" font-family="Helvetica,sans-Serif" font-size="10.00">frFFTviewer::~frFFTviewer</text>
</a>
</g>
</g>
<!-- Node1&#45;&gt;Node4 -->
<g id="edge6" class="edge"><title>Node1&#45;&gt;Node4</title>
<path fill="none" stroke="midnightblue" d="M121.228,-6.40292C195.483,-3.10997 320.811,-0.101878 428,-10 448.089,-11.8551 470.124,-15.7237 488.556,-19.4889"/>
<polygon fill="midnightblue" stroke="midnightblue" points="120.925,-2.91303 111.096,-6.86814 121.246,-9.90567 120.925,-2.91303"/>
</g>
<!-- Node3 -->
<g id="node3" class="node"><title>Node3</title>
<g id="a_node3"><a xlink:href="../../db/d2f/classfrFFTviewer.html#ab9ba80a04bfa930e1c0c9eda45c3b611" target="_top" xlink:title="frFFTviewer::OnEnPwr">
<polygon fill="white" stroke="black" points="311,-19.5 311,-38.5 428,-38.5 428,-19.5 311,-19.5"/>
<text text-anchor="middle" x="369.5" y="-26.5" font-family="Helvetica,sans-Serif" font-size="10.00">frFFTviewer::OnEnPwr</text>
</a>
</g>
</g>
<!-- Node2&#45;&gt;Node3 -->
<g id="edge2" class="edge"><title>Node2&#45;&gt;Node3</title>
<path fill="none" stroke="midnightblue" d="M285.24,-22.2623C293.843,-22.22 302.527,-22.2868 310.874,-22.4628"/>
<polygon fill="midnightblue" stroke="midnightblue" points="285.168,-18.7628 275.203,-22.3622 285.238,-25.7624 285.168,-18.7628"/>
</g>
<!-- Node3&#45;&gt;Node2 -->
<g id="edge3" class="edge"><title>Node3&#45;&gt;Node2</title>
<path fill="none" stroke="midnightblue" d="M300.667,-35.6966C292.209,-35.7838 283.587,-35.7642 275.203,-35.6378"/>
<polygon fill="midnightblue" stroke="midnightblue" points="300.93,-39.193 310.874,-35.5372 300.82,-32.1938 300.93,-39.193"/>
</g>
<!-- Node3&#45;&gt;Node4 -->
<g id="edge4" class="edge"><title>Node3&#45;&gt;Node4</title>
<path fill="none" stroke="midnightblue" d="M438.287,-22.318C446.748,-22.2212 455.393,-22.2278 463.83,-22.3377"/>
<polygon fill="midnightblue" stroke="midnightblue" points="438.024,-18.8218 428.083,-22.4873 438.14,-25.8208 438.024,-18.8218"/>
</g>
<!-- Node4&#45;&gt;Node3 -->
<g id="edge5" class="edge"><title>Node4&#45;&gt;Node3</title>
<path fill="none" stroke="midnightblue" d="M453.744,-35.7442C445.11,-35.7727 436.421,-35.6955 428.083,-35.5127"/>
<polygon fill="midnightblue" stroke="midnightblue" points="453.859,-39.2435 463.83,-35.6623 453.802,-32.2438 453.859,-39.2435"/>
</g>
</g>
</svg>
