<?xml version="1.0" encoding="UTF-8" standalone="no"?>
<!DOCTYPE svg PUBLIC "-//W3C//DTD SVG 1.1//EN"
 "http://www.w3.org/Graphics/SVG/1.1/DTD/svg11.dtd">
<!-- Generated by graphviz version 2.38.0 (20140413.2041)
 -->
<!-- Title: /home/erik/prefix/default/src/limesuite&#45;dev/src/protocols/LMS64CProtocol.h Pages: 1 -->
<!--zoomable 317 -->
<svg id="main" version="1.1" xmlns="http://www.w3.org/2000/svg" xmlns:xlink="http://www.w3.org/1999/xlink" xml:space="preserve" onload="init(evt)">
<style type="text/css"><![CDATA[
.edge:hover path { stroke: red; }
.edge:hover polygon { stroke: red; fill: red; }
]]></style>
<script type="text/javascript"><![CDATA[
var edges = document.getElementsByTagName('g');
if (edges && edges.length) {
  for (var i=0;i<edges.length;i++) {
    if (edges[i].id.substr(0,4)=='edge') {
      edges[i].setAttribute('class','edge');
    }
  }
}
]]></script>
        <defs>
                <circle id="rim" cx="0" cy="0" r="7"/>
                <circle id="rim2" cx="0" cy="0" r="3.5"/>
                <g id="zoomPlus">
                        <use xlink:href="#rim" fill="#404040">
                                <set attributeName="fill" to="#808080" begin="zoomplus.mouseover" end="zoomplus.mouseout"/>
                        </use>
                        <path d="M-4,0h8M0,-4v8" fill="none" stroke="white" stroke-width="1.5" pointer-events="none"/>
                </g>
                <g id="zoomMin">
                        <use xlink:href="#rim" fill="#404040">
                                <set attributeName="fill" to="#808080" begin="zoomminus.mouseover" end="zoomminus.mouseout"/>
                        </use>
                        <path d="M-4,0h8" fill="none" stroke="white" stroke-width="1.5" pointer-events="none"/>
                </g>
                <g id="dirArrow">
                        <path fill="none" stroke="white" stroke-width="1.5" d="M0,-3.0v7 M-2.5,-0.5L0,-3.0L2.5,-0.5"/>
                </g>
               <g id="resetDef">
                       <use xlink:href="#rim2" fill="#404040">
                               <set attributeName="fill" to="#808080" begin="reset.mouseover" end="reset.mouseout"/>
                       </use>
               </g>
        </defs>

<script type="text/javascript">
var viewWidth = 3276;
var viewHeight = 317;
var sectionId = 'dynsection-1';
</script>
<script xlink:href="../../svgpan.js"/>
<svg id="graph" class="graph">
<g id="viewport">
<title>/home/erik/prefix/default/src/limesuite&#45;dev/src/protocols/LMS64CProtocol.h</title>
<polygon fill="white" stroke="none" points="-4,4 -4,-313 3271.5,-313 3271.5,4 -4,4"/>
<!-- Node1 -->
<g id="node1" class="node"><title>Node1</title>
<polygon fill="#bfbfbf" stroke="black" points="1835.5,-267.5 1835.5,-308.5 1980.5,-308.5 1980.5,-267.5 1835.5,-267.5"/>
<text text-anchor="start" x="1843.5" y="-296.5" font-family="Helvetica,sans-Serif" font-size="10.00">/home/erik/prefix/default</text>
<text text-anchor="start" x="1843.5" y="-285.5" font-family="Helvetica,sans-Serif" font-size="10.00">/src/limesuite&#45;dev/src</text>
<text text-anchor="middle" x="1908" y="-274.5" font-family="Helvetica,sans-Serif" font-size="10.00">/protocols/LMS64CProtocol.h</text>
</g>
<!-- Node2 -->
<g id="node2" class="node"><title>Node2</title>
<g id="a_node2"><a xlink:href="../../df/de1/lms7__api_8cpp.html" target="_top" xlink:title="/home/erik/prefix/default\l/src/limesuite&#45;dev/src\l/API/lms7_api.cpp">
<polygon fill="white" stroke="black" points="147,-184 147,-225 269,-225 269,-184 147,-184"/>
<text text-anchor="start" x="155" y="-213" font-family="Helvetica,sans-Serif" font-size="10.00">/home/erik/prefix/default</text>
<text text-anchor="start" x="155" y="-202" font-family="Helvetica,sans-Serif" font-size="10.00">/src/limesuite&#45;dev/src</text>
<text text-anchor="middle" x="208" y="-191" font-family="Helvetica,sans-Serif" font-size="10.00">/API/lms7_api.cpp</text>
</a>
</g>
</g>
<!-- Node1&#45;&gt;Node2 -->
<g id="edge1" class="edge"><title>Node1&#45;&gt;Node2</title>
<path fill="none" stroke="midnightblue" d="M1824.85,-287.587C1536.21,-289.087 578.821,-289.429 278,-231 270.636,-229.57 263.015,-227.479 255.633,-225.099"/>
<polygon fill="midnightblue" stroke="midnightblue" points="1825.26,-291.085 1835.24,-287.531 1825.22,-284.085 1825.26,-291.085"/>
</g>
<!-- Node3 -->
<g id="node3" class="node"><title>Node3</title>
<g id="a_node3"><a xlink:href="../../d4/d65/lms7__device_8cpp.html" target="_top" xlink:title="/home/erik/prefix/default\l/src/limesuite&#45;dev/src\l/API/lms7_device.cpp">
<polygon fill="white" stroke="black" points="287,-184 287,-225 409,-225 409,-184 287,-184"/>
<text text-anchor="start" x="295" y="-213" font-family="Helvetica,sans-Serif" font-size="10.00">/home/erik/prefix/default</text>
<text text-anchor="start" x="295" y="-202" font-family="Helvetica,sans-Serif" font-size="10.00">/src/limesuite&#45;dev/src</text>
<text text-anchor="middle" x="348" y="-191" font-family="Helvetica,sans-Serif" font-size="10.00">/API/lms7_device.cpp</text>
</a>
</g>
</g>
<!-- Node1&#45;&gt;Node3 -->
<g id="edge2" class="edge"><title>Node1&#45;&gt;Node3</title>
<path fill="none" stroke="midnightblue" d="M1825.14,-287.27C1553.33,-287.624 690.598,-284.403 418,-231 410.638,-229.558 403.019,-227.46 395.637,-225.078"/>
<polygon fill="midnightblue" stroke="midnightblue" points="1825.34,-290.769 1835.33,-287.254 1825.33,-283.769 1825.34,-290.769"/>
</g>
<!-- Node4 -->
<g id="node4" class="node"><title>Node4</title>
<g id="a_node4"><a xlink:href="../../df/df6/boardEmulator_8cpp.html" target="_top" xlink:title="/home/erik/prefix/default\l/src/limesuite&#45;dev/src\l/boardEmulator.cpp">
<polygon fill="white" stroke="black" points="427,-184 427,-225 549,-225 549,-184 427,-184"/>
<text text-anchor="start" x="435" y="-213" font-family="Helvetica,sans-Serif" font-size="10.00">/home/erik/prefix/default</text>
<text text-anchor="start" x="435" y="-202" font-family="Helvetica,sans-Serif" font-size="10.00">/src/limesuite&#45;dev/src</text>
<text text-anchor="middle" x="488" y="-191" font-family="Helvetica,sans-Serif" font-size="10.00">/boardEmulator.cpp</text>
</a>
</g>
</g>
<!-- Node1&#45;&gt;Node4 -->
<g id="edge3" class="edge"><title>Node1&#45;&gt;Node4</title>
<path fill="none" stroke="midnightblue" d="M1824.79,-286.888C1569.88,-286.019 802.273,-279.348 558,-231 550.641,-229.543 543.023,-227.438 535.642,-225.052"/>
<polygon fill="midnightblue" stroke="midnightblue" points="1825.08,-290.389 1835.1,-286.921 1825.11,-283.389 1825.08,-290.389"/>
</g>
<!-- Node5 -->
<g id="node5" class="node"><title>Node5</title>
<g id="a_node5"><a xlink:href="../../d5/d1e/ConnectionEVB7COM_8h.html" target="_top" xlink:title="Implementation of EVB7 connection of serial COM port. ">
<polygon fill="white" stroke="black" points="567.5,-184 567.5,-225 794.5,-225 794.5,-184 567.5,-184"/>
<text text-anchor="start" x="575.5" y="-213" font-family="Helvetica,sans-Serif" font-size="10.00">/home/erik/prefix/default</text>
<text text-anchor="start" x="575.5" y="-202" font-family="Helvetica,sans-Serif" font-size="10.00">/src/limesuite&#45;dev/src</text>
<text text-anchor="middle" x="681" y="-191" font-family="Helvetica,sans-Serif" font-size="10.00">/ConnectionEVB7COM/ConnectionEVB7COM.h</text>
</a>
</g>
</g>
<!-- Node1&#45;&gt;Node5 -->
<g id="edge4" class="edge"><title>Node1&#45;&gt;Node5</title>
<path fill="none" stroke="midnightblue" d="M1825.17,-287.135C1640.87,-286.488 1183.25,-279.638 804,-231 791.887,-229.446 779.187,-227.352 766.737,-225.029"/>
<polygon fill="midnightblue" stroke="midnightblue" points="1825.31,-290.636 1835.32,-287.165 1825.33,-283.636 1825.31,-290.636"/>
</g>
<!-- Node11 -->
<g id="node11" class="node"><title>Node11</title>
<g id="a_node11"><a xlink:href="../../d2/d24/ConnectionFT601_8h.html" target="_top" xlink:title="/home/erik/prefix/default\l/src/limesuite&#45;dev/src\l/ConnectionFTDI/ConnectionFT601.h">
<polygon fill="white" stroke="black" points="1220,-184 1220,-225 1400,-225 1400,-184 1220,-184"/>
<text text-anchor="start" x="1228" y="-213" font-family="Helvetica,sans-Serif" font-size="10.00">/home/erik/prefix/default</text>
<text text-anchor="start" x="1228" y="-202" font-family="Helvetica,sans-Serif" font-size="10.00">/src/limesuite&#45;dev/src</text>
<text text-anchor="middle" x="1310" y="-191" font-family="Helvetica,sans-Serif" font-size="10.00">/ConnectionFTDI/ConnectionFT601.h</text>
</a>
</g>
</g>
<!-- Node1&#45;&gt;Node11 -->
<g id="edge10" class="edge"><title>Node1&#45;&gt;Node11</title>
<path fill="none" stroke="midnightblue" d="M1825.07,-275.698C1713.42,-260.482 1515.51,-233.508 1400.24,-217.798"/>
<polygon fill="midnightblue" stroke="midnightblue" points="1824.89,-279.205 1835.27,-277.088 1825.84,-272.27 1824.89,-279.205"/>
</g>
<!-- Node14 -->
<g id="node14" class="node"><title>Node14</title>
<g id="a_node14"><a xlink:href="../../d0/df6/ConnectionFX3_8h.html" target="_top" xlink:title="/home/erik/prefix/default\l/src/limesuite&#45;dev/src\l/ConnectionFX3/ConnectionFX3.h">
<polygon fill="white" stroke="black" points="813,-184 813,-225 979,-225 979,-184 813,-184"/>
<text text-anchor="start" x="821" y="-213" font-family="Helvetica,sans-Serif" font-size="10.00">/home/erik/prefix/default</text>
<text text-anchor="start" x="821" y="-202" font-family="Helvetica,sans-Serif" font-size="10.00">/src/limesuite&#45;dev/src</text>
<text text-anchor="middle" x="896" y="-191" font-family="Helvetica,sans-Serif" font-size="10.00">/ConnectionFX3/ConnectionFX3.h</text>
</a>
</g>
</g>
<!-- Node1&#45;&gt;Node14 -->
<g id="edge13" class="edge"><title>Node1&#45;&gt;Node14</title>
<path fill="none" stroke="midnightblue" d="M1824.93,-280.342C1694.27,-269.867 1432.78,-248.887 1211,-231 1132.38,-224.66 1042.74,-217.4 979.233,-212.252"/>
<polygon fill="midnightblue" stroke="midnightblue" points="1825,-283.859 1835.25,-281.17 1825.56,-276.881 1825,-283.859"/>
</g>
<!-- Node17 -->
<g id="node17" class="node"><title>Node17</title>
<g id="a_node17"><a xlink:href="../../de/d15/ConnectionNovenaRF7_8h.html" target="_top" xlink:title="Class for NovenaRF7 communications through SPI port. ">
<polygon fill="white" stroke="black" points="1512,-178.5 1512,-230.5 1686,-230.5 1686,-178.5 1512,-178.5"/>
<text text-anchor="start" x="1520" y="-218.5" font-family="Helvetica,sans-Serif" font-size="10.00">/home/erik/prefix/default</text>
<text text-anchor="start" x="1520" y="-207.5" font-family="Helvetica,sans-Serif" font-size="10.00">/src/limesuite&#45;dev/src</text>
<text text-anchor="start" x="1520" y="-196.5" font-family="Helvetica,sans-Serif" font-size="10.00">/ConnectionNovenaRF7/Connection</text>
<text text-anchor="middle" x="1599" y="-185.5" font-family="Helvetica,sans-Serif" font-size="10.00">NovenaRF7.h</text>
</a>
</g>
</g>
<!-- Node1&#45;&gt;Node17 -->
<g id="edge17" class="edge"><title>Node1&#45;&gt;Node17</title>
<path fill="none" stroke="midnightblue" d="M1825.3,-265.188C1782.32,-253.852 1729.81,-240.001 1686.19,-228.497"/>
<polygon fill="midnightblue" stroke="midnightblue" points="1824.6,-268.623 1835.16,-267.789 1826.39,-261.854 1824.6,-268.623"/>
</g>
<!-- Node22 -->
<g id="node22" class="node"><title>Node22</title>
<g id="a_node22"><a xlink:href="../../dc/d39/ConnectionXillybus_8h.html" target="_top" xlink:title="/home/erik/prefix/default\l/src/limesuite&#45;dev/src\l/ConnectionXillybus/ConnectionXillybus.h">
<polygon fill="white" stroke="black" points="1704.5,-184 1704.5,-225 1903.5,-225 1903.5,-184 1704.5,-184"/>
<text text-anchor="start" x="1712.5" y="-213" font-family="Helvetica,sans-Serif" font-size="10.00">/home/erik/prefix/default</text>
<text text-anchor="start" x="1712.5" y="-202" font-family="Helvetica,sans-Serif" font-size="10.00">/src/limesuite&#45;dev/src</text>
<text text-anchor="middle" x="1804" y="-191" font-family="Helvetica,sans-Serif" font-size="10.00">/ConnectionXillybus/ConnectionXillybus.h</text>
</a>
</g>
</g>
<!-- Node1&#45;&gt;Node22 -->
<g id="edge22" class="edge"><title>Node1&#45;&gt;Node22</title>
<path fill="none" stroke="midnightblue" d="M1875.1,-261.22C1860.21,-249.548 1842.89,-235.973 1829.07,-225.144"/>
<polygon fill="midnightblue" stroke="midnightblue" points="1873.06,-264.065 1883.09,-267.479 1877.38,-258.556 1873.06,-264.065"/>
</g>
<!-- Node25 -->
<g id="node25" class="node"><title>Node25</title>
<g id="a_node25"><a xlink:href="../../dc/dc0/FPGA__common_8cpp.html" target="_top" xlink:title="/home/erik/prefix/default\l/src/limesuite&#45;dev/src\l/FPGA_common/FPGA_common.cpp">
<polygon fill="white" stroke="black" points="1921.5,-184 1921.5,-225 2102.5,-225 2102.5,-184 1921.5,-184"/>
<text text-anchor="start" x="1929.5" y="-213" font-family="Helvetica,sans-Serif" font-size="10.00">/home/erik/prefix/default</text>
<text text-anchor="start" x="1929.5" y="-202" font-family="Helvetica,sans-Serif" font-size="10.00">/src/limesuite&#45;dev/src</text>
<text text-anchor="middle" x="2012" y="-191" font-family="Helvetica,sans-Serif" font-size="10.00">/FPGA_common/FPGA_common.cpp</text>
</a>
</g>
</g>
<!-- Node1&#45;&gt;Node25 -->
<g id="edge25" class="edge"><title>Node1&#45;&gt;Node25</title>
<path fill="none" stroke="midnightblue" d="M1940.9,-261.22C1955.79,-249.548 1973.11,-235.973 1986.93,-225.144"/>
<polygon fill="midnightblue" stroke="midnightblue" points="1938.62,-258.556 1932.91,-267.479 1942.94,-264.065 1938.62,-258.556"/>
</g>
<!-- Node26 -->
<g id="node26" class="node"><title>Node26</title>
<g id="a_node26"><a xlink:href="../../df/db8/FPGA__Mini_8cpp.html" target="_top" xlink:title="/home/erik/prefix/default\l/src/limesuite&#45;dev/src\l/FPGA_common/FPGA_Mini.cpp">
<polygon fill="white" stroke="black" points="2120.5,-184 2120.5,-225 2281.5,-225 2281.5,-184 2120.5,-184"/>
<text text-anchor="start" x="2128.5" y="-213" font-family="Helvetica,sans-Serif" font-size="10.00">/home/erik/prefix/default</text>
<text text-anchor="start" x="2128.5" y="-202" font-family="Helvetica,sans-Serif" font-size="10.00">/src/limesuite&#45;dev/src</text>
<text text-anchor="middle" x="2201" y="-191" font-family="Helvetica,sans-Serif" font-size="10.00">/FPGA_common/FPGA_Mini.cpp</text>
</a>
</g>
</g>
<!-- Node1&#45;&gt;Node26 -->
<g id="edge26" class="edge"><title>Node1&#45;&gt;Node26</title>
<path fill="none" stroke="midnightblue" d="M1989.63,-264.816C2026.96,-254.612 2071.75,-242.291 2112,-231 2118.81,-229.09 2125.91,-227.083 2132.99,-225.069"/>
<polygon fill="midnightblue" stroke="midnightblue" points="1988.53,-261.487 1979.81,-267.498 1990.37,-268.24 1988.53,-261.487"/>
</g>
<!-- Node27 -->
<g id="node27" class="node"><title>Node27</title>
<g id="a_node27"><a xlink:href="../../d6/d3c/FPGA__Q_8cpp.html" target="_top" xlink:title="/home/erik/prefix/default\l/src/limesuite&#45;dev/src\l/FPGA_common/FPGA_Q.cpp">
<polygon fill="white" stroke="black" points="2299.5,-184 2299.5,-225 2450.5,-225 2450.5,-184 2299.5,-184"/>
<text text-anchor="start" x="2307.5" y="-213" font-family="Helvetica,sans-Serif" font-size="10.00">/home/erik/prefix/default</text>
<text text-anchor="start" x="2307.5" y="-202" font-family="Helvetica,sans-Serif" font-size="10.00">/src/limesuite&#45;dev/src</text>
<text text-anchor="middle" x="2375" y="-191" font-family="Helvetica,sans-Serif" font-size="10.00">/FPGA_common/FPGA_Q.cpp</text>
</a>
</g>
</g>
<!-- Node1&#45;&gt;Node27 -->
<g id="edge27" class="edge"><title>Node1&#45;&gt;Node27</title>
<path fill="none" stroke="midnightblue" d="M1990.84,-278.511C2068.86,-269.664 2188.7,-253.873 2291,-231 2298.59,-229.304 2306.48,-227.272 2314.27,-225.105"/>
<polygon fill="midnightblue" stroke="midnightblue" points="1990.14,-275.068 1980.59,-279.66 1990.92,-282.024 1990.14,-275.068"/>
</g>
<!-- Node28 -->
<g id="node28" class="node"><title>Node28</title>
<g id="a_node28"><a xlink:href="../../d2/d1c/HPM7__wxgui_8h.html" target="_top" xlink:title="/home/erik/prefix/default\l/src/limesuite&#45;dev/src\l/HPM7/HPM7_wxgui.h">
<polygon fill="white" stroke="black" points="2469,-184 2469,-225 2591,-225 2591,-184 2469,-184"/>
<text text-anchor="start" x="2477" y="-213" font-family="Helvetica,sans-Serif" font-size="10.00">/home/erik/prefix/default</text>
<text text-anchor="start" x="2477" y="-202" font-family="Helvetica,sans-Serif" font-size="10.00">/src/limesuite&#45;dev/src</text>
<text text-anchor="middle" x="2530" y="-191" font-family="Helvetica,sans-Serif" font-size="10.00">/HPM7/HPM7_wxgui.h</text>
</a>
</g>
</g>
<!-- Node1&#45;&gt;Node28 -->
<g id="edge28" class="edge"><title>Node1&#45;&gt;Node28</title>
<path fill="none" stroke="midnightblue" d="M1991.09,-284.974C2100.03,-280.868 2296.5,-268.459 2460,-231 2466.93,-229.411 2474.12,-227.328 2481.13,-225.037"/>
<polygon fill="midnightblue" stroke="midnightblue" points="1990.69,-281.487 1980.82,-285.346 1990.94,-288.482 1990.69,-281.487"/>
</g>
<!-- Node31 -->
<g id="node31" class="node"><title>Node31</title>
<g id="a_node31"><a xlink:href="../../d5/d13/MCU__BD_8cpp.html" target="_top" xlink:title="Implementation of interacting with on board MCU. ">
<polygon fill="white" stroke="black" points="2609.5,-184 2609.5,-225 2762.5,-225 2762.5,-184 2609.5,-184"/>
<text text-anchor="start" x="2617.5" y="-213" font-family="Helvetica,sans-Serif" font-size="10.00">/home/erik/prefix/default</text>
<text text-anchor="start" x="2617.5" y="-202" font-family="Helvetica,sans-Serif" font-size="10.00">/src/limesuite&#45;dev/src</text>
<text text-anchor="middle" x="2686" y="-191" font-family="Helvetica,sans-Serif" font-size="10.00">/lms7002m_mcu/MCU_BD.cpp</text>
</a>
</g>
</g>
<!-- Node1&#45;&gt;Node31 -->
<g id="edge31" class="edge"><title>Node1&#45;&gt;Node31</title>
<path fill="none" stroke="midnightblue" d="M1990.95,-285.828C2121.56,-282.744 2382.69,-271.556 2600,-231 2608.42,-229.429 2617.19,-227.355 2625.77,-225.069"/>
<polygon fill="midnightblue" stroke="midnightblue" points="1990.55,-282.336 1980.63,-286.061 1990.7,-289.334 1990.55,-282.336"/>
</g>
<!-- Node32 -->
<g id="node32" class="node"><title>Node32</title>
<g id="a_node32"><a xlink:href="../../df/d50/ConnectionImages_8cpp.html" target="_top" xlink:title="/home/erik/prefix/default\l/src/limesuite&#45;dev/src\l/protocols/ConnectionImages.cpp">
<polygon fill="white" stroke="black" points="2780.5,-184 2780.5,-225 2943.5,-225 2943.5,-184 2780.5,-184"/>
<text text-anchor="start" x="2788.5" y="-213" font-family="Helvetica,sans-Serif" font-size="10.00">/home/erik/prefix/default</text>
<text text-anchor="start" x="2788.5" y="-202" font-family="Helvetica,sans-Serif" font-size="10.00">/src/limesuite&#45;dev/src</text>
<text text-anchor="middle" x="2862" y="-191" font-family="Helvetica,sans-Serif" font-size="10.00">/protocols/ConnectionImages.cpp</text>
</a>
</g>
</g>
<!-- Node1&#45;&gt;Node32 -->
<g id="edge32" class="edge"><title>Node1&#45;&gt;Node32</title>
<path fill="none" stroke="midnightblue" d="M1990.94,-287.423C2145.67,-286.933 2488.35,-279.81 2772,-231 2780.96,-229.458 2790.31,-227.37 2799.45,-225.049"/>
<polygon fill="midnightblue" stroke="midnightblue" points="1990.56,-283.924 1980.57,-287.447 1990.58,-290.924 1990.56,-283.924"/>
</g>
<!-- Node33 -->
<g id="node33" class="node"><title>Node33</title>
<g id="a_node33"><a xlink:href="../../d2/d65/LMS64CProtocol_8cpp.html" target="_top" xlink:title="Implementation of LMS64C protocol. ">
<polygon fill="white" stroke="black" points="2961.5,-184 2961.5,-225 3116.5,-225 3116.5,-184 2961.5,-184"/>
<text text-anchor="start" x="2969.5" y="-213" font-family="Helvetica,sans-Serif" font-size="10.00">/home/erik/prefix/default</text>
<text text-anchor="start" x="2969.5" y="-202" font-family="Helvetica,sans-Serif" font-size="10.00">/src/limesuite&#45;dev/src</text>
<text text-anchor="middle" x="3039" y="-191" font-family="Helvetica,sans-Serif" font-size="10.00">/protocols/LMS64CProtocol.cpp</text>
</a>
</g>
</g>
<!-- Node1&#45;&gt;Node33 -->
<g id="edge33" class="edge"><title>Node1&#45;&gt;Node33</title>
<path fill="none" stroke="midnightblue" d="M1990.91,-285.068C2204.3,-279.693 2768.59,-262.825 2953,-231 2961.75,-229.49 2970.86,-227.389 2979.75,-225.034"/>
<polygon fill="midnightblue" stroke="midnightblue" points="1990.62,-281.574 1980.71,-285.323 1990.8,-288.572 1990.62,-281.574"/>
</g>
<!-- Node34 -->
<g id="node34" class="node"><title>Node34</title>
<g id="a_node34"><a xlink:href="../../d5/db6/LimeUtil_8cpp.html" target="_top" xlink:title="Command line test app. ">
<polygon fill="white" stroke="black" points="3134.5,-184 3134.5,-225 3267.5,-225 3267.5,-184 3134.5,-184"/>
<text text-anchor="start" x="3142.5" y="-213" font-family="Helvetica,sans-Serif" font-size="10.00">/home/erik/prefix/default</text>
<text text-anchor="start" x="3142.5" y="-202" font-family="Helvetica,sans-Serif" font-size="10.00">/src/limesuite&#45;dev/LimeUtil</text>
<text text-anchor="middle" x="3201" y="-191" font-family="Helvetica,sans-Serif" font-size="10.00">/LimeUtil.cpp</text>
</a>
</g>
</g>
<!-- Node1&#45;&gt;Node34 -->
<g id="edge34" class="edge"><title>Node1&#45;&gt;Node34</title>
<path fill="none" stroke="midnightblue" d="M1991.1,-286.22C2228.68,-283.508 2907.73,-272.264 3126,-231 3133.84,-229.518 3141.97,-227.399 3149.87,-225.007"/>
<polygon fill="midnightblue" stroke="midnightblue" points="1990.76,-282.724 1980.8,-286.335 1990.84,-289.723 1990.76,-282.724"/>
</g>
<!-- Node6 -->
<g id="node6" class="node"><title>Node6</title>
<g id="a_node6"><a xlink:href="../../d3/db6/ConnectionEVB7COM_8cpp.html" target="_top" xlink:title="Implementation of EVB7 connection of serial COM port. ">
<polygon fill="white" stroke="black" points="0,-89.5 0,-141.5 196,-141.5 196,-89.5 0,-89.5"/>
<text text-anchor="start" x="8" y="-129.5" font-family="Helvetica,sans-Serif" font-size="10.00">/home/erik/prefix/default</text>
<text text-anchor="start" x="8" y="-118.5" font-family="Helvetica,sans-Serif" font-size="10.00">/src/limesuite&#45;dev/src</text>
<text text-anchor="start" x="8" y="-107.5" font-family="Helvetica,sans-Serif" font-size="10.00">/ConnectionEVB7COM/ConnectionEVB7</text>
<text text-anchor="middle" x="98" y="-96.5" font-family="Helvetica,sans-Serif" font-size="10.00">COM.cpp</text>
</a>
</g>
</g>
<!-- Node5&#45;&gt;Node6 -->
<g id="edge5" class="edge"><title>Node5&#45;&gt;Node6</title>
<path fill="none" stroke="midnightblue" d="M582.215,-182.097C574.041,-180.608 565.891,-179.217 558,-178 402.14,-153.961 360.488,-168.337 205,-142 202.082,-141.506 199.124,-140.978 196.144,-140.422"/>
<polygon fill="midnightblue" stroke="midnightblue" points="581.708,-185.563 592.18,-183.958 582.993,-178.682 581.708,-185.563"/>
</g>
<!-- Node7 -->
<g id="node7" class="node"><title>Node7</title>
<g id="a_node7"><a xlink:href="../../df/d11/ConnectionEVB7COMEntry_8cpp.html" target="_top" xlink:title="/home/erik/prefix/default\l/src/limesuite&#45;dev/src\l/ConnectionEVB7COM/ConnectionEVB7\lCOMEntry.cpp">
<polygon fill="white" stroke="black" points="214,-89.5 214,-141.5 410,-141.5 410,-89.5 214,-89.5"/>
<text text-anchor="start" x="222" y="-129.5" font-family="Helvetica,sans-Serif" font-size="10.00">/home/erik/prefix/default</text>
<text text-anchor="start" x="222" y="-118.5" font-family="Helvetica,sans-Serif" font-size="10.00">/src/limesuite&#45;dev/src</text>
<text text-anchor="start" x="222" y="-107.5" font-family="Helvetica,sans-Serif" font-size="10.00">/ConnectionEVB7COM/ConnectionEVB7</text>
<text text-anchor="middle" x="312" y="-96.5" font-family="Helvetica,sans-Serif" font-size="10.00">COMEntry.cpp</text>
</a>
</g>
</g>
<!-- Node5&#45;&gt;Node7 -->
<g id="edge6" class="edge"><title>Node5&#45;&gt;Node7</title>
<path fill="none" stroke="midnightblue" d="M587.67,-181.674C537.641,-169.953 474.947,-155.233 419,-142 416.119,-141.319 413.196,-140.626 410.244,-139.927"/>
<polygon fill="midnightblue" stroke="midnightblue" points="586.967,-185.103 597.502,-183.976 588.563,-178.288 586.967,-185.103"/>
</g>
<!-- Node8 -->
<g id="node8" class="node"><title>Node8</title>
<g id="a_node8"><a xlink:href="../../d6/d62/ConnectionSTREAM__UNITE_8h.html" target="_top" xlink:title="Implementation of STREAM+UNITE board combination connection. ">
<polygon fill="white" stroke="black" points="428.5,-89.5 428.5,-141.5 583.5,-141.5 583.5,-89.5 428.5,-89.5"/>
<text text-anchor="start" x="436.5" y="-129.5" font-family="Helvetica,sans-Serif" font-size="10.00">/home/erik/prefix/default</text>
<text text-anchor="start" x="436.5" y="-118.5" font-family="Helvetica,sans-Serif" font-size="10.00">/src/limesuite&#45;dev/src</text>
<text text-anchor="start" x="436.5" y="-107.5" font-family="Helvetica,sans-Serif" font-size="10.00">/ConnectionSTREAM_UNITE</text>
<text text-anchor="middle" x="506" y="-96.5" font-family="Helvetica,sans-Serif" font-size="10.00">/ConnectionSTREAM_UNITE.h</text>
</a>
</g>
</g>
<!-- Node5&#45;&gt;Node8 -->
<g id="edge7" class="edge"><title>Node5&#45;&gt;Node8</title>
<path fill="none" stroke="midnightblue" d="M632.572,-179.424C608.891,-167.651 580.404,-153.49 556.458,-141.585"/>
<polygon fill="midnightblue" stroke="midnightblue" points="631.214,-182.658 641.727,-183.976 634.33,-176.39 631.214,-182.658"/>
</g>
<!-- Node9 -->
<g id="node9" class="node"><title>Node9</title>
<g id="a_node9"><a xlink:href="../../d1/d2f/ConnectionSTREAM__UNITE_8cpp.html" target="_top" xlink:title="Implementation of STREAM+UNITE board connection. ">
<polygon fill="white" stroke="black" points="325,-0.5 325,-52.5 491,-52.5 491,-0.5 325,-0.5"/>
<text text-anchor="start" x="333" y="-40.5" font-family="Helvetica,sans-Serif" font-size="10.00">/home/erik/prefix/default</text>
<text text-anchor="start" x="333" y="-29.5" font-family="Helvetica,sans-Serif" font-size="10.00">/src/limesuite&#45;dev/src</text>
<text text-anchor="start" x="333" y="-18.5" font-family="Helvetica,sans-Serif" font-size="10.00">/ConnectionSTREAM_UNITE</text>
<text text-anchor="middle" x="408" y="-7.5" font-family="Helvetica,sans-Serif" font-size="10.00">/ConnectionSTREAM_UNITE.cpp</text>
</a>
</g>
</g>
<!-- Node8&#45;&gt;Node9 -->
<g id="edge8" class="edge"><title>Node8&#45;&gt;Node9</title>
<path fill="none" stroke="midnightblue" d="M470.122,-82.6489C458.97,-72.749 446.84,-61.9801 436.282,-52.6075"/>
<polygon fill="midnightblue" stroke="midnightblue" points="467.852,-85.3145 477.654,-89.336 472.5,-80.0796 467.852,-85.3145"/>
</g>
<!-- Node10 -->
<g id="node10" class="node"><title>Node10</title>
<g id="a_node10"><a xlink:href="../../d4/d6c/ConnectionSTREAM__UNITEEntry_8cpp.html" target="_top" xlink:title="/home/erik/prefix/default\l/src/limesuite&#45;dev/src\l/ConnectionSTREAM_UNITE\l/ConnectionSTREAM_UNITEEntry.cpp">
<polygon fill="white" stroke="black" points="509.5,-0.5 509.5,-52.5 698.5,-52.5 698.5,-0.5 509.5,-0.5"/>
<text text-anchor="start" x="517.5" y="-40.5" font-family="Helvetica,sans-Serif" font-size="10.00">/home/erik/prefix/default</text>
<text text-anchor="start" x="517.5" y="-29.5" font-family="Helvetica,sans-Serif" font-size="10.00">/src/limesuite&#45;dev/src</text>
<text text-anchor="start" x="517.5" y="-18.5" font-family="Helvetica,sans-Serif" font-size="10.00">/ConnectionSTREAM_UNITE</text>
<text text-anchor="middle" x="604" y="-7.5" font-family="Helvetica,sans-Serif" font-size="10.00">/ConnectionSTREAM_UNITEEntry.cpp</text>
</a>
</g>
</g>
<!-- Node8&#45;&gt;Node10 -->
<g id="edge9" class="edge"><title>Node8&#45;&gt;Node10</title>
<path fill="none" stroke="midnightblue" d="M541.878,-82.6489C553.03,-72.749 565.16,-61.9801 575.718,-52.6075"/>
<polygon fill="midnightblue" stroke="midnightblue" points="539.5,-80.0796 534.346,-89.336 544.148,-85.3145 539.5,-80.0796"/>
</g>
<!-- Node12 -->
<g id="node12" class="node"><title>Node12</title>
<g id="a_node12"><a xlink:href="../../d6/d90/ConnectionFT601_8cpp.html" target="_top" xlink:title="/home/erik/prefix/default\l/src/limesuite&#45;dev/src\l/ConnectionFTDI/ConnectionFT601.cpp">
<polygon fill="white" stroke="black" points="1014.5,-95 1014.5,-136 1205.5,-136 1205.5,-95 1014.5,-95"/>
<text text-anchor="start" x="1022.5" y="-124" font-family="Helvetica,sans-Serif" font-size="10.00">/home/erik/prefix/default</text>
<text text-anchor="start" x="1022.5" y="-113" font-family="Helvetica,sans-Serif" font-size="10.00">/src/limesuite&#45;dev/src</text>
<text text-anchor="middle" x="1110" y="-102" font-family="Helvetica,sans-Serif" font-size="10.00">/ConnectionFTDI/ConnectionFT601.cpp</text>
</a>
</g>
</g>
<!-- Node11&#45;&gt;Node12 -->
<g id="edge11" class="edge"><title>Node11&#45;&gt;Node12</title>
<path fill="none" stroke="midnightblue" d="M1255.6,-179.836C1224.08,-166.124 1184.87,-149.067 1155.08,-136.11"/>
<polygon fill="midnightblue" stroke="midnightblue" points="1254.55,-183.196 1265.12,-183.976 1257.34,-176.777 1254.55,-183.196"/>
</g>
<!-- Node13 -->
<g id="node13" class="node"><title>Node13</title>
<g id="a_node13"><a xlink:href="../../d5/d00/ConnectionFT601Entry_8cpp.html" target="_top" xlink:title="/home/erik/prefix/default\l/src/limesuite&#45;dev/src\l/ConnectionFTDI/ConnectionFT601\lEntry.cpp">
<polygon fill="white" stroke="black" points="1224,-89.5 1224,-141.5 1396,-141.5 1396,-89.5 1224,-89.5"/>
<text text-anchor="start" x="1232" y="-129.5" font-family="Helvetica,sans-Serif" font-size="10.00">/home/erik/prefix/default</text>
<text text-anchor="start" x="1232" y="-118.5" font-family="Helvetica,sans-Serif" font-size="10.00">/src/limesuite&#45;dev/src</text>
<text text-anchor="start" x="1232" y="-107.5" font-family="Helvetica,sans-Serif" font-size="10.00">/ConnectionFTDI/ConnectionFT601</text>
<text text-anchor="middle" x="1310" y="-96.5" font-family="Helvetica,sans-Serif" font-size="10.00">Entry.cpp</text>
</a>
</g>
</g>
<!-- Node11&#45;&gt;Node13 -->
<g id="edge12" class="edge"><title>Node11&#45;&gt;Node13</title>
<path fill="none" stroke="midnightblue" d="M1310,-173.509C1310,-163.174 1310,-151.71 1310,-141.788"/>
<polygon fill="midnightblue" stroke="midnightblue" points="1306.5,-173.758 1310,-183.758 1313.5,-173.758 1306.5,-173.758"/>
</g>
<!-- Node14&#45;&gt;Node8 -->
<g id="edge16" class="edge"><title>Node14&#45;&gt;Node8</title>
<path fill="none" stroke="midnightblue" d="M817.924,-181.499C812.887,-180.263 807.88,-179.085 803,-178 710.561,-157.455 685.256,-163.353 593,-142 589.933,-141.29 586.814,-140.536 583.671,-139.748"/>
<polygon fill="midnightblue" stroke="midnightblue" points="817.073,-184.894 827.625,-183.936 818.779,-178.105 817.073,-184.894"/>
</g>
<!-- Node15 -->
<g id="node15" class="node"><title>Node15</title>
<g id="a_node15"><a xlink:href="../../dc/d59/ConnectionFX3_8cpp.html" target="_top" xlink:title="/home/erik/prefix/default\l/src/limesuite&#45;dev/src\l/ConnectionFX3/ConnectionFX3.cpp">
<polygon fill="white" stroke="black" points="602,-95 602,-136 778,-136 778,-95 602,-95"/>
<text text-anchor="start" x="610" y="-124" font-family="Helvetica,sans-Serif" font-size="10.00">/home/erik/prefix/default</text>
<text text-anchor="start" x="610" y="-113" font-family="Helvetica,sans-Serif" font-size="10.00">/src/limesuite&#45;dev/src</text>
<text text-anchor="middle" x="690" y="-102" font-family="Helvetica,sans-Serif" font-size="10.00">/ConnectionFX3/ConnectionFX3.cpp</text>
</a>
</g>
</g>
<!-- Node14&#45;&gt;Node15 -->
<g id="edge14" class="edge"><title>Node14&#45;&gt;Node15</title>
<path fill="none" stroke="midnightblue" d="M840.387,-180.013C807.85,-166.272 767.245,-149.123 736.432,-136.11"/>
<polygon fill="midnightblue" stroke="midnightblue" points="839.196,-183.309 849.77,-183.976 841.919,-176.861 839.196,-183.309"/>
</g>
<!-- Node16 -->
<g id="node16" class="node"><title>Node16</title>
<g id="a_node16"><a xlink:href="../../d7/d46/ConnectionFX3Entry_8cpp.html" target="_top" xlink:title="/home/erik/prefix/default\l/src/limesuite&#45;dev/src\l/ConnectionFX3/ConnectionFX3Entry.cpp">
<polygon fill="white" stroke="black" points="796,-95 796,-136 996,-136 996,-95 796,-95"/>
<text text-anchor="start" x="804" y="-124" font-family="Helvetica,sans-Serif" font-size="10.00">/home/erik/prefix/default</text>
<text text-anchor="start" x="804" y="-113" font-family="Helvetica,sans-Serif" font-size="10.00">/src/limesuite&#45;dev/src</text>
<text text-anchor="middle" x="896" y="-102" font-family="Helvetica,sans-Serif" font-size="10.00">/ConnectionFX3/ConnectionFX3Entry.cpp</text>
</a>
</g>
</g>
<!-- Node14&#45;&gt;Node16 -->
<g id="edge15" class="edge"><title>Node14&#45;&gt;Node16</title>
<path fill="none" stroke="midnightblue" d="M896,-173.441C896,-161.101 896,-147.162 896,-136.164"/>
<polygon fill="midnightblue" stroke="midnightblue" points="892.5,-173.758 896,-183.758 899.5,-173.758 892.5,-173.758"/>
</g>
<!-- Node18 -->
<g id="node18" class="node"><title>Node18</title>
<g id="a_node18"><a xlink:href="../../d4/d5e/ConnectionNovenaRF7_8cpp.html" target="_top" xlink:title="NovenaRF connection over SPI&#45;DEV linux. ">
<polygon fill="white" stroke="black" points="1414,-89.5 1414,-141.5 1588,-141.5 1588,-89.5 1414,-89.5"/>
<text text-anchor="start" x="1422" y="-129.5" font-family="Helvetica,sans-Serif" font-size="10.00">/home/erik/prefix/default</text>
<text text-anchor="start" x="1422" y="-118.5" font-family="Helvetica,sans-Serif" font-size="10.00">/src/limesuite&#45;dev/src</text>
<text text-anchor="start" x="1422" y="-107.5" font-family="Helvetica,sans-Serif" font-size="10.00">/ConnectionNovenaRF7/Connection</text>
<text text-anchor="middle" x="1501" y="-96.5" font-family="Helvetica,sans-Serif" font-size="10.00">NovenaRF7.cpp</text>
</a>
</g>
</g>
<!-- Node17&#45;&gt;Node18 -->
<g id="edge18" class="edge"><title>Node17&#45;&gt;Node18</title>
<path fill="none" stroke="midnightblue" d="M1563.12,-171.649C1551.97,-161.749 1539.84,-150.98 1529.28,-141.607"/>
<polygon fill="midnightblue" stroke="midnightblue" points="1560.85,-174.314 1570.65,-178.336 1565.5,-169.08 1560.85,-174.314"/>
</g>
<!-- Node19 -->
<g id="node19" class="node"><title>Node19</title>
<g id="a_node19"><a xlink:href="../../dd/df4/ConnectionNovenaRF7__streaming_8cpp.html" target="_top" xlink:title="/home/erik/prefix/default\l/src/limesuite&#45;dev/src\l/ConnectionNovenaRF7/Connection\lNovenaRF7_streaming.cpp">
<polygon fill="white" stroke="black" points="1606,-89.5 1606,-141.5 1780,-141.5 1780,-89.5 1606,-89.5"/>
<text text-anchor="start" x="1614" y="-129.5" font-family="Helvetica,sans-Serif" font-size="10.00">/home/erik/prefix/default</text>
<text text-anchor="start" x="1614" y="-118.5" font-family="Helvetica,sans-Serif" font-size="10.00">/src/limesuite&#45;dev/src</text>
<text text-anchor="start" x="1614" y="-107.5" font-family="Helvetica,sans-Serif" font-size="10.00">/ConnectionNovenaRF7/Connection</text>
<text text-anchor="middle" x="1693" y="-96.5" font-family="Helvetica,sans-Serif" font-size="10.00">NovenaRF7_streaming.cpp</text>
</a>
</g>
</g>
<!-- Node17&#45;&gt;Node19 -->
<g id="edge19" class="edge"><title>Node17&#45;&gt;Node19</title>
<path fill="none" stroke="midnightblue" d="M1633.72,-171.363C1644.33,-161.542 1655.84,-150.89 1665.87,-141.607"/>
<polygon fill="midnightblue" stroke="midnightblue" points="1631.15,-168.975 1626.19,-178.336 1635.91,-174.112 1631.15,-168.975"/>
</g>
<!-- Node20 -->
<g id="node20" class="node"><title>Node20</title>
<g id="a_node20"><a xlink:href="../../d0/dee/ConnectionNovenaRF7Entry_8cpp.html" target="_top" xlink:title="NovenaRF connection over SPI&#45;DEV linux. ">
<polygon fill="white" stroke="black" points="1798,-89.5 1798,-141.5 1972,-141.5 1972,-89.5 1798,-89.5"/>
<text text-anchor="start" x="1806" y="-129.5" font-family="Helvetica,sans-Serif" font-size="10.00">/home/erik/prefix/default</text>
<text text-anchor="start" x="1806" y="-118.5" font-family="Helvetica,sans-Serif" font-size="10.00">/src/limesuite&#45;dev/src</text>
<text text-anchor="start" x="1806" y="-107.5" font-family="Helvetica,sans-Serif" font-size="10.00">/ConnectionNovenaRF7/Connection</text>
<text text-anchor="middle" x="1885" y="-96.5" font-family="Helvetica,sans-Serif" font-size="10.00">NovenaRF7Entry.cpp</text>
</a>
</g>
</g>
<!-- Node17&#45;&gt;Node20 -->
<g id="edge20" class="edge"><title>Node17&#45;&gt;Node20</title>
<path fill="none" stroke="midnightblue" d="M1691.31,-175.418C1727.17,-164.511 1767.91,-152.117 1802.75,-141.521"/>
<polygon fill="midnightblue" stroke="midnightblue" points="1689.89,-172.194 1681.34,-178.453 1691.93,-178.891 1689.89,-172.194"/>
</g>
<!-- Node21 -->
<g id="node21" class="node"><title>Node21</title>
<g id="a_node21"><a xlink:href="../../d8/dc5/StreamChannel_8cpp.html" target="_top" xlink:title="/home/erik/prefix/default\l/src/limesuite&#45;dev/src\l/ConnectionNovenaRF7/StreamChannel.cpp">
<polygon fill="white" stroke="black" points="1990.5,-95 1990.5,-136 2201.5,-136 2201.5,-95 1990.5,-95"/>
<text text-anchor="start" x="1998.5" y="-124" font-family="Helvetica,sans-Serif" font-size="10.00">/home/erik/prefix/default</text>
<text text-anchor="start" x="1998.5" y="-113" font-family="Helvetica,sans-Serif" font-size="10.00">/src/limesuite&#45;dev/src</text>
<text text-anchor="middle" x="2096" y="-102" font-family="Helvetica,sans-Serif" font-size="10.00">/ConnectionNovenaRF7/StreamChannel.cpp</text>
</a>
</g>
</g>
<!-- Node17&#45;&gt;Node21 -->
<g id="edge21" class="edge"><title>Node17&#45;&gt;Node21</title>
<path fill="none" stroke="midnightblue" d="M1695.7,-178.059C1695.8,-178.039 1695.9,-178.02 1696,-178 1821.34,-153.717 1855.21,-163.843 1981,-142 1991.07,-140.251 2001.6,-138.212 2012.02,-136.064"/>
<polygon fill="midnightblue" stroke="midnightblue" points="1695.22,-174.584 1686.13,-180.018 1696.62,-181.442 1695.22,-174.584"/>
</g>
<!-- Node23 -->
<g id="node23" class="node"><title>Node23</title>
<g id="a_node23"><a xlink:href="../../dc/d8d/ConnectionXillybus_8cpp.html" target="_top" xlink:title="/home/erik/prefix/default\l/src/limesuite&#45;dev/src\l/ConnectionXillybus/ConnectionXillybus.cpp">
<polygon fill="white" stroke="black" points="2219.5,-95 2219.5,-136 2428.5,-136 2428.5,-95 2219.5,-95"/>
<text text-anchor="start" x="2227.5" y="-124" font-family="Helvetica,sans-Serif" font-size="10.00">/home/erik/prefix/default</text>
<text text-anchor="start" x="2227.5" y="-113" font-family="Helvetica,sans-Serif" font-size="10.00">/src/limesuite&#45;dev/src</text>
<text text-anchor="middle" x="2324" y="-102" font-family="Helvetica,sans-Serif" font-size="10.00">/ConnectionXillybus/ConnectionXillybus.cpp</text>
</a>
</g>
</g>
<!-- Node22&#45;&gt;Node23 -->
<g id="edge23" class="edge"><title>Node22&#45;&gt;Node23</title>
<path fill="none" stroke="midnightblue" d="M1892.91,-181.858C1899.69,-180.466 1906.44,-179.16 1913,-178 2044.37,-154.77 2079.54,-164.713 2211,-142 2221.11,-140.254 2231.67,-138.191 2242.11,-136.008"/>
<polygon fill="midnightblue" stroke="midnightblue" points="1892.03,-178.465 1882.97,-183.953 1893.48,-185.315 1892.03,-178.465"/>
</g>
<!-- Node24 -->
<g id="node24" class="node"><title>Node24</title>
<g id="a_node24"><a xlink:href="../../d3/d7c/ConnectionXillybusEntry_8cpp.html" target="_top" xlink:title="/home/erik/prefix/default\l/src/limesuite&#45;dev/src\l/ConnectionXillybus/ConnectionXillybus\lEntry.cpp">
<polygon fill="white" stroke="black" points="2446.5,-89.5 2446.5,-141.5 2637.5,-141.5 2637.5,-89.5 2446.5,-89.5"/>
<text text-anchor="start" x="2454.5" y="-129.5" font-family="Helvetica,sans-Serif" font-size="10.00">/home/erik/prefix/default</text>
<text text-anchor="start" x="2454.5" y="-118.5" font-family="Helvetica,sans-Serif" font-size="10.00">/src/limesuite&#45;dev/src</text>
<text text-anchor="start" x="2454.5" y="-107.5" font-family="Helvetica,sans-Serif" font-size="10.00">/ConnectionXillybus/ConnectionXillybus</text>
<text text-anchor="middle" x="2542" y="-96.5" font-family="Helvetica,sans-Serif" font-size="10.00">Entry.cpp</text>
</a>
</g>
</g>
<!-- Node22&#45;&gt;Node24 -->
<g id="edge24" class="edge"><title>Node22&#45;&gt;Node24</title>
<path fill="none" stroke="midnightblue" d="M1890.48,-181.934C1898.06,-180.448 1905.65,-179.104 1913,-178 2144.29,-143.249 2206.9,-177.981 2438,-142 2440.76,-141.571 2443.54,-141.105 2446.36,-140.607"/>
<polygon fill="midnightblue" stroke="midnightblue" points="1889.62,-178.537 1880.52,-183.963 1891.02,-185.396 1889.62,-178.537"/>
</g>
<!-- Node29 -->
<g id="node29" class="node"><title>Node29</title>
<g id="a_node29"><a xlink:href="../../d2/df7/HPM7__wxgui_8cpp.html" target="_top" xlink:title="panel for interacting with HPM7 board ">
<polygon fill="white" stroke="black" points="2656,-95 2656,-136 2784,-136 2784,-95 2656,-95"/>
<text text-anchor="start" x="2664" y="-124" font-family="Helvetica,sans-Serif" font-size="10.00">/home/erik/prefix/default</text>
<text text-anchor="start" x="2664" y="-113" font-family="Helvetica,sans-Serif" font-size="10.00">/src/limesuite&#45;dev/src</text>
<text text-anchor="middle" x="2720" y="-102" font-family="Helvetica,sans-Serif" font-size="10.00">/HPM7/HPM7_wxgui.cpp</text>
</a>
</g>
</g>
<!-- Node28&#45;&gt;Node29 -->
<g id="edge29" class="edge"><title>Node28&#45;&gt;Node29</title>
<path fill="none" stroke="midnightblue" d="M2582.07,-179.658C2611.95,-165.977 2649,-149.011 2677.17,-136.11"/>
<polygon fill="midnightblue" stroke="midnightblue" points="2580.27,-176.63 2572.64,-183.976 2583.19,-182.994 2580.27,-176.63"/>
</g>
<!-- Node30 -->
<g id="node30" class="node"><title>Node30</title>
<g id="a_node30"><a xlink:href="../../db/db0/lms7suiteAppFrame_8cpp.html" target="_top" xlink:title="/home/erik/prefix/default\l/src/limesuite&#45;dev/src\l/lms7suiteAppFrame.cpp">
<polygon fill="white" stroke="black" points="2802.5,-95 2802.5,-136 2927.5,-136 2927.5,-95 2802.5,-95"/>
<text text-anchor="start" x="2810.5" y="-124" font-family="Helvetica,sans-Serif" font-size="10.00">/home/erik/prefix/default</text>
<text text-anchor="start" x="2810.5" y="-113" font-family="Helvetica,sans-Serif" font-size="10.00">/src/limesuite&#45;dev/src</text>
<text text-anchor="middle" x="2865" y="-102" font-family="Helvetica,sans-Serif" font-size="10.00">/lms7suiteAppFrame.cpp</text>
</a>
</g>
</g>
<!-- Node28&#45;&gt;Node30 -->
<g id="edge30" class="edge"><title>Node28&#45;&gt;Node30</title>
<path fill="none" stroke="midnightblue" d="M2590.88,-180.931C2594.29,-179.888 2597.68,-178.902 2601,-178 2684.79,-155.254 2709.16,-164.56 2793,-142 2799.4,-140.277 2806.05,-138.254 2812.6,-136.115"/>
<polygon fill="midnightblue" stroke="midnightblue" points="2589.73,-177.624 2581.27,-183.999 2591.86,-184.292 2589.73,-177.624"/>
</g>
</g>
</svg>
        <g id="navigator" transform="translate(0 0)" fill="#404254">
                <rect fill="#f2f5e9" fill-opacity="0.5" stroke="#606060" stroke-width=".5" x="0" y="0" width="60" height="60"/>
                <use id="zoomplus" xlink:href="#zoomPlus" x="17" y="9" onmousedown="handleZoom(evt,'in')"/>
                <use id="zoomminus" xlink:href="#zoomMin" x="42" y="9" onmousedown="handleZoom(evt,'out')"/>
                <use id="reset" xlink:href="#resetDef" x="30" y="36" onmousedown="handleReset()"/>
                <g id="arrowUp" xlink:href="#dirArrow" transform="translate(30 24)" onmousedown="handlePan(0,-1)">
                  <use xlink:href="#rim" fill="#404040">
                        <set attributeName="fill" to="#808080" begin="arrowUp.mouseover" end="arrowUp.mouseout"/>
                  </use>
                  <path fill="none" stroke="white" stroke-width="1.5" d="M0,-3.0v7 M-2.5,-0.5L0,-3.0L2.5,-0.5"/>
                </g>
                <g id="arrowRight" xlink:href="#dirArrow" transform="rotate(90) translate(36 -43)" onmousedown="handlePan(1,0)">
                  <use xlink:href="#rim" fill="#404040">
                        <set attributeName="fill" to="#808080" begin="arrowRight.mouseover" end="arrowRight.mouseout"/>
                  </use>
                  <path fill="none" stroke="white" stroke-width="1.5" d="M0,-3.0v7 M-2.5,-0.5L0,-3.0L2.5,-0.5"/>
                </g>
                <g id="arrowDown" xlink:href="#dirArrow" transform="rotate(180) translate(-30 -48)" onmousedown="handlePan(0,1)">
                  <use xlink:href="#rim" fill="#404040">
                        <set attributeName="fill" to="#808080" begin="arrowDown.mouseover" end="arrowDown.mouseout"/>
                  </use>
                  <path fill="none" stroke="white" stroke-width="1.5" d="M0,-3.0v7 M-2.5,-0.5L0,-3.0L2.5,-0.5"/>
                </g>
                <g id="arrowLeft" xlink:href="#dirArrow" transform="rotate(270) translate(-36 17)" onmousedown="handlePan(-1,0)">
                  <use xlink:href="#rim" fill="#404040">
                        <set attributeName="fill" to="#808080" begin="arrowLeft.mouseover" end="arrowLeft.mouseout"/>
                  </use>
                  <path fill="none" stroke="white" stroke-width="1.5" d="M0,-3.0v7 M-2.5,-0.5L0,-3.0L2.5,-0.5"/>
                </g>
        </g>
        <svg viewBox="0 0 15 15" width="100%" height="30px" preserveAspectRatio="xMaxYMin meet">
         <g id="arrow_out" transform="scale(0.3 0.3)">
          <a xlink:href="LMS64CProtocol_8h__dep__incl_org.svg" target="_base">
           <rect id="button" ry="5" rx="5" y="6" x="6" height="38" width="38"
                fill="#f2f5e9" fill-opacity="0.5" stroke="#606060" stroke-width="1.0"/>
           <path id="arrow"
             d="M 11.500037,31.436501 C 11.940474,20.09759 22.043105,11.32322 32.158766,21.979434 L 37.068811,17.246167 C 37.068811,17.246167 37.088388,32 37.088388,32 L 22.160133,31.978069 C 22.160133,31.978069 26.997745,27.140456 26.997745,27.140456 C 18.528582,18.264221 13.291696,25.230495 11.500037,31.436501 z"
             style="fill:#404040;"/>
          </a>
         </g>
        </svg>
</svg>
