<?xml version="1.0" encoding="UTF-8" standalone="no"?>
<!DOCTYPE svg PUBLIC "-//W3C//DTD SVG 1.1//EN"
 "http://www.w3.org/Graphics/SVG/1.1/DTD/svg11.dtd">
<!-- Generated by graphviz version 2.38.0 (20140413.2041)
 -->
<!-- Title: /home/erik/prefix/default/src/limesuite&#45;dev/src/API/lms7_api.cpp Pages: 1 -->
<!--zoomable 330 -->
<svg id="main" version="1.1" xmlns="http://www.w3.org/2000/svg" xmlns:xlink="http://www.w3.org/1999/xlink" xml:space="preserve" onload="init(evt)">
<style type="text/css"><![CDATA[
.edge:hover path { stroke: red; }
.edge:hover polygon { stroke: red; fill: red; }
]]></style>
<script type="text/javascript"><![CDATA[
var edges = document.getElementsByTagName('g');
if (edges && edges.length) {
  for (var i=0;i<edges.length;i++) {
    if (edges[i].id.substr(0,4)=='edge') {
      edges[i].setAttribute('class','edge');
    }
  }
}
]]></script>
        <defs>
                <circle id="rim" cx="0" cy="0" r="7"/>
                <circle id="rim2" cx="0" cy="0" r="3.5"/>
                <g id="zoomPlus">
                        <use xlink:href="#rim" fill="#404040">
                                <set attributeName="fill" to="#808080" begin="zoomplus.mouseover" end="zoomplus.mouseout"/>
                        </use>
                        <path d="M-4,0h8M0,-4v8" fill="none" stroke="white" stroke-width="1.5" pointer-events="none"/>
                </g>
                <g id="zoomMin">
                        <use xlink:href="#rim" fill="#404040">
                                <set attributeName="fill" to="#808080" begin="zoomminus.mouseover" end="zoomminus.mouseout"/>
                        </use>
                        <path d="M-4,0h8" fill="none" stroke="white" stroke-width="1.5" pointer-events="none"/>
                </g>
                <g id="dirArrow">
                        <path fill="none" stroke="white" stroke-width="1.5" d="M0,-3.0v7 M-2.5,-0.5L0,-3.0L2.5,-0.5"/>
                </g>
               <g id="resetDef">
                       <use xlink:href="#rim2" fill="#404040">
                               <set attributeName="fill" to="#808080" begin="reset.mouseover" end="reset.mouseout"/>
                       </use>
               </g>
        </defs>

<script type="text/javascript">
var viewWidth = 1860;
var viewHeight = 330;
var sectionId = 'dynsection-0';
</script>
<script xlink:href="../../svgpan.js"/>
<svg id="graph" class="graph">
<g id="viewport">
<title>/home/erik/prefix/default/src/limesuite&#45;dev/src/API/lms7_api.cpp</title>
<polygon fill="white" stroke="none" points="-4,4 -4,-326 1855.5,-326 1855.5,4 -4,4"/>
<!-- Node1 -->
<g id="node1" class="node"><title>Node1</title>
<polygon fill="#bfbfbf" stroke="black" points="1234,-280.5 1234,-321.5 1356,-321.5 1356,-280.5 1234,-280.5"/>
<text text-anchor="start" x="1242" y="-309.5" font-family="Helvetica,sans-Serif" font-size="10.00">/home/erik/prefix/default</text>
<text text-anchor="start" x="1242" y="-298.5" font-family="Helvetica,sans-Serif" font-size="10.00">/src/limesuite&#45;dev/src</text>
<text text-anchor="middle" x="1295" y="-287.5" font-family="Helvetica,sans-Serif" font-size="10.00">/API/lms7_api.cpp</text>
</g>
<!-- Node2 -->
<g id="node2" class="node"><title>Node2</title>
<g id="a_node2"><a xlink:href="../../d3/d1e/IConnection_8h.html" target="_top" xlink:title="Interface class for connection types. ">
<polygon fill="white" stroke="black" points="639.5,-168.5 639.5,-187.5 716.5,-187.5 716.5,-168.5 639.5,-168.5"/>
<text text-anchor="middle" x="678" y="-175.5" font-family="Helvetica,sans-Serif" font-size="10.00">IConnection.h</text>
</a>
</g>
</g>
<!-- Node1&#45;&gt;Node2 -->
<g id="edge1" class="edge"><title>Node1&#45;&gt;Node2</title>
<path fill="none" stroke="midnightblue" d="M1233.87,-288.011C1111.36,-263.986 838.016,-210.381 726.639,-188.539"/>
<polygon fill="midnightblue" stroke="midnightblue" points="727.178,-185.078 716.691,-186.588 725.831,-191.947 727.178,-185.078"/>
</g>
<!-- Node10 -->
<g id="node10" class="node"><title>Node10</title>
<g id="a_node10"><a xlink:href="../../dc/d17/ConnectionRegistry_8h.html" target="_top" xlink:title="Registration and access for possible connection types. ">
<polygon fill="white" stroke="black" points="382.5,-168.5 382.5,-187.5 493.5,-187.5 493.5,-168.5 382.5,-168.5"/>
<text text-anchor="middle" x="438" y="-175.5" font-family="Helvetica,sans-Serif" font-size="10.00">ConnectionRegistry.h</text>
</a>
</g>
</g>
<!-- Node1&#45;&gt;Node10 -->
<g id="edge11" class="edge"><title>Node1&#45;&gt;Node10</title>
<path fill="none" stroke="midnightblue" d="M1233.71,-291.347C1077.39,-269.276 664.845,-211.028 503.759,-188.285"/>
<polygon fill="midnightblue" stroke="midnightblue" points="503.909,-184.771 493.518,-186.839 502.93,-191.702 503.909,-184.771"/>
</g>
<!-- Node11 -->
<g id="node11" class="node"><title>Node11</title>
<g id="a_node11"><a xlink:href="../../d5/d07/LimeSuite_8h.html" target="_top" xlink:title="LMS API library. ">
<polygon fill="white" stroke="black" points="1250.5,-168.5 1250.5,-187.5 1339.5,-187.5 1339.5,-168.5 1250.5,-168.5"/>
<text text-anchor="middle" x="1295" y="-175.5" font-family="Helvetica,sans-Serif" font-size="10.00">lime/LimeSuite.h</text>
</a>
</g>
</g>
<!-- Node1&#45;&gt;Node11 -->
<g id="edge16" class="edge"><title>Node1&#45;&gt;Node11</title>
<path fill="none" stroke="midnightblue" d="M1295,-280.29C1295,-257.48 1295,-220.189 1295,-197.781"/>
<polygon fill="midnightblue" stroke="midnightblue" points="1298.5,-197.575 1295,-187.575 1291.5,-197.575 1298.5,-197.575"/>
</g>
<!-- Node15 -->
<g id="node15" class="node"><title>Node15</title>
<g id="a_node15"><a xlink:href="../../dc/d5e/lms7__device_8h.html" target="_top" xlink:title="lms7_device.h">
<polygon fill="white" stroke="black" points="1053,-224.5 1053,-243.5 1133,-243.5 1133,-224.5 1053,-224.5"/>
<text text-anchor="middle" x="1093" y="-231.5" font-family="Helvetica,sans-Serif" font-size="10.00">lms7_device.h</text>
</a>
</g>
</g>
<!-- Node1&#45;&gt;Node15 -->
<g id="edge22" class="edge"><title>Node1&#45;&gt;Node15</title>
<path fill="none" stroke="midnightblue" d="M1234.39,-280.498C1200.19,-269.493 1158.59,-256.106 1129.4,-246.713"/>
<polygon fill="midnightblue" stroke="midnightblue" points="1130.22,-243.299 1119.62,-243.567 1128.07,-249.962 1130.22,-243.299"/>
</g>
<!-- Node20 -->
<g id="node20" class="node"><title>Node20</title>
<g id="a_node20"><a xlink:href="../../d2/dbf/Streamer_8h.html" target="_top" xlink:title="Streamer.h">
<polygon fill="white" stroke="black" points="1380.5,-168.5 1380.5,-187.5 1445.5,-187.5 1445.5,-168.5 1380.5,-168.5"/>
<text text-anchor="middle" x="1413" y="-175.5" font-family="Helvetica,sans-Serif" font-size="10.00">Streamer.h</text>
</a>
</g>
</g>
<!-- Node1&#45;&gt;Node20 -->
<g id="edge67" class="edge"><title>Node1&#45;&gt;Node20</title>
<path fill="none" stroke="midnightblue" d="M1314.22,-280.29C1337.49,-256.433 1376.2,-216.737 1397.6,-194.794"/>
<polygon fill="midnightblue" stroke="midnightblue" points="1400.16,-197.178 1404.64,-187.575 1395.15,-192.29 1400.16,-197.178"/>
</g>
<!-- Node29 -->
<g id="node29" class="node"><title>Node29</title>
<polygon fill="white" stroke="#bfbfbf" points="1713,-56.5 1713,-75.5 1757,-75.5 1757,-56.5 1713,-56.5"/>
<text text-anchor="middle" x="1735" y="-63.5" font-family="Helvetica,sans-Serif" font-size="10.00">cmath</text>
</g>
<!-- Node1&#45;&gt;Node29 -->
<g id="edge51" class="edge"><title>Node1&#45;&gt;Node29</title>
<path fill="none" stroke="midnightblue" d="M1356.09,-292.434C1461.83,-278.008 1672.19,-243.018 1719,-188 1743.52,-159.179 1741.62,-111.69 1738.22,-85.6005"/>
<polygon fill="midnightblue" stroke="midnightblue" points="1741.66,-84.9161 1736.7,-75.554 1734.74,-85.9658 1741.66,-84.9161"/>
</g>
<!-- Node30 -->
<g id="node30" class="node"><title>Node30</title>
<polygon fill="white" stroke="#bfbfbf" points="1775,-56.5 1775,-75.5 1827,-75.5 1827,-56.5 1775,-56.5"/>
<text text-anchor="middle" x="1801" y="-63.5" font-family="Helvetica,sans-Serif" font-size="10.00">assert.h</text>
</g>
<!-- Node1&#45;&gt;Node30 -->
<g id="edge55" class="edge"><title>Node1&#45;&gt;Node30</title>
<path fill="none" stroke="midnightblue" d="M1356.28,-297.434C1427.96,-292.816 1549.28,-279.923 1647,-244 1691.93,-227.484 1706.41,-223.065 1739,-188 1767.55,-157.274 1786.34,-110.901 1795.16,-85.4098"/>
<polygon fill="midnightblue" stroke="midnightblue" points="1798.59,-86.1765 1798.42,-75.583 1791.95,-83.9719 1798.59,-86.1765"/>
</g>
<!-- Node31 -->
<g id="node31" class="node"><title>Node31</title>
<polygon fill="white" stroke="#bfbfbf" points="1804.5,-224.5 1804.5,-243.5 1851.5,-243.5 1851.5,-224.5 1804.5,-224.5"/>
<text text-anchor="middle" x="1828" y="-231.5" font-family="Helvetica,sans-Serif" font-size="10.00">errno.h</text>
</g>
<!-- Node1&#45;&gt;Node31 -->
<g id="edge50" class="edge"><title>Node1&#45;&gt;Node31</title>
<path fill="none" stroke="midnightblue" d="M1356.3,-295.444C1450.16,-287.933 1634.93,-271.034 1790,-244 1791.46,-243.745 1792.95,-243.468 1794.45,-243.175"/>
<polygon fill="midnightblue" stroke="midnightblue" points="1795.32,-246.568 1804.37,-241.058 1793.86,-239.722 1795.32,-246.568"/>
</g>
<!-- Node32 -->
<g id="node32" class="node"><title>Node32</title>
<g id="a_node32"><a xlink:href="../../d8/d2f/VersionInfo_8h.html" target="_top" xlink:title="API for querying version and build information. ">
<polygon fill="white" stroke="black" points="255,-112.5 255,-131.5 329,-131.5 329,-112.5 255,-112.5"/>
<text text-anchor="middle" x="292" y="-119.5" font-family="Helvetica,sans-Serif" font-size="10.00">VersionInfo.h</text>
</a>
</g>
</g>
<!-- Node1&#45;&gt;Node32 -->
<g id="edge52" class="edge"><title>Node1&#45;&gt;Node32</title>
<path fill="none" stroke="midnightblue" d="M1233.69,-297.101C1053.58,-287.875 528.937,-255.737 373,-188 346.806,-176.622 322.018,-154.441 306.923,-139.18"/>
<polygon fill="midnightblue" stroke="midnightblue" points="309.408,-136.714 299.957,-131.925 304.358,-141.562 309.408,-136.714"/>
</g>
<!-- Node33 -->
<g id="node33" class="node"><title>Node33</title>
<g id="a_node33"><a xlink:href="../../dd/da4/Logger_8h.html" target="_top" xlink:title="API for logging library status messages. ">
<polygon fill="white" stroke="black" points="69,-112.5 69,-131.5 123,-131.5 123,-112.5 69,-112.5"/>
<text text-anchor="middle" x="96" y="-119.5" font-family="Helvetica,sans-Serif" font-size="10.00">Logger.h</text>
</a>
</g>
</g>
<!-- Node1&#45;&gt;Node33 -->
<g id="edge56" class="edge"><title>Node1&#45;&gt;Node33</title>
<path fill="none" stroke="midnightblue" d="M1233.97,-300.093C1100.96,-299.328 775.419,-292.206 508,-244 363.251,-217.907 196.902,-160.164 128.223,-135.053"/>
<polygon fill="midnightblue" stroke="midnightblue" points="129.406,-131.76 118.813,-131.593 126.99,-138.329 129.406,-131.76"/>
</g>
<!-- Node37 -->
<g id="node37" class="node"><title>Node37</title>
<g id="a_node37"><a xlink:href="../../d1/d56/LMS64CProtocol_8h.html" target="_top" xlink:title="Implementation of LMS64C protocol. ">
<polygon fill="white" stroke="black" points="1424.5,-224.5 1424.5,-243.5 1523.5,-243.5 1523.5,-224.5 1424.5,-224.5"/>
<text text-anchor="middle" x="1474" y="-231.5" font-family="Helvetica,sans-Serif" font-size="10.00">LMS64CProtocol.h</text>
</a>
</g>
</g>
<!-- Node1&#45;&gt;Node37 -->
<g id="edge62" class="edge"><title>Node1&#45;&gt;Node37</title>
<path fill="none" stroke="midnightblue" d="M1348.71,-280.498C1378.52,-269.67 1414.69,-256.537 1440.49,-247.17"/>
<polygon fill="midnightblue" stroke="midnightblue" points="1441.97,-250.356 1450.17,-243.652 1439.58,-243.776 1441.97,-250.356"/>
</g>
<!-- Node3 -->
<g id="node3" class="node"><title>Node3</title>
<g id="a_node3"><a xlink:href="../../dd/d40/LimeSuiteConfig_8h.html" target="_top" xlink:title="Configuration constants and macros for lime suite library. ">
<polygon fill="white" stroke="black" points="349.5,-56.5 349.5,-75.5 446.5,-75.5 446.5,-56.5 349.5,-56.5"/>
<text text-anchor="middle" x="398" y="-63.5" font-family="Helvetica,sans-Serif" font-size="10.00">LimeSuiteConfig.h</text>
</a>
</g>
</g>
<!-- Node2&#45;&gt;Node3 -->
<g id="edge2" class="edge"><title>Node2&#45;&gt;Node3</title>
<path fill="none" stroke="midnightblue" d="M656.029,-168.368C606.652,-148.97 486.759,-101.87 429.48,-79.3673"/>
<polygon fill="midnightblue" stroke="midnightblue" points="430.456,-75.9904 419.869,-75.5914 427.897,-82.5056 430.456,-75.9904"/>
</g>
<!-- Node4 -->
<g id="node4" class="node"><title>Node4</title>
<g id="a_node4"><a xlink:href="../../d1/d5d/ConnectionHandle_8h.html" target="_top" xlink:title="Represent a connection to a device. ">
<polygon fill="white" stroke="black" points="385.5,-112.5 385.5,-131.5 490.5,-131.5 490.5,-112.5 385.5,-112.5"/>
<text text-anchor="middle" x="438" y="-119.5" font-family="Helvetica,sans-Serif" font-size="10.00">ConnectionHandle.h</text>
</a>
</g>
</g>
<!-- Node2&#45;&gt;Node4 -->
<g id="edge3" class="edge"><title>Node2&#45;&gt;Node4</title>
<path fill="none" stroke="midnightblue" d="M639.971,-168.444C598.192,-159.043 531.018,-143.929 485.73,-133.739"/>
<polygon fill="midnightblue" stroke="midnightblue" points="486.375,-130.297 475.851,-131.516 484.839,-137.126 486.375,-130.297"/>
</g>
<!-- Node5 -->
<g id="node5" class="node"><title>Node5</title>
<polygon fill="white" stroke="#bfbfbf" points="206.5,-56.5 206.5,-75.5 247.5,-75.5 247.5,-56.5 206.5,-56.5"/>
<text text-anchor="middle" x="227" y="-63.5" font-family="Helvetica,sans-Serif" font-size="10.00">string</text>
</g>
<!-- Node2&#45;&gt;Node5 -->
<g id="edge6" class="edge"><title>Node2&#45;&gt;Node5</title>
<path fill="none" stroke="midnightblue" d="M639.145,-175.4C538.651,-170.922 275.896,-156.932 246,-132 232.617,-120.839 228.362,-100.813 227.151,-85.9286"/>
<polygon fill="midnightblue" stroke="midnightblue" points="230.641,-85.6221 226.718,-75.7805 223.648,-85.9207 230.641,-85.6221"/>
</g>
<!-- Node6 -->
<g id="node6" class="node"><title>Node6</title>
<polygon fill="white" stroke="#bfbfbf" points="950,-56.5 950,-75.5 994,-75.5 994,-56.5 950,-56.5"/>
<text text-anchor="middle" x="972" y="-63.5" font-family="Helvetica,sans-Serif" font-size="10.00">vector</text>
</g>
<!-- Node2&#45;&gt;Node6 -->
<g id="edge7" class="edge"><title>Node2&#45;&gt;Node6</title>
<path fill="none" stroke="midnightblue" d="M680.493,-168.193C685.026,-153.907 696.042,-125.886 716,-112 751.73,-87.1399 878.988,-74.1932 939.535,-69.3221"/>
<polygon fill="midnightblue" stroke="midnightblue" points="939.988,-72.7976 949.686,-68.5312 939.444,-65.8187 939.988,-72.7976"/>
</g>
<!-- Node7 -->
<g id="node7" class="node"><title>Node7</title>
<polygon fill="white" stroke="#bfbfbf" points="585,-112.5 585,-131.5 631,-131.5 631,-112.5 585,-112.5"/>
<text text-anchor="middle" x="608" y="-119.5" font-family="Helvetica,sans-Serif" font-size="10.00">cstring</text>
</g>
<!-- Node2&#45;&gt;Node7 -->
<g id="edge8" class="edge"><title>Node2&#45;&gt;Node7</title>
<path fill="none" stroke="midnightblue" d="M666.753,-168.324C656.203,-160.185 640.199,-147.839 627.558,-138.087"/>
<polygon fill="midnightblue" stroke="midnightblue" points="629.507,-135.171 619.451,-131.834 625.231,-140.713 629.507,-135.171"/>
</g>
<!-- Node8 -->
<g id="node8" class="node"><title>Node8</title>
<polygon fill="white" stroke="#bfbfbf" points="725.5,-112.5 725.5,-131.5 784.5,-131.5 784.5,-112.5 725.5,-112.5"/>
<text text-anchor="middle" x="755" y="-119.5" font-family="Helvetica,sans-Serif" font-size="10.00">functional</text>
</g>
<!-- Node2&#45;&gt;Node8 -->
<g id="edge9" class="edge"><title>Node2&#45;&gt;Node8</title>
<path fill="none" stroke="midnightblue" d="M690.371,-168.324C702.158,-160.058 720.132,-147.453 734.136,-137.632"/>
<polygon fill="midnightblue" stroke="midnightblue" points="736.482,-140.262 742.659,-131.655 732.462,-134.531 736.482,-140.262"/>
</g>
<!-- Node9 -->
<g id="node9" class="node"><title>Node9</title>
<polygon fill="white" stroke="#bfbfbf" points="1185.5,-0.5 1185.5,-19.5 1234.5,-19.5 1234.5,-0.5 1185.5,-0.5"/>
<text text-anchor="middle" x="1210" y="-7.5" font-family="Helvetica,sans-Serif" font-size="10.00">stdint.h</text>
</g>
<!-- Node2&#45;&gt;Node9 -->
<g id="edge10" class="edge"><title>Node2&#45;&gt;Node9</title>
<path fill="none" stroke="midnightblue" d="M677.475,-168.475C677.118,-154.595 678.575,-127.144 694,-112 762.958,-44.2994 1070.81,-19.4967 1175.23,-12.9429"/>
<polygon fill="midnightblue" stroke="midnightblue" points="1175.48,-16.4341 1185.25,-12.3312 1175.05,-9.44713 1175.48,-16.4341"/>
</g>
<!-- Node4&#45;&gt;Node3 -->
<g id="edge4" class="edge"><title>Node4&#45;&gt;Node3</title>
<path fill="none" stroke="midnightblue" d="M431.395,-112.083C425.745,-104.455 417.455,-93.2645 410.549,-83.9408"/>
<polygon fill="midnightblue" stroke="midnightblue" points="413.247,-81.7034 404.482,-75.7511 407.622,-85.87 413.247,-81.7034"/>
</g>
<!-- Node4&#45;&gt;Node5 -->
<g id="edge5" class="edge"><title>Node4&#45;&gt;Node5</title>
<path fill="none" stroke="midnightblue" d="M404.566,-112.444C364.031,-102.07 296.308,-84.7375 257.258,-74.7438"/>
<polygon fill="midnightblue" stroke="midnightblue" points="258.072,-71.3393 247.516,-72.2506 256.336,-78.1208 258.072,-71.3393"/>
</g>
<!-- Node10&#45;&gt;Node3 -->
<g id="edge12" class="edge"><title>Node10&#45;&gt;Node3</title>
<path fill="none" stroke="midnightblue" d="M417.777,-168.495C403.229,-161.168 384.699,-149.063 376,-132 368.086,-116.477 376.395,-97.4764 384.973,-84.0376"/>
<polygon fill="midnightblue" stroke="midnightblue" points="387.914,-85.9391 390.759,-75.7334 382.171,-81.9374 387.914,-85.9391"/>
</g>
<!-- Node10&#45;&gt;Node4 -->
<g id="edge13" class="edge"><title>Node10&#45;&gt;Node4</title>
<path fill="none" stroke="midnightblue" d="M438,-168.083C438,-161.006 438,-150.861 438,-141.986"/>
<polygon fill="midnightblue" stroke="midnightblue" points="441.5,-141.751 438,-131.751 434.5,-141.751 441.5,-141.751"/>
</g>
<!-- Node10&#45;&gt;Node5 -->
<g id="edge14" class="edge"><title>Node10&#45;&gt;Node5</title>
<path fill="none" stroke="midnightblue" d="M382.436,-173.749C322.878,-168.968 234.025,-157.647 213,-132 202.059,-118.654 208.671,-98.7283 216.066,-84.4592"/>
<polygon fill="midnightblue" stroke="midnightblue" points="219.186,-86.0543 221.105,-75.6347 213.107,-82.5833 219.186,-86.0543"/>
</g>
<!-- Node10&#45;&gt;Node6 -->
<g id="edge15" class="edge"><title>Node10&#45;&gt;Node6</title>
<path fill="none" stroke="midnightblue" d="M452.289,-168.328C476.685,-153.975 528.36,-125.527 576,-112 707.101,-74.7735 870.881,-68.1921 939.449,-67.1364"/>
<polygon fill="midnightblue" stroke="midnightblue" points="939.661,-70.6342 949.617,-67.0106 939.574,-63.6347 939.661,-70.6342"/>
</g>
<!-- Node11&#45;&gt;Node9 -->
<g id="edge17" class="edge"><title>Node11&#45;&gt;Node9</title>
<path fill="none" stroke="midnightblue" d="M1333.63,-168.426C1371.1,-158.297 1419.39,-139.299 1398,-112 1356.79,-59.3888 1306.42,-114.802 1252,-76 1235.63,-64.325 1224.04,-44.0833 1217.24,-29.2827"/>
<polygon fill="midnightblue" stroke="midnightblue" points="1220.28,-27.4905 1213.14,-19.6676 1213.85,-30.2388 1220.28,-27.4905"/>
</g>
<!-- Node12 -->
<g id="node12" class="node"><title>Node12</title>
<polygon fill="white" stroke="#bfbfbf" points="1341,-112.5 1341,-131.5 1389,-131.5 1389,-112.5 1341,-112.5"/>
<text text-anchor="middle" x="1365" y="-119.5" font-family="Helvetica,sans-Serif" font-size="10.00">stdlib.h</text>
</g>
<!-- Node11&#45;&gt;Node12 -->
<g id="edge18" class="edge"><title>Node11&#45;&gt;Node12</title>
<path fill="none" stroke="midnightblue" d="M1306.25,-168.324C1316.8,-160.185 1332.8,-147.839 1345.44,-138.087"/>
<polygon fill="midnightblue" stroke="midnightblue" points="1347.77,-140.713 1353.55,-131.834 1343.49,-135.171 1347.77,-140.713"/>
</g>
<!-- Node13 -->
<g id="node13" class="node"><title>Node13</title>
<g id="a_node13"><a xlink:href="../../d1/d2e/LMS7002M__parameters_8h.html" target="_top" xlink:title="List of LMS7002M transceiver control parameters. ">
<polygon fill="white" stroke="black" points="1121,-112.5 1121,-131.5 1249,-131.5 1249,-112.5 1121,-112.5"/>
<text text-anchor="middle" x="1185" y="-119.5" font-family="Helvetica,sans-Serif" font-size="10.00">LMS7002M_parameters.h</text>
</a>
</g>
</g>
<!-- Node11&#45;&gt;Node13 -->
<g id="edge19" class="edge"><title>Node11&#45;&gt;Node13</title>
<path fill="none" stroke="midnightblue" d="M1277.33,-168.324C1259.61,-159.625 1232.1,-146.12 1211.71,-136.113"/>
<polygon fill="midnightblue" stroke="midnightblue" points="1213.15,-132.919 1202.63,-131.655 1210.06,-139.203 1213.15,-132.919"/>
</g>
<!-- Node14 -->
<g id="node14" class="node"><title>Node14</title>
<polygon fill="white" stroke="#bfbfbf" points="1267,-112.5 1267,-131.5 1323,-131.5 1323,-112.5 1267,-112.5"/>
<text text-anchor="middle" x="1295" y="-119.5" font-family="Helvetica,sans-Serif" font-size="10.00">stdbool.h</text>
</g>
<!-- Node11&#45;&gt;Node14 -->
<g id="edge21" class="edge"><title>Node11&#45;&gt;Node14</title>
<path fill="none" stroke="midnightblue" d="M1295,-168.083C1295,-161.006 1295,-150.861 1295,-141.986"/>
<polygon fill="midnightblue" stroke="midnightblue" points="1298.5,-141.751 1295,-131.751 1291.5,-141.751 1298.5,-141.751"/>
</g>
<!-- Node13&#45;&gt;Node9 -->
<g id="edge20" class="edge"><title>Node13&#45;&gt;Node9</title>
<path fill="none" stroke="midnightblue" d="M1186.96,-112.368C1191,-94.617 1200.3,-53.6664 1205.77,-29.5974"/>
<polygon fill="midnightblue" stroke="midnightblue" points="1209.24,-30.1185 1208.05,-19.5914 1202.42,-28.567 1209.24,-30.1185"/>
</g>
<!-- Node15&#45;&gt;Node2 -->
<g id="edge49" class="edge"><title>Node15&#45;&gt;Node2</title>
<path fill="none" stroke="midnightblue" d="M1052.83,-227.773C976.265,-217.81 809.695,-196.136 726.836,-185.355"/>
<polygon fill="midnightblue" stroke="midnightblue" points="727.045,-181.852 716.677,-184.033 726.142,-188.794 727.045,-181.852"/>
</g>
<!-- Node15&#45;&gt;Node5 -->
<g id="edge33" class="edge"><title>Node15&#45;&gt;Node5</title>
<path fill="none" stroke="midnightblue" d="M1052.77,-231.848C921.24,-227.869 504.876,-213.526 373,-188 295.315,-172.963 250.324,-196.15 204,-132 193.538,-117.511 203.101,-97.8147 212.891,-83.9124"/>
<polygon fill="midnightblue" stroke="midnightblue" points="215.856,-85.7965 219.148,-75.7263 210.295,-81.5452 215.856,-85.7965"/>
</g>
<!-- Node15&#45;&gt;Node6 -->
<g id="edge32" class="edge"><title>Node15&#45;&gt;Node6</title>
<path fill="none" stroke="midnightblue" d="M1094.24,-224.307C1096.81,-202.806 1100.44,-146.388 1074,-112 1057.12,-90.0459 1027.24,-78.5753 1004.17,-72.7276"/>
<polygon fill="midnightblue" stroke="midnightblue" points="1004.65,-69.2468 994.123,-70.4191 1003.09,-76.0691 1004.65,-69.2468"/>
</g>
<!-- Node15&#45;&gt;Node11 -->
<g id="edge31" class="edge"><title>Node15&#45;&gt;Node11</title>
<path fill="none" stroke="midnightblue" d="M1125.01,-224.444C1159.73,-215.162 1215.29,-200.309 1253.38,-190.127"/>
<polygon fill="midnightblue" stroke="midnightblue" points="1254.39,-193.48 1263.14,-187.516 1252.58,-186.718 1254.39,-193.48"/>
</g>
<!-- Node16 -->
<g id="node16" class="node"><title>Node16</title>
<g id="a_node16"><a xlink:href="../../d1/d7e/LMS7002M_8h.html" target="_top" xlink:title="LMS7002M transceiver configuration interface. ">
<polygon fill="white" stroke="black" points="903,-168.5 903,-187.5 977,-187.5 977,-168.5 903,-168.5"/>
<text text-anchor="middle" x="940" y="-175.5" font-family="Helvetica,sans-Serif" font-size="10.00">LMS7002M.h</text>
</a>
</g>
</g>
<!-- Node15&#45;&gt;Node16 -->
<g id="edge23" class="edge"><title>Node15&#45;&gt;Node16</title>
<path fill="none" stroke="midnightblue" d="M1068.76,-224.444C1043.13,-215.399 1002.51,-201.064 973.762,-190.916"/>
<polygon fill="midnightblue" stroke="midnightblue" points="974.725,-187.544 964.13,-187.516 972.395,-194.145 974.725,-187.544"/>
</g>
<!-- Node15&#45;&gt;Node20 -->
<g id="edge34" class="edge"><title>Node15&#45;&gt;Node20</title>
<path fill="none" stroke="midnightblue" d="M1133.2,-226.216C1193.82,-215.986 1308.11,-196.7 1370.21,-186.22"/>
<polygon fill="midnightblue" stroke="midnightblue" points="1371.17,-189.608 1380.45,-184.493 1370,-182.706 1371.17,-189.608"/>
</g>
<!-- Node16&#45;&gt;Node3 -->
<g id="edge24" class="edge"><title>Node16&#45;&gt;Node3</title>
<path fill="none" stroke="midnightblue" d="M924.695,-168.357C898.585,-154.047 843.361,-125.661 793,-112 676.496,-80.3976 534.814,-70.9724 456.736,-68.1723"/>
<polygon fill="midnightblue" stroke="midnightblue" points="456.723,-64.67 446.612,-67.8338 456.489,-71.6661 456.723,-64.67"/>
</g>
<!-- Node16&#45;&gt;Node6 -->
<g id="edge30" class="edge"><title>Node16&#45;&gt;Node6</title>
<path fill="none" stroke="midnightblue" d="M917.305,-168.316C891.377,-157.024 854.424,-135.897 870,-112 885.375,-88.4121 916.213,-77.1009 939.976,-71.7308"/>
<polygon fill="midnightblue" stroke="midnightblue" points="940.874,-75.1203 949.987,-69.7165 939.493,-68.2578 940.874,-75.1203"/>
</g>
<!-- Node16&#45;&gt;Node8 -->
<g id="edge29" class="edge"><title>Node16&#45;&gt;Node8</title>
<path fill="none" stroke="midnightblue" d="M910.686,-168.444C879.158,-159.241 828.869,-144.562 794.014,-134.388"/>
<polygon fill="midnightblue" stroke="midnightblue" points="794.757,-130.959 784.177,-131.516 792.795,-137.678 794.757,-130.959"/>
</g>
<!-- Node16&#45;&gt;Node13 -->
<g id="edge25" class="edge"><title>Node16&#45;&gt;Node13</title>
<path fill="none" stroke="midnightblue" d="M977.21,-168.799C1019.74,-159.425 1089.49,-144.051 1136.31,-133.732"/>
<polygon fill="midnightblue" stroke="midnightblue" points="1137.21,-137.117 1146.22,-131.547 1135.7,-130.281 1137.21,-137.117"/>
</g>
<!-- Node17 -->
<g id="node17" class="node"><title>Node17</title>
<polygon fill="white" stroke="#bfbfbf" points="1019,-112.5 1019,-131.5 1065,-131.5 1065,-112.5 1019,-112.5"/>
<text text-anchor="middle" x="1042" y="-119.5" font-family="Helvetica,sans-Serif" font-size="10.00">cstdint</text>
</g>
<!-- Node16&#45;&gt;Node17 -->
<g id="edge26" class="edge"><title>Node16&#45;&gt;Node17</title>
<path fill="none" stroke="midnightblue" d="M956.388,-168.324C972.671,-159.703 997.867,-146.364 1016.72,-136.386"/>
<polygon fill="midnightblue" stroke="midnightblue" points="1018.45,-139.427 1025.65,-131.655 1015.18,-133.24 1018.45,-139.427"/>
</g>
<!-- Node18 -->
<g id="node18" class="node"><title>Node18</title>
<polygon fill="white" stroke="#bfbfbf" points="879,-112.5 879,-131.5 931,-131.5 931,-112.5 879,-112.5"/>
<text text-anchor="middle" x="905" y="-119.5" font-family="Helvetica,sans-Serif" font-size="10.00">sstream</text>
</g>
<!-- Node16&#45;&gt;Node18 -->
<g id="edge27" class="edge"><title>Node16&#45;&gt;Node18</title>
<path fill="none" stroke="midnightblue" d="M934.22,-168.083C929.328,-160.534 922.173,-149.495 916.167,-140.23"/>
<polygon fill="midnightblue" stroke="midnightblue" points="919.048,-138.239 910.672,-131.751 913.174,-142.046 919.048,-138.239"/>
</g>
<!-- Node19 -->
<g id="node19" class="node"><title>Node19</title>
<polygon fill="white" stroke="#bfbfbf" points="949,-112.5 949,-131.5 1001,-131.5 1001,-112.5 949,-112.5"/>
<text text-anchor="middle" x="975" y="-119.5" font-family="Helvetica,sans-Serif" font-size="10.00">stdarg.h</text>
</g>
<!-- Node16&#45;&gt;Node19 -->
<g id="edge28" class="edge"><title>Node16&#45;&gt;Node19</title>
<path fill="none" stroke="midnightblue" d="M945.78,-168.083C950.672,-160.534 957.827,-149.495 963.833,-140.23"/>
<polygon fill="midnightblue" stroke="midnightblue" points="966.826,-142.046 969.328,-131.751 960.952,-138.239 966.826,-142.046"/>
</g>
<!-- Node20&#45;&gt;Node6 -->
<g id="edge48" class="edge"><title>Node20&#45;&gt;Node6</title>
<path fill="none" stroke="midnightblue" d="M1413.87,-168.281C1414.74,-154.122 1414.13,-126.279 1398,-112 1368.64,-86.0119 1098.6,-72.3044 1004.31,-68.2793"/>
<polygon fill="midnightblue" stroke="midnightblue" points="1004.35,-64.7781 994.214,-67.8569 1004.06,-71.772 1004.35,-64.7781"/>
</g>
<!-- Node21 -->
<g id="node21" class="node"><title>Node21</title>
<g id="a_node21"><a xlink:href="../../d4/dbd/dataTypes_8h.html" target="_top" xlink:title="dataTypes.h">
<polygon fill="white" stroke="black" points="1561.5,-56.5 1561.5,-75.5 1632.5,-75.5 1632.5,-56.5 1561.5,-56.5"/>
<text text-anchor="middle" x="1597" y="-63.5" font-family="Helvetica,sans-Serif" font-size="10.00">dataTypes.h</text>
</a>
</g>
</g>
<!-- Node20&#45;&gt;Node21 -->
<g id="edge35" class="edge"><title>Node20&#45;&gt;Node21</title>
<path fill="none" stroke="midnightblue" d="M1445.17,-168.465C1469.64,-161.09 1503.5,-148.936 1530,-132 1551,-118.575 1570.95,-97.8178 1583.54,-83.3852"/>
<polygon fill="midnightblue" stroke="midnightblue" points="1586.24,-85.6096 1590.04,-75.7217 1580.9,-81.0784 1586.24,-85.6096"/>
</g>
<!-- Node23 -->
<g id="node23" class="node"><title>Node23</title>
<g id="a_node23"><a xlink:href="../../d0/dd8/fifo_8h.html" target="_top" xlink:title="fifo.h">
<polygon fill="white" stroke="black" points="1483,-112.5 1483,-131.5 1521,-131.5 1521,-112.5 1483,-112.5"/>
<text text-anchor="middle" x="1502" y="-119.5" font-family="Helvetica,sans-Serif" font-size="10.00">fifo.h</text>
</a>
</g>
</g>
<!-- Node20&#45;&gt;Node23 -->
<g id="edge38" class="edge"><title>Node20&#45;&gt;Node23</title>
<path fill="none" stroke="midnightblue" d="M1427.3,-168.324C1441.18,-159.9 1462.49,-146.971 1478.8,-137.074"/>
<polygon fill="midnightblue" stroke="midnightblue" points="1481,-139.834 1487.74,-131.655 1477.37,-133.85 1481,-139.834"/>
</g>
<!-- Node21&#45;&gt;Node9 -->
<g id="edge37" class="edge"><title>Node21&#45;&gt;Node9</title>
<path fill="none" stroke="midnightblue" d="M1561.5,-57.5121C1558.63,-56.9757 1555.77,-56.4641 1553,-56 1440.73,-37.1785 1306.69,-21.56 1244.65,-14.7188"/>
<polygon fill="midnightblue" stroke="midnightblue" points="1244.95,-11.2304 1234.63,-13.6206 1244.19,-18.1887 1244.95,-11.2304"/>
</g>
<!-- Node22 -->
<g id="node22" class="node"><title>Node22</title>
<polygon fill="white" stroke="#bfbfbf" points="1572.5,-0.5 1572.5,-19.5 1621.5,-19.5 1621.5,-0.5 1572.5,-0.5"/>
<text text-anchor="middle" x="1597" y="-7.5" font-family="Helvetica,sans-Serif" font-size="10.00">string.h</text>
</g>
<!-- Node21&#45;&gt;Node22 -->
<g id="edge36" class="edge"><title>Node21&#45;&gt;Node22</title>
<path fill="none" stroke="midnightblue" d="M1597,-56.083C1597,-49.0059 1597,-38.8611 1597,-29.9865"/>
<polygon fill="midnightblue" stroke="midnightblue" points="1600.5,-29.751 1597,-19.7511 1593.5,-29.7511 1600.5,-29.751"/>
</g>
<!-- Node23&#45;&gt;Node6 -->
<g id="edge42" class="edge"><title>Node23&#45;&gt;Node6</title>
<path fill="none" stroke="midnightblue" d="M1482.73,-118.408C1468.46,-116.524 1448.53,-113.97 1431,-112 1271.36,-94.06 1080.02,-76.6001 1004.72,-69.8868"/>
<polygon fill="midnightblue" stroke="midnightblue" points="1004.74,-66.3749 994.472,-68.9755 1004.12,-73.3474 1004.74,-66.3749"/>
</g>
<!-- Node23&#45;&gt;Node21 -->
<g id="edge45" class="edge"><title>Node23&#45;&gt;Node21</title>
<path fill="none" stroke="midnightblue" d="M1517.26,-112.324C1532.22,-103.822 1555.25,-90.7288 1572.73,-80.7975"/>
<polygon fill="midnightblue" stroke="midnightblue" points="1574.81,-83.639 1581.77,-75.6545 1571.35,-77.5534 1574.81,-83.639"/>
</g>
<!-- Node24 -->
<g id="node24" class="node"><title>Node24</title>
<polygon fill="white" stroke="#bfbfbf" points="1651,-56.5 1651,-75.5 1695,-75.5 1695,-56.5 1651,-56.5"/>
<text text-anchor="middle" x="1673" y="-63.5" font-family="Helvetica,sans-Serif" font-size="10.00">mutex</text>
</g>
<!-- Node23&#45;&gt;Node24 -->
<g id="edge39" class="edge"><title>Node23&#45;&gt;Node24</title>
<path fill="none" stroke="midnightblue" d="M1521.28,-114.91C1550.38,-105.722 1605.84,-88.2093 1641.04,-77.0935"/>
<polygon fill="midnightblue" stroke="midnightblue" points="1642.34,-80.3518 1650.82,-74.0029 1640.23,-73.6767 1642.34,-80.3518"/>
</g>
<!-- Node25 -->
<g id="node25" class="node"><title>Node25</title>
<polygon fill="white" stroke="#bfbfbf" points="1448.5,-56.5 1448.5,-75.5 1543.5,-75.5 1543.5,-56.5 1448.5,-56.5"/>
<text text-anchor="middle" x="1496" y="-63.5" font-family="Helvetica,sans-Serif" font-size="10.00">condition_variable</text>
</g>
<!-- Node23&#45;&gt;Node25 -->
<g id="edge40" class="edge"><title>Node23&#45;&gt;Node25</title>
<path fill="none" stroke="midnightblue" d="M1501.01,-112.083C1500.21,-104.927 1499.07,-94.6353 1498.08,-85.6911"/>
<polygon fill="midnightblue" stroke="midnightblue" points="1501.56,-85.3034 1496.97,-75.7511 1494.6,-86.0765 1501.56,-85.3034"/>
</g>
<!-- Node26 -->
<g id="node26" class="node"><title>Node26</title>
<polygon fill="white" stroke="#bfbfbf" points="1261,-56.5 1261,-75.5 1307,-75.5 1307,-56.5 1261,-56.5"/>
<text text-anchor="middle" x="1284" y="-63.5" font-family="Helvetica,sans-Serif" font-size="10.00">atomic</text>
</g>
<!-- Node23&#45;&gt;Node26 -->
<g id="edge41" class="edge"><title>Node23&#45;&gt;Node26</title>
<path fill="none" stroke="midnightblue" d="M1482.84,-115.651C1478.31,-114.421 1473.49,-113.14 1469,-112 1404.33,-95.5794 1385.33,-93.6137 1317.02,-76.1745"/>
<polygon fill="midnightblue" stroke="midnightblue" points="1317.6,-72.7099 1307.04,-73.6079 1315.85,-79.4892 1317.6,-72.7099"/>
</g>
<!-- Node27 -->
<g id="node27" class="node"><title>Node27</title>
<polygon fill="white" stroke="#bfbfbf" points="1325,-56.5 1325,-75.5 1369,-75.5 1369,-56.5 1325,-56.5"/>
<text text-anchor="middle" x="1347" y="-63.5" font-family="Helvetica,sans-Serif" font-size="10.00">thread</text>
</g>
<!-- Node23&#45;&gt;Node27 -->
<g id="edge43" class="edge"><title>Node23&#45;&gt;Node27</title>
<path fill="none" stroke="midnightblue" d="M1482.99,-114.379C1457.03,-105.332 1410.11,-88.9866 1378.75,-78.0627"/>
<polygon fill="midnightblue" stroke="midnightblue" points="1379.76,-74.7074 1369.17,-74.7225 1377.46,-81.3177 1379.76,-74.7074"/>
</g>
<!-- Node28 -->
<g id="node28" class="node"><title>Node28</title>
<polygon fill="white" stroke="#bfbfbf" points="1387.5,-56.5 1387.5,-75.5 1430.5,-75.5 1430.5,-56.5 1387.5,-56.5"/>
<text text-anchor="middle" x="1409" y="-63.5" font-family="Helvetica,sans-Serif" font-size="10.00">queue</text>
</g>
<!-- Node23&#45;&gt;Node28 -->
<g id="edge44" class="edge"><title>Node23&#45;&gt;Node28</title>
<path fill="none" stroke="midnightblue" d="M1487.06,-112.324C1472.41,-103.822 1449.87,-90.7288 1432.76,-80.7975"/>
<polygon fill="midnightblue" stroke="midnightblue" points="1434.31,-77.6491 1423.9,-75.6545 1430.8,-83.7027 1434.31,-77.6491"/>
</g>
<!-- Node23&#45;&gt;Node29 -->
<g id="edge46" class="edge"><title>Node23&#45;&gt;Node29</title>
<path fill="none" stroke="midnightblue" d="M1521.03,-117.18C1555.42,-110.189 1630.36,-94.5473 1702.94,-76.1524"/>
<polygon fill="midnightblue" stroke="midnightblue" points="1703.87,-79.526 1712.7,-73.6587 1702.14,-72.744 1703.87,-79.526"/>
</g>
<!-- Node23&#45;&gt;Node30 -->
<g id="edge47" class="edge"><title>Node23&#45;&gt;Node30</title>
<path fill="none" stroke="midnightblue" d="M1521.32,-118.268C1563.63,-112.166 1667.83,-96.4958 1764.73,-76.1312"/>
<polygon fill="midnightblue" stroke="midnightblue" points="1765.63,-79.5182 1774.68,-74.0166 1764.17,-72.6709 1765.63,-79.5182"/>
</g>
<!-- Node32&#45;&gt;Node3 -->
<g id="edge53" class="edge"><title>Node32&#45;&gt;Node3</title>
<path fill="none" stroke="midnightblue" d="M309.031,-112.324C326.03,-103.664 352.376,-90.2424 371.993,-80.249"/>
<polygon fill="midnightblue" stroke="midnightblue" points="373.69,-83.3125 381.012,-75.6545 370.512,-77.0752 373.69,-83.3125"/>
</g>
<!-- Node32&#45;&gt;Node5 -->
<g id="edge54" class="edge"><title>Node32&#45;&gt;Node5</title>
<path fill="none" stroke="midnightblue" d="M281.557,-112.324C271.854,-104.263 257.185,-92.0765 245.5,-82.3695"/>
<polygon fill="midnightblue" stroke="midnightblue" points="247.562,-79.532 237.633,-75.8339 243.089,-84.9163 247.562,-79.532"/>
</g>
<!-- Node33&#45;&gt;Node3 -->
<g id="edge57" class="edge"><title>Node33&#45;&gt;Node3</title>
<path fill="none" stroke="midnightblue" d="M123.066,-116.16C171.715,-107.462 274.928,-89.0062 340.131,-77.3474"/>
<polygon fill="midnightblue" stroke="midnightblue" points="341.027,-80.7427 350.255,-75.5371 339.795,-73.852 341.027,-80.7427"/>
</g>
<!-- Node33&#45;&gt;Node5 -->
<g id="edge58" class="edge"><title>Node33&#45;&gt;Node5</title>
<path fill="none" stroke="midnightblue" d="M116.757,-112.444C138.316,-103.557 172.263,-89.5632 196.794,-79.4514"/>
<polygon fill="midnightblue" stroke="midnightblue" points="198.428,-82.5634 206.34,-75.5164 195.761,-76.0917 198.428,-82.5634"/>
</g>
<!-- Node34 -->
<g id="node34" class="node"><title>Node34</title>
<polygon fill="white" stroke="#bfbfbf" points="139.5,-56.5 139.5,-75.5 188.5,-75.5 188.5,-56.5 139.5,-56.5"/>
<text text-anchor="middle" x="164" y="-63.5" font-family="Helvetica,sans-Serif" font-size="10.00">cstdarg</text>
</g>
<!-- Node33&#45;&gt;Node34 -->
<g id="edge59" class="edge"><title>Node33&#45;&gt;Node34</title>
<path fill="none" stroke="midnightblue" d="M106.925,-112.324C117.175,-104.185 132.721,-91.8395 145.001,-82.0874"/>
<polygon fill="midnightblue" stroke="midnightblue" points="147.221,-84.7937 152.876,-75.8339 142.868,-79.3119 147.221,-84.7937"/>
</g>
<!-- Node35 -->
<g id="node35" class="node"><title>Node35</title>
<polygon fill="white" stroke="#bfbfbf" points="0,-56.5 0,-75.5 44,-75.5 44,-56.5 0,-56.5"/>
<text text-anchor="middle" x="22" y="-63.5" font-family="Helvetica,sans-Serif" font-size="10.00">cerrno</text>
</g>
<!-- Node33&#45;&gt;Node35 -->
<g id="edge60" class="edge"><title>Node33&#45;&gt;Node35</title>
<path fill="none" stroke="midnightblue" d="M84.1106,-112.324C72.8498,-104.107 55.7134,-91.6017 42.2909,-81.8069"/>
<polygon fill="midnightblue" stroke="midnightblue" points="44.2468,-78.9014 34.1057,-75.8339 40.1205,-84.5559 44.2468,-78.9014"/>
</g>
<!-- Node36 -->
<g id="node36" class="node"><title>Node36</title>
<polygon fill="white" stroke="#bfbfbf" points="62.5,-56.5 62.5,-75.5 121.5,-75.5 121.5,-56.5 62.5,-56.5"/>
<text text-anchor="middle" x="92" y="-63.5" font-family="Helvetica,sans-Serif" font-size="10.00">stdexcept</text>
</g>
<!-- Node33&#45;&gt;Node36 -->
<g id="edge61" class="edge"><title>Node33&#45;&gt;Node36</title>
<path fill="none" stroke="midnightblue" d="M95.3395,-112.083C94.8152,-105.006 94.0638,-94.8611 93.4064,-85.9865"/>
<polygon fill="midnightblue" stroke="midnightblue" points="96.8775,-85.4652 92.6482,-75.7511 89.8966,-85.9823 96.8775,-85.4652"/>
</g>
<!-- Node37&#45;&gt;Node2 -->
<g id="edge63" class="edge"><title>Node37&#45;&gt;Node2</title>
<path fill="none" stroke="midnightblue" d="M1424.21,-229.622C1280.93,-219.902 868.813,-191.945 726.793,-182.31"/>
<polygon fill="midnightblue" stroke="midnightblue" points="726.861,-178.807 716.647,-181.622 726.387,-185.791 726.861,-178.807"/>
</g>
<!-- Node37&#45;&gt;Node24 -->
<g id="edge64" class="edge"><title>Node37&#45;&gt;Node24</title>
<path fill="none" stroke="midnightblue" d="M1474.62,-224.483C1476.01,-211.098 1480.38,-184.923 1494,-168 1495.37,-166.294 1600,-107.756 1648.64,-80.5941"/>
<polygon fill="midnightblue" stroke="midnightblue" points="1650.55,-83.5371 1657.57,-75.6063 1647.14,-77.4251 1650.55,-83.5371"/>
</g>
<!-- Node38 -->
<g id="node38" class="node"><title>Node38</title>
<g id="a_node38"><a xlink:href="../../de/dd5/LMS64CCommands_8h.html" target="_top" xlink:title="enumerations of LMS64C command options ">
<polygon fill="white" stroke="black" points="1502.5,-168.5 1502.5,-187.5 1615.5,-187.5 1615.5,-168.5 1502.5,-168.5"/>
<text text-anchor="middle" x="1559" y="-175.5" font-family="Helvetica,sans-Serif" font-size="10.00">LMS64CCommands.h</text>
</a>
</g>
</g>
<!-- Node37&#45;&gt;Node38 -->
<g id="edge65" class="edge"><title>Node37&#45;&gt;Node38</title>
<path fill="none" stroke="midnightblue" d="M1487.66,-224.324C1500.92,-215.9 1521.27,-202.971 1536.85,-193.074"/>
<polygon fill="midnightblue" stroke="midnightblue" points="1538.81,-195.971 1545.38,-187.655 1535.06,-190.063 1538.81,-195.971"/>
</g>
<!-- Node39 -->
<g id="node39" class="node"><title>Node39</title>
<g id="a_node39"><a xlink:href="../../d8/df2/LMSBoards_8h.html" target="_top" xlink:title="enumerations of available LMS7002M hardware ">
<polygon fill="white" stroke="black" points="1634,-168.5 1634,-187.5 1710,-187.5 1710,-168.5 1634,-168.5"/>
<text text-anchor="middle" x="1672" y="-175.5" font-family="Helvetica,sans-Serif" font-size="10.00">LMSBoards.h</text>
</a>
</g>
</g>
<!-- Node37&#45;&gt;Node39 -->
<g id="edge66" class="edge"><title>Node37&#45;&gt;Node39</title>
<path fill="none" stroke="midnightblue" d="M1505.37,-224.444C1539.26,-215.201 1593.4,-200.436 1630.72,-190.257"/>
<polygon fill="midnightblue" stroke="midnightblue" points="1632.05,-193.524 1640.77,-187.516 1630.2,-186.771 1632.05,-193.524"/>
</g>
</g>
</svg>
        <g id="navigator" transform="translate(0 0)" fill="#404254">
                <rect fill="#f2f5e9" fill-opacity="0.5" stroke="#606060" stroke-width=".5" x="0" y="0" width="60" height="60"/>
                <use id="zoomplus" xlink:href="#zoomPlus" x="17" y="9" onmousedown="handleZoom(evt,'in')"/>
                <use id="zoomminus" xlink:href="#zoomMin" x="42" y="9" onmousedown="handleZoom(evt,'out')"/>
                <use id="reset" xlink:href="#resetDef" x="30" y="36" onmousedown="handleReset()"/>
                <g id="arrowUp" xlink:href="#dirArrow" transform="translate(30 24)" onmousedown="handlePan(0,-1)">
                  <use xlink:href="#rim" fill="#404040">
                        <set attributeName="fill" to="#808080" begin="arrowUp.mouseover" end="arrowUp.mouseout"/>
                  </use>
                  <path fill="none" stroke="white" stroke-width="1.5" d="M0,-3.0v7 M-2.5,-0.5L0,-3.0L2.5,-0.5"/>
                </g>
                <g id="arrowRight" xlink:href="#dirArrow" transform="rotate(90) translate(36 -43)" onmousedown="handlePan(1,0)">
                  <use xlink:href="#rim" fill="#404040">
                        <set attributeName="fill" to="#808080" begin="arrowRight.mouseover" end="arrowRight.mouseout"/>
                  </use>
                  <path fill="none" stroke="white" stroke-width="1.5" d="M0,-3.0v7 M-2.5,-0.5L0,-3.0L2.5,-0.5"/>
                </g>
                <g id="arrowDown" xlink:href="#dirArrow" transform="rotate(180) translate(-30 -48)" onmousedown="handlePan(0,1)">
                  <use xlink:href="#rim" fill="#404040">
                        <set attributeName="fill" to="#808080" begin="arrowDown.mouseover" end="arrowDown.mouseout"/>
                  </use>
                  <path fill="none" stroke="white" stroke-width="1.5" d="M0,-3.0v7 M-2.5,-0.5L0,-3.0L2.5,-0.5"/>
                </g>
                <g id="arrowLeft" xlink:href="#dirArrow" transform="rotate(270) translate(-36 17)" onmousedown="handlePan(-1,0)">
                  <use xlink:href="#rim" fill="#404040">
                        <set attributeName="fill" to="#808080" begin="arrowLeft.mouseover" end="arrowLeft.mouseout"/>
                  </use>
                  <path fill="none" stroke="white" stroke-width="1.5" d="M0,-3.0v7 M-2.5,-0.5L0,-3.0L2.5,-0.5"/>
                </g>
        </g>
        <svg viewBox="0 0 15 15" width="100%" height="30px" preserveAspectRatio="xMaxYMin meet">
         <g id="arrow_out" transform="scale(0.3 0.3)">
          <a xlink:href="lms7__api_8cpp__incl_org.svg" target="_base">
           <rect id="button" ry="5" rx="5" y="6" x="6" height="38" width="38"
                fill="#f2f5e9" fill-opacity="0.5" stroke="#606060" stroke-width="1.0"/>
           <path id="arrow"
             d="M 11.500037,31.436501 C 11.940474,20.09759 22.043105,11.32322 32.158766,21.979434 L 37.068811,17.246167 C 37.068811,17.246167 37.088388,32 37.088388,32 L 22.160133,31.978069 C 22.160133,31.978069 26.997745,27.140456 26.997745,27.140456 C 18.528582,18.264221 13.291696,25.230495 11.500037,31.436501 z"
             style="fill:#404040;"/>
          </a>
         </g>
        </svg>
</svg>
