<?xml version="1.0" encoding="UTF-8" standalone="no"?>
<!DOCTYPE svg PUBLIC "-//W3C//DTD SVG 1.1//EN"
 "http://www.w3.org/Graphics/SVG/1.1/DTD/svg11.dtd">
<!-- Generated by graphviz version 2.38.0 (20140413.2041)
 -->
<!-- Title: /home/erik/prefix/default/src/limesuite&#45;dev/src/lms7002_wxgui/lms7002_pnlXBUF_view.cpp Pages: 1 -->
<!--zoomable 285 -->
<svg id="main" version="1.1" xmlns="http://www.w3.org/2000/svg" xmlns:xlink="http://www.w3.org/1999/xlink" xml:space="preserve" onload="init(evt)">
<style type="text/css"><![CDATA[
.edge:hover path { stroke: red; }
.edge:hover polygon { stroke: red; fill: red; }
]]></style>
<script type="text/javascript"><![CDATA[
var edges = document.getElementsByTagName('g');
if (edges && edges.length) {
  for (var i=0;i<edges.length;i++) {
    if (edges[i].id.substr(0,4)=='edge') {
      edges[i].setAttribute('class','edge');
    }
  }
}
]]></script>
        <defs>
                <circle id="rim" cx="0" cy="0" r="7"/>
                <circle id="rim2" cx="0" cy="0" r="3.5"/>
                <g id="zoomPlus">
                        <use xlink:href="#rim" fill="#404040">
                                <set attributeName="fill" to="#808080" begin="zoomplus.mouseover" end="zoomplus.mouseout"/>
                        </use>
                        <path d="M-4,0h8M0,-4v8" fill="none" stroke="white" stroke-width="1.5" pointer-events="none"/>
                </g>
                <g id="zoomMin">
                        <use xlink:href="#rim" fill="#404040">
                                <set attributeName="fill" to="#808080" begin="zoomminus.mouseover" end="zoomminus.mouseout"/>
                        </use>
                        <path d="M-4,0h8" fill="none" stroke="white" stroke-width="1.5" pointer-events="none"/>
                </g>
                <g id="dirArrow">
                        <path fill="none" stroke="white" stroke-width="1.5" d="M0,-3.0v7 M-2.5,-0.5L0,-3.0L2.5,-0.5"/>
                </g>
               <g id="resetDef">
                       <use xlink:href="#rim2" fill="#404040">
                               <set attributeName="fill" to="#808080" begin="reset.mouseover" end="reset.mouseout"/>
                       </use>
               </g>
        </defs>

<script type="text/javascript">
var viewWidth = 2621;
var viewHeight = 285;
var sectionId = 'dynsection-0';
</script>
<script xlink:href="../../svgpan.js"/>
<svg id="graph" class="graph">
<g id="viewport">
<title>/home/erik/prefix/default/src/limesuite&#45;dev/src/lms7002_wxgui/lms7002_pnlXBUF_view.cpp</title>
<polygon fill="white" stroke="none" points="-4,4 -4,-281 2617,-281 2617,4 -4,4"/>
<!-- Node1 -->
<g id="node1" class="node"><title>Node1</title>
<polygon fill="#bfbfbf" stroke="black" points="2399,-224.5 2399,-276.5 2571,-276.5 2571,-224.5 2399,-224.5"/>
<text text-anchor="start" x="2407" y="-264.5" font-family="Helvetica,sans-Serif" font-size="10.00">/home/erik/prefix/default</text>
<text text-anchor="start" x="2407" y="-253.5" font-family="Helvetica,sans-Serif" font-size="10.00">/src/limesuite&#45;dev/src</text>
<text text-anchor="start" x="2407" y="-242.5" font-family="Helvetica,sans-Serif" font-size="10.00">/lms7002_wxgui/lms7002_pnlXBUF</text>
<text text-anchor="middle" x="2485" y="-231.5" font-family="Helvetica,sans-Serif" font-size="10.00">_view.cpp</text>
</g>
<!-- Node2 -->
<g id="node2" class="node"><title>Node2</title>
<g id="a_node2"><a xlink:href="../../d6/d1e/lms7002__pnlXBUF__view_8h.html" target="_top" xlink:title="Subclass of pnlXBUF_view, which is generated by wxFormBuilder. ">
<polygon fill="white" stroke="black" points="2277,-168.5 2277,-187.5 2409,-187.5 2409,-168.5 2277,-168.5"/>
<text text-anchor="middle" x="2343" y="-175.5" font-family="Helvetica,sans-Serif" font-size="10.00">lms7002_pnlXBUF_view.h</text>
</a>
</g>
</g>
<!-- Node1&#45;&gt;Node2 -->
<g id="edge1" class="edge"><title>Node1&#45;&gt;Node2</title>
<path fill="none" stroke="midnightblue" d="M2434.54,-224.446C2412.51,-213.509 2387.59,-201.14 2369.33,-192.07"/>
<polygon fill="midnightblue" stroke="midnightblue" points="2370.69,-188.839 2360.17,-187.527 2367.58,-195.109 2370.69,-188.839"/>
</g>
<!-- Node30 -->
<g id="node30" class="node"><title>Node30</title>
<polygon fill="white" stroke="#bfbfbf" points="2525.5,-112.5 2525.5,-131.5 2560.5,-131.5 2560.5,-112.5 2525.5,-112.5"/>
<text text-anchor="middle" x="2543" y="-119.5" font-family="Helvetica,sans-Serif" font-size="10.00">map</text>
</g>
<!-- Node1&#45;&gt;Node30 -->
<g id="edge36" class="edge"><title>Node1&#45;&gt;Node30</title>
<path fill="none" stroke="midnightblue" d="M2522.95,-224.325C2534.5,-214.498 2545.77,-202.166 2552,-188 2558.51,-173.187 2555.03,-154.803 2550.63,-141.37"/>
<polygon fill="midnightblue" stroke="midnightblue" points="2553.85,-139.978 2547.09,-131.821 2547.29,-142.414 2553.85,-139.978"/>
</g>
<!-- Node36 -->
<g id="node36" class="node"><title>Node36</title>
<g id="a_node36"><a xlink:href="../../d8/d8c/lms7002__gui__utilities_8h.html" target="_top" xlink:title="lms7002_gui_utilities.h">
<polygon fill="white" stroke="black" points="2427,-168.5 2427,-187.5 2543,-187.5 2543,-168.5 2427,-168.5"/>
<text text-anchor="middle" x="2485" y="-175.5" font-family="Helvetica,sans-Serif" font-size="10.00">lms7002_gui_utilities.h</text>
</a>
</g>
</g>
<!-- Node1&#45;&gt;Node36 -->
<g id="edge37" class="edge"><title>Node1&#45;&gt;Node36</title>
<path fill="none" stroke="midnightblue" d="M2485,-224.446C2485,-215.73 2485,-206.104 2485,-197.964"/>
<polygon fill="midnightblue" stroke="midnightblue" points="2488.5,-197.695 2485,-187.695 2481.5,-197.696 2488.5,-197.695"/>
</g>
<!-- Node3 -->
<g id="node3" class="node"><title>Node3</title>
<g id="a_node3"><a xlink:href="../../d0/d32/lms7002__wxgui_8h.html" target="_top" xlink:title="lms7002_wxgui.h">
<polygon fill="white" stroke="black" points="1123,-112.5 1123,-131.5 1215,-131.5 1215,-112.5 1123,-112.5"/>
<text text-anchor="middle" x="1169" y="-119.5" font-family="Helvetica,sans-Serif" font-size="10.00">lms7002_wxgui.h</text>
</a>
</g>
</g>
<!-- Node2&#45;&gt;Node3 -->
<g id="edge2" class="edge"><title>Node2&#45;&gt;Node3</title>
<path fill="none" stroke="midnightblue" d="M2276.94,-173.962C2067.38,-164.322 1419.85,-134.538 1225.02,-125.577"/>
<polygon fill="midnightblue" stroke="midnightblue" points="1225.15,-122.079 1215,-125.116 1224.83,-129.072 1225.15,-122.079"/>
</g>
<!-- Node2&#45;&gt;Node30 -->
<g id="edge29" class="edge"><title>Node2&#45;&gt;Node30</title>
<path fill="none" stroke="midnightblue" d="M2378.65,-168.472C2411.7,-160.399 2462.45,-147.59 2515.42,-132.017"/>
<polygon fill="midnightblue" stroke="midnightblue" points="2516.74,-135.276 2525.34,-129.077 2514.75,-128.565 2516.74,-135.276"/>
</g>
<!-- Node31 -->
<g id="node31" class="node"><title>Node31</title>
<g id="a_node31"><a xlink:href="../../d5/d07/LimeSuite_8h.html" target="_top" xlink:title="LMS API library. ">
<polygon fill="white" stroke="black" points="2356.5,-112.5 2356.5,-131.5 2445.5,-131.5 2445.5,-112.5 2356.5,-112.5"/>
<text text-anchor="middle" x="2401" y="-119.5" font-family="Helvetica,sans-Serif" font-size="10.00">lime/LimeSuite.h</text>
</a>
</g>
</g>
<!-- Node2&#45;&gt;Node31 -->
<g id="edge30" class="edge"><title>Node2&#45;&gt;Node31</title>
<path fill="none" stroke="midnightblue" d="M2352.32,-168.324C2360.89,-160.341 2373.81,-148.313 2384.19,-138.653"/>
<polygon fill="midnightblue" stroke="midnightblue" points="2386.58,-141.21 2391.51,-131.834 2381.81,-136.086 2386.58,-141.21"/>
</g>
<!-- Node4 -->
<g id="node4" class="node"><title>Node4</title>
<polygon fill="white" stroke="#bfbfbf" points="1220.5,-56.5 1220.5,-75.5 1291.5,-75.5 1291.5,-56.5 1220.5,-56.5"/>
<text text-anchor="middle" x="1256" y="-63.5" font-family="Helvetica,sans-Serif" font-size="10.00">wx/artprov.h</text>
</g>
<!-- Node3&#45;&gt;Node4 -->
<g id="edge3" class="edge"><title>Node3&#45;&gt;Node4</title>
<path fill="none" stroke="midnightblue" d="M1182.98,-112.324C1196.55,-103.9 1217.38,-90.9709 1233.32,-81.0741"/>
<polygon fill="midnightblue" stroke="midnightblue" points="1235.41,-83.9019 1242.06,-75.6545 1231.71,-77.9544 1235.41,-83.9019"/>
</g>
<!-- Node5 -->
<g id="node5" class="node"><title>Node5</title>
<polygon fill="white" stroke="#bfbfbf" points="1310,-56.5 1310,-75.5 1396,-75.5 1396,-56.5 1310,-56.5"/>
<text text-anchor="middle" x="1353" y="-63.5" font-family="Helvetica,sans-Serif" font-size="10.00">wx/xrc/xmlres.h</text>
</g>
<!-- Node3&#45;&gt;Node5 -->
<g id="edge4" class="edge"><title>Node3&#45;&gt;Node5</title>
<path fill="none" stroke="midnightblue" d="M1198.16,-112.444C1229.51,-103.241 1279.53,-88.5617 1314.2,-78.3879"/>
<polygon fill="midnightblue" stroke="midnightblue" points="1315.37,-81.6909 1323.98,-75.5164 1313.4,-74.9742 1315.37,-81.6909"/>
</g>
<!-- Node6 -->
<g id="node6" class="node"><title>Node6</title>
<polygon fill="white" stroke="#bfbfbf" points="1414.5,-56.5 1414.5,-75.5 1479.5,-75.5 1479.5,-56.5 1414.5,-56.5"/>
<text text-anchor="middle" x="1447" y="-63.5" font-family="Helvetica,sans-Serif" font-size="10.00">wx/string.h</text>
</g>
<!-- Node3&#45;&gt;Node6 -->
<g id="edge5" class="edge"><title>Node3&#45;&gt;Node6</title>
<path fill="none" stroke="midnightblue" d="M1215.19,-112.513C1260.67,-104.085 1332.38,-90.6045 1404.31,-76.1025"/>
<polygon fill="midnightblue" stroke="midnightblue" points="1405.35,-79.463 1414.46,-74.0499 1403.96,-72.6019 1405.35,-79.463"/>
</g>
<!-- Node7 -->
<g id="node7" class="node"><title>Node7</title>
<polygon fill="white" stroke="#bfbfbf" points="1498,-56.5 1498,-75.5 1566,-75.5 1566,-56.5 1498,-56.5"/>
<text text-anchor="middle" x="1532" y="-63.5" font-family="Helvetica,sans-Serif" font-size="10.00">wx/button.h</text>
</g>
<!-- Node3&#45;&gt;Node7 -->
<g id="edge6" class="edge"><title>Node3&#45;&gt;Node7</title>
<path fill="none" stroke="midnightblue" d="M1215.25,-115.478C1275.66,-108.049 1384.91,-93.8719 1487.83,-76.1086"/>
<polygon fill="midnightblue" stroke="midnightblue" points="1488.52,-79.5417 1497.77,-74.3785 1487.32,-72.6455 1488.52,-79.5417"/>
</g>
<!-- Node8 -->
<g id="node8" class="node"><title>Node8</title>
<polygon fill="white" stroke="#bfbfbf" points="1584,-56.5 1584,-75.5 1656,-75.5 1656,-56.5 1584,-56.5"/>
<text text-anchor="middle" x="1620" y="-63.5" font-family="Helvetica,sans-Serif" font-size="10.00">wx/gdicmn.h</text>
</g>
<!-- Node3&#45;&gt;Node8 -->
<g id="edge7" class="edge"><title>Node3&#45;&gt;Node8</title>
<path fill="none" stroke="midnightblue" d="M1215.14,-117.203C1288.8,-110.854 1437.68,-96.8438 1573.53,-76.1112"/>
<polygon fill="midnightblue" stroke="midnightblue" points="1574.35,-79.5256 1583.7,-74.542 1573.28,-72.6075 1574.35,-79.5256"/>
</g>
<!-- Node9 -->
<g id="node9" class="node"><title>Node9</title>
<polygon fill="white" stroke="#bfbfbf" points="1674.5,-56.5 1674.5,-75.5 1731.5,-75.5 1731.5,-56.5 1674.5,-56.5"/>
<text text-anchor="middle" x="1703" y="-63.5" font-family="Helvetica,sans-Serif" font-size="10.00">wx/font.h</text>
</g>
<!-- Node3&#45;&gt;Node9 -->
<g id="edge8" class="edge"><title>Node3&#45;&gt;Node9</title>
<path fill="none" stroke="midnightblue" d="M1215.09,-119.008C1301.37,-114.805 1493.23,-103.22 1664.5,-75.8331"/>
<polygon fill="midnightblue" stroke="midnightblue" points="1665.14,-79.2752 1674.45,-74.2202 1664.02,-72.3654 1665.14,-79.2752"/>
</g>
<!-- Node10 -->
<g id="node10" class="node"><title>Node10</title>
<polygon fill="white" stroke="#bfbfbf" points="1749.5,-56.5 1749.5,-75.5 1816.5,-75.5 1816.5,-56.5 1749.5,-56.5"/>
<text text-anchor="middle" x="1783" y="-63.5" font-family="Helvetica,sans-Serif" font-size="10.00">wx/colour.h</text>
</g>
<!-- Node3&#45;&gt;Node10 -->
<g id="edge9" class="edge"><title>Node3&#45;&gt;Node10</title>
<path fill="none" stroke="midnightblue" d="M1215.2,-119.443C1311.15,-115.762 1539.08,-104.692 1739.04,-76.1199"/>
<polygon fill="midnightblue" stroke="midnightblue" points="1739.75,-79.5542 1749.14,-74.6579 1738.75,-72.6264 1739.75,-79.5542"/>
</g>
<!-- Node11 -->
<g id="node11" class="node"><title>Node11</title>
<polygon fill="white" stroke="#bfbfbf" points="1834.5,-56.5 1834.5,-75.5 1909.5,-75.5 1909.5,-56.5 1834.5,-56.5"/>
<text text-anchor="middle" x="1872" y="-63.5" font-family="Helvetica,sans-Serif" font-size="10.00">wx/settings.h</text>
</g>
<!-- Node3&#45;&gt;Node11 -->
<g id="edge10" class="edge"><title>Node3&#45;&gt;Node11</title>
<path fill="none" stroke="midnightblue" d="M1215.4,-119.812C1321.55,-116.665 1590.4,-106.272 1824.35,-76.0657"/>
<polygon fill="midnightblue" stroke="midnightblue" points="1824.94,-79.5177 1834.41,-74.7518 1824.04,-72.5766 1824.94,-79.5177"/>
</g>
<!-- Node12 -->
<g id="node12" class="node"><title>Node12</title>
<polygon fill="white" stroke="#bfbfbf" points="1928,-56.5 1928,-75.5 2014,-75.5 2014,-56.5 1928,-56.5"/>
<text text-anchor="middle" x="1971" y="-63.5" font-family="Helvetica,sans-Serif" font-size="10.00">wx/combobox.h</text>
</g>
<!-- Node3&#45;&gt;Node12 -->
<g id="edge11" class="edge"><title>Node3&#45;&gt;Node12</title>
<path fill="none" stroke="midnightblue" d="M1215.24,-120.017C1331.57,-117.161 1645.9,-107.071 1917.86,-75.9978"/>
<polygon fill="midnightblue" stroke="midnightblue" points="1918.39,-79.46 1927.92,-74.8362 1917.59,-72.5062 1918.39,-79.46"/>
</g>
<!-- Node13 -->
<g id="node13" class="node"><title>Node13</title>
<polygon fill="white" stroke="#bfbfbf" points="2032.5,-56.5 2032.5,-75.5 2107.5,-75.5 2107.5,-56.5 2032.5,-56.5"/>
<text text-anchor="middle" x="2070" y="-63.5" font-family="Helvetica,sans-Serif" font-size="10.00">wx/radiobut.h</text>
</g>
<!-- Node3&#45;&gt;Node13 -->
<g id="edge12" class="edge"><title>Node3&#45;&gt;Node13</title>
<path fill="none" stroke="midnightblue" d="M1215.02,-120.78C1341.99,-119.704 1708.09,-113.433 2022.15,-75.9097"/>
<polygon fill="midnightblue" stroke="midnightblue" points="2022.85,-79.3502 2032.36,-74.6762 2022.01,-72.4007 2022.85,-79.3502"/>
</g>
<!-- Node14 -->
<g id="node14" class="node"><title>Node14</title>
<polygon fill="white" stroke="#bfbfbf" points="2125.5,-56.5 2125.5,-75.5 2208.5,-75.5 2208.5,-56.5 2125.5,-56.5"/>
<text text-anchor="middle" x="2167" y="-63.5" font-family="Helvetica,sans-Serif" font-size="10.00">wx/checkbox.h</text>
</g>
<!-- Node3&#45;&gt;Node14 -->
<g id="edge13" class="edge"><title>Node3&#45;&gt;Node14</title>
<path fill="none" stroke="midnightblue" d="M1215.04,-120.942C1351.23,-120.317 1763.99,-115.173 2115.21,-76.0605"/>
<polygon fill="midnightblue" stroke="midnightblue" points="2115.77,-79.5191 2125.32,-74.9231 2114.99,-72.5629 2115.77,-79.5191"/>
</g>
<!-- Node15 -->
<g id="node15" class="node"><title>Node15</title>
<polygon fill="white" stroke="#bfbfbf" points="2227,-56.5 2227,-75.5 2289,-75.5 2289,-56.5 2227,-56.5"/>
<text text-anchor="middle" x="2258" y="-63.5" font-family="Helvetica,sans-Serif" font-size="10.00">wx/sizer.h</text>
</g>
<!-- Node3&#45;&gt;Node15 -->
<g id="edge14" class="edge"><title>Node3&#45;&gt;Node15</title>
<path fill="none" stroke="midnightblue" d="M1215.1,-120.117C1388.22,-116.636 2000.26,-102.777 2216.65,-75.8984"/>
<polygon fill="midnightblue" stroke="midnightblue" points="2217.18,-79.3589 2226.65,-74.6086 2216.29,-72.4163 2217.18,-79.3589"/>
</g>
<!-- Node16 -->
<g id="node16" class="node"><title>Node16</title>
<polygon fill="white" stroke="#bfbfbf" points="0,-56.5 0,-75.5 74,-75.5 74,-56.5 0,-56.5"/>
<text text-anchor="middle" x="37" y="-63.5" font-family="Helvetica,sans-Serif" font-size="10.00">wx/stattext.h</text>
</g>
<!-- Node3&#45;&gt;Node16 -->
<g id="edge15" class="edge"><title>Node3&#45;&gt;Node16</title>
<path fill="none" stroke="midnightblue" d="M1122.76,-121.585C973.587,-122.944 491.672,-123.206 84.2946,-75.953"/>
<polygon fill="midnightblue" stroke="midnightblue" points="84.4203,-72.4439 74.0809,-74.7564 83.6057,-79.3963 84.4203,-72.4439"/>
</g>
<!-- Node17 -->
<g id="node17" class="node"><title>Node17</title>
<polygon fill="white" stroke="#bfbfbf" points="92,-56.5 92,-75.5 156,-75.5 156,-56.5 92,-56.5"/>
<text text-anchor="middle" x="124" y="-63.5" font-family="Helvetica,sans-Serif" font-size="10.00">wx/panel.h</text>
</g>
<!-- Node3&#45;&gt;Node17 -->
<g id="edge16" class="edge"><title>Node3&#45;&gt;Node17</title>
<path fill="none" stroke="midnightblue" d="M1122.85,-119.982C954.614,-116.111 373.731,-101.297 166.318,-75.8952"/>
<polygon fill="midnightblue" stroke="midnightblue" points="166.499,-72.3901 156.137,-74.5997 165.615,-79.3341 166.499,-72.3901"/>
</g>
<!-- Node18 -->
<g id="node18" class="node"><title>Node18</title>
<polygon fill="white" stroke="#bfbfbf" points="174,-56.5 174,-75.5 244,-75.5 244,-56.5 174,-56.5"/>
<text text-anchor="middle" x="209" y="-63.5" font-family="Helvetica,sans-Serif" font-size="10.00">wx/bitmap.h</text>
</g>
<!-- Node3&#45;&gt;Node18 -->
<g id="edge17" class="edge"><title>Node3&#45;&gt;Node18</title>
<path fill="none" stroke="midnightblue" d="M1122.55,-121.215C988.961,-121.304 592.191,-117.846 254.439,-75.9878"/>
<polygon fill="midnightblue" stroke="midnightblue" points="254.822,-72.5084 244.464,-74.7381 253.952,-79.4541 254.822,-72.5084"/>
</g>
<!-- Node19 -->
<g id="node19" class="node"><title>Node19</title>
<polygon fill="white" stroke="#bfbfbf" points="262.5,-56.5 262.5,-75.5 329.5,-75.5 329.5,-56.5 262.5,-56.5"/>
<text text-anchor="middle" x="296" y="-63.5" font-family="Helvetica,sans-Serif" font-size="10.00">wx/image.h</text>
</g>
<!-- Node3&#45;&gt;Node19 -->
<g id="edge18" class="edge"><title>Node3&#45;&gt;Node19</title>
<path fill="none" stroke="midnightblue" d="M1122.89,-120.954C998.214,-120.307 643.981,-115.011 340.054,-75.9087"/>
<polygon fill="midnightblue" stroke="midnightblue" points="340.086,-72.3835 329.718,-74.5632 339.183,-79.3249 340.086,-72.3835"/>
</g>
<!-- Node20 -->
<g id="node20" class="node"><title>Node20</title>
<polygon fill="white" stroke="#bfbfbf" points="347.5,-56.5 347.5,-75.5 406.5,-75.5 406.5,-56.5 347.5,-56.5"/>
<text text-anchor="middle" x="377" y="-63.5" font-family="Helvetica,sans-Serif" font-size="10.00">wx/icon.h</text>
</g>
<!-- Node3&#45;&gt;Node20 -->
<g id="edge19" class="edge"><title>Node3&#45;&gt;Node20</title>
<path fill="none" stroke="midnightblue" d="M1122.89,-120.917C1006.18,-120.136 689.579,-114.467 416.806,-75.8429"/>
<polygon fill="midnightblue" stroke="midnightblue" points="417.109,-72.3507 406.714,-74.3958 416.116,-79.2798 417.109,-72.3507"/>
</g>
<!-- Node21 -->
<g id="node21" class="node"><title>Node21</title>
<polygon fill="white" stroke="#bfbfbf" points="425,-56.5 425,-75.5 505,-75.5 505,-56.5 425,-56.5"/>
<text text-anchor="middle" x="465" y="-63.5" font-family="Helvetica,sans-Serif" font-size="10.00">wx/notebook.h</text>
</g>
<!-- Node3&#45;&gt;Node21 -->
<g id="edge20" class="edge"><title>Node3&#45;&gt;Node21</title>
<path fill="none" stroke="midnightblue" d="M1122.85,-119.56C1015.72,-115.84 742.019,-104.156 515,-76 514.899,-75.9874 514.797,-75.9748 514.696,-75.9621"/>
<polygon fill="midnightblue" stroke="midnightblue" points="515.448,-72.5335 505.058,-74.6085 514.474,-79.4654 515.448,-72.5335"/>
</g>
<!-- Node22 -->
<g id="node22" class="node"><title>Node22</title>
<polygon fill="white" stroke="#bfbfbf" points="523.5,-56.5 523.5,-75.5 596.5,-75.5 596.5,-56.5 523.5,-56.5"/>
<text text-anchor="middle" x="560" y="-63.5" font-family="Helvetica,sans-Serif" font-size="10.00">wx/statbox.h</text>
</g>
<!-- Node3&#45;&gt;Node22 -->
<g id="edge21" class="edge"><title>Node3&#45;&gt;Node22</title>
<path fill="none" stroke="midnightblue" d="M1122.83,-119.086C1028.04,-114.772 804.471,-102.628 606.595,-75.9141"/>
<polygon fill="midnightblue" stroke="midnightblue" points="606.977,-72.434 596.596,-74.5487 606.03,-79.3696 606.977,-72.434"/>
</g>
<!-- Node23 -->
<g id="node23" class="node"><title>Node23</title>
<polygon fill="white" stroke="#bfbfbf" points="615,-56.5 615,-75.5 687,-75.5 687,-56.5 615,-56.5"/>
<text text-anchor="middle" x="651" y="-63.5" font-family="Helvetica,sans-Serif" font-size="10.00">wx/spinctrl.h</text>
</g>
<!-- Node3&#45;&gt;Node23 -->
<g id="edge22" class="edge"><title>Node3&#45;&gt;Node23</title>
<path fill="none" stroke="midnightblue" d="M1122.93,-118.115C1038.27,-112.481 852.39,-98.553 697,-76 696.899,-75.9854 696.799,-75.9707 696.698,-75.956"/>
<polygon fill="midnightblue" stroke="midnightblue" points="697.531,-72.5452 687.102,-74.411 696.418,-79.4562 697.531,-72.5452"/>
</g>
<!-- Node24 -->
<g id="node24" class="node"><title>Node24</title>
<polygon fill="white" stroke="#bfbfbf" points="705.5,-56.5 705.5,-75.5 782.5,-75.5 782.5,-56.5 705.5,-56.5"/>
<text text-anchor="middle" x="744" y="-63.5" font-family="Helvetica,sans-Serif" font-size="10.00">wx/radiobox.h</text>
</g>
<!-- Node3&#45;&gt;Node24 -->
<g id="edge23" class="edge"><title>Node3&#45;&gt;Node24</title>
<path fill="none" stroke="midnightblue" d="M1122.73,-116.479C1053.37,-109.482 918.119,-94.9891 792.886,-76.0408"/>
<polygon fill="midnightblue" stroke="midnightblue" points="793.148,-72.5405 782.735,-74.4917 792.092,-79.4604 793.148,-72.5405"/>
</g>
<!-- Node25 -->
<g id="node25" class="node"><title>Node25</title>
<polygon fill="white" stroke="#bfbfbf" points="800.5,-56.5 800.5,-75.5 871.5,-75.5 871.5,-56.5 800.5,-56.5"/>
<text text-anchor="middle" x="836" y="-63.5" font-family="Helvetica,sans-Serif" font-size="10.00">wx/textctrl.h</text>
</g>
<!-- Node3&#45;&gt;Node25 -->
<g id="edge24" class="edge"><title>Node3&#45;&gt;Node25</title>
<path fill="none" stroke="midnightblue" d="M1122.76,-114.392C1067.79,-106.399 973.031,-92.1903 881.793,-76.0781"/>
<polygon fill="midnightblue" stroke="midnightblue" points="882.293,-72.6123 871.835,-74.3095 881.069,-79.5044 882.293,-72.6123"/>
</g>
<!-- Node26 -->
<g id="node26" class="node"><title>Node26</title>
<polygon fill="white" stroke="#bfbfbf" points="889.5,-56.5 889.5,-75.5 958.5,-75.5 958.5,-56.5 889.5,-56.5"/>
<text text-anchor="middle" x="924" y="-63.5" font-family="Helvetica,sans-Serif" font-size="10.00">wx/choice.h</text>
</g>
<!-- Node3&#45;&gt;Node26 -->
<g id="edge25" class="edge"><title>Node3&#45;&gt;Node26</title>
<path fill="none" stroke="midnightblue" d="M1130.18,-112.444C1086.27,-102.767 1014.9,-87.0351 968.705,-76.8533"/>
<polygon fill="midnightblue" stroke="midnightblue" points="969.197,-73.3779 958.678,-74.6433 967.69,-80.2138 969.197,-73.3779"/>
</g>
<!-- Node27 -->
<g id="node27" class="node"><title>Node27</title>
<polygon fill="white" stroke="#bfbfbf" points="976.5,-56.5 976.5,-75.5 1043.5,-75.5 1043.5,-56.5 976.5,-56.5"/>
<text text-anchor="middle" x="1010" y="-63.5" font-family="Helvetica,sans-Serif" font-size="10.00">wx/gauge.h</text>
</g>
<!-- Node3&#45;&gt;Node27 -->
<g id="edge26" class="edge"><title>Node3&#45;&gt;Node27</title>
<path fill="none" stroke="midnightblue" d="M1143.81,-112.444C1117.06,-103.359 1074.6,-88.9388 1044.69,-78.7831"/>
<polygon fill="midnightblue" stroke="midnightblue" points="1045.67,-75.4182 1035.08,-75.5164 1043.42,-82.0464 1045.67,-75.4182"/>
</g>
<!-- Node28 -->
<g id="node28" class="node"><title>Node28</title>
<polygon fill="white" stroke="#bfbfbf" points="1062,-56.5 1062,-75.5 1118,-75.5 1118,-56.5 1062,-56.5"/>
<text text-anchor="middle" x="1090" y="-63.5" font-family="Helvetica,sans-Serif" font-size="10.00">wx/grid.h</text>
</g>
<!-- Node3&#45;&gt;Node28 -->
<g id="edge27" class="edge"><title>Node3&#45;&gt;Node28</title>
<path fill="none" stroke="midnightblue" d="M1156.31,-112.324C1144.1,-103.979 1125.42,-91.2122 1111,-81.3524"/>
<polygon fill="midnightblue" stroke="midnightblue" points="1112.89,-78.4082 1102.66,-75.6545 1108.94,-84.1871 1112.89,-78.4082"/>
</g>
<!-- Node29 -->
<g id="node29" class="node"><title>Node29</title>
<polygon fill="white" stroke="#bfbfbf" points="1136,-56.5 1136,-75.5 1202,-75.5 1202,-56.5 1136,-56.5"/>
<text text-anchor="middle" x="1169" y="-63.5" font-family="Helvetica,sans-Serif" font-size="10.00">wx/dialog.h</text>
</g>
<!-- Node3&#45;&gt;Node29 -->
<g id="edge28" class="edge"><title>Node3&#45;&gt;Node29</title>
<path fill="none" stroke="midnightblue" d="M1169,-112.083C1169,-105.006 1169,-94.8611 1169,-85.9865"/>
<polygon fill="midnightblue" stroke="midnightblue" points="1172.5,-85.751 1169,-75.7511 1165.5,-85.7511 1172.5,-85.751"/>
</g>
<!-- Node32 -->
<g id="node32" class="node"><title>Node32</title>
<polygon fill="white" stroke="#bfbfbf" points="2478.5,-0.5 2478.5,-19.5 2527.5,-19.5 2527.5,-0.5 2478.5,-0.5"/>
<text text-anchor="middle" x="2503" y="-7.5" font-family="Helvetica,sans-Serif" font-size="10.00">stdint.h</text>
</g>
<!-- Node31&#45;&gt;Node32 -->
<g id="edge31" class="edge"><title>Node31&#45;&gt;Node32</title>
<path fill="none" stroke="midnightblue" d="M2409,-112.368C2426.06,-93.9744 2466.21,-50.6712 2488.12,-27.0519"/>
<polygon fill="midnightblue" stroke="midnightblue" points="2490.8,-29.3039 2495.03,-19.5914 2485.67,-24.5443 2490.8,-29.3039"/>
</g>
<!-- Node33 -->
<g id="node33" class="node"><title>Node33</title>
<polygon fill="white" stroke="#bfbfbf" points="2307,-56.5 2307,-75.5 2355,-75.5 2355,-56.5 2307,-56.5"/>
<text text-anchor="middle" x="2331" y="-63.5" font-family="Helvetica,sans-Serif" font-size="10.00">stdlib.h</text>
</g>
<!-- Node31&#45;&gt;Node33 -->
<g id="edge32" class="edge"><title>Node31&#45;&gt;Node33</title>
<path fill="none" stroke="midnightblue" d="M2389.75,-112.324C2379.2,-104.185 2363.2,-91.8395 2350.56,-82.0874"/>
<polygon fill="midnightblue" stroke="midnightblue" points="2352.51,-79.1707 2342.45,-75.8339 2348.23,-84.7132 2352.51,-79.1707"/>
</g>
<!-- Node34 -->
<g id="node34" class="node"><title>Node34</title>
<g id="a_node34"><a xlink:href="../../d1/d2e/LMS7002M__parameters_8h.html" target="_top" xlink:title="List of LMS7002M transceiver control parameters. ">
<polygon fill="white" stroke="black" points="2485,-56.5 2485,-75.5 2613,-75.5 2613,-56.5 2485,-56.5"/>
<text text-anchor="middle" x="2549" y="-63.5" font-family="Helvetica,sans-Serif" font-size="10.00">LMS7002M_parameters.h</text>
</a>
</g>
</g>
<!-- Node31&#45;&gt;Node34 -->
<g id="edge33" class="edge"><title>Node31&#45;&gt;Node34</title>
<path fill="none" stroke="midnightblue" d="M2424.45,-112.444C2449.13,-103.438 2488.19,-89.1891 2515.98,-79.049"/>
<polygon fill="midnightblue" stroke="midnightblue" points="2517.46,-82.2321 2525.66,-75.5164 2515.06,-75.6561 2517.46,-82.2321"/>
</g>
<!-- Node35 -->
<g id="node35" class="node"><title>Node35</title>
<polygon fill="white" stroke="#bfbfbf" points="2373,-56.5 2373,-75.5 2429,-75.5 2429,-56.5 2373,-56.5"/>
<text text-anchor="middle" x="2401" y="-63.5" font-family="Helvetica,sans-Serif" font-size="10.00">stdbool.h</text>
</g>
<!-- Node31&#45;&gt;Node35 -->
<g id="edge35" class="edge"><title>Node31&#45;&gt;Node35</title>
<path fill="none" stroke="midnightblue" d="M2401,-112.083C2401,-105.006 2401,-94.8611 2401,-85.9865"/>
<polygon fill="midnightblue" stroke="midnightblue" points="2404.5,-85.751 2401,-75.7511 2397.5,-85.7511 2404.5,-85.751"/>
</g>
<!-- Node34&#45;&gt;Node32 -->
<g id="edge34" class="edge"><title>Node34&#45;&gt;Node32</title>
<path fill="none" stroke="midnightblue" d="M2541.4,-56.083C2534.77,-48.2982 2524.98,-36.8015 2516.94,-27.3665"/>
<polygon fill="midnightblue" stroke="midnightblue" points="2519.6,-25.0939 2510.45,-19.7511 2514.27,-29.6332 2519.6,-25.0939"/>
</g>
<!-- Node36&#45;&gt;Node30 -->
<g id="edge38" class="edge"><title>Node36&#45;&gt;Node30</title>
<path fill="none" stroke="midnightblue" d="M2494.32,-168.324C2502.89,-160.341 2515.81,-148.313 2526.19,-138.653"/>
<polygon fill="midnightblue" stroke="midnightblue" points="2528.58,-141.21 2533.51,-131.834 2523.81,-136.086 2528.58,-141.21"/>
</g>
<!-- Node36&#45;&gt;Node31 -->
<g id="edge40" class="edge"><title>Node36&#45;&gt;Node31</title>
<path fill="none" stroke="midnightblue" d="M2471.5,-168.324C2458.4,-159.9 2438.29,-146.971 2422.89,-137.074"/>
<polygon fill="midnightblue" stroke="midnightblue" points="2424.77,-134.118 2414.46,-131.655 2420.98,-140.006 2424.77,-134.118"/>
</g>
<!-- Node37 -->
<g id="node37" class="node"><title>Node37</title>
<polygon fill="white" stroke="#bfbfbf" points="2463,-112.5 2463,-131.5 2507,-131.5 2507,-112.5 2463,-112.5"/>
<text text-anchor="middle" x="2485" y="-119.5" font-family="Helvetica,sans-Serif" font-size="10.00">vector</text>
</g>
<!-- Node36&#45;&gt;Node37 -->
<g id="edge39" class="edge"><title>Node36&#45;&gt;Node37</title>
<path fill="none" stroke="midnightblue" d="M2485,-168.083C2485,-161.006 2485,-150.861 2485,-141.986"/>
<polygon fill="midnightblue" stroke="midnightblue" points="2488.5,-141.751 2485,-131.751 2481.5,-141.751 2488.5,-141.751"/>
</g>
</g>
</svg>
        <g id="navigator" transform="translate(0 0)" fill="#404254">
                <rect fill="#f2f5e9" fill-opacity="0.5" stroke="#606060" stroke-width=".5" x="0" y="0" width="60" height="60"/>
                <use id="zoomplus" xlink:href="#zoomPlus" x="17" y="9" onmousedown="handleZoom(evt,'in')"/>
                <use id="zoomminus" xlink:href="#zoomMin" x="42" y="9" onmousedown="handleZoom(evt,'out')"/>
                <use id="reset" xlink:href="#resetDef" x="30" y="36" onmousedown="handleReset()"/>
                <g id="arrowUp" xlink:href="#dirArrow" transform="translate(30 24)" onmousedown="handlePan(0,-1)">
                  <use xlink:href="#rim" fill="#404040">
                        <set attributeName="fill" to="#808080" begin="arrowUp.mouseover" end="arrowUp.mouseout"/>
                  </use>
                  <path fill="none" stroke="white" stroke-width="1.5" d="M0,-3.0v7 M-2.5,-0.5L0,-3.0L2.5,-0.5"/>
                </g>
                <g id="arrowRight" xlink:href="#dirArrow" transform="rotate(90) translate(36 -43)" onmousedown="handlePan(1,0)">
                  <use xlink:href="#rim" fill="#404040">
                        <set attributeName="fill" to="#808080" begin="arrowRight.mouseover" end="arrowRight.mouseout"/>
                  </use>
                  <path fill="none" stroke="white" stroke-width="1.5" d="M0,-3.0v7 M-2.5,-0.5L0,-3.0L2.5,-0.5"/>
                </g>
                <g id="arrowDown" xlink:href="#dirArrow" transform="rotate(180) translate(-30 -48)" onmousedown="handlePan(0,1)">
                  <use xlink:href="#rim" fill="#404040">
                        <set attributeName="fill" to="#808080" begin="arrowDown.mouseover" end="arrowDown.mouseout"/>
                  </use>
                  <path fill="none" stroke="white" stroke-width="1.5" d="M0,-3.0v7 M-2.5,-0.5L0,-3.0L2.5,-0.5"/>
                </g>
                <g id="arrowLeft" xlink:href="#dirArrow" transform="rotate(270) translate(-36 17)" onmousedown="handlePan(-1,0)">
                  <use xlink:href="#rim" fill="#404040">
                        <set attributeName="fill" to="#808080" begin="arrowLeft.mouseover" end="arrowLeft.mouseout"/>
                  </use>
                  <path fill="none" stroke="white" stroke-width="1.5" d="M0,-3.0v7 M-2.5,-0.5L0,-3.0L2.5,-0.5"/>
                </g>
        </g>
        <svg viewBox="0 0 15 15" width="100%" height="30px" preserveAspectRatio="xMaxYMin meet">
         <g id="arrow_out" transform="scale(0.3 0.3)">
          <a xlink:href="lms7002__pnlXBUF__view_8cpp__incl_org.svg" target="_base">
           <rect id="button" ry="5" rx="5" y="6" x="6" height="38" width="38"
                fill="#f2f5e9" fill-opacity="0.5" stroke="#606060" stroke-width="1.0"/>
           <path id="arrow"
             d="M 11.500037,31.436501 C 11.940474,20.09759 22.043105,11.32322 32.158766,21.979434 L 37.068811,17.246167 C 37.068811,17.246167 37.088388,32 37.088388,32 L 22.160133,31.978069 C 22.160133,31.978069 26.997745,27.140456 26.997745,27.140456 C 18.528582,18.264221 13.291696,25.230495 11.500037,31.436501 z"
             style="fill:#404040;"/>
          </a>
         </g>
        </svg>
</svg>
