<?xml version="1.0" encoding="UTF-8" standalone="no"?>
<!DOCTYPE svg PUBLIC "-//W3C//DTD SVG 1.1//EN"
 "http://www.w3.org/Graphics/SVG/1.1/DTD/svg11.dtd">
<!-- Generated by graphviz version 2.38.0 (20140413.2041)
 -->
<!-- Title: pnlCLKGEN_view::pnlCLKGEN_view Pages: 1 -->
<svg width="418pt" height="313pt"
 viewBox="0.00 0.00 418.00 312.50" xmlns="http://www.w3.org/2000/svg" xmlns:xlink="http://www.w3.org/1999/xlink">
<g id="graph0" class="graph" transform="scale(1 1) rotate(0) translate(4 308.5)">
<title>pnlCLKGEN_view::pnlCLKGEN_view</title>
<polygon fill="white" stroke="none" points="-4,4 -4,-308.5 414,-308.5 414,4 -4,4"/>
<!-- Node1 -->
<g id="node1" class="node"><title>Node1</title>
<polygon fill="#bfbfbf" stroke="black" points="0,-143 0,-162 182,-162 182,-143 0,-143"/>
<text text-anchor="middle" x="91" y="-150" font-family="Helvetica,sans-Serif" font-size="10.00">pnlCLKGEN_view::pnlCLKGEN_view</text>
</g>
<!-- Node2 -->
<g id="node2" class="node"><title>Node2</title>
<g id="a_node2"><a xlink:href="../../d7/de3/classpnlCLKGEN__view.html#ac0e7ddc4f38e5062cea7a09480eb1469" target="_top" xlink:title="pnlCLKGEN_view::OnAutoPhase">
<polygon fill="white" stroke="black" points="232.5,-285 232.5,-304 395.5,-304 395.5,-285 232.5,-285"/>
<text text-anchor="middle" x="314" y="-292" font-family="Helvetica,sans-Serif" font-size="10.00">pnlCLKGEN_view::OnAutoPhase</text>
</a>
</g>
</g>
<!-- Node1&#45;&gt;Node2 -->
<g id="edge1" class="edge"><title>Node1&#45;&gt;Node2</title>
<path fill="none" stroke="midnightblue" d="M98.6566,-162.062C115.58,-185.574 162.84,-246.405 218,-275.5 222.328,-277.783 226.9,-279.792 231.603,-281.561"/>
<polygon fill="midnightblue" stroke="midnightblue" points="230.814,-284.988 241.408,-284.864 233.048,-278.355 230.814,-284.988"/>
</g>
<!-- Node3 -->
<g id="node3" class="node"><title>Node3</title>
<g id="a_node3"><a xlink:href="../../d7/de3/classpnlCLKGEN__view.html#a7e121522c4bb6a9d0d2d5693a26c1ff6" target="_top" xlink:title="pnlCLKGEN_view::onbtnCalculate\lClick">
<polygon fill="white" stroke="black" points="230.5,-235.5 230.5,-265.5 397.5,-265.5 397.5,-235.5 230.5,-235.5"/>
<text text-anchor="start" x="238.5" y="-253.5" font-family="Helvetica,sans-Serif" font-size="10.00">pnlCLKGEN_view::onbtnCalculate</text>
<text text-anchor="middle" x="314" y="-242.5" font-family="Helvetica,sans-Serif" font-size="10.00">Click</text>
</a>
</g>
</g>
<!-- Node1&#45;&gt;Node3 -->
<g id="edge2" class="edge"><title>Node1&#45;&gt;Node3</title>
<path fill="none" stroke="midnightblue" d="M105.318,-162.056C127.611,-177.643 174.344,-208.594 218,-226.5 223.115,-228.598 228.463,-230.55 233.901,-232.36"/>
<polygon fill="midnightblue" stroke="midnightblue" points="233.168,-235.798 243.758,-235.463 235.271,-229.121 233.168,-235.798"/>
</g>
<!-- Node4 -->
<g id="node4" class="node"><title>Node4</title>
<g id="a_node4"><a xlink:href="../../d7/de3/classpnlCLKGEN__view.html#ab87911f7e216bf42ba213f19471541e8" target="_top" xlink:title="pnlCLKGEN_view::OnbtnRead\lComparators">
<polygon fill="white" stroke="black" points="238,-186.5 238,-216.5 390,-216.5 390,-186.5 238,-186.5"/>
<text text-anchor="start" x="246" y="-204.5" font-family="Helvetica,sans-Serif" font-size="10.00">pnlCLKGEN_view::OnbtnRead</text>
<text text-anchor="middle" x="314" y="-193.5" font-family="Helvetica,sans-Serif" font-size="10.00">Comparators</text>
</a>
</g>
</g>
<!-- Node1&#45;&gt;Node4 -->
<g id="edge3" class="edge"><title>Node1&#45;&gt;Node4</title>
<path fill="none" stroke="midnightblue" d="M134.873,-162.006C163.32,-168.313 201.484,-176.775 235.188,-184.248"/>
<polygon fill="midnightblue" stroke="midnightblue" points="234.505,-187.681 245.025,-186.429 236.02,-180.847 234.505,-187.681"/>
</g>
<!-- Node5 -->
<g id="node5" class="node"><title>Node5</title>
<g id="a_node5"><a xlink:href="../../d7/de3/classpnlCLKGEN__view.html#ad8a9922db1fbc7c052c8ce5b8c98a4b1" target="_top" xlink:title="pnlCLKGEN_view::onbtnTune\lClick">
<polygon fill="white" stroke="black" points="240,-137.5 240,-167.5 388,-167.5 388,-137.5 240,-137.5"/>
<text text-anchor="start" x="248" y="-155.5" font-family="Helvetica,sans-Serif" font-size="10.00">pnlCLKGEN_view::onbtnTune</text>
<text text-anchor="middle" x="314" y="-144.5" font-family="Helvetica,sans-Serif" font-size="10.00">Click</text>
</a>
</g>
</g>
<!-- Node1&#45;&gt;Node5 -->
<g id="edge4" class="edge"><title>Node1&#45;&gt;Node5</title>
<path fill="none" stroke="midnightblue" d="M182.208,-152.5C197.971,-152.5 214.304,-152.5 229.865,-152.5"/>
<polygon fill="midnightblue" stroke="midnightblue" points="229.966,-156 239.966,-152.5 229.966,-149 229.966,-156"/>
</g>
<!-- Node6 -->
<g id="node6" class="node"><title>Node6</title>
<g id="a_node6"><a xlink:href="../../d7/de3/classpnlCLKGEN__view.html#abdec13dadada1329fd41b1fca2dfa10d" target="_top" xlink:title="pnlCLKGEN_view::OnbtnUpdate\lCoarse">
<polygon fill="white" stroke="black" points="234,-88.5 234,-118.5 394,-118.5 394,-88.5 234,-88.5"/>
<text text-anchor="start" x="242" y="-106.5" font-family="Helvetica,sans-Serif" font-size="10.00">pnlCLKGEN_view::OnbtnUpdate</text>
<text text-anchor="middle" x="314" y="-95.5" font-family="Helvetica,sans-Serif" font-size="10.00">Coarse</text>
</a>
</g>
</g>
<!-- Node1&#45;&gt;Node6 -->
<g id="edge5" class="edge"><title>Node1&#45;&gt;Node6</title>
<path fill="none" stroke="midnightblue" d="M134.873,-142.994C163.32,-136.687 201.484,-128.225 235.188,-120.752"/>
<polygon fill="midnightblue" stroke="midnightblue" points="236.02,-124.153 245.025,-118.571 234.505,-117.319 236.02,-124.153"/>
</g>
<!-- Node7 -->
<g id="node7" class="node"><title>Node7</title>
<g id="a_node7"><a xlink:href="../../d7/de3/classpnlCLKGEN__view.html#a120a64dcfaf3e75d4d72eb48732e7fab" target="_top" xlink:title="pnlCLKGEN_view::OnShowVCOclicked">
<polygon fill="white" stroke="black" points="218,-50 218,-69 410,-69 410,-50 218,-50"/>
<text text-anchor="middle" x="314" y="-57" font-family="Helvetica,sans-Serif" font-size="10.00">pnlCLKGEN_view::OnShowVCOclicked</text>
</a>
</g>
</g>
<!-- Node1&#45;&gt;Node7 -->
<g id="edge6" class="edge"><title>Node1&#45;&gt;Node7</title>
<path fill="none" stroke="midnightblue" d="M105.263,-142.888C127.476,-127.247 174.097,-96.342 218,-79.5 226.118,-76.3859 234.821,-73.7147 243.545,-71.4344"/>
<polygon fill="midnightblue" stroke="midnightblue" points="244.495,-74.8052 253.373,-69.0232 242.827,-68.0068 244.495,-74.8052"/>
</g>
<!-- Node8 -->
<g id="node8" class="node"><title>Node8</title>
<g id="a_node8"><a xlink:href="../../d7/de3/classpnlCLKGEN__view.html#a84e0aa01fad29970544d63a8a270ec29" target="_top" xlink:title="pnlCLKGEN_view::Parameter\lChangeHandler">
<polygon fill="white" stroke="black" points="240.5,-0.5 240.5,-30.5 387.5,-30.5 387.5,-0.5 240.5,-0.5"/>
<text text-anchor="start" x="248.5" y="-18.5" font-family="Helvetica,sans-Serif" font-size="10.00">pnlCLKGEN_view::Parameter</text>
<text text-anchor="middle" x="314" y="-7.5" font-family="Helvetica,sans-Serif" font-size="10.00">ChangeHandler</text>
</a>
</g>
</g>
<!-- Node1&#45;&gt;Node8 -->
<g id="edge7" class="edge"><title>Node1&#45;&gt;Node8</title>
<path fill="none" stroke="midnightblue" d="M100.044,-142.736C118.524,-120.957 166.407,-68.1507 218,-40.5 222.284,-38.204 226.792,-36.1094 231.42,-34.1997"/>
<polygon fill="midnightblue" stroke="midnightblue" points="232.954,-37.3609 241.057,-30.5345 230.466,-30.8181 232.954,-37.3609"/>
</g>
</g>
</svg>
