<?xml version="1.0" encoding="UTF-8" standalone="no"?>
<!DOCTYPE svg PUBLIC "-//W3C//DTD SVG 1.1//EN"
 "http://www.w3.org/Graphics/SVG/1.1/DTD/svg11.dtd">
<!-- Generated by graphviz version 2.38.0 (20140413.2041)
 -->
<!-- Title: pnlCLKGEN_view::ParameterChangeHandler Pages: 1 -->
<svg width="379pt" height="66pt"
 viewBox="0.00 0.00 379.00 66.00" xmlns="http://www.w3.org/2000/svg" xmlns:xlink="http://www.w3.org/1999/xlink">
<g id="graph0" class="graph" transform="scale(1 1) rotate(0) translate(4 62)">
<title>pnlCLKGEN_view::ParameterChangeHandler</title>
<polygon fill="white" stroke="none" points="-4,4 -4,-62 375,-62 375,4 -4,4"/>
<!-- Node1 -->
<g id="node1" class="node"><title>Node1</title>
<polygon fill="#bfbfbf" stroke="black" points="0,-14 0,-44 147,-44 147,-14 0,-14"/>
<text text-anchor="start" x="8" y="-32" font-family="Helvetica,sans-Serif" font-size="10.00">pnlCLKGEN_view::Parameter</text>
<text text-anchor="middle" x="73.5" y="-21" font-family="Helvetica,sans-Serif" font-size="10.00">ChangeHandler</text>
</g>
<!-- Node2 -->
<g id="node2" class="node"><title>Node2</title>
<g id="a_node2"><a xlink:href="../../d7/de3/classpnlCLKGEN__view.html#abf6d66a1259f6cef114881e11c19e4c5" target="_top" xlink:title="pnlCLKGEN_view::pnlCLKGEN_view">
<polygon fill="white" stroke="black" points="186,-38.5 186,-57.5 368,-57.5 368,-38.5 186,-38.5"/>
<text text-anchor="middle" x="277" y="-45.5" font-family="Helvetica,sans-Serif" font-size="10.00">pnlCLKGEN_view::pnlCLKGEN_view</text>
</a>
</g>
</g>
<!-- Node1&#45;&gt;Node2 -->
<g id="edge1" class="edge"><title>Node1&#45;&gt;Node2</title>
<path fill="none" stroke="midnightblue" d="M157.334,-36.8106C166.723,-37.6959 176.326,-38.6015 185.803,-39.4951"/>
<polygon fill="midnightblue" stroke="midnightblue" points="157.531,-33.3137 147.246,-35.8594 156.873,-40.2828 157.531,-33.3137"/>
</g>
<!-- Node3 -->
<g id="node3" class="node"><title>Node3</title>
<g id="a_node3"><a xlink:href="../../d7/de3/classpnlCLKGEN__view.html#aec3fc5b23db0fc9b3b8aebc1b27f4056" target="_top" xlink:title="pnlCLKGEN_view::~pnlCLKGEN_view">
<polygon fill="white" stroke="black" points="183,-0.5 183,-19.5 371,-19.5 371,-0.5 183,-0.5"/>
<text text-anchor="middle" x="277" y="-7.5" font-family="Helvetica,sans-Serif" font-size="10.00">pnlCLKGEN_view::~pnlCLKGEN_view</text>
</a>
</g>
</g>
<!-- Node1&#45;&gt;Node3 -->
<g id="edge2" class="edge"><title>Node1&#45;&gt;Node3</title>
<path fill="none" stroke="midnightblue" d="M157.334,-21.1894C165.686,-20.4018 174.208,-19.5983 182.66,-18.8013"/>
<polygon fill="midnightblue" stroke="midnightblue" points="156.873,-17.7172 147.246,-22.1406 157.531,-24.6863 156.873,-17.7172"/>
</g>
</g>
</svg>
