<?xml version="1.0" encoding="UTF-8" standalone="no"?>
<!DOCTYPE svg PUBLIC "-//W3C//DTD SVG 1.1//EN"
 "http://www.w3.org/Graphics/SVG/1.1/DTD/svg11.dtd">
<!-- Generated by graphviz version 2.38.0 (20140413.2041)
 -->
<!-- Title: lms7002_pnlRFE_view::UpdateGUI Pages: 1 -->
<!--zoomable 598 -->
<svg id="main" version="1.1" xmlns="http://www.w3.org/2000/svg" xmlns:xlink="http://www.w3.org/1999/xlink" xml:space="preserve" onload="init(evt)">
<style type="text/css"><![CDATA[
.edge:hover path { stroke: red; }
.edge:hover polygon { stroke: red; fill: red; }
]]></style>
<script type="text/javascript"><![CDATA[
var edges = document.getElementsByTagName('g');
if (edges && edges.length) {
  for (var i=0;i<edges.length;i++) {
    if (edges[i].id.substr(0,4)=='edge') {
      edges[i].setAttribute('class','edge');
    }
  }
}
]]></script>
        <defs>
                <circle id="rim" cx="0" cy="0" r="7"/>
                <circle id="rim2" cx="0" cy="0" r="3.5"/>
                <g id="zoomPlus">
                        <use xlink:href="#rim" fill="#404040">
                                <set attributeName="fill" to="#808080" begin="zoomplus.mouseover" end="zoomplus.mouseout"/>
                        </use>
                        <path d="M-4,0h8M0,-4v8" fill="none" stroke="white" stroke-width="1.5" pointer-events="none"/>
                </g>
                <g id="zoomMin">
                        <use xlink:href="#rim" fill="#404040">
                                <set attributeName="fill" to="#808080" begin="zoomminus.mouseover" end="zoomminus.mouseout"/>
                        </use>
                        <path d="M-4,0h8" fill="none" stroke="white" stroke-width="1.5" pointer-events="none"/>
                </g>
                <g id="dirArrow">
                        <path fill="none" stroke="white" stroke-width="1.5" d="M0,-3.0v7 M-2.5,-0.5L0,-3.0L2.5,-0.5"/>
                </g>
               <g id="resetDef">
                       <use xlink:href="#rim2" fill="#404040">
                               <set attributeName="fill" to="#808080" begin="reset.mouseover" end="reset.mouseout"/>
                       </use>
               </g>
        </defs>

<script type="text/javascript">
var viewWidth = 762;
var viewHeight = 598;
var sectionId = 'dynsection-7';
</script>
<script xlink:href="../../svgpan.js"/>
<svg id="graph" class="graph">
<g id="viewport">
<title>lms7002_pnlRFE_view::UpdateGUI</title>
<polygon fill="white" stroke="none" points="-4,4 -4,-594 758,-594 758,4 -4,4"/>
<!-- Node1 -->
<g id="node1" class="node"><title>Node1</title>
<polygon fill="#bfbfbf" stroke="black" points="0,-242 0,-272 117,-272 117,-242 0,-242"/>
<text text-anchor="start" x="8" y="-260" font-family="Helvetica,sans-Serif" font-size="10.00">lms7002_pnlRFE_view</text>
<text text-anchor="middle" x="58.5" y="-249" font-family="Helvetica,sans-Serif" font-size="10.00">::UpdateGUI</text>
</g>
<!-- Node2 -->
<g id="node2" class="node"><title>Node2</title>
<g id="a_node2"><a xlink:href="../../df/de1/lms7__api_8cpp.html#af7e27adc91d37b2464a10990b1f39c9b" target="_top" xlink:title="LMS_ReadParam">
<polygon fill="white" stroke="black" points="192,-266.5 192,-285.5 286,-285.5 286,-266.5 192,-266.5"/>
<text text-anchor="middle" x="239" y="-273.5" font-family="Helvetica,sans-Serif" font-size="10.00">LMS_ReadParam</text>
</a>
</g>
</g>
<!-- Node1&#45;&gt;Node2 -->
<g id="edge1" class="edge"><title>Node1&#45;&gt;Node2</title>
<path fill="none" stroke="midnightblue" d="M117.454,-263.169C138.093,-265.366 161.289,-267.835 181.78,-270.016"/>
<polygon fill="midnightblue" stroke="midnightblue" points="181.595,-273.516 191.909,-271.094 182.336,-266.555 181.595,-273.516"/>
</g>
<!-- Node26 -->
<g id="node26" class="node"><title>Node26</title>
<g id="a_node26"><a xlink:href="../../d9/d45/classNumericSlider.html#a0c9f6f7ee5094965dadff426c4fae258" target="_top" xlink:title="NumericSlider::SetValue">
<polygon fill="white" stroke="black" points="177,-228.5 177,-247.5 301,-247.5 301,-228.5 177,-228.5"/>
<text text-anchor="middle" x="239" y="-235.5" font-family="Helvetica,sans-Serif" font-size="10.00">NumericSlider::SetValue</text>
</a>
</g>
</g>
<!-- Node1&#45;&gt;Node26 -->
<g id="edge28" class="edge"><title>Node1&#45;&gt;Node26</title>
<path fill="none" stroke="midnightblue" d="M117.454,-250.831C133.218,-249.153 150.474,-247.316 166.877,-245.57"/>
<polygon fill="midnightblue" stroke="midnightblue" points="167.386,-249.036 176.96,-244.497 166.645,-242.075 167.386,-249.036"/>
</g>
<!-- Node27 -->
<g id="node27" class="node"><title>Node27</title>
<g id="a_node27"><a xlink:href="../../de/df1/namespaceLMS7002__WXGUI.html#a1802e1e2f9704b2905e1653bdb35f30d" target="_top" xlink:title="LMS7002_WXGUI::UpdateControls\lByMap">
<polygon fill="white" stroke="black" points="153,-305 153,-335 325,-335 325,-305 153,-305"/>
<text text-anchor="start" x="161" y="-323" font-family="Helvetica,sans-Serif" font-size="10.00">LMS7002_WXGUI::UpdateControls</text>
<text text-anchor="middle" x="239" y="-312" font-family="Helvetica,sans-Serif" font-size="10.00">ByMap</text>
</a>
</g>
</g>
<!-- Node1&#45;&gt;Node27 -->
<g id="edge29" class="edge"><title>Node1&#45;&gt;Node27</title>
<path fill="none" stroke="midnightblue" d="M94.2597,-272.093C111.727,-279.43 133.315,-288.124 153,-295 159.789,-297.371 166.933,-299.71 174.076,-301.949"/>
<polygon fill="midnightblue" stroke="midnightblue" points="173.195,-305.34 183.782,-304.935 175.253,-298.65 173.195,-305.34"/>
</g>
<!-- Node28 -->
<g id="node28" class="node"><title>Node28</title>
<g id="a_node28"><a xlink:href="../../de/df1/namespaceLMS7002__WXGUI.html#a596ebf9c5660fcde44fa5d24af15b18c" target="_top" xlink:title="LMS7002_WXGUI::value2index">
<polygon fill="white" stroke="black" points="161.5,-190.5 161.5,-209.5 316.5,-209.5 316.5,-190.5 161.5,-190.5"/>
<text text-anchor="middle" x="239" y="-197.5" font-family="Helvetica,sans-Serif" font-size="10.00">LMS7002_WXGUI::value2index</text>
</a>
</g>
</g>
<!-- Node1&#45;&gt;Node28 -->
<g id="edge32" class="edge"><title>Node1&#45;&gt;Node28</title>
<path fill="none" stroke="midnightblue" d="M92.764,-241.907C110.405,-234.307 132.597,-225.378 153,-219 161.284,-216.41 170.126,-214.027 178.86,-211.887"/>
<polygon fill="midnightblue" stroke="midnightblue" points="179.712,-215.283 188.639,-209.577 178.102,-208.47 179.712,-215.283"/>
</g>
<!-- Node3 -->
<g id="node3" class="node"><title>Node3</title>
<g id="a_node3"><a xlink:href="../../d4/d67/lms_8c.html#a0e01e477b1f10e0a63e54de2dd2f8240" target="_top" xlink:title="lms">
<polygon fill="white" stroke="black" points="399,-266.5 399,-285.5 431,-285.5 431,-266.5 399,-266.5"/>
<text text-anchor="middle" x="415" y="-273.5" font-family="Helvetica,sans-Serif" font-size="10.00">lms</text>
</a>
</g>
</g>
<!-- Node2&#45;&gt;Node3 -->
<g id="edge2" class="edge"><title>Node2&#45;&gt;Node3</title>
<path fill="none" stroke="midnightblue" d="M286.172,-276C319.09,-276 362.093,-276 388.877,-276"/>
<polygon fill="midnightblue" stroke="midnightblue" points="388.955,-279.5 398.955,-276 388.955,-272.5 388.955,-279.5"/>
</g>
<!-- Node23 -->
<g id="node23" class="node"><title>Node23</title>
<g id="a_node23"><a xlink:href="../../d3/d22/classlime_1_1LMS7__Device.html#aac9c25a4c8b67b8f0073591d02d2757b" target="_top" xlink:title="lime::LMS7_Device::\lReadParam">
<polygon fill="white" stroke="black" points="361,-305 361,-335 469,-335 469,-305 361,-305"/>
<text text-anchor="start" x="369" y="-323" font-family="Helvetica,sans-Serif" font-size="10.00">lime::LMS7_Device::</text>
<text text-anchor="middle" x="415" y="-312" font-family="Helvetica,sans-Serif" font-size="10.00">ReadParam</text>
</a>
</g>
</g>
<!-- Node2&#45;&gt;Node23 -->
<g id="edge25" class="edge"><title>Node2&#45;&gt;Node23</title>
<path fill="none" stroke="midnightblue" d="M282.002,-285.599C295.731,-288.812 311.036,-292.475 325,-296 333.455,-298.134 342.344,-300.447 351.097,-302.766"/>
<polygon fill="midnightblue" stroke="midnightblue" points="350.329,-306.184 360.893,-305.378 352.133,-299.42 350.329,-306.184"/>
</g>
<!-- Node24 -->
<g id="node24" class="node"><title>Node24</title>
<g id="a_node24"><a xlink:href="../../d5/d6c/namespacelime.html#adc6af0cf8e0a70f3ef09fac1244f8c48" target="_top" xlink:title="lime::ReportError">
<polygon fill="white" stroke="black" points="369.5,-114.5 369.5,-133.5 460.5,-133.5 460.5,-114.5 369.5,-114.5"/>
<text text-anchor="middle" x="415" y="-121.5" font-family="Helvetica,sans-Serif" font-size="10.00">lime::ReportError</text>
</a>
</g>
</g>
<!-- Node2&#45;&gt;Node24 -->
<g id="edge26" class="edge"><title>Node2&#45;&gt;Node24</title>
<path fill="none" stroke="midnightblue" d="M286.266,-272.185C299.625,-269.423 313.647,-264.775 325,-257 367.056,-228.198 394.544,-172.367 406.743,-143.043"/>
<polygon fill="midnightblue" stroke="midnightblue" points="410.081,-144.123 410.545,-133.538 403.582,-141.523 410.081,-144.123"/>
</g>
<!-- Node4 -->
<g id="node4" class="node"><title>Node4</title>
<g id="a_node4"><a xlink:href="../../d4/d67/lms_8c.html#a433227191fe883dcb8aa15d291bb29a1" target="_top" xlink:title="Case1F">
<polygon fill="white" stroke="black" points="513.5,-418.5 513.5,-437.5 564.5,-437.5 564.5,-418.5 513.5,-418.5"/>
<text text-anchor="middle" x="539" y="-425.5" font-family="Helvetica,sans-Serif" font-size="10.00">Case1F</text>
</a>
</g>
</g>
<!-- Node3&#45;&gt;Node4 -->
<g id="edge3" class="edge"><title>Node3&#45;&gt;Node4</title>
<path fill="none" stroke="midnightblue" d="M431.473,-278.135C443.268,-280.544 459.116,-285.584 469,-296 505.282,-334.235 471.922,-367.962 505,-409 505.933,-410.158 506.958,-411.259 508.05,-412.305"/>
<polygon fill="midnightblue" stroke="midnightblue" points="505.93,-415.09 515.992,-418.407 510.194,-409.539 505.93,-415.09"/>
</g>
<!-- Node5 -->
<g id="node5" class="node"><title>Node5</title>
<g id="a_node5"><a xlink:href="../../d4/d67/lms_8c.html#ace0cd8bf61cb9b86b98f0cef03b5a9d9" target="_top" xlink:title="Case2F">
<polygon fill="white" stroke="black" points="513.5,-380.5 513.5,-399.5 564.5,-399.5 564.5,-380.5 513.5,-380.5"/>
<text text-anchor="middle" x="539" y="-387.5" font-family="Helvetica,sans-Serif" font-size="10.00">Case2F</text>
</a>
</g>
</g>
<!-- Node3&#45;&gt;Node5 -->
<g id="edge4" class="edge"><title>Node3&#45;&gt;Node5</title>
<path fill="none" stroke="midnightblue" d="M431.085,-278.53C442.666,-281.156 458.416,-286.296 469,-296 496.253,-320.988 479.852,-343.895 505,-371 506.175,-372.266 507.453,-373.472 508.802,-374.616"/>
<polygon fill="midnightblue" stroke="midnightblue" points="506.889,-377.55 517.067,-380.492 510.945,-371.845 506.889,-377.55"/>
</g>
<!-- Node6 -->
<g id="node6" class="node"><title>Node6</title>
<g id="a_node6"><a xlink:href="../../d4/d67/lms_8c.html#a5f53b53ccc591e3643c4af2aee2e7f32" target="_top" xlink:title="Case3F">
<polygon fill="white" stroke="black" points="513.5,-342.5 513.5,-361.5 564.5,-361.5 564.5,-342.5 513.5,-342.5"/>
<text text-anchor="middle" x="539" y="-349.5" font-family="Helvetica,sans-Serif" font-size="10.00">Case3F</text>
</a>
</g>
</g>
<!-- Node3&#45;&gt;Node6 -->
<g id="edge5" class="edge"><title>Node3&#45;&gt;Node6</title>
<path fill="none" stroke="midnightblue" d="M431.22,-279.813C442.289,-283.031 457.318,-288.347 469,-296 488.192,-308.573 486.885,-318.919 505,-333 506.781,-334.385 508.674,-335.738 510.617,-337.043"/>
<polygon fill="midnightblue" stroke="midnightblue" points="508.922,-340.111 519.265,-342.41 512.614,-334.163 508.922,-340.111"/>
</g>
<!-- Node7 -->
<g id="node7" class="node"><title>Node7</title>
<g id="a_node7"><a xlink:href="../../d4/d67/lms_8c.html#a5086763d5b258349bc13d6be7e7d0665" target="_top" xlink:title="Case4F">
<polygon fill="white" stroke="black" points="513.5,-304.5 513.5,-323.5 564.5,-323.5 564.5,-304.5 513.5,-304.5"/>
<text text-anchor="middle" x="539" y="-311.5" font-family="Helvetica,sans-Serif" font-size="10.00">Case4F</text>
</a>
</g>
</g>
<!-- Node3&#45;&gt;Node7 -->
<g id="edge6" class="edge"><title>Node3&#45;&gt;Node7</title>
<path fill="none" stroke="midnightblue" d="M431.451,-280.813C449.517,-286.44 479.965,-295.923 503.697,-303.315"/>
<polygon fill="midnightblue" stroke="midnightblue" points="502.812,-306.706 513.401,-306.338 504.894,-300.022 502.812,-306.706"/>
</g>
<!-- Node8 -->
<g id="node8" class="node"><title>Node8</title>
<g id="a_node8"><a xlink:href="../../db/de5/recipes_8c.html#aee25e218394217a134e805ea09fb0fe9" target="_top" xlink:title="free_ivector">
<polygon fill="white" stroke="black" points="505,-266.5 505,-285.5 573,-285.5 573,-266.5 505,-266.5"/>
<text text-anchor="middle" x="539" y="-273.5" font-family="Helvetica,sans-Serif" font-size="10.00">free_ivector</text>
</a>
</g>
</g>
<!-- Node3&#45;&gt;Node8 -->
<g id="edge7" class="edge"><title>Node3&#45;&gt;Node8</title>
<path fill="none" stroke="midnightblue" d="M431.451,-276C447.282,-276 472.622,-276 494.618,-276"/>
<polygon fill="midnightblue" stroke="midnightblue" points="494.766,-279.5 504.766,-276 494.766,-272.5 494.766,-279.5"/>
</g>
<!-- Node9 -->
<g id="node9" class="node"><title>Node9</title>
<g id="a_node9"><a xlink:href="../../db/de5/recipes_8c.html#a3e0d121b098c19c0bdc2429e5b9f1625" target="_top" xlink:title="free_matrix">
<polygon fill="white" stroke="black" points="506.5,-228.5 506.5,-247.5 571.5,-247.5 571.5,-228.5 506.5,-228.5"/>
<text text-anchor="middle" x="539" y="-235.5" font-family="Helvetica,sans-Serif" font-size="10.00">free_matrix</text>
</a>
</g>
</g>
<!-- Node3&#45;&gt;Node9 -->
<g id="edge8" class="edge"><title>Node3&#45;&gt;Node9</title>
<path fill="none" stroke="midnightblue" d="M431.451,-271.187C447.984,-266.038 474.887,-257.658 497.523,-250.608"/>
<polygon fill="midnightblue" stroke="midnightblue" points="498.737,-253.895 507.244,-247.58 496.655,-247.212 498.737,-253.895"/>
</g>
<!-- Node10 -->
<g id="node10" class="node"><title>Node10</title>
<g id="a_node10"><a xlink:href="../../db/de5/recipes_8c.html#a8214a52d888e820222c0382648329c0c" target="_top" xlink:title="free_vector">
<polygon fill="white" stroke="black" points="609,-190.5 609,-209.5 674,-209.5 674,-190.5 609,-190.5"/>
<text text-anchor="middle" x="641.5" y="-197.5" font-family="Helvetica,sans-Serif" font-size="10.00">free_vector</text>
</a>
</g>
</g>
<!-- Node3&#45;&gt;Node10 -->
<g id="edge9" class="edge"><title>Node3&#45;&gt;Node10</title>
<path fill="none" stroke="midnightblue" d="M427.494,-266.286C443.656,-253.206 474.542,-230.273 505,-219 535.224,-207.814 571.468,-203.148 598.864,-201.233"/>
<polygon fill="midnightblue" stroke="midnightblue" points="599.129,-204.723 608.899,-200.626 598.706,-197.736 599.129,-204.723"/>
</g>
<!-- Node11 -->
<g id="node11" class="node"><title>Node11</title>
<g id="a_node11"><a xlink:href="../../d4/d67/lms_8c.html#ad1d6c875ff429888b51dd1155f0311ad" target="_top" xlink:title="ivector">
<polygon fill="white" stroke="black" points="516,-114.5 516,-133.5 562,-133.5 562,-114.5 516,-114.5"/>
<text text-anchor="middle" x="539" y="-121.5" font-family="Helvetica,sans-Serif" font-size="10.00">ivector</text>
</a>
</g>
</g>
<!-- Node3&#45;&gt;Node11 -->
<g id="edge10" class="edge"><title>Node3&#45;&gt;Node11</title>
<path fill="none" stroke="midnightblue" d="M420.567,-266.211C431.977,-242.578 463.799,-181.516 505,-143 506.295,-141.79 507.68,-140.624 509.124,-139.508"/>
<polygon fill="midnightblue" stroke="midnightblue" points="511.446,-142.164 517.787,-133.676 507.537,-136.357 511.446,-142.164"/>
</g>
<!-- Node12 -->
<g id="node12" class="node"><title>Node12</title>
<g id="a_node12"><a xlink:href="../../db/de5/recipes_8c.html#a66ff65ad0355ec1f4a7722bcdafc8cd3" target="_top" xlink:title="lubksb">
<polygon fill="white" stroke="black" points="516.5,-76.5 516.5,-95.5 561.5,-95.5 561.5,-76.5 516.5,-76.5"/>
<text text-anchor="middle" x="539" y="-83.5" font-family="Helvetica,sans-Serif" font-size="10.00">lubksb</text>
</a>
</g>
</g>
<!-- Node3&#45;&gt;Node12 -->
<g id="edge11" class="edge"><title>Node3&#45;&gt;Node12</title>
<path fill="none" stroke="midnightblue" d="M418.878,-266.336C427.635,-238.304 456.37,-155.742 505,-105 506.195,-103.753 507.49,-102.563 508.852,-101.431"/>
<polygon fill="midnightblue" stroke="midnightblue" points="510.989,-104.206 517.154,-95.5906 506.961,-98.4809 510.989,-104.206"/>
</g>
<!-- Node13 -->
<g id="node13" class="node"><title>Node13</title>
<g id="a_node13"><a xlink:href="../../db/de5/recipes_8c.html#a623fec796d9d53e5e4a4d30226547da7" target="_top" xlink:title="ludcmp">
<polygon fill="white" stroke="black" points="515,-152.5 515,-171.5 563,-171.5 563,-152.5 515,-152.5"/>
<text text-anchor="middle" x="539" y="-159.5" font-family="Helvetica,sans-Serif" font-size="10.00">ludcmp</text>
</a>
</g>
</g>
<!-- Node3&#45;&gt;Node13 -->
<g id="edge12" class="edge"><title>Node3&#45;&gt;Node13</title>
<path fill="none" stroke="midnightblue" d="M424.625,-266.295C440.002,-249.224 473.501,-213.069 505,-186 508.324,-183.143 511.97,-180.265 515.586,-177.543"/>
<polygon fill="midnightblue" stroke="midnightblue" points="517.784,-180.273 523.809,-171.559 513.664,-174.613 517.784,-180.273"/>
</g>
<!-- Node16 -->
<g id="node16" class="node"><title>Node16</title>
<g id="a_node16"><a xlink:href="../../d4/d67/lms_8c.html#a37bcb1539d76b53344102435e2ab9c91" target="_top" xlink:title="matrix">
<polygon fill="white" stroke="black" points="517,-38.5 517,-57.5 561,-57.5 561,-38.5 517,-38.5"/>
<text text-anchor="middle" x="539" y="-45.5" font-family="Helvetica,sans-Serif" font-size="10.00">matrix</text>
</a>
</g>
</g>
<!-- Node3&#45;&gt;Node16 -->
<g id="edge17" class="edge"><title>Node3&#45;&gt;Node16</title>
<path fill="none" stroke="midnightblue" d="M419.908,-266.353C436.142,-226.346 497.739,-75.188 505,-67 506.146,-65.7078 507.402,-64.4815 508.733,-63.3211"/>
<polygon fill="midnightblue" stroke="midnightblue" points="510.883,-66.0859 516.943,-57.3953 506.786,-60.4099 510.883,-66.0859"/>
</g>
<!-- Node17 -->
<g id="node17" class="node"><title>Node17</title>
<g id="a_node17"><a xlink:href="../../d8/d91/rounding_8c.html#aa8d7512cdf5bfbf811cef6a8a091c679" target="_top" xlink:title="round2csd">
<polygon fill="white" stroke="black" points="508,-532.5 508,-551.5 570,-551.5 570,-532.5 508,-532.5"/>
<text text-anchor="middle" x="539" y="-539.5" font-family="Helvetica,sans-Serif" font-size="10.00">round2csd</text>
</a>
</g>
</g>
<!-- Node3&#45;&gt;Node17 -->
<g id="edge18" class="edge"><title>Node3&#45;&gt;Node17</title>
<path fill="none" stroke="midnightblue" d="M431.431,-277.65C443.529,-279.794 459.807,-284.715 469,-296 533.518,-375.196 447.083,-438.856 505,-523 505.637,-523.926 506.335,-524.812 507.083,-525.661"/>
<polygon fill="midnightblue" stroke="midnightblue" points="504.991,-528.477 514.872,-532.301 509.533,-523.15 504.991,-528.477"/>
</g>
<!-- Node21 -->
<g id="node21" class="node"><title>Node21</title>
<g id="a_node21"><a xlink:href="../../d8/d91/rounding_8c.html#aca2670cc0fbf948a6b9cb670047c9d5b" target="_top" xlink:title="round2int">
<polygon fill="white" stroke="black" points="511,-494.5 511,-513.5 567,-513.5 567,-494.5 511,-494.5"/>
<text text-anchor="middle" x="539" y="-501.5" font-family="Helvetica,sans-Serif" font-size="10.00">round2int</text>
</a>
</g>
</g>
<!-- Node3&#45;&gt;Node21 -->
<g id="edge22" class="edge"><title>Node3&#45;&gt;Node21</title>
<path fill="none" stroke="midnightblue" d="M431.338,-277.727C443.383,-279.915 459.633,-284.859 469,-296 524.028,-361.452 455.433,-415.321 505,-485 505.754,-486.061 506.588,-487.07 507.484,-488.031"/>
<polygon fill="midnightblue" stroke="midnightblue" points="505.353,-490.81 515.301,-494.457 509.799,-485.403 505.353,-490.81"/>
</g>
<!-- Node22 -->
<g id="node22" class="node"><title>Node22</title>
<g id="a_node22"><a xlink:href="../../d4/d67/lms_8c.html#ac81ca32708341eb34b25d515d00bc748" target="_top" xlink:title="vector">
<polygon fill="white" stroke="black" points="517,-456.5 517,-475.5 561,-475.5 561,-456.5 517,-456.5"/>
<text text-anchor="middle" x="539" y="-463.5" font-family="Helvetica,sans-Serif" font-size="10.00">vector</text>
</a>
</g>
</g>
<!-- Node3&#45;&gt;Node22 -->
<g id="edge24" class="edge"><title>Node3&#45;&gt;Node22</title>
<path fill="none" stroke="midnightblue" d="M431.203,-277.843C443.169,-280.099 459.381,-285.076 469,-296 514.596,-347.777 463.731,-391.712 505,-447 506.06,-448.42 507.26,-449.752 508.56,-450.997"/>
<polygon fill="midnightblue" stroke="midnightblue" points="506.706,-453.983 516.797,-457.21 510.921,-448.394 506.706,-453.983"/>
</g>
<!-- Node13&#45;&gt;Node10 -->
<g id="edge13" class="edge"><title>Node13&#45;&gt;Node10</title>
<path fill="none" stroke="midnightblue" d="M563.057,-170.718C575.676,-175.489 591.569,-181.499 605.668,-186.83"/>
<polygon fill="midnightblue" stroke="midnightblue" points="604.489,-190.126 615.081,-190.389 606.965,-183.578 604.489,-190.126"/>
</g>
<!-- Node14 -->
<g id="node14" class="node"><title>Node14</title>
<g id="a_node14"><a xlink:href="../../db/de5/recipes_8c.html#a208e98f19b2f252315399d02c0594a46" target="_top" xlink:title="nrerror">
<polygon fill="white" stroke="black" points="710,-133.5 710,-152.5 754,-152.5 754,-133.5 710,-133.5"/>
<text text-anchor="middle" x="732" y="-140.5" font-family="Helvetica,sans-Serif" font-size="10.00">nrerror</text>
</a>
</g>
</g>
<!-- Node13&#45;&gt;Node14 -->
<g id="edge14" class="edge"><title>Node13&#45;&gt;Node14</title>
<path fill="none" stroke="midnightblue" d="M563.039,-159.708C597.23,-156.307 661.482,-149.915 699.842,-146.1"/>
<polygon fill="midnightblue" stroke="midnightblue" points="700.324,-149.569 709.928,-145.096 699.631,-142.603 700.324,-149.569"/>
</g>
<!-- Node15 -->
<g id="node15" class="node"><title>Node15</title>
<g id="a_node15"><a xlink:href="../../db/de5/recipes_8c.html#a5e6092211a5f7e2d6ae9282379d3c604" target="_top" xlink:title="vector">
<polygon fill="white" stroke="black" points="619.5,-114.5 619.5,-133.5 663.5,-133.5 663.5,-114.5 619.5,-114.5"/>
<text text-anchor="middle" x="641.5" y="-121.5" font-family="Helvetica,sans-Serif" font-size="10.00">vector</text>
</a>
</g>
</g>
<!-- Node13&#45;&gt;Node15 -->
<g id="edge15" class="edge"><title>Node13&#45;&gt;Node15</title>
<path fill="none" stroke="midnightblue" d="M563.057,-153.282C576.938,-148.033 594.781,-141.287 609.84,-135.593"/>
<polygon fill="midnightblue" stroke="midnightblue" points="611.149,-138.84 619.265,-132.029 608.674,-132.292 611.149,-138.84"/>
</g>
<!-- Node15&#45;&gt;Node14 -->
<g id="edge16" class="edge"><title>Node15&#45;&gt;Node14</title>
<path fill="none" stroke="midnightblue" d="M663.923,-128.599C674.685,-130.91 687.928,-133.753 699.796,-136.301"/>
<polygon fill="midnightblue" stroke="midnightblue" points="699.262,-139.766 709.774,-138.443 700.731,-132.922 699.262,-139.766"/>
</g>
<!-- Node18 -->
<g id="node18" class="node"><title>Node18</title>
<g id="a_node18"><a xlink:href="../../d8/d91/rounding_8c.html#a2cff6b77e73872659c44b0c99f6bd97f" target="_top" xlink:title="csd2int">
<polygon fill="white" stroke="black" points="617.5,-532.5 617.5,-551.5 665.5,-551.5 665.5,-532.5 617.5,-532.5"/>
<text text-anchor="middle" x="641.5" y="-539.5" font-family="Helvetica,sans-Serif" font-size="10.00">csd2int</text>
</a>
</g>
</g>
<!-- Node17&#45;&gt;Node18 -->
<g id="edge19" class="edge"><title>Node17&#45;&gt;Node18</title>
<path fill="none" stroke="midnightblue" d="M570.153,-542C581.87,-542 595.331,-542 607.321,-542"/>
<polygon fill="midnightblue" stroke="midnightblue" points="607.398,-545.5 617.398,-542 607.398,-538.5 607.398,-545.5"/>
</g>
<!-- Node19 -->
<g id="node19" class="node"><title>Node19</title>
<g id="a_node19"><a xlink:href="../../db/d82/wglew_8h.html#a500a82aecba06f4550f6849b8099ca21" target="_top" xlink:title="int">
<polygon fill="white" stroke="black" points="627,-494.5 627,-513.5 656,-513.5 656,-494.5 627,-494.5"/>
<text text-anchor="middle" x="641.5" y="-501.5" font-family="Helvetica,sans-Serif" font-size="10.00">int</text>
</a>
</g>
</g>
<!-- Node17&#45;&gt;Node19 -->
<g id="edge20" class="edge"><title>Node17&#45;&gt;Node19</title>
<path fill="none" stroke="midnightblue" d="M565.36,-532.411C581.388,-526.351 601.934,-518.582 617.49,-512.7"/>
<polygon fill="midnightblue" stroke="midnightblue" points="618.778,-515.955 626.894,-509.145 616.302,-509.408 618.778,-515.955"/>
</g>
<!-- Node20 -->
<g id="node20" class="node"><title>Node20</title>
<g id="a_node20"><a xlink:href="../../d8/d91/rounding_8c.html#ab3a64ec72c5600bc114621e93309c8c3" target="_top" xlink:title="int2csd">
<polygon fill="white" stroke="black" points="617.5,-570.5 617.5,-589.5 665.5,-589.5 665.5,-570.5 617.5,-570.5"/>
<text text-anchor="middle" x="641.5" y="-577.5" font-family="Helvetica,sans-Serif" font-size="10.00">int2csd</text>
</a>
</g>
</g>
<!-- Node17&#45;&gt;Node20 -->
<g id="edge21" class="edge"><title>Node17&#45;&gt;Node20</title>
<path fill="none" stroke="midnightblue" d="M565.36,-551.589C578.181,-556.437 593.894,-562.378 607.631,-567.572"/>
<polygon fill="midnightblue" stroke="midnightblue" points="606.623,-570.933 617.214,-571.195 609.099,-564.385 606.623,-570.933"/>
</g>
<!-- Node21&#45;&gt;Node19 -->
<g id="edge23" class="edge"><title>Node21&#45;&gt;Node19</title>
<path fill="none" stroke="midnightblue" d="M567.197,-504C582.576,-504 601.634,-504 616.462,-504"/>
<polygon fill="midnightblue" stroke="midnightblue" points="616.846,-507.5 626.846,-504 616.846,-500.5 616.846,-507.5"/>
</g>
<!-- Node25 -->
<g id="node25" class="node"><title>Node25</title>
<g id="a_node25"><a xlink:href="../../d9/df5/Logger_8cpp.html#ada38bf01d6d691de953ed69268ea6516" target="_top" xlink:title="errToStr">
<polygon fill="white" stroke="black" points="513,-0.5 513,-19.5 565,-19.5 565,-0.5 513,-0.5"/>
<text text-anchor="middle" x="539" y="-7.5" font-family="Helvetica,sans-Serif" font-size="10.00">errToStr</text>
</a>
</g>
</g>
<!-- Node24&#45;&gt;Node25 -->
<g id="edge27" class="edge"><title>Node24&#45;&gt;Node25</title>
<path fill="none" stroke="midnightblue" d="M423.306,-114.494C437.59,-96.3305 470.816,-56.0931 505,-29 506.768,-27.5987 508.651,-26.2334 510.587,-24.9194"/>
<polygon fill="midnightblue" stroke="midnightblue" points="512.588,-27.7962 519.221,-19.5343 508.884,-21.8567 512.588,-27.7962"/>
</g>
<!-- Node27&#45;&gt;Node3 -->
<g id="edge30" class="edge"><title>Node27&#45;&gt;Node3</title>
<path fill="none" stroke="midnightblue" d="M299.394,-304.981C329.958,-297.252 365.594,-288.241 388.913,-282.344"/>
<polygon fill="midnightblue" stroke="midnightblue" points="389.861,-285.714 398.698,-279.869 388.145,-278.928 389.861,-285.714"/>
</g>
<!-- Node27&#45;&gt;Node23 -->
<g id="edge31" class="edge"><title>Node27&#45;&gt;Node23</title>
<path fill="none" stroke="midnightblue" d="M325.216,-320C333.692,-320 342.191,-320 350.39,-320"/>
<polygon fill="midnightblue" stroke="midnightblue" points="350.591,-323.5 360.591,-320 350.591,-316.5 350.591,-323.5"/>
</g>
</g>
</svg>
        <g id="navigator" transform="translate(0 0)" fill="#404254">
                <rect fill="#f2f5e9" fill-opacity="0.5" stroke="#606060" stroke-width=".5" x="0" y="0" width="60" height="60"/>
                <use id="zoomplus" xlink:href="#zoomPlus" x="17" y="9" onmousedown="handleZoom(evt,'in')"/>
                <use id="zoomminus" xlink:href="#zoomMin" x="42" y="9" onmousedown="handleZoom(evt,'out')"/>
                <use id="reset" xlink:href="#resetDef" x="30" y="36" onmousedown="handleReset()"/>
                <g id="arrowUp" xlink:href="#dirArrow" transform="translate(30 24)" onmousedown="handlePan(0,-1)">
                  <use xlink:href="#rim" fill="#404040">
                        <set attributeName="fill" to="#808080" begin="arrowUp.mouseover" end="arrowUp.mouseout"/>
                  </use>
                  <path fill="none" stroke="white" stroke-width="1.5" d="M0,-3.0v7 M-2.5,-0.5L0,-3.0L2.5,-0.5"/>
                </g>
                <g id="arrowRight" xlink:href="#dirArrow" transform="rotate(90) translate(36 -43)" onmousedown="handlePan(1,0)">
                  <use xlink:href="#rim" fill="#404040">
                        <set attributeName="fill" to="#808080" begin="arrowRight.mouseover" end="arrowRight.mouseout"/>
                  </use>
                  <path fill="none" stroke="white" stroke-width="1.5" d="M0,-3.0v7 M-2.5,-0.5L0,-3.0L2.5,-0.5"/>
                </g>
                <g id="arrowDown" xlink:href="#dirArrow" transform="rotate(180) translate(-30 -48)" onmousedown="handlePan(0,1)">
                  <use xlink:href="#rim" fill="#404040">
                        <set attributeName="fill" to="#808080" begin="arrowDown.mouseover" end="arrowDown.mouseout"/>
                  </use>
                  <path fill="none" stroke="white" stroke-width="1.5" d="M0,-3.0v7 M-2.5,-0.5L0,-3.0L2.5,-0.5"/>
                </g>
                <g id="arrowLeft" xlink:href="#dirArrow" transform="rotate(270) translate(-36 17)" onmousedown="handlePan(-1,0)">
                  <use xlink:href="#rim" fill="#404040">
                        <set attributeName="fill" to="#808080" begin="arrowLeft.mouseover" end="arrowLeft.mouseout"/>
                  </use>
                  <path fill="none" stroke="white" stroke-width="1.5" d="M0,-3.0v7 M-2.5,-0.5L0,-3.0L2.5,-0.5"/>
                </g>
        </g>
        <svg viewBox="0 0 15 15" width="100%" height="30px" preserveAspectRatio="xMaxYMin meet">
         <g id="arrow_out" transform="scale(0.3 0.3)">
          <a xlink:href="classlms7002__pnlRFE__view_a1747c3b95364eda9b2a7461d31aeab04_cgraph_org.svg" target="_base">
           <rect id="button" ry="5" rx="5" y="6" x="6" height="38" width="38"
                fill="#f2f5e9" fill-opacity="0.5" stroke="#606060" stroke-width="1.0"/>
           <path id="arrow"
             d="M 11.500037,31.436501 C 11.940474,20.09759 22.043105,11.32322 32.158766,21.979434 L 37.068811,17.246167 C 37.068811,17.246167 37.088388,32 37.088388,32 L 22.160133,31.978069 C 22.160133,31.978069 26.997745,27.140456 26.997745,27.140456 C 18.528582,18.264221 13.291696,25.230495 11.500037,31.436501 z"
             style="fill:#404040;"/>
          </a>
         </g>
        </svg>
</svg>
