<?xml version="1.0" encoding="UTF-8" standalone="no"?>
<!DOCTYPE svg PUBLIC "-//W3C//DTD SVG 1.1//EN"
 "http://www.w3.org/Graphics/SVG/1.1/DTD/svg11.dtd">
<!-- Generated by graphviz version 2.38.0 (20140413.2041)
 -->
<!-- Title: /home/erik/prefix/default/src/limesuite&#45;dev/src/lms7002_wxgui/lms7002_dlgGFIR_Coefficients.h Pages: 1 -->
<svg width="566pt" height="150pt"
 viewBox="0.00 0.00 565.50 150.00" xmlns="http://www.w3.org/2000/svg" xmlns:xlink="http://www.w3.org/1999/xlink">
<g id="graph0" class="graph" transform="scale(1 1) rotate(0) translate(4 146)">
<title>/home/erik/prefix/default/src/limesuite&#45;dev/src/lms7002_wxgui/lms7002_dlgGFIR_Coefficients.h</title>
<polygon fill="white" stroke="none" points="-4,4 -4,-146 561.5,-146 561.5,4 -4,4"/>
<!-- Node1 -->
<g id="node1" class="node"><title>Node1</title>
<polygon fill="#bfbfbf" stroke="black" points="191,-89.5 191,-141.5 360,-141.5 360,-89.5 191,-89.5"/>
<text text-anchor="start" x="199" y="-129.5" font-family="Helvetica,sans-Serif" font-size="10.00">/home/erik/prefix/default</text>
<text text-anchor="start" x="199" y="-118.5" font-family="Helvetica,sans-Serif" font-size="10.00">/src/limesuite&#45;dev/src</text>
<text text-anchor="start" x="199" y="-107.5" font-family="Helvetica,sans-Serif" font-size="10.00">/lms7002_wxgui/lms7002_dlgGFIR</text>
<text text-anchor="middle" x="275.5" y="-96.5" font-family="Helvetica,sans-Serif" font-size="10.00">_Coefficients.h</text>
</g>
<!-- Node2 -->
<g id="node2" class="node"><title>Node2</title>
<g id="a_node2"><a xlink:href="../../d3/d88/lms7002__dlgGFIR__Coefficients_8cpp.html" target="_top" xlink:title="/home/erik/prefix/default\l/src/limesuite&#45;dev/src\l/lms7002_wxgui/lms7002_dlgGFIR\l_Coefficients.cpp">
<polygon fill="white" stroke="black" points="0,-0.5 0,-52.5 169,-52.5 169,-0.5 0,-0.5"/>
<text text-anchor="start" x="8" y="-40.5" font-family="Helvetica,sans-Serif" font-size="10.00">/home/erik/prefix/default</text>
<text text-anchor="start" x="8" y="-29.5" font-family="Helvetica,sans-Serif" font-size="10.00">/src/limesuite&#45;dev/src</text>
<text text-anchor="start" x="8" y="-18.5" font-family="Helvetica,sans-Serif" font-size="10.00">/lms7002_wxgui/lms7002_dlgGFIR</text>
<text text-anchor="middle" x="84.5" y="-7.5" font-family="Helvetica,sans-Serif" font-size="10.00">_Coefficients.cpp</text>
</a>
</g>
</g>
<!-- Node1&#45;&gt;Node2 -->
<g id="edge1" class="edge"><title>Node1&#45;&gt;Node2</title>
<path fill="none" stroke="midnightblue" d="M211.382,-85.2945C188.047,-74.6654 161.899,-62.7552 139.431,-52.5211"/>
<polygon fill="midnightblue" stroke="midnightblue" points="209.96,-88.4926 220.511,-89.4527 212.862,-82.1223 209.96,-88.4926"/>
</g>
<!-- Node3 -->
<g id="node3" class="node"><title>Node3</title>
<g id="a_node3"><a xlink:href="../../df/d18/lms7002__pnlRxTSP__view_8cpp.html" target="_top" xlink:title="/home/erik/prefix/default\l/src/limesuite&#45;dev/src\l/lms7002_wxgui/lms7002_pnlRxTSP\l_view.cpp">
<polygon fill="white" stroke="black" points="187,-0.5 187,-52.5 364,-52.5 364,-0.5 187,-0.5"/>
<text text-anchor="start" x="195" y="-40.5" font-family="Helvetica,sans-Serif" font-size="10.00">/home/erik/prefix/default</text>
<text text-anchor="start" x="195" y="-29.5" font-family="Helvetica,sans-Serif" font-size="10.00">/src/limesuite&#45;dev/src</text>
<text text-anchor="start" x="195" y="-18.5" font-family="Helvetica,sans-Serif" font-size="10.00">/lms7002_wxgui/lms7002_pnlRxTSP</text>
<text text-anchor="middle" x="275.5" y="-7.5" font-family="Helvetica,sans-Serif" font-size="10.00">_view.cpp</text>
</a>
</g>
</g>
<!-- Node1&#45;&gt;Node3 -->
<g id="edge2" class="edge"><title>Node1&#45;&gt;Node3</title>
<path fill="none" stroke="midnightblue" d="M275.5,-79.1908C275.5,-70.2824 275.5,-60.8986 275.5,-52.6075"/>
<polygon fill="midnightblue" stroke="midnightblue" points="272,-79.336 275.5,-89.336 279,-79.336 272,-79.336"/>
</g>
<!-- Node4 -->
<g id="node4" class="node"><title>Node4</title>
<g id="a_node4"><a xlink:href="../../d8/d7f/lms7002__pnlTxTSP__view_8cpp.html" target="_top" xlink:title="/home/erik/prefix/default\l/src/limesuite&#45;dev/src\l/lms7002_wxgui/lms7002_pnlTxTSP\l_view.cpp">
<polygon fill="white" stroke="black" points="381.5,-0.5 381.5,-52.5 557.5,-52.5 557.5,-0.5 381.5,-0.5"/>
<text text-anchor="start" x="389.5" y="-40.5" font-family="Helvetica,sans-Serif" font-size="10.00">/home/erik/prefix/default</text>
<text text-anchor="start" x="389.5" y="-29.5" font-family="Helvetica,sans-Serif" font-size="10.00">/src/limesuite&#45;dev/src</text>
<text text-anchor="start" x="389.5" y="-18.5" font-family="Helvetica,sans-Serif" font-size="10.00">/lms7002_wxgui/lms7002_pnlTxTSP</text>
<text text-anchor="middle" x="469.5" y="-7.5" font-family="Helvetica,sans-Serif" font-size="10.00">_view.cpp</text>
</a>
</g>
</g>
<!-- Node1&#45;&gt;Node4 -->
<g id="edge3" class="edge"><title>Node1&#45;&gt;Node4</title>
<path fill="none" stroke="midnightblue" d="M340.625,-85.2945C364.327,-74.6654 390.885,-62.7552 413.706,-52.5211"/>
<polygon fill="midnightblue" stroke="midnightblue" points="339.045,-82.1672 331.353,-89.4527 341.909,-88.5543 339.045,-82.1672"/>
</g>
</g>
</svg>
