<?xml version="1.0" encoding="UTF-8" standalone="no"?>
<!DOCTYPE svg PUBLIC "-//W3C//DTD SVG 1.1//EN"
 "http://www.w3.org/Graphics/SVG/1.1/DTD/svg11.dtd">
<!-- Generated by graphviz version 2.38.0 (20140413.2041)
 -->
<!-- Title: __GLXEvent Pages: 1 -->
<svg width="156pt" height="303pt"
 viewBox="0.00 0.00 155.50 303.00" xmlns="http://www.w3.org/2000/svg" xmlns:xlink="http://www.w3.org/1999/xlink">
<g id="graph0" class="graph" transform="scale(1 1) rotate(0) translate(4 299)">
<title>__GLXEvent</title>
<polygon fill="white" stroke="none" points="-4,4 -4,-299 151.5,-299 151.5,4 -4,4"/>
<!-- Node1 -->
<g id="node1" class="node"><title>Node1</title>
<polygon fill="#bfbfbf" stroke="black" points="27.5,-0.5 27.5,-57.5 99.5,-57.5 99.5,-0.5 27.5,-0.5"/>
<text text-anchor="middle" x="63.5" y="-45.5" font-family="Helvetica,sans-Serif" font-size="10.00">__GLXEvent</text>
<polyline fill="none" stroke="black" points="27.5,-38.5 99.5,-38.5 "/>
<text text-anchor="start" x="35.5" y="-26.5" font-family="Helvetica,sans-Serif" font-size="10.00">+ pad</text>
<polyline fill="none" stroke="black" points="27.5,-19.5 99.5,-19.5 "/>
<text text-anchor="middle" x="63.5" y="-7.5" font-family="Helvetica,sans-Serif" font-size="10.00"> </text>
</g>
<!-- Node2 -->
<g id="node2" class="node"><title>Node2</title>
<g id="a_node2"><a xlink:href="../../da/d0e/structGLXPbufferClobberEvent.html" target="_top" xlink:title="{GLXPbufferClobberEvent\n|+ event_type\l+ draw_type\l+ serial\l+ send_event\l+ display\l+ drawable\l+ buffer_mask\l+ aux_buffer\l+ x\l+ y\l+ width\l+ height\l+ count\l|}">
<polygon fill="white" stroke="black" points="0,-105.5 0,-294.5 127,-294.5 127,-105.5 0,-105.5"/>
<text text-anchor="middle" x="63.5" y="-282.5" font-family="Helvetica,sans-Serif" font-size="10.00">GLXPbufferClobberEvent</text>
<polyline fill="none" stroke="black" points="0,-275.5 127,-275.5 "/>
<text text-anchor="start" x="8" y="-263.5" font-family="Helvetica,sans-Serif" font-size="10.00">+ event_type</text>
<text text-anchor="start" x="8" y="-252.5" font-family="Helvetica,sans-Serif" font-size="10.00">+ draw_type</text>
<text text-anchor="start" x="8" y="-241.5" font-family="Helvetica,sans-Serif" font-size="10.00">+ serial</text>
<text text-anchor="start" x="8" y="-230.5" font-family="Helvetica,sans-Serif" font-size="10.00">+ send_event</text>
<text text-anchor="start" x="8" y="-219.5" font-family="Helvetica,sans-Serif" font-size="10.00">+ display</text>
<text text-anchor="start" x="8" y="-208.5" font-family="Helvetica,sans-Serif" font-size="10.00">+ drawable</text>
<text text-anchor="start" x="8" y="-197.5" font-family="Helvetica,sans-Serif" font-size="10.00">+ buffer_mask</text>
<text text-anchor="start" x="8" y="-186.5" font-family="Helvetica,sans-Serif" font-size="10.00">+ aux_buffer</text>
<text text-anchor="start" x="8" y="-175.5" font-family="Helvetica,sans-Serif" font-size="10.00">+ x</text>
<text text-anchor="start" x="8" y="-164.5" font-family="Helvetica,sans-Serif" font-size="10.00">+ y</text>
<text text-anchor="start" x="8" y="-153.5" font-family="Helvetica,sans-Serif" font-size="10.00">+ width</text>
<text text-anchor="start" x="8" y="-142.5" font-family="Helvetica,sans-Serif" font-size="10.00">+ height</text>
<text text-anchor="start" x="8" y="-131.5" font-family="Helvetica,sans-Serif" font-size="10.00">+ count</text>
<polyline fill="none" stroke="black" points="0,-124.5 127,-124.5 "/>
<text text-anchor="middle" x="63.5" y="-112.5" font-family="Helvetica,sans-Serif" font-size="10.00"> </text>
</a>
</g>
</g>
<!-- Node2&#45;&gt;Node1 -->
<g id="edge1" class="edge"><title>Node2&#45;&gt;Node1</title>
<path fill="none" stroke="#404040" d="M63.5,-105.11C63.5,-92.7951 63.5,-80.7495 63.5,-70.0371"/>
<polygon fill="none" stroke="#404040" points="63.5001,-69.7029 59.5,-63.7029 63.5,-57.7029 67.5,-63.7029 63.5001,-69.7029"/>
<text text-anchor="middle" x="105.5" y="-79" font-family="Helvetica,sans-Serif" font-size="10.00"> +glxpbufferclobber</text>
</g>
</g>
</svg>
