<?xml version="1.0" encoding="UTF-8" standalone="no"?>
<!DOCTYPE svg PUBLIC "-//W3C//DTD SVG 1.1//EN"
 "http://www.w3.org/Graphics/SVG/1.1/DTD/svg11.dtd">
<!-- Generated by graphviz version 2.38.0 (20140413.2041)
 -->
<!-- Title: mainPanel::OnLmsDeviceSelect Pages: 1 -->
<svg width="322pt" height="66pt"
 viewBox="0.00 0.00 322.00 66.00" xmlns="http://www.w3.org/2000/svg" xmlns:xlink="http://www.w3.org/1999/xlink">
<g id="graph0" class="graph" transform="scale(1 1) rotate(0) translate(4 62)">
<title>mainPanel::OnLmsDeviceSelect</title>
<polygon fill="white" stroke="none" points="-4,4 -4,-62 318,-62 318,4 -4,4"/>
<!-- Node1 -->
<g id="node1" class="node"><title>Node1</title>
<polygon fill="#bfbfbf" stroke="black" points="-2.84217e-14,-19.5 -2.84217e-14,-38.5 158,-38.5 158,-19.5 -2.84217e-14,-19.5"/>
<text text-anchor="middle" x="79" y="-26.5" font-family="Helvetica,sans-Serif" font-size="10.00">mainPanel::OnLmsDeviceSelect</text>
</g>
<!-- Node2 -->
<g id="node2" class="node"><title>Node2</title>
<g id="a_node2"><a xlink:href="../../de/de5/classmainPanel.html#a468bae3e24ef47d2c37a0c7a3dbf4b17" target="_top" xlink:title="mainPanel::mainPanel">
<polygon fill="white" stroke="black" points="197,-38.5 197,-57.5 311,-57.5 311,-38.5 197,-38.5"/>
<text text-anchor="middle" x="254" y="-45.5" font-family="Helvetica,sans-Serif" font-size="10.00">mainPanel::mainPanel</text>
</a>
</g>
</g>
<!-- Node1&#45;&gt;Node2 -->
<g id="edge1" class="edge"><title>Node1&#45;&gt;Node2</title>
<path fill="none" stroke="midnightblue" d="M168.291,-38.6967C178.032,-39.7665 187.743,-40.8331 196.93,-41.842"/>
<polygon fill="midnightblue" stroke="midnightblue" points="168.471,-35.1955 158.149,-37.5828 167.707,-42.1537 168.471,-35.1955"/>
</g>
<!-- Node3 -->
<g id="node3" class="node"><title>Node3</title>
<g id="a_node3"><a xlink:href="../../de/de5/classmainPanel.html#a496f73a2e3b1e7221086954a152055b8" target="_top" xlink:title="mainPanel::~mainPanel">
<polygon fill="white" stroke="black" points="194,-0.5 194,-19.5 314,-19.5 314,-0.5 194,-0.5"/>
<text text-anchor="middle" x="254" y="-7.5" font-family="Helvetica,sans-Serif" font-size="10.00">mainPanel::~mainPanel</text>
</a>
</g>
</g>
<!-- Node1&#45;&gt;Node3 -->
<g id="edge2" class="edge"><title>Node1&#45;&gt;Node3</title>
<path fill="none" stroke="midnightblue" d="M168.303,-19.3019C176.962,-18.351 185.596,-17.4027 193.859,-16.4952"/>
<polygon fill="midnightblue" stroke="midnightblue" points="167.707,-15.8463 158.149,-20.4172 168.471,-22.8045 167.707,-15.8463"/>
</g>
</g>
</svg>
