<?xml version="1.0" encoding="UTF-8" standalone="no"?>
<!DOCTYPE svg PUBLIC "-//W3C//DTD SVG 1.1//EN"
 "http://www.w3.org/Graphics/SVG/1.1/DTD/svg11.dtd">
<!-- Generated by graphviz version 2.38.0 (20140413.2041)
 -->
<!-- Title: StreamingFixture Pages: 1 -->
<svg width="218pt" height="707pt"
 viewBox="0.00 0.00 218.00 707.00" xmlns="http://www.w3.org/2000/svg" xmlns:xlink="http://www.w3.org/1999/xlink">
<g id="graph0" class="graph" transform="scale(1 1) rotate(0) translate(4 703)">
<title>StreamingFixture</title>
<polygon fill="white" stroke="none" points="-4,4 -4,-703 214,-703 214,4 -4,4"/>
<!-- Node1 -->
<g id="node1" class="node"><title>Node1</title>
<polygon fill="#bfbfbf" stroke="black" points="15.5,-0.5 15.5,-90.5 127.5,-90.5 127.5,-0.5 15.5,-0.5"/>
<text text-anchor="middle" x="71.5" y="-78.5" font-family="Helvetica,sans-Serif" font-size="10.00">StreamingFixture</text>
<polyline fill="none" stroke="black" points="15.5,-71.5 127.5,-71.5 "/>
<text text-anchor="start" x="23.5" y="-59.5" font-family="Helvetica,sans-Serif" font-size="10.00">+ initialized</text>
<polyline fill="none" stroke="black" points="15.5,-52.5 127.5,-52.5 "/>
<text text-anchor="start" x="23.5" y="-40.5" font-family="Helvetica,sans-Serif" font-size="10.00">+ StreamingFixture()</text>
<text text-anchor="start" x="23.5" y="-29.5" font-family="Helvetica,sans-Serif" font-size="10.00">+ SetUp()</text>
<text text-anchor="start" x="23.5" y="-18.5" font-family="Helvetica,sans-Serif" font-size="10.00">+ TearDown()</text>
<text text-anchor="start" x="23.5" y="-7.5" font-family="Helvetica,sans-Serif" font-size="10.00">+ ~StreamingFixture()</text>
</g>
<!-- Node2 -->
<g id="node2" class="node"><title>Node2</title>
<polygon fill="white" stroke="#bfbfbf" points="0,-193.5 0,-250.5 71,-250.5 71,-193.5 0,-193.5"/>
<text text-anchor="middle" x="35.5" y="-238.5" font-family="Helvetica,sans-Serif" font-size="10.00">testing::Test</text>
<polyline fill="none" stroke="#bfbfbf" points="0,-231.5 71,-231.5 "/>
<text text-anchor="middle" x="35.5" y="-219.5" font-family="Helvetica,sans-Serif" font-size="10.00"> </text>
<polyline fill="none" stroke="#bfbfbf" points="0,-212.5 71,-212.5 "/>
<text text-anchor="middle" x="35.5" y="-200.5" font-family="Helvetica,sans-Serif" font-size="10.00"> </text>
</g>
<!-- Node2&#45;&gt;Node1 -->
<g id="edge1" class="edge"><title>Node2&#45;&gt;Node1</title>
<path fill="none" stroke="midnightblue" d="M43.2512,-183.428C48.8672,-156.206 56.4794,-119.308 62.3868,-90.6738"/>
<polygon fill="none" stroke="midnightblue" points="39.7971,-182.849 41.2043,-193.35 46.6527,-184.263 39.7971,-182.849"/>
</g>
<!-- Node3 -->
<g id="node3" class="node"><title>Node3</title>
<g id="a_node3"><a xlink:href="../../d2/de5/classlime_1_1IConnection.html" target="_top" xlink:title="{lime::IConnection\n|# callback_logData\l|+ IConnection()\l+ ~IConnection()\l+ GetHandle()\l+ IsOpen()\l+ GetDeviceInfo()\l+ TransactSPI()\l+ WriteLMS7002MSPI()\l+ ReadLMS7002MSPI()\l+ WriteI2C()\l+ ReadI2C()\land 28 more...\l}">
<polygon fill="white" stroke="black" points="89,-138.5 89,-305.5 210,-305.5 210,-138.5 89,-138.5"/>
<text text-anchor="middle" x="149.5" y="-293.5" font-family="Helvetica,sans-Serif" font-size="10.00">lime::IConnection</text>
<polyline fill="none" stroke="black" points="89,-286.5 210,-286.5 "/>
<text text-anchor="start" x="97" y="-274.5" font-family="Helvetica,sans-Serif" font-size="10.00"># callback_logData</text>
<polyline fill="none" stroke="black" points="89,-267.5 210,-267.5 "/>
<text text-anchor="start" x="97" y="-255.5" font-family="Helvetica,sans-Serif" font-size="10.00">+ IConnection()</text>
<text text-anchor="start" x="97" y="-244.5" font-family="Helvetica,sans-Serif" font-size="10.00">+ ~IConnection()</text>
<text text-anchor="start" x="97" y="-233.5" font-family="Helvetica,sans-Serif" font-size="10.00">+ GetHandle()</text>
<text text-anchor="start" x="97" y="-222.5" font-family="Helvetica,sans-Serif" font-size="10.00">+ IsOpen()</text>
<text text-anchor="start" x="97" y="-211.5" font-family="Helvetica,sans-Serif" font-size="10.00">+ GetDeviceInfo()</text>
<text text-anchor="start" x="97" y="-200.5" font-family="Helvetica,sans-Serif" font-size="10.00">+ TransactSPI()</text>
<text text-anchor="start" x="97" y="-189.5" font-family="Helvetica,sans-Serif" font-size="10.00">+ WriteLMS7002MSPI()</text>
<text text-anchor="start" x="97" y="-178.5" font-family="Helvetica,sans-Serif" font-size="10.00">+ ReadLMS7002MSPI()</text>
<text text-anchor="start" x="97" y="-167.5" font-family="Helvetica,sans-Serif" font-size="10.00">+ WriteI2C()</text>
<text text-anchor="start" x="97" y="-156.5" font-family="Helvetica,sans-Serif" font-size="10.00">+ ReadI2C()</text>
<text text-anchor="start" x="97" y="-145.5" font-family="Helvetica,sans-Serif" font-size="10.00">and 28 more...</text>
</a>
</g>
</g>
<!-- Node3&#45;&gt;Node1 -->
<g id="edge2" class="edge"><title>Node3&#45;&gt;Node1</title>
<path fill="none" stroke="#404040" d="M112.556,-138.349C107.063,-126.06 101.515,-113.65 96.3508,-102.096"/>
<polygon fill="none" stroke="#404040" points="96.2271,-101.819 90.1268,-97.9734 91.3301,-90.8634 97.4303,-94.7087 96.2271,-101.819"/>
<text text-anchor="middle" x="124" y="-112" font-family="Helvetica,sans-Serif" font-size="10.00"> +serPort</text>
</g>
<!-- Node4 -->
<g id="node4" class="node"><title>Node4</title>
<g id="a_node4"><a xlink:href="../../d6/d37/classlime_1_1ConnectionHandle.html" target="_top" xlink:title="{lime::ConnectionHandle\n|+ index\l|+ ConnectionHandle()\l+ ConnectionHandle()\l+ serialize()\l+ ToString()\l}">
<polygon fill="white" stroke="black" points="89,-353.5 89,-443.5 210,-443.5 210,-353.5 89,-353.5"/>
<text text-anchor="middle" x="149.5" y="-431.5" font-family="Helvetica,sans-Serif" font-size="10.00">lime::ConnectionHandle</text>
<polyline fill="none" stroke="black" points="89,-424.5 210,-424.5 "/>
<text text-anchor="start" x="97" y="-412.5" font-family="Helvetica,sans-Serif" font-size="10.00">+ index</text>
<polyline fill="none" stroke="black" points="89,-405.5 210,-405.5 "/>
<text text-anchor="start" x="97" y="-393.5" font-family="Helvetica,sans-Serif" font-size="10.00">+ ConnectionHandle()</text>
<text text-anchor="start" x="97" y="-382.5" font-family="Helvetica,sans-Serif" font-size="10.00">+ ConnectionHandle()</text>
<text text-anchor="start" x="97" y="-371.5" font-family="Helvetica,sans-Serif" font-size="10.00">+ serialize()</text>
<text text-anchor="start" x="97" y="-360.5" font-family="Helvetica,sans-Serif" font-size="10.00">+ ToString()</text>
</a>
</g>
</g>
<!-- Node4&#45;&gt;Node3 -->
<g id="edge3" class="edge"><title>Node4&#45;&gt;Node3</title>
<path fill="none" stroke="#404040" d="M149.5,-353.466C149.5,-342.562 149.5,-330.453 149.5,-318.133"/>
<polygon fill="none" stroke="#404040" points="149.5,-317.778 145.5,-311.779 149.5,-305.778 153.5,-311.778 149.5,-317.778"/>
<text text-anchor="middle" x="169.5" y="-327" font-family="Helvetica,sans-Serif" font-size="10.00"> &#45;_handle</text>
</g>
<!-- Node5 -->
<g id="node5" class="node"><title>Node5</title>
<g id="a_node5"><a xlink:title="STL class. ">
<polygon fill="white" stroke="#bfbfbf" points="119.5,-535.5 119.5,-592.5 179.5,-592.5 179.5,-535.5 119.5,-535.5"/>
<text text-anchor="middle" x="149.5" y="-580.5" font-family="Helvetica,sans-Serif" font-size="10.00">std::string</text>
<polyline fill="none" stroke="#bfbfbf" points="119.5,-573.5 179.5,-573.5 "/>
<text text-anchor="middle" x="149.5" y="-561.5" font-family="Helvetica,sans-Serif" font-size="10.00"> </text>
<polyline fill="none" stroke="#bfbfbf" points="119.5,-554.5 179.5,-554.5 "/>
<text text-anchor="middle" x="149.5" y="-542.5" font-family="Helvetica,sans-Serif" font-size="10.00"> </text>
</a>
</g>
</g>
<!-- Node5&#45;&gt;Node4 -->
<g id="edge4" class="edge"><title>Node5&#45;&gt;Node4</title>
<path fill="none" stroke="#404040" d="M149.5,-535.264C149.5,-513.537 149.5,-482.597 149.5,-455.739"/>
<polygon fill="none" stroke="#404040" points="149.5,-455.734 145.5,-449.734 149.5,-443.734 153.5,-449.734 149.5,-455.734"/>
<text text-anchor="middle" x="168.5" y="-509" font-family="Helvetica,sans-Serif" font-size="10.00"> +serial</text>
<text text-anchor="middle" x="168.5" y="-498" font-family="Helvetica,sans-Serif" font-size="10.00">+name</text>
<text text-anchor="middle" x="168.5" y="-487" font-family="Helvetica,sans-Serif" font-size="10.00">+media</text>
<text text-anchor="middle" x="168.5" y="-476" font-family="Helvetica,sans-Serif" font-size="10.00">+module</text>
<text text-anchor="middle" x="168.5" y="-465" font-family="Helvetica,sans-Serif" font-size="10.00">+addr</text>
</g>
<!-- Node6 -->
<g id="node6" class="node"><title>Node6</title>
<g id="a_node6"><a xlink:title="STL class. ">
<polygon fill="white" stroke="#bfbfbf" points="102,-630.5 102,-698.5 197,-698.5 197,-630.5 102,-630.5"/>
<text text-anchor="start" x="110" y="-686.5" font-family="Helvetica,sans-Serif" font-size="10.00">std::basic_string&lt;</text>
<text text-anchor="middle" x="149.5" y="-675.5" font-family="Helvetica,sans-Serif" font-size="10.00"> char &gt;</text>
<polyline fill="none" stroke="#bfbfbf" points="102,-668.5 197,-668.5 "/>
<text text-anchor="middle" x="149.5" y="-656.5" font-family="Helvetica,sans-Serif" font-size="10.00"> </text>
<polyline fill="none" stroke="#bfbfbf" points="102,-649.5 197,-649.5 "/>
<text text-anchor="middle" x="149.5" y="-637.5" font-family="Helvetica,sans-Serif" font-size="10.00"> </text>
</a>
</g>
</g>
<!-- Node6&#45;&gt;Node5 -->
<g id="edge5" class="edge"><title>Node6&#45;&gt;Node5</title>
<path fill="none" stroke="midnightblue" d="M149.5,-620.375C149.5,-610.94 149.5,-601.201 149.5,-592.571"/>
<polygon fill="none" stroke="midnightblue" points="146,-620.427 149.5,-630.427 153,-620.427 146,-620.427"/>
</g>
</g>
</svg>
