<?xml version="1.0" encoding="UTF-8" standalone="no"?>
<!DOCTYPE svg PUBLIC "-//W3C//DTD SVG 1.1//EN"
 "http://www.w3.org/Graphics/SVG/1.1/DTD/svg11.dtd">
<!-- Generated by graphviz version 2.38.0 (20140413.2041)
 -->
<!-- Title: /home/erik/prefix/default/src/limesuite&#45;dev/src/lms7002m_mcu/MCU_BD.cpp Pages: 1 -->
<svg width="1344pt" height="274pt"
 viewBox="0.00 0.00 1343.50 274.00" xmlns="http://www.w3.org/2000/svg" xmlns:xlink="http://www.w3.org/1999/xlink">
<g id="graph0" class="graph" transform="scale(1 1) rotate(0) translate(4 270)">
<title>/home/erik/prefix/default/src/limesuite&#45;dev/src/lms7002m_mcu/MCU_BD.cpp</title>
<polygon fill="white" stroke="none" points="-4,4 -4,-270 1339.5,-270 1339.5,4 -4,4"/>
<!-- Node1 -->
<g id="node1" class="node"><title>Node1</title>
<polygon fill="#bfbfbf" stroke="black" points="585.5,-224.5 585.5,-265.5 738.5,-265.5 738.5,-224.5 585.5,-224.5"/>
<text text-anchor="start" x="593.5" y="-253.5" font-family="Helvetica,sans-Serif" font-size="10.00">/home/erik/prefix/default</text>
<text text-anchor="start" x="593.5" y="-242.5" font-family="Helvetica,sans-Serif" font-size="10.00">/src/limesuite&#45;dev/src</text>
<text text-anchor="middle" x="662" y="-231.5" font-family="Helvetica,sans-Serif" font-size="10.00">/lms7002m_mcu/MCU_BD.cpp</text>
</g>
<!-- Node2 -->
<g id="node2" class="node"><title>Node2</title>
<g id="a_node2"><a xlink:href="../../df/d64/MCU__BD_8h.html" target="_top" xlink:title="Header for MCU_BD.cpp. ">
<polygon fill="white" stroke="black" points="0,-168.5 0,-187.5 68,-187.5 68,-168.5 0,-168.5"/>
<text text-anchor="middle" x="34" y="-175.5" font-family="Helvetica,sans-Serif" font-size="10.00">MCU_BD.h</text>
</a>
</g>
</g>
<!-- Node1&#45;&gt;Node2 -->
<g id="edge1" class="edge"><title>Node1&#45;&gt;Node2</title>
<path fill="none" stroke="midnightblue" d="M585.275,-238.78C474.012,-230.714 261.54,-213.448 82,-188 80.7251,-187.819 79.4325,-187.628 78.1288,-187.429"/>
<polygon fill="midnightblue" stroke="midnightblue" points="78.4621,-183.937 68.0266,-185.767 77.3259,-190.844 78.4621,-183.937"/>
</g>
<!-- Node4 -->
<g id="node4" class="node"><title>Node4</title>
<polygon fill="white" stroke="#bfbfbf" points="113.5,-0.5 113.5,-19.5 154.5,-19.5 154.5,-0.5 113.5,-0.5"/>
<text text-anchor="middle" x="134" y="-7.5" font-family="Helvetica,sans-Serif" font-size="10.00">string</text>
</g>
<!-- Node1&#45;&gt;Node4 -->
<g id="edge14" class="edge"><title>Node1&#45;&gt;Node4</title>
<path fill="none" stroke="midnightblue" d="M585.415,-240.347C448.475,-231.982 170.72,-206.078 115,-132 91.9801,-101.395 110.752,-53.968 123.908,-28.5334"/>
<polygon fill="midnightblue" stroke="midnightblue" points="127.032,-30.1145 128.739,-19.658 120.884,-26.7677 127.032,-30.1145"/>
</g>
<!-- Node12 -->
<g id="node12" class="node"><title>Node12</title>
<g id="a_node12"><a xlink:href="../../d8/d86/MCU__File_8h.html" target="_top" xlink:title="MCU_File.h">
<polygon fill="white" stroke="black" points="318.5,-168.5 318.5,-187.5 387.5,-187.5 387.5,-168.5 318.5,-168.5"/>
<text text-anchor="middle" x="353" y="-175.5" font-family="Helvetica,sans-Serif" font-size="10.00">MCU_File.h</text>
</a>
</g>
</g>
<!-- Node1&#45;&gt;Node12 -->
<g id="edge15" class="edge"><title>Node1&#45;&gt;Node12</title>
<path fill="none" stroke="midnightblue" d="M585.221,-227.849C526.149,-215.423 446.581,-198.685 397.59,-188.38"/>
<polygon fill="midnightblue" stroke="midnightblue" points="398.124,-184.916 387.618,-186.282 396.683,-191.766 398.124,-184.916"/>
</g>
<!-- Node16 -->
<g id="node16" class="node"><title>Node16</title>
<polygon fill="white" stroke="#bfbfbf" points="750,-112.5 750,-131.5 802,-131.5 802,-112.5 750,-112.5"/>
<text text-anchor="middle" x="776" y="-119.5" font-family="Helvetica,sans-Serif" font-size="10.00">sstream</text>
</g>
<!-- Node1&#45;&gt;Node16 -->
<g id="edge20" class="edge"><title>Node1&#45;&gt;Node16</title>
<path fill="none" stroke="midnightblue" d="M662.37,-224.478C663.653,-207.783 667.894,-183.987 681,-168 689.39,-157.766 718.76,-144.687 742.648,-135.269"/>
<polygon fill="midnightblue" stroke="midnightblue" points="744.074,-138.471 752.14,-131.602 741.551,-131.941 744.074,-138.471"/>
</g>
<!-- Node17 -->
<g id="node17" class="node"><title>Node17</title>
<polygon fill="white" stroke="#bfbfbf" points="584,-168.5 584,-187.5 634,-187.5 634,-168.5 584,-168.5"/>
<text text-anchor="middle" x="609" y="-175.5" font-family="Helvetica,sans-Serif" font-size="10.00">fstream</text>
</g>
<!-- Node1&#45;&gt;Node17 -->
<g id="edge21" class="edge"><title>Node1&#45;&gt;Node17</title>
<path fill="none" stroke="midnightblue" d="M646.098,-224.498C638.597,-215.299 629.74,-204.436 622.562,-195.632"/>
<polygon fill="midnightblue" stroke="midnightblue" points="625.087,-193.191 616.055,-187.652 619.662,-197.614 625.087,-193.191"/>
</g>
<!-- Node18 -->
<g id="node18" class="node"><title>Node18</title>
<g id="a_node18"><a xlink:href="../../d1/d56/LMS64CProtocol_8h.html" target="_top" xlink:title="Implementation of LMS64C protocol. ">
<polygon fill="white" stroke="black" points="466.5,-168.5 466.5,-187.5 565.5,-187.5 565.5,-168.5 466.5,-168.5"/>
<text text-anchor="middle" x="516" y="-175.5" font-family="Helvetica,sans-Serif" font-size="10.00">LMS64CProtocol.h</text>
</a>
</g>
</g>
<!-- Node1&#45;&gt;Node18 -->
<g id="edge22" class="edge"><title>Node1&#45;&gt;Node18</title>
<path fill="none" stroke="midnightblue" d="M618.195,-224.498C594.412,-213.909 565.678,-201.117 544.744,-191.797"/>
<polygon fill="midnightblue" stroke="midnightblue" points="545.994,-188.522 535.435,-187.652 543.147,-194.917 545.994,-188.522"/>
</g>
<!-- Node22 -->
<g id="node22" class="node"><title>Node22</title>
<polygon fill="white" stroke="#bfbfbf" points="690,-168.5 690,-187.5 742,-187.5 742,-168.5 690,-168.5"/>
<text text-anchor="middle" x="716" y="-175.5" font-family="Helvetica,sans-Serif" font-size="10.00">assert.h</text>
</g>
<!-- Node1&#45;&gt;Node22 -->
<g id="edge27" class="edge"><title>Node1&#45;&gt;Node22</title>
<path fill="none" stroke="midnightblue" d="M678.202,-224.498C685.924,-215.203 695.057,-204.21 702.41,-195.358"/>
<polygon fill="midnightblue" stroke="midnightblue" points="705.114,-197.581 708.812,-187.652 699.729,-193.108 705.114,-197.581"/>
</g>
<!-- Node23 -->
<g id="node23" class="node"><title>Node23</title>
<polygon fill="white" stroke="#bfbfbf" points="760,-168.5 760,-187.5 804,-187.5 804,-168.5 760,-168.5"/>
<text text-anchor="middle" x="782" y="-175.5" font-family="Helvetica,sans-Serif" font-size="10.00">thread</text>
</g>
<!-- Node1&#45;&gt;Node23 -->
<g id="edge28" class="edge"><title>Node1&#45;&gt;Node23</title>
<path fill="none" stroke="midnightblue" d="M698.004,-224.498C717.11,-214.149 740.102,-201.695 757.198,-192.435"/>
<polygon fill="midnightblue" stroke="midnightblue" points="758.9,-195.493 766.026,-187.652 755.566,-189.338 758.9,-195.493"/>
</g>
<!-- Node24 -->
<g id="node24" class="node"><title>Node24</title>
<polygon fill="white" stroke="#bfbfbf" points="821.5,-168.5 821.5,-187.5 850.5,-187.5 850.5,-168.5 821.5,-168.5"/>
<text text-anchor="middle" x="836" y="-175.5" font-family="Helvetica,sans-Serif" font-size="10.00">list</text>
</g>
<!-- Node1&#45;&gt;Node24 -->
<g id="edge29" class="edge"><title>Node1&#45;&gt;Node24</title>
<path fill="none" stroke="midnightblue" d="M715.548,-224.405C742.197,-214.592 775.109,-202.382 811.962,-188.357"/>
<polygon fill="midnightblue" stroke="midnightblue" points="813.318,-191.586 821.415,-184.753 810.824,-185.045 813.318,-191.586"/>
</g>
<!-- Node25 -->
<g id="node25" class="node"><title>Node25</title>
<g id="a_node25"><a xlink:href="../../d1/d7e/LMS7002M_8h.html" target="_top" xlink:title="LMS7002M transceiver configuration interface. ">
<polygon fill="white" stroke="black" points="937,-168.5 937,-187.5 1011,-187.5 1011,-168.5 937,-168.5"/>
<text text-anchor="middle" x="974" y="-175.5" font-family="Helvetica,sans-Serif" font-size="10.00">LMS7002M.h</text>
</a>
</g>
</g>
<!-- Node1&#45;&gt;Node25 -->
<g id="edge30" class="edge"><title>Node1&#45;&gt;Node25</title>
<path fill="none" stroke="midnightblue" d="M738.723,-228.016C797.635,-215.743 877.09,-199.19 926.929,-188.806"/>
<polygon fill="midnightblue" stroke="midnightblue" points="927.716,-192.218 936.792,-186.752 926.288,-185.365 927.716,-192.218"/>
</g>
<!-- Node29 -->
<g id="node29" class="node"><title>Node29</title>
<g id="a_node29"><a xlink:href="../../dd/da4/Logger_8h.html" target="_top" xlink:title="API for logging library status messages. ">
<polygon fill="white" stroke="black" points="1209,-56.5 1209,-75.5 1263,-75.5 1263,-56.5 1209,-56.5"/>
<text text-anchor="middle" x="1236" y="-63.5" font-family="Helvetica,sans-Serif" font-size="10.00">Logger.h</text>
</a>
</g>
</g>
<!-- Node1&#45;&gt;Node29 -->
<g id="edge39" class="edge"><title>Node1&#45;&gt;Node29</title>
<path fill="none" stroke="midnightblue" d="M738.588,-242.083C842.107,-236.275 1029.11,-214.156 1163,-132 1185.25,-118.349 1207.11,-97.637 1221.03,-83.277"/>
<polygon fill="midnightblue" stroke="midnightblue" points="1223.91,-85.3252 1228.24,-75.6574 1218.82,-80.5123 1223.91,-85.3252"/>
</g>
<!-- Node3 -->
<g id="node3" class="node"><title>Node3</title>
<polygon fill="white" stroke="#bfbfbf" points="22,-112.5 22,-131.5 68,-131.5 68,-112.5 22,-112.5"/>
<text text-anchor="middle" x="45" y="-119.5" font-family="Helvetica,sans-Serif" font-size="10.00">atomic</text>
</g>
<!-- Node2&#45;&gt;Node3 -->
<g id="edge2" class="edge"><title>Node2&#45;&gt;Node3</title>
<path fill="none" stroke="midnightblue" d="M35.8164,-168.083C37.2741,-160.927 39.3706,-150.635 41.1925,-141.691"/>
<polygon fill="midnightblue" stroke="midnightblue" points="44.6508,-142.248 43.2174,-131.751 37.7917,-140.851 44.6508,-142.248"/>
</g>
<!-- Node2&#45;&gt;Node4 -->
<g id="edge3" class="edge"><title>Node2&#45;&gt;Node4</title>
<path fill="none" stroke="midnightblue" d="M27.1546,-168.327C18.0108,-155.615 3.95371,-131.335 13,-112 32.2535,-70.8496 77.4291,-40.5926 106.804,-24.408"/>
<polygon fill="midnightblue" stroke="midnightblue" points="108.553,-27.4422 115.733,-19.6518 105.262,-21.2639 108.553,-27.4422"/>
</g>
<!-- Node5 -->
<g id="node5" class="node"><title>Node5</title>
<g id="a_node5"><a xlink:href="../../d3/d1e/IConnection_8h.html" target="_top" xlink:title="Interface class for connection types. ">
<polygon fill="white" stroke="black" points="124.5,-112.5 124.5,-131.5 201.5,-131.5 201.5,-112.5 124.5,-112.5"/>
<text text-anchor="middle" x="163" y="-119.5" font-family="Helvetica,sans-Serif" font-size="10.00">IConnection.h</text>
</a>
</g>
</g>
<!-- Node2&#45;&gt;Node5 -->
<g id="edge4" class="edge"><title>Node2&#45;&gt;Node5</title>
<path fill="none" stroke="midnightblue" d="M54.4404,-168.444C75.6704,-159.557 109.099,-145.563 133.255,-135.451"/>
<polygon fill="midnightblue" stroke="midnightblue" points="134.782,-138.606 142.655,-131.516 132.079,-132.149 134.782,-138.606"/>
</g>
<!-- Node5&#45;&gt;Node4 -->
<g id="edge9" class="edge"><title>Node5&#45;&gt;Node4</title>
<path fill="none" stroke="midnightblue" d="M160.724,-112.368C156.023,-94.5366 145.151,-53.2953 138.817,-29.2717"/>
<polygon fill="midnightblue" stroke="midnightblue" points="142.199,-28.3688 136.265,-19.5914 135.43,-30.1533 142.199,-28.3688"/>
</g>
<!-- Node6 -->
<g id="node6" class="node"><title>Node6</title>
<g id="a_node6"><a xlink:href="../../dd/d40/LimeSuiteConfig_8h.html" target="_top" xlink:title="Configuration constants and macros for lime suite library. ">
<polygon fill="white" stroke="black" points="639.5,-0.5 639.5,-19.5 736.5,-19.5 736.5,-0.5 639.5,-0.5"/>
<text text-anchor="middle" x="688" y="-7.5" font-family="Helvetica,sans-Serif" font-size="10.00">LimeSuiteConfig.h</text>
</a>
</g>
</g>
<!-- Node5&#45;&gt;Node6 -->
<g id="edge5" class="edge"><title>Node5&#45;&gt;Node6</title>
<path fill="none" stroke="midnightblue" d="M186.21,-112.495C209.244,-103.883 245.431,-89.887 276,-76 293.735,-67.943 296.373,-61.7 315,-56 422.672,-23.0517 554.744,-14.077 629.347,-11.726"/>
<polygon fill="midnightblue" stroke="midnightblue" points="629.588,-15.2206 639.484,-11.4364 629.388,-8.22349 629.588,-15.2206"/>
</g>
<!-- Node7 -->
<g id="node7" class="node"><title>Node7</title>
<g id="a_node7"><a xlink:href="../../d1/d5d/ConnectionHandle_8h.html" target="_top" xlink:title="Represent a connection to a device. ">
<polygon fill="white" stroke="black" points="162.5,-56.5 162.5,-75.5 267.5,-75.5 267.5,-56.5 162.5,-56.5"/>
<text text-anchor="middle" x="215" y="-63.5" font-family="Helvetica,sans-Serif" font-size="10.00">ConnectionHandle.h</text>
</a>
</g>
</g>
<!-- Node5&#45;&gt;Node7 -->
<g id="edge6" class="edge"><title>Node5&#45;&gt;Node7</title>
<path fill="none" stroke="midnightblue" d="M171.587,-112.083C179.159,-104.22 190.378,-92.5688 199.514,-83.0813"/>
<polygon fill="midnightblue" stroke="midnightblue" points="202.158,-85.3821 206.573,-75.7511 197.115,-80.5266 202.158,-85.3821"/>
</g>
<!-- Node8 -->
<g id="node8" class="node"><title>Node8</title>
<polygon fill="white" stroke="#bfbfbf" points="388,-56.5 388,-75.5 432,-75.5 432,-56.5 388,-56.5"/>
<text text-anchor="middle" x="410" y="-63.5" font-family="Helvetica,sans-Serif" font-size="10.00">vector</text>
</g>
<!-- Node5&#45;&gt;Node8 -->
<g id="edge10" class="edge"><title>Node5&#45;&gt;Node8</title>
<path fill="none" stroke="midnightblue" d="M201.833,-113.846C243.195,-106.02 310.772,-92.643 377.819,-76.1513"/>
<polygon fill="midnightblue" stroke="midnightblue" points="378.843,-79.5034 387.705,-73.6958 377.156,-72.7099 378.843,-79.5034"/>
</g>
<!-- Node9 -->
<g id="node9" class="node"><title>Node9</title>
<polygon fill="white" stroke="#bfbfbf" points="324,-56.5 324,-75.5 370,-75.5 370,-56.5 324,-56.5"/>
<text text-anchor="middle" x="347" y="-63.5" font-family="Helvetica,sans-Serif" font-size="10.00">cstring</text>
</g>
<!-- Node5&#45;&gt;Node9 -->
<g id="edge11" class="edge"><title>Node5&#45;&gt;Node9</title>
<path fill="none" stroke="midnightblue" d="M192.155,-112.444C225.358,-102.699 279.48,-86.8158 314.148,-76.6414"/>
<polygon fill="midnightblue" stroke="midnightblue" points="315.197,-79.9811 323.807,-73.8067 313.226,-73.2644 315.197,-79.9811"/>
</g>
<!-- Node10 -->
<g id="node10" class="node"><title>Node10</title>
<polygon fill="white" stroke="#bfbfbf" points="919.5,-56.5 919.5,-75.5 978.5,-75.5 978.5,-56.5 919.5,-56.5"/>
<text text-anchor="middle" x="949" y="-63.5" font-family="Helvetica,sans-Serif" font-size="10.00">functional</text>
</g>
<!-- Node5&#45;&gt;Node10 -->
<g id="edge12" class="edge"><title>Node5&#45;&gt;Node10</title>
<path fill="none" stroke="midnightblue" d="M201.927,-116.592C216.661,-115.012 233.592,-113.301 249,-112 500.02,-90.8053 802.43,-74.4807 909.275,-68.9947"/>
<polygon fill="midnightblue" stroke="midnightblue" points="909.48,-72.4889 919.289,-68.483 909.123,-65.498 909.48,-72.4889"/>
</g>
<!-- Node11 -->
<g id="node11" class="node"><title>Node11</title>
<polygon fill="white" stroke="#bfbfbf" points="674.5,-56.5 674.5,-75.5 723.5,-75.5 723.5,-56.5 674.5,-56.5"/>
<text text-anchor="middle" x="699" y="-63.5" font-family="Helvetica,sans-Serif" font-size="10.00">stdint.h</text>
</g>
<!-- Node5&#45;&gt;Node11 -->
<g id="edge13" class="edge"><title>Node5&#45;&gt;Node11</title>
<path fill="none" stroke="midnightblue" d="M201.526,-116.93C216.363,-115.373 233.469,-113.589 249,-112 403.475,-96.1934 587.847,-77.952 663.725,-70.4718"/>
<polygon fill="midnightblue" stroke="midnightblue" points="664.508,-73.9116 674.117,-69.4478 663.821,-66.9454 664.508,-73.9116"/>
</g>
<!-- Node7&#45;&gt;Node4 -->
<g id="edge8" class="edge"><title>Node7&#45;&gt;Node4</title>
<path fill="none" stroke="midnightblue" d="M201.986,-56.324C189.468,-47.979 170.318,-35.2122 155.529,-25.3524"/>
<polygon fill="midnightblue" stroke="midnightblue" points="157.244,-22.2894 146.982,-19.6545 153.361,-28.1137 157.244,-22.2894"/>
</g>
<!-- Node7&#45;&gt;Node6 -->
<g id="edge7" class="edge"><title>Node7&#45;&gt;Node6</title>
<path fill="none" stroke="midnightblue" d="M267.652,-57.8103C272.501,-57.1835 277.34,-56.5711 282,-56 405.28,-40.89 549.902,-25.3929 628.966,-17.1104"/>
<polygon fill="midnightblue" stroke="midnightblue" points="629.629,-20.5602 639.211,-16.0391 628.901,-13.5981 629.629,-20.5602"/>
</g>
<!-- Node12&#45;&gt;Node8 -->
<g id="edge18" class="edge"><title>Node12&#45;&gt;Node8</title>
<path fill="none" stroke="midnightblue" d="M318.256,-169.675C280.138,-160.019 227.085,-140.808 249,-112 283.454,-66.7077 317.663,-89.7022 378.07,-75.962"/>
<polygon fill="midnightblue" stroke="midnightblue" points="379.173,-79.2928 387.994,-73.4253 377.439,-72.5109 379.173,-79.2928"/>
</g>
<!-- Node13 -->
<g id="node13" class="node"><title>Node13</title>
<polygon fill="white" stroke="#bfbfbf" points="398,-112.5 398,-131.5 444,-131.5 444,-112.5 398,-112.5"/>
<text text-anchor="middle" x="421" y="-119.5" font-family="Helvetica,sans-Serif" font-size="10.00">stdio.h</text>
</g>
<!-- Node12&#45;&gt;Node13 -->
<g id="edge16" class="edge"><title>Node12&#45;&gt;Node13</title>
<path fill="none" stroke="midnightblue" d="M363.925,-168.324C374.175,-160.185 389.721,-147.839 402.001,-138.087"/>
<polygon fill="midnightblue" stroke="midnightblue" points="404.221,-140.794 409.876,-131.834 399.868,-135.312 404.221,-140.794"/>
</g>
<!-- Node14 -->
<g id="node14" class="node"><title>Node14</title>
<polygon fill="white" stroke="#bfbfbf" points="258.5,-112.5 258.5,-131.5 307.5,-131.5 307.5,-112.5 258.5,-112.5"/>
<text text-anchor="middle" x="283" y="-119.5" font-family="Helvetica,sans-Serif" font-size="10.00">string.h</text>
</g>
<!-- Node12&#45;&gt;Node14 -->
<g id="edge17" class="edge"><title>Node12&#45;&gt;Node14</title>
<path fill="none" stroke="midnightblue" d="M341.753,-168.324C331.203,-160.185 315.199,-147.839 302.558,-138.087"/>
<polygon fill="midnightblue" stroke="midnightblue" points="304.507,-135.171 294.451,-131.834 300.231,-140.713 304.507,-135.171"/>
</g>
<!-- Node15 -->
<g id="node15" class="node"><title>Node15</title>
<polygon fill="white" stroke="#bfbfbf" points="326,-112.5 326,-131.5 380,-131.5 380,-112.5 326,-112.5"/>
<text text-anchor="middle" x="353" y="-119.5" font-family="Helvetica,sans-Serif" font-size="10.00">iostream</text>
</g>
<!-- Node12&#45;&gt;Node15 -->
<g id="edge19" class="edge"><title>Node12&#45;&gt;Node15</title>
<path fill="none" stroke="midnightblue" d="M353,-168.083C353,-161.006 353,-150.861 353,-141.986"/>
<polygon fill="midnightblue" stroke="midnightblue" points="356.5,-141.751 353,-131.751 349.5,-141.751 356.5,-141.751"/>
</g>
<!-- Node18&#45;&gt;Node5 -->
<g id="edge23" class="edge"><title>Node18&#45;&gt;Node5</title>
<path fill="none" stroke="midnightblue" d="M466.172,-169.378C398.704,-159.057 279.042,-140.751 212.002,-130.496"/>
<polygon fill="midnightblue" stroke="midnightblue" points="212.125,-126.974 201.71,-128.922 211.066,-133.894 212.125,-126.974"/>
</g>
<!-- Node19 -->
<g id="node19" class="node"><title>Node19</title>
<polygon fill="white" stroke="#bfbfbf" points="556,-112.5 556,-131.5 600,-131.5 600,-112.5 556,-112.5"/>
<text text-anchor="middle" x="578" y="-119.5" font-family="Helvetica,sans-Serif" font-size="10.00">mutex</text>
</g>
<!-- Node18&#45;&gt;Node19 -->
<g id="edge24" class="edge"><title>Node18&#45;&gt;Node19</title>
<path fill="none" stroke="midnightblue" d="M525.961,-168.324C535.127,-160.341 548.937,-148.313 560.028,-138.653"/>
<polygon fill="midnightblue" stroke="midnightblue" points="562.615,-141.041 567.857,-131.834 558.018,-135.762 562.615,-141.041"/>
</g>
<!-- Node20 -->
<g id="node20" class="node"><title>Node20</title>
<g id="a_node20"><a xlink:href="../../de/dd5/LMS64CCommands_8h.html" target="_top" xlink:title="enumerations of LMS64C command options ">
<polygon fill="white" stroke="black" points="618.5,-112.5 618.5,-131.5 731.5,-131.5 731.5,-112.5 618.5,-112.5"/>
<text text-anchor="middle" x="675" y="-119.5" font-family="Helvetica,sans-Serif" font-size="10.00">LMS64CCommands.h</text>
</a>
</g>
</g>
<!-- Node18&#45;&gt;Node20 -->
<g id="edge25" class="edge"><title>Node18&#45;&gt;Node20</title>
<path fill="none" stroke="midnightblue" d="M541.194,-168.444C567.943,-159.359 610.403,-144.939 640.305,-134.783"/>
<polygon fill="midnightblue" stroke="midnightblue" points="641.581,-138.046 649.924,-131.516 639.329,-131.418 641.581,-138.046"/>
</g>
<!-- Node21 -->
<g id="node21" class="node"><title>Node21</title>
<g id="a_node21"><a xlink:href="../../d8/df2/LMSBoards_8h.html" target="_top" xlink:title="enumerations of available LMS7002M hardware ">
<polygon fill="white" stroke="black" points="462,-112.5 462,-131.5 538,-131.5 538,-112.5 462,-112.5"/>
<text text-anchor="middle" x="500" y="-119.5" font-family="Helvetica,sans-Serif" font-size="10.00">LMSBoards.h</text>
</a>
</g>
</g>
<!-- Node18&#45;&gt;Node21 -->
<g id="edge26" class="edge"><title>Node18&#45;&gt;Node21</title>
<path fill="none" stroke="midnightblue" d="M513.358,-168.083C511.214,-160.849 508.121,-150.409 505.451,-141.397"/>
<polygon fill="midnightblue" stroke="midnightblue" points="508.79,-140.345 502.593,-131.751 502.078,-142.333 508.79,-140.345"/>
</g>
<!-- Node25&#45;&gt;Node6 -->
<g id="edge31" class="edge"><title>Node25&#45;&gt;Node6</title>
<path fill="none" stroke="midnightblue" d="M1011.29,-176.053C1071.64,-173.094 1180.63,-161.015 1146,-112 1100.32,-47.351 859.841,-22.6431 746.808,-14.4978"/>
<polygon fill="midnightblue" stroke="midnightblue" points="746.824,-10.9905 736.604,-13.7827 746.335,-17.9734 746.824,-10.9905"/>
</g>
<!-- Node25&#45;&gt;Node8 -->
<g id="edge38" class="edge"><title>Node25&#45;&gt;Node8</title>
<path fill="none" stroke="midnightblue" d="M946.753,-168.406C921.141,-160.044 881.927,-146.508 849,-132 831.535,-124.305 829.243,-117.606 811,-112 678.786,-71.3743 511.99,-66.6464 442.597,-66.6093"/>
<polygon fill="midnightblue" stroke="midnightblue" points="442.306,-63.11 432.316,-66.6389 442.326,-70.11 442.306,-63.11"/>
</g>
<!-- Node25&#45;&gt;Node10 -->
<g id="edge37" class="edge"><title>Node25&#45;&gt;Node10</title>
<path fill="none" stroke="midnightblue" d="M1011.27,-174.552C1067,-169.466 1162.13,-154.435 1129,-112 1111.92,-90.1202 1036.25,-77.3045 988.622,-71.2655"/>
<polygon fill="midnightblue" stroke="midnightblue" points="988.976,-67.7828 978.625,-70.0447 988.127,-74.7312 988.976,-67.7828"/>
</g>
<!-- Node25&#45;&gt;Node16 -->
<g id="edge35" class="edge"><title>Node25&#45;&gt;Node16</title>
<path fill="none" stroke="midnightblue" d="M942.626,-168.444C907.143,-158.766 849.457,-143.034 812.123,-132.852"/>
<polygon fill="midnightblue" stroke="midnightblue" points="812.737,-129.391 802.168,-130.137 810.895,-136.145 812.737,-129.391"/>
</g>
<!-- Node26 -->
<g id="node26" class="node"><title>Node26</title>
<g id="a_node26"><a xlink:href="../../d1/d2e/LMS7002M__parameters_8h.html" target="_top" xlink:title="List of LMS7002M transceiver control parameters. ">
<polygon fill="white" stroke="black" points="858,-112.5 858,-131.5 986,-131.5 986,-112.5 858,-112.5"/>
<text text-anchor="middle" x="922" y="-119.5" font-family="Helvetica,sans-Serif" font-size="10.00">LMS7002M_parameters.h</text>
</a>
</g>
</g>
<!-- Node25&#45;&gt;Node26 -->
<g id="edge32" class="edge"><title>Node25&#45;&gt;Node26</title>
<path fill="none" stroke="midnightblue" d="M965.413,-168.083C957.841,-160.22 946.622,-148.569 937.486,-139.081"/>
<polygon fill="midnightblue" stroke="midnightblue" points="939.885,-136.527 930.427,-131.751 934.842,-141.382 939.885,-136.527"/>
</g>
<!-- Node27 -->
<g id="node27" class="node"><title>Node27</title>
<polygon fill="white" stroke="#bfbfbf" points="1004,-112.5 1004,-131.5 1050,-131.5 1050,-112.5 1004,-112.5"/>
<text text-anchor="middle" x="1027" y="-119.5" font-family="Helvetica,sans-Serif" font-size="10.00">cstdint</text>
</g>
<!-- Node25&#45;&gt;Node27 -->
<g id="edge34" class="edge"><title>Node25&#45;&gt;Node27</title>
<path fill="none" stroke="midnightblue" d="M982.752,-168.083C990.47,-160.22 1001.9,-148.569 1011.22,-139.081"/>
<polygon fill="midnightblue" stroke="midnightblue" points="1013.9,-141.34 1018.41,-131.751 1008.91,-136.436 1013.9,-141.34"/>
</g>
<!-- Node28 -->
<g id="node28" class="node"><title>Node28</title>
<polygon fill="white" stroke="#bfbfbf" points="1068,-112.5 1068,-131.5 1120,-131.5 1120,-112.5 1068,-112.5"/>
<text text-anchor="middle" x="1094" y="-119.5" font-family="Helvetica,sans-Serif" font-size="10.00">stdarg.h</text>
</g>
<!-- Node25&#45;&gt;Node28 -->
<g id="edge36" class="edge"><title>Node25&#45;&gt;Node28</title>
<path fill="none" stroke="midnightblue" d="M993.014,-168.444C1012.59,-159.636 1043.31,-145.812 1065.73,-135.722"/>
<polygon fill="midnightblue" stroke="midnightblue" points="1067.39,-138.812 1075.07,-131.516 1064.52,-132.428 1067.39,-138.812"/>
</g>
<!-- Node26&#45;&gt;Node11 -->
<g id="edge33" class="edge"><title>Node26&#45;&gt;Node11</title>
<path fill="none" stroke="midnightblue" d="M886.665,-112.444C844.774,-102.3 775.409,-85.5027 733.768,-75.4192"/>
<polygon fill="midnightblue" stroke="midnightblue" points="734.355,-71.9603 723.813,-73.0084 732.708,-78.7637 734.355,-71.9603"/>
</g>
<!-- Node29&#45;&gt;Node4 -->
<g id="edge41" class="edge"><title>Node29&#45;&gt;Node4</title>
<path fill="none" stroke="midnightblue" d="M1208.76,-63.6652C1057.78,-56.2667 324.688,-20.3441 164.825,-12.5105"/>
<polygon fill="midnightblue" stroke="midnightblue" points="164.886,-9.00938 154.727,-12.0157 164.544,-16.001 164.886,-9.00938"/>
</g>
<!-- Node29&#45;&gt;Node6 -->
<g id="edge40" class="edge"><title>Node29&#45;&gt;Node6</title>
<path fill="none" stroke="midnightblue" d="M1208.74,-58.509C1204.17,-57.5669 1199.47,-56.6855 1195,-56 1033.99,-31.286 841.975,-18.831 747.091,-13.7946"/>
<polygon fill="midnightblue" stroke="midnightblue" points="747.006,-10.2855 736.837,-13.2592 746.641,-17.2759 747.006,-10.2855"/>
</g>
<!-- Node30 -->
<g id="node30" class="node"><title>Node30</title>
<polygon fill="white" stroke="#bfbfbf" points="1146.5,-0.5 1146.5,-19.5 1195.5,-19.5 1195.5,-0.5 1146.5,-0.5"/>
<text text-anchor="middle" x="1171" y="-7.5" font-family="Helvetica,sans-Serif" font-size="10.00">cstdarg</text>
</g>
<!-- Node29&#45;&gt;Node30 -->
<g id="edge42" class="edge"><title>Node29&#45;&gt;Node30</title>
<path fill="none" stroke="midnightblue" d="M1225.56,-56.324C1215.85,-48.2631 1201.18,-36.0765 1189.5,-26.3695"/>
<polygon fill="midnightblue" stroke="midnightblue" points="1191.56,-23.532 1181.63,-19.8339 1187.09,-28.9163 1191.56,-23.532"/>
</g>
<!-- Node31 -->
<g id="node31" class="node"><title>Node31</title>
<polygon fill="white" stroke="#bfbfbf" points="1214,-0.5 1214,-19.5 1258,-19.5 1258,-0.5 1214,-0.5"/>
<text text-anchor="middle" x="1236" y="-7.5" font-family="Helvetica,sans-Serif" font-size="10.00">cerrno</text>
</g>
<!-- Node29&#45;&gt;Node31 -->
<g id="edge43" class="edge"><title>Node29&#45;&gt;Node31</title>
<path fill="none" stroke="midnightblue" d="M1236,-56.083C1236,-49.0059 1236,-38.8611 1236,-29.9865"/>
<polygon fill="midnightblue" stroke="midnightblue" points="1239.5,-29.751 1236,-19.7511 1232.5,-29.7511 1239.5,-29.751"/>
</g>
<!-- Node32 -->
<g id="node32" class="node"><title>Node32</title>
<polygon fill="white" stroke="#bfbfbf" points="1276.5,-0.5 1276.5,-19.5 1335.5,-19.5 1335.5,-0.5 1276.5,-0.5"/>
<text text-anchor="middle" x="1306" y="-7.5" font-family="Helvetica,sans-Serif" font-size="10.00">stdexcept</text>
</g>
<!-- Node29&#45;&gt;Node32 -->
<g id="edge44" class="edge"><title>Node29&#45;&gt;Node32</title>
<path fill="none" stroke="midnightblue" d="M1247.25,-56.324C1257.8,-48.1849 1273.8,-35.8395 1286.44,-26.0874"/>
<polygon fill="midnightblue" stroke="midnightblue" points="1288.77,-28.7132 1294.55,-19.8339 1284.49,-23.1707 1288.77,-28.7132"/>
</g>
</g>
</svg>
