<?xml version="1.0" encoding="UTF-8" standalone="no"?>
<!DOCTYPE svg PUBLIC "-//W3C//DTD SVG 1.1//EN"
 "http://www.w3.org/Graphics/SVG/1.1/DTD/svg11.dtd">
<!-- Generated by graphviz version 2.38.0 (20140413.2041)
 -->
<!-- Title: lms7002_pnlRxTSP_view::Initialize Pages: 1 -->
<svg width="770pt" height="88pt"
 viewBox="0.00 0.00 770.00 88.00" xmlns="http://www.w3.org/2000/svg" xmlns:xlink="http://www.w3.org/1999/xlink">
<g id="graph0" class="graph" transform="scale(1 1) rotate(0) translate(4 84)">
<title>lms7002_pnlRxTSP_view::Initialize</title>
<polygon fill="white" stroke="none" points="-4,4 -4,-84 766,-84 766,4 -4,4"/>
<!-- Node1 -->
<g id="node1" class="node"><title>Node1</title>
<polygon fill="#bfbfbf" stroke="black" points="0,-27.5 0,-57.5 129,-57.5 129,-27.5 0,-27.5"/>
<text text-anchor="start" x="8" y="-45.5" font-family="Helvetica,sans-Serif" font-size="10.00">lms7002_pnlRxTSP_view</text>
<text text-anchor="middle" x="64.5" y="-34.5" font-family="Helvetica,sans-Serif" font-size="10.00">::Initialize</text>
</g>
<!-- Node2 -->
<g id="node2" class="node"><title>Node2</title>
<g id="a_node2"><a xlink:href="../../d8/d3c/classlms7002__mainPanel.html#a38ef18df694e067998a0bbad1813a031" target="_top" xlink:title="lms7002_mainPanel::\lInitialize">
<polygon fill="white" stroke="black" points="165,-27.5 165,-57.5 275,-57.5 275,-27.5 165,-27.5"/>
<text text-anchor="start" x="173" y="-45.5" font-family="Helvetica,sans-Serif" font-size="10.00">lms7002_mainPanel::</text>
<text text-anchor="middle" x="220" y="-34.5" font-family="Helvetica,sans-Serif" font-size="10.00">Initialize</text>
</a>
</g>
</g>
<!-- Node1&#45;&gt;Node2 -->
<g id="edge1" class="edge"><title>Node1&#45;&gt;Node2</title>
<path fill="none" stroke="midnightblue" d="M139.347,-42.5C147.978,-42.5 156.658,-42.5 164.949,-42.5"/>
<polygon fill="midnightblue" stroke="midnightblue" points="139.264,-39.0001 129.264,-42.5 139.264,-46.0001 139.264,-39.0001"/>
</g>
<!-- Node3 -->
<g id="node3" class="node"><title>Node3</title>
<g id="a_node3"><a xlink:href="../../d1/df3/classLMS7SuiteAppFrame.html#aeaeb613a8c9139f0e60b02f1f612ed5d" target="_top" xlink:title="LMS7SuiteAppFrame::\lUpdateConnections">
<polygon fill="white" stroke="black" points="311,-27.5 311,-57.5 427,-57.5 427,-27.5 311,-27.5"/>
<text text-anchor="start" x="319" y="-45.5" font-family="Helvetica,sans-Serif" font-size="10.00">LMS7SuiteAppFrame::</text>
<text text-anchor="middle" x="369" y="-34.5" font-family="Helvetica,sans-Serif" font-size="10.00">UpdateConnections</text>
</a>
</g>
</g>
<!-- Node2&#45;&gt;Node3 -->
<g id="edge2" class="edge"><title>Node2&#45;&gt;Node3</title>
<path fill="none" stroke="midnightblue" d="M285.532,-42.5C293.996,-42.5 302.62,-42.5 310.947,-42.5"/>
<polygon fill="midnightblue" stroke="midnightblue" points="285.32,-39.0001 275.32,-42.5 285.32,-46.0001 285.32,-39.0001"/>
</g>
<!-- Node4 -->
<g id="node4" class="node"><title>Node4</title>
<g id="a_node4"><a xlink:href="../../d1/df3/classLMS7SuiteAppFrame.html#ad380f4e547c66fcfffdec0da53fe5b3e" target="_top" xlink:title="Constructor. ">
<polygon fill="white" stroke="black" points="634,-49.5 634,-79.5 750,-79.5 750,-49.5 634,-49.5"/>
<text text-anchor="start" x="642" y="-67.5" font-family="Helvetica,sans-Serif" font-size="10.00">LMS7SuiteAppFrame::</text>
<text text-anchor="middle" x="692" y="-56.5" font-family="Helvetica,sans-Serif" font-size="10.00">LMS7SuiteAppFrame</text>
</a>
</g>
</g>
<!-- Node3&#45;&gt;Node4 -->
<g id="edge3" class="edge"><title>Node3&#45;&gt;Node4</title>
<path fill="none" stroke="midnightblue" d="M437.232,-47.1078C495.507,-51.1017 578.904,-56.8174 633.973,-60.5916"/>
<polygon fill="midnightblue" stroke="midnightblue" points="437.234,-43.5998 427.018,-46.4078 436.756,-50.5835 437.234,-43.5998"/>
</g>
<!-- Node5 -->
<g id="node5" class="node"><title>Node5</title>
<g id="a_node5"><a xlink:href="../../d1/df3/classLMS7SuiteAppFrame.html#a819f017d3e706c433d9b7f4f9bc1f9c3" target="_top" xlink:title="LMS7SuiteAppFrame::\lOnControlBoardConnect">
<polygon fill="white" stroke="black" points="463,-5.5 463,-35.5 586,-35.5 586,-5.5 463,-5.5"/>
<text text-anchor="start" x="471" y="-23.5" font-family="Helvetica,sans-Serif" font-size="10.00">LMS7SuiteAppFrame::</text>
<text text-anchor="middle" x="524.5" y="-12.5" font-family="Helvetica,sans-Serif" font-size="10.00">OnControlBoardConnect</text>
</a>
</g>
</g>
<!-- Node3&#45;&gt;Node5 -->
<g id="edge4" class="edge"><title>Node3&#45;&gt;Node5</title>
<path fill="none" stroke="midnightblue" d="M437.138,-32.8776C445.727,-31.6467 454.478,-30.3924 462.953,-29.1777"/>
<polygon fill="midnightblue" stroke="midnightblue" points="436.56,-29.4246 427.158,-34.308 437.553,-36.3538 436.56,-29.4246"/>
</g>
<!-- Node5&#45;&gt;Node4 -->
<g id="edge5" class="edge"><title>Node5&#45;&gt;Node4</title>
<path fill="none" stroke="midnightblue" d="M591.678,-38.0941C605.855,-41.8632 620.709,-45.8122 634.481,-49.4738"/>
<polygon fill="midnightblue" stroke="midnightblue" points="592.556,-34.7062 581.993,-35.5192 590.758,-41.4712 592.556,-34.7062"/>
</g>
<!-- Node6 -->
<g id="node6" class="node"><title>Node6</title>
<g id="a_node6"><a xlink:href="../../d1/df3/classLMS7SuiteAppFrame.html#a08626f72855857180d80ab271f481d08" target="_top" xlink:title="LMS7SuiteAppFrame::\lOnShowConnectionSettings">
<polygon fill="white" stroke="black" points="622,-0.5 622,-30.5 762,-30.5 762,-0.5 622,-0.5"/>
<text text-anchor="start" x="630" y="-18.5" font-family="Helvetica,sans-Serif" font-size="10.00">LMS7SuiteAppFrame::</text>
<text text-anchor="middle" x="692" y="-7.5" font-family="Helvetica,sans-Serif" font-size="10.00">OnShowConnectionSettings</text>
</a>
</g>
</g>
<!-- Node5&#45;&gt;Node6 -->
<g id="edge6" class="edge"><title>Node5&#45;&gt;Node6</title>
<path fill="none" stroke="midnightblue" d="M596.399,-18.358C604.86,-18.1024 613.49,-17.8417 621.925,-17.5868"/>
<polygon fill="midnightblue" stroke="midnightblue" points="596.076,-14.8661 586.186,-18.6666 596.287,-21.8629 596.076,-14.8661"/>
</g>
</g>
</svg>
