<?xml version="1.0" encoding="UTF-8" standalone="no"?>
<!DOCTYPE svg PUBLIC "-//W3C//DTD SVG 1.1//EN"
 "http://www.w3.org/Graphics/SVG/1.1/DTD/svg11.dtd">
<!-- Generated by graphviz version 2.38.0 (20140413.2041)
 -->
<!-- Title: GNUPlotPipe::writef Pages: 1 -->
<svg width="533pt" height="218pt"
 viewBox="0.00 0.00 533.00 218.00" xmlns="http://www.w3.org/2000/svg" xmlns:xlink="http://www.w3.org/1999/xlink">
<g id="graph0" class="graph" transform="scale(1 1) rotate(0) translate(4 214)">
<title>GNUPlotPipe::writef</title>
<polygon fill="white" stroke="none" points="-4,4 -4,-214 529,-214 529,4 -4,4"/>
<!-- Node1 -->
<g id="node1" class="node"><title>Node1</title>
<polygon fill="#bfbfbf" stroke="black" points="0,-95.5 0,-114.5 106,-114.5 106,-95.5 0,-95.5"/>
<text text-anchor="middle" x="53" y="-102.5" font-family="Helvetica,sans-Serif" font-size="10.00">GNUPlotPipe::writef</text>
</g>
<!-- Node2 -->
<g id="node2" class="node"><title>Node2</title>
<g id="a_node2"><a xlink:href="../../d3/dec/lms7002m__calibrations_8c.html#a6af7d7b5195308346d2ceeba3a7958e4" target="_top" xlink:title="CalibrateIQImbalance">
<polygon fill="white" stroke="black" points="143,-114.5 143,-133.5 254,-133.5 254,-114.5 143,-114.5"/>
<text text-anchor="middle" x="198.5" y="-121.5" font-family="Helvetica,sans-Serif" font-size="10.00">CalibrateIQImbalance</text>
</a>
</g>
</g>
<!-- Node1&#45;&gt;Node2 -->
<g id="edge1" class="edge"><title>Node1&#45;&gt;Node2</title>
<path fill="none" stroke="midnightblue" d="M116.371,-113.258C125.125,-114.417 134.07,-115.602 142.67,-116.74"/>
<polygon fill="midnightblue" stroke="midnightblue" points="116.586,-109.756 106.213,-111.913 115.667,-116.696 116.586,-109.756"/>
</g>
<!-- Node9 -->
<g id="node9" class="node"><title>Node9</title>
<g id="a_node9"><a xlink:href="../../d3/dec/lms7002m__calibrations_8c.html#aa026f3df786068d9f328b676c496c5f2" target="_top" xlink:title="CalibrateTxDCAuto">
<polygon fill="white" stroke="black" points="147.5,-190.5 147.5,-209.5 249.5,-209.5 249.5,-190.5 147.5,-190.5"/>
<text text-anchor="middle" x="198.5" y="-197.5" font-family="Helvetica,sans-Serif" font-size="10.00">CalibrateTxDCAuto</text>
</a>
</g>
</g>
<!-- Node1&#45;&gt;Node9 -->
<g id="edge11" class="edge"><title>Node1&#45;&gt;Node9</title>
<path fill="none" stroke="midnightblue" d="M70.0749,-122.313C86.6696,-139.303 114.015,-164.936 142,-181 148.448,-184.701 155.731,-187.837 162.85,-190.428"/>
<polygon fill="midnightblue" stroke="midnightblue" points="72.2782,-119.553 62.8364,-114.747 67.2201,-124.392 72.2782,-119.553"/>
</g>
<!-- Node10 -->
<g id="node10" class="node"><title>Node10</title>
<g id="a_node10"><a xlink:href="../../d3/dec/lms7002m__calibrations_8c.html#a3c09e7c416b748a881c1be540feddf48" target="_top" xlink:title="CheckSaturationRx">
<polygon fill="white" stroke="black" points="147.5,-76.5 147.5,-95.5 249.5,-95.5 249.5,-76.5 147.5,-76.5"/>
<text text-anchor="middle" x="198.5" y="-83.5" font-family="Helvetica,sans-Serif" font-size="10.00">CheckSaturationRx</text>
</a>
</g>
</g>
<!-- Node1&#45;&gt;Node10 -->
<g id="edge13" class="edge"><title>Node1&#45;&gt;Node10</title>
<path fill="none" stroke="midnightblue" d="M116.139,-96.7725C126.613,-95.3857 137.365,-93.9621 147.481,-92.6228"/>
<polygon fill="midnightblue" stroke="midnightblue" points="115.667,-93.3044 106.213,-98.0868 116.586,-100.244 115.667,-93.3044"/>
</g>
<!-- Node11 -->
<g id="node11" class="node"><title>Node11</title>
<g id="a_node11"><a xlink:href="../../d3/dec/lms7002m__calibrations_8c.html#a04cfd3ce56bed08c8c50078fdcd432f9" target="_top" xlink:title="CheckSaturationTxRx">
<polygon fill="white" stroke="black" points="142,-152.5 142,-171.5 255,-171.5 255,-152.5 142,-152.5"/>
<text text-anchor="middle" x="198.5" y="-159.5" font-family="Helvetica,sans-Serif" font-size="10.00">CheckSaturationTxRx</text>
</a>
</g>
</g>
<!-- Node1&#45;&gt;Node11 -->
<g id="edge15" class="edge"><title>Node1&#45;&gt;Node11</title>
<path fill="none" stroke="midnightblue" d="M84.1459,-118.708C101.027,-126.209 122.536,-135.479 142,-143 150.455,-146.267 159.739,-149.559 168.254,-152.463"/>
<polygon fill="midnightblue" stroke="midnightblue" points="85.3493,-115.412 74.7919,-114.522 82.4902,-121.801 85.3493,-115.412"/>
</g>
<!-- Node12 -->
<g id="node12" class="node"><title>Node12</title>
<g id="a_node12"><a xlink:href="../../d4/d20/basicRX_8cpp.html#a3c04138a5bfe5d72780bb7e82a18e627" target="_top" xlink:title="main">
<polygon fill="white" stroke="black" points="179.5,-38.5 179.5,-57.5 217.5,-57.5 217.5,-38.5 179.5,-38.5"/>
<text text-anchor="middle" x="198.5" y="-45.5" font-family="Helvetica,sans-Serif" font-size="10.00">main</text>
</a>
</g>
</g>
<!-- Node1&#45;&gt;Node12 -->
<g id="edge17" class="edge"><title>Node1&#45;&gt;Node12</title>
<path fill="none" stroke="midnightblue" d="M84.1459,-91.2922C101.027,-83.791 122.536,-74.5211 142,-67 154.35,-62.2279 168.469,-57.4029 179.376,-53.8093"/>
<polygon fill="midnightblue" stroke="midnightblue" points="82.4902,-88.1986 74.7919,-95.4778 85.3493,-94.5881 82.4902,-88.1986"/>
</g>
<!-- Node13 -->
<g id="node13" class="node"><title>Node13</title>
<g id="a_node13"><a xlink:href="../../df/d7d/streaming_8cpp.html#a2a1d481379ef2b25f41edd6058b5f15b" target="_top" xlink:title="TEST_F">
<polygon fill="white" stroke="black" points="172,-0.5 172,-19.5 225,-19.5 225,-0.5 172,-0.5"/>
<text text-anchor="middle" x="198.5" y="-7.5" font-family="Helvetica,sans-Serif" font-size="10.00">TEST_F</text>
</a>
</g>
</g>
<!-- Node1&#45;&gt;Node13 -->
<g id="edge18" class="edge"><title>Node1&#45;&gt;Node13</title>
<path fill="none" stroke="midnightblue" d="M70.0749,-87.6868C86.6696,-70.6969 114.015,-45.0637 142,-29 151.186,-23.7271 162.068,-19.6027 171.752,-16.5638"/>
<polygon fill="midnightblue" stroke="midnightblue" points="67.2201,-85.6078 62.8364,-95.2532 72.2782,-90.4468 67.2201,-85.6078"/>
</g>
<!-- Node3 -->
<g id="node3" class="node"><title>Node3</title>
<g id="a_node3"><a xlink:href="../../d1/dc7/lms7002m__calibrations_8h.html#a69b1e143409bc9a1c0b53f360bf608cf" target="_top" xlink:title="CalibrateRx">
<polygon fill="white" stroke="black" points="291,-95.5 291,-114.5 359,-114.5 359,-95.5 291,-95.5"/>
<text text-anchor="middle" x="325" y="-102.5" font-family="Helvetica,sans-Serif" font-size="10.00">CalibrateRx</text>
</a>
</g>
</g>
<!-- Node2&#45;&gt;Node3 -->
<g id="edge2" class="edge"><title>Node2&#45;&gt;Node3</title>
<path fill="none" stroke="midnightblue" d="M264.154,-114.133C273.422,-112.719 282.62,-111.315 290.922,-110.048"/>
<polygon fill="midnightblue" stroke="midnightblue" points="263.465,-110.698 254.108,-115.666 264.521,-117.618 263.465,-110.698"/>
</g>
<!-- Node8 -->
<g id="node8" class="node"><title>Node8</title>
<g id="a_node8"><a xlink:href="../../d1/dc7/lms7002m__calibrations_8h.html#a208452a11189052c6dcd2fe639e4fcae" target="_top" xlink:title="CalibrateTx">
<polygon fill="white" stroke="black" points="291.5,-152.5 291.5,-171.5 358.5,-171.5 358.5,-152.5 291.5,-152.5"/>
<text text-anchor="middle" x="325" y="-159.5" font-family="Helvetica,sans-Serif" font-size="10.00">CalibrateTx</text>
</a>
</g>
</g>
<!-- Node2&#45;&gt;Node8 -->
<g id="edge8" class="edge"><title>Node2&#45;&gt;Node8</title>
<path fill="none" stroke="midnightblue" d="M240.57,-136.535C257.506,-141.705 276.818,-147.599 292.593,-152.414"/>
<polygon fill="midnightblue" stroke="midnightblue" points="241.503,-133.161 230.917,-133.589 239.459,-139.856 241.503,-133.161"/>
</g>
<!-- Node4 -->
<g id="node4" class="node"><title>Node4</title>
<g id="a_node4"><a xlink:href="../../dd/d0b/mcu__program_2host__src_2main_8cpp.html#a2bb1d2fcd6182ef32aff315f85d13c53" target="_top" xlink:title="DCIQ">
<polygon fill="white" stroke="black" points="402,-133.5 402,-152.5 444,-152.5 444,-133.5 402,-133.5"/>
<text text-anchor="middle" x="423" y="-140.5" font-family="Helvetica,sans-Serif" font-size="10.00">DCIQ</text>
</a>
</g>
</g>
<!-- Node3&#45;&gt;Node4 -->
<g id="edge3" class="edge"><title>Node3&#45;&gt;Node4</title>
<path fill="none" stroke="midnightblue" d="M359.652,-118.321C373.79,-123.917 389.756,-130.237 401.992,-135.08"/>
<polygon fill="midnightblue" stroke="midnightblue" points="360.811,-115.015 350.225,-114.589 358.235,-121.524 360.811,-115.015"/>
</g>
<!-- Node6 -->
<g id="node6" class="node"><title>Node6</title>
<g id="a_node6"><a xlink:href="../../d0/d29/main_8c.html#acdef7a1fd863a6d3770c1268cb06add3" target="_top" xlink:title="main">
<polygon fill="white" stroke="black" points="487,-95.5 487,-114.5 525,-114.5 525,-95.5 487,-95.5"/>
<text text-anchor="middle" x="506" y="-102.5" font-family="Helvetica,sans-Serif" font-size="10.00">main</text>
</a>
</g>
</g>
<!-- Node3&#45;&gt;Node6 -->
<g id="edge5" class="edge"><title>Node3&#45;&gt;Node6</title>
<path fill="none" stroke="midnightblue" d="M369.406,-105C406.934,-105 459.332,-105 486.703,-105"/>
<polygon fill="midnightblue" stroke="midnightblue" points="369.249,-101.5 359.249,-105 369.249,-108.5 369.249,-101.5"/>
</g>
<!-- Node7 -->
<g id="node7" class="node"><title>Node7</title>
<g id="a_node7"><a xlink:href="../../d1/dc7/lms7002m__calibrations_8h.html#adce4a8efb4d0eb17b578b99489f4ef77" target="_top" xlink:title="RunAGC">
<polygon fill="white" stroke="black" points="395,-57.5 395,-76.5 451,-76.5 451,-57.5 395,-57.5"/>
<text text-anchor="middle" x="423" y="-64.5" font-family="Helvetica,sans-Serif" font-size="10.00">RunAGC</text>
</a>
</g>
</g>
<!-- Node3&#45;&gt;Node7 -->
<g id="edge6" class="edge"><title>Node3&#45;&gt;Node7</title>
<path fill="none" stroke="midnightblue" d="M359.882,-91.5886C372.389,-86.6376 386.301,-81.1309 397.783,-76.5859"/>
<polygon fill="midnightblue" stroke="midnightblue" points="358.235,-88.4761 350.225,-95.411 360.811,-94.9848 358.235,-88.4761"/>
</g>
<!-- Node5 -->
<g id="node5" class="node"><title>Node5</title>
<g id="a_node5"><a xlink:href="../../dd/d0b/mcu__program_2host__src_2main_8cpp.html#a3c04138a5bfe5d72780bb7e82a18e627" target="_top" xlink:title="main">
<polygon fill="white" stroke="black" points="487,-133.5 487,-152.5 525,-152.5 525,-133.5 487,-133.5"/>
<text text-anchor="middle" x="506" y="-140.5" font-family="Helvetica,sans-Serif" font-size="10.00">main</text>
</a>
</g>
</g>
<!-- Node4&#45;&gt;Node5 -->
<g id="edge4" class="edge"><title>Node4&#45;&gt;Node5</title>
<path fill="none" stroke="midnightblue" d="M454.121,-143C465.126,-143 477.227,-143 486.866,-143"/>
<polygon fill="midnightblue" stroke="midnightblue" points="454.023,-139.5 444.022,-143 454.022,-146.5 454.023,-139.5"/>
</g>
<!-- Node7&#45;&gt;Node6 -->
<g id="edge7" class="edge"><title>Node7&#45;&gt;Node6</title>
<path fill="none" stroke="midnightblue" d="M453.774,-80.9682C464.838,-86.1585 477.052,-91.8886 486.778,-96.4513"/>
<polygon fill="midnightblue" stroke="midnightblue" points="454.98,-77.6676 444.44,-76.589 452.006,-84.0049 454.98,-77.6676"/>
</g>
<!-- Node8&#45;&gt;Node4 -->
<g id="edge9" class="edge"><title>Node8&#45;&gt;Node4</title>
<path fill="none" stroke="midnightblue" d="M368.512,-153.586C380.109,-151.291 392.139,-148.91 401.846,-146.989"/>
<polygon fill="midnightblue" stroke="midnightblue" points="367.631,-150.192 358.501,-155.567 368.99,-157.059 367.631,-150.192"/>
</g>
<!-- Node8&#45;&gt;Node6 -->
<g id="edge10" class="edge"><title>Node8&#45;&gt;Node6</title>
<path fill="none" stroke="midnightblue" d="M368.665,-170.154C393.647,-172.975 425.244,-173.079 451,-162 451.092,-161.96 480.482,-130.911 495.859,-114.661"/>
<polygon fill="midnightblue" stroke="midnightblue" points="369.118,-166.684 358.748,-168.855 368.209,-173.624 369.118,-166.684"/>
</g>
<!-- Node9&#45;&gt;Node8 -->
<g id="edge12" class="edge"><title>Node9&#45;&gt;Node8</title>
<path fill="none" stroke="midnightblue" d="M240.57,-187.465C257.506,-182.295 276.818,-176.401 292.593,-171.586"/>
<polygon fill="midnightblue" stroke="midnightblue" points="239.459,-184.144 230.917,-190.411 241.503,-190.839 239.459,-184.144"/>
</g>
<!-- Node10&#45;&gt;Node3 -->
<g id="edge14" class="edge"><title>Node10&#45;&gt;Node3</title>
<path fill="none" stroke="midnightblue" d="M259.885,-95.2155C270.491,-96.8339 281.168,-98.4634 290.685,-99.9158"/>
<polygon fill="midnightblue" stroke="midnightblue" points="260.194,-91.722 249.78,-93.6733 259.138,-98.6419 260.194,-91.722"/>
</g>
<!-- Node11&#45;&gt;Node8 -->
<g id="edge16" class="edge"><title>Node11&#45;&gt;Node8</title>
<path fill="none" stroke="midnightblue" d="M265.324,-162C274.293,-162 283.162,-162 291.185,-162"/>
<polygon fill="midnightblue" stroke="midnightblue" points="265.195,-158.5 255.195,-162 265.195,-165.5 265.195,-158.5"/>
</g>
</g>
</svg>
