<?xml version="1.0" encoding="UTF-8" standalone="no"?>
<!DOCTYPE svg PUBLIC "-//W3C//DTD SVG 1.1//EN"
 "http://www.w3.org/Graphics/SVG/1.1/DTD/svg11.dtd">
<!-- Generated by graphviz version 2.38.0 (20140413.2041)
 -->
<!-- Title: GNUPlotPipe::write Pages: 1 -->
<svg width="713pt" height="275pt"
 viewBox="0.00 0.00 713.00 275.00" xmlns="http://www.w3.org/2000/svg" xmlns:xlink="http://www.w3.org/1999/xlink">
<g id="graph0" class="graph" transform="scale(1 1) rotate(0) translate(4 271)">
<title>GNUPlotPipe::write</title>
<polygon fill="white" stroke="none" points="-4,4 -4,-271 709,-271 709,4 -4,4"/>
<!-- Node1 -->
<g id="node1" class="node"><title>Node1</title>
<polygon fill="#bfbfbf" stroke="black" points="0,-133.5 0,-152.5 103,-152.5 103,-133.5 0,-133.5"/>
<text text-anchor="middle" x="51.5" y="-140.5" font-family="Helvetica,sans-Serif" font-size="10.00">GNUPlotPipe::write</text>
</g>
<!-- Node2 -->
<g id="node2" class="node"><title>Node2</title>
<g id="a_node2"><a xlink:href="../../d3/dec/lms7002m__calibrations_8c.html#a6af7d7b5195308346d2ceeba3a7958e4" target="_top" xlink:title="CalibrateIQImbalance">
<polygon fill="white" stroke="black" points="323,-171.5 323,-190.5 434,-190.5 434,-171.5 323,-171.5"/>
<text text-anchor="middle" x="378.5" y="-178.5" font-family="Helvetica,sans-Serif" font-size="10.00">CalibrateIQImbalance</text>
</a>
</g>
</g>
<!-- Node1&#45;&gt;Node2 -->
<g id="edge1" class="edge"><title>Node1&#45;&gt;Node2</title>
<path fill="none" stroke="midnightblue" d="M77.8361,-157.474C94.5996,-166.194 117.396,-176.464 139,-181 201,-194.018 274.081,-191.475 322.852,-187.322"/>
<polygon fill="midnightblue" stroke="midnightblue" points="79.1832,-154.224 68.7178,-152.573 75.8693,-160.39 79.1832,-154.224"/>
</g>
<!-- Node9 -->
<g id="node9" class="node"><title>Node9</title>
<g id="a_node9"><a xlink:href="../../d3/dec/lms7002m__calibrations_8c.html#aa026f3df786068d9f328b676c496c5f2" target="_top" xlink:title="CalibrateTxDCAuto">
<polygon fill="white" stroke="black" points="327.5,-247.5 327.5,-266.5 429.5,-266.5 429.5,-247.5 327.5,-247.5"/>
<text text-anchor="middle" x="378.5" y="-254.5" font-family="Helvetica,sans-Serif" font-size="10.00">CalibrateTxDCAuto</text>
</a>
</g>
</g>
<!-- Node1&#45;&gt;Node9 -->
<g id="edge11" class="edge"><title>Node1&#45;&gt;Node9</title>
<path fill="none" stroke="midnightblue" d="M65.7281,-160.67C81.0754,-179.736 108.242,-209.33 139,-224 199.178,-252.702 276.951,-258.448 327.034,-258.703"/>
<polygon fill="midnightblue" stroke="midnightblue" points="68.4511,-158.47 59.538,-152.742 62.9338,-162.778 68.4511,-158.47"/>
</g>
<!-- Node10 -->
<g id="node10" class="node"><title>Node10</title>
<g id="a_node10"><a xlink:href="../../d3/dec/lms7002m__calibrations_8c.html#a3c09e7c416b748a881c1be540feddf48" target="_top" xlink:title="CheckSaturationRx">
<polygon fill="white" stroke="black" points="327.5,-133.5 327.5,-152.5 429.5,-152.5 429.5,-133.5 327.5,-133.5"/>
<text text-anchor="middle" x="378.5" y="-140.5" font-family="Helvetica,sans-Serif" font-size="10.00">CheckSaturationRx</text>
</a>
</g>
</g>
<!-- Node1&#45;&gt;Node10 -->
<g id="edge13" class="edge"><title>Node1&#45;&gt;Node10</title>
<path fill="none" stroke="midnightblue" d="M113.284,-143C175.075,-143 269.686,-143 327.342,-143"/>
<polygon fill="midnightblue" stroke="midnightblue" points="113.281,-139.5 103.281,-143 113.281,-146.5 113.281,-139.5"/>
</g>
<!-- Node11 -->
<g id="node11" class="node"><title>Node11</title>
<g id="a_node11"><a xlink:href="../../d3/dec/lms7002m__calibrations_8c.html#a04cfd3ce56bed08c8c50078fdcd432f9" target="_top" xlink:title="CheckSaturationTxRx">
<polygon fill="white" stroke="black" points="322,-209.5 322,-228.5 435,-228.5 435,-209.5 322,-209.5"/>
<text text-anchor="middle" x="378.5" y="-216.5" font-family="Helvetica,sans-Serif" font-size="10.00">CheckSaturationTxRx</text>
</a>
</g>
</g>
<!-- Node1&#45;&gt;Node11 -->
<g id="edge15" class="edge"><title>Node1&#45;&gt;Node11</title>
<path fill="none" stroke="midnightblue" d="M71.1261,-158.976C87.7398,-172.218 113.338,-190.236 139,-199 199.162,-219.547 272.602,-222.678 321.959,-221.871"/>
<polygon fill="midnightblue" stroke="midnightblue" points="73.2563,-156.197 63.3045,-152.562 68.8174,-161.61 73.2563,-156.197"/>
</g>
<!-- Node12 -->
<g id="node12" class="node"><title>Node12</title>
<g id="a_node12"><a xlink:href="../../d4/d20/basicRX_8cpp.html#a3c04138a5bfe5d72780bb7e82a18e627" target="_top" xlink:title="main">
<polygon fill="white" stroke="black" points="359.5,-85.5 359.5,-104.5 397.5,-104.5 397.5,-85.5 359.5,-85.5"/>
<text text-anchor="middle" x="378.5" y="-92.5" font-family="Helvetica,sans-Serif" font-size="10.00">main</text>
</a>
</g>
</g>
<!-- Node1&#45;&gt;Node12 -->
<g id="edge17" class="edge"><title>Node1&#45;&gt;Node12</title>
<path fill="none" stroke="midnightblue" d="M113.591,-133.977C189.03,-122.836 313.043,-104.52 359.33,-97.6835"/>
<polygon fill="midnightblue" stroke="midnightblue" points="112.663,-130.576 103.281,-135.5 113.685,-137.501 112.663,-130.576"/>
</g>
<!-- Node13 -->
<g id="node13" class="node"><title>Node13</title>
<g id="a_node13"><a xlink:href="../../df/d7d/streaming_8cpp.html#a2a1d481379ef2b25f41edd6058b5f15b" target="_top" xlink:title="TEST_F">
<polygon fill="white" stroke="black" points="352,-47.5 352,-66.5 405,-66.5 405,-47.5 352,-47.5"/>
<text text-anchor="middle" x="378.5" y="-54.5" font-family="Helvetica,sans-Serif" font-size="10.00">TEST_F</text>
</a>
</g>
</g>
<!-- Node1&#45;&gt;Node13 -->
<g id="edge18" class="edge"><title>Node1&#45;&gt;Node13</title>
<path fill="none" stroke="midnightblue" d="M80.8257,-129.167C97.4574,-121.482 119.064,-112.242 139,-106 214.638,-82.3193 307.42,-67.0415 351.657,-60.5609"/>
<polygon fill="midnightblue" stroke="midnightblue" points="79.2185,-126.055 71.6583,-133.477 82.1971,-132.389 79.2185,-126.055"/>
</g>
<!-- Node14 -->
<g id="node14" class="node"><title>Node14</title>
<g id="a_node14"><a xlink:href="../../d4/d5e/classGNUPlotPipe.html#a8f126204cc3c4df3f8e69e229285ef0b" target="_top" xlink:title="GNUPlotPipe::writef">
<polygon fill="white" stroke="black" points="159.5,-152.5 159.5,-171.5 265.5,-171.5 265.5,-152.5 159.5,-152.5"/>
<text text-anchor="middle" x="212.5" y="-159.5" font-family="Helvetica,sans-Serif" font-size="10.00">GNUPlotPipe::writef</text>
</a>
</g>
</g>
<!-- Node1&#45;&gt;Node14 -->
<g id="edge19" class="edge"><title>Node1&#45;&gt;Node14</title>
<path fill="none" stroke="midnightblue" d="M113.525,-150.292C128.632,-152.098 144.681,-154.015 159.323,-155.765"/>
<polygon fill="midnightblue" stroke="midnightblue" points="113.59,-146.775 103.246,-149.064 112.76,-153.726 113.59,-146.775"/>
</g>
<!-- Node15 -->
<g id="node15" class="node"><title>Node15</title>
<g id="a_node15"><a xlink:href="../../d4/d5e/classGNUPlotPipe.html#a427e63918f270280fd57060f90bd552e" target="_top" xlink:title="GNUPlotPipe::~GNUPlotPipe">
<polygon fill="white" stroke="black" points="139,-0.5 139,-19.5 286,-19.5 286,-0.5 139,-0.5"/>
<text text-anchor="middle" x="212.5" y="-7.5" font-family="Helvetica,sans-Serif" font-size="10.00">GNUPlotPipe::~GNUPlotPipe</text>
</a>
</g>
</g>
<!-- Node1&#45;&gt;Node15 -->
<g id="edge26" class="edge"><title>Node1&#45;&gt;Node15</title>
<path fill="none" stroke="midnightblue" d="M62.6142,-124.4C76.6784,-100.211 104.363,-58.1998 139,-34 147.912,-27.7733 158.554,-23.0732 168.902,-19.5605"/>
<polygon fill="midnightblue" stroke="midnightblue" points="59.4636,-122.862 57.594,-133.29 65.5589,-126.304 59.4636,-122.862"/>
</g>
<!-- Node3 -->
<g id="node3" class="node"><title>Node3</title>
<g id="a_node3"><a xlink:href="../../d1/dc7/lms7002m__calibrations_8h.html#a69b1e143409bc9a1c0b53f360bf608cf" target="_top" xlink:title="CalibrateRx">
<polygon fill="white" stroke="black" points="471,-152.5 471,-171.5 539,-171.5 539,-152.5 471,-152.5"/>
<text text-anchor="middle" x="505" y="-159.5" font-family="Helvetica,sans-Serif" font-size="10.00">CalibrateRx</text>
</a>
</g>
</g>
<!-- Node2&#45;&gt;Node3 -->
<g id="edge2" class="edge"><title>Node2&#45;&gt;Node3</title>
<path fill="none" stroke="midnightblue" d="M444.154,-171.133C453.422,-169.719 462.62,-168.315 470.922,-167.048"/>
<polygon fill="midnightblue" stroke="midnightblue" points="443.465,-167.698 434.108,-172.666 444.521,-174.618 443.465,-167.698"/>
</g>
<!-- Node8 -->
<g id="node8" class="node"><title>Node8</title>
<g id="a_node8"><a xlink:href="../../d1/dc7/lms7002m__calibrations_8h.html#a208452a11189052c6dcd2fe639e4fcae" target="_top" xlink:title="CalibrateTx">
<polygon fill="white" stroke="black" points="471.5,-209.5 471.5,-228.5 538.5,-228.5 538.5,-209.5 471.5,-209.5"/>
<text text-anchor="middle" x="505" y="-216.5" font-family="Helvetica,sans-Serif" font-size="10.00">CalibrateTx</text>
</a>
</g>
</g>
<!-- Node2&#45;&gt;Node8 -->
<g id="edge8" class="edge"><title>Node2&#45;&gt;Node8</title>
<path fill="none" stroke="midnightblue" d="M420.57,-193.535C437.506,-198.705 456.818,-204.599 472.593,-209.414"/>
<polygon fill="midnightblue" stroke="midnightblue" points="421.503,-190.161 410.917,-190.589 419.459,-196.856 421.503,-190.161"/>
</g>
<!-- Node4 -->
<g id="node4" class="node"><title>Node4</title>
<g id="a_node4"><a xlink:href="../../dd/d0b/mcu__program_2host__src_2main_8cpp.html#a2bb1d2fcd6182ef32aff315f85d13c53" target="_top" xlink:title="DCIQ">
<polygon fill="white" stroke="black" points="582,-190.5 582,-209.5 624,-209.5 624,-190.5 582,-190.5"/>
<text text-anchor="middle" x="603" y="-197.5" font-family="Helvetica,sans-Serif" font-size="10.00">DCIQ</text>
</a>
</g>
</g>
<!-- Node3&#45;&gt;Node4 -->
<g id="edge3" class="edge"><title>Node3&#45;&gt;Node4</title>
<path fill="none" stroke="midnightblue" d="M539.652,-175.321C553.79,-180.917 569.756,-187.237 581.992,-192.08"/>
<polygon fill="midnightblue" stroke="midnightblue" points="540.811,-172.015 530.225,-171.589 538.235,-178.524 540.811,-172.015"/>
</g>
<!-- Node6 -->
<g id="node6" class="node"><title>Node6</title>
<g id="a_node6"><a xlink:href="../../d0/d29/main_8c.html#acdef7a1fd863a6d3770c1268cb06add3" target="_top" xlink:title="main">
<polygon fill="white" stroke="black" points="667,-152.5 667,-171.5 705,-171.5 705,-152.5 667,-152.5"/>
<text text-anchor="middle" x="686" y="-159.5" font-family="Helvetica,sans-Serif" font-size="10.00">main</text>
</a>
</g>
</g>
<!-- Node3&#45;&gt;Node6 -->
<g id="edge5" class="edge"><title>Node3&#45;&gt;Node6</title>
<path fill="none" stroke="midnightblue" d="M549.406,-162C586.934,-162 639.332,-162 666.703,-162"/>
<polygon fill="midnightblue" stroke="midnightblue" points="549.249,-158.5 539.249,-162 549.249,-165.5 549.249,-158.5"/>
</g>
<!-- Node7 -->
<g id="node7" class="node"><title>Node7</title>
<g id="a_node7"><a xlink:href="../../d1/dc7/lms7002m__calibrations_8h.html#adce4a8efb4d0eb17b578b99489f4ef77" target="_top" xlink:title="RunAGC">
<polygon fill="white" stroke="black" points="575,-114.5 575,-133.5 631,-133.5 631,-114.5 575,-114.5"/>
<text text-anchor="middle" x="603" y="-121.5" font-family="Helvetica,sans-Serif" font-size="10.00">RunAGC</text>
</a>
</g>
</g>
<!-- Node3&#45;&gt;Node7 -->
<g id="edge6" class="edge"><title>Node3&#45;&gt;Node7</title>
<path fill="none" stroke="midnightblue" d="M539.882,-148.589C552.389,-143.638 566.301,-138.131 577.783,-133.586"/>
<polygon fill="midnightblue" stroke="midnightblue" points="538.235,-145.476 530.225,-152.411 540.811,-151.985 538.235,-145.476"/>
</g>
<!-- Node5 -->
<g id="node5" class="node"><title>Node5</title>
<g id="a_node5"><a xlink:href="../../dd/d0b/mcu__program_2host__src_2main_8cpp.html#a3c04138a5bfe5d72780bb7e82a18e627" target="_top" xlink:title="main">
<polygon fill="white" stroke="black" points="667,-190.5 667,-209.5 705,-209.5 705,-190.5 667,-190.5"/>
<text text-anchor="middle" x="686" y="-197.5" font-family="Helvetica,sans-Serif" font-size="10.00">main</text>
</a>
</g>
</g>
<!-- Node4&#45;&gt;Node5 -->
<g id="edge4" class="edge"><title>Node4&#45;&gt;Node5</title>
<path fill="none" stroke="midnightblue" d="M634.121,-200C645.126,-200 657.227,-200 666.866,-200"/>
<polygon fill="midnightblue" stroke="midnightblue" points="634.023,-196.5 624.022,-200 634.022,-203.5 634.023,-196.5"/>
</g>
<!-- Node7&#45;&gt;Node6 -->
<g id="edge7" class="edge"><title>Node7&#45;&gt;Node6</title>
<path fill="none" stroke="midnightblue" d="M633.774,-137.968C644.838,-143.158 657.052,-148.889 666.778,-153.451"/>
<polygon fill="midnightblue" stroke="midnightblue" points="634.98,-134.668 624.44,-133.589 632.006,-141.005 634.98,-134.668"/>
</g>
<!-- Node8&#45;&gt;Node4 -->
<g id="edge9" class="edge"><title>Node8&#45;&gt;Node4</title>
<path fill="none" stroke="midnightblue" d="M548.512,-210.586C560.109,-208.291 572.139,-205.91 581.846,-203.989"/>
<polygon fill="midnightblue" stroke="midnightblue" points="547.631,-207.192 538.501,-212.567 548.99,-214.059 547.631,-207.192"/>
</g>
<!-- Node8&#45;&gt;Node6 -->
<g id="edge10" class="edge"><title>Node8&#45;&gt;Node6</title>
<path fill="none" stroke="midnightblue" d="M548.665,-227.154C573.647,-229.975 605.244,-230.079 631,-219 631.092,-218.96 660.482,-187.911 675.859,-171.661"/>
<polygon fill="midnightblue" stroke="midnightblue" points="549.118,-223.684 538.748,-225.855 548.209,-230.624 549.118,-223.684"/>
</g>
<!-- Node9&#45;&gt;Node8 -->
<g id="edge12" class="edge"><title>Node9&#45;&gt;Node8</title>
<path fill="none" stroke="midnightblue" d="M420.57,-244.465C437.506,-239.295 456.818,-233.401 472.593,-228.586"/>
<polygon fill="midnightblue" stroke="midnightblue" points="419.459,-241.144 410.917,-247.411 421.503,-247.839 419.459,-241.144"/>
</g>
<!-- Node10&#45;&gt;Node3 -->
<g id="edge14" class="edge"><title>Node10&#45;&gt;Node3</title>
<path fill="none" stroke="midnightblue" d="M439.885,-152.215C450.491,-153.834 461.168,-155.463 470.685,-156.916"/>
<polygon fill="midnightblue" stroke="midnightblue" points="440.194,-148.722 429.78,-150.673 439.138,-155.642 440.194,-148.722"/>
</g>
<!-- Node11&#45;&gt;Node8 -->
<g id="edge16" class="edge"><title>Node11&#45;&gt;Node8</title>
<path fill="none" stroke="midnightblue" d="M445.324,-219C454.293,-219 463.162,-219 471.185,-219"/>
<polygon fill="midnightblue" stroke="midnightblue" points="445.195,-215.5 435.195,-219 445.195,-222.5 445.195,-215.5"/>
</g>
<!-- Node14&#45;&gt;Node2 -->
<g id="edge22" class="edge"><title>Node14&#45;&gt;Node2</title>
<path fill="none" stroke="midnightblue" d="M275.838,-169.222C291.305,-171.014 307.763,-172.921 322.832,-174.666"/>
<polygon fill="midnightblue" stroke="midnightblue" points="276.178,-165.738 265.842,-168.064 275.372,-172.692 276.178,-165.738"/>
</g>
<!-- Node14&#45;&gt;Node9 -->
<g id="edge21" class="edge"><title>Node14&#45;&gt;Node9</title>
<path fill="none" stroke="midnightblue" d="M232.641,-177.928C253.531,-194.69 288.487,-220.958 322,-238 329.081,-241.601 336.999,-244.771 344.587,-247.439"/>
<polygon fill="midnightblue" stroke="midnightblue" points="234.814,-175.185 224.848,-171.59 230.398,-180.615 234.814,-175.185"/>
</g>
<!-- Node14&#45;&gt;Node10 -->
<g id="edge23" class="edge"><title>Node14&#45;&gt;Node10</title>
<path fill="none" stroke="midnightblue" d="M276.198,-154.736C293.116,-152.776 311.197,-150.681 327.332,-148.812"/>
<polygon fill="midnightblue" stroke="midnightblue" points="275.372,-151.308 265.842,-155.936 276.178,-158.262 275.372,-151.308"/>
</g>
<!-- Node14&#45;&gt;Node11 -->
<g id="edge20" class="edge"><title>Node14&#45;&gt;Node11</title>
<path fill="none" stroke="midnightblue" d="M250.188,-174.921C271.199,-182.303 298.066,-191.712 322,-200 330.95,-203.099 340.722,-206.454 349.537,-209.47"/>
<polygon fill="midnightblue" stroke="midnightblue" points="251.276,-171.594 240.681,-171.579 248.955,-178.198 251.276,-171.594"/>
</g>
<!-- Node14&#45;&gt;Node12 -->
<g id="edge24" class="edge"><title>Node14&#45;&gt;Node12</title>
<path fill="none" stroke="midnightblue" d="M246.474,-148.529C280.353,-134.688 331.875,-113.639 359.12,-102.509"/>
<polygon fill="midnightblue" stroke="midnightblue" points="244.931,-145.378 236.997,-152.401 247.578,-151.859 244.931,-145.378"/>
</g>
<!-- Node14&#45;&gt;Node13 -->
<g id="edge25" class="edge"><title>Node14&#45;&gt;Node13</title>
<path fill="none" stroke="midnightblue" d="M230.633,-145.32C250.965,-126.3 286.59,-95.346 322,-76 331.295,-70.9217 342.197,-66.8338 351.867,-63.7697"/>
<polygon fill="midnightblue" stroke="midnightblue" points="227.978,-143.014 223.14,-152.44 232.8,-148.088 227.978,-143.014"/>
</g>
</g>
</svg>
