<?xml version="1.0" encoding="UTF-8" standalone="no"?>
<!DOCTYPE svg PUBLIC "-//W3C//DTD SVG 1.1//EN"
 "http://www.w3.org/Graphics/SVG/1.1/DTD/svg11.dtd">
<!-- Generated by graphviz version 2.38.0 (20140413.2041)
 -->
<!-- Title: dlgConnectionSettings::OnDisconnect Pages: 1 -->
<svg width="927pt" height="252pt"
 viewBox="0.00 0.00 927.00 251.50" xmlns="http://www.w3.org/2000/svg" xmlns:xlink="http://www.w3.org/1999/xlink">
<g id="graph0" class="graph" transform="scale(1 1) rotate(0) translate(4 247.5)">
<title>dlgConnectionSettings::OnDisconnect</title>
<polygon fill="white" stroke="none" points="-4,4 -4,-247.5 923,-247.5 923,4 -4,4"/>
<!-- Node1 -->
<g id="node1" class="node"><title>Node1</title>
<polygon fill="#bfbfbf" stroke="black" points="0,-101.5 0,-131.5 115,-131.5 115,-101.5 0,-101.5"/>
<text text-anchor="start" x="8" y="-119.5" font-family="Helvetica,sans-Serif" font-size="10.00">dlgConnectionSettings</text>
<text text-anchor="middle" x="57.5" y="-108.5" font-family="Helvetica,sans-Serif" font-size="10.00">::OnDisconnect</text>
</g>
<!-- Node2 -->
<g id="node2" class="node"><title>Node2</title>
<g id="a_node2"><a xlink:href="../../d6/db6/classdlgConnectionSettings.html#a70240fad10aa2566feb0e24212af73e2" target="_top" xlink:title="dlgConnectionSettings\l::GetDeviceList">
<polygon fill="white" stroke="black" points="151,-101.5 151,-131.5 266,-131.5 266,-101.5 151,-101.5"/>
<text text-anchor="start" x="159" y="-119.5" font-family="Helvetica,sans-Serif" font-size="10.00">dlgConnectionSettings</text>
<text text-anchor="middle" x="208.5" y="-108.5" font-family="Helvetica,sans-Serif" font-size="10.00">::GetDeviceList</text>
</a>
</g>
</g>
<!-- Node1&#45;&gt;Node2 -->
<g id="edge1" class="edge"><title>Node1&#45;&gt;Node2</title>
<path fill="none" stroke="midnightblue" d="M115.256,-116.5C123.558,-116.5 132.173,-116.5 140.654,-116.5"/>
<polygon fill="midnightblue" stroke="midnightblue" points="140.902,-120 150.902,-116.5 140.902,-113 140.902,-120"/>
</g>
<!-- Node3 -->
<g id="node3" class="node"><title>Node3</title>
<g id="a_node3"><a xlink:href="../../df/de1/lms7__api_8cpp.html#a3ffae35743c28a5cb809b38d7ae0b31a" target="_top" xlink:title="LMS_GetDeviceList">
<polygon fill="white" stroke="black" points="302,-107 302,-126 406,-126 406,-107 302,-107"/>
<text text-anchor="middle" x="354" y="-114" font-family="Helvetica,sans-Serif" font-size="10.00">LMS_GetDeviceList</text>
</a>
</g>
</g>
<!-- Node2&#45;&gt;Node3 -->
<g id="edge2" class="edge"><title>Node2&#45;&gt;Node3</title>
<path fill="none" stroke="midnightblue" d="M266.215,-116.5C274.569,-116.5 283.208,-116.5 291.651,-116.5"/>
<polygon fill="midnightblue" stroke="midnightblue" points="291.82,-120 301.82,-116.5 291.82,-113 291.82,-120"/>
</g>
<!-- Node4 -->
<g id="node4" class="node"><title>Node4</title>
<g id="a_node4"><a xlink:href="../../df/d74/classlime_1_1ConnectionRegistry.html#acdc063f9df6336a9ea341fa9eddffab3" target="_top" xlink:title="lime::ConnectionRegistry\l::findConnections">
<polygon fill="white" stroke="black" points="442,-101.5 442,-131.5 569,-131.5 569,-101.5 442,-101.5"/>
<text text-anchor="start" x="450" y="-119.5" font-family="Helvetica,sans-Serif" font-size="10.00">lime::ConnectionRegistry</text>
<text text-anchor="middle" x="505.5" y="-108.5" font-family="Helvetica,sans-Serif" font-size="10.00">::findConnections</text>
</a>
</g>
</g>
<!-- Node3&#45;&gt;Node4 -->
<g id="edge3" class="edge"><title>Node3&#45;&gt;Node4</title>
<path fill="none" stroke="midnightblue" d="M406.031,-116.5C414.3,-116.5 423,-116.5 431.666,-116.5"/>
<polygon fill="midnightblue" stroke="midnightblue" points="431.796,-120 441.796,-116.5 431.796,-113 431.796,-120"/>
</g>
<!-- Node5 -->
<g id="node5" class="node"><title>Node5</title>
<g id="a_node5"><a xlink:href="../../d3/d58/ConnectionRegistry_8cpp.html#aa70d3b52e1cb50a0736b9cf791464ee1" target="_top" xlink:title="__loadAllConnections">
<polygon fill="white" stroke="black" points="605,-126 605,-145 716,-145 716,-126 605,-126"/>
<text text-anchor="middle" x="660.5" y="-133" font-family="Helvetica,sans-Serif" font-size="10.00">__loadAllConnections</text>
</a>
</g>
</g>
<!-- Node4&#45;&gt;Node5 -->
<g id="edge4" class="edge"><title>Node4&#45;&gt;Node5</title>
<path fill="none" stroke="midnightblue" d="M569.172,-124.283C577.504,-125.317 586.061,-126.38 594.432,-127.42"/>
<polygon fill="midnightblue" stroke="midnightblue" points="594.167,-130.914 604.522,-128.673 595.029,-123.967 594.167,-130.914"/>
</g>
<!-- Node12 -->
<g id="node12" class="node"><title>Node12</title>
<g id="a_node12"><a xlink:href="../../d3/d58/ConnectionRegistry_8cpp.html#a7b6ff8fe9f005ea107c52866c40462fc" target="_top" xlink:title="registryMutex">
<polygon fill="white" stroke="black" points="622.5,-88 622.5,-107 698.5,-107 698.5,-88 622.5,-88"/>
<text text-anchor="middle" x="660.5" y="-95" font-family="Helvetica,sans-Serif" font-size="10.00">registryMutex</text>
</a>
</g>
</g>
<!-- Node4&#45;&gt;Node12 -->
<g id="edge11" class="edge"><title>Node4&#45;&gt;Node12</title>
<path fill="none" stroke="midnightblue" d="M569.172,-108.717C583.509,-106.937 598.515,-105.073 612.086,-103.388"/>
<polygon fill="midnightblue" stroke="midnightblue" points="612.658,-106.844 622.15,-102.138 611.795,-99.8974 612.658,-106.844"/>
</g>
<!-- Node6 -->
<g id="node6" class="node"><title>Node6</title>
<g id="a_node6"><a xlink:href="../../d6/d7b/BuiltinConnections_8in_8cpp.html#aafab0a44fc1f7320af30da07cb979574" target="_top" xlink:title="make a static&#45;initialized entry in the registry ">
<polygon fill="white" stroke="black" points="752,-224 752,-243 919,-243 919,-224 752,-224"/>
<text text-anchor="middle" x="835.5" y="-231" font-family="Helvetica,sans-Serif" font-size="10.00">__loadConnectionEVB7COMEntry</text>
</a>
</g>
</g>
<!-- Node5&#45;&gt;Node6 -->
<g id="edge5" class="edge"><title>Node5&#45;&gt;Node6</title>
<path fill="none" stroke="midnightblue" d="M669.638,-145.218C684.295,-162.059 716.892,-196.578 752,-214.5 756.627,-216.862 761.549,-218.934 766.596,-220.751"/>
<polygon fill="midnightblue" stroke="midnightblue" points="765.819,-224.179 776.411,-223.94 767.982,-217.521 765.819,-224.179"/>
</g>
<!-- Node7 -->
<g id="node7" class="node"><title>Node7</title>
<g id="a_node7"><a xlink:href="../../d6/d7b/BuiltinConnections_8in_8cpp.html#abbfa4cb1eee49942395e8844101b99e1" target="_top" xlink:title="make a static&#45;initialized entry in the registry ">
<polygon fill="white" stroke="black" points="762.5,-186 762.5,-205 908.5,-205 908.5,-186 762.5,-186"/>
<text text-anchor="middle" x="835.5" y="-193" font-family="Helvetica,sans-Serif" font-size="10.00">__loadConnectionFT601Entry</text>
</a>
</g>
</g>
<!-- Node5&#45;&gt;Node7 -->
<g id="edge6" class="edge"><title>Node5&#45;&gt;Node7</title>
<path fill="none" stroke="midnightblue" d="M679.782,-145.089C697.759,-154.202 726.181,-167.775 752,-176.5 759.622,-179.076 767.757,-181.419 775.837,-183.511"/>
<polygon fill="midnightblue" stroke="midnightblue" points="775.079,-186.929 785.627,-185.937 776.763,-180.134 775.079,-186.929"/>
</g>
<!-- Node8 -->
<g id="node8" class="node"><title>Node8</title>
<g id="a_node8"><a xlink:href="../../d6/d7b/BuiltinConnections_8in_8cpp.html#a52c35dd464a2d8bd7fad6625cf30265c" target="_top" xlink:title="make a static&#45;initialized entry in the registry ">
<polygon fill="white" stroke="black" points="767.5,-148 767.5,-167 903.5,-167 903.5,-148 767.5,-148"/>
<text text-anchor="middle" x="835.5" y="-155" font-family="Helvetica,sans-Serif" font-size="10.00">__loadConnectionFX3Entry</text>
</a>
</g>
</g>
<!-- Node5&#45;&gt;Node8 -->
<g id="edge7" class="edge"><title>Node5&#45;&gt;Node8</title>
<path fill="none" stroke="midnightblue" d="M716.238,-142.461C729.302,-144.122 743.488,-145.926 757.35,-147.689"/>
<polygon fill="midnightblue" stroke="midnightblue" points="757.004,-151.173 767.366,-148.963 757.888,-144.229 757.004,-151.173"/>
</g>
<!-- Node9 -->
<g id="node9" class="node"><title>Node9</title>
<g id="a_node9"><a xlink:href="../../d6/d7b/BuiltinConnections_8in_8cpp.html#a4029c016de66cd0c9aa695c4212f0029" target="_top" xlink:title="make a static&#45;initialized entry in the registry ">
<polygon fill="white" stroke="black" points="762,-98.5 762,-128.5 909,-128.5 909,-98.5 762,-98.5"/>
<text text-anchor="start" x="770" y="-116.5" font-family="Helvetica,sans-Serif" font-size="10.00">__loadConnectionNovenaRF7</text>
<text text-anchor="middle" x="835.5" y="-105.5" font-family="Helvetica,sans-Serif" font-size="10.00">Entry</text>
</a>
</g>
</g>
<!-- Node5&#45;&gt;Node9 -->
<g id="edge8" class="edge"><title>Node5&#45;&gt;Node9</title>
<path fill="none" stroke="midnightblue" d="M716.238,-128.539C727.529,-127.103 739.659,-125.561 751.693,-124.03"/>
<polygon fill="midnightblue" stroke="midnightblue" points="752.281,-127.484 761.759,-122.75 751.397,-120.54 752.281,-127.484"/>
</g>
<!-- Node10 -->
<g id="node10" class="node"><title>Node10</title>
<g id="a_node10"><a xlink:href="../../d6/d7b/BuiltinConnections_8in_8cpp.html#a86c8aaa38f814e66a6501109b0419128" target="_top" xlink:title="make a static&#45;initialized entry in the registry ">
<polygon fill="white" stroke="black" points="767,-49.5 767,-79.5 904,-79.5 904,-49.5 767,-49.5"/>
<text text-anchor="start" x="775" y="-67.5" font-family="Helvetica,sans-Serif" font-size="10.00">__loadConnectionSTREAM</text>
<text text-anchor="middle" x="835.5" y="-56.5" font-family="Helvetica,sans-Serif" font-size="10.00">_UNITEEntry</text>
</a>
</g>
</g>
<!-- Node5&#45;&gt;Node10 -->
<g id="edge9" class="edge"><title>Node5&#45;&gt;Node10</title>
<path fill="none" stroke="midnightblue" d="M694.186,-125.943C701.547,-123.292 709.19,-120.128 716,-116.5 733.652,-107.097 734.158,-98.5375 752,-89.5 756.475,-87.2334 761.192,-85.1318 766.011,-83.1908"/>
<polygon fill="midnightblue" stroke="midnightblue" points="767.251,-86.4639 775.368,-79.655 764.776,-79.9158 767.251,-86.4639"/>
</g>
<!-- Node11 -->
<g id="node11" class="node"><title>Node11</title>
<g id="a_node11"><a xlink:href="../../d6/d7b/BuiltinConnections_8in_8cpp.html#af9ac641bc1febe4c158ee95b289bb04c" target="_top" xlink:title="make a static&#45;initialized entry in the registry ">
<polygon fill="white" stroke="black" points="771,-0.5 771,-30.5 900,-30.5 900,-0.5 771,-0.5"/>
<text text-anchor="start" x="779" y="-18.5" font-family="Helvetica,sans-Serif" font-size="10.00">__loadConnectionXillybus</text>
<text text-anchor="middle" x="835.5" y="-7.5" font-family="Helvetica,sans-Serif" font-size="10.00">Entry</text>
</a>
</g>
</g>
<!-- Node5&#45;&gt;Node11 -->
<g id="edge10" class="edge"><title>Node5&#45;&gt;Node11</title>
<path fill="none" stroke="midnightblue" d="M701.116,-125.954C706.515,-123.483 711.677,-120.384 716,-116.5 743.803,-91.5215 723.688,-64.9003 752,-40.5 755.038,-37.8818 758.344,-35.5378 761.828,-33.4393"/>
<polygon fill="midnightblue" stroke="midnightblue" points="763.588,-36.4681 770.806,-28.7123 760.327,-30.2741 763.588,-36.4681"/>
</g>
</g>
</svg>
