<?xml version="1.0" encoding="UTF-8" standalone="no"?>
<!DOCTYPE svg PUBLIC "-//W3C//DTD SVG 1.1//EN"
 "http://www.w3.org/Graphics/SVG/1.1/DTD/svg11.dtd">
<!-- Generated by graphviz version 2.38.0 (20140413.2041)
 -->
<!-- Title: /home/erik/prefix/default/src/limesuite&#45;dev/SoapyLMS7/SoapyLMS7.h Pages: 1 -->
<svg width="494pt" height="128pt"
 viewBox="0.00 0.00 494.00 128.00" xmlns="http://www.w3.org/2000/svg" xmlns:xlink="http://www.w3.org/1999/xlink">
<g id="graph0" class="graph" transform="scale(1 1) rotate(0) translate(4 124)">
<title>/home/erik/prefix/default/src/limesuite&#45;dev/SoapyLMS7/SoapyLMS7.h</title>
<polygon fill="white" stroke="none" points="-4,4 -4,-124 490,-124 490,4 -4,4"/>
<!-- Node1 -->
<g id="node1" class="node"><title>Node1</title>
<polygon fill="#bfbfbf" stroke="black" points="168,-78.5 168,-119.5 318,-119.5 318,-78.5 168,-78.5"/>
<text text-anchor="start" x="176" y="-107.5" font-family="Helvetica,sans-Serif" font-size="10.00">/home/erik/prefix/default</text>
<text text-anchor="start" x="176" y="-96.5" font-family="Helvetica,sans-Serif" font-size="10.00">/src/limesuite&#45;dev/SoapyLMS7</text>
<text text-anchor="middle" x="243" y="-85.5" font-family="Helvetica,sans-Serif" font-size="10.00">/SoapyLMS7.h</text>
</g>
<!-- Node2 -->
<g id="node2" class="node"><title>Node2</title>
<g id="a_node2"><a xlink:href="../../da/dc9/Registration_8cpp.html" target="_top" xlink:title="Soapy SDR + IConnection module registration. ">
<polygon fill="white" stroke="black" points="0,-0.5 0,-41.5 150,-41.5 150,-0.5 0,-0.5"/>
<text text-anchor="start" x="8" y="-29.5" font-family="Helvetica,sans-Serif" font-size="10.00">/home/erik/prefix/default</text>
<text text-anchor="start" x="8" y="-18.5" font-family="Helvetica,sans-Serif" font-size="10.00">/src/limesuite&#45;dev/SoapyLMS7</text>
<text text-anchor="middle" x="75" y="-7.5" font-family="Helvetica,sans-Serif" font-size="10.00">/Registration.cpp</text>
</a>
</g>
</g>
<!-- Node1&#45;&gt;Node2 -->
<g id="edge1" class="edge"><title>Node1&#45;&gt;Node2</title>
<path fill="none" stroke="midnightblue" d="M190.365,-74.189C167.124,-63.6749 140.141,-51.4687 118.118,-41.5056"/>
<polygon fill="midnightblue" stroke="midnightblue" points="189.182,-77.4953 199.736,-78.4281 192.067,-71.1175 189.182,-77.4953"/>
</g>
<!-- Node3 -->
<g id="node3" class="node"><title>Node3</title>
<g id="a_node3"><a xlink:href="../../db/dd8/Settings_8cpp.html" target="_top" xlink:title="Soapy SDR + IConnection config settings. ">
<polygon fill="white" stroke="black" points="168,-0.5 168,-41.5 318,-41.5 318,-0.5 168,-0.5"/>
<text text-anchor="start" x="176" y="-29.5" font-family="Helvetica,sans-Serif" font-size="10.00">/home/erik/prefix/default</text>
<text text-anchor="start" x="176" y="-18.5" font-family="Helvetica,sans-Serif" font-size="10.00">/src/limesuite&#45;dev/SoapyLMS7</text>
<text text-anchor="middle" x="243" y="-7.5" font-family="Helvetica,sans-Serif" font-size="10.00">/Settings.cpp</text>
</a>
</g>
</g>
<!-- Node1&#45;&gt;Node3 -->
<g id="edge2" class="edge"><title>Node1&#45;&gt;Node3</title>
<path fill="none" stroke="midnightblue" d="M243,-68.2965C243,-59.3009 243,-49.6532 243,-41.5056"/>
<polygon fill="midnightblue" stroke="midnightblue" points="239.5,-68.4281 243,-78.4281 246.5,-68.4281 239.5,-68.4281"/>
</g>
<!-- Node4 -->
<g id="node4" class="node"><title>Node4</title>
<g id="a_node4"><a xlink:href="../../d6/d1b/Streaming_8cpp.html" target="_top" xlink:title="Soapy SDR + IConnection streaming interfaces. ">
<polygon fill="white" stroke="black" points="336,-0.5 336,-41.5 486,-41.5 486,-0.5 336,-0.5"/>
<text text-anchor="start" x="344" y="-29.5" font-family="Helvetica,sans-Serif" font-size="10.00">/home/erik/prefix/default</text>
<text text-anchor="start" x="344" y="-18.5" font-family="Helvetica,sans-Serif" font-size="10.00">/src/limesuite&#45;dev/SoapyLMS7</text>
<text text-anchor="middle" x="411" y="-7.5" font-family="Helvetica,sans-Serif" font-size="10.00">/Streaming.cpp</text>
</a>
</g>
</g>
<!-- Node1&#45;&gt;Node4 -->
<g id="edge3" class="edge"><title>Node1&#45;&gt;Node4</title>
<path fill="none" stroke="midnightblue" d="M295.635,-74.189C318.876,-63.6749 345.859,-51.4687 367.882,-41.5056"/>
<polygon fill="midnightblue" stroke="midnightblue" points="293.933,-71.1175 286.264,-78.4281 296.818,-77.4953 293.933,-71.1175"/>
</g>
</g>
</svg>
