<?xml version="1.0" encoding="UTF-8" standalone="no"?>
<!DOCTYPE svg PUBLIC "-//W3C//DTD SVG 1.1//EN"
 "http://www.w3.org/Graphics/SVG/1.1/DTD/svg11.dtd">
<!-- Generated by graphviz version 2.38.0 (20140413.2041)
 -->
<!-- Title: FreeResources Pages: 1 -->
<svg width="247pt" height="78pt"
 viewBox="0.00 0.00 247.00 77.50" xmlns="http://www.w3.org/2000/svg" xmlns:xlink="http://www.w3.org/1999/xlink">
<g id="graph0" class="graph" transform="scale(1 1) rotate(0) translate(4 73.5)">
<title>FreeResources</title>
<polygon fill="white" stroke="none" points="-4,4 -4,-73.5 243,-73.5 243,4 -4,4"/>
<!-- Node1 -->
<g id="node1" class="node"><title>Node1</title>
<polygon fill="#bfbfbf" stroke="black" points="0,-28 0,-47 83,-47 83,-28 0,-28"/>
<text text-anchor="middle" x="41.5" y="-35" font-family="Helvetica,sans-Serif" font-size="10.00">FreeResources</text>
</g>
<!-- Node2 -->
<g id="node2" class="node"><title>Node2</title>
<g id="a_node2"><a xlink:href="../../db/d92/LimeSuite_8cc.html#a8264622f1c2c5bfc25727870d85ee938" target="_top" xlink:title="DEFUN_DLD">
<polygon fill="white" stroke="black" points="140.5,-50 140.5,-69 217.5,-69 217.5,-50 140.5,-50"/>
<text text-anchor="middle" x="179" y="-57" font-family="Helvetica,sans-Serif" font-size="10.00">DEFUN_DLD</text>
</a>
</g>
</g>
<!-- Node1&#45;&gt;Node2 -->
<g id="edge1" class="edge"><title>Node1&#45;&gt;Node2</title>
<path fill="none" stroke="midnightblue" d="M93.1645,-45.726C108.737,-48.2543 125.598,-50.9919 140.154,-53.3553"/>
<polygon fill="midnightblue" stroke="midnightblue" points="93.5862,-42.2487 83.1545,-44.1007 92.4643,-49.1582 93.5862,-42.2487"/>
</g>
<!-- Node3 -->
<g id="node3" class="node"><title>Node3</title>
<g id="a_node3"><a xlink:href="../../d6/d8b/classResourceDeallocator.html#abd5270f9c3ae0e00ad42437e6b7f3bbe" target="_top" xlink:title="ResourceDeallocator\l::~ResourceDeallocator">
<polygon fill="white" stroke="black" points="119,-0.5 119,-30.5 239,-30.5 239,-0.5 119,-0.5"/>
<text text-anchor="start" x="127" y="-18.5" font-family="Helvetica,sans-Serif" font-size="10.00">ResourceDeallocator</text>
<text text-anchor="middle" x="179" y="-7.5" font-family="Helvetica,sans-Serif" font-size="10.00">::~ResourceDeallocator</text>
</a>
</g>
</g>
<!-- Node1&#45;&gt;Node3 -->
<g id="edge2" class="edge"><title>Node1&#45;&gt;Node3</title>
<path fill="none" stroke="midnightblue" d="M93.1492,-29.2765C101.526,-27.9165 110.275,-26.4959 118.839,-25.1055"/>
<polygon fill="midnightblue" stroke="midnightblue" points="92.4643,-25.8418 83.1545,-30.8993 93.5862,-32.7513 92.4643,-25.8418"/>
</g>
</g>
</svg>
