<?xml version="1.0" encoding="UTF-8" standalone="no"?>
<!DOCTYPE svg PUBLIC "-//W3C//DTD SVG 1.1//EN"
 "http://www.w3.org/Graphics/SVG/1.1/DTD/svg11.dtd">
<!-- Generated by graphviz version 2.38.0 (20140413.2041)
 -->
<!-- Title: lms7002_pnlMCU_BD_view::OnbtnStartProgrammingClick Pages: 1 -->
<!--zoomable 651 -->
<svg id="main" version="1.1" xmlns="http://www.w3.org/2000/svg" xmlns:xlink="http://www.w3.org/1999/xlink" xml:space="preserve" onload="init(evt)">
<style type="text/css"><![CDATA[
.edge:hover path { stroke: red; }
.edge:hover polygon { stroke: red; fill: red; }
]]></style>
<script type="text/javascript"><![CDATA[
var edges = document.getElementsByTagName('g');
if (edges && edges.length) {
  for (var i=0;i<edges.length;i++) {
    if (edges[i].id.substr(0,4)=='edge') {
      edges[i].setAttribute('class','edge');
    }
  }
}
]]></script>
        <defs>
                <circle id="rim" cx="0" cy="0" r="7"/>
                <circle id="rim2" cx="0" cy="0" r="3.5"/>
                <g id="zoomPlus">
                        <use xlink:href="#rim" fill="#404040">
                                <set attributeName="fill" to="#808080" begin="zoomplus.mouseover" end="zoomplus.mouseout"/>
                        </use>
                        <path d="M-4,0h8M0,-4v8" fill="none" stroke="white" stroke-width="1.5" pointer-events="none"/>
                </g>
                <g id="zoomMin">
                        <use xlink:href="#rim" fill="#404040">
                                <set attributeName="fill" to="#808080" begin="zoomminus.mouseover" end="zoomminus.mouseout"/>
                        </use>
                        <path d="M-4,0h8" fill="none" stroke="white" stroke-width="1.5" pointer-events="none"/>
                </g>
                <g id="dirArrow">
                        <path fill="none" stroke="white" stroke-width="1.5" d="M0,-3.0v7 M-2.5,-0.5L0,-3.0L2.5,-0.5"/>
                </g>
               <g id="resetDef">
                       <use xlink:href="#rim2" fill="#404040">
                               <set attributeName="fill" to="#808080" begin="reset.mouseover" end="reset.mouseout"/>
                       </use>
               </g>
        </defs>

<script type="text/javascript">
var viewWidth = 1014;
var viewHeight = 651;
var sectionId = 'dynsection-14';
</script>
<script xlink:href="../../svgpan.js"/>
<svg id="graph" class="graph">
<g id="viewport">
<title>lms7002_pnlMCU_BD_view::OnbtnStartProgrammingClick</title>
<polygon fill="white" stroke="none" points="-4,4 -4,-646.5 1010,-646.5 1010,4 -4,4"/>
<!-- Node1 -->
<g id="node1" class="node"><title>Node1</title>
<polygon fill="#bfbfbf" stroke="black" points="0,-93.5 0,-123.5 150,-123.5 150,-93.5 0,-93.5"/>
<text text-anchor="start" x="8" y="-111.5" font-family="Helvetica,sans-Serif" font-size="10.00">lms7002_pnlMCU_BD_view</text>
<text text-anchor="middle" x="75" y="-100.5" font-family="Helvetica,sans-Serif" font-size="10.00">::OnbtnStartProgrammingClick</text>
</g>
<!-- Node2 -->
<g id="node2" class="node"><title>Node2</title>
<g id="a_node2"><a xlink:href="../../df/d89/src_2ConnectionFTDI_2CMakeLists_8txt.html#a04b3dc66761d0e4ead50ae6bb0c17760" target="_top" xlink:title="if">
<polygon fill="white" stroke="black" points="241.5,-175 241.5,-194 270.5,-194 270.5,-175 241.5,-175"/>
<text text-anchor="middle" x="256" y="-182" font-family="Helvetica,sans-Serif" font-size="10.00">if</text>
</a>
</g>
</g>
<!-- Node1&#45;&gt;Node2 -->
<g id="edge1" class="edge"><title>Node1&#45;&gt;Node2</title>
<path fill="none" stroke="midnightblue" d="M101.509,-123.671C123.357,-136.184 155.96,-153.731 186,-165.5 200.697,-171.258 217.799,-175.98 231.3,-179.277"/>
<polygon fill="midnightblue" stroke="midnightblue" points="230.706,-182.732 241.241,-181.607 232.304,-175.917 230.706,-182.732"/>
</g>
<!-- Node3 -->
<g id="node3" class="node"><title>Node3</title>
<g id="a_node3"><a xlink:href="../../df/de1/lms7__api_8cpp.html#a1f9be91569904f87e02b61153f8f24c3" target="_top" xlink:title="LMS_Program">
<polygon fill="white" stroke="black" points="216.5,-137 216.5,-156 295.5,-156 295.5,-137 216.5,-137"/>
<text text-anchor="middle" x="256" y="-144" font-family="Helvetica,sans-Serif" font-size="10.00">LMS_Program</text>
</a>
</g>
</g>
<!-- Node1&#45;&gt;Node3 -->
<g id="edge2" class="edge"><title>Node1&#45;&gt;Node3</title>
<path fill="none" stroke="midnightblue" d="M146.746,-123.519C166.782,-127.772 188.131,-132.304 206.528,-136.21"/>
<polygon fill="midnightblue" stroke="midnightblue" points="205.909,-139.656 216.418,-138.309 207.363,-132.809 205.909,-139.656"/>
</g>
<!-- Node30 -->
<g id="node30" class="node"><title>Node30</title>
<g id="a_node30"><a xlink:href="../../d8/d95/classlms7002__pnlMCU__BD__view.html#aa25e6467e3e86fe42ead012d8d698b89" target="_top" xlink:title="lms7002_pnlMCU_BD_view\l::OnProgramingStatusUpdate">
<polygon fill="white" stroke="black" points="362,-0.5 362,-30.5 507,-30.5 507,-0.5 362,-0.5"/>
<text text-anchor="start" x="370" y="-18.5" font-family="Helvetica,sans-Serif" font-size="10.00">lms7002_pnlMCU_BD_view</text>
<text text-anchor="middle" x="434.5" y="-7.5" font-family="Helvetica,sans-Serif" font-size="10.00">::OnProgramingStatusUpdate</text>
</a>
</g>
</g>
<!-- Node1&#45;&gt;Node30 -->
<g id="edge36" class="edge"><title>Node1&#45;&gt;Node30</title>
<path fill="none" stroke="midnightblue" d="M150.113,-117.134C202.15,-119.835 271.841,-116.476 326,-88.5 348.145,-77.0611 341.942,-60.2952 362,-45.5 367.19,-41.6719 372.941,-38.226 378.862,-35.1533"/>
<polygon fill="midnightblue" stroke="midnightblue" points="380.76,-38.1241 388.25,-30.6305 377.722,-31.8178 380.76,-38.1241"/>
</g>
<!-- Node31 -->
<g id="node31" class="node"><title>Node31</title>
<g id="a_node31"><a xlink:href="../../d8/d95/classlms7002__pnlMCU__BD__view.html#aff4c57246853ef6aeaa258e3c6a2b403" target="_top" xlink:title="lms7002_pnlMCU_BD_view\l::OnProgrammingCallback">
<polygon fill="white" stroke="black" points="186,-49.5 186,-79.5 326,-79.5 326,-49.5 186,-49.5"/>
<text text-anchor="start" x="194" y="-67.5" font-family="Helvetica,sans-Serif" font-size="10.00">lms7002_pnlMCU_BD_view</text>
<text text-anchor="middle" x="256" y="-56.5" font-family="Helvetica,sans-Serif" font-size="10.00">::OnProgrammingCallback</text>
</a>
</g>
</g>
<!-- Node1&#45;&gt;Node31 -->
<g id="edge37" class="edge"><title>Node1&#45;&gt;Node31</title>
<path fill="none" stroke="midnightblue" d="M137.101,-93.4808C152.139,-89.7844 168.369,-85.7947 183.837,-81.9926"/>
<polygon fill="midnightblue" stroke="midnightblue" points="184.995,-85.3121 193.871,-79.5262 183.324,-78.5145 184.995,-85.3121"/>
</g>
<!-- Node32 -->
<g id="node32" class="node"><title>Node32</title>
<g id="a_node32"><a xlink:href="../../d8/d95/classlms7002__pnlMCU__BD__view.html#a683ab2b75a31bbf1762b954ec94136dc" target="_top" xlink:title="lms7002_pnlMCU_BD_view\l::OnProgrammingfinished">
<polygon fill="white" stroke="black" points="186,-0.5 186,-30.5 326,-30.5 326,-0.5 186,-0.5"/>
<text text-anchor="start" x="194" y="-18.5" font-family="Helvetica,sans-Serif" font-size="10.00">lms7002_pnlMCU_BD_view</text>
<text text-anchor="middle" x="256" y="-7.5" font-family="Helvetica,sans-Serif" font-size="10.00">::OnProgrammingfinished</text>
</a>
</g>
</g>
<!-- Node1&#45;&gt;Node32 -->
<g id="edge38" class="edge"><title>Node1&#45;&gt;Node32</title>
<path fill="none" stroke="midnightblue" d="M97.0862,-93.2523C118.643,-78.1585 153.482,-55.1072 186,-39.5 189.795,-37.6787 193.765,-35.9262 197.802,-34.2554"/>
<polygon fill="midnightblue" stroke="midnightblue" points="199.273,-37.4375 207.291,-30.511 196.704,-30.9262 199.273,-37.4375"/>
</g>
<!-- Node4 -->
<g id="node4" class="node"><title>Node4</title>
<g id="a_node4"><a xlink:href="../../d4/d67/lms_8c.html#a0e01e477b1f10e0a63e54de2dd2f8240" target="_top" xlink:title="lms">
<polygon fill="white" stroke="black" points="604.5,-338 604.5,-357 636.5,-357 636.5,-338 604.5,-338"/>
<text text-anchor="middle" x="620.5" y="-345" font-family="Helvetica,sans-Serif" font-size="10.00">lms</text>
</a>
</g>
</g>
<!-- Node3&#45;&gt;Node4 -->
<g id="edge3" class="edge"><title>Node3&#45;&gt;Node4</title>
<path fill="none" stroke="midnightblue" d="M295.539,-154.38C305.726,-157.191 316.518,-160.848 326,-165.5 343.956,-174.309 345.411,-181.328 362,-192.5 445.438,-248.69 549.24,-308.153 595.415,-334.093"/>
<polygon fill="midnightblue" stroke="midnightblue" points="593.93,-337.273 604.365,-339.107 597.351,-331.166 593.93,-337.273"/>
</g>
<!-- Node24 -->
<g id="node24" class="node"><title>Node24</title>
<g id="a_node24"><a xlink:href="../../d3/d22/classlime_1_1LMS7__Device.html#ae5b3dcdfed80de7f5969fccc36b9c88b" target="_top" xlink:title="lime::LMS7_Device::\lProgram">
<polygon fill="white" stroke="black" points="380.5,-153.5 380.5,-183.5 488.5,-183.5 488.5,-153.5 380.5,-153.5"/>
<text text-anchor="start" x="388.5" y="-171.5" font-family="Helvetica,sans-Serif" font-size="10.00">lime::LMS7_Device::</text>
<text text-anchor="middle" x="434.5" y="-160.5" font-family="Helvetica,sans-Serif" font-size="10.00">Program</text>
</a>
</g>
</g>
<!-- Node3&#45;&gt;Node24 -->
<g id="edge26" class="edge"><title>Node3&#45;&gt;Node24</title>
<path fill="none" stroke="midnightblue" d="M295.734,-151.328C317.585,-154.052 345.424,-157.522 370.35,-160.629"/>
<polygon fill="midnightblue" stroke="midnightblue" points="370.107,-164.125 380.463,-161.889 370.973,-157.179 370.107,-164.125"/>
</g>
<!-- Node25 -->
<g id="node25" class="node"><title>Node25</title>
<g id="a_node25"><a xlink:href="../../d5/d6c/namespacelime.html#adc6af0cf8e0a70f3ef09fac1244f8c48" target="_top" xlink:title="lime::ReportError">
<polygon fill="white" stroke="black" points="734,-91 734,-110 825,-110 825,-91 734,-91"/>
<text text-anchor="middle" x="779.5" y="-98" font-family="Helvetica,sans-Serif" font-size="10.00">lime::ReportError</text>
</a>
</g>
</g>
<!-- Node3&#45;&gt;Node25 -->
<g id="edge35" class="edge"><title>Node3&#45;&gt;Node25</title>
<path fill="none" stroke="midnightblue" d="M283.793,-136.964C352.495,-113.69 540.603,-57.3796 698,-78.5 712.189,-80.404 727.418,-84.1158 740.77,-87.9562"/>
<polygon fill="midnightblue" stroke="midnightblue" points="739.982,-91.3739 750.566,-90.8903 741.991,-84.6682 739.982,-91.3739"/>
</g>
<!-- Node5 -->
<g id="node5" class="node"><title>Node5</title>
<g id="a_node5"><a xlink:href="../../d4/d67/lms_8c.html#a433227191fe883dcb8aa15d291bb29a1" target="_top" xlink:title="Case1F">
<polygon fill="white" stroke="black" points="754,-623 754,-642 805,-642 805,-623 754,-623"/>
<text text-anchor="middle" x="779.5" y="-630" font-family="Helvetica,sans-Serif" font-size="10.00">Case1F</text>
</a>
</g>
</g>
<!-- Node4&#45;&gt;Node5 -->
<g id="edge4" class="edge"><title>Node4&#45;&gt;Node5</title>
<path fill="none" stroke="midnightblue" d="M622.929,-357.166C629.016,-395.077 656.132,-535.366 734,-613.5 737.069,-616.579 740.715,-619.19 744.58,-621.396"/>
<polygon fill="midnightblue" stroke="midnightblue" points="743.298,-624.663 753.828,-625.838 746.329,-618.353 743.298,-624.663"/>
</g>
<!-- Node6 -->
<g id="node6" class="node"><title>Node6</title>
<g id="a_node6"><a xlink:href="../../d4/d67/lms_8c.html#ace0cd8bf61cb9b86b98f0cef03b5a9d9" target="_top" xlink:title="Case2F">
<polygon fill="white" stroke="black" points="754,-585 754,-604 805,-604 805,-585 754,-585"/>
<text text-anchor="middle" x="779.5" y="-592" font-family="Helvetica,sans-Serif" font-size="10.00">Case2F</text>
</a>
</g>
</g>
<!-- Node4&#45;&gt;Node6 -->
<g id="edge5" class="edge"><title>Node4&#45;&gt;Node6</title>
<path fill="none" stroke="midnightblue" d="M623.694,-357.178C631.972,-391.615 664.44,-509.653 734,-575.5 737.088,-578.424 740.696,-580.934 744.496,-583.08"/>
<polygon fill="midnightblue" stroke="midnightblue" points="743.031,-586.259 753.559,-587.45 746.071,-579.954 743.031,-586.259"/>
</g>
<!-- Node7 -->
<g id="node7" class="node"><title>Node7</title>
<g id="a_node7"><a xlink:href="../../d4/d67/lms_8c.html#a5f53b53ccc591e3643c4af2aee2e7f32" target="_top" xlink:title="Case3F">
<polygon fill="white" stroke="black" points="754,-547 754,-566 805,-566 805,-547 754,-547"/>
<text text-anchor="middle" x="779.5" y="-554" font-family="Helvetica,sans-Serif" font-size="10.00">Case3F</text>
</a>
</g>
</g>
<!-- Node4&#45;&gt;Node7 -->
<g id="edge6" class="edge"><title>Node4&#45;&gt;Node7</title>
<path fill="none" stroke="midnightblue" d="M624.759,-357.224C635.494,-387.883 672.606,-483.667 734,-537.5 737.198,-540.304 740.871,-542.742 744.706,-544.849"/>
<polygon fill="midnightblue" stroke="midnightblue" points="743.27,-548.041 753.804,-549.181 746.28,-541.721 743.27,-548.041"/>
</g>
<!-- Node8 -->
<g id="node8" class="node"><title>Node8</title>
<g id="a_node8"><a xlink:href="../../d4/d67/lms_8c.html#a5086763d5b258349bc13d6be7e7d0665" target="_top" xlink:title="Case4F">
<polygon fill="white" stroke="black" points="754,-509 754,-528 805,-528 805,-509 754,-509"/>
<text text-anchor="middle" x="779.5" y="-516" font-family="Helvetica,sans-Serif" font-size="10.00">Case4F</text>
</a>
</g>
</g>
<!-- Node4&#45;&gt;Node8 -->
<g id="edge7" class="edge"><title>Node4&#45;&gt;Node8</title>
<path fill="none" stroke="midnightblue" d="M626.231,-357.063C639.638,-383.283 680.415,-457.17 734,-499.5 737.172,-502.006 740.725,-504.241 744.402,-506.219"/>
<polygon fill="midnightblue" stroke="midnightblue" points="743.12,-509.485 753.654,-510.612 746.122,-503.161 743.12,-509.485"/>
</g>
<!-- Node9 -->
<g id="node9" class="node"><title>Node9</title>
<g id="a_node9"><a xlink:href="../../db/de5/recipes_8c.html#aee25e218394217a134e805ea09fb0fe9" target="_top" xlink:title="free_ivector">
<polygon fill="white" stroke="black" points="745.5,-471 745.5,-490 813.5,-490 813.5,-471 745.5,-471"/>
<text text-anchor="middle" x="779.5" y="-478" font-family="Helvetica,sans-Serif" font-size="10.00">free_ivector</text>
</a>
</g>
</g>
<!-- Node4&#45;&gt;Node9 -->
<g id="edge8" class="edge"><title>Node4&#45;&gt;Node9</title>
<path fill="none" stroke="midnightblue" d="M628.946,-357.306C645.652,-378.746 688.261,-430.358 734,-461.5 736.556,-463.24 739.297,-464.873 742.117,-466.393"/>
<polygon fill="midnightblue" stroke="midnightblue" points="740.742,-469.617 751.264,-470.859 743.813,-463.326 740.742,-469.617"/>
</g>
<!-- Node10 -->
<g id="node10" class="node"><title>Node10</title>
<g id="a_node10"><a xlink:href="../../db/de5/recipes_8c.html#a3e0d121b098c19c0bdc2429e5b9f1625" target="_top" xlink:title="free_matrix">
<polygon fill="white" stroke="black" points="747,-433 747,-452 812,-452 812,-433 747,-433"/>
<text text-anchor="middle" x="779.5" y="-440" font-family="Helvetica,sans-Serif" font-size="10.00">free_matrix</text>
</a>
</g>
</g>
<!-- Node4&#45;&gt;Node10 -->
<g id="edge9" class="edge"><title>Node4&#45;&gt;Node10</title>
<path fill="none" stroke="midnightblue" d="M635.868,-357.012C657.07,-370.946 698.106,-397.527 734,-418.5 739.438,-421.677 745.323,-424.959 750.978,-428.037"/>
<polygon fill="midnightblue" stroke="midnightblue" points="749.692,-431.319 760.157,-432.97 753.005,-425.153 749.692,-431.319"/>
</g>
<!-- Node11 -->
<g id="node11" class="node"><title>Node11</title>
<g id="a_node11"><a xlink:href="../../db/de5/recipes_8c.html#a8214a52d888e820222c0382648329c0c" target="_top" xlink:title="free_vector">
<polygon fill="white" stroke="black" points="861,-376 861,-395 926,-395 926,-376 861,-376"/>
<text text-anchor="middle" x="893.5" y="-383" font-family="Helvetica,sans-Serif" font-size="10.00">free_vector</text>
</a>
</g>
</g>
<!-- Node4&#45;&gt;Node11 -->
<g id="edge10" class="edge"><title>Node4&#45;&gt;Node11</title>
<path fill="none" stroke="midnightblue" d="M636.741,-354.432C657.998,-363.683 697.994,-379.583 734,-385.5 773.155,-391.934 818.489,-391.12 850.618,-389.182"/>
<polygon fill="midnightblue" stroke="midnightblue" points="851.234,-392.648 860.979,-388.49 850.768,-385.664 851.234,-392.648"/>
</g>
<!-- Node12 -->
<g id="node12" class="node"><title>Node12</title>
<g id="a_node12"><a xlink:href="../../d4/d67/lms_8c.html#ad1d6c875ff429888b51dd1155f0311ad" target="_top" xlink:title="ivector">
<polygon fill="white" stroke="black" points="756.5,-357 756.5,-376 802.5,-376 802.5,-357 756.5,-357"/>
<text text-anchor="middle" x="779.5" y="-364" font-family="Helvetica,sans-Serif" font-size="10.00">ivector</text>
</a>
</g>
</g>
<!-- Node4&#45;&gt;Node12 -->
<g id="edge11" class="edge"><title>Node4&#45;&gt;Node12</title>
<path fill="none" stroke="midnightblue" d="M636.554,-349.322C661.624,-352.356 712.481,-358.51 746.017,-362.569"/>
<polygon fill="midnightblue" stroke="midnightblue" points="745.895,-366.08 756.243,-363.806 746.736,-359.13 745.895,-366.08"/>
</g>
<!-- Node13 -->
<g id="node13" class="node"><title>Node13</title>
<g id="a_node13"><a xlink:href="../../db/de5/recipes_8c.html#a66ff65ad0355ec1f4a7722bcdafc8cd3" target="_top" xlink:title="lubksb">
<polygon fill="white" stroke="black" points="757,-319 757,-338 802,-338 802,-319 757,-319"/>
<text text-anchor="middle" x="779.5" y="-326" font-family="Helvetica,sans-Serif" font-size="10.00">lubksb</text>
</a>
</g>
</g>
<!-- Node4&#45;&gt;Node13 -->
<g id="edge12" class="edge"><title>Node4&#45;&gt;Node13</title>
<path fill="none" stroke="midnightblue" d="M636.554,-345.678C661.762,-342.627 713.044,-336.421 746.572,-332.364"/>
<polygon fill="midnightblue" stroke="midnightblue" points="747.271,-335.805 756.778,-331.129 746.43,-328.856 747.271,-335.805"/>
</g>
<!-- Node14 -->
<g id="node14" class="node"><title>Node14</title>
<g id="a_node14"><a xlink:href="../../db/de5/recipes_8c.html#a623fec796d9d53e5e4a4d30226547da7" target="_top" xlink:title="ludcmp">
<polygon fill="white" stroke="black" points="755.5,-281 755.5,-300 803.5,-300 803.5,-281 755.5,-281"/>
<text text-anchor="middle" x="779.5" y="-288" font-family="Helvetica,sans-Serif" font-size="10.00">ludcmp</text>
</a>
</g>
</g>
<!-- Node4&#45;&gt;Node14 -->
<g id="edge13" class="edge"><title>Node4&#45;&gt;Node14</title>
<path fill="none" stroke="midnightblue" d="M636.554,-342.035C661.524,-332.969 712.075,-314.616 745.615,-302.439"/>
<polygon fill="midnightblue" stroke="midnightblue" points="747.225,-305.578 755.43,-298.876 744.836,-298.998 747.225,-305.578"/>
</g>
<!-- Node17 -->
<g id="node17" class="node"><title>Node17</title>
<g id="a_node17"><a xlink:href="../../d4/d67/lms_8c.html#a37bcb1539d76b53344102435e2ab9c91" target="_top" xlink:title="matrix">
<polygon fill="white" stroke="black" points="757.5,-243 757.5,-262 801.5,-262 801.5,-243 757.5,-243"/>
<text text-anchor="middle" x="779.5" y="-250" font-family="Helvetica,sans-Serif" font-size="10.00">matrix</text>
</a>
</g>
</g>
<!-- Node4&#45;&gt;Node17 -->
<g id="edge18" class="edge"><title>Node4&#45;&gt;Node17</title>
<path fill="none" stroke="midnightblue" d="M634.153,-337.77C654.46,-322.432 695.915,-292.248 734,-271.5 738.38,-269.114 743.122,-266.812 747.823,-264.685"/>
<polygon fill="midnightblue" stroke="midnightblue" points="749.496,-267.774 757.283,-260.59 746.716,-261.35 749.496,-267.774"/>
</g>
<!-- Node18 -->
<g id="node18" class="node"><title>Node18</title>
<g id="a_node18"><a xlink:href="../../d8/d91/rounding_8c.html#aa8d7512cdf5bfbf811cef6a8a091c679" target="_top" xlink:title="round2csd">
<polygon fill="white" stroke="black" points="748.5,-205 748.5,-224 810.5,-224 810.5,-205 748.5,-205"/>
<text text-anchor="middle" x="779.5" y="-212" font-family="Helvetica,sans-Serif" font-size="10.00">round2csd</text>
</a>
</g>
</g>
<!-- Node4&#45;&gt;Node18 -->
<g id="edge19" class="edge"><title>Node4&#45;&gt;Node18</title>
<path fill="none" stroke="midnightblue" d="M628.946,-337.694C645.652,-316.254 688.261,-264.642 734,-233.5 736.556,-231.76 739.297,-230.127 742.117,-228.607"/>
<polygon fill="midnightblue" stroke="midnightblue" points="743.813,-231.674 751.264,-224.141 740.742,-225.383 743.813,-231.674"/>
</g>
<!-- Node22 -->
<g id="node22" class="node"><title>Node22</title>
<g id="a_node22"><a xlink:href="../../d8/d91/rounding_8c.html#aca2670cc0fbf948a6b9cb670047c9d5b" target="_top" xlink:title="round2int">
<polygon fill="white" stroke="black" points="751.5,-167 751.5,-186 807.5,-186 807.5,-167 751.5,-167"/>
<text text-anchor="middle" x="779.5" y="-174" font-family="Helvetica,sans-Serif" font-size="10.00">round2int</text>
</a>
</g>
</g>
<!-- Node4&#45;&gt;Node22 -->
<g id="edge23" class="edge"><title>Node4&#45;&gt;Node22</title>
<path fill="none" stroke="midnightblue" d="M629.302,-337.815C643.371,-320.262 673.777,-281.913 698,-248.5 714.714,-225.445 712.017,-213.6 734,-195.5 736.529,-193.418 739.32,-191.529 742.235,-189.823"/>
<polygon fill="midnightblue" stroke="midnightblue" points="743.895,-192.905 751.212,-185.243 740.714,-186.67 743.895,-192.905"/>
</g>
<!-- Node23 -->
<g id="node23" class="node"><title>Node23</title>
<g id="a_node23"><a xlink:href="../../d4/d67/lms_8c.html#ac81ca32708341eb34b25d515d00bc748" target="_top" xlink:title="vector">
<polygon fill="white" stroke="black" points="757.5,-129 757.5,-148 801.5,-148 801.5,-129 757.5,-129"/>
<text text-anchor="middle" x="779.5" y="-136" font-family="Helvetica,sans-Serif" font-size="10.00">vector</text>
</a>
</g>
</g>
<!-- Node4&#45;&gt;Node23 -->
<g id="edge25" class="edge"><title>Node4&#45;&gt;Node23</title>
<path fill="none" stroke="midnightblue" d="M630.551,-337.768C646.015,-320.747 677.805,-283.992 698,-248.5 719.509,-210.697 703.66,-188.665 734,-157.5 737.955,-153.437 742.919,-150.196 748.083,-147.625"/>
<polygon fill="midnightblue" stroke="midnightblue" points="749.567,-150.798 757.423,-143.69 746.849,-144.348 749.567,-150.798"/>
</g>
<!-- Node14&#45;&gt;Node11 -->
<g id="edge14" class="edge"><title>Node14&#45;&gt;Node11</title>
<path fill="none" stroke="midnightblue" d="M803.708,-298.153C810.89,-301.099 818.592,-304.886 825,-309.5 847.475,-325.683 867.761,-350.586 880.096,-367.436"/>
<polygon fill="midnightblue" stroke="midnightblue" points="877.444,-369.745 886.094,-375.863 883.146,-365.686 877.444,-369.745"/>
</g>
<!-- Node15 -->
<g id="node15" class="node"><title>Node15</title>
<g id="a_node15"><a xlink:href="../../db/de5/recipes_8c.html#a208e98f19b2f252315399d02c0594a46" target="_top" xlink:title="nrerror">
<polygon fill="white" stroke="black" points="962,-300 962,-319 1006,-319 1006,-300 962,-300"/>
<text text-anchor="middle" x="984" y="-307" font-family="Helvetica,sans-Serif" font-size="10.00">nrerror</text>
</a>
</g>
</g>
<!-- Node14&#45;&gt;Node15 -->
<g id="edge15" class="edge"><title>Node14&#45;&gt;Node15</title>
<path fill="none" stroke="midnightblue" d="M803.845,-297.525C819.779,-301.944 841.459,-307.225 861,-309.5 891.605,-313.063 926.823,-312.577 951.528,-311.492"/>
<polygon fill="midnightblue" stroke="midnightblue" points="951.942,-314.976 961.756,-310.983 951.594,-307.985 951.942,-314.976"/>
</g>
<!-- Node16 -->
<g id="node16" class="node"><title>Node16</title>
<g id="a_node16"><a xlink:href="../../db/de5/recipes_8c.html#a5e6092211a5f7e2d6ae9282379d3c604" target="_top" xlink:title="vector">
<polygon fill="white" stroke="black" points="871.5,-281 871.5,-300 915.5,-300 915.5,-281 871.5,-281"/>
<text text-anchor="middle" x="893.5" y="-288" font-family="Helvetica,sans-Serif" font-size="10.00">vector</text>
</a>
</g>
</g>
<!-- Node14&#45;&gt;Node16 -->
<g id="edge16" class="edge"><title>Node14&#45;&gt;Node16</title>
<path fill="none" stroke="midnightblue" d="M803.706,-290.5C820.31,-290.5 842.853,-290.5 861.069,-290.5"/>
<polygon fill="midnightblue" stroke="midnightblue" points="861.218,-294 871.217,-290.5 861.217,-287 861.218,-294"/>
</g>
<!-- Node16&#45;&gt;Node15 -->
<g id="edge17" class="edge"><title>Node16&#45;&gt;Node15</title>
<path fill="none" stroke="midnightblue" d="M915.923,-295.099C926.685,-297.41 939.928,-300.253 951.796,-302.801"/>
<polygon fill="midnightblue" stroke="midnightblue" points="951.262,-306.266 961.774,-304.943 952.731,-299.422 951.262,-306.266"/>
</g>
<!-- Node19 -->
<g id="node19" class="node"><title>Node19</title>
<g id="a_node19"><a xlink:href="../../d8/d91/rounding_8c.html#a2cff6b77e73872659c44b0c99f6bd97f" target="_top" xlink:title="csd2int">
<polygon fill="white" stroke="black" points="869.5,-243 869.5,-262 917.5,-262 917.5,-243 869.5,-243"/>
<text text-anchor="middle" x="893.5" y="-250" font-family="Helvetica,sans-Serif" font-size="10.00">csd2int</text>
</a>
</g>
</g>
<!-- Node18&#45;&gt;Node19 -->
<g id="edge20" class="edge"><title>Node18&#45;&gt;Node19</title>
<path fill="none" stroke="midnightblue" d="M808.762,-224.089C824.218,-229.333 843.444,-235.856 859.575,-241.329"/>
<polygon fill="midnightblue" stroke="midnightblue" points="858.563,-244.682 869.157,-244.58 860.812,-238.053 858.563,-244.682"/>
</g>
<!-- Node20 -->
<g id="node20" class="node"><title>Node20</title>
<g id="a_node20"><a xlink:href="../../db/d82/wglew_8h.html#a500a82aecba06f4550f6849b8099ca21" target="_top" xlink:title="int">
<polygon fill="white" stroke="black" points="879,-167 879,-186 908,-186 908,-167 879,-167"/>
<text text-anchor="middle" x="893.5" y="-174" font-family="Helvetica,sans-Serif" font-size="10.00">int</text>
</a>
</g>
</g>
<!-- Node18&#45;&gt;Node20 -->
<g id="edge21" class="edge"><title>Node18&#45;&gt;Node20</title>
<path fill="none" stroke="midnightblue" d="M808.762,-204.911C827.506,-198.552 851.795,-190.311 869.383,-184.343"/>
<polygon fill="midnightblue" stroke="midnightblue" points="870.526,-187.651 878.872,-181.124 868.277,-181.023 870.526,-187.651"/>
</g>
<!-- Node21 -->
<g id="node21" class="node"><title>Node21</title>
<g id="a_node21"><a xlink:href="../../d8/d91/rounding_8c.html#ab3a64ec72c5600bc114621e93309c8c3" target="_top" xlink:title="int2csd">
<polygon fill="white" stroke="black" points="869.5,-205 869.5,-224 917.5,-224 917.5,-205 869.5,-205"/>
<text text-anchor="middle" x="893.5" y="-212" font-family="Helvetica,sans-Serif" font-size="10.00">int2csd</text>
</a>
</g>
</g>
<!-- Node18&#45;&gt;Node21 -->
<g id="edge22" class="edge"><title>Node18&#45;&gt;Node21</title>
<path fill="none" stroke="midnightblue" d="M810.514,-214.5C825.466,-214.5 843.593,-214.5 858.997,-214.5"/>
<polygon fill="midnightblue" stroke="midnightblue" points="859.153,-218 869.153,-214.5 859.153,-211 859.153,-218"/>
</g>
<!-- Node22&#45;&gt;Node20 -->
<g id="edge24" class="edge"><title>Node22&#45;&gt;Node20</title>
<path fill="none" stroke="midnightblue" d="M807.612,-176.5C826.269,-176.5 850.817,-176.5 868.714,-176.5"/>
<polygon fill="midnightblue" stroke="midnightblue" points="868.886,-180 878.886,-176.5 868.886,-173 868.886,-180"/>
</g>
<!-- Node24&#45;&gt;Node4 -->
<g id="edge33" class="edge"><title>Node24&#45;&gt;Node4</title>
<path fill="none" stroke="midnightblue" d="M451.188,-183.761C485.445,-217.088 566.719,-296.153 602.308,-330.775"/>
<polygon fill="midnightblue" stroke="midnightblue" points="599.95,-333.364 609.558,-337.829 604.831,-328.347 599.95,-333.364"/>
</g>
<!-- Node24&#45;&gt;Node25 -->
<g id="edge27" class="edge"><title>Node24&#45;&gt;Node25</title>
<path fill="none" stroke="midnightblue" d="M460.081,-183.604C509.73,-211.964 623.566,-265.893 698,-214.5 735.156,-188.846 702.739,-152.08 734,-119.5 735.24,-118.208 736.581,-117 737.999,-115.87"/>
<polygon fill="midnightblue" stroke="midnightblue" points="740.262,-118.576 746.779,-110.222 736.475,-112.689 740.262,-118.576"/>
</g>
<!-- Node27 -->
<g id="node27" class="node"><title>Node27</title>
<g id="a_node27"><a xlink:href="../../d2/de5/classlime_1_1IConnection.html#a2df4c866684ed9828976fb37be1b0862" target="_top" xlink:title="lime::IConnection::\lProgramUpdate">
<polygon fill="white" stroke="black" points="571,-175.5 571,-205.5 670,-205.5 670,-175.5 571,-175.5"/>
<text text-anchor="start" x="579" y="-193.5" font-family="Helvetica,sans-Serif" font-size="10.00">lime::IConnection::</text>
<text text-anchor="middle" x="620.5" y="-182.5" font-family="Helvetica,sans-Serif" font-size="10.00">ProgramUpdate</text>
</a>
</g>
</g>
<!-- Node24&#45;&gt;Node27 -->
<g id="edge29" class="edge"><title>Node24&#45;&gt;Node27</title>
<path fill="none" stroke="midnightblue" d="M488.72,-174.863C511.28,-177.561 537.646,-180.713 560.772,-183.478"/>
<polygon fill="midnightblue" stroke="midnightblue" points="560.458,-186.965 570.803,-184.677 561.289,-180.015 560.458,-186.965"/>
</g>
<!-- Node28 -->
<g id="node28" class="node"><title>Node28</title>
<g id="a_node28"><a xlink:href="../../d2/de5/classlime_1_1IConnection.html#adf4ca97b70925ee50e955187f7811fb2" target="_top" xlink:title="Uploads program to selected device. ">
<polygon fill="white" stroke="black" points="571,-126.5 571,-156.5 670,-156.5 670,-126.5 571,-126.5"/>
<text text-anchor="start" x="579" y="-144.5" font-family="Helvetica,sans-Serif" font-size="10.00">lime::IConnection::</text>
<text text-anchor="middle" x="620.5" y="-133.5" font-family="Helvetica,sans-Serif" font-size="10.00">ProgramWrite</text>
</a>
</g>
</g>
<!-- Node24&#45;&gt;Node28 -->
<g id="edge31" class="edge"><title>Node24&#45;&gt;Node28</title>
<path fill="none" stroke="midnightblue" d="M488.72,-160.69C511.28,-157.38 537.646,-153.511 560.772,-150.118"/>
<polygon fill="midnightblue" stroke="midnightblue" points="561.417,-153.561 570.803,-148.646 560.4,-146.635 561.417,-153.561"/>
</g>
<!-- Node29 -->
<g id="node29" class="node"><title>Node29</title>
<g id="a_node29"><a xlink:href="../../d8/d9c/classlime_1_1MCU__BD.html#a725c7209bf1f88302539353da14f1fcc" target="_top" xlink:title="Upload program code from memory into MCU. ">
<polygon fill="white" stroke="black" points="543,-88 543,-107 698,-107 698,-88 543,-88"/>
<text text-anchor="middle" x="620.5" y="-95" font-family="Helvetica,sans-Serif" font-size="10.00">lime::MCU_BD::Program_MCU</text>
</a>
</g>
</g>
<!-- Node24&#45;&gt;Node29 -->
<g id="edge34" class="edge"><title>Node24&#45;&gt;Node29</title>
<path fill="none" stroke="midnightblue" d="M462.661,-153.415C483.997,-142.048 514.73,-126.723 543,-116.5 549.901,-114.004 557.268,-111.721 564.602,-109.669"/>
<polygon fill="midnightblue" stroke="midnightblue" points="565.777,-112.978 574.537,-107.019 563.972,-106.215 565.777,-112.978"/>
</g>
<!-- Node26 -->
<g id="node26" class="node"><title>Node26</title>
<g id="a_node26"><a xlink:href="../../d9/df5/Logger_8cpp.html#ada38bf01d6d691de953ed69268ea6516" target="_top" xlink:title="errToStr">
<polygon fill="white" stroke="black" points="867.5,-91 867.5,-110 919.5,-110 919.5,-91 867.5,-91"/>
<text text-anchor="middle" x="893.5" y="-98" font-family="Helvetica,sans-Serif" font-size="10.00">errToStr</text>
</a>
</g>
</g>
<!-- Node25&#45;&gt;Node26 -->
<g id="edge28" class="edge"><title>Node25&#45;&gt;Node26</title>
<path fill="none" stroke="midnightblue" d="M825.087,-100.5C835.772,-100.5 847.036,-100.5 857.232,-100.5"/>
<polygon fill="midnightblue" stroke="midnightblue" points="857.402,-104 867.402,-100.5 857.402,-97.0001 857.402,-104"/>
</g>
<!-- Node27&#45;&gt;Node25 -->
<g id="edge30" class="edge"><title>Node27&#45;&gt;Node25</title>
<path fill="none" stroke="midnightblue" d="M670.081,-179.414C679.838,-175.902 689.647,-171.354 698,-165.5 719.26,-150.6 713.414,-135.317 734,-119.5 736.173,-117.83 738.515,-116.277 740.948,-114.839"/>
<polygon fill="midnightblue" stroke="midnightblue" points="742.755,-117.844 750.013,-110.125 739.526,-111.633 742.755,-117.844"/>
</g>
<!-- Node28&#45;&gt;Node25 -->
<g id="edge32" class="edge"><title>Node28&#45;&gt;Node25</title>
<path fill="none" stroke="midnightblue" d="M670.315,-128.752C689.938,-123.628 712.464,-117.745 731.863,-112.679"/>
<polygon fill="midnightblue" stroke="midnightblue" points="732.899,-116.026 741.69,-110.113 731.131,-109.253 732.899,-116.026"/>
</g>
<!-- Node32&#45;&gt;Node30 -->
<g id="edge39" class="edge"><title>Node32&#45;&gt;Node30</title>
<path fill="none" stroke="midnightblue" d="M326.251,-15.5C334.559,-15.5 343.103,-15.5 351.568,-15.5"/>
<polygon fill="midnightblue" stroke="midnightblue" points="351.835,-19.0001 361.835,-15.5 351.835,-12.0001 351.835,-19.0001"/>
</g>
</g>
</svg>
        <g id="navigator" transform="translate(0 0)" fill="#404254">
                <rect fill="#f2f5e9" fill-opacity="0.5" stroke="#606060" stroke-width=".5" x="0" y="0" width="60" height="60"/>
                <use id="zoomplus" xlink:href="#zoomPlus" x="17" y="9" onmousedown="handleZoom(evt,'in')"/>
                <use id="zoomminus" xlink:href="#zoomMin" x="42" y="9" onmousedown="handleZoom(evt,'out')"/>
                <use id="reset" xlink:href="#resetDef" x="30" y="36" onmousedown="handleReset()"/>
                <g id="arrowUp" xlink:href="#dirArrow" transform="translate(30 24)" onmousedown="handlePan(0,-1)">
                  <use xlink:href="#rim" fill="#404040">
                        <set attributeName="fill" to="#808080" begin="arrowUp.mouseover" end="arrowUp.mouseout"/>
                  </use>
                  <path fill="none" stroke="white" stroke-width="1.5" d="M0,-3.0v7 M-2.5,-0.5L0,-3.0L2.5,-0.5"/>
                </g>
                <g id="arrowRight" xlink:href="#dirArrow" transform="rotate(90) translate(36 -43)" onmousedown="handlePan(1,0)">
                  <use xlink:href="#rim" fill="#404040">
                        <set attributeName="fill" to="#808080" begin="arrowRight.mouseover" end="arrowRight.mouseout"/>
                  </use>
                  <path fill="none" stroke="white" stroke-width="1.5" d="M0,-3.0v7 M-2.5,-0.5L0,-3.0L2.5,-0.5"/>
                </g>
                <g id="arrowDown" xlink:href="#dirArrow" transform="rotate(180) translate(-30 -48)" onmousedown="handlePan(0,1)">
                  <use xlink:href="#rim" fill="#404040">
                        <set attributeName="fill" to="#808080" begin="arrowDown.mouseover" end="arrowDown.mouseout"/>
                  </use>
                  <path fill="none" stroke="white" stroke-width="1.5" d="M0,-3.0v7 M-2.5,-0.5L0,-3.0L2.5,-0.5"/>
                </g>
                <g id="arrowLeft" xlink:href="#dirArrow" transform="rotate(270) translate(-36 17)" onmousedown="handlePan(-1,0)">
                  <use xlink:href="#rim" fill="#404040">
                        <set attributeName="fill" to="#808080" begin="arrowLeft.mouseover" end="arrowLeft.mouseout"/>
                  </use>
                  <path fill="none" stroke="white" stroke-width="1.5" d="M0,-3.0v7 M-2.5,-0.5L0,-3.0L2.5,-0.5"/>
                </g>
        </g>
        <svg viewBox="0 0 15 15" width="100%" height="30px" preserveAspectRatio="xMaxYMin meet">
         <g id="arrow_out" transform="scale(0.3 0.3)">
          <a xlink:href="classlms7002__pnlMCU__BD__view_ab50695b77d5ea40bc6273d8f71cd8d18_cgraph_org.svg" target="_base">
           <rect id="button" ry="5" rx="5" y="6" x="6" height="38" width="38"
                fill="#f2f5e9" fill-opacity="0.5" stroke="#606060" stroke-width="1.0"/>
           <path id="arrow"
             d="M 11.500037,31.436501 C 11.940474,20.09759 22.043105,11.32322 32.158766,21.979434 L 37.068811,17.246167 C 37.068811,17.246167 37.088388,32 37.088388,32 L 22.160133,31.978069 C 22.160133,31.978069 26.997745,27.140456 26.997745,27.140456 C 18.528582,18.264221 13.291696,25.230495 11.500037,31.436501 z"
             style="fill:#404040;"/>
          </a>
         </g>
        </svg>
</svg>
