<?xml version="1.0" encoding="UTF-8" standalone="no"?>
<!DOCTYPE svg PUBLIC "-//W3C//DTD SVG 1.1//EN"
 "http://www.w3.org/Graphics/SVG/1.1/DTD/svg11.dtd">
<!-- Generated by graphviz version 2.38.0 (20140413.2041)
 -->
<!-- Title: lms7002_pnlMCU_BD_view::OnDebugModeClick Pages: 1 -->
<svg width="893pt" height="560pt"
 viewBox="0.00 0.00 893.00 560.00" xmlns="http://www.w3.org/2000/svg" xmlns:xlink="http://www.w3.org/1999/xlink">
<g id="graph0" class="graph" transform="scale(1 1) rotate(0) translate(4 556)">
<title>lms7002_pnlMCU_BD_view::OnDebugModeClick</title>
<polygon fill="white" stroke="none" points="-4,4 -4,-556 889,-556 889,4 -4,4"/>
<!-- Node1 -->
<g id="node1" class="node"><title>Node1</title>
<polygon fill="#bfbfbf" stroke="black" points="0,-109 0,-139 140,-139 140,-109 0,-109"/>
<text text-anchor="start" x="8" y="-127" font-family="Helvetica,sans-Serif" font-size="10.00">lms7002_pnlMCU_BD_view</text>
<text text-anchor="middle" x="70" y="-116" font-family="Helvetica,sans-Serif" font-size="10.00">::OnDebugModeClick</text>
</g>
<!-- Node2 -->
<g id="node2" class="node"><title>Node2</title>
<g id="a_node2"><a xlink:href="../../d8/d95/classlms7002__pnlMCU__BD__view.html#ad25e2f654876c355b9fc9aaad720d519" target="_top" xlink:title="lms7002_pnlMCU_BD_view\l::DebugModeExit_MCU">
<polygon fill="white" stroke="black" points="176,-134 176,-164 316,-164 316,-134 176,-134"/>
<text text-anchor="start" x="184" y="-152" font-family="Helvetica,sans-Serif" font-size="10.00">lms7002_pnlMCU_BD_view</text>
<text text-anchor="middle" x="246" y="-141" font-family="Helvetica,sans-Serif" font-size="10.00">::DebugModeExit_MCU</text>
</a>
</g>
</g>
<!-- Node1&#45;&gt;Node2 -->
<g id="edge1" class="edge"><title>Node1&#45;&gt;Node2</title>
<path fill="none" stroke="midnightblue" d="M140.019,-133.917C148.476,-135.132 157.169,-136.381 165.761,-137.615"/>
<polygon fill="midnightblue" stroke="midnightblue" points="165.383,-141.097 175.779,-139.055 166.379,-134.168 165.383,-141.097"/>
</g>
<!-- Node27 -->
<g id="node27" class="node"><title>Node27</title>
<g id="a_node27"><a xlink:href="../../d8/d95/classlms7002__pnlMCU__BD__view.html#aea739caeec9a754df9cdb2904c11ad8e" target="_top" xlink:title="lms7002_pnlMCU_BD_view\l::DebugModeSet_MCU">
<polygon fill="white" stroke="black" points="176,-85 176,-115 316,-115 316,-85 176,-85"/>
<text text-anchor="start" x="184" y="-103" font-family="Helvetica,sans-Serif" font-size="10.00">lms7002_pnlMCU_BD_view</text>
<text text-anchor="middle" x="246" y="-92" font-family="Helvetica,sans-Serif" font-size="10.00">::DebugModeSet_MCU</text>
</a>
</g>
</g>
<!-- Node1&#45;&gt;Node27 -->
<g id="edge29" class="edge"><title>Node1&#45;&gt;Node27</title>
<path fill="none" stroke="midnightblue" d="M140.019,-114.48C148.476,-113.314 157.169,-112.115 165.761,-110.93"/>
<polygon fill="midnightblue" stroke="midnightblue" points="166.352,-114.381 175.779,-109.548 165.395,-107.447 166.352,-114.381"/>
</g>
<!-- Node3 -->
<g id="node3" class="node"><title>Node3</title>
<g id="a_node3"><a xlink:href="../../df/de1/lms7__api_8cpp.html#afd3d3c3227c91840a1c127805c3a3032" target="_top" xlink:title="LMS_WriteLMSReg">
<polygon fill="white" stroke="black" points="352,-114.5 352,-133.5 456,-133.5 456,-114.5 352,-114.5"/>
<text text-anchor="middle" x="404" y="-121.5" font-family="Helvetica,sans-Serif" font-size="10.00">LMS_WriteLMSReg</text>
</a>
</g>
</g>
<!-- Node2&#45;&gt;Node3 -->
<g id="edge2" class="edge"><title>Node2&#45;&gt;Node3</title>
<path fill="none" stroke="midnightblue" d="M316.332,-137.889C324.779,-136.535 333.362,-135.16 341.681,-133.827"/>
<polygon fill="midnightblue" stroke="midnightblue" points="342.348,-137.265 351.668,-132.226 341.24,-130.353 342.348,-137.265"/>
</g>
<!-- Node4 -->
<g id="node4" class="node"><title>Node4</title>
<g id="a_node4"><a xlink:href="../../d4/d67/lms_8c.html#a0e01e477b1f10e0a63e54de2dd2f8240" target="_top" xlink:title="lms">
<polygon fill="white" stroke="black" points="530,-266.5 530,-285.5 562,-285.5 562,-266.5 530,-266.5"/>
<text text-anchor="middle" x="546" y="-273.5" font-family="Helvetica,sans-Serif" font-size="10.00">lms</text>
</a>
</g>
</g>
<!-- Node3&#45;&gt;Node4 -->
<g id="edge3" class="edge"><title>Node3&#45;&gt;Node4</title>
<path fill="none" stroke="midnightblue" d="M413.758,-133.508C436.837,-158.566 499.578,-226.684 529.161,-258.804"/>
<polygon fill="midnightblue" stroke="midnightblue" points="526.896,-261.511 536.246,-266.495 532.045,-256.769 526.896,-261.511"/>
</g>
<!-- Node24 -->
<g id="node24" class="node"><title>Node24</title>
<g id="a_node24"><a xlink:href="../../d5/d6c/namespacelime.html#adc6af0cf8e0a70f3ef09fac1244f8c48" target="_top" xlink:title="lime::ReportError">
<polygon fill="white" stroke="black" points="500.5,-114.5 500.5,-133.5 591.5,-133.5 591.5,-114.5 500.5,-114.5"/>
<text text-anchor="middle" x="546" y="-121.5" font-family="Helvetica,sans-Serif" font-size="10.00">lime::ReportError</text>
</a>
</g>
</g>
<!-- Node3&#45;&gt;Node24 -->
<g id="edge26" class="edge"><title>Node3&#45;&gt;Node24</title>
<path fill="none" stroke="midnightblue" d="M456.336,-124C467.33,-124 478.986,-124 490.108,-124"/>
<polygon fill="midnightblue" stroke="midnightblue" points="490.138,-127.5 500.138,-124 490.137,-120.5 490.138,-127.5"/>
</g>
<!-- Node26 -->
<g id="node26" class="node"><title>Node26</title>
<g id="a_node26"><a xlink:href="../../d3/d22/classlime_1_1LMS7__Device.html#a22b857a2c380f576811c6ce4dee1fe47" target="_top" xlink:title="lime::LMS7_Device::\lWriteLMSReg">
<polygon fill="white" stroke="black" points="492,-65 492,-95 600,-95 600,-65 492,-65"/>
<text text-anchor="start" x="500" y="-83" font-family="Helvetica,sans-Serif" font-size="10.00">lime::LMS7_Device::</text>
<text text-anchor="middle" x="546" y="-72" font-family="Helvetica,sans-Serif" font-size="10.00">WriteLMSReg</text>
</a>
</g>
</g>
<!-- Node3&#45;&gt;Node26 -->
<g id="edge28" class="edge"><title>Node3&#45;&gt;Node26</title>
<path fill="none" stroke="midnightblue" d="M435.378,-114.453C450.577,-109.676 469.493,-103.731 487.31,-98.1311"/>
<polygon fill="midnightblue" stroke="midnightblue" points="488.574,-101.403 497.065,-95.0654 486.475,-94.7247 488.574,-101.403"/>
</g>
<!-- Node5 -->
<g id="node5" class="node"><title>Node5</title>
<g id="a_node5"><a xlink:href="../../d4/d67/lms_8c.html#a433227191fe883dcb8aa15d291bb29a1" target="_top" xlink:title="Case1F">
<polygon fill="white" stroke="black" points="644.5,-532.5 644.5,-551.5 695.5,-551.5 695.5,-532.5 644.5,-532.5"/>
<text text-anchor="middle" x="670" y="-539.5" font-family="Helvetica,sans-Serif" font-size="10.00">Case1F</text>
</a>
</g>
</g>
<!-- Node4&#45;&gt;Node5 -->
<g id="edge4" class="edge"><title>Node4&#45;&gt;Node5</title>
<path fill="none" stroke="midnightblue" d="M548.084,-285.675C552.522,-321.269 572.206,-446.816 636,-523 636.955,-524.14 637.997,-525.227 639.103,-526.261"/>
<polygon fill="midnightblue" stroke="midnightblue" points="637.015,-529.069 647.099,-532.319 641.242,-523.49 637.015,-529.069"/>
</g>
<!-- Node6 -->
<g id="node6" class="node"><title>Node6</title>
<g id="a_node6"><a xlink:href="../../d4/d67/lms_8c.html#ace0cd8bf61cb9b86b98f0cef03b5a9d9" target="_top" xlink:title="Case2F">
<polygon fill="white" stroke="black" points="644.5,-494.5 644.5,-513.5 695.5,-513.5 695.5,-494.5 644.5,-494.5"/>
<text text-anchor="middle" x="670" y="-501.5" font-family="Helvetica,sans-Serif" font-size="10.00">Case2F</text>
</a>
</g>
</g>
<!-- Node4&#45;&gt;Node6 -->
<g id="edge5" class="edge"><title>Node4&#45;&gt;Node6</title>
<path fill="none" stroke="midnightblue" d="M548.879,-285.932C555.434,-318.234 580.003,-421.856 636,-485 637.014,-486.144 638.115,-487.236 639.277,-488.277"/>
<polygon fill="midnightblue" stroke="midnightblue" points="637.47,-491.292 647.6,-494.395 641.616,-485.652 637.47,-491.292"/>
</g>
<!-- Node7 -->
<g id="node7" class="node"><title>Node7</title>
<g id="a_node7"><a xlink:href="../../d4/d67/lms_8c.html#a5f53b53ccc591e3643c4af2aee2e7f32" target="_top" xlink:title="Case3F">
<polygon fill="white" stroke="black" points="644.5,-456.5 644.5,-475.5 695.5,-475.5 695.5,-456.5 644.5,-456.5"/>
<text text-anchor="middle" x="670" y="-463.5" font-family="Helvetica,sans-Serif" font-size="10.00">Case3F</text>
</a>
</g>
</g>
<!-- Node4&#45;&gt;Node7 -->
<g id="edge6" class="edge"><title>Node4&#45;&gt;Node7</title>
<path fill="none" stroke="midnightblue" d="M549.878,-285.664C558.635,-313.696 587.37,-396.258 636,-447 637.195,-448.247 638.49,-449.437 639.852,-450.569"/>
<polygon fill="midnightblue" stroke="midnightblue" points="637.961,-453.519 648.154,-456.409 641.989,-447.794 637.961,-453.519"/>
</g>
<!-- Node8 -->
<g id="node8" class="node"><title>Node8</title>
<g id="a_node8"><a xlink:href="../../d4/d67/lms_8c.html#a5086763d5b258349bc13d6be7e7d0665" target="_top" xlink:title="Case4F">
<polygon fill="white" stroke="black" points="644.5,-418.5 644.5,-437.5 695.5,-437.5 695.5,-418.5 644.5,-418.5"/>
<text text-anchor="middle" x="670" y="-425.5" font-family="Helvetica,sans-Serif" font-size="10.00">Case4F</text>
</a>
</g>
</g>
<!-- Node4&#45;&gt;Node8 -->
<g id="edge7" class="edge"><title>Node4&#45;&gt;Node8</title>
<path fill="none" stroke="midnightblue" d="M551.567,-285.789C562.977,-309.422 594.799,-370.484 636,-409 637.295,-410.21 638.68,-411.376 640.124,-412.492"/>
<polygon fill="midnightblue" stroke="midnightblue" points="638.537,-415.643 648.787,-418.324 642.446,-409.836 638.537,-415.643"/>
</g>
<!-- Node9 -->
<g id="node9" class="node"><title>Node9</title>
<g id="a_node9"><a xlink:href="../../db/de5/recipes_8c.html#aee25e218394217a134e805ea09fb0fe9" target="_top" xlink:title="free_ivector">
<polygon fill="white" stroke="black" points="636,-380.5 636,-399.5 704,-399.5 704,-380.5 636,-380.5"/>
<text text-anchor="middle" x="670" y="-387.5" font-family="Helvetica,sans-Serif" font-size="10.00">free_ivector</text>
</a>
</g>
</g>
<!-- Node4&#45;&gt;Node9 -->
<g id="edge8" class="edge"><title>Node4&#45;&gt;Node9</title>
<path fill="none" stroke="midnightblue" d="M554.306,-285.506C568.59,-303.67 601.816,-343.907 636,-371 637.768,-372.401 639.651,-373.767 641.587,-375.081"/>
<polygon fill="midnightblue" stroke="midnightblue" points="639.884,-378.143 650.221,-380.466 643.588,-372.204 639.884,-378.143"/>
</g>
<!-- Node10 -->
<g id="node10" class="node"><title>Node10</title>
<g id="a_node10"><a xlink:href="../../db/de5/recipes_8c.html#a3e0d121b098c19c0bdc2429e5b9f1625" target="_top" xlink:title="free_matrix">
<polygon fill="white" stroke="black" points="637.5,-342.5 637.5,-361.5 702.5,-361.5 702.5,-342.5 637.5,-342.5"/>
<text text-anchor="middle" x="670" y="-349.5" font-family="Helvetica,sans-Serif" font-size="10.00">free_matrix</text>
</a>
</g>
</g>
<!-- Node4&#45;&gt;Node10 -->
<g id="edge9" class="edge"><title>Node4&#45;&gt;Node10</title>
<path fill="none" stroke="midnightblue" d="M562.451,-285.625C583.26,-298.588 620.499,-321.786 644.978,-337.035"/>
<polygon fill="midnightblue" stroke="midnightblue" points="643.336,-340.136 653.674,-342.453 647.037,-334.194 643.336,-340.136"/>
</g>
<!-- Node11 -->
<g id="node11" class="node"><title>Node11</title>
<g id="a_node11"><a xlink:href="../../db/de5/recipes_8c.html#a8214a52d888e820222c0382648329c0c" target="_top" xlink:title="free_vector">
<polygon fill="white" stroke="black" points="740,-285.5 740,-304.5 805,-304.5 805,-285.5 740,-285.5"/>
<text text-anchor="middle" x="772.5" y="-292.5" font-family="Helvetica,sans-Serif" font-size="10.00">free_vector</text>
</a>
</g>
</g>
<!-- Node4&#45;&gt;Node11 -->
<g id="edge10" class="edge"><title>Node4&#45;&gt;Node11</title>
<path fill="none" stroke="midnightblue" d="M562.277,-280.288C579.881,-284.989 609.76,-292.23 636,-295 667.289,-298.303 702.869,-298.154 729.716,-297.26"/>
<polygon fill="midnightblue" stroke="midnightblue" points="730.056,-300.749 739.915,-296.87 729.789,-293.754 730.056,-300.749"/>
</g>
<!-- Node12 -->
<g id="node12" class="node"><title>Node12</title>
<g id="a_node12"><a xlink:href="../../d4/d67/lms_8c.html#ad1d6c875ff429888b51dd1155f0311ad" target="_top" xlink:title="ivector">
<polygon fill="white" stroke="black" points="647,-266.5 647,-285.5 693,-285.5 693,-266.5 647,-266.5"/>
<text text-anchor="middle" x="670" y="-273.5" font-family="Helvetica,sans-Serif" font-size="10.00">ivector</text>
</a>
</g>
</g>
<!-- Node4&#45;&gt;Node12 -->
<g id="edge11" class="edge"><title>Node4&#45;&gt;Node12</title>
<path fill="none" stroke="midnightblue" d="M562.451,-276C580.995,-276 612.584,-276 636.566,-276"/>
<polygon fill="midnightblue" stroke="midnightblue" points="636.646,-279.5 646.646,-276 636.645,-272.5 636.646,-279.5"/>
</g>
<!-- Node13 -->
<g id="node13" class="node"><title>Node13</title>
<g id="a_node13"><a xlink:href="../../db/de5/recipes_8c.html#a66ff65ad0355ec1f4a7722bcdafc8cd3" target="_top" xlink:title="lubksb">
<polygon fill="white" stroke="black" points="647.5,-228.5 647.5,-247.5 692.5,-247.5 692.5,-228.5 647.5,-228.5"/>
<text text-anchor="middle" x="670" y="-235.5" font-family="Helvetica,sans-Serif" font-size="10.00">lubksb</text>
</a>
</g>
</g>
<!-- Node4&#45;&gt;Node13 -->
<g id="edge12" class="edge"><title>Node4&#45;&gt;Node13</title>
<path fill="none" stroke="midnightblue" d="M562.451,-271.187C581.19,-265.351 613.251,-255.364 637.321,-247.867"/>
<polygon fill="midnightblue" stroke="midnightblue" points="638.579,-251.141 647.085,-244.826 636.497,-244.458 638.579,-251.141"/>
</g>
<!-- Node14 -->
<g id="node14" class="node"><title>Node14</title>
<g id="a_node14"><a xlink:href="../../db/de5/recipes_8c.html#a623fec796d9d53e5e4a4d30226547da7" target="_top" xlink:title="ludcmp">
<polygon fill="white" stroke="black" points="646,-190.5 646,-209.5 694,-209.5 694,-190.5 646,-190.5"/>
<text text-anchor="middle" x="670" y="-197.5" font-family="Helvetica,sans-Serif" font-size="10.00">ludcmp</text>
</a>
</g>
</g>
<!-- Node4&#45;&gt;Node14 -->
<g id="edge13" class="edge"><title>Node4&#45;&gt;Node14</title>
<path fill="none" stroke="midnightblue" d="M561.668,-266.304C579.201,-254.786 609.5,-235.103 636,-219 638.355,-217.569 640.818,-216.1 643.292,-214.644"/>
<polygon fill="midnightblue" stroke="midnightblue" points="645.234,-217.564 652.122,-209.514 641.717,-211.511 645.234,-217.564"/>
</g>
<!-- Node17 -->
<g id="node17" class="node"><title>Node17</title>
<g id="a_node17"><a xlink:href="../../d4/d67/lms_8c.html#a37bcb1539d76b53344102435e2ab9c91" target="_top" xlink:title="matrix">
<polygon fill="white" stroke="black" points="648,-152.5 648,-171.5 692,-171.5 692,-152.5 648,-152.5"/>
<text text-anchor="middle" x="670" y="-159.5" font-family="Helvetica,sans-Serif" font-size="10.00">matrix</text>
</a>
</g>
</g>
<!-- Node4&#45;&gt;Node17 -->
<g id="edge18" class="edge"><title>Node4&#45;&gt;Node17</title>
<path fill="none" stroke="midnightblue" d="M554.306,-266.494C568.59,-248.33 601.816,-208.093 636,-181 637.768,-179.599 639.651,-178.233 641.587,-176.919"/>
<polygon fill="midnightblue" stroke="midnightblue" points="643.588,-179.796 650.221,-171.534 639.884,-173.857 643.588,-179.796"/>
</g>
<!-- Node18 -->
<g id="node18" class="node"><title>Node18</title>
<g id="a_node18"><a xlink:href="../../d8/d91/rounding_8c.html#aa8d7512cdf5bfbf811cef6a8a091c679" target="_top" xlink:title="round2csd">
<polygon fill="white" stroke="black" points="639,-114.5 639,-133.5 701,-133.5 701,-114.5 639,-114.5"/>
<text text-anchor="middle" x="670" y="-121.5" font-family="Helvetica,sans-Serif" font-size="10.00">round2csd</text>
</a>
</g>
</g>
<!-- Node4&#45;&gt;Node18 -->
<g id="edge19" class="edge"><title>Node4&#45;&gt;Node18</title>
<path fill="none" stroke="midnightblue" d="M551.567,-266.211C562.977,-242.578 594.799,-181.516 636,-143 637.295,-141.79 638.68,-140.624 640.124,-139.508"/>
<polygon fill="midnightblue" stroke="midnightblue" points="642.446,-142.164 648.787,-133.676 638.537,-136.357 642.446,-142.164"/>
</g>
<!-- Node22 -->
<g id="node22" class="node"><title>Node22</title>
<g id="a_node22"><a xlink:href="../../d8/d91/rounding_8c.html#aca2670cc0fbf948a6b9cb670047c9d5b" target="_top" xlink:title="round2int">
<polygon fill="white" stroke="black" points="642,-76.5 642,-95.5 698,-95.5 698,-76.5 642,-76.5"/>
<text text-anchor="middle" x="670" y="-83.5" font-family="Helvetica,sans-Serif" font-size="10.00">round2int</text>
</a>
</g>
</g>
<!-- Node4&#45;&gt;Node22 -->
<g id="edge23" class="edge"><title>Node4&#45;&gt;Node22</title>
<path fill="none" stroke="midnightblue" d="M549.878,-266.336C558.635,-238.304 587.37,-155.742 636,-105 637.195,-103.753 638.49,-102.563 639.852,-101.431"/>
<polygon fill="midnightblue" stroke="midnightblue" points="641.989,-104.206 648.154,-95.5906 637.961,-98.4809 641.989,-104.206"/>
</g>
<!-- Node23 -->
<g id="node23" class="node"><title>Node23</title>
<g id="a_node23"><a xlink:href="../../d4/d67/lms_8c.html#ac81ca32708341eb34b25d515d00bc748" target="_top" xlink:title="vector">
<polygon fill="white" stroke="black" points="648,-38.5 648,-57.5 692,-57.5 692,-38.5 648,-38.5"/>
<text text-anchor="middle" x="670" y="-45.5" font-family="Helvetica,sans-Serif" font-size="10.00">vector</text>
</a>
</g>
</g>
<!-- Node4&#45;&gt;Node23 -->
<g id="edge25" class="edge"><title>Node4&#45;&gt;Node23</title>
<path fill="none" stroke="midnightblue" d="M550.908,-266.353C567.142,-226.346 628.739,-75.188 636,-67 637.146,-65.7078 638.402,-64.4815 639.733,-63.3211"/>
<polygon fill="midnightblue" stroke="midnightblue" points="641.883,-66.0859 647.943,-57.3953 637.786,-60.4099 641.883,-66.0859"/>
</g>
<!-- Node14&#45;&gt;Node11 -->
<g id="edge14" class="edge"><title>Node14&#45;&gt;Node11</title>
<path fill="none" stroke="midnightblue" d="M690.186,-209.656C694.9,-212.397 699.797,-215.577 704,-219 725.243,-236.301 745.546,-260.569 758.236,-276.991"/>
<polygon fill="midnightblue" stroke="midnightblue" points="755.633,-279.352 764.46,-285.212 761.214,-275.127 755.633,-279.352"/>
</g>
<!-- Node15 -->
<g id="node15" class="node"><title>Node15</title>
<g id="a_node15"><a xlink:href="../../db/de5/recipes_8c.html#a208e98f19b2f252315399d02c0594a46" target="_top" xlink:title="nrerror">
<polygon fill="white" stroke="black" points="841,-209.5 841,-228.5 885,-228.5 885,-209.5 841,-209.5"/>
<text text-anchor="middle" x="863" y="-216.5" font-family="Helvetica,sans-Serif" font-size="10.00">nrerror</text>
</a>
</g>
</g>
<!-- Node14&#45;&gt;Node15 -->
<g id="edge15" class="edge"><title>Node14&#45;&gt;Node15</title>
<path fill="none" stroke="midnightblue" d="M694.306,-208.1C707.528,-212.267 724.486,-216.903 740,-219 770.534,-223.127 805.761,-222.564 830.488,-221.308"/>
<polygon fill="midnightblue" stroke="midnightblue" points="830.944,-224.788 840.726,-220.718 830.541,-217.799 830.944,-224.788"/>
</g>
<!-- Node16 -->
<g id="node16" class="node"><title>Node16</title>
<g id="a_node16"><a xlink:href="../../db/de5/recipes_8c.html#a5e6092211a5f7e2d6ae9282379d3c604" target="_top" xlink:title="vector">
<polygon fill="white" stroke="black" points="750.5,-190.5 750.5,-209.5 794.5,-209.5 794.5,-190.5 750.5,-190.5"/>
<text text-anchor="middle" x="772.5" y="-197.5" font-family="Helvetica,sans-Serif" font-size="10.00">vector</text>
</a>
</g>
</g>
<!-- Node14&#45;&gt;Node16 -->
<g id="edge16" class="edge"><title>Node14&#45;&gt;Node16</title>
<path fill="none" stroke="midnightblue" d="M694.057,-200C707.673,-200 725.102,-200 739.977,-200"/>
<polygon fill="midnightblue" stroke="midnightblue" points="740.265,-203.5 750.265,-200 740.265,-196.5 740.265,-203.5"/>
</g>
<!-- Node16&#45;&gt;Node15 -->
<g id="edge17" class="edge"><title>Node16&#45;&gt;Node15</title>
<path fill="none" stroke="midnightblue" d="M794.923,-204.599C805.685,-206.91 818.928,-209.753 830.796,-212.301"/>
<polygon fill="midnightblue" stroke="midnightblue" points="830.262,-215.766 840.774,-214.443 831.731,-208.922 830.262,-215.766"/>
</g>
<!-- Node19 -->
<g id="node19" class="node"><title>Node19</title>
<g id="a_node19"><a xlink:href="../../d8/d91/rounding_8c.html#a2cff6b77e73872659c44b0c99f6bd97f" target="_top" xlink:title="csd2int">
<polygon fill="white" stroke="black" points="748.5,-152.5 748.5,-171.5 796.5,-171.5 796.5,-152.5 748.5,-152.5"/>
<text text-anchor="middle" x="772.5" y="-159.5" font-family="Helvetica,sans-Serif" font-size="10.00">csd2int</text>
</a>
</g>
</g>
<!-- Node18&#45;&gt;Node19 -->
<g id="edge20" class="edge"><title>Node18&#45;&gt;Node19</title>
<path fill="none" stroke="midnightblue" d="M696.36,-133.589C709.181,-138.437 724.894,-144.378 738.631,-149.572"/>
<polygon fill="midnightblue" stroke="midnightblue" points="737.623,-152.933 748.214,-153.195 740.099,-146.385 737.623,-152.933"/>
</g>
<!-- Node20 -->
<g id="node20" class="node"><title>Node20</title>
<g id="a_node20"><a xlink:href="../../db/d82/wglew_8h.html#a500a82aecba06f4550f6849b8099ca21" target="_top" xlink:title="int">
<polygon fill="white" stroke="black" points="758,-76.5 758,-95.5 787,-95.5 787,-76.5 758,-76.5"/>
<text text-anchor="middle" x="772.5" y="-83.5" font-family="Helvetica,sans-Serif" font-size="10.00">int</text>
</a>
</g>
</g>
<!-- Node18&#45;&gt;Node20 -->
<g id="edge21" class="edge"><title>Node18&#45;&gt;Node20</title>
<path fill="none" stroke="midnightblue" d="M696.36,-114.411C712.388,-108.351 732.934,-100.582 748.49,-94.7003"/>
<polygon fill="midnightblue" stroke="midnightblue" points="749.778,-97.9552 757.894,-91.1446 747.302,-91.4076 749.778,-97.9552"/>
</g>
<!-- Node21 -->
<g id="node21" class="node"><title>Node21</title>
<g id="a_node21"><a xlink:href="../../d8/d91/rounding_8c.html#ab3a64ec72c5600bc114621e93309c8c3" target="_top" xlink:title="int2csd">
<polygon fill="white" stroke="black" points="748.5,-114.5 748.5,-133.5 796.5,-133.5 796.5,-114.5 748.5,-114.5"/>
<text text-anchor="middle" x="772.5" y="-121.5" font-family="Helvetica,sans-Serif" font-size="10.00">int2csd</text>
</a>
</g>
</g>
<!-- Node18&#45;&gt;Node21 -->
<g id="edge22" class="edge"><title>Node18&#45;&gt;Node21</title>
<path fill="none" stroke="midnightblue" d="M701.153,-124C712.87,-124 726.331,-124 738.321,-124"/>
<polygon fill="midnightblue" stroke="midnightblue" points="738.398,-127.5 748.398,-124 738.398,-120.5 738.398,-127.5"/>
</g>
<!-- Node22&#45;&gt;Node20 -->
<g id="edge24" class="edge"><title>Node22&#45;&gt;Node20</title>
<path fill="none" stroke="midnightblue" d="M698.197,-86C713.576,-86 732.634,-86 747.462,-86"/>
<polygon fill="midnightblue" stroke="midnightblue" points="747.846,-89.5001 757.846,-86 747.846,-82.5001 747.846,-89.5001"/>
</g>
<!-- Node25 -->
<g id="node25" class="node"><title>Node25</title>
<g id="a_node25"><a xlink:href="../../d9/df5/Logger_8cpp.html#ada38bf01d6d691de953ed69268ea6516" target="_top" xlink:title="errToStr">
<polygon fill="white" stroke="black" points="644,-0.5 644,-19.5 696,-19.5 696,-0.5 644,-0.5"/>
<text text-anchor="middle" x="670" y="-7.5" font-family="Helvetica,sans-Serif" font-size="10.00">errToStr</text>
</a>
</g>
</g>
<!-- Node24&#45;&gt;Node25 -->
<g id="edge27" class="edge"><title>Node24&#45;&gt;Node25</title>
<path fill="none" stroke="midnightblue" d="M583.616,-114.428C589.552,-111.736 595.288,-108.32 600,-104 627.253,-79.0125 610.852,-56.1053 636,-29 637.175,-27.7339 638.453,-26.5283 639.802,-25.3841"/>
<polygon fill="midnightblue" stroke="midnightblue" points="641.945,-28.1552 648.067,-19.5078 637.889,-22.4503 641.945,-28.1552"/>
</g>
<!-- Node27&#45;&gt;Node3 -->
<g id="edge30" class="edge"><title>Node27&#45;&gt;Node3</title>
<path fill="none" stroke="midnightblue" d="M316.332,-110.667C324.779,-111.966 333.362,-113.287 341.681,-114.566"/>
<polygon fill="midnightblue" stroke="midnightblue" points="341.252,-118.041 351.668,-116.103 342.317,-111.123 341.252,-118.041"/>
</g>
</g>
</svg>
