<?xml version="1.0" encoding="UTF-8" standalone="no"?>
<!DOCTYPE svg PUBLIC "-//W3C//DTD SVG 1.1//EN"
 "http://www.w3.org/Graphics/SVG/1.1/DTD/svg11.dtd">
<!-- Generated by graphviz version 2.38.0 (20140413.2041)
 -->
<!-- Title: lms7002_pnlMCU_BD_view::ReadOneByte Pages: 1 -->
<!--zoomable 333 -->
<svg id="main" version="1.1" xmlns="http://www.w3.org/2000/svg" xmlns:xlink="http://www.w3.org/1999/xlink" xml:space="preserve" onload="init(evt)">
<style type="text/css"><![CDATA[
.edge:hover path { stroke: red; }
.edge:hover polygon { stroke: red; fill: red; }
]]></style>
<script type="text/javascript"><![CDATA[
var edges = document.getElementsByTagName('g');
if (edges && edges.length) {
  for (var i=0;i<edges.length;i++) {
    if (edges[i].id.substr(0,4)=='edge') {
      edges[i].setAttribute('class','edge');
    }
  }
}
]]></script>
        <defs>
                <circle id="rim" cx="0" cy="0" r="7"/>
                <circle id="rim2" cx="0" cy="0" r="3.5"/>
                <g id="zoomPlus">
                        <use xlink:href="#rim" fill="#404040">
                                <set attributeName="fill" to="#808080" begin="zoomplus.mouseover" end="zoomplus.mouseout"/>
                        </use>
                        <path d="M-4,0h8M0,-4v8" fill="none" stroke="white" stroke-width="1.5" pointer-events="none"/>
                </g>
                <g id="zoomMin">
                        <use xlink:href="#rim" fill="#404040">
                                <set attributeName="fill" to="#808080" begin="zoomminus.mouseover" end="zoomminus.mouseout"/>
                        </use>
                        <path d="M-4,0h8" fill="none" stroke="white" stroke-width="1.5" pointer-events="none"/>
                </g>
                <g id="dirArrow">
                        <path fill="none" stroke="white" stroke-width="1.5" d="M0,-3.0v7 M-2.5,-0.5L0,-3.0L2.5,-0.5"/>
                </g>
               <g id="resetDef">
                       <use xlink:href="#rim2" fill="#404040">
                               <set attributeName="fill" to="#808080" begin="reset.mouseover" end="reset.mouseout"/>
                       </use>
               </g>
        </defs>

<script type="text/javascript">
var viewWidth = 676;
var viewHeight = 333;
var sectionId = 'dynsection-44';
</script>
<script xlink:href="../../svgpan.js"/>
<svg id="graph" class="graph">
<g id="viewport">
<title>lms7002_pnlMCU_BD_view::ReadOneByte</title>
<polygon fill="white" stroke="none" points="-4,4 -4,-329 672,-329 672,4 -4,4"/>
<!-- Node1 -->
<g id="node1" class="node"><title>Node1</title>
<polygon fill="#bfbfbf" stroke="black" points="0,-196.5 0,-226.5 140,-226.5 140,-196.5 0,-196.5"/>
<text text-anchor="start" x="8" y="-214.5" font-family="Helvetica,sans-Serif" font-size="10.00">lms7002_pnlMCU_BD_view</text>
<text text-anchor="middle" x="70" y="-203.5" font-family="Helvetica,sans-Serif" font-size="10.00">::ReadOneByte</text>
</g>
<!-- Node2 -->
<g id="node2" class="node"><title>Node2</title>
<g id="a_node2"><a xlink:href="../../d8/d95/classlms7002__pnlMCU__BD__view.html#ae813a96a1594acc2690a2817f9641286" target="_top" xlink:title="lms7002_pnlMCU_BD_view\l::One_byte_command">
<polygon fill="white" stroke="black" points="176,-245.5 176,-275.5 316,-275.5 316,-245.5 176,-245.5"/>
<text text-anchor="start" x="184" y="-263.5" font-family="Helvetica,sans-Serif" font-size="10.00">lms7002_pnlMCU_BD_view</text>
<text text-anchor="middle" x="246" y="-252.5" font-family="Helvetica,sans-Serif" font-size="10.00">::One_byte_command</text>
</a>
</g>
</g>
<!-- Node1&#45;&gt;Node2 -->
<g id="edge1" class="edge"><title>Node1&#45;&gt;Node2</title>
<path fill="none" stroke="midnightblue" d="M134.284,-229.321C153.07,-234.612 173.455,-240.352 191.552,-245.448"/>
<polygon fill="midnightblue" stroke="midnightblue" points="135.2,-225.943 124.626,-226.601 133.302,-232.681 135.2,-225.943"/>
</g>
<!-- Node5 -->
<g id="node5" class="node"><title>Node5</title>
<g id="a_node5"><a xlink:href="../../d8/d95/classlms7002__pnlMCU__BD__view.html#add7afe70d542c596dad605c4e90a99b4" target="_top" xlink:title="lms7002_pnlMCU_BD_view\l::Three_byte_command">
<polygon fill="white" stroke="black" points="176,-147.5 176,-177.5 316,-177.5 316,-147.5 176,-147.5"/>
<text text-anchor="start" x="184" y="-165.5" font-family="Helvetica,sans-Serif" font-size="10.00">lms7002_pnlMCU_BD_view</text>
<text text-anchor="middle" x="246" y="-154.5" font-family="Helvetica,sans-Serif" font-size="10.00">::Three_byte_command</text>
</a>
</g>
</g>
<!-- Node1&#45;&gt;Node5 -->
<g id="edge4" class="edge"><title>Node1&#45;&gt;Node5</title>
<path fill="none" stroke="midnightblue" d="M134.284,-193.679C153.07,-188.388 173.455,-182.648 191.552,-177.552"/>
<polygon fill="midnightblue" stroke="midnightblue" points="133.302,-190.319 124.626,-196.399 135.2,-197.057 133.302,-190.319"/>
</g>
<!-- Node3 -->
<g id="node3" class="node"><title>Node3</title>
<g id="a_node3"><a xlink:href="../../d8/d95/classlms7002__pnlMCU__BD__view.html#a76d1ba3a193b24297326f50bfec5d360" target="_top" xlink:title="lms7002_pnlMCU_BD_view\l::ResetPC_MCU">
<polygon fill="white" stroke="black" points="352,-294.5 352,-324.5 492,-324.5 492,-294.5 352,-294.5"/>
<text text-anchor="start" x="360" y="-312.5" font-family="Helvetica,sans-Serif" font-size="10.00">lms7002_pnlMCU_BD_view</text>
<text text-anchor="middle" x="422" y="-301.5" font-family="Helvetica,sans-Serif" font-size="10.00">::ResetPC_MCU</text>
</a>
</g>
</g>
<!-- Node2&#45;&gt;Node3 -->
<g id="edge2" class="edge"><title>Node2&#45;&gt;Node3</title>
<path fill="none" stroke="midnightblue" d="M310.284,-278.321C329.07,-283.612 349.455,-289.352 367.552,-294.448"/>
<polygon fill="midnightblue" stroke="midnightblue" points="311.2,-274.943 300.626,-275.601 309.302,-281.681 311.2,-274.943"/>
</g>
<!-- Node4 -->
<g id="node4" class="node"><title>Node4</title>
<g id="a_node4"><a xlink:href="../../d8/d95/classlms7002__pnlMCU__BD__view.html#ad84b20f8cb7c03889652cf23069e1280" target="_top" xlink:title="lms7002_pnlMCU_BD_view\l::OnResetPCClick">
<polygon fill="white" stroke="black" points="528,-294.5 528,-324.5 668,-324.5 668,-294.5 528,-294.5"/>
<text text-anchor="start" x="536" y="-312.5" font-family="Helvetica,sans-Serif" font-size="10.00">lms7002_pnlMCU_BD_view</text>
<text text-anchor="middle" x="598" y="-301.5" font-family="Helvetica,sans-Serif" font-size="10.00">::OnResetPCClick</text>
</a>
</g>
</g>
<!-- Node3&#45;&gt;Node4 -->
<g id="edge3" class="edge"><title>Node3&#45;&gt;Node4</title>
<path fill="none" stroke="midnightblue" d="M502.035,-309.5C510.625,-309.5 519.319,-309.5 527.779,-309.5"/>
<polygon fill="midnightblue" stroke="midnightblue" points="502.019,-306 492.019,-309.5 502.019,-313 502.019,-306"/>
</g>
<!-- Node6 -->
<g id="node6" class="node"><title>Node6</title>
<g id="a_node6"><a xlink:href="../../d8/d95/classlms7002__pnlMCU__BD__view.html#a69fef8ca0e81045a1cceaa0ff3209243" target="_top" xlink:title="lms7002_pnlMCU_BD_view\l::RunInstr_MCU">
<polygon fill="white" stroke="black" points="352,-245.5 352,-275.5 492,-275.5 492,-245.5 352,-245.5"/>
<text text-anchor="start" x="360" y="-263.5" font-family="Helvetica,sans-Serif" font-size="10.00">lms7002_pnlMCU_BD_view</text>
<text text-anchor="middle" x="422" y="-252.5" font-family="Helvetica,sans-Serif" font-size="10.00">::RunInstr_MCU</text>
</a>
</g>
</g>
<!-- Node5&#45;&gt;Node6 -->
<g id="edge5" class="edge"><title>Node5&#45;&gt;Node6</title>
<path fill="none" stroke="midnightblue" d="M272.869,-183.836C293.36,-199.946 323.229,-221.728 352,-236.5 358.318,-239.744 365.174,-242.717 372.03,-245.383"/>
<polygon fill="midnightblue" stroke="midnightblue" points="274.963,-181.029 264.961,-177.533 270.6,-186.503 274.963,-181.029"/>
</g>
<!-- Node8 -->
<g id="node8" class="node"><title>Node8</title>
<g id="a_node8"><a xlink:href="../../d8/d95/classlms7002__pnlMCU__BD__view.html#a2babb33ebcbc572d1926ecc918e7c991" target="_top" xlink:title="lms7002_pnlMCU_BD_view\l::OnbtnRunTestClick">
<polygon fill="white" stroke="black" points="352,-196.5 352,-226.5 492,-226.5 492,-196.5 352,-196.5"/>
<text text-anchor="start" x="360" y="-214.5" font-family="Helvetica,sans-Serif" font-size="10.00">lms7002_pnlMCU_BD_view</text>
<text text-anchor="middle" x="422" y="-203.5" font-family="Helvetica,sans-Serif" font-size="10.00">::OnbtnRunTestClick</text>
</a>
</g>
</g>
<!-- Node5&#45;&gt;Node8 -->
<g id="edge7" class="edge"><title>Node5&#45;&gt;Node8</title>
<path fill="none" stroke="midnightblue" d="M310.284,-180.321C329.07,-185.612 349.455,-191.352 367.552,-196.448"/>
<polygon fill="midnightblue" stroke="midnightblue" points="311.2,-176.943 300.626,-177.601 309.302,-183.681 311.2,-176.943"/>
</g>
<!-- Node9 -->
<g id="node9" class="node"><title>Node9</title>
<g id="a_node9"><a xlink:href="../../d8/d95/classlms7002__pnlMCU__BD__view.html#a1cc4e9c438829e4c3a56b94db209b432" target="_top" xlink:title="lms7002_pnlMCU_BD_view\l::Read_SFR">
<polygon fill="white" stroke="black" points="352,-147.5 352,-177.5 492,-177.5 492,-147.5 352,-147.5"/>
<text text-anchor="start" x="360" y="-165.5" font-family="Helvetica,sans-Serif" font-size="10.00">lms7002_pnlMCU_BD_view</text>
<text text-anchor="middle" x="422" y="-154.5" font-family="Helvetica,sans-Serif" font-size="10.00">::Read_SFR</text>
</a>
</g>
</g>
<!-- Node5&#45;&gt;Node9 -->
<g id="edge8" class="edge"><title>Node5&#45;&gt;Node9</title>
<path fill="none" stroke="midnightblue" d="M326.035,-162.5C334.625,-162.5 343.319,-162.5 351.779,-162.5"/>
<polygon fill="midnightblue" stroke="midnightblue" points="326.019,-159 316.019,-162.5 326.019,-166 326.019,-159"/>
</g>
<!-- Node11 -->
<g id="node11" class="node"><title>Node11</title>
<g id="a_node11"><a xlink:href="../../d8/d95/classlms7002__pnlMCU__BD__view.html#a2267dfba01947237ca4549751aa8a66a" target="_top" xlink:title="lms7002_pnlMCU_BD_view\l::Read_IRAM">
<polygon fill="white" stroke="black" points="352,-98.5 352,-128.5 492,-128.5 492,-98.5 352,-98.5"/>
<text text-anchor="start" x="360" y="-116.5" font-family="Helvetica,sans-Serif" font-size="10.00">lms7002_pnlMCU_BD_view</text>
<text text-anchor="middle" x="422" y="-105.5" font-family="Helvetica,sans-Serif" font-size="10.00">::Read_IRAM</text>
</a>
</g>
</g>
<!-- Node5&#45;&gt;Node11 -->
<g id="edge10" class="edge"><title>Node5&#45;&gt;Node11</title>
<path fill="none" stroke="midnightblue" d="M310.284,-144.679C329.07,-139.388 349.455,-133.648 367.552,-128.552"/>
<polygon fill="midnightblue" stroke="midnightblue" points="309.302,-141.319 300.626,-147.399 311.2,-148.057 309.302,-141.319"/>
</g>
<!-- Node13 -->
<g id="node13" class="node"><title>Node13</title>
<g id="a_node13"><a xlink:href="../../d8/d95/classlms7002__pnlMCU__BD__view.html#a401816c5625664e624bb7998df262bc1" target="_top" xlink:title="lms7002_pnlMCU_BD_view\l::Erase_IRAM">
<polygon fill="white" stroke="black" points="352,-49.5 352,-79.5 492,-79.5 492,-49.5 352,-49.5"/>
<text text-anchor="start" x="360" y="-67.5" font-family="Helvetica,sans-Serif" font-size="10.00">lms7002_pnlMCU_BD_view</text>
<text text-anchor="middle" x="422" y="-56.5" font-family="Helvetica,sans-Serif" font-size="10.00">::Erase_IRAM</text>
</a>
</g>
</g>
<!-- Node5&#45;&gt;Node13 -->
<g id="edge12" class="edge"><title>Node5&#45;&gt;Node13</title>
<path fill="none" stroke="midnightblue" d="M273.343,-141.292C293.875,-125.497 323.579,-104.209 352,-89.5 359.016,-85.8692 366.68,-82.5307 374.268,-79.5559"/>
<polygon fill="midnightblue" stroke="midnightblue" points="271.143,-138.569 265.406,-147.476 275.446,-144.091 271.143,-138.569"/>
</g>
<!-- Node15 -->
<g id="node15" class="node"><title>Node15</title>
<g id="a_node15"><a xlink:href="../../d8/d95/classlms7002__pnlMCU__BD__view.html#a69e6eff0d84bb955bca5ca2feca93d44" target="_top" xlink:title="lms7002_pnlMCU_BD_view\l::Change_MCUFrequency">
<polygon fill="white" stroke="black" points="352,-0.5 352,-30.5 492,-30.5 492,-0.5 352,-0.5"/>
<text text-anchor="start" x="360" y="-18.5" font-family="Helvetica,sans-Serif" font-size="10.00">lms7002_pnlMCU_BD_view</text>
<text text-anchor="middle" x="422" y="-7.5" font-family="Helvetica,sans-Serif" font-size="10.00">::Change_MCUFrequency</text>
</a>
</g>
</g>
<!-- Node5&#45;&gt;Node15 -->
<g id="edge14" class="edge"><title>Node5&#45;&gt;Node15</title>
<path fill="none" stroke="midnightblue" d="M261.99,-138.617C280.209,-111.373 313.354,-67.1598 352,-40.5 357.454,-36.7378 363.539,-33.4725 369.774,-30.6575"/>
<polygon fill="midnightblue" stroke="midnightblue" points="258.949,-136.873 256.397,-147.156 264.804,-140.708 258.949,-136.873"/>
</g>
<!-- Node7 -->
<g id="node7" class="node"><title>Node7</title>
<g id="a_node7"><a xlink:href="../../d8/d95/classlms7002__pnlMCU__BD__view.html#a157ee386d14035b484a2779de41691b3" target="_top" xlink:title="lms7002_pnlMCU_BD_view\l::OnRunInstruction">
<polygon fill="white" stroke="black" points="528,-245.5 528,-275.5 668,-275.5 668,-245.5 528,-245.5"/>
<text text-anchor="start" x="536" y="-263.5" font-family="Helvetica,sans-Serif" font-size="10.00">lms7002_pnlMCU_BD_view</text>
<text text-anchor="middle" x="598" y="-252.5" font-family="Helvetica,sans-Serif" font-size="10.00">::OnRunInstruction</text>
</a>
</g>
</g>
<!-- Node6&#45;&gt;Node7 -->
<g id="edge6" class="edge"><title>Node6&#45;&gt;Node7</title>
<path fill="none" stroke="midnightblue" d="M502.035,-260.5C510.625,-260.5 519.319,-260.5 527.779,-260.5"/>
<polygon fill="midnightblue" stroke="midnightblue" points="502.019,-257 492.019,-260.5 502.019,-264 502.019,-257"/>
</g>
<!-- Node10 -->
<g id="node10" class="node"><title>Node10</title>
<g id="a_node10"><a xlink:href="../../d8/d95/classlms7002__pnlMCU__BD__view.html#abbef8d8a96e4c8e9578c76dada34de08" target="_top" xlink:title="lms7002_pnlMCU_BD_view\l::OnViewSFRsClick">
<polygon fill="white" stroke="black" points="528,-147.5 528,-177.5 668,-177.5 668,-147.5 528,-147.5"/>
<text text-anchor="start" x="536" y="-165.5" font-family="Helvetica,sans-Serif" font-size="10.00">lms7002_pnlMCU_BD_view</text>
<text text-anchor="middle" x="598" y="-154.5" font-family="Helvetica,sans-Serif" font-size="10.00">::OnViewSFRsClick</text>
</a>
</g>
</g>
<!-- Node9&#45;&gt;Node10 -->
<g id="edge9" class="edge"><title>Node9&#45;&gt;Node10</title>
<path fill="none" stroke="midnightblue" d="M502.035,-162.5C510.625,-162.5 519.319,-162.5 527.779,-162.5"/>
<polygon fill="midnightblue" stroke="midnightblue" points="502.019,-159 492.019,-162.5 502.019,-166 502.019,-159"/>
</g>
<!-- Node12 -->
<g id="node12" class="node"><title>Node12</title>
<g id="a_node12"><a xlink:href="../../d8/d95/classlms7002__pnlMCU__BD__view.html#ae0baad3636e374c077f2a8ca9ef7203e" target="_top" xlink:title="lms7002_pnlMCU_BD_view\l::OnViewIRAMClick">
<polygon fill="white" stroke="black" points="528,-98.5 528,-128.5 668,-128.5 668,-98.5 528,-98.5"/>
<text text-anchor="start" x="536" y="-116.5" font-family="Helvetica,sans-Serif" font-size="10.00">lms7002_pnlMCU_BD_view</text>
<text text-anchor="middle" x="598" y="-105.5" font-family="Helvetica,sans-Serif" font-size="10.00">::OnViewIRAMClick</text>
</a>
</g>
</g>
<!-- Node11&#45;&gt;Node12 -->
<g id="edge11" class="edge"><title>Node11&#45;&gt;Node12</title>
<path fill="none" stroke="midnightblue" d="M502.035,-113.5C510.625,-113.5 519.319,-113.5 527.779,-113.5"/>
<polygon fill="midnightblue" stroke="midnightblue" points="502.019,-110 492.019,-113.5 502.019,-117 502.019,-110"/>
</g>
<!-- Node14 -->
<g id="node14" class="node"><title>Node14</title>
<g id="a_node14"><a xlink:href="../../d8/d95/classlms7002__pnlMCU__BD__view.html#a858bb9a8eaf635229b324edb80e6b545" target="_top" xlink:title="lms7002_pnlMCU_BD_view\l::OnEraseIRAMClick">
<polygon fill="white" stroke="black" points="528,-49.5 528,-79.5 668,-79.5 668,-49.5 528,-49.5"/>
<text text-anchor="start" x="536" y="-67.5" font-family="Helvetica,sans-Serif" font-size="10.00">lms7002_pnlMCU_BD_view</text>
<text text-anchor="middle" x="598" y="-56.5" font-family="Helvetica,sans-Serif" font-size="10.00">::OnEraseIRAMClick</text>
</a>
</g>
</g>
<!-- Node13&#45;&gt;Node14 -->
<g id="edge13" class="edge"><title>Node13&#45;&gt;Node14</title>
<path fill="none" stroke="midnightblue" d="M502.035,-64.5C510.625,-64.5 519.319,-64.5 527.779,-64.5"/>
<polygon fill="midnightblue" stroke="midnightblue" points="502.019,-61.0001 492.019,-64.5 502.019,-68.0001 502.019,-61.0001"/>
</g>
<!-- Node16 -->
<g id="node16" class="node"><title>Node16</title>
<g id="a_node16"><a xlink:href="../../d8/d95/classlms7002__pnlMCU__BD__view.html#ae85887ccbfd94d4649fd35b9690b6dd0" target="_top" xlink:title="lms7002_pnlMCU_BD_view\l::OnSelDivSelect">
<polygon fill="white" stroke="black" points="528,-0.5 528,-30.5 668,-30.5 668,-0.5 528,-0.5"/>
<text text-anchor="start" x="536" y="-18.5" font-family="Helvetica,sans-Serif" font-size="10.00">lms7002_pnlMCU_BD_view</text>
<text text-anchor="middle" x="598" y="-7.5" font-family="Helvetica,sans-Serif" font-size="10.00">::OnSelDivSelect</text>
</a>
</g>
</g>
<!-- Node15&#45;&gt;Node16 -->
<g id="edge15" class="edge"><title>Node15&#45;&gt;Node16</title>
<path fill="none" stroke="midnightblue" d="M502.035,-15.5C510.625,-15.5 519.319,-15.5 527.779,-15.5"/>
<polygon fill="midnightblue" stroke="midnightblue" points="502.019,-12.0001 492.019,-15.5 502.019,-19.0001 502.019,-12.0001"/>
</g>
</g>
</svg>
        <g id="navigator" transform="translate(0 0)" fill="#404254">
                <rect fill="#f2f5e9" fill-opacity="0.5" stroke="#606060" stroke-width=".5" x="0" y="0" width="60" height="60"/>
                <use id="zoomplus" xlink:href="#zoomPlus" x="17" y="9" onmousedown="handleZoom(evt,'in')"/>
                <use id="zoomminus" xlink:href="#zoomMin" x="42" y="9" onmousedown="handleZoom(evt,'out')"/>
                <use id="reset" xlink:href="#resetDef" x="30" y="36" onmousedown="handleReset()"/>
                <g id="arrowUp" xlink:href="#dirArrow" transform="translate(30 24)" onmousedown="handlePan(0,-1)">
                  <use xlink:href="#rim" fill="#404040">
                        <set attributeName="fill" to="#808080" begin="arrowUp.mouseover" end="arrowUp.mouseout"/>
                  </use>
                  <path fill="none" stroke="white" stroke-width="1.5" d="M0,-3.0v7 M-2.5,-0.5L0,-3.0L2.5,-0.5"/>
                </g>
                <g id="arrowRight" xlink:href="#dirArrow" transform="rotate(90) translate(36 -43)" onmousedown="handlePan(1,0)">
                  <use xlink:href="#rim" fill="#404040">
                        <set attributeName="fill" to="#808080" begin="arrowRight.mouseover" end="arrowRight.mouseout"/>
                  </use>
                  <path fill="none" stroke="white" stroke-width="1.5" d="M0,-3.0v7 M-2.5,-0.5L0,-3.0L2.5,-0.5"/>
                </g>
                <g id="arrowDown" xlink:href="#dirArrow" transform="rotate(180) translate(-30 -48)" onmousedown="handlePan(0,1)">
                  <use xlink:href="#rim" fill="#404040">
                        <set attributeName="fill" to="#808080" begin="arrowDown.mouseover" end="arrowDown.mouseout"/>
                  </use>
                  <path fill="none" stroke="white" stroke-width="1.5" d="M0,-3.0v7 M-2.5,-0.5L0,-3.0L2.5,-0.5"/>
                </g>
                <g id="arrowLeft" xlink:href="#dirArrow" transform="rotate(270) translate(-36 17)" onmousedown="handlePan(-1,0)">
                  <use xlink:href="#rim" fill="#404040">
                        <set attributeName="fill" to="#808080" begin="arrowLeft.mouseover" end="arrowLeft.mouseout"/>
                  </use>
                  <path fill="none" stroke="white" stroke-width="1.5" d="M0,-3.0v7 M-2.5,-0.5L0,-3.0L2.5,-0.5"/>
                </g>
        </g>
        <svg viewBox="0 0 15 15" width="100%" height="30px" preserveAspectRatio="xMaxYMin meet">
         <g id="arrow_out" transform="scale(0.3 0.3)">
          <a xlink:href="classlms7002__pnlMCU__BD__view_aa57907543bb262b2cefdfdc01fc469ef_icgraph_org.svg" target="_base">
           <rect id="button" ry="5" rx="5" y="6" x="6" height="38" width="38"
                fill="#f2f5e9" fill-opacity="0.5" stroke="#606060" stroke-width="1.0"/>
           <path id="arrow"
             d="M 11.500037,31.436501 C 11.940474,20.09759 22.043105,11.32322 32.158766,21.979434 L 37.068811,17.246167 C 37.068811,17.246167 37.088388,32 37.088388,32 L 22.160133,31.978069 C 22.160133,31.978069 26.997745,27.140456 26.997745,27.140456 C 18.528582,18.264221 13.291696,25.230495 11.500037,31.436501 z"
             style="fill:#404040;"/>
          </a>
         </g>
        </svg>
</svg>
